<svg width="357" height="87" viewBox="0 0 357 87" fill="none" xmlns="http://www.w3.org/2000/svg">
<path d="M0 4C0 1.79086 1.79086 0 4 0H353C355.209 0 357 1.79086 357 4V82.3594C357 84.5685 355.209 86.3594 353 86.3594H4C1.79086 86.3594 0 84.5685 0 82.3594V4Z" fill="#F3F6FF"/>
<path d="M26.71 19.7016H23.5635V17.8735H22.5879V19.7016H19.4502V20.5014H26.71V19.7016ZM19.7666 17.4341L20.1533 18.2075C21.4761 17.957 22.5659 17.2231 23.0757 16.2168C23.5898 17.2099 24.6929 17.9218 26.0332 18.1635L26.4199 17.3901C24.7896 17.144 23.6118 16.0981 23.5811 14.9555H26.0859V14.1557H20.0566V14.9555H22.5527C22.5264 16.0981 21.3486 17.1704 19.7666 17.4341Z" fill="#113287"/>
<path d="M31.0201 14.6831V14.6479H32.6637V13.8569H28.3658V14.6479H30.0357V14.6743C30.0313 15.5883 29.3326 16.5551 28.0934 16.9594L28.5768 17.7241C29.4996 17.4341 30.172 16.8012 30.5323 16.0322C30.8795 16.7265 31.5211 17.2802 32.4176 17.5483L32.8746 16.7749C31.6617 16.4189 31.0157 15.54 31.0201 14.6831ZM29.5436 18.6909H33.8062V19.2534H29.5523V21.3716H35.0367V20.6069H30.5279V19.9829H34.7818V17.9174H29.5436V18.6909ZM32.4439 15.9751H33.8062V17.5835H34.7818V13.5141H33.8062V15.1928H32.4439V15.9751Z" fill="#113287"/>
<path d="M39.6545 15.7729V15.1049H41.3156V14.2964H36.9475V15.1049H38.6789V15.7729C38.6745 17.0957 37.9055 18.581 36.6398 19.1831L37.2111 19.9477C38.1252 19.5083 38.8195 18.5766 39.1799 17.4868C39.5358 18.4799 40.1994 19.3325 41.0959 19.7544L41.6408 18.9809C40.3884 18.3965 39.6501 16.999 39.6545 15.7729ZM42.0539 21.4594H43.0295V17.4253H44.2512V16.6079H43.0295V13.5141H42.0539V21.4594Z" fill="#113287"/>
<path d="M51.8572 13.8745H46.3816V14.6567H50.8816C50.8772 15.2016 50.8597 15.8828 50.7015 16.7837H45.4852V17.5747H52.7449V16.7837H51.6858C51.8616 15.7729 51.8616 15.0215 51.8572 14.437V13.8745ZM46.2498 19.3589H50.9168V21.4682H51.8924V18.5854H46.2498V19.3589Z" fill="#113287"/>
<path d="M26.5234 45.4516H23.377V43.6235H22.4014V45.4516H19.2637V46.2514H26.5234V45.4516ZM19.5801 43.1841L19.9668 43.9575C21.2896 43.707 22.3794 42.9731 22.8892 41.9668C23.4033 42.9599 24.5063 43.6718 25.8467 43.9135L26.2334 43.1401C24.603 42.894 23.4253 41.8481 23.3945 40.7055H25.8994V39.9057H19.8701V40.7055H22.3662C22.3398 41.8481 21.1621 42.9204 19.5801 43.1841Z" fill="#113287"/>
<path d="M30.8336 40.4331V40.3979H32.4771V39.6069H28.1793V40.3979H29.8492V40.4243C29.8448 41.3383 29.1461 42.3051 27.9068 42.7094L28.3902 43.4741C29.3131 43.1841 29.9854 42.5512 30.3458 41.7822C30.693 42.4765 31.3346 43.0302 32.2311 43.2983L32.6881 42.5249C31.4752 42.1689 30.8292 41.29 30.8336 40.4331ZM29.357 44.4409H33.6197V45.0034H29.3658V47.1216H34.8502V46.3569H30.3414V45.7329H34.5953V43.6674H29.357V44.4409ZM32.2574 41.7251H33.6197V43.3335H34.5953V39.2641H33.6197V40.9428H32.2574V41.7251Z" fill="#113287"/>
<path d="M42.8869 39.2729H41.9113V45.1176H42.8869V42.3755H43.9943V41.5669H42.8869V39.2729ZM36.8928 43.8257H40.6809V39.8354H39.7141V41.0483H37.8596V39.8354H36.8928V43.8257ZM37.798 47.0512H43.2033V46.2602H38.7736V44.5288H37.798V47.0512ZM37.8596 43.0522V41.8042H39.7141V43.0522H37.8596Z" fill="#113287"/>
<path d="M52.5408 43.0346H45.2986V43.8081H52.5408V43.0346ZM46.0457 40.9868C46.0457 41.9492 47.1707 42.5249 48.9109 42.5249C50.6556 42.5249 51.7718 41.9492 51.7762 40.9868C51.7718 40.0376 50.6556 39.4487 48.9109 39.4487C47.1707 39.4487 46.0457 40.0376 46.0457 40.9868ZM46.1424 45.768C46.1424 46.6953 47.1751 47.2138 48.9109 47.2094C50.6204 47.2138 51.6575 46.6953 51.6619 45.768C51.6575 44.8364 50.6204 44.3222 48.9109 44.3266C47.1751 44.3222 46.1424 44.8364 46.1424 45.768ZM47.0652 40.9868C47.0564 40.4814 47.7508 40.2133 48.9109 40.2133C50.0711 40.2133 50.7654 40.4814 50.7654 40.9868C50.7654 41.4966 50.0711 41.7646 48.9109 41.7602C47.7508 41.7646 47.0564 41.4966 47.0652 40.9868ZM47.1355 45.768C47.1312 45.3022 47.7552 45.0649 48.9109 45.0649C50.0491 45.0649 50.6775 45.3022 50.6863 45.768C50.6775 46.2207 50.0491 46.458 48.9109 46.4536C47.7552 46.458 47.1312 46.2207 47.1355 45.768Z" fill="#113287"/>
<path d="M25.4863 65.0141H24.5107V72.9419H25.4863V68.9341H26.6641V68.1167H25.4863V65.0141ZM19.2197 70.771L19.7734 71.5268C22.4146 70.226 23.3813 68.1738 23.3857 65.8403H19.6504V66.6489H22.3926C22.1992 68.4594 21.1533 69.8042 19.2197 70.771Z" fill="#113287"/>
<path d="M34.5602 65.0141H33.5758V69.2768H34.5602V65.0141ZM28.0826 67.229C28.0826 68.3144 28.9967 69.0791 30.2271 69.0747C31.4532 69.0791 32.3673 68.3144 32.3629 67.229C32.3673 66.1259 31.4532 65.3613 30.2271 65.3657C28.9967 65.3613 28.0826 66.1259 28.0826 67.229ZM29.0406 67.229C29.0362 66.5918 29.5328 66.1787 30.2271 66.1831C30.9083 66.1787 31.4049 66.5918 31.4049 67.229C31.4049 67.8662 30.9083 68.2705 30.2271 68.2749C29.5328 68.2705 29.0362 67.8662 29.0406 67.229ZM29.3043 72.8628H34.5602V69.646H33.5846V70.4633H30.2711V69.646H29.3043V72.8628ZM30.2711 72.0717V71.228H33.5846V72.0717H30.2711Z" fill="#113287"/>
<path d="M43.0715 68.6264H38.4748V66.3852H43.01V65.603H37.4992V69.3999H39.7492V71.2192H36.6203V72.019H43.8801V71.2192H40.716V69.3999H43.0715V68.6264Z" fill="#113287"/>
<path d="M79.6562 13.8647H79.0469V20.81H79.6562V17.2085H80.7812V16.6928H79.6562V13.8647ZM74.3281 19.0053L74.6719 19.4897C76.9336 18.3725 77.8555 16.5795 77.8594 14.6147H74.6484V15.1303H77.2383C77.0977 16.7749 76.1211 18.1147 74.3281 19.0053Z" fill="#113287"/>
<path d="M86.6953 13.8647H86.0781V20.81H86.6953V17.2475H87.75V16.7319H86.6953V13.8647ZM81.1719 18.8881L81.6641 19.2397C82.9258 17.9077 83.2969 16.2749 83.3047 14.6225H81.3906V15.1381H82.7227C82.6445 16.521 82.2188 17.8139 81.1719 18.8881ZM83.1641 19.3569L83.6641 19.7006C84.9648 18.1889 85.207 16.271 85.2109 14.6225H83.5234V15.1381H84.6328C84.5742 16.5874 84.25 18.1303 83.1641 19.3569Z" fill="#113287"/>
<path d="M94.4609 17.396H88.1016V17.9038H91.0234V19.3256H91.6406V17.9038H94.4609V17.396ZM88.8203 15.4428C88.8164 16.2983 89.7891 16.8295 91.2734 16.8256C92.7578 16.8295 93.7188 16.2983 93.7188 15.4428C93.7188 14.5795 92.7578 14.0483 91.2734 14.0444C89.7891 14.0483 88.8164 14.5795 88.8203 15.4428ZM88.9219 20.6616H93.75V20.1381H89.5391V18.6303H88.9219V20.6616ZM89.4766 15.4428C89.4688 14.8881 90.1914 14.5483 91.2734 14.5444C92.3516 14.5483 93.0703 14.8881 93.0703 15.4428C93.0703 15.9819 92.3516 16.3256 91.2734 16.3256C90.1914 16.3256 89.4688 15.9819 89.4766 15.4428Z" fill="#113287"/>
<path d="M99.3594 15.7319V14.4663H98.7578V15.7319C98.75 17.0014 97.9453 18.3335 96.9297 18.8335L97.3203 19.3256C98.1016 18.9077 98.7578 18.0288 99.0664 17.0053C99.375 17.9702 100.016 18.7944 100.781 19.1928L101.156 18.7006C100.168 18.2163 99.3594 16.9545 99.3594 15.7319ZM101.797 20.81H102.406V17.2163H103.57V16.685H102.406V13.8647H101.797V20.81Z" fill="#113287"/>
<path d="M110.273 16.8022H103.945V17.3022H106.797V17.9897H104.711V18.4663H108.859V19.0835H104.727V20.7319H109.672V20.2475H105.336V19.5444H109.461V17.9897H107.406V17.3022H110.273V16.8022ZM104.766 16.2163H109.453V14.0991H104.766V16.2163ZM105.375 15.7241V14.5913H108.844V15.7241H105.375Z" fill="#113287"/>
<path d="M111.289 18.021C111.297 19.4975 111.695 20.7241 112.414 21.771H113.008C112.48 20.9936 111.988 19.4155 111.984 18.021C111.988 16.6303 112.48 15.0483 113.008 14.2788H112.414C111.695 15.3217 111.297 16.5483 111.289 18.021Z" fill="#113287"/>
<path d="M119.914 17.3725H113.586V17.8725H119.914V17.3725ZM113.961 16.5053L114.164 16.9897C115.301 16.8608 116.324 16.4428 116.75 15.7397C117.168 16.4428 118.191 16.8608 119.336 16.9897L119.539 16.5053C118.227 16.392 117.129 15.853 117.086 15.06H119.273V14.5678H117.047V13.8491H116.445V14.5678H114.242V15.06H116.414C116.363 15.853 115.262 16.392 113.961 16.5053ZM114.289 19.1225H118.516V20.81H119.133V18.6225H114.289V19.1225Z" fill="#113287"/>
<path d="M126.258 13.8647H125.641V15.6772H124.242V16.185H125.641V18.0053H126.258V13.8647ZM120.531 17.4506L120.852 17.9428C121.68 17.6264 122.324 16.978 122.621 16.1655C122.922 16.8803 123.527 17.4663 124.305 17.7475L124.625 17.2553C123.609 16.9077 122.914 16.0444 122.914 15.1381V14.8881H124.469V14.3725H120.727V14.8881H122.297V15.146C122.297 16.1381 121.562 17.0795 120.531 17.4506ZM121.625 19.5131C121.621 20.3335 122.508 20.8022 123.953 20.81C125.395 20.8022 126.281 20.3335 126.281 19.5131C126.281 18.6967 125.395 18.2202 123.953 18.2241C122.508 18.2202 121.621 18.6967 121.625 19.5131ZM122.234 19.5131C122.23 19.0053 122.887 18.7006 123.953 18.7006C125.016 18.7006 125.672 19.0053 125.672 19.5131C125.672 20.017 125.016 20.3217 123.953 20.3178C122.887 20.3217 122.23 20.017 122.234 19.5131Z" fill="#113287"/>
<path d="M133.156 13.8647H132.539V20.81H133.156V13.8647ZM127.5 19.0053L127.836 19.5053C130.164 18.3881 131.094 16.6186 131.102 14.6225H127.82V15.1225H130.477C130.34 16.7827 129.379 18.1147 127.5 19.0053Z" fill="#113287"/>
<path d="M137.891 14.7319V14.7163H140.094V14.2163H134.906V14.7163H137.094V14.7319C137.098 15.5874 135.941 16.2827 134.719 16.4506L134.945 16.935C136.07 16.771 137.113 16.2124 137.492 15.3999C137.867 16.2124 138.918 16.771 140.039 16.935L140.281 16.4506C139.051 16.2827 137.887 15.5874 137.891 14.7319ZM134.32 17.9506H137.242V19.3725H137.852V17.9506H140.68V17.4428H134.32V17.9506ZM135.133 20.6616H139.969V20.146H135.75V18.6772H135.133V20.6616Z" fill="#113287"/>
<path d="M143.359 19.021H146.102V20.1772H146.773V19.021H147.562V18.4038H146.773V14.521H145.906L143.359 18.4428V19.021ZM144.117 18.4038V18.3569L146.031 15.4116H146.102V18.4038H144.117Z" fill="#113287"/>
<path d="M150.344 20.2553C151.598 20.2553 152.32 19.2006 152.32 17.3491C152.32 15.5131 151.586 14.4428 150.344 14.4428C149.098 14.4428 148.363 15.5131 148.367 17.3491C148.363 19.2006 149.09 20.2553 150.344 20.2553ZM149.047 17.3491C149.051 15.8842 149.531 15.0561 150.344 15.0522C151.156 15.0561 151.637 15.8842 151.633 17.3491C151.637 18.8139 151.16 19.6303 150.344 19.6303C149.523 19.6303 149.051 18.8139 149.047 17.3491Z" fill="#113287"/>
<path d="M155 20.2631C155.941 20.267 156.566 19.685 156.672 18.9272H156C155.883 19.392 155.5 19.6616 155 19.6616C154.23 19.6616 153.738 19.0327 153.734 18.0522C153.738 17.0991 154.242 16.4741 155 16.4741C155.566 16.4741 155.902 16.8295 156 17.2163H156.672C156.566 16.4155 155.887 15.8803 154.984 15.8803C153.832 15.8803 153.062 16.7866 153.062 18.0756C153.062 19.3491 153.797 20.267 155 20.2631Z" fill="#113287"/>
<path d="M157.5 20.1772H158.172V17.5288C158.172 16.9116 158.617 16.4819 159.125 16.4819C159.613 16.4819 159.957 16.8022 159.953 17.2788V20.1772H160.633V17.4194C160.637 16.8803 160.973 16.4819 161.562 16.4819C162.027 16.4819 162.418 16.7241 162.422 17.3491V20.1772H163.094V17.3413C163.094 16.3413 162.551 15.8803 161.797 15.8803C161.188 15.8803 160.738 16.1616 160.523 16.5991H160.477C160.277 16.146 159.898 15.8803 159.344 15.8803C158.789 15.8803 158.379 16.146 158.203 16.5991H158.148V15.935H157.5V20.1772Z" fill="#113287"/>
<path d="M165.648 18.021C165.641 16.5483 165.242 15.3217 164.523 14.2788H163.93C164.457 15.0483 164.949 16.6303 164.953 18.021C164.949 19.4155 164.457 20.9936 163.93 21.771H164.523C165.242 20.7241 165.641 19.4975 165.648 18.021Z" fill="#113287"/>
<path d="M169.805 13.9897C168.254 13.9897 167.344 14.4155 167.344 15.185C167.344 15.9741 168.254 16.3999 169.805 16.4038C171.348 16.3999 172.254 15.9741 172.258 15.185C172.254 14.4155 171.348 13.9897 169.805 13.9897ZM166.641 17.3725H172.969V16.8725H166.641V17.3725ZM167.406 18.4428H171.555V19.0756H167.422V20.7319H172.367V20.2475H168.031V19.5288H172.156V17.9741H167.406V18.4428ZM167.984 15.185C167.977 14.728 168.652 14.4545 169.805 14.4506C170.957 14.4545 171.629 14.728 171.633 15.185C171.629 15.6694 170.957 15.935 169.805 15.935C168.652 15.935 167.977 15.6694 167.984 15.185Z" fill="#113287"/>
<path d="M179.07 14.8491V14.8022H181.289V14.3022H176.156V14.8022H178.383V14.8491C178.379 15.7788 177.145 16.5678 175.938 16.7475L176.18 17.2319C177.246 17.0483 178.305 16.4702 178.727 15.6342C179.148 16.4702 180.207 17.0483 181.289 17.2319L181.516 16.7475C180.305 16.5678 179.066 15.7788 179.07 14.8491ZM175.562 18.3335H178.414V20.81H179.016V18.3335H181.891V17.8256H175.562V18.3335Z" fill="#113287"/>
<path d="M184.945 15.7319V14.4663H184.336V15.7319C184.328 17.0483 183.473 18.3764 182.438 18.8491L182.828 19.3647C183.641 18.9545 184.324 18.0756 184.645 17.0288C184.977 18.017 185.66 18.8413 186.453 19.2241L186.828 18.7397C185.805 18.2749 184.941 17.0014 184.945 15.7319ZM187.586 20.8256H188.203V13.8647H187.586V20.8256Z" fill="#113287"/>
<path d="M194.766 13.8647H194.156V20.81H194.766V17.2397H195.93V16.7319H194.766V13.8647ZM189.352 15.4897H193.484V14.9819H191.75V13.9506H191.141V14.9819H189.352V15.4897ZM189.75 17.6616C189.746 18.603 190.465 19.2553 191.453 19.2553C192.434 19.2553 193.148 18.603 193.156 17.6616C193.148 16.7241 192.434 16.0678 191.453 16.0678C190.465 16.0678 189.746 16.7241 189.75 17.6616ZM190.336 17.6616C190.332 17.0327 190.805 16.5795 191.453 16.5835C192.094 16.5795 192.562 17.0327 192.57 17.6616C192.562 18.2944 192.094 18.7397 191.453 18.7319C190.805 18.7397 190.332 18.2944 190.336 17.6616Z" fill="#113287"/>
<path d="M199.82 14.4741H196.633V17.7163H199.82V17.0913H201.445V18.9428H202.062V13.8725H201.445V15.0913H199.82V14.4741ZM197.242 17.2241V14.9819H199.219V17.2241H197.242ZM197.57 20.6616H202.219V20.146H198.188V18.4897H197.57V20.6616ZM199.82 16.5835V15.6069H201.445V16.5835H199.82Z" fill="#113287"/>
<path d="M208.734 14.396H205.523V17.3725H208.734V14.396ZM206.125 19.5053C206.129 20.3256 207.012 20.8022 208.43 20.81C209.848 20.8022 210.719 20.3256 210.719 19.5053C210.719 18.6928 209.848 18.2085 208.43 18.2085C207.012 18.2085 206.129 18.6928 206.125 19.5053ZM206.125 16.8803V14.896H208.141V16.8803H206.125ZM206.742 19.5053C206.734 19.0053 207.383 18.7085 208.43 18.7085C209.48 18.7085 210.121 19.0053 210.125 19.5053C210.121 20.0131 209.48 20.3061 208.43 20.31C207.383 20.3061 206.734 20.0131 206.742 19.5053ZM210.047 17.9741H210.656V16.1147H211.703V15.6069H210.656V13.8647H210.047V17.9741Z" fill="#113287"/>
<path d="M215.648 14.3881H212.438V17.4585H215.648V14.3881ZM213.023 18.8491H216.961V20.8256H217.57V18.3569H213.023V18.8491ZM213.039 16.9585V14.8803H215.055V16.9585H213.039ZM216.961 17.9819H217.57V16.1928H218.617V15.6772H217.57V13.8647H216.961V17.9819Z" fill="#113287"/>
<path d="M226.789 13.8725H226.188V20.8178H226.789V13.8725ZM221.031 17.6538L221.109 18.1772C221.711 18.1772 222.379 18.1733 223.07 18.146V20.5991H223.68V18.1186C224.359 18.0835 225.051 18.0288 225.719 17.935L225.688 17.4663C224.152 17.6342 222.418 17.646 221.031 17.6538ZM221.695 16.771H225.156V16.2553H222.312V14.7631H225.062V14.2631H221.695V16.771Z" fill="#113287"/>
<path d="M230.234 20.1772H233.906V19.5522H231.211V19.5053L232.508 18.1694C233.508 17.1381 233.801 16.646 233.805 16.0131C233.801 15.1342 233.074 14.4428 232.047 14.4428C231.023 14.4428 230.25 15.1147 230.258 16.1147H230.922C230.926 15.4819 231.348 15.0561 232.023 15.0522C232.66 15.0561 233.145 15.4311 233.148 16.0131C233.145 16.5366 232.824 16.9194 232.156 17.6303L230.227 19.6616L230.234 20.1772Z" fill="#113287"/>
<path d="M235.414 20.2241C235.691 20.2202 235.918 19.9936 235.914 19.7163C235.918 19.4428 235.691 19.2163 235.414 19.2163C235.141 19.2163 234.906 19.4428 234.914 19.7163C234.906 19.9936 235.141 20.2202 235.414 20.2241Z" fill="#113287"/>
<path d="M238.695 20.2553C239.824 20.2553 240.645 19.4663 240.648 18.3725C240.645 17.271 239.852 16.4741 238.773 16.4741C238.375 16.4741 237.996 16.6069 237.742 16.8022H237.688L237.898 15.146H240.375V14.521H237.312L236.914 17.6147H237.594C237.801 17.2475 238.172 17.0991 238.648 17.1069C239.41 17.1108 239.961 17.6538 239.961 18.3881C239.961 19.0991 239.43 19.6342 238.695 19.6381C238.082 19.6342 237.59 19.2592 237.539 18.7553H236.859C236.902 19.6264 237.676 20.2553 238.695 20.2553Z" fill="#113287"/>
<path d="M243.477 20.1772C245.199 20.1772 246.172 19.1069 246.172 17.3413C246.172 15.5795 245.199 14.521 243.547 14.521H241.719V20.1772H243.477ZM242.422 19.5522V15.146H243.5C244.816 15.146 245.484 15.9741 245.484 17.3413C245.484 18.7124 244.816 19.5522 243.43 19.5522H242.422Z" fill="#113287"/>
<path d="M254.617 13.8647H254.008V16.6616H252.352V17.1694H254.008V20.81H254.617V13.8647ZM248.875 18.9975L249.211 19.4897C251.531 18.3374 252.363 16.5913 252.367 14.6225H249.18V15.1225H251.75C251.625 16.7475 250.754 18.0874 248.875 18.9975Z" fill="#113287"/>
<path d="M261.516 13.8647H260.906V20.8256H261.516V13.8647ZM256.172 15.021H258.789V16.4819H256.188V19.1381H256.766C257.965 19.1381 259.02 19.0874 260.297 18.8881L260.234 18.3725C258.992 18.5717 257.965 18.6264 256.812 18.6225V16.9819H259.406V14.5131H256.172V15.021Z" fill="#113287"/>
<path d="M268.648 13.8647H268.055V20.81H268.648V13.8647ZM262.781 16.8647C262.785 18.3413 263.371 19.2827 264.273 19.2788C265.129 19.2827 265.711 18.435 265.77 17.0835H266.664V20.4585H267.25V14.0131H266.664V16.5756H265.766C265.688 15.267 265.117 14.4545 264.273 14.4506C263.371 14.4545 262.785 15.3881 262.781 16.8647ZM263.359 16.8647C263.352 15.7358 263.711 15.0288 264.273 15.0288C264.84 15.0288 265.199 15.7358 265.195 16.8647C265.199 17.9897 264.84 18.7006 264.273 18.6928C263.711 18.7006 263.352 17.9897 263.359 16.8647Z" fill="#113287"/>
<path d="M277.977 19.4194H275.086V17.8256H274.484V19.4194H271.617V19.935H277.977V19.4194ZM271.969 17.5913L272.211 18.0756C273.328 17.8803 274.348 17.3178 274.785 16.4467C275.23 17.3178 276.25 17.8803 277.359 18.0756L277.594 17.5913C276.262 17.3764 275.102 16.5678 275.102 15.4819H277.367V14.9741H275.086V14.0131H274.484V14.9741H272.211V15.4819H274.477C274.469 16.5678 273.309 17.3764 271.969 17.5913Z" fill="#113287"/>
<path d="M284.289 13.8647H283.672V15.6069H282.266V16.1225H283.672V17.935H284.289V13.8647ZM278.562 17.3803L278.883 17.8647C279.707 17.5639 280.348 16.9272 280.648 16.1225C280.949 16.8413 281.555 17.4233 282.336 17.7085L282.656 17.2241C281.641 16.8608 280.945 15.9936 280.945 15.0991V14.8256H282.5V14.3178H278.758V14.8256H280.328V15.0991C280.328 16.0874 279.586 17.017 278.562 17.3803ZM279.75 20.7163H284.289V18.2788H279.75V20.7163ZM280.359 20.2163V18.771H283.688V20.2163H280.359Z" fill="#113287"/>
<path d="M289.867 20.998C291.956 20.9951 293.658 19.2959 293.658 17.207C293.658 15.1211 291.956 13.416 289.867 13.416C287.781 13.416 286.079 15.1211 286.082 17.207C286.079 19.2959 287.781 20.9951 289.867 20.998ZM287.148 17.207C287.148 15.707 288.373 14.4854 289.873 14.4824C291.37 14.4854 292.592 15.707 292.592 17.207C292.592 18.7041 291.37 19.9287 289.873 19.9316C288.373 19.9287 287.148 18.7041 287.148 17.207Z" fill="#FFB341"/>
<path d="M300.543 13.8647H299.926V20.8256H300.543V13.8647ZM295.074 16.8256C295.078 18.3061 295.812 19.2436 296.848 19.2397C297.879 19.2436 298.625 18.3061 298.621 16.8256C298.625 15.3491 297.879 14.4077 296.848 14.4038C295.812 14.4077 295.078 15.3491 295.074 16.8256ZM295.668 16.8256C295.668 15.6967 296.152 14.9545 296.848 14.9506C297.547 14.9545 298.027 15.6967 298.027 16.8256C298.027 17.9545 297.547 18.6967 296.848 18.6928C296.152 18.6967 295.668 17.9545 295.668 16.8256Z" fill="#113287"/>
<path d="M309.637 13.8725H309.051V15.6225H308.129V14.0053H307.551V17.8335H308.129V16.1303H309.051V17.8881H309.637V13.8725ZM304.059 17.4038H306.746V14.396H304.059V17.4038ZM304.637 16.9272V14.8881H306.176V16.9272H304.637ZM304.73 20.31L304.957 20.7788C306.008 20.6264 306.965 20.1499 307.363 19.435C307.762 20.1499 308.723 20.6264 309.777 20.7788L309.996 20.31C308.809 20.1538 307.738 19.5405 307.691 18.7475H309.715V18.2475H305.004V18.7475H307.035C306.992 19.5522 305.914 20.1538 304.73 20.31Z" fill="#113287"/>
<path d="M316.387 13.8647H315.777V18.0756H316.387V13.8647ZM310.754 15.1147H315.012V14.6147H313.191V13.81H312.574V14.6147H310.754V15.1147ZM311.184 16.6928C311.176 17.4545 311.855 17.935 312.887 17.935C313.914 17.935 314.586 17.4545 314.59 16.6928C314.586 15.9389 313.914 15.4585 312.887 15.4585C311.855 15.4585 311.176 15.9389 311.184 16.6928ZM311.77 16.6928C311.762 16.2319 312.207 15.9272 312.887 15.9272C313.559 15.9272 314 16.2319 314.004 16.6928C314 17.1655 313.559 17.4585 312.887 17.4663C312.207 17.4585 311.762 17.1655 311.77 16.6928ZM311.871 20.7163H316.387V18.4506H311.871V20.7163ZM312.473 20.2163V18.9428H315.785V20.2163H312.473Z" fill="#113287"/>
<path d="M80.6406 39.838H77.75V38.2442H77.1484V39.838H74.2812V40.3536H80.6406V39.838ZM74.6328 38.0098L74.875 38.4942C75.9922 38.2989 77.0117 37.7364 77.4492 36.8653C77.8945 37.7364 78.9141 38.2989 80.0234 38.4942L80.2578 38.0098C78.9258 37.795 77.7656 36.9864 77.7656 35.9005H80.0312V35.3926H77.75V34.4317H77.1484V35.3926H74.875V35.9005H77.1406C77.1328 36.9864 75.9727 37.795 74.6328 38.0098Z" fill="#113287"/>
<path d="M86.9531 34.2833H86.3359V36.0255H84.9297V36.5411H86.3359V38.3536H86.9531V34.2833ZM81.2266 37.7989L81.5469 38.2833C82.3711 37.9825 83.0117 37.3458 83.3125 36.5411C83.6133 37.2598 84.2188 37.8419 85 38.127L85.3203 37.6426C84.3047 37.2794 83.6094 36.4122 83.6094 35.5176V35.2442H85.1641V34.7364H81.4219V35.2442H82.9922V35.5176C82.9922 36.5059 82.25 37.4356 81.2266 37.7989ZM82.4141 41.1348H86.9531V38.6973H82.4141V41.1348ZM83.0234 40.6348V39.1895H86.3516V40.6348H83.0234Z" fill="#113287"/>
<path d="M92.2803 41.511C94.3691 41.508 96.0713 39.8088 96.0713 37.7199C96.0713 35.634 94.3691 33.9289 92.2803 33.9289C90.1943 33.9289 88.4922 35.634 88.4951 37.7199C88.4922 39.8088 90.1943 41.508 92.2803 41.511ZM89.5615 37.7199C89.5615 36.2199 90.7861 34.9983 92.2861 34.9953C93.7832 34.9983 95.0049 36.2199 95.0049 37.7199C95.0049 39.217 93.7832 40.4416 92.2861 40.4445C90.7861 40.4416 89.5615 39.217 89.5615 37.7199Z" fill="#FFB341"/>
<path d="M100.15 34.4083C98.5996 34.4083 97.6895 34.8341 97.6895 35.6036C97.6895 36.3926 98.5996 36.8184 100.15 36.8223C101.693 36.8184 102.6 36.3926 102.604 35.6036C102.6 34.8341 101.693 34.4083 100.15 34.4083ZM96.9863 37.7911H103.314V37.2911H96.9863V37.7911ZM97.752 38.8614H101.9V39.4942H97.7676V41.1505H102.713V40.6661H98.377V39.9473H102.502V38.3926H97.752V38.8614ZM98.3301 35.6036C98.3223 35.1466 98.998 34.8731 100.15 34.8692C101.303 34.8731 101.975 35.1466 101.979 35.6036C101.975 36.088 101.303 36.3536 100.15 36.3536C98.998 36.3536 98.3223 36.088 98.3301 35.6036Z" fill="#113287"/>
<path d="M112.268 39.838H109.377V38.2442H108.775V39.838H105.908V40.3536H112.268V39.838ZM106.26 38.0098L106.502 38.4942C107.619 38.2989 108.639 37.7364 109.076 36.8653C109.521 37.7364 110.541 38.2989 111.65 38.4942L111.885 38.0098C110.553 37.795 109.393 36.9864 109.393 35.9005H111.658V35.3926H109.377V34.4317H108.775V35.3926H106.502V35.9005H108.768C108.76 36.9864 107.6 37.795 106.26 38.0098Z" fill="#113287"/>
<path d="M118.58 34.2833H117.963V36.0255H116.557V36.5411H117.963V38.3536H118.58V34.2833ZM112.854 37.7989L113.174 38.2833C113.998 37.9825 114.639 37.3458 114.939 36.5411C115.24 37.2598 115.846 37.8419 116.627 38.127L116.947 37.6426C115.932 37.2794 115.236 36.4122 115.236 35.5176V35.2442H116.791V34.7364H113.049V35.2442H114.619V35.5176C114.619 36.5059 113.877 37.4356 112.854 37.7989ZM114.041 41.1348H118.58V38.6973H114.041V41.1348ZM114.65 40.6348V39.1895H117.979V40.6348H114.65Z" fill="#113287"/>
<path d="M122.65 34.2143C122.76 34.2143 122.85 34.2543 122.92 34.3343C123 34.4043 123.04 34.4943 123.04 34.6043C123.04 34.7043 123 34.7943 122.92 34.8743C122.85 34.9543 122.76 34.9943 122.65 34.9943C122.55 34.9943 122.46 34.9543 122.38 34.8743C122.3 34.7943 122.26 34.7043 122.26 34.6043C122.26 34.4943 122.3 34.4043 122.38 34.3343C122.46 34.2543 122.55 34.2143 122.65 34.2143ZM125.17 34.2143C125.28 34.2143 125.37 34.2543 125.44 34.3343C125.52 34.4043 125.56 34.4943 125.56 34.6043C125.56 34.7043 125.52 34.7943 125.44 34.8743C125.37 34.9543 125.28 34.9943 125.17 34.9943C125.07 34.9943 124.98 34.9543 124.9 34.8743C124.82 34.7943 124.78 34.7043 124.78 34.6043C124.78 34.4943 124.82 34.4043 124.9 34.3343C124.98 34.2543 125.07 34.2143 125.17 34.2143ZM122.65 40.3643C122.76 40.3643 122.85 40.4043 122.92 40.4843C123 40.5543 123.04 40.6443 123.04 40.7543C123.04 40.8543 123 40.9443 122.92 41.0243C122.85 41.1043 122.76 41.1443 122.65 41.1443C122.55 41.1443 122.46 41.1043 122.38 41.0243C122.3 40.9443 122.26 40.8543 122.26 40.7543C122.26 40.6443 122.3 40.5543 122.38 40.4843C122.46 40.4043 122.55 40.3643 122.65 40.3643ZM125.17 40.3643C125.28 40.3643 125.37 40.4043 125.44 40.4843C125.52 40.5543 125.56 40.6443 125.56 40.7543C125.56 40.8543 125.52 40.9443 125.44 41.0243C125.37 41.1043 125.28 41.1443 125.17 41.1443C125.07 41.1443 124.98 41.1043 124.9 41.0243C124.82 40.9443 124.78 40.8543 124.78 40.7543C124.78 40.6443 124.82 40.5543 124.9 40.4843C124.98 40.4043 125.07 40.3643 125.17 40.3643ZM123.91 33.9443C124.02 33.9443 124.11 33.9843 124.18 34.0643C124.26 34.1343 124.3 34.2243 124.3 34.3343C124.3 34.4343 124.26 34.5243 124.18 34.6043C124.11 34.6843 124.02 34.7243 123.91 34.7243C123.81 34.7243 123.72 34.6843 123.64 34.6043C123.56 34.5243 123.52 34.4343 123.52 34.3343C123.52 34.2243 123.56 34.1343 123.64 34.0643C123.72 33.9843 123.81 33.9443 123.91 33.9443ZM123.91 40.6343C124.02 40.6343 124.11 40.6743 124.18 40.7543C124.26 40.8243 124.3 40.9143 124.3 41.0243C124.3 41.1243 124.26 41.2143 124.18 41.2943C124.11 41.3743 124.02 41.4143 123.91 41.4143C123.81 41.4143 123.72 41.3743 123.64 41.2943C123.56 41.2143 123.52 41.1243 123.52 41.0243C123.52 40.9143 123.56 40.8243 123.64 40.7543C123.72 40.6743 123.81 40.6343 123.91 40.6343ZM120.175 37.6793C120.175 37.5693 120.215 37.4793 120.295 37.4093C120.375 37.3293 120.465 37.2893 120.565 37.2893C120.675 37.2893 120.765 37.3293 120.835 37.4093C120.915 37.4793 120.955 37.5693 120.955 37.6793C120.955 37.7793 120.915 37.8693 120.835 37.9493C120.765 38.0293 120.675 38.0693 120.565 38.0693C120.465 38.0693 120.375 38.0293 120.295 37.9493C120.215 37.8693 120.175 37.7793 120.175 37.6793ZM126.865 37.6793C126.865 37.5693 126.905 37.4793 126.985 37.4093C127.065 37.3293 127.155 37.2893 127.255 37.2893C127.365 37.2893 127.455 37.3293 127.525 37.4093C127.605 37.4793 127.645 37.5693 127.645 37.6793C127.645 37.7793 127.605 37.8693 127.525 37.9493C127.455 38.0293 127.365 38.0693 127.255 38.0693C127.155 38.0693 127.065 38.0293 126.985 37.9493C126.905 37.8693 126.865 37.7793 126.865 37.6793ZM121.15 40.0493C121.15 39.9393 121.19 39.8493 121.27 39.7793C121.35 39.6993 121.44 39.6593 121.54 39.6593C121.65 39.6593 121.74 39.6993 121.81 39.7793C121.89 39.8493 121.93 39.9393 121.93 40.0493C121.93 40.1493 121.89 40.2393 121.81 40.3193C121.74 40.3993 121.65 40.4393 121.54 40.4393C121.44 40.4393 121.35 40.3993 121.27 40.3193C121.19 40.2393 121.15 40.1493 121.15 40.0493ZM121.15 35.3093C121.15 35.1993 121.19 35.1093 121.27 35.0393C121.35 34.9593 121.44 34.9193 121.54 34.9193C121.65 34.9193 121.74 34.9593 121.81 35.0393C121.89 35.1093 121.93 35.1993 121.93 35.3093C121.93 35.4093 121.89 35.4993 121.81 35.5793C121.74 35.6593 121.65 35.6993 121.54 35.6993C121.44 35.6993 121.35 35.6593 121.27 35.5793C121.19 35.4993 121.15 35.4093 121.15 35.3093ZM125.89 40.0493C125.89 39.9393 125.93 39.8493 126.01 39.7793C126.09 39.6993 126.18 39.6593 126.28 39.6593C126.39 39.6593 126.48 39.6993 126.55 39.7793C126.63 39.8493 126.67 39.9393 126.67 40.0493C126.67 40.1493 126.63 40.2393 126.55 40.3193C126.48 40.3993 126.39 40.4393 126.28 40.4393C126.18 40.4393 126.09 40.3993 126.01 40.3193C125.93 40.2393 125.89 40.1493 125.89 40.0493ZM125.89 35.3093C125.89 35.1993 125.93 35.1093 126.01 35.0393C126.09 34.9593 126.18 34.9193 126.28 34.9193C126.39 34.9193 126.48 34.9593 126.55 35.0393C126.63 35.1093 126.67 35.1993 126.67 35.3093C126.67 35.4093 126.63 35.4993 126.55 35.5793C126.48 35.6593 126.39 35.6993 126.28 35.6993C126.18 35.6993 126.09 35.6593 126.01 35.5793C125.93 35.4993 125.89 35.4093 125.89 35.3093ZM120.445 38.9393C120.445 38.8293 120.485 38.7393 120.565 38.6693C120.645 38.5893 120.735 38.5493 120.835 38.5493C120.945 38.5493 121.035 38.5893 121.105 38.6693C121.185 38.7393 121.225 38.8293 121.225 38.9393C121.225 39.0393 121.185 39.1293 121.105 39.2093C121.035 39.2893 120.945 39.3293 120.835 39.3293C120.735 39.3293 120.645 39.2893 120.565 39.2093C120.485 39.1293 120.445 39.0393 120.445 38.9393ZM120.445 36.4193C120.445 36.3093 120.485 36.2193 120.565 36.1493C120.645 36.0693 120.735 36.0293 120.835 36.0293C120.945 36.0293 121.035 36.0693 121.105 36.1493C121.185 36.2193 121.225 36.3093 121.225 36.4193C121.225 36.5193 121.185 36.6093 121.105 36.6893C121.035 36.7693 120.945 36.8093 120.835 36.8093C120.735 36.8093 120.645 36.7693 120.565 36.6893C120.485 36.6093 120.445 36.5193 120.445 36.4193ZM126.595 38.9393C126.595 38.8293 126.635 38.7393 126.715 38.6693C126.795 38.5893 126.885 38.5493 126.985 38.5493C127.095 38.5493 127.185 38.5893 127.255 38.6693C127.335 38.7393 127.375 38.8293 127.375 38.9393C127.375 39.0393 127.335 39.1293 127.255 39.2093C127.185 39.2893 127.095 39.3293 126.985 39.3293C126.885 39.3293 126.795 39.2893 126.715 39.2093C126.635 39.1293 126.595 39.0393 126.595 38.9393ZM126.595 36.4193C126.595 36.3093 126.635 36.2193 126.715 36.1493C126.795 36.0693 126.885 36.0293 126.985 36.0293C127.095 36.0293 127.185 36.0693 127.255 36.1493C127.335 36.2193 127.375 36.3093 127.375 36.4193C127.375 36.5193 127.335 36.6093 127.255 36.6893C127.185 36.7693 127.095 36.8093 126.985 36.8093C126.885 36.8093 126.795 36.7693 126.715 36.6893C126.635 36.6093 126.595 36.5193 126.595 36.4193Z" fill="#113287"/>
<path d="M129.072 38.4395C129.08 39.9161 129.479 41.1426 130.197 42.1895H130.791C130.264 41.4122 129.771 39.8341 129.768 38.4395C129.771 37.0489 130.264 35.4669 130.791 34.6973H130.197C129.479 35.7403 129.08 36.9669 129.072 38.4395Z" fill="#113287"/>
<path d="M134.877 34.8145H131.666V37.7911H134.877V34.8145ZM132.268 39.9239C132.271 40.7442 133.154 41.2208 134.572 41.2286C135.99 41.2208 136.861 40.7442 136.861 39.9239C136.861 39.1114 135.99 38.627 134.572 38.627C133.154 38.627 132.271 39.1114 132.268 39.9239ZM132.268 37.2989V35.3145H134.283V37.2989H132.268ZM132.885 39.9239C132.877 39.4239 133.525 39.127 134.572 39.127C135.623 39.127 136.264 39.4239 136.268 39.9239C136.264 40.4317 135.623 40.7247 134.572 40.7286C133.525 40.7247 132.877 40.4317 132.885 39.9239ZM136.189 38.3926H136.799V36.5333H137.846V36.0255H136.799V34.2833H136.189V38.3926Z" fill="#113287"/>
<path d="M141.791 34.8067H138.58V37.877H141.791V34.8067ZM139.166 39.2676H143.104V41.2442H143.713V38.7755H139.166V39.2676ZM139.182 37.377V35.2989H141.197V37.377H139.182ZM143.104 38.4005H143.713V36.6114H144.76V36.0958H143.713V34.2833H143.104V38.4005Z" fill="#113287"/>
<path d="M146.932 38.4395C146.924 36.9669 146.525 35.7403 145.807 34.6973H145.213C145.74 35.4669 146.232 37.0489 146.236 38.4395C146.232 39.8341 145.74 41.4122 145.213 42.1895H145.807C146.525 41.1426 146.924 39.9161 146.932 38.4395Z" fill="#113287"/>
<path d="M151.088 34.7364C149.639 34.7403 148.549 35.4981 148.549 36.6426C148.549 37.7989 149.639 38.5567 151.088 38.5489C152.537 38.5567 153.627 37.7989 153.627 36.6426C153.627 35.4981 152.537 34.7403 151.088 34.7364ZM147.924 40.3067H154.283V39.7911H147.924V40.3067ZM149.135 36.6426C149.127 35.8106 149.967 35.2325 151.088 35.2364C152.201 35.2325 153.033 35.8106 153.033 36.6426C153.033 37.4864 152.201 38.0489 151.088 38.0489C149.967 38.0489 149.127 37.4864 149.135 36.6426Z" fill="#113287"/>
<path d="M161.197 39.8536H158.299V38.5411H160.557V38.0333H156.244V36.9005H160.393V34.7989H155.619V35.3067H159.791V36.4005H155.635V38.5411H157.697V39.8536H154.838V40.3692H161.197V39.8536Z" fill="#113287"/>
<path d="M169.486 34.2833H168.869V41.2442H169.486V34.2833ZM164.018 37.2442C164.021 38.7247 164.756 39.6622 165.791 39.6583C166.822 39.6622 167.568 38.7247 167.564 37.2442C167.568 35.7676 166.822 34.8262 165.791 34.8223C164.756 34.8262 164.021 35.7676 164.018 37.2442ZM164.611 37.2442C164.611 36.1153 165.096 35.3731 165.791 35.3692C166.49 35.3731 166.971 36.1153 166.971 37.2442C166.971 38.3731 166.49 39.1153 165.791 39.1114C165.096 39.1153 164.611 38.3731 164.611 37.2442Z" fill="#113287"/>
<path d="M177.01 37.7208H174.135V36.9083H176.268V36.4083H172.08V35.1036H176.221V34.6114H171.479V36.9083H173.541V37.7208H170.674V38.213H177.01V37.7208ZM171.439 39.9708C171.436 40.7716 172.338 41.2208 173.838 41.2286C175.326 41.2208 176.221 40.7716 176.229 39.9708C176.221 39.1778 175.326 38.7247 173.838 38.7208C172.338 38.7247 171.436 39.1778 171.439 39.9708ZM172.064 39.9708C172.057 39.4903 172.725 39.2051 173.838 39.2051C174.939 39.2051 175.607 39.4903 175.611 39.9708C175.607 40.4591 174.939 40.7403 173.838 40.7364C172.725 40.7403 172.057 40.4591 172.064 39.9708Z" fill="#113287"/>
<path d="M180.057 36.1505V34.8848H179.447V36.1505C179.439 37.4669 178.584 38.795 177.549 39.2676L177.939 39.7833C178.752 39.3731 179.436 38.4942 179.756 37.4473C180.088 38.4356 180.771 39.2598 181.564 39.6426L181.939 39.1583C180.916 38.6934 180.053 37.42 180.057 36.1505ZM182.697 41.2442H183.314V34.2833H182.697V41.2442Z" fill="#113287"/>
<path d="M188.033 35.0098H184.885V35.5176H187.428C187.396 35.9473 187.326 36.3575 187.197 36.7481L184.533 36.9239L184.643 37.4551L187.01 37.2325C186.576 38.17 185.787 38.9708 184.51 39.6114L184.861 40.0801C186.584 39.2169 187.447 38.0528 187.811 36.7442H189.643V38.088H187.721V38.588H189.643V41.2286H190.252V34.2755H189.643V36.2364H187.928C187.998 35.838 188.033 35.4278 188.033 35.0098Z" fill="#113287"/>
<path d="M193.275 34.8223C192.244 34.8262 191.521 35.7676 191.525 37.2442C191.521 38.7247 192.244 39.6622 193.275 39.6583C194.299 39.6622 195.025 38.7247 195.033 37.2442C195.025 35.7676 194.299 34.8262 193.275 34.8223ZM192.104 37.2442C192.107 36.1153 192.588 35.3731 193.275 35.3692C193.971 35.3731 194.439 36.1153 194.439 37.2442C194.439 38.3731 193.971 39.1153 193.275 39.1114C192.588 39.1153 192.107 38.3731 192.104 37.2442ZM196.182 41.2286H196.791V38.6192H197.916V38.1036H196.791V36.5567H197.916V36.0333H196.791V34.2833H196.182V41.2286Z" fill="#113287"/>
<path d="M205.713 34.2833H205.104V41.2286H205.713V37.627H206.838V37.1114H205.713V34.2833ZM200.385 39.4239L200.729 39.9083C202.99 38.7911 203.912 36.9981 203.916 35.0333H200.705V35.5489H203.295C203.154 37.1934 202.178 38.5333 200.385 39.4239Z" fill="#113287"/>
<path d="M212.752 34.2833H212.135V41.2286H212.752V37.6661H213.807V37.1505H212.752V34.2833ZM207.229 39.3067L207.721 39.6583C208.982 38.3262 209.354 36.6934 209.361 35.0411H207.447V35.5567H208.779C208.701 36.9395 208.275 38.2325 207.229 39.3067ZM209.221 39.7755L209.721 40.1192C211.021 38.6075 211.264 36.6895 211.268 35.0411H209.58V35.5567H210.689C210.631 37.0059 210.307 38.5489 209.221 39.7755Z" fill="#113287"/>
<path d="M220.518 37.8145H214.158V38.3223H217.08V39.7442H217.697V38.3223H220.518V37.8145ZM214.877 35.8614C214.873 36.7169 215.846 37.2481 217.33 37.2442C218.814 37.2481 219.775 36.7169 219.775 35.8614C219.775 34.9981 218.814 34.4669 217.33 34.463C215.846 34.4669 214.873 34.9981 214.877 35.8614ZM214.979 41.0801H219.807V40.5567H215.596V39.0489H214.979V41.0801ZM215.533 35.8614C215.525 35.3067 216.248 34.9669 217.33 34.963C218.408 34.9669 219.127 35.3067 219.127 35.8614C219.127 36.4005 218.408 36.7442 217.33 36.7442C216.248 36.7442 215.525 36.4005 215.533 35.8614Z" fill="#113287"/>
<path d="M225.416 36.1505V34.8848H224.814V36.1505C224.807 37.42 224.002 38.752 222.986 39.252L223.377 39.7442C224.158 39.3262 224.814 38.4473 225.123 37.4239C225.432 38.3887 226.072 39.213 226.838 39.6114L227.213 39.1192C226.225 38.6348 225.416 37.3731 225.416 36.1505ZM227.854 41.2286H228.463V37.6348H229.627V37.1036H228.463V34.2833H227.854V41.2286Z" fill="#113287"/>
<path d="M236.33 37.2208H230.002V37.7208H232.854V38.4083H230.768V38.8848H234.916V39.502H230.783V41.1505H235.729V40.6661H231.393V39.963H235.518V38.4083H233.463V37.7208H236.33V37.2208ZM230.822 36.6348H235.51V34.5176H230.822V36.6348ZM231.432 36.1426V35.0098H234.9V36.1426H231.432Z" fill="#113287"/>
<path d="M240.08 34.4083C238.529 34.4083 237.619 34.8341 237.619 35.6036C237.619 36.3926 238.529 36.8184 240.08 36.8223C241.623 36.8184 242.529 36.3926 242.533 35.6036C242.529 34.8341 241.623 34.4083 240.08 34.4083ZM236.916 37.7911H243.244V37.2911H236.916V37.7911ZM237.682 38.8614H241.83V39.4942H237.697V41.1505H242.643V40.6661H238.307V39.9473H242.432V38.3926H237.682V38.8614ZM238.26 35.6036C238.252 35.1466 238.928 34.8731 240.08 34.8692C241.232 34.8731 241.904 35.1466 241.908 35.6036C241.904 36.088 241.232 36.3536 240.08 36.3536C238.928 36.3536 238.252 36.088 238.26 35.6036Z" fill="#113287"/>
<path d="M248.189 35.3848V35.1817H249.736V34.6817H245.994V35.1817H247.572V35.4005C247.568 36.3067 246.834 37.1192 245.783 37.4473L246.088 37.9239C246.936 37.6583 247.592 37.0841 247.893 36.338C248.201 36.9942 248.83 37.5059 249.635 37.7442L249.924 37.2676C248.9 36.9669 248.182 36.213 248.189 35.3848ZM246.838 38.6817H250.658V39.4005H246.854V41.1661H251.525V40.6817H247.455V39.8536H251.268V38.1895H246.838V38.6817ZM250.658 37.8692H251.268V36.3145H252.314V35.8067H251.268V34.2833H250.658V37.8692Z" fill="#113287"/>
<path d="M254.205 34.4005H253.596V36.6817H255.604V37.3692H252.752V37.8692H259.08V37.3692H256.205V36.6817H258.252V34.4005H257.643V35.0645H254.205V34.4005ZM253.518 38.9161H257.666V39.5333H253.533V41.1505H258.479V40.6661H254.143V39.9864H258.268V38.4473H253.518V38.9161ZM254.205 36.2051V35.5333H257.643V36.2051H254.205Z" fill="#113287"/>
<path d="M265.158 34.9317V34.5333H264.525V34.9317C264.525 35.9278 263.256 36.7559 262.002 36.9317L262.252 37.4317C263.334 37.252 264.4 36.6622 264.846 35.8028C265.291 36.6544 266.361 37.252 267.439 37.4317L267.689 36.9317C266.436 36.7559 265.162 35.9122 265.158 34.9317ZM261.674 38.713H264.525V41.2286H265.127V38.713H268.002V38.1973H261.674V38.713Z" fill="#113287"/>
<path d="M272.947 38.9473V38.5645H272.354V38.9473C272.346 39.6114 271.818 40.3536 270.939 40.6817L271.252 41.1348C271.916 40.8848 272.393 40.4005 272.643 39.8419C272.85 40.4239 273.279 40.9317 273.955 41.1895C274.596 40.92 275.021 40.3848 275.236 39.8223C275.479 40.4044 275.963 40.8887 276.658 41.1348L276.963 40.6817C276.072 40.3731 275.545 39.6622 275.549 38.9473V38.5645H274.947V38.9473C274.951 39.4825 274.6 40.1778 273.936 40.588C273.275 40.213 272.943 39.5606 272.947 38.9473ZM270.76 36.3223C270.756 37.2755 271.525 37.9317 272.58 37.9317C273.635 37.9317 274.396 37.2755 274.4 36.3223C274.396 35.3536 273.635 34.6934 272.58 34.6973C271.525 34.6934 270.756 35.3536 270.76 36.3223ZM271.361 36.3223C271.354 35.6739 271.865 35.213 272.58 35.2208C273.287 35.213 273.799 35.6739 273.799 36.3223C273.799 36.9669 273.287 37.42 272.58 37.4239C271.865 37.42 271.354 36.9669 271.361 36.3223ZM275.721 38.2598H276.33V34.2911H275.721V38.2598Z" fill="#113287"/>
<path d="M279.994 36.4161V35.5098H281.65V35.002H277.736V35.5098H279.377V36.4161C279.373 37.6192 278.506 38.9317 277.51 39.4083L277.877 39.8926C278.67 39.4942 279.373 38.6114 279.697 37.5919C280.021 38.5528 280.721 39.3536 281.533 39.7208L281.877 39.2364C280.854 38.795 279.998 37.5958 279.994 36.4161ZM282.619 41.2286H283.236V34.2833H282.619V41.2286Z" fill="#113287"/>
<path d="M287.932 34.9161H284.721V38.1114H287.932V34.9161ZM285.322 37.6192V35.4161H287.338V37.6192H285.322ZM285.51 41.0801H290.174V40.5645H286.111V38.8926H285.51V41.0801ZM289.244 39.377H289.854V36.9161H290.9V36.4005H289.854V34.2833H289.244V39.377Z" fill="#113287"/>
<path d="M79.8516 45.9858H74.9531V46.4936H79.2344V46.6811C79.2305 47.5131 79.2305 48.4858 78.9688 49.8139L79.5938 49.8842C79.8438 48.4858 79.8438 47.5327 79.8516 46.6811V45.9858ZM74.2812 51.2436H80.6094V50.7358H77.3672V48.2514H76.7656V50.7358H74.2812V51.2436Z" fill="#113287"/>
<path d="M87.0938 45.2905H86.5078V47.0405H85.5625V45.4233H84.9766V49.3374H85.5625V47.5483H86.5078V49.3842H87.0938V45.2905ZM81.2344 49.0014L81.5391 49.4624C83.3008 48.7124 84.2383 47.4585 84.2422 45.7983H81.5156V46.3061H83.6094C83.4922 47.4741 82.6758 48.4155 81.2344 49.0014ZM82.4062 50.2045H86.4922V52.228H87.0938V49.7045H82.4062V50.2045Z" fill="#113287"/>
<path d="M93.8359 45.2827H93.2344V49.228H93.8359V45.2827ZM88.5469 48.6967H89.1094C90.3086 48.6889 91.3633 48.6069 92.5391 48.3686L92.4453 47.853C91.3398 48.0874 90.3125 48.1655 89.1641 48.1733V45.6967H88.5469V48.6967ZM89.3281 52.1342H93.8359V49.5483H89.3281V52.1342ZM89.9297 51.6342V50.0405H93.2344V51.6342H89.9297Z" fill="#113287"/>
<path d="M97.2969 45.7905C96.1992 45.7944 95.418 46.4585 95.4219 47.4233C95.418 48.392 96.1992 49.0522 97.2969 49.0561C98.3867 49.0522 99.1602 48.392 99.1641 47.4233C99.1602 46.4585 98.3867 45.7944 97.2969 45.7905ZM95.0625 50.1889L95.1484 50.7124C96.3984 50.7124 98.1055 50.7045 99.6953 50.4077L99.6484 49.9545C98.1133 50.1811 96.3438 50.1928 95.0625 50.1889ZM96.0234 47.4233C96.0195 46.7788 96.5547 46.3295 97.2969 46.3295C98.0312 46.3295 98.5664 46.7788 98.5625 47.4233C98.5664 48.0717 98.0312 48.517 97.2969 48.517C96.5547 48.517 96.0195 48.0717 96.0234 47.4233ZM100.109 52.2436H100.719V45.2827H100.109V52.2436Z" fill="#113287"/>
<path d="M109.562 47.3999H105.43V45.5483H104.82V47.8999H109.562V47.3999ZM103.945 49.228H106.859V50.6655H107.469V49.228H110.281V48.7202H103.945V49.228ZM104.758 52.0795H109.609V51.5639H105.367V50.0483H104.758V52.0795Z" fill="#113287"/>
<path d="M117.188 48.9467H110.859V49.4467H117.188V48.9467ZM111.562 46.9077C111.562 47.771 112.516 48.2905 114.023 48.2905C115.516 48.2905 116.473 47.771 116.477 46.9077C116.473 46.0366 115.516 45.5249 114.023 45.5327C112.516 45.5249 111.562 46.0366 111.562 46.9077ZM111.68 52.0795H116.484V51.5639H112.297V50.0561H111.68V52.0795ZM112.195 46.9077C112.191 46.3647 112.902 46.0249 114.023 46.0249C115.137 46.0249 115.848 46.3647 115.852 46.9077C115.848 47.4585 115.137 47.7905 114.023 47.7905C112.902 47.7905 112.191 47.4585 112.195 46.9077Z" fill="#113287"/>
<path d="M126.141 50.8374H123.25V49.2436H122.648V50.8374H119.781V51.353H126.141V50.8374ZM120.133 49.0092L120.375 49.4936C121.492 49.2983 122.512 48.7358 122.949 47.8647C123.395 48.7358 124.414 49.2983 125.523 49.4936L125.758 49.0092C124.426 48.7944 123.266 47.9858 123.266 46.8999H125.531V46.392H123.25V45.4311H122.648V46.392H120.375V46.8999H122.641C122.633 47.9858 121.473 48.7944 120.133 49.0092Z" fill="#113287"/>
<path d="M132.453 45.2827H131.836V47.0249H130.43V47.5405H131.836V49.353H132.453V45.2827ZM126.727 48.7983L127.047 49.2827C127.871 48.9819 128.512 48.3452 128.812 47.5405C129.113 48.2592 129.719 48.8413 130.5 49.1264L130.82 48.642C129.805 48.2788 129.109 47.4116 129.109 46.517V46.2436H130.664V45.7358H126.922V46.2436H128.492V46.517C128.492 47.5053 127.75 48.435 126.727 48.7983ZM127.914 52.1342H132.453V49.6967H127.914V52.1342ZM128.523 51.6342V50.1889H131.852V51.6342H128.523Z" fill="#113287"/>
<path d="M137.78 53.2651C139.869 53.2622 141.571 51.5629 141.571 49.4741C141.571 47.3881 139.869 45.6831 137.78 45.6831C135.694 45.6831 133.992 47.3881 133.995 49.4741C133.992 51.5629 135.694 53.2622 137.78 53.2651ZM135.062 49.4741C135.062 47.9741 136.286 46.7524 137.786 46.7495C139.283 46.7524 140.505 47.9741 140.505 49.4741C140.505 50.9712 139.283 52.1958 137.786 52.1987C136.286 52.1958 135.062 50.9712 135.062 49.4741Z" fill="#FFB241"/>
<path d="M145.433 45.4077C143.882 45.4077 142.972 45.8335 142.972 46.603C142.972 47.392 143.882 47.8178 145.433 47.8217C146.976 47.8178 147.882 47.392 147.886 46.603C147.882 45.8335 146.976 45.4077 145.433 45.4077ZM142.269 48.7905H148.597V48.2905H142.269V48.7905ZM143.034 49.8608H147.183V50.4936H143.05V52.1499H147.995V51.6655H143.659V50.9467H147.784V49.392H143.034V49.8608ZM143.612 46.603C143.604 46.146 144.28 45.8725 145.433 45.8686C146.585 45.8725 147.257 46.146 147.261 46.603C147.257 47.0874 146.585 47.353 145.433 47.353C144.28 47.353 143.604 47.0874 143.612 46.603Z" fill="#113287"/>
<path d="M157.55 50.8374H154.659V49.2436H154.058V50.8374H151.19V51.353H157.55V50.8374ZM151.542 49.0092L151.784 49.4936C152.901 49.2983 153.921 48.7358 154.358 47.8647C154.804 48.7358 155.823 49.2983 156.933 49.4936L157.167 49.0092C155.835 48.7944 154.675 47.9858 154.675 46.8999H156.94V46.392H154.659V45.4311H154.058V46.392H151.784V46.8999H154.05C154.042 47.9858 152.882 48.7944 151.542 49.0092Z" fill="#113287"/>
<path d="M163.862 45.2827H163.245V47.0249H161.839V47.5405H163.245V49.353H163.862V45.2827ZM158.136 48.7983L158.456 49.2827C159.28 48.9819 159.921 48.3452 160.222 47.5405C160.522 48.2592 161.128 48.8413 161.909 49.1264L162.229 48.642C161.214 48.2788 160.519 47.4116 160.519 46.517V46.2436H162.073V45.7358H158.331V46.2436H159.901V46.517C159.901 47.5053 159.159 48.435 158.136 48.7983ZM159.323 52.1342H163.862V49.6967H159.323V52.1342ZM159.933 51.6342V50.1889H163.261V51.6342H159.933Z" fill="#113287"/>
<path d="M169.166 52.6752C171.258 52.6752 172.961 50.9727 172.961 48.8802C172.961 46.7877 171.258 45.0852 169.166 45.0852C167.073 45.0852 165.371 46.7877 165.371 48.8802C165.371 50.9727 167.073 52.6752 169.166 52.6752Z" fill="#FFB241"/>
<path d="M179.377 45.2827H178.76V52.228H179.377V48.6655H180.432V48.1499H179.377V45.2827ZM173.854 50.3061L174.346 50.6577C175.608 49.3256 175.979 47.6928 175.987 46.0405H174.073V46.5561H175.405C175.327 47.9389 174.901 49.2319 173.854 50.3061ZM175.846 50.7749L176.346 51.1186C177.647 49.6069 177.889 47.6889 177.893 46.0405H176.206V46.5561H177.315C177.256 48.0053 176.932 49.5483 175.846 50.7749Z" fill="#113287"/>
<path d="M183.276 47.4155V46.5092H184.932V46.0014H181.018V46.5092H182.659V47.4155C182.655 48.6186 181.788 49.9311 180.792 50.4077L181.159 50.892C181.952 50.4936 182.655 49.6108 182.979 48.5913C183.303 49.5522 184.002 50.353 184.815 50.7202L185.159 50.2358C184.135 49.7944 183.28 48.5952 183.276 47.4155ZM185.901 52.228H186.518V45.2827H185.901V52.228Z" fill="#113287"/>
<path d="M191.213 45.9155H188.002V49.1108H191.213V45.9155ZM188.604 48.6186V46.4155H190.62V48.6186H188.604ZM188.792 52.0795H193.456V51.5639H189.393V49.892H188.792V52.0795ZM192.526 50.3764H193.135V47.9155H194.182V47.3999H193.135V45.2827H192.526V50.3764Z" fill="#113287"/>
<path d="M202.354 45.2827H201.737V52.2436H202.354V45.2827ZM196.885 48.2436C196.889 49.7241 197.624 50.6616 198.659 50.6577C199.69 50.6616 200.436 49.7241 200.432 48.2436C200.436 46.767 199.69 45.8256 198.659 45.8217C197.624 45.8256 196.889 46.767 196.885 48.2436ZM197.479 48.2436C197.479 47.1147 197.963 46.3725 198.659 46.3686C199.358 46.3725 199.838 47.1147 199.838 48.2436C199.838 49.3725 199.358 50.1147 198.659 50.1108C197.963 50.1147 197.479 49.3725 197.479 48.2436Z" fill="#113287"/>
<path d="M209.877 48.7202H207.002V47.9077H209.135V47.4077H204.948V46.103H209.088V45.6108H204.346V47.9077H206.409V48.7202H203.542V49.2124H209.877V48.7202ZM204.307 50.9702C204.303 51.771 205.206 52.2202 206.706 52.228C208.194 52.2202 209.088 51.771 209.096 50.9702C209.088 50.1772 208.194 49.7241 206.706 49.7202C205.206 49.7241 204.303 50.1772 204.307 50.9702ZM204.932 50.9702C204.924 50.4897 205.592 50.2045 206.706 50.2045C207.807 50.2045 208.475 50.4897 208.479 50.9702C208.475 51.4585 207.807 51.7397 206.706 51.7358C205.592 51.7397 204.924 51.4585 204.932 50.9702Z" fill="#113287"/>
<path d="M212.924 47.1499V45.8842H212.315V47.1499C212.307 48.4663 211.452 49.7944 210.417 50.267L210.807 50.7827C211.62 50.3725 212.303 49.4936 212.624 48.4467C212.956 49.435 213.639 50.2592 214.432 50.642L214.807 50.1577C213.784 49.6928 212.92 48.4194 212.924 47.1499ZM215.565 52.2436H216.182V45.2827H215.565V52.2436Z" fill="#113287"/>
<path d="M221.065 45.6967H217.87V46.1967H220.405C220.381 46.4663 220.319 46.7202 220.221 46.9585L217.518 47.0874L217.627 47.5952L219.975 47.4116C219.538 48.0522 218.756 48.5639 217.573 48.9077L217.807 49.3999C220.038 48.7592 221.061 47.4663 221.065 45.6967ZM218.627 52.1342H223.104V49.6811H218.627V52.1342ZM219.229 51.6342V50.1733H222.502V51.6342H219.229ZM222.495 49.3139H223.104V45.2905H222.495V49.3139Z" fill="#113287"/>
<path d="M80.6406 70.5905H77.75V68.9967H77.1484V70.5905H74.2812V71.1061H80.6406V70.5905ZM74.6328 68.7623L74.875 69.2467C75.9922 69.0514 77.0117 68.4888 77.4492 67.6177C77.8945 68.4888 78.9141 69.0514 80.0234 69.2467L80.2578 68.7623C78.9258 68.5474 77.7656 67.7388 77.7656 66.6529H80.0312V66.145H77.75V65.1841H77.1484V66.145H74.875V66.6529H77.1406C77.1328 67.7388 75.9727 68.5474 74.6328 68.7623Z" fill="#113287"/>
<path d="M86.9531 65.0356H86.3359V66.7779H84.9297V67.2935H86.3359V69.106H86.9531V65.0356ZM81.2266 68.5513L81.5469 69.0357C82.3711 68.7349 83.0117 68.0982 83.3125 67.2935C83.6133 68.0123 84.2188 68.5943 85 68.8795L85.3203 68.3951C84.3047 68.0318 83.6094 67.1646 83.6094 66.27V65.9966H85.1641V65.4888H81.4219V65.9966H82.9922V66.27C82.9922 67.2583 82.25 68.1881 81.2266 68.5513ZM82.4141 71.8874H86.9531V69.4498H82.4141V71.8874ZM83.0234 71.3874V69.942H86.3516V71.3874H83.0234Z" fill="#113287"/>
<path d="M92.1514 72.4283C94.2439 72.4283 95.9464 70.7259 95.9464 68.6333C95.9464 66.5408 94.2439 64.8383 92.1514 64.8383C90.0589 64.8383 88.3564 66.5408 88.3564 68.6333C88.3564 70.7259 90.0589 72.4283 92.1514 72.4283Z" fill="#FFB341"/>
<path d="M99.7761 65.1608C98.2253 65.1608 97.3152 65.5866 97.3152 66.3562C97.3152 67.1452 98.2253 67.571 99.7761 67.5749C101.319 67.571 102.225 67.1452 102.229 66.3562C102.225 65.5866 101.319 65.1608 99.7761 65.1608ZM96.612 68.5437H102.94V68.0437H96.612V68.5437ZM97.3777 69.614H101.526V70.2468H97.3933V71.903H102.339V71.4187H98.0027V70.6999H102.128V69.1452H97.3777V69.614ZM97.9558 66.3562C97.948 65.8991 98.6238 65.6257 99.7761 65.6218C100.928 65.6257 101.6 65.8991 101.604 66.3562C101.6 66.8406 100.928 67.1062 99.7761 67.1062C98.6238 67.1062 97.948 66.8406 97.9558 66.3562Z" fill="#113287"/>
<path d="M111.893 70.5905H109.003V68.9968H108.401V70.5905H105.534V71.1062H111.893V70.5905ZM105.885 68.7624L106.128 69.2468C107.245 69.0515 108.264 68.489 108.702 67.6179C109.147 68.489 110.167 69.0515 111.276 69.2468L111.51 68.7624C110.178 68.5476 109.018 67.739 109.018 66.653H111.284V66.1452H109.003V65.1843H108.401V66.1452H106.128V66.653H108.393C108.385 67.739 107.225 68.5476 105.885 68.7624Z" fill="#113287"/>
<path d="M118.206 65.0358H117.589V66.778H116.182V67.2937H117.589V69.1062H118.206V65.0358ZM112.479 68.5515L112.8 69.0358C113.624 68.7351 114.264 68.0984 114.565 67.2937C114.866 68.0124 115.471 68.5944 116.253 68.8796L116.573 68.3952C115.557 68.0319 114.862 67.1648 114.862 66.2702V65.9968H116.417V65.489H112.675V65.9968H114.245V66.2702C114.245 67.2585 113.503 68.1882 112.479 68.5515ZM113.667 71.8874H118.206V69.4499H113.667V71.8874ZM114.276 71.3874V69.9421H117.604V71.3874H114.276Z" fill="#113287"/>
<path d="M122.276 65.1357C122.386 65.1357 122.476 65.1757 122.546 65.2557C122.626 65.3257 122.666 65.4157 122.666 65.5257C122.666 65.6257 122.626 65.7157 122.546 65.7957C122.476 65.8757 122.386 65.9157 122.276 65.9157C122.176 65.9157 122.086 65.8757 122.006 65.7957C121.926 65.7157 121.886 65.6257 121.886 65.5257C121.886 65.4157 121.926 65.3257 122.006 65.2557C122.086 65.1757 122.176 65.1357 122.276 65.1357ZM124.796 65.1357C124.906 65.1357 124.996 65.1757 125.066 65.2557C125.146 65.3257 125.186 65.4157 125.186 65.5257C125.186 65.6257 125.146 65.7157 125.066 65.7957C124.996 65.8757 124.906 65.9157 124.796 65.9157C124.696 65.9157 124.606 65.8757 124.526 65.7957C124.446 65.7157 124.406 65.6257 124.406 65.5257C124.406 65.4157 124.446 65.3257 124.526 65.2557C124.606 65.1757 124.696 65.1357 124.796 65.1357ZM122.276 71.2857C122.386 71.2857 122.476 71.3257 122.546 71.4057C122.626 71.4757 122.666 71.5657 122.666 71.6757C122.666 71.7757 122.626 71.8657 122.546 71.9457C122.476 72.0257 122.386 72.0657 122.276 72.0657C122.176 72.0657 122.086 72.0257 122.006 71.9457C121.926 71.8657 121.886 71.7757 121.886 71.6757C121.886 71.5657 121.926 71.4757 122.006 71.4057C122.086 71.3257 122.176 71.2857 122.276 71.2857ZM124.796 71.2857C124.906 71.2857 124.996 71.3257 125.066 71.4057C125.146 71.4757 125.186 71.5657 125.186 71.6757C125.186 71.7757 125.146 71.8657 125.066 71.9457C124.996 72.0257 124.906 72.0657 124.796 72.0657C124.696 72.0657 124.606 72.0257 124.526 71.9457C124.446 71.8657 124.406 71.7757 124.406 71.6757C124.406 71.5657 124.446 71.4757 124.526 71.4057C124.606 71.3257 124.696 71.2857 124.796 71.2857ZM123.536 64.8657C123.646 64.8657 123.736 64.9057 123.806 64.9857C123.886 65.0557 123.926 65.1457 123.926 65.2557C123.926 65.3557 123.886 65.4457 123.806 65.5257C123.736 65.6057 123.646 65.6457 123.536 65.6457C123.436 65.6457 123.346 65.6057 123.266 65.5257C123.186 65.4457 123.146 65.3557 123.146 65.2557C123.146 65.1457 123.186 65.0557 123.266 64.9857C123.346 64.9057 123.436 64.8657 123.536 64.8657ZM123.536 71.5557C123.646 71.5557 123.736 71.5957 123.806 71.6757C123.886 71.7457 123.926 71.8357 123.926 71.9457C123.926 72.0457 123.886 72.1357 123.806 72.2157C123.736 72.2957 123.646 72.3357 123.536 72.3357C123.436 72.3357 123.346 72.2957 123.266 72.2157C123.186 72.1357 123.146 72.0457 123.146 71.9457C123.146 71.8357 123.186 71.7457 123.266 71.6757C123.346 71.5957 123.436 71.5557 123.536 71.5557ZM119.801 68.6007C119.801 68.4907 119.841 68.4007 119.921 68.3307C120.001 68.2507 120.091 68.2107 120.191 68.2107C120.301 68.2107 120.391 68.2507 120.461 68.3307C120.541 68.4007 120.581 68.4907 120.581 68.6007C120.581 68.7007 120.541 68.7907 120.461 68.8707C120.391 68.9507 120.301 68.9907 120.191 68.9907C120.091 68.9907 120.001 68.9507 119.921 68.8707C119.841 68.7907 119.801 68.7007 119.801 68.6007ZM126.491 68.6007C126.491 68.4907 126.531 68.4007 126.611 68.3307C126.691 68.2507 126.781 68.2107 126.881 68.2107C126.991 68.2107 127.081 68.2507 127.151 68.3307C127.231 68.4007 127.271 68.4907 127.271 68.6007C127.271 68.7007 127.231 68.7907 127.151 68.8707C127.081 68.9507 126.991 68.9907 126.881 68.9907C126.781 68.9907 126.691 68.9507 126.611 68.8707C126.531 68.7907 126.491 68.7007 126.491 68.6007ZM120.776 70.9707C120.776 70.8607 120.816 70.7707 120.896 70.7007C120.976 70.6207 121.066 70.5807 121.166 70.5807C121.276 70.5807 121.366 70.6207 121.436 70.7007C121.516 70.7707 121.556 70.8607 121.556 70.9707C121.556 71.0707 121.516 71.1607 121.436 71.2407C121.366 71.3207 121.276 71.3607 121.166 71.3607C121.066 71.3607 120.976 71.3207 120.896 71.2407C120.816 71.1607 120.776 71.0707 120.776 70.9707ZM120.776 66.2307C120.776 66.1207 120.816 66.0307 120.896 65.9607C120.976 65.8807 121.066 65.8407 121.166 65.8407C121.276 65.8407 121.366 65.8807 121.436 65.9607C121.516 66.0307 121.556 66.1207 121.556 66.2307C121.556 66.3307 121.516 66.4207 121.436 66.5007C121.366 66.5807 121.276 66.6207 121.166 66.6207C121.066 66.6207 120.976 66.5807 120.896 66.5007C120.816 66.4207 120.776 66.3307 120.776 66.2307ZM125.516 70.9707C125.516 70.8607 125.556 70.7707 125.636 70.7007C125.716 70.6207 125.806 70.5807 125.906 70.5807C126.016 70.5807 126.106 70.6207 126.176 70.7007C126.256 70.7707 126.296 70.8607 126.296 70.9707C126.296 71.0707 126.256 71.1607 126.176 71.2407C126.106 71.3207 126.016 71.3607 125.906 71.3607C125.806 71.3607 125.716 71.3207 125.636 71.2407C125.556 71.1607 125.516 71.0707 125.516 70.9707ZM125.516 66.2307C125.516 66.1207 125.556 66.0307 125.636 65.9607C125.716 65.8807 125.806 65.8407 125.906 65.8407C126.016 65.8407 126.106 65.8807 126.176 65.9607C126.256 66.0307 126.296 66.1207 126.296 66.2307C126.296 66.3307 126.256 66.4207 126.176 66.5007C126.106 66.5807 126.016 66.6207 125.906 66.6207C125.806 66.6207 125.716 66.5807 125.636 66.5007C125.556 66.4207 125.516 66.3307 125.516 66.2307ZM120.071 69.8607C120.071 69.7507 120.111 69.6607 120.191 69.5907C120.271 69.5107 120.361 69.4707 120.461 69.4707C120.571 69.4707 120.661 69.5107 120.731 69.5907C120.811 69.6607 120.851 69.7507 120.851 69.8607C120.851 69.9607 120.811 70.0507 120.731 70.1307C120.661 70.2107 120.571 70.2507 120.461 70.2507C120.361 70.2507 120.271 70.2107 120.191 70.1307C120.111 70.0507 120.071 69.9607 120.071 69.8607ZM120.071 67.3407C120.071 67.2307 120.111 67.1407 120.191 67.0707C120.271 66.9907 120.361 66.9507 120.461 66.9507C120.571 66.9507 120.661 66.9907 120.731 67.0707C120.811 67.1407 120.851 67.2307 120.851 67.3407C120.851 67.4407 120.811 67.5307 120.731 67.6107C120.661 67.6907 120.571 67.7307 120.461 67.7307C120.361 67.7307 120.271 67.6907 120.191 67.6107C120.111 67.5307 120.071 67.4407 120.071 67.3407ZM126.221 69.8607C126.221 69.7507 126.261 69.6607 126.341 69.5907C126.421 69.5107 126.511 69.4707 126.611 69.4707C126.721 69.4707 126.811 69.5107 126.881 69.5907C126.961 69.6607 127.001 69.7507 127.001 69.8607C127.001 69.9607 126.961 70.0507 126.881 70.1307C126.811 70.2107 126.721 70.2507 126.611 70.2507C126.511 70.2507 126.421 70.2107 126.341 70.1307C126.261 70.0507 126.221 69.9607 126.221 69.8607ZM126.221 67.3407C126.221 67.2307 126.261 67.1407 126.341 67.0707C126.421 66.9907 126.511 66.9507 126.611 66.9507C126.721 66.9507 126.811 66.9907 126.881 67.0707C126.961 67.1407 127.001 67.2307 127.001 67.3407C127.001 67.4407 126.961 67.5307 126.881 67.6107C126.811 67.6907 126.721 67.7307 126.611 67.7307C126.511 67.7307 126.421 67.6907 126.341 67.6107C126.261 67.5307 126.221 67.4407 126.221 67.3407Z" fill="#113287"/>
<path d="M128.698 69.1921C128.706 70.6687 129.104 71.8952 129.823 72.9421H130.417C129.889 72.1647 129.397 70.5867 129.393 69.1921C129.397 67.8014 129.889 66.2195 130.417 65.4499H129.823C129.104 66.4929 128.706 67.7194 128.698 69.1921Z" fill="#113287"/>
<path d="M134.503 65.5671H131.292V68.5437H134.503V65.5671ZM131.893 70.6765C131.897 71.4968 132.78 71.9733 134.198 71.9812C135.616 71.9733 136.487 71.4968 136.487 70.6765C136.487 69.8639 135.616 69.3796 134.198 69.3796C132.78 69.3796 131.897 69.8639 131.893 70.6765ZM131.893 68.0515V66.0671H133.909V68.0515H131.893ZM132.51 70.6765C132.503 70.1765 133.151 69.8796 134.198 69.8796C135.249 69.8796 135.889 70.1765 135.893 70.6765C135.889 71.1843 135.249 71.4773 134.198 71.4812C133.151 71.4773 132.503 71.1843 132.51 70.6765ZM135.815 69.1452H136.425V67.2858H137.471V66.778H136.425V65.0358H135.815V69.1452Z" fill="#113287"/>
<path d="M141.417 65.5593H138.206V68.6296H141.417V65.5593ZM138.792 70.0202H142.729V71.9968H143.339V69.528H138.792V70.0202ZM138.807 68.1296V66.0515H140.823V68.1296H138.807ZM142.729 69.153H143.339V67.364H144.385V66.8483H143.339V65.0358H142.729V69.153Z" fill="#113287"/>
<path d="M146.557 69.1921C146.55 67.7194 146.151 66.4929 145.432 65.4499H144.839C145.366 66.2195 145.858 67.8014 145.862 69.1921C145.858 70.5867 145.366 72.1647 144.839 72.9421H145.432C146.151 71.8952 146.55 70.6687 146.557 69.1921Z" fill="#113287"/>
<path d="M153.05 65.0358H152.432V71.9812H153.05V68.4187H154.104V67.903H153.05V65.0358ZM147.526 70.0593L148.018 70.4108C149.28 69.0788 149.651 67.4461 149.659 65.7937H147.745V66.3093H149.077C148.999 67.6921 148.573 68.985 147.526 70.0593ZM149.518 70.528L150.018 70.8718C151.319 69.36 151.561 67.4421 151.565 65.7937H149.878V66.3093H150.987C150.928 67.7585 150.604 69.3014 149.518 70.528Z" fill="#113287"/>
<path d="M156.948 67.1687V66.2624H158.604V65.7546H154.69V66.2624H156.331V67.1687C156.327 68.3718 155.46 69.6843 154.464 70.1608L154.831 70.6452C155.624 70.2468 156.327 69.364 156.651 68.3444C156.975 69.3054 157.675 70.1062 158.487 70.4733L158.831 69.989C157.807 69.5476 156.952 68.3484 156.948 67.1687ZM159.573 71.9812H160.19V65.0358H159.573V71.9812Z" fill="#113287"/>
<path d="M166.878 65.739H163.675V70.2155H166.878V65.739ZM164.268 69.7155V66.2312H166.268V69.7155H164.268ZM168.151 71.9812H168.76V68.3405H169.925V67.8093H168.76V65.0358H168.151V71.9812Z" fill="#113287"/>
<path d="M176.057 65.0358H175.44V67.5671H173.917V68.0749H175.44V71.9968H176.057V65.0358ZM170.237 70.1296L170.612 70.6062C171.405 70.1921 172.093 69.2976 172.405 68.2663C172.721 69.2351 173.389 70.0749 174.182 70.4655L174.55 69.9733C173.538 69.5124 172.71 68.2546 172.706 67.0983V66.2624H174.3V65.7546H170.503V66.2624H172.089V67.0983C172.085 68.3328 171.245 69.6413 170.237 70.1296Z" fill="#113287"/>
<path d="M184.948 65.0358H184.331V71.9968H184.948V65.0358ZM179.479 67.9968C179.483 69.4773 180.218 70.4148 181.253 70.4108C182.284 70.4148 183.03 69.4773 183.026 67.9968C183.03 66.5202 182.284 65.5788 181.253 65.5749C180.218 65.5788 179.483 66.5202 179.479 67.9968ZM180.073 67.9968C180.073 66.8678 180.557 66.1257 181.253 66.1218C181.952 66.1257 182.432 66.8678 182.432 67.9968C182.432 69.1257 181.952 69.8679 181.253 69.864C180.557 69.8679 180.073 69.1257 180.073 67.9968Z" fill="#113287"/>
<path d="M192.471 68.4733H189.596V67.6608H191.729V67.1608H187.542V65.8562H191.682V65.364H186.94V67.6608H189.003V68.4733H186.135V68.9655H192.471V68.4733ZM186.901 70.7233C186.897 71.5242 187.8 71.9733 189.3 71.9812C190.788 71.9733 191.682 71.5242 191.69 70.7233C191.682 69.9304 190.788 69.4773 189.3 69.4733C187.8 69.4773 186.897 69.9304 186.901 70.7233ZM187.526 70.7233C187.518 70.2429 188.186 69.9577 189.3 69.9577C190.401 69.9577 191.069 70.2429 191.073 70.7233C191.069 71.2116 190.401 71.4929 189.3 71.489C188.186 71.4929 187.518 71.2116 187.526 70.7233Z" fill="#113287"/>
<path d="M195.518 66.903V65.6374H194.909V66.903C194.901 68.2195 194.046 69.5476 193.01 70.0202L193.401 70.5358C194.214 70.1257 194.897 69.2468 195.218 68.1999C195.55 69.1882 196.233 70.0124 197.026 70.3952L197.401 69.9108C196.378 69.446 195.514 68.1726 195.518 66.903ZM198.159 71.9968H198.776V65.0358H198.159V71.9968Z" fill="#113287"/>
<path d="M203.69 65.7624H200.487V66.2702H203.077C203.046 66.6999 202.971 67.1101 202.846 67.4968L200.135 67.6765L200.237 68.2233L202.651 67.989C202.214 68.9304 201.409 69.7311 200.104 70.3562L200.448 70.8483C202.96 69.6178 203.682 67.7664 203.69 65.7624ZM205.089 71.9812H205.706V65.0358H205.089V71.9812Z" fill="#113287"/>
<path d="M212.495 67.1452H208.346V65.2937H207.737V67.6374H212.495V67.1452ZM206.87 69.0827H213.229V68.5827H206.87V69.0827ZM207.698 71.8093H212.534V71.3015H208.307V69.7937H207.698V71.8093Z" fill="#113287"/>
<path d="M219.737 65.0358H219.143V71.9812H219.737V65.0358ZM214.065 70.3093H214.503C215.62 70.3054 216.3 70.2702 217.104 70.1062L217.042 69.5827C216.296 69.7507 215.663 69.7858 214.659 69.7937V66.403H216.682V65.8952H214.065V70.3093ZM216.214 68.2077H217.729V71.6218H218.315V65.2077H217.729V67.6921H216.214V68.2077Z" fill="#113287"/>
<path d="M228.456 65.0358H227.839V68.6452H228.456V65.0358ZM222.831 67.8874L222.909 68.3952C224.135 68.3991 225.768 68.3444 227.159 68.1374L227.128 67.6843C226.792 67.7233 226.44 67.7585 226.081 67.7858V66.0046H226.784V65.5124H223.026V66.0046H223.721V67.8796C223.409 67.8835 223.108 67.8874 222.831 67.8874ZM223.909 69.4733H227.846V70.1765H223.932V71.903H228.721V71.403H224.534V70.6374H228.456V68.9812H223.909V69.4733ZM224.315 67.8679V66.0046H225.487V67.821C225.093 67.8444 224.698 67.8562 224.315 67.8679Z" fill="#113287"/>
<path d="M235.987 70.5749H234.409V68.6843C234.983 68.3757 235.331 67.8835 235.331 67.2624C235.331 66.1882 234.276 65.4812 232.792 65.4733C231.307 65.4812 230.253 66.1882 230.253 67.2624C230.253 67.8952 230.612 68.3952 231.206 68.7038V70.5749H229.628V71.0905H235.987V70.5749ZM230.846 67.2624C230.843 66.485 231.651 65.9733 232.792 65.9812C233.921 65.9733 234.737 66.485 234.737 67.2624C234.737 68.0398 233.921 68.5593 232.792 68.5593C231.651 68.5593 230.843 68.0398 230.846 67.2624ZM231.807 70.5749V68.9265C232.104 69.0046 232.436 69.0437 232.792 69.0437C233.155 69.0437 233.491 69.0007 233.792 68.9226V70.5749H231.807Z" fill="#113287"/>
<path d="M241.971 65.0437H241.362V70.2468H241.971V67.8483H243.018V67.3327H241.971V65.0437ZM236.557 66.3952H240.698V65.8952H238.932V65.0437H238.323V65.8952H236.557V66.3952ZM236.956 68.0749C236.952 68.8562 237.624 69.3601 238.628 69.3562C239.62 69.3601 240.292 68.8562 240.3 68.0749C240.292 67.2858 239.62 66.778 238.628 66.778C237.624 66.778 236.952 67.2858 236.956 68.0749ZM237.542 68.0749C237.538 67.5788 237.971 67.2585 238.628 67.2624C239.276 67.2585 239.714 67.5788 239.721 68.0749C239.714 68.5632 239.276 68.8796 238.628 68.8718C237.971 68.8796 237.538 68.5632 237.542 68.0749ZM237.628 71.8327H242.292V71.3171H238.229V69.8327H237.628V71.8327Z" fill="#113287"/>
<path d="M250.987 65.3249H246.268V65.8249H250.378C250.382 66.2741 250.374 66.8132 250.225 67.5593H245.464V68.0437H248.323V68.9499H246.221V69.4421H250.401V70.1765H246.229V71.903H251.19V71.403H246.846V70.6218H251.01V68.9499H248.925V68.0437H251.823V67.5593H250.843C250.987 66.8171 250.987 66.2195 250.987 65.7702V65.3249Z" fill="#113287"/>
<path d="M254.784 66.114V65.9108H256.339V65.403H252.596V65.9108H254.167V66.1062C254.167 67.0046 253.421 67.8718 252.409 68.2233L252.714 68.7077C253.526 68.4265 254.171 67.8171 254.479 67.071C254.78 67.7468 255.393 68.2858 256.182 68.5437L256.487 68.0593C255.483 67.739 254.78 66.9382 254.784 66.114ZM253.628 69.4733H257.518V70.1687H253.643V71.903H258.393V71.4108H254.253V70.6374H258.128V68.9733H253.628V69.4733ZM256.12 67.0983H257.518V68.6296H258.128V65.0358H257.518V66.5905H256.12V67.0983Z" fill="#113287"/>
<path d="M262.589 65.4655H259.573V65.9577H261.979V66.9421H259.589V68.989H260.081C261.487 68.989 262.194 68.9655 263.057 68.8249L262.995 68.3171C262.178 68.4655 261.503 68.4929 260.198 68.489V67.4108H262.589V65.4655ZM260.37 70.1843H264.432V71.9968H265.05V69.6843H260.37V70.1843ZM263.05 68.0202H264.432V69.3093H265.05V65.0437H264.432V66.0749H263.05V66.5749H264.432V67.5124H263.05V68.0202Z" fill="#113287"/>
<path fill-rule="evenodd" clip-rule="evenodd" d="M336.905 27.6777H69.5527V27.1777H336.905V27.6777Z" fill="#AABAF4"/>
<path fill-rule="evenodd" clip-rule="evenodd" d="M336.905 59.2842H69.5527V58.7842H336.905V59.2842Z" fill="#AABAF4"/>
</svg>
