<svg width="236" height="249" viewBox="0 0 236 249" fill="none" xmlns="http://www.w3.org/2000/svg">
<path d="M97.4566 135.802C88.2403 140.878 83.8325 141.946 73.0046 158.319L83.2982 170.798C83.2982 170.798 83.2982 161.047 97.4566 135.802Z" fill="#F9C8C8"/>
<path d="M97.4566 237.862C88.2403 232.786 83.8325 231.718 73.0046 215.345L83.2982 202.867C83.2982 202.867 83.2982 212.617 97.4566 237.862Z" fill="#F9C8C8"/>
<path d="M79.5776 164.887C79.9469 164.489 80.5693 164.49 80.938 164.888C85.561 169.876 88.3303 177.934 88.3303 186.537C88.3303 195.14 85.5614 203.198 80.939 208.186C80.5699 208.584 79.9467 208.584 79.5776 208.186C74.9552 203.198 72.1863 195.14 72.1863 186.537C72.1863 177.933 74.9422 169.875 79.5776 164.887Z" fill="#D6E4EF"/>
<path d="M0.116943 31.6047H235.117V57.2433L117.617 92.9808L0.116943 57.2433V31.6047Z" fill="#F3F6FF"/>
<rect x="0.116943" y="0.465088" width="235" height="56" rx="4" fill="#F3F6FF"/>
<path d="M24.3123 34.6223H20.4666V32.3879H19.2742V34.6223H15.4392V35.5999H24.3123V34.6223ZM15.8259 31.8508L16.2986 32.7961C17.9153 32.49 19.2473 31.593 19.8704 30.363C20.4988 31.5769 21.8469 32.447 23.4851 32.7424L23.9578 31.7971C21.9651 31.4963 20.5256 30.218 20.488 28.8215H23.5496V27.844H16.1804V28.8215H19.2312C19.199 30.218 17.7595 31.5286 15.8259 31.8508ZM28.0402 28.4885V28.4456H30.049V27.4788H24.7961V28.4456H26.8371V28.4778C26.8317 29.595 25.9777 30.7766 24.4631 31.2708L25.0539 32.2053C26.1818 31.8508 27.0036 31.0774 27.444 30.1375C27.8684 30.9861 28.6525 31.6628 29.7482 31.9905L30.3068 31.0452C28.8244 30.6101 28.0349 29.5359 28.0402 28.4885ZM26.2355 33.387H31.4455V34.0745H26.2463V36.6633H32.9494V35.7288H27.4387V34.9661H32.6379V32.4417H26.2355V33.387ZM29.7805 30.0676H31.4455V32.0334H32.6379V27.0598H31.4455V29.1116H29.7805V30.0676ZM43.4024 27.0706H42.21V34.2141H43.4024V30.8625H44.7559V29.8743H43.4024V27.0706ZM36.0762 32.635H40.7061V27.7581H39.5245V29.2405H37.2579V27.7581H36.0762V32.635ZM37.1827 36.5774H43.7891V35.6106H38.3751V33.4944H37.1827V36.5774ZM37.2579 31.6897V30.1643H39.5245V31.6897H37.2579ZM53.6616 31.6682H44.8101V32.6135H53.6616V31.6682ZM45.7232 29.1653C45.7232 30.3416 47.0982 31.0452 49.2251 31.0452C51.3574 31.0452 52.7217 30.3416 52.7271 29.1653C52.7217 28.0051 51.3574 27.2854 49.2251 27.2854C47.0982 27.2854 45.7232 28.0051 45.7232 29.1653ZM45.8413 35.009C45.8413 36.1423 47.1035 36.7761 49.2251 36.7708C51.3145 36.7761 52.582 36.1423 52.5874 35.009C52.582 33.8704 51.3145 33.2419 49.2251 33.2473C47.1035 33.2419 45.8413 33.8704 45.8413 35.009ZM46.9692 29.1653C46.9585 28.5476 47.8071 28.22 49.2251 28.22C50.6431 28.22 51.4917 28.5476 51.4917 29.1653C51.4917 29.7883 50.6431 30.116 49.2251 30.1106C47.8071 30.116 46.9585 29.7883 46.9692 29.1653ZM47.0552 35.009C47.0498 34.4397 47.8125 34.1497 49.2251 34.1497C50.6162 34.1497 51.3843 34.4397 51.395 35.009C51.3843 35.5623 50.6162 35.8523 49.2251 35.8469C47.8125 35.8523 47.0498 35.5623 47.0552 35.009Z" fill="#113287"/>
<path d="M76.1591 25.0413H73.2606V23.3459H75.37V20.0881H70.5497V23.3459H72.6591V25.0413H69.7997V25.5569H76.1591V25.0413ZM71.1512 22.8538V20.5803H74.7762V22.8538H71.1512ZM82.8547 20.5569H81.8234V19.5022H81.2141V23.6272H81.8234V22.5491H82.8547V22.0334H81.8234V21.0647H82.8547V20.5569ZM76.5266 21.5569C76.5227 22.5217 77.2961 23.1858 78.3469 23.1897C79.4055 23.1858 80.1672 22.5217 80.175 21.5569C80.1672 20.5881 79.4055 19.9202 78.3469 19.9241C77.2961 19.9202 76.5227 20.5881 76.5266 21.5569ZM77.1281 21.5569C77.1242 20.9045 77.6437 20.4397 78.3469 20.4475C79.0578 20.4397 79.5695 20.9045 79.5734 21.5569C79.5695 22.2131 79.0578 22.6663 78.3469 22.6741C77.6437 22.6663 77.1242 22.2131 77.1281 21.5569ZM77.2922 25.1428C77.2961 25.9514 78.1789 26.4319 79.5969 26.4319C81.0148 26.4319 81.8859 25.9514 81.8859 25.1428C81.8859 24.3186 81.0148 23.842 79.5969 23.8381C78.1789 23.842 77.2961 24.3186 77.2922 25.1428ZM77.9094 25.1428C77.9016 24.6389 78.55 24.3381 79.5969 24.3381C80.6477 24.3381 81.2883 24.6389 81.2922 25.1428C81.2883 25.6428 80.6477 25.9358 79.5969 25.9397C78.55 25.9358 77.9016 25.6428 77.9094 25.1428ZM85.0191 21.6428V21.2991H86.3237V20.7913H85.0269V19.76H84.4409V20.7913H83.1206V21.2991H84.4409V21.6428C84.437 22.7913 83.8784 24.01 82.9331 24.5569L83.3003 25.0256C83.9956 24.6077 84.4917 23.8264 84.7378 22.9358C84.9917 23.7717 85.4917 24.4905 86.1831 24.8694L86.5347 24.4084C85.5894 23.9045 85.023 22.76 85.0191 21.6428ZM85.8472 22.7678H86.9409V26.0881H87.5191V19.6741H86.9409V22.2444H85.8472V22.7678ZM88.3394 26.4475H88.9253V19.5022H88.3394V26.4475ZM95.1053 19.9241H90.3866V20.4241H94.4959V20.4631C94.4998 21.053 94.4998 21.7366 94.3123 22.6975H89.5819V23.2131H95.9412V22.6975H94.9217C95.1053 21.7522 95.1053 21.0491 95.1053 20.4631V19.9241ZM90.4256 26.2913H95.3162V25.7756H91.035V23.9944H90.4256V26.2913ZM101.902 19.5022H101.285V26.4631H101.902V19.5022ZM96.4337 22.4631C96.4377 23.9436 97.172 24.8811 98.2072 24.8772C99.2384 24.8811 99.9845 23.9436 99.9806 22.4631C99.9845 20.9866 99.2384 20.0452 98.2072 20.0413C97.172 20.0452 96.4377 20.9866 96.4337 22.4631ZM97.0275 22.4631C97.0275 21.3342 97.5119 20.592 98.2072 20.5881C98.9064 20.592 99.3869 21.3342 99.3869 22.4631C99.3869 23.592 98.9064 24.3342 98.2072 24.3303C97.5119 24.3342 97.0275 23.592 97.0275 22.4631ZM107.942 20.1506V19.7522H107.309V20.1506C107.309 21.1467 106.04 21.9749 104.786 22.1506L105.036 22.6506C106.118 22.4709 107.184 21.8811 107.63 21.0217C108.075 21.8733 109.145 22.4709 110.223 22.6506L110.473 22.1506C109.22 21.9749 107.946 21.1311 107.942 20.1506ZM104.458 23.9319H107.309V26.4475H107.911V23.9319H110.786V23.4163H104.458V23.9319ZM117.38 23.0022H111.052V23.5022H113.911V24.2991H111.755V24.7991H115.982V26.4241H116.599V24.2991H114.513V23.5022H117.38V23.0022ZM111.427 22.1428L111.63 22.6116C112.767 22.4905 113.79 22.0725 114.216 21.3655C114.634 22.0725 115.657 22.4905 116.802 22.6116L117.005 22.1428C115.692 22.0139 114.595 21.4749 114.552 20.6819H116.739V20.1897H114.513V19.4709H113.911V20.1897H111.708V20.6819H113.88C113.829 21.4749 112.728 22.0139 111.427 22.1428ZM123.021 19.5022H122.412V26.4475H123.021V22.8772H124.185V22.3694H123.021V19.5022ZM117.607 21.1272H121.74V20.6194H120.005V19.5881H119.396V20.6194H117.607V21.1272ZM118.005 23.2991C118.001 24.2405 118.72 24.8928 119.708 24.8928C120.689 24.8928 121.404 24.2405 121.412 23.2991C121.404 22.3616 120.689 21.7053 119.708 21.7053C118.72 21.7053 118.001 22.3616 118.005 23.2991ZM118.591 23.2991C118.587 22.6702 119.06 22.217 119.708 22.2209C120.349 22.217 120.818 22.6702 120.826 23.2991C120.818 23.9319 120.349 24.3772 119.708 24.3694C119.06 24.3772 118.587 23.9319 118.591 23.2991ZM126.107 20.0413C125.08 20.0452 124.361 20.9866 124.365 22.4631C124.361 23.9436 125.08 24.8811 126.107 24.8772C126.779 24.8811 127.318 24.4709 127.607 23.7678H129.388V26.4631H129.998V19.5022H129.388V21.0569H127.564C127.263 20.4163 126.744 20.0452 126.107 20.0413ZM124.951 22.4631C124.955 21.3342 125.424 20.592 126.107 20.5881C126.787 20.592 127.263 21.3342 127.263 22.4631C127.263 23.592 126.787 24.3342 126.107 24.3303C125.424 24.3342 124.955 23.592 124.951 22.4631ZM127.74 21.5725H129.388V23.26H127.763C127.814 23.0178 127.842 22.7483 127.842 22.4631C127.842 22.1389 127.806 21.842 127.74 21.5725ZM138.061 22.1038H134.022V20.4241H137.967V19.9163H133.397V22.5959H138.061V22.1038ZM132.514 24.0178H135.373V26.4241H135.975V24.0178H138.873V23.5178H132.514V24.0178ZM144.842 19.5022H144.241V22.2288H142.96C143.077 21.5569 143.116 20.8889 143.116 20.26H141.428V20.7756H142.538C142.479 22.2249 142.155 23.7678 141.069 24.9944L141.569 25.3381C142.245 24.5491 142.635 23.6506 142.854 22.7366H144.241V26.4475H144.842V19.5022ZM139.092 24.5256L139.585 24.8772C140.846 23.5452 141.217 21.9124 141.225 20.26H139.311V20.7756H140.643C140.565 22.1584 140.139 23.4514 139.092 24.5256ZM151.46 19.51H150.835V24.26H149.233V24.7288H150.835V26.4553H151.46V19.51ZM145.679 23.1663L145.765 23.6897C146.323 23.6897 146.96 23.6819 147.624 23.6584V26.2366H148.241V23.6272C148.933 23.5842 149.647 23.5178 150.335 23.4006L150.296 22.9397C148.765 23.1584 147.003 23.1624 145.679 23.1663ZM146.21 21.2209C146.206 22.0452 146.925 22.5764 147.968 22.5803C148.999 22.5764 149.722 22.0452 149.718 21.2209C149.722 20.4045 148.999 19.8538 147.968 19.8538C146.925 19.8538 146.206 20.4045 146.21 21.2209ZM146.788 21.2209C146.784 20.6975 147.269 20.3342 147.968 20.3303C148.651 20.3342 149.136 20.6975 149.14 21.2209C149.136 21.7483 148.651 22.1077 147.968 22.1038C147.269 22.1077 146.784 21.7483 146.788 21.2209ZM154.804 20.9944V20.5881H156.406V20.0881H152.562V20.5881H154.187V20.9944C154.183 21.9788 153.449 22.8811 152.406 23.2444L152.726 23.7366C153.554 23.4319 154.206 22.8069 154.507 22.0178C154.824 22.7483 155.464 23.3186 156.273 23.5959L156.585 23.1038C155.546 22.7756 154.808 21.9319 154.804 20.9944ZM153.554 26.2991H158.257V25.7834H154.163V24.1194H153.554V26.2991ZM157.429 24.6038H158.038V19.51H157.429V24.6038ZM164.07 20.1506V19.7522H163.437V20.1506C163.437 21.1467 162.168 21.9749 160.914 22.1506L161.164 22.6506C162.246 22.4709 163.312 21.8811 163.758 21.0217C164.203 21.8733 165.273 22.4709 166.352 22.6506L166.602 22.1506C165.348 21.9749 164.074 21.1311 164.07 20.1506ZM160.586 23.9319H163.437V26.4475H164.039V23.9319H166.914V23.4163H160.586V23.9319ZM172.938 19.5022H172.321V21.3147H170.922V21.8225H172.321V23.6428H172.938V19.5022ZM167.211 23.0881L167.532 23.5803C168.36 23.2639 169.004 22.6155 169.301 21.803C169.602 22.5178 170.207 23.1038 170.985 23.385L171.305 22.8928C170.289 22.5452 169.594 21.6819 169.594 20.7756V20.5256H171.149V20.01H167.407V20.5256H168.977V20.7834C168.977 21.7756 168.242 22.717 167.211 23.0881ZM168.305 25.1506C168.301 25.9709 169.188 26.4397 170.633 26.4475C172.075 26.4397 172.961 25.9709 172.961 25.1506C172.961 24.3342 172.075 23.8577 170.633 23.8616C169.188 23.8577 168.301 24.3342 168.305 25.1506ZM168.914 25.1506C168.91 24.6428 169.567 24.3381 170.633 24.3381C171.696 24.3381 172.352 24.6428 172.352 25.1506C172.352 25.6545 171.696 25.9592 170.633 25.9553C169.567 25.9592 168.91 25.6545 168.914 25.1506ZM175.805 21.6428V21.2991H177.11V20.7913H175.813V19.76H175.227V20.7913H173.907V21.2991H175.227V21.6428C175.223 22.7913 174.665 24.01 173.719 24.5569L174.087 25.0256C174.782 24.6077 175.278 23.8264 175.524 22.9358C175.778 23.7717 176.278 24.4905 176.969 24.8694L177.321 24.4084C176.376 23.9045 175.809 22.76 175.805 21.6428ZM176.633 22.7678H177.727V26.0881H178.305V19.6741H177.727V22.2444H176.633V22.7678ZM179.126 26.4475H179.712V19.5022H179.126V26.4475ZM186.727 25.0725H183.829V23.76H186.087V23.2522H181.774V22.1194H185.923V20.0178H181.149V20.5256H185.321V21.6194H181.165V23.76H183.227V25.0725H180.368V25.5881H186.727V25.0725ZM194.384 19.51H193.775V24.5881H194.384V19.51ZM188.814 21.6975C188.81 22.7092 189.595 23.4124 190.634 23.4084C191.673 23.4124 192.451 22.7092 192.455 21.6975C192.451 20.6975 191.673 19.9983 190.634 19.9944C189.595 19.9983 188.81 20.6975 188.814 21.6975ZM189.416 21.6975C189.408 21.0178 189.931 20.5334 190.634 20.5334C191.326 20.5334 191.853 21.0178 191.853 21.6975C191.853 22.3889 191.326 22.8694 190.634 22.8694C189.931 22.8694 189.408 22.3889 189.416 21.6975ZM189.9 26.2991H194.603V25.7834H190.509V24.0725H189.9V26.2991ZM198.713 20.7053H197.283V19.7131H196.674V20.7053H195.228V21.2053H198.713V20.7053ZM195.478 23.2522C195.478 24.1858 196.107 24.842 196.971 24.8459C197.846 24.842 198.471 24.1858 198.478 23.2522C198.471 22.3303 197.846 21.678 196.971 21.6741C196.107 21.678 195.478 22.3303 195.478 23.2522ZM196.025 23.2522C196.025 22.6428 196.42 22.1975 196.971 22.1897C197.525 22.1975 197.932 22.6428 197.932 23.2522C197.932 23.8694 197.525 24.3108 196.971 24.3069C196.42 24.3108 196.025 23.8694 196.025 23.2522ZM199.072 26.1038H199.65V22.9397H200.572V26.4475H201.158V19.5022H200.572V22.4319H199.65V19.6741H199.072V26.1038ZM209.143 21.6194H205.01V19.7678H204.401V22.1194H209.143V21.6194ZM203.526 23.4475H206.44V24.885H207.049V23.4475H209.862V22.9397H203.526V23.4475ZM204.338 26.2991H209.19V25.7834H204.948V24.2678H204.338V26.2991ZM212.393 20.01C211.296 20.0139 210.515 20.678 210.518 21.6428C210.515 22.6116 211.296 23.2717 212.393 23.2756C213.483 23.2717 214.257 22.6116 214.261 21.6428C214.257 20.678 213.483 20.0139 212.393 20.01ZM210.159 24.4084L210.245 24.9319C211.495 24.9319 213.202 24.9241 214.792 24.6272L214.745 24.1741C213.21 24.4006 211.44 24.4124 210.159 24.4084ZM211.12 21.6428C211.116 20.9983 211.651 20.5491 212.393 20.5491C213.128 20.5491 213.663 20.9983 213.659 21.6428C213.663 22.2913 213.128 22.7366 212.393 22.7366C211.651 22.7366 211.116 22.2913 211.12 21.6428ZM215.206 26.4631H215.815V19.5022H215.206V26.4631ZM75.3231 29.7913H70.6044V30.2913H74.7137C74.7177 30.7405 74.7098 31.2795 74.5614 32.0256H69.7997V32.51H72.6591V33.4163H70.5575V33.9084H74.7372V34.6428H70.5653V36.3694H75.5262V35.8694H71.1825V35.0881H75.3466V33.4163H73.2606V32.51H76.1591V32.0256H75.1786C75.3231 31.2834 75.3231 30.6858 75.3231 30.2366V29.7913ZM78.8 30.5803V30.3772H80.3547V29.8694H76.6125V30.3772H78.1828V30.5725C78.1828 31.4709 77.4367 32.3381 76.425 32.6897L76.7297 33.1741C77.5422 32.8928 78.1867 32.2834 78.4953 31.5374C78.7961 32.2131 79.4094 32.7522 80.1984 33.01L80.5031 32.5256C79.4992 32.2053 78.7961 31.4045 78.8 30.5803ZM77.6437 33.9397H81.5344V34.635H77.6594V36.3694H82.4094V35.8772H78.2687V35.1038H82.1437V33.4397H77.6437V33.9397ZM80.1359 31.5647H81.5344V33.0959H82.1437V29.5022H81.5344V31.0569H80.1359V31.5647ZM86.2847 29.9319H83.2691V30.4241H85.6753V31.4084H83.2847V33.4553H83.7769C85.1831 33.4553 85.8902 33.4319 86.7534 33.2913L86.6909 32.7834C85.8745 32.9319 85.1987 32.9592 83.8941 32.9553V31.8772H86.2847V29.9319ZM84.0659 34.6506H88.1284V36.4631H88.7456V34.1506H84.0659V34.6506ZM86.7456 32.4866H88.1284V33.7756H88.7456V29.51H88.1284V30.5413H86.7456V31.0413H88.1284V31.9788H86.7456V32.4866ZM95.3084 29.5022H94.6912V36.4631H95.3084V29.5022ZM89.8397 32.4631C89.8436 33.9436 90.578 34.8811 91.6131 34.8772C92.6444 34.8811 93.3905 33.9436 93.3866 32.4631C93.3905 30.9866 92.6444 30.0452 91.6131 30.0413C90.578 30.0452 89.8436 30.9866 89.8397 32.4631ZM90.4334 32.4631C90.4334 31.3342 90.9178 30.592 91.6131 30.5881C92.3123 30.592 92.7928 31.3342 92.7928 32.4631C92.7928 33.592 92.3123 34.3342 91.6131 34.3303C90.9178 34.3342 90.4334 33.592 90.4334 32.4631ZM104.192 32.8069H97.8637V33.3147H104.192V32.8069ZM98.2231 31.9006L98.4419 32.3928C99.5864 32.2483 100.645 31.7366 101.028 30.967C101.411 31.7366 102.477 32.2483 103.614 32.3928L103.84 31.9006C102.61 31.76 101.454 31.1545 101.426 30.3694H103.629V29.8616H98.4419V30.3694H100.629C100.602 31.1624 99.4341 31.76 98.2231 31.9006ZM98.6294 35.1819C98.6255 35.9866 99.5278 36.4319 101.028 36.4319C102.516 36.4319 103.411 35.9866 103.418 35.1819C103.411 34.385 102.516 33.9241 101.028 33.9241C99.5278 33.9241 98.6255 34.385 98.6294 35.1819ZM99.2544 35.1819C99.2466 34.6936 99.9145 34.4163 101.028 34.4084C102.129 34.4163 102.797 34.6936 102.801 35.1819C102.797 35.6663 102.129 35.9436 101.028 35.9397C99.9145 35.9436 99.2466 35.6663 99.2544 35.1819ZM109.833 29.5022H109.223V36.4475H109.833V32.8459H110.958V32.3303H109.833V29.5022ZM104.505 34.6428L104.848 35.1272C107.11 34.01 108.032 32.217 108.036 30.2522H104.825V30.7678H107.415C107.274 32.4124 106.298 33.7522 104.505 34.6428ZM115.192 32.5022H112.224V30.6663H115.161V30.1663H111.622V33.01H113.06V34.4006C112.368 34.4202 111.696 34.4241 111.091 34.4241L111.177 34.9397C112.505 34.9436 114.185 34.9124 115.724 34.6897L115.677 34.2288C115.032 34.303 114.349 34.3499 113.669 34.3772V33.01H115.192V32.5022ZM116.138 36.4631H116.747V29.5022H116.138V36.4631ZM121.162 30.1116H117.974V33.3538H121.162V32.7288H122.787V34.5803H123.404V29.51H122.787V30.7288H121.162V30.1116ZM118.583 32.8616V30.6194H120.56V32.8616H118.583ZM118.912 36.2991H123.56V35.7834H119.529V34.1272H118.912V36.2991ZM121.162 32.2209V31.2444H122.787V32.2209H121.162ZM129.436 30.0334H126.225V33.01H129.436V30.0334ZM126.826 35.1428C126.83 35.9631 127.713 36.4397 129.131 36.4475C130.549 36.4397 131.42 35.9631 131.42 35.1428C131.42 34.3303 130.549 33.8459 129.131 33.8459C127.713 33.8459 126.83 34.3303 126.826 35.1428ZM126.826 32.5178V30.5334H128.842V32.5178H126.826ZM127.443 35.1428C127.436 34.6428 128.084 34.3459 129.131 34.3459C130.182 34.3459 130.822 34.6428 130.826 35.1428C130.822 35.6506 130.182 35.9436 129.131 35.9475C128.084 35.9436 127.436 35.6506 127.443 35.1428ZM130.748 33.6116H131.357V31.7522H132.404V31.2444H131.357V29.5022H130.748V33.6116ZM136.03 30.0256H132.819V33.0959H136.03V30.0256ZM133.405 34.4866H137.342V36.4631H137.952V33.9944H133.405V34.4866ZM133.42 32.5959V30.5178H135.436V32.5959H133.42ZM137.342 33.6194H137.952V31.8303H138.998V31.3147H137.952V29.5022H137.342V33.6194ZM146.53 29.51H145.929V36.4553H146.53V29.51ZM140.772 33.2913L140.851 33.8147C141.452 33.8147 142.12 33.8108 142.812 33.7834V36.2366H143.421V33.7561C144.101 33.7209 144.792 33.6663 145.46 33.5725L145.429 33.1038C143.894 33.2717 142.159 33.2834 140.772 33.2913ZM141.437 32.4084H144.897V31.8928H142.054V30.4006H144.804V29.9006H141.437V32.4084ZM153.351 29.5022H152.757V36.4475H153.351V29.5022ZM147.484 32.5022C147.488 33.9788 148.074 34.9202 148.976 34.9163C149.831 34.9202 150.413 34.0725 150.472 32.7209H151.367V36.0959H151.952V29.6506H151.367V32.2131H150.468C150.39 30.9045 149.82 30.092 148.976 30.0881C148.074 30.092 147.488 31.0256 147.484 32.5022ZM148.062 32.5022C148.054 31.3733 148.413 30.6663 148.976 30.6663C149.542 30.6663 149.902 31.3733 149.898 32.5022C149.902 33.6272 149.542 34.3381 148.976 34.3303C148.413 34.3381 148.054 33.6272 148.062 32.5022ZM161.578 29.51H160.992V31.26H160.07V29.6428H159.492V33.4709H160.07V31.7678H160.992V33.5256H161.578V29.51ZM156 33.0413H158.687V30.0334H156V33.0413ZM156.578 32.5647V30.5256H158.117V32.5647H156.578ZM156.672 35.9475L156.898 36.4163C157.949 36.2639 158.906 35.7874 159.305 35.0725C159.703 35.7874 160.664 36.2639 161.719 36.4163L161.937 35.9475C160.75 35.7913 159.68 35.178 159.633 34.385H161.656V33.885H156.945V34.385H158.977C158.934 35.1897 157.855 35.7913 156.672 35.9475ZM168.039 29.5022H167.422V31.1819H166.211V31.6897H167.422V32.5178H166.203V33.0334H167.422V33.9084H168.039V29.5022ZM162.282 30.7366H166.211V30.2366H164.578V29.4397H163.969V30.2366H162.282V30.7366ZM162.68 35.9006L162.969 36.3616C163.637 36.1194 164.125 35.6545 164.375 35.1155C164.578 35.678 165 36.1702 165.672 36.4163C166.325 36.1545 166.746 35.6389 166.961 35.0959C167.2 35.6584 167.692 36.1272 168.383 36.3616L168.688 35.9006C167.793 35.6311 167.262 34.9475 167.266 34.2756V34.0413H166.664V34.2756C166.66 34.7795 166.317 35.4553 165.668 35.8342C165.012 35.4827 164.676 34.8616 164.68 34.2756V34.0413H164.094V34.2756C164.086 34.9045 163.543 35.6155 162.68 35.9006ZM162.696 32.3538C162.688 33.135 163.328 33.6506 164.266 33.6506C165.196 33.6506 165.848 33.135 165.852 32.3538C165.848 31.5881 165.196 31.0803 164.266 31.0803C163.328 31.0803 162.688 31.5881 162.696 32.3538ZM163.266 32.3538C163.262 31.8772 163.66 31.5569 164.266 31.5569C164.864 31.5569 165.274 31.8772 165.282 32.3538C165.274 32.8459 164.864 33.1741 164.266 33.1819C163.66 33.1741 163.262 32.8459 163.266 32.3538ZM172.469 30.0881H169.274V33.5569H169.797C171.106 33.5569 171.946 33.5061 172.938 33.3303L172.86 32.8225C171.926 33.0061 171.118 33.0452 169.876 33.0491V30.5959H172.469V30.0881ZM170.149 36.3381H174.813V35.8381H170.766V34.1975H170.149V36.3381ZM172.016 31.9397H174.008V34.5803H174.626V29.51H174.008V31.4397H172.016V31.9397ZM183.509 35.0569H180.618V33.4631H180.017V35.0569H177.15V35.5725H183.509V35.0569ZM177.501 33.2288L177.743 33.7131C178.861 33.5178 179.88 32.9553 180.318 32.0842C180.763 32.9553 181.782 33.5178 182.892 33.7131L183.126 33.2288C181.794 33.0139 180.634 32.2053 180.634 31.1194H182.9V30.6116H180.618V29.6506H180.017V30.6116H177.743V31.1194H180.009C180.001 32.2053 178.841 33.0139 177.501 33.2288ZM189.502 29.5022H188.884V31.2444H187.478V31.76H188.884V33.5725H189.502V29.5022ZM183.775 33.0178L184.095 33.5022C184.92 33.2014 185.56 32.5647 185.861 31.76C186.162 32.4788 186.767 33.0608 187.548 33.3459L187.869 32.8616C186.853 32.4983 186.158 31.6311 186.158 30.7366V30.4631H187.712V29.9553H183.97V30.4631H185.541V30.7366C185.541 31.7249 184.798 32.6545 183.775 33.0178ZM184.962 36.3538H189.502V33.9163H184.962V36.3538ZM185.572 35.8538V34.4084H188.9V35.8538H185.572ZM196.064 29.5022H195.447V36.4631H196.064V29.5022ZM190.596 32.4631C190.6 33.9436 191.334 34.8811 192.369 34.8772C193.4 34.8811 194.146 33.9436 194.142 32.4631C194.146 30.9866 193.4 30.0452 192.369 30.0413C191.334 30.0452 190.6 30.9866 190.596 32.4631ZM191.189 32.4631C191.189 31.3342 191.674 30.592 192.369 30.5881C193.068 30.592 193.549 31.3342 193.549 32.4631C193.549 33.592 193.068 34.3342 192.369 34.3303C191.674 34.3342 191.189 33.592 191.189 32.4631ZM202.128 30.0334H198.917V33.01H202.128V30.0334ZM199.518 35.1428C199.522 35.9631 200.405 36.4397 201.823 36.4475C203.241 36.4397 204.112 35.9631 204.112 35.1428C204.112 34.3303 203.241 33.8459 201.823 33.8459C200.405 33.8459 199.522 34.3303 199.518 35.1428ZM199.518 32.5178V30.5334H201.534V32.5178H199.518ZM200.135 35.1428C200.128 34.6428 200.776 34.3459 201.823 34.3459C202.874 34.3459 203.514 34.6428 203.518 35.1428C203.514 35.6506 202.874 35.9436 201.823 35.9475C200.776 35.9436 200.128 35.6506 200.135 35.1428ZM203.44 33.6116H204.049V31.7522H205.096V31.2444H204.049V29.5022H203.44V33.6116ZM208.722 30.0256H205.511V33.0959H208.722V30.0256ZM206.097 34.4866H210.034V36.4631H210.643V33.9944H206.097V34.4866ZM206.112 32.5959V30.5178H208.128V32.5959H206.112ZM210.034 33.6194H210.643V31.8303H211.69V31.3147H210.643V29.5022H210.034V33.6194ZM213.925 30.3928V30.2678H214.831V29.76H212.214V30.2678H213.316V30.4241C213.316 30.885 212.823 31.5374 212.011 31.7991L212.284 32.2522C212.968 32.0295 213.429 31.5608 213.644 31.0647C213.866 31.5139 214.312 31.9475 214.972 32.1584C215.62 31.9592 216.062 31.5374 216.288 31.0842C216.503 31.592 216.964 32.0413 217.652 32.2522L217.933 31.7991C217.097 31.5608 216.62 30.9514 216.62 30.4241V30.2678H217.722V29.76H215.105V30.2678H216.011V30.3928C216.007 30.7991 215.624 31.3381 214.972 31.6194C214.312 31.3264 213.925 30.7717 213.925 30.3928ZM211.808 33.4475H218.159V32.9475H215.269V32.2366H214.667V32.9475H211.808V33.4475ZM212.495 34.6897H216.722V36.4475H217.339V34.1897H212.495V34.6897ZM72.9637 39.9553C71.5145 39.9592 70.4247 40.717 70.4247 41.8616C70.4247 43.0178 71.5145 43.7756 72.9637 43.7678C74.413 43.7756 75.5028 43.0178 75.5028 41.8616C75.5028 40.717 74.413 39.9592 72.9637 39.9553ZM69.7997 45.5256H76.1591V45.01H69.7997V45.5256ZM71.0106 41.8616C71.0028 41.0295 71.8427 40.4514 72.9637 40.4553C74.077 40.4514 74.9091 41.0295 74.9091 41.8616C74.9091 42.7053 74.077 43.2678 72.9637 43.2678C71.8427 43.2678 71.0028 42.7053 71.0106 41.8616ZM82.7531 45.0725H79.8547V43.76H82.1125V43.2522H77.8V42.1194H81.9484V40.0178H77.175V40.5256H81.3469V41.6194H77.1906V43.76H79.2531V45.0725H76.3937V45.5881H82.7531V45.0725ZM90.4022 39.5022H89.785V46.4631H90.4022V39.5022ZM84.9334 42.4631C84.9373 43.9436 85.6717 44.8811 86.7069 44.8772C87.7381 44.8811 88.4842 43.9436 88.4803 42.4631C88.4842 40.9866 87.7381 40.0452 86.7069 40.0413C85.6717 40.0452 84.9373 40.9866 84.9334 42.4631ZM85.5272 42.4631C85.5272 41.3342 86.0116 40.592 86.7069 40.5881C87.4061 40.592 87.8866 41.3342 87.8866 42.4631C87.8866 43.592 87.4061 44.3342 86.7069 44.3303C86.0116 44.3342 85.5272 43.592 85.5272 42.4631ZM97.6056 42.9397H94.7306V42.1272H96.8634V41.6272H92.6759V40.3225H96.8166V39.8303H92.0744V42.1272H94.1369V42.9397H91.2697V43.4319H97.6056V42.9397ZM92.0353 45.1897C92.0314 45.9905 92.9337 46.4397 94.4337 46.4475C95.922 46.4397 96.8166 45.9905 96.8244 45.1897C96.8166 44.3967 95.922 43.9436 94.4337 43.9397C92.9337 43.9436 92.0314 44.3967 92.0353 45.1897ZM92.6603 45.1897C92.6525 44.7092 93.3205 44.4241 94.4337 44.4241C95.5353 44.4241 96.2033 44.7092 96.2072 45.1897C96.2033 45.678 95.5353 45.9592 94.4337 45.9553C93.3205 45.9592 92.6525 45.678 92.6603 45.1897ZM103.239 39.5022H102.629V46.4475H103.239V42.8772H104.403V42.3694H103.239V39.5022ZM97.8247 41.1272H101.957V40.6194H100.223V39.5881H99.6137V40.6194H97.8247V41.1272ZM98.2231 43.2991C98.2192 44.2405 98.938 44.8928 99.9262 44.8928C100.907 44.8928 101.622 44.2405 101.629 43.2991C101.622 42.3616 100.907 41.7053 99.9262 41.7053C98.938 41.7053 98.2192 42.3616 98.2231 43.2991ZM98.8091 43.2991C98.8052 42.6702 99.2778 42.217 99.9262 42.2209C100.567 42.217 101.036 42.6702 101.043 43.2991C101.036 43.9319 100.567 44.3772 99.9262 44.3694C99.2778 44.3772 98.8052 43.9319 98.8091 43.2991ZM106.325 40.0413C105.298 40.0452 104.579 40.9866 104.583 42.4631C104.579 43.9436 105.298 44.8811 106.325 44.8772C106.997 44.8811 107.536 44.4709 107.825 43.7678H109.606V46.4631H110.216V39.5022H109.606V41.0569H107.782C107.481 40.4163 106.962 40.0452 106.325 40.0413ZM105.169 42.4631C105.173 41.3342 105.641 40.592 106.325 40.5881C107.005 40.592 107.481 41.3342 107.481 42.4631C107.481 43.592 107.005 44.3342 106.325 44.3303C105.641 44.3342 105.173 43.592 105.169 42.4631ZM107.958 41.5725H109.606V43.26H107.981C108.032 43.0178 108.059 42.7483 108.059 42.4631C108.059 42.1389 108.024 41.842 107.958 41.5725ZM118.115 39.5022H117.505V46.4475H118.115V42.8459H119.24V42.3303H118.115V39.5022ZM112.787 44.6428L113.13 45.1272C115.392 44.01 116.314 42.217 116.318 40.2522H113.107V40.7678H115.697C115.556 42.4124 114.58 43.7522 112.787 44.6428ZM124.834 39.5022H124.217V46.4475H124.834V42.885H125.888V42.3694H124.834V39.5022ZM119.31 44.5256L119.802 44.8772C121.064 43.5452 121.435 41.9124 121.443 40.26H119.529V40.7756H120.861C120.783 42.1584 120.357 43.4514 119.31 44.5256ZM121.302 44.9944L121.802 45.3381C123.103 43.8264 123.345 41.9084 123.349 40.26H121.662V40.7756H122.771C122.713 42.2249 122.388 43.7678 121.302 44.9944ZM132.279 43.0334H125.92V43.5413H128.842V44.9631H129.459V43.5413H132.279V43.0334ZM126.639 41.0803C126.635 41.9358 127.607 42.467 129.092 42.4631C130.576 42.467 131.537 41.9358 131.537 41.0803C131.537 40.217 130.576 39.6858 129.092 39.6819C127.607 39.6858 126.635 40.217 126.639 41.0803ZM126.74 46.2991H131.568V45.7756H127.357V44.2678H126.74V46.2991ZM127.295 41.0803C127.287 40.5256 128.01 40.1858 129.092 40.1819C130.17 40.1858 130.889 40.5256 130.889 41.0803C130.889 41.6194 130.17 41.9631 129.092 41.9631C128.01 41.9631 127.287 41.6194 127.295 41.0803ZM139.733 39.8459H134.967V40.3381H139.124C139.124 40.8459 139.124 41.4163 138.944 42.2209L139.546 42.2913C139.729 41.467 139.729 40.8577 139.733 40.3303V39.8459ZM134.217 43.26H140.538V42.7678H137.436V41.3616H136.835V42.7678H134.217V43.26ZM134.671 45.9397L134.897 46.4163C135.956 46.2444 136.925 45.7444 137.346 44.9866C137.768 45.7444 138.737 46.2444 139.796 46.4163L140.03 45.9397C138.764 45.7522 137.659 45.0569 137.655 44.135V43.8147H137.038V44.135C137.034 45.0569 135.928 45.7522 134.671 45.9397ZM143.968 39.6272C142.417 39.6272 141.507 40.053 141.507 40.8225C141.507 41.6116 142.417 42.0374 143.968 42.0413C145.511 42.0374 146.417 41.6116 146.421 40.8225C146.417 40.053 145.511 39.6272 143.968 39.6272ZM140.804 43.01H147.132V42.51H140.804V43.01ZM141.569 44.0803H145.718V44.7131H141.585V46.3694H146.53V45.885H142.194V45.1663H146.319V43.6116H141.569V44.0803ZM142.147 40.8225C142.14 40.3655 142.815 40.092 143.968 40.0881C145.12 40.092 145.792 40.3655 145.796 40.8225C145.792 41.3069 145.12 41.5725 143.968 41.5725C142.815 41.5725 142.14 41.3069 142.147 40.8225ZM150.539 39.6194H149.929V41.9006H151.937V42.5881H149.086V43.0881H155.414V42.5881H152.539V41.9006H154.586V39.6194H153.976V40.2834H150.539V39.6194ZM149.851 44.135H154V44.7522H149.867V46.3694H154.812V45.885H150.476V45.2053H154.601V43.6663H149.851V44.135ZM150.539 41.4241V40.7522H153.976V41.4241H150.539ZM160.852 40.1506V39.7522H160.219V40.1506C160.219 41.1467 158.95 41.9749 157.696 42.1506L157.946 42.6506C159.028 42.4709 160.094 41.8811 160.539 41.0217C160.985 41.8733 162.055 42.4709 163.133 42.6506L163.383 42.1506C162.129 41.9749 160.856 41.1311 160.852 40.1506ZM157.367 43.9319H160.219V46.4475H160.821V43.9319H163.696V43.4163H157.367V43.9319ZM168.001 44.1663V43.7834H167.407V44.1663C167.399 44.8303 166.872 45.5725 165.993 45.9006L166.306 46.3538C166.97 46.1038 167.446 45.6194 167.696 45.0608C167.903 45.6428 168.333 46.1506 169.009 46.4084C169.649 46.1389 170.075 45.6038 170.29 45.0413C170.532 45.6233 171.017 46.1077 171.712 46.3538L172.017 45.9006C171.126 45.592 170.599 44.8811 170.602 44.1663V43.7834H170.001V44.1663C170.005 44.7014 169.653 45.3967 168.989 45.8069C168.329 45.4319 167.997 44.7795 168.001 44.1663ZM165.813 41.5413C165.81 42.4944 166.579 43.1506 167.634 43.1506C168.688 43.1506 169.45 42.4944 169.454 41.5413C169.45 40.5725 168.688 39.9124 167.634 39.9163C166.579 39.9124 165.81 40.5725 165.813 41.5413ZM166.415 41.5413C166.407 40.8928 166.919 40.4319 167.634 40.4397C168.341 40.4319 168.852 40.8928 168.852 41.5413C168.852 42.1858 168.341 42.6389 167.634 42.6428C166.919 42.6389 166.407 42.1858 166.415 41.5413ZM170.774 43.4788H171.384V39.51H170.774V43.4788ZM178.189 39.5022H177.603V46.4475H178.189V39.5022ZM172.251 44.5022L172.611 44.9475C173.579 44.3772 174.251 43.6624 174.669 42.8538H176.142V46.0959H176.728V39.6897H176.142V42.3538H174.896C175.134 41.7366 175.243 41.0764 175.243 40.3928H172.548V40.9006H174.634C174.517 42.3538 173.759 43.6077 172.251 44.5022ZM184.212 39.5022H183.603V46.4475H184.212V42.8772H185.377V42.3694H184.212V39.5022ZM178.798 41.1272H182.931V40.6194H181.197V39.5881H180.587V40.6194H178.798V41.1272ZM179.197 43.2991C179.193 44.2405 179.912 44.8928 180.9 44.8928C181.88 44.8928 182.595 44.2405 182.603 43.2991C182.595 42.3616 181.88 41.7053 180.9 41.7053C179.912 41.7053 179.193 42.3616 179.197 43.2991ZM179.783 43.2991C179.779 42.6702 180.252 42.217 180.9 42.2209C181.541 42.217 182.009 42.6702 182.017 43.2991C182.009 43.9319 181.541 44.3772 180.9 44.3694C180.252 44.3772 179.779 43.9319 179.783 43.2991ZM191.049 41.6116H186.9V39.76H186.291V42.1038H191.049V41.6116ZM185.424 43.5491H191.783V43.0491H185.424V43.5491ZM186.252 46.2756H191.088V45.7678H186.861V44.26H186.252V46.2756ZM199.331 41.6194H195.198V39.7678H194.588V42.1194H199.331V41.6194ZM193.713 43.4475H196.627V44.885H197.237V43.4475H200.049V42.9397H193.713V43.4475ZM194.526 46.2991H199.377V45.7834H195.135V44.2678H194.526V46.2991ZM202.581 40.01C201.483 40.0139 200.702 40.678 200.706 41.6428C200.702 42.6116 201.483 43.2717 202.581 43.2756C203.671 43.2717 204.444 42.6116 204.448 41.6428C204.444 40.678 203.671 40.0139 202.581 40.01ZM200.347 44.4084L200.432 44.9319C201.682 44.9319 203.39 44.9241 204.979 44.6272L204.932 44.1741C203.397 44.4006 201.628 44.4124 200.347 44.4084ZM201.307 41.6428C201.304 40.9983 201.839 40.5491 202.581 40.5491C203.315 40.5491 203.85 40.9983 203.847 41.6428C203.85 42.2913 203.315 42.7366 202.581 42.7366C201.839 42.7366 201.304 42.2913 201.307 41.6428ZM205.393 46.4631H206.003V39.5022H205.393V46.4631ZM214.019 39.51H213.41V44.6116H214.019V42.1272H215.066V41.6116H214.019V39.51ZM208.886 43.4397H212.121V40.01H211.511V41.1819H209.488V40.01H208.886V43.4397ZM209.488 42.9397V41.6663H211.511V42.9397H209.488ZM209.675 46.2991H214.339V45.7834H210.277V44.1116H209.675V46.2991ZM221.512 42.885H215.183V43.385H221.512V42.885ZM215.887 41.0022C215.887 41.8303 216.836 42.3186 218.347 42.3147C219.851 42.3186 220.797 41.8303 220.801 41.0022C220.797 40.178 219.851 39.6819 218.347 39.6819C216.836 39.6819 215.887 40.178 215.887 41.0022ZM215.949 45.2053C215.945 46.01 216.84 46.4514 218.347 46.4475C219.836 46.4514 220.73 46.01 220.738 45.2053C220.73 44.4124 219.836 43.9709 218.347 43.9788C216.84 43.9709 215.945 44.4124 215.949 45.2053ZM216.519 41.0022C216.515 40.4827 217.222 40.1741 218.347 40.1819C219.461 40.1741 220.172 40.4827 220.176 41.0022C220.172 41.5217 219.461 41.8303 218.347 41.8303C217.222 41.8303 216.515 41.5217 216.519 41.0022ZM216.574 45.2053C216.566 44.7209 217.234 44.4436 218.347 44.4475C219.449 44.4436 220.117 44.7209 220.121 45.2053C220.117 45.6858 219.449 45.9631 218.347 45.9553C217.234 45.9631 216.566 45.6858 216.574 45.2053Z" fill="#113287"/>
<path d="M79.3621 152.058H68.4949V134.236" stroke="#979797" stroke-dasharray="2 2"/>
<path d="M61.3308 118.094H58.4792V116.477H60.5652V113.148H55.6589V116.477H57.7449V118.094H54.9246V118.711H61.3308V118.094ZM56.3777 115.891V113.742H59.8386V115.891H56.3777ZM68.3308 113.578H67.3386V112.586H66.5964V116.719H67.3386V115.695H68.3308V115.078H67.3386V114.188H68.3308V113.578ZM61.948 114.656C61.9402 115.633 62.7371 116.316 63.8074 116.32C64.8816 116.316 65.6667 115.633 65.6746 114.656C65.6667 113.672 64.8816 112.992 63.8074 112.992C62.7371 112.992 61.9402 113.672 61.948 114.656ZM62.6746 114.656C62.6667 114.039 63.1511 113.613 63.8074 113.617C64.4636 113.613 64.9441 114.039 64.948 114.656C64.9441 115.277 64.4636 115.688 63.8074 115.695C63.1511 115.688 62.6667 115.277 62.6746 114.656ZM62.7292 118.242C62.7292 119.078 63.6355 119.574 65.0808 119.57C66.5105 119.574 67.4011 119.078 67.4011 118.242C67.4011 117.402 66.5105 116.91 65.0808 116.906C63.6355 116.91 62.7292 117.402 62.7292 118.242ZM63.4714 118.242C63.4675 117.773 64.0691 117.504 65.0808 117.508C66.0847 117.504 66.6785 117.773 66.6746 118.242C66.6785 118.719 66.0847 118.98 65.0808 118.977C64.0691 118.98 63.4675 118.719 63.4714 118.242ZM70.8464 114.734V114.453H72.0886V113.844H70.8464V112.836H70.1511V113.844H68.8855V114.453H70.1511V114.734C70.1433 115.863 69.6433 117.062 68.6746 117.625L69.1121 118.188C69.7878 117.781 70.2566 117.051 70.5066 116.203C70.7605 116.996 71.2292 117.664 71.9089 118.023L72.323 117.477C71.3582 116.957 70.8464 115.836 70.8464 114.734ZM71.6277 115.93H72.6355V119.234H73.3386V112.734H72.6355V115.312H71.6277V115.93ZM74.0496 119.586H74.7605V112.586H74.0496V119.586ZM81.2605 113H76.4714V113.602H80.5261C80.5261 114.191 80.5222 114.855 80.3386 115.766H75.6667V116.375H82.073V115.766H81.0847C81.2644 114.84 81.2644 114.148 81.2605 113.555V113ZM76.5027 119.438H81.4714V118.828H77.2371V117.102H76.5027V119.438ZM65.4246 123.203V122.82H64.6511V123.203C64.6472 124.145 63.5144 125.004 62.1433 125.188L62.4402 125.797C63.5769 125.613 64.5808 125.02 65.0378 124.195C65.4949 125.02 66.4988 125.613 67.6433 125.797L67.9324 125.188C66.5574 125.004 65.4207 124.133 65.4246 123.203ZM61.8386 127.094H64.6511V129.586H65.3777V127.094H68.2214V126.484H61.8386V127.094ZM75.1355 126.086H68.7527V126.68H71.573V127.414H69.4636V128.016H73.6042V129.57H74.3542V127.414H72.3074V126.68H75.1355V126.086ZM69.0964 125.18L69.3308 125.734C70.53 125.625 71.5066 125.223 71.9402 124.562C72.3699 125.223 73.3425 125.625 74.5496 125.734L74.7839 125.18C73.3816 125.051 72.4246 124.543 72.3503 123.844H74.4949V123.258H72.3074V122.562H71.573V123.258H69.3933V123.844H71.53C71.448 124.543 70.4871 125.051 69.0964 125.18Z" fill="#979797"/>
<path d="M73.0046 158.228C79.2935 147.397 88.9751 138.939 100.577 134.141C112.178 129.344 125.037 128.503 137.168 131.751C149.299 134.982 160.007 142.121 167.653 152.046C175.299 161.971 179.436 174.121 179.436 186.635C179.436 199.148 175.299 211.299 167.653 221.224C160.007 231.148 149.299 238.271 137.168 241.518C125.037 244.75 112.178 243.926 100.577 239.128C88.9751 234.33 79.2935 225.889 73.0046 215.041" stroke="#113287" stroke-width="0.75" stroke-linecap="round" stroke-linejoin="round"/>
<path d="M68.4949 155.975C75.2634 144.284 85.6835 135.155 98.1697 129.977C110.656 124.798 124.496 123.891 137.552 127.396C150.608 130.884 162.133 138.589 170.362 149.302C178.591 160.015 183.044 173.13 183.044 186.636C183.044 200.142 178.591 213.257 170.362 223.97C162.133 234.683 150.608 242.37 137.552 245.876C124.496 249.363 110.656 248.474 98.1697 243.295C85.6835 238.117 75.2634 229.006 68.4949 217.297" stroke="#113287" stroke-width="0.75" stroke-linecap="round" stroke-linejoin="round"/>
<path d="M65.7889 157.77C57.4004 163.928 52.2595 175.072 52.2595 187.083C52.2595 199.112 57.4004 210.238 65.7889 216.397" stroke="#113287" stroke-width="0.75" stroke-linecap="round" stroke-linejoin="round"/>
<path d="M179.356 186.631L56.4809 170.396H30.6124" stroke="#9FABDB" stroke-width="1.25"/>
<path d="M179.356 186.632L56.4809 202.868H30.6124" stroke="#9FABDB" stroke-width="1.25"/>
<path d="M39.6818 172.2L43.3106 170.396L39.6818 168.592" stroke="#9FABDB" stroke-width="1.25"/>
<path d="M39.6818 201.063L43.3106 202.867L39.6818 204.671" stroke="#9FABDB" stroke-width="1.25"/>
<circle cx="4" cy="4" r="3.5" transform="matrix(-1 0 0 1 204.782 182.632)" fill="white" stroke="#FFB341"/>
<path d="M186.051 186.73C185.856 186.926 185.856 187.242 186.051 187.438L189.233 190.62C189.428 190.815 189.745 190.815 189.94 190.62C190.136 190.424 190.136 190.108 189.94 189.912L187.112 187.084L189.94 184.256C190.136 184.06 190.136 183.744 189.94 183.548C189.745 183.353 189.428 183.353 189.233 183.548L186.051 186.73ZM194.076 186.584H186.405V187.584H194.076V186.584Z" fill="#9FABDB"/>
<path d="M79.1985 159.482C79.2542 159.753 79.5186 159.927 79.7891 159.871L84.1966 158.963C84.467 158.908 84.6411 158.643 84.5854 158.373C84.5297 158.102 84.2653 157.928 83.9948 157.984L80.0771 158.791L79.2701 154.873C79.2144 154.603 78.95 154.429 78.6796 154.484C78.4091 154.54 78.235 154.804 78.2907 155.075L79.1985 159.482ZM87.2794 146.943L79.2706 159.107L80.1058 159.656L88.1146 147.493L87.2794 146.943Z" fill="#113287"/>
<path d="M79.1985 214.182C79.2542 213.911 79.5186 213.737 79.7891 213.793L84.1966 214.701C84.467 214.756 84.6411 215.021 84.5854 215.291C84.5297 215.562 84.2653 215.736 83.9948 215.68L80.0771 214.873L79.2701 218.791C79.2144 219.061 78.95 219.235 78.6796 219.18C78.4091 219.124 78.235 218.86 78.2907 218.589L79.1985 214.182ZM87.2794 226.721L79.2706 214.558L80.1058 214.008L88.1146 226.171L87.2794 226.721Z" fill="#113287"/>
<circle cx="4" cy="4" r="4" transform="matrix(-1 0 0 1 183.044 182.632)" fill="#FFB341"/>
</svg>
