<svg width="236" height="267" viewBox="0 0 236 267" fill="none" xmlns="http://www.w3.org/2000/svg">
<path d="M142.276 130.789C132.869 132.367 113.424 139.438 103.01 158.32L110.331 162.86C110.331 162.86 122.389 142.594 142.276 130.789Z" fill="#F9C8C8"/>
<path d="M142.276 242.474C132.869 240.896 113.424 233.824 103.01 214.943L110.331 210.402C110.331 210.402 122.389 230.668 142.276 242.474Z" fill="#F9C8C8"/>
<path d="M109.185 160.858C109.541 160.236 110.41 160.237 110.764 160.859C114.226 166.926 116.289 176.464 116.289 186.632C116.289 196.799 114.226 206.336 110.766 212.404C110.41 213.026 109.541 213.026 109.186 212.404C105.725 206.336 103.662 196.799 103.662 186.632C103.662 176.464 105.715 166.925 109.185 160.858Z" fill="#D6E4EF"/>
<path d="M0.116943 31.6047H235.117V57.2434L117.617 92.9809L0.116943 57.2434V31.6047Z" fill="#F3F6FF"/>
<rect x="0.116943" y="0.465088" width="235" height="56" rx="4" fill="#F3F6FF"/>
<path d="M24.3123 34.6223H20.4666V32.3879H19.2742V34.6223H15.4392V35.5999H24.3123V34.6223ZM15.8259 31.8508L16.2986 32.7961C17.9153 32.49 19.2473 31.593 19.8704 30.363C20.4988 31.5769 21.8469 32.447 23.4851 32.7424L23.9578 31.7971C21.9651 31.4963 20.5256 30.218 20.488 28.8215H23.5496V27.844H16.1804V28.8215H19.2312C19.199 30.218 17.7595 31.5286 15.8259 31.8508Z" fill="#113287"/>
<path d="M28.0402 28.4885V28.4456H30.049V27.4788H24.7961V28.4456H26.8371V28.4778C26.8317 29.595 25.9777 30.7766 24.4631 31.2708L25.0539 32.2053C26.1818 31.8508 27.0036 31.0774 27.444 30.1375C27.8684 30.9861 28.6525 31.6628 29.7482 31.9905L30.3068 31.0452C28.8244 30.6101 28.0349 29.5359 28.0402 28.4885ZM26.2355 33.387H31.4455V34.0745H26.2463V36.6633H32.9494V35.7288H27.4387V34.9661H32.6379V32.4417H26.2355V33.387ZM29.7805 30.0676H31.4455V32.0334H32.6379V27.0598H31.4455V29.1116H29.7805V30.0676Z" fill="#113287"/>
<path d="M43.8214 27.0598H42.6182V36.7815H43.8214V27.0598ZM36.0548 31.1956C36.0494 33.3064 37.1182 34.6331 38.5899 34.6331C40.0455 34.6331 41.1197 33.3064 41.1251 31.1956C41.1197 29.1008 40.0455 27.7688 38.5899 27.7688C37.1182 27.7688 36.0494 29.1008 36.0548 31.1956ZM37.2042 31.1956C37.2042 29.7131 37.7681 28.843 38.5899 28.843C39.4063 28.843 39.9649 29.7131 39.9649 31.1956C39.9649 32.6887 39.4063 33.5535 38.5899 33.5588C37.7681 33.5535 37.2042 32.6887 37.2042 31.1956Z" fill="#113287"/>
<path d="M47.7427 27.4788C46.3193 27.4788 45.3096 28.2683 45.315 29.4338C45.3096 30.4167 46.0508 31.1418 47.1626 31.3298V32.1624C46.3032 32.1892 45.4868 32.1946 44.7886 32.1946L44.9175 33.1506C46.561 33.156 48.8169 33.113 50.8364 32.7532L50.7398 31.8831C49.9878 31.9905 49.1768 32.0603 48.3657 32.1086V31.3245C49.4453 31.1257 50.1704 30.4006 50.1812 29.4338C50.1704 28.2683 49.1607 27.4788 47.7427 27.4788ZM46.1206 36.5667H52.8452V35.5999H47.313V33.8274H46.1206V36.5667ZM46.4321 29.4338C46.4214 28.7786 46.9692 28.3918 47.7427 28.3918C48.5215 28.3918 49.0479 28.7786 49.0532 29.4338C49.0479 30.073 48.5215 30.4705 47.7427 30.4758C46.9692 30.4705 46.4214 30.073 46.4321 29.4338ZM51.3091 34.4827H52.5015V31.1956H53.812V30.2073H52.5015V27.0706H51.3091V34.4827Z" fill="#113287"/>
<path d="M84.0115 22.0383H78.7029V22.6008H83.3259C83.3303 23.1062 83.3215 23.7126 83.1545 24.552H77.7976V25.0969H81.0144V26.1165H78.6501V26.6702H83.3523V27.4963H78.6589V29.4387H84.24V28.8762H79.3533V27.9973H84.0378V26.1165H81.6912V25.0969H84.9519V24.552H83.8489C84.0115 23.717 84.0115 23.0447 84.0115 22.5393V22.0383Z" fill="#113287"/>
<path d="M87.923 22.926V22.6975H89.672V22.1262H85.462V22.6975H87.2286V22.9172C87.2286 23.928 86.3893 24.9036 85.2511 25.2991L85.5939 25.844C86.5079 25.5276 87.233 24.842 87.5802 24.0027C87.9186 24.7629 88.6085 25.3694 89.4962 25.6594L89.839 25.1145C88.7096 24.7542 87.9186 23.8533 87.923 22.926ZM86.6222 26.7053H90.9991V27.4875H86.6398V29.4387H91.9835V28.885H87.3253V28.0149H91.6847V26.1428H86.6222V26.7053ZM89.4259 24.0334H90.9991V25.7561H91.6847V21.7131H90.9991V23.4622H89.4259V24.0334Z" fill="#113287"/>
<path d="M100.975 21.7131H100.281V29.5442H100.975V21.7131ZM94.8231 25.0442C94.8275 26.7097 95.6536 27.7644 96.8182 27.76C97.9783 27.7644 98.8177 26.7097 98.8133 25.0442C98.8177 23.3831 97.9783 22.324 96.8182 22.3196C95.6536 22.324 94.8275 23.3831 94.8231 25.0442ZM95.491 25.0442C95.491 23.7742 96.036 22.9392 96.8182 22.9348C97.6048 22.9392 98.1453 23.7742 98.1453 25.0442C98.1453 26.3142 97.6048 27.1492 96.8182 27.1448C96.036 27.1492 95.491 26.3142 95.491 25.0442Z" fill="#113287"/>
<path d="M104.562 22.9788V22.1174H103.885V22.926C103.881 24.1345 103.094 25.1804 101.925 25.6155L102.294 26.1692C103.208 25.8132 103.907 25.0969 104.241 24.1697C104.584 24.9871 105.265 25.6331 106.126 25.9495L106.504 25.4045C105.37 25.0178 104.562 24.0422 104.562 22.9788ZM102.962 28.0852C102.966 28.9949 103.946 29.509 105.555 29.509C107.159 29.509 108.13 28.9949 108.13 28.0852C108.13 27.1931 107.159 26.6702 105.555 26.6702C103.946 26.6702 102.966 27.1931 102.962 28.0852ZM103.656 28.0852C103.648 27.5535 104.377 27.2239 105.555 27.2239C106.737 27.2239 107.458 27.5535 107.462 28.0852C107.458 28.6389 106.737 28.9597 105.555 28.9641C104.377 28.9597 103.648 28.6389 103.656 28.0852ZM107.374 26.468H108.06V24.3323H109.237V23.7522H108.06V21.7131H107.374V26.468Z" fill="#113287"/>
<path d="M111.752 26.3889C111.761 28.05 112.209 29.4299 113.017 30.6077H113.685C113.092 29.7332 112.538 27.9578 112.534 26.3889C112.538 24.8245 113.092 23.0447 113.685 22.179H113.017C112.209 23.3523 111.761 24.7322 111.752 26.3889Z" fill="#113287"/>
<path d="M120.19 22.1877H114.881V22.7502H119.504V22.7942C119.509 23.4578 119.509 24.2268 119.298 25.3079H113.976V25.8879H121.13V25.3079H119.983C120.19 24.2444 120.19 23.4534 120.19 22.7942V22.1877ZM114.925 29.3508H120.427V28.7708H115.611V26.7668H114.925V29.3508Z" fill="#113287"/>
<path d="M123.952 22.1526H123.257L121.21 29.7727H121.895L123.952 22.1526Z" fill="#113287"/>
<path d="M130.482 21.7219H129.788V26.345H128.171V26.8459H129.788V27.6545H130.482V21.7219ZM123.996 25.343L124.093 25.9055C124.748 25.9055 125.499 25.9055 126.29 25.8748V27.3821H126.984V25.8396C127.701 25.7957 128.435 25.7253 129.129 25.6155L129.085 25.1145C127.411 25.321 125.451 25.3342 123.996 25.343ZM124.629 23.4006C124.625 24.2356 125.407 24.7542 126.562 24.7542C127.709 24.7542 128.492 24.2356 128.496 23.4006C128.492 22.5789 127.709 22.0383 126.562 22.0383C125.407 22.0383 124.625 22.5789 124.629 23.4006ZM125.121 29.3596H130.676V28.7795H125.815V27.0745H125.121V29.3596ZM125.288 23.4006C125.279 22.8997 125.798 22.5569 126.562 22.5657C127.305 22.5569 127.833 22.8997 127.837 23.4006C127.833 23.9104 127.305 24.24 126.562 24.2444C125.798 24.24 125.279 23.9104 125.288 23.4006Z" fill="#113287"/>
<path d="M134.016 22.1526H133.322L131.274 29.7727H131.959L134.016 22.1526Z" fill="#113287"/>
<path d="M135.176 22.2844H134.482V25.9495H135.106C136.288 25.9495 137.475 25.8748 138.798 25.5979L138.718 25.0266C137.444 25.2903 136.293 25.3606 135.176 25.3606V22.2844ZM135.352 29.3596H140.494V28.7795H136.038V26.8108H135.352V29.3596ZM139.527 27.3645H140.213V24.6399H141.39V24.0422H140.213V21.7219H139.527V27.3645Z" fill="#113287"/>
<path d="M144.3 23.8137V22.3899H143.614V23.8137C143.606 25.2947 142.643 26.7888 141.479 27.3206L141.918 27.9006C142.832 27.4392 143.601 26.4504 143.961 25.2727C144.335 26.3845 145.104 27.3118 145.996 27.7424L146.418 27.1975C145.267 26.6746 144.295 25.2419 144.3 23.8137ZM147.271 29.5442H147.965V21.7131H147.271V29.5442Z" fill="#113287"/>
<path d="M150.892 26.3889C150.883 24.7322 150.435 23.3523 149.626 22.179H148.958C149.552 23.0447 150.105 24.8245 150.11 26.3889C150.105 27.9578 149.552 29.7332 148.958 30.6077H149.626C150.435 29.4299 150.883 28.05 150.892 26.3889Z" fill="#113287"/>
<path d="M157.107 21.8538C155.362 21.8538 154.338 22.3328 154.338 23.1985C154.338 24.0862 155.362 24.5652 157.107 24.5696C158.842 24.5652 159.862 24.0862 159.866 23.1985C159.862 22.3328 158.842 21.8538 157.107 21.8538ZM153.547 25.6594H160.666V25.0969H153.547V25.6594ZM154.408 26.8635H159.075V27.5754H154.426V29.4387H159.989V28.8938H155.111V28.0852H159.752V26.3362H154.408V26.8635ZM155.059 23.1985C155.05 22.6843 155.81 22.3767 157.107 22.3723C158.403 22.3767 159.159 22.6843 159.163 23.1985C159.159 23.7434 158.403 24.0422 157.107 24.0422C155.81 24.0422 155.05 23.7434 155.059 23.1985Z" fill="#113287"/>
<path d="M169.14 22.5042H163.611V23.0754H168.463V23.3743C168.458 24.3499 168.458 25.3782 168.182 26.7581L168.858 26.8372C169.135 25.3826 169.135 24.3762 169.14 23.3743V22.5042ZM162.864 28.4192H169.983V27.8479H167.259V25.2727H166.582V27.8479H165.316V25.2727H164.631V27.8479H162.864V28.4192Z" fill="#113287"/>
<path d="M176.76 21.7131H176.066V23.7522H174.492V24.3235H176.066V26.3713H176.76V21.7131ZM170.318 25.7473L170.678 26.301C171.61 25.9451 172.335 25.2156 172.669 24.3015C173.007 25.1057 173.688 25.7649 174.563 26.0813L174.923 25.5276C173.78 25.1365 172.998 24.1653 172.998 23.1458V22.8645H174.747V22.2844H170.537V22.8645H172.304V23.1545C172.304 24.2708 171.478 25.3298 170.318 25.7473ZM171.548 28.0676C171.544 28.9905 172.541 29.5178 174.167 29.5266C175.789 29.5178 176.786 28.9905 176.786 28.0676C176.786 27.1492 175.789 26.613 174.167 26.6174C172.541 26.613 171.544 27.1492 171.548 28.0676ZM172.234 28.0676C172.229 27.4963 172.968 27.1536 174.167 27.1536C175.363 27.1536 176.101 27.4963 176.101 28.0676C176.101 28.6345 175.363 28.9773 174.167 28.9729C172.968 28.9773 172.229 28.6345 172.234 28.0676Z" fill="#113287"/>
<path d="M183.809 21.7219H183.124V27.5754H183.809V24.8772H184.987V24.2971H183.809V21.7219ZM177.718 23.2424H182.377V22.6799H180.39V21.7219H179.705V22.6799H177.718V23.2424ZM178.167 25.1321C178.162 26.011 178.918 26.5779 180.047 26.5735C181.164 26.5779 181.92 26.011 181.928 25.1321C181.92 24.2444 181.164 23.6731 180.047 23.6731C178.918 23.6731 178.162 24.2444 178.167 25.1321ZM178.826 25.1321C178.821 24.574 179.309 24.2136 180.047 24.218C180.777 24.2136 181.269 24.574 181.278 25.1321C181.269 25.6814 180.777 26.0374 180.047 26.0286C179.309 26.0374 178.821 25.6814 178.826 25.1321ZM178.922 29.3596H184.17V28.7795H179.599V27.1096H178.922V29.3596Z" fill="#113287"/>
<path d="M189.628 22.9788V22.1174H188.951V22.926C188.947 24.1345 188.16 25.1804 186.992 25.6155L187.361 26.1692C188.275 25.8132 188.973 25.0969 189.307 24.1697C189.65 24.9871 190.331 25.6331 191.193 25.9495L191.571 25.4045C190.437 25.0178 189.628 24.0422 189.628 22.9788ZM188.029 28.0852C188.033 28.9949 189.013 29.509 190.621 29.509C192.225 29.509 193.197 28.9949 193.197 28.0852C193.197 27.1931 192.225 26.6702 190.621 26.6702C189.013 26.6702 188.033 27.1931 188.029 28.0852ZM188.723 28.0852C188.714 27.5535 189.444 27.2239 190.621 27.2239C191.804 27.2239 192.524 27.5535 192.529 28.0852C192.524 28.6389 191.804 28.9597 190.621 28.9641C189.444 28.9597 188.714 28.6389 188.723 28.0852ZM192.441 26.468H193.126V24.3323H194.304V23.7522H193.126V21.7131H192.441V26.468Z" fill="#113287"/>
<path d="M197.846 22.6184H194.753V27.593H195.254C196.537 27.5974 197.288 27.5579 198.207 27.3821L198.145 26.8108C197.293 26.9646 196.572 26.9998 195.412 27.0042V25.2375H197.732V24.6838H195.412V23.1809H197.846V22.6184ZM198.725 29.1311H199.393V25.4309H200.465V29.5266H201.133V21.7131H200.465V24.8596H199.393V21.8801H198.725V29.1311Z" fill="#113287"/>
<path d="M209.009 27.9797H205.748V26.5032H208.288V25.9319H203.437V24.6575H208.104V22.2932H202.733V22.8645H207.427V24.095H202.751V26.5032H205.071V27.9797H201.855V28.5598H209.009V27.9797Z" fill="#113287"/>
<path d="M83.8445 33.7131H83.1589V41.5266H83.8445V37.4749H85.1101V36.8948H83.8445V33.7131ZM77.8503 39.4963L78.2371 40.0413C80.7815 38.7844 81.8186 36.7673 81.823 34.5569H78.2107V35.137H81.1243C80.9661 36.9871 79.8674 38.4944 77.8503 39.4963Z" fill="#113287"/>
<path d="M91.6935 33.7131H90.9991V35.7522H89.4259V36.3235H90.9991V38.3713H91.6935V33.7131ZM85.2511 37.7473L85.6114 38.301C86.5431 37.9451 87.2682 37.2156 87.6022 36.3015C87.9405 37.1057 88.6217 37.7649 89.4962 38.0813L89.8566 37.5276C88.714 37.1365 87.9317 36.1653 87.9317 35.1458V34.8645H89.6808V34.2844H85.4708V34.8645H87.2374V35.1545C87.2374 36.2708 86.4112 37.3298 85.2511 37.7473ZM86.4816 40.0676C86.4772 40.9905 87.4747 41.5178 89.1007 41.5266C90.7223 41.5178 91.7198 40.9905 91.7198 40.0676C91.7198 39.1492 90.7223 38.613 89.1007 38.6174C87.4747 38.613 86.4772 39.1492 86.4816 40.0676ZM87.1671 40.0676C87.1627 39.4963 87.901 39.1536 89.1007 39.1536C90.296 39.1536 91.0343 39.4963 91.0343 40.0676C91.0343 40.6345 90.296 40.9773 89.1007 40.9729C87.901 40.9773 87.1627 40.6345 87.1671 40.0676Z" fill="#113287"/>
<path d="M98.6811 33.7131H97.9956V41.5266H98.6811V37.51H99.9907V36.9387H98.6811V33.7131ZM92.5903 35.5413H97.2397V34.97H95.2885V33.8098H94.603V34.97H92.5903V35.5413ZM93.0385 37.9846C93.0342 39.0437 93.8427 39.7776 94.9546 39.7776C96.0576 39.7776 96.8618 39.0437 96.8706 37.9846C96.8618 36.9299 96.0576 36.1917 94.9546 36.1917C93.8427 36.1917 93.0342 36.9299 93.0385 37.9846ZM93.6977 37.9846C93.6933 37.2771 94.2251 36.7673 94.9546 36.7717C95.6753 36.7673 96.2026 37.2771 96.2114 37.9846C96.2026 38.6965 95.6753 39.1975 94.9546 39.1887C94.2251 39.1975 93.6933 38.6965 93.6977 37.9846Z" fill="#113287"/>
<path d="M106.319 34.5042H100.808V35.0754H105.625V35.2864C105.62 36.2224 105.62 37.3167 105.326 38.8108L106.029 38.8899C106.31 37.3167 106.31 36.2444 106.319 35.2864V34.5042ZM100.053 40.4192H107.172V39.8479H103.524V37.053H102.847V39.8479H100.053V40.4192Z" fill="#113287"/>
<path d="M113.325 34.3987H109.739V38.0198H113.325V36.4641H115.153V39.426H115.847V33.7219H115.153V35.9016H113.325V34.3987ZM110.424 37.4661V34.97H112.648V37.4661H110.424ZM110.829 41.3596H116.067V40.7795H111.523V38.8987H110.829V41.3596Z" fill="#113287"/>
<path d="M124.901 34.0999H119.539V34.6536H124.215C124.215 35.2249 124.215 35.8665 124.013 36.7717L124.69 36.8508C124.896 35.9236 124.896 35.238 124.901 34.6448V34.0999ZM118.696 37.9407H125.806V37.387H122.317V35.8049H121.64V37.387H118.696V37.9407ZM119.205 40.9553L119.46 41.4915C120.651 41.2981 121.741 40.7356 122.216 39.8831C122.69 40.7356 123.78 41.2981 124.971 41.4915L125.235 40.9553C123.811 40.7444 122.567 39.9622 122.563 38.925V38.5647H121.868V38.925C121.864 39.9622 120.62 40.7444 119.205 40.9553Z" fill="#113287"/>
<path d="M129.665 33.8538C127.92 33.8538 126.896 34.3328 126.896 35.1985C126.896 36.0862 127.92 36.5652 129.665 36.5696C131.401 36.5652 132.42 36.0862 132.424 35.1985C132.42 34.3328 131.401 33.8538 129.665 33.8538ZM126.105 37.6594H133.224V37.0969H126.105V37.6594ZM126.966 38.8635H131.633V39.5754H126.984V41.4387H132.547V40.8938H127.67V40.0852H132.31V38.3362H126.966V38.8635ZM127.617 35.1985C127.608 34.6843 128.368 34.3767 129.665 34.3723C130.961 34.3767 131.717 34.6843 131.721 35.1985C131.717 35.7434 130.961 36.0422 129.665 36.0422C128.368 36.0422 127.608 35.7434 127.617 35.1985Z" fill="#113287"/>
<path d="M137.057 33.845H136.371V36.4114H138.63V37.1848H135.422V37.7473H142.541V37.1848H139.307V36.4114H141.61V33.845H140.924V34.592H137.057V33.845ZM136.284 38.925H140.951V39.6194H136.301V41.4387H141.865V40.8938H136.987V40.1292H141.627V38.3977H136.284V38.925ZM137.057 35.8752V35.1194H140.924V35.8752H137.057Z" fill="#113287"/>
<path d="M149.916 33.8889H149.274V41.1399H149.916V37.4836H150.865V41.5266H151.524V33.7131H150.865V36.9124H149.916V33.8889ZM144.977 39.4875H145.284C145.618 39.4919 146.128 39.4832 146.787 39.3381L146.726 38.7493C146.299 38.8547 145.913 38.8899 145.618 38.9031V35.2776H146.673V34.7063H144.977V39.4875ZM147.016 39.4875H147.332C147.785 39.4919 148.325 39.4832 148.976 39.3118L148.914 38.7229C148.444 38.8591 148.009 38.8943 147.64 38.9031V35.2776H148.747V34.7063H147.016V39.4875Z" fill="#113287"/>
<path d="M154.54 38.3889C154.549 40.05 154.997 41.4299 155.805 42.6077H156.473C155.88 41.7332 155.326 39.9578 155.322 38.3889C155.326 36.8245 155.88 35.0447 156.473 34.179H155.805C154.997 35.3523 154.549 36.7322 154.54 38.3889Z" fill="#113287"/>
<path d="M163.918 39.9446H160.684V38.0461H159.989V39.9446H156.764V40.5247H163.918V39.9446ZM157.115 37.7649L157.405 38.3186C158.579 38.0769 159.836 37.2991 160.337 36.2048C160.838 37.2859 162.099 38.0461 163.294 38.2834L163.575 37.7385C162.226 37.5188 160.688 36.4465 160.684 35.1985V35.0051H163.303V34.425H157.353V35.0051H159.972V35.1985C159.972 36.4465 158.438 37.5408 157.115 37.7649Z" fill="#113287"/>
<path d="M166.889 34.926V34.6975H168.638V34.1262H164.428V34.6975H166.195V34.9172C166.195 35.928 165.355 36.9036 164.217 37.2991L164.56 37.844C165.474 37.5276 166.199 36.842 166.546 36.0027C166.885 36.7629 167.575 37.3694 168.462 37.6594L168.805 37.1145C167.676 36.7542 166.885 35.8533 166.889 34.926ZM165.588 38.7053H169.965V39.4875H165.606V41.4387H170.95V40.885H166.292V40.0149H170.651V38.1428H165.588V38.7053ZM168.392 36.0334H169.965V37.7561H170.651V33.7131H169.965V35.4622H168.392V36.0334Z" fill="#113287"/>
<path d="M179.608 33.7219H178.922V39.4612H179.608V36.6663H180.785V36.0862H179.608V33.7219ZM173.833 38.1428H177.472V34.2844H176.786V35.6028H174.51V34.2844H173.833V38.1428ZM174.51 37.5803V36.1477H176.786V37.5803H174.51ZM174.721 41.3596H179.968V40.7795H175.398V38.8987H174.721V41.3596Z" fill="#113287"/>
<path d="M188.037 37.5188H180.918V38.0813H188.037V37.5188ZM181.709 35.4006C181.709 36.3323 182.776 36.8816 184.477 36.8772C186.169 36.8816 187.233 36.3323 187.237 35.4006C187.233 34.4734 186.169 33.9153 184.477 33.9153C182.776 33.9153 181.709 34.4734 181.709 35.4006ZM181.779 40.1292C181.774 41.0344 182.781 41.531 184.477 41.5266C186.151 41.531 187.158 41.0344 187.167 40.1292C187.158 39.2371 186.151 38.7405 184.477 38.7493C182.781 38.7405 181.774 39.2371 181.779 40.1292ZM182.42 35.4006C182.416 34.8162 183.212 34.469 184.477 34.4778C185.73 34.469 186.529 34.8162 186.534 35.4006C186.529 35.9851 185.73 36.3323 184.477 36.3323C183.212 36.3323 182.416 35.9851 182.42 35.4006ZM182.482 40.1292C182.473 39.5842 183.225 39.2722 184.477 39.2766C185.716 39.2722 186.468 39.5842 186.472 40.1292C186.468 40.6697 185.716 40.9817 184.477 40.9729C183.225 40.9817 182.473 40.6697 182.482 40.1292Z" fill="#113287"/>
<path d="M194.778 33.7131H194.084V41.5442H194.778V33.7131ZM188.626 37.0442C188.63 38.7097 189.456 39.7644 190.621 39.76C191.781 39.7644 192.621 38.7097 192.616 37.0442C192.621 35.3831 191.781 34.324 190.621 34.3196C189.456 34.324 188.63 35.3831 188.626 37.0442ZM189.294 37.0442C189.294 35.7742 189.839 34.9392 190.621 34.9348C191.408 34.9392 191.948 35.7742 191.948 37.0442C191.948 38.3142 191.408 39.1492 190.621 39.1448C189.839 39.1492 189.294 38.3142 189.294 37.0442Z" fill="#113287"/>
<path d="M199.209 38.301H198.558V41.4211H201.274V38.301H200.632V39.2766H199.209V38.301ZM197.776 35.8577C197.772 36.9299 198.615 37.6594 199.806 37.6594C200.865 37.6594 201.67 37.053 201.806 36.1301H203.436V37.8528H204.131V33.7131H203.436V35.5588H201.801C201.652 34.658 200.857 34.0647 199.806 34.0647C198.615 34.0647 197.772 34.7898 197.776 35.8577ZM198.435 35.8577C198.435 35.1458 199.002 34.6448 199.806 34.6448C200.593 34.6448 201.16 35.1458 201.16 35.8577C201.16 36.574 200.593 37.0837 199.806 37.0881C199.002 37.0837 198.435 36.574 198.435 35.8577ZM199.209 40.8762V39.804H200.632V40.8762H199.209ZM201.38 40.9553L201.74 41.4827C202.43 41.1882 202.909 40.6345 203.155 39.9973C203.397 40.6433 203.867 41.197 204.588 41.4827L204.948 40.9553C203.994 40.6038 203.498 39.738 203.507 38.9163V38.2483H202.821V38.9163C202.817 39.7073 202.32 40.5642 201.38 40.9553Z" fill="#113287"/>
<path d="M208.631 33.8889C206.93 33.8889 205.862 34.4382 205.862 35.3743C205.862 36.2971 206.93 36.8376 208.631 36.8333C210.332 36.8376 211.386 36.2971 211.391 35.3743C211.386 34.4382 210.332 33.8889 208.631 33.8889ZM205.071 38.0813H212.19V37.51H205.071V38.0813ZM205.941 41.4211H211.32V38.8547H205.941V41.4211ZM206.574 35.3743C206.57 34.7898 207.365 34.4426 208.631 34.4426C209.883 34.4426 210.683 34.7898 210.688 35.3743C210.683 35.9412 209.883 36.2839 208.631 36.2883C207.365 36.2839 206.57 35.9412 206.574 35.3743ZM206.627 40.8586V39.4084H210.644V40.8586H206.627Z" fill="#113287"/>
<path d="M214.441 38.3889C214.432 36.7322 213.984 35.3523 213.175 34.179H212.507C213.1 35.0447 213.654 36.8245 213.659 38.3889C213.654 39.9578 213.1 41.7332 212.507 42.6077H213.175C213.984 41.4299 214.432 40.05 214.441 38.3889Z" fill="#113287"/>
<path d="M11.7576 246.479H8.46851V249.369H11.7576V248.189H13.2498V249.682H13.9841V246.119H13.2498V247.596H11.7576V246.479ZM9.20288 248.775V247.064H11.0232V248.775H9.20288ZM9.40601 250.604H13.2498V251.213H9.42163V253.033H14.2341V252.439H10.1638V251.768H13.9841V250.025H9.40601V250.604Z" fill="#979797"/>
<path d="M20.8826 246.119H20.1404V253.135H20.8826V246.119ZM15.4607 247.354H17.9841V248.713H15.4685V251.455H16.0623C17.3005 251.451 18.3552 251.404 19.5935 251.197L19.5232 250.588C18.3513 250.779 17.363 250.834 16.2263 250.838V249.307H18.7419V246.752H15.4607V247.354Z" fill="#979797"/>
<path d="M24.4138 250.744V250.408H23.6951V250.744C23.6912 251.42 23.2029 252.15 22.3044 252.471L22.6794 253.018C23.3396 252.775 23.8005 252.311 24.0544 251.76C24.2693 252.33 24.6951 252.826 25.3669 253.08C26.0076 252.814 26.4255 252.303 26.6482 251.74C26.8904 252.311 27.363 252.779 28.0544 253.018L28.4216 252.471C27.5076 252.174 27.0271 251.471 27.031 250.744V250.408H26.3044V250.744C26.3044 251.283 25.988 251.951 25.3474 252.361C24.7107 251.982 24.4138 251.346 24.4138 250.744ZM22.1248 248.166C22.1287 249.135 22.9177 249.807 23.9919 249.807C25.0623 249.807 25.8513 249.135 25.8513 248.166C25.8513 247.186 25.0623 246.514 23.9919 246.51C22.9177 246.514 22.1287 247.186 22.1248 248.166ZM22.8513 248.166C22.8474 247.553 23.3279 247.139 23.9919 247.143C24.6482 247.139 25.1248 247.553 25.1248 248.166C25.1248 248.775 24.6482 249.189 23.9919 249.189C23.3279 249.189 22.8474 248.775 22.8513 248.166ZM27.0466 250.111H27.7888V246.127H27.0466V250.111Z" fill="#979797"/>
<path d="M34.5623 248.166H30.4763V246.369H29.7419V248.76H34.5623V248.166ZM28.8904 250.236H35.2966V249.643H28.8904V250.236ZM29.6873 252.955H34.6091V252.346H30.4294V250.9H29.6873V252.955Z" fill="#979797"/>
<path d="M40.1951 247.9V246.705H39.4529V247.9C39.449 249.182 38.7224 250.525 37.6482 251.041L38.1091 251.643C38.906 251.229 39.5193 250.389 39.8318 249.396C40.1404 250.33 40.7302 251.111 41.4919 251.51L41.9529 250.916C40.9099 250.408 40.1873 249.139 40.1951 247.9ZM42.4763 253.119H43.2185V249.541H44.3435V248.908H43.2185V246.119H42.4763V253.119Z" fill="#979797"/>
<path d="M51.0623 249.018H44.6794V249.611H47.4919V250.221H45.4451V250.791H49.5232V251.322H45.4529V253.049H50.4529V252.479H46.1794V251.861H50.2576V250.221H48.2341V249.611H51.0623V249.018ZM45.4998 248.502H50.2419V246.346H45.4998V248.502ZM46.2263 247.916V246.932H49.4998V247.916H46.2263Z" fill="#979797"/>
<path d="M13.7263 262.299C13.7341 263.775 14.1521 264.998 14.8826 266.049H15.6482C15.1091 265.271 14.5935 263.697 14.5935 262.299C14.5935 260.904 15.1091 259.33 15.6482 258.557H14.8826C14.1521 259.604 13.7341 260.826 13.7263 262.299Z" fill="#979797"/>
<path d="M18.3279 264.533C19.5076 264.533 20.3435 263.732 20.3435 262.619C20.3435 261.529 19.5583 260.74 18.4919 260.736C18.0623 260.74 17.6638 260.893 17.4294 261.119H17.3748L17.5623 259.533H20.0544V258.799H16.8513L16.4841 261.947H17.2966C17.488 261.6 17.8357 261.447 18.2888 261.447C18.9998 261.455 19.5076 261.955 19.5076 262.643C19.5076 263.314 19.0154 263.811 18.3279 263.814C17.7576 263.811 17.2966 263.459 17.2498 262.979H16.4138C16.4529 263.881 17.2576 264.533 18.3279 264.533Z" fill="#979797"/>
<path d="M21.2654 264.455H22.1013V261.838C22.1013 261.268 22.4998 260.877 22.9685 260.877C23.4255 260.877 23.7419 261.178 23.7419 261.643V264.455H24.5701V261.752C24.5701 261.244 24.8787 260.877 25.4138 260.877C25.8513 260.877 26.2107 261.115 26.2107 261.689V264.455H27.0466V261.611C27.0427 260.639 26.4998 260.158 25.7341 260.158C25.1208 260.158 24.6599 260.451 24.4607 260.908H24.4138C24.2341 260.436 23.8396 260.158 23.2732 260.158C22.7146 260.158 22.2966 260.436 22.1169 260.908H22.0701V260.213H21.2654V264.455Z" fill="#979797"/>
<path d="M35.5544 258.119H34.8123V265.135H35.5544V258.119ZM29.9998 261.096C29.9998 262.607 30.7537 263.561 31.8123 263.557C32.8513 263.561 33.6169 262.607 33.6169 261.096C33.6169 259.6 32.8513 258.646 31.8123 258.643C30.7537 258.646 29.9998 259.6 29.9998 261.096ZM30.7185 261.096C30.7146 259.998 31.1599 259.311 31.8123 259.307C32.4529 259.311 32.8982 259.998 32.8982 261.096C32.8982 262.209 32.4529 262.893 31.8123 262.893C31.1599 262.893 30.7146 262.209 30.7185 261.096Z" fill="#979797"/>
<path d="M39.0857 259.236V258.486H38.3513V259.174C38.3435 260.221 37.7107 261.154 36.6169 261.541L37.0154 262.135C37.8318 261.834 38.4255 261.217 38.7302 260.432C39.0349 261.123 39.6091 261.67 40.3748 261.939L40.7732 261.354C39.7302 261.01 39.0818 260.154 39.0857 259.236ZM37.5623 263.807C37.5623 264.635 38.4568 265.107 39.9138 265.104C41.3513 265.107 42.2341 264.635 42.2341 263.807C42.2341 262.986 41.3513 262.506 39.9138 262.51C38.4568 262.506 37.5623 262.986 37.5623 263.807ZM38.3044 263.807C38.3005 263.361 38.9021 263.096 39.9138 263.096C40.9177 263.096 41.5115 263.361 41.5076 263.807C41.5115 264.268 40.9177 264.518 39.9138 264.525C38.9021 264.518 38.3005 264.268 38.3044 263.807ZM41.4294 262.346H42.1716V260.502H43.1873V259.877H42.1716V258.119H41.4294V262.346Z" fill="#979797"/>
<path d="M45.5076 262.299C45.4998 260.826 45.0818 259.604 44.3513 258.557H43.5857C44.1248 259.33 44.6404 260.904 44.6404 262.299C44.6404 263.697 44.1248 265.271 43.5857 266.049H44.3513C45.0818 264.998 45.4998 263.775 45.5076 262.299Z" fill="#979797"/>
<path fill-rule="evenodd" clip-rule="evenodd" d="M29.6169 215.119L29.6169 214.077L28.6169 214.077L28.6169 215.119L29.6169 215.119ZM29.6169 219.286L29.6169 217.202L28.6169 217.202L28.6169 219.286L29.6169 219.286ZM29.6169 223.452L29.6169 221.369L28.6169 221.369L28.6169 223.452L29.6169 223.452ZM29.6169 227.619L29.6169 225.536L28.6169 225.536L28.6169 227.619L29.6169 227.619ZM29.6168 231.786L29.6169 229.702L28.6169 229.702L28.6168 231.786L29.6168 231.786ZM29.6168 235.952L29.6168 233.869L28.6168 233.869L28.6168 235.952L29.6168 235.952ZM29.6168 239.077L29.6168 238.036L28.6168 238.036L28.6168 239.077L29.6168 239.077Z" fill="#979797"/>
<path fill-rule="evenodd" clip-rule="evenodd" d="M130.438 133.795C142.116 128.966 155.059 128.12 167.269 131.389C179.48 134.641 190.258 141.827 197.955 151.817C205.651 161.808 209.816 174.039 209.816 186.635C209.816 199.231 205.651 211.462 197.955 221.453C190.258 231.443 179.48 238.612 167.27 241.881L167.269 241.881C155.059 245.134 142.116 244.304 130.438 239.475C118.761 234.646 109.016 226.149 102.685 215.229C102.581 215.05 102.642 214.821 102.822 214.717C103.001 214.613 103.23 214.674 103.334 214.853C109.581 225.63 119.199 234.015 130.725 238.782C142.249 243.548 155.024 244.367 167.076 241.156C167.076 241.156 167.076 241.156 167.076 241.156L167.173 241.519L167.076 241.156C167.076 241.156 167.076 241.156 167.076 241.156C179.128 237.93 189.765 230.854 197.36 220.995C204.956 211.136 209.066 199.065 209.066 186.635C209.066 174.204 204.956 162.134 197.36 152.275C189.765 142.415 179.128 135.324 167.076 132.114L167.076 132.113C155.025 128.887 142.25 129.722 130.725 134.488C119.199 139.254 109.581 147.657 103.334 158.417C103.23 158.596 103 158.657 102.821 158.553C102.642 158.449 102.581 158.219 102.685 158.04C109.016 147.137 118.761 138.624 130.438 133.795Z" fill="#113287"/>
<path d="M210.508 106.755H207.234V109.802H210.508V106.755ZM207.851 111.888C207.851 112.736 208.758 113.228 210.203 113.232C211.633 113.228 212.523 112.736 212.523 111.888C212.523 111.06 211.633 110.56 210.203 110.56C208.758 110.56 207.851 111.06 207.851 111.888ZM207.961 109.2V107.349H209.781V109.2H207.961ZM208.594 111.888C208.59 111.423 209.191 111.157 210.203 111.154C211.207 111.157 211.801 111.423 211.797 111.888C211.801 112.372 211.207 112.63 210.203 112.638C209.191 112.63 208.59 112.372 208.594 111.888ZM211.719 110.341H212.461V108.536H213.476V107.927H212.461V106.232H211.719V110.341Z" fill="#979797"/>
<path d="M217.422 106.747H214.148V109.896H217.422V106.747ZM214.75 111.325H218.633V113.24H219.375V110.732H214.75V111.325ZM214.875 109.302V107.333H216.695V109.302H214.875ZM218.633 110.38H219.375V108.622H220.39V108.005H219.375V106.232H218.633V110.38Z" fill="#979797"/>
<path d="M90.5964 106.849V106.466H89.823V106.849C89.8191 107.79 88.6863 108.649 87.3152 108.833L87.6121 109.442C88.7488 109.259 89.7527 108.665 90.2097 107.841C90.6667 108.665 91.6707 109.259 92.8152 109.442L93.1042 108.833C91.7292 108.649 90.5925 107.778 90.5964 106.849ZM87.0105 110.739H89.823V113.231H90.5496V110.739H93.3933V110.13H87.0105V110.739Z" fill="#979797"/>
<path d="M99.7605 106.231H99.0183V108.013H97.7136V108.622H99.0183V110.396H99.7605V106.231ZM93.9246 109.763L94.3152 110.356C95.1511 110.048 95.7644 109.419 96.0691 108.638C96.3738 109.329 96.9519 109.892 97.7371 110.161L98.1199 109.575C97.0613 109.216 96.4285 108.353 96.4324 107.466V107.317H97.9324V106.716H94.1589V107.317H95.6746V107.474C95.6785 108.438 95.0105 109.384 93.9246 109.763ZM95.0496 111.911C95.0457 112.743 95.9441 113.228 97.4167 113.231C98.8816 113.228 99.78 112.743 99.7839 111.911C99.78 111.079 98.8816 110.595 97.4167 110.591C95.9441 110.595 95.0457 111.079 95.0496 111.911ZM95.7839 111.911C95.78 111.435 96.3894 111.165 97.4167 111.169C98.4363 111.165 99.0457 111.435 99.0496 111.911C99.0457 112.384 98.4363 112.653 97.4167 112.646C96.3894 112.653 95.78 112.384 95.7839 111.911Z" fill="#979797"/>
<path d="M102.932 108.38V108.099H104.175V107.489H102.932V106.481H102.237V107.489H100.971V108.099H102.237V108.38C102.229 109.509 101.729 110.708 100.76 111.271L101.198 111.833C101.874 111.427 102.343 110.696 102.593 109.849C102.846 110.642 103.315 111.31 103.995 111.669L104.409 111.122C103.444 110.603 102.932 109.481 102.932 108.38ZM103.714 109.575H104.721V112.88H105.425V106.38H104.721V108.958H103.714V109.575ZM106.135 113.231H106.846V106.231H106.135V113.231Z" fill="#979797"/>
<path fill-rule="evenodd" clip-rule="evenodd" d="M128.031 129.63C140.593 124.421 154.518 123.507 167.654 127.034C180.79 130.544 192.385 138.296 200.664 149.074C208.944 159.852 213.424 173.047 213.424 186.636C213.424 200.225 208.944 213.42 200.664 224.199C192.385 234.977 180.79 242.711 167.654 246.238L167.654 246.238C154.518 249.747 140.594 248.852 128.031 243.642C115.469 238.432 104.985 229.266 98.1752 217.485C98.0715 217.305 98.1328 217.076 98.3121 216.972C98.4915 216.869 98.7208 216.93 98.8245 217.109C105.552 228.747 115.908 237.802 128.318 242.949C140.728 248.096 154.483 248.98 167.46 245.514C180.437 242.029 191.891 234.389 200.069 223.742C208.248 213.095 212.674 200.06 212.674 186.636C212.674 173.212 208.248 160.178 200.069 149.531C191.89 138.883 180.436 131.225 167.46 127.759L167.46 127.759C154.483 124.275 140.728 125.177 128.318 130.323C115.908 135.47 105.552 144.543 98.8244 156.163C98.7206 156.343 98.4912 156.404 98.3119 156.3C98.1327 156.196 98.0715 155.967 98.1753 155.788C104.985 144.025 115.469 134.84 128.031 129.63Z" fill="#113287"/>
<path fill-rule="evenodd" clip-rule="evenodd" d="M96.0961 157.548C96.2187 157.715 96.1827 157.95 96.0157 158.072C87.7393 164.149 82.6394 175.17 82.6394 187.084C82.6394 199.013 87.7392 210.018 96.0157 216.095C96.1827 216.218 96.2187 216.452 96.0961 216.619C95.9735 216.786 95.7388 216.822 95.5719 216.7C87.0714 210.459 81.8894 199.21 81.8894 187.084C81.8894 174.974 87.0713 163.709 95.5719 157.468C95.7388 157.345 95.9735 157.381 96.0961 157.548Z" fill="#113287"/>
<path fill-rule="evenodd" clip-rule="evenodd" d="M96.6238 116.853V117.83H97.6238V116.853H96.6238ZM96.6238 119.786V121.741H97.6238V119.786H96.6238ZM96.6238 123.696V125.651H97.6238V123.696H96.6238ZM96.6238 127.607V129.562H97.6238V127.607H96.6238ZM96.6238 131.517V133.473H97.6238V131.517H96.6238ZM96.6238 135.428V137.383H97.6238V135.428H96.6238ZM96.6238 139.339V141.294H97.6238V139.339H96.6238ZM96.6238 143.249V145.205H97.6238V143.249H96.6238ZM96.6238 147.16V149.115H97.6238V147.16H96.6238ZM96.6238 151.071V153.026H97.6238V151.071H96.6238ZM96.6238 154.981V156.937H97.6238V154.981H96.6238ZM96.6238 158.892V160.847H97.6238V158.892H96.6238ZM96.6238 162.802V164.758H97.6238V162.802H96.6238ZM96.6238 166.713V168.191H98.1404V167.191H97.6238V166.713H96.6238ZM108.306 168.191H109.323V167.191H108.306V168.191ZM104.24 168.191H106.273V167.191H104.24V168.191ZM100.174 168.191H102.207V167.191H100.174V168.191Z" fill="#979797"/>
<path fill-rule="evenodd" clip-rule="evenodd" d="M214.744 116.854V117.854H213.744V116.854H214.744ZM214.744 119.855V121.856H213.744V119.855H214.744ZM214.744 123.856V125.857H213.744V123.856H214.744ZM214.744 127.858V129.858H213.744V127.858H214.744ZM214.744 131.859V133.86H213.744V131.859H214.744ZM214.744 135.86V137.861H213.744V135.86H214.744ZM214.744 139.862V141.862H213.744V139.862H214.744ZM214.744 143.863V145.864H213.744V143.863H214.744ZM214.744 147.865V149.865H213.744V147.865H214.744ZM214.744 151.866V153.867H213.744V151.866H214.744ZM214.744 155.867V157.368H212.933V156.368H213.744V155.867H214.744ZM210.31 157.368H208.999V156.368H210.31V157.368Z" fill="#979797"/>
<path fill-rule="evenodd" clip-rule="evenodd" d="M86.5406 169.771H60.6172V171.021H86.4584L209.358 187.251L209.522 186.011L86.5406 169.771Z" fill="#9FABDB"/>
<path fill-rule="evenodd" clip-rule="evenodd" d="M86.5406 203.492H60.6172V202.242H86.4584L209.358 186.012L209.522 187.252L86.5406 203.492Z" fill="#9FABDB"/>
<path fill-rule="evenodd" clip-rule="evenodd" d="M71.8887 170.396L69.3907 171.64L69.9482 172.759L74.6917 170.396L69.9482 168.033L69.3907 169.151L71.8887 170.396Z" fill="#9FABDB"/>
<path fill-rule="evenodd" clip-rule="evenodd" d="M71.8887 202.867L69.3907 201.623L69.9482 200.504L74.6917 202.867L69.9482 205.23L69.3907 204.112L71.8887 202.867Z" fill="#9FABDB"/>
<path d="M205.049 186.632C205.049 188.841 206.839 190.632 209.049 190.632C211.258 190.632 213.049 188.841 213.049 186.632C213.049 184.423 211.258 182.632 209.049 182.632C206.839 182.632 205.049 184.423 205.049 186.632Z" fill="#FFB241"/>
<g clip-path="url(#clip0_28_280)">
<path d="M28.9311 160.583C28.8029 160.768 28.6631 160.943 28.5502 161.113C27.3385 163.186 26.1297 165.26 24.9219 167.334C24.5735 167.933 24.6644 168.224 25.3239 168.394C25.812 168.521 25.7957 168.738 25.5813 169.099C24.295 171.288 23.0087 173.477 21.7492 175.68C21.6047 175.922 21.5626 176.209 21.6315 176.481C21.8009 176.663 22.0354 176.773 22.2852 176.789C23.3571 176.985 23.3571 176.974 22.8211 177.849L17.585 186.73C17.0968 187.556 17.2203 187.79 18.1908 187.928C18.5344 187.975 18.8818 188.003 19.2302 188.044C19.9212 188.128 19.991 188.262 19.6427 188.85L16.9198 193.439C15.5426 195.734 14.1548 198.029 12.7929 200.329C12.5976 200.526 12.5603 200.829 12.7019 201.068C12.8436 201.306 13.1288 201.422 13.3987 201.352H26.7011V212.962C26.7011 213.168 26.7011 213.376 26.7337 213.582H31.5573C31.5573 213.274 31.5841 212.962 31.5899 212.654V201.346H44.7956C45.0904 201.363 45.3794 201.255 45.589 201.049C45.656 200.762 45.5995 200.461 45.434 200.217C43.1973 196.462 40.9482 192.711 38.6866 188.966C38.2789 188.287 38.3325 188.181 39.1259 188.075C39.4522 188.033 39.7853 188.012 40.1117 187.97C41.0391 187.847 41.1836 187.588 40.7118 186.798L37.2605 180.969L35.3148 177.662C34.9932 177.132 35.0526 176.931 35.6632 176.888C36.8633 176.798 37.0136 176.469 36.3542 175.378C35.1215 173.337 33.9424 171.26 32.7422 169.198C32.4263 168.668 32.4417 168.62 33.0475 168.419C33.5404 168.256 33.7012 167.985 33.4657 167.571C32.1469 165.282 30.8232 163.036 29.5101 160.783C29.4613 160.712 29.4077 160.645 29.3493 160.582H28.9311V160.583Z" fill="#113287"/>
</g>
<defs>
<clipPath id="clip0_28_280">
<rect width="33" height="53" fill="white" transform="matrix(-1 0 0 1 45.6169 160.583)"/>
</clipPath>
</defs>
</svg>
