<svg width="236" height="267" viewBox="0 0 236 267" fill="none" xmlns="http://www.w3.org/2000/svg">
<path d="M142.093 130.789C132.686 132.367 113.241 139.438 102.826 158.32L110.147 162.86C110.147 162.86 122.206 142.594 142.093 130.789Z" fill="#F9C8C8"/>
<path d="M142.093 242.474C132.686 240.896 113.241 233.824 102.826 214.943L110.147 210.402C110.147 210.402 122.206 230.668 142.093 242.474Z" fill="#F9C8C8"/>
<path d="M109.555 160.858C109.911 160.236 110.78 160.237 111.135 160.859C114.596 166.926 116.659 176.464 116.659 186.632C116.659 196.799 114.596 206.336 111.136 212.404C110.781 213.026 109.911 213.026 109.556 212.404C106.095 206.336 104.032 196.799 104.032 186.632C104.032 176.464 106.086 166.925 109.555 160.858Z" fill="#D6E4EF"/>
<path d="M0.116943 31.6047H235.117V57.2434L117.617 92.9809L0.116943 57.2434V31.6047Z" fill="#F3F6FF"/>
<rect x="0.116943" y="0.465088" width="235" height="56" rx="4" fill="#F3F6FF"/>
<path d="M24.3123 34.6223H20.4666V32.3879H19.2742V34.6223H15.4392V35.5999H24.3123V34.6223ZM15.8259 31.8508L16.2986 32.7961C17.9153 32.49 19.2473 31.593 19.8704 30.363C20.4988 31.5769 21.8469 32.447 23.4851 32.7424L23.9578 31.7971C21.9651 31.4963 20.5256 30.218 20.488 28.8215H23.5496V27.844H16.1804V28.8215H19.2312C19.199 30.218 17.7595 31.5286 15.8259 31.8508Z" fill="#113287"/>
<path d="M28.0402 28.4885V28.4456H30.049V27.4788H24.7961V28.4456H26.8371V28.4778C26.8317 29.595 25.9777 30.7766 24.4631 31.2708L25.0539 32.2053C26.1818 31.8508 27.0036 31.0774 27.444 30.1375C27.8684 30.9861 28.6525 31.6628 29.7482 31.9905L30.3068 31.0452C28.8244 30.6101 28.0349 29.5359 28.0402 28.4885ZM26.2355 33.387H31.4455V34.0745H26.2463V36.6633H32.9494V35.7288H27.4387V34.9661H32.6379V32.4417H26.2355V33.387ZM29.7805 30.0676H31.4455V32.0334H32.6379V27.0598H31.4455V29.1116H29.7805V30.0676Z" fill="#113287"/>
<path d="M39.2237 29.8206V29.0042H41.254V28.0159H35.9151V29.0042H38.0313V29.8206C38.0259 31.4373 37.086 33.2527 35.5391 33.9885L36.2374 34.9231C37.3546 34.386 38.2032 33.2473 38.6436 31.9153C39.0787 33.1292 39.8897 34.1711 40.9854 34.6868L41.6514 33.7415C40.1207 33.0271 39.2183 31.3191 39.2237 29.8206ZM42.1563 36.7708H43.3487V31.8401H44.8419V30.8411H43.3487V27.0598H42.1563V36.7708Z" fill="#113287"/>
<path d="M52.5982 27.5002H45.9058V28.4563H51.4058C51.4004 29.1223 51.3789 29.9548 51.1856 31.0559H44.8101V32.0227H53.6831V31.0559H52.3887C52.6035 29.8206 52.6035 28.9021 52.5982 28.1877V27.5002ZM45.7446 34.2034H51.4487V36.7815H52.6411V33.2581H45.7446V34.2034Z" fill="#113287"/>
<path d="M69.4558 27.7131H68.7703V35.5266H69.4558V31.4749H70.7214V30.8948H69.4558V27.7131ZM63.4617 33.4963L63.8484 34.0413C66.3928 32.7844 67.4299 30.7673 67.4343 28.5569H63.822V29.137H66.7356C66.5774 30.9871 65.4788 32.4944 63.4617 33.4963Z" fill="#113287"/>
<path d="M76.9248 27.7131H76.2304V35.5266H76.9248V31.5188H78.1113V30.9387H76.9248V27.7131ZM70.7109 33.3645L71.2646 33.76C72.684 32.2615 73.1015 30.4246 73.1103 28.5657H70.957V29.1458H72.4555C72.3676 30.7014 71.8886 32.156 70.7109 33.3645ZM72.9521 33.8918L73.5146 34.2786C74.978 32.5779 75.2504 30.4202 75.2548 28.5657H73.3564V29.1458H74.6044C74.5385 30.7761 74.1738 32.512 72.9521 33.8918Z" fill="#113287"/>
<path d="M85.2111 31.6858H78.0568V32.2571H81.3439V33.8567H82.0382V32.2571H85.2111V31.6858ZM78.8654 29.4885C78.861 30.4509 79.9552 31.0486 81.6251 31.0442C83.2951 31.0486 84.3761 30.4509 84.3761 29.4885C84.3761 28.5173 83.2951 27.9197 81.6251 27.9153C79.9552 27.9197 78.861 28.5173 78.8654 29.4885ZM78.9796 35.3596H84.4113V34.7708H79.674V33.0745H78.9796V35.3596ZM79.6037 29.4885C79.5949 28.8645 80.4079 28.4822 81.6251 28.4778C82.838 28.4822 83.6466 28.8645 83.6466 29.4885C83.6466 30.095 82.838 30.4817 81.6251 30.4817C80.4079 30.4817 79.5949 30.095 79.6037 29.4885Z" fill="#113287"/>
<path d="M89.8218 29.8137V28.3899H89.1451V29.8137C89.1363 31.2419 88.231 32.7405 87.0884 33.303L87.5279 33.8567C88.4068 33.3865 89.1451 32.3977 89.4922 31.2463C89.8394 32.3318 90.5601 33.259 91.4214 33.7073L91.8433 33.1536C90.7315 32.6086 89.8218 31.1892 89.8218 29.8137ZM92.564 35.5266H93.2496V31.4836H94.5591V30.886H93.2496V27.7131H92.564V35.5266Z" fill="#113287"/>
<path d="M101.65 31.0178H94.531V31.5803H97.739V32.3538H95.3923V32.8899H100.059V33.5842H95.4099V35.4387H100.973V34.8938H96.0955V34.1028H100.736V32.3538H98.4246V31.5803H101.65V31.0178ZM95.4539 30.3586H100.727V27.9768H95.4539V30.3586ZM96.1394 29.8049V28.5305H100.042V29.8049H96.1394Z" fill="#113287"/>
<path d="M105.419 27.8538C103.674 27.8538 102.65 28.3328 102.65 29.1985C102.65 30.0862 103.674 30.5652 105.419 30.5696C107.155 30.5652 108.174 30.0862 108.179 29.1985C108.174 28.3328 107.155 27.8538 105.419 27.8538ZM101.859 31.6594H108.978V31.0969H101.859V31.6594ZM102.721 32.8635H107.388V33.5754H102.738V35.4387H108.302V34.8938H103.424V34.0852H108.064V32.3362H102.721V32.8635ZM103.371 29.1985C103.362 28.6843 104.123 28.3767 105.419 28.3723C106.715 28.3767 107.471 28.6843 107.476 29.1985C107.471 29.7434 106.715 30.0422 105.419 30.0422C104.123 30.0422 103.362 29.7434 103.371 29.1985Z" fill="#113287"/>
<path d="M114.943 28.8206V28.7678H117.439V28.2053H111.664V28.7678H114.169V28.8206C114.165 29.8665 112.776 30.7542 111.418 30.9563L111.691 31.5012C112.89 31.2947 114.081 30.6443 114.556 29.7039C115.031 30.6443 116.222 31.2947 117.439 31.5012L117.694 30.9563C116.331 30.7542 114.938 29.8665 114.943 28.8206ZM110.996 32.7405H114.204V35.5266H114.881V32.7405H118.116V32.1692H110.996V32.7405Z" fill="#113287"/>
<path d="M121.102 29.8137V28.3899H120.417V29.8137C120.408 31.2947 119.445 32.7888 118.281 33.3206L118.72 33.9006C119.634 33.4392 120.403 32.4504 120.764 31.2727C121.137 32.3845 121.906 33.3118 122.798 33.7424L123.22 33.1975C122.069 32.6746 121.098 31.2419 121.102 29.8137ZM124.073 35.5442H124.767V27.7131H124.073V35.5442Z" fill="#113287"/>
<path d="M131.7 27.7131H131.014V35.5266H131.7V31.51H133.01V30.9387H131.7V27.7131ZM125.609 29.5413H130.259V28.97H128.307V27.8098H127.622V28.97H125.609V29.5413ZM126.057 31.9846C126.053 33.0437 126.862 33.7776 127.973 33.7776C129.076 33.7776 129.881 33.0437 129.889 31.9846C129.881 30.9299 129.076 30.1917 127.973 30.1917C126.862 30.1917 126.053 30.9299 126.057 31.9846ZM126.717 31.9846C126.712 31.2771 127.244 30.7673 127.973 30.7717C128.694 30.7673 129.221 31.2771 129.23 31.9846C129.221 32.6965 128.694 33.1975 127.973 33.1887C127.244 33.1975 126.712 32.6965 126.717 31.9846Z" fill="#113287"/>
<path d="M136.936 28.3987H133.351V32.0461H136.936V31.343H138.765V33.426H139.459V27.7219H138.765V29.093H136.936V28.3987ZM134.036 31.4924V28.97H136.26V31.4924H134.036ZM134.405 35.3596H139.635V34.7795H135.1V32.9163H134.405V35.3596ZM136.936 30.7717V29.6731H138.765V30.7717H136.936Z" fill="#113287"/>
<path d="M146.065 28.3108H142.452V31.6594H146.065V28.3108ZM143.129 34.0588C143.134 34.9817 144.127 35.5178 145.722 35.5266C147.317 35.5178 148.297 34.9817 148.297 34.0588C148.297 33.1448 147.317 32.5999 145.722 32.5999C144.127 32.5999 143.134 33.1448 143.129 34.0588ZM143.129 31.1057V28.8733H145.397V31.1057H143.129ZM143.824 34.0588C143.815 33.4963 144.544 33.1624 145.722 33.1624C146.904 33.1624 147.625 33.4963 147.629 34.0588C147.625 34.6301 146.904 34.9597 145.722 34.9641C144.544 34.9597 143.815 34.6301 143.824 34.0588ZM147.541 32.3362H148.227V30.2444H149.405V29.6731H148.227V27.7131H147.541V32.3362Z" fill="#113287"/>
<path d="M153.393 28.302H149.781V31.7561H153.393V28.302ZM150.44 33.3206H154.87V35.5442H155.555V32.7668H150.44V33.3206ZM150.458 31.1936V28.8557H152.725V31.1936H150.458ZM154.87 32.345H155.555V30.3323H156.733V29.7522H155.555V27.7131H154.87V32.345Z" fill="#113287"/>
<path d="M165.026 27.7219H164.35V35.5354H165.026V27.7219ZM158.549 31.9758L158.637 32.5647C159.313 32.5647 160.065 32.5603 160.843 32.5295V35.2893H161.528V32.4988C162.293 32.4592 163.071 32.3977 163.822 32.2922L163.787 31.7649C162.06 31.9539 160.109 31.967 158.549 31.9758ZM159.296 30.9827H163.189V30.4026H159.99V28.7239H163.084V28.1614H159.296V30.9827Z" fill="#113287"/>
<path d="M168.294 28.7151V28.5745H169.314V28.0032H166.369V28.5745H167.609V28.7502C167.609 29.2688 167.055 30.0027 166.141 30.2971L166.448 30.8069C167.217 30.5564 167.736 30.0291 167.978 29.4709C168.228 29.9763 168.729 30.4641 169.472 30.7014C170.201 30.4773 170.698 30.0027 170.953 29.4929C171.194 30.0642 171.713 30.5696 172.486 30.8069L172.803 30.2971C171.862 30.0291 171.326 29.3435 171.326 28.7502V28.5745H172.566V28.0032H169.621V28.5745H170.641V28.7151C170.636 29.1721 170.206 29.7786 169.472 30.095C168.729 29.7654 168.294 29.1414 168.294 28.7151ZM165.912 32.1516H173.058V31.5891H169.806V30.7893H169.129V31.5891H165.912V32.1516ZM166.686 33.5491H171.441V35.5266H172.135V32.9866H166.686V33.5491Z" fill="#113287"/>
<path d="M179.938 27.7131H179.27V35.5266H179.938V27.7131ZM173.337 31.0881C173.342 32.7493 174.001 33.8083 175.016 33.804C175.978 33.8083 176.633 32.8547 176.699 31.3342H177.705V35.1311H178.365V27.8801H177.705V30.7629H176.695C176.607 29.2908 175.965 28.3767 175.016 28.3723C174.001 28.3767 173.342 29.427 173.337 31.0881ZM173.988 31.0881C173.979 29.8181 174.383 29.0227 175.016 29.0227C175.653 29.0227 176.057 29.8181 176.053 31.0881C176.057 32.3538 175.653 33.1536 175.016 33.1448C174.383 33.1536 173.979 32.3538 173.988 31.0881Z" fill="#113287"/>
<path d="M189.532 33.9622H186.28V32.1692H185.603V33.9622H182.378V34.5422H189.532V33.9622ZM182.773 31.9055L183.046 32.4504C184.302 32.2307 185.449 31.5979 185.942 30.6179C186.443 31.5979 187.59 32.2307 188.838 32.4504L189.101 31.9055C187.603 31.6638 186.298 30.7542 186.298 29.5325H188.846V28.9612H186.28V27.8801H185.603V28.9612H183.046V29.5325H185.594C185.586 30.7542 184.281 31.6638 182.773 31.9055Z" fill="#113287"/>
<path d="M196.184 27.7131H195.489V29.6731H193.907V30.2532H195.489V32.2922H196.184V27.7131ZM189.741 31.6682L190.102 32.2131C191.029 31.8748 191.749 31.1584 192.088 30.2532C192.426 31.0618 193.107 31.7166 193.986 32.0374L194.347 31.4924C193.204 31.0837 192.422 30.1082 192.422 29.1018V28.7942H194.171V28.2229H189.961V28.7942H191.727V29.1018C191.727 30.2136 190.893 31.2595 189.741 31.6682ZM191.077 35.4211H196.184V32.679H191.077V35.4211ZM191.763 34.8586V33.2327H195.507V34.8586H191.763Z" fill="#113287"/>
<path d="M203.477 27.7131H202.782V35.5442H203.477V27.7131ZM197.324 31.0442C197.329 32.7097 198.155 33.7644 199.319 33.76C200.48 33.7644 201.319 32.7097 201.315 31.0442C201.319 29.3831 200.48 28.324 199.319 28.3196C198.155 28.324 197.329 29.3831 197.324 31.0442ZM197.992 31.0442C197.992 29.7742 198.537 28.9392 199.319 28.9348C200.106 28.9392 200.647 29.7742 200.647 31.0442C200.647 32.3142 200.106 33.1492 199.319 33.1448C198.537 33.1492 197.992 32.3142 197.992 31.0442Z" fill="#113287"/>
<path d="M212.807 27.7219H212.148V29.6907H211.111V27.8713H210.46V32.178H211.111V30.262H212.148V32.2395H212.807V27.7219ZM206.532 31.6946H209.555V28.3108H206.532V31.6946ZM207.182 31.1584V28.8645H208.914V31.1584H207.182ZM207.288 34.9641L207.543 35.4915C208.725 35.3201 209.801 34.7839 210.25 33.9797C210.698 34.7839 211.779 35.3201 212.965 35.4915L213.211 34.9641C211.876 34.7883 210.671 34.0984 210.619 33.2063H212.895V32.6438H207.595V33.2063H209.88C209.832 34.1116 208.619 34.7883 207.288 34.9641Z" fill="#113287"/>
<path d="M219.951 27.7131H219.265V32.4504H219.951V27.7131ZM213.614 29.1194H218.404V28.5569H216.356V27.6516H215.662V28.5569H213.614V29.1194ZM214.097 30.8948C214.089 31.7517 214.853 32.2922 216.013 32.2922C217.169 32.2922 217.925 31.7517 217.929 30.8948C217.925 30.0466 217.169 29.5061 216.013 29.5061C214.853 29.5061 214.089 30.0466 214.097 30.8948ZM214.757 30.8948C214.748 30.3762 215.249 30.0334 216.013 30.0334C216.769 30.0334 217.266 30.3762 217.27 30.8948C217.266 31.4265 216.769 31.7561 216.013 31.7649C215.249 31.7561 214.748 31.4265 214.757 30.8948ZM214.871 35.4211H219.951V32.8723H214.871V35.4211ZM215.548 34.8586V33.426H219.274V34.8586H215.548Z" fill="#113287"/>
<path d="M9.17505 246.119H8.43286V253.111H9.17505V249.525H10.261V248.908H9.17505V246.119ZM3.72974 251.244L4.1438 251.822C6.44849 250.686 7.33911 248.877 7.34692 246.854H4.0813V247.471H6.58911C6.43677 249.104 5.48364 250.369 3.72974 251.244Z" fill="#979797"/>
<path d="M16.1985 246.119H15.4563V253.119H16.1985V249.572H17.2141V248.963H16.1985V246.119ZM10.5735 251.15L11.1594 251.564C12.429 250.213 12.7415 248.619 12.7454 246.869H10.8235V247.479H12.0422C11.968 248.881 11.5969 250.084 10.5735 251.15ZM12.5735 251.619L13.1672 252.025C14.4524 250.506 14.675 248.639 14.675 246.869H12.9719V247.479H13.9758C13.9211 248.971 13.6165 250.4 12.5735 251.619Z" fill="#979797"/>
<path d="M23.3469 246.119H22.6047V253.135H23.3469V246.119ZM17.7922 249.096C17.7922 250.607 18.5461 251.561 19.6047 251.557C20.6438 251.561 21.4094 250.607 21.4094 249.096C21.4094 247.6 20.6438 246.646 19.6047 246.643C18.5461 246.646 17.7922 247.6 17.7922 249.096ZM18.511 249.096C18.5071 247.998 18.9524 247.311 19.6047 247.307C20.2454 247.311 20.6907 247.998 20.6907 249.096C20.6907 250.209 20.2454 250.893 19.6047 250.893C18.9524 250.893 18.5071 250.209 18.511 249.096Z" fill="#979797"/>
<path d="M28.8469 250.744V250.408H28.1282V250.744C28.1243 251.42 27.636 252.15 26.7375 252.471L27.1125 253.018C27.7727 252.775 28.2336 252.311 28.4875 251.76C28.7024 252.33 29.1282 252.826 29.8 253.08C30.4407 252.814 30.8586 252.303 31.0813 251.74C31.3235 252.311 31.7961 252.779 32.4875 253.018L32.8547 252.471C31.9407 252.174 31.4602 251.471 31.4641 250.744V250.408H30.7375V250.744C30.7375 251.283 30.4211 251.951 29.7805 252.361C29.1438 251.982 28.8469 251.346 28.8469 250.744ZM26.5579 248.166C26.5618 249.135 27.3508 249.807 28.425 249.807C29.4954 249.807 30.2844 249.135 30.2844 248.166C30.2844 247.186 29.4954 246.514 28.425 246.51C27.3508 246.514 26.5618 247.186 26.5579 248.166ZM27.2844 248.166C27.2805 247.553 27.761 247.139 28.425 247.143C29.0813 247.139 29.5579 247.553 29.5579 248.166C29.5579 248.775 29.0813 249.189 28.425 249.189C27.761 249.189 27.2805 248.775 27.2844 248.166ZM31.4797 250.111H32.2219V246.127H31.4797V250.111Z" fill="#979797"/>
<path d="M38.9954 248.166H34.9094V246.369H34.175V248.76H38.9954V248.166ZM33.3235 250.236H39.7297V249.643H33.3235V250.236ZM34.1204 252.955H39.0422V252.346H34.8625V250.9H34.1204V252.955Z" fill="#979797"/>
<path d="M44.6282 247.9V246.705H43.886V247.9C43.8821 249.182 43.1555 250.525 42.0813 251.041L42.5422 251.643C43.3391 251.229 43.9524 250.389 44.2649 249.396C44.5735 250.33 45.1633 251.111 45.925 251.51L46.386 250.916C45.343 250.408 44.6204 249.139 44.6282 247.9ZM46.9094 253.119H47.6516V249.541H48.7766V248.908H47.6516V246.119H46.9094V253.119Z" fill="#979797"/>
<path d="M55.4954 249.018H49.1125V249.611H51.925V250.221H49.8782V250.791H53.9563V251.322H49.886V253.049H54.886V252.479H50.6125V251.861H54.6907V250.221H52.6672V249.611H55.4954V249.018ZM49.9329 248.502H54.675V246.346H49.9329V248.502ZM50.6594 247.916V246.932H53.9329V247.916H50.6594Z" fill="#979797"/>
<path d="M12.4368 262.299C12.4446 263.775 12.8625 264.998 13.593 266.049H14.3586C13.8196 265.271 13.304 263.697 13.304 262.299C13.304 260.904 13.8196 259.33 14.3586 258.557H13.593C12.8625 259.604 12.4446 260.826 12.4368 262.299Z" fill="#979797"/>
<path d="M21.3665 259.143H20.3743V258.119H19.6321V262.268H20.3743V261.268H21.3665V260.643H20.3743V259.752H21.3665V259.143ZM14.9836 260.197C14.9758 261.186 15.7727 261.869 16.843 261.869C17.9172 261.869 18.7024 261.186 18.7102 260.197C18.7024 259.217 17.9172 258.525 16.843 258.525C15.7727 258.525 14.9758 259.217 14.9836 260.197ZM15.7102 260.197C15.7024 259.572 16.1868 259.162 16.843 259.158C17.4993 259.162 17.9797 259.572 17.9836 260.197C17.9797 260.826 17.4993 261.244 16.843 261.236C16.1868 261.244 15.7024 260.826 15.7102 260.197ZM15.7493 263.182H19.6321V265.119H20.3743V262.58H15.7493V263.182Z" fill="#979797"/>
<path d="M23.8586 263.354H26.6086V264.455H27.4211V263.354H28.1946V262.627H27.4211V258.799H26.3586L23.8586 262.658V263.354ZM24.7649 262.627V262.58L26.5461 259.822H26.6086V262.627H24.7649Z" fill="#979797"/>
<path d="M31.0305 264.533C32.3391 264.533 33.1047 263.479 33.1086 261.627C33.1047 259.787 32.3274 258.721 31.0305 258.721C29.7297 258.721 28.9524 259.787 28.9524 261.627C28.9524 263.479 29.7219 264.533 31.0305 264.533ZM29.8118 261.627C29.8118 260.221 30.2688 259.451 31.0305 259.447C31.7883 259.451 32.2493 260.221 32.2493 261.627C32.2493 263.037 31.7922 263.791 31.0305 263.791C30.2649 263.791 29.8079 263.037 29.8118 261.627Z" fill="#979797"/>
<path d="M35.804 264.541C36.804 264.541 37.4563 263.936 37.5461 263.111H36.7336C36.6282 263.568 36.2766 263.834 35.804 263.83C35.1047 263.834 34.6555 263.26 34.6555 262.33C34.6555 261.428 35.1165 260.857 35.804 260.854C36.3313 260.857 36.6477 261.189 36.7336 261.588H37.5461C37.4563 260.729 36.7571 260.158 35.7883 260.158C34.593 260.158 33.8157 261.061 33.8196 262.354C33.8157 263.631 34.5657 264.541 35.804 264.541Z" fill="#979797"/>
<path d="M38.3352 264.455H39.1711V261.838C39.1711 261.268 39.5696 260.877 40.0383 260.877C40.4954 260.877 40.8118 261.178 40.8118 261.643V264.455H41.6399V261.752C41.6399 261.244 41.9485 260.877 42.4836 260.877C42.9211 260.877 43.2805 261.115 43.2805 261.689V264.455H44.1165V261.611C44.1125 260.639 43.5696 260.158 42.804 260.158C42.1907 260.158 41.7297 260.451 41.5305 260.908H41.4836C41.304 260.436 40.9094 260.158 40.343 260.158C39.7844 260.158 39.3665 260.436 39.1868 260.908H39.1399V260.213H38.3352V264.455Z" fill="#979797"/>
<path d="M46.7961 262.299C46.7883 260.826 46.3704 259.604 45.6399 258.557H44.8743C45.4133 259.33 45.929 260.904 45.929 262.299C45.929 263.697 45.4133 265.271 44.8743 266.049H45.6399C46.3704 264.998 46.7883 263.775 46.7961 262.299Z" fill="#979797"/>
<path fill-rule="evenodd" clip-rule="evenodd" d="M30.1169 215.119L30.1169 214.077L29.1169 214.077L29.1169 215.119L30.1169 215.119ZM30.1169 219.286L30.1169 217.202L29.1169 217.202L29.1169 219.286L30.1169 219.286ZM30.1169 223.452L30.1169 221.369L29.1169 221.369L29.1169 223.452L30.1169 223.452ZM30.1169 227.619L30.1169 225.536L29.1169 225.536L29.1169 227.619L30.1169 227.619ZM30.1168 231.786L30.1169 229.702L29.1169 229.702L29.1168 231.786L30.1168 231.786ZM30.1168 235.952L30.1168 233.869L29.1168 233.869L29.1168 235.952L30.1168 235.952ZM30.1168 239.077L30.1168 238.036L29.1168 238.036L29.1168 239.077L30.1168 239.077Z" fill="#979797"/>
<path fill-rule="evenodd" clip-rule="evenodd" d="M130.938 133.795C142.616 128.966 155.559 128.12 167.769 131.389C179.98 134.641 190.758 141.827 198.455 151.817C206.151 161.808 210.316 174.039 210.316 186.635C210.316 199.231 206.151 211.462 198.455 221.453C190.758 231.443 179.98 238.612 167.77 241.881L167.769 241.881C155.559 245.134 142.616 244.304 130.938 239.475C119.261 234.646 109.516 226.149 103.185 215.229C103.081 215.05 103.142 214.821 103.322 214.717C103.501 214.613 103.73 214.674 103.834 214.853C110.081 225.63 119.699 234.015 131.225 238.782C142.749 243.548 155.524 244.367 167.576 241.156C167.576 241.156 167.576 241.156 167.576 241.156L167.673 241.519L167.576 241.156C167.576 241.156 167.576 241.156 167.576 241.156C179.628 237.93 190.265 230.854 197.86 220.995C205.456 211.136 209.566 199.065 209.566 186.635C209.566 174.204 205.456 162.134 197.86 152.275C190.265 142.415 179.628 135.324 167.576 132.114L167.576 132.113C155.525 128.887 142.75 129.722 131.225 134.488C119.699 139.254 110.081 147.657 103.834 158.417C103.73 158.596 103.5 158.657 103.321 158.553C103.142 158.449 103.081 158.219 103.185 158.04C109.516 147.137 119.261 138.624 130.938 133.795Z" fill="#113287"/>
<path fill-rule="evenodd" clip-rule="evenodd" d="M128.531 129.63C141.093 124.421 155.018 123.507 168.154 127.034C181.29 130.544 192.885 138.296 201.164 149.074C209.444 159.852 213.924 173.047 213.924 186.636C213.924 200.225 209.444 213.42 201.164 224.199C192.885 234.977 181.29 242.711 168.154 246.238L168.154 246.238C155.018 249.747 141.094 248.852 128.531 243.642C115.969 238.432 105.485 229.266 98.6752 217.485C98.5715 217.305 98.6328 217.076 98.8121 216.972C98.9915 216.869 99.2208 216.93 99.3245 217.109C106.052 228.747 116.408 237.802 128.818 242.949C141.228 248.096 154.983 248.98 167.96 245.514C180.937 242.029 192.391 234.389 200.569 223.742C208.748 213.095 213.174 200.06 213.174 186.636C213.174 173.212 208.748 160.178 200.569 149.531C192.39 138.883 180.936 131.225 167.96 127.759L167.96 127.759C154.983 124.275 141.228 125.177 128.818 130.323C116.408 135.47 106.052 144.543 99.3244 156.163C99.2206 156.343 98.9912 156.404 98.8119 156.3C98.6327 156.196 98.5715 155.967 98.6753 155.788C105.485 144.025 115.969 134.84 128.531 129.63Z" fill="#113287"/>
<path fill-rule="evenodd" clip-rule="evenodd" d="M96.5961 157.548C96.7187 157.715 96.6827 157.95 96.5157 158.072C88.2393 164.149 83.1394 175.17 83.1394 187.084C83.1394 199.013 88.2392 210.018 96.5157 216.095C96.6827 216.218 96.7187 216.452 96.5961 216.619C96.4735 216.786 96.2388 216.822 96.0719 216.7C87.5714 210.459 82.3894 199.21 82.3894 187.084C82.3894 174.974 87.5713 163.709 96.0719 157.468C96.2388 157.345 96.4735 157.381 96.5961 157.548Z" fill="#113287"/>
<path fill-rule="evenodd" clip-rule="evenodd" d="M89.6028 169.771H61.1173V171.021H89.528L224.62 187.252L224.769 186.011L89.6028 169.771Z" fill="#9FABDB"/>
<path fill-rule="evenodd" clip-rule="evenodd" d="M89.6028 203.493H61.1173V202.243H89.528L224.62 186.012L224.769 187.253L89.6028 203.493Z" fill="#9FABDB"/>
<path fill-rule="evenodd" clip-rule="evenodd" d="M73.8648 170.396L71.0751 171.628L71.5801 172.772L76.9586 170.396L71.5801 168.02L71.0751 169.164L73.8648 170.396Z" fill="#9FABDB"/>
<path fill-rule="evenodd" clip-rule="evenodd" d="M73.8648 202.867L71.0751 201.635L71.5801 200.491L76.9586 202.867L71.5801 205.243L71.0751 204.099L73.8648 202.867Z" fill="#9FABDB"/>
<path d="M39.6613 163.196H19.5718C18.4791 163.196 17.4304 163.629 16.6578 164.399C15.8851 165.17 15.4509 166.216 15.4509 167.306V206.861C15.4509 207.951 15.8851 208.996 16.6578 209.768C17.4304 210.539 18.4791 210.971 19.5718 210.971H39.6613C40.7541 210.971 41.8027 210.538 42.5754 209.768C43.348 208.997 43.7822 207.951 43.7822 206.861V167.306C43.7822 166.216 43.348 165.171 42.5754 164.399C41.8027 163.628 40.7541 163.196 39.6613 163.196ZM29.6166 207.324C29.0702 207.324 28.5459 207.107 28.1595 206.722C27.7732 206.337 27.5561 205.814 27.5561 205.269C27.5561 204.724 27.7732 204.201 28.1595 203.816C28.5459 203.431 29.0702 203.214 29.6166 203.214C30.163 203.214 30.6873 203.431 31.0736 203.816C31.4599 204.201 31.677 204.724 31.677 205.269C31.677 205.814 31.4599 206.337 31.0736 206.722C30.6873 207.107 30.163 207.324 29.6166 207.324ZM40.6915 200.491H18.5416V168.693H40.6915V200.491Z" fill="#113287"/>
<circle cx="4" cy="4" r="3.5" transform="matrix(-1 0 0 1 228.769 182.632)" fill="white" stroke="#FFB341"/>
</svg>
