<svg width="492" height="318" viewBox="0 0 492 318" fill="none" xmlns="http://www.w3.org/2000/svg">
<path d="M437 67L182 123.14L437 179" stroke="#9FABDB"/>
<path d="M478 124L478 29" stroke="#979797" stroke-dasharray="2 2"/>
<path d="M182 123V271.5H154" stroke="#979797" stroke-dasharray="2 2"/>
<path d="M271 123V271H304" stroke="#979797" stroke-dasharray="2 2"/>
<path d="M177.041 128.813C179.763 131.729 184.237 131.729 186.959 128.813C189.68 125.897 189.68 121.103 186.959 118.187C184.237 115.271 179.763 115.271 177.041 118.187C174.32 121.103 174.32 125.897 177.041 128.813Z" fill="#A1B6FF"/>
<path d="M477.199 11.8721V13.8145H478.342V14.5176H477.199V16.4775H476.364V11.8721H477.199ZM475.02 12.3555C475.02 14.3857 473.648 15.8008 471.311 16.4072L470.968 15.7656C472.857 15.2734 473.978 14.2759 474.123 13.0322H471.346V12.3555H475.02ZM477.199 16.8203V19.7471H476.364V17.4971H471.996V16.8203H477.199ZM482.78 12.4521V15.9941H479.098V12.4521H482.78ZM479.915 13.1113V15.3262H481.963V13.1113H479.915ZM484.978 11.8721V13.8672H486.12V14.5615H484.978V16.5391H484.143V11.8721H484.978ZM484.978 16.9346V19.7559H484.143V17.6025H479.774V16.9346H484.978Z" fill="#979797"/>
<path d="M439.157 12.5664C439.148 13.6123 440.431 14.5967 441.978 14.7988L441.653 15.4844C440.365 15.2778 439.231 14.6099 438.726 13.6826C438.208 14.6143 437.078 15.2778 435.799 15.4844L435.465 14.7988C437.012 14.5967 438.278 13.6211 438.287 12.5664V12.1357H439.157V12.5664ZM442.303 16.2578V16.9434H439.104V19.7471H438.287V16.9434H435.123V16.2578H442.303ZM449.466 11.8721V16.5566H448.631V14.5615H447.164V13.876H448.631V11.8721H449.466ZM446.83 16.7764C448.482 16.7764 449.493 17.3213 449.493 18.2617C449.493 19.2021 448.482 19.7383 446.83 19.7471C445.177 19.7383 444.158 19.2021 444.167 18.2617C444.158 17.3213 445.177 16.7764 446.83 16.7764ZM446.83 17.4268C445.678 17.4268 444.993 17.7256 444.993 18.2617C444.993 18.7891 445.678 19.0967 446.83 19.0879C447.981 19.0967 448.667 18.7891 448.667 18.2617C448.667 17.7256 447.981 17.4268 446.83 17.4268ZM445.722 13.2607C445.722 14.2627 446.434 15.2295 447.621 15.6338L447.19 16.293C446.307 15.9854 445.656 15.3569 445.318 14.5791C444.971 15.4624 444.281 16.1699 443.34 16.5127L442.901 15.8447C444.123 15.4229 444.87 14.3594 444.87 13.2695V13.0938H443.165V12.417H447.41V13.0938H445.722V13.2607ZM453.035 14.2891C453.035 15.5283 453.606 16.7939 454.696 17.374L454.23 17.9893C453.47 17.585 452.938 16.8291 452.657 15.9326C452.371 16.895 451.844 17.7212 451.083 18.1738L450.591 17.541C451.681 16.9082 452.244 15.5635 452.252 14.2891V13.9727H450.829V13.2871H452.252V12.1533H453.035V13.2871H454.432V13.9727H453.035V14.2891ZM457.438 11.8721V19.7471H456.638V11.8721H457.438ZM455.838 12.0391V19.3516H455.047V15.6338H453.914V14.9395H455.047V12.0391H455.838Z" fill="#979797"/>
<path d="M231.502 12.4609V15.8887H227.819V12.4609H231.502ZM228.637 13.1289V15.2119H230.685V13.1289H228.637ZM233.699 11.8721V13.7793H234.842V14.4648H233.699V16.4951H232.864V11.8721H233.699ZM231.159 16.7412C232.768 16.7412 233.77 17.3037 233.77 18.2354C233.77 19.1846 232.768 19.7383 231.159 19.7471C229.533 19.7383 228.514 19.1846 228.514 18.2354C228.514 17.3037 229.533 16.7412 231.159 16.7412ZM231.159 17.4092C230.017 17.4092 229.34 17.7168 229.349 18.2354C229.34 18.7803 230.017 19.0703 231.159 19.0791C232.293 19.0703 232.952 18.7803 232.952 18.2354C232.952 17.7168 232.293 17.4092 231.159 17.4092ZM239.28 12.4521V15.9941H235.598V12.4521H239.28ZM236.415 13.1113V15.3262H238.463V13.1113H236.415ZM241.478 11.8721V13.8672H242.62V14.5615H241.478V16.5391H240.643V11.8721H241.478ZM241.478 16.9346V19.7559H240.643V17.6025H236.274V16.9346H241.478Z" fill="#979797"/>
<path d="M437 67L227 123.14L437 179" stroke="#9FABDB"/>
<path d="M437 67L269 123.14L437 179" stroke="#9FABDB"/>
<path d="M437 67.2678C424.591 45.8231 405.489 29.0786 382.598 19.5802C359.707 10.0819 334.335 8.41724 310.399 14.8474C286.464 21.2449 265.336 35.3781 250.25 55.0276C235.164 74.6771 227 98.733 227 123.507C227 148.281 235.164 172.337 250.25 191.986C265.336 211.636 286.464 225.737 310.399 232.167C334.335 238.564 359.707 236.932 382.598 227.434C405.489 217.936 424.591 201.224 437 179.746" stroke="#113287" stroke-linecap="round" stroke-linejoin="round"/>
<path d="M441.726 73.8111C441.341 73.3691 440.66 73.3696 440.276 73.8121C430.739 84.7941 425 103.015 425 122.5C425 141.984 430.738 160.205 440.275 171.187C440.659 171.63 441.341 171.63 441.725 171.187C451.262 160.205 457 141.984 457 122.5C457 103.015 451.29 84.7929 441.726 73.8111Z" fill="#D6E4EF"/>
<path d="M453 68C468.501 79.7655 478 101.054 478 124C478 146.979 468.501 168.234 453 180" stroke="#113287" stroke-linecap="round" stroke-linejoin="round"/>
<path d="M443 124H449V29" stroke="#979797" stroke-dasharray="2 2"/>
<path d="M237 76L237 29" stroke="#979797" stroke-dasharray="2 2"/>
<path d="M227 285.5L227 124" stroke="#979797" stroke-dasharray="2 2"/>
<path d="M222.041 128.813C224.763 131.729 229.237 131.729 231.959 128.813C234.68 125.897 234.68 121.103 231.959 118.187C229.237 115.271 224.763 115.271 222.041 118.187C219.32 121.103 219.32 125.897 222.041 128.813Z" fill="#C5A1FF"/>
<path d="M264.333 128.813C267.443 131.729 272.557 131.729 275.667 128.813C278.778 125.897 278.778 121.103 275.667 118.187C272.557 115.271 267.443 115.271 264.333 118.187C261.222 121.103 261.222 125.897 264.333 128.813Z" fill="#99D64D"/>
<rect x="308" y="258" width="150" height="26" rx="5" fill="#F3F6FF"/>
<path d="M330.778 265.265V266.393C330.778 267.521 330.778 268.788 330.485 270.421H332.229V271.915H320.026V270.421H328.581C328.881 268.927 328.918 267.813 328.918 266.759H321.521V265.265H330.778ZM331.159 276.104V277.599H321.579V273.087H323.425V276.104H331.159ZM338.176 267.535C338.176 269.981 339.289 272.442 341.545 273.395L340.446 274.889C338.923 274.2 337.868 272.875 337.268 271.227C336.66 273.021 335.568 274.471 333.942 275.211L332.814 273.658C335.144 272.677 336.271 270.128 336.286 267.535V265.543H338.176V267.535ZM344.152 264.518V277.877H342.263V264.518H344.152ZM350.188 272.457C350.188 269.703 351.037 267.418 352.443 265.44H354.509C353.498 266.905 352.443 269.835 352.443 272.457C352.443 275.094 353.498 278.023 354.509 279.488H352.443C351.037 277.511 350.188 275.211 350.188 272.457ZM366.008 265.03V265.938C366.008 266.751 366.008 267.828 365.773 269.117H367.458V270.567H362.258V271.827H365.949V275.401H358.508V276.31H366.315V277.745H356.647V274.127H364.104V273.277H356.633V271.827H360.397V270.567H355.256V269.117H363.884C364.096 268.055 364.133 267.22 364.147 266.495H356.75V265.03H366.008ZM375.837 265.03V266.524H373.186C373.237 267.857 374.204 269.249 376.232 269.835L375.368 271.314C373.867 270.882 372.834 269.996 372.248 268.883C371.64 270.113 370.556 271.124 369.011 271.593L368.103 270.143C370.19 269.476 371.23 267.938 371.311 266.524H368.615V265.03H375.837ZM379.455 264.518V271.3H377.595V268.736H375.5V267.257H377.595V264.518H379.455ZM379.455 271.812V275.416H372.468V276.266H379.851V277.716H370.593V274.054H377.595V273.292H370.578V271.812H379.455ZM387.585 265.294V269.454H383.557V270.875C385.542 270.875 386.713 270.809 388.068 270.553L388.244 272.047C386.691 272.325 385.285 272.369 382.707 272.369H381.711V268.062H385.71V266.759H381.682V265.294H387.585ZM392.419 264.532V272.735H390.559V270.685H388.347V269.205H390.559V267.857H388.347V266.378H390.559V264.532H392.419ZM392.419 273.336V277.848H390.559V274.83H383.234V273.336H392.419ZM405.749 273.16L398.483 276.368V274.303L403.42 272.296V272.208L398.483 270.216V268.15L405.749 271.373V273.16ZM415.402 276.646C413.205 276.632 411.125 275.328 411.125 271.446C411.125 267.872 412.839 265.748 415.49 265.748C417.629 265.748 419.079 267.096 419.299 268.839H417.131C416.955 268.092 416.34 267.638 415.49 267.638C414.055 267.638 413.293 268.941 413.278 271.021H413.381C413.864 270.084 414.919 269.527 416.091 269.527C417.995 269.527 419.416 270.963 419.416 272.955C419.416 275.108 417.79 276.661 415.402 276.646ZM415.388 274.903C416.472 274.903 417.277 274.083 417.277 273.014C417.277 271.959 416.501 271.124 415.417 271.124C414.333 271.124 413.513 271.974 413.498 273.014C413.513 274.054 414.304 274.903 415.388 274.903ZM425.056 276.646C422.404 276.646 420.793 274.669 420.793 271.197C420.793 267.726 422.404 265.748 425.056 265.748C427.707 265.748 429.318 267.74 429.318 271.197C429.318 274.684 427.707 276.646 425.056 276.646ZM425.056 274.83C426.286 274.83 427.077 273.644 427.062 271.197C427.062 268.78 426.286 267.55 425.056 267.55C423.825 267.55 423.049 268.78 423.049 271.197C423.034 273.644 423.825 274.83 425.056 274.83ZM434.636 276.5H430.9V265.895H434.68C437.873 265.895 439.821 267.887 439.821 271.183C439.821 274.508 437.873 276.5 434.636 276.5ZM433.098 274.61H434.548C436.569 274.61 437.624 273.556 437.624 271.183C437.624 268.824 436.569 267.784 434.562 267.784H433.098V274.61ZM445.197 272.457C445.197 275.211 444.348 277.511 442.941 279.488H440.876C441.887 278.023 442.941 275.094 442.941 272.457C442.941 269.835 441.887 266.905 440.876 265.44H442.941C444.348 267.418 445.197 269.703 445.197 272.457Z" fill="#020F50"/>
<rect y="258" width="150" height="26" rx="5" fill="#F3F6FF"/>
<path d="M12.8027 272.457C12.8027 269.703 13.6523 267.418 15.0586 265.44H17.124C16.1133 266.905 15.0586 269.835 15.0586 272.457C15.0586 275.094 16.1133 278.023 17.124 279.488H15.0586C13.6523 277.511 12.8027 275.211 12.8027 272.457ZM28.623 265.03V265.938C28.623 266.751 28.623 267.828 28.3887 269.117H30.0732V270.567H24.873V271.827H28.5645V275.401H21.123V276.31H28.9307V277.745H19.2627V274.127H26.7188V273.277H19.248V271.827H23.0127V270.567H17.8711V269.117H26.499C26.7114 268.055 26.748 267.22 26.7627 266.495H19.3652V265.03H28.623ZM38.4521 265.03V266.524H35.8008C35.8521 267.857 36.8188 269.249 38.8477 269.835L37.9834 271.314C36.4819 270.882 35.4492 269.996 34.8633 268.883C34.2554 270.113 33.1714 271.124 31.626 271.593L30.7178 270.143C32.8052 269.476 33.8452 267.938 33.9258 266.524H31.2305V265.03H38.4521ZM42.0703 264.518V271.3H40.21V268.736H38.1152V267.257H40.21V264.518H42.0703ZM42.0703 271.812V275.416H35.083V276.266H42.4658V277.716H33.208V274.054H40.21V273.292H33.1934V271.812H42.0703ZM50.2002 265.294V269.454H46.1719V270.875C48.1567 270.875 49.3286 270.809 50.6836 270.553L50.8594 272.047C49.3066 272.325 47.9004 272.369 45.3223 272.369H44.3262V268.062H48.3252V266.759H44.2969V265.294H50.2002ZM55.0342 264.532V272.735H53.1738V270.685H50.9619V269.205H53.1738V267.857H50.9619V266.378H53.1738V264.532H55.0342ZM55.0342 273.336V277.848H53.1738V274.83H45.8496V273.336H55.0342ZM61.0986 273.16V271.373L68.3643 268.15V270.216L63.4277 272.208V272.296L68.3643 274.303V276.368L61.0986 273.16ZM78.0176 276.646C75.8203 276.632 73.7402 275.328 73.7402 271.446C73.7402 267.872 75.4541 265.748 78.1055 265.748C80.2441 265.748 81.6943 267.096 81.9141 268.839H79.7461C79.5703 268.092 78.9551 267.638 78.1055 267.638C76.6699 267.638 75.9082 268.941 75.8936 271.021H75.9961C76.4795 270.084 77.5342 269.527 78.7061 269.527C80.6104 269.527 82.0312 270.963 82.0312 272.955C82.0312 275.108 80.4053 276.661 78.0176 276.646ZM78.0029 274.903C79.0869 274.903 79.8926 274.083 79.8926 273.014C79.8926 271.959 79.1162 271.124 78.0322 271.124C76.9482 271.124 76.1279 271.974 76.1133 273.014C76.1279 274.054 76.9189 274.903 78.0029 274.903ZM87.6709 276.646C85.0195 276.646 83.4082 274.669 83.4082 271.197C83.4082 267.726 85.0195 265.748 87.6709 265.748C90.3223 265.748 91.9336 267.74 91.9336 271.197C91.9336 274.684 90.3223 276.646 87.6709 276.646ZM87.6709 274.83C88.9014 274.83 89.6924 273.644 89.6777 271.197C89.6777 268.78 88.9014 267.55 87.6709 267.55C86.4404 267.55 85.6641 268.78 85.6641 271.197C85.6494 273.644 86.4404 274.83 87.6709 274.83ZM97.251 276.5H93.5156V265.895H97.2949C100.488 265.895 102.437 267.887 102.437 271.183C102.437 274.508 100.488 276.5 97.251 276.5ZM95.7129 274.61H97.1631C99.1846 274.61 100.239 273.556 100.239 271.183C100.239 268.824 99.1846 267.784 97.1777 267.784H95.7129V274.61ZM107.812 272.457C107.812 275.211 106.963 277.511 105.557 279.488H103.491C104.502 278.023 105.557 275.094 105.557 272.457C105.557 269.835 104.502 266.905 103.491 265.44H105.557C106.963 267.418 107.812 269.703 107.812 272.457ZM124.131 264.532V274.596H122.256V273.541H119.707V272.267H122.256V264.532H124.131ZM124.424 276.119V277.613H114.492V273.629H116.353V271.856C115.159 271.908 114.023 271.915 113.013 271.915L112.793 270.436C115.239 270.421 118.535 270.392 121.348 270.04L121.45 271.373C120.396 271.549 119.304 271.673 118.228 271.754V274.288H116.353V276.119H124.424ZM117.129 264.986C119.062 264.972 120.454 265.953 120.454 267.374C120.454 268.795 119.062 269.718 117.129 269.718C115.151 269.718 113.774 268.795 113.774 267.374C113.774 265.953 115.137 264.972 117.129 264.986ZM117.129 266.349C116.177 266.349 115.532 266.715 115.547 267.374C115.532 268.019 116.177 268.37 117.129 268.37C118.022 268.37 118.667 268.019 118.682 267.374C118.667 266.715 118.022 266.349 117.129 266.349ZM130.986 267.535C130.986 269.981 132.1 272.442 134.355 273.395L133.257 274.889C131.733 274.2 130.679 272.875 130.078 271.227C129.47 273.021 128.379 274.471 126.753 275.211L125.625 273.658C127.954 272.677 129.082 270.128 129.097 267.535V265.543H130.986V267.535ZM136.963 264.518V277.877H135.073V264.518H136.963Z" fill="#020F50"/>
<rect x="152" y="292" width="150" height="26" rx="5" fill="#F3F6FF"/>
<path d="M175.262 298.518V306.428H173.401V303.278H171.321V301.77H173.401V298.518H175.262ZM170.706 306.721C173.548 306.735 175.291 307.673 175.306 309.299C175.291 310.91 173.548 311.862 170.706 311.862C167.864 311.862 166.121 310.91 166.121 309.299C166.121 307.673 167.864 306.735 170.706 306.721ZM170.706 308.156C168.934 308.156 167.981 308.522 167.981 309.299C167.981 310.061 168.934 310.441 170.706 310.441C172.479 310.441 173.445 310.061 173.445 309.299C173.445 308.522 172.479 308.156 170.706 308.156ZM171.717 299.323V300.817H169.065C169.109 302.37 170.047 303.938 172.127 304.626L171.204 306.091C169.732 305.615 168.721 304.648 168.143 303.439C167.549 304.802 166.487 305.9 164.905 306.442L163.938 304.963C166.128 304.23 167.11 302.487 167.161 300.817H164.48V299.323H171.717ZM182.176 301.535C182.176 303.981 183.289 306.442 185.545 307.395L184.446 308.889C182.923 308.2 181.868 306.875 181.268 305.227C180.66 307.021 179.568 308.471 177.942 309.211L176.814 307.658C179.144 306.677 180.271 304.128 180.286 301.535V299.543H182.176V301.535ZM188.152 298.518V311.877H186.263V298.518H188.152ZM194.188 306.457C194.188 303.703 195.037 301.418 196.443 299.44H198.509C197.498 300.905 196.443 303.835 196.443 306.457C196.443 309.094 197.498 312.023 198.509 313.488H196.443C195.037 311.511 194.188 309.211 194.188 306.457ZM210.008 299.03V299.938C210.008 300.751 210.008 301.828 209.773 303.117H211.458V304.567H206.258V305.827H209.949V309.401H202.508V310.31H210.315V311.745H200.647V308.127H208.104V307.277H200.633V305.827H204.397V304.567H199.256V303.117H207.884C208.096 302.055 208.133 301.22 208.147 300.495H200.75V299.03H210.008ZM219.837 299.03V300.524H217.186C217.237 301.857 218.204 303.249 220.232 303.835L219.368 305.314C217.867 304.882 216.834 303.996 216.248 302.883C215.64 304.113 214.556 305.124 213.011 305.593L212.103 304.143C214.19 303.476 215.23 301.938 215.311 300.524H212.615V299.03H219.837ZM223.455 298.518V305.3H221.595V302.736H219.5V301.257H221.595V298.518H223.455ZM223.455 305.812V309.416H216.468V310.266H223.851V311.716H214.593V308.054H221.595V307.292H214.578V305.812H223.455ZM231.585 299.294V303.454H227.557V304.875C229.542 304.875 230.713 304.809 232.068 304.553L232.244 306.047C230.691 306.325 229.285 306.369 226.707 306.369H225.711V302.062H229.71V300.759H225.682V299.294H231.585ZM236.419 298.532V306.735H234.559V304.685H232.347V303.205H234.559V301.857H232.347V300.378H234.559V298.532H236.419ZM236.419 307.336V311.848H234.559V308.83H227.234V307.336H236.419ZM242.557 305.446V303.645H249.676V305.446H242.557ZM242.557 308.874V307.072H249.676V308.874H242.557ZM259.402 310.646C257.205 310.632 255.125 309.328 255.125 305.446C255.125 301.872 256.839 299.748 259.49 299.748C261.629 299.748 263.079 301.096 263.299 302.839H261.131C260.955 302.092 260.34 301.638 259.49 301.638C258.055 301.638 257.293 302.941 257.278 305.021H257.381C257.864 304.084 258.919 303.527 260.091 303.527C261.995 303.527 263.416 304.963 263.416 306.955C263.416 309.108 261.79 310.661 259.402 310.646ZM259.388 308.903C260.472 308.903 261.277 308.083 261.277 307.014C261.277 305.959 260.501 305.124 259.417 305.124C258.333 305.124 257.513 305.974 257.498 307.014C257.513 308.054 258.304 308.903 259.388 308.903ZM269.056 310.646C266.404 310.646 264.793 308.669 264.793 305.197C264.793 301.726 266.404 299.748 269.056 299.748C271.707 299.748 273.318 301.74 273.318 305.197C273.318 308.684 271.707 310.646 269.056 310.646ZM269.056 308.83C270.286 308.83 271.077 307.644 271.062 305.197C271.062 302.78 270.286 301.55 269.056 301.55C267.825 301.55 267.049 302.78 267.049 305.197C267.034 307.644 267.825 308.83 269.056 308.83ZM278.636 310.5H274.9V299.895H278.68C281.873 299.895 283.821 301.887 283.821 305.183C283.821 308.508 281.873 310.5 278.636 310.5ZM277.098 308.61H278.548C280.569 308.61 281.624 307.556 281.624 305.183C281.624 302.824 280.569 301.784 278.562 301.784H277.098V308.61ZM289.197 306.457C289.197 309.211 288.348 311.511 286.941 313.488H284.876C285.887 312.023 286.941 309.094 286.941 306.457C286.941 303.835 285.887 300.905 284.876 299.44H286.941C288.348 301.418 289.197 303.703 289.197 306.457Z" fill="#020F50"/>
</svg>
