<?xml version="1.0" encoding="UTF-8"?>
<svg width="744px" height="560px" viewBox="0 0 744 560" version="1.1" xmlns="http://www.w3.org/2000/svg" xmlns:xlink="http://www.w3.org/1999/xlink">
    <title>Artboard</title>
    <defs>
        <circle id="path-1" cx="133.607" cy="133.607" r="133.607"></circle>
    </defs>
    <g id="Artboard" stroke="none" stroke-width="1" fill="none" fill-rule="evenodd">
        <path d="M589.848,176.602 L605.879,215.562 C590.072,209.445 580.652,197.235 577.918,191.895 L589.848,176.602 Z" id="Path" fill="#F9C8C8" fill-rule="nonzero"></path>
        <path d="M589.848,149.731 L605.879,110.771 C590.072,116.888 580.652,129.098 577.918,134.438 L589.848,149.731 Z" id="Path" fill="#F9C8C8" fill-rule="nonzero"></path>
        <path d="M584.491,141.422 C584.86,141.024 585.483,141.025 585.851,141.423 C590.474,146.411 593.244,154.469 593.244,163.072 C593.244,171.675 590.475,179.733 585.852,184.721 C585.483,185.12 584.86,185.12 584.491,184.721 C579.869,179.733 577.1,171.675 577.1,163.072 C577.1,154.468 579.856,146.41 584.491,141.422 Z" id="Path" fill="#D6E4EF" fill-rule="nonzero"></path>
        <path d="M376.353,176.602 L392.384,215.562 C376.577,209.445 367.157,197.235 364.423,191.895 L376.353,176.602 Z" id="Path" fill="#F9C8C8" fill-rule="nonzero"></path>
        <path d="M376.353,149.731 L392.384,110.771 C376.577,116.888 367.157,129.098 364.423,134.438 L376.353,149.731 Z" id="Path" fill="#F9C8C8" fill-rule="nonzero"></path>
        <path d="M370.501,137.298 C370.856,136.676 371.725,136.677 372.08,137.299 C375.541,143.366 377.605,152.905 377.605,163.072 C377.605,173.239 375.542,182.777 372.081,188.844 C371.726,189.467 370.856,189.467 370.501,188.844 C367.041,182.777 364.978,173.239 364.978,163.072 C364.978,152.904 367.031,143.365 370.501,137.298 Z" id="Path" fill="#D6E4EF" fill-rule="nonzero"></path>
        <path d="M131.951,176.697 L147.981,215.656 C132.174,209.539 122.755,197.33 120.021,191.989 L131.951,176.697 Z" id="Path" fill="#F9C8C8" fill-rule="nonzero"></path>
        <path d="M131.951,149.826 L147.981,110.866 C132.174,116.983 122.755,129.193 120.021,134.533 L131.951,149.826 Z" id="Path" fill="#F9C8C8" fill-rule="nonzero"></path>
        <path d="M126.098,137.393 C126.454,136.771 127.323,136.772 127.678,137.394 C131.139,143.461 133.203,152.999 133.203,163.167 C133.203,173.334 131.139,182.871 127.679,188.939 C127.324,189.561 126.454,189.561 126.099,188.939 C122.638,182.871 120.575,173.334 120.575,163.167 C120.575,152.999 122.629,143.46 126.098,137.393 Z" id="Path" fill="#D6E4EF" fill-rule="nonzero"></path>
        <path d="M28.6709,223.014 L25.3818,223.014 L25.3818,225.904 L28.6709,225.904 L28.6709,224.725 L30.1631,224.725 L30.1631,226.217 L30.8975,226.217 L30.8975,222.654 L30.1631,222.654 L30.1631,224.131 L28.6709,224.131 L28.6709,223.014 Z M26.1162,225.311 L26.1162,223.6 L27.9365,223.6 L27.9365,225.311 L26.1162,225.311 Z M26.3193,227.139 L30.1631,227.139 L30.1631,227.748 L26.335,227.748 L26.335,229.568 L31.1475,229.568 L31.1475,228.975 L27.0771,228.975 L27.0771,228.303 L30.8975,228.303 L30.8975,226.561 L26.3193,226.561 L26.3193,227.139 Z M37.7959,222.654 L37.0537,222.654 L37.0537,229.67 L37.7959,229.67 L37.7959,222.654 Z M32.374,223.889 L34.8975,223.889 L34.8975,225.248 L32.3818,225.248 L32.3818,227.99 L32.9756,227.99 C34.2139,227.986 35.2686,227.939 36.5068,227.732 L36.4365,227.123 C35.2646,227.314 34.2764,227.369 33.1396,227.373 L33.1396,225.842 L35.6553,225.842 L35.6553,223.287 L32.374,223.287 L32.374,223.889 Z M41.3271,227.279 L41.3271,226.943 L40.6084,226.943 L40.6084,227.279 C40.6045,227.955 40.1162,228.686 39.2178,229.006 L39.5928,229.553 C40.2529,229.311 40.7139,228.846 40.9678,228.295 C41.1826,228.865 41.6084,229.361 42.2803,229.615 C42.9209,229.35 43.3389,228.838 43.5615,228.275 C43.8037,228.846 44.2764,229.314 44.9678,229.553 L45.335,229.006 C44.4209,228.709 43.9404,228.006 43.9443,227.279 L43.9443,226.943 L43.2178,226.943 L43.2178,227.279 C43.2178,227.818 42.9014,228.486 42.2607,228.896 C41.624,228.518 41.3271,227.881 41.3271,227.279 Z M39.0381,224.701 C39.042,225.67 39.8311,226.342 40.9053,226.342 C41.9756,226.342 42.7646,225.67 42.7646,224.701 C42.7646,223.721 41.9756,223.049 40.9053,223.045 C39.8311,223.049 39.042,223.721 39.0381,224.701 Z M39.7646,224.701 C39.7607,224.088 40.2412,223.674 40.9053,223.678 C41.5615,223.674 42.0381,224.088 42.0381,224.701 C42.0381,225.311 41.5615,225.725 40.9053,225.725 C40.2412,225.725 39.7607,225.311 39.7646,224.701 Z M43.96,226.646 L44.7021,226.646 L44.7021,222.662 L43.96,222.662 L43.96,226.646 Z M51.4756,224.701 L47.3896,224.701 L47.3896,222.904 L46.6553,222.904 L46.6553,225.295 L51.4756,225.295 L51.4756,224.701 Z M45.8037,226.771 L52.21,226.771 L52.21,226.178 L45.8037,226.178 L45.8037,226.771 Z M46.6006,229.49 L51.5225,229.49 L51.5225,228.881 L47.3428,228.881 L47.3428,227.436 L46.6006,227.436 L46.6006,229.49 Z M57.1084,224.436 L57.1084,223.24 L56.3662,223.24 L56.3662,224.436 C56.3623,225.717 55.6357,227.061 54.5615,227.576 L55.0225,228.178 C55.8193,227.764 56.4326,226.924 56.7451,225.932 C57.0537,226.865 57.6436,227.646 58.4053,228.045 L58.8662,227.451 C57.8232,226.943 57.1006,225.674 57.1084,224.436 Z M59.3896,229.654 L60.1318,229.654 L60.1318,226.076 L61.2568,226.076 L61.2568,225.443 L60.1318,225.443 L60.1318,222.654 L59.3896,222.654 L59.3896,229.654 Z M67.9756,225.553 L61.5928,225.553 L61.5928,226.146 L64.4053,226.146 L64.4053,226.756 L62.3584,226.756 L62.3584,227.326 L66.4365,227.326 L66.4365,227.857 L62.3662,227.857 L62.3662,229.584 L67.3662,229.584 L67.3662,229.014 L63.0928,229.014 L63.0928,228.396 L67.1709,228.396 L67.1709,226.756 L65.1475,226.756 L65.1475,226.146 L67.9756,226.146 L67.9756,225.553 Z M62.4131,225.037 L67.1553,225.037 L67.1553,222.881 L62.4131,222.881 L62.4131,225.037 Z M63.1396,224.451 L63.1396,223.467 L66.4131,223.467 L66.4131,224.451 L63.1396,224.451 Z M30.6396,238.834 C30.6475,240.311 31.0654,241.533 31.7959,242.584 L32.5615,242.584 C32.0225,241.807 31.5068,240.232 31.5068,238.834 C31.5068,237.439 32.0225,235.865 32.5615,235.092 L31.7959,235.092 C31.0654,236.139 30.6475,237.361 30.6396,238.834 Z M35.2412,241.068 C36.4209,241.068 37.2568,240.268 37.2568,239.154 C37.2568,238.064 36.4717,237.275 35.4053,237.271 C34.9756,237.275 34.5771,237.428 34.3428,237.654 L34.2881,237.654 L34.4756,236.068 L36.9678,236.068 L36.9678,235.334 L33.7646,235.334 L33.3975,238.482 L34.21,238.482 C34.4014,238.135 34.749,237.982 35.2021,237.982 C35.9131,237.99 36.4209,238.49 36.4209,239.178 C36.4209,239.85 35.9287,240.346 35.2412,240.35 C34.6709,240.346 34.21,239.994 34.1631,239.514 L33.3271,239.514 C33.3662,240.416 34.1709,241.068 35.2412,241.068 Z M38.1787,240.99 L39.0146,240.99 L39.0146,238.373 C39.0146,237.803 39.4131,237.412 39.8818,237.412 C40.3389,237.412 40.6553,237.713 40.6553,238.178 L40.6553,240.99 L41.4834,240.99 L41.4834,238.287 C41.4834,237.779 41.792,237.412 42.3271,237.412 C42.7646,237.412 43.124,237.65 43.124,238.225 L43.124,240.99 L43.96,240.99 L43.96,238.146 C43.9561,237.174 43.4131,236.693 42.6475,236.693 C42.0342,236.693 41.5732,236.986 41.374,237.443 L41.3271,237.443 C41.1475,236.971 40.7529,236.693 40.1865,236.693 C39.6279,236.693 39.21,236.971 39.0303,237.443 L38.9834,237.443 L38.9834,236.748 L38.1787,236.748 L38.1787,240.99 Z M52.4678,234.654 L51.7256,234.654 L51.7256,241.67 L52.4678,241.67 L52.4678,234.654 Z M46.9131,237.631 C46.9131,239.143 47.667,240.096 48.7256,240.092013 C49.7646,240.096 50.5303,239.143 50.5303,237.631 C50.5303,236.135 49.7646,235.182 48.7256,235.178 C47.667,235.182 46.9131,236.135 46.9131,237.631 Z M47.6318,237.631 C47.6279,236.533 48.0732,235.846 48.7256,235.842 C49.3662,235.846 49.8115,236.533 49.8115,237.631 C49.8115,238.744 49.3662,239.428 48.7256,239.428 C48.0732,239.428 47.6279,238.744 47.6318,237.631 Z M55.999,235.771 L55.999,235.021 L55.2646,235.021 L55.2646,235.709 C55.2568,236.756 54.624,237.689 53.5303,238.076 L53.9287,238.67 C54.7451,238.369 55.3389,237.752 55.6436,236.967 C55.9482,237.658 56.5225,238.205 57.2881,238.475 L57.6865,237.889 C56.6436,237.545 55.9951,236.689 55.999,235.771 Z M54.4756,240.342 C54.4756,241.17 55.3701,241.643 56.8271,241.639025 C58.2646,241.643 59.1475,241.17 59.1475,240.342 C59.1475,239.521 58.2646,239.041 56.8271,239.044975 C55.3701,239.041 54.4756,239.521 54.4756,240.342 Z M55.2177812,240.342 C55.2139,239.896 55.8154,239.631 56.8271,239.631 C57.8311,239.631 58.4248,239.896 58.4209191,240.342 C58.4248,240.803 57.8311,241.053 56.8271,241.061 C55.8154,241.053 55.2139,240.803 55.2177812,240.342 Z M58.3428,238.881 L59.085,238.881 L59.085,237.037 L60.1006,237.037 L60.1006,236.412 L59.085,236.412 L59.085,234.654 L58.3428,234.654 L58.3428,238.881 Z M62.4209,238.834 C62.4131,237.361 61.9951,236.139 61.2646,235.092 L60.499,235.092 C61.0381,235.865 61.5537,237.439 61.5537,238.834 C61.5537,240.232 61.0381,241.807 60.499,242.584 L61.2646,242.584 C61.9951,241.533 62.4131,240.311 62.4209,238.834 Z" id="Shape" fill="#979797" fill-rule="nonzero"></path>
        <path d="M270.088,222.654 L269.346,222.654 L269.346,229.646 L270.088,229.646 L270.088,226.061 L271.174,226.061 L271.174,225.443 L270.088,225.443 L270.088,222.654 Z M264.643,227.779 L265.057,228.357 C267.362,227.221 268.252,225.412 268.26,223.389 L264.995,223.389 L264.995,224.006 L267.502,224.006 C267.35,225.639 266.397,226.904 264.643,227.779 Z M277.112,222.654 L276.37,222.654 L276.37,229.654 L277.112,229.654 L277.112,226.107 L278.127,226.107 L278.127,225.498 L277.112,225.498 L277.112,222.654 Z M271.487,227.686 L272.073,228.1 C273.342,226.748 273.655,225.154 273.659,223.404 L271.737,223.404 L271.737,224.014 L272.956,224.014 C272.881,225.416 272.51,226.619 271.487,227.686 Z M273.487,228.154 L274.081,228.561 C275.366,227.041 275.588,225.174 275.588,223.404 L273.885,223.404 L273.885,224.014 L274.889,224.014 C274.834,225.506 274.53,226.936 273.487,228.154 Z M284.26,222.654 L283.518,222.654 L283.518,229.67 L284.26,229.67 L284.26,222.654 Z M278.706,225.631 C278.706,227.143 279.459,228.096 280.518,228.092013 C281.557,228.096 282.323,227.143 282.323,225.631 C282.323,224.135 281.557,223.182 280.518,223.178 C279.459,223.182 278.706,224.135 278.706,225.631 Z M279.424,225.631 C279.42,224.533 279.866,223.846 280.518,223.842 C281.159,223.846 281.604,224.533 281.604,225.631 C281.604,226.744 281.159,227.428 280.518,227.428 C279.866,227.428 279.42,226.744 279.424,225.631 Z M289.76,227.279 L289.76,226.943 L289.042,226.943 L289.042,227.279 C289.038,227.955 288.549,228.686 287.651,229.006 L288.026,229.553 C288.686,229.311 289.147,228.846 289.401,228.295 C289.616,228.865 290.042,229.361 290.713,229.615 C291.354,229.35 291.772,228.838 291.995,228.275 C292.237,228.846 292.709,229.314 293.401,229.553 L293.768,229.006 C292.854,228.709 292.374,228.006 292.377,227.279 L292.377,226.943 L291.651,226.943 L291.651,227.279 C291.651,227.818 291.334,228.486 290.694,228.896 C290.057,228.518 289.76,227.881 289.76,227.279 Z M287.471,224.701 C287.475,225.67 288.264,226.342 289.338,226.342 C290.409,226.342 291.198,225.67 291.198,224.701 C291.198,223.721 290.409,223.049 289.338,223.045 C288.264,223.049 287.475,223.721 287.471,224.701 Z M288.198,224.701 C288.194,224.088 288.674,223.674 289.338,223.678 C289.995,223.674 290.471,224.088 290.471,224.701 C290.471,225.311 289.995,225.725 289.338,225.725 C288.674,225.725 288.194,225.311 288.198,224.701 Z M292.393,226.646 L293.135,226.646 L293.135,222.662 L292.393,222.662 L292.393,226.646 Z M299.909,224.701 L295.823,224.701 L295.823,222.904 L295.088,222.904 L295.088,225.295 L299.909,225.295 L299.909,224.701 Z M294.237,226.771 L300.643,226.771 L300.643,226.178 L294.237,226.178 L294.237,226.771 Z M295.034,229.49 L299.956,229.49 L299.956,228.881 L295.776,228.881 L295.776,227.436 L295.034,227.436 L295.034,229.49 Z M305.542,224.436 L305.542,223.24 L304.799,223.24 L304.799,224.436 C304.795,225.717 304.069,227.061 302.995,227.576 L303.456,228.178 C304.252,227.764 304.866,226.924 305.178,225.932 C305.487,226.865 306.077,227.646 306.838,228.045 L307.299,227.451 C306.256,226.943 305.534,225.674 305.542,224.436 Z M307.823,229.654 L308.565,229.654 L308.565,226.076 L309.69,226.076 L309.69,225.443 L308.565,225.443 L308.565,222.654 L307.823,222.654 L307.823,229.654 Z M316.409,225.553 L310.026,225.553 L310.026,226.146 L312.838,226.146 L312.838,226.756 L310.792,226.756 L310.792,227.326 L314.87,227.326 L314.87,227.857 L310.799,227.857 L310.799,229.584 L315.799,229.584 L315.799,229.014 L311.526,229.014 L311.526,228.396 L315.604,228.396 L315.604,226.756 L313.581,226.756 L313.581,226.146 L316.409,226.146 L316.409,225.553 Z M310.846,225.037 L315.588,225.037 L315.588,222.881 L310.846,222.881 L310.846,225.037 Z M311.573,224.451 L311.573,223.467 L314.846,223.467 L314.846,224.451 L311.573,224.451 Z M273.35,238.834 C273.358,240.311 273.776,241.533 274.506,242.584 L275.272,242.584 C274.733,241.807 274.217,240.232 274.217,238.834 C274.217,237.439 274.733,235.865 275.272,235.092 L274.506,235.092 C273.776,236.139 273.358,237.361 273.35,238.834 Z M282.28,235.678 L281.288,235.678 L281.288,234.654 L280.545,234.654 L280.545,238.803 L281.288,238.803 L281.288,237.803 L282.28,237.803 L282.28,237.178 L281.288,237.178 L281.288,236.287 L282.28,236.287 L282.28,235.678 Z M275.897,236.732 C275.889,237.721 276.686,238.404 277.756,238.404 C278.831,238.404 279.616,237.721 279.624,236.732 C279.616,235.752 278.831,235.061 277.756,235.061 C276.686,235.061 275.889,235.752 275.897,236.732 Z M276.624,236.732 C276.616,236.107 277.1,235.697 277.756,235.693 C278.413,235.697 278.893,236.107 278.897,236.732 C278.893,237.361 278.413,237.779 277.756,237.771 C277.1,237.779 276.616,237.361 276.624,236.732 Z M276.663,239.717 L280.545,239.717 L280.545,241.654 L281.288,241.654 L281.288,239.115 L276.663,239.115 L276.663,239.717 Z M284.772,239.889 L287.522,239.889 L287.522,240.99 L288.334,240.99 L288.334,239.889 L289.108,239.889 L289.108,239.162 L288.334,239.162 L288.334,235.334 L287.272,235.334 L284.772,239.193 L284.772,239.889 Z M285.678,239.162 L285.678,239.115 L287.459,236.357 L287.522,236.357 L287.522,239.162 L285.678,239.162 Z M291.944,241.068 C293.252,241.068 294.018,240.014 294.022,238.162 C294.018,236.322 293.241,235.256 291.944,235.256 C290.643,235.256 289.866,236.322 289.866,238.162 C289.866,240.014 290.635,241.068 291.944,241.068 Z M290.725,238.162 C290.725,236.756 291.182,235.986 291.944,235.982 C292.702,235.986 293.163,236.756 293.163,238.162 C293.163,239.572 292.706,240.326 291.944,240.326 C291.178,240.326 290.721,239.572 290.725,238.162 Z M296.717,241.076 C297.717,241.076 298.37,240.471 298.459,239.646 L297.647,239.646 C297.542,240.104 297.19,240.369 296.717,240.365 C296.018,240.369 295.569,239.795 295.569,238.865 C295.569,237.963 296.03,237.393 296.717,237.389 C297.245,237.393 297.561,237.725 297.647,238.123 L298.459,238.123 C298.37,237.264 297.67,236.693 296.702,236.693 C295.506,236.693 294.729,237.596 294.732984,238.889 C294.729,240.166 295.479,241.076 296.717,241.076 Z M299.249,240.99 L300.084,240.99 L300.084,238.373 C300.084,237.803 300.483,237.412 300.952,237.412 C301.409,237.412 301.725,237.713 301.725,238.178 L301.725,240.99 L302.553,240.99 L302.553,238.287 C302.553,237.779 302.862,237.412 303.397,237.412 C303.834,237.412 304.194,237.65 304.194,238.225 L304.194,240.99 L305.03,240.99 L305.03,238.146 C305.026,237.174 304.483,236.693 303.717,236.693 C303.104,236.693 302.643,236.986 302.444,237.443 L302.397,237.443 C302.217,236.971 301.823,236.693 301.256,236.693 C300.698,236.693 300.28,236.971 300.1,237.443 L300.053,237.443 L300.053,236.748 L299.249,236.748 L299.249,240.99 Z M307.709,238.834 C307.702,237.361 307.284,236.139 306.553,235.092 L305.788,235.092 C306.327,235.865 306.842,237.439 306.842,238.834 C306.842,240.232 306.327,241.807 305.788,242.584 L306.553,242.584 C307.284,241.533 307.702,240.311 307.709,238.834 Z" id="Shape" fill="#979797" fill-rule="nonzero"></path>
        <line x1="46.0301" y1="215.612" x2="46.0303" y2="190.612" id="Path" stroke="#979797" stroke-dasharray="2"></line>
        <path d="M119.923,134.764 C126.212,123.932 135.893,115.474 147.495,110.677 C159.096,105.879 171.955,105.038 184.086,108.286 C196.217,111.517 206.925,118.656 214.571,128.581 C222.217,138.506 226.354,150.657 226.354,163.17 C226.354,175.683 222.217,187.834 214.571,197.759 C206.925,207.684 196.217,214.806 184.086,218.054 C171.955,221.285 159.096,220.461 147.495,215.663 C135.893,210.865 126.212,202.424 119.923,191.576" id="Path" stroke="#113287" stroke-width="0.75" stroke-linecap="round" stroke-linejoin="round"></path>
        <path d="M227.421,83.29 L224.147,83.29 L224.147,86.3369 L227.421,86.3369 L227.421,83.29 Z M224.765,88.4229 C224.765,89.2705 225.671,89.7627 227.116,89.7666 C228.546,89.7627 229.437,89.2705 229.437,88.4229 C229.437,87.5947 228.546,87.0947 227.116,87.0947 C225.671,87.0947 224.765,87.5947 224.765,88.4229 Z M224.874,85.7354 L224.874,83.8838 L226.694,83.8838 L226.694,85.7354 L224.874,85.7354 Z M225.50698,88.4229 C225.503,87.958 226.104,87.6924 227.116,87.6885 C228.12,87.6924 228.714,87.958 228.71002,88.4229 C228.714,88.9072 228.12,89.165 227.116,89.1729 C226.104,89.165 225.503,88.9072 225.50698,88.4229 Z M228.632,86.876 L229.374,86.876 L229.374,85.0713 L230.39,85.0713 L230.39,84.4619 L229.374,84.4619 L229.374,82.7666 L228.632,82.7666 L228.632,86.876 Z M234.335,83.2822 L231.062,83.2822 L231.062,86.4307 L234.335,86.4307 L234.335,83.2822 Z M231.663,87.8604 L235.546,87.8604 L235.546,89.7744 L236.288,89.7744 L236.288,87.2666 L231.663,87.2666 L231.663,87.8604 Z M231.788,85.8369 L231.788,83.8682 L233.608,83.8682 L233.608,85.8369 L231.788,85.8369 Z M235.546,86.915 L236.288,86.915 L236.288,85.1572 L237.304,85.1572 L237.304,84.54 L236.288,84.54 L236.288,82.7666 L235.546,82.7666 L235.546,86.915 Z" id="Shape" fill="#979797" fill-rule="nonzero"></path>
        <path d="M107.51,83.3838 L107.51,83.001 L106.736,83.001 L106.736,83.3838 C106.732,84.3252 105.6,85.1846 104.229,85.3682 L104.525,85.9775 C105.662,85.7939 106.666,85.2002 107.123,84.376 C107.58,85.2002 108.584,85.7939 109.729,85.9775 L110.018,85.3682 C108.643,85.1846 107.506,84.3135 107.51,83.3838 Z M103.924,87.2744 L106.736,87.2744 L106.736,89.7666 L107.463,89.7666 L107.463,87.2744 L110.307,87.2744 L110.307,86.665 L103.924,86.665 L103.924,87.2744 Z M116.674,82.7666 L115.932,82.7666 L115.932,84.5479 L114.627,84.5479 L114.627,85.1572 L115.932,85.1572 L115.932,86.9307 L116.674,86.9307 L116.674,82.7666 Z M110.838,86.2979 L111.229,86.8916 C112.064,86.583 112.678,85.9541 112.982,85.1729 C113.287,85.8643 113.865,86.4268 114.65,86.6963 L115.033,86.1104 C113.975,85.751 113.342,84.8877 113.346,84.001 L113.346,83.8525 L114.846,83.8525 L114.846,83.251 L111.072,83.251 L111.072,83.8525 L112.588,83.8525 L112.588,84.0088 C112.592,84.9736 111.924,85.9189 110.838,86.2979 Z M111.962987,88.4463 C111.959,89.2783 112.857,89.7627 114.33,89.7666 C115.795,89.7627 116.693,89.2783 116.697,88.4463 C116.693,87.6143 115.795,87.1299 114.33,87.126 C112.857,87.1299 111.959,87.6143 111.962987,88.4463 Z M112.69698,88.4463 C112.693,87.9697 113.303,87.7002 114.33,87.7041 C115.35,87.7002 115.959,87.9697 115.963,88.4463 C115.959,88.9189 115.35,89.1885 114.33,89.1807 C113.303,89.1885 112.693,88.9189 112.69698,88.4463 Z M119.846,84.915 L119.846,84.6338 L121.088,84.6338 L121.088,84.0244 L119.846,84.0244 L119.846,83.0166 L119.15,83.0166 L119.15,84.0244 L117.885,84.0244 L117.885,84.6338 L119.15,84.6338 L119.15,84.915 C119.143,86.0439 118.643,87.2432 117.674,87.8057 L118.111,88.3682 C118.787,87.9619 119.256,87.2314 119.506,86.3838 C119.76,87.1768 120.229,87.8447 120.908,88.2041 L121.322,87.6572 C120.357,87.1377 119.846,86.0166 119.846,84.915 Z M120.627,86.1104 L121.635,86.1104 L121.635,89.415 L122.338,89.415 L122.338,82.915 L121.635,82.915 L121.635,85.4932 L120.627,85.4932 L120.627,86.1104 Z M123.049,89.7666 L123.76,89.7666 L123.76,82.7666 L123.049,82.7666 L123.049,89.7666 Z" id="Shape" fill="#979797" fill-rule="nonzero"></path>
        <path d="M115.413,132.51 C122.182,120.819 132.602,111.69 145.088,106.512 C157.574,101.333 171.414,100.426 184.47,103.932 C197.526,107.419 209.051,115.125 217.28,125.837 C225.509,136.55 229.962,149.665 229.962,163.171 C229.962,176.678 225.509,189.793 217.28,200.505 C209.051,211.218 197.526,218.905 184.47,222.411 C171.414,225.899 157.574,225.009 145.088,219.831 C132.602,214.652 122.182,205.541 115.413,193.832" id="Path" stroke="#113287" stroke-width="0.75" stroke-linecap="round" stroke-linejoin="round"></path>
        <path d="M112.707,134.305 C104.319,140.463 99.1777,151.607 99.1777,163.618 C99.1777,175.647 104.319,186.773 112.707,192.932" id="Path" stroke="#113287" stroke-width="0.75" stroke-linecap="round" stroke-linejoin="round"></path>
        <path d="M126.236,144.226 L114.037,144.226 L114.037,93.3877" id="Path" stroke="#979797" stroke-dasharray="2"></path>
        <path d="M225.912,133.403 L231.157,133.403 L231.157,93.3887" id="Path" stroke="#979797" stroke-dasharray="2"></path>
        <path d="M584.275,128.593 L573.408,128.593 L573.408,110.771" id="Path" stroke="#979797" stroke-dasharray="2"></path>
        <polyline id="Path" stroke="#9FABDB" stroke-width="1.25" points="226.354 163.166 103.413 146.931 77.5306 146.931"></polyline>
        <polyline id="Path" stroke="#9FABDB" stroke-width="1.25" points="226.354 163.167 103.413 179.402 77.5306 179.402"></polyline>
        <polyline id="Path" stroke="#9FABDB" stroke-width="1.25" points="86.583 148.735 90.2037 146.931 86.583 145.127"></polyline>
        <polyline id="Path" stroke="#9FABDB" stroke-width="1.25" points="86.583 177.598 90.2037 179.402 86.583 181.206"></polyline>
        <circle id="Oval" fill="#9FABDB" fill-rule="nonzero" transform="translate(225.962000, 163.167000) scale(-1, 1) translate(-225.962000, -163.167000) " cx="225.962" cy="163.167" r="4"></circle>
        <path d="M45.8443,137.118 C45.7161,137.304 45.5763,137.479 45.4634,137.648 C44.2517,139.722 43.0429,141.796 41.8351,143.87 C41.4867,144.469 41.5777,144.76 42.2371,144.929 C42.7252,145.056 42.7089,145.274 42.4945,145.634 C41.2082,147.823 39.9219,150.012 38.6624,152.216 C38.5179,152.457 38.4758,152.745 38.5447,153.017 C38.7141,153.198 38.9486,153.308 39.1984,153.324 C40.2703,153.52 40.2703,153.51 39.7343,154.384 L34.4982,163.265 C34.0101,164.092 34.1335,164.325 35.104,164.464 C35.4476,164.511 35.795,164.538 36.1434,164.58 C36.8344,164.664 36.9043,164.798 36.5559,165.385 L33.833,169.975 C32.4558,172.27 31.068,174.565 29.7061,176.864 C29.5108,177.062 29.4735,177.365 29.6152,177.603 C29.7568,177.842 30.042,177.958 30.3119,177.887 L43.6143,177.887 L43.6143,189.498 C43.6143,189.704 43.6143,189.911 43.6469,190.117 L48.4705,190.117 C48.4705,189.81 48.4973,189.498 48.5031,189.19 L48.5031,177.881 L61.7088,177.881 C62.0036,177.899 62.2926,177.791 62.5022,177.584 C62.5692,177.298 62.5128,176.997 62.3472,176.753 C60.1105,172.997 57.8614,169.246 55.5998,165.502 C55.1921,164.823 55.2457,164.717 56.0391,164.611 C56.3654,164.569 56.6985,164.548 57.0249,164.505 C57.9523,164.383 58.0968,164.124 57.625,163.334 L54.1737,157.504 L52.228,154.198 C51.9064,153.668 51.9658,153.466 52.5764,153.424 C53.7766,153.334 53.9268,153.004 53.2674,151.913 C52.0347,149.873 50.8556,147.796 49.6554,145.734 C49.3395,145.204 49.3549,145.156 49.9607,144.955 C50.4536,144.791 50.6144,144.521 50.3789,144.107 C49.0601,141.818 47.7364,139.571 46.4233,137.319 C46.3745,137.248 46.3209,137.181 46.2625,137.117 L45.8443,137.117 L45.8443,137.118 Z" id="Path" fill="#113287" fill-rule="nonzero"></path>
        <path d="M566.244,94.6289 L566.244,95.2461 L559.838,95.2461 L559.838,94.6289 L562.658,94.6289 L562.658,93.0117 L560.572,93.0117 L560.572,89.6836 L565.479,89.6836 L565.479,93.0117 L563.393,93.0117 L563.393,94.6289 L566.244,94.6289 Z M561.291,90.2773 L561.291,92.4258 L564.752,92.4258 L564.752,90.2773 L561.291,90.2773 Z M573.244,90.1133 L573.244,90.7227 L572.252,90.7227 L572.252,91.6133 L573.244,91.6133 L573.244,92.2305 L572.252,92.2305 L572.252,93.2539 L571.51,93.2539 L571.51,89.1211 L572.252,89.1211 L572.252,90.1133 L573.244,90.1133 Z M568.721,89.5273 C569.791,89.5273 570.58,90.207 570.588,91.1914 C570.58,92.168 569.791,92.8477 568.721,92.8555 C567.65,92.8477 566.854,92.168 566.861,91.1914 C566.854,90.207 567.65,89.5273 568.721,89.5273 Z M568.721,90.1523 C568.064,90.1523 567.58,90.5742 567.588,91.1914 C567.58,91.8164 568.064,92.2227 568.721,92.2305 C569.377,92.2227 569.861,91.8164 569.861,91.1914 C569.861,90.5742 569.377,90.1523 568.721,90.1523 Z M569.994,93.4414 C571.424,93.4414 572.314,93.9336 572.314,94.7773 C572.314,95.6133 571.424,96.1133 569.994,96.1055 C568.549,96.1133 567.643,95.6133 567.643,94.7773 C567.643,93.9336 568.549,93.4414 569.994,93.4414 Z M569.994,94.043 C568.979,94.043 568.377,94.3086 568.385,94.7773 C568.377,95.2539 568.979,95.5117 569.994,95.5117 C571.002,95.5117 571.588,95.2539 571.588,94.7773 C571.588,94.3086 571.002,94.043 569.994,94.043 Z M575.76,91.2695 C575.76,92.3711 576.268,93.4961 577.236,94.0117 L576.822,94.5586 C576.146,94.1992 575.674,93.5273 575.424,92.7305 C575.17,93.5859 574.701,94.3203 574.025,94.7227 L573.588,94.1602 C574.557,93.5977 575.057,92.4023 575.064,91.2695 L575.064,90.9883 L573.799,90.9883 L573.799,90.3789 L575.064,90.3789 L575.064,89.3711 L575.76,89.3711 L575.76,90.3789 L577.002,90.3789 L577.002,90.9883 L575.76,90.9883 L575.76,91.2695 Z M579.674,89.1211 L579.674,96.1211 L578.963,96.1211 L578.963,89.1211 L579.674,89.1211 Z M578.252,89.2695 L578.252,95.7695 L577.549,95.7695 L577.549,92.4648 L576.541,92.4648 L576.541,91.8477 L577.549,91.8477 L577.549,89.2695 L578.252,89.2695 Z M586.174,89.5352 L586.174,90.0898 C586.174,90.6836 586.174,91.3789 586.002,92.3008 L586.986,92.3008 L586.986,92.9102 L580.58,92.9102 L580.58,92.3008 L585.252,92.3008 C585.436,91.3906 585.439,90.7266 585.439,90.1367 L581.385,90.1367 L581.385,89.5352 L586.174,89.5352 Z M586.385,95.3633 L586.385,95.9727 L581.416,95.9727 L581.416,93.6367 L582.15,93.6367 L582.15,95.3633 L586.385,95.3633 Z M570.338,99.7383 C570.33,100.668 571.471,101.543 572.846,101.723 L572.557,102.332 C571.412,102.148 570.404,101.555 569.955,100.73 C569.494,101.559 568.49,102.148 567.354,102.332 L567.057,101.723 C568.432,101.543 569.557,100.676 569.564,99.7383 L569.564,99.3555 L570.338,99.3555 L570.338,99.7383 Z M573.135,103.02 L573.135,103.629 L570.291,103.629 L570.291,106.121 L569.564,106.121 L569.564,103.629 L566.752,103.629 L566.752,103.02 L573.135,103.02 Z M580.049,102.621 L580.049,103.215 L577.221,103.215 L577.221,103.949 L579.268,103.949 L579.268,106.105 L578.518,106.105 L578.518,104.551 L574.377,104.551 L574.377,103.949 L576.486,103.949 L576.486,103.215 L573.666,103.215 L573.666,102.621 L580.049,102.621 Z M577.221,99.0977 L577.221,99.793 L579.408,99.793 L579.408,100.379 L577.268,100.379 C577.338,101.074 578.299,101.586 579.697,101.715 L579.463,102.27 C578.26,102.16 577.283,101.758 576.854,101.098 C576.42,101.758 575.443,102.16 574.244,102.27 L574.01,101.715 C575.4,101.586 576.361,101.074 576.447,100.379 L574.307,100.379 L574.307,99.793 L576.486,99.793 L576.486,99.0977 L577.221,99.0977 Z" id="Shape" fill="#979797" fill-rule="nonzero"></path>
        <line x1="290.53" y1="215.612" x2="290.53" y2="190.612" id="Path" stroke="#979797" stroke-dasharray="2"></line>
        <path d="M364.423,134.764 C370.712,123.932 380.393,115.474 391.995,110.677 C403.596,105.879 416.455,105.038 428.586,108.286 C440.717,111.517 451.425,118.656 459.071,128.581 C466.717,138.506 470.854,150.657 470.854,163.17 C470.854,175.683 466.717,187.834 459.071,197.759 C451.425,207.684 440.717,214.806 428.586,218.054 C416.455,221.285 403.596,220.461 391.995,215.663 C380.393,210.865 370.712,202.424 364.423,191.576" id="Path" stroke="#113287" stroke-width="0.75" stroke-linecap="round" stroke-linejoin="round"></path>
        <path d="M359.913,132.51 C366.682,120.819 377.102,111.69 389.588,106.512 C402.074,101.333 415.914,100.426 428.97,103.932 C442.026,107.419 453.551,115.125 461.78,125.837 C470.009,136.55 474.462,149.665 474.462,163.171 C474.462,176.678 470.009,189.793 461.78,200.505 C453.551,211.218 442.026,218.905 428.97,222.411 C415.914,225.899 402.074,225.009 389.588,219.831 C377.102,214.652 366.682,205.541 359.913,193.832" id="Path" stroke="#113287" stroke-width="0.75" stroke-linecap="round" stroke-linejoin="round"></path>
        <path d="M357.207,134.305 C348.819,140.463 343.678,151.607 343.678,163.618 C343.678,175.647 348.819,186.773 357.207,192.932" id="Path" stroke="#113287" stroke-width="0.75" stroke-linecap="round" stroke-linejoin="round"></path>
        <polyline id="Path" stroke="#9FABDB" stroke-width="1.25" points="485.607 163.166 350.479 146.931 322.031 146.931"></polyline>
        <polyline id="Path" stroke="#9FABDB" stroke-width="1.25" points="485.607 163.167 350.479 179.403 322.031 179.403"></polyline>
        <polyline id="Path" stroke="#9FABDB" stroke-width="1.25" points="332.241 148.735 336.325 146.931 332.241 145.127"></polyline>
        <polyline id="Path" stroke="#9FABDB" stroke-width="1.25" points="332.241 177.598 336.325 179.402 332.241 181.206"></polyline>
        <circle id="Oval" fill="#9FABDB" fill-rule="nonzero" transform="translate(485.529000, 163.167000) scale(-1, 1) translate(-485.529000, -163.167000) " cx="485.529" cy="163.167" r="4"></circle>
        <path d="M300.575,139.73 L280.485,139.73 C279.392,139.73 278.344,140.163 277.571,140.934 C276.798,141.705 276.364,142.75 276.364,143.84 L276.364,183.396 C276.364,184.486 276.798,185.531 277.571,186.302 C278.344,187.074 279.392,187.506 280.485,187.506 L300.575,187.506 C301.667,187.506 302.716,187.073 303.489,186.302 C304.261,185.532 304.696,184.486 304.696,183.396 L304.696,143.84 C304.696,142.75 304.261,141.706 303.489,140.934 C302.716,140.163 301.667,139.73 300.575,139.73 Z M290.53,183.858 C289.984,183.858 289.459,183.642 289.073,183.257 C288.687,182.871 288.469,182.348 288.469,181.803 C288.469,181.259 288.687,180.736 289.073,180.35 C289.459,179.965 289.984,179.749 290.53,179.749 C291.076,179.749 291.601,179.965 291.987,180.35 C292.373,180.736 292.59,181.259 292.59,181.803 C292.59,182.348 292.373,182.871 291.987,183.257 C291.601,183.642 291.076,183.858 290.53,183.858 Z M301.605,177.026 L279.455,177.026 L279.455,145.227 L301.605,145.227 L301.605,177.026 Z" id="Shape" fill="#113287" fill-rule="nonzero"></path>
        <path d="M577.918,134.764 C584.207,123.932 593.888,115.474 605.49,110.677 C617.091,105.879 629.95,105.038 642.081,108.286 C654.212,111.517 664.92,118.656 672.566,128.581 C680.212,138.506 684.349,150.657 684.349,163.17 C684.349,175.683 680.212,187.834 672.566,197.759 C664.92,207.684 654.212,214.806 642.081,218.054 C629.95,221.285 617.091,220.461 605.49,215.663 C593.888,210.865 584.207,202.424 577.918,191.576" id="Path" stroke="#113287" stroke-width="0.75" stroke-linecap="round" stroke-linejoin="round"></path>
        <path d="M573.408,132.51 C580.177,120.819 590.597,111.69 603.083,106.512 C615.569,101.333 629.409,100.426 642.465,103.932 C655.522,107.419 667.046,115.125 675.275,125.837 C683.504,136.55 687.957,149.665 687.957,163.171 C687.957,176.678 683.504,189.793 675.275,200.505 C667.046,211.218 655.522,218.905 642.465,222.411 C629.409,225.899 615.569,225.009 603.083,219.831 C590.597,214.652 580.177,205.541 573.408,193.832" id="Path" stroke="#113287" stroke-width="0.75" stroke-linecap="round" stroke-linejoin="round"></path>
        <path d="M570.702,134.305 C562.314,140.463 557.173,151.607 557.173,163.618 C557.173,175.647 562.314,186.773 570.702,192.932" id="Path" stroke="#113287" stroke-width="0.75" stroke-linecap="round" stroke-linejoin="round"></path>
        <polyline id="Path" stroke="#9FABDB" stroke-width="1.25" points="684.27 163.166 561.394 146.931 535.526 146.931"></polyline>
        <polyline id="Path" stroke="#9FABDB" stroke-width="1.25" points="684.27 163.167 561.394 179.403 535.526 179.403"></polyline>
        <polyline id="Path" stroke="#9FABDB" stroke-width="1.25" points="544.595 148.735 548.224 146.931 544.595 145.127"></polyline>
        <polyline id="Path" stroke="#9FABDB" stroke-width="1.25" points="544.595 177.598 548.224 179.402 544.595 181.206"></polyline>
        <circle id="Oval" stroke="#FFB341" fill="#FFFFFF" fill-rule="nonzero" transform="translate(705.695000, 163.167000) scale(-1, 1) translate(-705.695000, -163.167000) " cx="705.695" cy="163.167" r="3.5"></circle>
        <path d="M690.965,163.266 C690.769,163.461 690.769,163.777 690.965,163.973 L694.147,167.155 C694.342,167.35 694.658,167.35 694.854,167.155 C695.049,166.959 695.049,166.643 694.854,166.448 L692.025,163.619 L694.854,160.791 C695.049,160.595 695.049,160.279 694.854,160.084 C694.658,159.888 694.342,159.888 694.147,160.084 L690.965,163.266 Z M698.989,163.119 L691.318,163.119 L691.318,164.119 L698.989,164.119 L698.989,163.119 Z" id="Shape" fill="#9FABDB" fill-rule="nonzero"></path>
        <line x1="256.25" y1="53" x2="256.25" y2="263" id="Path" stroke="#AABAF4" stroke-width="0.5"></line>
        <line x1="500.25" y1="53" x2="500.25" y2="263" id="Path" stroke="#AABAF4" stroke-width="0.5"></line>
        <path d="M588.55,135.159 C588.63,135.423 588.909,135.572 589.173,135.492 L593.48,134.187 C593.744,134.107 593.894,133.828 593.813,133.564 C593.733,133.299 593.454,133.15 593.19,133.23 L589.362,134.39 L588.202,130.562 C588.122,130.298 587.843,130.148 587.578,130.229 C587.314,130.309 587.165,130.588 587.245,130.852 L588.55,135.159 Z M595.457,121.936 L588.587,134.778 L589.469,135.25 L596.338,122.408 L595.457,121.936 Z" id="Shape" fill="#113287" fill-rule="nonzero"></path>
        <path d="M588.55,191.174 C588.63,190.91 588.909,190.761 589.173,190.841 L593.48,192.146 C593.744,192.226 593.894,192.505 593.813,192.769 C593.733,193.034 593.454,193.183 593.19,193.103 L589.362,191.943 L588.202,195.771 C588.122,196.035 587.843,196.185 587.578,196.104 C587.314,196.024 587.165,195.745 587.245,195.481 L588.55,191.174 Z M595.457,204.397 L588.587,191.555 L589.469,191.084 L596.338,203.925 L595.457,204.397 Z" id="Shape" fill="#113287" fill-rule="nonzero"></path>
        <line x1="663.947" y1="155.738" x2="512.5" y2="304" id="Path" stroke="#E2E6F6" stroke-dasharray="2"></line>
        <line x1="719.434" y1="173.524" x2="729" y2="375.5" id="Path" stroke="#E2E6F6" stroke-dasharray="2"></line>
        <path d="M691.784,189.2713 C705.951374,189.2713 717.4363,177.786374 717.4363,163.619 C717.4363,149.451626 705.951374,137.9667 691.784,137.9667 C677.616626,137.9667 666.1317,149.451626 666.1317,163.619 C666.1317,177.786374 677.616626,189.2713 691.784,189.2713 Z" id="Oval" stroke="#E2E6F6" stroke-width="2" stroke-dasharray="2"></path>
        <rect id="Rectangle" stroke="#113287" stroke-width="0.75" x="284.311" y="340.375" width="69.25" height="23.25" rx="3.625"></rect>
        <rect id="Rectangle" fill="#F3F6FF" fill-rule="nonzero" x="256" y="0" width="97" height="26" rx="5"></rect>
        <path d="M289.441,16.7861 L289.441,18.2949 L277.239,18.2949 L277.239,16.7861 L282.396,16.7861 L282.396,13.8125 L284.271,13.8125 L284.271,16.7861 L289.441,16.7861 Z M288.372,7.52832 L288.372,9.03711 L284.314,9.03711 C284.468,10.7949 286.124,12.4282 288.987,12.8457 L288.255,14.3252 C285.918,13.915 284.19,12.7725 283.333,11.1904 C282.483,12.8018 280.77,13.9736 278.47,14.3984 L277.737,12.9189 C280.506,12.4722 282.168,10.8022 282.322,9.03711 L278.25,9.03711 L278.25,7.52832 L288.372,7.52832 Z M297.82,7.03027 L297.82,8.52441 L295.169,8.52441 C295.22,9.85742 296.187,11.249 298.216,11.835 L297.352,13.3145 C295.85,12.8823 294.817,11.9961 294.231,10.8828 C293.624,12.1133 292.54,13.124 290.994,13.5928 L290.086,12.1426 C292.173,11.4761 293.213,9.93799 293.294,8.52441 L290.599,8.52441 L290.599,7.03027 L297.82,7.03027 Z M301.438,6.51758 L301.438,13.2998 L299.578,13.2998 L299.578,10.7363 L297.483,10.7363 L297.483,9.25684 L299.578,9.25684 L299.578,6.51758 L301.438,6.51758 Z M301.438,13.8125 L301.438,17.416 L294.451,17.416 L294.451,18.2656 L301.834,18.2656 L301.834,19.7158 L292.576,19.7158 L292.576,16.0537 L299.578,16.0537 L299.578,15.292 L292.562,15.292 L292.562,13.8125 L301.438,13.8125 Z M311.546,10.1504 C311.531,12.1865 312.615,14.5303 314.812,15.541 L313.772,17.0059 C312.286,16.3247 311.224,14.9624 310.638,13.3584 C310.037,15.1235 308.946,16.6177 307.4,17.3428 L306.316,15.8633 C308.543,14.8232 309.656,12.3477 309.671,10.1504 L309.671,9.33008 L306.844,9.33008 L306.844,7.80664 L314.227,7.80664 L314.227,9.33008 L311.546,9.33008 L311.546,10.1504 Z M317.142,6.51758 L317.142,11.6006 L319.104,11.6006 L319.104,13.168 L317.142,13.168 L317.142,19.8477 L315.267,19.8477 L315.267,6.51758 L317.142,6.51758 Z M330.34,7.10352 L330.34,8.04102 C330.34,9.02246 330.34,10.2676 330.076,11.9375 L331.79,11.9375 L331.79,13.4316 L319.588,13.4316 L319.588,11.9375 L328.187,11.9375 C328.428,10.5386 328.472,9.46191 328.479,8.58301 L321.082,8.58301 L321.082,7.10352 L330.34,7.10352 Z M330.384,14.999 L330.384,19.8623 L328.509,19.8623 L328.509,16.4639 L320.877,16.4639 L320.877,14.999 L330.384,14.999 Z" id="Shape" fill="#020F50" fill-rule="nonzero"></path>
        <rect id="Rectangle" fill="#F3F6FF" fill-rule="nonzero" x="12" y="0" width="97" height="26" rx="5"></rect>
        <path d="M45.4414,16.7861 L45.4414,18.2949 L33.2393,18.2949 L33.2393,16.7861 L38.3955,16.7861 L38.3955,13.8125 L40.2705,13.8125 L40.2705,16.7861 L45.4414,16.7861 Z M44.3721,7.52832 L44.3721,9.03711 L40.3145,9.03711 C40.4683,10.7949 42.1235,12.4282 44.9873,12.8457 L44.2549,14.3252 C41.9185,13.915 40.1899,12.7725 39.333,11.1904 C38.4834,12.8018 36.7695,13.9736 34.4697,14.3984 L33.7373,12.9189 C36.5059,12.4722 38.1685,10.8022 38.3223,9.03711 L34.25,9.03711 L34.25,7.52832 L44.3721,7.52832 Z M53.8203,7.03027 L53.8203,8.52441 L51.1689,8.52441 C51.2202,9.85742 52.187,11.249 54.2158,11.835 L53.3516,13.3145 C51.8501,12.8823 50.8174,11.9961 50.2314,10.8828 C49.6235,12.1133 48.5396,13.124 46.9941,13.5928 L46.0859,12.1426 C48.1733,11.4761 49.2134,9.93799 49.2939,8.52441 L46.5986,8.52441 L46.5986,7.03027 L53.8203,7.03027 Z M57.4385,6.51758 L57.4385,13.2998 L55.5781,13.2998 L55.5781,10.7363 L53.4834,10.7363 L53.4834,9.25684 L55.5781,9.25684 L55.5781,6.51758 L57.4385,6.51758 Z M57.4385,13.8125 L57.4385,17.416 L50.4512,17.416 L50.4512,18.2656 L57.834,18.2656 L57.834,19.7158 L48.5762,19.7158 L48.5762,16.0537 L55.5781,16.0537 L55.5781,15.292 L48.5615,15.292 L48.5615,13.8125 L57.4385,13.8125 Z M73.7861,6.51758 L73.7861,19.877 L71.8965,19.877 L71.8965,6.51758 L73.7861,6.51758 Z M66.5498,7.45508 C68.5566,7.45508 70.0508,9.30078 70.0508,12.2012 C70.0508,15.1309 68.5566,16.9619 66.5498,16.9619 C64.499,16.9619 63.0049,15.1309 63.0195,12.2012 C63.0049,9.30078 64.499,7.45508 66.5498,7.45508 Z M66.5498,9.13965 C65.5098,9.13965 64.8213,10.2236 64.8213,12.2012 C64.8213,14.1934 65.5098,15.2627 66.5498,15.2627 C67.5605,15.2627 68.249,14.1934 68.249,12.2012 C68.249,10.2236 67.5605,9.13965 66.5498,9.13965 Z M79.6016,7.05957 C81.5498,7.05957 82.9561,8.1582 82.9561,9.76953 C82.9561,11.0732 81.9966,12.0693 80.5684,12.377 L80.5684,13.3438 C81.6084,13.2852 82.6558,13.1899 83.6299,13.0508 L83.7764,14.4131 C81.0371,14.8965 77.9756,14.9551 75.749,14.9551 L75.5586,13.4756 C76.4814,13.4756 77.5581,13.4683 78.6934,13.4316 L78.6934,12.3916 C77.2212,12.0986 76.2324,11.0952 76.2471,9.76953 C76.2324,8.1582 77.6387,7.05957 79.6016,7.05957 Z M79.6016,8.46582 C78.6494,8.48047 77.9756,8.93457 77.9902,9.76953 C77.9756,10.5752 78.6494,11.0586 79.6016,11.0586 C80.5537,11.0586 81.1982,10.5752 81.1982,9.76953 C81.1982,8.93457 80.5537,8.48047 79.6016,8.46582 Z M86.252,6.53223 L86.252,10.7217 L87.9512,10.7217 L87.9512,12.2744 L86.252,12.2744 L86.252,16.6982 L84.377,16.6982 L84.377,6.53223 L86.252,6.53223 Z M86.7061,18.1045 L86.7061,19.5986 L77.3164,19.5986 L77.3164,15.8047 L79.1914,15.8047 L79.1914,18.1045 L86.7061,18.1045 Z" id="Shape" fill="#020F50" fill-rule="nonzero"></path>
        <rect id="Rectangle" fill="#F3F6FF" fill-rule="nonzero" x="500" y="0" width="97" height="26" rx="5"></rect>
        <path d="M533.441,16.7861 L533.441,18.2949 L521.239,18.2949 L521.239,16.7861 L526.396,16.7861 L526.396,13.8125 L528.271,13.8125 L528.271,16.7861 L533.441,16.7861 Z M532.372,7.52832 L532.372,9.03711 L528.314,9.03711 C528.468,10.7949 530.124,12.4282 532.987,12.8457 L532.255,14.3252 C529.918,13.915 528.19,12.7725 527.333,11.1904 C526.483,12.8018 524.77,13.9736 522.47,14.3984 L521.737,12.9189 C524.506,12.4722 526.168,10.8022 526.322,9.03711 L522.25,9.03711 L522.25,7.52832 L532.372,7.52832 Z M541.82,7.03027 L541.82,8.52441 L539.169,8.52441 C539.22,9.85742 540.187,11.249 542.216,11.835 L541.352,13.3145 C539.85,12.8823 538.817,11.9961 538.231,10.8828 C537.624,12.1133 536.54,13.124 534.994,13.5928 L534.086,12.1426 C536.173,11.4761 537.213,9.93799 537.294,8.52441 L534.599,8.52441 L534.599,7.03027 L541.82,7.03027 Z M545.438,6.51758 L545.438,13.2998 L543.578,13.2998 L543.578,10.7363 L541.483,10.7363 L541.483,9.25684 L543.578,9.25684 L543.578,6.51758 L545.438,6.51758 Z M545.438,13.8125 L545.438,17.416 L538.451,17.416 L538.451,18.2656 L545.834,18.2656 L545.834,19.7158 L536.576,19.7158 L536.576,16.0537 L543.578,16.0537 L543.578,15.292 L536.562,15.292 L536.562,13.8125 L545.438,13.8125 Z M561.2,6.53223 L561.2,10.2822 L563.002,10.2822 L563.002,11.8203 L561.2,11.8203 L561.2,16.3467 L559.325,16.3467 L559.325,6.53223 L561.2,6.53223 Z M561.684,18.1191 L561.684,19.6133 L552.558,19.6133 L552.558,15.3359 L554.418,15.3359 L554.418,18.1191 L561.684,18.1191 Z M552.88,7.46973 L552.88,9.40332 L555.604,9.40332 L555.604,7.46973 L557.479,7.46973 L557.479,14.2227 L551.02,14.2227 L551.02,7.46973 L552.88,7.46973 Z M552.88,12.7578 L555.604,12.7578 L555.604,10.8389 L552.88,10.8389 L552.88,12.7578 Z M575.746,12.7578 L575.746,14.2227 L563.588,14.2227 L563.588,12.7578 L575.746,12.7578 Z M569.652,14.9697 C572.538,14.9697 574.281,15.8486 574.296,17.416 C574.281,18.9834 572.538,19.8623 569.652,19.8623 C566.723,19.8623 564.979,18.9834 564.979,17.416 C564.979,15.8486 566.723,14.9697 569.652,14.9697 Z M569.652,16.376 C567.807,16.376 566.869,16.7129 566.884,17.416 C566.869,18.1045 567.807,18.4414 569.652,18.4414 C571.454,18.4414 572.406,18.1045 572.421,17.416 C572.406,16.7129 571.454,16.376 569.652,16.376 Z M569.667,6.7959 C572.597,6.81055 574.501,7.80664 574.516,9.41797 C574.501,11.0439 572.597,12.0254 569.667,12.0254 C566.723,12.0254 564.804,11.0439 564.804,9.41797 C564.804,7.80664 566.723,6.81055 569.667,6.7959 Z M569.667,8.26074 C567.807,8.26074 566.737,8.62695 566.752,9.41797 C566.737,10.1943 567.807,10.5752 569.667,10.5752 C571.513,10.5752 572.582,10.1943 572.582,9.41797 C572.582,8.62695 571.513,8.26074 569.667,8.26074 Z" id="Shape" fill="#020F50" fill-rule="nonzero"></path>
        <circle id="Oval" fill="#FFB341" fill-rule="nonzero" transform="translate(684.000000, 163.000000) scale(-1, 1) translate(-684.000000, -163.000000) " cx="684" cy="163" r="4"></circle>
        <path d="M557.789,321.455 L554.516,321.455 L554.516,324.502 L557.789,324.502 L557.789,321.455 Z M555.133,326.588 C555.133,327.436 556.039,327.928 557.484,327.932 C558.914,327.928 559.805,327.436 559.805,326.588 C559.805,325.76 558.914,325.26 557.484,325.26 C556.039,325.26 555.133,325.76 555.133,326.588 Z M555.242,323.9 L555.242,322.049 L557.062,322.049 L557.062,323.9 L555.242,323.9 Z M555.87498,326.588 C555.871,326.123 556.473,325.857 557.484,325.854 C558.488,325.857 559.082,326.123 559.07802,326.588 C559.082,327.072 558.488,327.33 557.484,327.338 C556.473,327.33 555.871,327.072 555.87498,326.588 Z M559,325.041 L559.742,325.041 L559.742,323.236 L560.758,323.236 L560.758,322.627 L559.742,322.627 L559.742,320.932 L559,320.932 L559,325.041 Z M564.703,321.447 L561.43,321.447 L561.43,324.596 L564.703,324.596 L564.703,321.447 Z M562.031,326.025 L565.914,326.025 L565.914,327.939 L566.656,327.939 L566.656,325.432 L562.031,325.432 L562.031,326.025 Z M562.156,324.002 L562.156,322.033 L563.977,322.033 L563.977,324.002 L562.156,324.002 Z M565.914,325.08 L566.656,325.08 L566.656,323.322 L567.672,323.322 L567.672,322.705 L566.656,322.705 L566.656,320.932 L565.914,320.932 L565.914,325.08 Z" id="Shape" fill="#979797" fill-rule="nonzero"></path>
        <path d="M540.342,355.125 L560.898,355.125 L560.898,330.817" id="Path" stroke="#979797" stroke-dasharray="2"></path>
        <line x1="546.072" y1="408.014" x2="699.025" y2="408.014" id="Path" stroke="#113287" stroke-width="2"></line>
        <g id="Clipped" transform="translate(464.977000, 274.638000)">
            <mask id="mask-2" fill="white">
                <use xlink:href="#path-1"></use>
            </mask>
            <g id="Oval"></g>
            <g id="Group" mask="url(#mask-2)" stroke="#113287" stroke-linecap="round" stroke-linejoin="round">
                <g transform="translate(-400.228000, -129.889571)" id="Path">
                    <path d="M24.374,141.469571 C51.392,94.9345713 92.985,58.5995713 142.826,37.9885713 C192.667,17.3775713 247.912,13.7655713 300.028,27.7185713 C352.144,41.6015713 398.145,72.2695713 430.993,114.908571 C463.841,157.547571 481.616,209.747571 481.616,263.506571 C481.616,317.265571 463.841,369.465571 430.993,412.104571 C398.145,454.742571 352.144,485.340571 300.028,499.293571 C247.912,513.176571 192.667,509.634571 142.826,489.023571 C92.985,468.412571 51.392,432.148571 24.374,385.543571" stroke-width="1.5"></path>
                    <path d="M-2.13162821e-14,131.789571 C29.0786,81.5625713 73.844,42.3435713 127.487,20.0965713 C181.129,-2.1504287 240.587,-6.0494287 296.678,9.0115713 C352.769,23.9955713 402.279,57.0985713 437.633,103.120571 C472.986,149.143571 492.117,205.486571 492.117,263.512571 C492.117,321.537571 472.986,377.880571 437.633,423.903571 C402.279,469.926571 352.769,502.952571 296.678,518.012571 C240.587,532.997571 181.129,529.174571 127.487,506.927571 C73.844,484.680571 29.0786,445.538571 -2.13162821e-14,395.234571" stroke-width="0.75"></path>
                </g>
            </g>
        </g>
        <circle id="Oval" stroke="#E2E6F6" stroke-width="3" cx="598.107" cy="408.107" r="133.607"></circle>
        <line x1="535.965" y1="407.532" x2="520.865" y2="407.532" id="Path" stroke="#113287" stroke-width="1.5" stroke-dasharray="2"></line>
        <path d="M479.98,396.118 L479.98,399.228 L476.637,399.228 L476.637,396.118 L479.98,396.118 Z M477.488,396.806 L477.488,398.524 L479.129,398.524 L479.129,396.806 L477.488,396.806 Z M481.965,395.595 L481.965,397.251 L482.949,397.251 L482.949,397.954 L481.965,397.954 L481.965,399.712 L481.098,399.712 L481.098,395.595 L481.965,395.595 Z M479.668,399.915 C481.113,399.915 482.027,400.431 482.035,401.282 C482.027,402.149 481.113,402.657 479.668,402.657 C478.207,402.657 477.277,402.149 477.277,401.282 C477.277,400.431 478.207,399.915 479.668,399.915 Z M479.668,400.61 C478.699,400.61 478.145,400.845 478.145,401.282 C478.145,401.735 478.699,401.962 479.668,401.962 C480.637,401.962 481.176,401.735 481.176,401.282 C481.176,400.845 480.637,400.61 479.668,400.61 Z M486.895,396.11 L486.895,399.337 L483.551,399.337 L483.551,396.11 L486.895,396.11 Z M484.402,396.798 L484.402,398.649 L486.043,398.649 L486.043,396.798 L484.402,396.798 Z M488.879,395.595 L488.879,397.337 L489.863,397.337 L489.863,398.048 L488.879,398.048 L488.879,399.782 L488.012,399.782 L488.012,395.595 L488.879,395.595 Z M488.879,400.11 L488.879,402.665 L488.012,402.665 L488.012,400.806 L484.176,400.806 L484.176,400.11 L488.879,400.11 Z M496.316,395.595 L496.316,402.657 L495.48,402.657 L495.48,395.595 L496.316,395.595 Z M494.863,395.72 L494.863,402.313 L494.035,402.313 L494.035,398.954 L493.363,398.954 C493.281,400.329 492.691,401.181 491.816,401.173 C490.895,401.181 490.293,400.204 490.293,398.649 C490.293,397.095 490.895,396.134 491.816,396.134 C492.672,396.134 493.254,396.931 493.355,398.251 L494.035,398.251 L494.035,395.72 L494.863,395.72 Z M491.816,396.954 C491.371,396.946 491.09,397.548 491.098,398.649 C491.09,399.751 491.371,400.353 491.816,400.345 C492.285,400.353 492.566,399.751 492.566,398.649 C492.566,397.548 492.285,396.946 491.816,396.954 Z M505.074,395.603 L505.074,399.642 L504.246,399.642 L504.246,397.978 L503.543,397.978 L503.543,399.587 L502.73,399.587 L502.73,395.735 L503.543,395.735 L503.543,397.274 L504.246,397.274 L504.246,395.603 L505.074,395.603 Z M502.09,396.11 L502.09,399.228 L499.309,399.228 L499.309,396.11 L502.09,396.11 Z M500.129,396.782 L500.129,398.571 L501.285,398.571 L501.285,396.782 L500.129,396.782 Z M505.152,399.954 L505.152,400.649 L503.207,400.649 C503.293,401.267 504.125,401.821 505.441,401.97 L505.145,402.618 C503.996,402.493 503.133,402.044 502.73,401.415 C502.316,402.048 501.457,402.493 500.309,402.618 L500.012,401.97 C501.336,401.821 502.164,401.278 502.254,400.649 L500.301,400.649 L500.301,399.954 L505.152,399.954 Z M511.824,395.595 L511.824,402.657 L510.949,402.657 L510.949,395.595 L511.824,395.595 Z M510.332,396.688 L510.332,397.384 L506.098,397.384 L506.098,396.688 L507.777,396.688 L507.777,395.681 L508.66,395.681 L508.66,396.688 L510.332,396.688 Z M508.23,397.837 C509.262,397.837 510.027,398.524 510.027,399.501 C510.027,400.478 509.262,401.157 508.23,401.157 C507.191,401.157 506.434,400.478 506.434,399.501 C506.434,398.524 507.191,397.837 508.23,397.837 Z M508.23,398.548 C507.668,398.548 507.262,398.923 507.262,399.501 C507.262,400.079 507.668,400.446 508.23,400.438 C508.793,400.446 509.191,400.079 509.191,399.501 C509.191,398.923 508.793,398.548 508.23,398.548 Z M518.582,397.595 L518.582,398.282 L513.691,398.282 L513.691,395.853 L514.551,395.853 L514.551,397.595 L518.582,397.595 Z M519.309,399.103 L519.309,399.79 L512.855,399.79 L512.855,399.103 L519.309,399.103 Z M518.629,401.79 L518.629,402.493 L513.629,402.493 L513.629,400.415 L514.496,400.415 L514.496,401.79 L518.629,401.79 Z M497.625,413.11 L497.625,413.821 L491.172,413.821 L491.172,413.11 L493.961,413.11 L493.961,411.649 L494.82,411.649 L494.82,413.11 L497.625,413.11 Z M497.047,408.618 L497.047,409.321 L494.844,409.321 C494.902,410.2 495.82,411.009 497.344,411.212 L497.023,411.892 C495.801,411.72 494.859,411.177 494.391,410.399 C493.922,411.177 492.988,411.72 491.766,411.892 L491.438,411.212 C492.969,411.009 493.883,410.2 493.953,409.321 L491.742,409.321 L491.742,408.618 L493.961,408.618 L493.961,407.704 L494.82,407.704 L494.82,408.618 L497.047,408.618 Z M504,407.595 L504,411.696 L503.133,411.696 L503.133,409.985 L501.914,409.985 L501.914,409.274 L503.133,409.274 L503.133,407.595 L504,407.595 Z M504,412.001 L504,414.571 L499.305,414.571 L499.305,412.001 L504,412.001 Z M500.172,412.688 L500.172,413.868 L503.148,413.868 L503.148,412.688 L500.172,412.688 Z M500.68,408.759 C500.68,409.61 501.25,410.478 502.344,410.853 L501.906,411.54 C501.117,411.271 500.559,410.735 500.25,410.071 C499.938,410.806 499.348,411.396 498.516,411.673 L498.07,410.993 C499.195,410.618 499.797,409.688 499.797,408.751 L499.797,408.696 L498.328,408.696 L498.328,407.993 L502.141,407.993 L502.141,408.696 L500.68,408.696 L500.68,408.759 Z" id="Shape" fill="#113287" fill-rule="nonzero"></path>
        <path d="M579.418,443.273 C580.672,443.273 581.395,442.219 581.395,440.367 C581.395,438.531 580.66,437.461 579.418,437.461 C578.172,437.461 577.438,438.531 577.440991,440.367 C577.438,442.219 578.164,443.273 579.418,443.273 Z M578.121,440.367 C578.125,438.902 578.605,438.074 579.418,438.07 C580.23,438.074 580.711,438.902 580.707025,440.367 C580.711,441.832 580.234,442.648 579.418,442.648 C578.598,442.648 578.125,441.832 578.121,440.367 Z M582.613,443.242 C582.891,443.238 583.117,443.012 583.113,442.734 C583.117,442.461 582.891,442.234 582.613,442.234 C582.34,442.234 582.105,442.461 582.113,442.734 C582.105,443.012 582.34,443.238 582.613,443.242 Z M585.895,443.273 C587.023,443.273 587.844,442.484 587.848,441.391 C587.844,440.289 587.051,439.492 585.973,439.492 C585.574,439.492 585.195,439.625 584.941,439.82 L584.887,439.82 L585.098,438.164 L587.574,438.164 L587.574,437.539 L584.512,437.539 L584.113,440.633 L584.793,440.633 C585,440.266 585.371,440.117 585.848,440.125 C586.609,440.129 587.16,440.672 587.16,441.406 C587.16,442.117 586.629,442.652 585.895,442.656 C585.281,442.652 584.789,442.277 584.738,441.773 L584.059,441.773 C584.102,442.645 584.875,443.273 585.895,443.273 Z M590.676,443.195 C592.398,443.195 593.371,442.125 593.371,440.359 C593.371,438.598 592.398,437.539 590.746,437.539 L588.918,437.539 L588.918,443.195 L590.676,443.195 Z M589.621,442.57 L589.621,438.164 L590.699,438.164 C592.016,438.164 592.684,438.992 592.684,440.359 C592.684,441.73 592.016,442.57 590.629,442.57 L589.621,442.57 Z" id="Shape" fill="#113287" fill-rule="nonzero"></path>
        <path d="M608.722,437.539 L608.011,437.539 L606.605,438.477 L606.605,439.188 L607.98,438.273 L608.011,438.273 L608.011,443.195 L608.722,443.195 L608.722,437.539 Z M610.378,443.242 C610.656,443.238 610.882,443.012 610.878,442.734 C610.882,442.461 610.656,442.234 610.378,442.234 C610.105,442.234 609.87,442.461 609.878,442.734 C609.87,443.012 610.105,443.238 610.378,443.242 Z M613.573,443.273 C614.827,443.273 615.55,442.219 615.55,440.367 C615.55,438.531 614.816,437.461 613.573,437.461 C612.327,437.461 611.593,438.531 611.596984,440.367 C611.593,442.219 612.32,443.273 613.573,443.273 Z M612.277,440.367 C612.281,438.902 612.761,438.074 613.573,438.07 C614.386,438.074 614.866,438.902 614.863014,440.367 C614.866,441.832 614.39,442.648 613.573,442.648 C612.753,442.648 612.281,441.832 612.277,440.367 Z M618.339,443.195 C620.062,443.195 621.034,442.125 621.034,440.359 C621.034,438.598 620.062,437.539 618.409,437.539 L616.581,437.539 L616.581,443.195 L618.339,443.195 Z M617.284,442.57 L617.284,438.164 L618.363,438.164 C619.679,438.164 620.347,438.992 620.347,440.359 C620.347,441.73 619.679,442.57 618.292,442.57 L617.284,442.57 Z" id="Shape" fill="#113287" fill-rule="nonzero"></path>
        <path d="M636.505,437.539 L635.794,437.539 L634.388,438.477 L634.388,439.188 L635.763,438.273 L635.794,438.273 L635.794,443.195 L636.505,443.195 L636.505,437.539 Z M638.161,443.242 C638.439,443.238 638.665,443.012 638.661,442.734 C638.665,442.461 638.439,442.234 638.161,442.234 C637.888,442.234 637.654,442.461 637.661,442.734 C637.654,443.012 637.888,443.238 638.161,443.242 Z M641.443,443.273 C642.572,443.273 643.392,442.484 643.396,441.391 C643.392,440.289 642.599,439.492 641.521,439.492 C641.122,439.492 640.743,439.625 640.49,439.82 L640.435,439.82 L640.646,438.164 L643.122,438.164 L643.122,437.539 L640.06,437.539 L639.661,440.633 L640.341,440.633 C640.548,440.266 640.919,440.117 641.396,440.125 C642.157,440.129 642.708,440.672 642.708,441.406 C642.708,442.117 642.177,442.652 641.443,442.656 C640.829,442.652 640.337,442.277 640.286,441.773 L639.607,441.773 C639.65,442.645 640.423,443.273 641.443,443.273 Z M646.224,443.195 C647.947,443.195 648.919,442.125 648.919,440.359 C648.919,438.598 647.947,437.539 646.294,437.539 L644.466,437.539 L644.466,443.195 L646.224,443.195 Z M645.169,442.57 L645.169,438.164 L646.247,438.164 C647.564,438.164 648.232,438.992 648.232,440.359 C648.232,441.73 647.564,442.57 646.177,442.57 L645.169,442.57 Z" id="Shape" fill="#113287" fill-rule="nonzero"></path>
        <path d="M662.204,443.195 L665.876,443.195 L665.876,442.57 L663.181,442.57 L663.181,442.523 L664.478,441.188 C665.478,440.156 665.771,439.664 665.774,439.031 C665.771,438.152 665.044,437.461 664.017,437.461 C662.993,437.461 662.22,438.133 662.228,439.133 L662.892,439.133 C662.896,438.5 663.317,438.074 663.993,438.07 C664.63,438.074 665.114,438.449 665.118,439.031 C665.114,439.555 664.794,439.938 664.126,440.648 L662.196,442.68 L662.204,443.195 Z M667.384,443.242 C667.661,443.238 667.888,443.012 667.884,442.734 C667.888,442.461 667.661,442.234 667.384,442.234 C667.11,442.234 666.876,442.461 666.884,442.734 C666.876,443.012 667.11,443.238 667.384,443.242 Z M670.579,443.273 C671.833,443.273 672.556,442.219 672.556,440.367 C672.556,438.531 671.821,437.461 670.579,437.461 C669.333,437.461 668.599,438.531 668.602984,440.367 C668.599,442.219 669.325,443.273 670.579,443.273 Z M669.282,440.367 C669.286,438.902 669.767,438.074 670.579,438.07 C671.392,438.074 671.872,438.902 671.868025,440.367 C671.872,441.832 671.396,442.648 670.579,442.648 C669.759,442.648 669.286,441.832 669.282,440.367 Z M675.345,443.195 C677.067,443.195 678.04,442.125 678.04,440.359 C678.04,438.598 677.067,437.539 675.415,437.539 L673.587,437.539 L673.587,443.195 L675.345,443.195 Z M674.29,442.57 L674.29,438.164 L675.368,438.164 C676.685,438.164 677.353,438.992 677.353,440.359 C677.353,441.73 676.685,442.57 675.298,442.57 L674.29,442.57 Z" id="Shape" fill="#113287" fill-rule="nonzero"></path>
        <path d="M691.139,443.195 L694.811,443.195 L694.811,442.57 L692.115,442.57 L692.115,442.523 L693.412,441.188 C694.412,440.156 694.705,439.664 694.709,439.031 C694.705,438.152 693.979,437.461 692.951,437.461 C691.928,437.461 691.154,438.133 691.162,439.133 L691.826,439.133 C691.83,438.5 692.252,438.074 692.928,438.07 C693.564,438.074 694.049,438.449 694.053,439.031 C694.049,439.555 693.729,439.938 693.061,440.648 L691.131,442.68 L691.139,443.195 Z M696.318,443.242 C696.596,443.238 696.822,443.012 696.818,442.734 C696.822,442.461 696.596,442.234 696.318,442.234 C696.045,442.234 695.811,442.461 695.818,442.734 C695.811,443.012 696.045,443.238 696.318,443.242 Z M699.6,443.273 C700.729,443.273 701.549,442.484 701.553,441.391 C701.549,440.289 700.756,439.492 699.678,439.492 C699.279,439.492 698.9,439.625 698.647,439.82 L698.592,439.82 L698.803,438.164 L701.279,438.164 L701.279,437.539 L698.217,437.539 L697.818,440.633 L698.498,440.633 C698.705,440.266 699.076,440.117 699.553,440.125 C700.314,440.129 700.865,440.672 700.865,441.406 C700.865,442.117 700.334,442.652 699.6,442.656 C698.986,442.652 698.494,442.277 698.443,441.773 L697.764,441.773 C697.807,442.645 698.58,443.273 699.6,443.273 Z M704.381,443.195 C706.104,443.195 707.076,442.125 707.076,440.359 C707.076,438.598 706.104,437.539 704.451,437.539 L702.623,437.539 L702.623,443.195 L704.381,443.195 Z M703.326,442.57 L703.326,438.164 L704.404,438.164 C705.721,438.164 706.389,438.992 706.389,440.359 C706.389,441.73 705.721,442.57 704.334,442.57 L703.326,442.57 Z" id="Shape" fill="#113287" fill-rule="nonzero"></path>
        <path d="M546.36,417.64 C551.744776,417.64 556.11,413.274776 556.11,407.89 C556.11,402.505224 551.744776,398.14 546.36,398.14 C540.975224,398.14 536.61,402.505224 536.61,407.89 C536.61,413.274776 540.975224,417.64 546.36,417.64 Z" id="Oval" stroke="#113287" stroke-width="1.5" stroke-dasharray="2" transform="translate(546.360000, 407.890000) scale(-1, 1) translate(-546.360000, -407.890000) "></path>
        <line x1="585.27" y1="391.962" x2="585.27" y2="423.962" id="Path" stroke="#113287"></line>
        <line x1="613.694" y1="391.962" x2="613.694" y2="423.962" id="Path" stroke="#113287"></line>
        <line x1="642.119" y1="391.962" x2="642.119" y2="423.962" id="Path" stroke="#113287"></line>
        <line x1="670.544" y1="391.962" x2="670.544" y2="423.962" id="Path" stroke="#113287"></line>
        <line x1="698.969" y1="391.962" x2="698.969" y2="423.962" id="Path" stroke="#113287"></line>
        <circle id="Oval" stroke="#FFB341" stroke-width="1.5" fill="#FFFFFF" fill-rule="nonzero" transform="translate(699.045000, 407.962000) scale(-1, 1) translate(-699.045000, -407.962000) " cx="699.045" cy="407.962" r="5.25"></circle>
    </g>
</svg>