<svg width="549" height="28" viewBox="0 0 549 28" fill="none" xmlns="http://www.w3.org/2000/svg">
<rect width="549" height="28" rx="4" fill="#F3F6FF"/>
<path d="M85.8787 10.5283H84.7537V14.4307H85.4392C86.5862 14.4307 87.8342 14.3647 89.1394 14.0967L89.0164 13.1826C87.9045 13.4111 86.8542 13.4858 85.8787 13.5034V10.5283ZM85.5886 17.8496H91.0378V16.9531H86.7224V15.2041H85.5886V17.8496ZM89.6492 15.7402H90.7742V13.1826H91.8552V12.2422H90.7742V10.001H89.6492V15.7402Z" fill="#113287"/>
<path d="M94.9581 11.8027V10.6074H93.8243V11.8027C93.8199 13.354 93.1388 14.8877 91.7413 15.4766L92.4181 16.4082C93.3937 15.9644 94.0484 15.0942 94.4088 14.0132C94.7735 15.002 95.4064 15.8018 96.3204 16.2148L96.9796 15.3184C95.6217 14.7427 94.9537 13.2705 94.9581 11.8027ZM97.4103 18.0078H98.5441V9.99219H97.4103V18.0078Z" fill="#113287"/>
<path d="M106.692 11.0645H105.611V10.001H104.486V14.8262H105.611V13.6836H106.692V12.7607H105.611V11.9961H106.692V11.0645ZM99.5464 11.3545H102.13V12.0137H99.5551V14.4746H100.232C101.853 14.4746 102.882 14.4351 104.029 14.2197L103.906 13.3232C102.886 13.5034 101.99 13.5518 100.671 13.5605V12.8574H103.22V10.4756H99.5464V11.3545ZM100.232 16.4873C100.232 17.4321 101.282 17.9814 102.974 17.9814C104.635 17.9814 105.686 17.4321 105.69 16.4873C105.686 15.5249 104.635 14.9492 102.974 14.9492C101.282 14.9492 100.232 15.5249 100.232 16.4873ZM101.339 16.4873C101.331 16.0435 101.906 15.8149 102.974 15.8193C104.029 15.8149 104.582 16.0435 104.582 16.4873C104.582 16.9224 104.029 17.1465 102.974 17.1465C101.906 17.1465 101.331 16.9224 101.339 16.4873Z" fill="#113287"/>
<path d="M116.669 10.0801H115.983V14.668H116.669V12.6553H117.846V12.0664H116.669V10.0801ZM110.551 14.0439L110.833 14.5801C113.14 13.9692 114.52 12.5586 114.524 10.5811H110.903V11.1523H113.79C113.649 12.4795 112.467 13.5254 110.551 14.0439ZM111.553 15.5908H115.983V17.8936H116.669V15.0283H111.553V15.5908Z" fill="#113287"/>
<path d="M121.925 10.6689H118.312V14.123H121.925V10.6689ZM118.972 15.6875H123.401V17.9111H124.087V15.1338H118.972V15.6875ZM118.989 13.5605V11.2227H121.257V13.5605H118.989ZM123.401 14.7119H124.087V12.6992H125.265V12.1191H124.087V10.0801H123.401V14.7119Z" fill="#113287"/>
<path d="M132.094 10.0801H131.426V17.8936H132.094V10.0801ZM125.493 13.4551C125.498 15.1162 126.157 16.1753 127.172 16.1709C128.135 16.1753 128.789 15.2217 128.855 13.7012H129.862V17.498H130.521V10.2471H129.862V13.1299H128.851C128.763 11.6577 128.121 10.7437 127.172 10.7393C126.157 10.7437 125.498 11.7939 125.493 13.4551ZM126.144 13.4551C126.135 12.1851 126.539 11.3896 127.172 11.3896C127.809 11.3896 128.214 12.1851 128.209 13.4551C128.214 14.7207 127.809 15.5205 127.172 15.5117C126.539 15.5205 126.135 14.7207 126.144 13.4551Z" fill="#113287"/>
<path d="M138.695 10.8271H135.109V15.9775H135.707C137.206 15.9775 138.159 15.9248 139.311 15.7051L139.223 15.1338C138.142 15.3447 137.214 15.3931 135.804 15.3887V11.4072H138.695V10.8271ZM138.229 13.499H140.506V17.9111H141.2V10.0801H140.506V12.9277H138.229V13.499Z" fill="#113287"/>
<path d="M150.078 10.0801H149.392V17.8936H150.078V13.8418H151.343V13.2617H150.078V10.0801ZM144.084 15.8633L144.47 16.4082C147.015 15.1514 148.052 13.1343 148.056 10.9238H144.444V11.5039H147.358C147.199 13.354 146.101 14.8613 144.084 15.8633Z" fill="#113287"/>
<path d="M157.637 10.0801H156.942V17.8936H157.637V13.8857H158.823V13.3057H157.637V10.0801ZM151.423 15.7314L151.977 16.127C153.396 14.6284 153.814 12.7915 153.822 10.9326H151.669V11.5127H153.168C153.08 13.0684 152.601 14.5229 151.423 15.7314ZM153.664 16.2588L154.227 16.6455C155.69 14.9448 155.962 12.7871 155.967 10.9326H154.068V11.5127H155.316C155.251 13.1431 154.886 14.8789 153.664 16.2588Z" fill="#113287"/>
<path d="M166.013 14.0527H158.859V14.624H162.146V16.2236H162.84V14.624H166.013V14.0527ZM159.667 11.8555C159.663 12.8179 160.757 13.4155 162.427 13.4111C164.097 13.4155 165.178 12.8179 165.178 11.8555C165.178 10.8843 164.097 10.2866 162.427 10.2822C160.757 10.2866 159.663 10.8843 159.667 11.8555ZM159.782 17.7266H165.213V17.1377H160.476V15.4414H159.782V17.7266ZM160.406 11.8555C160.397 11.2314 161.21 10.8491 162.427 10.8447C163.64 10.8491 164.449 11.2314 164.449 11.8555C164.449 12.4619 163.64 12.8486 162.427 12.8486C161.21 12.8486 160.397 12.4619 160.406 11.8555Z" fill="#113287"/>
<path d="M175.339 16.3291H172.087V14.5361H171.41V16.3291H168.185V16.9092H175.339V16.3291ZM168.58 14.2725L168.853 14.8174C170.11 14.5977 171.256 13.9648 171.749 12.9849C172.25 13.9648 173.397 14.5977 174.645 14.8174L174.908 14.2725C173.41 14.0308 172.105 13.1211 172.105 11.8994H174.653V11.3281H172.087V10.2471H171.41V11.3281H168.853V11.8994H171.402C171.393 13.1211 170.088 14.0308 168.58 14.2725Z" fill="#113287"/>
<path d="M182.081 10.0801H181.386V12.04H179.804V12.6201H181.386V14.6592H182.081V10.0801ZM175.638 14.0352L175.999 14.5801C176.926 14.2417 177.646 13.5254 177.985 12.6201C178.323 13.4287 179.004 14.0835 179.883 14.4043L180.244 13.8594C179.101 13.4507 178.319 12.4751 178.319 11.4688V11.1611H180.068V10.5898H175.858V11.1611H177.625V11.4688C177.625 12.5806 176.79 13.6265 175.638 14.0352ZM176.974 17.7881H182.081V15.0459H176.974V17.7881ZM177.66 17.2256V15.5996H181.404V17.2256H177.66Z" fill="#113287"/>
<path d="M188.805 17.933C190.894 17.93 192.596 16.2308 192.596 14.142C192.596 12.056 190.894 10.3509 188.805 10.3509C186.719 10.3509 185.017 12.056 185.02 14.142C185.017 16.2308 186.719 17.93 188.805 17.933ZM186.086 14.142C186.086 12.642 187.311 11.4203 188.811 11.4173C190.308 11.4203 191.53 12.642 191.53 14.142C191.53 15.639 190.308 16.8636 188.811 16.8666C187.311 16.8636 186.086 15.639 186.086 14.142Z" fill="#FCB44A"/>
<path d="M197.715 10.2207C195.97 10.2207 194.946 10.6997 194.946 11.5654C194.946 12.4531 195.97 12.9321 197.715 12.9365C199.45 12.9321 200.47 12.4531 200.474 11.5654C200.47 10.6997 199.45 10.2207 197.715 10.2207ZM194.155 14.0264H201.274V13.4639H194.155V14.0264ZM195.016 15.2305H199.683V15.9424H195.034V17.8057H200.597V17.2607H195.719V16.4521H200.36V14.7031H195.016V15.2305ZM195.667 11.5654C195.658 11.0513 196.418 10.7437 197.715 10.7393C199.011 10.7437 199.767 11.0513 199.771 11.5654C199.767 12.1104 199.011 12.4092 197.715 12.4092C196.418 12.4092 195.658 12.1104 195.667 11.5654Z" fill="#113287"/>
<path d="M210.108 10.0889H209.449V12.0576H208.412V10.2383H207.761V14.5449H208.412V12.6289H209.449V14.6064H210.108V10.0889ZM203.832 14.0615H206.856V10.6777H203.832V14.0615ZM204.483 13.5254V11.2314H206.214V13.5254H204.483ZM204.588 17.3311L204.843 17.8584C206.025 17.687 207.102 17.1509 207.55 16.3467C207.998 17.1509 209.08 17.687 210.266 17.8584L210.512 17.3311C209.176 17.1553 207.972 16.4653 207.919 15.5732H210.196V15.0107H204.896V15.5732H207.181C207.133 16.4785 205.92 17.1553 204.588 17.3311Z" fill="#113287"/>
<path d="M217.333 10.0801H216.638V17.8936H217.333V10.0801ZM211.066 11.917H215.795V11.3545H213.773V10.1592H213.079V11.3545H211.066V11.917ZM211.506 14.3516C211.501 15.4106 212.314 16.1445 213.448 16.1445C214.569 16.1445 215.386 15.4106 215.382 14.3516C215.386 13.2969 214.569 12.5586 213.448 12.5586C212.314 12.5586 211.501 13.2969 211.506 14.3516ZM212.156 14.3516C212.16 13.644 212.701 13.1343 213.448 13.1387C214.186 13.1343 214.727 13.644 214.722 14.3516C214.727 15.0635 214.186 15.5645 213.448 15.5557C212.701 15.5645 212.16 15.0635 212.156 14.3516Z" fill="#113287"/>
<path d="M224.997 10.0801H224.338V17.8936H224.997V10.0801ZM218.318 15.7051L218.722 16.2061C219.812 15.5645 220.568 14.7603 221.038 13.8506H222.694V17.498H223.354V10.291H222.694V13.2881H221.293C221.561 12.5938 221.684 11.8511 221.684 11.082H218.652V11.6533H220.998C220.866 13.2881 220.014 14.6987 218.318 15.7051Z" fill="#113287"/>
<path d="M233.673 10.0801H232.987V17.8936H233.673V13.877H234.982V13.3057H233.673V10.0801ZM227.582 11.9082H232.231V11.3369H230.28V10.1768H229.595V11.3369H227.582V11.9082ZM228.03 14.3516C228.026 15.4106 228.834 16.1445 229.946 16.1445C231.049 16.1445 231.853 15.4106 231.862 14.3516C231.853 13.2969 231.049 12.5586 229.946 12.5586C228.834 12.5586 228.026 13.2969 228.03 14.3516ZM228.689 14.3516C228.685 13.644 229.217 13.1343 229.946 13.1387C230.667 13.1343 231.194 13.644 231.203 14.3516C231.194 15.0635 230.667 15.5645 229.946 15.5557C229.217 15.5645 228.685 15.0635 228.689 14.3516Z" fill="#113287"/>
<path d="M241.364 12.4531H236.697V10.3701H236.011V13.0068H241.364V12.4531ZM235.035 14.6328H242.19V14.0703H235.035V14.6328ZM235.967 17.7002H241.407V17.1289H236.653V15.4326H235.967V17.7002Z" fill="#113287"/>
<path d="M250.681 12.4619H246.031V10.3789H245.346V13.0244H250.681V12.4619ZM244.361 14.5186H247.64V16.1357H248.325V14.5186H251.489V13.9473H244.361V14.5186ZM245.275 17.7266H250.733V17.1465H245.961V15.4414H245.275V17.7266Z" fill="#113287"/>
<path d="M254.337 10.6514C253.102 10.6558 252.223 11.4028 252.228 12.4883C252.223 13.5781 253.102 14.3208 254.337 14.3252C255.563 14.3208 256.433 13.5781 256.438 12.4883C256.433 11.4028 255.563 10.6558 254.337 10.6514ZM251.824 15.5996L251.92 16.1885C253.326 16.1885 255.247 16.1797 257.035 15.8457L256.983 15.3359C255.256 15.5908 253.265 15.604 251.824 15.5996ZM252.905 12.4883C252.9 11.7632 253.502 11.2578 254.337 11.2578C255.163 11.2578 255.765 11.7632 255.761 12.4883C255.765 13.2178 255.163 13.7188 254.337 13.7188C253.502 13.7188 252.9 13.2178 252.905 12.4883ZM257.501 17.9111H258.187V10.0801H257.501V17.9111Z" fill="#113287"/>
<path d="M267.311 10.4053H262.002V10.9678H266.625C266.629 11.4731 266.621 12.0796 266.454 12.9189H261.097V13.4639H264.314V14.4834H261.949V15.0371H266.651V15.8633H261.958V17.8057H267.539V17.2432H262.652V16.3643H267.337V14.4834H264.99V13.4639H268.251V12.9189H267.148C267.311 12.084 267.311 11.4116 267.311 10.9063V10.4053Z" fill="#113287"/>
<path d="M271.222 11.293V11.0645H272.971V10.4932H268.761V11.0645H270.528V11.2842C270.528 12.2949 269.688 13.2705 268.55 13.666L268.893 14.2109C269.807 13.8945 270.532 13.209 270.879 12.3696C271.218 13.1299 271.908 13.7363 272.795 14.0264L273.138 13.4814C272.009 13.1211 271.218 12.2202 271.222 11.293ZM269.921 15.0723H274.298V15.8545H269.939V17.8057H275.283V17.252H270.624V16.3818H274.984V14.5098H269.921V15.0723ZM272.725 12.4004H274.298V14.123H274.984V10.0801H274.298V11.8291H272.725V12.4004Z" fill="#113287"/>
<path d="M279.642 10.5635H276.25V11.1172H278.957V12.2246H276.267V14.5273H276.821C278.403 14.5273 279.198 14.501 280.17 14.3428L280.099 13.7715C279.181 13.9385 278.421 13.9692 276.953 13.9648V12.752H279.642V10.5635ZM277.146 15.8721H281.717V17.9111H282.411V15.3096H277.146V15.8721ZM280.161 13.4375H281.717V14.8877H282.411V10.0889H281.717V11.249H280.161V11.8115H281.717V12.8662H280.161V13.4375Z" fill="#113287"/>
<path d="M287.685 10.9502H283.712V11.5127H286.99C286.995 12.1367 286.977 13.0859 286.762 14.3955L287.456 14.457C287.68 13.0068 287.68 11.9741 287.685 11.3545V10.9502ZM283.273 15.5996L283.36 16.1709C284.758 16.1797 286.595 16.1445 288.238 15.8896L288.203 15.3711C287.39 15.4678 286.503 15.5249 285.637 15.5557V13.1826H284.96V15.5776C284.358 15.5908 283.787 15.5952 283.273 15.5996ZM288.695 17.8936H289.381V13.9473H290.647V13.3496H289.381V10.0801H288.695V17.8936Z" fill="#113287"/>
<path d="M296.624 10.7656H293.038V14.3867H296.624V12.8311H298.452V15.793H299.146V10.0889H298.452V12.2686H296.624V10.7656ZM293.723 13.833V11.3369H295.947V13.833H293.723ZM294.128 17.7266H299.366V17.1465H294.822V15.2656H294.128V17.7266Z" fill="#113287"/>
<path d="M308.2 10.4668H302.838V11.0205H307.514C307.514 11.5918 307.514 12.2334 307.312 13.1387L307.989 13.2178C308.195 12.2905 308.195 11.605 308.2 11.0117V10.4668ZM301.995 14.3076H309.105V13.7539H305.616V12.1719H304.939V13.7539H301.995V14.3076ZM302.504 17.3223L302.759 17.8584C303.95 17.665 305.04 17.1025 305.515 16.25C305.989 17.1025 307.079 17.665 308.27 17.8584L308.534 17.3223C307.11 17.1113 305.866 16.3291 305.862 15.292V14.9316H305.168V15.292C305.163 16.3291 303.919 17.1113 302.504 17.3223Z" fill="#113287"/>
<path d="M316.101 10.0801H315.434V17.8936H316.101V10.0801ZM309.501 13.4551C309.505 15.1162 310.164 16.1753 311.18 16.1709C312.142 16.1753 312.797 15.2217 312.863 13.7012H313.869V17.498H314.528V10.2471H313.869V13.1299H312.858C312.77 11.6577 312.129 10.7437 311.18 10.7393C310.164 10.7437 309.505 11.7939 309.501 13.4551ZM310.151 13.4551C310.142 12.1851 310.547 11.3896 311.18 11.3896C311.817 11.3896 312.221 12.1851 312.217 13.4551C312.221 14.7207 311.817 15.5205 311.18 15.5117C310.547 15.5205 310.142 14.7207 310.151 13.4551Z" fill="#113287"/>
<path d="M325.876 16.3291H322.624V14.5361H321.947V16.3291H318.721V16.9092H325.876V16.3291ZM319.117 14.2725L319.389 14.8174C320.646 14.5977 321.793 13.9648 322.285 12.9849C322.786 13.9648 323.933 14.5977 325.181 14.8174L325.445 14.2725C323.946 14.0308 322.641 13.1211 322.641 11.8994H325.19V11.3281H322.624V10.2471H321.947V11.3281H319.389V11.8994H321.938C321.929 13.1211 320.624 14.0308 319.117 14.2725Z" fill="#113287"/>
<path d="M332.617 10.0801H331.923V12.04H330.341V12.6201H331.923V14.6592H332.617V10.0801ZM326.175 14.0352L326.535 14.5801C327.462 14.2417 328.183 13.5254 328.521 12.6201C328.86 13.4287 329.541 14.0835 330.42 14.4043L330.78 13.8594C329.638 13.4507 328.855 12.4751 328.855 11.4688V11.1611H330.604V10.5898H326.395V11.1611H328.161V11.4688C328.161 12.5806 327.326 13.6265 326.175 14.0352ZM327.511 17.7881H332.617V15.0459H327.511V17.7881ZM328.196 17.2256V15.5996H331.94V17.2256H328.196Z" fill="#113287"/>
<path d="M339.039 17.7145C340.992 17.7145 342.581 16.1255 342.581 14.1725C342.581 12.2195 340.992 10.6305 339.039 10.6305C337.086 10.6305 335.497 12.2195 335.497 14.1725C335.497 16.1255 337.086 17.7145 339.039 17.7145Z" fill="#FCB44A"/>
<path d="M348.013 10.2207C346.268 10.2207 345.244 10.6997 345.244 11.5654C345.244 12.4531 346.268 12.9321 348.013 12.9365C349.749 12.9321 350.768 12.4531 350.773 11.5654C350.768 10.6997 349.749 10.2207 348.013 10.2207ZM344.453 14.0264H351.573V13.4639H344.453V14.0264ZM345.315 15.2305H349.982V15.9424H345.332V17.8057H350.896V17.2607H346.018V16.4521H350.658V14.7031H345.315V15.2305ZM345.965 11.5654C345.956 11.0513 346.717 10.7437 348.013 10.7393C349.309 10.7437 350.065 11.0513 350.07 11.5654C350.065 12.1104 349.309 12.4092 348.013 12.4092C346.717 12.4092 345.956 12.1104 345.965 11.5654Z" fill="#113287"/>
<path d="M360.406 10.0889H359.747V12.0576H358.71V10.2383H358.06V14.5449H358.71V12.6289H359.747V14.6064H360.406V10.0889ZM354.131 14.0615H357.154V10.6777H354.131V14.0615ZM354.781 13.5254V11.2314H356.513V13.5254H354.781ZM354.887 17.3311L355.142 17.8584C356.324 17.687 357.4 17.1509 357.849 16.3467C358.297 17.1509 359.378 17.687 360.564 17.8584L360.811 17.3311C359.475 17.1553 358.271 16.4653 358.218 15.5732H360.494V15.0107H355.194V15.5732H357.479C357.431 16.4785 356.218 17.1553 354.887 17.3311Z" fill="#113287"/>
<path d="M367.631 10.0801H366.937V17.8936H367.631V10.0801ZM361.365 11.917H366.093V11.3545H364.072V10.1592H363.377V11.3545H361.365V11.917ZM361.804 14.3516C361.8 15.4106 362.613 16.1445 363.746 16.1445C364.867 16.1445 365.684 15.4106 365.68 14.3516C365.684 13.2969 364.867 12.5586 363.746 12.5586C362.613 12.5586 361.8 13.2969 361.804 14.3516ZM362.454 14.3516C362.459 13.644 362.999 13.1343 363.746 13.1387C364.485 13.1343 365.025 13.644 365.021 14.3516C365.025 15.0635 364.485 15.5645 363.746 15.5557C362.999 15.5645 362.459 15.0635 362.454 14.3516Z" fill="#113287"/>
<path d="M375.296 10.0801H374.636V17.8936H375.296V10.0801ZM368.616 15.7051L369.02 16.2061C370.11 15.5645 370.866 14.7603 371.336 13.8506H372.993V17.498H373.652V10.291H372.993V13.2881H371.591C371.859 12.5938 371.982 11.8511 371.982 11.082H368.95V11.6533H371.297C371.165 13.2881 370.312 14.6987 368.616 15.7051Z" fill="#113287"/>
<path d="M383.971 10.0801H383.286V17.8936H383.971V13.877H385.281V13.3057H383.971V10.0801ZM377.88 11.9082H382.53V11.3369H380.579V10.1768H379.893V11.3369H377.88V11.9082ZM378.329 14.3516C378.324 15.4106 379.133 16.1445 380.245 16.1445C381.348 16.1445 382.152 15.4106 382.161 14.3516C382.152 13.2969 381.348 12.5586 380.245 12.5586C379.133 12.5586 378.324 13.2969 378.329 14.3516ZM378.988 14.3516C378.983 13.644 379.515 13.1343 380.245 13.1387C380.965 13.1343 381.493 13.644 381.501 14.3516C381.493 15.0635 380.965 15.5645 380.245 15.5557C379.515 15.5645 378.983 15.0635 378.988 14.3516Z" fill="#113287"/>
<path d="M391.662 12.4531H386.995V10.3701H386.309V13.0068H391.662V12.4531ZM385.334 14.6328H392.488V14.0703H385.334V14.6328ZM386.265 17.7002H391.706V17.1289H386.951V15.4326H386.265V17.7002Z" fill="#113287"/>
<path d="M400.979 12.4619H396.33V10.3789H395.644V13.0244H400.979V12.4619ZM394.66 14.5186H397.938V16.1357H398.624V14.5186H401.788V13.9473H394.66V14.5186ZM395.574 17.7266H401.032V17.1465H396.259V15.4414H395.574V17.7266Z" fill="#113287"/>
<path d="M404.636 10.6514C403.401 10.6558 402.522 11.4028 402.526 12.4883C402.522 13.5781 403.401 14.3208 404.636 14.3252C405.862 14.3208 406.732 13.5781 406.736 12.4883C406.732 11.4028 405.862 10.6558 404.636 10.6514ZM402.122 15.5996L402.219 16.1885C403.625 16.1885 405.545 16.1797 407.334 15.8457L407.281 15.3359C405.554 15.5908 403.563 15.604 402.122 15.5996ZM403.203 12.4883C403.199 11.7632 403.801 11.2578 404.636 11.2578C405.462 11.2578 406.064 11.7632 406.059 12.4883C406.064 13.2178 405.462 13.7188 404.636 13.7188C403.801 13.7188 403.199 13.2178 403.203 12.4883ZM407.8 17.9111H408.485V10.0801H407.8V17.9111Z" fill="#113287"/>
<path d="M417.609 10.4053H412.3V10.9678H416.923C416.928 11.4731 416.919 12.0796 416.752 12.9189H411.395V13.4639H414.612V14.4834H412.248V15.0371H416.95V15.8633H412.256V17.8057H417.837V17.2432H412.951V16.3643H417.635V14.4834H415.289V13.4639H418.549V12.9189H417.446C417.609 12.084 417.609 11.4116 417.609 10.9063V10.4053Z" fill="#113287"/>
<path d="M421.52 11.293V11.0645H423.269V10.4932H419.06V11.0645H420.826V11.2842C420.826 12.2949 419.987 13.2705 418.849 13.666L419.191 14.2109C420.105 13.8945 420.831 13.209 421.178 12.3696C421.516 13.1299 422.206 13.7363 423.094 14.0264L423.436 13.4814C422.307 13.1211 421.516 12.2202 421.52 11.293ZM420.22 15.0723H424.597V15.8545H420.237V17.8057H425.581V17.252H420.923V16.3818H425.282V14.5098H420.22V15.0723ZM423.023 12.4004H424.597V14.123H425.282V10.0801H424.597V11.8291H423.023V12.4004Z" fill="#113287"/>
<path d="M429.941 10.5635H426.548V11.1172H429.255V12.2246H426.566V14.5273H427.119C428.701 14.5273 429.497 14.501 430.468 14.3428L430.398 13.7715C429.479 13.9385 428.719 13.9692 427.251 13.9648V12.752H429.941V10.5635ZM427.445 15.8721H432.015V17.9111H432.709V15.3096H427.445V15.8721ZM430.459 13.4375H432.015V14.8877H432.709V10.0889H432.015V11.249H430.459V11.8115H432.015V12.8662H430.459V13.4375Z" fill="#113287"/>
<path d="M437.983 10.9502H434.01V11.5127H437.289C437.293 12.1367 437.276 13.0859 437.06 14.3955L437.755 14.457C437.979 13.0068 437.979 11.9741 437.983 11.3545V10.9502ZM433.571 15.5996L433.659 16.1709C435.056 16.1797 436.893 16.1445 438.537 15.8896L438.502 15.3711C437.689 15.4678 436.801 15.5249 435.935 15.5557V13.1826H435.258V15.5776C434.656 15.5908 434.085 15.5952 433.571 15.5996ZM438.994 17.8936H439.679V13.9473H440.945V13.3496H439.679V10.0801H438.994V17.8936Z" fill="#113287"/>
<path d="M443.626 10.6514C442.391 10.6558 441.512 11.4028 441.517 12.4883C441.512 13.5781 442.391 14.3208 443.626 14.3252C444.852 14.3208 445.722 13.5781 445.727 12.4883C445.722 11.4028 444.852 10.6558 443.626 10.6514ZM441.112 15.5996L441.209 16.1885C442.615 16.1885 444.536 16.1797 446.324 15.8457L446.272 15.3359C444.544 15.5908 442.554 15.604 441.112 15.5996ZM442.193 12.4883C442.189 11.7632 442.791 11.2578 443.626 11.2578C444.452 11.2578 445.054 11.7632 445.05 12.4883C445.054 13.2178 444.452 13.7188 443.626 13.7188C442.791 13.7188 442.189 13.2178 442.193 12.4883ZM446.79 17.9111H447.476V10.0801H446.79V17.9111Z" fill="#113287"/>
<path d="M452.987 12.6289V12.0049H454.762V11.4424H453.005V10.2295H452.31V11.4424H450.526V12.0049H452.319V12.6289C452.315 13.9736 451.462 15.3096 450.315 15.8457L450.711 16.3818C451.598 15.9512 452.323 15.0459 452.666 13.9561C452.991 14.9624 453.673 15.8193 454.534 16.2412L454.938 15.7051C453.804 15.1602 452.991 13.8813 452.987 12.6289ZM455.747 17.8936H456.432V13.877H457.742V13.2881H456.432V10.0801H455.747V17.8936Z" fill="#113287"/>
<path d="M464.246 10.0801H463.552V17.9111H464.246V10.0801ZM458.094 13.4111C458.098 15.0767 458.924 16.1313 460.089 16.127C461.249 16.1313 462.088 15.0767 462.084 13.4111C462.088 11.75 461.249 10.6909 460.089 10.6865C458.924 10.6909 458.098 11.75 458.094 13.4111ZM458.762 13.4111C458.762 12.1411 459.307 11.3062 460.089 11.3018C460.876 11.3062 461.416 12.1411 461.416 13.4111C461.416 14.6812 460.876 15.5161 460.089 15.5117C459.307 15.5161 458.762 14.6812 458.762 13.4111Z" fill="#113287"/>
</svg>
