<svg width="549" height="28" viewBox="0 0 549 28" fill="none" xmlns="http://www.w3.org/2000/svg">
<rect width="549" height="28" rx="4" fill="#F3F6FF"/>
<path d="M93.2205 10.0669H92.0955V13.9692H92.781C93.928 13.9692 95.176 13.9033 96.4812 13.6353L96.3582 12.7212C95.2463 12.9497 94.196 13.0244 93.2205 13.042V10.0669ZM92.9304 17.3882H98.3796V16.4917H94.0642V14.7427H92.9304V17.3882ZM96.991 15.2788H98.116V12.7212H99.197V11.7808H98.116V9.53955H96.991V15.2788Z" fill="#273576"/>
<path d="M102.66 11.3413V10.146H101.526V11.3413C101.522 12.8926 100.841 14.4263 99.4431 15.0151L100.12 15.9468C101.095 15.5029 101.75 14.6328 102.111 13.5518C102.475 14.5405 103.108 15.3403 104.022 15.7534L104.681 14.8569C103.323 14.2812 102.656 12.8091 102.66 11.3413ZM105.112 17.5464H106.246V9.53076H105.112V17.5464Z" fill="#273576"/>
<path d="M111.053 14.4263C109.362 14.4263 108.307 14.9976 108.311 15.9731C108.307 16.9619 109.362 17.5376 111.053 17.5376C112.719 17.5376 113.747 16.9619 113.752 15.9731C113.747 14.9976 112.719 14.4263 111.053 14.4263ZM107.564 13.7935H111.44V10.0317H110.315V11.0425H108.68V10.0317H107.564V13.7935ZM108.68 12.9058V11.9126H110.315V12.9058H108.68ZM109.436 15.9731C109.427 15.5161 110.003 15.3008 111.053 15.2964C112.091 15.3008 112.644 15.5161 112.644 15.9731C112.644 16.4302 112.091 16.6675 111.053 16.6675C110.003 16.6675 109.427 16.4302 109.436 15.9731ZM112.548 14.2505H113.673V12.3257H114.754V11.3853H113.673V9.53076H112.548V14.2505Z" fill="#273576"/>
<path d="M122.488 10.6997H121.451V9.53076H120.326V14.6108H121.451V13.3364H122.488V12.4224H121.451V11.605H122.488V10.6997ZM115.105 11.1655H119.851V10.2954H118.041V9.48682H116.925V10.2954H115.105V11.1655ZM115.492 12.8794C115.492 13.7407 116.305 14.312 117.478 14.312C118.643 14.312 119.447 13.7407 119.447 12.8794C119.447 12.0269 118.643 11.4424 117.478 11.438C116.301 11.4424 115.492 12.0269 115.492 12.8794ZM116.134 16.1138C116.125 16.9927 117.157 17.5332 118.841 17.5288C120.484 17.5332 121.534 16.9927 121.539 16.1138C121.534 15.2129 120.484 14.6855 118.841 14.6812C117.157 14.6855 116.125 15.2129 116.134 16.1138ZM116.591 12.8794C116.586 12.4795 116.942 12.2598 117.478 12.2554C118.019 12.2598 118.384 12.4795 118.384 12.8794C118.384 13.2749 118.019 13.4814 117.478 13.4771C116.942 13.4814 116.586 13.2749 116.591 12.8794ZM117.241 16.1138C117.237 15.7139 117.79 15.5381 118.841 15.5337C119.86 15.5381 120.414 15.7139 120.414 16.1138C120.414 16.4873 119.86 16.6938 118.841 16.6938C117.79 16.6938 117.237 16.4873 117.241 16.1138Z" fill="#273576"/>
<path d="M133.562 10.3306H129.897V15.5513H130.512C131.993 15.5469 133.017 15.5029 134.239 15.2964L134.16 14.7251C132.991 14.9272 132.002 14.98 130.592 14.98V13.0903H133.386V12.5278H130.592V10.9106H133.562V10.3306ZM134.916 17.4321H135.601V13.354H136.911V12.7651H135.601V9.61865H134.916V17.4321Z" fill="#273576"/>
<path d="M143.415 9.62744H142.721V14.2505H141.104V14.7515H142.721V15.5601H143.415V9.62744ZM136.929 13.2485L137.025 13.811C137.68 13.811 138.432 13.811 139.223 13.7803V15.2876H139.917V13.7451C140.633 13.7012 141.367 13.6309 142.062 13.521L142.018 13.02C140.343 13.2266 138.383 13.2397 136.929 13.2485ZM137.562 11.3062C137.557 12.1411 138.339 12.6597 139.495 12.6597C140.642 12.6597 141.424 12.1411 141.429 11.3062C141.424 10.4844 140.642 9.94385 139.495 9.94385C138.339 9.94385 137.557 10.4844 137.562 11.3062ZM138.054 17.2651H143.609V16.6851H138.748V14.98H138.054V17.2651ZM138.221 11.3062C138.212 10.8052 138.731 10.4624 139.495 10.4712C140.238 10.4624 140.765 10.8052 140.77 11.3062C140.765 11.8159 140.238 12.1455 139.495 12.1499C138.731 12.1455 138.212 11.8159 138.221 11.3062Z" fill="#273576"/>
<path d="M147.951 10.1284C146.32 10.1328 145.094 10.9854 145.094 12.2729C145.094 13.5737 146.32 14.4263 147.951 14.4175C149.581 14.4263 150.807 13.5737 150.807 12.2729C150.807 10.9854 149.581 10.1328 147.951 10.1284ZM144.391 16.395H151.545V15.8149H144.391V16.395ZM145.753 12.2729C145.745 11.3369 146.689 10.6865 147.951 10.6909C149.203 10.6865 150.139 11.3369 150.139 12.2729C150.139 13.2222 149.203 13.855 147.951 13.855C146.689 13.855 145.745 13.2222 145.753 12.2729Z" fill="#273576"/>
<path d="M158.964 15.8853H155.703V14.4087H158.243V13.8374H153.391V12.563H158.058V10.1987H152.688V10.77H157.382V12.0005H152.706V14.4087H155.026V15.8853H151.809V16.4653H158.964V15.8853Z" fill="#273576"/>
<path d="M167.604 9.62744H166.91V11.0601H165.064V10.146H164.387V11.5347H162.208V10.146H161.522V14.0747H165.064V13.3101H166.91V15.4106H167.604V9.62744ZM162.208 13.5034V12.0796H164.387V13.5034H162.208ZM162.55 17.2651H167.78V16.6851H163.245V14.8394H162.55V17.2651ZM165.064 12.7388V11.6401H166.91V12.7388H165.064Z" fill="#273576"/>
<path d="M172.975 10.4976H171.138V9.55713H170.452V10.4976H168.554V11.0601H172.975V10.4976ZM169.019 12.9058C169.011 13.7803 169.731 14.3516 170.786 14.356C171.832 14.3516 172.566 13.7803 172.57 12.9058C172.566 12.0356 171.832 11.46 170.786 11.4644C169.731 11.46 169.011 12.0356 169.019 12.9058ZM169.661 12.9058C169.657 12.3564 170.105 11.9917 170.786 11.9829C171.458 11.9917 171.92 12.3564 171.929 12.9058C171.92 13.4551 171.458 13.8242 170.786 13.8198C170.105 13.8242 169.657 13.4551 169.661 12.9058ZM169.819 16.0874C169.819 16.9268 170.808 17.4146 172.447 17.4146C174.078 17.4146 175.066 16.9268 175.066 16.0874C175.066 15.2349 174.078 14.7515 172.447 14.7515C170.808 14.7515 169.819 15.2349 169.819 16.0874ZM170.531 16.0874C170.536 15.5776 171.261 15.292 172.447 15.2876C173.616 15.292 174.337 15.5776 174.337 16.0874C174.337 16.584 173.616 16.8828 172.447 16.8784C171.261 16.8828 170.536 16.584 170.531 16.0874ZM172.966 13.5913H174.328V14.6724H175.022V9.61865H174.328V11.4995H172.975V12.0708H174.328V13.02H172.966V13.5913Z" fill="#273576"/>
<path d="M180.507 12.1851H177.405V10.6997H180.446V10.1284H176.71V12.7476H178.24V13.8682C177.453 13.8945 176.684 13.9033 175.998 13.9077L176.104 14.4702C177.572 14.4702 179.43 14.4219 181.114 14.189L181.061 13.6792C180.384 13.7539 179.655 13.8066 178.925 13.8374V12.7476H180.507V12.1851ZM177.334 17.2651H182.66V16.6851H178.02V15.0679H177.334V17.2651ZM181.711 15.4722H182.406V9.62744H181.711V15.4722Z" fill="#273576"/>
<path d="M189.71 10.4976H187.873V9.55713H187.187V10.4976H185.289V11.0601H189.71V10.4976ZM185.755 12.9058C185.746 13.7803 186.467 14.3516 187.521 14.356C188.567 14.3516 189.301 13.7803 189.306 12.9058C189.301 12.0356 188.567 11.46 187.521 11.4644C186.467 11.46 185.746 12.0356 185.755 12.9058ZM186.396 12.9058C186.392 12.3564 186.84 11.9917 187.521 11.9829C188.194 11.9917 188.655 12.3564 188.664 12.9058C188.655 13.4551 188.194 13.8242 187.521 13.8198C186.84 13.8242 186.392 13.4551 186.396 12.9058ZM186.555 16.0874C186.555 16.9268 187.543 17.4146 189.183 17.4146C190.813 17.4146 191.802 16.9268 191.802 16.0874C191.802 15.2349 190.813 14.7515 189.183 14.7515C187.543 14.7515 186.555 15.2349 186.555 16.0874ZM187.267 16.0874C187.271 15.5776 187.996 15.292 189.183 15.2876C190.352 15.292 191.072 15.5776 191.072 16.0874C191.072 16.584 190.352 16.8828 189.183 16.8784C187.996 16.8828 187.271 16.584 187.267 16.0874ZM189.701 13.5913H191.063V14.6724H191.758V9.61865H191.063V11.4995H189.71V12.0708H191.063V13.02H189.701V13.5913Z" fill="#273576"/>
<path d="M196.109 10.5239H193.015V15.4985H193.516C194.799 15.5029 195.551 15.4634 196.469 15.2876L196.408 14.7163C195.555 14.8701 194.834 14.9053 193.674 14.9097V13.1431H195.994V12.5894H193.674V11.0864H196.109V10.5239ZM196.988 17.0366H197.656V13.3364H198.728V17.4321H199.396V9.61865H198.728V12.7651H197.656V9.78564H196.988V17.0366Z" fill="#273576"/>
<path d="M202.675 10.1899C201.44 10.1943 200.561 10.9414 200.565 12.0269C200.561 13.1167 201.44 13.8594 202.675 13.8638C203.901 13.8594 204.771 13.1167 204.775 12.0269C204.771 10.9414 203.901 10.1943 202.675 10.1899ZM200.161 15.1382L200.258 15.7271C201.664 15.7271 203.584 15.7183 205.373 15.3843L205.32 14.8745C203.593 15.1294 201.602 15.1426 200.161 15.1382ZM201.242 12.0269C201.238 11.3018 201.84 10.7964 202.675 10.7964C203.501 10.7964 204.103 11.3018 204.098 12.0269C204.103 12.7563 203.501 13.2573 202.675 13.2573C201.84 13.2573 201.238 12.7563 201.242 12.0269ZM205.839 17.4497H206.524V9.61865H205.839V17.4497Z" fill="#273576"/>
<path d="M215.542 9.61865H214.857V14.2065H215.542V12.1938H216.72V11.605H215.542V9.61865ZM209.425 13.5825L209.706 14.1187C212.014 13.5078 213.393 12.0972 213.398 10.1196H209.777V10.6909H212.664C212.523 12.0181 211.341 13.064 209.425 13.5825ZM210.427 15.1294H214.857V17.4321H215.542V14.5669H210.427V15.1294Z" fill="#273576"/>
<path d="M220.799 10.2075H217.186V13.6616H220.799V10.2075ZM217.845 15.2261H222.275V17.4497H222.961V14.6724H217.845V15.2261ZM217.863 13.0991V10.7612H220.131V13.0991H217.863ZM222.275 14.2505H222.961V12.2378H224.138V11.6577H222.961V9.61865H222.275V14.2505Z" fill="#273576"/>
<path d="M230.713 9.61865H230.019V17.4497H230.713V9.61865ZM224.561 12.9497C224.565 14.6152 225.391 15.6699 226.556 15.6655C227.716 15.6699 228.555 14.6152 228.551 12.9497C228.555 11.2886 227.716 10.2295 226.556 10.2251C225.391 10.2295 224.565 11.2886 224.561 12.9497ZM225.229 12.9497C225.229 11.6797 225.774 10.8447 226.556 10.8403C227.342 10.8447 227.883 11.6797 227.883 12.9497C227.883 14.2197 227.342 15.0547 226.556 15.0503C225.774 15.0547 225.229 14.2197 225.229 12.9497Z" fill="#273576"/>
<path d="M237.508 10.3481V9.8999H236.796V10.3481C236.796 11.4688 235.368 12.4004 233.957 12.5981L234.238 13.1606C235.455 12.9585 236.655 12.2949 237.156 11.3281C237.657 12.2861 238.861 12.9585 240.074 13.1606L240.355 12.5981C238.945 12.4004 237.512 11.4512 237.508 10.3481ZM233.588 14.6021H236.796V17.4321H237.473V14.6021H240.707V14.022H233.588V14.6021Z" fill="#273576"/>
<path d="M245.392 10.2163H241.243V10.7876H242.034V13.3848C241.674 13.3892 241.336 13.3892 241.024 13.3892L241.112 13.9692C242.382 13.9736 244.157 13.9473 245.682 13.7144L245.647 13.187C245.308 13.231 244.952 13.2617 244.592 13.2881V10.7876H245.392V10.2163ZM242.272 16.0083C242.267 16.9004 243.256 17.4146 244.891 17.4146C246.526 17.4146 247.51 16.9004 247.51 16.0083C247.51 15.1162 246.526 14.6064 244.891 14.6108C243.256 14.6064 242.267 15.1162 242.272 16.0083ZM242.702 13.3716V10.7876H243.924V13.3276C243.515 13.3496 243.102 13.3628 242.702 13.3716ZM242.957 16.0083C242.953 15.4722 243.687 15.147 244.891 15.147C246.091 15.147 246.824 15.4722 246.824 16.0083C246.824 16.5532 246.091 16.8696 244.891 16.8696C243.687 16.8696 242.953 16.5532 242.957 16.0083ZM245.471 12.9937H246.789V14.4438H247.484V9.61865H246.789V11.0249H245.471V11.5962H246.789V12.4224H245.471V12.9937Z" fill="#273576"/>
<path d="M251.984 9.75928C250.239 9.75928 249.215 10.2383 249.215 11.104C249.215 11.9917 250.239 12.4707 251.984 12.4751C253.72 12.4707 254.739 11.9917 254.744 11.104C254.739 10.2383 253.72 9.75928 251.984 9.75928ZM248.424 13.5649H255.544V13.0024H248.424V13.5649ZM249.286 14.769H253.953V15.481H249.303V17.3442H254.867V16.7993H249.989V15.9907H254.629V14.2417H249.286V14.769ZM249.936 11.104C249.927 10.5898 250.688 10.2822 251.984 10.2778C253.28 10.2822 254.036 10.5898 254.041 11.104C254.036 11.6489 253.28 11.9478 251.984 11.9478C250.688 11.9478 249.927 11.6489 249.936 11.104Z" fill="#273576"/>
<path d="M264.201 9.61865H263.507V17.4321H264.201V9.61865ZM257.838 15.4019L258.216 15.9644C260.835 14.7075 261.881 12.7168 261.89 10.4712H258.199V11.0337H261.187C261.033 12.9014 259.952 14.3999 257.838 15.4019Z" fill="#273576"/>
<path d="M269.168 10.5942V10.5767H271.646V10.0142H265.81V10.5767H268.271V10.5942C268.276 11.5566 266.975 12.3389 265.599 12.5278L265.854 13.0728C267.12 12.8882 268.293 12.2598 268.719 11.3457C269.141 12.2598 270.323 12.8882 271.585 13.0728L271.857 12.5278C270.473 12.3389 269.163 11.5566 269.168 10.5942ZM265.151 14.2153H268.438V15.8149H269.124V14.2153H272.305V13.644H265.151V14.2153ZM266.065 17.2651H271.506V16.6851H266.759V15.0327H266.065V17.2651Z" fill="#273576"/>
<path d="M276.138 10.1284C274.507 10.1328 273.281 10.9854 273.281 12.2729C273.281 13.5737 274.507 14.4263 276.138 14.4175C277.768 14.4263 278.994 13.5737 278.994 12.2729C278.994 10.9854 277.768 10.1328 276.138 10.1284ZM272.578 16.395H279.732V15.8149H272.578V16.395ZM273.94 12.2729C273.932 11.3369 274.876 10.6865 276.138 10.6909C277.39 10.6865 278.326 11.3369 278.326 12.2729C278.326 13.2222 277.39 13.855 276.138 13.855C274.876 13.855 273.932 13.2222 273.94 12.2729Z" fill="#273576"/>
<path d="M287.151 15.8853H283.89V14.4087H286.43V13.8374H281.579V12.563H286.245V10.1987H280.875V10.77H285.569V12.0005H280.893V14.4087H283.213V15.8853H279.996V16.4653H287.151V15.8853Z" fill="#273576"/>
<path d="M295.756 9.61865H295.062V17.4497H295.756V9.61865ZM289.604 12.9497C289.608 14.6152 290.434 15.6699 291.599 15.6655C292.759 15.6699 293.598 14.6152 293.594 12.9497C293.598 11.2886 292.759 10.2295 291.599 10.2251C290.434 10.2295 289.608 11.2886 289.604 12.9497ZM290.272 12.9497C290.272 11.6797 290.817 10.8447 291.599 10.8403C292.385 10.8447 292.926 11.6797 292.926 12.9497C292.926 14.2197 292.385 15.0547 291.599 15.0503C290.817 15.0547 290.272 14.2197 290.272 12.9497Z" fill="#273576"/>
<path d="M303.007 9.93506H297.584V10.4976H302.304V11.4204H297.602V13.5474H303.174V12.9761H298.296V11.9653H303.007V9.93506ZM296.723 14.9272H299.94V17.4497H300.625V14.9272H303.877V14.3735H296.723V14.9272Z" fill="#273576"/>
<path d="M310.47 11.9917H305.803V9.90869H305.117V12.5454H310.47V11.9917ZM304.141 14.1714H311.296V13.6089H304.141V14.1714ZM305.073 17.2388H310.514V16.6675H305.759V14.9712H305.073V17.2388Z" fill="#273576"/>
<path d="M319.576 9.61865H318.89V14.2065H319.576V12.1938H320.753V11.605H319.576V9.61865ZM313.459 13.5825L313.74 14.1187C316.047 13.5078 317.427 12.0972 317.431 10.1196H313.81V10.6909H316.697C316.557 12.0181 315.375 13.064 313.459 13.5825ZM314.46 15.1294H318.89V17.4321H319.576V14.5669H314.46V15.1294Z" fill="#273576"/>
<path d="M327.196 13.2837H322.494V10.8228H327.117V10.2603H321.8V13.8462H324.102V15.8677H320.886V16.4478H328.04V15.8677H324.779V13.8462H327.196V13.2837Z" fill="#273576"/>
<path d="M330.686 14.2944C330.695 15.9556 331.143 17.3354 331.952 18.5132H332.62C332.026 17.6387 331.473 15.8633 331.468 14.2944C331.473 12.73 332.026 10.9502 332.62 10.0845H331.952C331.143 11.2578 330.695 12.6377 330.686 14.2944Z" fill="#273576"/>
<path d="M339.229 12.0005H334.58V9.91748H333.895V12.563H339.229V12.0005ZM332.91 14.0571H336.188V15.6743H336.874V14.0571H340.038V13.4858H332.91V14.0571ZM333.824 17.2651H339.282V16.6851H334.51V14.98H333.824V17.2651Z" fill="#273576"/>
<path d="M342.886 10.1899C341.651 10.1943 340.772 10.9414 340.777 12.0269C340.772 13.1167 341.651 13.8594 342.886 13.8638C344.112 13.8594 344.982 13.1167 344.987 12.0269C344.982 10.9414 344.112 10.1943 342.886 10.1899ZM340.372 15.1382L340.469 15.7271C341.875 15.7271 343.796 15.7183 345.584 15.3843L345.532 14.8745C343.805 15.1294 341.814 15.1426 340.372 15.1382ZM341.453 12.0269C341.449 11.3018 342.051 10.7964 342.886 10.7964C343.712 10.7964 344.314 11.3018 344.31 12.0269C344.314 12.7563 343.712 13.2573 342.886 13.2573C342.051 13.2573 341.449 12.7563 341.453 12.0269ZM346.05 17.4497H346.736V9.61865H346.05V17.4497Z" fill="#273576"/>
<path d="M356.106 9.61865H355.411V17.4321H356.106V9.61865ZM349.637 14.9097L349.716 15.4985C351.162 15.4897 353.047 15.4634 354.752 15.1997L354.708 14.6812C354.291 14.7295 353.856 14.769 353.416 14.7998V11.0425H354.304V10.4712H349.839V11.0425H350.718V14.9009C350.34 14.9053 349.975 14.9097 349.637 14.9097ZM351.395 14.8877V11.0425H352.739V14.8394C352.287 14.8613 351.834 14.8789 351.395 14.8877Z" fill="#273576"/>
<path d="M364.218 15.8853H360.957V14.4087H363.497V13.8374H358.646V12.563H363.313V10.1987H357.943V10.77H362.636V12.0005H357.96V14.4087H360.281V15.8853H357.064V16.4653H364.218V15.8853Z" fill="#273576"/>
<path d="M370.591 9.61865H369.905V14.0571H370.591V12.106H371.768V11.5347H370.591V9.61865ZM364.473 13.5825L364.755 14.1362C367.071 13.5078 368.446 12.0972 368.455 10.1284H364.825V10.6997H367.712C367.567 12.0225 366.394 13.064 364.473 13.5825ZM365.642 17.3267H370.591V14.4175H365.642V17.3267ZM366.328 16.7642V14.9888H369.905V16.7642H366.328Z" fill="#273576"/>
<path d="M374.625 16.7729C374.938 16.7686 375.192 16.5137 375.188 16.2017C375.192 15.894 374.938 15.6392 374.625 15.6392C374.318 15.6392 374.054 15.894 374.063 16.2017C374.054 16.5137 374.318 16.7686 374.625 16.7729ZM374.063 12.6685C374.054 12.9805 374.318 13.2354 374.625 13.2397C374.938 13.2354 375.192 12.9805 375.188 12.6685C375.192 12.3608 374.938 12.106 374.625 12.106C374.318 12.106 374.054 12.3608 374.063 12.6685Z" fill="#273576"/>
<path d="M380.436 11.0688V10.7349H382.238V10.1724H377.913V10.7349H379.741V11.0688C379.737 12.1763 378.911 13.1958 377.738 13.6089L378.098 14.145C379.03 13.811 379.759 13.1079 380.102 12.2202C380.458 13.0464 381.178 13.688 382.088 13.9956L382.44 13.4595C381.271 13.0771 380.44 12.1191 380.436 11.0688ZM378.819 15.3315H383.389V17.4321H384.074V14.7603H378.819V15.3315ZM383.389 14.3472H384.074V9.61865H383.389V14.3472Z" fill="#273576"/>
<path d="M386.114 10.1899H385.42V13.855H386.044C387.226 13.855 388.412 13.7803 389.735 13.5034L389.656 12.9321C388.381 13.1958 387.23 13.2661 386.114 13.2661V10.1899ZM386.29 17.2651H391.431V16.6851H386.975V14.7163H386.29V17.2651ZM390.464 15.27H391.15V12.5454H392.328V11.9478H391.15V9.62744H390.464V15.27Z" fill="#273576"/>
<path d="M395.237 11.7192V10.2954H394.552V11.7192C394.543 13.2002 393.581 14.6943 392.416 15.2261L392.855 15.8062C393.769 15.3447 394.539 14.356 394.899 13.1782C395.272 14.29 396.041 15.2173 396.934 15.6479L397.355 15.103C396.204 14.5801 395.233 13.1475 395.237 11.7192ZM398.208 17.4497H398.902V9.61865H398.208V17.4497Z" fill="#273576"/>
<path d="M400.379 14.4966L404.396 16.5269V15.7095L401.355 14.2637V14.2109L404.396 12.7476V11.9302L400.379 13.9692V14.4966Z" fill="#273576"/>
<path d="M411.471 13.2837H406.769V10.8228H411.392V10.2603H406.075V13.8462H408.378V15.8677H405.161V16.4478H412.315V15.8677H409.054V13.8462H411.471V13.2837Z" fill="#273576"/>
<path d="M413.651 10.1899H412.957V13.855H413.581C414.763 13.855 415.95 13.7803 417.272 13.5034L417.193 12.9321C415.919 13.1958 414.768 13.2661 413.651 13.2661V10.1899ZM413.827 17.2651H418.969V16.6851H414.513V14.7163H413.827V17.2651ZM418.002 15.27H418.688V12.5454H419.865V11.9478H418.688V9.62744H418.002V15.27Z" fill="#273576"/>
<path d="M422.775 11.7192V10.2954H422.089V11.7192C422.08 13.2002 421.118 14.6943 419.953 15.2261L420.393 15.8062C421.307 15.3447 422.076 14.356 422.436 13.1782C422.81 14.29 423.579 15.2173 424.471 15.6479L424.893 15.103C423.742 14.5801 422.77 13.1475 422.775 11.7192ZM425.745 17.4497H426.44V9.61865H425.745V17.4497Z" fill="#273576"/>
<path d="M427.917 14.4966L431.933 16.5269V15.7095L428.892 14.2637V14.2109L431.933 12.7476V11.9302L427.917 13.9692V14.4966Z" fill="#273576"/>
<path d="M435.317 11.7192V10.2954H434.641V11.7192C434.632 13.1475 433.727 14.646 432.584 15.2085L433.024 15.7622C433.902 15.292 434.641 14.3032 434.988 13.1519C435.335 14.2373 436.056 15.1646 436.917 15.6128L437.339 15.0591C436.227 14.5142 435.317 13.0947 435.317 11.7192ZM438.06 17.4321H438.745V13.3892H440.055V12.7915H438.745V9.61865H438.06V17.4321Z" fill="#273576"/>
<path d="M441.189 10.1899H440.495V13.855H441.119C442.301 13.855 443.487 13.7803 444.81 13.5034L444.731 12.9321C443.457 13.1958 442.305 13.2661 441.189 13.2661V10.1899ZM441.365 17.2651H446.506V16.6851H442.05V14.7163H441.365V17.2651ZM445.54 15.27H446.225V12.5454H447.403V11.9478H446.225V9.62744H445.54V15.27Z" fill="#273576"/>
<path d="M450.312 11.7192V10.2954H449.627V11.7192C449.618 13.2002 448.656 14.6943 447.491 15.2261L447.931 15.8062C448.845 15.3447 449.614 14.356 449.974 13.1782C450.348 14.29 451.117 15.2173 452.009 15.6479L452.431 15.103C451.279 14.5801 450.308 13.1475 450.312 11.7192ZM453.283 17.4497H453.977V9.61865H453.283V17.4497Z" fill="#273576"/>
<path d="M456.904 14.2944C456.896 12.6377 456.447 11.2578 455.639 10.0845H454.971C455.564 10.9502 456.118 12.73 456.122 14.2944C456.118 15.8633 455.564 17.6387 454.971 18.5132H455.639C456.447 17.3354 456.896 15.9556 456.904 14.2944Z" fill="#273576"/>
</svg>
