<svg width="135" height="89" viewBox="0 0 135 89" fill="none" xmlns="http://www.w3.org/2000/svg">
<path d="M73.6875 0.982404C72.6348 0.97215 71.958 1.72069 71.958 2.64354C71.958 3.59715 72.6929 4.27733 73.5781 4.27733C74.1045 4.27733 74.5591 4.03123 74.8428 3.62108H74.9111C74.9043 4.8242 74.4121 5.52147 73.6055 5.52147C73.0552 5.52147 72.7168 5.19334 72.6074 4.74901H71.999C72.1221 5.53514 72.7339 6.06834 73.6055 6.06834C74.7642 6.06834 75.4854 5.08738 75.4854 3.32713C75.4854 1.50535 74.5386 0.992658 73.6875 0.982404ZM72.5596 2.6367C72.5527 2.02488 73.0415 1.52244 73.6875 1.52244C74.3403 1.52244 74.8154 2.05565 74.8154 2.62303C74.8154 3.20408 74.313 3.73729 73.667 3.73729C73.021 3.73729 72.5562 3.24852 72.5596 2.6367Z" fill="#5B6EB4"/>
<path d="M77.9531 6.06834C79.0503 6.06834 79.6826 5.14549 79.6826 3.52537C79.6826 1.91893 79.04 0.982404 77.9531 0.982404C76.8628 0.982404 76.2202 1.91893 76.2236 3.52537C76.2202 5.14549 76.856 6.06834 77.9531 6.06834ZM76.8184 3.52537C76.8218 2.24363 77.2422 1.51903 77.9531 1.51561C78.6641 1.51903 79.0845 2.24363 79.0811 3.52537C79.0845 4.80711 78.6675 5.52147 77.9531 5.52147C77.2354 5.52147 76.8218 4.80711 76.8184 3.52537Z" fill="#5B6EB4"/>
<path d="M81.3506 3.57322C82.0479 3.57322 82.5127 3.05027 82.5127 2.2949C82.5127 1.54295 82.0479 1.02 81.3506 1.02342C80.6533 1.02 80.1885 1.54295 80.1885 2.2949C80.1885 3.05027 80.6533 3.57322 81.3506 3.57322ZM80.7217 2.2949C80.7183 1.7993 80.9575 1.42332 81.3506 1.4199C81.7437 1.42332 81.9829 1.7993 81.9795 2.2949C81.9829 2.78367 81.7437 3.16307 81.3506 3.16307C80.9575 3.16307 80.7183 2.78367 80.7217 2.2949Z" fill="#5B6EB4"/>
<path d="M114.929 52.0684C116.027 52.0684 116.659 51.1455 116.659 49.5254C116.659 47.9189 116.016 46.9824 114.929 46.9824C113.839 46.9824 113.197 47.9189 113.2 49.5254C113.197 51.1455 113.832 52.0684 114.929 52.0684ZM113.795 49.5254C113.798 48.2437 114.219 47.519 114.929 47.5156C115.64 47.519 116.061 48.2437 116.057 49.5254C116.061 50.8071 115.644 51.5215 114.929 51.5215C114.212 51.5215 113.798 50.8071 113.795 49.5254Z" fill="#5B6EB4"/>
<path d="M118.511 49.2383C119.127 49.2383 119.626 48.7427 119.626 48.1309C119.626 47.5088 119.127 47.0098 118.511 47.0098C117.893 47.0098 117.397 47.5088 117.397 48.1309C117.397 48.7427 117.893 49.2383 118.511 49.2383ZM117.883 48.1309C117.886 47.7788 118.166 47.5054 118.511 47.502C118.857 47.5054 119.13 47.7788 119.134 48.1309C119.13 48.4727 118.857 48.7529 118.511 48.7529C118.166 48.7529 117.886 48.4727 117.883 48.1309Z" fill="#5B6EB4"/>
<path d="M31.2734 47.0508H30.6514L29.4209 47.8711V48.4932L30.624 47.6934H30.6514V52H31.2734V47.0508Z" fill="#5B6EB4"/>
<path d="M34.0371 52.0684C35.0693 52.0684 35.7939 51.4907 35.8007 50.6875C35.7939 50.0483 35.3496 49.5186 34.789 49.4297V49.4023C35.2744 49.2896 35.6025 48.835 35.6093 48.2949C35.6025 47.5396 34.9394 46.9824 34.0371 46.9824C33.1313 46.9824 32.4682 47.5396 32.4716 48.2949C32.4682 48.835 32.7929 49.2896 33.2851 49.4023V49.4297C32.7212 49.5186 32.2768 50.0483 32.2802 50.6875C32.2768 51.4907 32.9946 52.0684 34.0371 52.0684ZM32.8955 50.6533C32.8852 50.1064 33.374 49.7031 34.0371 49.7031C34.7036 49.7031 35.1855 50.1064 35.1855 50.6533C35.1855 51.1729 34.7446 51.5249 34.0371 51.5283C33.3261 51.5249 32.8852 51.1729 32.8955 50.6533ZM33.0664 48.3428C33.0698 47.8472 33.4492 47.5122 34.0371 47.5156C34.6147 47.5122 35.0078 47.8472 35.0078 48.3428C35.0078 48.8418 34.601 49.1802 34.0371 49.1836C33.4697 49.1802 33.0698 48.8418 33.0664 48.3428Z" fill="#5B6EB4"/>
<path d="M38.038 52.0684C39.1352 52.0684 39.7675 51.1455 39.7675 49.5254C39.7675 47.9189 39.1249 46.9824 38.038 46.9824C36.9477 46.9824 36.3051 47.9189 36.3085 49.5254C36.3051 51.1455 36.9408 52.0684 38.038 52.0684ZM36.9032 49.5254C36.9067 48.2437 37.3271 47.519 38.038 47.5156C38.7489 47.519 39.1694 48.2437 39.1659 49.5254C39.1694 50.8071 38.7524 51.5215 38.038 51.5215C37.3202 51.5215 36.9067 50.8071 36.9032 49.5254Z" fill="#5B6EB4"/>
<path d="M41.41 49.2383C42.0253 49.2383 42.5243 48.7427 42.5243 48.1309C42.5243 47.5088 42.0253 47.0098 41.41 47.0098C40.7914 47.0098 40.2958 47.5088 40.2958 48.1309C40.2958 48.7427 40.7914 49.2383 41.41 49.2383ZM40.7811 48.1309C40.7845 47.7788 41.0648 47.5054 41.41 47.502C41.7553 47.5054 42.0287 47.7788 42.0321 48.1309C42.0287 48.4727 41.7553 48.7529 41.41 48.7529C41.0648 48.7529 40.7845 48.4727 40.7811 48.1309Z" fill="#5B6EB4"/>
<path fill-rule="evenodd" clip-rule="evenodd" d="M76.402 70.0813C87.7587 70.0813 96.9651 60.8749 96.9651 49.5182C96.9651 38.1615 87.7587 28.9551 76.402 28.9551C65.0453 28.9551 55.8389 38.1615 55.8389 49.5182C55.8389 60.8749 65.0453 70.0813 76.402 70.0813ZM76.402 71.0813C88.3109 71.0813 97.9651 61.4272 97.9651 49.5182C97.9651 37.6092 88.3109 27.9551 76.402 27.9551C64.493 27.9551 54.8389 37.6092 54.8389 49.5182C54.8389 61.4272 64.493 71.0813 76.402 71.0813Z" fill="#273576"/>
<path fill-rule="evenodd" clip-rule="evenodd" d="M45.0358 50H44.1191V49.069H45.0358V50ZM48.7025 50H46.8691V49.069H48.7025V50ZM52.3691 50H50.5358V49.069H52.3691V50ZM56.0358 50H54.2025V49.069H56.0358V50ZM59.7025 50H57.8691V49.069H59.7025V50ZM63.3691 50H61.5358V49.069H63.3691V50ZM67.0358 50H65.2025V49.069H67.0358V50ZM70.7025 50H68.8691V49.069H70.7025V50ZM74.3691 50H72.5358V49.069H74.3691V50ZM78.0358 50H76.2025V49.069H78.0358V50ZM81.7025 50H79.8691V49.069H81.7025V50ZM85.3691 50H83.5358V49.069H85.3691V50ZM89.0358 50H87.2025V49.069H89.0358V50ZM92.7025 50H90.8691V49.069H92.7025V50ZM96.3691 50H94.5358V49.069H96.3691V50ZM100.036 50H98.2025V49.069H100.036V50ZM103.702 50H101.869V49.069H103.702V50ZM107.369 50H105.536V49.069H107.369V50ZM110.119 50H109.202V49.069H110.119V50Z" fill="#5B6EB4"/>
<path fill-rule="evenodd" clip-rule="evenodd" d="M75.6537 9.95238L75.6537 9L76.5847 9L76.5847 9.95238L75.6537 9.95238ZM75.6537 13.7619L75.6537 11.8571L76.5847 11.8571L76.5847 13.7619L75.6537 13.7619ZM75.6537 17.5714L75.6537 15.6667L76.5847 15.6667L76.5847 17.5714L75.6537 17.5714ZM75.6537 21.381L75.6537 19.4762L76.5847 19.4762L76.5847 21.381L75.6537 21.381ZM75.6537 25.1905L75.6537 23.2857L76.5847 23.2857L76.5847 25.1905L75.6537 25.1905ZM75.6537 29L75.6537 27.0952L76.5847 27.0952L76.5847 29L75.6537 29ZM75.6537 32.8095L75.6537 30.9048L76.5847 30.9048L76.5847 32.8095L75.6537 32.8095ZM75.6537 36.6191L75.6537 34.7143L76.5847 34.7143L76.5847 36.6191L75.6537 36.6191ZM75.6537 40.4286L75.6537 38.5238L76.5847 38.5238L76.5847 40.4286L75.6537 40.4286ZM75.6537 44.2381L75.6537 42.3333L76.5847 42.3333L76.5847 44.2381L75.6537 44.2381ZM75.6537 48.0476L75.6537 46.1429L76.5847 46.1429L76.5847 48.0476L75.6537 48.0476ZM75.6537 51.8571L75.6537 49.9524L76.5847 49.9524L76.5847 51.8571L75.6537 51.8571ZM75.6537 55.6667L75.6537 53.7619L76.5847 53.7619L76.5847 55.6667L75.6537 55.6667ZM75.6537 59.4762L75.6537 57.5714L76.5847 57.5714L76.5847 59.4762L75.6537 59.4762ZM75.6537 63.2857L75.6537 61.381L76.5847 61.381L76.5847 63.2857L75.6537 63.2857ZM75.6537 67.0952L75.6537 65.1905L76.5847 65.1905L76.5847 67.0952L75.6537 67.0952ZM75.6537 70.9048L75.6537 69L76.5847 69L76.5847 70.9048L75.6537 70.9048ZM75.6537 74.7143L75.6537 72.8095L76.5847 72.8095L76.5847 74.7143L75.6537 74.7143ZM75.6537 78.5238L75.6537 76.6191L76.5847 76.6191L76.5847 78.5238L75.6537 78.5238ZM75.6537 82.3333L75.6537 80.4286L76.5847 80.4286L76.5847 82.3333L75.6537 82.3333ZM75.6537 86.1429L75.6537 84.2381L76.5847 84.2381L76.5847 86.1429L75.6537 86.1429ZM75.6537 89L75.6537 88.0476L76.5847 88.0476L76.5847 89L75.6537 89Z" fill="#5B6EB4"/>
<path d="M85.7341 49.3075C85.7341 54.4478 81.567 58.6149 76.4266 58.6149C71.2862 58.6149 67.1191 54.4478 67.1191 49.3075C67.1191 44.1671 71.2862 40 76.4266 40C81.567 40 85.7341 44.1671 85.7341 49.3075Z" fill="#273576"/>
<path fill-rule="evenodd" clip-rule="evenodd" d="M20.8323 46.649C24.0878 44.5372 27.3367 41.8714 30.7962 39.0328C42.5674 29.3745 56.7774 17.715 81.9858 19.0656C93.5307 19.6841 103.472 24.9908 111.45 31.629C119.428 38.2678 125.374 46.1827 128.901 51.8668C129.246 52.4222 129.955 52.6135 130.527 52.3235C131.384 52.7125 131.972 53.21 132.364 53.7368C132.865 54.4102 133.073 55.1689 133.073 55.8961C133.073 56.5852 132.826 57.2476 132.246 57.7472C131.659 58.2538 130.657 58.6546 129.036 58.6546C128.717 58.6546 128.402 58.7719 128.125 58.9109C127.837 59.0554 127.523 59.2578 127.19 59.4978C126.525 59.9774 125.712 60.6586 124.767 61.4649C124.662 61.5544 124.555 61.6457 124.447 61.7386C124.35 61.8216 124.251 61.9059 124.151 61.9915L124.151 61.9916C122.335 63.5455 120.037 65.5124 117.225 67.5814C110.948 72.1992 102.138 77.3046 90.6093 79.3154C77.0307 81.6837 65.0782 81.0199 53.7795 76.9763C42.4751 72.9306 31.7768 65.4844 20.7368 54.2123C20.4856 53.9559 20.074 53.9516 19.8176 54.2028C19.5611 54.454 19.5568 54.8655 19.808 55.122C30.9393 66.4872 41.7981 74.069 53.3415 78.2002C64.8907 82.3335 77.0768 82.9953 90.8327 80.5961C102.624 78.5395 111.62 73.3194 117.995 68.6285C120.848 66.5295 123.182 64.5324 124.996 62.9791C125.208 62.7978 125.413 62.6225 125.611 62.4539C126.562 61.6419 127.335 60.9957 127.951 60.5525C128.258 60.3311 128.508 60.1732 128.708 60.0729C128.919 59.9669 129.017 59.9546 129.036 59.9546C130.859 59.9546 132.2 59.5033 133.095 58.7317C133.998 57.9531 134.373 56.9113 134.373 55.8961C134.373 54.919 134.092 53.8812 133.407 52.9607C132.895 52.2725 132.173 51.6707 131.213 51.2095C131.214 50.9836 131.153 50.7548 131.025 50.5488C127.4 44.7061 121.288 36.5633 113.049 29.7073C104.808 22.8507 94.3701 17.2255 82.1195 16.5692C55.8316 15.1607 40.6477 27.6498 28.8334 37.3674C25.5028 40.1069 22.44 42.6261 19.4717 44.5516C12.454 49.104 5.37311 50.1594 2 50.1594C1.30964 50.1594 0.75 50.719 0.75 51.4094C0.75 52.0997 1.30964 52.6594 2 52.6594C5.77386 52.6594 13.3457 51.5055 20.8323 46.649Z" fill="#273576"/>
</svg>
