<?xml version="1.0" encoding="UTF-8"?>
<svg width="284px" height="180px" viewBox="0 0 284 180" version="1.1" xmlns="http://www.w3.org/2000/svg" xmlns:xlink="http://www.w3.org/1999/xlink">
    <title>Artboard</title>
    <g id="Artboard" stroke="none" stroke-width="1" fill="none" fill-rule="evenodd">
        <g id="axisLeftEye" transform="translate(1.000000, 6.000000)">
            <path d="M210.77884,87.4831 C209.52084,87.4831 208.80184,86.4284 208.80184,84.5769 C208.80184,82.7409 209.53684,81.6706 210.77884,81.6706 C212.02084,81.6706 212.75484,82.7409 212.75484,84.5769 C212.75484,86.4284 212.02884,87.4831 210.77884,87.4831 Z M210.77884,86.8581 C211.59084,86.8581 212.06784,86.0378 212.06784,84.5769 C212.06784,83.1159 211.59084,82.28 210.77884,82.28 C209.96584,82.28 209.48184,83.1159 209.48184,84.5769 C209.48184,86.0378 209.95784,86.8581 210.77884,86.8581 Z M214.31284,84.2488 C213.60884,84.2488 213.03884,83.6784 213.03884,82.9831 C213.03884,82.2722 213.60884,81.7019 214.31284,81.7019 C215.01584,81.7019 215.58584,82.2722 215.58584,82.9831 C215.58584,83.6784 215.01584,84.2488 214.31284,84.2488 Z M214.31284,83.6941 C214.70284,83.6941 215.02384,83.3738 215.02384,82.9831 C215.02384,82.5847 214.70284,82.2644 214.31284,82.2644 C213.91384,82.2644 213.59384,82.5847 213.59384,82.9831 C213.59384,83.3738 213.91384,83.6941 214.31284,83.6941 Z" id="Shape" fill="#5B6EB4" fill-rule="nonzero"></path>
            <path d="M23.92704,98.7488 L23.92704,104.405 L23.21614,104.405 L23.21614,99.483 L23.18494,99.483 L21.80994,100.397 L21.80994,99.686 L23.21614,98.7488 L23.92704,98.7488 Z M26.76554,104.483 C25.57804,104.483 24.74994,103.827 24.75774,102.905 C24.74994,102.171 25.25774,101.569 25.90614,101.467 L25.90614,101.436 C25.34364,101.303 24.97644,100.788 24.97644,100.171 C24.97644,99.3034 25.73424,98.6706 26.76554,98.6706 C27.79674,98.6706 28.55464,99.3034 28.56244,100.171 C28.55464,100.788 28.17964,101.303 27.62494,101.436 L27.62494,101.467 C28.26554,101.569 28.77334,102.171 28.78114,102.905 C28.77334,103.827 27.94524,104.483 26.76554,104.483 Z M26.76554,103.866 C27.57804,103.866 28.07804,103.46 28.07804,102.866 C28.07804,102.241 27.52334,101.78 26.76554,101.78 C26.00774,101.78 25.44524,102.241 25.46084,102.866 C25.44524,103.46 25.95304,103.866 26.76554,103.866 Z M26.76554,101.186 C27.40614,101.186 27.87494,100.796 27.87494,100.225 C27.87494,99.663 27.42964,99.28 26.76554,99.28 C26.09364,99.28 25.65614,99.663 25.65614,100.225 C25.65614,100.796 26.11714,101.186 26.76554,101.186 Z M31.01804,104.483 C29.76024,104.483 29.04144,103.428 29.04144,101.577 C29.04144,99.741 29.77584,98.6706 31.01804,98.6706 C32.26024,98.6706 32.99464,99.741 32.99464,101.577 C32.99464,103.428 32.26804,104.483 31.01804,104.483 Z M31.01804,103.858 C31.83054,103.858 32.30714,103.038 32.30714,101.577 C32.30714,100.116 31.83054,99.28 31.01804,99.28 C30.20554,99.28 29.72114,100.116 29.72114,101.577 C29.72114,103.038 30.19774,103.858 31.01804,103.858 Z M34.55174,101.249 C33.84864,101.249 33.27834,100.678 33.27834,99.983 C33.27834,99.2722 33.84864,98.7019 34.55174,98.7019 C35.25494,98.7019 35.82524,99.2722 35.82524,99.983 C35.82524,100.678 35.25494,101.249 34.55174,101.249 Z M34.55174,100.694 C34.94244,100.694 35.26274,100.374 35.26274,99.983 C35.26274,99.585 34.94244,99.2644 34.55174,99.2644 C34.15334,99.2644 33.83304,99.585 33.83304,99.983 C33.83304,100.374 34.15334,100.694 34.55174,100.694 Z" id="Shape" fill="#5B6EB4" fill-rule="nonzero"></path>
            <line x1="204.12884" y1="86.0327" x2="39.98114" y2="86.0327" id="Path" stroke="#5B6EB4" stroke-width="0.931" stroke-dasharray="1.86"></line>
            <line x1="37.6148437" y1="83.7025" x2="205.019844" y2="83.7025" id="Path" stroke="#5B6EB4" stroke-width="0.931" stroke-dasharray="1.860000014305116" transform="translate(121.317344, 83.702500) scale(-1, 1) rotate(-90.000003) translate(-121.317344, -83.702500) "></line>
            <path d="M280.55184,89.0858 C272.93284,89.0858 257.31384,86.731 241.85284,76.7022 C212.18684,57.4595 180.57584,13.6874 109.88484,17.4746 C59.15444,20.1925 23.28084,64.5132 8.03296,89.0859 C2.07995,90.9909 0,95.0175 0,98.6507 C0,102.284 2.64984,105.917 9.99104,105.917 C15.75044,105.917 41.95884,141.27 91.67084,149.941 C149.94284,160.104 194.58784,144.289 241.85284,96.0308" id="Path" stroke="#020F50" stroke-width="1.3" stroke-linecap="round"></path>
            <circle id="Oval" stroke="#020F50" transform="translate(122.196740, 85.053400) scale(-1, 1) translate(-122.196740, -85.053400) " cx="122.19674" cy="85.0534" r="45.4681"></circle>
            <circle id="Oval" fill="#020F50" fill-rule="nonzero" transform="translate(122.196240, 85.053800) scale(-1, 1) translate(-122.196240, -85.053800) " cx="122.19624" cy="85.0538" r="19.8416"></circle>
            <path d="M280.55184,89.0858 C272.93384,89.0858 257.31584,86.731 241.85484,76.7022 C212.19184,57.4595 180.58184,13.6874 109.89584,17.4746 C59.16854,20.1925 23.00744,64.0835 7.76059,88.6561" id="Path" stroke="#020F50" stroke-width="2.5" stroke-linecap="round"></path>
        </g>
    </g>
</svg>