<?xml version="1.0" encoding="UTF-8"?>
<svg width="284px" height="180px" viewBox="0 0 284 180" version="1.1" xmlns="http://www.w3.org/2000/svg" xmlns:xlink="http://www.w3.org/1999/xlink">
    <title>Artboard</title>
    <g id="Artboard" stroke="none" stroke-width="1" fill="none" fill-rule="evenodd">
        <g id="axisRightEye" transform="translate(1.000000, 6.000000)">
            <path d="M252.383,105.078 C251.125,105.078 250.406,104.023 250.406,102.172 C250.406,100.336 251.141,99.2656 252.383,99.2656 C253.625,99.2656 254.359,100.336 254.359,102.172 C254.359,104.023 253.633,105.078 252.383,105.078 Z M252.383,104.453 C253.195,104.453 253.672,103.633 253.672,102.172 C253.672,100.711 253.195,99.875 252.383,99.875 C251.57,99.875 251.086,100.711 251.086,102.172 C251.086,103.633 251.562,104.453 252.383,104.453 Z M255.917,101.844 C255.213,101.844 254.643,101.273 254.643,100.578 C254.643,99.8672 255.213,99.2969 255.917,99.2969 C256.62,99.2969 257.19,99.8672 257.19,100.578 C257.19,101.273 256.62,101.844 255.917,101.844 Z M255.917,101.289 C256.307,101.289 256.628,100.969 256.628,100.578 C256.628,100.18 256.307,99.8594 255.917,99.8594 C255.518,99.8594 255.198,100.18 255.198,100.578 C255.198,100.969 255.518,101.289 255.917,101.289 Z" id="Shape" fill="#5B6EB4" fill-rule="nonzero"></path>
            <path d="M56.5312,82.3438 L56.5312,88 L55.8203,88 L55.8203,83.0781 L55.7891,83.0781 L54.4141,83.9922 L54.4141,83.2812 L55.8203,82.3438 L56.5312,82.3438 Z M59.3697,88.0781 C58.1822,88.0781 57.3541,87.4219 57.3619,86.5 C57.3541,85.7656 57.8619,85.1641 58.5103,85.0625 L58.5103,85.0312 C57.9478,84.8984 57.5806,84.3828 57.5806,83.7656 C57.5806,82.8984 58.3384,82.2656 59.3697,82.2656 C60.4009,82.2656 61.1588,82.8984 61.1666,83.7656 C61.1588,84.3828 60.7838,84.8984 60.2291,85.0312 L60.2291,85.0625 C60.8697,85.1641 61.3775,85.7656 61.3853,86.5 C61.3775,87.4219 60.5494,88.0781 59.3697,88.0781 Z M59.3697,87.4609 C60.1822,87.4609 60.6822,87.0547 60.6822,86.4609 C60.6822,85.8359 60.1275,85.375 59.3697,85.375 C58.6119,85.375 58.0494,85.8359 58.065,86.4609 C58.0494,87.0547 58.5572,87.4609 59.3697,87.4609 Z M59.3697,84.7812 C60.0103,84.7812 60.4791,84.3906 60.4791,83.8203 C60.4791,83.2578 60.0338,82.875 59.3697,82.875 C58.6978,82.875 58.2603,83.2578 58.2603,83.8203 C58.2603,84.3906 58.7213,84.7812 59.3697,84.7812 Z M63.6222,88.0781 C62.3644,88.0781 61.6456,87.0234 61.6456,85.1719 C61.6456,83.3359 62.38,82.2656 63.6222,82.2656 C64.8644,82.2656 65.5988,83.3359 65.5988,85.1719 C65.5988,87.0234 64.8722,88.0781 63.6222,88.0781 Z M63.6222,87.4531 C64.4347,87.4531 64.9113,86.6328 64.9113,85.1719 C64.9113,83.7109 64.4347,82.875 63.6222,82.875 C62.8097,82.875 62.3253,83.7109 62.3253,85.1719 C62.3253,86.6328 62.8019,87.4531 63.6222,87.4531 Z M67.1559,84.8438 C66.4528,84.8438 65.8825,84.2734 65.8825,83.5781 C65.8825,82.8672 66.4528,82.2969 67.1559,82.2969 C67.8591,82.2969 68.4294,82.8672 68.4294,83.5781 C68.4294,84.2734 67.8591,84.8438 67.1559,84.8438 Z M67.1559,84.2891 C67.5466,84.2891 67.8669,83.9688 67.8669,83.5781 C67.8669,83.1797 67.5466,82.8594 67.1559,82.8594 C66.7575,82.8594 66.4372,83.1797 66.4372,83.5781 C66.4372,83.9688 66.7575,84.2891 67.1559,84.2891 Z" id="Shape" fill="#5B6EB4" fill-rule="nonzero"></path>
            <line x1="77" y1="86.5345" x2="245" y2="86.5345" id="Path" stroke="#5B6EB4" stroke-width="0.931" stroke-dasharray="1.86"></line>
            <line x1="159.535" y1="168" x2="159.535" y2="0" id="Path" stroke="#5B6EB4" stroke-width="0.931" stroke-dasharray="1.86"></line>
            <path d="M0,90.0368 C7.6306,90.0368 23.2749,87.6755 38.7607,77.6196 C68.4739,58.3247 100.136,14.4341 170.939,18.2316 C221.751,20.9568 257.682,65.3975 272.954,90.0368 C278.917,91.947 281,95.9845 281,99.6275 C281,103.27 278.346,106.913 270.993,106.913 C265.224,106.913 238.974,142.362 189.183,151.057 C130.818,161.248 86.101,145.389 38.7607,97.0005" id="Path" stroke="#020F50" stroke-width="1.3" stroke-linecap="round"></path>
            <path d="M203.5,86 C203.5,111.134 183.348,131.5 158.5,131.5 C133.652,131.5 113.5,111.134 113.5,86 C113.5,60.8659 133.652,40.5 158.5,40.5 C183.348,40.5 203.5,60.8659 203.5,86 Z" id="Path" stroke="#020F50"></path>
            <ellipse id="Oval" fill="#020F50" fill-rule="nonzero" cx="158" cy="85.5" rx="20" ry="19.5"></ellipse>
            <path d="M0,90 C7.62378,90 23.2541,87.64 38.726,77.5891 C68.4126,58.3041 100.046,14.4359 170.787,18.2315 C221.553,20.9553 257.741,64.9427 273,89.5694" id="Path" stroke="#020F50" stroke-width="2.5" stroke-linecap="round"></path>
        </g>
    </g>
</svg>