<svg width="134" height="89" viewBox="0 0 134 89" fill="none" xmlns="http://www.w3.org/2000/svg">
<path d="M55.5684 0.982404C54.5156 0.97215 53.8389 1.72069 53.8389 2.64354C53.8389 3.59715 54.5737 4.27733 55.459 4.27733C55.9854 4.27733 56.4399 4.03123 56.7236 3.62108H56.792C56.7852 4.8242 56.293 5.52147 55.4863 5.52147C54.936 5.52147 54.5977 5.19334 54.4883 4.74901H53.8799C54.0029 5.53514 54.6147 6.06834 55.4863 6.06834C56.645 6.06834 57.3662 5.08738 57.3662 3.32713C57.3662 1.50535 56.4194 0.992658 55.5684 0.982404ZM54.4404 2.6367C54.4336 2.02488 54.9224 1.52244 55.5684 1.52244C56.2212 1.52244 56.6963 2.05565 56.6963 2.62303C56.6963 3.20408 56.1938 3.73729 55.5479 3.73729C54.9019 3.73729 54.437 3.24852 54.4404 2.6367Z" fill="#5B6EB4"/>
<path d="M59.834 6.06834C60.9312 6.06834 61.5635 5.14549 61.5635 3.52537C61.5635 1.91893 60.9209 0.982404 59.834 0.982404C58.7437 0.982404 58.1011 1.91893 58.1045 3.52537C58.1011 5.14549 58.7368 6.06834 59.834 6.06834ZM58.6992 3.52537C58.7026 2.24363 59.123 1.51903 59.834 1.51561C60.5449 1.51903 60.9653 2.24363 60.9619 3.52537C60.9653 4.80711 60.5483 5.52147 59.834 5.52147C59.1162 5.52147 58.7026 4.80711 58.6992 3.52537Z" fill="#5B6EB4"/>
<path d="M63.2314 3.57322C63.9287 3.57322 64.3936 3.05027 64.3936 2.2949C64.3936 1.54295 63.9287 1.02 63.2314 1.02342C62.5342 1.02 62.0693 1.54295 62.0693 2.2949C62.0693 3.05027 62.5342 3.57322 63.2314 3.57322ZM62.6025 2.2949C62.5991 1.7993 62.8384 1.42332 63.2314 1.4199C63.6245 1.42332 63.8638 1.7993 63.8604 2.2949C63.8638 2.78367 63.6245 3.16307 63.2314 3.16307C62.8384 3.16307 62.5991 2.78367 62.6025 2.2949Z" fill="#5B6EB4"/>
<path d="M12.1311 47.0508H11.509L10.2786 47.8711V48.4932L11.4817 47.6934H11.509V52H12.1311V47.0508Z" fill="#5B6EB4"/>
<path d="M14.8947 52.0684C15.927 52.0684 16.6516 51.4907 16.6584 50.6875C16.6516 50.0483 16.2072 49.5186 15.6467 49.4297V49.4023C16.132 49.2896 16.4602 48.835 16.467 48.2949C16.4602 47.5396 15.7971 46.9824 14.8947 46.9824C13.989 46.9824 13.3259 47.5396 13.3293 48.2949C13.3259 48.835 13.6506 49.2896 14.1428 49.4023V49.4297C13.5788 49.5186 13.1345 50.0483 13.1379 50.6875C13.1345 51.4907 13.8523 52.0684 14.8947 52.0684ZM13.7531 50.6533C13.7429 50.1064 14.2317 49.7031 14.8947 49.7031C15.5612 49.7031 16.0432 50.1064 16.0432 50.6533C16.0432 51.1729 15.6023 51.5249 14.8947 51.5283C14.1838 51.5249 13.7429 51.1729 13.7531 50.6533ZM13.924 48.3428C13.9275 47.8472 14.3068 47.5122 14.8947 47.5156C15.4724 47.5122 15.8654 47.8472 15.8654 48.3428C15.8654 48.8418 15.4587 49.1802 14.8947 49.1836C14.3274 49.1802 13.9275 48.8418 13.924 48.3428Z" fill="#5B6EB4"/>
<path d="M18.8957 52.0684C19.9928 52.0684 20.6252 51.1455 20.6252 49.5254C20.6252 47.9189 19.9826 46.9824 18.8957 46.9824C17.8053 46.9824 17.1628 47.9189 17.1662 49.5254C17.1628 51.1455 17.7985 52.0684 18.8957 52.0684ZM17.7609 49.5254C17.7643 48.2437 18.1847 47.519 18.8957 47.5156C19.6066 47.519 20.027 48.2437 20.0236 49.5254C20.027 50.8071 19.61 51.5215 18.8957 51.5215C18.1779 51.5215 17.7643 50.8071 17.7609 49.5254Z" fill="#5B6EB4"/>
<path d="M22.2677 49.2383C22.8829 49.2383 23.382 48.7427 23.382 48.1309C23.382 47.5088 22.8829 47.0098 22.2677 47.0098C21.6491 47.0098 21.1534 47.5088 21.1534 48.1309C21.1534 48.7427 21.6491 49.2383 22.2677 49.2383ZM21.6388 48.1309C21.6422 47.7788 21.9225 47.5054 22.2677 47.502C22.6129 47.5054 22.8864 47.7788 22.8898 48.1309C22.8864 48.4727 22.6129 48.7529 22.2677 48.7529C21.9225 48.7529 21.6422 48.4727 21.6388 48.1309Z" fill="#5B6EB4"/>
<path d="M94.9702 52.0684C96.0674 52.0684 96.6997 51.1455 96.6997 49.5254C96.6997 47.9189 96.0571 46.9824 94.9702 46.9824C93.8799 46.9824 93.2373 47.9189 93.2407 49.5254C93.2373 51.1455 93.8731 52.0684 94.9702 52.0684ZM93.8355 49.5254C93.8389 48.2437 94.2593 47.519 94.9702 47.5156C95.6812 47.519 96.1016 48.2437 96.0982 49.5254C96.1016 50.8071 95.6846 51.5215 94.9702 51.5215C94.2525 51.5215 93.8389 50.8071 93.8355 49.5254Z" fill="#5B6EB4"/>
<path d="M98.5523 49.2383C99.1675 49.2383 99.6665 48.7427 99.6665 48.1309C99.6665 47.5088 99.1675 47.0098 98.5523 47.0098C97.9336 47.0098 97.438 47.5088 97.438 48.1309C97.438 48.7427 97.9336 49.2383 98.5523 49.2383ZM97.9234 48.1309C97.9268 47.7788 98.207 47.5054 98.5523 47.502C98.8975 47.5054 99.1709 47.7788 99.1743 48.1309C99.1709 48.4727 98.8975 48.7529 98.5523 48.7529C98.207 48.7529 97.9268 48.4727 97.9234 48.1309Z" fill="#5B6EB4"/>
<path fill-rule="evenodd" clip-rule="evenodd" d="M58.3207 70.0813C46.964 70.0813 37.7576 60.8749 37.7576 49.5182C37.7576 38.1615 46.964 28.9551 58.3207 28.9551C69.6774 28.9551 78.8838 38.1615 78.8838 49.5182C78.8838 60.8749 69.6774 70.0813 58.3207 70.0813ZM58.3207 71.0813C46.4117 71.0813 36.7576 61.4272 36.7576 49.5182C36.7576 37.6092 46.4117 27.9551 58.3207 27.9551C70.2297 27.9551 79.8838 37.6092 79.8838 49.5182C79.8838 61.4272 70.2297 71.0813 58.3207 71.0813Z" fill="#273576"/>
<path fill-rule="evenodd" clip-rule="evenodd" d="M103.807 39.033L103.807 39.0328C92.0361 29.3745 77.8261 17.715 52.6177 19.0656C41.0727 19.6841 31.1318 24.9908 23.1538 31.629C15.1752 38.2678 9.2294 46.1827 5.70251 51.8668C5.36961 52.4034 4.69654 52.6002 4.13521 52.3514C3.31124 52.7361 2.74088 53.2225 2.35825 53.7368C1.85716 54.4102 1.64986 55.1689 1.64986 55.8961C1.64986 56.5852 1.89687 57.2476 2.47629 57.7472C3.06389 58.2538 4.06602 58.6546 5.68656 58.6546C6.00573 58.6546 6.32031 58.7719 6.5973 58.9108C6.88548 59.0554 7.19911 59.2578 7.53214 59.4978C8.19759 59.9774 9.01057 60.6586 9.95563 61.4649C10.1544 61.6345 10.3597 61.8102 10.5716 61.9915C12.3872 63.5454 14.6855 65.5124 17.4976 67.5814C23.7742 72.1992 32.5848 77.3046 44.1133 79.3154C57.6919 81.6837 69.6444 81.0199 80.9431 76.9763C92.2475 72.9306 102.946 65.4844 113.986 54.2123C114.237 53.9559 114.649 53.9516 114.905 54.2028C115.161 54.454 115.166 54.8655 114.915 55.122C103.783 66.4872 92.9245 74.069 81.3811 78.2002C69.8319 82.3335 57.6458 82.9953 43.8899 80.596C32.099 78.5395 23.103 73.3193 16.7272 68.6285C13.8744 66.5296 11.5411 64.5325 9.72629 62.9792L9.7261 62.979L9.72122 62.9749C9.51116 62.7951 9.30805 62.6212 9.11189 62.4539C8.1601 61.6419 7.38718 60.9957 6.77209 60.5525C6.46486 60.3311 6.21456 60.1732 6.01446 60.0729C5.80316 59.9669 5.70509 59.9546 5.68656 59.9546C3.86341 59.9546 2.5222 59.5033 1.62737 58.7317C0.724365 57.9531 0.349854 56.9113 0.349854 55.8961C0.349854 54.919 0.630402 53.8812 1.31528 52.9607C1.80625 52.3009 2.49062 51.7206 3.39167 51.2673C3.37979 51.0229 3.43942 50.7724 3.57822 50.5488C7.20347 44.7061 13.3151 36.5633 21.5548 29.7073C29.7951 22.8507 40.2333 17.2255 52.4839 16.5692C78.7719 15.1607 93.9557 27.6498 105.77 37.3674L105.77 37.3675C109.101 40.1069 112.163 42.6262 115.132 44.5516C122.149 49.104 129.23 50.1594 132.603 50.1594C133.294 50.1594 133.853 50.719 133.853 51.4094C133.853 52.0997 133.294 52.6594 132.603 52.6594C128.83 52.6594 121.258 51.5055 113.771 46.649C110.516 44.5372 107.267 41.8715 103.807 39.033Z" fill="#273576"/>
<path fill-rule="evenodd" clip-rule="evenodd" d="M89.6868 50H90.6035V49.069H89.6868V50ZM86.0202 50H87.8535V49.069H86.0202V50ZM82.3535 50H84.1868V49.069H82.3535V50ZM78.6868 50H80.5202V49.069H78.6868V50ZM75.0202 50H76.8535V49.069H75.0202V50ZM71.3535 50H73.1868V49.069H71.3535V50ZM67.6868 50H69.5202V49.069H67.6868V50ZM64.0202 50H65.8535V49.069H64.0202V50ZM60.3535 50H62.1868V49.069H60.3535V50ZM56.6868 50H58.5202V49.069H56.6868V50ZM53.0202 50H54.8535V49.069H53.0202V50ZM49.3535 50H51.1869V49.069H49.3535V50ZM45.6869 50H47.5202V49.069H45.6869V50ZM42.0202 50H43.8535V49.069H42.0202V50ZM38.3535 50H40.1869V49.069H38.3535V50ZM34.6869 50H36.5202V49.069H34.6869V50ZM31.0202 50H32.8535V49.069H31.0202V50ZM27.3535 50H29.1869V49.069H27.3535V50ZM24.6035 50H25.5202V49.069H24.6035V50Z" fill="#5B6EB4"/>
<path fill-rule="evenodd" clip-rule="evenodd" d="M59.0689 9.95238L59.0689 9L58.1379 9L58.1379 9.95238L59.0689 9.95238ZM59.0689 13.7619L59.0689 11.8571L58.1379 11.8571L58.1379 13.7619L59.0689 13.7619ZM59.0689 17.5714L59.0689 15.6667L58.1379 15.6667L58.1379 17.5714L59.0689 17.5714ZM59.0689 21.381L59.0689 19.4762L58.1379 19.4762L58.1379 21.381L59.0689 21.381ZM59.0689 25.1905L59.0689 23.2857L58.1379 23.2857L58.1379 25.1905L59.0689 25.1905ZM59.0689 29L59.0689 27.0952L58.1379 27.0952L58.1379 29L59.0689 29ZM59.0689 32.8095L59.0689 30.9048L58.1379 30.9048L58.1379 32.8095L59.0689 32.8095ZM59.0689 36.6191L59.0689 34.7143L58.1379 34.7143L58.1379 36.6191L59.0689 36.6191ZM59.0689 40.4286L59.0689 38.5238L58.1379 38.5238L58.1379 40.4286L59.0689 40.4286ZM59.0689 44.2381L59.0689 42.3333L58.1379 42.3333L58.1379 44.2381L59.0689 44.2381ZM59.0689 48.0476L59.0689 46.1429L58.1379 46.1429L58.1379 48.0476L59.0689 48.0476ZM59.0689 51.8571L59.0689 49.9524L58.1379 49.9524L58.1379 51.8571L59.0689 51.8571ZM59.0689 55.6667L59.0689 53.7619L58.1379 53.7619L58.1379 55.6667L59.0689 55.6667ZM59.0689 59.4762L59.0689 57.5714L58.1379 57.5714L58.1379 59.4762L59.0689 59.4762ZM59.0689 63.2857L59.0689 61.381L58.1379 61.381L58.1379 63.2857L59.0689 63.2857ZM59.0689 67.0952L59.0689 65.1905L58.1379 65.1905L58.1379 67.0952L59.0689 67.0952ZM59.0689 70.9048L59.0689 69L58.1379 69L58.1379 70.9048L59.0689 70.9048ZM59.0689 74.7143L59.0689 72.8095L58.1379 72.8095L58.1379 74.7143L59.0689 74.7143ZM59.0689 78.5238L59.0689 76.6191L58.1379 76.6191L58.1379 78.5238L59.0689 78.5238ZM59.0689 82.3333L59.0689 80.4286L58.1379 80.4286L58.1379 82.3333L59.0689 82.3333ZM59.0689 86.1429L59.0689 84.2381L58.1379 84.2381L58.1379 86.1429L59.0689 86.1429ZM59.0689 89L59.0689 88.0476L58.1379 88.0476L58.1379 89L59.0689 89Z" fill="#5B6EB4"/>
<path d="M48.9886 49.3075C48.9886 54.4478 53.1557 58.6149 58.2961 58.6149C63.4364 58.6149 67.6035 54.4478 67.6035 49.3075C67.6035 44.1671 63.4364 40 58.2961 40C53.1557 40 48.9886 44.1671 48.9886 49.3075Z" fill="#273576"/>
</svg>
