<svg width="117" height="14" viewBox="0 0 117 14" fill="none" xmlns="http://www.w3.org/2000/svg">
<path d="M13.2368 6.61841C13.2368 10.2737 10.2737 13.2368 6.61841 13.2368C2.96316 13.2368 0 10.2737 0 6.61841C0 2.96316 2.96316 0 6.61841 0C10.2737 0 13.2368 2.96316 13.2368 6.61841Z" fill="#D0D6EB"/>
<path fill-rule="evenodd" clip-rule="evenodd" d="M49.8547 12.2368C52.9577 12.2368 55.4731 9.72137 55.4731 6.61841C55.4731 3.51545 52.9577 1 49.8547 1C46.7518 1 44.2363 3.51545 44.2363 6.61841C44.2363 9.72137 46.7518 12.2368 49.8547 12.2368ZM49.8547 13.2368C53.51 13.2368 56.4731 10.2737 56.4731 6.61841C56.4731 2.96316 53.51 0 49.8547 0C46.1995 0 43.2363 2.96316 43.2363 6.61841C43.2363 10.2737 46.1995 13.2368 49.8547 13.2368Z" fill="#113287"/>
<path d="M99.7095 6.61841C99.7095 10.2737 96.7463 13.2368 93.0911 13.2368C89.4358 13.2368 86.4727 10.2737 86.4727 6.61841C86.4727 2.96316 89.4358 0 93.0911 0C96.7463 0 99.7095 2.96316 99.7095 6.61841Z" fill="#113287"/>
<path d="M21.3701 3.45605H20.7207V7.03809H21.3701V5.51367H22.2588V4.9668H21.3701V3.45605ZM16.5234 6.48438L16.79 6.9834C18.6084 6.51514 19.6714 5.40771 19.6748 3.83203H16.8174V4.3584H18.9775C18.8647 5.32227 17.9932 6.09814 16.5234 6.48438ZM17.3232 7.83105H20.7207V9.58105H21.3701V7.30469H17.3232V7.83105Z" fill="#113287"/>
<path d="M27.4199 3.90723H24.5557V6.66211H27.4199V3.90723ZM25.082 7.91309H28.4795V9.58789H29.1289V7.39355H25.082V7.91309ZM25.1914 6.14258V4.41992H26.7842V6.14258H25.1914ZM28.4795 7.08594H29.1289V5.54785H30.0176V5.00781H29.1289V3.45605H28.4795V7.08594Z" fill="#113287"/>
<path d="M62.1104 7.6875C60.7466 7.6875 59.9844 8.01904 59.9844 8.6377C59.9844 9.25293 60.7466 9.5708 62.1104 9.56738C63.457 9.5708 64.2192 9.25293 64.2227 8.6377C64.2192 8.01904 63.457 7.6875 62.1104 7.6875ZM59.3213 7.35254H64.9062V6.83984H62.4385V6.41602C63.5254 6.36816 64.1235 6.0708 64.1201 5.55469C64.1235 4.97021 63.4023 4.67285 62.1104 4.67285C60.8252 4.67285 60.0972 4.97021 60.1006 5.55469C60.0972 6.07422 60.7056 6.36816 61.7891 6.41602V6.83984H59.3213V7.35254ZM59.6084 4.44727H64.5918V3.94824H62.4385V3.38086H61.7891V3.94824H59.6084V4.44727ZM60.6475 8.6377C60.6475 8.33008 61.1567 8.16943 62.1104 8.16602C63.0571 8.16943 63.5664 8.33008 63.5664 8.6377C63.5664 8.93848 63.0571 9.09229 62.1104 9.08887C61.1567 9.09229 60.6475 8.93848 60.6475 8.6377ZM60.791 5.55469C60.7876 5.26416 61.2559 5.12061 62.1104 5.11719C62.9717 5.12061 63.4297 5.26416 63.4297 5.55469C63.4297 5.82129 62.9717 5.96826 62.1104 5.97168C61.2559 5.96826 60.7876 5.82129 60.791 5.55469Z" fill="#113287"/>
<path d="M68.9121 5.3291V5.10352H70.0264V4.56348H68.9121V3.6748H68.3037V4.56348H67.1689V5.10352H68.3037V5.3291C68.2969 6.31689 67.856 7.35938 67.0117 7.85156L67.3945 8.33008C67.9858 7.98828 68.396 7.34912 68.6113 6.61084C68.8335 7.30127 69.2471 7.88574 69.8418 8.2002L70.2109 7.71484C69.3564 7.26709 68.9121 6.28271 68.9121 5.3291ZM70.4023 9.28027H71.0176V6.43652H71.749V9.58105H72.3711V3.45605H71.749V5.88965H71.0176V3.57227H70.4023V9.28027Z" fill="#113287"/>
<path d="M108.622 6.43652H106.141V5.78711H107.973V5.26758H104.37V4.24902H107.932V3.73633H103.728V5.78711H105.512V6.43652H103.03V6.95605H108.622V6.43652ZM103.693 8.4668C103.693 9.17773 104.49 9.57764 105.819 9.58105C107.139 9.57764 107.928 9.17773 107.932 8.4668C107.928 7.75586 107.139 7.35596 105.819 7.35254C104.49 7.35596 103.693 7.75586 103.693 8.4668ZM104.35 8.4668C104.346 8.08057 104.883 7.8584 105.819 7.8584C106.742 7.8584 107.282 8.08057 107.282 8.4668C107.282 8.85986 106.742 9.0752 105.819 9.06836C104.883 9.0752 104.346 8.85986 104.35 8.4668Z" fill="#113287"/>
<path d="M113.551 7.30469C112.238 7.30469 111.397 7.7251 111.397 8.43945C111.397 9.15039 112.238 9.5708 113.551 9.56738C114.877 9.5708 115.714 9.15039 115.718 8.43945C115.714 7.7251 114.877 7.30469 113.551 7.30469ZM110.796 6.79883H116.367V6.27246H113.667V5.12402H113.031V6.27246H110.796V6.79883ZM111.445 4.27637H115.027C115.027 4.75146 115.027 5.20264 114.863 5.82812L115.499 5.89648C115.673 5.26416 115.673 4.7583 115.67 4.26953V3.75684H111.445V4.27637ZM112.047 8.43945C112.04 8.03613 112.625 7.80029 113.551 7.79688C114.487 7.80029 115.068 8.03613 115.075 8.43945C115.068 8.83594 114.487 9.06494 113.551 9.06836C112.625 9.06494 112.04 8.83594 112.047 8.43945Z" fill="#113287"/>
</svg>
