<?xml version="1.0" encoding="UTF-8"?>
<svg width="762px" height="215px" viewBox="0 0 762 215" version="1.1" xmlns="http://www.w3.org/2000/svg" xmlns:xlink="http://www.w3.org/1999/xlink">
    <title>Artboard</title>
    <defs>
        <radialGradient cx="49.9597315%" cy="49.9396199%" fx="49.9597315%" fy="49.9396199%" r="50.0716443%" gradientTransform="translate(0.499597,0.499396),scale(1.000000,0.871345),rotate(180.000000),translate(-0.499597,-0.499396)" id="radialGradient-1">
            <stop stop-color="#E2E6F6" offset="0%"></stop>
            <stop stop-color="#E2E6F6" offset="58.12%"></stop>
            <stop stop-color="#E2E6F6" offset="100%"></stop>
        </radialGradient>
        <radialGradient cx="49.8469388%" cy="49.9082222%" fx="49.8469388%" fy="49.9082222%" r="49.9770408%" gradientTransform="translate(0.498469,0.499082),scale(1.000000,0.871111),rotate(180.000000),translate(-0.498469,-0.499082)" id="radialGradient-2">
            <stop stop-color="#FFFFFF" offset="0%"></stop>
            <stop stop-color="#FFFFFF" stop-opacity="0" offset="100%"></stop>
        </radialGradient>
        <radialGradient cx="49.9530201%" cy="50.0210526%" fx="49.9530201%" fy="50.0210526%" r="50.0716443%" gradientTransform="translate(0.499530,0.500211),scale(1.000000,0.871345),rotate(180.000000),translate(-0.499530,-0.500211)" id="radialGradient-3">
            <stop stop-color="#E2E6F6" offset="0%"></stop>
            <stop stop-color="#E2E6F6" offset="58.12%"></stop>
            <stop stop-color="#E2E6F6" offset="100%"></stop>
        </radialGradient>
        <radialGradient cx="49.8367347%" cy="50.032%" fx="49.8367347%" fy="50.032%" r="49.9770408%" gradientTransform="translate(0.498367,0.500320),scale(1.000000,0.871111),rotate(180.000000),translate(-0.498367,-0.500320)" id="radialGradient-4">
            <stop stop-color="#FFFFFF" offset="0%"></stop>
            <stop stop-color="#FFFFFF" stop-opacity="0" offset="100%"></stop>
        </radialGradient>
        <radialGradient cx="49.9724518%" cy="50.0697095%" fx="49.9724518%" fy="50.0697095%" r="75.2263485%" gradientTransform="translate(0.499725,0.500697),scale(0.663912,1.000000),rotate(180.000000),translate(-0.499725,-0.500697)" id="radialGradient-5">
            <stop stop-color="#E2E6F6" offset="0%"></stop>
            <stop stop-color="#E2E6F6" offset="58.12%"></stop>
            <stop stop-color="#E2E6F6" offset="100%"></stop>
        </radialGradient>
        <radialGradient cx="49.9936975%" cy="50.1063291%" fx="49.9936975%" fy="50.1063291%" r="75.3268987%" gradientTransform="translate(0.499937,0.501063),scale(0.663866,1.000000),rotate(180.000000),translate(-0.499937,-0.501063)" id="radialGradient-6">
            <stop stop-color="#FFFFFF" offset="0%"></stop>
            <stop stop-color="#FFFFFF" stop-opacity="0" offset="100%"></stop>
        </radialGradient>
        <radialGradient cx="50.0589513%" cy="49.9985934%" fx="50.0589513%" fy="49.9985934%" r="50.0616368%" id="radialGradient-7">
            <stop stop-color="#E2E6F6" offset="0%"></stop>
            <stop stop-color="#E2E6F6" offset="58.12%"></stop>
            <stop stop-color="#E2E6F6" offset="100%"></stop>
        </radialGradient>
        <radialGradient cx="49.9653699%" cy="49.9978599%" fx="49.9653699%" fy="49.9978599%" r="49.9998054%" id="radialGradient-8">
            <stop stop-color="#FFFFFF" offset="0%"></stop>
            <stop stop-color="#FFFFFF" stop-opacity="0" offset="100%"></stop>
        </radialGradient>
    </defs>
    <g id="Artboard" stroke="none" stroke-width="1" fill="none" fill-rule="evenodd">
        <g id="F-13" transform="translate(1.000000, 1.000000)">
            <rect id="Rectangle" fill="#F3F6FF" fill-rule="nonzero" x="22.6477579" y="185.670092" width="130.697392" height="25.9399404" rx="5"></rect>
            <path d="M42.0846551,193.063973 L42.0846551,198.003536 C43.6996159,197.981587 45.4533554,197.857873 47.302075,197.477754 L47.5067012,198.997235 C45.3437093,199.436219 43.268514,199.552949 41.3539469,199.552949 L40.2139863,199.552949 L40.2139863,193.063973 L42.0846551,193.063973 Z M50.2250074,192.187003 L50.2250074,195.914373 L52.0226453,195.914373 L52.0226453,197.477754 L50.2250074,197.477754 L50.2250074,201.730906 L48.3543387,201.730906 L48.3543387,192.187003 L50.2250074,192.187003 Z M50.6634922,203.747238 L50.6634922,205.237786 L41.6023717,205.237786 L41.6023717,200.838971 L43.4877065,200.838971 L43.4877065,203.747238 L50.6634922,203.747238 Z M57.7808133,195.183066 C57.7808133,197.623416 58.8914418,200.078731 61.1421307,201.02953 L60.0460684,202.520079 C58.5260877,201.83267 57.473824,200.510731 56.8747112,198.866538 C56.2681156,200.656394 55.1793365,202.103044 53.5571923,202.841335 L52.431798,201.291922 C54.7555178,200.313189 55.8809122,197.770077 55.8954784,195.183066 L55.8954784,193.195668 L57.7808133,193.195668 L57.7808133,195.183066 Z M63.7435076,192.173036 L63.7435076,205.501177 L61.8582726,205.501177 L61.8582726,192.173036 L63.7435076,192.173036 Z M76.03445,192.173036 L76.03445,197.273227 L77.9196851,197.273227 L77.9196851,198.807674 L76.03445,198.807674 L76.03445,205.442313 L74.1637812,205.442313 L74.1637812,192.173036 L76.03445,192.173036 Z M72.4830726,193.531889 C72.4684066,197.506687 70.9192933,200.955701 66.4472476,203.148624 L65.3949839,201.715941 C68.544392,200.137595 70.2323837,198.018501 70.5831715,195.051371 L66.1549244,195.051371 L66.1549244,193.531889 L72.4830726,193.531889 Z M85.1247031,199.948034 L85.1247031,201.277955 L86.5568871,201.277955 L86.5568871,199.948034 L88.2813943,199.948034 L88.2813943,203.981695 C89.7574767,203.323219 90.3859216,202.081095 90.3859216,200.867904 L90.3859216,199.845272 L92.2565904,199.845272 L92.2565904,200.867904 C92.2420241,202.227756 92.8997014,203.513778 94.5657439,204.054526 L93.6011772,205.442313 C92.4539335,205.048225 91.7158424,204.287986 91.2920237,203.338185 C90.8462558,204.259053 90.1155476,205.026276 89.0414345,205.442313 L88.2813943,204.287986 L88.2813943,205.325583 L83.4001959,205.325583 L83.4001959,199.948034 L85.1247031,199.948034 Z M85.1247031,203.907866 L86.5568871,203.907866 L86.5568871,202.651774 L85.1247031,202.651774 L85.1247031,203.907866 Z M85.6362187,192.669885 C87.3314936,192.669885 88.6833636,193.611705 89.0560008,195.022438 L91.2774574,195.022438 L91.2774574,192.173036 L93.1334601,192.173036 L93.1334601,199.216727 L91.2774574,199.216727 L91.2774574,196.556886 L89.0560008,196.556886 C88.6979299,197.996552 87.3387768,198.953337 85.6362187,198.953337 C83.5901561,198.953337 82.0848414,197.653347 82.0994012,195.796646 C82.0848414,193.969875 83.5901561,192.669885 85.6362187,192.669885 Z M85.6362187,194.204333 C84.5985214,194.204333 83.8532469,194.817912 83.8678132,195.796646 C83.8532469,196.80531 84.5985214,197.41889 85.6362187,197.433855 C86.644584,197.41889 87.3752922,196.80531 87.3752922,195.796646 C87.3752922,194.817912 86.644584,194.204333 85.6362187,194.204333 Z M105.65856,195.796646 L105.65856,197.258262 L96.363282,197.258262 L96.363282,192.639955 L98.2193845,192.639955 L98.2193845,195.796646 L105.65856,195.796646 Z M107.017414,198.690945 L107.017414,200.15256 L94.8434011,200.15256 L94.8434011,198.690945 L107.017414,198.690945 Z M105.746353,203.689372 L105.746353,205.17992 L96.2463528,205.17992 L96.2463528,201.234056 L98.1170216,201.234056 L98.1170216,203.689372 L105.746353,203.689372 Z M116.0934,194.262199 C116.0934,195.870475 117.028236,197.41889 119.132364,198.077365 L118.138665,199.524016 C116.728929,199.056099 115.742213,198.150197 115.172532,196.980904 C114.59487,198.32579 113.564256,199.377355 112.044774,199.88917 L111.03611,198.427554 C113.257965,197.68228 114.207766,195.914373 114.222731,194.087603 L114.222731,192.874412 L116.0934,192.874412 L116.0934,194.262199 Z M121.793203,192.173036 L121.793203,195.285829 L123.590043,195.285829 L123.590043,196.834243 L121.793203,196.834243 L121.793203,200.064764 L119.922535,200.064764 L119.922535,192.173036 L121.793203,192.173036 Z M117.437289,200.327156 C120.184927,200.327156 121.923901,201.277955 121.923901,202.900199 C121.923901,204.53641 120.184927,205.472244 117.437289,205.472244 C114.631784,205.472244 112.877845,204.53641 112.877845,202.900199 C112.877845,201.277955 114.631784,200.327156 117.437289,200.327156 Z M117.437289,201.788772 C115.68335,201.788772 114.733549,202.168892 114.748514,202.900199 C114.733549,203.659441 115.68335,204.010628 117.437289,204.010628 C119.162295,204.010628 120.083163,203.659441 120.083163,202.900199 C120.083163,202.168892 119.162295,201.788772 117.437289,201.788772 Z M130.050086,193.560822 L130.050086,195.037404 L126.410513,195.037404 L126.410513,197.039768 L129.786696,197.039768 L129.786696,198.471453 L126.410513,198.471453 L126.410513,200.867904 C127.909043,200.853937 128.997523,200.802057 130.298511,200.619479 L130.430206,202.139959 C128.895759,202.388384 127.579805,202.432282 125.563474,202.432282 L124.627641,202.432282 L124.627641,193.560822 L130.050086,193.560822 Z M135.705991,192.173036 L135.705991,205.472244 L133.923119,205.472244 L133.923119,198.82264 L132.767794,198.82264 L132.767794,204.857667 L131.014852,204.857667 L131.014852,192.362597 L132.767794,192.362597 L132.767794,197.331093 L133.923119,197.331093 L133.923119,192.173036 L135.705991,192.173036 Z" id="Shape" fill="#020F50" fill-rule="nonzero"></path>
            <rect id="Rectangle" fill="#F3F6FF" fill-rule="nonzero" x="249.123392" y="185.670092" width="72.8313712" height="25.9399404" rx="5"></rect>
            <path d="M274.205319,192.91831 L274.205319,194.393894 L271.560443,194.393894 C271.57441,195.965255 272.510243,197.572534 274.614372,198.266926 L273.693504,199.699609 C272.21792,199.231693 271.209256,198.266926 270.639575,197.068701 C270.039963,198.398621 268.980416,199.472136 267.410052,199.976967 L266.459253,198.500386 C268.644195,197.79901 269.637894,196.053052 269.659843,194.393894 L266.986034,194.393894 L266.986034,192.91831 L274.205319,192.91831 Z M277.74213,200.678343 L277.74213,205.472244 L275.886426,205.472244 L275.886426,202.168892 L268.608278,202.168892 L268.608278,200.678343 L277.74213,200.678343 Z M277.74213,192.173036 L277.74213,200.093697 L275.886426,200.093697 L275.886426,196.893107 L273.825199,196.893107 L273.825199,195.373625 L275.886426,195.373625 L275.886426,192.173036 L277.74213,192.173036 Z M281.878553,193.063973 L281.878553,198.003536 C283.492815,197.981587 285.246754,197.857873 287.095474,197.477754 L287.3,198.997235 C285.137008,199.436219 283.061813,199.552949 281.147246,199.552949 L280.007884,199.552949 L280.007884,193.063973 L281.878553,193.063973 Z M290.018706,192.187003 L290.018706,195.914373 L291.816543,195.914373 L291.816543,197.477754 L290.018706,197.477754 L290.018706,201.730906 L288.148037,201.730906 L288.148037,192.187003 L290.018706,192.187003 Z M290.456691,203.747238 L290.456691,205.237786 L281.395671,205.237786 L281.395671,200.838971 L283.281305,200.838971 L283.281305,203.747238 L290.456691,203.747238 Z M297.574212,195.183066 C297.574212,197.623416 298.684641,200.078731 300.93543,201.02953 L299.838968,202.520079 C298.319486,201.83267 297.266923,200.510731 296.668309,198.866538 C296.061714,200.656394 294.973234,202.103044 293.35099,202.841335 L292.225596,201.291922 C294.549216,200.313189 295.67461,197.770077 295.688578,195.183066 L295.688578,193.195668 L297.574212,193.195668 L297.574212,195.183066 Z M303.537405,192.173036 L303.537405,205.501177 L301.651771,205.501177 L301.651771,192.173036 L303.537405,192.173036 Z" id="Shape" fill="#020F50" fill-rule="nonzero"></path>
            <rect id="Rectangle" fill="#F3F6FF" fill-rule="nonzero" x="448.661395" y="185.670092" width="72.8313712" height="25.9399404" rx="5"></rect>
            <path d="M476.914979,198.120266 L476.914979,199.596847 L473.056911,199.596847 L473.056911,202.432282 L478.244899,202.432282 L478.244899,203.951764 L466.071086,203.951764 L466.071086,202.432282 L471.20021,202.432282 L471.20021,199.596847 L467.502771,199.596847 L467.502771,193.107871 L476.812217,193.107871 L476.812217,194.59842 L469.37344,194.59842 L469.37344,198.120266 L476.914979,198.120266 Z M481.416556,193.063973 L481.416556,198.003536 C483.030818,197.981587 484.784757,197.857873 486.633477,197.477754 L486.838004,198.997235 C484.675012,199.436219 482.599816,199.552949 480.685249,199.552949 L479.545887,199.552949 L479.545887,193.063973 L481.416556,193.063973 Z M489.556709,192.187003 L489.556709,195.914373 L491.354546,195.914373 L491.354546,197.477754 L489.556709,197.477754 L489.556709,201.730906 L487.68604,201.730906 L487.68604,192.187003 L489.556709,192.187003 Z M489.994695,203.747238 L489.994695,205.237786 L480.933674,205.237786 L480.933674,200.838971 L482.819308,200.838971 L482.819308,203.747238 L489.994695,203.747238 Z M497.112215,195.183066 C497.112215,197.623416 498.222644,200.078731 500.473433,201.02953 L499.376972,202.520079 C497.85749,201.83267 496.804927,200.510731 496.206313,198.866538 C495.599717,200.656394 494.511237,202.103044 492.888993,202.841335 L491.763599,201.291922 C494.087219,200.313189 495.212614,197.770077 495.226581,195.183066 L495.226581,193.195668 L497.112215,193.195668 L497.112215,195.183066 Z M503.075409,192.173036 L503.075409,205.501177 L501.189774,205.501177 L501.189774,192.173036 L503.075409,192.173036 Z" id="Shape" fill="#020F50" fill-rule="nonzero"></path>
            <rect id="Rectangle" fill="#F3F6FF" fill-rule="nonzero" x="647.201708" y="185.670092" width="72.8313712" height="25.9399404" rx="5"></rect>
            <path d="M669.507064,195.183066 C669.492099,197.56555 670.515729,199.976967 672.64879,200.999599 L671.523396,202.490148 C670.098694,201.788772 669.14191,200.473817 668.586196,198.866538 C668.008534,200.590546 666.978918,202.00128 665.473403,202.738573 L664.319076,201.234056 C666.569865,200.196459 667.636395,197.653347 667.636395,195.183066 L667.636395,193.195668 L669.507064,193.195668 L669.507064,195.183066 Z M675.104105,192.173036 L675.104105,197.30216 L677.062571,197.30216 L677.062571,198.880506 L675.104105,198.880506 L675.104105,205.472244 L673.233436,205.472244 L673.233436,192.173036 L675.104105,192.173036 Z M679.956869,193.063973 L679.956869,198.003536 C681.571132,197.981587 683.325071,197.857873 685.17379,197.477754 L685.378317,198.997235 C683.215325,199.436219 681.14013,199.552949 679.225563,199.552949 L678.086201,199.552949 L678.086201,193.063973 L679.956869,193.063973 Z M688.097022,192.187003 L688.097022,195.914373 L689.89486,195.914373 L689.89486,197.477754 L688.097022,197.477754 L688.097022,201.730906 L686.226353,201.730906 L686.226353,192.187003 L688.097022,192.187003 Z M688.535008,203.747238 L688.535008,205.237786 L679.473987,205.237786 L679.473987,200.838971 L681.359621,200.838971 L681.359621,203.747238 L688.535008,203.747238 Z M695.652529,195.183066 C695.652529,197.623416 696.762958,200.078731 699.013746,201.02953 L697.917285,202.520079 C696.397803,201.83267 695.34524,200.510731 694.746626,198.866538 C694.140031,200.656394 693.051551,202.103044 691.429307,202.841335 L690.303912,201.291922 C692.627533,200.313189 693.752927,197.770077 693.766895,195.183066 L693.766895,193.195668 L695.652529,193.195668 L695.652529,195.183066 Z M701.615722,192.173036 L701.615722,205.501177 L699.730088,205.501177 L699.730088,192.173036 L701.615722,192.173036 Z" id="Shape" fill="#020F50" fill-rule="nonzero"></path>
            <g id="Group">
                <path d="M680.325017,149.054869 C721.485716,149.054869 754.852461,115.688124 754.852461,74.5274243 C754.852461,33.3670243 721.485716,2.21531686e-15 680.325017,2.21531686e-15 C639.164318,2.21531686e-15 605.797573,33.3670243 605.797573,74.5274243 C605.797573,115.688124 639.164318,149.054869 680.325017,149.054869 Z" id="Path" stroke="#113287"></path>
                <path d="M729.910211,120.620703 C712.450635,120.620703 696.786902,101.065979 694.292677,76.1237283 C691.598914,49.7847119 704.369346,26.8378415 722.627074,24.9422305 C723.425226,24.8424615 724.223378,24.8424615 725.02153,24.8424615 C742.481105,24.8424615 758.144838,44.3972856 760.639063,69.339536 C763.332826,95.6784526 750.562394,118.625323 732.304667,120.520934 C731.506515,120.620703 730.708363,120.620703 729.910211,120.620703 Z" id="Path" fill="#E2E6F6" fill-rule="nonzero"></path>
                <path d="M725.02153,25.8401515 C741.882491,25.8401515 757.147148,44.7962618 759.641373,69.4392052 C762.235367,95.2793766 749.96378,117.727402 732.204898,119.523244 C731.406746,119.623013 730.708363,119.623013 729.910211,119.623013 C713.049249,119.623013 697.784592,100.666903 695.290367,76.0239593 C692.696373,50.1837879 704.96796,27.7357625 722.726843,25.9399205 C723.524995,25.8401515 724.323147,25.8401515 725.02153,25.8401515 Z M725.02153,23.8447714 C724.223378,23.8447714 723.325457,23.8447714 722.527305,23.9445404 C713.248787,24.8424615 705.067729,30.9283706 699.580434,41.0050397 C694.192908,50.7824019 691.99799,63.3533959 693.294987,76.2235971 C694.492215,88.4951843 698.882051,99.9685197 705.666343,108.349116 C712.550404,116.92925 721.130539,121.618393 729.910211,121.618393 C730.708363,121.618393 731.606284,121.618393 732.404436,121.518624 C741.682953,120.620703 749.864011,114.534794 755.351306,104.458125 C760.738832,94.6807626 762.93375,82.1099682 761.636753,69.239767 C760.439525,56.9681798 756.049689,45.4946448 749.265397,37.1140487 C742.481105,28.5339145 733.900971,23.8447714 725.02153,23.8447714 Z" id="Shape" fill="#FFFFFF" fill-rule="nonzero"></path>
                <path d="M726.717603,96.6761427 C743.137585,96.6761427 756.448765,81.3997127 756.448765,62.5551441 C756.448765,43.7106753 743.137585,28.4341455 726.717603,28.4341455 C710.29762,28.4341455 696.98644,43.7106753 696.98644,62.5551441 C696.98644,81.3997127 710.29762,96.6761427 726.717603,96.6761427 Z" id="Path" fill="url(#radialGradient-1)" fill-rule="nonzero"></path>
                <path d="M722.826612,85.0031695 C733.626606,85.0031695 742.381336,74.9528393 742.381336,62.5551441 C742.381336,50.1574489 733.626606,40.1071187 722.826612,40.1071187 C712.026617,40.1071187 703.271887,50.1574489 703.271887,62.5551441 C703.271887,74.9528393 712.026617,85.0031695 722.826612,85.0031695 Z" id="Path" fill="url(#radialGradient-2)" fill-rule="nonzero"></path>
                <path d="M754.852461,50.3833259 C754.852461,50.3833259 756.348996,58.863691 749.365166,66.9449802 C740.086649,77.5204943 718.237238,92.0867686 697.784592,88.4950845" id="Path" stroke="#99D64D"></path>
                <path d="M705.367036,36.0165079 C705.367036,36.0165079 725.02153,35.7172826 743.97764,71.3348162 C758.144838,97.9731397 743.279257,115.432715 743.279257,115.432715" id="Path" stroke="#C5A1FF"></path>
                <path d="M484.777774,149.054869 C525.938473,149.054869 559.305218,115.688124 559.305218,74.5274243 C559.305218,33.3670243 525.938473,2.21531686e-15 484.777774,2.21531686e-15 C443.617074,2.21531686e-15 410.250329,33.3670243 410.250329,74.5274243 C410.250329,115.688124 443.617074,149.054869 484.777774,149.054869 Z" id="Path" stroke="#113287"></path>
                <path d="M532.168049,122.516314 C513.810553,122.516314 498.845203,100.96621 498.845203,74.5274243 C498.845203,48.0886389 513.810553,26.5385345 532.168049,26.5385345 C550.525546,26.5385345 565.490896,48.0886389 565.490896,74.5274243 C565.490896,100.96621 550.525546,122.516314 532.168049,122.516314 Z" id="Path" fill="#E2E6F6" fill-rule="nonzero"></path>
                <path d="M532.168049,27.4364555 C550.026701,27.4364555 564.493206,48.4877149 564.493206,74.4276553 C564.493206,100.367596 550.026701,121.418855 532.168049,121.418855 C514.309398,121.418855 499.842893,100.367596 499.842893,74.4276553 C499.842893,48.4877149 514.209629,27.4364555 532.168049,27.4364555 Z M532.168049,25.4410755 C522.889532,25.4410755 514.10986,30.6290636 507.624875,40.1071187 C501.239659,49.2858669 497.747744,61.5574541 497.747744,74.5274243 C497.747744,87.4973945 501.239659,99.6692127 507.624875,108.94773 C514.10986,118.425785 522.789763,123.613773 532.168049,123.613773 C541.546336,123.613773 550.226239,118.425785 556.711224,108.94773 C563.09644,99.7689817 566.588355,87.4973945 566.588355,74.5274243 C566.588355,61.5574541 563.09644,49.3856359 556.711224,40.1071187 C550.12647,30.6290636 541.446567,25.4410755 532.168049,25.4410755 Z" id="Shape" fill="#FFFFFF" fill-rule="nonzero"></path>
                <path d="M531.170359,100.068289 C547.590342,100.068289 560.901522,84.7918587 560.901522,65.9472901 C560.901522,47.1028213 547.590342,31.8262916 531.170359,31.8262916 C514.750377,31.8262916 501.439197,47.1028213 501.439197,65.9472901 C501.439197,84.7918587 514.750377,100.068289 531.170359,100.068289 Z" id="Path" fill="url(#radialGradient-3)" fill-rule="nonzero"></path>
                <path d="M527.279368,88.3953155 C538.079363,88.3953155 546.834093,78.3449854 546.834093,65.9472901 C546.834093,53.5495949 538.079363,43.4992648 527.279368,43.4992648 C516.479374,43.4992648 507.724644,53.5495949 507.724644,65.9472901 C507.724644,78.3449854 516.479374,88.3953155 527.279368,88.3953155 Z" id="Path" fill="url(#radialGradient-4)" fill-rule="nonzero"></path>
                <path d="M562.497826,58.065539 C562.497826,58.065539 563.295978,71.2350472 553.817923,76.0239593 C541.346798,82.4091754 517.502006,85.3024765 499.743124,74.4276553" id="Path" stroke="#99D64D"></path>
                <path d="M527.678444,27.4364555 C527.678444,27.4364555 551.323698,38.9098907 549.926932,79.2165674 C548.629935,116.629943 529.274748,121.518624 529.274748,121.518624" id="Path" stroke="#C5A1FF"></path>
                <path d="M282.146931,149.054869 C323.307631,149.054869 356.674376,115.688124 356.674376,74.5274243 C356.674376,33.3670243 323.307631,2.21531686e-15 282.146931,2.21531686e-15 C240.986232,2.21531686e-15 207.619487,33.3670243 207.619487,74.5274243 C207.619487,115.688124 240.986232,149.054869 282.146931,149.054869 Z" id="Path" stroke="#113287"></path>
                <path d="M325.047602,110.743572 C350.2283,110.743572 370.642036,94.5291137 370.642036,74.5274243 C370.642036,54.5258346 350.2283,38.3112767 325.047602,38.3112767 C299.866904,38.3112767 279.453168,54.5258346 279.453168,74.5274243 C279.453168,94.5291137 299.866904,110.743572 325.047602,110.743572 Z" id="Path" fill="#E2E6F6" fill-rule="nonzero"></path>
                <path d="M325.047602,39.3089667 C349.690545,39.3089667 369.644346,55.072469 369.644346,74.5274243 C369.644346,93.9823796 349.690545,109.745882 325.047602,109.745882 C300.404659,109.745882 280.450858,93.9823796 280.450858,74.5274243 C280.450858,55.072469 300.404659,39.3089667 325.047602,39.3089667 Z M325.047602,37.3135867 C299.406969,37.3135867 278.455478,53.9750099 278.455478,74.5274243 C278.455478,95.0799384 299.3072,111.741262 325.047602,111.741262 C350.788004,111.741262 371.639726,95.0799384 371.639726,74.5274243 C371.639726,53.9750099 350.788004,37.3135867 325.047602,37.3135867 Z" id="Shape" fill="#FFFFFF" fill-rule="nonzero"></path>
                <path d="M322.653146,90.6900026 C342.654835,90.6900026 358.869294,79.9250271 358.869294,66.6456732 C358.869294,53.366419 342.654835,42.6013438 322.653146,42.6013438 C302.651456,42.6013438 286.436998,53.366419 286.436998,66.6456732 C286.436998,79.9250271 302.651456,90.6900026 322.653146,90.6900026 Z" id="Path" fill="url(#radialGradient-5)" fill-rule="nonzero"></path>
                <path d="M317.864234,82.4091754 C330.977871,82.4091754 341.609256,75.351616 341.609256,66.6456732 C341.609256,57.9397303 330.977871,50.8821709 317.864234,50.8821709 C304.750596,50.8821709 294.119211,57.9397303 294.119211,66.6456732 C294.119211,75.351616 304.750596,82.4091754 317.864234,82.4091754 Z" id="Path" fill="url(#radialGradient-6)" fill-rule="nonzero"></path>
                <path d="M368.846194,69.1398982 C368.846194,69.1398982 365.454048,76.1237283 351.486387,78.2188774 C333.727505,80.8128714 314.372319,82.1098684 280.450858,74.5274243" id="Path" stroke="#99D64D"></path>
                <path d="M328.040672,39.3089667 C328.040672,39.3089667 353.082691,47.0910486 351.386618,79.7155121 C350.18939,103.95928 322.653146,109.646113 322.653146,109.646113" id="Path" stroke="#C5A1FF"></path>
                <path d="M74.5274393,149.054869 C115.68734,149.054869 149.055083,115.688124 149.055083,74.5274243 C149.055083,33.3670243 115.68734,2.21531686e-15 74.5274393,2.21531686e-15 C33.3670392,2.21531686e-15 7.86437484e-15,33.3670243 7.86437484e-15,74.5274243 C7.86437484e-15,115.688124 33.3670392,149.054869 74.5274393,149.054869 Z" id="Path" stroke="#113287"></path>
                <path d="M117.42831,122.516314 C142.609008,122.516314 163.022743,101.03106 163.022743,74.5274243 C163.022743,48.0238888 142.609008,26.5385345 117.42831,26.5385345 C92.2470126,26.5385345 71.8336762,48.0238888 71.8336762,74.5274243 C71.8336762,101.03106 92.2470126,122.516314 117.42831,122.516314 Z" id="Path" fill="#E2E6F6" fill-rule="nonzero"></path>
                <path d="M117.42831,27.4364555 C142.071253,27.4364555 162.025053,48.4877149 162.025053,74.4276553 C162.025053,100.367596 142.071253,121.418855 117.42831,121.418855 C92.7851666,121.418855 72.8313662,100.367596 72.8313662,74.4276553 C72.8313662,48.4877149 92.7851666,27.4364555 117.42831,27.4364555 Z M117.42831,25.4410755 C91.7874765,25.4410755 70.8359862,47.3902558 70.8359862,74.4276553 C70.8359862,101.465055 91.6877075,123.414235 117.42831,123.414235 C143.168712,123.414235 164.020433,101.465055 164.020433,74.4276553 C164.020433,47.3902558 143.168712,25.4410755 117.42831,25.4410755 Z" id="Shape" fill="#FFFFFF" fill-rule="nonzero"></path>
                <path d="M112.34009,108.648423 C133.884209,108.648423 151.34977,91.1832605 151.34977,69.6387432 C151.34977,48.0943257 133.884209,30.6290636 112.34009,30.6290636 C90.7954734,30.6290636 73.3302112,48.0943257 73.3302112,69.6387432 C73.3302112,91.1832605 90.7954734,108.648423 112.34009,108.648423 Z" id="Path" fill="url(#radialGradient-7)" fill-rule="nonzero"></path>
                <path d="M107.251871,95.2793766 C121.412086,95.2793766 132.892505,83.799656 132.892505,69.6387432 C132.892505,55.4778304 121.412086,43.9981098 107.251871,43.9981098 C93.0905595,43.9981098 81.6108388,55.4778304 81.6108388,69.6387432 C81.6108388,83.799656 93.0905595,95.2793766 107.251871,95.2793766 Z" id="Path" fill="url(#radialGradient-8)" fill-rule="nonzero"></path>
                <path d="M161.127132,65.2489071 C161.127132,65.2489071 159.630597,76.0239593 143.767326,79.7154124 C130.098973,82.9080204 102.762266,86.5994735 72.8313662,77.1214183" id="Path" stroke="#99D64D"></path>
                <path d="M117.42831,27.4364555 C117.42831,27.4364555 142.470329,40.7057327 143.767326,79.7154124 C144.864785,112.93849 121.818146,121.518624 121.818146,121.518624" id="Path" stroke="#C5A1FF"></path>
            </g>
        </g>
    </g>
</svg>