<?xml version="1.0" encoding="UTF-8"?>
<svg width="762px" height="215px" viewBox="0 0 762 215" version="1.1" xmlns="http://www.w3.org/2000/svg" xmlns:xlink="http://www.w3.org/1999/xlink">
    <title>Artboard</title>
    <defs>
        <radialGradient cx="49.9597315%" cy="49.9396199%" fx="49.9597315%" fy="49.9396199%" r="50.0716443%" gradientTransform="translate(0.499597,0.499396),scale(1.000000,0.871345),rotate(180.000000),translate(-0.499597,-0.499396)" id="radialGradient-1">
            <stop stop-color="#E2E6F6" offset="0%"></stop>
            <stop stop-color="#E2E6F6" offset="58.12%"></stop>
            <stop stop-color="#E2E6F6" offset="100%"></stop>
        </radialGradient>
        <radialGradient cx="49.8469388%" cy="49.9082222%" fx="49.8469388%" fy="49.9082222%" r="49.9770408%" gradientTransform="translate(0.498469,0.499082),scale(1.000000,0.871111),rotate(180.000000),translate(-0.498469,-0.499082)" id="radialGradient-2">
            <stop stop-color="#FFFFFF" offset="0%"></stop>
            <stop stop-color="#FFFFFF" stop-opacity="0" offset="100%"></stop>
        </radialGradient>
        <radialGradient cx="49.9530201%" cy="50.0210526%" fx="49.9530201%" fy="50.0210526%" r="50.0716443%" gradientTransform="translate(0.499530,0.500211),scale(1.000000,0.871345),rotate(180.000000),translate(-0.499530,-0.500211)" id="radialGradient-3">
            <stop stop-color="#E2E6F6" offset="0%"></stop>
            <stop stop-color="#E2E6F6" offset="58.12%"></stop>
            <stop stop-color="#E2E6F6" offset="100%"></stop>
        </radialGradient>
        <radialGradient cx="49.8367347%" cy="50.032%" fx="49.8367347%" fy="50.032%" r="49.9770408%" gradientTransform="translate(0.498367,0.500320),scale(1.000000,0.871111),rotate(180.000000),translate(-0.498367,-0.500320)" id="radialGradient-4">
            <stop stop-color="#FFFFFF" offset="0%"></stop>
            <stop stop-color="#FFFFFF" stop-opacity="0" offset="100%"></stop>
        </radialGradient>
        <radialGradient cx="49.9724518%" cy="50.0697095%" fx="49.9724518%" fy="50.0697095%" r="75.2263485%" gradientTransform="translate(0.499725,0.500697),scale(0.663912,1.000000),rotate(180.000000),translate(-0.499725,-0.500697)" id="radialGradient-5">
            <stop stop-color="#E2E6F6" offset="0%"></stop>
            <stop stop-color="#E2E6F6" offset="58.12%"></stop>
            <stop stop-color="#E2E6F6" offset="100%"></stop>
        </radialGradient>
        <radialGradient cx="49.9936975%" cy="50.1063291%" fx="49.9936975%" fy="50.1063291%" r="75.3268987%" gradientTransform="translate(0.499937,0.501063),scale(0.663866,1.000000),rotate(180.000000),translate(-0.499937,-0.501063)" id="radialGradient-6">
            <stop stop-color="#FFFFFF" offset="0%"></stop>
            <stop stop-color="#FFFFFF" stop-opacity="0" offset="100%"></stop>
        </radialGradient>
        <radialGradient cx="50.0589513%" cy="49.9985934%" fx="50.0589513%" fy="49.9985934%" r="50.0616368%" id="radialGradient-7">
            <stop stop-color="#E2E6F6" offset="0%"></stop>
            <stop stop-color="#E2E6F6" offset="58.12%"></stop>
            <stop stop-color="#E2E6F6" offset="100%"></stop>
        </radialGradient>
        <radialGradient cx="49.9653699%" cy="49.9978599%" fx="49.9653699%" fy="49.9978599%" r="49.9998054%" id="radialGradient-8">
            <stop stop-color="#FFFFFF" offset="0%"></stop>
            <stop stop-color="#FFFFFF" stop-opacity="0" offset="100%"></stop>
        </radialGradient>
    </defs>
    <g id="Artboard" stroke="none" stroke-width="1" fill="none" fill-rule="evenodd">
        <g id="F-13" transform="translate(4.000000, 3.000000)">
            <rect id="Rectangle" fill="#F3F6FF" fill-rule="nonzero" x="22.4694291" y="184.208123" width="129.668279" height="25.7356889" rx="5"></rect>
            <path d="M41.7532798,191.543784 L41.7532798,196.444453 C43.3555244,196.422677 45.095455,196.299937 46.9296177,195.922811 L47.1326327,197.430328 C44.9866722,197.865855 42.9278171,197.981666 41.0283253,197.981666 L39.8973407,197.981666 L39.8973407,191.543784 L41.7532798,191.543784 Z M49.8295349,190.67372 L49.8295349,194.37174 L51.6130182,194.37174 L51.6130182,195.922811 L49.8295349,195.922811 L49.8295349,200.142474 L47.9735958,200.142474 L47.9735958,190.67372 L49.8295349,190.67372 Z M50.2645671,202.142929 L50.2645671,203.621741 L41.274794,203.621741 L41.274794,199.257562 L43.1452836,199.257562 L43.1452836,202.142929 L50.2645671,202.142929 Z M57.3258462,193.646192 C57.3258462,196.067326 58.4277296,198.503308 60.6606966,199.44662 L59.5732647,200.925433 C58.0652524,200.243437 57.0212742,198.931906 56.4268788,197.30066 C55.8250596,199.076422 54.7448536,200.511682 53.1354822,201.244159 L52.0189492,199.706947 C54.324372,198.735919 55.440905,196.212832 55.4553566,193.646192 L55.4553566,191.674442 L57.3258462,191.674442 L57.3258462,193.646192 Z M63.2415903,190.659862 L63.2415903,203.883057 L61.3711996,203.883057 L61.3711996,190.659862 L63.2415903,190.659862 Z M75.4357536,190.659862 L75.4357536,195.719895 L77.3061443,195.719895 L77.3061443,197.24226 L75.4357536,197.24226 L75.4357536,203.824657 L73.5798145,203.824657 L73.5798145,190.659862 L75.4357536,190.659862 Z M71.9123398,192.008016 C71.8977892,195.951516 70.3608737,199.373373 65.9240409,201.549028 L64.8800628,200.127626 C68.0046724,198.561709 69.6793728,196.459301 70.0273985,193.515534 L65.6340195,193.515534 L65.6340195,192.008016 L71.9123398,192.008016 Z M84.4544298,198.37364 L84.4544298,199.693089 L85.8753368,199.693089 L85.8753368,198.37364 L87.5862652,198.37364 L87.5862652,202.37554 C89.0507249,201.722249 89.6742214,200.489906 89.6742214,199.286267 L89.6742214,198.271687 L91.5301605,198.271687 L91.5301605,199.286267 C91.515709,200.635411 92.1682077,201.911307 93.8211318,202.447798 L92.8641601,203.824657 C91.7259498,203.433672 90.9936704,202.679419 90.5731889,201.737097 C90.1309309,202.650714 89.4059764,203.411896 88.3403209,203.824657 L87.5862652,202.679419 L87.5862652,203.708846 L82.7435014,203.708846 L82.7435014,198.37364 L84.4544298,198.37364 Z M84.4544298,202.302292 L85.8753368,202.302292 L85.8753368,201.056091 L84.4544298,201.056091 L84.4544298,202.302292 Z M84.9619178,191.1528 C86.6438441,191.1528 87.9850694,192.087203 88.3547725,193.486829 L90.5587373,193.486829 L90.5587373,190.659862 L92.4001258,190.659862 L92.4001258,197.648092 L90.5587373,197.648092 L90.5587373,195.009194 L88.3547725,195.009194 C87.999521,196.437524 86.6510699,197.386775 84.9619178,197.386775 C82.9319659,197.386775 81.438504,196.097021 81.4529492,194.25494 C81.438504,192.442554 82.9319659,191.1528 84.9619178,191.1528 Z M84.9619178,192.675165 C83.9323913,192.675165 83.1929851,193.283913 83.2074367,194.25494 C83.1929851,195.255662 83.9323913,195.86441 84.9619178,195.879258 C85.9623432,195.86441 86.6872978,195.255662 86.6872978,194.25494 C86.6872978,193.283913 85.9623432,192.675165 84.9619178,192.675165 Z M104.826603,194.25494 L104.826603,195.705047 L95.604516,195.705047 L95.604516,191.123105 L97.4460036,191.123105 L97.4460036,194.25494 L104.826603,194.25494 Z M106.174757,197.126449 L106.174757,198.576556 L94.0966026,198.576556 L94.0966026,197.126449 L106.174757,197.126449 Z M104.913709,202.085518 L104.913709,203.564331 L95.4885075,203.564331 L95.4885075,199.649536 L97.3444466,199.649536 L97.3444466,202.085518 L104.913709,202.085518 Z M115.179279,192.732575 C115.179279,194.328188 116.106754,195.86441 118.194314,196.517701 L117.208439,197.95296 C115.809803,197.488728 114.830857,196.589959 114.265662,195.429873 C113.692548,196.76417 112.670049,197.807455 111.162532,198.31524 L110.16181,196.865133 C112.36617,196.125727 113.308492,194.37174 113.32334,192.559354 L113.32334,191.355716 L115.179279,191.355716 L115.179279,192.732575 Z M120.834202,190.659862 L120.834202,193.748145 L122.616893,193.748145 L122.616893,195.284368 L120.834202,195.284368 L120.834202,198.489451 L118.978263,198.489451 L118.978263,190.659862 L120.834202,190.659862 Z M116.512586,198.749777 C119.238589,198.749777 120.96387,199.693089 120.96387,201.302559 C120.96387,202.925887 119.238589,203.854352 116.512586,203.854352 C113.729172,203.854352 111.989043,202.925887 111.989043,201.302559 C111.989043,199.693089 113.729172,198.749777 116.512586,198.749777 Z M116.512586,200.199884 C114.772457,200.199884 113.830135,200.577011 113.844983,201.302559 C113.830135,202.055823 114.772457,202.404245 116.512586,202.404245 C118.224009,202.404245 119.137626,202.055823 119.137626,201.302559 C119.137626,200.577011 118.224009,200.199884 116.512586,200.199884 Z M129.026069,192.036722 L129.026069,193.501676 L125.415154,193.501676 L125.415154,195.488273 L128.764753,195.488273 L128.764753,196.908685 L125.415154,196.908685 L125.415154,199.286267 C126.901885,199.272409 127.981794,199.220938 129.272538,199.039798 L129.403196,200.548306 C127.880831,200.794774 126.57524,200.838327 124.574785,200.838327 L123.646321,200.838327 L123.646321,192.036722 L129.026069,192.036722 Z M134.63744,190.659862 L134.63744,203.854352 L132.868606,203.854352 L132.868606,197.257107 L131.722378,197.257107 L131.722378,203.244614 L129.983239,203.244614 L129.983239,190.847931 L131.722378,190.847931 L131.722378,195.777305 L132.868606,195.777305 L132.868606,190.659862 L134.63744,190.659862 Z" id="Shape" fill="#020F50" fill-rule="nonzero"></path>
            <rect id="Rectangle" fill="#F3F6FF" fill-rule="nonzero" x="247.16179" y="184.208123" width="72.2578959" height="25.7356889" rx="5"></rect>
            <path d="M272.046222,191.399268 L272.046222,192.863233 L269.422171,192.863233 C269.436029,194.422222 270.364493,196.016845 272.452054,196.705769 L271.538437,198.127171 C270.074472,197.662939 269.07375,196.705769 268.508554,195.516979 C267.913664,196.836428 266.86246,197.901489 265.304461,198.402345 L264.361149,196.937391 C266.528886,196.241537 267.514761,194.509327 267.536537,192.863233 L264.883782,192.863233 L264.883782,191.399268 L272.046222,191.399268 Z M275.555184,199.098199 L275.555184,203.854352 L273.714092,203.854352 L273.714092,200.577011 L266.493252,200.577011 L266.493252,199.098199 L275.555184,199.098199 Z M275.555184,190.659862 L275.555184,198.518156 L273.714092,198.518156 L273.714092,190.659862 L275.555184,190.659862 Z M279.659036,191.543784 L279.659036,196.444453 C281.260588,196.422677 283.000717,196.299937 284.834879,195.922811 L285.037795,197.430328 C282.891835,197.865855 280.83298,197.981666 278.933488,197.981666 L277.803097,197.981666 L277.803097,191.543784 L279.659036,191.543784 Z M287.735094,190.67372 L287.735094,194.37174 L289.518775,194.37174 L289.518775,195.922811 L287.735094,195.922811 L287.735094,200.142474 L285.879155,200.142474 L285.879155,190.67372 L287.735094,190.67372 Z M288.169631,202.142929 L288.169631,203.621741 L279.179957,203.621741 L279.179957,199.257562 L281.050743,199.257562 L281.050743,202.142929 L288.169631,202.142929 Z M295.231108,193.646192 C295.231108,196.067326 296.332793,198.503308 298.565859,199.44662 L297.478032,200.925433 C295.970514,200.243437 294.926239,198.931906 294.332339,197.30066 C293.730519,199.076422 292.65061,200.511682 291.04114,201.244159 L289.924607,199.706947 C292.229931,198.735919 293.346464,196.212832 293.360321,193.646192 L293.360321,191.674442 L295.231108,191.674442 L295.231108,193.646192 Z M301.147347,190.659862 L301.147347,203.883057 L299.27656,203.883057 L299.27656,190.659862 L301.147347,190.659862 Z" id="Shape" fill="#020F50" fill-rule="nonzero"></path>
            <rect id="Rectangle" fill="#F3F6FF" fill-rule="nonzero" x="445.128628" y="184.208123" width="72.2578959" height="25.7356889" rx="5"></rect>
            <path d="M473.159743,196.560264 L473.159743,198.025218 L469.332054,198.025218 L469.332054,200.838327 L474.479192,200.838327 L474.479192,202.345845 L462.401235,202.345845 L462.401235,200.838327 L467.489972,200.838327 L467.489972,198.025218 L463.821647,198.025218 L463.821647,191.587337 L473.05779,191.587337 L473.05779,193.066149 L465.677586,193.066149 L465.677586,196.560264 L473.159743,196.560264 Z M477.625874,191.543784 L477.625874,196.444453 C479.227426,196.422677 480.967555,196.299937 482.801717,195.922811 L483.004633,197.430328 C480.858673,197.865855 478.799818,197.981666 476.900326,197.981666 L475.769935,197.981666 L475.769935,191.543784 L477.625874,191.543784 Z M485.701932,190.67372 L485.701932,194.37174 L487.485613,194.37174 L487.485613,195.922811 L485.701932,195.922811 L485.701932,200.142474 L483.845992,200.142474 L483.845992,190.67372 L485.701932,190.67372 Z M486.136469,202.142929 L486.136469,203.621741 L477.146795,203.621741 L477.146795,199.257562 L479.017581,199.257562 L479.017581,202.142929 L486.136469,202.142929 Z M493.197946,193.646192 C493.197946,196.067326 494.299631,198.503308 496.532697,199.44662 L495.44487,200.925433 C493.937352,200.243437 492.893077,198.931906 492.299176,197.30066 C491.697357,199.076422 490.617448,200.511682 489.007978,201.244159 L487.891445,199.706947 C490.196769,198.735919 491.313302,196.212832 491.327159,193.646192 L491.327159,191.674442 L493.197946,191.674442 L493.197946,193.646192 Z M499.114185,190.659862 L499.114185,203.883057 L497.243398,203.883057 L497.243398,190.659862 L499.114185,190.659862 Z" id="Shape" fill="#020F50" fill-rule="nonzero"></path>
            <rect id="Rectangle" fill="#F3F6FF" fill-rule="nonzero" x="642.105632" y="184.208123" width="72.2578959" height="25.7356889" rx="5"></rect>
            <path d="M664.235355,193.646192 C664.220507,196.009916 665.236077,198.402345 667.352343,199.416925 L666.23581,200.895738 C664.822327,200.199884 663.873076,198.895283 663.321738,197.30066 C662.748624,199.011093 661.727115,200.410719 660.233455,201.142206 L659.088217,199.649536 C661.321283,198.620109 662.379416,196.097021 662.379416,193.646192 L662.379416,191.674442 L664.235355,191.674442 L664.235355,193.646192 Z M669.788325,190.659862 L669.788325,195.7486 L671.731369,195.7486 L671.731369,197.314517 L669.788325,197.314517 L669.788325,203.854352 L667.932386,203.854352 L667.932386,190.659862 L669.788325,190.659862 Z M674.602878,191.543784 L674.602878,196.444453 C676.20443,196.422677 677.944558,196.299937 679.778721,195.922811 L679.981637,197.430328 C677.835677,197.865855 675.776822,197.981666 673.87733,197.981666 L672.746939,197.981666 L672.746939,191.543784 L674.602878,191.543784 Z M682.678935,190.67372 L682.678935,194.37174 L684.462617,194.37174 L684.462617,195.922811 L682.678935,195.922811 L682.678935,200.142474 L680.822996,200.142474 L680.822996,190.67372 L682.678935,190.67372 Z M683.113473,202.142929 L683.113473,203.621741 L674.123798,203.621741 L674.123798,199.257562 L675.994585,199.257562 L675.994585,202.142929 L683.113473,202.142929 Z M690.17495,193.646192 C690.17495,196.067326 691.276635,198.503308 693.509701,199.44662 L692.421873,200.925433 C690.914356,200.243437 689.870081,198.931906 689.27618,197.30066 C688.674361,199.076422 687.594452,200.511682 685.984982,201.244159 L684.868449,199.706947 C687.173772,198.735919 688.290305,196.212832 688.304163,193.646192 L688.304163,191.674442 L690.17495,191.674442 L690.17495,193.646192 Z M696.091189,190.659862 L696.091189,203.883057 L694.220402,203.883057 L694.220402,190.659862 L696.091189,190.659862 Z" id="Shape" fill="#020F50" fill-rule="nonzero"></path>
            <g id="Group">
                <path d="M674.968127,147.881208 C715.804726,147.881208 748.908741,114.777194 748.908741,73.9405942 C748.908741,33.1042918 715.804726,2.19787342e-15 674.968127,2.19787342e-15 C634.131528,2.19787342e-15 601.027513,33.1042918 601.027513,73.9405942 C601.027513,114.777194 634.131528,147.881208 674.968127,147.881208 Z" id="Path" stroke="#113287"></path>
                <path d="M724.162886,119.670934 C706.840788,119.670934 691.300391,100.270184 688.825806,75.5243289 C686.153253,49.3927063 698.823131,26.6265199 716.937097,24.7458349 C717.728964,24.6468515 718.520831,24.6468515 719.312699,24.6468515 C736.634797,24.6468515 752.175194,44.0477006 754.649779,68.7935554 C757.322332,94.925079 744.652454,117.691265 726.538488,119.57195 C725.746621,119.670934 724.954754,119.670934 724.162886,119.670934 Z" id="Path" fill="#E2E6F6" fill-rule="nonzero"></path>
                <path d="M719.312699,25.6366857 C736.040897,25.6366857 751.18536,44.4435353 753.659945,68.8924398 C756.233514,94.5291453 744.058553,116.800415 726.439505,118.582116 C725.647638,118.6811 724.954754,118.6811 724.162886,118.6811 C707.434688,118.6811 692.290225,99.87425 689.81564,75.4253455 C687.242071,49.7886399 699.417032,27.5173707 717.03608,25.7356691 C717.827947,25.6366857 718.619815,25.6366857 719.312699,25.6366857 Z M719.312699,23.6570173 C718.520831,23.6570173 717.629981,23.6570173 716.838113,23.7560008 C707.632655,24.6468515 699.516015,30.6848401 694.071927,40.6821654 C688.726822,50.3825405 686.549187,62.8545502 687.835972,75.6234113 C689.023773,87.7983718 693.379043,99.181366 700.109915,107.495973 C706.939771,116.008547 715.452345,120.660768 724.162886,120.660768 C724.954754,120.660768 725.845604,120.660768 726.637472,120.561785 C735.84293,119.670934 743.95957,113.632945 749.403658,103.63562 C754.748763,93.9352448 756.926398,81.463433 755.639614,68.694572 C754.451812,56.5196114 750.096542,45.1364193 743.36567,36.8218121 C736.634797,28.309238 728.122223,23.6570173 719.312699,23.6570173 Z" id="Shape" fill="#FFFFFF" fill-rule="nonzero"></path>
                <path d="M720.995417,95.9149132 C737.286108,95.9149132 750.492476,80.75877 750.492476,62.0625839 C750.492476,43.3664967 737.286108,28.2102546 720.995417,28.2102546 C704.704726,28.2102546 691.498358,43.3664967 691.498358,62.0625839 C691.498358,80.75877 704.704726,95.9149132 720.995417,95.9149132 Z" id="Path" fill="url(#radialGradient-1)" fill-rule="nonzero"></path>
                <path d="M717.135064,84.3338532 C727.850019,84.3338532 736.535814,74.3626595 736.535814,62.0625839 C736.535814,49.7625083 727.850019,39.7913146 717.135064,39.7913146 C706.420108,39.7913146 697.734313,49.7625083 697.734313,62.0625839 C697.734313,74.3626595 706.420108,84.3338532 717.135064,84.3338532 Z" id="Path" fill="url(#radialGradient-2)" fill-rule="nonzero"></path>
                <path d="M748.908741,49.9866068 C748.908741,49.9866068 750.393492,58.4001974 743.464653,66.4178543 C734.259195,76.9100967 712.581826,91.3616759 692.290225,87.7982728" id="Path" stroke="#99D64D"></path>
                <path d="M699.812965,35.7329133 C699.812965,35.7329133 719.312699,35.4360442 738.119548,70.7731248 C752.175194,97.2016976 737.426664,114.523796 737.426664,114.523796" id="Path" stroke="#C5A1FF"></path>
                <path d="M480.960626,147.881208 C521.797225,147.881208 554.90124,114.777194 554.90124,73.9405942 C554.90124,33.1042918 521.797225,2.19787342e-15 480.960626,2.19787342e-15 C440.124027,2.19787342e-15 407.020012,33.1042918 407.020012,73.9405942 C407.020012,114.777194 440.124027,147.881208 480.960626,147.881208 Z" id="Path" stroke="#113287"></path>
                <path d="M527.97775,121.551619 C509.764801,121.551619 494.917288,100.1712 494.917288,73.9405942 C494.917288,47.7099882 509.764801,26.3295697 527.97775,26.3295697 C546.190699,26.3295697 561.038212,47.7099882 561.038212,73.9405942 C561.038212,100.1712 546.190699,121.551619 527.97775,121.551619 Z" id="Path" fill="#E2E6F6" fill-rule="nonzero"></path>
                <path d="M527.97775,27.2204204 C545.695782,27.2204204 560.048378,48.1059218 560.048378,73.8416108 C560.048378,99.5772997 545.695782,120.462801 527.97775,120.462801 C510.259718,120.462801 495.907122,99.5772997 495.907122,73.8416108 C495.907122,48.1059218 510.160734,27.2204204 527.97775,27.2204204 Z M527.97775,25.240752 C518.772292,25.240752 510.061751,30.3878898 503.627829,39.7913146 C497.29289,48.8977892 493.82847,61.0727497 493.82847,73.9405942 C493.82847,86.8084386 497.29289,98.8844158 503.627829,108.089874 C510.061751,117.493299 518.673308,122.640436 527.97775,122.640436 C537.282191,122.640436 545.893749,117.493299 552.327671,108.089874 C558.66261,98.9833992 562.127029,86.8084386 562.127029,73.9405942 C562.127029,61.0727497 558.66261,48.9967726 552.327671,39.7913146 C545.794765,30.3878898 537.183208,25.240752 527.97775,25.240752 Z" id="Shape" fill="#FFFFFF" fill-rule="nonzero"></path>
                <path d="M526.987916,99.2803494 C543.278607,99.2803494 556.484975,84.1242063 556.484975,65.4280201 C556.484975,46.731933 543.278607,31.5756909 526.987916,31.5756909 C510.697225,31.5756909 497.490857,46.731933 497.490857,65.4280201 C497.490857,84.1242063 510.697225,99.2803494 526.987916,99.2803494 Z" id="Path" fill="url(#radialGradient-3)" fill-rule="nonzero"></path>
                <path d="M523.127562,87.6992894 C533.842517,87.6992894 542.528312,77.7280957 542.528312,65.4280201 C542.528312,53.1279446 533.842517,43.1567509 523.127562,43.1567509 C512.412607,43.1567509 503.726812,53.1279446 503.726812,65.4280201 C503.726812,77.7280957 512.412607,87.6992894 523.127562,87.6992894 Z" id="Path" fill="url(#radialGradient-4)" fill-rule="nonzero"></path>
                <path d="M558.068709,57.60833 C558.068709,57.60833 558.860577,70.6741414 549.457152,75.4253455 C537.084224,81.7602843 513.427187,84.6308034 495.808139,73.8416108" id="Path" stroke="#99D64D"></path>
                <path d="M523.523496,27.2204204 C523.523496,27.2204204 546.982566,38.6035136 545.596798,78.5928149 C544.310014,115.711597 525.107231,120.561785 525.107231,120.561785" id="Path" stroke="#C5A1FF"></path>
                <path d="M279.925302,147.881208 C320.761901,147.881208 353.865916,114.777194 353.865916,73.9405942 C353.865916,33.1042918 320.761901,2.19787342e-15 279.925302,2.19787342e-15 C239.088703,2.19787342e-15 205.984688,33.1042918 205.984688,73.9405942 C205.984688,114.777194 239.088703,147.881208 279.925302,147.881208 Z" id="Path" stroke="#113287"></path>
                <path d="M322.488172,109.871575 C347.470597,109.871575 367.723595,93.78479 367.723595,73.9405942 C367.723595,54.0964973 347.470597,38.0096131 322.488172,38.0096131 C297.505747,38.0096131 277.25275,54.0964973 277.25275,73.9405942 C277.25275,93.78479 297.505747,109.871575 322.488172,109.871575 Z" id="Path" fill="#E2E6F6" fill-rule="nonzero"></path>
                <path d="M322.488172,38.9994473 C346.937077,38.9994473 366.73376,54.6388275 366.73376,73.9405942 C366.73376,93.2423609 346.937077,108.881741 322.488172,108.881741 C298.039268,108.881741 278.242584,93.2423609 278.242584,73.9405942 C278.242584,54.6388275 298.039268,38.9994473 322.488172,38.9994473 Z M322.488172,37.0197789 C297.049433,37.0197789 276.262915,53.5500099 276.262915,73.9405942 C276.262915,94.3312775 296.95045,110.861409 322.488172,110.861409 C348.025894,110.861409 368.713429,94.3312775 368.713429,73.9405942 C368.713429,53.5500099 348.025894,37.0197789 322.488172,37.0197789 Z" id="Shape" fill="#FFFFFF" fill-rule="nonzero"></path>
                <path d="M320.11257,89.9759081 C339.956766,89.9759081 356.043551,79.2956961 356.043551,66.1209041 C356.043551,52.946211 339.956766,42.2659001 320.11257,42.2659001 C300.268374,42.2659001 284.181589,52.946211 284.181589,66.1209041 C284.181589,79.2956961 300.268374,89.9759081 320.11257,89.9759081 Z" id="Path" fill="url(#radialGradient-5)" fill-rule="nonzero"></path>
                <path d="M315.361366,81.7602843 C328.371746,81.7602843 338.91942,74.7582962 338.91942,66.1209041 C338.91942,57.483512 328.371746,50.4815239 315.361366,50.4815239 C302.350985,50.4815239 291.803312,57.483512 291.803312,66.1209041 C291.803312,74.7582962 302.350985,81.7602843 315.361366,81.7602843 Z" id="Path" fill="url(#radialGradient-6)" fill-rule="nonzero"></path>
                <path d="M365.941893,68.5954896 C365.941893,68.5954896 362.576457,75.5243289 348.718778,77.6029807 C331.09973,80.1765496 311.896946,81.463334 278.242584,73.9405942" id="Path" stroke="#99D64D"></path>
                <path d="M325.457675,38.9994473 C325.457675,38.9994473 350.302513,46.7202529 348.619795,79.087831 C347.431994,103.140703 320.11257,108.782758 320.11257,108.782758" id="Path" stroke="#C5A1FF"></path>
                <path d="M73.940609,147.881208 C114.776416,147.881208 147.881421,114.777194 147.881421,73.9405942 C147.881421,33.1042918 114.776416,2.19787342e-15 73.940609,2.19787342e-15 C33.1043066,2.19787342e-15 7.80245063e-15,33.1042918 7.80245063e-15,73.9405942 C7.80245063e-15,114.777194 33.1043066,147.881208 73.940609,147.881208 Z" id="Path" stroke="#113287"></path>
                <path d="M116.503677,121.551619 C141.486102,121.551619 161.7391,100.235539 161.7391,73.9405942 C161.7391,47.6457479 141.486102,26.3295697 116.503677,26.3295697 C91.5206581,26.3295697 71.2680567,47.6457479 71.2680567,73.9405942 C71.2680567,100.235539 91.5206581,121.551619 116.503677,121.551619 Z" id="Path" fill="#E2E6F6" fill-rule="nonzero"></path>
                <path d="M116.503677,27.2204204 C140.952582,27.2204204 160.749265,48.1059218 160.749265,73.8416108 C160.749265,99.5772997 140.952582,120.462801 116.503677,120.462801 C92.0545747,120.462801 72.2578909,99.5772997 72.2578909,73.8416108 C72.2578909,48.1059218 92.0545747,27.2204204 116.503677,27.2204204 Z M116.503677,25.240752 C91.0647405,25.240752 70.2782225,47.0171042 70.2782225,73.8416108 C70.2782225,100.666117 90.9657571,122.442469 116.503677,122.442469 C142.041399,122.442469 162.728934,100.666117 162.728934,73.8416108 C162.728934,47.0171042 142.041399,25.240752 116.503677,25.240752 Z" id="Shape" fill="#FFFFFF" fill-rule="nonzero"></path>
                <path d="M111.455523,107.792923 C132.830002,107.792923 150.15804,90.4652821 150.15804,69.0904067 C150.15804,47.7156302 132.830002,30.3878898 111.455523,30.3878898 C90.0805484,30.3878898 72.752808,47.7156302 72.752808,69.0904067 C72.752808,90.4652821 90.0805484,107.792923 111.455523,107.792923 Z" id="Path" fill="url(#radialGradient-7)" fill-rule="nonzero"></path>
                <path d="M106.407368,94.5291453 C120.456085,94.5291453 131.846107,83.1398162 131.846107,69.0904067 C131.846107,55.0409971 120.456085,43.651668 106.407368,43.651668 C92.3575629,43.651668 80.9682338,55.0409971 80.9682338,69.0904067 C80.9682338,83.1398162 92.3575629,94.5291453 106.407368,94.5291453 Z" id="Path" fill="url(#radialGradient-8)" fill-rule="nonzero"></path>
                <path d="M159.858415,64.7351362 C159.858415,64.7351362 158.373663,75.4253455 142.6353,79.087732 C129.074571,82.2552014 101.953115,85.9175879 72.2578909,76.5141631" id="Path" stroke="#99D64D"></path>
                <path d="M116.503677,27.2204204 C116.503677,27.2204204 141.348515,40.3852151 142.6353,79.087732 C143.724117,112.04921 120.858948,120.561785 120.858948,120.561785" id="Path" stroke="#C5A1FF"></path>
            </g>
        </g>
    </g>
</svg>