<svg width="96" height="35" viewBox="0 0 96 35" fill="none" xmlns="http://www.w3.org/2000/svg">
<path d="M1.26074 34.8196V28.6505H2.04513V29.6176L1.94241 29.4254C2.1136 29.1569 2.34394 28.9464 2.63964 28.7878C2.93534 28.6291 3.2715 28.5498 3.65436 28.5498C4.08701 28.5498 4.47298 28.6535 4.81537 28.858C5.15776 29.0624 5.42856 29.3431 5.62777 29.697C5.82697 30.0509 5.92658 30.4536 5.92658 30.9021C5.92658 31.3506 5.82697 31.7381 5.62777 32.095C5.42856 32.452 5.15776 32.7327 4.81537 32.9371C4.47298 33.1446 4.08079 33.2453 3.64502 33.2453C3.27462 33.2453 2.93845 33.1659 2.63653 33.0073C2.33149 32.8486 2.09804 32.6198 1.93307 32.3178L2.06069 32.1835V34.8135H1.26074V34.8196ZM3.58588 32.5008C3.87535 32.5008 4.1337 32.4307 4.35781 32.2934C4.58192 32.153 4.75934 31.9639 4.89007 31.7228C5.0208 31.4818 5.08617 31.2103 5.08617 30.9082C5.08617 30.6062 5.0208 30.3285 4.89007 30.0905C4.75934 29.8526 4.58192 29.6634 4.35781 29.5231C4.1337 29.3827 3.87535 29.3156 3.58588 29.3156C3.2964 29.3156 3.03806 29.3858 2.80772 29.5231C2.57739 29.6634 2.39685 29.8526 2.26301 30.0905C2.12917 30.3285 2.0638 30.6031 2.0638 30.9082C2.0638 31.2133 2.12917 31.4787 2.26301 31.7228C2.39685 31.9639 2.57739 32.1561 2.80772 32.2934C3.03806 32.4307 3.2964 32.5008 3.58588 32.5008Z" fill="#113287"/>
<path d="M10.6113 33.2522C10.1693 33.2522 9.77403 33.1485 9.42231 32.9441C9.07369 32.7397 8.79978 32.4559 8.60057 32.0959C8.40136 31.7359 8.30176 31.3362 8.30176 30.8908C8.30176 30.4453 8.40136 30.0395 8.60057 29.6887C8.79978 29.3378 9.06435 29.0602 9.40052 28.8588C9.73668 28.6544 10.1164 28.5537 10.5429 28.5537C10.8821 28.5537 11.1872 28.6147 11.4486 28.7337C11.7132 28.8527 11.9373 29.0144 12.121 29.2188C12.3046 29.4232 12.4478 29.6521 12.5474 29.9114C12.647 30.1707 12.6968 30.4392 12.6968 30.7169C12.6968 30.784 12.6937 30.8542 12.6843 30.9243C12.675 30.9976 12.6657 31.0677 12.6532 31.1409H8.89005V30.4636H12.1925L11.8097 30.7626C11.8657 30.4728 11.8408 30.2134 11.7319 29.9877C11.6229 29.7619 11.4642 29.5788 11.2556 29.4446C11.044 29.3104 10.8074 29.2432 10.5397 29.2432C10.2721 29.2432 10.0293 29.3104 9.80827 29.4476C9.58728 29.5849 9.41608 29.7741 9.29469 30.0182C9.1733 30.2623 9.12349 30.5552 9.14528 30.8938C9.12349 31.2233 9.17641 31.5101 9.30403 31.7572C9.43164 32.0044 9.61218 32.1966 9.84874 32.3339C10.0853 32.4712 10.3405 32.5383 10.6207 32.5383C10.9257 32.5383 11.1841 32.4681 11.3957 32.3308C11.6043 32.1905 11.7755 32.0135 11.9062 31.7969L12.5692 32.1295C12.4789 32.3339 12.3388 32.523 12.149 32.6939C11.9591 32.8648 11.7319 32.999 11.4735 33.0997C11.2121 33.2004 10.9257 33.2492 10.6144 33.2492L10.6113 33.2522Z" fill="#113287"/>
<path d="M15.252 33.1512V28.654H16.0363V29.4809L15.9523 29.3649C16.0612 29.1086 16.2262 28.9195 16.4472 28.7944C16.6682 28.6693 16.939 28.6052 17.2565 28.6052H17.5366V29.3466H17.1351C16.8114 29.3466 16.5499 29.4442 16.3507 29.6395C16.1515 29.8348 16.0519 30.1124 16.0519 30.4755V33.1542H15.252V33.1512Z" fill="#113287"/>
<path d="M21.4144 33.2516C20.9537 33.2516 20.5553 33.1418 20.2129 32.9191C19.8736 32.6963 19.6277 32.3973 19.4814 32.019L20.1195 31.72C20.2503 31.9885 20.4277 32.199 20.6549 32.3546C20.8821 32.5102 21.1343 32.5896 21.4113 32.5896C21.6541 32.5896 21.8595 32.5316 22.0245 32.4156C22.1894 32.2997 22.2704 32.1472 22.2704 31.958C22.2704 31.8238 22.233 31.717 22.1552 31.6376C22.0774 31.5583 21.9871 31.4942 21.8813 31.4454C21.7755 31.3997 21.6759 31.3631 21.5794 31.3417L20.8884 31.1495C20.4806 31.0397 20.1787 30.8718 19.9888 30.6522C19.7989 30.4325 19.7024 30.1793 19.7024 29.8894C19.7024 29.6209 19.7709 29.3891 19.911 29.1938C20.0511 28.9955 20.2409 28.8429 20.4806 28.7301C20.7203 28.6202 20.9942 28.5623 21.293 28.5623C21.6945 28.5623 22.0587 28.6629 22.3793 28.8613C22.6999 29.0626 22.9271 29.3433 23.0641 29.7033L22.4167 29.9962C22.3139 29.7613 22.1614 29.5782 21.956 29.444C21.7506 29.3097 21.5202 29.2426 21.265 29.2426C21.0315 29.2426 20.8479 29.2975 20.7109 29.4104C20.574 29.5233 20.5055 29.6667 20.5055 29.8437C20.5055 29.9657 20.5397 30.0664 20.6082 30.1488C20.6767 30.2281 20.7576 30.2891 20.8541 30.3318C20.9506 30.3745 21.044 30.4081 21.1343 30.4356L21.8844 30.6522C22.2579 30.759 22.5505 30.9207 22.7559 31.1434C22.9645 31.3661 23.0672 31.6346 23.0672 31.9458C23.0672 32.196 22.9956 32.4217 22.8555 32.6231C22.7124 32.8245 22.5163 32.9801 22.2673 33.0899C22.0182 33.1997 21.7288 33.2577 21.3988 33.2577L21.4144 33.2516Z" fill="#113287"/>
<path d="M27.8257 33.2514C27.39 33.2514 26.9916 33.1507 26.6336 32.9463C26.2757 32.7419 25.9893 32.4642 25.7776 32.1073C25.566 31.7503 25.457 31.3476 25.457 30.896C25.457 30.4445 25.5629 30.0448 25.7714 29.6939C25.98 29.3431 26.2663 29.0654 26.6243 28.858C26.9822 28.6535 27.3806 28.5498 27.8257 28.5498C28.2709 28.5498 28.6786 28.6505 29.0334 28.8549C29.3914 29.0593 29.6746 29.3339 29.8801 29.6848C30.0886 30.0356 30.1913 30.4384 30.1913 30.896C30.1913 31.3537 30.0824 31.7564 29.8676 32.1103C29.6529 32.4642 29.3665 32.7419 29.0117 32.9463C28.6568 33.1507 28.2615 33.2514 27.8226 33.2514H27.8257ZM27.8257 32.5008C28.1152 32.5008 28.3736 32.4307 28.6039 32.2934C28.8342 32.1561 29.0148 31.9608 29.1486 31.7167C29.2825 31.4726 29.3478 31.1981 29.3478 30.8991C29.3478 30.6001 29.2825 30.3285 29.1486 30.0906C29.0148 29.8526 28.8342 29.6634 28.6039 29.5231C28.3736 29.3827 28.1152 29.3156 27.8257 29.3156C27.5363 29.3156 27.2841 29.3858 27.0538 29.5231C26.8235 29.6634 26.6398 29.8526 26.506 30.0906C26.369 30.3285 26.3006 30.6001 26.3006 30.8991C26.3006 31.1981 26.369 31.4726 26.506 31.7167C26.6429 31.9608 26.8266 32.153 27.0538 32.2934C27.2841 32.4337 27.5394 32.5008 27.8257 32.5008Z" fill="#113287"/>
<path d="M32.7471 33.1515V28.6544H33.5315V29.53L33.4038 29.4538C33.5159 29.17 33.6995 28.9473 33.9517 28.7917C34.2038 28.633 34.4995 28.5537 34.8419 28.5537C35.1843 28.5537 35.4644 28.6269 35.7227 28.7703C35.9811 28.9137 36.1865 29.1151 36.3359 29.3714C36.4853 29.6277 36.5632 29.9175 36.5632 30.2379V33.1515H35.7632V30.488C35.7632 30.2379 35.7165 30.0273 35.6263 29.8534C35.536 29.6795 35.4053 29.5483 35.2403 29.4538C35.0722 29.3592 34.8823 29.3104 34.6645 29.3104C34.4466 29.3104 34.2567 29.3592 34.0886 29.4538C33.9205 29.5483 33.7898 29.6826 33.6933 29.8595C33.5968 30.0334 33.547 30.244 33.547 30.4911V33.1546H32.7471V33.1515Z" fill="#113287"/>
<path d="M40.572 33.2522C40.2701 33.2522 40.0055 33.1973 39.7721 33.0905C39.5386 32.9837 39.3581 32.8312 39.2273 32.639C39.0966 32.4468 39.0312 32.2271 39.0312 31.9769C39.0312 31.7267 39.0842 31.5223 39.1931 31.3301C39.302 31.1379 39.467 30.9762 39.6911 30.8419C39.9152 30.7077 40.1985 30.6131 40.5378 30.5582L42.231 30.2836V30.9335L40.7152 31.1928C40.4195 31.2416 40.2047 31.3332 40.0709 31.4643C39.937 31.5955 39.8717 31.7572 39.8717 31.9525C39.8717 32.1356 39.9464 32.2881 40.0958 32.4102C40.2452 32.5322 40.435 32.5932 40.6623 32.5932C40.9517 32.5932 41.2039 32.5322 41.4155 32.4132C41.6272 32.2942 41.7953 32.1295 41.9135 31.925C42.0318 31.7206 42.091 31.4949 42.091 31.2477V30.0975C42.091 29.8534 42.0007 29.6551 41.8171 29.4995C41.6365 29.347 41.3937 29.2707 41.0949 29.2707C40.8335 29.2707 40.6031 29.3378 40.4008 29.4721C40.1985 29.6063 40.0491 29.7772 39.9526 29.9907L39.2616 29.6399C39.3456 29.4354 39.4826 29.2493 39.6693 29.0846C39.8561 28.9198 40.074 28.7917 40.3261 28.6971C40.5751 28.6025 40.8366 28.5537 41.1105 28.5537C41.4622 28.5537 41.7704 28.6178 42.0381 28.749C42.3057 28.8802 42.5143 29.0632 42.6637 29.2951C42.8131 29.53 42.8878 29.7955 42.8878 30.0975V33.1515H42.1128V32.3003L42.2591 32.3583C42.1626 32.5322 42.0318 32.6847 41.8637 32.822C41.6957 32.9593 41.5027 33.0631 41.2848 33.1393C41.0669 33.2156 40.8272 33.2522 40.5658 33.2522H40.572Z" fill="#113287"/>
<path d="M45.6455 33.1511V26.8325H46.4455V33.1511H45.6455Z" fill="#113287"/>
<path d="M54.3232 33.2522C53.8813 33.2522 53.4859 33.1485 53.1342 32.9441C52.7856 32.7397 52.5117 32.4559 52.3125 32.0959C52.1133 31.7359 52.0137 31.3362 52.0137 30.8908C52.0137 30.4453 52.1133 30.0395 52.3125 29.6887C52.5117 29.3378 52.7763 29.0602 53.1124 28.8588C53.4486 28.6544 53.8283 28.5537 54.2548 28.5537C54.594 28.5537 54.8991 28.6147 55.1605 28.7337C55.4251 28.8527 55.6492 29.0144 55.8329 29.2188C56.0165 29.4232 56.1597 29.6521 56.2593 29.9114C56.3589 30.1707 56.4087 30.4392 56.4087 30.7169C56.4087 30.784 56.4056 30.8542 56.3963 30.9243C56.3869 30.9976 56.3776 31.0677 56.3651 31.1409H52.602V30.4636H55.9045L55.5216 30.7626C55.5776 30.4728 55.5527 30.2134 55.4438 29.9877C55.3349 29.7619 55.1761 29.5788 54.9676 29.4446C54.7559 29.3104 54.5193 29.2432 54.2517 29.2432C53.984 29.2432 53.7412 29.3104 53.5202 29.4476C53.2992 29.5849 53.128 29.7741 53.0066 30.0182C52.8852 30.2623 52.8354 30.5552 52.8572 30.8938C52.8354 31.2233 52.8883 31.5101 53.0159 31.7572C53.1436 32.0044 53.3241 32.1966 53.5607 32.3339C53.7972 32.4712 54.0524 32.5383 54.3326 32.5383C54.6376 32.5383 54.896 32.4681 55.1076 32.3308C55.3162 32.1905 55.4874 32.0135 55.6181 31.7969L56.2811 32.1295C56.1908 32.3339 56.0508 32.523 55.8609 32.6939C55.671 32.8648 55.4438 32.999 55.1823 33.0997C54.9209 33.2004 54.6345 33.2492 54.3232 33.2492V33.2522Z" fill="#113287"/>
<path d="M59.2198 34.9969C59.1171 34.9969 59.0144 34.9878 58.9148 34.9725C58.8121 34.9573 58.7156 34.9268 58.6253 34.8901V34.1976C58.6876 34.2037 58.7654 34.2128 58.8587 34.2311C58.9521 34.2464 59.0455 34.2555 59.1358 34.2555C59.4035 34.2555 59.6058 34.1976 59.7458 34.0816C59.8859 33.9657 60.0166 33.7674 60.1411 33.4897L60.4306 32.8124L60.4119 33.4897L58.4541 28.657H59.3132L60.8384 32.4951H60.5831L62.099 28.657H62.9768L60.9069 33.6911C60.8104 33.9291 60.6859 34.1488 60.5365 34.3501C60.387 34.5515 60.2034 34.7101 59.9886 34.8261C59.7739 34.942 59.5186 35 59.2229 35L59.2198 34.9969Z" fill="#113287"/>
<path d="M67.2412 33.2522C66.7992 33.2522 66.4039 33.1485 66.0522 32.9441C65.7036 32.7397 65.4297 32.4559 65.2305 32.0959C65.0312 31.7359 64.9316 31.3362 64.9316 30.8908C64.9316 30.4453 65.0312 30.0395 65.2305 29.6887C65.4297 29.3378 65.6942 29.0602 66.0304 28.8588C66.3666 28.6544 66.7463 28.5537 67.1727 28.5537C67.512 28.5537 67.8171 28.6147 68.0785 28.7337C68.3431 28.8527 68.5672 29.0144 68.7508 29.2188C68.9345 29.4232 69.0777 29.6521 69.1773 29.9114C69.2769 30.1707 69.3267 30.4392 69.3267 30.7169C69.3267 30.784 69.3236 30.8542 69.3142 30.9243C69.3049 30.9976 69.2956 31.0677 69.2831 31.1409H65.5199V30.4636H68.8224L68.4396 30.7626C68.4956 30.4728 68.4707 30.2134 68.3618 29.9877C68.2528 29.7619 68.0941 29.5788 67.8855 29.4446C67.6739 29.3104 67.4373 29.2432 67.1696 29.2432C66.9019 29.2432 66.6592 29.3104 66.4382 29.4476C66.2172 29.5849 66.046 29.7741 65.9246 30.0182C65.8032 30.2623 65.7534 30.5552 65.7752 30.8938C65.7534 31.2233 65.8063 31.5101 65.9339 31.7572C66.0615 32.0044 66.2421 32.1966 66.4786 32.3339C66.7152 32.4712 66.9704 32.5383 67.2506 32.5383C67.5556 32.5383 67.8139 32.4681 68.0256 32.3308C68.2341 32.1905 68.4053 32.0135 68.5361 31.7969L69.1991 32.1295C69.1088 32.3339 68.9687 32.523 68.7789 32.6939C68.589 32.8648 68.3618 32.999 68.1003 33.0997C67.8388 33.2004 67.5525 33.2492 67.2412 33.2492V33.2522Z" fill="#113287"/>
<path d="M72.9432 33.1512L71.3682 28.6541H72.2459L73.4972 32.419L73.1922 32.4098L74.4185 28.6541H75.1687L76.3951 32.4098L76.09 32.419L77.3506 28.6541H78.2191L76.6441 33.1512H75.8846L74.6769 29.3954H74.9166L73.7058 33.1512H72.9494H72.9432Z" fill="#113287"/>
<path d="M82.4805 33.2522C82.0385 33.2522 81.6432 33.1485 81.2914 32.9441C80.9428 32.7397 80.6689 32.4559 80.4697 32.0959C80.2705 31.7359 80.1709 31.3362 80.1709 30.8908C80.1709 30.4453 80.2705 30.0395 80.4697 29.6887C80.6689 29.3378 80.9335 29.0602 81.2697 28.8588C81.6058 28.6544 81.9856 28.5537 82.412 28.5537C82.7513 28.5537 83.0563 28.6147 83.3178 28.7337C83.5823 28.8527 83.8065 29.0144 83.9901 29.2188C84.1737 29.4232 84.3169 29.6521 84.4165 29.9114C84.5161 30.1707 84.5659 30.4392 84.5659 30.7169C84.5659 30.784 84.5628 30.8542 84.5535 30.9243C84.5441 30.9976 84.5348 31.0677 84.5224 31.1409H80.7592V30.4636H84.0617L83.6788 30.7626C83.7349 30.4728 83.71 30.2134 83.601 29.9877C83.4921 29.7619 83.3333 29.5788 83.1248 29.4446C82.9162 29.3104 82.6766 29.2432 82.4089 29.2432C82.1412 29.2432 81.8984 29.3104 81.6774 29.4476C81.4564 29.5849 81.2852 29.7741 81.1638 30.0182C81.0424 30.2623 80.9926 30.5552 81.0144 30.8938C80.9926 31.2233 81.0455 31.5101 81.1732 31.7572C81.3008 32.0044 81.4813 32.1966 81.7179 32.3339C81.9544 32.4712 82.2097 32.5383 82.4898 32.5383C82.7948 32.5383 83.0532 32.4681 83.2649 32.3308C83.4765 32.1905 83.6446 32.0135 83.7753 31.7969L84.4383 32.1295C84.348 32.3339 84.208 32.523 84.0181 32.6939C83.8282 32.8648 83.601 32.999 83.3396 33.0997C83.0781 33.2004 82.7917 33.2492 82.4805 33.2492V33.2522Z" fill="#113287"/>
<path d="M88.4148 33.2522C88.1129 33.2522 87.8483 33.1973 87.6148 33.0905C87.3814 32.9807 87.2009 32.8312 87.0701 32.639C86.9394 32.4468 86.874 32.2271 86.874 31.9769C86.874 31.7267 86.9269 31.5223 87.0359 31.3301C87.1448 31.1379 87.3098 30.9762 87.5339 30.8419C87.758 30.7077 88.0413 30.6131 88.3805 30.5582L90.0738 30.2836V30.9335L88.558 31.1928C88.2623 31.2416 88.0475 31.3332 87.9137 31.4643C87.7798 31.5955 87.7144 31.7572 87.7144 31.9525C87.7144 32.1356 87.7891 32.2881 87.9385 32.4102C88.088 32.5322 88.2778 32.5932 88.505 32.5932C88.7945 32.5932 89.0466 32.5322 89.2583 32.4132C89.47 32.2942 89.638 32.1295 89.7563 31.925C89.8746 31.7206 89.9369 31.4949 89.9369 31.2477V30.0975C89.9369 29.8534 89.8466 29.6551 89.6629 29.4995C89.4824 29.347 89.2396 29.2707 88.9408 29.2707C88.6794 29.2707 88.449 29.3378 88.2467 29.4721C88.0444 29.6063 87.895 29.7772 87.7985 29.9907L87.1075 29.6399C87.1915 29.4354 87.3285 29.2493 87.5152 29.0846C87.702 28.9198 87.9199 28.7917 88.172 28.6971C88.421 28.6025 88.6825 28.5537 88.9564 28.5537C89.3081 28.5537 89.6163 28.6178 89.8839 28.749C90.1516 28.8802 90.3602 29.0632 90.5096 29.2951C90.659 29.53 90.7337 29.7955 90.7337 30.0975V33.1515H89.9586V32.3003L90.1049 32.3583C90.0084 32.5322 89.8777 32.6847 89.7096 32.822C89.5416 32.9593 89.3486 33.0631 89.1307 33.1393C88.9128 33.2156 88.6731 33.2522 88.4117 33.2522H88.4148Z" fill="#113287"/>
<path d="M93.4893 33.1512V28.654H94.2736V29.4809L94.1896 29.3649C94.2985 29.1086 94.4635 28.9195 94.6845 28.7944C94.9055 28.6693 95.1763 28.6052 95.4938 28.6052H95.7739V29.3466H95.3724C95.0487 29.3466 94.7872 29.4442 94.588 29.6395C94.3888 29.8348 94.2892 30.1124 94.2892 30.4755V33.1542H93.4893V33.1512Z" fill="#113287"/>
<path d="M60.5921 6.66333V8.94852H67.4213L67.4306 8.96072L60.0505 19.8771L60.0381 19.8954L60.0848 19.99H71.7167V17.7079H64.5016L64.4954 17.6926L71.8754 6.77622L71.8879 6.75791L71.8381 6.66333H60.5921Z" fill="#113287"/>
<path d="M89.8573 6.38843C87.9711 6.38843 86.2965 7.25491 85.2102 8.60039C84.1238 7.25491 82.4492 6.38843 80.563 6.38843C77.2916 6.38843 74.6396 8.98787 74.6396 12.1944V19.9897H77.1951V12.0266C77.1951 10.2052 78.7016 8.72548 80.563 8.72548C82.4243 8.72548 83.9309 10.2022 83.9309 12.0266V19.9897H86.4894V12.0266C86.4894 10.2052 87.996 8.72548 89.8573 8.72548C91.7187 8.72548 93.2252 10.2022 93.2252 12.0266V19.9897H95.7807V12.1944C95.7807 8.98787 93.1287 6.38843 89.8573 6.38843Z" fill="#113287"/>
<path d="M7.09992 6.39486C5.36929 6.39486 3.78185 7.00201 2.54925 8.01188V0H0V13.3542C0 17.1984 3.178 20.3134 7.09992 20.3134C11.0218 20.3134 14.1998 17.1984 14.1998 13.3542C14.1998 9.50992 11.0218 6.39486 7.09992 6.39486ZM7.09992 18.0832C4.4355 18.0832 2.27533 15.9658 2.27533 13.3542C2.27533 10.7425 4.4355 8.62513 7.09992 8.62513C9.76433 8.62513 11.9245 10.7425 11.9245 13.3542C11.9245 15.9658 9.76433 18.0832 7.09992 18.0832Z" fill="#113287"/>
<path d="M37.1083 17.2282C35.2096 18.531 32.6884 18.3052 31.0574 16.8194L37.348 12.5023L38.7861 11.5168L40.6785 10.2171C40.526 9.92418 40.3548 9.63738 40.1556 9.3628C37.9052 6.21418 33.479 5.44838 30.2668 7.65424C27.0545 9.86011 26.2733 14.1986 28.5237 17.3472C30.7741 20.4958 35.2003 21.2616 38.4125 19.0558C39.6078 18.2351 40.4638 17.1214 40.9556 15.8827L38.8327 15.0742C38.4997 15.9163 37.9176 16.673 37.1052 17.2282H37.1083ZM31.5741 9.47873C33.4728 8.17596 35.994 8.40174 37.6219 9.88756L29.8964 15.1902C29.0279 13.1796 29.6754 10.7815 31.5741 9.47873Z" fill="#113287"/>
<path d="M53.6144 17.2282C51.7157 18.531 49.1944 18.3052 47.5634 16.8194L53.8541 12.5023L55.289 11.5168L57.1815 10.2171C57.0289 9.92418 56.8577 9.63738 56.6585 9.3628C54.4081 6.21418 49.9819 5.44838 46.7697 7.65424C43.5575 9.86011 42.7762 14.1986 45.0266 17.3472C47.2771 20.4958 51.7032 21.2616 54.9155 19.0558C56.1107 18.2351 56.9667 17.1214 57.4585 15.8827L55.3357 15.0742C55.0026 15.9163 54.4206 16.673 53.6082 17.2282H53.6144ZM48.0801 9.47873C49.9788 8.17596 52.5001 8.40174 54.1311 9.88756L46.4055 15.1902C45.5371 13.1796 46.1845 10.7815 48.0832 9.47873H48.0801Z" fill="#113287"/>
<path d="M17.7549 12.0209V19.99H20.3041V12.0514C20.3041 10.4404 21.6363 9.13463 23.2798 9.13463H25.4244V6.66333H23.2207C20.2014 6.66333 17.7549 9.0614 17.7549 12.0209Z" fill="#113287"/>
</svg>
