<svg width="357" height="101" viewBox="0 0 357 101" fill="none" xmlns="http://www.w3.org/2000/svg">
<rect width="357" height="101" rx="4" fill="#F3F6FF"/>
<path d="M18.1978 22.2065H17.521V23.6743C16.708 23.7007 15.9346 23.7051 15.2798 23.7095L15.3765 24.2808C16.7827 24.2852 18.7031 24.272 20.4917 23.9468L20.439 23.437C19.7183 23.5469 18.9536 23.6084 18.1978 23.6479V22.2065ZM15.5171 21.9341L15.8511 22.4614C16.7915 22.1758 17.521 21.5518 17.8594 20.7168C18.2109 21.5078 18.9492 22.1099 19.8853 22.3911L20.2104 21.8462C19.0547 21.5166 18.2197 20.6904 18.1978 19.6841H20.0347V19.1128H18.1978V18.146H17.521V19.1128H15.7104V19.6841H17.5034C17.4858 20.7344 16.6729 21.5913 15.5171 21.9341ZM20.9575 25.9155H21.6431V18.0845H20.9575V25.9155Z" fill="#113287"/>
<path d="M28.958 18.5591H23.6494V19.1216H28.2725V19.1655C28.2769 19.8291 28.2769 20.5981 28.0659 21.6792H22.7442V22.2593H29.8985V21.6792H28.7515C28.958 20.6157 28.958 19.8247 28.958 19.1655V18.5591ZM23.6934 25.7222H29.1953V25.1421H24.3789V23.1382H23.6934V25.7222Z" fill="#113287"/>
<path d="M36.9497 18.0845H36.2818V25.8979H36.9497V18.0845ZM30.3492 21.4595C30.3536 23.1206 31.0127 24.1797 32.0279 24.1753C32.9903 24.1797 33.6451 23.2261 33.711 21.7056H34.7173V25.5024H35.3765V18.2515H34.7173V21.1343H33.7066C33.6187 19.6621 32.9771 18.748 32.0279 18.7437C31.0127 18.748 30.3536 19.7983 30.3492 21.4595ZM30.9995 21.4595C30.9908 20.1895 31.3951 19.394 32.0279 19.394C32.6651 19.394 33.0694 20.1895 33.065 21.4595C33.0694 22.7251 32.6651 23.5249 32.0279 23.5161C31.3951 23.5249 30.9908 22.7251 30.9995 21.4595Z" fill="#113287"/>
<path d="M44.0801 20.4575H39.4131V18.3745H38.7276V21.0112H44.0801V20.4575ZM37.752 22.6372H44.9063V22.0747H37.752V22.6372ZM38.6837 25.7046H44.1241V25.1333H39.3692V23.437H38.6837V25.7046Z" fill="#113287"/>
<path d="M53.8937 18.0933H53.2345V20.6333H52.2149V18.2427H51.5558V23.7974H52.2149V21.2046H53.2345V23.9556H53.8937V18.0933ZM47.214 19.6226H51.2218V19.0601H49.5694V18.1548H48.8839V19.0601H47.214V19.6226ZM47.5567 21.4507C47.5523 22.3076 48.2423 22.8745 49.2267 22.8745C50.211 22.8745 50.901 22.3076 50.9054 21.4507C50.901 20.5938 50.211 20.0269 49.2267 20.0356C48.2423 20.0269 47.5523 20.5938 47.5567 21.4507ZM48.172 21.4507C48.172 20.9146 48.6026 20.563 49.2267 20.563C49.8507 20.563 50.2813 20.9146 50.2813 21.4507C50.2813 21.9736 49.8507 22.3384 49.2267 22.3296C48.6026 22.3384 48.172 21.9736 48.172 21.4507ZM48.7696 25.731H54.131V25.1509H49.4552V23.437H48.7696V25.731Z" fill="#113287"/>
<path d="M61.0768 21.8462H56.3658V19.3853H60.9977V18.814H55.6803V22.4175H61.0768V21.8462ZM54.7662 24.8345H61.9205V24.2544H54.7662V24.8345Z" fill="#113287"/>
<path d="M68.7169 18.4448H62.9425V19.0161H64.1466V20.8091H62.9689V21.3628H65.4913V22.3208H62.2746V22.8833H69.3937V22.3208H66.1769V21.3628H68.6906V20.8091H67.5128V19.0161H68.7169V18.4448ZM63.1974 25.731H68.6027V25.1509H63.8917V23.5688H63.1974V25.731ZM64.8322 20.8091V19.0161H66.8273V20.8091H64.8322Z" fill="#113287"/>
<path d="M76.2253 18.0845H75.5309V25.9155H76.2253V18.0845ZM70.0729 21.4155C70.0773 23.0811 70.9035 24.1357 72.068 24.1313C73.2282 24.1357 74.0675 23.0811 74.0631 21.4155C74.0675 19.7544 73.2282 18.6953 72.068 18.6909C70.9035 18.6953 70.0773 19.7544 70.0729 21.4155ZM70.7409 21.4155C70.7409 20.1455 71.2858 19.3105 72.068 19.3062C72.8546 19.3105 73.3952 20.1455 73.3952 21.4155C73.3952 22.6855 72.8546 23.5205 72.068 23.5161C71.2858 23.5205 70.7409 22.6855 70.7409 21.4155Z" fill="#113287"/>
<path d="M84.6037 21.2046H83.3381V18.0845H82.6525V25.8979H83.3381V21.7847H84.6037V21.2046ZM77.6164 23.9116H78.2404C79.4225 23.9116 80.6354 23.8325 81.9846 23.5601L81.8967 22.9712C80.6091 23.2437 79.4445 23.3315 78.3019 23.3315V18.8579H77.6164V23.9116Z" fill="#113287"/>
<path d="M90.8576 18.5503H87.3508V19.1128H90.1237C90.093 19.4116 90.0271 19.6973 89.9128 19.9653L86.9553 20.106L87.0783 20.6772L89.6404 20.4751C89.1526 21.1958 88.2912 21.7671 86.9992 22.145L87.2805 22.7163C89.7151 21.9604 90.8488 20.519 90.8576 18.5503ZM88.1945 25.7925H93.2658V23.0151H88.1945V25.7925ZM88.8625 25.23V23.5776H92.5803V25.23H88.8625ZM90.8313 20.7388H92.5715V22.5933H93.2658V18.0933H92.5715V20.1587H90.8313V20.7388Z" fill="#113287"/>
<path d="M100.748 18.5327H94.9646V19.104H96.1775V21.2046H94.991V21.7759H100.721V21.2046H99.5437V19.104H100.748V18.5327ZM94.2878 23.2612H96.1599V25.8979H96.863V23.2612H98.8933V25.8979H99.5701V23.2612H101.442V22.6899H94.2878V23.2612ZM96.863 21.2046V19.104H98.8669V21.2046H96.863Z" fill="#113287"/>
<path d="M108.282 18.0845H107.597V21.0376H105.945V21.6089H107.597V25.9155H108.282V18.0845ZM102.165 24.0259H102.763C104.275 24.0259 105.228 23.9731 106.366 23.7886L106.287 23.2173C105.215 23.4106 104.292 23.4502 102.86 23.4546V21.5649H105.47V21.0024H102.86V19.3765H105.813V18.8052H102.165V24.0259Z" fill="#113287"/>
<path d="M118.43 21.8022H111.302V22.3823H118.43V21.8022ZM112.163 24.4741C112.159 25.3794 113.174 25.8804 114.862 25.8804C116.536 25.8804 117.542 25.3794 117.551 24.4741C117.542 23.5776 116.536 23.0679 114.862 23.0679C113.174 23.0679 112.159 23.5776 112.163 24.4741ZM112.207 21.0552H117.595V20.4927H112.884V18.981H117.542V18.4009H112.207V21.0552ZM112.867 24.4741C112.858 23.9292 113.609 23.6128 114.862 23.604C116.101 23.6128 116.852 23.9292 116.857 24.4741C116.852 25.0234 116.101 25.3354 114.862 25.3354C113.609 25.3354 112.858 25.0234 112.867 24.4741Z" fill="#113287"/>
<path d="M127.013 18.5591H121.704V19.1216H126.327V19.1655C126.332 19.8291 126.332 20.5981 126.121 21.6792H120.799V22.2593H127.953V21.6792H126.806C127.013 20.6157 127.013 19.8247 127.013 19.1655V18.5591ZM121.748 25.7222H127.25V25.1421H122.434V23.1382H121.748V25.7222Z" fill="#113287"/>
<path d="M134.776 18.0845H134.091V21.231H132.227V21.8022H134.091V25.8979H134.776V18.0845ZM128.316 23.8589L128.694 24.4126C131.305 23.1162 132.241 21.1519 132.245 18.937H128.659V19.4995H131.551C131.41 21.3276 130.43 22.835 128.316 23.8589Z" fill="#113287"/>
<path d="M142.267 18.0845H141.581V25.9155H142.267V18.0845ZM136.255 19.3853H139.2V21.0288H136.273V24.0171H136.923C138.272 24.0171 139.459 23.96 140.896 23.7358L140.826 23.1558C139.428 23.3799 138.272 23.4414 136.976 23.437V21.5913H139.894V18.814H136.255V19.3853Z" fill="#113287"/>
<path d="M150.47 21.7144H143.315V22.2593H150.47V21.7144ZM144.177 23.4019H148.888V24.0698H144.185V25.7925H149.828V25.2915H144.88V24.5444H149.573V22.8833H144.177V23.4019ZM144.221 18.8228H148.852V19.4644H144.247V21.1255H149.687V20.6245H144.933V19.939H149.547V18.3218H144.221V18.8228Z" fill="#113287"/>
<path d="M155.467 20.4839V19.4644H157.225V18.8931H152.971V19.4644H154.79V20.4839C154.781 21.8154 153.814 23.3008 152.689 23.8501L153.111 24.395C153.986 23.9468 154.768 22.936 155.128 21.7891C155.48 22.8481 156.223 23.771 157.102 24.2017L157.497 23.6567C156.363 23.1162 155.458 21.7363 155.467 20.4839ZM158.183 25.8979H158.868V21.8374H160.178V21.2485H158.868V18.0845H158.183V25.8979Z" fill="#113287"/>
<path d="M164.276 19.1919V19.1392H166.772V18.5767H160.998V19.1392H163.502V19.1919C163.498 20.2378 162.109 21.1255 160.751 21.3276L161.024 21.8726C162.224 21.666 163.415 21.0156 163.889 20.0752C164.364 21.0156 165.555 21.666 166.772 21.8726L167.027 21.3276C165.665 21.1255 164.271 20.2378 164.276 19.1919ZM160.33 23.1118H163.538V25.8979H164.214V23.1118H167.449V22.5405H160.33V23.1118Z" fill="#113287"/>
<path d="M176.981 24.3247H173.72V22.6372H176.102V18.6382H175.425V20.0532H171.365V18.6382H170.67V22.6372H173.043V24.3247H169.827V24.896H176.981V24.3247ZM171.365 22.0747V20.6157H175.425V22.0747H171.365Z" fill="#113287"/>
<path d="M184.023 18.0845H183.364V25.8979H184.023V18.0845ZM177.344 23.7095L177.748 24.2104C178.838 23.5688 179.594 22.7646 180.064 21.855H181.721V25.5024H182.38V18.2954H181.721V21.2925H180.319C180.587 20.5981 180.71 19.8555 180.71 19.0864H177.678V19.6577H180.024C179.893 21.2925 179.04 22.7031 177.344 23.7095Z" fill="#113287"/>
<path d="M191.49 21.4595H188.15V19.394H191.455V18.8315H187.474V22.0308H189.091V23.5952C188.313 23.6172 187.557 23.6216 186.876 23.6216L186.973 24.2017C188.467 24.2061 190.357 24.1709 192.088 23.9204L192.035 23.4019C191.31 23.4854 190.541 23.5381 189.776 23.5688V22.0308H191.49V21.4595ZM192.554 25.9155H193.239V18.0845H192.554V25.9155Z" fill="#113287"/>
<path d="M196.441 18.6909C195.285 18.6953 194.477 19.7544 194.481 21.4155C194.477 23.0811 195.285 24.1357 196.441 24.1313C197.531 24.1357 198.313 23.1777 198.388 21.644H200.132V25.9155H200.818V18.0845H200.132V21.0728H198.379C198.274 19.6094 197.504 18.6953 196.441 18.6909ZM195.14 21.4155C195.145 20.1455 195.672 19.3105 196.441 19.3062C197.206 19.3105 197.742 20.1455 197.742 21.4155C197.742 22.6855 197.206 23.5205 196.441 23.5161C195.672 23.5205 195.145 22.6855 195.14 21.4155Z" fill="#113287"/>
<path d="M210.315 18.0933H209.621V19.3149H207.59C207.226 18.8623 206.654 18.5898 205.991 18.5854C204.822 18.5898 203.956 19.3984 203.961 20.5454C203.956 21.688 204.822 22.4966 205.991 22.4966C206.659 22.4966 207.239 22.2197 207.599 21.7583H209.621V23.8677H210.315V18.0933ZM204.62 20.5454C204.62 19.7676 205.191 19.2051 205.991 19.2007C206.76 19.2051 207.344 19.7676 207.344 20.5454C207.344 21.3276 206.76 21.8857 205.991 21.8813C205.191 21.8857 204.62 21.3276 204.62 20.5454ZM205.297 25.731H210.535V25.1509H205.991V23.2612H205.297V25.731ZM207.902 19.8862H209.621V21.187H207.907C207.973 20.9893 208.012 20.7739 208.012 20.5454C208.012 20.3081 207.973 20.0884 207.902 19.8862Z" fill="#113287"/>
<path d="M215.055 18.5327H211.662V19.104H214.369V20.1675H211.68V22.479H212.234C213.816 22.4878 214.611 22.457 215.582 22.2856L215.512 21.7144C214.593 21.8857 213.833 21.9165 212.365 21.9165V20.7212H215.055V18.5327ZM212.611 24.5093C212.607 25.4233 213.605 25.9463 215.239 25.9419C216.865 25.9463 217.854 25.4233 217.85 24.5093C217.854 23.5952 216.865 23.0591 215.239 23.0591C213.605 23.0591 212.607 23.5952 212.611 24.5093ZM213.315 24.5093C213.306 23.938 214.031 23.6084 215.239 23.604C216.43 23.6084 217.177 23.938 217.173 24.5093C217.177 25.0762 216.43 25.397 215.239 25.397C214.031 25.397 213.306 25.0762 213.315 24.5093ZM215.582 21.4858H217.129V22.9272H217.823V18.0933H217.129V19.3237H215.582V19.8862H217.129V20.9058H215.582V21.4858Z" fill="#113287"/>
<path d="M225.551 18.0845H224.883V25.8979H225.551V18.0845ZM218.951 21.4595C218.955 23.1206 219.614 24.1797 220.63 24.1753C221.592 24.1797 222.247 23.2261 222.313 21.7056H223.319V25.5024H223.978V18.2515H223.319V21.1343H222.308C222.22 19.6621 221.579 18.748 220.63 18.7437C219.614 18.748 218.955 19.7983 218.951 21.4595ZM219.601 21.4595C219.592 20.1895 219.997 19.394 220.63 19.394C221.267 19.394 221.671 20.1895 221.667 21.4595C221.671 22.7251 221.267 23.5249 220.63 23.5161C219.997 23.5249 219.592 22.7251 219.601 21.4595Z" fill="#113287"/>
<path d="M230.962 19.3501V18.4888H230.285V19.2974C230.28 20.5059 229.494 21.5518 228.325 21.9868L228.694 22.5405C229.608 22.1846 230.307 21.4683 230.641 20.541C230.984 21.3584 231.665 22.0044 232.526 22.3208L232.904 21.7759C231.77 21.3892 230.962 20.4136 230.962 19.3501ZM229.362 24.4565C229.366 25.3662 230.346 25.8804 231.955 25.8804C233.559 25.8804 234.53 25.3662 234.53 24.4565C234.53 23.5645 233.559 23.0415 231.955 23.0415C230.346 23.0415 229.366 23.5645 229.362 24.4565ZM230.056 24.4565C230.048 23.9248 230.777 23.5952 231.955 23.5952C233.137 23.5952 233.858 23.9248 233.862 24.4565C233.858 25.0103 233.137 25.3311 231.955 25.3354C230.777 25.3311 230.048 25.0103 230.056 24.4565ZM233.774 22.8394H234.46V20.7036H235.637V20.1235H234.46V18.0845H233.774V22.8394Z" fill="#113287"/>
<path d="M240.193 18.6909H236.299V19.271H239.511C239.503 19.7676 239.485 20.4312 239.296 21.3628L239.99 21.4155C240.188 20.396 240.188 19.6182 240.193 19.104V18.6909ZM235.816 22.145L235.886 22.7163C237.279 22.7119 239.16 22.6812 240.799 22.3999L240.755 21.8901C239.942 22.0044 239.046 22.0659 238.18 22.1011V20.4224H237.494V22.123C236.892 22.1406 236.321 22.145 235.816 22.145ZM237.02 25.731H242.24V25.1509H237.714V23.437H237.02V25.731ZM241.282 23.9644H241.986V21.2222H243.128V20.6333H241.986V18.0845H241.282V23.9644Z" fill="#113287"/>
<path d="M244.924 22.6724H244.273V25.7925H246.989V22.6724H246.347V23.6479H244.924V22.6724ZM243.491 20.229C243.487 21.3013 244.33 22.0308 245.521 22.0308C246.58 22.0308 247.385 21.4243 247.521 20.5015H249.151V22.2241H249.845V18.0845H249.151V19.9302H247.516C247.367 19.0293 246.572 18.436 245.521 18.436C244.33 18.436 243.487 19.1611 243.491 20.229ZM244.15 20.229C244.15 19.5171 244.717 19.0161 245.521 19.0161C246.308 19.0161 246.875 19.5171 246.875 20.229C246.875 20.9453 246.308 21.4551 245.521 21.4595C244.717 21.4551 244.15 20.9453 244.15 20.229ZM244.924 25.2476V24.1753H246.347V25.2476H244.924ZM247.094 25.3267L247.455 25.854C248.145 25.5596 248.624 25.0059 248.87 24.3687C249.112 25.0146 249.582 25.5684 250.302 25.854L250.663 25.3267C249.709 24.9751 249.213 24.1094 249.221 23.2876V22.6196H248.536V23.2876C248.531 24.0786 248.035 24.9355 247.094 25.3267Z" fill="#113287"/>
<path d="M257.319 18.0845H256.624V25.9155H257.319V18.0845ZM251.166 21.4155C251.171 23.0811 251.997 24.1357 253.161 24.1313C254.322 24.1357 255.161 23.0811 255.157 21.4155C255.161 19.7544 254.322 18.6953 253.161 18.6909C251.997 18.6953 251.171 19.7544 251.166 21.4155ZM251.834 21.4155C251.834 20.1455 252.379 19.3105 253.161 19.3062C253.948 19.3105 254.489 20.1455 254.489 21.4155C254.489 22.6855 253.948 23.5205 253.161 23.5161C252.379 23.5205 251.834 22.6855 251.834 21.4155Z" fill="#113287"/>
<path d="M266.693 20.4663H262.043V18.3833H261.358V21.0288H266.693V20.4663ZM260.373 22.5229H263.652V24.1401H264.337V22.5229H267.501V21.9517H260.373V22.5229ZM261.287 25.731H266.745V25.1509H261.973V23.4458H261.287V25.731Z" fill="#113287"/>
<path d="M274.579 18.0845H273.911V25.8979H274.579V18.0845ZM267.978 21.4595C267.983 23.1206 268.642 24.1797 269.657 24.1753C270.619 24.1797 271.274 23.2261 271.34 21.7056H272.346V25.5024H273.006V18.2515H272.346V21.1343H271.336C271.248 19.6621 270.606 18.748 269.657 18.7437C268.642 18.748 267.983 19.7983 267.978 21.4595ZM268.629 21.4595C268.62 20.1895 269.024 19.394 269.657 19.394C270.294 19.394 270.699 20.1895 270.694 21.4595C270.699 22.7251 270.294 23.5249 269.657 23.5161C269.024 23.5249 268.62 22.7251 268.629 21.4595Z" fill="#113287"/>
<path d="M283.839 18.0845H283.144V25.8979H283.839V18.0845ZM277.37 23.3755L277.449 23.9644C278.895 23.9556 280.78 23.9292 282.485 23.6655L282.441 23.147C282.024 23.1953 281.589 23.2349 281.149 23.2656V19.5083H282.037V18.937H277.572V19.5083H278.451V23.3667C278.073 23.3711 277.708 23.3755 277.37 23.3755ZM279.128 23.3535V19.5083H280.473V23.3052C280.02 23.3271 279.567 23.3447 279.128 23.3535Z" fill="#113287"/>
<path d="M292.041 24.3511H288.781V22.8745H291.321V22.3032H286.469V21.0288H291.136V18.6646H285.766V19.2358H290.459V20.4663H285.784V22.8745H288.104V24.3511H284.887V24.9312H292.041V24.3511Z" fill="#113287"/>
<path d="M298.442 18.0845H297.757V25.8979H298.442V21.8462H299.708V21.2661H298.442V18.0845ZM292.448 23.8677L292.835 24.4126C295.379 23.1558 296.416 21.1387 296.421 18.9282H292.809V19.5083H295.722C295.564 21.3584 294.465 22.8657 292.448 23.8677Z" fill="#113287"/>
<path d="M303.826 22.9536H303.141V25.7925H308.291V22.9536H307.614V23.8062H303.826V22.9536ZM301.901 21.5122L301.998 22.0835C302.675 22.0835 303.453 22.0835 304.274 22.0527V23.1909H304.96V22.0176C305.676 21.9736 306.406 21.9033 307.113 21.7847L307.069 21.2925C305.351 21.5122 303.387 21.5122 301.901 21.5122ZM302.253 20.4839L302.569 21.0288C303.497 20.7915 304.213 20.2642 304.542 19.5654C304.885 20.2202 305.602 20.6992 306.516 20.9058L306.814 20.3784C305.689 20.1323 304.89 19.4731 304.89 18.6733V18.2778H304.186V18.6733C304.182 19.5127 303.391 20.2202 302.253 20.4839ZM303.826 25.23V24.3511H307.614V25.23H303.826ZM307.605 22.5757H308.291V18.0933H307.605V22.5757Z" fill="#113287"/>
<path d="M316.089 18.0845H315.43V25.8979H316.089V18.0845ZM309.41 23.7095L309.814 24.2104C310.904 23.5688 311.66 22.7646 312.13 21.855H313.787V25.5024H314.446V18.2954H313.787V21.2925H312.385C312.653 20.5981 312.776 19.8555 312.776 19.0864H309.744V19.6577H312.09C311.958 21.2925 311.106 22.7031 309.41 23.7095Z" fill="#113287"/>
<path d="M319.909 18.4185H319.232V21.8198H322.871V18.4185H322.185V19.5435H319.909V18.4185ZM319.909 21.2573V20.0796H322.185V21.2573H319.909ZM320.023 23.0503H324.321V23.8589H320.041V25.8101H325.296V25.2476H320.717V24.3862H325.006V22.4966H320.023V23.0503ZM324.321 22.1274H325.006V20.3608H326.184V19.7808H325.006V18.0845H324.321V22.1274Z" fill="#113287"/>
<path d="M328.735 19.6401V18.5767H328.076V19.6401C328.072 20.5103 327.443 21.521 326.415 21.9692L326.793 22.5054C327.562 22.1714 328.125 21.5078 328.41 20.7651C328.691 21.4375 329.232 21.9956 329.983 22.2856L330.344 21.7583C329.342 21.3804 328.74 20.5059 328.735 19.6401ZM327.839 24.4917C327.83 25.3662 328.832 25.8804 330.458 25.8804C332.075 25.8804 333.082 25.3662 333.086 24.4917C333.082 23.6084 332.075 23.0898 330.458 23.0942C328.832 23.0898 327.83 23.6084 327.839 24.4917ZM328.524 24.4917C328.516 23.9512 329.258 23.626 330.458 23.6216C331.645 23.626 332.392 23.9512 332.4 24.4917C332.392 25.0234 331.645 25.3486 330.458 25.3442C329.258 25.3486 328.516 25.0234 328.524 24.4917ZM330.695 22.6724H331.346V20.7651H332.383V22.9185H333.042V18.0933H332.383V20.1938H331.346V18.2427H330.695V22.6724Z" fill="#113287"/>
<path d="M338.573 21.4595H335.233V19.394H338.538V18.8315H334.556V22.0308H336.173V23.5952C335.396 23.6172 334.64 23.6216 333.959 23.6216L334.055 24.2017C335.549 24.2061 337.439 24.1709 339.17 23.9204L339.118 23.4019C338.393 23.4854 337.624 23.5381 336.859 23.5688V22.0308H338.573V21.4595ZM339.636 25.9155H340.322V18.0845H339.636V25.9155Z" fill="#113287"/>
<path d="M21.5024 31.8755H15.9917V32.4468H20.8081V32.6577C20.8037 33.5938 20.8037 34.688 20.5093 36.1821L21.2124 36.2612C21.4937 34.688 21.4937 33.6157 21.5024 32.6577V31.8755ZM15.2358 37.7905H22.355V37.2192H18.7075V34.4243H18.0308V37.2192H15.2358V37.7905Z" fill="#113287"/>
<path d="M30.7798 31.0845H30.0943V38.8979H30.7798V34.8462H32.0454V34.2661H30.7798V31.0845ZM24.7857 36.8677L25.1724 37.4126C27.7168 36.1558 28.7539 34.1387 28.7583 31.9282H25.146V32.5083H28.0596C27.9014 34.3584 26.8028 35.8657 24.7857 36.8677Z" fill="#113287"/>
<path d="M38.6924 31.0845H38.0069V35.2769H38.6924V31.0845ZM32.4258 33.2642C32.4214 34.3276 33.2872 35.0615 34.4737 35.0571C35.6602 35.0615 36.5171 34.3276 36.5215 33.2642C36.5171 32.1963 35.6602 31.4624 34.4737 31.4712C33.2872 31.4624 32.4214 32.1963 32.4258 33.2642ZM33.1026 33.2642C33.0938 32.5479 33.6695 32.0469 34.4737 32.0513C35.2691 32.0469 35.8448 32.5479 35.8448 33.2642C35.8448 33.9761 35.2691 34.4814 34.4737 34.4858C33.6695 34.4814 33.0938 33.9761 33.1026 33.2642ZM33.6299 38.7925H38.6924V35.6724H38.0069V36.6216H34.3155V35.6724H33.6299V38.7925ZM34.3155 38.23V37.1753H38.0069V38.23H34.3155Z" fill="#113287"/>
<path d="M46.0601 34.7495H41.358V32.2886H45.981V31.7261H40.6637V35.312H42.9664V37.3335H39.7496V37.9136H46.9039V37.3335H43.6431V35.312H46.0601V34.7495Z" fill="#113287"/>
<path d="M53.3048 31.0845H52.6192V38.8979H53.3048V34.8462H54.5704V34.2661H53.3048V31.0845ZM47.3106 36.8677L47.6974 37.4126C50.2418 36.1558 51.2789 34.1387 51.2833 31.9282H47.671V32.5083H50.5846C50.4264 34.3584 49.3277 35.8657 47.3106 36.8677Z" fill="#113287"/>
<path d="M58.9699 31.3745C57.7877 31.3789 56.9352 32.0908 56.9396 33.106C56.9352 34.1255 57.7877 34.8286 58.9699 34.8286C60.1388 34.8286 60.987 34.1255 60.9913 33.106C60.987 32.0908 60.1388 31.3789 58.9699 31.3745ZM57.6163 33.106C57.6076 32.4292 58.1832 31.9502 58.9699 31.9546C59.7433 31.9502 60.3234 32.4292 60.3234 33.106C60.3234 33.7915 59.7433 34.2661 58.9699 34.2661C58.1832 34.2661 57.6076 33.7915 57.6163 33.106ZM58.1261 36.0327H62.5206V36.8413H58.1437V38.7925H63.4874V38.2388H58.8204V37.3599H63.2062V35.479H58.1261V36.0327ZM62.5206 35.1011H63.2062V31.0845H62.5206V35.1011Z" fill="#113287"/>
<path d="M70.7936 36.1646H65.4323V36.7271H70.1081V38.8979H70.7936V36.1646ZM64.2106 34.9165L64.5973 35.4175C65.2126 35.0835 65.5949 34.499 65.8014 33.875C65.9772 34.5034 66.32 35.1274 66.9352 35.4878C67.5548 35.1318 67.8976 34.5122 68.069 33.875C68.2755 34.5034 68.6579 35.0835 69.2819 35.4175L69.651 34.9165C68.7589 34.4507 68.3854 33.4312 68.3942 32.6753V32.2534H69.3522V31.6821H67.1286V32.2534H67.7262V32.6753C67.7262 33.2773 67.5461 34.1606 66.9352 34.7231C66.3112 34.1387 66.1266 33.2378 66.1266 32.6753V32.2534H66.7419V31.6821H64.4919V32.2534H65.485V32.6753C65.4806 33.4048 65.1071 34.4331 64.2106 34.9165ZM70.1081 35.769H70.7936V31.0845H70.1081V35.769Z" fill="#113287"/>
<path d="M80.9147 37.3159H79.1394V35.189C79.7854 34.8418 80.1765 34.2881 80.1765 33.5894C80.1765 32.3809 78.9899 31.5854 77.32 31.5767C75.6501 31.5854 74.4636 32.3809 74.4636 33.5894C74.4636 34.3013 74.8679 34.8638 75.5358 35.2109V37.3159H73.7604V37.896H80.9147V37.3159ZM75.1315 33.5894C75.1271 32.7148 76.0368 32.1392 77.32 32.1479C78.59 32.1392 79.5085 32.7148 79.5085 33.5894C79.5085 34.4639 78.59 35.0483 77.32 35.0483C76.0368 35.0483 75.1271 34.4639 75.1315 33.5894ZM76.2126 37.3159V35.4614C76.5466 35.5493 76.9201 35.5933 77.32 35.5933C77.7287 35.5933 78.1066 35.5449 78.445 35.457V37.3159H76.2126Z" fill="#113287"/>
<path d="M87.4475 31.5942H82.1653V32.1655H86.7619V32.2798C86.7619 33.0093 86.7619 33.8267 86.5246 34.9517H81.2688V35.5229H84.468V38.9155H85.1623V35.5229H88.3879V34.9517H87.2234C87.4475 33.8311 87.4475 33.0181 87.4475 32.2798V31.5942Z" fill="#113287"/>
<path d="M93.4353 34.4595H90.0955V32.394H93.4001V31.8315H89.4187V35.0308H91.0359V36.5952C90.258 36.6172 89.5022 36.6216 88.821 36.6216L88.9177 37.2017C90.4119 37.2061 92.3015 37.1709 94.033 36.9204L93.9802 36.4019C93.2551 36.4854 92.4861 36.5381 91.7214 36.5688V35.0308H93.4353V34.4595ZM94.4988 38.9155H95.1843V31.0845H94.4988V38.9155Z" fill="#113287"/>
<path d="M102.605 33.4575H97.9378V31.3745H97.2522V34.0112H102.605V33.4575ZM96.2766 35.6372H103.431V35.0747H96.2766V35.6372ZM97.2083 38.7046H102.649V38.1333H97.8938V36.437H97.2083V38.7046Z" fill="#113287"/>
<path d="M112.902 35.813H105.783V36.3931H108.999V38.9155H109.676V36.3931H112.902V35.813ZM106.231 34.6528L106.486 35.2065C107.694 35.022 108.85 34.4243 109.346 33.5674C109.843 34.4155 110.981 35.022 112.19 35.2065L112.445 34.6528C111.047 34.4639 109.685 33.6069 109.685 32.6313V32.6226H112.216V32.0601H109.676V31.0845H108.999V32.0601H106.477V32.6226H108.999V32.6313C108.995 33.6113 107.624 34.4639 106.231 34.6528Z" fill="#113287"/>
<path d="M115.611 33.3081V31.8228H114.943V33.3345C114.943 34.6748 114.284 36.0591 113.203 36.6919L113.642 37.2104C114.425 36.7358 115.005 35.8394 115.29 34.7979C115.563 35.7515 116.103 36.5864 116.859 37.0435L117.255 36.5073C116.218 35.8921 115.611 34.5518 115.611 33.3081ZM116.393 34.4771H117.721V38.5024H118.371V31.2515H117.721V33.8882H116.393V34.4771ZM119.32 38.8979H119.988V31.0845H119.32V38.8979Z" fill="#113287"/>
<path d="M127.242 31.0845H126.547V38.9155H127.242V31.0845ZM121.089 34.4155C121.094 36.0811 121.92 37.1357 123.084 37.1313C124.244 37.1357 125.084 36.0811 125.079 34.4155C125.084 32.7544 124.244 31.6953 123.084 31.6909C121.92 31.6953 121.094 32.7544 121.089 34.4155ZM121.757 34.4155C121.757 33.1455 122.302 32.3105 123.084 32.3062C123.871 32.3105 124.411 33.1455 124.411 34.4155C124.411 35.6855 123.871 36.5205 123.084 36.5161C122.302 36.5205 121.757 35.6855 121.757 34.4155Z" fill="#113287"/>
<path d="M135.462 37.2808H128.307V37.8608H135.462V37.2808ZM129.151 35.4614H134.574V31.77H129.151V35.4614ZM129.828 34.9165V32.3413H133.906V34.9165H129.828Z" fill="#113287"/>
<path d="M142.97 37.3511H139.709V35.8745H142.249V35.3032H137.398V34.0288H142.065V31.6646H136.695V32.2358H141.388V33.4663H136.712V35.8745H139.033V37.3511H135.816V37.9312H142.97V37.3511Z" fill="#113287"/>
<path d="M145.322 34.2134H146.174L146.658 31.8228H146.007L145.322 34.2134Z" fill="#113287"/>
<path d="M153.357 34.644H148.611V31.7524H147.908V35.2241H150.246V37.3071H147.029V37.8784H154.184V37.3071H150.932V35.2241H153.357V34.644Z" fill="#113287"/>
<path d="M160.646 31.0845H159.96V36.8501H160.646V34.0464H161.824V33.4663H160.646V31.0845ZM154.687 33.563C154.683 34.6924 155.57 35.4878 156.735 35.4878C157.908 35.4878 158.783 34.6924 158.791 33.563C158.783 32.4292 157.908 31.6426 156.735 31.6382C155.57 31.6426 154.683 32.4292 154.687 33.563ZM155.364 33.563C155.359 32.7896 155.961 32.2446 156.735 32.2446C157.521 32.2446 158.11 32.7896 158.115 33.563C158.11 34.332 157.521 34.8813 156.735 34.8813C155.961 34.8813 155.359 34.332 155.364 33.563ZM155.759 38.731H161.006V38.1509H156.436V36.2524H155.759V38.731Z" fill="#113287"/>
<path d="M163.391 31.8315H162.538L162.055 34.2222H162.705L163.391 31.8315Z" fill="#113287"/>
<path d="M172.193 31.0845H171.499V38.9155H172.193V31.0845ZM166.041 34.4155C166.045 36.0811 166.872 37.1357 168.036 37.1313C169.196 37.1357 170.036 36.0811 170.031 34.4155C170.036 32.7544 169.196 31.6953 168.036 31.6909C166.872 31.6953 166.045 32.7544 166.041 34.4155ZM166.709 34.4155C166.709 33.1455 167.254 32.3105 168.036 32.3062C168.823 32.3105 169.363 33.1455 169.363 34.4155C169.363 35.6855 168.823 36.5205 168.036 36.5161C167.254 36.5205 166.709 35.6855 166.709 34.4155Z" fill="#113287"/>
<path d="M179.306 31.0845H178.621V38.9155H179.306V34.7759H180.616V34.1958H179.306V31.0845ZM173.567 32.3853H176.432V34.0376H173.585V37.0259H174.209C175.716 37.0171 176.757 36.96 177.988 36.7358L177.918 36.1646C176.735 36.3843 175.72 36.4414 174.27 36.437V34.6089H177.118V31.814H173.567V32.3853Z" fill="#113287"/>
<path d="M187.087 33.4575H182.42V31.3745H181.734V34.0112H187.087V33.4575ZM180.759 35.6372H187.913V35.0747H180.759V35.6372ZM181.69 38.7046H187.131V38.1333H182.376V36.437H181.69V38.7046Z" fill="#113287"/>
<path d="M197.419 37.3687H195.371V35.5054H196.716V34.9341H195.494V32.3853H196.733V31.814H190.898V32.3853H192.137V34.9341H190.915V35.5054H192.26V37.3687H190.265V37.9399H197.419V37.3687ZM192.822 34.9341V32.3853H194.817V34.9341H192.822ZM192.954 37.3687V35.5054H194.686V37.3687H192.954Z" fill="#113287"/>
<path d="M204.251 31.0933H203.556V33.1763H202.203V33.7476H203.556V34.811H202.203V35.3735H203.556V37.0522H204.251V31.0933ZM197.782 32.6138H202.203V32.0513H200.366V31.0845H199.68V32.0513H197.782V32.6138ZM198.248 34.5386C198.239 35.4263 198.968 36.0283 200.014 36.0327C201.06 36.0283 201.794 35.4263 201.798 34.5386C201.794 33.6421 201.06 33.0444 200.014 33.0444C198.968 33.0444 198.239 33.6421 198.248 34.5386ZM198.889 34.5386C198.885 33.9761 199.346 33.5981 200.014 33.5894C200.682 33.5981 201.144 33.9761 201.148 34.5386C201.144 35.1011 200.682 35.4834 200.014 35.479C199.346 35.4834 198.885 35.1011 198.889 34.5386ZM199.197 38.731H204.426V38.1509H199.891V36.5249H199.197V38.731Z" fill="#113287"/>
<path d="M213.95 31.0845H213.291V34.231H212.139V31.2603H211.507V38.4937H212.139V34.8022H213.291V38.8979H213.95V31.0845ZM207.56 36.9644H208.061C209.261 36.96 210.056 36.9292 210.997 36.7358L210.935 36.1558C210.065 36.3315 209.322 36.3711 208.246 36.3755V32.6138H210.487V32.0425H207.56V36.9644Z" fill="#113287"/>
<path d="M221.23 31.0933H220.544V36.8237H221.23V31.0933ZM214.858 35.1538L215.236 35.6899C216.15 35.3252 216.861 34.5562 217.2 33.5981C217.547 34.499 218.25 35.2021 219.155 35.5493L219.516 34.9956C218.351 34.5737 217.538 33.5059 217.547 32.3149V31.5327H216.844V32.3149C216.844 33.5498 216.04 34.6924 214.858 35.1538ZM216.185 38.731H221.476V38.1509H216.87V36.2964H216.185V38.731Z" fill="#113287"/>
<path d="M223.57 37.5972H222.717L222.234 39.9878H222.884L223.57 37.5972Z" fill="#113287"/>
<path d="M232.522 31.5591H227.214V32.1216H231.837V32.1655C231.841 32.8291 231.841 33.5981 231.63 34.6792H226.308V35.2593H233.463V34.6792H232.316C232.522 33.6157 232.522 32.8247 232.522 32.1655V31.5591ZM227.258 38.7222H232.76V38.1421H227.943V36.1382H227.258V38.7222Z" fill="#113287"/>
<path d="M240.285 31.0845H239.6V34.231H237.737V34.8022H239.6V38.8979H240.285V31.0845ZM233.825 36.8589L234.203 37.4126C236.814 36.1162 237.75 34.1519 237.754 31.937H234.168V32.4995H237.06C236.919 34.3276 235.939 35.835 233.825 36.8589Z" fill="#113287"/>
<path d="M247.776 31.0845H247.091V38.9155H247.776V31.0845ZM241.764 32.3853H244.709V34.0288H241.782V37.0171H242.432C243.782 37.0171 244.968 36.96 246.405 36.7358L246.335 36.1558C244.937 36.3799 243.782 36.4414 242.485 36.437V34.5913H245.403V31.814H241.764V32.3853Z" fill="#113287"/>
<path d="M257.282 31.0845H256.588V38.8979H257.282V31.0845ZM250.813 36.3755L250.892 36.9644C252.338 36.9556 254.223 36.9292 255.929 36.6655L255.885 36.147C255.467 36.1953 255.032 36.2349 254.593 36.2656V32.5083H255.48V31.937H251.015V32.5083H251.894V36.3667C251.516 36.3711 251.152 36.3755 250.813 36.3755ZM252.571 36.3535V32.5083H253.916V36.3052C253.463 36.3271 253.011 36.3447 252.571 36.3535Z" fill="#113287"/>
<path d="M265.485 37.3511H262.224V35.8745H264.764V35.3032H259.912V34.0288H264.579V31.6646H259.209V32.2358H263.903V33.4663H259.227V35.8745H261.547V37.3511H258.33V37.9312H265.485V37.3511Z" fill="#113287"/>
<path d="M271.947 31.0845H271.262V36.8501H271.947V34.0464H273.125V33.4663H271.947V31.0845ZM265.988 33.563C265.984 34.6924 266.871 35.4878 268.036 35.4878C269.209 35.4878 270.084 34.6924 270.093 33.563C270.084 32.4292 269.209 31.6426 268.036 31.6382C266.871 31.6426 265.984 32.4292 265.988 33.563ZM266.665 33.563C266.661 32.7896 267.263 32.2446 268.036 32.2446C268.823 32.2446 269.411 32.7896 269.416 33.563C269.411 34.332 268.823 34.8813 268.036 34.8813C267.263 34.8813 266.661 34.332 266.665 33.563ZM267.06 38.731H272.307V38.1509H267.737V36.2524H267.06V38.731Z" fill="#113287"/>
<path d="M275.819 35.7603C275.828 37.4214 276.276 38.8013 277.085 39.979H277.753C277.16 39.1045 276.606 37.3291 276.601 35.7603C276.606 34.1958 277.16 32.416 277.753 31.5503H277.085C276.276 32.7236 275.828 34.1035 275.819 35.7603Z" fill="#113287"/>
<path d="M280.664 31.8228H279.865L278.283 32.8774V33.6772L279.829 32.6489H279.865V38.186H280.664V31.8228Z" fill="#113287"/>
<path d="M282.346 35.5757V36.3052C282.614 35.9404 282.952 35.7559 283.339 35.7515C283.985 35.7559 284.596 36.2612 285.264 36.2612C285.65 36.2612 285.993 36.0898 286.283 35.7603V35.0308C286.019 35.3955 285.677 35.5801 285.281 35.5845C284.64 35.5801 284.033 35.0791 283.365 35.0747C282.978 35.0791 282.631 35.2461 282.346 35.5757Z" fill="#113287"/>
<path d="M289.538 38.2739C290.808 38.2739 291.73 37.3862 291.735 36.1558C291.73 34.9165 290.838 34.02 289.625 34.02C289.177 34.02 288.751 34.1694 288.465 34.3892H288.404L288.641 32.5259H291.427V31.8228H287.982L287.534 35.3032H288.298C288.531 34.8901 288.949 34.7231 289.485 34.7319C290.342 34.7363 290.961 35.3472 290.961 36.1733C290.961 36.9731 290.364 37.5752 289.538 37.5796C288.848 37.5752 288.294 37.1533 288.237 36.5864H287.472C287.52 37.5664 288.391 38.2739 289.538 38.2739Z" fill="#113287"/>
<path d="M298.391 31.0845H297.705V36.7446H298.391V33.9937H299.577V33.4136H298.391V31.0845ZM292.651 35.356H293.258C294.901 35.356 295.833 35.3032 296.932 35.0923L296.844 34.521C295.798 34.7319 294.906 34.7803 293.337 34.7759V32.3413H296.132V31.7612H292.651V35.356ZM293.504 38.731H298.751V38.1509H294.181V36.1733H293.504V38.731Z" fill="#113287"/>
<path d="M306.479 31.0845H305.82V38.8979H306.479V31.0845ZM299.782 36.7095L300.204 37.2104C301.68 36.3271 302.537 35.1582 302.915 33.8354H304.238V35.2241H302.788V35.7954H304.238V38.5024H304.897V31.2954H304.238V33.2642H303.051C303.122 32.8818 303.157 32.4863 303.157 32.0864H300.133V32.6577H302.471C302.335 34.2925 301.482 35.7031 299.782 36.7095Z" fill="#113287"/>
<path d="M313.486 31.0845H312.792V38.8979H313.486V34.8901H314.673V34.3101H313.486V31.0845ZM307.272 36.7358L307.826 37.1313C309.246 35.6328 309.663 33.7959 309.672 31.937H307.519V32.5171H309.017C308.929 34.0728 308.45 35.5273 307.272 36.7358ZM309.514 37.2632L310.076 37.6499C311.54 35.9492 311.812 33.7915 311.816 31.937H309.918V32.5171H311.166C311.1 34.1475 310.735 35.8833 309.514 37.2632Z" fill="#113287"/>
<path d="M317.602 33.4839V32.4644H319.465V31.8931H315.062V32.4644H316.908V33.4839C316.903 34.8374 315.928 36.314 314.807 36.8501L315.22 37.395C316.112 36.9468 316.903 35.9536 317.268 34.8066C317.633 35.8877 318.419 36.7886 319.334 37.2017L319.72 36.6567C318.569 36.1602 317.606 34.811 317.602 33.4839ZM320.555 38.8979H321.25V31.0845H320.555V38.8979Z" fill="#113287"/>
<path d="M324.267 35.7603C324.258 34.1035 323.81 32.7236 323.001 31.5503H322.333C322.926 32.416 323.48 34.1958 323.484 35.7603C323.48 37.3291 322.926 39.1045 322.333 39.979H323.001C323.81 38.8013 324.258 37.4214 324.267 35.7603Z" fill="#113287"/>
<path d="M329.446 31.9546H325.473V32.5171H328.752C328.756 33.1411 328.738 34.0903 328.523 35.3999L329.217 35.4614C329.441 34.0112 329.441 32.9785 329.446 32.3589V31.9546ZM325.034 36.604L325.122 37.1753C326.519 37.1841 328.356 37.1489 330 36.894L329.964 36.3755C329.151 36.4722 328.264 36.5293 327.398 36.5601V34.187H326.721V36.582C326.119 36.5952 325.548 36.5996 325.034 36.604ZM330.457 38.8979H331.142V34.9517H332.408V34.354H331.142V31.0845H330.457V38.8979Z" fill="#113287"/>
<path d="M340.824 31.5591H335.515V32.1216H340.138V32.1655C340.143 32.8291 340.143 33.5981 339.932 34.6792H334.61V35.2593H341.764V34.6792H340.617C340.824 33.6157 340.824 32.8247 340.824 32.1655V31.5591ZM335.559 38.7222H341.061V38.1421H336.245V36.1382H335.559V38.7222Z" fill="#113287"/>
<path d="M21.7046 44.0845H21.019V47.231H19.1558V47.8022H21.019V51.8979H21.7046V44.0845ZM15.2446 49.8589L15.6226 50.4126C18.2329 49.1162 19.1689 47.1519 19.1733 44.937H15.5874V45.4995H18.479C18.3384 47.3276 17.3584 48.835 15.2446 49.8589Z" fill="#113287"/>
<path d="M29.1953 44.0845H28.5098V51.9155H29.1953V44.0845ZM23.1836 45.3853H26.1279V47.0288H23.2012V50.0171H23.8516C25.2007 50.0171 26.3872 49.96 27.8242 49.7358L27.7539 49.1558C26.3565 49.3799 25.2007 49.4414 23.9043 49.437V47.5913H26.8223V44.814H23.1836V45.3853Z" fill="#113287"/>
<path d="M33.876 44.2163H33.1905V46.7827H38.4288V44.2163H37.7432V44.9634H33.876V44.2163ZM32.2413 48.0044H35.4493V48.769H33.1026V49.2964H37.7696V49.9907H33.1202V51.8101H38.6837V51.2651H33.8057V50.5005H38.4463V48.769H36.1348V48.0044H39.3604V47.4331H32.2413V48.0044ZM33.876 46.2466V45.4907H37.7432V46.2466H33.876Z" fill="#113287"/>
<path d="M46.2271 44.0845H45.5328V45.5786H44.1969V46.1499H45.5328V47.0552H44.1969V47.6353H45.5328V49.9028H46.2271V44.0845ZM39.7672 48.1274L39.8551 48.7163C41.1251 48.7119 42.9093 48.6855 44.4254 48.4526L44.3902 47.9341C44.0518 47.9736 43.6959 48.0044 43.3355 48.0264V45.2886H44.1353V44.7261H39.9869V45.2886H40.7779V48.1187C40.4176 48.123 40.0792 48.1274 39.7672 48.1274ZM41.191 51.731H46.4381V51.1509H41.8853V49.4194H41.191V51.731ZM41.4459 48.1055V45.2886H42.6676V48.0659C42.2589 48.0835 41.8458 48.0967 41.4459 48.1055Z" fill="#113287"/>
<path d="M53.3663 44.0845H52.6808V49.8501H53.3663V47.0464H54.544V46.4663H53.3663V44.0845ZM47.4073 46.563C47.4029 47.6924 48.2906 48.4878 49.4552 48.4878C50.6285 48.4878 51.503 47.6924 51.5118 46.563C51.503 45.4292 50.6285 44.6426 49.4552 44.6382C48.2906 44.6426 47.4029 45.4292 47.4073 46.563ZM48.0841 46.563C48.0797 45.7896 48.6817 45.2446 49.4552 45.2446C50.2418 45.2446 50.8307 45.7896 50.8351 46.563C50.8307 47.332 50.2418 47.8813 49.4552 47.8813C48.6817 47.8813 48.0797 47.332 48.0841 46.563ZM48.4796 51.731H53.7267V51.1509H49.1563V49.2524H48.4796V51.731Z" fill="#113287"/>
<path d="M55.2496 48.7603C55.2584 50.4214 55.7067 51.8013 56.5153 52.979H57.1832C56.59 52.1045 56.0363 50.3291 56.0319 48.7603C56.0363 47.1958 56.59 45.416 57.1832 44.5503H56.5153C55.7067 45.7236 55.2584 47.1035 55.2496 48.7603Z" fill="#113287"/>
<path d="M60.0597 51.2739C61.4 51.2871 62.2746 50.3291 62.2746 49.1294C62.2746 47.8989 61.3297 47.02 60.2003 47.02C59.5148 47.02 58.9303 47.332 58.5656 47.8638H58.4865C58.4821 46.3301 59.1105 45.438 60.1564 45.438C60.8639 45.438 61.2946 45.8599 61.4396 46.4224H62.2218C62.0592 45.4248 61.277 44.7349 60.1564 44.7349C58.6622 44.7349 57.7394 45.9961 57.7394 48.2505C57.7394 50.606 58.9567 51.2607 60.0597 51.2739ZM58.5919 49.147C58.6007 48.3955 59.2423 47.7188 60.0773 47.7144C60.9079 47.7188 61.5055 48.356 61.5099 49.1382C61.5055 49.9292 60.8815 50.5752 60.0597 50.5796C59.2072 50.5752 58.5963 49.894 58.5919 49.147Z" fill="#113287"/>
<path d="M63.3493 48.5757V49.3052C63.6173 48.9404 63.9557 48.7559 64.3424 48.7515C64.9884 48.7559 65.5993 49.2612 66.2672 49.2612C66.654 49.2612 66.9967 49.0898 67.2868 48.7603V48.0308C67.0231 48.3955 66.6803 48.5801 66.2848 48.5845C65.6432 48.5801 65.0368 48.0791 64.3688 48.0747C63.9821 48.0791 63.6349 48.2461 63.3493 48.5757Z" fill="#113287"/>
<path d="M70.717 44.8228H69.9172L68.3351 45.8774V46.6772L69.882 45.6489H69.9172V51.186H70.717V44.8228Z" fill="#113287"/>
<path d="M72.1433 51.186H76.2741V50.4829H73.2419V50.4302L74.7009 48.9272C75.8259 47.7671 76.1555 47.2134 76.1599 46.5015C76.1555 45.5127 75.3381 44.7349 74.1823 44.7349C73.031 44.7349 72.1608 45.4907 72.1696 46.6157H72.9167C72.9211 45.9038 73.3957 45.4248 74.156 45.4204C74.8723 45.4248 75.4172 45.8467 75.4216 46.5015C75.4172 47.0903 75.0568 47.521 74.3054 48.3208L72.1345 50.606L72.1433 51.186Z" fill="#113287"/>
<path d="M82.9826 44.0845H82.2971V49.7446H82.9826V46.9937H84.1692V46.4136H82.9826V44.0845ZM77.2434 48.356H77.8498C79.4934 48.356 80.425 48.3032 81.5237 48.0923L81.4358 47.521C80.3899 47.7319 79.4978 47.7803 77.9289 47.7759V45.3413H80.7238V44.7612H77.2434V48.356ZM78.0959 51.731H83.343V51.1509H78.7727V49.1733H78.0959V51.731Z" fill="#113287"/>
<path d="M91.071 44.0845H90.4119V51.8979H91.071V44.0845ZM84.3738 49.7095L84.7956 50.2104C86.2722 49.3271 87.1291 48.1582 87.5071 46.8354H88.8298V48.2241H87.3796V48.7954H88.8298V51.5024H89.489V44.2954H88.8298V46.2642H87.6433C87.7136 45.8818 87.7488 45.4863 87.7488 45.0864H84.7253V45.6577H87.0632C86.927 47.2925 86.0745 48.7031 84.3738 49.7095Z" fill="#113287"/>
<path d="M93.842 48.7603C93.8333 47.1035 93.385 45.7236 92.5764 44.5503H91.9085C92.5017 45.416 93.0554 47.1958 93.0598 48.7603C93.0554 50.3291 92.5017 52.1045 91.9085 52.979H92.5764C93.385 51.8013 93.8333 50.4214 93.842 48.7603Z" fill="#113287"/>
<path d="M98.2478 44.5942C96.6175 44.5986 95.3914 45.4512 95.3914 46.7388C95.3914 48.0396 96.6175 48.8921 98.2478 48.8833C99.8782 48.8921 101.104 48.0396 101.104 46.7388C101.104 45.4512 99.8782 44.5986 98.2478 44.5942ZM94.6883 50.8608H101.843V50.2808H94.6883V50.8608ZM96.0506 46.7388C96.0418 45.8027 96.9866 45.1523 98.2478 45.1567C99.5003 45.1523 100.436 45.8027 100.436 46.7388C100.436 47.688 99.5003 48.3208 98.2478 48.3208C96.9866 48.3208 96.0418 47.688 96.0506 46.7388Z" fill="#113287"/>
<path d="M109.351 50.3511H106.09V48.8745H108.63V48.3032H103.779V47.0288H108.446V44.6646H103.075V45.2358H107.769V46.4663H103.093V48.8745H105.413V50.3511H102.197V50.9312H109.351V50.3511Z" fill="#113287"/>
<path d="M117.802 44.0845H117.117V49.8501H117.802V47.0464H118.98V46.4663H117.802V44.0845ZM111.843 46.563C111.839 47.6924 112.726 48.4878 113.891 48.4878C115.064 48.4878 115.939 47.6924 115.948 46.563C115.939 45.4292 115.064 44.6426 113.891 44.6382C112.726 44.6426 111.839 45.4292 111.843 46.563ZM112.52 46.563C112.515 45.7896 113.118 45.2446 113.891 45.2446C114.678 45.2446 115.266 45.7896 115.271 46.563C115.266 47.332 114.678 47.8813 113.891 47.8813C113.118 47.8813 112.515 47.332 112.52 46.563ZM112.915 51.731H118.162V51.1509H113.592V49.2524H112.915V51.731Z" fill="#113287"/>
<path d="M125.873 44.0845H125.196V47.2661H124.071V44.2603H123.421V51.4937H124.071V47.855H125.196V51.8979H125.873V44.0845ZM119.598 49.8765H120.081C120.942 49.8765 121.839 49.8193 122.929 49.6216L122.841 49.0063C121.891 49.1997 121.057 49.2568 120.283 49.2612V45.0425H119.598V49.8765Z" fill="#113287"/>
<path d="M135.01 47.8462H130.299V45.3853H134.931V44.814H129.613V48.4175H135.01V47.8462ZM128.699 50.8345H135.853V50.2544H128.699V50.8345Z" fill="#113287"/>
<path d="M142.659 44.0845H141.973V51.9155H142.659V44.0845ZM136.647 45.3853H139.591V47.0288H136.664V50.0171H137.315C138.664 50.0171 139.851 49.96 141.288 49.7358L141.217 49.1558C139.82 49.3799 138.664 49.4414 137.368 49.437V47.5913H140.286V44.814H136.647V45.3853Z" fill="#113287"/>
<path d="M149.982 44.8755H144.472V45.4468H149.288V45.6577C149.284 46.5938 149.284 47.688 148.989 49.1821L149.692 49.2612C149.974 47.688 149.974 46.6157 149.982 45.6577V44.8755ZM143.716 50.7905H150.835V50.2192H147.187V47.4243H146.511V50.2192H143.716V50.7905Z" fill="#113287"/>
<path d="M155.858 49.3315V48.9009H155.19V49.3315C155.182 50.0786 154.588 50.9136 153.6 51.2827L153.951 51.7925C154.698 51.5112 155.234 50.9663 155.516 50.3379C155.749 50.9927 156.232 51.564 156.992 51.854C157.713 51.5508 158.192 50.9487 158.434 50.3159C158.706 50.9707 159.251 51.5156 160.033 51.7925L160.376 51.2827C159.374 50.9355 158.781 50.1357 158.785 49.3315V48.9009H158.108V49.3315C158.113 49.9336 157.717 50.7158 156.97 51.1772C156.228 50.7554 155.854 50.0215 155.858 49.3315ZM153.397 46.3784C153.393 47.4507 154.259 48.189 155.445 48.189C156.632 48.189 157.489 47.4507 157.493 46.3784C157.489 45.2886 156.632 44.5459 155.445 44.5503C154.259 44.5459 153.393 45.2886 153.397 46.3784ZM154.074 46.3784C154.065 45.6489 154.641 45.1304 155.445 45.1392C156.241 45.1304 156.816 45.6489 156.816 46.3784C156.816 47.1035 156.241 47.6133 155.445 47.6177C154.641 47.6133 154.065 47.1035 154.074 46.3784ZM158.979 48.5581H159.664V44.0933H158.979V48.5581Z" fill="#113287"/>
<path d="M162.312 48.7778H161.626V51.7925H166.909V48.7778H166.214V49.6919H162.312V48.7778ZM160.721 48.2241H167.84V47.6528H160.721V48.2241ZM161.125 46.5454L161.389 47.0991C162.593 46.9189 163.789 46.3081 164.285 45.4292C164.782 46.3037 165.973 46.9189 167.181 47.0991L167.436 46.5454C166.061 46.3696 164.637 45.5039 164.641 44.5415V44.1724H163.929V44.5415C163.929 45.5347 162.519 46.3564 161.125 46.5454ZM162.312 51.2388V50.2368H166.214V51.2388H162.312Z" fill="#113287"/>
<path d="M174.672 44.0845H173.986V51.8979H174.672V44.0845ZM168.739 49.8853H169.372C170.625 49.8853 171.859 49.7886 173.248 49.4985L173.151 48.9097C171.842 49.1865 170.611 49.2788 169.416 49.2876V44.8579H168.739V49.8853Z" fill="#113287"/>
<path d="M181.785 44.0845H181.099V51.9155H181.785V47.7583H183.094V47.1782H181.785V44.0845ZM176.081 49.9556H176.696C178.181 49.9556 179.205 49.9116 180.431 49.6919L180.343 49.0942C179.179 49.3096 178.181 49.3711 176.766 49.3755V45.4204H179.728V44.8491H176.081V49.9556Z" fill="#113287"/>
<path d="M184.072 51.2388C184.384 51.2344 184.639 50.9795 184.635 50.6675C184.639 50.3599 184.384 50.105 184.072 50.105C183.765 50.105 183.501 50.3599 183.51 50.6675C183.501 50.9795 183.765 51.2344 184.072 51.2388Z" fill="#113287"/>
<path d="M16.8706 62.4009H16.1851V65.521H18.4526V66.356H15.2358V66.9272H22.355V66.356H19.1382V65.521H21.4233V62.4009H20.7378V63.394H16.8706V62.4009ZM16.1587 69.731H21.564V69.1509H16.853V67.5513H16.1587V69.731ZM16.8706 64.9673V63.939H20.7378V64.9673H16.8706Z" fill="#113287"/>
<path d="M31.1841 62.0845H30.4986V69.9155H31.1841V62.0845ZM25.1724 63.3853H28.1167V65.0288H25.19V68.0171H25.8404C27.1895 68.0171 28.376 67.96 29.813 67.7358L29.7427 67.1558C28.3453 67.3799 27.1895 67.4414 25.8931 67.437V65.5913H28.8111V62.814H25.1724V63.3853Z" fill="#113287"/>
<path d="M39.3956 68.3423H36.126V66.5405H38.6924V65.9868H37.4708V63.4204H38.71V62.8491H32.8741V63.4204H34.1133V65.9868H32.8917V66.5405H35.4493V68.3423H32.2413V68.9312H39.3956V68.3423ZM34.7989 65.9868V63.4204H36.794V65.9868H34.7989Z" fill="#113287"/>
<path d="M46.0777 66.312H41.3756V65.0552H45.8228V64.5015H41.3756V63.3413H45.9898V62.7612H40.6724V66.8745H46.0777V66.312ZM39.7496 68.8784H46.9039V68.3071H39.7496V68.8784Z" fill="#113287"/>
<path d="M53.5772 64.4575H48.9103V62.3745H48.2247V65.0112H53.5772V64.4575ZM47.2491 66.6372H54.4034V66.0747H47.2491V66.6372ZM48.1808 69.7046H53.6212V69.1333H48.8663V67.437H48.1808V69.7046Z" fill="#113287"/>
<path d="M59.5324 64.1851V62.7612H58.8468V64.1851C58.838 65.666 57.8756 67.1602 56.7111 67.6919L57.1505 68.272C58.0646 67.8105 58.8336 66.8218 59.194 65.644C59.5675 66.7559 60.3366 67.6831 61.2287 68.1138L61.6505 67.5688C60.4992 67.0459 59.528 65.6133 59.5324 64.1851ZM62.5031 69.9155H63.1974V62.0845H62.5031V69.9155Z" fill="#113287"/>
<path d="M67.9723 62.5679H64.5797V63.1216H67.2868V64.229H64.5973V66.5317H65.151C66.7331 66.5317 67.5285 66.5054 68.4997 66.3472L68.4294 65.7759C67.5109 65.9429 66.7506 65.9736 65.2829 65.9692V64.7563H67.9723V62.5679ZM65.4762 67.8765H70.0465V69.9155H70.7409V67.314H65.4762V67.8765ZM68.4909 65.4419H70.0465V66.8921H70.7409V62.0933H70.0465V63.2534H68.4909V63.8159H70.0465V64.8706H68.4909V65.4419Z" fill="#113287"/>
<path d="M77.7946 62.5942H74.2526V63.1655H77.0607C76.9113 64.4927 75.716 65.5298 73.8483 66.0571L74.1384 66.6021C76.3884 65.9604 77.7902 64.5542 77.7946 62.5942ZM75.1667 69.7925H80.238V66.8833H75.1667V69.7925ZM75.8347 69.23V67.437H79.5524V69.23H75.8347ZM77.8122 64.686H79.5437V66.5493H80.238V62.0933H79.5437V64.106H77.8122V64.686Z" fill="#113287"/>
<path d="M83.8879 64.1851V62.7612H83.2112V64.1851C83.2024 65.6133 82.2971 67.1118 81.1545 67.6743L81.594 68.228C82.4729 67.7578 83.2112 66.769 83.5583 65.6177C83.9055 66.7031 84.6262 67.6304 85.4875 68.0786L85.9094 67.5249C84.7976 66.98 83.8879 65.5605 83.8879 64.1851ZM86.6301 69.8979H87.3156V65.855H88.6252V65.2573H87.3156V62.0845H86.6301V69.8979Z" fill="#113287"/>
<path d="M95.9226 65.7144H88.7683V66.2593H95.9226V65.7144ZM89.6296 67.4019H94.3406V68.0698H89.6384V69.7925H95.281V69.2915H90.3328V68.5444H95.0261V66.8833H89.6296V67.4019ZM89.6736 62.8228H94.3054V63.4644H89.6999V65.1255H95.1404V64.6245H90.3855V63.939H94.9997V62.3218H89.6736V62.8228Z" fill="#113287"/>
<path d="M105.393 66.2329H102.168V65.4595H104.55V64.9058H99.909V64.1323H104.295V63.605H99.909V62.8755H104.506V62.313H99.2146V65.4595H101.482V66.2329H98.2654V66.7954H105.393V66.2329ZM99.1355 68.6323C99.1311 69.4541 100.102 69.8804 101.834 69.8804C103.548 69.8804 104.514 69.4541 104.523 68.6323C104.514 67.8193 103.548 67.3755 101.834 67.3843C100.102 67.3755 99.1311 67.8193 99.1355 68.6323ZM99.8299 68.6323C99.8211 68.1665 100.542 67.9072 101.834 67.9028C103.113 67.9072 103.824 68.1665 103.829 68.6323C103.824 69.1069 103.113 69.353 101.834 69.3442C100.542 69.353 99.8211 69.1069 99.8299 68.6323Z" fill="#113287"/>
<path d="M109.685 63.438H108.076V62.3218H107.391V63.438H105.765V64.0005H109.685V63.438ZM106.046 66.3032C106.046 67.3535 106.754 68.0918 107.725 68.0962C108.709 68.0918 109.412 67.3535 109.421 66.3032C109.412 65.2661 108.709 64.5322 107.725 64.5278C106.754 64.5322 106.046 65.2661 106.046 66.3032ZM106.661 66.3032C106.661 65.6177 107.105 65.1167 107.725 65.1079C108.349 65.1167 108.806 65.6177 108.806 66.3032C108.806 66.9976 108.349 67.4941 107.725 67.4897C107.105 67.4941 106.661 66.9976 106.661 66.3032ZM110.089 69.5112H110.74V65.9517H111.777V69.8979H112.436V62.0845H111.777V65.3804H110.74V62.2778H110.089V69.5112Z" fill="#113287"/>
<path d="M121.546 62.8755H116.035V63.4468H120.852V63.6577C120.847 64.5938 120.847 65.688 120.553 67.1821L121.256 67.2612C121.537 65.688 121.537 64.6157 121.546 63.6577V62.8755ZM115.28 68.7905H122.399V68.2192H118.751V65.4243H118.075V68.2192H115.28V68.7905Z" fill="#113287"/>
<path d="M129.424 62.0933H128.765V64.062H127.701V62.2427H127.042V66.646H127.701V64.6333H128.765V66.6987H129.424V62.0933ZM122.832 66.2681L123.175 66.7866C125.157 65.9429 126.211 64.5322 126.216 62.6646H123.148V63.2358H125.504C125.372 64.5498 124.453 65.6089 122.832 66.2681ZM124.15 67.6216H128.747V69.8979H129.424V67.0591H124.15V67.6216Z" fill="#113287"/>
<path d="M136.739 62.0845H136.062V66.5229H136.739V62.0845ZM130.788 65.9253H131.421C132.77 65.9165 133.957 65.8242 135.28 65.5562L135.174 64.9761C133.931 65.2397 132.775 65.3276 131.483 65.3364V62.5503H130.788V65.9253ZM131.667 69.7925H136.739V66.8833H131.667V69.7925ZM132.344 69.23V67.437H136.062V69.23H132.344Z" fill="#113287"/>
<path d="M146.113 64.4663H141.463V62.3833H140.778V65.0288H146.113V64.4663ZM139.793 66.5229H143.072V68.1401H143.757V66.5229H146.921V65.9517H139.793V66.5229ZM140.707 69.731H146.165V69.1509H141.393V67.4458H140.707V69.731Z" fill="#113287"/>
<path d="M149.859 62.6558C148.624 62.6602 147.746 63.4072 147.75 64.4927C147.746 65.5825 148.624 66.3252 149.859 66.3296C151.085 66.3252 151.956 65.5825 151.96 64.4927C151.956 63.4072 151.085 62.6602 149.859 62.6558ZM147.346 67.604L147.442 68.1929C148.849 68.1929 150.769 68.1841 152.558 67.8501L152.505 67.3403C150.778 67.5952 148.787 67.6084 147.346 67.604ZM148.427 64.4927C148.422 63.7676 149.024 63.2622 149.859 63.2622C150.685 63.2622 151.288 63.7676 151.283 64.4927C151.288 65.2222 150.685 65.7231 149.859 65.7231C149.024 65.7231 148.422 65.2222 148.427 64.4927ZM153.023 69.9155H153.709V62.0845H153.023V69.9155Z" fill="#113287"/>
<path d="M159.409 63.3501V62.4888H158.732V63.2974C158.728 64.5059 157.941 65.5518 156.772 65.9868L157.142 66.5405C158.056 66.1846 158.754 65.4683 159.088 64.541C159.431 65.3584 160.112 66.0044 160.974 66.3208L161.352 65.7759C160.218 65.3892 159.409 64.4136 159.409 63.3501ZM157.81 68.4565C157.814 69.3662 158.794 69.8804 160.402 69.8804C162.006 69.8804 162.978 69.3662 162.978 68.4565C162.978 67.5645 162.006 67.0415 160.402 67.0415C158.794 67.0415 157.814 67.5645 157.81 68.4565ZM158.504 68.4565C158.495 67.9248 159.225 67.5952 160.402 67.5952C161.584 67.5952 162.305 67.9248 162.31 68.4565C162.305 69.0103 161.584 69.3311 160.402 69.3354C159.225 69.3311 158.495 69.0103 158.504 68.4565ZM162.222 66.8394H162.907V64.7036H164.085V64.1235H162.907V62.0845H162.222V66.8394Z" fill="#113287"/>
<path d="M167.717 62.9897H164.624V67.9644H165.125C166.408 67.9688 167.159 67.9292 168.078 67.7534L168.016 67.1821C167.164 67.3359 166.443 67.3711 165.283 67.3755V65.6089H167.603V65.0552H165.283V63.5522H167.717V62.9897ZM168.596 69.5024H169.264V65.8022H170.336V69.8979H171.004V62.0845H170.336V65.231H169.264V62.2515H168.596V69.5024Z" fill="#113287"/>
<path d="M178.961 65.7144H171.807V66.2593H178.961V65.7144ZM172.668 67.4019H177.379V68.0698H172.677V69.7925H178.319V69.2915H173.371V68.5444H178.064V66.8833H172.668V67.4019ZM172.712 62.8228H177.344V63.4644H172.738V65.1255H178.179V64.6245H173.424V63.939H178.038V62.3218H172.712V62.8228Z" fill="#113287"/>
<path d="M187.983 62.0845H187.307V65.2397H186.226V62.2954H185.566V69.5112H186.226V65.811H187.307V69.8979H187.983V62.0845ZM181.321 67.7358L181.726 68.2192C183.971 66.9668 184.67 65.0903 184.679 63.104H181.62V63.6753H184.002C183.883 65.2925 183.136 66.7207 181.321 67.7358Z" fill="#113287"/>
<path d="M189.99 62.48H189.287V66.3296H189.876C191.19 66.3252 192.17 66.2725 193.312 66.0571L193.224 65.4858C192.156 65.6968 191.212 65.7451 189.99 65.7495V62.48ZM190.245 69.7925H195.298V67.0327H190.245V69.7925ZM190.921 69.23V67.5864H194.613V69.23H190.921ZM192.363 64.897H194.604V66.6899H195.298V62.0845H194.604V62.981H192.363V63.5171H194.604V64.3608H192.363V64.897Z" fill="#113287"/>
<path d="M199.045 63.5259V63.1919H200.794V62.6294H196.584V63.1919H198.351V63.5347C198.351 64.6377 197.516 65.6792 196.364 66.0923L196.725 66.6372C197.652 66.2944 198.377 65.5737 198.715 64.6772C199.049 65.4814 199.731 66.1362 200.609 66.4526L200.97 65.9077C199.827 65.5122 199.045 64.541 199.045 63.5259ZM197.551 67.7534H202.112V69.8979H202.807V67.1821H197.551V67.7534ZM200.548 64.7124H202.112V66.769H202.807V62.0845H202.112V64.1323H200.548V64.7124Z" fill="#113287"/>
<path d="M207.397 62.5942C205.767 62.5986 204.541 63.4512 204.541 64.7388C204.541 66.0396 205.767 66.8921 207.397 66.8833C209.027 66.8921 210.254 66.0396 210.254 64.7388C210.254 63.4512 209.027 62.5986 207.397 62.5942ZM203.838 68.8608H210.992V68.2808H203.838V68.8608ZM205.2 64.7388C205.191 63.8027 206.136 63.1523 207.397 63.1567C208.65 63.1523 209.586 63.8027 209.586 64.7388C209.586 65.688 208.65 66.3208 207.397 66.3208C206.136 66.3208 205.191 65.688 205.2 64.7388Z" fill="#113287"/>
<path d="M218.5 68.3511H215.239V66.8745H217.779V66.3032H212.928V65.0288H217.595V62.6646H212.225V63.2358H216.918V64.4663H212.242V66.8745H214.563V68.3511H211.346V68.9312H218.5V68.3511Z" fill="#113287"/>
<path d="M227.997 68.3687H225.949V66.5054H227.294V65.9341H226.072V63.3853H227.312V62.814H221.476V63.3853H222.715V65.9341H221.493V66.5054H222.838V68.3687H220.843V68.9399H227.997V68.3687ZM223.401 65.9341V63.3853H225.396V65.9341H223.401ZM223.532 68.3687V66.5054H225.264V68.3687H223.532Z" fill="#113287"/>
<path d="M234.829 62.0933H234.134V64.1763H232.781V64.7476H234.134V65.811H232.781V66.3735H234.134V68.0522H234.829V62.0933ZM228.36 63.6138H232.781V63.0513H230.944V62.0845H230.258V63.0513H228.36V63.6138ZM228.826 65.5386C228.817 66.4263 229.547 67.0283 230.592 67.0327C231.638 67.0283 232.372 66.4263 232.377 65.5386C232.372 64.6421 231.638 64.0444 230.592 64.0444C229.547 64.0444 228.817 64.6421 228.826 65.5386ZM229.467 65.5386C229.463 64.9761 229.925 64.5981 230.592 64.5894C231.26 64.5981 231.722 64.9761 231.726 65.5386C231.722 66.1011 231.26 66.4834 230.592 66.479C229.925 66.4834 229.463 66.1011 229.467 65.5386ZM229.775 69.731H235.005V69.1509H230.469V67.5249H229.775V69.731Z" fill="#113287"/>
<path d="M241.968 62.0933H241.282V67.9468H241.968V65.2485H243.146V64.6685H241.968V62.0933ZM235.877 63.6138H240.535V63.0513H238.549V62.0933H237.863V63.0513H235.877V63.6138ZM236.325 65.5034C236.321 66.3823 237.077 66.9492 238.206 66.9448C239.322 66.9492 240.078 66.3823 240.087 65.5034C240.078 64.6157 239.322 64.0444 238.206 64.0444C237.077 64.0444 236.321 64.6157 236.325 65.5034ZM236.985 65.5034C236.98 64.9453 237.468 64.585 238.206 64.5894C238.936 64.585 239.428 64.9453 239.437 65.5034C239.428 66.0527 238.936 66.4087 238.206 66.3999C237.468 66.4087 236.98 66.0527 236.985 65.5034ZM237.081 69.731H242.328V69.1509H237.758V67.481H237.081V69.731Z" fill="#113287"/>
<path d="M251.834 62.0933H251.14V64.2905H249.426V64.8706H251.14V67.3843H251.834V62.0933ZM245.489 66.3208L245.796 66.8745C248.042 66.1538 249.386 64.7124 249.391 62.7085H245.875V63.271H248.657C248.512 64.6597 247.356 65.7451 245.489 66.3208ZM246.306 69.3267L246.587 69.8716C247.752 69.6431 248.824 69.0322 249.299 68.1094C249.76 69.0234 250.824 69.6343 251.975 69.854L252.265 69.3003C250.889 69.0542 249.641 68.1973 249.637 67.0591V66.6987H248.96V67.0591C248.951 68.2104 247.69 69.085 246.306 69.3267Z" fill="#113287"/>
<path d="M256.425 62.5942C254.794 62.5986 253.568 63.4512 253.568 64.7388C253.568 66.0396 254.794 66.8921 256.425 66.8833C258.055 66.8921 259.281 66.0396 259.281 64.7388C259.281 63.4512 258.055 62.5986 256.425 62.5942ZM252.865 68.8608H260.019V68.2808H252.865V68.8608ZM254.227 64.7388C254.219 63.8027 255.163 63.1523 256.425 63.1567C257.677 63.1523 258.613 63.8027 258.613 64.7388C258.613 65.688 257.677 66.3208 256.425 66.3208C255.163 66.3208 254.219 65.688 254.227 64.7388Z" fill="#113287"/>
<path d="M267.528 68.3511H264.267V66.8745H266.807V66.3032H261.955V65.0288H266.622V62.6646H261.252V63.2358H265.946V64.4663H261.27V66.8745H263.59V68.3511H260.373V68.9312H267.528V68.3511Z" fill="#113287"/>
<path d="M272.999 62.7261H270.213V63.2798H272.331V64.4312H270.231V66.7515H270.732C271.866 66.7515 272.692 66.7119 273.694 66.5229L273.615 65.9604C272.696 66.145 271.923 66.1846 270.908 66.189V64.9585H272.999V62.7261ZM271.382 69.731H276.743V69.1509H272.068V67.3755H271.382V69.731ZM273.325 64.8442H274.3V67.7534H274.959V62.2339H274.3V64.2642H273.325V64.8442ZM275.847 67.9644H276.506V62.0933H275.847V67.9644Z" fill="#113287"/>
<path d="M284.533 68.2808H277.379V68.8608H284.533V68.2808ZM277.73 66.3647L278.02 66.9185C279.194 66.6768 280.451 65.8945 280.952 64.8091C281.453 65.8901 282.714 66.6548 283.909 66.8833L284.19 66.3384C282.841 66.1143 281.303 65.0508 281.299 63.8071V63.4468H283.918V62.8755H277.968V63.4468H280.587V63.8071C280.587 65.0508 279.053 66.1406 277.73 66.3647Z" fill="#113287"/>
<path d="M291.584 62.0845H290.916V69.8979H291.584V62.0845ZM284.984 65.4595C284.988 67.1206 285.647 68.1797 286.662 68.1753C287.625 68.1797 288.28 67.2261 288.346 65.7056H289.352V69.5024H290.011V62.2515H289.352V65.1343H288.341C288.253 63.6621 287.612 62.748 286.662 62.7437C285.647 62.748 284.988 63.7983 284.984 65.4595ZM285.634 65.4595C285.625 64.1895 286.03 63.394 286.662 63.394C287.3 63.394 287.704 64.1895 287.7 65.4595C287.704 66.7251 287.3 67.5249 286.662 67.5161C286.03 67.5249 285.625 66.7251 285.634 65.4595Z" fill="#113287"/>
<path d="M297.1 63.5259V63.1919H298.849V62.6294H294.639V63.1919H296.406V63.5347C296.406 64.6377 295.571 65.6792 294.419 66.0923L294.78 66.6372C295.707 66.2944 296.432 65.5737 296.77 64.6772C297.104 65.4814 297.786 66.1362 298.664 66.4526L299.025 65.9077C297.882 65.5122 297.1 64.541 297.1 63.5259ZM295.606 67.7534H300.167V69.8979H300.862V67.1821H295.606V67.7534ZM298.603 64.7124H300.167V66.769H300.862V62.0845H300.167V64.1323H298.603V64.7124Z" fill="#113287"/>
<path d="M309.012 65.9517H307.245V64.8486C307.86 64.6025 308.207 64.207 308.212 63.6841C308.207 62.7656 307.153 62.2383 305.452 62.2339C303.738 62.2383 302.684 62.7656 302.684 63.6841C302.684 64.2114 303.035 64.6069 303.659 64.8486V65.9517H301.893V66.5229H309.012V65.9517ZM302.754 68.5005C302.749 69.3926 303.756 69.8804 305.452 69.8804C307.126 69.8804 308.133 69.3926 308.142 68.5005C308.133 67.6084 307.126 67.1162 305.452 67.1206C303.756 67.1162 302.749 67.6084 302.754 68.5005ZM303.395 63.6841C303.391 63.1216 304.173 62.7788 305.452 62.7788C306.718 62.7788 307.504 63.1216 307.509 63.6841C307.504 64.2554 306.718 64.585 305.452 64.5894C304.173 64.585 303.391 64.2554 303.395 63.6841ZM303.457 68.5005C303.448 67.9688 304.2 67.6567 305.452 67.6479C306.691 67.6567 307.443 67.9688 307.447 68.5005C307.443 69.0322 306.691 69.3486 305.452 69.3442C304.2 69.3486 303.448 69.0322 303.457 68.5005ZM304.345 65.9517V65.0376C304.674 65.0947 305.043 65.1255 305.452 65.1255C305.861 65.1255 306.23 65.0947 306.56 65.0332V65.9517H304.345Z" fill="#113287"/>
<path d="M315.448 62.0845H314.762V69.8979H315.448V65.8813H316.757V65.3101H315.448V62.0845ZM309.357 63.9126H314.006V63.3413H312.055V62.1812H311.37V63.3413H309.357V63.9126ZM309.805 66.356C309.801 67.415 310.609 68.1489 311.721 68.1489C312.824 68.1489 313.628 67.415 313.637 66.356C313.628 65.3013 312.824 64.563 311.721 64.563C310.609 64.563 309.801 65.3013 309.805 66.356ZM310.464 66.356C310.46 65.6484 310.992 65.1387 311.721 65.1431C312.442 65.1387 312.969 65.6484 312.978 66.356C312.969 67.0679 312.442 67.5688 311.721 67.5601C310.992 67.5688 310.46 67.0679 310.464 66.356Z" fill="#113287"/>
<path d="M323.369 62.0845H322.675V69.8979H323.369V62.0845ZM317.006 67.8677L317.384 68.4302C320.003 67.1733 321.049 65.1826 321.058 62.937H317.366V63.4995H320.354C320.201 65.3672 319.12 66.8657 317.006 67.8677Z" fill="#113287"/>
<path d="M328.981 62.4712C327.813 62.4624 326.978 63.1084 326.978 64.062C326.978 65.0156 327.813 65.666 328.981 65.6616C330.15 65.666 330.99 65.0156 330.985 64.062C330.99 63.1084 330.15 62.4624 328.981 62.4712ZM326.389 66.3296L326.485 66.9185C327.136 66.9141 327.887 66.9097 328.683 66.8745V69.6606H329.368V66.835C330.124 66.7866 330.897 66.7031 331.645 66.5669L331.601 66.0483C329.865 66.3032 327.856 66.334 326.389 66.3296ZM327.654 64.062C327.646 63.4556 328.204 63.0249 328.981 63.0337C329.768 63.0249 330.331 63.4556 330.326 64.062C330.331 64.6729 329.768 65.0947 328.981 65.0903C328.204 65.0947 327.646 64.6729 327.654 64.062ZM332.172 69.9067H332.849V62.0933H332.172V69.9067Z" fill="#113287"/>
<path d="M340.023 62.0933H339.337V67.9468H340.023V65.2485H341.201V64.6685H340.023V62.0933ZM333.932 63.6138H338.59V63.0513H336.604V62.0933H335.918V63.0513H333.932V63.6138ZM334.38 65.5034C334.376 66.3823 335.132 66.9492 336.261 66.9448C337.377 66.9492 338.133 66.3823 338.142 65.5034C338.133 64.6157 337.377 64.0444 336.261 64.0444C335.132 64.0444 334.376 64.6157 334.38 65.5034ZM335.04 65.5034C335.035 64.9453 335.523 64.585 336.261 64.5894C336.991 64.585 337.483 64.9453 337.492 65.5034C337.483 66.0527 336.991 66.4087 336.261 66.3999C335.523 66.4087 335.035 66.0527 335.04 65.5034ZM335.136 69.731H340.383V69.1509H335.813V67.481H335.136V69.731Z" fill="#113287"/>
<path d="M18.1978 79.2065H17.521V80.6743C16.708 80.7007 15.9346 80.7051 15.2798 80.7095L15.3765 81.2808C16.7827 81.2852 18.7031 81.272 20.4917 80.9468L20.439 80.437C19.7183 80.5469 18.9536 80.6084 18.1978 80.6479V79.2065ZM15.5171 78.9341L15.8511 79.4614C16.7915 79.1758 17.521 78.5518 17.8594 77.7168C18.2109 78.5078 18.9492 79.1099 19.8853 79.3911L20.2104 78.8462C19.0547 78.5166 18.2197 77.6904 18.1978 76.6841H20.0347V76.1128H18.1978V75.146H17.521V76.1128H15.7104V76.6841H17.5034C17.4858 77.7344 16.6729 78.5913 15.5171 78.9341ZM20.9575 82.9155H21.6431V75.0845H20.9575V82.9155Z" fill="#113287"/>
<path d="M25.46 76.5259V76.1919H27.209V75.6294H22.999V76.1919H24.7656V76.5347C24.7656 77.6377 23.9307 78.6792 22.7793 79.0923L23.1397 79.6372C24.0669 79.2944 24.792 78.5737 25.1304 77.6772C25.4644 78.4814 26.1455 79.1362 27.0244 79.4526L27.3848 78.9077C26.2422 78.5122 25.46 77.541 25.46 76.5259ZM23.9658 80.7534H28.5274V82.8979H29.2217V80.1821H23.9658V80.7534ZM26.9629 77.7124H28.5274V79.769H29.2217V75.0845H28.5274V77.1323H26.9629V77.7124Z" fill="#113287"/>
<path d="M38.5167 75.8755H32.9883V76.4468H37.8399V76.7456C37.8355 77.7212 37.8355 78.7495 37.5587 80.1294L38.2354 80.2085C38.5123 78.7539 38.5123 77.7476 38.5167 76.7456V75.8755ZM32.2413 81.7905H39.3604V81.2192H36.6358V78.644H35.959V81.2192H34.6934V78.644H34.0079V81.2192H32.2413V81.7905Z" fill="#113287"/>
<path d="M46.2271 75.0845H45.5328V77.1235H43.9596V77.6948H45.5328V79.7427H46.2271V75.0845ZM39.7847 79.1187L40.1451 79.6724C41.0767 79.3164 41.8018 78.5869 42.1358 77.6729C42.4742 78.4771 43.1554 79.1362 44.0299 79.4526L44.3902 78.8989C43.2476 78.5078 42.4654 77.5366 42.4654 76.5171V76.2358H44.2144V75.6558H40.0045V76.2358H41.7711V76.5259C41.7711 77.6421 40.9449 78.7012 39.7847 79.1187ZM41.0152 81.439C41.0108 82.3618 42.0084 82.8892 43.6344 82.8979C45.2559 82.8892 46.2535 82.3618 46.2535 81.439C46.2535 80.5205 45.2559 79.9844 43.6344 79.9888C42.0084 79.9844 41.0108 80.5205 41.0152 81.439ZM41.7008 81.439C41.6964 80.8677 42.4346 80.5249 43.6344 80.5249C44.8297 80.5249 45.5679 80.8677 45.5679 81.439C45.5679 82.0059 44.8297 82.3486 43.6344 82.3442C42.4346 82.3486 41.6964 82.0059 41.7008 81.439Z" fill="#113287"/>
<path d="M53.3663 75.0845H52.6808V79.3296H53.3663V77.4751H54.544V76.8862H53.3663V75.0845ZM47.2755 78.8462L47.5392 79.4175C49.8463 78.8462 51.235 77.519 51.2394 75.5591H47.6271V76.1304H50.4835C50.3605 77.396 49.2091 78.3848 47.2755 78.8462ZM48.128 82.7925H50.8175V79.7339H50.1759V80.6831H48.7696V79.7339H48.128V82.7925ZM48.7696 82.2388V81.2192H50.1759V82.2388H48.7696ZM50.8614 82.3354L51.2394 82.8628C51.8985 82.5684 52.3424 82.0278 52.5797 81.417C52.8126 82.0278 53.2477 82.5684 53.9024 82.8628L54.2716 82.3354C53.3619 81.9355 52.9093 81.061 52.9093 80.2876V79.6548H52.2501V80.314C52.2413 81.061 51.7843 81.9312 50.8614 82.3354Z" fill="#113287"/>
<path d="M59.0992 75.9546H55.1266V76.5171H58.4049C58.4093 77.1411 58.3917 78.0903 58.1764 79.3999L58.8707 79.4614C59.0948 78.0112 59.0948 76.9785 59.0992 76.3589V75.9546ZM54.6871 80.604L54.775 81.1753C56.1725 81.1841 58.0094 81.1489 59.653 80.894L59.6178 80.3755C58.8048 80.4722 57.9171 80.5293 57.0514 80.5601V78.187H56.3746V80.582C55.7726 80.5952 55.2013 80.5996 54.6871 80.604ZM60.11 82.8979H60.7955V78.9517H62.0612V78.354H60.7955V75.0845H60.11V82.8979Z" fill="#113287"/>
<path d="M68.5939 77.4575H63.9269V75.3745H63.2413V78.0112H68.5939V77.4575ZM62.2658 79.6372H69.4201V79.0747H62.2658V79.6372ZM63.1974 82.7046H68.6378V82.1333H63.8829V80.437H63.1974V82.7046Z" fill="#113287"/>
<path d="M74.3732 77.6333V77.0093H76.1486V76.4468H74.3908V75.2339H73.6965V76.4468H71.9123V77.0093H73.7053V77.6333C73.7009 78.978 72.8483 80.314 71.7013 80.8501L72.0969 81.3862C72.9846 80.9556 73.7096 80.0503 74.0524 78.9604C74.3776 79.9668 75.0588 80.8237 75.9201 81.2456L76.3244 80.7095C75.1906 80.1646 74.3776 78.8857 74.3732 77.6333ZM77.133 82.8979H77.8185V78.8813H79.1281V78.2925H77.8185V75.0845H77.133V82.8979Z" fill="#113287"/>
<path d="M85.7224 75.0845H85.028V82.9155H85.7224V75.0845ZM79.57 78.4155C79.5744 80.0811 80.4006 81.1357 81.5651 81.1313C82.7253 81.1357 83.5647 80.0811 83.5603 78.4155C83.5647 76.7544 82.7253 75.6953 81.5651 75.6909C80.4006 75.6953 79.5744 76.7544 79.57 78.4155ZM80.238 78.4155C80.238 77.1455 80.7829 76.3105 81.5651 76.3062C82.3518 76.3105 82.8923 77.1455 82.8923 78.4155C82.8923 79.6855 82.3518 80.5205 81.5651 80.5161C80.7829 80.5205 80.238 79.6855 80.238 78.4155Z" fill="#113287"/>
<path d="M92.8352 75.0845H92.1496V82.8979H92.8352V78.8462H94.1008V78.2661H92.8352V75.0845ZM86.841 80.8677L87.2278 81.4126C89.7722 80.1558 90.8093 78.1387 90.8137 75.9282H87.2014V76.5083H90.115C89.9568 78.3584 88.8581 79.8657 86.841 80.8677Z" fill="#113287"/>
<path d="M98.9309 80.3315V79.9009H98.2629V80.3315C98.2542 81.0786 97.6609 81.9136 96.6721 82.2827L97.0237 82.7925C97.7708 82.5112 98.3069 81.9663 98.5881 81.3379C98.8211 81.9927 99.3045 82.564 100.065 82.854C100.785 82.5508 101.264 81.9487 101.506 81.3159C101.779 81.9707 102.323 82.5156 103.106 82.7925L103.448 82.2827C102.447 81.9355 101.853 81.1357 101.858 80.3315V79.9009H101.181V80.3315C101.185 80.9336 100.79 81.7158 100.043 82.1772C99.3001 81.7554 98.9265 81.0215 98.9309 80.3315ZM96.47 77.3784C96.4656 78.4507 97.3313 79.189 98.5178 79.189C99.7044 79.189 100.561 78.4507 100.566 77.3784C100.561 76.2886 99.7044 75.5459 98.5178 75.5503C97.3313 75.5459 96.4656 76.2886 96.47 77.3784ZM97.1467 77.3784C97.1379 76.6489 97.7136 76.1304 98.5178 76.1392C99.3132 76.1304 99.8889 76.6489 99.8889 77.3784C99.8889 78.1035 99.3132 78.6133 98.5178 78.6177C97.7136 78.6133 97.1379 78.1035 97.1467 77.3784ZM102.051 79.5581H102.737V75.0933H102.051V79.5581Z" fill="#113287"/>
<path d="M105.385 79.7778H104.699V82.7925H109.981V79.7778H109.287V80.6919H105.385V79.7778ZM103.794 79.2241H110.913V78.6528H103.794V79.2241ZM104.198 77.5454L104.462 78.0991C105.666 77.9189 106.861 77.3081 107.358 76.4292C107.854 77.3037 109.045 77.9189 110.254 78.0991L110.509 77.5454C109.133 77.3696 107.709 76.5039 107.714 75.5415V75.1724H107.002V75.5415C107.002 76.5347 105.591 77.3564 104.198 77.5454ZM105.385 82.2388V81.2368H109.287V82.2388H105.385Z" fill="#113287"/>
<path d="M117.744 75.0845H117.059V82.8979H117.744V75.0845ZM111.812 80.8853H112.445C113.697 80.8853 114.932 80.7886 116.321 80.4985L116.224 79.9097C114.914 80.1865 113.684 80.2788 112.489 80.2876V75.8579H111.812V80.8853Z" fill="#113287"/>
<path d="M124.857 75.0845H124.172V82.9155H124.857V78.7583H126.167V78.1782H124.857V75.0845ZM119.153 80.9556H119.768C121.254 80.9556 122.278 80.9116 123.504 80.6919L123.416 80.0942C122.251 80.3096 121.254 80.3711 119.839 80.3755V76.4204H122.801V75.8491H119.153V80.9556Z" fill="#113287"/>
<path d="M127.145 82.2388C127.457 82.2344 127.712 81.9795 127.707 81.6675C127.712 81.3599 127.457 81.105 127.145 81.105C126.837 81.105 126.574 81.3599 126.582 81.6675C126.574 81.9795 126.837 82.2344 127.145 82.2388Z" fill="#113287"/>
</svg>
