<svg width="723" height="28" viewBox="0 0 723 28" fill="none" xmlns="http://www.w3.org/2000/svg">
<rect width="723" height="28" rx="4" fill="#F3F6FF"/>
<path d="M252.227 9.81201H246.673V10.6909H251.107C251.102 11.1304 251.076 11.627 250.953 12.2642H245.776V13.1343H248.861V13.8901H246.602V14.7603H251.085V15.27H246.611V17.4409H252.412V16.5796H247.727V16.0347H252.192V13.8901H249.977V13.1343H253.097V12.2642H252.082C252.232 11.4907 252.232 10.8491 252.227 10.3569V9.81201Z" fill="#113287"/>
<path d="M257.765 9.81201H253.432V10.7085H255.049C255.005 11.5566 254.377 12.4751 253.124 12.8794L253.669 13.7495C254.596 13.4727 255.247 12.8662 255.611 12.1279C255.967 12.7915 256.587 13.3232 257.484 13.5825L258.002 12.6948C256.78 12.3477 256.2 11.5083 256.174 10.7085H257.765V9.81201ZM254.609 14.769H258.819V15.2261H254.618V17.4233H260.173V16.5532H255.743V16.0435H259.936V13.8813H254.609V14.769ZM257.563 12.0356H258.819V13.5737H259.936V9.50439H258.819V11.1479H257.563V12.0356Z" fill="#113287"/>
<path d="M264.454 9.97021H260.912V10.8491H263.329V11.6313H260.929V14.2153H261.527C263.074 14.2109 263.913 14.189 264.849 14.022L264.744 13.1255C263.935 13.2793 263.223 13.3188 262.037 13.3188V12.4663H264.454V9.97021ZM261.843 15.6919H266.238V17.5024H267.354V14.7954H261.843V15.6919ZM264.911 13.2046H266.238V14.4351H267.354V9.51318H266.238V10.6206H264.911V11.5083H266.238V12.3169H264.911V13.2046Z" fill="#113287"/>
<path d="M278.104 11.9741H273.455V9.89111H272.769V12.5366H278.104V11.9741ZM271.785 14.0308H275.063V15.6479H275.749V14.0308H278.913V13.4595H271.785V14.0308ZM272.699 17.2388H278.157V16.6587H273.384V14.9536H272.699V17.2388Z" fill="#113287"/>
<path d="M281.761 10.1636C280.526 10.168 279.647 10.915 279.651 12.0005C279.647 13.0903 280.526 13.833 281.761 13.8374C282.987 13.833 283.857 13.0903 283.861 12.0005C283.857 10.915 282.987 10.168 281.761 10.1636ZM279.247 15.1118L279.344 15.7007C280.75 15.7007 282.67 15.6919 284.459 15.3579L284.406 14.8481C282.679 15.103 280.688 15.1162 279.247 15.1118ZM280.328 12.0005C280.324 11.2754 280.926 10.77 281.761 10.77C282.587 10.77 283.189 11.2754 283.184 12.0005C283.189 12.73 282.587 13.231 281.761 13.231C280.926 13.231 280.324 12.73 280.328 12.0005ZM284.925 17.4233H285.61V9.59229H284.925V17.4233Z" fill="#113287"/>
<path d="M294.629 9.59229H293.943V14.1802H294.629V12.1675H295.806V11.5786H294.629V9.59229ZM288.511 13.5562L288.793 14.0923C291.1 13.4814 292.48 12.0708 292.484 10.0933H288.863V10.6646H291.75C291.61 11.9917 290.427 13.0376 288.511 13.5562ZM289.513 15.103H293.943V17.4058H294.629V14.5405H289.513V15.103Z" fill="#113287"/>
<path d="M299.885 10.1812H296.272V13.6353H299.885V10.1812ZM296.932 15.1997H301.361V17.4233H302.047V14.646H296.932V15.1997ZM296.949 13.0728V10.7349H299.217V13.0728H296.949ZM301.361 14.2241H302.047V12.2114H303.225V11.6313H302.047V9.59229H301.361V14.2241Z" fill="#113287"/>
<path d="M307.69 10.4624H303.717V11.0249H306.995C307 11.6489 306.982 12.5981 306.767 13.9077L307.461 13.9692C307.685 12.519 307.685 11.4863 307.69 10.8667V10.4624ZM303.278 15.1118L303.366 15.6831C304.763 15.6919 306.6 15.6567 308.244 15.4019L308.208 14.8833C307.395 14.98 306.508 15.0371 305.642 15.0679V12.6948H304.965V15.0898C304.363 15.103 303.792 15.1074 303.278 15.1118ZM308.701 17.4058H309.386V13.4595H310.652V12.8618H309.386V9.59229H308.701V17.4058Z" fill="#113287"/>
<path d="M316.594 10.3218V9.87354H315.882V10.3218C315.882 11.4424 314.454 12.374 313.043 12.5718L313.324 13.1343C314.542 12.9321 315.741 12.2686 316.242 11.3018C316.743 12.2598 317.947 12.9321 319.16 13.1343L319.441 12.5718C318.031 12.374 316.598 11.4248 316.594 10.3218ZM312.674 14.5757H315.882V17.4058H316.559V14.5757H319.793V13.9956H312.674V14.5757Z" fill="#113287"/>
<path d="M326.57 9.59229H325.875V11.6313H324.302V12.2026H325.875V14.2505H326.57V9.59229ZM320.127 13.6265L320.488 14.1802C321.419 13.8242 322.144 13.0947 322.478 12.1807C322.817 12.9849 323.498 13.644 324.372 13.9604L324.733 13.4067C323.59 13.0156 322.808 12.0444 322.808 11.0249V10.7437H324.557V10.1636H320.347V10.7437H322.114V11.0337C322.114 12.1499 321.288 13.209 320.127 13.6265ZM321.358 15.9468C321.353 16.8696 322.351 17.397 323.977 17.4058C325.599 17.397 326.596 16.8696 326.596 15.9468C326.596 15.0283 325.599 14.4922 323.977 14.4966C322.351 14.4922 321.353 15.0283 321.358 15.9468ZM322.043 15.9468C322.039 15.3755 322.777 15.0327 323.977 15.0327C325.172 15.0327 325.911 15.3755 325.911 15.9468C325.911 16.5137 325.172 16.8564 323.977 16.8521C322.777 16.8564 322.039 16.5137 322.043 15.9468Z" fill="#113287"/>
<path d="M329.796 12.0005V11.6138H331.263V11.0425H329.804V9.88232H329.145V11.0425H327.66V11.6138H329.145V12.0005C329.141 13.2925 328.512 14.6636 327.449 15.2788L327.862 15.8062C328.644 15.3359 329.202 14.457 329.479 13.4551C329.765 14.3955 330.327 15.2041 331.105 15.6304L331.501 15.1118C330.437 14.5449 329.8 13.2573 329.796 12.0005ZM330.727 13.2661H331.958V17.0015H332.608V9.78564H331.958V12.6772H330.727V13.2661ZM333.531 17.4058H334.19V9.59229H333.531V17.4058Z" fill="#113287"/>
<path d="M340.976 9.59229H340.29V17.4058H340.976V13.354H342.241V12.7739H340.976V9.59229ZM334.982 15.3755L335.368 15.9204C337.913 14.6636 338.95 12.6465 338.954 10.436H335.342V11.0161H338.256C338.097 12.8662 336.999 14.3735 334.982 15.3755Z" fill="#113287"/>
<path d="M350.688 9.59229H350.012V14.1362H350.688V9.59229ZM344.659 13.4155H348.333V9.92627H347.647V11.1392H345.345V9.92627H344.659V13.4155ZM345.222 16.8784L345.468 17.4058C346.645 17.2476 347.744 16.7114 348.21 15.9731C348.671 16.6938 349.744 17.2432 350.908 17.4058L351.163 16.8696C349.845 16.7114 348.605 15.9775 348.57 15.2349H350.89V14.6899H348.553V13.9341H347.867V14.6899H345.547V15.2349H347.858C347.819 15.9995 346.544 16.729 345.222 16.8784ZM345.345 12.8618V11.6753H347.647V12.8618H345.345Z" fill="#113287"/>
<path d="M355.224 9.73291C353.479 9.73291 352.455 10.2119 352.455 11.0776C352.455 11.9653 353.479 12.4443 355.224 12.4487C356.96 12.4443 357.979 11.9653 357.984 11.0776C357.979 10.2119 356.96 9.73291 355.224 9.73291ZM351.664 13.5386H358.783V12.9761H351.664V13.5386ZM352.526 14.7427H357.193V15.4546H352.543V17.3179H358.107V16.7729H353.229V15.9644H357.869V14.2153H352.526V14.7427ZM353.176 11.0776C353.167 10.5635 353.927 10.2559 355.224 10.2515C356.52 10.2559 357.276 10.5635 357.28 11.0776C357.276 11.6226 356.52 11.9214 355.224 11.9214C353.927 11.9214 353.167 11.6226 353.176 11.0776Z" fill="#113287"/>
<path d="M368.136 15.8237H364.875V13.9165H367.248V10.2515H361.825V13.9165H364.198V15.8237H360.981V16.4038H368.136V15.8237ZM362.502 13.3628V10.8052H366.58V13.3628H362.502Z" fill="#113287"/>
<path d="M371.959 10.1021C370.329 10.1064 369.103 10.959 369.103 12.2466C369.103 13.5474 370.329 14.3999 371.959 14.3911C373.59 14.3999 374.816 13.5474 374.816 12.2466C374.816 10.959 373.59 10.1064 371.959 10.1021ZM368.4 16.3687H375.554V15.7886H368.4V16.3687ZM369.762 12.2466C369.753 11.3105 370.698 10.6602 371.959 10.6646C373.212 10.6602 374.148 11.3105 374.148 12.2466C374.148 13.1958 373.212 13.8286 371.959 13.8286C370.698 13.8286 369.753 13.1958 369.762 12.2466Z" fill="#113287"/>
<path d="M382.137 11.9653H377.47V9.88232H376.785V12.519H382.137V11.9653ZM375.809 14.145H382.964V13.5825H375.809V14.145ZM376.741 17.2124H382.181V16.6411H377.426V14.9448H376.741V17.2124Z" fill="#113287"/>
<path d="M391.613 9.59229H390.918V11.6313H389.345V12.2026H390.918V14.2505H391.613V9.59229ZM385.17 13.6265L385.531 14.1802C386.462 13.8242 387.187 13.0947 387.521 12.1807C387.86 12.9849 388.541 13.644 389.415 13.9604L389.776 13.4067C388.633 13.0156 387.851 12.0444 387.851 11.0249V10.7437H389.6V10.1636H385.39V10.7437H387.157V11.0337C387.157 12.1499 386.33 13.209 385.17 13.6265ZM386.401 15.9468C386.396 16.8696 387.394 17.397 389.02 17.4058C390.641 17.397 391.639 16.8696 391.639 15.9468C391.639 15.0283 390.641 14.4922 389.02 14.4966C387.394 14.4922 386.396 15.0283 386.401 15.9468ZM387.086 15.9468C387.082 15.3755 387.82 15.0327 389.02 15.0327C390.215 15.0327 390.954 15.3755 390.954 15.9468C390.954 16.5137 390.215 16.8564 389.02 16.8521C387.82 16.8564 387.082 16.5137 387.086 15.9468Z" fill="#113287"/>
<path d="M398.864 13.2573H394.162V10.7964H398.785V10.2339H393.468V13.8198H395.77V15.8413H392.553V16.4214H399.708V15.8413H396.447V13.8198H398.864V13.2573Z" fill="#113287"/>
<path d="M401.255 16.105H400.402L399.919 18.4956H400.569L401.255 16.105Z" fill="#113287"/>
<path d="M410.256 9.59229H409.561V17.4233H410.256V9.59229ZM404.323 15.481H404.956C406.538 15.4766 407.566 15.4238 408.779 15.2085L408.709 14.6284C407.535 14.8394 406.538 14.8833 405.017 14.8833V10.9194H408.041V10.3394H404.323V15.481Z" fill="#113287"/>
<path d="M414.791 9.72412C413.077 9.71973 412.023 10.2295 412.023 11.1479C412.023 11.9961 412.937 12.5059 414.448 12.5674V13.2925H411.232V13.8638H418.351V13.2925H415.116V12.5674C416.637 12.5103 417.547 12.0005 417.551 11.1479C417.547 10.2295 416.505 9.71973 414.791 9.72412ZM412.137 17.3003H417.445V14.3296H416.742V15.1997H412.822V14.3296H412.137V17.3003ZM412.735 11.1479C412.73 10.5854 413.512 10.2427 414.791 10.2515C416.057 10.2427 416.843 10.5854 416.848 11.1479C416.843 11.7017 416.057 12.04 414.791 12.0356C413.512 12.04 412.73 11.7017 412.735 11.1479ZM412.822 16.7378V15.7534H416.742V16.7378H412.822Z" fill="#113287"/>
<path d="M425.127 9.59229H424.442V12.5454H422.79V13.1167H424.442V17.4233H425.127V9.59229ZM419.01 15.5337H419.608C421.12 15.5337 422.073 15.481 423.211 15.2964L423.132 14.7251C422.06 14.9185 421.137 14.958 419.705 14.9624V13.0728H422.315V12.5103H419.705V10.8843H422.658V10.313H419.01V15.5337Z" fill="#113287"/>
<path d="M426.552 14.2681C426.56 15.9292 427.009 17.3091 427.817 18.4868H428.485C427.892 17.6123 427.338 15.8369 427.334 14.2681C427.338 12.7036 427.892 10.9238 428.485 10.0581H427.817C427.009 11.2314 426.56 12.6113 426.552 14.2681Z" fill="#113287"/>
<path d="M431.14 16.6938C433.078 16.6938 434.172 15.4897 434.172 13.5034C434.172 11.5215 433.078 10.3306 431.219 10.3306H429.162V16.6938H431.14ZM429.953 15.9907V11.0337H431.166C432.647 11.0337 433.399 11.9653 433.399 13.5034C433.399 15.0459 432.647 15.9907 431.087 15.9907H429.953Z" fill="#113287"/>
<path d="M436.537 14.2681C436.528 12.6113 436.08 11.2314 435.271 10.0581H434.603C435.196 10.9238 435.75 12.7036 435.755 14.2681C435.75 15.8369 435.196 17.6123 434.603 18.4868H435.271C436.08 17.3091 436.528 15.9292 436.537 14.2681Z" fill="#113287"/>
<path d="M445.3 9.59229H444.615V15.2524H445.3V12.5015H446.487V11.9214H445.3V9.59229ZM439.561 13.8638H440.167C441.811 13.8638 442.743 13.811 443.841 13.6001L443.753 13.0288C442.707 13.2397 441.815 13.2881 440.246 13.2837V10.8491H443.041V10.269H439.561V13.8638ZM440.413 17.2388H445.66V16.6587H441.09V14.6812H440.413V17.2388Z" fill="#113287"/>
<path d="M449.185 9.979C448.016 9.97021 447.181 10.6162 447.181 11.5698C447.181 12.5234 448.016 13.1738 449.185 13.1694C450.354 13.1738 451.194 12.5234 451.189 11.5698C451.194 10.6162 450.354 9.97021 449.185 9.979ZM446.592 13.8374L446.689 14.4263C447.34 14.4219 448.091 14.4175 448.886 14.3823V17.1685H449.572V14.3428C450.328 14.2944 451.101 14.2109 451.848 14.0747L451.804 13.5562C450.069 13.811 448.06 13.8418 446.592 13.8374ZM447.858 11.5698C447.849 10.9634 448.407 10.5327 449.185 10.5415C449.972 10.5327 450.534 10.9634 450.53 11.5698C450.534 12.1807 449.972 12.6025 449.185 12.5981C448.407 12.6025 447.849 12.1807 447.858 11.5698ZM452.376 17.4146H453.052V9.60107H452.376V17.4146Z" fill="#113287"/>
<path d="M461.183 15.8589H457.922V14.3823H460.462V13.811H455.61V12.5366H460.277V10.1724H454.907V10.7437H459.601V11.9741H454.925V14.3823H457.245V15.8589H454.028V16.439H461.183V15.8589Z" fill="#113287"/>
<path d="M470.5 15.8765H468.452V14.0132H469.797V13.4419H468.575V10.8931H469.814V10.3218H463.978V10.8931H465.218V13.4419H463.996V14.0132H465.341V15.8765H463.346V16.4478H470.5V15.8765ZM465.903 13.4419V10.8931H467.898V13.4419H465.903ZM466.035 15.8765V14.0132H467.766V15.8765H466.035Z" fill="#113287"/>
<path d="M477.224 9.59229H476.529V17.4058H477.224V9.59229ZM470.861 15.3755L471.238 15.938C473.858 14.6812 474.903 12.6904 474.912 10.4448H471.221V11.0073H474.209C474.055 12.875 472.974 14.3735 470.861 15.3755Z" fill="#113287"/>
</svg>
