<svg width="723" height="58" viewBox="0 0 723 58" fill="none" xmlns="http://www.w3.org/2000/svg">
<path d="M0 4C0 1.79086 1.79086 0 4 0H719C721.209 0 723 1.79086 723 4V54C723 56.2091 721.209 58 719 58H4C1.79086 58 0 56.2091 0 54V4Z" fill="#F3F6FF"/>
<path fill-rule="evenodd" clip-rule="evenodd" d="M173 23H9V22.25H173V23Z" fill="#113287"/>
<path d="M16.9229 8.04102H15.8389V10.2383H14.335V11.127H15.8389V13.2852H16.9229V8.04102ZM9.50098 12.4062L10.0674 13.2656C11.1172 12.8945 11.8545 12.1328 12.2402 11.1953C12.6309 12.0254 13.3242 12.6992 14.3057 13.0312L14.8525 12.1719C13.4854 11.7129 12.7725 10.6289 12.7725 9.55469V9.49609H14.5986V8.61719H9.83301V9.49609H11.6689V9.56445C11.6689 10.7314 10.9219 11.918 9.50098 12.4062ZM10.9365 15.1895C10.9268 16.249 12.0742 16.8643 13.9346 16.8691C15.8047 16.8643 16.9473 16.249 16.9521 15.1895C16.9473 14.1299 15.8047 13.5098 13.9346 13.5098C12.0742 13.5098 10.9268 14.1299 10.9365 15.1895ZM12.0107 15.1895C12.0059 14.6377 12.709 14.3398 13.9346 14.3398C15.1699 14.3398 15.8682 14.6377 15.8682 15.1895C15.8682 15.7363 15.1699 16.0342 13.9346 16.0293C12.709 16.0342 12.0059 15.7363 12.0107 15.1895Z" fill="#113287"/>
<path d="M23.8857 10.1602V8.75391H22.7822V10.1602C22.7773 11.8643 21.918 13.5488 20.4482 14.1836L21.1123 15.0918C22.1816 14.5889 22.9434 13.5732 23.3486 12.333C23.7588 13.4854 24.501 14.418 25.5166 14.8867L26.1611 14.0176C24.7305 13.4023 23.876 11.7812 23.8857 10.1602ZM26.7959 16.8789H27.8896V8.04102H26.7959V16.8789Z" fill="#113287"/>
<path d="M15.3833 30.293H14.7441V34.5845H15.3833V30.293ZM9.68896 33.9038H13.1587V30.6084H12.5112V31.7539H10.3364V30.6084H9.68896V33.9038ZM10.2202 37.1743L10.4526 37.6724C11.5649 37.5229 12.6025 37.0166 13.0425 36.3193C13.4783 37 14.491 37.5188 15.5908 37.6724L15.8315 37.166C14.5864 37.0166 13.416 36.3235 13.3828 35.6221H15.5742V35.1074H13.3662V34.3936H12.7188V35.1074H10.5273V35.6221H12.7104C12.6731 36.3442 11.4695 37.0332 10.2202 37.1743ZM10.3364 33.3809V32.2603H12.5112V33.3809H10.3364Z" fill="#113287"/>
<path d="M19.5818 30.4258C17.9341 30.4258 16.9671 30.8782 16.9671 31.6958C16.9671 32.5342 17.9341 32.9866 19.5818 32.9907C21.2212 32.9866 22.1841 32.5342 22.1883 31.6958C22.1841 30.8782 21.2212 30.4258 19.5818 30.4258ZM16.22 34.02H22.9437V33.4888H16.22V34.02ZM17.0335 35.1572H21.4412V35.8296H17.0501V37.5894H22.3045V37.0747H17.6976V36.311H22.0804V34.6592H17.0335V35.1572ZM17.6478 31.6958C17.6395 31.2102 18.3575 30.9197 19.5818 30.9155C20.8062 30.9197 21.5201 31.2102 21.5242 31.6958C21.5201 32.2104 20.8062 32.4927 19.5818 32.4927C18.3575 32.4927 17.6395 32.2104 17.6478 31.6958Z" fill="#113287"/>
<path d="M28.5766 30.8574H25.1649V34.02H28.5766V30.8574ZM25.8041 36.2861C25.8083 37.1577 26.7462 37.6641 28.2528 37.6724C29.7594 37.6641 30.685 37.1577 30.685 36.2861C30.685 35.4229 29.7594 34.9082 28.2528 34.9082C26.7462 34.9082 25.8083 35.4229 25.8041 36.2861ZM25.8041 33.4971V31.3887H27.9457V33.4971H25.8041ZM26.4599 36.2861C26.4516 35.7549 27.1405 35.4395 28.2528 35.4395C29.3693 35.4395 30.05 35.7549 30.0541 36.2861C30.05 36.8257 29.3693 37.137 28.2528 37.1411C27.1405 37.137 26.4516 36.8257 26.4599 36.2861ZM29.9711 34.6592H30.6186V32.6836H31.7309V32.144H30.6186V30.293H29.9711V34.6592Z" fill="#113287"/>
<path d="M35.4978 30.8491H32.0861V34.1113H35.4978V30.8491ZM32.7087 35.5889H36.8923V37.689H37.5397V35.0659H32.7087V35.5889ZM32.7253 33.5801V31.3721H34.8669V33.5801H32.7253ZM36.8923 34.6675H37.5397V32.7666H38.6521V32.2188H37.5397V30.293H36.8923V34.6675Z" fill="#113287"/>
<path d="M45.0171 30.293H44.3862V37.6724H45.0171V30.293ZM38.7832 33.4805C38.7874 35.0493 39.4099 36.0496 40.3687 36.0454C41.2776 36.0496 41.896 35.1489 41.9583 33.7129H42.9087V37.2988H43.5312V30.4507H42.9087V33.1733H41.9541C41.8711 31.783 41.2651 30.9197 40.3687 30.9155C39.4099 30.9197 38.7874 31.9116 38.7832 33.4805ZM39.3975 33.4805C39.3892 32.281 39.771 31.5298 40.3687 31.5298C40.9705 31.5298 41.3523 32.281 41.3481 33.4805C41.3523 34.6758 40.9705 35.4312 40.3687 35.4229C39.771 35.4312 39.3892 34.6758 39.3975 33.4805Z" fill="#113287"/>
<path d="M53.4391 30.293H52.7833V32.2188H51.2975V32.7583H52.7833V34.6924H53.4391V30.293ZM47.3546 34.103L47.6949 34.626C48.5748 34.2898 49.2596 33.6008 49.5751 32.7375C49.8946 33.4971 50.5379 34.1196 51.3639 34.4185L51.7042 33.8955C50.6251 33.5261 49.8863 32.6089 49.8863 31.646V31.3804H51.5382V30.8325H47.5621V31.3804H49.2306V31.6543C49.2306 32.7085 48.4503 33.7087 47.3546 34.103ZM48.5167 36.2944C48.5126 37.166 49.4547 37.6641 50.9903 37.6724C52.5218 37.6641 53.464 37.166 53.464 36.2944C53.464 35.427 52.5218 34.9207 50.9903 34.9248C49.4547 34.9207 48.5126 35.427 48.5167 36.2944ZM49.1642 36.2944C49.16 35.7549 49.8573 35.4312 50.9903 35.4312C52.1192 35.4312 52.8165 35.7549 52.8165 36.2944C52.8165 36.8298 52.1192 37.1536 50.9903 37.1494C49.8573 37.1536 49.16 36.8298 49.1642 36.2944Z" fill="#113287"/>
<path d="M60.0033 30.3013H59.3476V35.2485H60.0033V33.082H61.1073V32.5342H60.0033V30.3013ZM54.2094 34.4932L54.2841 35.0244C55.5832 35.0286 57.3471 35.0161 58.9491 34.7339L58.891 34.2607C58.2436 34.3562 57.5463 34.4143 56.8573 34.4475V33.9287C57.7123 33.8457 58.2519 33.4514 58.2602 32.8413C58.2519 32.1689 57.5712 31.7539 56.5253 31.7539C55.4877 31.7539 54.7946 32.1689 54.7987 32.8413C54.7946 33.4556 55.3507 33.8499 56.2099 33.9287V34.4724C55.4877 34.4932 54.7987 34.4932 54.2094 34.4932ZM54.392 31.4717H58.6669V30.9736H56.8573V30.2349H56.2099V30.9736H54.392V31.4717ZM55.1142 36.1367H59.3476V37.6724H60.0033V35.6138H55.1142V36.1367ZM55.4213 32.8413C55.4171 32.4512 55.8446 32.2104 56.5253 32.2188C57.206 32.2104 57.6376 32.4512 57.6376 32.8413C57.6376 33.2273 57.206 33.4888 56.5253 33.4805C55.8446 33.4888 55.4171 33.2273 55.4213 32.8413Z" fill="#113287"/>
<path d="M67.2482 30.293H66.5925V37.6724H67.2482V30.293ZM61.3298 32.0278H65.7956V31.4966H63.8864V30.3677H63.2307V31.4966H61.3298V32.0278ZM61.7448 34.3271C61.7407 35.3274 62.5085 36.0205 63.5793 36.0205C64.6376 36.0205 65.4096 35.3274 65.4055 34.3271C65.4096 33.3311 64.6376 32.6338 63.5793 32.6338C62.5085 32.6338 61.7407 33.3311 61.7448 34.3271ZM62.3591 34.3271C62.3632 33.6589 62.8737 33.1775 63.5793 33.1816C64.2766 33.1775 64.7871 33.6589 64.7829 34.3271C64.7871 34.9995 64.2766 35.4727 63.5793 35.4644C62.8737 35.4727 62.3632 34.9995 62.3591 34.3271Z" fill="#113287"/>
<path d="M76.5501 36.1782H73.4705V34.377H75.7117V30.9155H70.5901V34.377H72.8313V36.1782H69.7933V36.7261H76.5501V36.1782ZM71.2293 33.854V31.4385H75.0809V33.854H71.2293Z" fill="#113287"/>
<path d="M82.7989 30.293H82.1432V37.689H82.7989V30.293ZM76.9884 33.439C76.9925 35.012 77.7728 36.0081 78.8727 36.0039C79.9684 36.0081 80.7611 35.012 80.7569 33.439C80.7611 31.8701 79.9684 30.8699 78.8727 30.8657C77.7728 30.8699 76.9925 31.8701 76.9884 33.439ZM77.6192 33.439C77.6192 32.2395 78.1339 31.4509 78.8727 31.4468C79.6156 31.4509 80.1261 32.2395 80.1261 33.439C80.1261 34.6384 79.6156 35.427 78.8727 35.4229C78.1339 35.427 77.6192 34.6384 77.6192 33.439Z" fill="#113287"/>
<path d="M89.9525 30.293H89.33V37.6724H89.9525V30.293ZM83.6439 35.6055L84.0258 36.0786C85.0551 35.4727 85.7689 34.7131 86.213 33.854H87.7777V37.2988H88.4003V30.4922H87.7777V33.3228H86.4538C86.7069 32.667 86.8231 31.9656 86.8231 31.2393H83.9594V31.7788H86.1757C86.0512 33.3228 85.246 34.655 83.6439 35.6055Z" fill="#113287"/>
<path d="M97.9761 30.293H97.3286V37.6724H97.9761V33.8789H99.2129V33.3394H97.9761V30.293ZM92.2236 32.0195H96.6147V31.48H94.772V30.3843H94.1245V31.48H92.2236V32.0195ZM92.647 34.3271C92.6428 35.3274 93.4065 36.0205 94.4565 36.0205C95.4983 36.0205 96.2578 35.3274 96.2661 34.3271C96.2578 33.3311 95.4983 32.6338 94.4565 32.6338C93.4065 32.6338 92.6428 33.3311 92.647 34.3271ZM93.2695 34.3271C93.2654 33.6589 93.7676 33.1775 94.4565 33.1816C95.1372 33.1775 95.6353 33.6589 95.6436 34.3271C95.6353 34.9995 95.1372 35.4727 94.4565 35.4644C93.7676 35.4727 93.2654 34.9995 93.2695 34.3271Z" fill="#113287"/>
<path d="M105.155 32.5342H100.747V30.5669H100.099V33.0571H105.155V32.5342ZM99.178 34.5928H105.935V34.0615H99.178V34.5928ZM100.058 37.4897H105.196V36.9502H100.705V35.3481H100.058V37.4897Z" fill="#113287"/>
<path d="M113.784 32.5425H109.393V30.5752H108.746V33.0737H113.784V32.5425ZM107.816 34.4849H110.912V36.0122H111.559V34.4849H114.548V33.9453H107.816V34.4849ZM108.679 37.5146H113.834V36.9668H109.327V35.3564H108.679V37.5146Z" fill="#113287"/>
<path d="M9.75537 46.709C9.76367 48.2778 10.187 49.5811 10.9507 50.6934H11.5815C11.0212 49.8674 10.4983 48.1907 10.4941 46.709C10.4983 45.2314 11.0212 43.5505 11.5815 42.7329H10.9507C10.187 43.8411 9.76367 45.1443 9.75537 46.709Z" fill="#113287"/>
<path d="M17.8885 42.293H17.2327V44.2188H15.7469V44.7583H17.2327V46.6924H17.8885V42.293ZM11.804 46.103L12.1443 46.626C13.0242 46.2898 13.709 45.6008 14.0245 44.7375C14.344 45.4971 14.9874 46.1196 15.8133 46.4185L16.1536 45.8955C15.0745 45.5261 14.3357 44.6089 14.3357 43.646V43.3804H15.9876V42.8325H12.0115V43.3804H13.68V43.6543C13.68 44.7085 12.8997 45.7087 11.804 46.103ZM12.9661 48.2944C12.962 49.166 13.9041 49.6641 15.4397 49.6724C16.9712 49.6641 17.9134 49.166 17.9134 48.2944C17.9134 47.427 16.9712 46.9207 15.4397 46.9248C13.9041 46.9207 12.962 47.427 12.9661 48.2944ZM13.6136 48.2944C13.6094 47.7549 14.3067 47.4312 15.4397 47.4312C16.5687 47.4312 17.2659 47.7549 17.2659 48.2944C17.2659 48.8298 16.5687 49.1536 15.4397 49.1494C14.3067 49.1536 13.6094 48.8298 13.6136 48.2944Z" fill="#113287"/>
<path d="M21.315 44.2769V42.9321H20.6676V44.2769C20.6593 45.6755 19.7503 47.0867 18.6505 47.5889L19.0655 48.1367C19.9288 47.7009 20.6551 46.7671 20.9955 45.6548C21.3482 46.7048 22.0746 47.5806 22.9171 47.9873L23.3155 47.4727C22.2281 46.9788 21.3109 45.6257 21.315 44.2769ZM24.1207 49.689H24.7765V42.293H24.1207V49.689Z" fill="#113287"/>
<path d="M28.0287 42.8325C26.8625 42.8367 26.0324 43.5422 26.0365 44.5674C26.0324 45.5967 26.8625 46.2981 28.0287 46.3022C29.1867 46.2981 30.0084 45.5967 30.0126 44.5674C30.0084 43.5422 29.1867 42.8367 28.0287 42.8325ZM25.6547 47.5059L25.746 48.062C27.0741 48.062 28.8878 48.0537 30.5771 47.7383L30.5272 47.2568C28.8961 47.4976 27.016 47.51 25.6547 47.5059ZM26.6757 44.5674C26.6715 43.8826 27.2401 43.4053 28.0287 43.4053C28.809 43.4053 29.3776 43.8826 29.3734 44.5674C29.3776 45.2563 28.809 45.7295 28.0287 45.7295C27.2401 45.7295 26.6715 45.2563 26.6757 44.5674ZM31.017 49.689H31.6645V42.293H31.017V49.689Z" fill="#113287"/>
<path d="M40.1113 42.6001H35.0977V43.1313H39.4639C39.468 43.6086 39.4597 44.1814 39.302 44.9741H34.2427V45.4888H37.2808V46.4517H35.0479V46.9746H39.4888V47.7549H35.0562V49.5894H40.3271V49.0581H35.7119V48.228H40.1362V46.4517H37.9199V45.4888H40.9995V44.9741H39.9578C40.1113 44.1855 40.1113 43.5505 40.1113 43.0732V42.6001Z" fill="#113287"/>
<path d="M43.7205 43.4385V43.2227H45.3724V42.6831H41.3963V43.2227H43.0647V43.4302C43.0647 44.3848 42.272 45.3062 41.1971 45.6797L41.5208 46.1943C42.3841 45.8955 43.0689 45.248 43.3968 44.4553C43.7164 45.1733 44.368 45.7461 45.2063 46.02L45.5301 45.5054C44.4634 45.165 43.7164 44.3142 43.7205 43.4385ZM42.492 47.0078H46.6258V47.7466H42.5086V49.5894H47.5555V49.0664H43.1561V48.2446H47.2732V46.4766H42.492V47.0078ZM45.1399 44.4844H46.6258V46.1113H47.2732V42.293H46.6258V43.9448H45.1399V44.4844Z" fill="#113287"/>
<path d="M51.588 42.7495H48.3839V43.2725H50.9405V44.3184H48.4005V46.4932H48.9234C50.4176 46.4932 51.1688 46.4683 52.086 46.3188L52.0196 45.7793C51.1522 45.937 50.4342 45.9661 49.048 45.9619V44.8164H51.588V42.7495ZM49.2306 47.7632H53.547V49.689H54.2027V47.2319H49.2306V47.7632ZM52.0777 45.4639H53.547V46.8335H54.2027V42.3013H53.547V43.397H52.0777V43.9282H53.547V44.9243H52.0777V45.4639Z" fill="#113287"/>
<path d="M58.3681 42.4258C56.7204 42.4258 55.7533 42.8782 55.7533 43.6958C55.7533 44.5342 56.7204 44.9866 58.3681 44.9907C60.0075 44.9866 60.9704 44.5342 60.9745 43.6958C60.9704 42.8782 60.0075 42.4258 58.3681 42.4258ZM55.0062 46.02H61.7299V45.4888H55.0062V46.02ZM55.8197 47.1572H60.2274V47.8296H55.8363V49.5894H61.0907V49.0747H56.4838V48.311H60.8666V46.6592H55.8197V47.1572ZM56.434 43.6958C56.4257 43.2102 57.1437 42.9197 58.3681 42.9155C59.5924 42.9197 60.3063 43.2102 60.3104 43.6958C60.3063 44.2104 59.5924 44.4927 58.3681 44.4927C57.1437 44.4927 56.4257 44.2104 56.434 43.6958Z" fill="#113287"/>
<path d="M65.9932 49.083C67.259 49.0955 68.085 48.1907 68.085 47.0576C68.085 45.8955 67.1926 45.0654 66.126 45.0654C65.4785 45.0654 64.9265 45.3601 64.582 45.8623H64.5073C64.5032 44.4138 65.0967 43.5713 66.0845 43.5713C66.7527 43.5713 67.1594 43.9697 67.2964 44.501H68.0352C67.8816 43.5588 67.1428 42.9072 66.0845 42.9072C64.6733 42.9072 63.8018 44.0984 63.8018 46.2275C63.8018 48.4521 64.9514 49.0706 65.9932 49.083ZM64.6069 47.0742C64.6152 46.3645 65.2212 45.7253 66.0098 45.7212C66.7942 45.7253 67.3586 46.3271 67.3628 47.0659C67.3586 47.813 66.7693 48.4231 65.9932 48.4272C65.188 48.4231 64.6111 47.7798 64.6069 47.0742Z" fill="#113287"/>
<path d="M70.6565 49.083C71.9888 49.083 72.7566 47.9624 72.7566 45.9951C72.7566 44.0444 71.9764 42.9072 70.6565 42.9072C69.3326 42.9072 68.5523 44.0444 68.5564 45.9951C68.5523 47.9624 69.3243 49.083 70.6565 49.083ZM69.2786 45.9951C69.2828 44.4387 69.7933 43.5588 70.6565 43.5547C71.5198 43.5588 72.0303 44.4387 72.0262 45.9951C72.0303 47.5515 71.524 48.4189 70.6565 48.4189C69.785 48.4189 69.2828 47.5515 69.2786 45.9951Z" fill="#113287"/>
<path d="M75.295 49C77.1253 49 78.1588 47.8628 78.1588 45.9868C78.1588 44.115 77.1253 42.9902 75.3697 42.9902H73.4273V49H75.295ZM74.1744 48.3359V43.6543H75.3199C76.7186 43.6543 77.4283 44.5342 77.4283 45.9868C77.4283 47.4436 76.7186 48.3359 75.2452 48.3359H74.1744Z" fill="#113287"/>
<path d="M85.2211 48.2114H82.1415V46.8169H84.5404V46.2773H79.9584V45.0737H84.3661V42.8408H79.2943V43.3804H83.727V44.5425H79.3109V46.8169H81.5023V48.2114H78.4643V48.7593H85.2211V48.2114Z" fill="#113287"/>
<path d="M92.8628 42.293H92.207V47.6968H92.8628V45.0903H93.9751V44.5425H92.8628V42.293ZM87.1021 46.3188L87.3843 46.8418C89.5134 46.1777 90.8706 44.7666 90.8706 42.8657H87.4092V43.4136H90.1609C90.0239 44.7168 88.8743 45.7668 87.1021 46.3188ZM88.2393 49.5146H93.2031V48.9668H88.8867V47.1489H88.2393V49.5146Z" fill="#113287"/>
<path d="M97.742 43.3389V43.2891H100.099V42.7578H94.6458V43.2891H97.0115V43.3389C97.0074 44.3267 95.6958 45.165 94.4134 45.356L94.6707 45.8706C95.8038 45.6755 96.9285 45.0613 97.3768 44.1731C97.825 45.0613 98.9498 45.6755 100.099 45.8706L100.34 45.356C99.0535 45.165 97.7378 44.3267 97.742 43.3389ZM94.0149 47.041H97.0447V49.6724H97.6839V47.041H100.739V46.5015H94.0149V47.041Z" fill="#113287"/>
<path d="M102.779 46.709C102.771 45.1443 102.347 43.8411 101.584 42.7329H100.953C101.513 43.5505 102.036 45.2314 102.04 46.709C102.036 48.1907 101.513 49.8674 100.953 50.6934H101.584C102.347 49.5811 102.771 48.2778 102.779 46.709Z" fill="#113287"/>
<path fill-rule="evenodd" clip-rule="evenodd" d="M353 23H189V22.25H353V23Z" fill="#113287"/>
<path d="M196.61 8.54883H190.526V9.42773H195.526C195.526 10.1455 195.512 10.9316 195.307 11.9961H189.53V12.8848H197.597V11.9961H196.41C196.615 10.8779 196.615 10.0234 196.61 9.28125V8.54883ZM190.575 16.6836H196.864V15.8047H191.649V13.7246H190.575V16.6836Z" fill="#113287"/>
<path d="M203.886 10.1602V8.75391H202.782V10.1602C202.777 11.8643 201.918 13.5488 200.448 14.1836L201.112 15.0918C202.182 14.5889 202.943 13.5732 203.349 12.333C203.759 13.4854 204.501 14.418 205.517 14.8867L206.161 14.0176C204.73 13.4023 203.876 11.7812 203.886 10.1602ZM206.796 16.8789H207.89V8.04102H206.796V16.8789Z" fill="#113287"/>
<path d="M195.267 32.5425H190.876V30.5752H190.229V33.0737H195.267V32.5425ZM189.299 34.4849H192.395V36.0122H193.042V34.4849H196.031V33.9453H189.299V34.4849ZM190.162 37.5146H195.317V36.9668H190.81V35.3564H190.162V37.5146Z" fill="#113287"/>
<path d="M198.636 30.8325C197.469 30.8367 196.639 31.5422 196.643 32.5674C196.639 33.5967 197.469 34.2981 198.636 34.3022C199.794 34.2981 200.615 33.5967 200.619 32.5674C200.615 31.5422 199.794 30.8367 198.636 30.8325ZM196.262 35.5059L196.353 36.062C197.681 36.062 199.495 36.0537 201.184 35.7383L201.134 35.2568C199.503 35.4976 197.623 35.51 196.262 35.5059ZM197.283 32.5674C197.278 31.8826 197.847 31.4053 198.636 31.4053C199.416 31.4053 199.984 31.8826 199.98 32.5674C199.984 33.2563 199.416 33.7295 198.636 33.7295C197.847 33.7295 197.278 33.2563 197.283 32.5674ZM201.624 37.689H202.271V30.293H201.624V37.689Z" fill="#113287"/>
<path d="M210.718 30.6001H205.704V31.1313H210.071C210.075 31.6086 210.067 32.1814 209.909 32.9741H204.85V33.4888H207.888V34.4517H205.655V34.9746H210.096V35.7549H205.663V37.5894H210.934V37.0581H206.319V36.228H210.743V34.4517H208.527V33.4888H211.606V32.9741H210.565C210.718 32.1855 210.718 31.5505 210.718 31.0732V30.6001Z" fill="#113287"/>
<path d="M214.327 31.4385V31.2227H215.979V30.6831H212.003V31.2227H213.672V31.4302C213.672 32.3848 212.879 33.3062 211.804 33.6797L212.128 34.1943C212.991 33.8955 213.676 33.248 214.004 32.4553C214.323 33.1733 214.975 33.7461 215.813 34.02L216.137 33.5054C215.07 33.165 214.323 32.3142 214.327 31.4385ZM213.099 35.0078H217.233V35.7466H213.115V37.5894H218.162V37.0664H213.763V36.2446H217.88V34.4766H213.099V35.0078ZM215.747 32.4844H217.233V34.1113H217.88V30.293H217.233V31.9448H215.747V32.4844Z" fill="#113287"/>
<path d="M222.195 30.7495H218.991V31.2725H221.547V32.3184H219.007V34.4932H219.53C221.024 34.4932 221.776 34.4683 222.693 34.3188L222.626 33.7793C221.759 33.937 221.041 33.9661 219.655 33.9619V32.8164H222.195V30.7495ZM219.837 35.7632H224.154V37.689H224.81V35.2319H219.837V35.7632ZM222.685 33.4639H224.154V34.8335H224.81V30.3013H224.154V31.397H222.685V31.9282H224.154V32.9243H222.685V33.4639Z" fill="#113287"/>
<path d="M231.698 30.293H231.042V37.689H231.698V30.293ZM225.887 33.439C225.891 35.012 226.671 36.0081 227.771 36.0039C228.867 36.0081 229.66 35.012 229.656 33.439C229.66 31.8701 228.867 30.8699 227.771 30.8657C226.671 30.8699 225.891 31.8701 225.887 33.439ZM226.518 33.439C226.518 32.2395 227.033 31.4509 227.771 31.4468C228.514 31.4509 229.025 32.2395 229.025 33.439C229.025 34.6384 228.514 35.427 227.771 35.4229C227.033 35.427 226.518 34.6384 226.518 33.439Z" fill="#113287"/>
<path d="M236.6 37.083C237.866 37.0955 238.692 36.1907 238.692 35.0576C238.692 33.8955 237.799 33.0654 236.733 33.0654C236.085 33.0654 235.533 33.3601 235.189 33.8623H235.114C235.11 32.4138 235.704 31.5713 236.691 31.5713C237.36 31.5713 237.766 31.9697 237.903 32.501H238.642C238.488 31.5588 237.75 30.9072 236.691 30.9072C235.28 30.9072 234.409 32.0984 234.409 34.2275C234.409 36.4521 235.558 37.0706 236.6 37.083ZM235.214 35.0742C235.222 34.3645 235.828 33.7253 236.617 33.7212C237.401 33.7253 237.965 34.3271 237.97 35.0659C237.965 35.813 237.376 36.4231 236.6 36.4272C235.795 36.4231 235.218 35.7798 235.214 35.0742Z" fill="#113287"/>
<path d="M241.263 37.083C242.596 37.083 243.363 35.9624 243.363 33.9951C243.363 32.0444 242.583 30.9072 241.263 30.9072C239.939 30.9072 239.159 32.0444 239.163 33.9951C239.159 35.9624 239.931 37.083 241.263 37.083ZM239.885 33.9951C239.89 32.4387 240.4 31.5588 241.263 31.5547C242.127 31.5588 242.637 32.4387 242.633 33.9951C242.637 35.5515 242.131 36.4189 241.263 36.4189C240.392 36.4189 239.89 35.5515 239.885 33.9951Z" fill="#113287"/>
<path d="M245.902 37C247.732 37 248.766 35.8628 248.766 33.9868C248.766 32.115 247.732 30.9902 245.977 30.9902H244.034V37H245.902ZM244.781 36.3359V31.6543H245.927C247.325 31.6543 248.035 32.5342 248.035 33.9868C248.035 35.4436 247.325 36.3359 245.852 36.3359H244.781Z" fill="#113287"/>
<path d="M257.536 36.1865H254.457V34.5928H256.706V30.8159H256.067V32.1523H252.232V30.8159H251.576V34.5928H253.817V36.1865H250.779V36.7261H257.536V36.1865ZM252.232 34.0615V32.6836H256.067V34.0615H252.232Z" fill="#113287"/>
<path d="M263.412 30.293H262.764V37.689H263.412V33.7627H264.648V33.2148H263.412V30.293ZM258.024 35.8379H258.605C260.008 35.8379 260.975 35.7964 262.133 35.5889L262.05 35.0244C260.95 35.2278 260.008 35.2859 258.672 35.29V31.5547H261.469V31.0151H258.024V35.8379Z" fill="#113287"/>
<path d="M270.082 31.0649H266.737V31.6045H269.439C269.406 32.061 269.331 32.4968 269.194 32.9119L266.363 33.0986L266.479 33.6631L268.995 33.4265C268.534 34.4226 267.696 35.2734 266.338 35.9541L266.712 36.4521C269.318 35.1448 270.074 33.1941 270.082 31.0649ZM270.057 33.8042H271.792V37.6724H272.439V30.293H271.792V33.2646H270.057V33.8042Z" fill="#113287"/>
<path d="M279.336 30.293H278.697V34.1279H279.336V30.293ZM273.359 33.6216L273.666 34.1362C274.567 33.8333 275.273 33.1899 275.592 32.364C275.92 33.1194 276.613 33.7046 277.485 33.9785L277.808 33.4722C276.696 33.1443 275.912 32.2976 275.908 31.3389V31.2559H277.609V30.7163H273.525V31.2559H275.252V31.3389C275.248 32.3516 274.459 33.2563 273.359 33.6216ZM274.546 34.9995H278.697V35.7549H274.563V37.5894H279.61V37.0664H275.202V36.2446H279.344V34.4849H274.546V34.9995Z" fill="#113287"/>
<path d="M287.998 30.3013H287.343V31.6792H285.62C285.683 31.4177 285.716 31.1396 285.716 30.8491H282.354V31.397H285.006C284.877 32.6753 283.761 33.6755 281.98 34.2026L282.254 34.7173C283.836 34.2483 284.973 33.3892 285.458 32.2021H287.343V33.1982H285.384V33.7378H287.343V34.7339H287.998V30.3013ZM283.118 36.2197C283.113 37.1038 284.072 37.6392 285.583 37.6392C287.077 37.6392 288.04 37.1038 288.04 36.2197C288.04 35.3398 287.077 34.8086 285.583 34.8086C284.072 34.8086 283.113 35.3398 283.118 36.2197ZM283.757 36.2197C283.761 35.6636 284.471 35.3274 285.583 35.3315C286.679 35.3274 287.388 35.6636 287.392 36.2197C287.388 36.7759 286.679 37.1121 285.583 37.1079C284.471 37.1121 283.761 36.7759 283.757 36.2197Z" fill="#113287"/>
<path d="M295.55 34.5264H288.794V35.0742H291.832V37.6724H292.471V35.0742H295.55V34.5264ZM289.557 32.2188C289.561 33.2024 290.603 33.825 292.155 33.8208C293.704 33.825 294.754 33.2024 294.754 32.2188C294.754 31.2185 293.704 30.5959 292.155 30.5918C290.603 30.5959 289.561 31.2185 289.557 32.2188ZM290.23 32.2188C290.221 31.5505 291.006 31.123 292.155 31.123C293.305 31.123 294.085 31.5505 294.09 32.2188C294.085 32.8745 293.305 33.2979 292.155 33.2979C291.006 33.2979 290.221 32.8745 290.23 32.2188Z" fill="#113287"/>
<path d="M301.808 30.293H301.152V37.689H301.808V30.293ZM295.997 33.439C296.001 35.012 296.781 36.0081 297.881 36.0039C298.977 36.0081 299.77 35.012 299.766 33.439C299.77 31.8701 298.977 30.8699 297.881 30.8657C296.781 30.8699 296.001 31.8701 295.997 33.439ZM296.628 33.439C296.628 32.2395 297.143 31.4509 297.881 31.4468C298.624 31.4509 299.135 32.2395 299.135 33.439C299.135 34.6384 298.624 35.427 297.881 35.4229C297.143 35.427 296.628 34.6384 296.628 33.439Z" fill="#113287"/>
<path d="M306.305 31.0317H302.943V35.8047H306.305V34.6426H308.115V37.689H308.762V30.293H308.115V32.0693H306.305V31.0317ZM303.591 35.2817V31.5464H305.674V35.2817H303.591ZM306.305 34.103V32.6089H308.115V34.103H306.305Z" fill="#113287"/>
<path d="M310.777 36.4438H309.972L309.516 38.7017H310.13L310.777 36.4438Z" fill="#113287"/>
<path d="M193.034 42.9404H189.647V46.3604H193.034V44.8911H194.761V47.6885H195.417V42.3013H194.761V44.3599H193.034V42.9404ZM190.295 45.8374V43.48H192.395V45.8374H190.295ZM190.677 49.5146H195.624V48.9668H191.333V47.1904H190.677V49.5146Z" fill="#113287"/>
<path d="M203.797 42.6582H198.733V43.1812H203.15C203.15 43.7207 203.15 44.3267 202.959 45.1816L203.598 45.2563C203.793 44.3806 203.793 43.7332 203.797 43.1729V42.6582ZM197.937 46.2856H204.652V45.7627H201.357V44.2686H200.717V45.7627H197.937V46.2856ZM198.418 49.1328L198.659 49.6392C199.784 49.4565 200.813 48.9253 201.261 48.1201C201.709 48.9253 202.739 49.4565 203.863 49.6392L204.112 49.1328C202.768 48.9336 201.593 48.1948 201.589 47.2153V46.875H200.933V47.2153C200.929 48.1948 199.754 48.9336 198.418 49.1328Z" fill="#113287"/>
<path d="M210.934 42.293H210.278V49.689H210.934V42.293ZM205.123 45.439C205.128 47.012 205.908 48.0081 207.008 48.0039C208.103 48.0081 208.896 47.012 208.892 45.439C208.896 43.8701 208.103 42.8699 207.008 42.8657C205.908 42.8699 205.128 43.8701 205.123 45.439ZM205.754 45.439C205.754 44.2395 206.269 43.4509 207.008 43.4468C207.751 43.4509 208.261 44.2395 208.261 45.439C208.261 46.6384 207.751 47.427 207.008 47.4229C206.269 47.427 205.754 46.6384 205.754 45.439Z" fill="#113287"/>
<path d="M215.978 43.4634V43.2476H217.621V42.7163H213.645V43.2476H215.322V43.48C215.318 44.4429 214.537 45.3062 213.421 45.6548L213.745 46.1611C214.645 45.8789 215.343 45.2688 215.662 44.4761C215.99 45.1733 216.658 45.717 217.513 45.9702L217.82 45.4639C216.733 45.1443 215.969 44.3433 215.978 43.4634ZM214.542 46.9663H218.601V47.73H214.558V49.606H219.522V49.0913H215.197V48.2114H219.248V46.4434H214.542V46.9663ZM218.601 46.103H219.248V44.4512H220.36V43.9116H219.248V42.293H218.601V46.103Z" fill="#113287"/>
<path d="M228.865 48.1865H225.786V46.5928H228.035V42.8159H227.396V44.1523H223.561V42.8159H222.905V46.5928H225.147V48.1865H222.108V48.7261H228.865V48.1865ZM223.561 46.0615V44.6836H227.396V46.0615H223.561Z" fill="#113287"/>
<path d="M235.114 42.293H234.458V49.689H235.114V42.293ZM229.304 45.439C229.308 47.012 230.088 48.0081 231.188 48.0039C232.284 48.0081 233.076 47.012 233.072 45.439C233.076 43.8701 232.284 42.8699 231.188 42.8657C230.088 42.8699 229.308 43.8701 229.304 45.439ZM229.934 45.439C229.934 44.2395 230.449 43.4509 231.188 43.4468C231.931 43.4509 232.441 44.2395 232.441 45.439C232.441 46.6384 231.931 47.427 231.188 47.4229C230.449 47.427 229.934 46.6384 229.934 45.439Z" fill="#113287"/>
<path d="M238.591 44.5591V43.5962H240.35V43.0566H236.192V43.5962H237.935V44.5591C237.931 45.8374 237.009 47.2319 235.951 47.7383L236.341 48.2529C237.184 47.8296 237.931 46.8916 238.275 45.8083C238.62 46.8293 239.362 47.6802 240.226 48.0703L240.591 47.5557C239.504 47.0867 238.595 45.8125 238.591 44.5591ZM241.38 49.6724H242.035V42.293H241.38V49.6724Z" fill="#113287"/>
<path d="M246.639 42.7163C245.539 42.7205 244.717 43.4219 244.721 44.418C244.717 45.4265 245.539 46.1238 246.639 46.1279C247.743 46.1238 248.556 45.4265 248.556 44.418C248.556 43.4219 247.743 42.7205 246.639 42.7163ZM245.361 44.418C245.356 43.7539 245.913 43.2642 246.639 43.2642C247.369 43.2642 247.921 43.7539 247.917 44.418C247.921 45.0945 247.369 45.5884 246.639 45.5884C245.913 45.5884 245.356 45.0945 245.361 44.418ZM245.369 49.4731H245.718C246.199 49.4773 246.9 49.4441 247.618 49.2075L247.519 48.6846C246.996 48.8589 246.427 48.9211 246 48.9377V46.7837H245.369V49.4731ZM247.361 47.3232H251.088V46.8169H249.553V46.1611H248.913V46.8169H247.361V47.3232ZM247.851 48.6182C247.847 49.2573 248.407 49.6558 249.221 49.6558C250.03 49.6558 250.598 49.2573 250.607 48.6182C250.598 47.979 250.03 47.5723 249.221 47.5723C248.407 47.5723 247.847 47.979 247.851 48.6182ZM248.432 48.6182C248.432 48.2778 248.76 48.0496 249.221 48.0454C249.681 48.0496 250.009 48.2778 250.009 48.6182C250.009 48.9668 249.681 49.1868 249.221 49.1909C248.76 49.1868 248.432 48.9668 248.432 48.6182ZM249.702 45.9868H250.349V44.501H251.462V43.9614H250.349V42.293H249.702V45.9868Z" fill="#113287"/>
<path d="M257.47 44.5342H253.062V42.5669H252.415V45.0571H257.47V44.5342ZM251.493 46.5928H258.25V46.0615H251.493V46.5928ZM252.373 49.4897H257.511V48.9502H253.021V47.3481H252.373V49.4897Z" fill="#113287"/>
<path d="M266.099 44.5425H261.708V42.5752H261.061V45.0737H266.099V44.5425ZM260.131 46.4849H263.227V48.0122H263.875V46.4849H266.863V45.9453H260.131V46.4849ZM260.994 49.5146H266.149V48.9668H261.642V47.3564H260.994V49.5146Z" fill="#113287"/>
<path fill-rule="evenodd" clip-rule="evenodd" d="M533 23H369V22.25H533V23Z" fill="#113287"/>
<path d="M376.933 8.05078H375.839V13.1973H374.11V13.959H375.839V14.7305H376.933V8.05078ZM369.491 12.0156L369.628 12.8848C370.321 12.8848 371.107 12.8799 371.933 12.8457V14.4863H373.017V12.7871C373.764 12.7334 374.516 12.6553 375.243 12.5332L375.185 11.752C373.31 11.9912 371.117 12.0059 369.491 12.0156ZM370.165 9.93555C370.165 10.8828 371.063 11.4834 372.372 11.4883C373.656 11.4834 374.56 10.8828 374.569 9.93555C374.56 9.00293 373.656 8.36816 372.372 8.37305C371.063 8.36816 370.165 9.00293 370.165 9.93555ZM370.663 16.6934H377.138V15.8145H371.747V14.0859H370.663V16.6934ZM371.19 9.93555C371.19 9.45703 371.664 9.16895 372.372 9.17383C373.046 9.16895 373.529 9.45703 373.534 9.93555C373.529 10.4141 373.046 10.6924 372.372 10.6973C371.664 10.6924 371.19 10.4141 371.19 9.93555Z" fill="#113287"/>
<path d="M383.886 10.1602V8.75391H382.782V10.1602C382.777 11.8643 381.918 13.5488 380.448 14.1836L381.112 15.0918C382.182 14.5889 382.943 13.5732 383.349 12.333C383.759 13.4854 384.501 14.418 385.517 14.8867L386.161 14.0176C384.73 13.4023 383.876 11.7812 383.886 10.1602ZM386.796 16.8789H387.89V8.04102H386.796V16.8789Z" fill="#113287"/>
<path d="M375.267 32.5425H370.876V30.5752H370.229V33.0737H375.267V32.5425ZM369.299 34.4849H372.395V36.0122H373.042V34.4849H376.031V33.9453H369.299V34.4849ZM370.162 37.5146H375.317V36.9668H370.81V35.3564H370.162V37.5146Z" fill="#113287"/>
<path d="M378.636 30.8325C377.469 30.8367 376.639 31.5422 376.643 32.5674C376.639 33.5967 377.469 34.2981 378.636 34.3022C379.794 34.2981 380.615 33.5967 380.619 32.5674C380.615 31.5422 379.794 30.8367 378.636 30.8325ZM376.262 35.5059L376.353 36.062C377.681 36.062 379.495 36.0537 381.184 35.7383L381.134 35.2568C379.503 35.4976 377.623 35.51 376.262 35.5059ZM377.283 32.5674C377.278 31.8826 377.847 31.4053 378.636 31.4053C379.416 31.4053 379.984 31.8826 379.98 32.5674C379.984 33.2563 379.416 33.7295 378.636 33.7295C377.847 33.7295 377.278 33.2563 377.283 32.5674ZM381.624 37.689H382.271V30.293H381.624V37.689Z" fill="#113287"/>
<path d="M390.718 30.6001H385.704V31.1313H390.071C390.075 31.6086 390.067 32.1814 389.909 32.9741H384.85V33.4888H387.888V34.4517H385.655V34.9746H390.096V35.7549H385.663V37.5894H390.934V37.0581H386.319V36.228H390.743V34.4517H388.527V33.4888H391.606V32.9741H390.565C390.718 32.1855 390.718 31.5505 390.718 31.0732V30.6001Z" fill="#113287"/>
<path d="M394.327 31.4385V31.2227H395.979V30.6831H392.003V31.2227H393.672V31.4302C393.672 32.3848 392.879 33.3062 391.804 33.6797L392.128 34.1943C392.991 33.8955 393.676 33.248 394.004 32.4553C394.323 33.1733 394.975 33.7461 395.813 34.02L396.137 33.5054C395.07 33.165 394.323 32.3142 394.327 31.4385ZM393.099 35.0078H397.233V35.7466H393.115V37.5894H398.162V37.0664H393.763V36.2446H397.88V34.4766H393.099V35.0078ZM395.747 32.4844H397.233V34.1113H397.88V30.293H397.233V31.9448H395.747V32.4844Z" fill="#113287"/>
<path d="M402.195 30.7495H398.991V31.2725H401.547V32.3184H399.007V34.4932H399.53C401.024 34.4932 401.776 34.4683 402.693 34.3188L402.626 33.7793C401.759 33.937 401.041 33.9661 399.655 33.9619V32.8164H402.195V30.7495ZM399.837 35.7632H404.154V37.689H404.81V35.2319H399.837V35.7632ZM402.685 33.4639H404.154V34.8335H404.81V30.3013H404.154V31.397H402.685V31.9282H404.154V32.9243H402.685V33.4639Z" fill="#113287"/>
<path d="M411.698 30.293H411.042V37.689H411.698V30.293ZM405.887 33.439C405.891 35.012 406.671 36.0081 407.771 36.0039C408.867 36.0081 409.66 35.012 409.656 33.439C409.66 31.8701 408.867 30.8699 407.771 30.8657C406.671 30.8699 405.891 31.8701 405.887 33.439ZM406.518 33.439C406.518 32.2395 407.033 31.4509 407.771 31.4468C408.514 31.4509 409.025 32.2395 409.025 33.439C409.025 34.6384 408.514 35.427 407.771 35.4229C407.033 35.427 406.518 34.6384 406.518 33.439Z" fill="#113287"/>
<path d="M416.6 37.083C417.866 37.0955 418.692 36.1907 418.692 35.0576C418.692 33.8955 417.799 33.0654 416.733 33.0654C416.085 33.0654 415.533 33.3601 415.189 33.8623H415.114C415.11 32.4138 415.704 31.5713 416.691 31.5713C417.36 31.5713 417.766 31.9697 417.903 32.501H418.642C418.488 31.5588 417.75 30.9072 416.691 30.9072C415.28 30.9072 414.409 32.0984 414.409 34.2275C414.409 36.4521 415.558 37.0706 416.6 37.083ZM415.214 35.0742C415.222 34.3645 415.828 33.7253 416.617 33.7212C417.401 33.7253 417.965 34.3271 417.97 35.0659C417.965 35.813 417.376 36.4231 416.6 36.4272C415.795 36.4231 415.218 35.7798 415.214 35.0742Z" fill="#113287"/>
<path d="M421.263 37.083C422.596 37.083 423.363 35.9624 423.363 33.9951C423.363 32.0444 422.583 30.9072 421.263 30.9072C419.939 30.9072 419.159 32.0444 419.163 33.9951C419.159 35.9624 419.931 37.083 421.263 37.083ZM419.885 33.9951C419.89 32.4387 420.4 31.5588 421.263 31.5547C422.127 31.5588 422.637 32.4387 422.633 33.9951C422.637 35.5515 422.131 36.4189 421.263 36.4189C420.392 36.4189 419.89 35.5515 419.885 33.9951Z" fill="#113287"/>
<path d="M425.902 37C427.732 37 428.766 35.8628 428.766 33.9868C428.766 32.115 427.732 30.9902 425.977 30.9902H424.034V37H425.902ZM424.781 36.3359V31.6543H425.927C427.325 31.6543 428.035 32.5342 428.035 33.9868C428.035 35.4436 427.325 36.3359 425.852 36.3359H424.781Z" fill="#113287"/>
<path d="M437.536 36.1865H434.457V34.5928H436.706V30.8159H436.067V32.1523H432.232V30.8159H431.576V34.5928H433.817V36.1865H430.779V36.7261H437.536V36.1865ZM432.232 34.0615V32.6836H436.067V34.0615H432.232Z" fill="#113287"/>
<path d="M443.412 30.293H442.764V37.689H443.412V33.7627H444.648V33.2148H443.412V30.293ZM438.024 35.8379H438.605C440.008 35.8379 440.975 35.7964 442.133 35.5889L442.05 35.0244C440.95 35.2278 440.008 35.2859 438.672 35.29V31.5547H441.469V31.0151H438.024V35.8379Z" fill="#113287"/>
<path d="M448.829 31.6626V31.3472H450.489V30.8159H446.504V31.3472H448.189V31.6626C448.181 32.7209 447.409 33.6714 446.305 34.0615L446.654 34.5679C447.521 34.2524 448.198 33.6008 448.513 32.7625C448.829 33.5261 449.472 34.1279 450.314 34.4268L450.646 33.9204C449.555 33.5427 448.833 32.6462 448.829 31.6626ZM447.268 35.6636H451.452V37.6724H452.099V35.1323H447.268V35.6636ZM451.452 34.7422H452.099V32.7998H453.211V32.2437H452.099V30.293H451.452V34.7422Z" fill="#113287"/>
<path d="M455.227 30.8657C454.131 30.8699 453.363 31.8701 453.367 33.439C453.363 35.012 454.131 36.0081 455.227 36.0039C456.314 36.0081 457.086 35.012 457.095 33.439C457.086 31.8701 456.314 30.8699 455.227 30.8657ZM453.982 33.439C453.986 32.2395 454.496 31.4509 455.227 31.4468C455.966 31.4509 456.464 32.2395 456.464 33.439C456.464 34.6384 455.966 35.427 455.227 35.4229C454.496 35.427 453.986 34.6384 453.982 33.439ZM458.315 37.6724H458.962V33.8042H460.199V33.2397H458.962V30.293H458.315V37.6724Z" fill="#113287"/>
<path d="M466.257 30.293H465.618V34.1279H466.257V30.293ZM460.28 33.6216L460.588 34.1362C461.488 33.8333 462.194 33.1899 462.513 32.364C462.841 33.1194 463.534 33.7046 464.406 33.9785L464.73 33.4722C463.617 33.1443 462.833 32.2976 462.829 31.3389V31.2559H464.53V30.7163H460.446V31.2559H462.173V31.3389C462.169 32.3516 461.38 33.2563 460.28 33.6216ZM461.467 34.9995H465.618V35.7549H461.484V37.5894H466.531V37.0664H462.123V36.2446H466.265V34.4849H461.467V34.9995Z" fill="#113287"/>
<path d="M474.92 30.3013H474.264V31.6792H472.541C472.604 31.4177 472.637 31.1396 472.637 30.8491H469.275V31.397H471.927C471.799 32.6753 470.682 33.6755 468.902 34.2026L469.175 34.7173C470.757 34.2483 471.894 33.3892 472.38 32.2021H474.264V33.1982H472.305V33.7378H474.264V34.7339H474.92V30.3013ZM470.039 36.2197C470.035 37.1038 470.993 37.6392 472.504 37.6392C473.998 37.6392 474.961 37.1038 474.961 36.2197C474.961 35.3398 473.998 34.8086 472.504 34.8086C470.993 34.8086 470.035 35.3398 470.039 36.2197ZM470.678 36.2197C470.682 35.6636 471.392 35.3274 472.504 35.3315C473.6 35.3274 474.31 35.6636 474.314 36.2197C474.31 36.7759 473.6 37.1121 472.504 37.1079C471.392 37.1121 470.682 36.7759 470.678 36.2197Z" fill="#113287"/>
<path d="M482.472 34.5264H475.715V35.0742H478.753V37.6724H479.392V35.0742H482.472V34.5264ZM476.479 32.2188C476.483 33.2024 477.524 33.825 479.077 33.8208C480.625 33.825 481.675 33.2024 481.675 32.2188C481.675 31.2185 480.625 30.5959 479.077 30.5918C477.524 30.5959 476.483 31.2185 476.479 32.2188ZM477.151 32.2188C477.143 31.5505 477.927 31.123 479.077 31.123C480.226 31.123 481.007 31.5505 481.011 32.2188C481.007 32.8745 480.226 33.2979 479.077 33.2979C477.927 33.2979 477.143 32.8745 477.151 32.2188Z" fill="#113287"/>
<path d="M488.729 30.293H488.073V37.689H488.729V30.293ZM482.918 33.439C482.922 35.012 483.703 36.0081 484.803 36.0039C485.898 36.0081 486.691 35.012 486.687 33.439C486.691 31.8701 485.898 30.8699 484.803 30.8657C483.703 30.8699 482.922 31.8701 482.918 33.439ZM483.549 33.439C483.549 32.2395 484.064 31.4509 484.803 31.4468C485.545 31.4509 486.056 32.2395 486.056 33.439C486.056 34.6384 485.545 35.427 484.803 35.4229C484.064 35.427 483.549 34.6384 483.549 33.439Z" fill="#113287"/>
<path d="M493.226 31.0317H489.864V35.8047H493.226V34.6426H495.036V37.689H495.683V30.293H495.036V32.0693H493.226V31.0317ZM490.512 35.2817V31.5464H492.595V35.2817H490.512ZM493.226 34.103V32.6089H495.036V34.103H493.226Z" fill="#113287"/>
<path d="M497.699 36.4438H496.893L496.437 38.7017H497.051L497.699 36.4438Z" fill="#113287"/>
<path d="M375.01 42.293H374.362V49.6724H375.01V45.8457H376.205V45.2979H375.01V42.293ZM369.349 47.7549L369.714 48.2695C372.117 47.0825 373.096 45.1775 373.101 43.0898H369.689V43.6377H372.441C372.291 45.385 371.254 46.8086 369.349 47.7549Z" fill="#113287"/>
<path d="M382.064 42.293H381.408V49.6724H382.064V45.8872H383.184V45.3394H382.064V42.293ZM376.195 47.6304L376.718 48.0039C378.059 46.5886 378.453 44.8538 378.461 43.0981H376.428V43.646H377.843C377.76 45.1152 377.307 46.489 376.195 47.6304ZM378.312 48.1284L378.843 48.4937C380.225 46.8875 380.482 44.8496 380.487 43.0981H378.694V43.646H379.872C379.81 45.1858 379.466 46.8252 378.312 48.1284Z" fill="#113287"/>
<path d="M389.89 46.0449H383.133V46.5845H386.237V48.0952H386.893V46.5845H389.89V46.0449ZM383.897 43.9697C383.892 44.8787 384.926 45.4431 386.503 45.439C388.08 45.4431 389.101 44.8787 389.101 43.9697C389.101 43.0525 388.08 42.488 386.503 42.4839C384.926 42.488 383.892 43.0525 383.897 43.9697ZM384.004 49.5146H389.134V48.9585H384.66V47.3564H384.004V49.5146ZM384.594 43.9697C384.586 43.3804 385.353 43.0193 386.503 43.0151C387.649 43.0193 388.412 43.3804 388.412 43.9697C388.412 44.5425 387.649 44.9077 386.503 44.9077C385.353 44.9077 384.586 44.5425 384.594 43.9697Z" fill="#113287"/>
<path d="M397.639 42.6582H392.576V43.1812H396.992C396.992 43.7207 396.992 44.3267 396.801 45.1816L397.44 45.2563C397.635 44.3806 397.635 43.7332 397.639 43.1729V42.6582ZM391.779 46.2856H398.494V45.7627H395.199V44.2686H394.56V45.7627H391.779V46.2856ZM392.26 49.1328L392.501 49.6392C393.626 49.4565 394.655 48.9253 395.103 48.1201C395.552 48.9253 396.581 49.4565 397.706 49.6392L397.955 49.1328C396.61 48.9336 395.435 48.1948 395.431 47.2153V46.875H394.776V47.2153C394.771 48.1948 393.597 48.9336 392.26 49.1328Z" fill="#113287"/>
<path d="M404.776 42.293H404.121V49.689H404.776V42.293ZM398.966 45.439C398.97 47.012 399.75 48.0081 400.85 48.0039C401.946 48.0081 402.739 47.012 402.734 45.439C402.739 43.8701 401.946 42.8699 400.85 42.8657C399.75 42.8699 398.97 43.8701 398.966 45.439ZM399.597 45.439C399.597 44.2395 400.111 43.4509 400.85 43.4468C401.593 43.4509 402.104 44.2395 402.104 45.439C402.104 46.6384 401.593 47.427 400.85 47.4229C400.111 47.427 399.597 46.6384 399.597 45.439Z" fill="#113287"/>
<path d="M409.82 43.4634V43.2476H411.463V42.7163H407.487V43.2476H409.164V43.48C409.16 44.4429 408.38 45.3062 407.263 45.6548L407.587 46.1611C408.488 45.8789 409.185 45.2688 409.504 44.4761C409.832 45.1733 410.501 45.717 411.356 45.9702L411.663 45.4639C410.575 45.1443 409.812 44.3433 409.82 43.4634ZM408.384 46.9663H412.443V47.73H408.4V49.606H413.364V49.0913H409.04V48.2114H413.09V46.4434H408.384V46.9663ZM412.443 46.103H413.09V44.4512H414.203V43.9116H413.09V42.293H412.443V46.103Z" fill="#113287"/>
<path d="M422.708 48.1865H419.628V46.5928H421.878V42.8159H421.238V44.1523H417.404V42.8159H416.748V46.5928H418.989V48.1865H415.951V48.7261H422.708V48.1865ZM417.404 46.0615V44.6836H421.238V46.0615H417.404Z" fill="#113287"/>
<path d="M428.957 42.293H428.301V49.689H428.957V42.293ZM423.146 45.439C423.15 47.012 423.93 48.0081 425.03 48.0039C426.126 48.0081 426.919 47.012 426.915 45.439C426.919 43.8701 426.126 42.8699 425.03 42.8657C423.93 42.8699 423.15 43.8701 423.146 45.439ZM423.777 45.439C423.777 44.2395 424.292 43.4509 425.03 43.4468C425.773 43.4509 426.284 44.2395 426.284 45.439C426.284 46.6384 425.773 47.427 425.03 47.4229C424.292 47.427 423.777 46.6384 423.777 45.439Z" fill="#113287"/>
<path d="M432.433 44.5591V43.5962H434.193V43.0566H430.034V43.5962H431.777V44.5591C431.773 45.8374 430.852 47.2319 429.793 47.7383L430.183 48.2529C431.026 47.8296 431.773 46.8916 432.117 45.8083C432.462 46.8293 433.205 47.6802 434.068 48.0703L434.433 47.5557C433.346 47.0867 432.437 45.8125 432.433 44.5591ZM435.222 49.6724H435.878V42.293H435.222V49.6724Z" fill="#113287"/>
<path d="M440.481 42.7163C439.381 42.7205 438.56 43.4219 438.564 44.418C438.56 45.4265 439.381 46.1238 440.481 46.1279C441.585 46.1238 442.399 45.4265 442.399 44.418C442.399 43.4219 441.585 42.7205 440.481 42.7163ZM439.203 44.418C439.199 43.7539 439.755 43.2642 440.481 43.2642C441.212 43.2642 441.764 43.7539 441.76 44.418C441.764 45.0945 441.212 45.5884 440.481 45.5884C439.755 45.5884 439.199 45.0945 439.203 44.418ZM439.211 49.4731H439.56C440.041 49.4773 440.743 49.4441 441.461 49.2075L441.361 48.6846C440.838 48.8589 440.27 48.9211 439.842 48.9377V46.7837H439.211V49.4731ZM441.204 47.3232H444.931V46.8169H443.395V46.1611H442.756V46.8169H441.204V47.3232ZM441.693 48.6182C441.689 49.2573 442.249 49.6558 443.063 49.6558C443.872 49.6558 444.441 49.2573 444.449 48.6182C444.441 47.979 443.872 47.5723 443.063 47.5723C442.249 47.5723 441.689 47.979 441.693 48.6182ZM442.274 48.6182C442.274 48.2778 442.602 48.0496 443.063 48.0454C443.524 48.0496 443.851 48.2778 443.851 48.6182C443.851 48.9668 443.524 49.1868 443.063 49.1909C442.602 49.1868 442.274 48.9668 442.274 48.6182ZM443.544 45.9868H444.192V44.501H445.304V43.9614H444.192V42.293H443.544V45.9868Z" fill="#113287"/>
<path d="M451.312 44.5342H446.904V42.5669H446.257V45.0571H451.312V44.5342ZM445.336 46.5928H452.092V46.0615H445.336V46.5928ZM446.216 49.4897H451.354V48.9502H446.863V47.3481H446.216V49.4897Z" fill="#113287"/>
<path d="M459.942 44.5425H455.551V42.5752H454.903V45.0737H459.942V44.5425ZM453.973 46.4849H457.07V48.0122H457.717V46.4849H460.705V45.9453H453.973V46.4849ZM454.837 49.5146H459.992V48.9668H455.484V47.3564H454.837V49.5146Z" fill="#113287"/>
<path fill-rule="evenodd" clip-rule="evenodd" d="M714 23H550V22.25H714V23Z" fill="#113287"/>
<path d="M552.005 8.65625H550.911V12.9043H551.644C552.938 12.8994 554.3 12.8213 555.755 12.5234L555.638 11.6348C554.344 11.9033 553.138 11.9863 552.005 11.9961V8.65625ZM551.849 16.6934H557.786V15.8145H552.942V13.793H551.849V16.6934ZM556.409 14.3984H557.493V11.4883H558.724V10.5801H557.493V8.05078H556.409V14.3984Z" fill="#113287"/>
<path d="M564.886 10.1602V8.75391H563.782V10.1602C563.777 11.8643 562.918 13.5488 561.448 14.1836L562.112 15.0918C563.182 14.5889 563.943 13.5732 564.349 12.333C564.759 13.4854 565.501 14.418 566.517 14.8867L567.161 14.0176C565.73 13.4023 564.876 11.7812 564.886 10.1602ZM567.796 16.8789H568.89V8.04102H567.796V16.8789Z" fill="#113287"/>
<path d="M555.408 30.293H554.761V33.2646H553.001V33.8042H554.761V37.6724H555.408V30.293ZM549.307 35.7466L549.664 36.2695C552.129 35.0452 553.013 33.1899 553.018 31.0981H549.631V31.6294H552.362C552.229 33.356 551.303 34.7795 549.307 35.7466Z" fill="#113287"/>
<path d="M562.143 30.293H561.495V37.689H562.143V30.293ZM556.465 31.5215H559.246V33.0737H556.482V35.896H557.096C558.37 35.896 559.491 35.842 560.848 35.6304L560.781 35.0825C559.462 35.2942 558.37 35.3523 557.146 35.3481V33.605H559.902V30.9819H556.465V31.5215Z" fill="#113287"/>
<path d="M569.126 30.293H568.496V37.6724H569.126V30.293ZM562.893 33.4805C562.897 35.0493 563.519 36.0496 564.478 36.0454C565.387 36.0496 566.005 35.1489 566.068 33.7129H567.018V37.2988H567.641V30.4507H567.018V33.1733H566.063C565.98 31.783 565.374 30.9197 564.478 30.9155C563.519 30.9197 562.897 31.9116 562.893 33.4805ZM563.507 33.4805C563.498 32.281 563.88 31.5298 564.478 31.5298C565.08 31.5298 565.462 32.281 565.457 33.4805C565.462 34.6758 565.08 35.4312 564.478 35.4229C563.88 35.4312 563.498 34.6758 563.507 33.4805Z" fill="#113287"/>
<path d="M573.556 31.4883V30.6748H572.917V31.4385C572.913 32.5798 572.17 33.5676 571.066 33.9785L571.414 34.5015C572.278 34.1653 572.938 33.4888 573.253 32.613C573.577 33.385 574.22 33.9951 575.034 34.2939L575.391 33.7793C574.32 33.4141 573.556 32.4927 573.556 31.4883ZM572.045 36.311C572.049 37.1702 572.975 37.6558 574.494 37.6558C576.009 37.6558 576.926 37.1702 576.926 36.311C576.926 35.4685 576.009 34.9746 574.494 34.9746C572.975 34.9746 572.049 35.4685 572.045 36.311ZM572.701 36.311C572.693 35.8088 573.382 35.4976 574.494 35.4976C575.61 35.4976 576.291 35.8088 576.295 36.311C576.291 36.834 575.61 37.137 574.494 37.1411C573.382 37.137 572.693 36.834 572.701 36.311ZM576.212 34.7837H576.86V32.7666H577.972V32.2188H576.86V30.293H576.212V34.7837Z" fill="#113287"/>
<path d="M581.934 30.8657H578.257V31.4136H581.291C581.283 31.8826 581.266 32.5093 581.088 33.3892L581.743 33.439C581.93 32.4761 581.93 31.7415 581.934 31.2559V30.8657ZM577.8 34.1279L577.867 34.6675C579.182 34.6633 580.959 34.6343 582.507 34.3687L582.465 33.8872C581.698 33.9951 580.851 34.0532 580.033 34.0864V32.501H579.386V34.1072C578.817 34.1238 578.278 34.1279 577.8 34.1279ZM578.938 37.5146H583.868V36.9668H579.593V35.3481H578.938V37.5146ZM582.963 35.8462H583.628V33.2563H584.707V32.7002H583.628V30.293H582.963V35.8462Z" fill="#113287"/>
<path d="M586.062 34.626H585.448V37.5728H588.013V34.626H587.407V35.5474H586.062V34.626ZM584.709 32.3184C584.705 33.3311 585.502 34.02 586.627 34.02C587.627 34.02 588.387 33.4473 588.515 32.5757H590.055V34.2026H590.711V30.293H590.055V32.0361H588.511C588.37 31.1853 587.619 30.625 586.627 30.625C585.502 30.625 584.705 31.3098 584.709 32.3184ZM585.332 32.3184C585.332 31.646 585.867 31.1729 586.627 31.1729C587.37 31.1729 587.905 31.646 587.905 32.3184C587.905 32.9949 587.37 33.4763 586.627 33.4805C585.867 33.4763 585.332 32.9949 585.332 32.3184ZM586.062 37.0581V36.0454H587.407V37.0581H586.062ZM588.113 37.1328L588.453 37.6309C589.105 37.3528 589.557 36.8298 589.789 36.228C590.018 36.8381 590.462 37.3611 591.142 37.6309L591.483 37.1328C590.582 36.8008 590.113 35.9832 590.121 35.207V34.5762H589.474V35.207C589.47 35.9541 589.001 36.7634 588.113 37.1328Z" fill="#113287"/>
<path d="M597.429 30.293H596.773V37.689H597.429V30.293ZM591.618 33.439C591.622 35.012 592.403 36.0081 593.502 36.0039C594.598 36.0081 595.391 35.012 595.387 33.439C595.391 31.8701 594.598 30.8699 593.502 30.8657C592.403 30.8699 591.622 31.8701 591.618 33.439ZM592.249 33.439C592.249 32.2395 592.764 31.4509 593.502 31.4468C594.245 31.4509 594.756 32.2395 594.756 33.439C594.756 34.6384 594.245 35.427 593.502 35.4229C592.764 35.427 592.249 34.6384 592.249 33.439Z" fill="#113287"/>
<path d="M602.107 32.2769V30.9321H601.468V32.2769C601.46 33.6257 600.605 35.041 599.526 35.5723L599.941 36.0952C600.771 35.6511 601.468 34.7173 601.796 33.6299C602.124 34.655 602.805 35.5308 603.618 35.9541L604.017 35.4312C602.967 34.9165 602.107 33.5759 602.107 32.2769ZM604.697 37.6724H605.345V33.854H606.582V33.2896H605.345V30.293H604.697V37.6724Z" fill="#113287"/>
<path d="M613.109 33.4141H606.385V33.9453H609.415V34.6758H607.198V35.1821H611.606V35.8379H607.215V37.5894H612.469V37.0747H607.862V36.3276H612.245V34.6758H610.062V33.9453H613.109V33.4141ZM607.257 32.7915H612.237V30.542H607.257V32.7915ZM607.904 32.2686V31.0649H611.59V32.2686H607.904Z" fill="#113287"/>
<path d="M619.221 30.293H618.565V37.689H619.221V30.293ZM613.41 33.439C613.414 35.012 614.195 36.0081 615.294 36.0039C616.39 36.0081 617.183 35.012 617.179 33.439C617.183 31.8701 616.39 30.8699 615.294 30.8657C614.195 30.8699 613.414 31.8701 613.41 33.439ZM614.041 33.439C614.041 32.2395 614.556 31.4509 615.294 31.4468C616.037 31.4509 616.548 32.2395 616.548 33.439C616.548 34.6384 616.037 35.427 615.294 35.4229C614.556 35.427 614.041 34.6384 614.041 33.439Z" fill="#113287"/>
<path d="M627.137 30.293H626.489V37.6724H627.137V33.8789H628.373V33.3394H627.137V30.293ZM621.384 32.0195H625.775V31.48H623.932V30.3843H623.285V31.48H621.384V32.0195ZM621.807 34.3271C621.803 35.3274 622.567 36.0205 623.617 36.0205C624.659 36.0205 625.418 35.3274 625.427 34.3271C625.418 33.3311 624.659 32.6338 623.617 32.6338C622.567 32.6338 621.803 33.3311 621.807 34.3271ZM622.43 34.3271C622.426 33.6589 622.928 33.1775 623.617 33.1816C624.298 33.1775 624.796 33.6589 624.804 34.3271C624.796 34.9995 624.298 35.4727 623.617 35.4644C622.928 35.4727 622.426 34.9995 622.43 34.3271Z" fill="#113287"/>
<path d="M635.083 33.2397H633.888V30.293H633.24V37.6724H633.888V33.7876H635.083V33.2397ZM628.484 35.7964H629.073C630.19 35.7964 631.335 35.7217 632.609 35.4644L632.526 34.9082C631.31 35.1655 630.211 35.2485 629.131 35.2485V31.0234H628.484V35.7964Z" fill="#113287"/>
<path d="M641.685 36.2114H638.605V34.8169H641.004V34.2773H636.422V33.0737H640.83V30.8408H635.758V31.3804H640.191V32.5425H635.775V34.8169H637.966V36.2114H634.928V36.7593H641.685V36.2114Z" fill="#113287"/>
<path d="M649.974 36.1865H646.895V34.5928H649.144V30.8159H648.505V32.1523H644.67V30.8159H644.014V34.5928H646.256V36.1865H643.218V36.7261H649.974V36.1865ZM644.67 34.0615V32.6836H648.505V34.0615H644.67Z" fill="#113287"/>
<path d="M656.053 30.293H655.397V37.689H656.053V30.293ZM650.243 33.439C650.247 35.012 651.027 36.0081 652.127 36.0039C653.223 36.0081 654.015 35.012 654.011 33.439C654.015 31.8701 653.223 30.8699 652.127 30.8657C651.027 30.8699 650.247 31.8701 650.243 33.439ZM650.873 33.439C650.873 32.2395 651.388 31.4509 652.127 31.4468C652.87 31.4509 653.38 32.2395 653.38 33.439C653.38 34.6384 652.87 35.427 652.127 35.4229C651.388 35.427 650.873 34.6384 650.873 33.439Z" fill="#113287"/>
<path d="M659.36 32.5591V31.5962H661.119V31.0566H656.961V31.5962H658.704V32.5591C658.7 33.8374 657.778 35.2319 656.72 35.7383L657.11 36.2529C657.953 35.8296 658.7 34.8916 659.044 33.8083C659.389 34.8293 660.132 35.6802 660.995 36.0703L661.36 35.5557C660.273 35.0867 659.364 33.8125 659.36 32.5591ZM662.149 37.6724H662.804V30.293H662.149V37.6724Z" fill="#113287"/>
<path d="M667.068 30.7163C665.968 30.7205 665.146 31.4219 665.151 32.418C665.146 33.4265 665.968 34.1238 667.068 34.1279C668.172 34.1238 668.985 33.4265 668.985 32.418C668.985 31.4219 668.172 30.7205 667.068 30.7163ZM665.79 32.418C665.786 31.7539 666.342 31.2642 667.068 31.2642C667.798 31.2642 668.35 31.7539 668.346 32.418C668.35 33.0945 667.798 33.5884 667.068 33.5884C666.342 33.5884 665.786 33.0945 665.79 32.418ZM665.798 37.4731H666.147C666.628 37.4773 667.329 37.4441 668.047 37.2075L667.948 36.6846C667.425 36.8589 666.856 36.9211 666.429 36.9377V34.7837H665.798V37.4731ZM667.79 35.3232H671.517V34.8169H669.982V34.1611H669.342V34.8169H667.79V35.3232ZM668.28 36.6182C668.276 37.2573 668.836 37.6558 669.65 37.6558C670.459 37.6558 671.027 37.2573 671.036 36.6182C671.027 35.979 670.459 35.5723 669.65 35.5723C668.836 35.5723 668.276 35.979 668.28 36.6182ZM668.861 36.6182C668.861 36.2778 669.189 36.0496 669.65 36.0454C670.11 36.0496 670.438 36.2778 670.438 36.6182C670.438 36.9668 670.11 37.1868 669.65 37.1909C669.189 37.1868 668.861 36.9668 668.861 36.6182ZM670.131 33.9868H670.778V32.501H671.891V31.9614H670.778V30.293H670.131V33.9868Z" fill="#113287"/>
<path d="M677.679 31.04H672.474V31.5796H677.023V31.7788C677.019 32.6628 677.019 33.6963 676.741 35.1074L677.405 35.1821C677.671 33.6963 677.671 32.6836 677.679 31.7788V31.04ZM671.761 36.6265H678.484V36.0869H675.039V33.4473H674.4V36.0869H671.761V36.6265Z" fill="#113287"/>
<path d="M686.168 30.3013H685.512V32.3765H683.769V30.791H683.13V32.1025H681.071V30.791H680.424V34.5015H683.769V32.9243H685.512V35.7632H686.168V30.3013ZM681.071 33.9619V32.6172H683.13V33.9619H681.071ZM681.395 37.5146H686.334V36.9668H682.051V35.2236H681.395V37.5146Z" fill="#113287"/>
<path d="M692.919 30.293H692.263V32.3765H690.752V32.9243H692.263V33.9453H690.752V34.4932H692.263V37.6724H692.919V30.293ZM686.751 35.7466L687.183 36.2446C687.997 35.7881 688.719 34.8252 689.047 33.7129C689.387 34.7256 690.093 35.6387 690.902 36.062L691.292 35.564C690.242 35.0327 689.362 33.6423 689.358 32.4844V31.5962H691.043V31.0566H687.017V31.5962H688.702V32.4844C688.698 33.8 687.806 35.2195 686.751 35.7466Z" fill="#113287"/>
<path d="M700.309 36.1865H697.23V34.5928H699.479V30.8159H698.84V32.1523H695.005V30.8159H694.349V34.5928H696.591V36.1865H693.552V36.7261H700.309V36.1865ZM695.005 34.0615V32.6836H698.84V34.0615H695.005Z" fill="#113287"/>
<path d="M706.388 30.293H705.732V37.689H706.388V30.293ZM700.578 33.439C700.582 35.012 701.362 36.0081 702.462 36.0039C703.558 36.0081 704.35 35.012 704.346 33.439C704.35 31.8701 703.558 30.8699 702.462 30.8657C701.362 30.8699 700.582 31.8701 700.578 33.439ZM701.208 33.439C701.208 32.2395 701.723 31.4509 702.462 31.4468C703.205 31.4509 703.715 32.2395 703.715 33.439C703.715 34.6384 703.205 35.427 702.462 35.4229C701.723 35.427 701.208 34.6384 701.208 33.439Z" fill="#113287"/>
<path d="M713.023 32.5342H708.615V30.5669H707.968V33.0571H713.023V32.5342ZM707.047 34.5928H713.803V34.0615H707.047V34.5928ZM707.926 37.4897H713.065V36.9502H708.574V35.3481H707.926V37.4897Z" fill="#113287"/>
<path d="M555.267 44.5425H550.876V42.5752H550.229V45.0737H555.267V44.5425ZM549.299 46.4849H552.395V48.0122H553.042V46.4849H556.031V45.9453H549.299V46.4849ZM550.162 49.5146H555.317V48.9668H550.81V47.3564H550.162V49.5146Z" fill="#113287"/>
<path d="M562.134 42.293H561.479V49.689H562.134V42.293ZM556.324 45.439C556.328 47.012 557.108 48.0081 558.208 48.0039C559.304 48.0081 560.097 47.012 560.092 45.439C560.097 43.8701 559.304 42.8699 558.208 42.8657C557.108 42.8699 556.328 43.8701 556.324 45.439ZM556.955 45.439C556.955 44.2395 557.469 43.4509 558.208 43.4468C558.951 43.4509 559.462 44.2395 559.462 45.439C559.462 46.6384 558.951 47.427 558.208 47.4229C557.469 47.427 556.955 46.6384 556.955 45.439Z" fill="#113287"/>
<path d="M566.462 43.0317H563.1V47.8047H566.462V46.6426H568.271V49.689H568.919V42.293H568.271V44.0693H566.462V43.0317ZM563.747 47.2817V43.5464H565.831V47.2817H563.747ZM566.462 46.103V44.6089H568.271V46.103H566.462Z" fill="#113287"/>
<path d="M570.764 48.4438H569.959L569.503 50.7017H570.117L570.764 48.4438Z" fill="#113287"/>
<path d="M578.44 42.293H577.792V46.626H578.44V44.7251H579.552V44.1689H578.44V42.293ZM572.662 46.0366L572.928 46.543C575.107 45.9661 576.41 44.6338 576.414 42.7661H572.994V43.3057H575.721C575.588 44.5591 574.472 45.5469 572.662 46.0366ZM573.608 47.4976H577.792V49.6724H578.44V46.9663H573.608V47.4976Z" fill="#113287"/>
<path d="M583.149 42.8491H579.737V46.1113H583.149V42.8491ZM580.36 47.5889H584.543V49.689H585.191V47.0659H580.36V47.5889ZM580.376 45.5801V43.3721H582.518V45.5801H580.376ZM584.543 46.6675H585.191V44.7666H586.303V44.2188H585.191V42.293H584.543V46.6675Z" fill="#113287"/>
<path d="M588.588 42.8325C587.422 42.8367 586.592 43.5422 586.596 44.5674C586.592 45.5967 587.422 46.2981 588.588 46.3022C589.746 46.2981 590.568 45.5967 590.572 44.5674C590.568 43.5422 589.746 42.8367 588.588 42.8325ZM586.214 47.5059L586.306 48.062C587.634 48.062 589.448 48.0537 591.137 47.7383L591.087 47.2568C589.456 47.4976 587.576 47.51 586.214 47.5059ZM587.235 44.5674C587.231 43.8826 587.8 43.4053 588.588 43.4053C589.369 43.4053 589.937 43.8826 589.933 44.5674C589.937 45.2563 589.369 45.7295 588.588 45.7295C587.8 45.7295 587.231 45.2563 587.235 44.5674ZM591.577 49.689H592.224V42.293H591.577V49.689Z" fill="#113287"/>
<path d="M598.646 43.123H596.911V42.2349H596.264V43.123H594.471V43.6543H598.646V43.123ZM594.911 45.3975C594.902 46.2234 595.583 46.7629 596.579 46.7671C597.567 46.7629 598.26 46.2234 598.264 45.3975C598.26 44.5757 597.567 44.032 596.579 44.0361C595.583 44.032 594.902 44.5757 594.911 45.3975ZM595.517 45.3975C595.512 44.8787 595.936 44.5342 596.579 44.5259C597.214 44.5342 597.65 44.8787 597.658 45.3975C597.65 45.9163 597.214 46.2649 596.579 46.2607C595.936 46.2649 595.512 45.9163 595.517 45.3975ZM595.666 48.4023C595.666 49.1951 596.6 49.6558 598.148 49.6558C599.688 49.6558 600.622 49.1951 600.622 48.4023C600.622 47.5972 599.688 47.1406 598.148 47.1406C596.6 47.1406 595.666 47.5972 595.666 48.4023ZM596.338 48.4023C596.343 47.9209 597.027 47.6511 598.148 47.647C599.252 47.6511 599.933 47.9209 599.933 48.4023C599.933 48.8713 599.252 49.1536 598.148 49.1494C597.027 49.1536 596.343 48.8713 596.338 48.4023ZM598.638 46.0449H599.924V47.0659H600.58V42.293H599.924V44.0693H598.646V44.6089H599.924V45.5054H598.638V46.0449Z" fill="#113287"/>
<path d="M603.679 43.4883V42.6748H603.04V43.4385C603.036 44.5798 602.293 45.5676 601.189 45.9785L601.537 46.5015C602.401 46.1653 603.06 45.4888 603.376 44.613C603.7 45.385 604.343 45.9951 605.156 46.2939L605.513 45.7793C604.443 45.4141 603.679 44.4927 603.679 43.4883ZM602.168 48.311C602.172 49.1702 603.098 49.6558 604.617 49.6558C606.132 49.6558 607.049 49.1702 607.049 48.311C607.049 47.4685 606.132 46.9746 604.617 46.9746C603.098 46.9746 602.172 47.4685 602.168 48.311ZM602.824 48.311C602.816 47.8088 603.505 47.4976 604.617 47.4976C605.733 47.4976 606.414 47.8088 606.418 48.311C606.414 48.834 605.733 49.137 604.617 49.1411C603.505 49.137 602.816 48.834 602.824 48.311ZM606.335 46.7837H606.983V44.7666H608.095V44.2188H606.983V42.293H606.335V46.7837Z" fill="#113287"/>
<path d="M611.327 42.7744C609.787 42.7786 608.629 43.5837 608.629 44.7998C608.629 46.0283 609.787 46.8335 611.327 46.8252C612.866 46.8335 614.024 46.0283 614.024 44.7998C614.024 43.5837 612.866 42.7786 611.327 42.7744ZM607.965 48.6929H614.722V48.145H607.965V48.6929ZM609.251 44.7998C609.243 43.9158 610.135 43.3015 611.327 43.3057C612.509 43.3015 613.393 43.9158 613.393 44.7998C613.393 45.6963 612.509 46.2939 611.327 46.2939C610.135 46.2939 609.243 45.6963 609.251 44.7998Z" fill="#113287"/>
<path d="M621.473 48.2114H618.393V46.8169H620.792V46.2773H616.21V45.0737H620.618V42.8408H615.546V43.3804H619.979V44.5425H615.563V46.8169H617.754V48.2114H614.716V48.7593H621.473V48.2114Z" fill="#113287"/>
<path d="M629.098 42.3013H628.451V47.6968H629.098V42.3013ZM623.18 44.6255C623.176 45.7004 624.01 46.4475 625.114 46.4434C626.218 46.4475 627.044 45.7004 627.048 44.6255C627.044 43.563 626.218 42.8201 625.114 42.8159C624.01 42.8201 623.176 43.563 623.18 44.6255ZM623.819 44.6255C623.811 43.9033 624.367 43.3887 625.114 43.3887C625.848 43.3887 626.409 43.9033 626.409 44.6255C626.409 45.3601 625.848 45.8706 625.114 45.8706C624.367 45.8706 623.811 45.3601 623.819 44.6255ZM624.334 49.5146H629.331V48.9668H624.981V47.1489H624.334V49.5146Z" fill="#113287"/>
<path d="M633.442 43.5713H631.923V42.5171H631.276V43.5713H629.74V44.1025H633.442V43.5713ZM630.006 46.2773C630.006 47.2693 630.674 47.9666 631.591 47.9707C632.521 47.9666 633.185 47.2693 633.193 46.2773C633.185 45.2979 632.521 44.6047 631.591 44.6006C630.674 44.6047 630.006 45.2979 630.006 46.2773ZM630.587 46.2773C630.587 45.6299 631.006 45.1567 631.591 45.1484C632.18 45.1567 632.612 45.6299 632.612 46.2773C632.612 46.9331 632.18 47.4021 631.591 47.3979C631.006 47.4021 630.587 46.9331 630.587 46.2773ZM633.824 49.3071H634.438V45.9453H635.418V49.6724H636.04V42.293H635.418V45.4058H634.438V42.4756H633.824V49.3071Z" fill="#113287"/>
<path d="M643.931 45.0571H639.64V43.2725H643.832V42.7329H638.976V45.5801H643.931V45.0571ZM638.038 47.0908H641.076V49.6475H641.715V47.0908H644.795V46.5596H638.038V47.0908Z" fill="#113287"/>
<path d="M652.636 42.293H651.997V45.2729H650.976V42.4922H650.353V49.3071H650.976V45.8125H651.997V49.6724H652.636V42.293ZM646.344 47.6304L646.726 48.0869C648.847 46.9041 649.507 45.1318 649.515 43.2559H646.626V43.7954H648.876C648.764 45.3228 648.058 46.6716 646.344 47.6304Z" fill="#113287"/>
<path d="M655.502 42.8325C654.336 42.8367 653.506 43.5422 653.51 44.5674C653.506 45.5967 654.336 46.2981 655.502 46.3022C656.66 46.2981 657.482 45.5967 657.486 44.5674C657.482 43.5422 656.66 42.8367 655.502 42.8325ZM653.128 47.5059L653.22 48.062C654.548 48.062 656.361 48.0537 658.051 47.7383L658.001 47.2568C656.37 47.4976 654.49 47.51 653.128 47.5059ZM654.149 44.5674C654.145 43.8826 654.714 43.4053 655.502 43.4053C656.283 43.4053 656.851 43.8826 656.847 44.5674C656.851 45.2563 656.283 45.7295 655.502 45.7295C654.714 45.7295 654.145 45.2563 654.149 44.5674ZM658.491 49.689H659.138V42.293H658.491V49.689Z" fill="#113287"/>
<path d="M668.133 48.1948H665.062V46.5015H664.423V48.1948H661.376V48.7427H668.133V48.1948ZM661.75 46.2524L662.007 46.7671C663.194 46.5596 664.277 45.9619 664.742 45.0364C665.215 45.9619 666.299 46.5596 667.477 46.7671L667.726 46.2524C666.311 46.0242 665.078 45.165 665.078 44.0112H667.486V43.4717H665.062V42.4507H664.423V43.4717H662.007V44.0112H664.414C664.406 45.165 663.173 46.0242 661.75 46.2524Z" fill="#113287"/>
<path d="M674.245 42.293H673.589V44.144H672.095V44.6919H673.589V46.6177H674.245V42.293ZM668.161 46.0283L668.501 46.543C669.377 46.2234 670.057 45.5469 670.377 44.6919C670.697 45.4556 671.34 46.074 672.17 46.377L672.51 45.8623C671.431 45.4763 670.692 44.5549 670.692 43.6045V43.314H672.344V42.7744H668.368V43.314H670.037V43.6045C670.037 44.6545 669.248 45.6423 668.161 46.0283ZM669.422 49.5728H674.245V46.9829H669.422V49.5728ZM670.07 49.0415V47.5059H673.606V49.0415H670.07Z" fill="#113287"/>
<path d="M680.963 42.293H680.307V49.689H680.963V42.293ZM675.153 45.439C675.157 47.012 675.937 48.0081 677.037 48.0039C678.133 48.0081 678.925 47.012 678.921 45.439C678.925 43.8701 678.133 42.8699 677.037 42.8657C675.937 42.8699 675.157 43.8701 675.153 45.439ZM675.783 45.439C675.783 44.2395 676.298 43.4509 677.037 43.4468C677.78 43.4509 678.29 44.2395 678.29 45.439C678.29 46.6384 677.78 47.427 677.037 47.4229C676.298 47.427 675.783 46.6384 675.783 45.439Z" fill="#113287"/>
<path d="M689.435 42.3013H688.813V44.1606H687.833V42.4424H687.219V46.5098H687.833V44.7002H688.813V46.5679H689.435V42.3013ZM683.509 46.0532H686.364V42.8574H683.509V46.0532ZM684.123 45.5469V43.3804H685.758V45.5469H684.123ZM684.222 49.1411L684.463 49.6392C685.58 49.4773 686.596 48.9709 687.02 48.2114C687.443 48.9709 688.464 49.4773 689.585 49.6392L689.817 49.1411C688.555 48.9751 687.418 48.3235 687.368 47.481H689.518V46.9497H684.513V47.481H686.671C686.625 48.3359 685.48 48.9751 684.222 49.1411Z" fill="#113287"/>
<path d="M696.012 42.293H695.365V46.7671H696.012V42.293ZM690.027 43.6211H694.551V43.0898H692.617V42.2349H691.961V43.0898H690.027V43.6211ZM690.484 45.2979C690.476 46.1072 691.198 46.6177 692.293 46.6177C693.385 46.6177 694.099 46.1072 694.103 45.2979C694.099 44.4968 693.385 43.9863 692.293 43.9863C691.198 43.9863 690.476 44.4968 690.484 45.2979ZM691.106 45.2979C691.098 44.8081 691.571 44.4844 692.293 44.4844C693.007 44.4844 693.476 44.8081 693.48 45.2979C693.476 45.8 693.007 46.1113 692.293 46.1196C691.571 46.1113 691.098 45.8 691.106 45.2979ZM691.214 49.5728H696.012V47.1655H691.214V49.5728ZM691.853 49.0415V47.6885H695.373V49.0415H691.853Z" fill="#113287"/>
</svg>
