<?xml version="1.0" encoding="UTF-8"?>
<svg width="320px" height="180px" viewBox="0 0 320 180" version="1.1" xmlns="http://www.w3.org/2000/svg" xmlns:xlink="http://www.w3.org/1999/xlink">
    <title>RETINA_L</title>
    <g id="RETINA_L" stroke="none" stroke-width="1" fill="none" fill-rule="evenodd">
        <g id="normal" transform="translate(108.000000, 14.000000)">
            <path d="M110.30961,146.582296 C94.7804098,153.015296 77.5679097,154.142296 61.3302097,149.787296 C45.0921097,145.454296 30.7593097,135.882296 20.5249097,122.574296 C10.2902097,109.265296 4.75186975,92.9715959 4.75186975,76.1919959 C4.75186975,59.4122959 10.2902097,43.1188959 20.5249097,29.8100959 C30.7596097,16.5013959 45.0924097,6.95126586 61.3296097,2.59633586 L61.3302097,2.59616586 C77.5673097,-1.73663414 94.7797097,-0.631481144 110.30961,5.80188586 C125.83761,12.2347959 138.79661,23.5535959 147.21561,38.1003959 C147.35361,38.3393959 147.27161,38.6452959 147.03261,38.7835959 C146.79361,38.9218959 146.48761,38.8402959 146.34961,38.6012959 C138.04161,24.2455959 125.25261,13.0749959 109.92661,6.72574586 C94.6013097,0.377017856 77.6140098,-0.714107144 61.5880097,3.56235586 C45.5625097,7.86065586 31.4177097,17.2859959 21.3176097,30.4196959 C11.2173097,43.5536959 5.75186975,59.6327959 5.75186975,76.1919959 C5.75186975,92.7511959 11.2173097,108.830296 21.3176097,121.964296 C31.4181098,135.098296 45.5631097,144.545296 61.5880097,148.821296 L61.5887097,148.821296 C77.6138098,153.119296 94.6009097,152.007296 109.92661,145.658296 C125.25261,139.309296 138.04161,128.116296 146.34961,113.782296 C146.48861,113.543296 146.79461,113.462296 147.03361,113.600296 C147.27161,113.739296 147.35361,114.045296 147.21461,114.284296 C138.79661,128.808296 125.83761,140.149296 110.30961,146.582296 Z" id="Path" fill="#113287"></path>
            <path d="M147.57661,44.7352959 C147.21061,44.1317959 146.35661,44.1323959 145.99161,44.7362959 C141.49861,52.1758959 138.81161,64.0722959 138.81161,76.7667959 C138.81161,89.4601959 141.49761,101.355296 145.99061,108.795296 C146.35561,109.400296 147.21061,109.400296 147.57561,108.795296 C152.06861,101.355296 154.75561,89.4601959 154.75561,76.7667959 C154.75561,64.0717959 152.08161,52.1748959 147.57661,44.7352959 Z" id="Path" fill="#D6E4EF" fill-rule="nonzero"></path>
            <path d="M156.74861,38.1966959 C156.58161,38.4162959 156.62361,38.7299959 156.84261,38.8974959 C167.11961,46.7367959 173.45861,60.9636959 173.45861,76.3482959 C173.45861,91.7547959 167.11961,105.959296 156.84261,113.799296 C156.62361,113.966296 156.58161,114.280296 156.74861,114.500296 C156.91661,114.719296 157.22961,114.761296 157.44961,114.594296 C168.02061,106.530296 174.45861,92.0024959 174.45861,76.3482959 C174.45861,60.7161959 168.02061,46.1668959 157.44961,38.1023959 C157.22961,37.9349959 156.91661,37.9771959 156.74861,38.1966959 Z" id="Path" fill="#113287"></path>
        </g>
        <g id="indicatorLeftDown" transform="translate(294.000000, 80.000000)" fill-rule="nonzero">
            <polygon id="Path" fill="#FFB341" points="19.5361026 14.963225 9.76547262 21.000025 0 14.963225 2.61625e-06 0 19.5361026 3e-06"></polygon>
            <polygon id="Path" fill="#113287" points="7.51172262 12.390625 12.3457026 12.390625 12.3457026 11.209025 8.90820262 11.209025 8.90820262 4.613285 7.51172262 4.613285"></polygon>
        </g>
    </g>
</svg>