<?xml version="1.0" encoding="UTF-8"?>
<svg width="378px" height="302px" viewBox="0 0 378 302" version="1.1" xmlns="http://www.w3.org/2000/svg" xmlns:xlink="http://www.w3.org/1999/xlink">
    <title>RETINA</title>
    <g id="RETINA" stroke="none" stroke-width="1" fill="none" fill-rule="evenodd">
        <g id="normal" transform="translate(129.000000, 49.000000)">
            <path d="M147.713288,195.259407 C127.012156,203.828681 104.067107,205.329935 82.4215113,199.528725 C60.7753823,193.756821 41.6691053,181.006147 28.0261827,163.27882 C14.3828602,145.550162 7,123.845643 7,101.493866 C7,79.1419565 14.3828602,57.4378373 28.0261827,39.7094452 C41.6695052,21.9811865 60.7757822,9.2596452 82.4207114,3.45852818 L82.4215113,3.45830172 C104.066307,-2.31333635 127.011222,-0.841183673 147.713288,7.72857859 C168.412822,16.2977321 185.68776,31.3752841 196.910672,50.7527916 C197.094632,51.0711588 196.985323,51.4786422 196.666725,51.662869 C196.348127,51.8470957 195.940215,51.7383979 195.756254,51.4200307 C184.681311,32.2970837 167.63299,17.4169461 147.202732,8.95923442 C126.773407,0.502218107 104.12856,-0.95124815 82.7651704,4.74534451 C61.402447,10.4710258 42.5467826,23.0263368 29.082888,40.5214815 C15.6187268,58.0170258 8.33304567,79.4356802 8.33304567,101.493866 C8.33304567,123.552053 15.6187268,144.970707 29.082888,162.466251 C42.5473158,179.961796 61.4032468,192.54596 82.7651704,198.241935 L82.7661036,198.241935 C104.128294,203.967217 126.772874,202.485944 147.202732,194.028565 C167.63299,185.571186 184.681311,170.66121 195.756254,151.567169 C195.941548,151.248802 196.34946,151.140904 196.668058,151.324731 C196.985323,151.50989 197.094632,151.917507 196.909339,152.235874 C185.68776,171.58301 168.412822,186.690134 147.713288,195.259407 Z" id="Path" fill="#113287"></path>
            <path d="M197.094205,59.5987078 C196.589187,58.7998133 195.410813,58.8006076 194.907175,59.6000316 C188.707602,69.4483423 185,85.1964259 185,102.00101 C185,118.804137 188.706222,134.5505 194.905795,144.39934 C195.409433,145.20022 196.589187,145.20022 197.092825,144.39934 C203.292398,134.5505 207,118.804137 207,102.00101 C207,85.195764 203.310336,69.4470185 197.094205,59.5987078 Z" id="Path" fill="#D6E4EF" fill-rule="nonzero"></path>
            <path d="M209.131992,51.2616349 C208.916354,51.5536846 208.970586,51.9708794 209.25337,52.1936403 C222.523529,62.6192539 230.708752,81.5398413 230.708752,102.000073 C230.708752,122.48943 222.523529,141.380227 209.25337,151.806772 C208.970586,152.028868 208.916354,152.446461 209.131992,152.739043 C209.348922,153.030295 209.753083,153.086151 210.037157,152.864055 C223.686943,142.139609 232,122.81885 232,102.000073 C232,81.210687 223.686943,61.8613345 210.037157,51.1362238 C209.753083,50.9135958 209.348922,50.9697183 209.131992,51.2616349 Z" id="Path" fill="#113287"></path>
        </g>
    </g>
</svg>