<?xml version="1.0" encoding="UTF-8"?>
<svg width="320px" height="180px" viewBox="0 0 320 180" version="1.1" xmlns="http://www.w3.org/2000/svg" xmlns:xlink="http://www.w3.org/1999/xlink">
    <title>RETINA_R</title>
    <g id="RETINA_R" stroke="none" stroke-width="1" fill="none" fill-rule="evenodd">
        <g id="normal" transform="translate(108.000000, 14.000000)">
            <path d="M110.30961,146.582296 C94.7804098,153.015296 77.5679097,154.142296 61.3302097,149.787296 C45.0921097,145.454296 30.7593097,135.882296 20.5249097,122.574296 C10.2902097,109.265296 4.75186975,92.9715959 4.75186975,76.1919959 C4.75186975,59.4122959 10.2902097,43.1188959 20.5249097,29.8100959 C30.7596097,16.5013959 45.0924097,6.95126586 61.3296097,2.59633586 L61.3302097,2.59616586 C77.5673097,-1.73663414 94.7797097,-0.631481144 110.30961,5.80188586 C125.83761,12.2347959 138.79661,23.5535959 147.21561,38.1003959 C147.35361,38.3393959 147.27161,38.6452959 147.03261,38.7835959 C146.79361,38.9218959 146.48761,38.8402959 146.34961,38.6012959 C138.04161,24.2455959 125.25261,13.0749959 109.92661,6.72574586 C94.6013097,0.377017856 77.6140098,-0.714107144 61.5880097,3.56235586 C45.5625097,7.86065586 31.4177097,17.2859959 21.3176097,30.4196959 C11.2173097,43.5536959 5.75186975,59.6327959 5.75186975,76.1919959 C5.75186975,92.7511959 11.2173097,108.830296 21.3176097,121.964296 C31.4181098,135.098296 45.5631097,144.545296 61.5880097,148.821296 L61.5887097,148.821296 C77.6138098,153.119296 94.6009097,152.007296 109.92661,145.658296 C125.25261,139.309296 138.04161,128.116296 146.34961,113.782296 C146.48861,113.543296 146.79461,113.462296 147.03361,113.600296 C147.27161,113.739296 147.35361,114.045296 147.21461,114.284296 C138.79661,128.808296 125.83761,140.149296 110.30961,146.582296 Z" id="Path" fill="#113287"></path>
            <path d="M147.57661,44.7352959 C147.21061,44.1317959 146.35661,44.1323959 145.99161,44.7362959 C141.49861,52.1758959 138.81161,64.0722959 138.81161,76.7667959 C138.81161,89.4601959 141.49761,101.355296 145.99061,108.795296 C146.35561,109.400296 147.21061,109.400296 147.57561,108.795296 C152.06861,101.355296 154.75561,89.4601959 154.75561,76.7667959 C154.75561,64.0717959 152.08161,52.1748959 147.57661,44.7352959 Z" id="Path" fill="#D6E4EF" fill-rule="nonzero"></path>
            <path d="M156.74861,38.1966959 C156.58161,38.4162959 156.62361,38.7299959 156.84261,38.8974959 C167.11961,46.7367959 173.45861,60.9636959 173.45861,76.3482959 C173.45861,91.7547959 167.11961,105.959296 156.84261,113.799296 C156.62361,113.966296 156.58161,114.280296 156.74861,114.500296 C156.91661,114.719296 157.22961,114.761296 157.44961,114.594296 C168.02061,106.530296 174.45861,92.0024959 174.45861,76.3482959 C174.45861,60.7161959 168.02061,46.1668959 157.44961,38.1023959 C157.22961,37.9349959 156.91661,37.9771959 156.74861,38.1966959 Z" id="Path" fill="#113287"></path>
        </g>
        <g id="eyeParts1" transform="translate(99.000000, 10.000000)" fill="#979797">
            <path d="M197.438664,15.81833 L197.438664,16.83913 L196.438664,16.83913 L196.438664,15.81833 L197.438664,15.81833 Z M197.438664,18.88053 L197.438664,20.92203 L196.438664,20.92203 L196.438664,18.88053 L197.438664,18.88053 Z M197.438664,22.96353 L197.438664,25.00493 L196.438664,25.00493 L196.438664,22.96353 L197.438664,22.96353 Z M197.438664,27.04643 L197.438664,29.08793 L196.438664,29.08793 L196.438664,27.04643 L197.438664,27.04643 Z M197.438664,31.12933 L197.438664,33.17083 L196.438664,33.17083 L196.438664,31.12933 L197.438664,31.12933 Z M197.438664,35.21233 L197.438664,37.25373 L196.438664,37.25373 L196.438664,35.21233 L197.438664,35.21233 Z M197.438664,39.29523 L197.438664,41.33673 L196.438664,41.33673 L196.438664,39.29523 L197.438664,39.29523 Z M197.438664,43.37823 L197.438664,45.41963 L196.438664,45.41963 L196.438664,43.37823 L197.438664,43.37823 Z M197.438664,47.46113 L197.438664,49.50263 L196.438664,49.50263 L196.438664,47.46113 L197.438664,47.46113 Z M197.438664,51.54403 L197.438664,53.58553 L196.438664,53.58553 L196.438664,51.54403 L197.438664,51.54403 Z M197.438664,55.62703 L197.438664,57.14773 L195.840664,57.14773 L195.840664,56.14773 L196.438664,56.14773 L196.438664,55.62703 L197.438664,55.62703 Z M184.865664,57.14773 L183.768664,57.14773 L183.768664,56.14773 L184.865664,56.14773 L184.865664,57.14773 Z M189.255664,57.14773 L187.060664,57.14773 L187.060664,56.14773 L189.255664,56.14773 L189.255664,57.14773 Z M193.645664,57.14773 L191.450664,57.14773 L191.450664,56.14773 L193.645664,56.14773 L193.645664,57.14773 Z" id="Shape"></path>
            <path d="M195.637664,-8.8817842e-16 L194.802664,-8.8817842e-16 L194.802664,4.60547 L195.637664,4.60547 L195.637664,2.64551 L196.780664,2.64551 L196.780664,1.94238 L195.637664,1.94238 L195.637664,-8.8817842e-16 Z M189.406664,3.89355 L189.748664,4.53516 C192.086664,3.93311 193.453664,2.50928 193.457664,0.4834 L189.784664,0.4834 L189.784664,1.16016 L192.561664,1.16016 C192.416664,2.39941 191.295664,3.39697 189.406664,3.89355 Z M190.434664,5.625 L194.802664,5.625 L194.802664,7.875 L195.637664,7.875 L195.637664,4.94824 L190.434664,4.94824 L190.434664,5.625 Z" id="Shape" fill-rule="nonzero"></path>
            <path d="M201.218664,0.58008 L197.535664,0.58008 L197.535664,4.12207 L201.218664,4.12207 L201.218664,0.58008 Z M198.212664,5.73047 L202.580664,5.73047 L202.580664,7.88379 L203.415664,7.88379 L203.415664,5.0625 L198.212664,5.0625 L198.212664,5.73047 Z M198.353664,3.4541 L198.353664,1.23926 L200.401664,1.23926 L200.401664,3.4541 L198.353664,3.4541 Z M202.580664,4.66699 L203.415664,4.66699 L203.415664,2.68945 L204.558664,2.68945 L204.558664,1.99512 L203.415664,1.99512 L203.415664,-8.8817842e-16 L202.580664,-8.8817842e-16 L202.580664,4.66699 Z" id="Shape" fill-rule="nonzero"></path>
            <path d="M154.443664,0.69434 L154.443664,0.26367 L153.573664,0.26367 L153.573664,0.69434 C153.569664,1.75342 152.294664,2.72022 150.752664,2.92676 L151.086664,3.61231 C152.365664,3.40576 153.494664,2.73779 154.008664,1.81055 C154.522664,2.73779 155.652664,3.40576 156.939664,3.61231 L157.264664,2.92676 C155.718664,2.72022 154.439664,1.74023 154.443664,0.69434 Z M150.409664,5.07129 L153.573664,5.07129 L153.573664,7.875 L154.390664,7.875 L154.390664,5.07129 L157.590664,5.07129 L157.590664,4.38574 L150.409664,4.38574 L150.409664,5.07129 Z" id="Shape" fill-rule="nonzero"></path>
            <path d="M164.753664,-8.8817842e-16 L163.918664,-8.8817842e-16 L163.918664,2.00391 L162.450664,2.00391 L162.450664,2.68945 L163.918664,2.68945 L163.918664,4.68457 L164.753664,4.68457 L164.753664,-8.8817842e-16 Z M158.187664,3.97266 L158.627664,4.64063 C159.567664,4.29346 160.257664,3.58594 160.600664,2.70703 C160.943664,3.48486 161.593664,4.11768 162.476664,4.4209 L162.907664,3.76172 C161.716664,3.35742 161.004664,2.38623 161.009664,1.38867 L161.009664,1.22168 L162.696664,1.22168 L162.696664,0.54492 L158.451664,0.54492 L158.451664,1.22168 L160.156664,1.22168 L160.156664,1.39746 C160.160664,2.48291 159.409664,3.54639 158.187664,3.97266 Z M159.453652,6.38965 C159.449664,7.32568 160.459664,7.87061 162.116664,7.875 C163.764664,7.87061 164.775664,7.32568 164.779664,6.38965 C164.775664,5.45361 163.764664,4.90869 162.116664,4.9043 C160.459664,4.90869 159.449664,5.45361 159.453652,6.38965 Z M160.279647,6.38965 C160.275664,5.85352 160.960664,5.55029 162.116664,5.55469 C163.263664,5.55029 163.949664,5.85352 163.953664,6.38965 C163.949664,6.92139 163.263664,7.22461 162.116664,7.21582 C160.960664,7.22461 160.275664,6.92139 160.279647,6.38965 Z" id="Shape" fill-rule="nonzero"></path>
            <path d="M168.321664,2.41699 L168.321664,2.10059 L169.719664,2.10059 L169.719664,1.41504 L168.321664,1.41504 L168.321664,0.28125 L167.539664,0.28125 L167.539664,1.41504 L166.115664,1.41504 L166.115664,2.10059 L167.539664,2.10059 L167.539664,2.41699 C167.530664,3.68701 166.968664,5.03613 165.878664,5.66895 L166.370664,6.30176 C167.130664,5.84473 167.658664,5.02295 167.939664,4.06934 C168.224664,4.96143 168.752664,5.71289 169.516664,6.11719 L169.982664,5.50195 C168.897664,4.91748 168.321664,3.65625 168.321664,2.41699 Z M169.200664,3.76172 L170.334664,3.76172 L170.334664,7.47949 L171.125664,7.47949 L171.125664,0.16699 L170.334664,0.16699 L170.334664,3.06738 L169.200664,3.06738 L169.200664,3.76172 Z M171.925664,7.875 L172.724664,7.875 L172.724664,-8.8817842e-16 L171.925664,-8.8817842e-16 L171.925664,7.875 Z" id="Shape" fill-rule="nonzero"></path>
            <path d="M3.682614,0.58887 L7.10542736e-15,0.58887 L7.10542736e-15,4.0166 L3.682614,4.0166 L3.682614,0.58887 Z M0.694334,6.36328 C0.694334,7.31689 1.713864,7.87061 3.339844,7.875 C4.948244,7.87061 5.950194,7.31689 5.950194,6.36328 C5.950194,5.43164 4.948244,4.86914 3.339844,4.86914 C1.713864,4.86914 0.694334,5.43164 0.694334,6.36328 Z M0.817384,3.33984 L0.817384,1.25684 L2.865234,1.25684 L2.865234,3.33984 L0.817384,3.33984 Z M1.52927277,6.36328 C1.524904,5.84033 2.201664,5.5415 3.339844,5.53711 C4.469234,5.5415 5.137204,5.84033 5.1328355,6.36328 C5.137204,6.9082 4.469234,7.19824 3.339844,7.20703 C2.201664,7.19824 1.524904,6.9082 1.52927277,6.36328 Z M5.044924,4.62305 L5.879884,4.62305 L5.879884,2.59277 L7.022464,2.59277 L7.022464,1.90723 L5.879884,1.90723 L5.879884,-8.8817842e-16 L5.044924,-8.8817842e-16 L5.044924,4.62305 Z" id="Shape" fill-rule="nonzero"></path>
            <path d="M11.460964,0.58008 L7.778324,0.58008 L7.778324,4.12207 L11.460964,4.12207 L11.460964,0.58008 Z M8.455074,5.73047 L12.823264,5.73047 L12.823264,7.88379 L13.658164,7.88379 L13.658164,5.0625 L8.455074,5.0625 L8.455074,5.73047 Z M8.595704,3.4541 L8.595704,1.23926 L10.643564,1.23926 L10.643564,3.4541 L8.595704,3.4541 Z M12.823264,4.66699 L13.658164,4.66699 L13.658164,2.68945 L14.800764,2.68945 L14.800764,1.99512 L13.658164,1.99512 L13.658164,-8.8817842e-16 L12.823264,-8.8817842e-16 L12.823264,4.66699 Z" id="Shape" fill-rule="nonzero"></path>
            <path d="M162.286664,15.81833 L162.286664,16.83913 L161.286664,16.83913 L161.286664,15.81833 L162.286664,15.81833 Z M162.286664,18.88053 L162.286664,20.92203 L161.286664,20.92203 L161.286664,18.88053 L162.286664,18.88053 Z M162.286664,22.96353 L162.286664,25.00493 L161.286664,25.00493 L161.286664,22.96353 L162.286664,22.96353 Z M162.286664,27.04643 L162.286664,29.08793 L161.286664,29.08793 L161.286664,27.04643 L162.286664,27.04643 Z M162.286664,31.12933 L162.286664,33.17083 L161.286664,33.17083 L161.286664,31.12933 L162.286664,31.12933 Z M162.286664,35.21233 L162.286664,37.25373 L161.286664,37.25373 L161.286664,35.21233 L162.286664,35.21233 Z M162.286664,39.29523 L162.286664,41.33673 L161.286664,41.33673 L161.286664,39.29523 L162.286664,39.29523 Z M162.286664,43.37823 L162.286664,45.41963 L161.286664,45.41963 L161.286664,43.37823 L162.286664,43.37823 Z M162.286664,47.46113 L162.286664,49.50263 L161.286664,49.50263 L161.286664,47.46113 L162.286664,47.46113 Z M162.286664,51.54403 L162.286664,53.58553 L161.286664,53.58553 L161.286664,51.54403 L162.286664,51.54403 Z M162.286664,55.62703 L162.286664,57.14773 L160.605664,57.14773 L160.605664,56.14773 L161.286664,56.14773 L161.286664,55.62703 L162.286664,55.62703 Z M158.241664,57.14773 L157.060664,57.14773 L157.060664,56.14773 L158.241664,56.14773 L158.241664,57.14773 Z" id="Shape"></path>
            <path d="M6.681114,15.81833 L6.681114,16.76783 L7.681114,16.76783 L7.681114,15.81833 L6.681114,15.81833 Z M6.681114,18.66683 L6.681114,20.56583 L7.681114,20.56583 L7.681114,18.66683 L6.681114,18.66683 Z M6.681114,22.46483 L6.681114,24.36383 L7.681114,24.36383 L7.681114,22.46483 L6.681114,22.46483 Z M6.681114,26.26283 L6.681114,28.16183 L7.681114,28.16183 L7.681114,26.26283 L6.681114,26.26283 Z M6.681114,30.06083 L6.681114,31.95983 L7.681114,31.95983 L7.681114,30.06083 L6.681114,30.06083 Z M6.681114,33.85883 L6.681114,35.75783 L7.681114,35.75783 L7.681114,33.85883 L6.681114,33.85883 Z M6.681114,37.65683 L6.681114,39.55583 L7.681114,39.55583 L7.681114,37.65683 L6.681114,37.65683 Z M6.681114,41.45483 L6.681114,42.90433 L8.120204,42.90433 L8.120204,41.90433 L7.681114,41.90433 L7.681114,41.45483 L6.681114,41.45483 Z M17.511064,42.90423 L18.450164,42.90423 L18.450164,41.90423 L17.511064,41.90423 L17.511064,42.90423 Z M13.754764,42.90433 L15.632964,42.90433 L15.632964,41.90433 L13.754764,41.90433 L13.754764,42.90433 Z M9.998364,42.90433 L11.876564,42.90433 L11.876564,41.90433 L9.998364,41.90433 L9.998364,42.90433 Z" id="Shape"></path>
        </g>
        <g id="indicatorRightUp" transform="translate(294.000000, 80.000000)" fill-rule="nonzero">
            <polygon id="Path" fill="#FFB341" points="0 6.03677915 9.77066131 0 19.5361013 6.03676915 19.5361013 20.9999991 1.30813e-06 20.9999991"></polygon>
            <path d="M7.05518131,15.9130991 L8.45166131,15.9130991 L8.45166131,13.0663991 L9.91260131,13.0663991 L11.4380013,15.9130991 L12.9956013,15.9130991 L11.3145013,12.8300991 C12.2275013,12.4594991 12.7109013,11.6752991 12.7163013,10.6171991 C12.7109013,9.13476915 11.7603013,8.13573915 9.97705131,8.13573915 L7.05518131,8.13573915 L7.05518131,15.9130991 Z M8.45166131,11.8954991 L8.45166131,9.30663915 L9.76221131,9.30663915 C10.8149013,9.30663915 11.2876013,9.79003915 11.2876013,10.6171991 C11.2876013,11.4496991 10.8149013,11.9008991 9.76221131,11.8954991 L8.45166131,11.8954991 Z" id="Shape" fill="#113287"></path>
        </g>
    </g>
</svg>