<svg width="593" height="74" viewBox="0 0 593 74" fill="none" xmlns="http://www.w3.org/2000/svg">
<rect width="593" height="74" fill="#727272"/>
<path d="M-340 -664C-340 -665.105 -339.105 -666 -338 -666H2975C2976.1 -666 2977 -665.105 2977 -664V1306C2977 1307.1 2976.1 1308 2975 1308H-338C-339.105 1308 -340 1307.1 -340 1306V-664Z" fill="white"/>
<path d="M-338 -665H2975V-667H-338V-665ZM2976 -664V1306H2978V-664H2976ZM2975 1307H-338V1309H2975V1307ZM-339 1306V-664H-341V1306H-339ZM-338 1307C-338.552 1307 -339 1306.55 -339 1306H-341C-341 1307.66 -339.657 1309 -338 1309V1307ZM2976 1306C2976 1306.55 2975.55 1307 2975 1307V1309C2976.66 1309 2978 1307.66 2978 1306H2976ZM2975 -665C2975.55 -665 2976 -664.552 2976 -664H2978C2978 -665.657 2976.66 -667 2975 -667V-665ZM-338 -667C-339.657 -667 -341 -665.657 -341 -664H-339C-339 -664.552 -338.552 -665 -338 -665V-667Z" fill="black" fill-opacity="0.1"/>
<path fill-rule="evenodd" clip-rule="evenodd" d="M111.957 40.0133V12.5232H112.777V40.0133H111.957Z" fill="#979797"/>
<path d="M6.18832 15.9041H29.8162V35.5887H6.18832L0 25.7464L6.18832 15.9041Z" fill="#001A5B"/>
<path d="M292.134 62.8017C293.255 62.8088 294.002 62.0339 294.002 61.021C294.002 60.0227 293.252 59.309 292.322 59.3054C291.756 59.309 291.266 59.5685 290.981 60.0119H290.924C290.924 58.8333 291.392 58.134 292.199 58.1304C292.726 58.134 293.061 58.4404 293.165 58.8657H293.951C293.829 58.0367 293.162 57.4384 292.199 57.4384C290.948 57.4384 290.162 58.4764 290.159 60.293C290.159 62.2213 291.169 62.7944 292.134 62.8017ZM291.017 61.0427C291.024 60.4624 291.511 59.9506 292.149 59.9542C292.776 59.9506 293.23 60.4371 293.23 61.0355C293.23 61.6446 292.758 62.1348 292.127 62.1384C291.485 62.1348 291.02 61.623 291.017 61.0427Z" fill="#001A5B"/>
<path d="M296.662 62.8016C297.869 62.8016 298.575 61.8284 298.579 60.12C298.575 58.4223 297.858 57.4384 296.662 57.4384C295.461 57.4384 294.744 58.4223 294.744 60.12C294.744 61.8284 295.454 62.8016 296.662 62.8016ZM295.537 60.12C295.537 58.8224 295.959 58.1124 296.662 58.1088C297.36 58.1124 297.786 58.8224 297.786 60.12C297.786 61.4211 297.364 62.1168 296.662 62.1168C295.955 62.1168 295.533 61.4211 295.537 60.12Z" fill="#001A5B"/>
<path d="M301.167 62.7296C302.756 62.7296 303.672 61.742 303.676 60.1128C303.672 58.4873 302.756 57.5105 301.217 57.5105H299.473V62.7296H301.167ZM300.265 62.0376V58.2025H301.167C302.306 58.2025 302.89 58.8837 302.89 60.1128C302.89 61.3455 302.306 62.0339 301.123 62.0376H300.265Z" fill="#001A5B"/>
<path d="M275.659 66.5807H275.153V69.9511H273.973V70.3163H275.153V70.9059H275.659V66.5807ZM270.93 69.2206L271 69.6307C271.478 69.6307 272.025 69.6307 272.602 69.6084V70.7072H273.108V69.5827C273.631 69.5507 274.166 69.4994 274.672 69.4193L274.64 69.0541C273.419 69.2046 271.99 69.2142 270.93 69.2206ZM271.391 67.8045C271.388 68.4132 271.958 68.7914 272.801 68.7914C273.637 68.7914 274.207 68.4132 274.21 67.8045C274.207 67.2054 273.637 66.8113 272.801 66.8113C271.958 66.8113 271.388 67.2054 271.391 67.8045ZM271.75 72.149H275.8V71.7261H272.256V70.483H271.75V72.149ZM271.872 67.8045C271.866 67.4393 272.244 67.1894 272.801 67.1958C273.343 67.1894 273.727 67.4393 273.73 67.8045C273.727 68.1762 273.343 68.4164 272.801 68.4196C272.244 68.4164 271.866 68.1762 271.872 67.8045Z" fill="#001A5B"/>
<path d="M280.304 68.1057V67.0676H279.805V68.1057C279.798 69.1854 279.096 70.2748 278.247 70.6624L278.568 71.0853C279.234 70.7489 279.795 70.028 280.057 69.1694C280.33 69.98 280.891 70.656 281.541 70.97L281.849 70.5727C281.009 70.1914 280.301 69.147 280.304 68.1057ZM282.47 72.2836H282.977V66.5742H282.47V72.2836Z" fill="#001A5B"/>
<path d="M314.862 67.7405H310.991V68.1506H314.361V68.1826C314.365 68.6664 314.365 69.2271 314.211 70.0153H310.331V70.4382H315.547V70.0153H314.711C314.862 69.2399 314.862 68.6632 314.862 68.1826V67.7405ZM311.023 72.9628H315.035V72.5399H311.523V71.0789H311.023V72.9628Z" fill="#001A5B"/>
<path d="M319.674 68.9259V67.8878H319.174V68.9259C319.168 70.0056 318.466 71.095 317.617 71.4826L317.937 71.9055C318.603 71.5691 319.164 70.8482 319.427 69.9896C319.699 70.8002 320.26 71.4762 320.911 71.7902L321.218 71.3929C320.378 71.0116 319.67 69.9672 319.674 68.9259ZM321.84 73.1038H322.346V67.3944H321.84V73.1038Z" fill="#001A5B"/>
<path d="M70.563 63.6218C71.6516 63.6218 72.4229 62.883 72.4229 61.8557C72.4229 60.8501 71.6984 60.122 70.7144 60.1185C70.3179 60.122 69.9503 60.2626 69.734 60.4716H69.6836L69.8566 59.0083H72.1561V58.3307H69.2006L68.8617 61.2358H69.6115C69.7881 60.915 70.1089 60.7745 70.527 60.7745C71.183 60.7816 71.6516 61.2429 71.6516 61.8774C71.6516 62.4973 71.1974 62.955 70.563 62.9586C70.0368 62.955 69.6115 62.6306 69.5682 62.1873H68.7969C68.833 63.0199 69.5754 63.6218 70.563 63.6218Z" fill="#001A5B"/>
<path d="M73.1511 62.5334H75.6886V63.5497H76.4383V62.5334H77.1519V61.8629H76.4383V58.3307H75.4579L73.1511 61.8918V62.5334ZM73.9873 61.8629V61.8197L75.6309 59.275H75.6886V61.8629H73.9873Z" fill="#001A5B"/>
<path d="M79.7182 63.5497C81.3077 63.5497 82.2236 62.5621 82.2269 60.933C82.2236 59.3075 81.3077 58.3307 79.7687 58.3307H78.0242V63.5497H79.7182ZM78.8171 62.8577V59.0227H79.7182C80.8572 59.0227 81.4411 59.7039 81.4411 60.933C81.4411 62.1657 80.8572 62.8541 79.675 62.8577H78.8171Z" fill="#001A5B"/>
<path d="M144.424 63.6218C145.512 63.6218 146.284 62.883 146.284 61.8557C146.284 60.8501 145.559 60.122 144.576 60.1185C144.179 60.122 143.811 60.2626 143.595 60.4716H143.545L143.718 59.0083H146.017V58.3307H143.062L142.723 61.2358H143.472C143.649 60.915 143.969 60.7745 144.388 60.7745C145.044 60.7816 145.512 61.2429 145.512 61.8774C145.512 62.4973 145.058 62.955 144.424 62.9586C143.897 62.955 143.472 62.6306 143.429 62.1873H142.658C142.694 63.0199 143.436 63.6218 144.424 63.6218Z" fill="#001A5B"/>
<path d="M149.016 63.6218C150.137 63.629 150.883 62.8541 150.883 61.8412C150.883 60.8429 150.133 60.1292 149.203 60.1256C148.637 60.1292 148.148 60.3887 147.862 60.8321H147.805C147.805 59.6535 148.273 58.9542 149.081 58.9505C149.607 58.9542 149.942 59.2606 150.046 59.6858H150.832C150.71 58.8569 150.043 58.2585 149.081 58.2585C147.83 58.2585 147.044 59.2966 147.04 61.1131C147.04 63.0415 148.05 63.6146 149.016 63.6218ZM147.898 61.8629C147.906 61.2826 148.392 60.7708 149.03 60.7744C149.658 60.7708 150.112 61.2573 150.112 61.8557C150.112 62.4648 149.639 62.955 149.009 62.9586C148.367 62.955 147.902 62.4432 147.898 61.8629Z" fill="#001A5B"/>
<path d="M153.493 63.5497C155.082 63.5497 155.997 62.5621 156.001 60.933C155.997 59.3075 155.082 58.3307 153.543 58.3307H151.798V63.5497H153.493ZM152.591 62.8577V59.0227H153.493C154.631 59.0227 155.215 59.7039 155.215 60.933C155.215 62.1657 154.631 62.8541 153.449 62.8577H152.591Z" fill="#001A5B"/>
<path d="M218.259 63.6218C219.348 63.6218 220.119 62.883 220.119 61.8557C220.119 60.8501 219.394 60.122 218.411 60.1185C218.014 60.122 217.647 60.2626 217.43 60.4716H217.38L217.553 59.0083H219.852V58.3307H216.897L216.558 61.2358H217.308C217.484 60.915 217.805 60.7745 218.223 60.7745C218.879 60.7816 219.348 61.2429 219.348 61.8774C219.348 62.4973 218.893 62.955 218.259 62.9586C217.733 62.955 217.308 62.6306 217.264 62.1873H216.493C216.529 63.0199 217.272 63.6218 218.259 63.6218Z" fill="#001A5B"/>
<path d="M222.786 63.6218C223.904 63.6218 224.7 63.0091 224.704 62.1585C224.7 61.4881 224.217 60.9402 223.608 60.8464V60.8176C224.134 60.6951 224.499 60.2193 224.502 59.6498C224.499 58.8461 223.77 58.2585 222.786 58.2585C221.788 58.2585 221.064 58.8461 221.064 59.6498C221.064 60.2193 221.42 60.6951 221.958 60.8176V60.8464C221.341 60.9402 220.862 61.4881 220.869 62.1585C220.862 63.0091 221.651 63.6218 222.786 63.6218ZM221.676 62.1007C221.666 61.5638 222.137 61.1709 222.786 61.1709C223.428 61.1709 223.897 61.5638 223.897 62.1007C223.897 62.6126 223.464 62.9658 222.786 62.9658C222.098 62.9658 221.666 62.6126 221.676 62.1007ZM221.835 59.7219C221.839 59.2353 222.214 58.9037 222.786 58.9073C223.345 58.9037 223.727 59.2353 223.724 59.7219C223.727 60.2121 223.331 60.5473 222.786 60.5437C222.227 60.5473 221.839 60.2085 221.835 59.7219Z" fill="#001A5B"/>
<path d="M227.292 63.5497C228.882 63.5497 229.797 62.5621 229.8 60.933C229.797 59.3075 228.882 58.3307 227.342 58.3307H225.598V63.5497H227.292ZM226.391 62.8577V59.0227H227.292C228.431 59.0227 229.015 59.7039 229.015 60.933C229.015 62.1657 228.431 62.8541 227.249 62.8577H226.391Z" fill="#001A5B"/>
<path d="M365.926 62.8017C367.047 62.8088 367.794 62.0339 367.794 61.021C367.794 60.0227 367.044 59.309 366.114 59.3054C365.548 59.309 365.058 59.5685 364.773 60.0119H364.716C364.716 58.8333 365.184 58.134 365.992 58.1304C366.518 58.134 366.853 58.4404 366.957 58.8657H367.743C367.621 58.0367 366.954 57.4384 365.992 57.4384C364.741 57.4384 363.955 58.4764 363.951 60.293C363.951 62.2213 364.961 62.7944 365.926 62.8017ZM364.809 61.0427C364.816 60.4624 365.303 59.9506 365.941 59.9542C366.568 59.9506 367.022 60.4371 367.022 61.0355C367.022 61.6446 366.55 62.1348 365.92 62.1384C365.277 62.1348 364.813 61.623 364.809 61.0427Z" fill="#001A5B"/>
<path d="M370.49 62.8016C371.571 62.8016 372.374 62.1637 372.371 61.295C372.374 60.6354 371.96 60.1561 371.247 60.0551V60.0191C371.809 59.8785 372.177 59.4532 372.169 58.8584C372.177 58.0871 371.531 57.4384 370.504 57.4384C369.531 57.4384 368.745 58.015 368.724 58.8657H369.487C369.505 58.3935 369.975 58.1016 370.497 58.1016C371.048 58.1016 371.405 58.4259 371.405 58.9017C371.405 59.4027 370.991 59.7343 370.396 59.7307H369.949V60.3795H370.396C371.142 60.3831 371.571 60.7507 371.571 61.2662C371.571 61.7744 371.113 62.1168 370.482 62.1168C369.898 62.1168 369.445 61.8248 369.415 61.3671H368.608C368.641 62.2213 369.409 62.8016 370.49 62.8016Z" fill="#001A5B"/>
<path d="M375.01 62.7296C376.599 62.7296 377.515 61.742 377.518 60.1128C377.515 58.4873 376.599 57.5105 375.06 57.5105H373.315V62.7296H375.01ZM374.108 62.0376V58.2025H375.01C376.148 58.2025 376.732 58.8837 376.732 60.1128C376.732 61.3455 376.148 62.0339 374.966 62.0376H374.108Z" fill="#001A5B"/>
<path d="M439.748 62.8017C440.869 62.8088 441.615 62.0339 441.615 61.021C441.615 60.0227 440.865 59.309 439.935 59.3054C439.369 59.309 438.879 59.5685 438.595 60.0119H438.536C438.536 58.8333 439.005 58.134 439.813 58.1304C440.339 58.134 440.674 58.4404 440.779 58.8657H441.564C441.441 58.0367 440.775 57.4384 439.813 57.4384C438.562 57.4384 437.776 58.4764 437.773 60.293C437.773 62.2213 438.782 62.7944 439.748 62.8017ZM438.631 61.0427C438.637 60.4624 439.124 59.9506 439.762 59.9542C440.389 59.9506 440.844 60.4371 440.844 61.0355C440.844 61.6446 440.371 62.1348 439.74 62.1384C439.099 62.1348 438.634 61.623 438.631 61.0427Z" fill="#001A5B"/>
<path d="M444.346 62.8017C445.468 62.8088 446.214 62.0339 446.214 61.021C446.214 60.0227 445.464 59.309 444.534 59.3054C443.968 59.309 443.478 59.5685 443.193 60.0119H443.136C443.136 58.8333 443.604 58.134 444.411 58.1304C444.938 58.134 445.273 58.4404 445.377 58.8657H446.163C446.041 58.0367 445.374 57.4384 444.411 57.4384C443.16 57.4384 442.375 58.4764 442.371 60.293C442.371 62.2213 443.381 62.7944 444.346 62.8017ZM443.229 61.0427C443.237 60.4624 443.723 59.9506 444.361 59.9542C444.989 59.9506 445.442 60.4371 445.442 61.0355C445.442 61.6446 444.971 62.1348 444.34 62.1384C443.698 62.1348 443.233 61.623 443.229 61.0427Z" fill="#001A5B"/>
<path d="M448.823 62.7296C450.413 62.7296 451.329 61.742 451.332 60.1128C451.329 58.4873 450.413 57.5105 448.874 57.5105H447.129V62.7296H448.823ZM447.923 62.0376V58.2025H448.823C449.962 58.2025 450.546 58.8837 450.546 60.1128C450.546 61.3455 449.962 62.0339 448.78 62.0376H447.923Z" fill="#001A5B"/>
<path d="M513.565 62.8017C514.686 62.8089 515.432 62.034 515.432 61.0211C515.432 60.0227 514.682 59.3091 513.752 59.3054C513.186 59.3091 512.697 59.5686 512.412 60.0119H512.354C512.354 58.8333 512.823 58.134 513.63 58.1304C514.157 58.134 514.491 58.4404 514.596 58.8657H515.382C515.259 58.0367 514.592 57.4384 513.63 57.4384C512.379 57.4384 511.593 58.4765 511.59 60.293C511.59 62.2214 512.599 62.7945 513.565 62.8017ZM512.448 61.0428C512.455 60.4624 512.942 59.9506 513.579 59.9542C514.206 59.9506 514.661 60.4372 514.661 61.0356C514.661 61.6447 514.188 62.1349 513.558 62.1385C512.916 62.1349 512.451 61.6231 512.448 61.0428Z" fill="#001A5B"/>
<path d="M518.07 57.4384C516.935 57.4312 516.196 58.2098 516.196 59.2047C516.196 60.203 516.946 60.9203 517.883 60.9203C518.445 60.9203 518.936 60.6536 519.217 60.2138H519.282C519.274 61.4069 518.802 62.1062 517.998 62.1097C517.473 62.1062 517.133 61.7997 517.026 61.36H516.24C516.365 62.2071 517.036 62.8018 517.998 62.8018C519.249 62.8018 520.038 61.7637 520.038 59.9327C520.035 58.0223 519.029 57.4457 518.07 57.4384ZM516.967 59.1902C516.964 58.5919 517.44 58.1017 518.07 58.1017C518.709 58.1017 519.174 58.6171 519.174 59.183C519.174 59.7597 518.687 60.2751 518.056 60.2715C517.422 60.2751 516.971 59.7958 516.967 59.1902Z" fill="#001A5B"/>
<path d="M522.64 62.7296C524.23 62.7296 525.146 61.742 525.149 60.1129C525.146 58.4873 524.23 57.5105 522.691 57.5105H520.947V62.7296H522.64ZM521.74 62.0376V58.2026H522.64C523.78 58.2026 524.364 58.8837 524.364 60.1129C524.364 61.3456 523.78 62.034 522.598 62.0376H521.74Z" fill="#001A5B"/>
<path fill-rule="evenodd" clip-rule="evenodd" d="M38.1389 40.0133V12.5232H38.9591V40.0133H38.1389Z" fill="#979797"/>
<path fill-rule="evenodd" clip-rule="evenodd" d="M185.774 40.0133V12.5232H186.594V40.0133H185.774Z" fill="#979797"/>
<path fill-rule="evenodd" clip-rule="evenodd" d="M259.591 40.0133V12.5232H260.411V40.0133H259.591Z" fill="#979797"/>
<path fill-rule="evenodd" clip-rule="evenodd" d="M321.106 40.0133V12.5232H321.926V40.0133H321.106Z" fill="#979797"/>
<path fill-rule="evenodd" clip-rule="evenodd" d="M345.712 40.0133V12.5232H346.532V40.0133H345.712Z" fill="#979797"/>
<path fill-rule="evenodd" clip-rule="evenodd" d="M394.923 40.0133V12.5232H395.744V40.0133H394.923Z" fill="#979797"/>
<path fill-rule="evenodd" clip-rule="evenodd" d="M419.529 40.0133V12.5232H420.349V40.0133H419.529Z" fill="#979797"/>
<path fill-rule="evenodd" clip-rule="evenodd" d="M468.741 40.0133V12.5232H469.561V40.0133H468.741Z" fill="#979797"/>
<path fill-rule="evenodd" clip-rule="evenodd" d="M493.346 40.0133V12.5232H494.167V40.0133H493.346Z" fill="#979797"/>
<path fill-rule="evenodd" clip-rule="evenodd" d="M542.558 40.0133V12.5232H543.378V40.0133H542.558Z" fill="#979797"/>
<path fill-rule="evenodd" clip-rule="evenodd" d="M567.164 40.0133V12.5232H567.984V40.0133H567.164Z" fill="#979797"/>
<path d="M296.91 15.9041H223.093V35.5887H296.91V15.9041Z" fill="#E2E6F6"/>
<path d="M223.093 15.9041H149.275V35.5887H223.093V15.9041Z" fill="#5B6EB4"/>
<path d="M149.275 15.9041H75.4578V35.5887H149.275V15.9041Z" fill="#113287"/>
<path d="M75.4579 15.9041H9.02222V35.5887H75.4579V15.9041Z" fill="#001A5B"/>
<path fill-rule="evenodd" clip-rule="evenodd" d="M148.865 52.4924V3.58518e-08L149.685 0V52.4924H148.865Z" fill="#979797"/>
<path fill-rule="evenodd" clip-rule="evenodd" d="M222.683 52.4924V3.58518e-08L223.503 0V52.4924H222.683Z" fill="#979797"/>
<path fill-rule="evenodd" clip-rule="evenodd" d="M75.0476 52.4924V3.58518e-08L75.8678 0V52.4924H75.0476Z" fill="#979797"/>
<path d="M518.362 15.9041H444.545V35.5887H518.362V15.9041Z" fill="#113287"/>
<path d="M444.545 15.9041H370.728V35.5887H444.545V15.9041Z" fill="#5B6EB4"/>
<path d="M370.728 15.9041H296.91V35.5887H370.728V15.9041Z" fill="#E2E6F6"/>
<path fill-rule="evenodd" clip-rule="evenodd" d="M295.68 52.4924V7.17035e-08L297.32 0V52.4924H295.68Z" fill="#113287"/>
<path fill-rule="evenodd" clip-rule="evenodd" d="M271.343 63.1689L268.733 60.559C268.573 60.3989 268.573 60.1393 268.733 59.9791L271.343 57.3692C271.504 57.2091 271.763 57.2091 271.924 57.3692C272.084 57.5294 272.084 57.7891 271.924 57.9492L270.014 59.859H284.607V60.6792H270.014L271.924 62.5889C272.084 62.7491 272.084 63.0087 271.924 63.1689C271.763 63.3291 271.504 63.3291 271.343 63.1689Z" fill="#113287"/>
<path fill-rule="evenodd" clip-rule="evenodd" d="M322.477 57.3692L325.087 59.979C325.247 60.1391 325.247 60.3988 325.087 60.559L322.477 63.1688C322.316 63.3289 322.057 63.3289 321.896 63.1688C321.736 63.0086 321.736 62.749 321.896 62.5888L323.807 60.6791H309.213V59.8589H323.807L321.896 57.9491C321.736 57.7889 321.736 57.5293 321.896 57.3692C322.057 57.209 322.316 57.209 322.477 57.3692Z" fill="#113287"/>
<path d="M586.812 15.9041H563.184V35.5887H586.812L593 25.7464L586.812 15.9041Z" fill="#001A5B"/>
<path d="M518.363 15.9041H583.978V35.5887H518.363V15.9041Z" fill="#001A5B"/>
<path fill-rule="evenodd" clip-rule="evenodd" d="M370.317 52.4924V3.58518e-08L371.138 0V52.4924H370.317Z" fill="#979797"/>
<path fill-rule="evenodd" clip-rule="evenodd" d="M444.135 52.4924V3.58518e-08L444.955 0V52.4924H444.135Z" fill="#979797"/>
<path fill-rule="evenodd" clip-rule="evenodd" d="M517.952 52.4924V3.58518e-08L518.772 0V52.4924H517.952Z" fill="#979797"/>
<path d="M246.141 22.5121V26.7573H245.38V25.8842H243.57V25.2595H245.38V24.3864H243.646C243.181 25.5398 242.104 26.3528 240.55 26.7973L240.246 26.2046C241.944 25.72 242.937 24.8069 243.073 23.6495H240.614V23.0248H243.898C243.898 23.2891 243.87 23.5454 243.822 23.7857H245.38V22.5121H246.141ZM241.359 28.2391C241.359 27.37 242.304 26.8414 243.778 26.8374C245.232 26.8414 246.185 27.37 246.189 28.2391C246.185 29.1121 245.232 29.6488 243.778 29.6488C242.304 29.6488 241.359 29.1121 241.359 28.2391ZM242.112 28.2391C242.112 28.7437 242.753 29.036 243.778 29.04C244.783 29.036 245.424 28.7437 245.428 28.2391C245.424 27.7265 244.783 27.4341 243.778 27.4381C242.753 27.4341 242.112 27.7265 242.112 28.2391ZM253.061 25.8121V26.4209H250.89V28.175H253.814V28.7998H247.246V28.175H250.138V26.4209H248.063V23.0568H252.997V23.6735H248.824V25.8121H253.061ZM258.58 23.1209C259.645 23.1289 260.762 23.7697 260.766 25.8922C260.766 27.9267 259.889 29.0801 258.5 29.0801C257.43 29.0801 256.685 28.4193 256.545 27.4782H257.418C257.538 27.9667 257.915 28.3072 258.5 28.3112C259.393 28.3072 259.917 27.5302 259.925 26.2046H259.853C259.541 26.6932 258.996 26.9896 258.371 26.9896C257.33 26.9896 256.497 26.1926 256.497 25.0833C256.497 23.9779 257.318 23.1129 258.58 23.1209ZM257.354 25.0672C257.358 25.7401 257.859 26.2727 258.564 26.2687C259.265 26.2727 259.805 25.7 259.805 25.0592C259.805 24.4305 259.289 23.8578 258.58 23.8578C257.879 23.8578 257.35 24.4024 257.354 25.0672ZM261.567 27.8706V27.1578L264.13 23.201H265.22V27.1257H266.013V27.8706H265.22V29H264.387V27.8706H261.567ZM262.496 27.1257H264.387V24.2502H264.323L262.496 27.0777V27.1257ZM267.254 29.0561C266.942 29.0521 266.682 28.7998 266.686 28.4874C266.682 28.175 266.942 27.9187 267.254 27.9187C267.563 27.9187 267.819 28.175 267.823 28.4874C267.819 28.7998 267.563 29.0521 267.254 29.0561ZM268.896 29L271.483 24.0019V23.9539H268.496V23.201H272.396V23.9859L269.817 29H268.896ZM274.615 25.9563C273.822 25.9643 273.39 25.3756 273.398 24.5146C273.39 23.6655 273.842 23.0768 274.615 23.0808C275.412 23.0768 275.829 23.6655 275.833 24.5146C275.829 25.3796 275.396 25.9643 274.615 25.9563ZM274.054 29L278.035 23.201H278.764L274.783 29H274.054ZM274.054 24.5146C274.058 25.0472 274.243 25.3916 274.615 25.3956C274.992 25.3916 275.168 25.0472 275.168 24.5146C275.168 23.9939 275.004 23.6375 274.615 23.6415C274.243 23.6495 274.058 23.9979 274.054 24.5146ZM277.058 27.6784C277.054 26.8214 277.503 26.2326 278.276 26.2367C279.069 26.2326 279.489 26.8214 279.493 27.6784C279.489 28.5354 279.057 29.1201 278.276 29.1201C277.487 29.1201 277.054 28.5314 277.058 27.6784ZM277.715 27.6784C277.719 28.203 277.903 28.5515 278.276 28.5515C278.652 28.5515 278.828 28.203 278.828 27.6784C278.828 27.1498 278.664 26.7973 278.276 26.7973C277.907 26.8053 277.719 27.1538 277.715 27.6784Z" fill="#113287"/>
<path d="M175.247 25.8282V26.4449H172.347V27.1337C173.661 27.2058 174.442 27.6464 174.446 28.3993C174.442 29.2123 173.512 29.6688 171.971 29.6648C170.409 29.6688 169.48 29.2123 169.48 28.3993C169.48 27.6464 170.261 27.2018 171.594 27.1337V26.4449H168.703V25.8282H175.247ZM169.047 24.851C170.337 24.7188 171.354 24.1341 171.458 23.4413H169.303V22.8325H174.662V23.4413H172.483C172.587 24.1381 173.597 24.7188 174.91 24.851L174.638 25.4517C173.392 25.3075 172.363 24.7829 171.975 24.022C171.578 24.7829 170.557 25.3075 169.311 25.4517L169.047 24.851ZM170.249 28.3993C170.245 28.8358 170.873 29.0881 171.971 29.0801C173.052 29.0881 173.685 28.8358 173.685 28.3993C173.685 27.9547 173.052 27.7144 171.971 27.7104C170.873 27.7144 170.245 27.9547 170.249 28.3993ZM181.606 25.8121V26.4209H179.436V28.175H182.359V28.7998H175.791V28.175H178.683V26.4209H176.608V23.0568H181.542V23.6735H177.369V25.8121H181.606ZM187.189 29.0801C185.988 29.0801 185.135 28.4353 185.099 27.4862H185.996C186.028 27.9948 186.532 28.3192 187.181 28.3192C187.882 28.3192 188.391 27.9387 188.391 27.374C188.391 26.8013 187.914 26.3928 187.085 26.3888H186.588V25.668H187.085C187.746 25.672 188.206 25.3035 188.206 24.7468C188.206 24.2182 187.81 23.8578 187.197 23.8578C186.616 23.8578 186.096 24.1822 186.076 24.7068H185.227C185.251 23.7617 186.124 23.1209 187.205 23.1209C188.346 23.1209 189.063 23.8418 189.055 24.6988C189.063 25.3596 188.655 25.8322 188.03 25.9884V26.0284C188.823 26.1405 189.284 26.6732 189.28 27.4061C189.284 28.3712 188.391 29.0801 187.189 29.0801ZM190.641 29.0561C190.329 29.0521 190.069 28.7998 190.073 28.4874C190.069 28.175 190.329 27.9187 190.641 27.9187C190.95 27.9187 191.206 28.175 191.21 28.4874C191.206 28.7998 190.95 29.0521 190.641 29.0561ZM194.061 29.0801C192.8 29.0801 191.923 28.3993 191.931 27.4541C191.923 26.7092 192.455 26.1005 193.14 25.9964V25.9643C192.544 25.8282 192.147 25.2995 192.147 24.6668C192.147 23.7737 192.952 23.1209 194.061 23.1209C195.155 23.1209 195.964 23.7737 195.968 24.6668C195.964 25.2995 195.559 25.8282 194.974 25.9643V25.9964C195.651 26.1005 196.188 26.7092 196.192 27.4541C196.188 28.3993 195.303 29.0801 194.061 29.0801ZM192.828 27.39C192.816 27.9587 193.296 28.3512 194.061 28.3512C194.814 28.3512 195.295 27.9587 195.295 27.39C195.295 26.7933 194.774 26.3568 194.061 26.3568C193.341 26.3568 192.816 26.7933 192.828 27.39ZM193.004 24.7468C193.008 25.2875 193.441 25.664 194.061 25.66C194.666 25.664 195.107 25.2915 195.103 24.7468C195.107 24.2062 194.682 23.8377 194.061 23.8418C193.425 23.8377 193.008 24.2062 193.004 24.7468ZM198.435 25.9563C197.642 25.9643 197.209 25.3756 197.217 24.5146C197.209 23.6655 197.662 23.0768 198.435 23.0808C199.232 23.0768 199.648 23.6655 199.652 24.5146C199.648 25.3796 199.216 25.9643 198.435 25.9563ZM197.874 29L201.855 23.201H202.584L198.603 29H197.874ZM197.874 24.5146C197.878 25.0472 198.062 25.3916 198.435 25.3956C198.811 25.3916 198.987 25.0472 198.987 24.5146C198.987 23.9939 198.823 23.6375 198.435 23.6415C198.062 23.6495 197.878 23.9979 197.874 24.5146ZM200.878 27.6784C200.874 26.8214 201.322 26.2326 202.095 26.2367C202.888 26.2326 203.309 26.8214 203.313 27.6784C203.309 28.5354 202.876 29.1201 202.095 29.1201C201.306 29.1201 200.874 28.5314 200.878 27.6784ZM201.534 27.6784C201.538 28.203 201.723 28.5515 202.095 28.5515C202.472 28.5515 202.648 28.203 202.648 27.6784C202.648 27.1498 202.484 26.7973 202.095 26.7973C201.727 26.8053 201.538 27.1538 201.534 27.6784Z" fill="white"/>
<path d="M101.485 23.193V23.8978C101.481 24.7829 101.481 25.7761 101.213 27.2459L100.444 27.1658C100.72 25.7761 100.72 24.7589 100.724 23.8978V23.8097H96.3671V23.193H101.485ZM95.6782 28.7117V28.0789H98.1693V25.5478H98.9222V28.0789H102.222V28.7117H95.6782ZM108.582 25.8121V26.4209H106.411V28.175H109.335V28.7998H102.767V28.175H105.658V26.4209H103.584V23.0568H108.518V23.6735H104.345V25.8121H108.582ZM114.309 23.201V29H113.42V24.082H113.388L112.002 24.9871V24.1461L113.444 23.201H114.309ZM116.023 29.0561C115.711 29.0521 115.45 28.7998 115.454 28.4874C115.45 28.175 115.711 27.9187 116.023 27.9187C116.331 27.9187 116.588 28.175 116.592 28.4874C116.588 28.7998 116.331 29.0521 116.023 29.0561ZM119.491 29.0801C118.394 29.0801 117.569 28.4113 117.529 27.4862H118.386C118.434 27.9788 118.906 28.3392 119.491 28.3432C120.196 28.3392 120.701 27.8306 120.701 27.1417C120.701 26.4369 120.18 25.9243 119.451 25.9163C118.986 25.9163 118.63 26.0725 118.434 26.4289H117.601L117.977 23.201H121.261V23.9539H118.706L118.514 25.5799H118.57C118.81 25.3476 119.219 25.1914 119.659 25.1874C120.753 25.1914 121.558 26.0004 121.558 27.1177C121.558 28.2591 120.701 29.0801 119.491 29.0801ZM123.824 25.9563C123.031 25.9643 122.599 25.3756 122.607 24.5146C122.599 23.6655 123.051 23.0768 123.824 23.0808C124.621 23.0768 125.038 23.6655 125.042 24.5146C125.038 25.3796 124.605 25.9643 123.824 25.9563ZM123.264 29L127.244 23.201H127.973L123.993 29H123.264ZM123.264 24.5146C123.268 25.0472 123.452 25.3916 123.824 25.3956C124.201 25.3916 124.377 25.0472 124.377 24.5146C124.377 23.9939 124.213 23.6375 123.824 23.6415C123.452 23.6495 123.268 23.9979 123.264 24.5146ZM126.267 27.6784C126.263 26.8214 126.712 26.2326 127.485 26.2367C128.278 26.2326 128.698 26.8214 128.702 27.6784C128.698 28.5354 128.266 29.1201 127.485 29.1201C126.696 29.1201 126.263 28.5314 126.267 27.6784ZM126.924 27.6784C126.928 28.203 127.112 28.5515 127.485 28.5515C127.861 28.5515 128.037 28.203 128.037 27.6784C128.037 27.1498 127.873 26.7973 127.485 26.7973C127.116 26.8053 126.928 27.1538 126.924 27.6784Z" fill="white"/>
<path d="M17.5903 28.175V28.7998H11.0223V28.175H13.9218V26.6131H14.6747V28.175H17.5903ZM11.3427 26.2687C12.8165 26.0524 13.8778 25.2194 13.9138 24.2102H11.615V23.5934H13.9218V22.6323H14.6747V23.5934H16.9815V24.2102H14.6827C14.7188 25.2194 15.7801 26.0524 17.2539 26.2687L16.9655 26.8614C15.7641 26.6732 14.7628 26.1045 14.2943 25.2675C13.8297 26.1045 12.8325 26.6732 11.631 26.8614L11.3427 26.2687ZM23.9179 23.193V23.8978C23.9139 24.7829 23.9139 25.7761 23.6456 27.2459L22.8767 27.1658C23.153 25.7761 23.153 24.7589 23.157 23.8978V23.8097H18.7997V23.193H23.9179ZM18.1109 28.7117V28.0789H20.6019V25.5478H21.3548V28.0789H24.6548V28.7117H18.1109ZM31.0145 25.8121V26.4209H28.8439V28.175H31.7674V28.7998H25.1995V28.175H28.091V26.4209H26.0165V23.0568H30.9505V23.6735H26.7774V25.8121H31.0145ZM36.5572 29.0801C35.2156 29.0801 34.4267 27.9988 34.4267 26.1005C34.4267 24.2142 35.2236 23.1209 36.5572 23.1209C37.8869 23.1209 38.6838 24.2142 38.6878 26.1005C38.6838 27.9988 37.8989 29.0801 36.5572 29.0801ZM35.3077 26.1005C35.3037 27.5462 35.7723 28.3192 36.5572 28.3192C37.3382 28.3192 37.8068 27.5462 37.8068 26.1005C37.8068 24.6587 37.3342 23.8698 36.5572 23.8658C35.7763 23.8698 35.3077 24.6587 35.3077 26.1005ZM39.9534 29.0561C39.641 29.0521 39.3807 28.7998 39.3847 28.4874C39.3807 28.175 39.641 27.9187 39.9534 27.9187C40.2617 27.9187 40.518 28.175 40.522 28.4874C40.518 28.7998 40.2617 29.0521 39.9534 29.0561ZM43.0451 23.201V29H42.156V24.082H42.124L40.7383 24.9871V24.1461L42.1801 23.201H43.0451ZM45.8485 25.9563C45.0555 25.9643 44.623 25.3756 44.631 24.5146C44.623 23.6655 45.0756 23.0768 45.8485 23.0808C46.6455 23.0768 47.062 23.6655 47.066 24.5146C47.062 25.3796 46.6294 25.9643 45.8485 25.9563ZM45.2878 29L49.2686 23.201H49.9975L46.0167 29H45.2878ZM45.2878 24.5146C45.2918 25.0472 45.476 25.3916 45.8485 25.3956C46.225 25.3916 46.4012 25.0472 46.4012 24.5146C46.4012 23.9939 46.237 23.6375 45.8485 23.6415C45.476 23.6495 45.2918 23.9979 45.2878 24.5146ZM48.2915 27.6784C48.2875 26.8214 48.736 26.2326 49.5089 26.2367C50.3019 26.2326 50.7224 26.8214 50.7264 27.6784C50.7224 28.5354 50.2899 29.1201 49.5089 29.1201C48.72 29.1201 48.2875 28.5314 48.2915 27.6784ZM48.9483 27.6784C48.9523 28.203 49.1365 28.5515 49.5089 28.5515C49.8854 28.5515 50.0616 28.203 50.0616 27.6784C50.0616 27.1498 49.8974 26.7973 49.5089 26.7973C49.1405 26.8053 48.9523 27.1538 48.9483 27.6784ZM55.372 23.193V27.9107H52.008V23.193H55.372ZM52.7609 27.2939H54.6351V23.7937H52.7609V27.2939ZM56.7898 29.6968V22.5041H57.5507V29.6968H56.7898ZM62.3325 23.1369V26.485H58.9764V23.1369H62.3325ZM59.7213 25.8842H61.5876V23.7536H59.7213V25.8842ZM59.7854 29.5286V27.2539H60.5463V28.9119H64.6393V29.5286H59.7854ZM63.574 27.7585V22.4961H64.3349V24.6427H65.3762V25.2835H64.3349V27.7585H63.574Z" fill="white"/>
<path d="M470.673 23.193V23.8978C470.669 24.7829 470.669 25.7761 470.4 27.2459L469.631 27.1658C469.908 25.7761 469.908 24.7589 469.912 23.8978V23.8097H465.554V23.193H470.673ZM464.866 28.7117V28.0789H467.357V25.5478H468.109V28.0789H471.409V28.7117H464.866ZM477.769 25.8121V26.4209H475.599V28.175H478.522V28.7998H471.954V28.175H474.846V26.4209H472.771V23.0568H477.705V23.6735H473.532V25.8121H477.769ZM481.494 29L484.081 24.0019V23.9539H481.093V23.201H484.994V23.9859L482.415 29H481.494ZM485.45 29.0561C485.138 29.0521 484.878 28.7998 484.882 28.4874C484.878 28.175 485.138 27.9187 485.45 27.9187C485.759 27.9187 486.015 28.175 486.019 28.4874C486.015 28.7998 485.759 29.0521 485.45 29.0561ZM487.092 29L489.68 24.0019V23.9539H486.692V23.201H490.593V23.9859L488.014 29H487.092ZM492.811 25.9563C492.018 25.9643 491.586 25.3756 491.594 24.5146C491.586 23.6655 492.038 23.0768 492.811 23.0808C493.608 23.0768 494.025 23.6655 494.029 24.5146C494.025 25.3796 493.592 25.9643 492.811 25.9563ZM492.251 29L496.232 23.201H496.96L492.98 29H492.251ZM492.251 24.5146C492.255 25.0472 492.439 25.3916 492.811 25.3956C493.188 25.3916 493.364 25.0472 493.364 24.5146C493.364 23.9939 493.2 23.6375 492.811 23.6415C492.439 23.6495 492.255 23.9979 492.251 24.5146ZM495.254 27.6784C495.25 26.8214 495.699 26.2326 496.472 26.2367C497.265 26.2326 497.685 26.8214 497.689 27.6784C497.685 28.5354 497.253 29.1201 496.472 29.1201C495.683 29.1201 495.25 28.5314 495.254 27.6784ZM495.911 27.6784C495.915 28.203 496.099 28.5515 496.472 28.5515C496.848 28.5515 497.024 28.203 497.024 27.6784C497.024 27.1498 496.86 26.7973 496.472 26.7973C496.103 26.8053 495.915 27.1538 495.911 27.6784Z" fill="white"/>
<path d="M394.564 25.8282V26.4449H391.665V27.1337C392.978 27.2058 393.759 27.6464 393.763 28.3993C393.759 29.2123 392.83 29.6688 391.288 29.6648C389.727 29.6688 388.797 29.2123 388.797 28.3993C388.797 27.6464 389.578 27.2018 390.912 27.1337V26.4449H388.02V25.8282H394.564ZM388.365 24.851C389.654 24.7188 390.672 24.1341 390.776 23.4413H388.621V22.8325H393.98V23.4413H391.801C391.905 24.1381 392.914 24.7188 394.228 24.851L393.956 25.4517C392.71 25.3075 391.681 24.7829 391.292 24.022C390.896 24.7829 389.875 25.3075 388.629 25.4517L388.365 24.851ZM389.566 28.3993C389.562 28.8358 390.191 29.0881 391.288 29.0801C392.37 29.0881 393.003 28.8358 393.003 28.3993C393.003 27.9547 392.37 27.7144 391.288 27.7104C390.191 27.7144 389.562 27.9547 389.566 28.3993ZM400.924 25.8121V26.4209H398.753V28.175H401.677V28.7998H395.109V28.175H398.001V26.4209H395.926V23.0568H400.86V23.6735H396.687V25.8121H400.924ZM404.448 29V28.3592L406.459 26.3328C407.096 25.672 407.412 25.3035 407.412 24.7949C407.412 24.2222 406.947 23.8578 406.339 23.8578C405.694 23.8578 405.285 24.2663 405.281 24.883H404.448C404.44 23.8217 405.249 23.1209 406.355 23.1209C407.472 23.1209 408.245 23.8297 408.253 24.7709C408.245 25.4197 407.941 25.9363 406.851 27.0056L405.674 28.199V28.2471H408.349V29H404.448ZM411.297 29.0801C410.199 29.0801 409.374 28.4113 409.334 27.4862H410.191C410.239 27.9788 410.712 28.3392 411.297 28.3432C412.002 28.3392 412.506 27.8306 412.506 27.1417C412.506 26.4369 411.985 25.9243 411.257 25.9163C410.792 25.9163 410.436 26.0725 410.239 26.4289H409.406L409.783 23.201H413.067V23.9539H410.512L410.319 25.5799H410.376C410.616 25.3476 411.024 25.1914 411.465 25.1874C412.558 25.1914 413.363 26.0004 413.363 27.1177C413.363 28.2591 412.506 29.0801 411.297 29.0801ZM414.661 29.0561C414.348 29.0521 414.088 28.7998 414.092 28.4874C414.088 28.175 414.348 27.9187 414.661 27.9187C414.969 27.9187 415.225 28.175 415.229 28.4874C415.225 28.7998 414.969 29.0521 414.661 29.0561ZM416.303 29L418.89 24.0019V23.9539H415.902V23.201H419.803V23.9859L417.224 29H416.303ZM422.022 25.9563C421.229 25.9643 420.796 25.3756 420.804 24.5146C420.796 23.6655 421.249 23.0768 422.022 23.0808C422.819 23.0768 423.235 23.6655 423.239 24.5146C423.235 25.3796 422.803 25.9643 422.022 25.9563ZM421.461 29L425.442 23.201H426.171L422.19 29H421.461ZM421.461 24.5146C421.465 25.0472 421.649 25.3916 422.022 25.3956C422.398 25.3916 422.574 25.0472 422.574 24.5146C422.574 23.9939 422.41 23.6375 422.022 23.6415C421.649 23.6495 421.465 23.9979 421.461 24.5146ZM424.465 27.6784C424.461 26.8214 424.909 26.2326 425.682 26.2367C426.475 26.2326 426.896 26.8214 426.9 27.6784C426.896 28.5354 426.463 29.1201 425.682 29.1201C424.893 29.1201 424.461 28.5314 424.465 27.6784ZM425.121 27.6784C425.125 28.203 425.31 28.5515 425.682 28.5515C426.059 28.5515 426.235 28.203 426.235 27.6784C426.235 27.1498 426.071 26.7973 425.682 26.7973C425.314 26.8053 425.125 27.1538 425.121 27.6784Z" fill="white"/>
<path d="M319.842 22.5121V26.7573H319.081V25.8842H317.271V25.2595H319.081V24.3864H317.347C316.882 25.5398 315.805 26.3528 314.251 26.7973L313.947 26.2046C315.645 25.72 316.638 24.8069 316.774 23.6495H314.315V23.0248H317.599C317.599 23.2891 317.571 23.5454 317.523 23.7857H319.081V22.5121H319.842ZM315.06 28.2391C315.06 27.37 316.005 26.8414 317.479 26.8374C318.933 26.8414 319.886 27.37 319.89 28.2391C319.886 29.1121 318.933 29.6488 317.479 29.6488C316.005 29.6488 315.06 29.1121 315.06 28.2391ZM315.813 28.2391C315.813 28.7437 316.454 29.036 317.479 29.04C318.484 29.036 319.125 28.7437 319.129 28.2391C319.125 27.7265 318.484 27.4341 317.479 27.4381C316.454 27.4341 315.813 27.7265 315.813 28.2391ZM326.762 25.8121V26.4209H324.592V28.175H327.515V28.7998H320.947V28.175H323.839V26.4209H321.764V23.0568H326.698V23.6735H322.525V25.8121H326.762ZM332.385 29.0801C331.312 29.0721 330.19 28.4353 330.19 26.2927C330.194 24.2743 331.068 23.1209 332.457 23.1209C333.526 23.1209 334.267 23.7857 334.404 24.7068H333.53C333.414 24.2342 333.042 23.8938 332.457 23.8898C331.56 23.8938 331.039 24.6708 331.039 25.9803H331.104C331.42 25.4877 331.965 25.1994 332.593 25.1954C333.627 25.1994 334.46 25.9924 334.46 27.1017C334.46 28.2271 333.631 29.0881 332.385 29.0801ZM331.144 27.1257C331.148 27.7705 331.664 28.3392 332.377 28.3432C333.078 28.3392 333.603 27.7945 333.603 27.1177C333.603 26.4529 333.098 25.9123 332.401 25.9163C331.692 25.9123 331.152 26.4809 331.144 27.1257ZM337.367 29.0801C336.27 29.0801 335.445 28.4113 335.405 27.4862H336.262C336.31 27.9788 336.782 28.3392 337.367 28.3432C338.072 28.3392 338.577 27.8306 338.577 27.1417C338.577 26.4369 338.056 25.9243 337.327 25.9163C336.863 25.9163 336.506 26.0725 336.31 26.4289H335.477L335.853 23.201H339.137V23.9539H336.582L336.39 25.5799H336.446C336.686 25.3476 337.095 25.1914 337.535 25.1874C338.629 25.1914 339.434 26.0004 339.434 27.1177C339.434 28.2591 338.577 29.0801 337.367 29.0801ZM340.731 29.0561C340.419 29.0521 340.159 28.7998 340.163 28.4874C340.159 28.175 340.419 27.9187 340.731 27.9187C341.04 27.9187 341.296 28.175 341.3 28.4874C341.296 28.7998 341.04 29.0521 340.731 29.0561ZM344.207 29.0801C343.134 29.0721 342.013 28.4353 342.013 26.2927C342.017 24.2743 342.89 23.1209 344.28 23.1209C345.349 23.1209 346.09 23.7857 346.226 24.7068H345.353C345.237 24.2342 344.864 23.8938 344.28 23.8898C343.382 23.8938 342.862 24.6708 342.862 25.9803H342.926C343.242 25.4877 343.787 25.1994 344.416 25.1954C345.449 25.1994 346.282 25.9924 346.282 27.1017C346.282 28.2271 345.453 29.0881 344.207 29.0801ZM342.966 27.1257C342.97 27.7705 343.487 28.3392 344.199 28.3432C344.9 28.3392 345.425 27.7945 345.425 27.1177C345.425 26.4529 344.92 25.9123 344.223 25.9163C343.515 25.9123 342.974 26.4809 342.966 27.1257ZM348.549 25.9563C347.756 25.9643 347.323 25.3756 347.331 24.5146C347.323 23.6655 347.776 23.0768 348.549 23.0808C349.346 23.0768 349.762 23.6655 349.766 24.5146C349.762 25.3796 349.33 25.9643 348.549 25.9563ZM347.988 29L351.969 23.201H352.698L348.717 29H347.988ZM347.988 24.5146C347.992 25.0472 348.176 25.3916 348.549 25.3956C348.925 25.3916 349.101 25.0472 349.101 24.5146C349.101 23.9939 348.937 23.6375 348.549 23.6415C348.176 23.6495 347.992 23.9979 347.988 24.5146ZM350.992 27.6784C350.988 26.8214 351.436 26.2326 352.209 26.2367C353.002 26.2326 353.423 26.8214 353.427 27.6784C353.423 28.5354 352.99 29.1201 352.209 29.1201C351.42 29.1201 350.988 28.5314 350.992 27.6784ZM351.648 27.6784C351.652 28.203 351.837 28.5515 352.209 28.5515C352.586 28.5515 352.762 28.203 352.762 27.6784C352.762 27.1498 352.598 26.7973 352.209 26.7973C351.841 26.8053 351.652 27.1538 351.648 27.6784Z" fill="#113287"/>
<path d="M541.623 28.2539V28.8786H535.055V28.2539H537.954V26.692H538.707V28.2539H541.623ZM535.375 26.3475C536.849 26.1313 537.91 25.2983 537.946 24.2891H535.647V23.6723H537.954V22.7111H538.707V23.6723H541.014V24.2891H538.715C538.751 25.2983 539.812 26.1313 541.286 26.3475L540.998 26.9403C539.796 26.752 538.795 26.1833 538.327 25.3463C537.862 26.1833 536.865 26.752 535.663 26.9403L535.375 26.3475ZM547.95 23.2718V23.9767C547.946 24.8617 547.946 25.855 547.678 27.3247L546.909 27.2446C547.185 25.855 547.185 24.8377 547.189 23.9767V23.8886H542.832V23.2718H547.95ZM542.143 28.7905V28.1577H544.634V25.6267H545.387V28.1577H548.687V28.7905H542.143ZM555.047 25.891V26.4997H552.876V28.2539H555.8V28.8786H549.232V28.2539H552.123V26.4997H550.049V23.1357H554.983V23.7524H550.81V25.891H555.047ZM560.774 23.2798V29.0789H559.885V24.1609H559.853L558.467 25.066V24.225L559.909 23.2798H560.774ZM562.488 29.1349C562.175 29.1309 561.915 28.8786 561.919 28.5662C561.915 28.2539 562.175 27.9975 562.488 27.9975C562.796 27.9975 563.053 28.2539 563.057 28.5662C563.053 28.8786 562.796 29.1309 562.488 29.1349ZM565.884 29.159C564.542 29.159 563.753 28.0776 563.753 26.1793C563.753 24.2931 564.55 23.1997 565.884 23.1997C567.214 23.1997 568.011 24.2931 568.015 26.1793C568.011 28.0776 567.226 29.159 565.884 29.159ZM564.634 26.1793C564.63 27.6251 565.099 28.398 565.884 28.398C566.665 28.398 567.133 27.6251 567.133 26.1793C567.133 24.7376 566.661 23.9486 565.884 23.9446C565.103 23.9486 564.634 24.7376 564.634 26.1793ZM570.257 26.0352C569.464 26.0432 569.032 25.4545 569.04 24.5934C569.032 23.7444 569.484 23.1557 570.257 23.1597C571.054 23.1557 571.471 23.7444 571.475 24.5934C571.471 25.4585 571.038 26.0432 570.257 26.0352ZM569.697 29.0789L573.677 23.2798H574.406L570.425 29.0789H569.697ZM569.697 24.5934C569.701 25.1261 569.885 25.4705 570.257 25.4745C570.634 25.4705 570.81 25.1261 570.81 24.5934C570.81 24.0728 570.646 23.7164 570.257 23.7204C569.885 23.7284 569.701 24.0768 569.697 24.5934ZM572.7 27.7573C572.696 26.9002 573.145 26.3115 573.918 26.3155C574.711 26.3115 575.131 26.9002 575.135 27.7573C575.131 28.6143 574.699 29.199 573.918 29.199C573.129 29.199 572.696 28.6103 572.7 27.7573ZM573.357 27.7573C573.361 28.2819 573.545 28.6303 573.918 28.6303C574.294 28.6303 574.47 28.2819 574.47 27.7573C574.47 27.2286 574.306 26.8762 573.918 26.8762C573.549 26.8842 573.361 27.2326 573.357 27.7573Z" fill="white"/>
</svg>
