<?xml version="1.0" encoding="UTF-8"?>
<svg width="593px" height="88px" viewBox="0 0 593 88" version="1.1" xmlns="http://www.w3.org/2000/svg" xmlns:xlink="http://www.w3.org/1999/xlink">
    <title>Artboard</title>
    <g id="Artboard" stroke="none" stroke-width="1" fill="none" fill-rule="evenodd">
        <g id="totalSeverity80s" transform="translate(0.000000, 9.000000)">
            <polygon id="Path" fill="#979797" points="111.956432 40.0133041 111.956432 12.523202 112.776625 12.523202 112.776625 40.0133041"></polygon>
            <polygon id="Path" fill="#001A5B" fill-rule="nonzero" points="6.18831999 15.9040402 29.8161712 15.9040402 29.8161712 35.5886875 6.18831999 35.5886875 0 25.7463638"></polygon>
            <path d="M292.134109,62.8016961 C293.255314,62.8088638 294.00169,62.0339449 294.00169,61.0210878 C294.00169,60.0227481 293.252033,59.3090156 292.321934,59.3054067 C291.756,59.3090156 291.265524,59.5685248 290.980917,60.0119215 L290.923503,60.0119215 C290.923503,58.8333033 291.391834,58.1340062 292.198905,58.1303973 C292.725469,58.1340062 293.060928,58.4404305 293.165093,58.8657009 L293.950838,58.8657009 C293.828629,58.0367312 293.161812,57.4383999 292.198905,57.4383999 C290.948109,57.4383999 290.162364,58.476437 290.159083,60.2930839 C290.159083,62.2213591 291.168741,62.7945105 292.134109,62.8016961 Z M291.017006,61.0427409 C291.024387,60.4624539 291.510762,59.9506531 292.148873,59.954242 C292.775501,59.9506531 293.229888,60.4371919 293.229888,61.0355232 C293.229888,61.644681 292.758277,62.1349107 292.126728,62.1385196 C291.485336,62.1349107 291.020286,61.6230279 291.017006,61.0427409 Z" id="Shape" fill="#001A5B" fill-rule="nonzero"></path>
            <path d="M296.661578,62.8016461 C297.868903,62.8016461 298.57509,61.8284864 298.579191,60.120023 C298.57509,58.4223862 297.858241,57.4383999 296.661578,57.4383999 C295.460815,57.4383999 294.743965,58.4223862 294.743965,60.120023 C294.743965,61.8284864 295.454253,62.8016461 296.661578,62.8016461 Z M295.537093,60.120023 C295.537093,58.8224767 295.958672,58.1124351 296.661578,58.1088262 C297.360383,58.1124351 297.786064,58.8224767 297.786064,60.120023 C297.786064,61.4211782 297.364484,62.1168665 296.661578,62.1168665 C295.954571,62.1168665 295.532992,61.4211782 295.537093,60.120023 Z" id="Shape" fill="#001A5B" fill-rule="nonzero"></path>
            <path d="M301.166902,62.7296331 C302.756437,62.7296331 303.671773,61.742038 303.675874,60.1128053 C303.671773,58.4872636 302.756437,57.510495 301.216934,57.510495 L299.473202,57.510495 L299.473202,62.7296331 L301.166902,62.7296331 Z M300.265509,62.0375537 L300.265509,58.2024923 L301.166902,58.2024923 C302.306151,58.2024923 302.890129,58.8837452 302.890129,60.1128053 C302.890129,61.3455564 302.306151,62.0339449 301.123432,62.0375537 L300.265509,62.0375537 Z" id="Shape" fill="#001A5B" fill-rule="nonzero"></path>
            <path d="M275.65888,66.5806883 L275.15282,66.5806883 L275.15282,69.95111 L273.973382,69.95111 L273.973382,70.3164243 L275.15282,70.3164243 L275.15282,70.9058974 L275.65888,70.9058974 L275.65888,66.5806883 Z M270.929643,69.2206456 L271.00018,69.6307424 C271.477533,69.6307424 272.025422,69.6307424 272.602018,69.6083511 L272.602018,70.7072466 L273.108077,70.7072466 L273.108077,69.5826791 C273.630541,69.5506915 274.166127,69.4994294 274.672187,69.4192965 L274.640199,69.0540643 C273.418931,69.2046518 271.990154,69.2142481 270.929643,69.2206456 Z M271.391398,67.8045813 C271.388131,68.413247 271.958166,68.7913562 272.800505,68.7913562 C273.637102,68.7913562 274.207137,68.413247 274.210418,67.8045813 C274.207137,67.2054298 273.637102,66.8113268 272.800505,66.8113268 C271.958166,66.8113268 271.388131,67.2054298 271.391398,67.8045813 Z M271.749837,72.1489829 L275.799953,72.1489829 L275.799953,71.7260911 L272.255896,71.7260911 L272.255896,70.4830056 L271.749837,70.4830056 L271.749837,72.1489829 Z M271.872046,67.8045813 C271.865484,67.439267 272.243593,67.189436 272.800505,67.1958335 C273.342653,67.189436 273.726503,67.439267 273.729784,67.8045813 C273.726503,68.176211 273.342653,68.4164457 272.800505,68.4197265 C272.243593,68.4164457 271.865484,68.176211 271.872046,67.8045813 Z" id="Shape" fill="#001A5B" fill-rule="nonzero"></path>
            <path d="M280.304456,68.1056744 L280.304456,67.0676373 L279.804959,67.0676373 L279.804959,68.1056744 C279.798397,69.1853773 279.096311,70.2747584 278.247411,70.662382 L278.568107,71.0853558 C279.234104,70.7489124 279.795116,70.0280442 280.057578,69.1693835 C280.329882,69.9799809 280.890895,70.6559844 281.541308,70.9699546 L281.848881,70.5727348 C281.009003,70.1914268 280.301176,69.1469922 280.304456,68.1056744 Z M282.470588,72.2835767 L282.976647,72.2835767 L282.976647,66.5742908 L282.470588,66.5742908 L282.470588,72.2835767 Z" id="Shape" fill="#001A5B" fill-rule="nonzero"></path>
            <path d="M314.861675,67.7404421 L310.991181,67.7404421 L310.991181,68.1505389 L314.361357,68.1505389 L314.361357,68.1826085 C314.364638,68.6663587 314.364638,69.2270431 314.211261,70.0152492 L310.330925,70.0152492 L310.330925,70.438141 L315.547357,70.438141 L315.547357,70.0152492 L314.710759,70.0152492 C314.861675,69.2399201 314.861675,68.66316 314.861675,68.1826085 L314.861675,67.7404421 Z M311.023169,72.9627791 L315.034736,72.9627791 L315.034736,72.5398872 L311.522667,72.5398872 L311.522667,71.0788763 L311.023169,71.0788763 L311.023169,72.9627791 Z" id="Shape" fill="#001A5B" fill-rule="nonzero"></path>
            <path d="M319.673751,68.925868 L319.673751,67.8878309 L319.174253,67.8878309 L319.174253,68.925868 C319.167692,70.0055709 318.465606,71.0949521 317.616705,71.4825756 L317.937401,71.9055495 C318.603398,71.569106 319.164411,70.8482378 319.426873,69.9895771 C319.699177,70.8001745 320.260189,71.4761781 320.910603,71.7901482 L321.218176,71.3929284 C320.378297,71.0116204 319.67047,69.9671858 319.673751,68.925868 Z M321.839882,73.1037703 L322.345942,73.1037703 L322.345942,67.3944844 L321.839882,67.3944844 L321.839882,73.1037703 Z" id="Shape" fill="#001A5B" fill-rule="nonzero"></path>
            <path d="M70.5630631,63.6218398 C71.6516241,63.6218398 72.4229342,62.8830093 72.4229342,61.8557168 C72.4229342,60.8500774 71.6984571,60.1220735 70.7144708,60.1184647 C70.3179892,60.1220735 69.9503784,60.2625727 69.7340934,60.47164 L69.6836515,60.47164 L69.8566303,59.0082506 L72.1562072,59.0082506 L72.1562072,58.3306886 L69.2006394,58.3306886 L68.8618174,61.2358145 L69.6115564,61.2358145 C69.7881441,60.9150367 70.1089219,60.7744555 70.5270566,60.7744555 C71.1830474,60.7816732 71.6516241,61.2430322 71.6516241,61.8773699 C71.6516241,62.4972723 71.1974828,62.9551044 70.5630631,62.9587132 C70.0368268,62.9551044 69.6115564,62.6306358 69.5682502,62.1873211 L68.7969401,62.1873211 C68.8330286,63.0199817 69.5754679,63.6218398 70.5630631,63.6218398 Z" id="Path" fill="#001A5B" fill-rule="nonzero"></path>
            <path d="M73.1510201,62.5333608 L75.6884531,62.5333608 L75.6884531,63.5498268 L76.4381921,63.5498268 L76.4381921,62.5333608 L77.1518426,62.5333608 L77.1518426,61.8629345 L76.4381921,61.8629345 L76.4381921,58.3306886 L75.4578147,58.3306886 L73.1510201,61.8918053 L73.1510201,62.5333608 Z M73.9872075,61.8629345 L73.9872075,61.8197103 L75.6307935,59.2749775 L75.6884531,59.2749775 L75.6884531,61.8629345 L73.9872075,61.8629345 Z" id="Shape" fill="#001A5B" fill-rule="nonzero"></path>
            <path d="M79.7181465,63.5498268 C81.3076817,63.5498268 82.223592,62.5622316 82.2268728,60.932999 C82.223592,59.3074572 81.3076817,58.3306886 79.7686704,58.3306886 L78.0241185,58.3306886 L78.0241185,63.5498268 L79.7181465,63.5498268 Z M78.8170817,62.8577474 L78.8170817,59.022686 L79.7181465,59.022686 C80.8571494,59.022686 81.4410452,59.7039388 81.4410452,60.932999 C81.4410452,62.16575 80.8571494,62.8541385 79.6749223,62.8577474 L78.8170817,62.8577474 Z" id="Shape" fill="#001A5B" fill-rule="nonzero"></path>
            <path d="M144.423797,63.6218398 C145.512194,63.6218398 146.283996,62.8830093 146.283996,61.8557168 C146.283996,60.8500774 145.558945,60.1220735 144.575533,60.1184647 C144.178559,60.1220735 143.811112,60.2625727 143.594581,60.47164 L143.544549,60.47164 L143.71761,59.0082506 L146.016613,59.0082506 L146.016613,58.3306886 L143.061455,58.3306886 L142.722715,61.2358145 L143.472372,61.2358145 C143.648714,60.9150367 143.969409,60.7744555 144.387708,60.7744555 C145.043863,60.7816732 145.512194,61.2430322 145.512194,61.8773699 C145.512194,62.4972723 145.057806,62.9551044 144.423797,62.9587132 C143.897232,62.9551044 143.472372,62.6306358 143.428902,62.1873211 L142.65792,62.1873211 C142.694008,63.0199817 143.436284,63.6218398 144.423797,63.6218398 Z" id="Path" fill="#001A5B" fill-rule="nonzero"></path>
            <path d="M149.016061,63.6218898 C150.136445,63.6290575 150.882822,62.8541385 150.882822,61.8412814 C150.882822,60.8429417 150.133165,60.1292092 149.203065,60.1256004 C148.637131,60.1292092 148.147476,60.3887185 147.862048,60.8321152 L147.804635,60.8321152 C147.804635,59.6534969 148.272965,58.9541998 149.080856,58.9505909 C149.6066,58.9541998 149.942059,59.2606241 150.046224,59.6858945 L150.83197,59.6858945 C150.709761,58.8569248 150.042943,58.2585936 149.080856,58.2585936 C147.830061,58.2585936 147.044315,59.2966306 147.040214,61.1132775 C147.040214,63.0415528 148.049873,63.6147041 149.016061,63.6218898 Z M147.898137,61.8629345 C147.905519,61.2826475 148.391893,60.7708467 149.030004,60.7744356 C149.657452,60.7708467 150.11184,61.2573856 150.11184,61.8557168 C150.11184,62.4648746 149.639408,62.9551044 149.008679,62.9587132 C148.367288,62.9551044 147.902238,62.4432215 147.898137,61.8629345 Z" id="Shape" fill="#001A5B" fill-rule="nonzero"></path>
            <path d="M153.492678,63.5498268 C155.082213,63.5498268 155.997549,62.5622316 156.00083,60.932999 C155.997549,59.3074572 155.082213,58.3306886 153.54271,58.3306886 L151.798158,58.3306886 L151.798158,63.5498268 L153.492678,63.5498268 Z M152.591285,62.8577474 L152.591285,59.022686 L153.492678,59.022686 C154.631107,59.022686 155.215084,59.7039388 155.215084,60.932999 C155.215084,62.16575 154.631107,62.8541385 153.449207,62.8577474 L152.591285,62.8577474 Z" id="Shape" fill="#001A5B" fill-rule="nonzero"></path>
            <path d="M218.259268,63.6218398 C219.347665,63.6218398 220.119467,62.8830093 220.119467,61.8557168 C220.119467,60.8500774 219.394416,60.1220735 218.411004,60.1184647 C218.01403,60.1220735 217.646584,60.2625727 217.430053,60.47164 L217.380021,60.47164 L217.553082,59.0082506 L219.852084,59.0082506 L219.852084,58.3306886 L216.896927,58.3306886 L216.558187,61.2358145 L217.307844,61.2358145 C217.484185,60.9150367 217.804881,60.7744555 218.22318,60.7744555 C218.879335,60.7816732 219.347665,61.2430322 219.347665,61.8773699 C219.347665,62.4972723 218.893278,62.9551044 218.259268,62.9587132 C217.732704,62.9551044 217.307844,62.6306358 217.264373,62.1873211 L216.493391,62.1873211 C216.52948,63.0199817 217.271755,63.6218398 218.259268,63.6218398 Z" id="Path" fill="#001A5B" fill-rule="nonzero"></path>
            <path d="M222.785917,63.6218398 C223.903841,63.6218398 224.700249,63.0091551 224.70353,62.1585323 C224.700249,61.488106 224.217155,60.9402167 223.607751,60.8465506 L223.607751,60.8176797 C224.134315,60.6951428 224.498481,60.2193485 224.501762,59.649888 C224.498481,58.8460983 223.770149,58.2585936 222.785917,58.2585936 C221.787741,58.2585936 221.06351,58.8460983 221.06351,59.649888 C221.06351,60.2193485 221.420295,60.6951428 221.957521,60.8176797 L221.957521,60.8465506 C221.340736,60.9402167 220.861743,61.488106 220.869124,62.1585323 C220.861743,63.0091551 221.650769,63.6218398 222.785917,63.6218398 Z M221.676195,62.1008727 C221.665533,61.5638099 222.137144,61.1709371 222.785917,61.1709371 C223.428129,61.1709371 223.896459,61.5638099 223.896459,62.1008727 C223.896459,62.6126735 223.464217,62.9658489 222.785917,62.9658489 C222.097775,62.9658489 221.665533,62.6126735 221.676195,62.1008727 Z M221.834492,59.7219831 C221.838593,59.2353622 222.213422,58.9037579 222.785917,58.9073667 C223.345289,58.9037579 223.726679,59.2353622 223.723398,59.7219831 C223.726679,60.2121308 223.330526,60.5473439 222.785917,60.5437351 C222.227365,60.5473439 221.838593,60.2085219 221.834492,59.7219831 Z" id="Shape" fill="#001A5B" fill-rule="nonzero"></path>
            <path d="M227.292061,63.5498268 C228.881596,63.5498268 229.796932,62.5622316 229.800213,60.932999 C229.796932,59.3074572 228.881596,58.3306886 227.342093,58.3306886 L225.597541,58.3306886 L225.597541,63.5498268 L227.292061,63.5498268 Z M226.390668,62.8577474 L226.390668,59.022686 L227.292061,59.022686 C228.43049,59.022686 229.014467,59.7039388 229.014467,60.932999 C229.014467,62.16575 228.43049,62.8541385 227.248591,62.8577474 L226.390668,62.8577474 Z" id="Shape" fill="#001A5B" fill-rule="nonzero"></path>
            <path d="M365.926111,62.8016961 C367.047315,62.8088638 367.793692,62.0339449 367.793692,61.0210878 C367.793692,60.0227481 367.044035,59.3090156 366.113935,59.3054067 C365.548001,59.3090156 365.057526,59.5685248 364.772918,60.0119215 L364.715505,60.0119215 C364.715505,58.8333033 365.183835,58.1340062 365.991726,58.1303973 C366.51747,58.1340062 366.852929,58.4404305 366.957094,58.8657009 L367.74284,58.8657009 C367.620631,58.0367312 366.953813,57.4383999 365.991726,57.4383999 C364.740931,57.4383999 363.955185,58.476437 363.951084,60.2930839 C363.951084,62.2213591 364.960743,62.7945105 365.926111,62.8016961 Z M364.809007,61.0427409 C364.816389,60.4624539 365.302763,59.9506531 365.940874,59.954242 C366.568322,59.9506531 367.021889,60.4371919 367.021889,61.0355232 C367.021889,61.644681 366.550278,62.1349107 365.919549,62.1385196 C365.277337,62.1349107 364.813108,61.6230279 364.809007,61.0427409 Z" id="Shape" fill="#001A5B" fill-rule="nonzero"></path>
            <path d="M370.489668,62.8016461 C371.570683,62.8016461 372.374473,62.1636995 372.371212,61.2950324 C372.374473,60.6354327 371.960275,60.1561116 371.246707,60.0551457 L371.246707,60.0191392 C371.808539,59.878558 372.176806,59.4532056 372.169425,58.8584832 C372.176806,58.0871731 371.531314,57.4383999 370.504432,57.4383999 C369.530862,57.4383999 368.745116,58.0150781 368.723791,58.8657009 L369.487391,58.8657009 C369.505436,58.3935154 369.974586,58.1016085 370.49705,58.1016085 C371.04822,58.1016085 371.405004,58.4259951 371.405004,58.9017894 C371.405004,59.4027637 370.990806,59.734368 370.396166,59.7307591 L369.94916,59.7307591 L369.94916,60.3795323 L370.396166,60.3795323 C371.141722,60.3831412 371.570683,60.750834 371.570683,61.2662436 C371.570683,61.7744356 371.113015,62.1168665 370.482286,62.1168665 C369.898308,62.1168665 369.444741,61.8248775 369.415214,61.3671275 L368.608144,61.3671275 C368.640952,62.2213591 369.408653,62.8016461 370.489668,62.8016461 Z" id="Path" fill="#001A5B" fill-rule="nonzero"></path>
            <path d="M375.009755,62.7296331 C376.59929,62.7296331 377.514627,61.742038 377.517907,60.1128053 C377.514627,58.4872636 376.59929,57.510495 375.059787,57.510495 L373.315235,57.510495 L373.315235,62.7296331 L375.009755,62.7296331 Z M374.108362,62.0375537 L374.108362,58.2024923 L375.009755,58.2024923 C376.148184,58.2024923 376.732162,58.8837452 376.732162,60.1128053 C376.732162,61.3455564 376.148184,62.0339449 374.966285,62.0375537 L374.108362,62.0375537 Z" id="Shape" fill="#001A5B" fill-rule="nonzero"></path>
            <path d="M439.747639,62.8016961 C440.868844,62.8088638 441.6144,62.0339449 441.6144,61.0210878 C441.6144,60.0227481 440.864743,59.3090156 439.934643,59.3054067 C439.36871,59.3090156 438.879054,59.5685248 438.594447,60.0119215 L438.536213,60.0119215 C438.536213,58.8333033 439.005364,58.1340062 439.812434,58.1303973 C440.338999,58.1340062 440.673638,58.4404305 440.778622,58.8657009 L441.564368,58.8657009 C441.441339,58.0367312 440.774521,57.4383999 439.812434,57.4383999 C438.561639,57.4383999 437.775893,58.476437 437.772613,60.2930839 C437.772613,62.2213591 438.781451,62.7945105 439.747639,62.8016961 Z M438.630535,61.0427409 C438.637097,60.4624539 439.124292,59.9506531 439.761582,59.954242 C440.38903,59.9506531 440.843418,60.4371919 440.843418,61.0355232 C440.843418,61.644681 440.370986,62.1349107 439.740257,62.1385196 C439.098866,62.1349107 438.633816,61.6230279 438.630535,61.0427409 Z" id="Shape" fill="#001A5B" fill-rule="nonzero"></path>
            <path d="M444.346465,62.8016961 C445.467669,62.8088638 446.214046,62.0339449 446.214046,61.0210878 C446.214046,60.0227481 445.464389,59.3090156 444.534289,59.3054067 C443.968355,59.3090156 443.47788,59.5685248 443.193272,60.0119215 L443.135859,60.0119215 C443.135859,58.8333033 443.604189,58.1340062 444.41126,58.1303973 C444.937824,58.1340062 445.273284,58.4404305 445.377448,58.8657009 L446.163194,58.8657009 C446.040985,58.0367312 445.374167,57.4383999 444.41126,57.4383999 C443.160465,57.4383999 442.374719,58.476437 442.371438,60.2930839 C442.371438,62.2213591 443.381097,62.7945105 444.346465,62.8016961 Z M443.229361,61.0427409 C443.236743,60.4624539 443.723118,59.9506531 444.361228,59.954242 C444.988676,59.9506531 445.442243,60.4371919 445.442243,61.0355232 C445.442243,61.644681 444.970632,62.1349107 444.339903,62.1385196 C443.697692,62.1349107 443.232642,61.6230279 443.229361,61.0427409 Z" id="Shape" fill="#001A5B" fill-rule="nonzero"></path>
            <path d="M448.823082,62.7296331 C450.412617,62.7296331 451.328773,61.742038 451.332054,60.1128053 C451.328773,58.4872636 450.412617,57.510495 448.873934,57.510495 L447.129382,57.510495 L447.129382,62.7296331 L448.823082,62.7296331 Z M447.922509,62.0375537 L447.922509,58.2024923 L448.823082,58.2024923 C449.962331,58.2024923 450.546308,58.8837452 450.546308,60.1128053 C450.546308,61.3455564 449.962331,62.0339449 448.780432,62.0375537 L447.922509,62.0375537 Z" id="Shape" fill="#001A5B" fill-rule="nonzero"></path>
            <path d="M513.565066,62.8017782 C514.686271,62.8089459 515.431827,62.0340269 515.431827,61.0211698 C515.431827,60.0227481 514.68217,59.3090976 513.752071,59.3054887 C513.186137,59.3090976 512.696481,59.5686069 512.411874,60.0119215 L512.35364,60.0119215 C512.35364,58.8333033 512.822791,58.1340882 513.629862,58.1304793 C514.156426,58.1340882 514.491065,58.4404305 514.59605,58.8657829 L515.381795,58.8657829 C515.258766,58.0367312 514.591949,57.4383999 513.629862,57.4383999 C512.379066,57.4383999 511.593321,58.476519 511.59004,60.2930839 C511.59004,62.2214412 512.598878,62.7945105 513.565066,62.8017782 Z M512.447963,61.0428229 C512.454524,60.4625359 512.941719,59.9506531 513.57901,59.954242 C514.206458,59.9506531 514.660845,60.4372739 514.660845,61.0356052 C514.660845,61.644763 514.188414,62.1349107 513.557685,62.1385196 C512.916293,62.1349107 512.451243,61.6231099 512.447963,61.0428229 Z" id="Shape" fill="#001A5B" fill-rule="nonzero"></path>
            <path d="M518.07039,57.4383513 C516.935242,57.4312643 516.196248,58.2097921 516.196248,59.2046049 C516.196248,60.2029446 516.945905,60.920286 517.883386,60.920286 C518.445219,60.920286 518.935694,60.653559 519.217021,60.2137712 L519.281816,60.2137712 C519.274434,61.4068248 518.802003,62.1061219 517.998213,62.1097308 C517.472469,62.1061219 517.132909,61.7996976 517.025463,61.3599918 L516.239718,61.3599918 C516.365207,62.2070057 517.036126,62.8017282 517.998213,62.8017282 C519.249008,62.8017282 520.038035,61.7636911 520.038035,59.9326908 C520.034754,58.0223778 519.029196,57.4456176 518.07039,57.4383513 Z M516.967213,59.1901695 C516.963949,58.5918383 517.439661,58.1016085 518.07039,58.1016085 C518.708501,58.1016085 519.17355,58.6171002 519.17355,59.1829518 C519.17355,59.75963 518.687176,60.2750396 518.055627,60.271451 C517.421617,60.2750396 516.971331,59.7957185 516.967213,59.1901695 Z" id="Shape" fill="#001A5B" fill-rule="nonzero"></path>
            <path d="M522.640509,62.7296331 C524.230044,62.7296331 525.146201,61.742038 525.149481,60.1128874 C525.146201,58.4873456 524.230044,57.510495 522.691361,57.510495 L520.946809,57.510495 L520.946809,62.7296331 L522.640509,62.7296331 Z M521.739936,62.0376358 L521.739936,58.2025744 L522.640509,58.2025744 C523.779758,58.2025744 524.363736,58.8837452 524.363736,60.1128874 C524.363736,61.3455564 523.779758,62.0340269 522.597859,62.0376358 L521.739936,62.0376358 Z" id="Shape" fill="#001A5B" fill-rule="nonzero"></path>
            <polygon id="Path" fill="#979797" points="38.1390041 40.0133041 38.1390041 12.523202 38.9591978 12.523202 38.9591978 40.0133041"></polygon>
            <polygon id="Path" fill="#979797" points="185.773859 40.0133041 185.773859 12.523202 186.594053 12.523202 186.594053 40.0133041"></polygon>
            <polygon id="Path" fill="#979797" points="259.591286 40.0133041 259.591286 12.523202 260.41148 12.523202 260.41148 40.0133041"></polygon>
            <polygon id="Path" fill="#979797" points="321.105809 40.0133041 321.105809 12.523202 321.926003 12.523202 321.926003 40.0133041"></polygon>
            <polygon id="Path" fill="#979797" points="345.711618 40.0133041 345.711618 12.523202 346.531812 12.523202 346.531812 40.0133041"></polygon>
            <polygon id="Path" fill="#979797" points="394.923237 40.0133041 394.923237 12.523202 395.74343 12.523202 395.74343 40.0133041"></polygon>
            <polygon id="Path" fill="#979797" points="419.529046 40.0133041 419.529046 12.523202 420.349239 12.523202 420.349239 40.0133041"></polygon>
            <polygon id="Path" fill="#979797" points="468.740664 40.0133041 468.740664 12.523202 469.560858 12.523202 469.560858 40.0133041"></polygon>
            <polygon id="Path" fill="#979797" points="493.346473 40.0133041 493.346473 12.523202 494.166667 12.523202 494.166667 40.0133041"></polygon>
            <polygon id="Path" fill="#979797" points="542.558091 40.0133041 542.558091 12.523202 543.378285 12.523202 543.378285 40.0133041"></polygon>
            <polygon id="Path" fill="#979797" points="567.1639 40.0133041 567.1639 12.523202 567.984094 12.523202 567.984094 40.0133041"></polygon>
            <rect id="Rectangle" fill="#E2E6F6" fill-rule="nonzero" x="223.092669" y="15.9040402" width="73.8174274" height="19.6846473"></rect>
            <path d="M246.624845,22.1780294 L245.864526,22.1780294 L245.864526,23.4516261 L244.306158,23.4516261 C244.354549,23.2113093 244.382436,22.9549988 244.382436,22.6906504 L241.09838,22.6906504 L241.09838,23.3154739 L243.557321,23.3154739 C243.421169,24.4728492 242.427914,25.3859708 240.730113,25.8705412 L241.034405,26.4632951 C242.588672,26.0187501 243.665586,25.2057742 244.129816,24.0523359 L245.864526,24.0523359 L245.864526,24.925432 L244.054358,24.925432 L244.054358,25.5501735 L245.864526,25.5501735 L245.864526,26.4231876 L246.624845,26.4231876 L246.624845,22.1780294 Z M241.843116,27.9050315 C241.843116,28.7780456 242.788799,29.3146983 244.262687,29.3146983 C245.716071,29.3146983 246.669136,28.7780456 246.673237,27.9050315 C246.669136,27.0359543 245.716071,26.5073395 244.262687,26.5033205 C242.788799,26.5073395 241.843116,27.0359543 241.843116,27.9050315 Z M242.596054,27.9050315 C242.596054,27.3924105 243.237445,27.1000114 244.262687,27.1040304 C245.267425,27.1000114 245.907996,27.3924105 245.912097,27.9050315 C245.907996,28.4096146 245.267425,28.7019316 244.262687,28.7059506 C243.237445,28.7019316 242.596054,28.4096146 242.596054,27.9050315 Z" id="Shape" fill="#113287" fill-rule="nonzero"></path>
            <polygon id="Path" fill="#113287" fill-rule="nonzero" points="253.545639 25.4780785 249.308519 25.4780785 249.308519 23.3395056 253.481664 23.3395056 253.481664 22.72272 248.547379 22.72272 248.547379 26.0868262 250.621649 26.0868262 250.621649 27.8408923 247.730466 27.8408923 247.730466 28.4657158 254.298577 28.4657158 254.298577 27.8408923 251.374586 27.8408923 251.374586 26.0868262 253.545639 26.0868262"></polygon>
            <path d="M256.942061,27.5365185 L259.761066,27.5365185 L259.761066,28.6659251 L260.594383,28.6659251 L260.594383,27.5365185 L261.38669,27.5365185 L261.38669,26.7916186 L260.594383,26.7916186 L260.594383,22.86691 L259.505166,22.86691 L256.942061,26.8236882 L256.942061,27.5365185 Z M257.87052,26.7916186 L257.87052,26.7436373 L259.697091,23.9161838 L259.761066,23.9161838 L259.761066,26.7916186 L257.87052,26.7916186 Z" id="Shape" fill="#113287" fill-rule="nonzero"></path>
            <polygon id="Path" fill="#113287" fill-rule="nonzero" points="262.476728 28.6659251 263.397805 28.6659251 265.976494 23.6518353 265.976494 22.86691 262.075653 22.86691 262.075653 23.6198478 265.063618 23.6198478 265.063618 23.6679111"></polygon>
            <path d="M266.433342,28.7220264 C266.741734,28.7180074 266.997635,28.4657158 267.001736,28.1533041 C266.997635,27.8408923 266.741734,27.5845818 266.433342,27.5845818 C266.120848,27.5845818 265.860846,27.8408923 265.864127,28.1533041 C265.860846,28.4657158 266.120848,28.7180074 266.433342,28.7220264 Z" id="Path" fill="#113287" fill-rule="nonzero"></path>
            <path d="M269.949512,22.7867227 C268.688054,22.7788212 267.86704,23.6438795 267.86704,24.7491724 C267.86704,25.8585663 268.699537,26.6554665 269.741183,26.6554665 C270.36617,26.6554665 270.910779,26.3591305 271.223272,25.8705412 L271.29545,25.8705412 C271.287248,27.1961381 270.762324,27.9731075 269.869133,27.9771265 C269.284335,27.9731075 268.907866,27.6326452 268.788118,27.1440558 L267.914611,27.1440558 C268.054864,28.085228 268.80042,28.746058 269.869133,28.746058 C271.259361,28.746058 272.136148,27.5926197 272.136148,25.5581294 C272.132047,23.4355503 271.014943,22.794815 269.949512,22.7867227 Z M268.724119,24.7331786 C268.720041,24.0683297 269.248246,23.5237211 269.949512,23.5237211 C270.658159,23.5237211 271.174881,24.0963803 271.174881,24.7251407 C271.174881,25.365958 270.634373,25.9386172 269.933108,25.9346209 C269.228562,25.9386172 268.728243,25.4059835 268.724119,24.7331786 Z" id="Shape" fill="#113287" fill-rule="nonzero"></path>
            <path d="M274.394961,25.6222685 C275.175786,25.6302244 275.608028,25.0455084 275.612129,24.1805322 C275.608028,23.3314677 275.192189,22.7427327 274.394961,22.7467312 C273.621519,22.7427327 273.169592,23.3314677 273.176974,24.1805322 C273.169592,25.0415714 273.601834,25.6302244 274.394961,25.6222685 Z M273.833949,28.6659251 L274.563101,28.6659251 L278.543501,22.86691 L277.815169,22.86691 L273.833949,28.6659251 Z M273.833949,24.1805322 C273.83805,23.6638922 274.022593,23.3154739 274.394961,23.307436 C274.782913,23.3034171 274.947772,23.6598732 274.947772,24.1805322 C274.947772,24.7131659 274.77143,25.0575652 274.394961,25.0615842 C274.022593,25.0575652 273.83805,24.7131659 273.833949,24.1805322 Z M276.837498,27.3443471 C276.833397,28.1973485 277.266459,28.7860835 278.055485,28.7860835 C278.83631,28.7860835 279.268552,28.2013674 279.272653,27.3443471 C279.268552,26.4873268 278.848613,25.8985918 278.055485,25.9025903 C277.282043,25.8985918 276.833397,26.4873268 276.837498,27.3443471 Z M277.494473,27.3443471 C277.498574,26.8196692 277.686398,26.471251 278.055485,26.4632951 C278.443437,26.4632951 278.608296,26.8156503 278.608296,27.3443471 C278.608296,27.868943 278.431954,28.2173612 278.055485,28.2173612 C277.683118,28.2173612 277.498574,27.868943 277.494473,27.3443471 Z" id="Shape" fill="#113287" fill-rule="nonzero"></path>
            <rect id="Rectangle" fill="#5B6EB4" fill-rule="nonzero" x="149.275242" y="15.9040402" width="73.8174274" height="19.6846473"></rect>
            <path d="M174.261621,25.3258506 L167.717296,25.3258506 L167.717296,25.9426362 L170.609299,25.9426362 L170.609299,26.6314348 C169.275664,26.6995109 168.49484,27.1440558 168.49484,27.8969936 C168.49484,28.7099695 169.423299,29.1665713 170.985768,29.1625787 C172.527732,29.1665713 173.456191,28.7099695 173.460292,27.8969936 C173.456191,27.1440558 172.675367,26.7035298 171.362237,26.6314348 L171.362237,25.9426362 L174.261621,25.9426362 L174.261621,25.3258506 Z M168.061777,24.3486719 L168.3267,24.9494637 C169.571754,24.8052737 170.592895,24.2805958 170.989869,23.5197022 C171.37782,24.2805958 172.407163,24.8052737 173.653037,24.9494637 L173.925342,24.3486719 C172.611391,24.2165387 171.602553,23.6358416 171.498389,22.9390051 L173.676823,22.9390051 L173.676823,22.3302573 L168.318498,22.3302573 L168.318498,22.9390051 L170.473147,22.9390051 C170.368982,23.6318226 169.351942,24.2165387 168.061777,24.3486719 Z M169.263341,27.8969936 C169.25926,27.4524486 169.888349,27.2121319 170.985768,27.208195 C172.066783,27.2121319 172.699972,27.4524486 172.699972,27.8969936 C172.699972,28.3335006 172.066783,28.5857922 170.985768,28.5778363 C169.888349,28.5857922 169.25926,28.3335006 169.263341,27.8969936 Z" id="Shape" fill="#FFFFFF" fill-rule="nonzero"></path>
            <polygon id="Path" fill="#FFFFFF" fill-rule="nonzero" points="180.621402 25.3098568 176.384282 25.3098568 176.384282 23.1712839 180.557427 23.1712839 180.557427 22.5544983 175.623142 22.5544983 175.623142 25.9186045 177.697412 25.9186045 177.697412 27.6727526 174.80623 27.6727526 174.80623 28.2974941 181.37434 28.2974941 181.37434 27.6727526 178.45035 27.6727526 178.45035 25.9186045 180.621402 25.9186045"></polygon>
            <polygon id="Path" fill="#FFFFFF" fill-rule="nonzero" points="186.347994 22.6986883 185.48351 22.6986883 184.04161 23.6438795 184.04161 24.484824 185.426917 23.5797403 185.458905 23.5797403 185.458905 28.4977034 186.347994 28.4977034"></polygon>
            <polygon id="Path" fill="#FFFFFF" fill-rule="nonzero" points="188.02201 28.4977034 188.943087 28.4977034 191.522596 23.4836136 191.522596 22.6986883 187.621755 22.6986883 187.621755 23.4516261 190.609721 23.4516261 190.609721 23.4996894"></polygon>
            <path d="M191.978624,28.5538046 C192.287017,28.5497857 192.543737,28.2974941 192.547838,27.9850824 C192.543737,27.6727526 192.287017,27.4164421 191.978624,27.4164421 C191.66695,27.4164421 191.406129,27.6727526 191.41023,27.9850824 C191.406129,28.2974941 191.66695,28.5497857 191.978624,28.5538046 Z" id="Path" fill="#FFFFFF" fill-rule="nonzero"></path>
            <path d="M195.398831,28.5778363 C196.640604,28.5778363 197.525593,27.8969936 197.529694,26.9518844 C197.525593,26.2069846 196.989187,25.5982369 196.312527,25.4940723 L196.312527,25.4620847 C196.897325,25.3258506 197.30168,24.7972358 197.305781,24.1644564 C197.30168,23.2714295 196.492149,22.6186374 195.398831,22.6186374 C194.289929,22.6186374 193.484499,23.2714295 193.484499,24.1644564 C193.484499,24.7972358 193.881473,25.3258506 194.477754,25.4620847 L194.477754,25.4940723 C193.792892,25.5982369 193.260586,26.2069846 193.268788,26.9518844 C193.260586,27.8969936 194.137373,28.5778363 195.398831,28.5778363 Z M194.16526,26.8877453 C194.153777,26.2910544 194.677881,25.8545474 195.398831,25.8545474 C196.11158,25.8545474 196.632402,26.2910544 196.632402,26.8877453 C196.632402,27.4564676 196.151769,27.8489302 195.398831,27.8489302 C194.634411,27.8489302 194.153777,27.4564676 194.16526,26.8877453 Z M194.341602,24.2445893 C194.345703,23.7039176 194.762361,23.3354867 195.398831,23.3395056 C196.019718,23.3354867 196.444578,23.7039176 196.440477,24.2445893 C196.444578,24.7891979 196.004134,25.1616478 195.398831,25.1577109 C194.778765,25.1616478 194.345703,24.7852609 194.341602,24.2445893 Z" id="Shape" fill="#FFFFFF" fill-rule="nonzero"></path>
            <path d="M199.772104,25.4540468 C200.553748,25.4620847 200.98599,24.8773687 200.990091,24.0123105 C200.98599,23.163246 200.569332,22.574511 199.772104,22.5785095 C198.999481,22.574511 198.546734,23.163246 198.554936,24.0123105 C198.546734,24.8733497 198.979797,25.4620847 199.772104,25.4540468 Z M199.211911,28.4977034 L199.940243,28.4977034 L203.921463,22.6986883 L203.192311,22.6986883 L199.211911,28.4977034 Z M199.211911,24.0123105 C199.216012,23.4956705 199.399736,23.1472522 199.772104,23.1392143 C200.160876,23.1351954 200.324914,23.4916515 200.324914,24.0123105 C200.324914,24.5449442 200.148573,24.8893435 199.772104,24.8933625 C199.399736,24.8893435 199.216012,24.5449442 199.211911,24.0123105 Z M202.215461,27.1761254 C202.21136,28.0291268 202.643602,28.6178618 203.432628,28.6178618 C204.213452,28.6178618 204.646515,28.0331457 204.650615,27.1761254 C204.646515,26.3191051 204.225755,25.7303701 203.432628,25.7343686 C202.660006,25.7303701 202.21136,26.3191051 202.215461,27.1761254 Z M202.872436,27.1761254 C202.876537,26.6514475 203.064361,26.3030293 203.432628,26.2950734 C203.8214,26.2950734 203.985438,26.6475106 203.985438,27.1761254 C203.985438,27.7007212 203.809097,28.0491395 203.432628,28.0491395 C203.06026,28.0491395 202.876537,27.7007212 202.872436,27.1761254 Z" id="Shape" fill="#FFFFFF" fill-rule="nonzero"></path>
            <rect id="Rectangle" fill="#113287" fill-rule="nonzero" x="75.4578147" y="15.9040402" width="73.8174274" height="19.6846473"></rect>
            <path d="M101.581802,22.8509163 L96.4629737,22.8509163 L96.4629737,23.4676199 L100.820663,23.4676199 L100.820663,23.5557087 C100.816562,24.4167479 100.816562,25.4340341 100.540156,26.8236882 L101.309498,26.9038211 C101.577701,25.4340341 101.577701,24.4407796 101.581802,23.5557087 L101.581802,22.8509163 Z M95.7748313,28.3695892 L102.318336,28.3695892 L102.318336,27.7368098 L99.0186971,27.7368098 L99.0186971,25.2057742 L98.2657593,25.2057742 L98.2657593,27.7368098 L95.7748313,27.7368098 L95.7748313,28.3695892 Z" id="Shape" fill="#FFFFFF" fill-rule="nonzero"></path>
            <polygon id="Path" fill="#FFFFFF" fill-rule="nonzero" points="108.678118 25.4700406 104.440997 25.4700406 104.440997 23.3314677 108.614142 23.3314677 108.614142 22.7146821 103.679858 22.7146821 103.679858 26.0787883 105.754127 26.0787883 105.754127 27.8329365 102.862945 27.8329365 102.862945 28.4576779 109.431055 28.4576779 109.431055 27.8329365 106.507065 27.8329365 106.507065 26.0787883 108.678118 26.0787883"></polygon>
            <polygon id="Path" fill="#FFFFFF" fill-rule="nonzero" points="114.40471 22.8588721 113.540225 22.8588721 112.098325 23.8040633 112.098325 24.6450898 113.483632 23.7399241 113.51562 23.7399241 113.51562 28.6578872 114.40471 28.6578872"></polygon>
            <path d="M116.118914,28.7139885 C116.427307,28.7099695 116.684028,28.4576779 116.688129,28.1452662 C116.684028,27.8329365 116.427307,27.5766259 116.118914,27.5766259 C115.80642,27.5766259 115.546419,27.8329365 115.55052,28.1452662 C115.546419,28.4576779 115.80642,28.7099695 116.118914,28.7139885 Z" id="Path" fill="#FFFFFF" fill-rule="nonzero"></path>
            <path d="M119.635084,22.7787657 C118.373627,22.7707833 117.552613,23.6358416 117.552613,24.7411345 C117.552613,25.8505284 118.385929,26.6475106 119.426755,26.6475106 C120.051743,26.6475106 120.596351,26.3510926 120.908845,25.8625033 L120.981022,25.8625033 C120.97282,27.1881002 120.448716,27.9650696 119.555526,27.9690886 C118.970728,27.9650696 118.594259,27.6246893 118.47369,27.1360999 L117.601004,27.1360999 C117.741257,28.0771901 118.485993,28.7380201 119.555526,28.7380201 C120.944934,28.7380201 121.821721,27.5845818 121.821721,25.5501735 C121.81762,23.4275944 120.700516,22.7867771 119.635084,22.7787657 Z M118.409691,24.7251407 C118.405614,24.0603738 118.934639,23.5156832 119.635084,23.5156832 C120.344552,23.5156832 120.860454,24.0883424 120.860454,24.7171849 C120.860454,25.3579201 120.319946,25.9305793 119.619501,25.9266641 C118.914134,25.9305793 118.413816,25.3979456 118.409691,24.7251407 Z" id="Shape" fill="#FFFFFF" fill-rule="nonzero"></path>
            <path d="M124.080534,25.6142306 C124.861358,25.6222685 125.29442,25.0375525 125.298521,24.1724943 C125.29442,23.3234298 124.877762,22.7347768 124.080534,22.7386941 C123.307911,22.7347768 122.855165,23.3234298 122.863367,24.1724943 C122.855165,25.0335335 123.287407,25.6222685 124.080534,25.6142306 Z M123.520342,28.6578872 L124.248674,28.6578872 L128.229893,22.8588721 L127.500741,22.8588721 L123.520342,28.6578872 Z M123.520342,24.1724943 C123.524443,23.6558543 123.708166,23.307436 124.080534,23.2993981 C124.469306,23.2954612 124.633344,23.6518353 124.633344,24.1724943 C124.633344,24.705128 124.457003,25.0495273 124.080534,25.0535463 C123.708166,25.0495273 123.524443,24.705128 123.520342,24.1724943 Z M126.523891,27.3363092 C126.51979,28.1893106 126.952032,28.7780456 127.741058,28.7780456 C128.521882,28.7780456 128.954945,28.1933295 128.958225,27.3363092 C128.954945,26.4792889 128.534185,25.8905539 127.741058,25.8945524 C126.968436,25.8905539 126.51979,26.4792889 126.523891,27.3363092 Z M127.180866,27.3363092 C127.184147,26.8117134 127.372791,26.4632951 127.741058,26.4552572 C128.12983,26.4552572 128.293869,26.8076944 128.293869,27.3363092 C128.293869,27.8609871 128.117527,28.2094053 127.741058,28.2094053 C127.36869,28.2094053 127.184147,27.8609871 127.180866,27.3363092 Z" id="Shape" fill="#FFFFFF" fill-rule="nonzero"></path>
            <rect id="Rectangle" fill="#001A5B" fill-rule="nonzero" x="9.02213001" y="15.9040402" width="66.4356846" height="19.6846473"></rect>
            <path d="M24.1220589,28.0452026 L21.2065166,28.0452026 L21.2065166,26.4833078 L20.4535788,26.4833078 L20.4535788,28.0452026 L17.5540303,28.0452026 L17.5540303,28.6699441 L24.1220589,28.6699441 L24.1220589,28.0452026 Z M17.8744799,26.1388265 L18.162778,26.7315804 C19.3642797,26.543346 20.3614711,25.9747057 20.8260288,25.1376161 C21.2946054,25.9747057 22.2958158,26.543346 23.4972354,26.7315804 L23.7856155,26.1388265 C22.3118095,25.9226235 21.250561,25.0896348 21.2144725,24.0803865 L23.5133112,24.0803865 L23.5133112,23.4636009 L21.2065166,23.4636009 L21.2065166,22.502498 L20.4535788,22.502498 L20.4535788,23.4636009 L18.1467842,23.4636009 L18.1467842,24.0803865 L20.4455409,24.0803865 C20.4095344,25.0896348 19.3482039,25.9226235 17.8744799,26.1388265 Z" id="Shape" fill="#FFFFFF" fill-rule="nonzero"></path>
            <path d="M30.4496888,23.0631004 L25.3315165,23.0631004 L25.3315165,23.679886 L29.6887952,23.679886 L29.6887952,23.7679748 C29.6847762,24.629014 29.6847762,25.6463002 29.408453,27.0359543 L30.1773845,27.1160872 C30.4456698,25.6463002 30.4456698,24.6530457 30.4496888,23.7679748 L30.4496888,23.0631004 Z M24.6426358,28.5818553 L31.1865508,28.5818553 L31.1865508,27.9490759 L27.8865837,27.9490759 L27.8865837,25.4179583 L27.1336459,25.4179583 L27.1336459,27.9490759 L24.6426358,27.9490759 L24.6426358,28.5818553 Z" id="Shape" fill="#FFFFFF" fill-rule="nonzero"></path>
            <polygon id="Path" fill="#FFFFFF" fill-rule="nonzero" points="37.5462502 25.6823067 33.3091299 25.6823067 33.3091299 23.5437338 37.4821931 23.5437338 37.4821931 22.9269482 32.5482362 22.9269482 32.5482362 26.2910544 34.622752 26.2910544 34.622752 28.0452026 31.7312414 28.0452026 31.7312414 28.6699441 38.299188 28.6699441 38.299188 28.0452026 35.3756898 28.0452026 35.3756898 26.2910544 37.5462502 26.2910544"></polygon>
            <path d="M43.0890368,28.9502862 C44.4306275,28.9502862 45.2155528,27.868943 45.2195718,25.9706868 C45.2155528,24.0844055 44.4185707,22.9910874 43.0890368,22.9910874 C41.7554019,22.9910874 40.9584198,24.0844055 40.9584198,25.9706868 C40.9584198,27.868943 41.747364,28.9502862 43.0890368,28.9502862 Z M41.8394718,25.9706868 C41.8394718,24.5289504 42.3080484,23.7399241 43.0890368,23.7359872 C43.8659242,23.7399241 44.3385198,24.5289504 44.3385198,25.9706868 C44.3385198,27.4164421 43.8699432,28.1893106 43.0890368,28.1893106 C42.3040295,28.1893106 41.8354528,27.4164421 41.8394718,25.9706868 Z" id="Shape" fill="#FFFFFF" fill-rule="nonzero"></path>
            <path d="M46.4851306,28.9262546 C46.7935234,28.9222356 47.0498339,28.6699441 47.0537708,28.3575323 C47.0498339,28.0452026 46.7935234,27.7888921 46.4851306,27.7888921 C46.1727188,27.7888921 45.9123893,28.0452026 45.9164083,28.3575323 C45.9123893,28.6699441 46.1727188,28.9222356 46.4851306,28.9262546 Z" id="Path" fill="#FFFFFF" fill-rule="nonzero"></path>
            <polygon id="Path" fill="#FFFFFF" fill-rule="nonzero" points="48.1270762 28.8701533 49.0482357 28.8701533 51.6273346 23.8560636 51.6273346 23.0711383 47.7266577 23.0711383 47.7266577 23.824076 50.714213 23.824076 50.714213 23.8721394"></polygon>
            <path d="M53.8460404,25.8264968 C54.6269467,25.8345347 55.0595169,25.2498186 55.0635358,24.3847604 C55.0595169,23.5356959 54.6430225,22.9469609 53.8460404,22.9509594 C53.0730899,22.9469609 52.6205071,23.5356959 52.628545,24.3847604 C52.6205071,25.2457997 53.0530772,25.8345347 53.8460404,25.8264968 Z M53.285356,28.8701533 L54.0142621,28.8701533 L57.9950719,23.0711383 L57.2661658,23.0711383 L53.285356,28.8701533 Z M53.285356,24.3847604 C53.289375,23.8681204 53.4735905,23.5197022 53.8460404,23.5116643 C54.2344841,23.5076453 54.3986869,23.8641015 54.3986869,24.3847604 C54.3986869,24.9173941 54.2225093,25.2617934 53.8460404,25.2658124 C53.4735905,25.2617934 53.289375,24.9173941 53.285356,24.3847604 Z M56.2889871,27.5485753 C56.2849682,28.4015767 56.7175383,28.9903117 57.5064826,28.9903117 C58.2873889,28.9903117 58.7199591,28.4055957 58.723978,27.5485753 C58.7199591,26.691555 58.2994458,26.10282 57.5064826,26.1068185 C56.7335321,26.10282 56.2849682,26.691555 56.2889871,27.5485753 Z M56.9457982,27.5485753 C56.9498172,27.0238974 57.1380516,26.6754792 57.5064826,26.6675233 C57.8949263,26.6675233 58.059129,27.0199605 58.059129,27.5485753 C58.059129,28.0731712 57.8829515,28.4216714 57.5064826,28.4216714 C57.1340326,28.4216714 56.9498172,28.0731712 56.9457982,27.5485753 Z" id="Shape" fill="#FFFFFF" fill-rule="nonzero"></path>
            <polygon id="Path" fill="#979797" points="148.865145 52.4923862 148.865145 0 149.685339 0 149.685339 52.4923862"></polygon>
            <polygon id="Path" fill="#979797" points="222.682573 52.4923862 222.682573 0 223.502766 0 223.502766 52.4923862"></polygon>
            <polygon id="Path" fill="#979797" points="75.0477178 52.4923862 75.0477178 0 75.8679115 0 75.8679115 52.4923862"></polygon>
            <rect id="Rectangle" fill="#113287" fill-rule="nonzero" x="444.544952" y="15.9040402" width="73.8174274" height="19.6846473"></rect>
            <path d="M469.999661,22.8509163 L464.881653,22.8509163 L464.881653,23.4676199 L469.238521,23.4676199 L469.238521,23.5557087 C469.235241,24.4167479 469.235241,25.4340341 468.958835,26.8236882 L469.727357,26.9038211 C469.99556,25.4340341 469.99556,24.4407796 469.999661,23.5557087 L469.999661,22.8509163 Z M464.19269,28.3695892 L470.737015,28.3695892 L470.737015,27.7368098 L467.436556,27.7368098 L467.436556,25.2057742 L466.683618,25.2057742 L466.683618,27.7368098 L464.19269,27.7368098 L464.19269,28.3695892 Z" id="Shape" fill="#FFFFFF" fill-rule="nonzero"></path>
            <polygon id="Path" fill="#FFFFFF" fill-rule="nonzero" points="477.096797 25.4700406 472.858856 25.4700406 472.858856 23.3314677 477.032001 23.3314677 477.032001 22.7146821 472.098537 22.7146821 472.098537 26.0787883 474.172806 26.0787883 474.172806 27.8329365 471.281624 27.8329365 471.281624 28.4576779 477.848914 28.4576779 477.848914 27.8329365 474.925744 27.8329365 474.925744 26.0787883 477.096797 26.0787883"></polygon>
            <path d="M482.638845,28.7380201 C483.980682,28.7380201 484.765607,27.6566768 484.769708,25.7584207 C484.765607,23.8721394 483.968379,22.7788212 482.638845,22.7788212 C481.30521,22.7788212 480.508802,23.8721394 480.508802,25.7584207 C480.508802,27.6566768 481.297828,28.7380201 482.638845,28.7380201 Z M481.38969,25.7584207 C481.38969,24.3166843 481.858021,23.52774 482.638845,23.5237211 C483.416389,23.52774 483.88882,24.3166843 483.88882,25.7584207 C483.88882,27.204176 483.419669,27.9771265 482.638845,27.9771265 C481.85392,27.9771265 481.385589,27.204176 481.38969,25.7584207 Z" id="Shape" fill="#FFFFFF" fill-rule="nonzero"></path>
            <path d="M486.035267,28.7139885 C486.34366,28.7099695 486.59956,28.4576779 486.603661,28.1452662 C486.59956,27.8329365 486.34366,27.5766259 486.035267,27.5766259 C485.722773,27.5766259 485.462772,27.8329365 485.466873,28.1452662 C485.462772,28.4576779 485.722773,28.7099695 486.035267,28.7139885 Z" id="Path" fill="#FFFFFF" fill-rule="nonzero"></path>
            <path d="M487.628903,28.6578872 L491.529744,28.6578872 L491.529744,27.9050315 L488.854272,27.9050315 L488.854272,27.8569681 L490.032071,26.6635044 C491.121288,25.5942179 491.42558,25.0775779 491.433781,24.4288048 C491.42558,23.4876326 490.652957,22.7788212 489.535853,22.7788212 C488.430232,22.7788212 487.621521,23.4796767 487.628903,24.5409253 L488.46222,24.5409253 C488.466321,23.9242217 488.874777,23.5156832 489.51945,23.5156832 C490.128033,23.5156832 490.593083,23.8800952 490.593083,24.4528365 C490.593083,24.9614385 490.276488,25.3298695 489.639198,25.9906995 L487.628903,28.0171519 L487.628903,28.6578872 Z" id="Path" fill="#FFFFFF" fill-rule="nonzero"></path>
            <path d="M493.836949,25.6142306 C494.617773,25.6222685 495.050015,25.0375525 495.054116,24.1724943 C495.050015,23.3234298 494.633357,22.7347768 493.836949,22.7386941 C493.063506,22.7347768 492.61158,23.3234298 492.618961,24.1724943 C492.61158,25.0335335 493.043822,25.6222685 493.836949,25.6142306 Z M493.275936,28.6578872 L494.005089,28.6578872 L497.985488,22.8588721 L497.257156,22.8588721 L493.275936,28.6578872 Z M493.275936,24.1724943 C493.280037,23.6558543 493.464581,23.307436 493.836949,23.2993981 C494.2249,23.2954612 494.388939,23.6518353 494.388939,24.1724943 C494.388939,24.705128 494.213418,25.0495273 493.836949,25.0535463 C493.464581,25.0495273 493.280037,24.705128 493.275936,24.1724943 Z M496.279485,27.3363092 C496.275385,28.1893106 496.708447,28.7780456 497.497473,28.7780456 C498.278297,28.7780456 498.710539,28.1933295 498.71464,27.3363092 C498.710539,26.4792889 498.28978,25.8905539 497.497473,25.8945524 C496.72403,25.8905539 496.275385,26.4792889 496.279485,27.3363092 Z M496.936461,27.3363092 C496.940562,26.8117134 497.128386,26.4632951 497.497473,26.4552572 C497.885425,26.4552572 498.049463,26.8076944 498.049463,27.3363092 C498.049463,27.8609871 497.873942,28.2094053 497.497473,28.2094053 C497.124285,28.2094053 496.940562,27.8609871 496.936461,27.3363092 Z" id="Shape" fill="#FFFFFF" fill-rule="nonzero"></path>
            <rect id="Rectangle" fill="#5B6EB4" fill-rule="nonzero" x="370.727524" y="15.9040402" width="73.8174274" height="19.6846473"></rect>
            <path d="M397.660223,25.3258506 L391.115898,25.3258506 L391.115898,25.9426362 L394.0079,25.9426362 L394.0079,26.6314348 C392.674266,26.6995109 391.893441,27.1440558 391.893441,27.8969936 C391.893441,28.7099695 392.8219,29.1665713 394.384369,29.1625787 C395.926333,29.1665713 396.854793,28.7099695 396.858893,27.8969936 C396.854793,27.1440558 396.073968,26.7035298 394.760838,26.6314348 L394.760838,25.9426362 L397.660223,25.9426362 L397.660223,25.3258506 Z M391.460379,24.3486719 L391.725302,24.9494637 C392.970355,24.8052737 393.991497,24.2805958 394.38847,23.5197022 C394.776422,24.2805958 395.805765,24.8052737 397.051639,24.9494637 L397.323943,24.3486719 C396.009993,24.2165387 395.001155,23.6358416 394.89699,22.9390051 L397.075425,22.9390051 L397.075425,22.3302573 L391.7171,22.3302573 L391.7171,22.9390051 L393.871748,22.9390051 C393.767584,23.6318226 392.750544,24.2165387 391.460379,24.3486719 Z M392.661943,27.8969936 C392.657862,27.4524486 393.28695,27.2121319 394.384369,27.208195 C395.465385,27.2121319 396.098574,27.4524486 396.098574,27.8969936 C396.098574,28.3335006 395.465385,28.5857922 394.384369,28.5778363 C393.28695,28.5857922 392.657862,28.3335006 392.661943,27.8969936 Z" id="Shape" fill="#FFFFFF" fill-rule="nonzero"></path>
            <polygon id="Path" fill="#FFFFFF" fill-rule="nonzero" points="404.020004 25.3098568 399.782884 25.3098568 399.782884 23.1712839 403.956029 23.1712839 403.956029 22.5544983 399.021744 22.5544983 399.021744 25.9186045 401.096014 25.9186045 401.096014 27.6727526 398.204831 27.6727526 398.204831 28.2974941 404.772942 28.2974941 404.772942 27.6727526 401.848952 27.6727526 401.848952 25.9186045 404.020004 25.9186045"></polygon>
            <polygon id="Path" fill="#FFFFFF" fill-rule="nonzero" points="409.746596 22.6986883 408.882112 22.6986883 407.440212 23.6438795 407.440212 24.484824 408.825519 23.5797403 408.857506 23.5797403 408.857506 28.4977034 409.746596 28.4977034"></polygon>
            <path d="M411.460801,28.5538046 C411.769194,28.5497857 412.025914,28.2974941 412.029195,27.9850824 C412.025914,27.6727526 411.769194,27.4164421 411.460801,27.4164421 C411.148307,27.4164421 410.888306,27.6727526 410.892407,27.9850824 C410.888306,28.2974941 411.148307,28.5497857 411.460801,28.5538046 Z" id="Path" fill="#FFFFFF" fill-rule="nonzero"></path>
            <path d="M414.936781,28.577891 C416.182656,28.5857922 417.011871,27.7247529 417.011871,26.5994472 C417.011871,25.4900533 416.178555,24.6970901 415.145111,24.6931532 C414.516842,24.6970901 413.972234,24.9854702 413.655639,25.4780785 L413.591664,25.4780785 C413.591664,24.1684753 414.112487,23.3915059 415.008959,23.387569 C415.593757,23.3915059 415.966124,23.7319683 416.082592,24.2045638 L416.955278,24.2045638 C416.819126,23.2834044 416.078491,22.6186374 415.008959,22.6186374 C413.61955,22.6186374 412.746044,23.7719937 412.742763,25.7904082 C412.742763,27.9330001 413.863968,28.5697984 414.936781,28.577891 Z M413.695828,26.6234789 C413.70321,25.9786427 414.244538,25.4100024 414.953185,25.4139991 C415.65035,25.4100024 416.154769,25.9506741 416.154769,26.615441 C416.154769,27.2922648 415.629845,27.8369554 414.9294,27.8408923 C414.215831,27.8369554 413.699929,27.2682331 413.695828,26.6234789 Z" id="Shape" fill="#FFFFFF" fill-rule="nonzero"></path>
            <path d="M419.278066,25.4540468 C420.058891,25.4620847 420.491953,24.8773687 420.496054,24.0123105 C420.491953,23.163246 420.075295,22.574511 419.278066,22.5785095 C418.505444,22.574511 418.052697,23.163246 418.060899,24.0123105 C418.052697,24.8733497 418.485759,25.4620847 419.278066,25.4540468 Z M418.717874,28.4977034 L419.446206,28.4977034 L423.427426,22.6986883 L422.698274,22.6986883 L418.717874,28.4977034 Z M418.717874,24.0123105 C418.721975,23.4956705 418.905698,23.1472522 419.278066,23.1392143 C419.666838,23.1351954 419.830877,23.4916515 419.830877,24.0123105 C419.830877,24.5449442 419.654535,24.8893435 419.278066,24.8933625 C418.905698,24.8893435 418.721975,24.5449442 418.717874,24.0123105 Z M421.721423,27.1761254 C421.717322,28.0291268 422.149564,28.6178618 422.938591,28.6178618 C423.719415,28.6178618 424.152477,28.0331457 424.156578,27.1761254 C424.152477,26.3191051 423.731718,25.7303701 422.938591,25.7343686 C422.165968,25.7303701 421.717322,26.3191051 421.721423,27.1761254 Z M422.378398,27.1761254 C422.382499,26.6514475 422.570324,26.3030293 422.938591,26.2950734 C423.327362,26.2950734 423.491401,26.6475106 423.491401,27.1761254 C423.491401,27.7007212 423.315059,28.0491395 422.938591,28.0491395 C422.566223,28.0491395 422.382499,27.7007212 422.378398,27.1761254 Z" id="Shape" fill="#FFFFFF" fill-rule="nonzero"></path>
            <rect id="Rectangle" fill="#E2E6F6" fill-rule="nonzero" x="296.910097" y="15.9040402" width="73.8174274" height="19.6846473"></rect>
            <path d="M320.026434,22.1780294 L319.265295,22.1780294 L319.265295,23.4516261 L317.706927,23.4516261 C317.755318,23.2113093 317.783205,22.9549988 317.783205,22.6906504 L314.499149,22.6906504 L314.499149,23.3154739 L316.95809,23.3154739 C316.821938,24.4728492 315.828683,25.3859708 314.130882,25.8705412 L314.435174,26.4632951 C315.989441,26.0187501 317.066355,25.2057742 317.531405,24.0523359 L319.265295,24.0523359 L319.265295,24.925432 L317.455127,24.925432 L317.455127,25.5501735 L319.265295,25.5501735 L319.265295,26.4231876 L320.026434,26.4231876 L320.026434,22.1780294 Z M315.244705,27.9050315 C315.244705,28.7780456 316.189568,29.3146983 317.663456,29.3146983 C319.11684,29.3146983 320.069905,28.7780456 320.074006,27.9050315 C320.069905,27.0359543 319.11684,26.5073395 317.663456,26.5033205 C316.189568,26.5073395 315.244705,27.0359543 315.244705,27.9050315 Z M315.996823,27.9050315 C315.996823,27.3924105 316.638214,27.1000114 317.663456,27.1040304 C318.668194,27.1000114 319.309585,27.3924105 319.312866,27.9050315 C319.309585,28.4096146 318.668194,28.7019316 317.663456,28.7059506 C316.638214,28.7019316 315.996823,28.4096146 315.996823,27.9050315 Z" id="Shape" fill="#113287" fill-rule="nonzero"></path>
            <polygon id="Path" fill="#113287" fill-rule="nonzero" points="326.946408 25.4780785 322.709288 25.4780785 322.709288 23.3395056 326.882433 23.3395056 326.882433 22.72272 321.948148 22.72272 321.948148 26.0868262 324.023238 26.0868262 324.023238 27.8408923 321.131235 27.8408923 321.131235 28.4657158 327.699346 28.4657158 327.699346 27.8408923 324.776176 27.8408923 324.776176 26.0868262 326.946408 26.0868262"></polygon>
            <path d="M330.47078,28.6659251 L334.371621,28.6659251 L334.371621,27.9129874 L331.696149,27.9129874 L331.696149,27.864924 L332.873947,26.6715423 C333.963165,25.6022558 334.267456,25.0856158 334.275658,24.4368427 C334.267456,23.4956705 333.494014,22.7867771 332.37691,22.7867771 C331.272109,22.7867771 330.462578,23.4876326 330.47078,24.5489631 L331.304097,24.5489631 C331.307378,23.9321775 331.716654,23.5237211 332.361326,23.5237211 C332.96991,23.5237211 333.43414,23.8881331 333.43414,24.4607923 C333.43414,24.9694764 333.118365,25.3379074 332.481075,25.9986554 L330.47078,28.0251898 L330.47078,28.6659251 Z" id="Path" fill="#113287" fill-rule="nonzero"></path>
            <path d="M335.348472,28.6659251 L339.249313,28.6659251 L339.249313,27.9129874 L336.573841,27.9129874 L336.573841,27.864924 L337.751639,26.6715423 C338.840856,25.6022558 339.145148,25.0856158 339.15335,24.4368427 C339.145148,23.4956705 338.372526,22.7867771 337.254602,22.7867771 C336.149801,22.7867771 335.34027,23.4876326 335.348472,24.5489631 L336.181788,24.5489631 C336.185889,23.9321775 336.594346,23.5237211 337.239018,23.5237211 C337.847602,23.5237211 338.312651,23.8881331 338.312651,24.4607923 C338.312651,24.9694764 337.996057,25.3379074 337.358766,25.9986554 L335.348472,28.0251898 L335.348472,28.6659251 Z" id="Path" fill="#113287" fill-rule="nonzero"></path>
            <path d="M340.795378,28.7220264 C341.10377,28.7180074 341.359671,28.4657158 341.363772,28.1533041 C341.359671,27.8408923 341.10377,27.5845818 340.795378,27.5845818 C340.482884,27.5845818 340.222882,27.8408923 340.226163,28.1533041 C340.222882,28.4657158 340.482884,28.7180074 340.795378,28.7220264 Z" id="Path" fill="#113287" fill-rule="nonzero"></path>
            <path d="M344.239371,28.746058 C345.440954,28.746058 346.334145,28.0371647 346.330071,27.0719608 C346.334145,26.3391178 345.873196,25.806484 345.080069,25.6943636 L345.080069,25.6542561 C345.705057,25.4980912 346.113513,25.0254957 346.105311,24.3647477 C346.113513,23.5076453 345.396664,22.7867771 344.255775,22.7867771 C343.173939,22.7867771 342.301253,23.4275944 342.276647,24.3727035 L343.126368,24.3727035 C343.146053,23.8481077 343.666876,23.5237211 344.247573,23.5237211 C344.860257,23.5237211 345.256411,23.8841142 345.256411,24.412811 C345.256411,24.9694764 344.796282,25.3379074 344.135206,25.3338885 L343.638989,25.3338885 L343.638989,26.0547566 L344.135206,26.0547566 C344.964422,26.0587756 345.440954,26.467232 345.440954,27.0399732 C345.440954,27.6046766 344.932434,27.9850824 344.231169,27.9850824 C343.582396,27.9850824 343.077976,27.6606958 343.045989,27.1520937 L342.148697,27.1520937 C342.184786,28.1012218 343.037787,28.746058 344.239371,28.746058 Z" id="Path" fill="#113287" fill-rule="nonzero"></path>
            <path d="M348.629047,25.6222685 C349.409871,25.6302244 349.842113,25.0455084 349.846214,24.1805322 C349.842113,23.3314677 349.425455,22.7427327 348.629047,22.7467312 C347.855604,22.7427327 347.402858,23.3314677 347.411059,24.1805322 C347.402858,25.0415714 347.83592,25.6302244 348.629047,25.6222685 Z M348.068035,28.6659251 L348.797187,28.6659251 L352.777586,22.86691 L352.049254,22.86691 L348.068035,28.6659251 Z M348.068035,24.1805322 C348.072136,23.6638922 348.256679,23.3154739 348.629047,23.307436 C349.016999,23.3034171 349.181037,23.6598732 349.181037,24.1805322 C349.181037,24.7131659 349.005516,25.0575652 348.629047,25.0615842 C348.256679,25.0575652 348.072136,24.7131659 348.068035,24.1805322 Z M351.071584,27.3443471 C351.067483,28.1973485 351.500545,28.7860835 352.289571,28.7860835 C353.070396,28.7860835 353.502638,28.2013674 353.506739,27.3443471 C353.502638,26.4873268 353.081878,25.8985918 352.289571,25.9025903 C351.516129,25.8985918 351.067483,26.4873268 351.071584,27.3443471 Z M351.728559,27.3443471 C351.73266,26.8196692 351.920484,26.471251 352.289571,26.4632951 C352.677523,26.4632951 352.841562,26.8156503 352.841562,27.3443471 C352.841562,27.868943 352.66604,28.2173612 352.289571,28.2173612 C351.916383,28.2173612 351.73266,27.868943 351.728559,27.3443471 Z" id="Shape" fill="#113287" fill-rule="nonzero"></path>
            <polygon id="Path" fill="#113287" points="295.679806 52.4923862 295.679806 0 297.320194 0 297.320194 52.4923862"></polygon>
            <path d="M271.343021,63.1687648 L268.733165,60.5589087 C268.573227,60.3987248 268.573227,60.1391335 268.733165,59.9789497 L271.343021,57.3690936 C271.503779,57.2089918 271.76296,57.2089918 271.923718,57.3690936 C272.083656,57.5292774 272.083656,57.7889507 271.923718,57.9490525 L270.013487,59.8588734 L284.607192,59.8588734 L284.607192,60.679067 L270.013487,60.679067 L271.923718,62.5888059 C272.083656,62.7489077 272.083656,63.008581 271.923718,63.1687648 C271.76296,63.3289486 271.503779,63.3289486 271.343021,63.1687648 Z" id="Path" fill="#113287"></path>
            <path d="M322.477173,57.3692576 L325.087029,59.9791138 C325.246967,60.1392976 325.246967,60.3988889 325.087029,60.5590727 L322.477173,63.1689288 C322.316415,63.3290306 322.057234,63.3290306 321.896476,63.1689288 C321.736538,63.008745 321.736538,62.7490717 321.896476,62.5889699 L323.806707,60.679149 L309.213001,60.679149 L309.213001,59.8589554 L323.806707,59.8589554 L321.896476,57.9492165 C321.736538,57.7891147 321.736538,57.5294414 321.896476,57.3692576 C322.057234,57.2091558 322.316415,57.2091558 322.477173,57.3692576 Z" id="Path" fill="#113287"></path>
            <polygon id="Path" fill="#001A5B" fill-rule="nonzero" points="586.811639 15.9040402 563.183501 15.9040402 563.183501 35.5886875 586.811639 35.5886875 593 25.7463638"></polygon>
            <rect id="Rectangle" fill="#001A5B" fill-rule="nonzero" transform="translate(551.170124, 25.746364) scale(-1, 1) translate(-551.170124, -25.746364) " x="518.362379" y="15.9040402" width="65.615491" height="19.6846473"></rect>
            <path d="M541.017768,28.0452026 L538.101979,28.0452026 L538.101979,26.4833078 L537.349041,26.4833078 L537.349041,28.0452026 L534.449657,28.0452026 L534.449657,28.6699441 L541.017768,28.6699441 L541.017768,28.0452026 Z M534.770353,26.1388265 L535.058241,26.7315804 C536.259824,26.543346 537.25718,25.9747057 537.72223,25.1376161 C538.19056,25.9747057 539.192017,26.543346 540.39278,26.7315804 L540.681488,26.1388265 C539.2076,25.9226235 538.14627,25.0896348 538.110181,24.0803865 L540.409184,24.0803865 L540.409184,23.4636009 L538.101979,23.4636009 L538.101979,22.502498 L537.349041,22.502498 L537.349041,23.4636009 L535.042657,23.4636009 L535.042657,24.0803865 L537.34166,24.0803865 C537.305571,25.0896348 536.244241,25.9226235 534.770353,26.1388265 Z" id="Shape" fill="#FFFFFF" fill-rule="nonzero"></path>
            <path d="M547.345562,23.0631004 L542.227553,23.0631004 L542.227553,23.679886 L546.584422,23.679886 L546.584422,23.7679748 C546.580321,24.629014 546.580321,25.6463002 546.303916,27.0359543 L547.073257,27.1160872 C547.341461,25.6463002 547.341461,24.6530457 547.345562,23.7679748 L547.345562,23.0631004 Z M541.538591,28.5818553 L548.082095,28.5818553 L548.082095,27.9490759 L544.782456,27.9490759 L544.782456,25.4179583 L544.029519,25.4179583 L544.029519,27.9490759 L541.538591,27.9490759 L541.538591,28.5818553 Z" id="Shape" fill="#FFFFFF" fill-rule="nonzero"></path>
            <polygon id="Path" fill="#FFFFFF" fill-rule="nonzero" points="554.441877 25.6823067 550.204757 25.6823067 550.204757 23.5437338 554.377902 23.5437338 554.377902 22.9269482 549.444437 22.9269482 549.444437 26.2910544 551.518707 26.2910544 551.518707 28.0452026 548.626704 28.0452026 548.626704 28.6699441 555.194815 28.6699441 555.194815 28.0452026 552.271645 28.0452026 552.271645 26.2910544 554.441877 26.2910544"></polygon>
            <path d="M559.984746,28.9502862 C561.326582,28.9502862 562.111508,27.868943 562.115609,25.9706868 C562.111508,24.0844055 561.314279,22.9910874 559.984746,22.9910874 C558.651111,22.9910874 557.853882,24.0844055 557.853882,25.9706868 C557.853882,27.868943 558.642909,28.9502862 559.984746,28.9502862 Z M558.735591,25.9706868 C558.735591,24.5289504 559.203921,23.7399241 559.984746,23.7359872 C560.761469,23.7399241 561.234721,24.5289504 561.234721,25.9706868 C561.234721,27.4164421 560.76557,28.1893106 559.984746,28.1893106 C559.19982,28.1893106 558.73149,27.4164421 558.735591,25.9706868 Z" id="Shape" fill="#FFFFFF" fill-rule="nonzero"></path>
            <path d="M563.381167,28.9262546 C563.68956,28.9222356 563.945461,28.6699441 563.949562,28.3575323 C563.945461,28.0452026 563.68956,27.7888921 563.381167,27.7888921 C563.068674,27.7888921 562.807852,28.0452026 562.811953,28.3575323 C562.807852,28.6699441 563.068674,28.9222356 563.381167,28.9262546 Z" id="Path" fill="#FFFFFF" fill-rule="nonzero"></path>
            <path d="M566.82516,28.9502862 C568.026744,28.9502862 568.919935,28.2413929 568.915861,27.276271 C568.919935,26.543346 568.458986,26.0107122 567.665859,25.8985918 L567.665859,25.8585663 C568.290846,25.7023194 568.699303,25.2298059 568.691101,24.5689759 C568.699303,23.7119555 567.982454,22.9910874 566.840744,22.9910874 C565.759729,22.9910874 564.887043,23.6318226 564.862437,24.5770138 L565.711337,24.5770138 C565.731842,24.0523359 566.252665,23.7279493 566.833362,23.7279493 C567.446047,23.7279493 567.842201,24.0883424 567.842201,24.6170392 C567.842201,25.1737046 567.382072,25.5421356 566.720996,25.5381167 L566.223959,25.5381167 L566.223959,26.2589849 L566.720996,26.2589849 C567.550212,26.2630038 568.026744,26.6715423 568.026744,27.2442015 C568.026744,27.8089048 567.518224,28.1893106 566.816959,28.1893106 C566.168185,28.1893106 565.663766,27.864924 565.631779,27.3563219 L564.734487,27.3563219 C564.770575,28.305532 565.623577,28.9502862 566.82516,28.9502862 Z" id="Path" fill="#FFFFFF" fill-rule="nonzero"></path>
            <path d="M571.214017,25.8264968 C571.995661,25.8345347 572.427903,25.2498186 572.432004,24.3847604 C572.427903,23.5356959 572.011245,22.9469609 571.214017,22.9509594 C570.441394,22.9469609 569.988647,23.5356959 569.996849,24.3847604 C569.988647,25.2457997 570.42171,25.8345347 571.214017,25.8264968 Z M570.653824,28.8701533 L571.382976,28.8701533 L575.363376,23.0711383 L574.634224,23.0711383 L570.653824,28.8701533 Z M570.653824,24.3847604 C570.657925,23.8681204 570.841649,23.5197022 571.214017,23.5116643 C571.602788,23.5076453 571.766827,23.8641015 571.766827,24.3847604 C571.766827,24.9173941 571.590485,25.2617934 571.214017,25.2658124 C570.841649,25.2617934 570.657925,24.9173941 570.653824,24.3847604 Z M573.657373,27.5485753 C573.653272,28.4015767 574.085515,28.9903117 574.874541,28.9903117 C575.656185,28.9903117 576.088427,28.4055957 576.092528,27.5485753 C576.088427,26.691555 575.667668,26.10282 574.874541,26.1068185 C574.101918,26.10282 573.653272,26.691555 573.657373,27.5485753 Z M574.314349,27.5485753 C574.31845,27.0238974 574.506274,26.6754792 574.874541,26.6675233 C575.263313,26.6675233 575.427351,27.0199605 575.427351,27.5485753 C575.427351,28.0731712 575.25101,28.4216714 574.874541,28.4216714 C574.502173,28.4216714 574.31845,28.0731712 574.314349,27.5485753 Z" id="Shape" fill="#FFFFFF" fill-rule="nonzero"></path>
            <polygon id="Path" fill="#979797" points="370.317427 52.4923862 370.317427 0 371.137621 0 371.137621 52.4923862"></polygon>
            <polygon id="Path" fill="#979797" points="444.134855 52.4923862 444.134855 0 444.955048 0 444.955048 52.4923862"></polygon>
            <polygon id="Path" fill="#979797" points="517.952282 52.4923862 517.952282 0 518.772476 0 518.772476 52.4923862"></polygon>
        </g>
    </g>
</svg>