<svg width="593" height="74" viewBox="0 0 593 74" fill="none" xmlns="http://www.w3.org/2000/svg">
<rect width="593" height="74" fill="#727272"/>
<path d="M-340 -177C-340 -178.105 -339.105 -179 -338 -179H2975C2976.1 -179 2977 -178.105 2977 -177V1793C2977 1794.1 2976.1 1795 2975 1795H-338C-339.105 1795 -340 1794.1 -340 1793V-177Z" fill="white"/>
<path d="M-338 -178H2975V-180H-338V-178ZM2976 -177V1793H2978V-177H2976ZM2975 1794H-338V1796H2975V1794ZM-339 1793V-177H-341V1793H-339ZM-338 1794C-338.552 1794 -339 1793.55 -339 1793H-341C-341 1794.66 -339.657 1796 -338 1796V1794ZM2976 1793C2976 1793.55 2975.55 1794 2975 1794V1796C2976.66 1796 2978 1794.66 2978 1793H2976ZM2975 -178C2975.55 -178 2976 -177.552 2976 -177H2978C2978 -178.657 2976.66 -180 2975 -180V-178ZM-338 -180C-339.657 -180 -341 -178.657 -341 -177H-339C-339 -177.552 -338.552 -178 -338 -178V-180Z" fill="black" fill-opacity="0.1"/>
<path fill-rule="evenodd" clip-rule="evenodd" d="M111.957 40.0133V12.5232H112.777V40.0133H111.957Z" fill="#979797"/>
<path d="M6.18832 15.9041H29.8162V35.5887H6.18832L0 25.7464L6.18832 15.9041Z" fill="#001A5B"/>
<path d="M292.134 62.8017C293.255 62.8089 294.002 62.034 294.002 61.0211C294.002 60.0228 293.252 59.309 292.322 59.3054C291.756 59.309 291.266 59.5685 290.981 60.0119H290.924C290.924 58.8333 291.392 58.134 292.199 58.1304C292.726 58.134 293.061 58.4404 293.165 58.8657H293.951C293.829 58.0367 293.162 57.4384 292.199 57.4384C290.948 57.4384 290.162 58.4764 290.159 60.293C290.159 62.2214 291.169 62.7944 292.134 62.8017ZM291.017 61.0428C291.024 60.4625 291.511 59.9507 292.149 59.9543C292.776 59.9507 293.23 60.4372 293.23 61.0355C293.23 61.6447 292.758 62.1348 292.127 62.1385C291.485 62.1348 291.02 61.623 291.017 61.0428Z" fill="#001A5B"/>
<path d="M296.662 62.8017C297.869 62.8017 298.575 61.8285 298.579 60.12C298.575 58.4224 297.858 57.4384 296.662 57.4384C295.461 57.4384 294.744 58.4224 294.744 60.12C294.744 61.8285 295.454 62.8017 296.662 62.8017ZM295.537 60.12C295.537 58.8225 295.959 58.1124 296.662 58.1088C297.36 58.1124 297.786 58.8225 297.786 60.12C297.786 61.4212 297.364 62.1169 296.662 62.1169C295.955 62.1169 295.533 61.4212 295.537 60.12Z" fill="#001A5B"/>
<path d="M301.167 62.7296C302.756 62.7296 303.672 61.742 303.676 60.1128C303.672 58.4873 302.756 57.5105 301.217 57.5105H299.473V62.7296H301.167ZM300.265 62.0376V58.2025H301.167C302.306 58.2025 302.89 58.8837 302.89 60.1128C302.89 61.3455 302.306 62.0339 301.123 62.0376H300.265Z" fill="#001A5B"/>
<path d="M275.659 66.5807H275.153V69.9511H273.973V70.3163H275.153V70.9059H275.659V66.5807ZM270.93 69.2206L271 69.6307C271.478 69.6307 272.025 69.6307 272.602 69.6084V70.7072H273.108V69.5827C273.631 69.5507 274.166 69.4994 274.672 69.4193L274.64 69.0541C273.419 69.2046 271.99 69.2142 270.93 69.2206ZM271.391 67.8045C271.388 68.4132 271.958 68.7914 272.801 68.7914C273.637 68.7914 274.207 68.4132 274.21 67.8045C274.207 67.2054 273.637 66.8113 272.801 66.8113C271.958 66.8113 271.388 67.2054 271.391 67.8045ZM271.75 72.149H275.8V71.7261H272.256V70.483H271.75V72.149ZM271.872 67.8045C271.866 67.4393 272.244 67.1894 272.801 67.1958C273.343 67.1894 273.727 67.4393 273.73 67.8045C273.727 68.1762 273.343 68.4164 272.801 68.4196C272.244 68.4164 271.866 68.1762 271.872 67.8045Z" fill="#001A5B"/>
<path d="M280.304 68.1057V67.0676H279.805V68.1057C279.798 69.1854 279.096 70.2748 278.247 70.6624L278.568 71.0853C279.234 70.7489 279.795 70.028 280.057 69.1694C280.33 69.98 280.891 70.656 281.541 70.97L281.849 70.5727C281.009 70.1914 280.301 69.147 280.304 68.1057ZM282.47 72.2836H282.977V66.5742H282.47V72.2836Z" fill="#001A5B"/>
<path d="M314.862 67.7405H310.991V68.1506H314.361V68.1826C314.365 68.6664 314.365 69.2271 314.211 70.0153H310.331V70.4382H315.547V70.0153H314.711C314.862 69.2399 314.862 68.6632 314.862 68.1826V67.7405ZM311.023 72.9628H315.035V72.5399H311.523V71.0789H311.023V72.9628Z" fill="#001A5B"/>
<path d="M319.674 68.9259V67.8878H319.174V68.9259C319.168 70.0056 318.466 71.095 317.617 71.4826L317.937 71.9055C318.603 71.5691 319.164 70.8482 319.427 69.9896C319.699 70.8002 320.26 71.4762 320.911 71.7902L321.218 71.3929C320.378 71.0116 319.67 69.9672 319.674 68.9259ZM321.84 73.1038H322.346V67.3944H321.84V73.1038Z" fill="#001A5B"/>
<path d="M70.563 63.6218C71.6516 63.6218 72.4229 62.883 72.4229 61.8557C72.4229 60.8501 71.6984 60.122 70.7144 60.1185C70.3179 60.122 69.9503 60.2626 69.734 60.4716H69.6836L69.8566 59.0083H72.1561V58.3307H69.2006L68.8617 61.2358H69.6115C69.7881 60.915 70.1089 60.7745 70.527 60.7745C71.183 60.7816 71.6516 61.2429 71.6516 61.8774C71.6516 62.4973 71.1974 62.955 70.563 62.9586C70.0368 62.955 69.6115 62.6306 69.5682 62.1873H68.7969C68.833 63.0199 69.5754 63.6218 70.563 63.6218Z" fill="#001A5B"/>
<path d="M73.1511 62.5334H75.6886V63.5497H76.4383V62.5334H77.1519V61.8629H76.4383V58.3307H75.4579L73.1511 61.8918V62.5334ZM73.9873 61.8629V61.8197L75.6309 59.275H75.6886V61.8629H73.9873Z" fill="#001A5B"/>
<path d="M79.7182 63.5497C81.3077 63.5497 82.2236 62.5621 82.2269 60.933C82.2236 59.3075 81.3077 58.3307 79.7687 58.3307H78.0242V63.5497H79.7182ZM78.8171 62.8577V59.0227H79.7182C80.8572 59.0227 81.4411 59.7039 81.4411 60.933C81.4411 62.1657 80.8572 62.8541 79.675 62.8577H78.8171Z" fill="#001A5B"/>
<path d="M144.424 63.6218C145.512 63.6218 146.284 62.883 146.284 61.8557C146.284 60.8501 145.559 60.122 144.576 60.1185C144.179 60.122 143.811 60.2626 143.595 60.4716H143.545L143.718 59.0083H146.017V58.3307H143.062L142.723 61.2358H143.472C143.649 60.915 143.969 60.7745 144.388 60.7745C145.044 60.7816 145.512 61.2429 145.512 61.8774C145.512 62.4973 145.058 62.955 144.424 62.9586C143.897 62.955 143.472 62.6306 143.429 62.1873H142.658C142.694 63.0199 143.436 63.6218 144.424 63.6218Z" fill="#001A5B"/>
<path d="M149.016 63.6219C150.137 63.6291 150.883 62.8542 150.883 61.8413C150.883 60.843 150.133 60.1292 149.203 60.1256C148.637 60.1292 148.148 60.3887 147.862 60.8321H147.805C147.805 59.6535 148.273 58.9542 149.081 58.9506C149.607 58.9542 149.942 59.2606 150.046 59.6859H150.832C150.71 58.8569 150.043 58.2586 149.081 58.2586C147.83 58.2586 147.044 59.2966 147.04 61.1132C147.04 63.0416 148.05 63.6146 149.016 63.6219ZM147.898 61.8629C147.906 61.2827 148.392 60.7709 149.03 60.7744C149.658 60.7709 150.112 61.2574 150.112 61.8557C150.112 62.4649 149.639 62.955 149.009 62.9586C148.367 62.955 147.902 62.4432 147.898 61.8629Z" fill="#001A5B"/>
<path d="M153.493 63.5497C155.082 63.5497 155.997 62.5621 156.001 60.933C155.997 59.3075 155.082 58.3307 153.543 58.3307H151.798V63.5497H153.493ZM152.591 62.8577V59.0227H153.493C154.631 59.0227 155.215 59.7039 155.215 60.933C155.215 62.1657 154.631 62.8541 153.449 62.8577H152.591Z" fill="#001A5B"/>
<path d="M218.259 63.6218C219.348 63.6218 220.119 62.883 220.119 61.8557C220.119 60.8501 219.394 60.122 218.411 60.1185C218.014 60.122 217.647 60.2626 217.43 60.4716H217.38L217.553 59.0083H219.852V58.3307H216.897L216.558 61.2358H217.308C217.484 60.915 217.805 60.7745 218.223 60.7745C218.879 60.7816 219.348 61.2429 219.348 61.8774C219.348 62.4973 218.893 62.955 218.259 62.9586C217.733 62.955 217.308 62.6306 217.264 62.1873H216.493C216.529 63.0199 217.272 63.6218 218.259 63.6218Z" fill="#001A5B"/>
<path d="M222.786 63.6219C223.904 63.6219 224.7 63.0092 224.704 62.1585C224.7 61.4881 224.217 60.9402 223.608 60.8465V60.8177C224.134 60.6952 224.499 60.2194 224.502 59.6499C224.499 58.8461 223.77 58.2586 222.786 58.2586C221.788 58.2586 221.064 58.8461 221.064 59.6499C221.064 60.2194 221.42 60.6952 221.958 60.8177V60.8465C221.341 60.9402 220.862 61.4881 220.869 62.1585C220.862 63.0092 221.651 63.6219 222.786 63.6219ZM221.676 62.1008C221.666 61.5638 222.137 61.171 222.786 61.171C223.428 61.171 223.897 61.5638 223.897 62.1008C223.897 62.6127 223.464 62.9659 222.786 62.9659C222.098 62.9659 221.666 62.6127 221.676 62.1008ZM221.835 59.722C221.839 59.2354 222.214 58.9038 222.786 58.9074C223.345 58.9038 223.727 59.2354 223.724 59.722C223.727 60.2121 223.331 60.5474 222.786 60.5438C222.227 60.5474 221.839 60.2085 221.835 59.722Z" fill="#001A5B"/>
<path d="M227.292 63.5497C228.882 63.5497 229.797 62.5621 229.8 60.933C229.797 59.3075 228.882 58.3307 227.342 58.3307H225.598V63.5497H227.292ZM226.391 62.8577V59.0227H227.292C228.431 59.0227 229.015 59.7039 229.015 60.933C229.015 62.1657 228.431 62.8541 227.249 62.8577H226.391Z" fill="#001A5B"/>
<path d="M365.926 62.8017C367.047 62.8089 367.794 62.034 367.794 61.0211C367.794 60.0228 367.044 59.309 366.114 59.3054C365.548 59.309 365.058 59.5685 364.773 60.0119H364.716C364.716 58.8333 365.184 58.134 365.992 58.1304C366.518 58.134 366.853 58.4404 366.957 58.8657H367.743C367.621 58.0367 366.954 57.4384 365.992 57.4384C364.741 57.4384 363.955 58.4764 363.951 60.293C363.951 62.2214 364.961 62.7944 365.926 62.8017ZM364.809 61.0428C364.816 60.4625 365.303 59.9507 365.941 59.9543C366.568 59.9507 367.022 60.4372 367.022 61.0355C367.022 61.6447 366.55 62.1348 365.92 62.1385C365.277 62.1348 364.813 61.623 364.809 61.0428Z" fill="#001A5B"/>
<path d="M370.49 62.8017C371.571 62.8017 372.374 62.1637 372.371 61.295C372.374 60.6354 371.96 60.1561 371.247 60.0552V60.0192C371.809 59.8786 372.177 59.4532 372.169 58.8585C372.177 58.0872 371.531 57.4384 370.504 57.4384C369.531 57.4384 368.745 58.0151 368.724 58.8657H369.487C369.505 58.3935 369.975 58.1016 370.497 58.1016C371.048 58.1016 371.405 58.426 371.405 58.9018C371.405 59.4028 370.991 59.7344 370.396 59.7308H369.949V60.3795H370.396C371.142 60.3832 371.571 60.7508 371.571 61.2663C371.571 61.7745 371.113 62.1169 370.482 62.1169C369.898 62.1169 369.445 61.8249 369.415 61.3671H368.608C368.641 62.2214 369.409 62.8017 370.49 62.8017Z" fill="#001A5B"/>
<path d="M375.01 62.7296C376.599 62.7296 377.515 61.742 377.518 60.1128C377.515 58.4873 376.599 57.5105 375.06 57.5105H373.315V62.7296H375.01ZM374.108 62.0376V58.2025H375.01C376.148 58.2025 376.732 58.8837 376.732 60.1128C376.732 61.3455 376.148 62.0339 374.966 62.0376H374.108Z" fill="#001A5B"/>
<path d="M439.748 62.8017C440.869 62.8089 441.615 62.034 441.615 61.0211C441.615 60.0228 440.865 59.309 439.935 59.3054C439.369 59.309 438.879 59.5685 438.595 60.0119H438.536C438.536 58.8333 439.005 58.134 439.813 58.1304C440.339 58.134 440.674 58.4404 440.779 58.8657H441.564C441.441 58.0367 440.775 57.4384 439.813 57.4384C438.562 57.4384 437.776 58.4764 437.773 60.293C437.773 62.2214 438.782 62.7944 439.748 62.8017ZM438.631 61.0428C438.637 60.4625 439.124 59.9507 439.762 59.9543C440.389 59.9507 440.844 60.4372 440.844 61.0355C440.844 61.6447 440.371 62.1348 439.74 62.1385C439.099 62.1348 438.634 61.623 438.631 61.0428Z" fill="#001A5B"/>
<path d="M444.346 62.8017C445.468 62.8089 446.214 62.034 446.214 61.0211C446.214 60.0228 445.464 59.309 444.534 59.3054C443.968 59.309 443.478 59.5685 443.193 60.0119H443.136C443.136 58.8333 443.604 58.134 444.411 58.1304C444.938 58.134 445.273 58.4404 445.377 58.8657H446.163C446.041 58.0367 445.374 57.4384 444.411 57.4384C443.16 57.4384 442.375 58.4764 442.371 60.293C442.371 62.2214 443.381 62.7944 444.346 62.8017ZM443.229 61.0428C443.237 60.4625 443.723 59.9507 444.361 59.9543C444.989 59.9507 445.442 60.4372 445.442 61.0355C445.442 61.6447 444.971 62.1348 444.34 62.1385C443.698 62.1348 443.233 61.623 443.229 61.0428Z" fill="#001A5B"/>
<path d="M448.823 62.7296C450.413 62.7296 451.329 61.742 451.332 60.1128C451.329 58.4873 450.413 57.5105 448.874 57.5105H447.129V62.7296H448.823ZM447.923 62.0376V58.2025H448.823C449.962 58.2025 450.546 58.8837 450.546 60.1128C450.546 61.3455 449.962 62.0339 448.78 62.0376H447.923Z" fill="#001A5B"/>
<path d="M513.565 62.8018C514.686 62.809 515.432 62.034 515.432 61.0212C515.432 60.0228 514.682 59.3091 513.752 59.3055C513.186 59.3091 512.697 59.5686 512.412 60.0119H512.354C512.354 58.8333 512.823 58.1341 513.63 58.1305C514.157 58.1341 514.491 58.4404 514.596 58.8658H515.382C515.259 58.0367 514.592 57.4384 513.63 57.4384C512.379 57.4384 511.593 58.4765 511.59 60.2931C511.59 62.2215 512.599 62.7945 513.565 62.8018ZM512.448 61.0428C512.455 60.4625 512.942 59.9507 513.579 59.9543C514.206 59.9507 514.661 60.4373 514.661 61.0356C514.661 61.6448 514.188 62.1349 513.558 62.1385C512.916 62.1349 512.451 61.6231 512.448 61.0428Z" fill="#001A5B"/>
<path d="M518.07 57.4383C516.935 57.4312 516.196 58.2098 516.196 59.2046C516.196 60.2029 516.946 60.9203 517.883 60.9203C518.445 60.9203 518.936 60.6536 519.217 60.2138H519.282C519.274 61.4068 518.802 62.1061 517.998 62.1096C517.473 62.1061 517.133 61.7997 517.026 61.36H516.24C516.365 62.207 517.036 62.8017 517.998 62.8017C519.249 62.8017 520.038 61.7637 520.038 59.9326C520.035 58.0223 519.029 57.4456 518.07 57.4383ZM516.967 59.1902C516.964 58.5918 517.44 58.1016 518.07 58.1016C518.709 58.1016 519.174 58.617 519.174 59.1829C519.174 59.7596 518.687 60.275 518.056 60.2714C517.422 60.275 516.971 59.7957 516.967 59.1902Z" fill="#001A5B"/>
<path d="M522.64 62.7296C524.23 62.7296 525.146 61.742 525.149 60.1129C525.146 58.4873 524.23 57.5105 522.691 57.5105H520.947V62.7296H522.64ZM521.74 62.0376V58.2026H522.64C523.78 58.2026 524.364 58.8837 524.364 60.1129C524.364 61.3456 523.78 62.034 522.598 62.0376H521.74Z" fill="#001A5B"/>
<path fill-rule="evenodd" clip-rule="evenodd" d="M38.1389 40.0133V12.5232H38.9591V40.0133H38.1389Z" fill="#979797"/>
<path fill-rule="evenodd" clip-rule="evenodd" d="M185.774 40.0133V12.5232H186.594V40.0133H185.774Z" fill="#979797"/>
<path fill-rule="evenodd" clip-rule="evenodd" d="M259.591 40.0133V12.5232H260.411V40.0133H259.591Z" fill="#979797"/>
<path fill-rule="evenodd" clip-rule="evenodd" d="M321.106 40.0133V12.5232H321.926V40.0133H321.106Z" fill="#979797"/>
<path fill-rule="evenodd" clip-rule="evenodd" d="M345.712 40.0133V12.5232H346.532V40.0133H345.712Z" fill="#979797"/>
<path fill-rule="evenodd" clip-rule="evenodd" d="M394.923 40.0133V12.5232H395.744V40.0133H394.923Z" fill="#979797"/>
<path fill-rule="evenodd" clip-rule="evenodd" d="M419.529 40.0133V12.5232H420.349V40.0133H419.529Z" fill="#979797"/>
<path fill-rule="evenodd" clip-rule="evenodd" d="M468.741 40.0133V12.5232H469.561V40.0133H468.741Z" fill="#979797"/>
<path fill-rule="evenodd" clip-rule="evenodd" d="M493.346 40.0133V12.5232H494.167V40.0133H493.346Z" fill="#979797"/>
<path fill-rule="evenodd" clip-rule="evenodd" d="M542.558 40.0133V12.5232H543.378V40.0133H542.558Z" fill="#979797"/>
<path fill-rule="evenodd" clip-rule="evenodd" d="M567.164 40.0133V12.5232H567.984V40.0133H567.164Z" fill="#979797"/>
<path d="M296.91 15.9041H223.093V35.5887H296.91V15.9041Z" fill="#E2E6F6"/>
<path d="M223.093 15.9041H149.275V35.5887H223.093V15.9041Z" fill="#5B6EB4"/>
<path d="M149.275 15.9041H75.4578V35.5887H149.275V15.9041Z" fill="#113287"/>
<path d="M75.4579 15.9041H9.02222V35.5887H75.4579V15.9041Z" fill="#001A5B"/>
<path fill-rule="evenodd" clip-rule="evenodd" d="M148.865 52.4924V3.58518e-08L149.685 0V52.4924H148.865Z" fill="#979797"/>
<path fill-rule="evenodd" clip-rule="evenodd" d="M222.683 52.4924V3.58518e-08L223.503 0V52.4924H222.683Z" fill="#979797"/>
<path fill-rule="evenodd" clip-rule="evenodd" d="M75.0476 52.4924V3.58518e-08L75.8678 0V52.4924H75.0476Z" fill="#979797"/>
<path d="M518.362 15.9041H444.545V35.5887H518.362V15.9041Z" fill="#113287"/>
<path d="M444.545 15.9041H370.728V35.5887H444.545V15.9041Z" fill="#5B6EB4"/>
<path d="M370.728 15.9041H296.91V35.5887H370.728V15.9041Z" fill="#E2E6F6"/>
<path fill-rule="evenodd" clip-rule="evenodd" d="M295.68 52.4924V7.17035e-08L297.32 0V52.4924H295.68Z" fill="#113287"/>
<path fill-rule="evenodd" clip-rule="evenodd" d="M271.343 63.1688L268.733 60.559C268.573 60.3989 268.573 60.1392 268.733 59.979L271.343 57.3692C271.504 57.2091 271.763 57.2091 271.924 57.3692C272.084 57.5293 272.084 57.789 271.924 57.9491L270.014 59.8589H284.607V60.6791H270.014L271.924 62.5889C272.084 62.7491 272.084 63.0086 271.924 63.1688C271.763 63.329 271.504 63.329 271.343 63.1688Z" fill="#113287"/>
<path fill-rule="evenodd" clip-rule="evenodd" d="M322.477 57.3692L325.087 59.979C325.247 60.1391 325.247 60.3988 325.087 60.559L322.477 63.1688C322.316 63.3289 322.057 63.3289 321.896 63.1688C321.736 63.0086 321.736 62.749 321.896 62.5888L323.807 60.6791H309.213V59.8589H323.807L321.896 57.9491C321.736 57.7889 321.736 57.5293 321.896 57.3692C322.057 57.209 322.316 57.209 322.477 57.3692Z" fill="#113287"/>
<path d="M586.812 15.9041H563.184V35.5887H586.812L593 25.7464L586.812 15.9041Z" fill="#001A5B"/>
<path d="M518.363 15.9041H583.978V35.5887H518.363V15.9041Z" fill="#001A5B"/>
<path fill-rule="evenodd" clip-rule="evenodd" d="M370.317 52.4924V3.58518e-08L371.138 0V52.4924H370.317Z" fill="#979797"/>
<path fill-rule="evenodd" clip-rule="evenodd" d="M444.135 52.4924V3.58518e-08L444.955 0V52.4924H444.135Z" fill="#979797"/>
<path fill-rule="evenodd" clip-rule="evenodd" d="M517.952 52.4924V3.58518e-08L518.772 0V52.4924H517.952Z" fill="#979797"/>
<path d="M246.025 22.5121V26.7573H245.264V25.8842H243.453V25.2595H245.264V24.3864H243.53C243.065 25.5398 241.988 26.3528 240.434 26.7973L240.129 26.2046C241.827 25.72 242.821 24.8069 242.957 23.6495H240.498V23.0248H243.782C243.782 23.2891 243.754 23.5454 243.706 23.7857H245.264V22.5121H246.025ZM241.243 28.2391C241.243 27.37 242.188 26.8414 243.662 26.8374C245.115 26.8414 246.069 27.37 246.073 28.2391C246.069 29.1121 245.115 29.6488 243.662 29.6488C242.188 29.6488 241.243 29.1121 241.243 28.2391ZM241.996 28.2391C241.996 28.7437 242.636 29.036 243.662 29.04C244.667 29.036 245.308 28.7437 245.312 28.2391C245.308 27.7265 244.667 27.4341 243.662 27.4381C242.636 27.4341 241.996 27.7265 241.996 28.2391ZM252.945 25.8121V26.4209H250.774V28.175H253.698V28.7998H247.13V28.175H250.021V26.4209H247.947V23.0568H252.881V23.6735H248.708V25.8121H252.945ZM258.464 23.1209C259.529 23.1289 260.646 23.7697 260.65 25.8922C260.65 27.9267 259.773 29.0801 258.384 29.0801C257.314 29.0801 256.569 28.4193 256.429 27.4782H257.302C257.422 27.9667 257.799 28.3072 258.384 28.3112C259.277 28.3072 259.801 27.5302 259.809 26.2046H259.737C259.425 26.6932 258.88 26.9896 258.255 26.9896C257.214 26.9896 256.381 26.1926 256.381 25.0833C256.381 23.9779 257.202 23.1129 258.464 23.1209ZM257.238 25.0672C257.242 25.7401 257.743 26.2727 258.448 26.2687C259.148 26.2727 259.689 25.7 259.689 25.0592C259.689 24.4305 259.172 23.8578 258.464 23.8578C257.763 23.8578 257.234 24.4024 257.238 25.0672ZM263.55 29.0801C262.452 29.0801 261.627 28.4113 261.587 27.4862H262.444C262.492 27.9788 262.965 28.3392 263.55 28.3432C264.255 28.3392 264.759 27.8306 264.759 27.1417C264.759 26.4369 264.239 25.9243 263.51 25.9163C263.045 25.9163 262.689 26.0725 262.492 26.4289H261.659L262.036 23.201H265.32V23.9539H262.765L262.573 25.5799H262.629C262.869 25.3476 263.277 25.1914 263.718 25.1874C264.811 25.1914 265.616 26.0004 265.616 27.1177C265.616 28.2591 264.759 29.0801 263.55 29.0801ZM266.914 29.0561C266.601 29.0521 266.341 28.7998 266.345 28.4874C266.341 28.175 266.601 27.9187 266.914 27.9187C267.222 27.9187 267.479 28.175 267.483 28.4874C267.479 28.7998 267.222 29.0521 266.914 29.0561ZM270.39 29.0801C269.317 29.0721 268.195 28.4353 268.195 26.2927C268.199 24.2743 269.072 23.1209 270.462 23.1209C271.531 23.1209 272.272 23.7857 272.408 24.7068H271.535C271.419 24.2342 271.047 23.8938 270.462 23.8898C269.565 23.8938 269.044 24.6708 269.044 25.9803H269.108C269.425 25.4877 269.97 25.1994 270.598 25.1954C271.632 25.1994 272.465 25.9924 272.465 27.1017C272.465 28.2271 271.636 29.0881 270.39 29.0801ZM269.149 27.1257C269.153 27.7705 269.669 28.3392 270.382 28.3432C271.083 28.3392 271.608 27.7945 271.608 27.1177C271.608 26.4529 271.103 25.9123 270.406 25.9163C269.697 25.9123 269.157 26.4809 269.149 27.1257ZM274.731 25.9563C273.938 25.9643 273.506 25.3756 273.514 24.5146C273.506 23.6655 273.958 23.0768 274.731 23.0808C275.528 23.0768 275.945 23.6655 275.949 24.5146C275.945 25.3796 275.512 25.9643 274.731 25.9563ZM274.171 29L278.151 23.201H278.88L274.9 29H274.171ZM274.171 24.5146C274.175 25.0472 274.359 25.3916 274.731 25.3956C275.108 25.3916 275.284 25.0472 275.284 24.5146C275.284 23.9939 275.12 23.6375 274.731 23.6415C274.359 23.6495 274.175 23.9979 274.171 24.5146ZM277.174 27.6784C277.17 26.8214 277.619 26.2326 278.392 26.2367C279.185 26.2326 279.605 26.8214 279.609 27.6784C279.605 28.5354 279.173 29.1201 278.392 29.1201C277.603 29.1201 277.17 28.5314 277.174 27.6784ZM277.831 27.6784C277.835 28.203 278.019 28.5515 278.392 28.5515C278.768 28.5515 278.944 28.203 278.944 27.6784C278.944 27.1498 278.78 26.7973 278.392 26.7973C278.023 26.8053 277.835 27.1538 277.831 27.6784Z" fill="#113287"/>
<path d="M175.227 25.8282V26.4449H172.327V27.1337C173.641 27.2058 174.422 27.6464 174.426 28.3993C174.422 29.2123 173.492 29.6688 171.951 29.6648C170.389 29.6688 169.46 29.2123 169.46 28.3993C169.46 27.6464 170.241 27.2018 171.574 27.1337V26.4449H168.683V25.8282H175.227ZM169.027 24.851C170.317 24.7188 171.334 24.1341 171.438 23.4413H169.283V22.8325H174.642V23.4413H172.463C172.567 24.1381 173.577 24.7188 174.89 24.851L174.618 25.4517C173.372 25.3075 172.343 24.7829 171.955 24.022C171.558 24.7829 170.537 25.3075 169.291 25.4517L169.027 24.851ZM170.229 28.3993C170.225 28.8358 170.853 29.0881 171.951 29.0801C173.032 29.0881 173.665 28.8358 173.665 28.3993C173.665 27.9547 173.032 27.7144 171.951 27.7104C170.853 27.7144 170.225 27.9547 170.229 28.3993ZM181.586 25.8121V26.4209H179.416V28.175H182.339V28.7998H175.771V28.175H178.663V26.4209H176.588V23.0568H181.522V23.6735H177.349V25.8121H181.586ZM187.169 29.0801C185.968 29.0801 185.115 28.4353 185.078 27.4862H185.976C186.008 27.9948 186.512 28.3192 187.161 28.3192C187.862 28.3192 188.37 27.9387 188.37 27.374C188.37 26.8013 187.894 26.3928 187.065 26.3888H186.568V25.668H187.065C187.726 25.672 188.186 25.3035 188.186 24.7468C188.186 24.2182 187.79 23.8578 187.177 23.8578C186.596 23.8578 186.076 24.1822 186.056 24.7068H185.207C185.231 23.7617 186.104 23.1209 187.185 23.1209C188.326 23.1209 189.043 23.8418 189.035 24.6988C189.043 25.3596 188.635 25.8322 188.01 25.9884V26.0284C188.803 26.1405 189.264 26.6732 189.26 27.4061C189.264 28.3712 188.37 29.0801 187.169 29.0801ZM190.621 29.0561C190.309 29.0521 190.049 28.7998 190.053 28.4874C190.049 28.175 190.309 27.9187 190.621 27.9187C190.93 27.9187 191.186 28.175 191.19 28.4874C191.186 28.7998 190.93 29.0521 190.621 29.0561ZM194.065 29.0801C192.864 29.0801 192.011 28.4353 191.975 27.4862H192.872C192.904 27.9948 193.409 28.3192 194.057 28.3192C194.758 28.3192 195.267 27.9387 195.267 27.374C195.267 26.8013 194.79 26.3928 193.961 26.3888H193.465V25.668H193.961C194.622 25.672 195.083 25.3035 195.083 24.7468C195.083 24.2182 194.686 23.8578 194.073 23.8578C193.493 23.8578 192.972 24.1822 192.952 24.7068H192.103C192.127 23.7617 193 23.1209 194.081 23.1209C195.223 23.1209 195.94 23.8418 195.932 24.6988C195.94 25.3596 195.531 25.8322 194.906 25.9884V26.0284C195.699 26.1405 196.16 26.6732 196.156 27.4061C196.16 28.3712 195.267 29.0801 194.065 29.0801ZM198.455 25.9563C197.662 25.9643 197.229 25.3756 197.237 24.5146C197.229 23.6655 197.682 23.0768 198.455 23.0808C199.252 23.0768 199.668 23.6655 199.672 24.5146C199.668 25.3796 199.236 25.9643 198.455 25.9563ZM197.894 29L201.875 23.201H202.604L198.623 29H197.894ZM197.894 24.5146C197.898 25.0472 198.082 25.3916 198.455 25.3956C198.831 25.3916 199.007 25.0472 199.007 24.5146C199.007 23.9939 198.843 23.6375 198.455 23.6415C198.082 23.6495 197.898 23.9979 197.894 24.5146ZM200.898 27.6784C200.894 26.8214 201.342 26.2326 202.115 26.2367C202.908 26.2326 203.329 26.8214 203.333 27.6784C203.329 28.5354 202.896 29.1201 202.115 29.1201C201.326 29.1201 200.894 28.5314 200.898 27.6784ZM201.554 27.6784C201.558 28.203 201.743 28.5515 202.115 28.5515C202.492 28.5515 202.668 28.203 202.668 27.6784C202.668 27.1498 202.504 26.7973 202.115 26.7973C201.747 26.8053 201.558 27.1538 201.554 27.6784Z" fill="white"/>
<path d="M100.957 23.193V23.8978C100.953 24.7829 100.953 25.7761 100.684 27.2459L99.9154 27.1658C100.192 25.7761 100.192 24.7589 100.196 23.8978V23.8097H95.8384V23.193H100.957ZM95.1496 28.7117V28.0789H97.6406V25.5478H98.3935V28.0789H101.694V28.7117H95.1496ZM108.053 25.8121V26.4209H105.883V28.175H108.806V28.7998H102.238V28.175H105.13V26.4209H103.055V23.0568H107.989V23.6735H103.816V25.8121H108.053ZM113.596 29.0801C112.254 29.0801 111.465 27.9988 111.465 26.1005C111.465 24.2142 112.262 23.1209 113.596 23.1209C114.926 23.1209 115.723 24.2142 115.727 26.1005C115.723 27.9988 114.938 29.0801 113.596 29.0801ZM112.346 26.1005C112.342 27.5462 112.811 28.3192 113.596 28.3192C114.377 28.3192 114.845 27.5462 114.845 26.1005C114.845 24.6587 114.373 23.8698 113.596 23.8658C112.815 23.8698 112.346 24.6587 112.346 26.1005ZM116.992 29.0561C116.68 29.0521 116.419 28.7998 116.423 28.4874C116.419 28.175 116.68 27.9187 116.992 27.9187C117.3 27.9187 117.557 28.175 117.561 28.4874C117.557 28.7998 117.3 29.0521 116.992 29.0561ZM118.634 29L121.221 24.0019V23.9539H118.234V23.201H122.134V23.9859L119.555 29H118.634ZM124.353 25.9563C123.56 25.9643 123.127 25.3756 123.136 24.5146C123.127 23.6655 123.58 23.0768 124.353 23.0808C125.15 23.0768 125.566 23.6655 125.57 24.5146C125.566 25.3796 125.134 25.9643 124.353 25.9563ZM123.792 29L127.773 23.201H128.502L124.521 29H123.792ZM123.792 24.5146C123.796 25.0472 123.981 25.3916 124.353 25.3956C124.729 25.3916 124.906 25.0472 124.906 24.5146C124.906 23.9939 124.741 23.6375 124.353 23.6415C123.981 23.6495 123.796 23.9979 123.792 24.5146ZM126.796 27.6784C126.792 26.8214 127.24 26.2326 128.013 26.2367C128.806 26.2326 129.227 26.8214 129.231 27.6784C129.227 28.5354 128.794 29.1201 128.013 29.1201C127.224 29.1201 126.792 28.5314 126.796 27.6784ZM127.453 27.6784C127.457 28.203 127.641 28.5515 128.013 28.5515C128.39 28.5515 128.566 28.203 128.566 27.6784C128.566 27.1498 128.402 26.7973 128.013 26.7973C127.645 26.8053 127.457 27.1538 127.453 27.6784Z" fill="white"/>
<path d="M23.7097 28.175V28.7998H17.1417V28.175H20.0412V26.6131H20.7941V28.175H23.7097ZM17.4621 26.2687C18.9359 26.0524 19.9972 25.2194 20.0332 24.2102H17.7344V23.5934H20.0412V22.6323H20.7941V23.5934H23.1009V24.2102H20.8022C20.8382 25.2194 21.8995 26.0524 23.3733 26.2687L23.0849 26.8614C21.8835 26.6732 20.8823 26.1045 20.4137 25.2675C19.9491 26.1045 18.9519 26.6732 17.7505 26.8614L17.4621 26.2687ZM30.0373 23.193V23.8978C30.0333 24.7829 30.0333 25.7761 29.765 27.2459L28.9961 27.1658C29.2724 25.7761 29.2724 24.7589 29.2764 23.8978V23.8097H24.9191V23.193H30.0373ZM24.2303 28.7117V28.0789H26.7213V25.5478H27.4742V28.0789H30.7742V28.7117H24.2303ZM37.1339 25.8121V26.4209H34.9633V28.175H37.8869V28.7998H31.3189V28.175H34.2104V26.4209H32.1359V23.0568H37.0699V23.6735H32.8968V25.8121H37.1339ZM42.6767 29.0801C41.335 29.0801 40.5461 27.9988 40.5461 26.1005C40.5461 24.2142 41.343 23.1209 42.6767 23.1209C44.0063 23.1209 44.8032 24.2142 44.8072 26.1005C44.8032 27.9988 44.0183 29.0801 42.6767 29.0801ZM41.4271 26.1005C41.4231 27.5462 41.8917 28.3192 42.6767 28.3192C43.4576 28.3192 43.9262 27.5462 43.9262 26.1005C43.9262 24.6587 43.4536 23.8698 42.6767 23.8658C41.8957 23.8698 41.4271 24.6587 41.4271 26.1005ZM46.0728 29.0561C45.7604 29.0521 45.5001 28.7998 45.5041 28.4874C45.5001 28.175 45.7604 27.9187 46.0728 27.9187C46.3811 27.9187 46.6375 28.175 46.6415 28.4874C46.6375 28.7998 46.3811 29.0521 46.0728 29.0561ZM49.5169 29.0801C48.3155 29.0801 47.4625 28.4353 47.4264 27.4862H48.3235C48.3555 27.9948 48.8601 28.3192 49.5089 28.3192C50.2098 28.3192 50.7184 27.9387 50.7184 27.374C50.7184 26.8013 50.2418 26.3928 49.4128 26.3888H48.9162V25.668H49.4128C50.0736 25.672 50.5342 25.3035 50.5342 24.7468C50.5342 24.2182 50.1377 23.8578 49.525 23.8578C48.9443 23.8578 48.4236 24.1822 48.4036 24.7068H47.5546C47.5786 23.7617 48.4517 23.1209 49.533 23.1209C50.6743 23.1209 51.3912 23.8418 51.3832 24.6988C51.3912 25.3596 50.9827 25.8322 50.358 25.9884V26.0284C51.1509 26.1405 51.6115 26.6732 51.6075 27.4061C51.6115 28.3712 50.7184 29.0801 49.5169 29.0801ZM53.9063 25.9563C53.1133 25.9643 52.6808 25.3756 52.6888 24.5146C52.6808 23.6655 53.1333 23.0768 53.9063 23.0808C54.7032 23.0768 55.1197 23.6655 55.1237 24.5146C55.1197 25.3796 54.6872 25.9643 53.9063 25.9563ZM53.3456 29L57.3264 23.201H58.0553L54.0745 29H53.3456ZM53.3456 24.5146C53.3496 25.0472 53.5338 25.3916 53.9063 25.3956C54.2827 25.3916 54.4589 25.0472 54.4589 24.5146C54.4589 23.9939 54.2947 23.6375 53.9063 23.6415C53.5338 23.6495 53.3496 23.9979 53.3456 24.5146ZM56.3492 27.6784C56.3452 26.8214 56.7938 26.2326 57.5667 26.2367C58.3597 26.2326 58.7802 26.8214 58.7842 27.6784C58.7802 28.5354 58.3476 29.1201 57.5667 29.1201C56.7777 29.1201 56.3452 28.5314 56.3492 27.6784ZM57.006 27.6784C57.01 28.203 57.1942 28.5515 57.5667 28.5515C57.9432 28.5515 58.1194 28.203 58.1194 27.6784C58.1194 27.1498 57.9552 26.7973 57.5667 26.7973C57.1983 26.8053 57.01 27.1538 57.006 27.6784Z" fill="white"/>
<path d="M469.659 23.193V23.8978C469.655 24.7829 469.655 25.7761 469.387 27.2459L468.618 27.1658C468.894 25.7761 468.894 24.7589 468.898 23.8978V23.8097H464.541V23.193H469.659ZM463.852 28.7117V28.0789H466.343V25.5478H467.096V28.0789H470.396V28.7117H463.852ZM476.756 25.8121V26.4209H474.585V28.175H477.509V28.7998H470.941V28.175H473.832V26.4209H471.758V23.0568H476.692V23.6735H472.519V25.8121H476.756ZM482.299 29.0801C480.957 29.0801 480.168 27.9988 480.168 26.1005C480.168 24.2142 480.965 23.1209 482.299 23.1209C483.628 23.1209 484.425 24.2142 484.429 26.1005C484.425 27.9988 483.64 29.0801 482.299 29.0801ZM481.049 26.1005C481.045 27.5462 481.514 28.3192 482.299 28.3192C483.08 28.3192 483.548 27.5462 483.548 26.1005C483.548 24.6587 483.076 23.8698 482.299 23.8658C481.518 23.8698 481.049 24.6587 481.049 26.1005ZM485.695 29.0561C485.382 29.0521 485.122 28.7998 485.126 28.4874C485.122 28.175 485.382 27.9187 485.695 27.9187C486.003 27.9187 486.259 28.175 486.263 28.4874C486.259 28.7998 486.003 29.0521 485.695 29.0561ZM487.161 27.8706V27.1578L489.724 23.201H490.813V27.1257H491.606V27.8706H490.813V29H489.98V27.8706H487.161ZM488.09 27.1257H489.98V24.2502H489.916L488.09 27.0777V27.1257ZM493.825 25.9563C493.032 25.9643 492.599 25.3756 492.607 24.5146C492.599 23.6655 493.052 23.0768 493.825 23.0808C494.622 23.0768 495.038 23.6655 495.042 24.5146C495.038 25.3796 494.606 25.9643 493.825 25.9563ZM493.264 29L497.245 23.201H497.974L493.993 29H493.264ZM493.264 24.5146C493.268 25.0472 493.452 25.3916 493.825 25.3956C494.201 25.3916 494.377 25.0472 494.377 24.5146C494.377 23.9939 494.213 23.6375 493.825 23.6415C493.452 23.6495 493.268 23.9979 493.264 24.5146ZM496.268 27.6784C496.264 26.8214 496.712 26.2326 497.485 26.2367C498.278 26.2326 498.699 26.8214 498.703 27.6784C498.699 28.5354 498.266 29.1201 497.485 29.1201C496.696 29.1201 496.264 28.5314 496.268 27.6784ZM496.924 27.6784C496.928 28.203 497.113 28.5515 497.485 28.5515C497.861 28.5515 498.038 28.203 498.038 27.6784C498.038 27.1498 497.874 26.7973 497.485 26.7973C497.117 26.8053 496.928 27.1538 496.924 27.6784Z" fill="white"/>
<path d="M396.695 25.8282V26.4449H393.795V27.1337C395.109 27.2058 395.89 27.6464 395.894 28.3993C395.89 29.2123 394.961 29.6688 393.419 29.6648C391.857 29.6688 390.928 29.2123 390.928 28.3993C390.928 27.6464 391.709 27.2018 393.043 27.1337V26.4449H390.151V25.8282H396.695ZM390.495 24.851C391.785 24.7188 392.802 24.1341 392.906 23.4413H390.752V22.8325H396.11V23.4413H393.932C394.036 24.1381 395.045 24.7188 396.359 24.851L396.086 25.4517C394.841 25.3075 393.811 24.7829 393.423 24.022C393.027 24.7829 392.005 25.3075 390.76 25.4517L390.495 24.851ZM391.697 28.3993C391.693 28.8358 392.322 29.0881 393.419 29.0801C394.5 29.0881 395.133 28.8358 395.133 28.3993C395.133 27.9547 394.5 27.7144 393.419 27.7104C392.322 27.7144 391.693 27.9547 391.697 28.3993ZM403.055 25.8121V26.4209H400.884V28.175H403.808V28.7998H397.24V28.175H400.131V26.4209H398.057V23.0568H402.991V23.6735H398.818V25.8121H403.055ZM408.637 29.0801C407.436 29.0801 406.583 28.4353 406.547 27.4862H407.444C407.476 27.9948 407.981 28.3192 408.629 28.3192C409.33 28.3192 409.839 27.9387 409.839 27.374C409.839 26.8013 409.362 26.3928 408.533 26.3888H408.037V25.668H408.533C409.194 25.672 409.655 25.3035 409.655 24.7468C409.655 24.2182 409.258 23.8578 408.645 23.8578C408.065 23.8578 407.544 24.1822 407.524 24.7068H406.675C406.699 23.7617 407.572 23.1209 408.653 23.1209C409.795 23.1209 410.512 23.8418 410.504 24.6988C410.512 25.3596 410.103 25.8322 409.478 25.9884V26.0284C410.271 26.1405 410.732 26.6732 410.728 27.4061C410.732 28.3712 409.839 29.0801 408.637 29.0801ZM412.09 29.0561C411.777 29.0521 411.517 28.7998 411.521 28.4874C411.517 28.175 411.777 27.9187 412.09 27.9187C412.398 27.9187 412.654 28.175 412.658 28.4874C412.654 28.7998 412.398 29.0521 412.09 29.0561ZM413.684 29V28.3592L415.694 26.3328C416.331 25.672 416.647 25.3035 416.647 24.7949C416.647 24.2222 416.183 23.8578 415.574 23.8578C414.929 23.8578 414.521 24.2663 414.517 24.883H413.684C413.676 23.8217 414.485 23.1209 415.59 23.1209C416.707 23.1209 417.48 23.8297 417.488 24.7709C417.48 25.4197 417.176 25.9363 416.086 27.0056L414.909 28.199V28.2471H417.584V29H413.684ZM419.891 25.9563C419.098 25.9643 418.666 25.3756 418.674 24.5146C418.666 23.6655 419.118 23.0768 419.891 23.0808C420.688 23.0768 421.105 23.6655 421.109 24.5146C421.105 25.3796 420.672 25.9643 419.891 25.9563ZM419.33 29L423.311 23.201H424.04L420.059 29H419.33ZM419.33 24.5146C419.334 25.0472 419.519 25.3916 419.891 25.3956C420.268 25.3916 420.444 25.0472 420.444 24.5146C420.444 23.9939 420.28 23.6375 419.891 23.6415C419.519 23.6495 419.334 23.9979 419.33 24.5146ZM422.334 27.6784C422.33 26.8214 422.779 26.2326 423.552 26.2367C424.344 26.2326 424.765 26.8214 424.769 27.6784C424.765 28.5354 424.332 29.1201 423.552 29.1201C422.763 29.1201 422.33 28.5314 422.334 27.6784ZM422.991 27.6784C422.995 28.203 423.179 28.5515 423.552 28.5515C423.928 28.5515 424.104 28.203 424.104 27.6784C424.104 27.1498 423.94 26.7973 423.552 26.7973C423.183 26.8053 422.995 27.1538 422.991 27.6784Z" fill="white"/>
<path d="M319.646 22.5121V26.7573H318.885V25.8842H317.075V25.2595H318.885V24.3864H317.151C316.686 25.5398 315.609 26.3528 314.055 26.7973L313.751 26.2046C315.449 25.72 316.442 24.8069 316.578 23.6495H314.119V23.0248H317.403C317.403 23.2891 317.375 23.5454 317.327 23.7857H318.885V22.5121H319.646ZM314.864 28.2391C314.864 27.37 315.809 26.8414 317.283 26.8374C318.737 26.8414 319.69 27.37 319.694 28.2391C319.69 29.1121 318.737 29.6488 317.283 29.6488C315.809 29.6488 314.864 29.1121 314.864 28.2391ZM315.617 28.2391C315.617 28.7437 316.258 29.036 317.283 29.04C318.288 29.036 318.929 28.7437 318.933 28.2391C318.929 27.7265 318.288 27.4341 317.283 27.4381C316.258 27.4341 315.617 27.7265 315.617 28.2391ZM326.566 25.8121V26.4209H324.395V28.175H327.319V28.7998H320.751V28.175H323.643V26.4209H321.568V23.0568H326.502V23.6735H322.329V25.8121H326.566ZM332.085 23.1209C333.15 23.1289 334.267 23.7697 334.271 25.8922C334.271 27.9267 333.394 29.0801 332.005 29.0801C330.935 29.0801 330.19 28.4193 330.05 27.4782H330.923C331.043 27.9667 331.42 28.3072 332.005 28.3112C332.898 28.3072 333.422 27.5302 333.43 26.2046H333.358C333.046 26.6932 332.501 26.9896 331.876 26.9896C330.835 26.9896 330.002 26.1926 330.002 25.0833C330.002 23.9779 330.823 23.1129 332.085 23.1209ZM330.859 25.0672C330.863 25.7401 331.364 26.2727 332.069 26.2687C332.77 26.2727 333.31 25.7 333.31 25.0592C333.31 24.4305 332.794 23.8578 332.085 23.8578C331.384 23.8578 330.855 24.4024 330.859 25.0672ZM337.299 29.0801C336.226 29.0721 335.104 28.4353 335.104 26.2927C335.108 24.2743 335.981 23.1209 337.371 23.1209C338.44 23.1209 339.181 23.7857 339.318 24.7068H338.444C338.328 24.2342 337.956 23.8938 337.371 23.8898C336.474 23.8938 335.953 24.6708 335.953 25.9803H336.018C336.334 25.4877 336.879 25.1994 337.507 25.1954C338.541 25.1994 339.374 25.9924 339.374 27.1017C339.374 28.2271 338.545 29.0881 337.299 29.0801ZM336.058 27.1257C336.062 27.7705 336.578 28.3392 337.291 28.3432C337.992 28.3392 338.517 27.7945 338.517 27.1177C338.517 26.4529 338.012 25.9123 337.315 25.9163C336.606 25.9123 336.066 26.4809 336.058 27.1257ZM340.615 29.0561C340.303 29.0521 340.042 28.7998 340.046 28.4874C340.042 28.175 340.303 27.9187 340.615 27.9187C340.923 27.9187 341.18 28.175 341.184 28.4874C341.18 28.7998 340.923 29.0521 340.615 29.0561ZM342.081 27.8706V27.1578L344.644 23.201H345.733V27.1257H346.526V27.8706H345.733V29H344.9V27.8706H342.081ZM343.01 27.1257H344.9V24.2502H344.836L343.01 27.0777V27.1257ZM348.745 25.9563C347.952 25.9643 347.519 25.3756 347.527 24.5146C347.519 23.6655 347.972 23.0768 348.745 23.0808C349.542 23.0768 349.958 23.6655 349.962 24.5146C349.958 25.3796 349.526 25.9643 348.745 25.9563ZM348.184 29L352.165 23.201H352.894L348.913 29H348.184ZM348.184 24.5146C348.188 25.0472 348.372 25.3916 348.745 25.3956C349.121 25.3916 349.298 25.0472 349.298 24.5146C349.298 23.9939 349.133 23.6375 348.745 23.6415C348.372 23.6495 348.188 23.9979 348.184 24.5146ZM351.188 27.6784C351.184 26.8214 351.632 26.2326 352.405 26.2367C353.198 26.2326 353.619 26.8214 353.623 27.6784C353.619 28.5354 353.186 29.1201 352.405 29.1201C351.616 29.1201 351.184 28.5314 351.188 27.6784ZM351.845 27.6784C351.849 28.203 352.033 28.5515 352.405 28.5515C352.782 28.5515 352.958 28.203 352.958 27.6784C352.958 27.1498 352.794 26.7973 352.405 26.7973C352.037 26.8053 351.849 27.1538 351.845 27.6784Z" fill="#113287"/>
<path d="M533.951 28.175V28.7998H527.383V28.175H530.283V26.6131H531.036V28.175H533.951ZM527.704 26.2687C529.177 26.0524 530.239 25.2194 530.275 24.2102H527.976V23.5934H530.283V22.6323H531.036V23.5934H533.342V24.2102H531.044C531.08 25.2194 532.141 26.0524 533.615 26.2687L533.326 26.8614C532.125 26.6732 531.124 26.1045 530.655 25.2675C530.191 26.1045 529.193 26.6732 527.992 26.8614L527.704 26.2687ZM540.279 23.193V23.8978C540.275 24.7829 540.275 25.7761 540.006 27.2459L539.238 27.1658C539.514 25.7761 539.514 24.7589 539.518 23.8978V23.8097H535.161V23.193H540.279ZM534.472 28.7117V28.0789H536.963V25.5478H537.716V28.0789H541.016V28.7117H534.472ZM547.375 25.8121V26.4209H545.205V28.175H548.128V28.7998H541.56V28.175H544.452V26.4209H542.377V23.0568H547.311V23.6735H543.138V25.8121H547.375ZM552.918 29.0801C551.576 29.0801 550.788 27.9988 550.788 26.1005C550.788 24.2142 551.584 23.1209 552.918 23.1209C554.248 23.1209 555.045 24.2142 555.049 26.1005C555.045 27.9988 554.26 29.0801 552.918 29.0801ZM551.669 26.1005C551.665 27.5462 552.133 28.3192 552.918 28.3192C553.699 28.3192 554.168 27.5462 554.168 26.1005C554.168 24.6587 553.695 23.8698 552.918 23.8658C552.137 23.8698 551.669 24.6587 551.669 26.1005ZM556.314 29.0561C556.002 29.0521 555.742 28.7998 555.746 28.4874C555.742 28.175 556.002 27.9187 556.314 27.9187C556.623 27.9187 556.879 28.175 556.883 28.4874C556.879 28.7998 556.623 29.0521 556.314 29.0561ZM559.406 23.201V29H558.517V24.082H558.485L557.099 24.9871V24.1461L558.541 23.201H559.406ZM562.209 25.9563C561.416 25.9643 560.984 25.3756 560.992 24.5146C560.984 23.6655 561.436 23.0768 562.209 23.0808C563.006 23.0768 563.423 23.6655 563.427 24.5146C563.423 25.3796 562.99 25.9643 562.209 25.9563ZM561.649 29L565.629 23.201H566.358L562.378 29H561.649ZM561.649 24.5146C561.653 25.0472 561.837 25.3916 562.209 25.3956C562.586 25.3916 562.762 25.0472 562.762 24.5146C562.762 23.9939 562.598 23.6375 562.209 23.6415C561.837 23.6495 561.653 23.9979 561.649 24.5146ZM564.652 27.6784C564.648 26.8214 565.097 26.2326 565.87 26.2367C566.663 26.2326 567.083 26.8214 567.087 27.6784C567.083 28.5354 566.651 29.1201 565.87 29.1201C565.081 29.1201 564.648 28.5314 564.652 27.6784ZM565.309 27.6784C565.313 28.203 565.497 28.5515 565.87 28.5515C566.246 28.5515 566.422 28.203 566.422 27.6784C566.422 27.1498 566.258 26.7973 565.87 26.7973C565.501 26.8053 565.313 27.1538 565.309 27.6784ZM571.733 23.193V27.9107H568.369V23.193H571.733ZM569.122 27.2939H570.996V23.7937H569.122V27.2939ZM573.151 29.6968V22.5041H573.912V29.6968H573.151ZM578.693 23.1369V26.485H575.337V23.1369H578.693ZM576.082 25.8842H577.948V23.7536H576.082V25.8842ZM576.146 29.5286V27.2539H576.907V28.9119H581V29.5286H576.146ZM579.935 27.7585V22.4961H580.696V24.6427H581.737V25.2835H580.696V27.7585H579.935Z" fill="white"/>
</svg>
