<?xml version="1.0" encoding="UTF-8"?>
<svg width="593px" height="88px" viewBox="0 0 593 88" version="1.1" xmlns="http://www.w3.org/2000/svg" xmlns:xlink="http://www.w3.org/1999/xlink">
    <title>Artboard</title>
    <g id="Artboard" stroke="none" stroke-width="1" fill="none" fill-rule="evenodd">
        <g id="totalSeverity30s" transform="translate(0.000000, 9.000000)">
            <polygon id="Path" fill="#979797" points="111.956432 40.0132442 111.956432 12.5231421 112.776625 12.5231421 112.776625 40.0132442"></polygon>
            <polygon id="Path" fill="#001A5B" fill-rule="nonzero" points="6.18831999 15.9040623 29.8161712 15.9040623 29.8161712 35.5887096 6.18831999 35.5887096 0 25.746386"></polygon>
            <path d="M292.134109,62.8017183 C293.255314,62.808886 294.00169,62.033967 294.00169,61.0211099 C294.00169,60.0226882 293.252033,59.3090377 292.321934,59.3054289 C291.756,59.3090377 291.265524,59.568547 290.980917,60.0119437 L290.923503,60.0119437 C290.923503,58.8332434 291.391834,58.1340283 292.198905,58.1304195 C292.725469,58.1340283 293.060928,58.4403706 293.165093,58.8657231 L293.950838,58.8657231 C293.828629,58.0366713 293.161812,57.4384221 292.198905,57.4384221 C290.948109,57.4384221 290.162364,58.4764592 290.159083,60.293024 C290.159083,62.2213813 291.168741,62.7944506 292.134109,62.8017183 Z M291.017006,61.042763 C291.024387,60.462476 291.510762,59.9505932 292.148873,59.9541821 C292.775501,59.9505932 293.229888,60.4372141 293.229888,61.0355453 C293.229888,61.6447031 292.758277,62.1348509 292.126728,62.1384597 C291.485336,62.1348509 291.020286,61.62305 291.017006,61.042763 Z" id="Shape" fill="#001A5B" fill-rule="nonzero"></path>
            <path d="M296.661578,62.8016683 C297.868903,62.8016683 298.57509,61.8285085 298.579191,60.1200452 C298.57509,58.4224084 297.858241,57.4384221 296.661578,57.4384221 C295.460815,57.4384221 294.743965,58.4224084 294.743965,60.1200452 C294.743965,61.8285085 295.454253,62.8016683 296.661578,62.8016683 Z M295.537093,60.1200452 C295.537093,58.8224988 295.958672,58.1123752 296.661578,58.1087663 C297.360383,58.1123752 297.786064,58.8224988 297.786064,60.1200452 C297.786064,61.4212004 297.364484,62.1168886 296.661578,62.1168886 C295.954571,62.1168886 295.532992,61.4212004 295.537093,60.1200452 Z" id="Shape" fill="#001A5B" fill-rule="nonzero"></path>
            <path d="M301.166902,62.7295733 C302.756437,62.7295733 303.671773,61.7419781 303.675874,60.1128275 C303.671773,58.4872857 302.756437,57.5104351 301.216934,57.5104351 L299.473202,57.5104351 L299.473202,62.7295733 L301.166902,62.7295733 Z M300.265509,62.0375759 L300.265509,58.2025145 L301.166902,58.2025145 C302.306151,58.2025145 302.890129,58.8837673 302.890129,60.1128275 C302.890129,61.3454965 302.306151,62.033967 301.123432,62.0375759 L300.265509,62.0375759 Z" id="Shape" fill="#001A5B" fill-rule="nonzero"></path>
            <path d="M275.65888,66.5806284 L275.15282,66.5806284 L275.15282,69.9511322 L273.973382,69.9511322 L273.973382,70.3163644 L275.15282,70.3163644 L275.15282,70.9059196 L275.65888,70.9059196 L275.65888,66.5806284 Z M270.929643,69.2206677 L271.00018,69.6307645 C271.477533,69.6307645 272.025422,69.6307645 272.602018,69.6082912 L272.602018,70.7072687 L273.108077,70.7072687 L273.108077,69.5827012 C273.630541,69.5506316 274.166127,69.4993695 274.672187,69.4193186 L274.640199,69.0540864 C273.418931,69.204674 271.990154,69.2142702 270.929643,69.2206677 Z M271.391398,67.8045214 C271.388131,68.4132691 271.958166,68.7913784 272.800505,68.7913784 C273.637102,68.7913784 274.207137,68.4132691 274.210418,67.8045214 C274.207137,67.205452 273.637102,66.8113489 272.800505,66.8113489 C271.958166,66.8113489 271.388131,67.205452 271.391398,67.8045214 Z M271.749837,72.1490051 L275.799953,72.1490051 L275.799953,71.7261132 L272.255896,71.7261132 L272.255896,70.4830278 L271.749837,70.4830278 L271.749837,72.1490051 Z M271.872046,67.8045214 C271.865484,67.4392892 272.243593,67.1893762 272.800505,67.1957737 C273.342653,67.1893762 273.726503,67.4392892 273.729784,67.8045214 C273.726503,68.1762331 273.342653,68.4164679 272.800505,68.4196666 C272.243593,68.4164679 271.865484,68.1762331 271.872046,67.8045214 Z" id="Shape" fill="#001A5B" fill-rule="nonzero"></path>
            <path d="M280.304456,68.1056965 L280.304456,67.0676594 L279.804959,67.0676594 L279.804959,68.1056965 C279.798397,69.1853994 279.096311,70.2746986 278.247411,70.6624041 L278.568107,71.0852959 C279.234104,70.7489345 279.795116,70.0280663 280.057578,69.1694056 C280.329882,69.980003 280.890895,70.6560066 281.541308,70.9699767 L281.848881,70.5726749 C281.009003,70.1914489 280.301176,69.1469323 280.304456,68.1056965 Z M282.470588,72.2835988 L282.976647,72.2835988 L282.976647,66.5742309 L282.470588,66.5742309 L282.470588,72.2835988 Z" id="Shape" fill="#001A5B" fill-rule="nonzero"></path>
            <path d="M314.861675,67.7404643 L310.991181,67.7404643 L310.991181,68.1505611 L314.361357,68.1505611 L314.361357,68.1826307 C314.364638,68.6663809 314.364638,69.2270652 314.211261,70.0151893 L310.330925,70.0151893 L310.330925,70.4381632 L315.547357,70.4381632 L315.547357,70.0151893 L314.710759,70.0151893 C314.861675,69.2398603 314.861675,68.6631821 314.861675,68.1826307 L314.861675,67.7404643 Z M311.023169,72.9628012 L315.034736,72.9628012 L315.034736,72.5399094 L311.522667,72.5399094 L311.522667,71.0788984 L311.023169,71.0788984 L311.023169,72.9628012 Z" id="Shape" fill="#001A5B" fill-rule="nonzero"></path>
            <path d="M319.673751,68.9258901 L319.673751,67.8878531 L319.174253,67.8878531 L319.174253,68.9258901 C319.167692,70.005593 318.465606,71.0948922 317.616705,71.4825977 L317.937401,71.9054896 C318.603398,71.5691282 319.164411,70.84826 319.426873,69.9895993 C319.699177,70.8001966 320.260189,71.4762002 320.910603,71.7901704 L321.218176,71.3928686 C320.378297,71.0116426 319.67047,69.967126 319.673751,68.9258901 Z M321.839882,73.1037925 L322.345942,73.1037925 L322.345942,67.3944246 L321.839882,67.3944246 L321.839882,73.1037925 Z" id="Shape" fill="#001A5B" fill-rule="nonzero"></path>
            <path d="M70.5630631,63.6218619 C71.6516241,63.6218619 72.4229342,62.8829495 72.4229342,61.855739 C72.4229342,60.8500995 71.6984571,60.1220136 70.7144708,60.1184048 C70.3179892,60.1220136 69.9503784,60.2625948 69.7340934,60.4716622 L69.6836515,60.4716622 L69.8566303,59.0082727 L72.1562072,59.0082727 L72.1562072,58.3306287 L69.2006394,58.3306287 L68.8618174,61.2357546 L69.6115564,61.2357546 C69.7881441,60.9149769 70.1089219,60.7743957 70.5270566,60.7743957 C71.1830474,60.7816134 71.6516241,61.2429723 71.6516241,61.8773921 C71.6516241,62.4972944 71.1974828,62.9550445 70.5630631,62.9586533 C70.0368268,62.9550445 69.6115564,62.6306579 69.5682502,62.1873432 L68.7969401,62.1873432 C68.8330286,63.0199218 69.5754679,63.6218619 70.5630631,63.6218619 Z" id="Path" fill="#001A5B" fill-rule="nonzero"></path>
            <path d="M73.1510201,62.5333829 L75.6884531,62.5333829 L75.6884531,63.5497669 L76.4381921,63.5497669 L76.4381921,62.5333829 L77.1518426,62.5333829 L77.1518426,61.8629567 L76.4381921,61.8629567 L76.4381921,58.3306287 L75.4578147,58.3306287 L73.1510201,61.8917455 L73.1510201,62.5333829 Z M73.9872075,61.8629567 L73.9872075,61.8197325 L75.6307935,59.2749997 L75.6884531,59.2749997 L75.6884531,61.8629567 L73.9872075,61.8629567 Z" id="Shape" fill="#001A5B" fill-rule="nonzero"></path>
            <path d="M79.7181465,63.5497669 C81.3076817,63.5497669 82.223592,62.5621717 82.2268728,60.9330211 C82.223592,59.3074793 81.3076817,58.3306287 79.7686704,58.3306287 L78.0241185,58.3306287 L78.0241185,63.5497669 L79.7181465,63.5497669 Z M78.8170817,62.8577695 L78.8170817,59.0227081 L79.7181465,59.0227081 C80.8571494,59.0227081 81.4410452,59.703961 81.4410452,60.9330211 C81.4410452,62.1656901 80.8571494,62.8541607 79.6749223,62.8577695 L78.8170817,62.8577695 Z" id="Shape" fill="#001A5B" fill-rule="nonzero"></path>
            <path d="M144.423797,63.6218619 C145.512194,63.6218619 146.283996,62.8829495 146.283996,61.855739 C146.283996,60.8500995 145.558945,60.1220136 144.575533,60.1184048 C144.178559,60.1220136 143.811112,60.2625948 143.594581,60.4716622 L143.544549,60.4716622 L143.71761,59.0082727 L146.016613,59.0082727 L146.016613,58.3306287 L143.061455,58.3306287 L142.722715,61.2357546 L143.472372,61.2357546 C143.648714,60.9149769 143.969409,60.7743957 144.387708,60.7743957 C145.043863,60.7816134 145.512194,61.2429723 145.512194,61.8773921 C145.512194,62.4972944 145.057806,62.9550445 144.423797,62.9586533 C143.897232,62.9550445 143.472372,62.6306579 143.428902,62.1873432 L142.65792,62.1873432 C142.694008,63.0199218 143.436284,63.6218619 144.423797,63.6218619 Z" id="Path" fill="#001A5B" fill-rule="nonzero"></path>
            <path d="M149.016061,63.6219119 C150.136445,63.6290796 150.882822,62.8541607 150.882822,61.8413036 C150.882822,60.8428818 150.133165,60.1292314 149.203065,60.1256225 C148.637131,60.1292314 148.147476,60.3887406 147.862048,60.8321373 L147.804635,60.8321373 C147.804635,59.653437 148.272965,58.9542219 149.080856,58.9506131 C149.6066,58.9542219 149.942059,59.2605643 150.046224,59.6859167 L150.83197,59.6859167 C150.709761,58.856865 150.042943,58.2586157 149.080856,58.2586157 C147.830061,58.2586157 147.044315,59.2966528 147.040214,61.1132177 C147.040214,63.0415749 148.049873,63.6146442 149.016061,63.6219119 Z M147.898137,61.8629567 C147.905519,61.2826697 148.391893,60.7707868 149.030004,60.7743757 C149.657452,60.7707868 150.11184,61.2574077 150.11184,61.855739 C150.11184,62.4648968 149.639408,62.9550445 149.008679,62.9586533 C148.367288,62.9550445 147.902238,62.4432437 147.898137,61.8629567 Z" id="Shape" fill="#001A5B" fill-rule="nonzero"></path>
            <path d="M153.492678,63.5497669 C155.082213,63.5497669 155.997549,62.5621717 156.00083,60.9330211 C155.997549,59.3074793 155.082213,58.3306287 153.54271,58.3306287 L151.798158,58.3306287 L151.798158,63.5497669 L153.492678,63.5497669 Z M152.591285,62.8577695 L152.591285,59.0227081 L153.492678,59.0227081 C154.631107,59.0227081 155.215084,59.703961 155.215084,60.9330211 C155.215084,62.1656901 154.631107,62.8541607 153.449207,62.8577695 L152.591285,62.8577695 Z" id="Shape" fill="#001A5B" fill-rule="nonzero"></path>
            <path d="M218.259268,63.6218619 C219.347665,63.6218619 220.119467,62.8829495 220.119467,61.855739 C220.119467,60.8500995 219.394416,60.1220136 218.411004,60.1184048 C218.01403,60.1220136 217.646584,60.2625948 217.430053,60.4716622 L217.380021,60.4716622 L217.553082,59.0082727 L219.852084,59.0082727 L219.852084,58.3306287 L216.896927,58.3306287 L216.558187,61.2357546 L217.307844,61.2357546 C217.484185,60.9149769 217.804881,60.7743957 218.22318,60.7743957 C218.879335,60.7816134 219.347665,61.2429723 219.347665,61.8773921 C219.347665,62.4972944 218.893278,62.9550445 218.259268,62.9586533 C217.732704,62.9550445 217.307844,62.6306579 217.264373,62.1873432 L216.493391,62.1873432 C216.52948,63.0199218 217.271755,63.6218619 218.259268,63.6218619 Z" id="Path" fill="#001A5B" fill-rule="nonzero"></path>
            <path d="M222.785917,63.6218619 C223.903841,63.6218619 224.700249,63.0090953 224.70353,62.1584724 C224.700249,61.4881282 224.217155,60.9402388 223.607751,60.8464907 L223.607751,60.8177019 C224.134315,60.695165 224.498481,60.2193706 224.501762,59.6498282 C224.498481,58.8461204 223.770149,58.2586157 222.785917,58.2586157 C221.787741,58.2586157 221.06351,58.8461204 221.06351,59.6498282 C221.06351,60.2193706 221.420295,60.695165 221.957521,60.8177019 L221.957521,60.8464907 C221.340736,60.9402388 220.861743,61.4881282 220.869124,62.1584724 C220.861743,63.0090953 221.650769,63.6218619 222.785917,63.6218619 Z M221.676195,62.1008128 C221.665533,61.56375 222.137144,61.1708773 222.785917,61.1708773 C223.428129,61.1708773 223.896459,61.56375 223.896459,62.1008128 C223.896459,62.6126136 223.464217,62.965871 222.785917,62.965871 C222.097775,62.965871 221.665533,62.6126136 221.676195,62.1008128 Z M221.834492,59.7219232 C221.838593,59.2353843 222.213422,58.90378 222.785917,58.9073889 C223.345289,58.90378 223.726679,59.2353843 223.723398,59.7219232 C223.726679,60.2121529 223.330526,60.5473661 222.785917,60.5437572 C222.227365,60.5473661 221.838593,60.2085441 221.834492,59.7219232 Z" id="Shape" fill="#001A5B" fill-rule="nonzero"></path>
            <path d="M227.292061,63.5497669 C228.881596,63.5497669 229.796932,62.5621717 229.800213,60.9330211 C229.796932,59.3074793 228.881596,58.3306287 227.342093,58.3306287 L225.597541,58.3306287 L225.597541,63.5497669 L227.292061,63.5497669 Z M226.390668,62.8577695 L226.390668,59.0227081 L227.292061,59.0227081 C228.43049,59.0227081 229.014467,59.703961 229.014467,60.9330211 C229.014467,62.1656901 228.43049,62.8541607 227.248591,62.8577695 L226.390668,62.8577695 Z" id="Shape" fill="#001A5B" fill-rule="nonzero"></path>
            <path d="M365.926111,62.8017183 C367.047315,62.808886 367.793692,62.033967 367.793692,61.0211099 C367.793692,60.0226882 367.044035,59.3090377 366.113935,59.3054289 C365.548001,59.3090377 365.057526,59.568547 364.772918,60.0119437 L364.715505,60.0119437 C364.715505,58.8332434 365.183835,58.1340283 365.991726,58.1304195 C366.51747,58.1340283 366.852929,58.4403706 366.957094,58.8657231 L367.74284,58.8657231 C367.620631,58.0366713 366.953813,57.4384221 365.991726,57.4384221 C364.740931,57.4384221 363.955185,58.4764592 363.951084,60.293024 C363.951084,62.2213813 364.960743,62.7944506 365.926111,62.8017183 Z M364.809007,61.042763 C364.816389,60.462476 365.302763,59.9505932 365.940874,59.9541821 C366.568322,59.9505932 367.021889,60.4372141 367.021889,61.0355453 C367.021889,61.6447031 366.550278,62.1348509 365.919549,62.1384597 C365.277337,62.1348509 364.813108,61.62305 364.809007,61.042763 Z" id="Shape" fill="#001A5B" fill-rule="nonzero"></path>
            <path d="M370.489668,62.8016683 C371.570683,62.8016683 372.374473,62.1637217 372.371212,61.2950546 C372.374473,60.6354549 371.960275,60.1560517 371.246707,60.0551679 L371.246707,60.0190793 C371.808539,59.8785802 372.176806,59.4532278 372.169425,58.8585053 C372.176806,58.0871953 371.531314,57.4384221 370.504432,57.4384221 C369.530862,57.4384221 368.745116,58.0151002 368.723791,58.8657231 L369.487391,58.8657231 C369.505436,58.3935376 369.974586,58.1015486 370.49705,58.1015486 C371.04822,58.1015486 371.405004,58.4260172 371.405004,58.9017296 C371.405004,59.4027858 370.990806,59.7343901 370.396166,59.7307813 L369.94916,59.7307813 L369.94916,60.3795544 L370.396166,60.3795544 C371.141722,60.3831633 371.570683,60.7507741 371.570683,61.2661838 C371.570683,61.7744578 371.113015,62.1168886 370.482286,62.1168886 C369.898308,62.1168886 369.444741,61.8248997 369.415214,61.3671496 L368.608144,61.3671496 C368.640952,62.2213813 369.408653,62.8016683 370.489668,62.8016683 Z" id="Path" fill="#001A5B" fill-rule="nonzero"></path>
            <path d="M375.009755,62.7295733 C376.59929,62.7295733 377.514627,61.7419781 377.517907,60.1128275 C377.514627,58.4872857 376.59929,57.5104351 375.059787,57.5104351 L373.315235,57.5104351 L373.315235,62.7295733 L375.009755,62.7295733 Z M374.108362,62.0375759 L374.108362,58.2025145 L375.009755,58.2025145 C376.148184,58.2025145 376.732162,58.8837673 376.732162,60.1128275 C376.732162,61.3454965 376.148184,62.033967 374.966285,62.0375759 L374.108362,62.0375759 Z" id="Shape" fill="#001A5B" fill-rule="nonzero"></path>
            <path d="M439.747639,62.8017183 C440.868844,62.808886 441.6144,62.033967 441.6144,61.0211099 C441.6144,60.0226882 440.864743,59.3090377 439.934643,59.3054289 C439.36871,59.3090377 438.879054,59.568547 438.594447,60.0119437 L438.536213,60.0119437 C438.536213,58.8332434 439.005364,58.1340283 439.812434,58.1304195 C440.338999,58.1340283 440.673638,58.4403706 440.778622,58.8657231 L441.564368,58.8657231 C441.441339,58.0366713 440.774521,57.4384221 439.812434,57.4384221 C438.561639,57.4384221 437.775893,58.4764592 437.772613,60.293024 C437.772613,62.2213813 438.781451,62.7944506 439.747639,62.8017183 Z M438.630535,61.042763 C438.637097,60.462476 439.124292,59.9505932 439.761582,59.9541821 C440.38903,59.9505932 440.843418,60.4372141 440.843418,61.0355453 C440.843418,61.6447031 440.370986,62.1348509 439.740257,62.1384597 C439.098866,62.1348509 438.633816,61.62305 438.630535,61.042763 Z" id="Shape" fill="#001A5B" fill-rule="nonzero"></path>
            <path d="M444.346465,62.8017183 C445.467669,62.808886 446.214046,62.033967 446.214046,61.0211099 C446.214046,60.0226882 445.464389,59.3090377 444.534289,59.3054289 C443.968355,59.3090377 443.47788,59.568547 443.193272,60.0119437 L443.135859,60.0119437 C443.135859,58.8332434 443.604189,58.1340283 444.41126,58.1304195 C444.937824,58.1340283 445.273284,58.4403706 445.377448,58.8657231 L446.163194,58.8657231 C446.040985,58.0366713 445.374167,57.4384221 444.41126,57.4384221 C443.160465,57.4384221 442.374719,58.4764592 442.371438,60.293024 C442.371438,62.2213813 443.381097,62.7944506 444.346465,62.8017183 Z M443.229361,61.042763 C443.236743,60.462476 443.723118,59.9505932 444.361228,59.9541821 C444.988676,59.9505932 445.442243,60.4372141 445.442243,61.0355453 C445.442243,61.6447031 444.970632,62.1348509 444.339903,62.1384597 C443.697692,62.1348509 443.232642,61.62305 443.229361,61.042763 Z" id="Shape" fill="#001A5B" fill-rule="nonzero"></path>
            <path d="M448.823082,62.7295733 C450.412617,62.7295733 451.328773,61.7419781 451.332054,60.1128275 C451.328773,58.4872857 450.412617,57.5104351 448.873934,57.5104351 L447.129382,57.5104351 L447.129382,62.7295733 L448.823082,62.7295733 Z M447.922509,62.0375759 L447.922509,58.2025145 L448.823082,58.2025145 C449.962331,58.2025145 450.546308,58.8837673 450.546308,60.1128275 C450.546308,61.3454965 449.962331,62.033967 448.780432,62.0375759 L447.922509,62.0375759 Z" id="Shape" fill="#001A5B" fill-rule="nonzero"></path>
            <path d="M513.565066,62.8018003 C514.686271,62.808968 515.431827,62.033967 515.431827,61.0211919 C515.431827,60.0227702 514.68217,59.3091197 513.752071,59.3055109 C513.186137,59.3091197 512.696481,59.568629 512.411874,60.0119437 L512.35364,60.0119437 C512.35364,58.8333254 512.822791,58.1341103 513.629862,58.1305015 C514.156426,58.1341103 514.491065,58.4404527 514.59605,58.8657231 L515.381795,58.8657231 C515.258766,58.0367533 514.591949,57.4384221 513.629862,57.4384221 C512.379066,57.4384221 511.593321,58.4764592 511.59004,60.293106 C511.59004,62.2214633 512.598878,62.7945326 513.565066,62.8018003 Z M512.447963,61.042763 C512.454524,60.462476 512.941719,59.9506752 513.57901,59.9542641 C514.206458,59.9506752 514.660845,60.4372961 514.660845,61.0356273 C514.660845,61.6447031 514.188414,62.1349329 513.557685,62.1385417 C512.916293,62.1349329 512.451243,61.623132 512.447963,61.042763 Z" id="Shape" fill="#001A5B" fill-rule="nonzero"></path>
            <path d="M518.07039,57.4383723 C516.935242,57.4312044 516.196248,58.2097322 516.196248,59.204545 C516.196248,60.2029668 516.945905,60.9202261 517.883386,60.9202261 C518.445219,60.9202261 518.935694,60.6534991 519.217021,60.2137933 L519.281816,60.2137933 C519.274434,61.406847 518.802003,62.1060621 517.998213,62.1096709 C517.472469,62.1060621 517.132909,61.7997197 517.025463,61.3600139 L516.239718,61.3600139 C516.365207,62.2070279 517.036126,62.8017503 517.998213,62.8017503 C519.249008,62.8017503 520.038035,61.7637132 520.038035,59.9326309 C520.034754,58.0223179 519.029196,57.4456398 518.07039,57.4383723 Z M516.967213,59.1901917 C516.963949,58.5918604 517.439661,58.1016307 518.07039,58.1016307 C518.708501,58.1016307 519.17355,58.6170403 519.17355,59.182974 C519.17355,59.7596521 518.687176,60.2750618 518.055627,60.2714732 C517.421617,60.2750618 516.971331,59.7956586 516.967213,59.1901917 Z" id="Shape" fill="#001A5B" fill-rule="nonzero"></path>
            <path d="M522.640509,62.7296553 C524.230044,62.7296553 525.146201,61.7420601 525.149481,60.1129095 C525.146201,58.4872857 524.230044,57.5105171 522.691361,57.5105171 L520.946809,57.5105171 L520.946809,62.7296553 L522.640509,62.7296553 Z M521.739936,62.0375759 L521.739936,58.2025965 L522.640509,58.2025965 C523.779758,58.2025965 524.363736,58.8837673 524.363736,60.1129095 C524.363736,61.3455785 523.779758,62.033967 522.597859,62.0375759 L521.739936,62.0375759 Z" id="Shape" fill="#001A5B" fill-rule="nonzero"></path>
            <polygon id="Path" fill="#979797" points="38.1390041 40.0132442 38.1390041 12.5231421 38.9591978 12.5231421 38.9591978 40.0132442"></polygon>
            <polygon id="Path" fill="#979797" points="185.773859 40.0132442 185.773859 12.5231421 186.594053 12.5231421 186.594053 40.0132442"></polygon>
            <polygon id="Path" fill="#979797" points="259.591286 40.0132442 259.591286 12.5231421 260.41148 12.5231421 260.41148 40.0132442"></polygon>
            <polygon id="Path" fill="#979797" points="321.105809 40.0132442 321.105809 12.5231421 321.926003 12.5231421 321.926003 40.0132442"></polygon>
            <polygon id="Path" fill="#979797" points="345.711618 40.0132442 345.711618 12.5231421 346.531812 12.5231421 346.531812 40.0132442"></polygon>
            <polygon id="Path" fill="#979797" points="394.923237 40.0132442 394.923237 12.5231421 395.74343 12.5231421 395.74343 40.0132442"></polygon>
            <polygon id="Path" fill="#979797" points="419.529046 40.0132442 419.529046 12.5231421 420.349239 12.5231421 420.349239 40.0132442"></polygon>
            <polygon id="Path" fill="#979797" points="468.740664 40.0132442 468.740664 12.5231421 469.560858 12.5231421 469.560858 40.0132442"></polygon>
            <polygon id="Path" fill="#979797" points="493.346473 40.0132442 493.346473 12.5231421 494.166667 12.5231421 494.166667 40.0132442"></polygon>
            <polygon id="Path" fill="#979797" points="542.558091 40.0132442 542.558091 12.5231421 543.378285 12.5231421 543.378285 40.0132442"></polygon>
            <polygon id="Path" fill="#979797" points="567.1639 40.0132442 567.1639 12.5231421 567.984094 12.5231421 567.984094 40.0132442"></polygon>
            <rect id="Rectangle" fill="#E2E6F6" fill-rule="nonzero" x="223.092669" y="15.9040623" width="73.8174274" height="19.6846473"></rect>
            <path d="M246.865162,22.1780515 L246.104842,22.1780515 L246.104842,23.4516482 L244.546474,23.4516482 C244.594866,23.2113315 244.622752,22.955021 244.622752,22.6906726 L241.338697,22.6906726 L241.338697,23.3154141 L243.797638,23.3154141 C243.661485,24.4728713 242.668231,25.3859929 240.97043,25.8705633 L241.274722,26.4632352 C242.828169,26.0186903 243.905903,25.2057143 244.370133,24.052358 L246.104842,24.052358 L246.104842,24.9253722 L244.294675,24.9253722 L244.294675,25.5501136 L246.104842,25.5501136 L246.104842,26.4232098 L246.865162,26.4232098 L246.865162,22.1780515 Z M242.083433,27.9049716 C242.083433,28.7780677 243.029116,29.3147204 244.503004,29.3147204 C245.956387,29.3147204 246.909452,28.7780677 246.913553,27.9049716 C246.909452,27.0359764 245.956387,26.5072796 244.503004,26.5033427 C243.029116,26.5072796 242.083433,27.0359764 242.083433,27.9049716 Z M242.836371,27.9049716 C242.836371,27.3923506 243.477762,27.1000336 244.503004,27.1040525 C245.507741,27.1000336 246.148313,27.3923506 246.152414,27.9049716 C246.148313,28.4096367 245.507741,28.7019538 244.503004,28.7059727 C243.477762,28.7019538 242.836371,28.4096367 242.836371,27.9049716 Z" id="Shape" fill="#113287" fill-rule="nonzero"></path>
            <polygon id="Path" fill="#113287" fill-rule="nonzero" points="253.785956 25.4781006 249.548835 25.4781006 249.548835 23.3394457 253.721981 23.3394457 253.721981 22.7227421 248.787696 22.7227421 248.787696 26.0867663 250.861965 26.0867663 250.861965 27.8409145 247.970783 27.8409145 247.970783 28.465656 254.538893 28.465656 254.538893 27.8409145 251.614903 27.8409145 251.614903 26.0867663 253.785956 26.0867663"></polygon>
            <polygon id="Path" fill="#113287" fill-rule="nonzero" points="259.512548 22.8669322 258.648064 22.8669322 257.206163 23.8120413 257.206163 24.6530679 258.59147 23.7479842 258.623458 23.7479842 258.623458 28.6659473 259.512548 28.6659473"></polygon>
            <path d="M262.957361,28.7459982 C264.166326,28.7459982 265.023429,27.9250663 265.023429,26.7836849 C265.023429,25.6663351 264.218819,24.8572961 263.125501,24.8532771 C262.684237,24.8572961 262.27578,25.013543 262.035463,25.2458218 L261.97969,25.2458218 L262.171615,23.6197879 L264.727339,23.6197879 L264.727339,22.8669322 L261.443284,22.8669322 L261.066815,26.0948042 L261.899311,26.0948042 C262.096158,25.7383481 262.452122,25.5821832 262.917172,25.5821832 C263.645503,25.5902211 264.166326,26.1028421 264.166326,26.8077166 C264.166326,27.4965152 263.661907,28.0051172 262.957361,28.0091362 C262.372563,28.0051172 261.899311,27.6447242 261.85174,27.1521159 L260.994638,27.1521159 C261.034827,28.0772123 261.859942,28.7459982 262.957361,28.7459982 Z" id="Path" fill="#113287" fill-rule="nonzero"></path>
            <path d="M266.320975,28.7219665 C266.629368,28.7180296 266.886089,28.465656 266.889369,28.1533262 C266.886089,27.8409145 266.629368,27.584604 266.320975,27.584604 C266.008481,27.584604 265.74848,27.8409145 265.752581,28.1533262 C265.74848,28.465656 266.008481,28.7180296 266.320975,28.7219665 Z" id="Path" fill="#113287" fill-rule="nonzero"></path>
            <path d="M269.764968,28.7459982 C270.966552,28.7459982 271.859743,28.0371868 271.855669,27.0719829 C271.859743,26.3391399 271.398794,25.8064242 270.606487,25.6943037 L270.606487,25.6542782 C271.230654,25.4981134 271.639111,25.0255178 271.631729,24.3646878 C271.639111,23.5076675 270.922261,22.7867993 269.781372,22.7867993 C268.699537,22.7867993 267.826851,23.4276166 267.803065,24.3727257 L268.651965,24.3727257 C268.67165,23.8481298 269.192473,23.5236612 269.77317,23.5236612 C270.385855,23.5236612 270.782828,23.8841363 270.782828,24.4127511 C270.782828,24.9694166 270.32188,25.3379296 269.660804,25.3339106 L269.164586,25.3339106 L269.164586,26.0547788 L269.660804,26.0547788 C270.490019,26.0587977 270.966552,26.4672542 270.966552,27.0399954 C270.966552,27.6046167 270.458032,27.9851045 269.757586,27.9851045 C269.108813,27.9851045 268.603574,27.6607179 268.571586,27.1521159 L267.674295,27.1521159 C267.710383,28.1012439 268.563385,28.7459982 269.764968,28.7459982 Z" id="Path" fill="#113287" fill-rule="nonzero"></path>
            <path d="M274.154645,25.6222087 C274.935469,25.6302466 275.367711,25.0455305 275.371812,24.1804723 C275.367711,23.3314899 274.951873,22.7427549 274.154645,22.7467534 C273.381202,22.7427549 272.929275,23.3314899 272.936657,24.1804723 C272.929275,25.0415116 273.361517,25.6302466 274.154645,25.6222087 Z M273.593632,28.6659473 L274.322784,28.6659473 L278.303184,22.8669322 L277.574852,22.8669322 L273.593632,28.6659473 Z M273.593632,24.1804723 C273.597733,23.6638323 273.782277,23.3154141 274.154645,23.3074582 C274.542596,23.3034392 274.707455,23.6598954 274.707455,24.1804723 C274.707455,24.713106 274.531113,25.0575874 274.154645,25.0615243 C273.782277,25.0575874 273.597733,24.713106 273.593632,24.1804723 Z M276.597181,27.3442872 C276.59308,28.1973706 277.026142,28.7861056 277.815169,28.7861056 C278.595993,28.7861056 279.028235,28.2013896 279.032336,27.3442872 C279.028235,26.4872669 278.608296,25.8986139 277.815169,25.9025312 C277.041726,25.8986139 276.59308,26.4872669 276.597181,27.3442872 Z M277.254156,27.3442872 C277.258257,26.8196914 277.446902,26.4712731 277.815169,26.4632352 C278.20312,26.4632352 278.367979,26.8156724 278.367979,27.3442872 C278.367979,27.8689651 278.191638,28.2173834 277.815169,28.2173834 C277.442801,28.2173834 277.258257,27.8689651 277.254156,27.3442872 Z" id="Shape" fill="#113287" fill-rule="nonzero"></path>
            <rect id="Rectangle" fill="#5B6EB4" fill-rule="nonzero" x="149.275242" y="15.9040623" width="73.8174274" height="19.6846473"></rect>
            <path d="M175.302447,25.3258727 L168.758942,25.3258727 L168.758942,25.9426583 L171.650124,25.9426583 L171.650124,26.6314569 C170.31649,26.699533 169.535665,27.144078 169.535665,27.8970157 C169.535665,28.7099917 170.464945,29.1665114 172.026593,29.1625188 C173.568557,29.1665114 174.497837,28.7099917 174.501938,27.8970157 C174.497837,27.144078 173.717012,26.703552 172.403062,26.6314569 L172.403062,25.9426583 L175.302447,25.9426583 L175.302447,25.3258727 Z M169.103423,24.348694 L169.367526,24.9494038 C170.6134,24.8052138 171.634541,24.2806179 172.030694,23.5197243 C172.419466,24.2806179 173.448809,24.8052138 174.693863,24.9494038 L174.966167,24.348694 C173.653037,24.2165608 172.643379,23.6358637 172.539214,22.9390272 L174.718469,22.9390272 L174.718469,22.3302795 L169.359324,22.3302795 L169.359324,22.9390272 L171.513972,22.9390272 C171.409808,23.6318448 170.392768,24.2165608 169.103423,24.348694 Z M170.304987,27.8970157 C170.300906,27.4524708 170.929174,27.212154 172.026593,27.2081351 C173.108429,27.212154 173.740798,27.4524708 173.740798,27.8970157 C173.740798,28.3335228 173.108429,28.5858143 172.026593,28.5778585 C170.929174,28.5858143 170.300906,28.3335228 170.304987,27.8970157 Z" id="Shape" fill="#FFFFFF" fill-rule="nonzero"></path>
            <polygon id="Path" fill="#FFFFFF" fill-rule="nonzero" points="181.662228 25.3098789 177.425108 25.3098789 177.425108 23.171306 181.598253 23.171306 181.598253 22.5545204 176.664788 22.5545204 176.664788 25.9186266 178.739058 25.9186266 178.739058 27.6726928 175.847055 27.6726928 175.847055 28.2975163 182.415166 28.2975163 182.415166 27.6726928 179.491996 27.6726928 179.491996 25.9186266 181.662228 25.9186266"></polygon>
            <path d="M187.205097,28.5778585 C188.546934,28.5778585 189.331859,27.4965152 189.33596,25.598177 C189.331859,23.7118957 188.534631,22.6185775 187.205097,22.6185775 C185.871462,22.6185775 185.074234,23.7118957 185.074234,25.598177 C185.074234,27.4965152 185.86326,28.5778585 187.205097,28.5778585 Z M185.955942,25.598177 C185.955942,24.1564406 186.424272,23.3674964 187.205097,23.3634774 C187.98182,23.3674964 188.455072,24.1564406 188.455072,25.598177 C188.455072,27.0439323 187.985921,27.8168828 187.205097,27.8168828 C186.420172,27.8168828 185.951841,27.0439323 185.955942,25.598177 Z" id="Shape" fill="#FFFFFF" fill-rule="nonzero"></path>
            <path d="M190.601519,28.5538268 C190.909911,28.5498078 191.165812,28.2975163 191.169913,27.9851045 C191.165812,27.6726928 190.909911,27.4163823 190.601519,27.4163823 C190.289025,27.4163823 190.029024,27.6726928 190.032304,27.9851045 C190.029024,28.2975163 190.289025,28.5498078 190.601519,28.5538268 Z" id="Path" fill="#FFFFFF" fill-rule="nonzero"></path>
            <path d="M192.067205,27.3683189 L194.88621,27.3683189 L194.88621,28.4977255 L195.719527,28.4977255 L195.719527,27.3683189 L196.512654,27.3683189 L196.512654,26.623419 L195.719527,26.623419 L195.719527,22.6987105 L194.63031,22.6987105 L192.067205,26.6554886 L192.067205,27.3683189 Z M192.996484,26.623419 L192.996484,26.5753557 L194.822235,23.7479842 L194.88621,23.7479842 L194.88621,26.623419 L192.996484,26.623419 Z" id="Shape" fill="#FFFFFF" fill-rule="nonzero"></path>
            <path d="M198.731278,25.454069 C199.512102,25.4620249 199.944344,24.8773088 199.948445,24.0122506 C199.944344,23.1632681 199.528506,22.5745331 198.731278,22.5785316 C197.957835,22.5745331 197.505909,23.1632681 197.51329,24.0122506 C197.505909,24.8733719 197.938151,25.4620249 198.731278,25.454069 Z M198.170266,28.4977255 L198.899418,28.4977255 L202.879817,22.6987105 L202.151485,22.6987105 L198.170266,28.4977255 Z M198.170266,24.0122506 C198.174367,23.4956926 198.35891,23.1472744 198.731278,23.1392365 C199.11923,23.1352175 199.284089,23.4916737 199.284089,24.0122506 C199.284089,24.5449663 199.107747,24.8893657 198.731278,24.8933846 C198.35891,24.8893657 198.174367,24.5449663 198.170266,24.0122506 Z M201.173815,27.1761475 C201.169714,28.0291489 201.602776,28.6178839 202.391802,28.6178839 C203.172627,28.6178839 203.604869,28.0331679 203.60897,27.1761475 C203.604869,26.3190452 203.184929,25.7303922 202.391802,25.7343907 C201.61836,25.7303922 201.169714,26.3190452 201.173815,27.1761475 Z M201.83079,27.1761475 C201.834891,26.6514697 202.023535,26.3030514 202.391802,26.2950955 C202.779754,26.2950955 202.944613,26.6474507 202.944613,27.1761475 C202.944613,27.7007434 202.768271,28.0491616 202.391802,28.0491616 C202.019434,28.0491616 201.834891,27.7007434 201.83079,27.1761475 Z" id="Shape" fill="#FFFFFF" fill-rule="nonzero"></path>
            <rect id="Rectangle" fill="#113287" fill-rule="nonzero" x="75.4578147" y="15.9040623" width="73.8174274" height="19.6846473"></rect>
            <path d="M101.865589,22.8508564 L96.7475809,22.8508564 L96.7475809,23.467642 L101.10527,23.467642 L101.10527,23.5557308 C101.101169,24.4167701 101.101169,25.4339742 100.824763,26.8237103 L101.593285,26.9037612 C101.861488,25.4339742 101.861488,24.4408018 101.865589,23.5557308 L101.865589,22.8508564 Z M96.0586183,28.3695293 L102.602943,28.3695293 L102.602943,27.7368319 L99.3024841,27.7368319 L99.3024841,25.2057143 L98.5495463,25.2057143 L98.5495463,27.7368319 L96.0586183,27.7368319 L96.0586183,28.3695293 Z" id="Shape" fill="#FFFFFF" fill-rule="nonzero"></path>
            <polygon id="Path" fill="#FFFFFF" fill-rule="nonzero" points="108.962725 25.4700627 104.725604 25.4700627 104.725604 23.3314899 108.897929 23.3314899 108.897929 22.7147042 103.964465 22.7147042 103.964465 26.0788105 106.038734 26.0788105 106.038734 27.8329586 103.147552 27.8329586 103.147552 28.4577001 109.715663 28.4577001 109.715663 27.8329586 106.791672 27.8329586 106.791672 26.0788105 108.962725 26.0788105"></polygon>
            <path d="M114.504773,28.7380423 C115.84661,28.7380423 116.631535,27.656699 116.635636,25.7584428 C116.631535,23.8720795 115.835127,22.7787614 114.504773,22.7787614 C113.171138,22.7787614 112.37473,23.8720795 112.37473,25.7584428 C112.37473,27.656699 113.163757,28.7380423 114.504773,28.7380423 Z M113.255618,25.7584428 C113.255618,24.3166244 113.723949,23.5276802 114.504773,23.5236612 C115.282317,23.5276802 115.754748,24.3166244 115.754748,25.7584428 C115.754748,27.2041982 115.286418,27.9770666 114.504773,27.9770666 C113.719848,27.9770666 113.251517,27.2041982 113.255618,25.7584428 Z" id="Shape" fill="#FFFFFF" fill-rule="nonzero"></path>
            <path d="M117.901195,28.7140106 C118.209588,28.7099917 118.466308,28.4577001 118.469589,28.1452883 C118.466308,27.8329586 118.209588,27.5766481 117.901195,27.5766481 C117.588701,27.5766481 117.3287,27.8329586 117.332801,28.1452883 C117.3287,28.4577001 117.588701,28.7099917 117.901195,28.7140106 Z" id="Path" fill="#FFFFFF" fill-rule="nonzero"></path>
            <polygon id="Path" fill="#FFFFFF" fill-rule="nonzero" points="120.993325 22.8588943 120.128021 22.8588943 118.68612 23.8040034 118.68612 24.64503 120.072248 23.7399463 120.104235 23.7399463 120.104235 28.6579094 120.993325 28.6579094"></polygon>
            <path d="M123.796747,25.6142528 C124.577571,25.6222087 125.009813,25.0374926 125.013914,24.1725164 C125.009813,23.323452 124.593155,22.734717 123.796747,22.7387155 C123.023304,22.734717 122.570557,23.323452 122.578759,24.1725164 C122.570557,25.0335557 123.00362,25.6222087 123.796747,25.6142528 Z M123.235734,28.6579094 L123.964887,28.6579094 L127.945286,22.8588943 L127.216134,22.8588943 L123.235734,28.6579094 Z M123.235734,24.1725164 C123.239835,23.6558764 123.423559,23.3074582 123.796747,23.2994203 C124.184698,23.2954013 124.348737,23.6518575 124.348737,24.1725164 C124.348737,24.7051502 124.173216,25.0495495 123.796747,25.0535684 C123.423559,25.0495495 123.239835,24.7051502 123.235734,24.1725164 Z M126.239284,27.3363314 C126.235183,28.1893327 126.668245,28.7780677 127.456451,28.7780677 C128.238095,28.7780677 128.670337,28.1933517 128.674438,27.3363314 C128.670337,26.479311 128.249578,25.890576 127.456451,25.8945745 C126.683828,25.890576 126.235183,26.479311 126.239284,27.3363314 Z M126.896259,27.3363314 C126.90036,26.8116535 127.088184,26.4632352 127.456451,26.4552793 C127.845223,26.4552793 128.009261,26.8077166 128.009261,27.3363314 C128.009261,27.8609272 127.83292,28.2093455 127.456451,28.2093455 C127.084083,28.2093455 126.90036,27.8609272 126.896259,27.3363314 Z" id="Shape" fill="#FFFFFF" fill-rule="nonzero"></path>
            <rect id="Rectangle" fill="#001A5B" fill-rule="nonzero" x="9.02213001" y="15.9040623" width="66.4356846" height="19.6846473"></rect>
            <path d="M23.9177487,28.0451427 L21.0022064,28.0451427 L21.0022064,26.4832479 L20.2493506,26.4832479 L20.2493506,28.0451427 L17.3498021,28.0451427 L17.3498021,28.6699662 L23.9177487,28.6699662 L23.9177487,28.0451427 Z M17.6701697,26.1388486 L17.9585498,26.7316026 C19.1600515,26.5433681 20.1572429,25.9746459 20.6218006,25.1376383 C21.0903772,25.9746459 22.0915876,26.5433681 23.2930072,26.7316026 L23.5813873,26.1388486 C22.1075813,25.9225636 21.0463328,25.0895749 21.0102443,24.0804087 L23.309001,24.0804087 L23.309001,23.4636231 L21.0022064,23.4636231 L21.0022064,22.5024381 L20.2493506,22.5024381 L20.2493506,23.4636231 L17.942556,23.4636231 L17.942556,24.0804087 L20.2413127,24.0804087 C20.2053062,25.0895749 19.1439757,25.9225636 17.6701697,26.1388486 Z" id="Shape" fill="#FFFFFF" fill-rule="nonzero"></path>
            <path d="M30.2454606,23.0631225 L25.1272062,23.0631225 L25.1272062,23.6799081 L29.4844849,23.6799081 L29.4844849,23.7679969 C29.480548,24.6290362 29.480548,25.6462403 29.2041427,27.0359764 L29.9730743,27.1160273 C30.2414416,25.6462403 30.2414416,24.6530679 30.2454606,23.7679969 L30.2454606,23.0631225 Z M24.4384076,28.5817954 L30.9823225,28.5817954 L30.9823225,27.949098 L27.6823555,27.949098 L27.6823555,25.4179805 L26.9294177,25.4179805 L26.9294177,27.949098 L24.4384076,27.949098 L24.4384076,28.5817954 Z" id="Shape" fill="#FFFFFF" fill-rule="nonzero"></path>
            <polygon id="Path" fill="#FFFFFF" fill-rule="nonzero" points="37.342022 25.6823289 33.1049017 25.6823289 33.1049017 23.543756 37.2779649 23.543756 37.2779649 22.9269704 32.344008 22.9269704 32.344008 26.2910766 34.4185238 26.2910766 34.4185238 28.0451427 31.5270131 28.0451427 31.5270131 28.6699662 38.0949598 28.6699662 38.0949598 28.0451427 35.1713795 28.0451427 35.1713795 26.2910766 37.342022 26.2910766"></polygon>
            <path d="M42.8847266,28.9503084 C44.2263993,28.9503084 45.0113246,27.8689651 45.0153436,25.9706269 C45.0113246,24.0843456 44.2143425,22.9910275 42.8847266,22.9910275 C41.5511737,22.9910275 40.7541916,24.0843456 40.7541916,25.9706269 C40.7541916,27.8689651 41.5431358,28.9503084 42.8847266,28.9503084 Z M41.6352436,25.9706269 C41.6352436,24.5288905 42.1038202,23.7399463 42.8847266,23.7359273 C43.661696,23.7399463 44.1342916,24.5288905 44.1342916,25.9706269 C44.1342916,27.4163823 43.6657149,28.1893327 42.8847266,28.1893327 C42.0998012,28.1893327 41.6312246,27.4163823 41.6352436,25.9706269 Z" id="Shape" fill="#FFFFFF" fill-rule="nonzero"></path>
            <path d="M46.2809024,28.9262767 C46.5892131,28.9222578 46.8455237,28.6699662 46.8495426,28.3575544 C46.8455237,28.0451427 46.5892131,27.7888322 46.2809024,27.7888322 C45.9684906,27.7888322 45.7081611,28.0451427 45.7121801,28.3575544 C45.7081611,28.6699662 45.9684906,28.9222578 46.2809024,28.9262767 Z" id="Path" fill="#FFFFFF" fill-rule="nonzero"></path>
            <path d="M49.6769961,28.9503084 C51.0185869,28.9503084 51.8035942,27.8689651 51.8075311,25.9706269 C51.8035942,24.0843456 51.006612,22.9910275 49.6769961,22.9910275 C48.3433613,22.9910275 47.5463791,24.0843456 47.5463791,25.9706269 C47.5463791,27.8689651 48.3353234,28.9503084 49.6769961,28.9503084 Z M48.4274065,25.9706269 C48.4274065,24.5288905 48.8960077,23.7399463 49.6769961,23.7359273 C50.4538835,23.7399463 50.9264791,24.5288905 50.9264791,25.9706269 C50.9264791,27.4163823 50.4579025,28.1893327 49.6769961,28.1893327 C48.8920708,28.1893327 48.4234942,27.4163823 48.4274065,25.9706269 Z" id="Shape" fill="#FFFFFF" fill-rule="nonzero"></path>
            <path d="M54.0502686,25.8265189 C54.831257,25.8344748 55.2637451,25.2497587 55.267764,24.3847005 C55.2637451,23.5357181 54.8472508,22.9469831 54.0502686,22.9509816 C53.2773181,22.9469831 52.8248173,23.5357181 52.8327732,24.3847005 C52.8248173,25.2458218 53.2573054,25.8344748 54.0502686,25.8265189 Z M53.4895842,28.8701755 L54.2184903,28.8701755 L58.1993001,23.0711604 L57.4703941,23.0711604 L53.4895842,28.8701755 Z M53.4895842,24.3847005 C53.4936032,23.8681426 53.6778187,23.5197243 54.0502686,23.5116864 C54.4387123,23.5076675 54.6029151,23.8641236 54.6029151,24.3847005 C54.6029151,24.9174163 54.4267375,25.2618156 54.0502686,25.2658345 C53.6778187,25.2618156 53.4936032,24.9174163 53.4895842,24.3847005 Z M56.4932154,27.5485975 C56.4891964,28.4015988 56.9217665,28.9903338 57.7107108,28.9903338 C58.4916992,28.9903338 58.9241873,28.4056178 58.9282062,27.5485975 C58.9241873,26.6915771 58.503674,26.1028421 57.7107108,26.1068406 C56.9377603,26.1028421 56.4891964,26.6915771 56.4932154,27.5485975 Z M57.1500264,27.5485975 C57.1540454,27.0239196 57.3422798,26.6755013 57.7107108,26.6675455 C58.0991545,26.6675455 58.2633573,27.0199006 58.2633573,27.5485975 C58.2633573,28.0731933 58.0871797,28.4216116 57.7107108,28.4216116 C57.3382609,28.4216116 57.1540454,28.0731933 57.1500264,27.5485975 Z" id="Shape" fill="#FFFFFF" fill-rule="nonzero"></path>
            <polygon id="Path" fill="#979797" points="148.865145 52.4924084 148.865145 0 149.685339 0 149.685339 52.4924084"></polygon>
            <polygon id="Path" fill="#979797" points="222.682573 52.4924084 222.682573 0 223.502766 0 223.502766 52.4924084"></polygon>
            <polygon id="Path" fill="#979797" points="75.0477178 52.4924084 75.0477178 0 75.8679115 0 75.8679115 52.4924084"></polygon>
            <rect id="Rectangle" fill="#113287" fill-rule="nonzero" x="444.544952" y="15.9040623" width="73.8174274" height="19.6846473"></rect>
            <path d="M469.967674,22.8508564 L464.849665,22.8508564 L464.849665,23.467642 L469.206534,23.467642 L469.206534,23.5557308 C469.202433,24.4167701 469.202433,25.4339742 468.926848,26.8237103 L469.695369,26.9037612 C469.963573,25.4339742 469.963573,24.4408018 469.967674,23.5557308 L469.967674,22.8508564 Z M464.160703,28.3695293 L470.705028,28.3695293 L470.705028,27.7368319 L467.404568,27.7368319 L467.404568,25.2057143 L466.651631,25.2057143 L466.651631,27.7368319 L464.160703,27.7368319 L464.160703,28.3695293 Z" id="Shape" fill="#FFFFFF" fill-rule="nonzero"></path>
            <polygon id="Path" fill="#FFFFFF" fill-rule="nonzero" points="477.063989 25.4700627 472.826869 25.4700627 472.826869 23.3314899 477.000014 23.3314899 477.000014 22.7147042 472.066549 22.7147042 472.066549 26.0788105 474.140819 26.0788105 474.140819 27.8329586 471.249636 27.8329586 471.249636 28.4577001 477.816927 28.4577001 477.816927 27.8329586 474.893757 27.8329586 474.893757 26.0788105 477.063989 26.0788105"></polygon>
            <path d="M482.647047,28.7380423 C483.848631,28.7380423 484.741822,28.0291489 484.737748,27.0640271 C484.741822,26.331102 484.280873,25.7984683 483.487746,25.6863478 L483.487746,25.6462403 C484.112733,25.4900755 484.521189,25.0174799 484.512988,24.3567319 C484.521189,23.4996296 483.80434,22.7787614 482.663451,22.7787614 C481.581615,22.7787614 480.708929,23.4195787 480.684324,24.3646878 L481.534044,24.3646878 C481.553729,23.8400919 482.074552,23.5157053 482.655249,23.5157053 C483.267934,23.5157053 483.664087,23.8760984 483.664087,24.4047953 C483.664087,24.9614607 483.203959,25.3298917 482.542882,25.3258727 L482.046665,25.3258727 L482.046665,26.0467409 L482.542882,26.0467409 C483.372098,26.0507598 483.848631,26.4592163 483.848631,27.0319575 C483.848631,27.5966608 483.340111,27.9770666 482.638845,27.9770666 C481.990072,27.9770666 481.485653,27.65268 481.453665,27.144078 L480.556373,27.144078 C480.592462,28.093206 481.445463,28.7380423 482.647047,28.7380423 Z" id="Path" fill="#FFFFFF" fill-rule="nonzero"></path>
            <path d="M486.099242,28.7140106 C486.407635,28.7099917 486.664355,28.4577001 486.667636,28.1452883 C486.664355,27.8329586 486.407635,27.5766481 486.099242,27.5766481 C485.786748,27.5766481 485.526747,27.8329586 485.530848,28.1452883 C485.526747,28.4577001 485.786748,28.7099917 486.099242,28.7140106 Z" id="Path" fill="#FFFFFF" fill-rule="nonzero"></path>
            <path d="M489.495664,28.7380423 C490.83668,28.7380423 491.621606,27.656699 491.625707,25.7584428 C491.621606,23.8720795 490.825198,22.7787614 489.495664,22.7787614 C488.162029,22.7787614 487.364801,23.8720795 487.364801,25.7584428 C487.364801,27.656699 488.153827,28.7380423 489.495664,28.7380423 Z M488.245689,25.7584428 C488.245689,24.3166244 488.71484,23.5276802 489.495664,23.5236612 C490.272387,23.5276802 490.744819,24.3166244 490.744819,25.7584428 C490.744819,27.2041982 490.276488,27.9770666 489.495664,27.9770666 C488.710739,27.9770666 488.241588,27.2041982 488.245689,25.7584428 Z" id="Shape" fill="#FFFFFF" fill-rule="nonzero"></path>
            <path d="M493.868936,25.6142528 C494.649761,25.6222087 495.082003,25.0374926 495.086104,24.1725164 C495.082003,23.323452 494.665344,22.734717 493.868936,22.7387155 C493.095494,22.734717 492.643567,23.323452 492.650949,24.1725164 C492.643567,25.0335557 493.075809,25.6222087 493.868936,25.6142528 Z M493.307924,28.6579094 L494.037076,28.6579094 L498.017476,22.8588943 L497.289144,22.8588943 L493.307924,28.6579094 Z M493.307924,24.1725164 C493.312025,23.6558764 493.496568,23.3074582 493.868936,23.2994203 C494.256888,23.2954013 494.421747,23.6518575 494.421747,24.1725164 C494.421747,24.7051502 494.245405,25.0495495 493.868936,25.0535684 C493.496568,25.0495495 493.312025,24.7051502 493.307924,24.1725164 Z M496.311473,27.3363314 C496.307372,28.1893327 496.740434,28.7780677 497.529461,28.7780677 C498.310285,28.7780677 498.742527,28.1933517 498.746628,27.3363314 C498.742527,26.479311 498.321768,25.890576 497.529461,25.8945745 C496.756018,25.890576 496.307372,26.479311 496.311473,27.3363314 Z M496.968448,27.3363314 C496.972549,26.8116535 497.160373,26.4632352 497.529461,26.4552793 C497.917412,26.4552793 498.081451,26.8077166 498.081451,27.3363314 C498.081451,27.8609272 497.905929,28.2093455 497.529461,28.2093455 C497.157093,28.2093455 496.972549,27.8609272 496.968448,27.3363314 Z" id="Shape" fill="#FFFFFF" fill-rule="nonzero"></path>
            <rect id="Rectangle" fill="#5B6EB4" fill-rule="nonzero" x="370.727524" y="15.9040623" width="73.8174274" height="19.6846473"></rect>
            <path d="M394.928978,25.3258727 L388.384653,25.3258727 L388.384653,25.9426583 L391.276656,25.9426583 L391.276656,26.6314569 C389.943021,26.699533 389.162196,27.144078 389.162196,27.8970157 C389.162196,28.7099917 390.090656,29.1665114 391.653124,29.1625188 C393.195089,29.1665114 394.123548,28.7099917 394.127649,27.8970157 C394.123548,27.144078 393.342723,26.703552 392.029593,26.6314569 L392.029593,25.9426583 L394.928978,25.9426583 L394.928978,25.3258727 Z M388.729134,24.348694 L388.994057,24.9494038 C390.239111,24.8052138 391.260252,24.2806179 391.657225,23.5197243 C392.045177,24.2806179 393.07452,24.8052138 394.320394,24.9494038 L394.592698,24.348694 C393.278748,24.2165608 392.26991,23.6358637 392.165746,22.9390272 L394.34418,22.9390272 L394.34418,22.3302795 L388.985855,22.3302795 L388.985855,22.9390272 L391.140503,22.9390272 C391.036339,23.6318448 390.019299,24.2165608 388.729134,24.348694 Z M389.930698,27.8970157 C389.926617,27.4524708 390.555705,27.212154 391.653124,27.2081351 C392.73414,27.212154 393.367329,27.4524708 393.367329,27.8970157 C393.367329,28.3335228 392.73414,28.5858143 391.653124,28.5778585 C390.555705,28.5858143 389.926617,28.3335228 389.930698,27.8970157 Z" id="Shape" fill="#FFFFFF" fill-rule="nonzero"></path>
            <polygon id="Path" fill="#FFFFFF" fill-rule="nonzero" points="401.288759 25.3098789 397.051639 25.3098789 397.051639 23.171306 401.224784 23.171306 401.224784 22.5545204 396.290499 22.5545204 396.290499 25.9186266 398.364769 25.9186266 398.364769 27.6726928 395.473586 27.6726928 395.473586 28.2975163 402.041697 28.2975163 402.041697 27.6726928 399.117707 27.6726928 399.117707 25.9186266 401.288759 25.9186266"></polygon>
            <polygon id="Path" fill="#FFFFFF" fill-rule="nonzero" points="407.015351 22.6987105 406.150047 22.6987105 404.708967 23.6438196 404.708967 24.4848462 406.094274 23.5797625 406.126261 23.5797625 406.126261 28.4977255 407.015351 28.4977255"></polygon>
            <path d="M408.361289,27.3683189 L411.180295,27.3683189 L411.180295,28.4977255 L412.013611,28.4977255 L412.013611,27.3683189 L412.806739,27.3683189 L412.806739,26.623419 L412.013611,26.623419 L412.013611,22.6987105 L410.924394,22.6987105 L408.361289,26.6554886 L408.361289,27.3683189 Z M409.290568,26.623419 L409.290568,26.5753557 L411.11632,23.7479842 L411.180295,23.7479842 L411.180295,26.623419 L409.290568,26.623419 Z" id="Shape" fill="#FFFFFF" fill-rule="nonzero"></path>
            <path d="M414.047692,28.5538268 C414.356084,28.5498078 414.612805,28.2975163 414.616906,27.9851045 C414.612805,27.6726928 414.356084,27.4163823 414.047692,27.4163823 C413.736018,27.4163823 413.475196,27.6726928 413.479297,27.9851045 C413.475196,28.2975163 413.736018,28.5498078 414.047692,28.5538268 Z" id="Path" fill="#FFFFFF" fill-rule="nonzero"></path>
            <path d="M417.563862,22.6185231 C416.302404,22.6106217 415.48139,23.4756799 415.48139,24.5809728 C415.48139,25.6902847 416.314707,26.4872669 417.356353,26.4872669 C417.98052,26.4872669 418.525129,26.1909309 418.837622,25.7023416 L418.909799,25.7023416 C418.901598,27.0279385 418.377494,27.804908 417.484303,27.8089269 C416.899505,27.804908 416.523036,27.4644456 416.402467,26.9758562 L415.529781,26.9758562 C415.670035,27.9170284 416.41477,28.5778585 417.484303,28.5778585 C418.873711,28.5778585 419.751318,27.4244201 419.751318,25.3899298 C419.747217,23.2673507 418.629293,22.6266154 417.563862,22.6185231 Z M416.338469,24.5649791 C416.334391,23.9001301 416.863416,23.3555215 417.563862,23.3555215 C418.273329,23.3555215 418.790051,23.9281807 418.790051,24.5569412 C418.790051,25.1977585 418.248723,25.7704177 417.548278,25.7664213 C416.843732,25.7704177 416.342593,25.2377839 416.338469,24.5649791 Z" id="Shape" fill="#FFFFFF" fill-rule="nonzero"></path>
            <path d="M422.009311,25.454069 C422.790956,25.4620249 423.223198,24.8773088 423.227299,24.0122506 C423.223198,23.1632681 422.806539,22.5745331 422.009311,22.5785316 C421.236689,22.5745331 420.783942,23.1632681 420.792144,24.0122506 C420.783942,24.8733719 421.217004,25.4620249 422.009311,25.454069 Z M421.449119,28.4977255 L422.177451,28.4977255 L426.158671,22.6987105 L425.429519,22.6987105 L421.449119,28.4977255 Z M421.449119,24.0122506 C421.45322,23.4956926 421.636943,23.1472744 422.009311,23.1392365 C422.398083,23.1352175 422.562122,23.4916737 422.562122,24.0122506 C422.562122,24.5449663 422.38578,24.8893657 422.009311,24.8933846 C421.636943,24.8893657 421.45322,24.5449663 421.449119,24.0122506 Z M424.452668,27.1761475 C424.448567,28.0291489 424.880809,28.6178839 425.669835,28.6178839 C426.45066,28.6178839 426.883722,28.0331679 426.887823,27.1761475 C426.883722,26.3190452 426.462963,25.7303922 425.669835,25.7343907 C424.897213,25.7303922 424.448567,26.3190452 424.452668,27.1761475 Z M425.109643,27.1761475 C425.113744,26.6514697 425.301568,26.3030514 425.669835,26.2950955 C426.058607,26.2950955 426.222646,26.6474507 426.222646,27.1761475 C426.222646,27.7007434 426.046304,28.0491616 425.669835,28.0491616 C425.297467,28.0491616 425.113744,27.7007434 425.109643,27.1761475 Z" id="Shape" fill="#FFFFFF" fill-rule="nonzero"></path>
            <rect id="Rectangle" fill="#E2E6F6" fill-rule="nonzero" x="296.910097" y="15.9040623" width="73.8174274" height="19.6846473"></rect>
            <path d="M320.001828,22.1780515 L319.241509,22.1780515 L319.241509,23.4516482 L317.683141,23.4516482 C317.731533,23.2113315 317.759419,22.955021 317.759419,22.6906726 L314.475364,22.6906726 L314.475364,23.3154141 L316.934304,23.3154141 C316.798152,24.4728713 315.804898,25.3859929 314.107097,25.8705633 L314.411389,26.4632352 C315.964835,26.0186903 317.04257,25.2057143 317.506799,24.052358 L319.241509,24.052358 L319.241509,24.9253722 L317.431342,24.9253722 L317.431342,25.5501136 L319.241509,25.5501136 L319.241509,26.4232098 L320.001828,26.4232098 L320.001828,22.1780515 Z M315.2201,27.9049716 C315.2201,28.7780677 316.165783,29.3147204 317.638851,29.3147204 C319.093054,29.3147204 320.046119,28.7780677 320.05022,27.9049716 C320.046119,27.0359764 319.093054,26.5072796 317.638851,26.5033427 C316.165783,26.5072796 315.2201,27.0359764 315.2201,27.9049716 Z M315.973037,27.9049716 C315.973037,27.3923506 316.613609,27.1000336 317.638851,27.1040525 C318.644408,27.1000336 319.284979,27.3923506 319.28908,27.9049716 C319.284979,28.4096367 318.644408,28.7019538 317.638851,28.7059727 C316.613609,28.7019538 315.973037,28.4096367 315.973037,27.9049716 Z" id="Shape" fill="#113287" fill-rule="nonzero"></path>
            <polygon id="Path" fill="#113287" fill-rule="nonzero" points="326.922622 25.4781006 322.685502 25.4781006 322.685502 23.3394457 326.858647 23.3394457 326.858647 22.7227421 321.924362 22.7227421 321.924362 26.0867663 323.998632 26.0867663 323.998632 27.8409145 321.10745 27.8409145 321.10745 28.465656 327.67556 28.465656 327.67556 27.8409145 324.75157 27.8409145 324.75157 26.0867663 326.922622 26.0867663"></polygon>
            <path d="M332.4171,28.7459982 C333.626885,28.7459982 334.483988,27.9250663 334.483988,26.7836849 C334.483988,25.6663351 333.678557,24.8572961 332.585239,24.8532771 C332.144795,24.8572961 331.736339,25.013543 331.496022,25.2458218 L331.440249,25.2458218 L331.632174,23.6197879 L334.187077,23.6197879 L334.187077,22.8669322 L330.903022,22.8669322 L330.526553,26.0948042 L331.35987,26.0948042 C331.555896,25.7383481 331.91268,25.5821832 332.37691,25.5821832 C333.106062,25.5902211 333.626885,26.1028421 333.626885,26.8077166 C333.626885,27.4965152 333.121646,28.0051172 332.4171,28.0091362 C331.832302,28.0051172 331.35987,27.6447242 331.311479,27.1521159 L330.454376,27.1521159 C330.494566,28.0772123 331.31968,28.7459982 332.4171,28.7459982 Z" id="Path" fill="#113287" fill-rule="nonzero"></path>
            <path d="M337.519524,28.746054 C338.764578,28.7540361 339.593794,27.8929968 339.593794,26.7676091 C339.593794,25.6582972 338.760477,24.865334 337.727853,24.861315 C337.098765,24.865334 336.554156,25.1537141 336.237562,25.6462403 L336.173586,25.6462403 C336.173586,24.3367192 336.694409,23.5597497 337.591701,23.5557308 C338.175679,23.5597497 338.548867,23.9001301 338.664515,24.3727257 L339.538021,24.3727257 C339.401869,23.4516482 338.660414,22.7867993 337.591701,22.7867993 C336.201473,22.7867993 335.328787,23.9402376 335.324686,25.9586521 C335.324686,28.1012439 336.445891,28.7380423 337.519524,28.746054 Z M336.277751,26.7916408 C336.285953,26.1468865 336.826461,25.5781643 337.535108,25.582161 C338.232272,25.5781643 338.736692,26.1188359 338.736692,26.7836849 C338.736692,27.4604266 338.211768,28.0051172 337.511322,28.0091362 C336.798574,28.0051172 336.281852,27.436477 336.277751,26.7916408 Z" id="Shape" fill="#113287" fill-rule="nonzero"></path>
            <path d="M340.835567,28.7219665 C341.14396,28.7180296 341.39986,28.465656 341.403961,28.1533262 C341.39986,27.8409145 341.14396,27.584604 340.835567,27.584604 C340.523073,27.584604 340.262252,27.8409145 340.266353,28.1533262 C340.262252,28.465656 340.523073,28.7180296 340.835567,28.7219665 Z" id="Path" fill="#113287" fill-rule="nonzero"></path>
            <path d="M344.311548,28.746054 C345.557422,28.7540361 346.385817,27.8929968 346.385817,26.7676091 C346.385817,25.6582972 345.553321,24.865334 344.519877,24.861315 C343.890788,24.865334 343.34618,25.1537141 343.029585,25.6462403 L342.96561,25.6462403 C342.96561,24.3367192 343.486433,23.5597497 344.383725,23.5557308 C344.968523,23.5597497 345.340891,23.9001301 345.456538,24.3727257 L346.330044,24.3727257 C346.193892,23.4516482 345.453257,22.7867993 344.383725,22.7867993 C342.994317,22.7867993 342.120811,23.9402376 342.11671,25.9586521 C342.11671,28.1012439 343.237914,28.7380423 344.311548,28.746054 Z M343.069775,26.7916408 C343.077976,26.1468865 343.618484,25.5781643 344.327131,25.582161 C345.024296,25.5781643 345.528715,26.1188359 345.528715,26.7836849 C345.528715,27.4604266 345.004611,28.0051172 344.303346,28.0091362 C343.590598,28.0051172 343.073876,27.436477 343.069775,26.7916408 Z" id="Shape" fill="#113287" fill-rule="nonzero"></path>
            <path d="M348.652833,25.6222087 C349.433657,25.6302466 349.865899,25.0455305 349.87,24.1804723 C349.865899,23.3314899 349.450061,22.7427549 348.652833,22.7467534 C347.88021,22.7427549 347.427463,23.3314899 347.435665,24.1804723 C347.427463,25.0415116 347.859705,25.6302466 348.652833,25.6222087 Z M348.09182,28.6659473 L348.820972,28.6659473 L352.802192,22.8669322 L352.07304,22.8669322 L348.09182,28.6659473 Z M348.09182,24.1804723 C348.095921,23.6638323 348.280465,23.3154141 348.652833,23.3074582 C349.041604,23.3034392 349.205643,23.6598954 349.205643,24.1804723 C349.205643,24.713106 349.029302,25.0575874 348.652833,25.0615243 C348.280465,25.0575874 348.095921,24.713106 348.09182,24.1804723 Z M351.095351,27.3442872 C351.092089,28.1973706 351.524331,28.7861056 352.313357,28.7861056 C353.094181,28.7861056 353.526423,28.2013896 353.530524,27.3442872 C353.526423,26.4872669 353.106484,25.8986139 352.313357,25.9025312 C351.539914,25.8986139 351.092089,26.4872669 351.095351,27.3442872 Z M351.752344,27.3442872 C351.756445,26.8196914 351.94509,26.4712731 352.313357,26.4632352 C352.701308,26.4632352 352.866167,26.8156724 352.866167,27.3442872 C352.866167,27.8689651 352.689826,28.2173834 352.313357,28.2173834 C351.940989,28.2173834 351.756445,27.8689651 351.752344,27.3442872 Z" id="Shape" fill="#113287" fill-rule="nonzero"></path>
            <polygon id="Path" fill="#113287" points="295.679806 52.4924084 295.679806 0 297.320194 0 297.320194 52.4924084"></polygon>
            <path d="M271.343021,63.168869 L268.733165,60.5590128 C268.573227,60.398829 268.573227,60.1392377 268.733165,59.9790539 L271.343021,57.3691977 C271.503779,57.2090959 271.76296,57.2090959 271.923718,57.3691977 C272.083656,57.5293816 272.083656,57.7890549 271.923718,57.9491567 L270.013487,59.8589775 L284.607192,59.8589775 L284.607192,60.6791712 L270.013487,60.6791712 L271.923718,62.5889101 C272.083656,62.7490118 272.083656,63.0086852 271.923718,63.168869 C271.76296,63.3289708 271.503779,63.3289708 271.343021,63.168869 Z" id="Path" fill="#113287"></path>
            <path d="M322.477173,57.3691977 L325.087029,59.9789719 C325.246967,60.1391557 325.246967,60.398829 325.087029,60.5590128 L322.477173,63.168787 C322.316415,63.3289708 322.057234,63.3289708 321.896476,63.168787 C321.736538,63.0086852 321.736538,62.7490118 321.896476,62.588828 L323.806707,60.6790892 L309.213001,60.6790892 L309.213001,59.8588955 L323.806707,59.8588955 L321.896476,57.9491567 C321.736538,57.7889728 321.736538,57.5292995 321.896476,57.3691977 C322.057234,57.2090139 322.316415,57.2090139 322.477173,57.3691977 Z" id="Path" fill="#113287"></path>
            <polygon id="Path" fill="#001A5B" fill-rule="nonzero" points="586.811639 15.9040623 563.183501 15.9040623 563.183501 35.5887096 586.811639 35.5887096 593 25.746386"></polygon>
            <rect id="Rectangle" fill="#001A5B" fill-rule="nonzero" transform="translate(551.170124, 25.746386) scale(-1, 1) translate(-551.170124, -25.746386) " x="518.362379" y="15.9040623" width="65.615491" height="19.6846473"></rect>
            <path d="M541.253983,28.0451427 L538.338195,28.0451427 L538.338195,26.4832479 L537.586077,26.4832479 L537.586077,28.0451427 L534.685873,28.0451427 L534.685873,28.6699662 L541.253983,28.6699662 L541.253983,28.0451427 Z M535.006568,26.1388486 L535.295277,26.7316026 C536.49604,26.5433681 537.493396,25.9746459 537.958445,25.1376383 C538.426776,25.9746459 539.428232,26.5433681 540.628996,26.7316026 L540.917704,26.1388486 C539.443816,25.9225636 538.382485,25.0895749 538.346397,24.0804087 L540.6454,24.0804087 L540.6454,23.4636231 L538.338195,23.4636231 L538.338195,22.5024381 L537.586077,22.5024381 L537.586077,23.4636231 L535.278873,23.4636231 L535.278873,24.0804087 L537.577876,24.0804087 C537.541787,25.0895749 536.480456,25.9225636 535.006568,26.1388486 Z" id="Shape" fill="#FFFFFF" fill-rule="nonzero"></path>
            <path d="M547.581777,23.0631225 L542.463769,23.0631225 L542.463769,23.6799081 L546.820638,23.6799081 L546.820638,23.7679969 C546.816537,24.6290362 546.816537,25.6462403 546.540131,27.0359764 L547.309473,27.1160273 C547.577676,25.6462403 547.577676,24.6530679 547.581777,23.7679969 L547.581777,23.0631225 Z M541.774806,28.5817954 L548.318311,28.5817954 L548.318311,27.949098 L545.018672,27.949098 L545.018672,25.4179805 L544.265734,25.4179805 L544.265734,27.949098 L541.774806,27.949098 L541.774806,28.5817954 Z" id="Shape" fill="#FFFFFF" fill-rule="nonzero"></path>
            <polygon id="Path" fill="#FFFFFF" fill-rule="nonzero" points="554.678093 25.6823289 550.440972 25.6823289 550.440972 23.543756 554.614118 23.543756 554.614118 22.9269704 549.680653 22.9269704 549.680653 26.2910766 551.754923 26.2910766 551.754923 28.0451427 548.86374 28.0451427 548.86374 28.6699662 555.43103 28.6699662 555.43103 28.0451427 552.50786 28.0451427 552.50786 26.2910766 554.678093 26.2910766"></polygon>
            <path d="M560.220961,28.9503084 C561.562798,28.9503084 562.347723,27.8689651 562.351824,25.9706269 C562.347723,24.0843456 561.550495,22.9910275 560.220961,22.9910275 C558.887326,22.9910275 558.090918,24.0843456 558.090918,25.9706269 C558.090918,27.8689651 558.879124,28.9503084 560.220961,28.9503084 Z M558.971806,25.9706269 C558.971806,24.5288905 559.440137,23.7399463 560.220961,23.7359273 C560.997685,23.7399463 561.470936,24.5288905 561.470936,25.9706269 C561.470936,27.4163823 561.001786,28.1893327 560.220961,28.1893327 C559.436036,28.1893327 558.967705,27.4163823 558.971806,25.9706269 Z" id="Shape" fill="#FFFFFF" fill-rule="nonzero"></path>
            <path d="M563.617383,28.9262767 C563.925776,28.9222578 564.181676,28.6699662 564.185777,28.3575544 C564.181676,28.0451427 563.925776,27.7888322 563.617383,27.7888322 C563.304889,27.7888322 563.044888,28.0451427 563.048169,28.3575544 C563.044888,28.6699662 563.304889,28.9222578 563.617383,28.9262767 Z" id="Path" fill="#FFFFFF" fill-rule="nonzero"></path>
            <polygon id="Path" fill="#FFFFFF" fill-rule="nonzero" points="565.259411 28.8701755 566.180488 28.8701755 568.759177 23.8560857 568.759177 23.0711604 564.858336 23.0711604 564.858336 23.8240982 567.846302 23.8240982 567.846302 23.8720795"></polygon>
            <path d="M570.977801,25.8265189 C571.759445,25.8344748 572.191687,25.2497587 572.195788,24.3847005 C572.191687,23.5357181 571.775029,22.9469831 570.977801,22.9509816 C570.205178,22.9469831 569.752432,23.5357181 569.760633,24.3847005 C569.752432,25.2458218 570.185494,25.8344748 570.977801,25.8265189 Z M570.417609,28.8701755 L571.145941,28.8701755 L575.12716,23.0711604 L574.398008,23.0711604 L570.417609,28.8701755 Z M570.417609,24.3847005 C570.42171,23.8681426 570.605433,23.5197243 570.977801,23.5116864 C571.366573,23.5076675 571.530611,23.8641236 571.530611,24.3847005 C571.530611,24.9174163 571.35427,25.2618156 570.977801,25.2658345 C570.605433,25.2618156 570.42171,24.9174163 570.417609,24.3847005 Z M573.421158,27.5485975 C573.417057,28.4015988 573.849299,28.9903338 574.638325,28.9903338 C575.419149,28.9903338 575.852212,28.4056178 575.856313,27.5485975 C575.852212,26.6915771 575.431452,26.1028421 574.638325,26.1068406 C573.865703,26.1028421 573.417057,26.6915771 573.421158,27.5485975 Z M574.078133,27.5485975 C574.082234,27.0239196 574.270058,26.6755013 574.638325,26.6675455 C575.027097,26.6675455 575.191136,27.0199006 575.191136,27.5485975 C575.191136,28.0731933 575.014794,28.4216116 574.638325,28.4216116 C574.265957,28.4216116 574.082234,28.0731933 574.078133,27.5485975 Z" id="Shape" fill="#FFFFFF" fill-rule="nonzero"></path>
            <polygon id="Path" fill="#979797" points="370.317427 52.4924084 370.317427 0 371.137621 0 371.137621 52.4924084"></polygon>
            <polygon id="Path" fill="#979797" points="444.134855 52.4924084 444.134855 0 444.955048 0 444.955048 52.4924084"></polygon>
            <polygon id="Path" fill="#979797" points="517.952282 52.4924084 517.952282 0 518.772476 0 518.772476 52.4924084"></polygon>
        </g>
    </g>
</svg>