<svg width="593" height="74" viewBox="0 0 593 74" fill="none" xmlns="http://www.w3.org/2000/svg">
<rect width="593" height="74" fill="#727272"/>
<path d="M-340 -994C-340 -995.105 -339.105 -996 -338 -996H2975C2976.1 -996 2977 -995.105 2977 -994V976C2977 977.105 2976.1 978 2975 978H-338C-339.105 978 -340 977.105 -340 976V-994Z" fill="white"/>
<path d="M-338 -995H2975V-997H-338V-995ZM2976 -994V976H2978V-994H2976ZM2975 977H-338V979H2975V977ZM-339 976V-994H-341V976H-339ZM-338 977C-338.552 977 -339 976.552 -339 976H-341C-341 977.657 -339.657 979 -338 979V977ZM2976 976C2976 976.552 2975.55 977 2975 977V979C2976.66 979 2978 977.657 2978 976H2976ZM2975 -995C2975.55 -995 2976 -994.552 2976 -994H2978C2978 -995.657 2976.66 -997 2975 -997V-995ZM-338 -997C-339.657 -997 -341 -995.657 -341 -994H-339C-339 -994.552 -338.552 -995 -338 -995V-997Z" fill="black" fill-opacity="0.1"/>
<path fill-rule="evenodd" clip-rule="evenodd" d="M111.957 40.0133V12.5232H112.777V40.0133H111.957Z" fill="#979797"/>
<path d="M6.18832 15.9041H29.8162V35.5887H6.18832L0 25.7464L6.18832 15.9041Z" fill="#001A5B"/>
<path d="M292.134 62.8017C293.255 62.8088 294.002 62.0339 294.002 61.021C294.002 60.0227 293.252 59.309 292.322 59.3054C291.756 59.309 291.266 59.5685 290.981 60.0119H290.924C290.924 58.8333 291.392 58.134 292.199 58.1304C292.726 58.134 293.061 58.4404 293.165 58.8657H293.951C293.829 58.0367 293.162 57.4384 292.199 57.4384C290.948 57.4384 290.162 58.4764 290.159 60.293C290.159 62.2213 291.169 62.7944 292.134 62.8017ZM291.017 61.0427C291.024 60.4624 291.511 59.9506 292.149 59.9542C292.776 59.9506 293.23 60.4371 293.23 61.0355C293.23 61.6446 292.758 62.1348 292.127 62.1384C291.485 62.1348 291.02 61.623 291.017 61.0427Z" fill="#001A5B"/>
<path d="M296.662 62.8016C297.869 62.8016 298.575 61.8284 298.579 60.12C298.575 58.4223 297.858 57.4384 296.662 57.4384C295.461 57.4384 294.744 58.4223 294.744 60.12C294.744 61.8284 295.454 62.8016 296.662 62.8016ZM295.537 60.12C295.537 58.8224 295.959 58.1124 296.662 58.1088C297.36 58.1124 297.786 58.8224 297.786 60.12C297.786 61.4211 297.364 62.1168 296.662 62.1168C295.955 62.1168 295.533 61.4211 295.537 60.12Z" fill="#001A5B"/>
<path d="M301.167 62.7296C302.756 62.7296 303.672 61.742 303.676 60.1128C303.672 58.4873 302.756 57.5105 301.217 57.5105H299.473V62.7296H301.167ZM300.265 62.0376V58.2025H301.167C302.306 58.2025 302.89 58.8837 302.89 60.1128C302.89 61.3455 302.306 62.0339 301.123 62.0376H300.265Z" fill="#001A5B"/>
<path d="M275.659 66.5807H275.153V69.9511H273.973V70.3163H275.153V70.9059H275.659V66.5807ZM270.93 69.2206L271 69.6307C271.478 69.6307 272.025 69.6307 272.602 69.6084V70.7072H273.108V69.5827C273.631 69.5507 274.166 69.4994 274.672 69.4193L274.64 69.0541C273.419 69.2046 271.99 69.2142 270.93 69.2206ZM271.391 67.8045C271.388 68.4132 271.958 68.7914 272.801 68.7914C273.637 68.7914 274.207 68.4132 274.21 67.8045C274.207 67.2054 273.637 66.8113 272.801 66.8113C271.958 66.8113 271.388 67.2054 271.391 67.8045ZM271.75 72.149H275.8V71.7261H272.256V70.483H271.75V72.149ZM271.872 67.8045C271.866 67.4393 272.244 67.1894 272.801 67.1958C273.343 67.1894 273.727 67.4393 273.73 67.8045C273.727 68.1762 273.343 68.4164 272.801 68.4196C272.244 68.4164 271.866 68.1762 271.872 67.8045Z" fill="#001A5B"/>
<path d="M280.304 68.1057V67.0676H279.805V68.1057C279.798 69.1854 279.096 70.2748 278.247 70.6624L278.568 71.0853C279.234 70.7489 279.795 70.028 280.057 69.1694C280.33 69.98 280.891 70.656 281.541 70.97L281.849 70.5727C281.009 70.1914 280.301 69.147 280.304 68.1057ZM282.47 72.2836H282.977V66.5742H282.47V72.2836Z" fill="#001A5B"/>
<path d="M314.862 67.7405H310.991V68.1506H314.361V68.1826C314.365 68.6664 314.365 69.2271 314.211 70.0153H310.331V70.4382H315.547V70.0153H314.711C314.862 69.2399 314.862 68.6632 314.862 68.1826V67.7405ZM311.023 72.9628H315.035V72.5399H311.523V71.0789H311.023V72.9628Z" fill="#001A5B"/>
<path d="M319.674 68.9259V67.8878H319.174V68.9259C319.168 70.0056 318.466 71.095 317.617 71.4826L317.937 71.9055C318.603 71.5691 319.164 70.8482 319.427 69.9896C319.699 70.8002 320.26 71.4762 320.911 71.7902L321.218 71.3929C320.378 71.0116 319.67 69.9672 319.674 68.9259ZM321.84 73.1038H322.346V67.3944H321.84V73.1038Z" fill="#001A5B"/>
<path d="M70.563 63.6218C71.6516 63.6218 72.4229 62.883 72.4229 61.8557C72.4229 60.8501 71.6984 60.122 70.7144 60.1185C70.3179 60.122 69.9503 60.2626 69.734 60.4716H69.6836L69.8566 59.0083H72.1561V58.3307H69.2006L68.8617 61.2358H69.6115C69.7881 60.915 70.1089 60.7745 70.527 60.7745C71.183 60.7816 71.6516 61.2429 71.6516 61.8774C71.6516 62.4973 71.1974 62.955 70.563 62.9586C70.0368 62.955 69.6115 62.6306 69.5682 62.1873H68.7969C68.833 63.0199 69.5754 63.6218 70.563 63.6218Z" fill="#001A5B"/>
<path d="M73.1511 62.5334H75.6886V63.5497H76.4383V62.5334H77.1519V61.8629H76.4383V58.3307H75.4579L73.1511 61.8918V62.5334ZM73.9873 61.8629V61.8197L75.6309 59.275H75.6886V61.8629H73.9873Z" fill="#001A5B"/>
<path d="M79.7182 63.5497C81.3077 63.5497 82.2236 62.5621 82.2269 60.933C82.2236 59.3075 81.3077 58.3307 79.7687 58.3307H78.0242V63.5497H79.7182ZM78.8171 62.8577V59.0227H79.7182C80.8572 59.0227 81.4411 59.7039 81.4411 60.933C81.4411 62.1657 80.8572 62.8541 79.675 62.8577H78.8171Z" fill="#001A5B"/>
<path d="M144.424 63.6218C145.512 63.6218 146.284 62.883 146.284 61.8557C146.284 60.8501 145.559 60.122 144.576 60.1185C144.179 60.122 143.811 60.2626 143.595 60.4716H143.545L143.718 59.0083H146.017V58.3307H143.062L142.723 61.2358H143.472C143.649 60.915 143.969 60.7745 144.388 60.7745C145.044 60.7816 145.512 61.2429 145.512 61.8774C145.512 62.4973 145.058 62.955 144.424 62.9586C143.897 62.955 143.472 62.6306 143.429 62.1873H142.658C142.694 63.0199 143.436 63.6218 144.424 63.6218Z" fill="#001A5B"/>
<path d="M149.016 63.6218C150.137 63.629 150.883 62.8541 150.883 61.8412C150.883 60.8429 150.133 60.1292 149.203 60.1256C148.637 60.1292 148.148 60.3887 147.862 60.8321H147.805C147.805 59.6535 148.273 58.9542 149.081 58.9505C149.607 58.9542 149.942 59.2606 150.046 59.6858H150.832C150.71 58.8569 150.043 58.2585 149.081 58.2585C147.83 58.2585 147.044 59.2966 147.04 61.1131C147.04 63.0415 148.05 63.6146 149.016 63.6218ZM147.898 61.8629C147.906 61.2826 148.392 60.7708 149.03 60.7744C149.658 60.7708 150.112 61.2573 150.112 61.8557C150.112 62.4648 149.639 62.955 149.009 62.9586C148.367 62.955 147.902 62.4432 147.898 61.8629Z" fill="#001A5B"/>
<path d="M153.493 63.5497C155.082 63.5497 155.997 62.5621 156.001 60.933C155.997 59.3075 155.082 58.3307 153.543 58.3307H151.798V63.5497H153.493ZM152.591 62.8577V59.0227H153.493C154.631 59.0227 155.215 59.7039 155.215 60.933C155.215 62.1657 154.631 62.8541 153.449 62.8577H152.591Z" fill="#001A5B"/>
<path d="M218.259 63.6218C219.348 63.6218 220.119 62.883 220.119 61.8557C220.119 60.8501 219.394 60.122 218.411 60.1185C218.014 60.122 217.647 60.2626 217.43 60.4716H217.38L217.553 59.0083H219.852V58.3307H216.897L216.558 61.2358H217.308C217.484 60.915 217.805 60.7745 218.223 60.7745C218.879 60.7816 219.348 61.2429 219.348 61.8774C219.348 62.4973 218.893 62.955 218.259 62.9586C217.733 62.955 217.308 62.6306 217.264 62.1873H216.493C216.529 63.0199 217.272 63.6218 218.259 63.6218Z" fill="#001A5B"/>
<path d="M222.786 63.6218C223.904 63.6218 224.7 63.0091 224.704 62.1585C224.7 61.4881 224.217 60.9402 223.608 60.8464V60.8176C224.134 60.6951 224.499 60.2193 224.502 59.6498C224.499 58.8461 223.77 58.2585 222.786 58.2585C221.788 58.2585 221.064 58.8461 221.064 59.6498C221.064 60.2193 221.42 60.6951 221.958 60.8176V60.8464C221.341 60.9402 220.862 61.4881 220.869 62.1585C220.862 63.0091 221.651 63.6218 222.786 63.6218ZM221.676 62.1007C221.666 61.5638 222.137 61.1709 222.786 61.1709C223.428 61.1709 223.897 61.5638 223.897 62.1007C223.897 62.6126 223.464 62.9658 222.786 62.9658C222.098 62.9658 221.666 62.6126 221.676 62.1007ZM221.835 59.7219C221.839 59.2353 222.214 58.9037 222.786 58.9073C223.345 58.9037 223.727 59.2353 223.724 59.7219C223.727 60.2121 223.331 60.5473 222.786 60.5437C222.227 60.5473 221.839 60.2085 221.835 59.7219Z" fill="#001A5B"/>
<path d="M227.292 63.5497C228.882 63.5497 229.797 62.5621 229.8 60.933C229.797 59.3075 228.882 58.3307 227.342 58.3307H225.598V63.5497H227.292ZM226.391 62.8577V59.0227H227.292C228.431 59.0227 229.015 59.7039 229.015 60.933C229.015 62.1657 228.431 62.8541 227.249 62.8577H226.391Z" fill="#001A5B"/>
<path d="M365.926 62.8017C367.047 62.8088 367.794 62.0339 367.794 61.021C367.794 60.0227 367.044 59.309 366.114 59.3054C365.548 59.309 365.058 59.5685 364.773 60.0119H364.716C364.716 58.8333 365.184 58.134 365.992 58.1304C366.518 58.134 366.853 58.4404 366.957 58.8657H367.743C367.621 58.0367 366.954 57.4384 365.992 57.4384C364.741 57.4384 363.955 58.4764 363.951 60.293C363.951 62.2213 364.961 62.7944 365.926 62.8017ZM364.809 61.0427C364.816 60.4624 365.303 59.9506 365.941 59.9542C366.568 59.9506 367.022 60.4371 367.022 61.0355C367.022 61.6446 366.55 62.1348 365.92 62.1384C365.277 62.1348 364.813 61.623 364.809 61.0427Z" fill="#001A5B"/>
<path d="M370.49 62.8016C371.571 62.8016 372.374 62.1637 372.371 61.295C372.374 60.6354 371.96 60.1561 371.247 60.0551V60.0191C371.809 59.8785 372.177 59.4532 372.169 58.8584C372.177 58.0871 371.531 57.4384 370.504 57.4384C369.531 57.4384 368.745 58.015 368.724 58.8657H369.487C369.505 58.3935 369.975 58.1016 370.497 58.1016C371.048 58.1016 371.405 58.4259 371.405 58.9017C371.405 59.4027 370.991 59.7343 370.396 59.7307H369.949V60.3795H370.396C371.142 60.3831 371.571 60.7507 371.571 61.2662C371.571 61.7744 371.113 62.1168 370.482 62.1168C369.898 62.1168 369.445 61.8248 369.415 61.3671H368.608C368.641 62.2213 369.409 62.8016 370.49 62.8016Z" fill="#001A5B"/>
<path d="M375.01 62.7296C376.599 62.7296 377.515 61.742 377.518 60.1128C377.515 58.4873 376.599 57.5105 375.06 57.5105H373.315V62.7296H375.01ZM374.108 62.0376V58.2025H375.01C376.148 58.2025 376.732 58.8837 376.732 60.1128C376.732 61.3455 376.148 62.0339 374.966 62.0376H374.108Z" fill="#001A5B"/>
<path d="M439.748 62.8017C440.869 62.8088 441.615 62.0339 441.615 61.021C441.615 60.0227 440.865 59.309 439.935 59.3054C439.369 59.309 438.879 59.5685 438.595 60.0119H438.536C438.536 58.8333 439.005 58.134 439.813 58.1304C440.339 58.134 440.674 58.4404 440.779 58.8657H441.564C441.441 58.0367 440.775 57.4384 439.813 57.4384C438.562 57.4384 437.776 58.4764 437.773 60.293C437.773 62.2213 438.782 62.7944 439.748 62.8017ZM438.631 61.0427C438.637 60.4624 439.124 59.9506 439.762 59.9542C440.389 59.9506 440.844 60.4371 440.844 61.0355C440.844 61.6446 440.371 62.1348 439.74 62.1384C439.099 62.1348 438.634 61.623 438.631 61.0427Z" fill="#001A5B"/>
<path d="M444.346 62.8017C445.468 62.8088 446.214 62.0339 446.214 61.021C446.214 60.0227 445.464 59.309 444.534 59.3054C443.968 59.309 443.478 59.5685 443.193 60.0119H443.136C443.136 58.8333 443.604 58.134 444.411 58.1304C444.938 58.134 445.273 58.4404 445.377 58.8657H446.163C446.041 58.0367 445.374 57.4384 444.411 57.4384C443.16 57.4384 442.375 58.4764 442.371 60.293C442.371 62.2213 443.381 62.7944 444.346 62.8017ZM443.229 61.0427C443.237 60.4624 443.723 59.9506 444.361 59.9542C444.989 59.9506 445.442 60.4371 445.442 61.0355C445.442 61.6446 444.971 62.1348 444.34 62.1384C443.698 62.1348 443.233 61.623 443.229 61.0427Z" fill="#001A5B"/>
<path d="M448.823 62.7296C450.413 62.7296 451.329 61.742 451.332 60.1128C451.329 58.4873 450.413 57.5105 448.874 57.5105H447.129V62.7296H448.823ZM447.923 62.0376V58.2025H448.823C449.962 58.2025 450.546 58.8837 450.546 60.1128C450.546 61.3455 449.962 62.0339 448.78 62.0376H447.923Z" fill="#001A5B"/>
<path d="M513.565 62.8017C514.686 62.8089 515.432 62.034 515.432 61.0211C515.432 60.0227 514.682 59.3091 513.752 59.3054C513.186 59.3091 512.697 59.5686 512.412 60.0119H512.354C512.354 58.8333 512.823 58.134 513.63 58.1304C514.157 58.134 514.491 58.4404 514.596 58.8657H515.382C515.259 58.0367 514.592 57.4384 513.63 57.4384C512.379 57.4384 511.593 58.4765 511.59 60.293C511.59 62.2214 512.599 62.7945 513.565 62.8017ZM512.448 61.0428C512.455 60.4624 512.942 59.9506 513.579 59.9542C514.206 59.9506 514.661 60.4372 514.661 61.0356C514.661 61.6447 514.188 62.1349 513.558 62.1385C512.916 62.1349 512.451 61.6231 512.448 61.0428Z" fill="#001A5B"/>
<path d="M518.07 57.4384C516.935 57.4312 516.196 58.2098 516.196 59.2047C516.196 60.203 516.946 60.9203 517.883 60.9203C518.445 60.9203 518.936 60.6536 519.217 60.2138H519.282C519.274 61.4069 518.802 62.1062 517.998 62.1097C517.473 62.1062 517.133 61.7997 517.026 61.36H516.24C516.365 62.2071 517.036 62.8018 517.998 62.8018C519.249 62.8018 520.038 61.7637 520.038 59.9327C520.035 58.0223 519.029 57.4457 518.07 57.4384ZM516.967 59.1902C516.964 58.5919 517.44 58.1017 518.07 58.1017C518.709 58.1017 519.174 58.6171 519.174 59.183C519.174 59.7597 518.687 60.2751 518.056 60.2715C517.422 60.2751 516.971 59.7958 516.967 59.1902Z" fill="#001A5B"/>
<path d="M522.64 62.7296C524.23 62.7296 525.146 61.742 525.149 60.1129C525.146 58.4873 524.23 57.5105 522.691 57.5105H520.947V62.7296H522.64ZM521.74 62.0376V58.2026H522.64C523.78 58.2026 524.364 58.8837 524.364 60.1129C524.364 61.3456 523.78 62.034 522.598 62.0376H521.74Z" fill="#001A5B"/>
<path fill-rule="evenodd" clip-rule="evenodd" d="M38.1389 40.0133V12.5232H38.9591V40.0133H38.1389Z" fill="#979797"/>
<path fill-rule="evenodd" clip-rule="evenodd" d="M185.774 40.0133V12.5232H186.594V40.0133H185.774Z" fill="#979797"/>
<path fill-rule="evenodd" clip-rule="evenodd" d="M259.591 40.0133V12.5232H260.411V40.0133H259.591Z" fill="#979797"/>
<path fill-rule="evenodd" clip-rule="evenodd" d="M321.106 40.0133V12.5232H321.926V40.0133H321.106Z" fill="#979797"/>
<path fill-rule="evenodd" clip-rule="evenodd" d="M345.712 40.0133V12.5232H346.532V40.0133H345.712Z" fill="#979797"/>
<path fill-rule="evenodd" clip-rule="evenodd" d="M394.923 40.0133V12.5232H395.744V40.0133H394.923Z" fill="#979797"/>
<path fill-rule="evenodd" clip-rule="evenodd" d="M419.529 40.0133V12.5232H420.349V40.0133H419.529Z" fill="#979797"/>
<path fill-rule="evenodd" clip-rule="evenodd" d="M468.741 40.0133V12.5232H469.561V40.0133H468.741Z" fill="#979797"/>
<path fill-rule="evenodd" clip-rule="evenodd" d="M493.346 40.0133V12.5232H494.167V40.0133H493.346Z" fill="#979797"/>
<path fill-rule="evenodd" clip-rule="evenodd" d="M542.558 40.0133V12.5232H543.378V40.0133H542.558Z" fill="#979797"/>
<path fill-rule="evenodd" clip-rule="evenodd" d="M567.164 40.0133V12.5232H567.984V40.0133H567.164Z" fill="#979797"/>
<path d="M296.91 15.9041H223.093V35.5887H296.91V15.9041Z" fill="#E2E6F6"/>
<path d="M223.093 15.9041H149.275V35.5887H223.093V15.9041Z" fill="#5B6EB4"/>
<path d="M149.275 15.9041H75.4578V35.5887H149.275V15.9041Z" fill="#113287"/>
<path d="M75.4579 15.9041H9.02222V35.5887H75.4579V15.9041Z" fill="#001A5B"/>
<path fill-rule="evenodd" clip-rule="evenodd" d="M148.865 52.4924V3.58518e-08L149.685 0V52.4924H148.865Z" fill="#979797"/>
<path fill-rule="evenodd" clip-rule="evenodd" d="M222.683 52.4924V3.58518e-08L223.503 0V52.4924H222.683Z" fill="#979797"/>
<path fill-rule="evenodd" clip-rule="evenodd" d="M75.0476 52.4924V3.58518e-08L75.8678 0V52.4924H75.0476Z" fill="#979797"/>
<path d="M518.362 15.9041H444.545V35.5887H518.362V15.9041Z" fill="#113287"/>
<path d="M444.545 15.9041H370.728V35.5887H444.545V15.9041Z" fill="#5B6EB4"/>
<path d="M370.728 15.9041H296.91V35.5887H370.728V15.9041Z" fill="#E2E6F6"/>
<path fill-rule="evenodd" clip-rule="evenodd" d="M295.68 52.4924V7.17035e-08L297.32 0V52.4924H295.68Z" fill="#113287"/>
<path fill-rule="evenodd" clip-rule="evenodd" d="M271.343 63.1689L268.733 60.559C268.573 60.3989 268.573 60.1393 268.733 59.9791L271.343 57.3692C271.504 57.2091 271.763 57.2091 271.924 57.3692C272.084 57.5294 272.084 57.7891 271.924 57.9492L270.014 59.859H284.607V60.6792H270.014L271.924 62.5889C272.084 62.7491 272.084 63.0087 271.924 63.1689C271.763 63.3291 271.504 63.3291 271.343 63.1689Z" fill="#113287"/>
<path fill-rule="evenodd" clip-rule="evenodd" d="M322.477 57.3692L325.087 59.979C325.247 60.1391 325.247 60.3988 325.087 60.559L322.477 63.1688C322.316 63.3289 322.057 63.3289 321.896 63.1688C321.736 63.0086 321.736 62.749 321.896 62.5888L323.807 60.6791H309.213V59.8589H323.807L321.896 57.9491C321.736 57.7889 321.736 57.5293 321.896 57.3692C322.057 57.209 322.316 57.209 322.477 57.3692Z" fill="#113287"/>
<path d="M586.812 15.9041H563.184V35.5887H586.812L593 25.7464L586.812 15.9041Z" fill="#001A5B"/>
<path d="M518.363 15.9041H583.978V35.5887H518.363V15.9041Z" fill="#001A5B"/>
<path fill-rule="evenodd" clip-rule="evenodd" d="M370.317 52.4924V3.58518e-08L371.138 0V52.4924H370.317Z" fill="#979797"/>
<path fill-rule="evenodd" clip-rule="evenodd" d="M444.135 52.4924V3.58518e-08L444.955 0V52.4924H444.135Z" fill="#979797"/>
<path fill-rule="evenodd" clip-rule="evenodd" d="M517.952 52.4924V3.58518e-08L518.772 0V52.4924H517.952Z" fill="#979797"/>
<path d="M245.984 22.5121V26.7573H245.224V25.8842H243.413V25.2595H245.224V24.3864H243.489C243.025 25.5398 241.948 26.3528 240.394 26.7973L240.089 26.2046C241.787 25.72 242.781 24.8069 242.917 23.6495H240.458V23.0248H243.742C243.742 23.2891 243.714 23.5454 243.666 23.7857H245.224V22.5121H245.984ZM241.203 28.2391C241.203 27.37 242.148 26.8414 243.622 26.8374C245.075 26.8414 246.029 27.37 246.033 28.2391C246.029 29.1121 245.075 29.6488 243.622 29.6488C242.148 29.6488 241.203 29.1121 241.203 28.2391ZM241.956 28.2391C241.956 28.7437 242.596 29.036 243.622 29.04C244.627 29.036 245.268 28.7437 245.272 28.2391C245.268 27.7265 244.627 27.4341 243.622 27.4381C242.596 27.4341 241.956 27.7265 241.956 28.2391ZM252.905 25.8121V26.4209H250.734V28.175H253.658V28.7998H247.09V28.175H249.981V26.4209H247.907V23.0568H252.841V23.6735H248.668V25.8121H252.905ZM258.424 23.1209C259.489 23.1289 260.606 23.7697 260.61 25.8922C260.61 27.9267 259.733 29.0801 258.343 29.0801C257.274 29.0801 256.529 28.4193 256.389 27.4782H257.262C257.382 27.9667 257.759 28.3072 258.343 28.3112C259.237 28.3072 259.761 27.5302 259.769 26.2046H259.697C259.385 26.6932 258.84 26.9896 258.215 26.9896C257.174 26.9896 256.341 26.1926 256.341 25.0833C256.341 23.9779 257.162 23.1129 258.424 23.1209ZM257.198 25.0672C257.202 25.7401 257.703 26.2727 258.408 26.2687C259.108 26.2727 259.649 25.7 259.649 25.0592C259.649 24.4305 259.132 23.8578 258.424 23.8578C257.723 23.8578 257.194 24.4024 257.198 25.0672ZM263.566 29.0801C262.304 29.0801 261.427 28.3993 261.435 27.4541C261.427 26.7092 261.96 26.1005 262.645 25.9964V25.9643C262.048 25.8282 261.651 25.2995 261.651 24.6668C261.651 23.7737 262.456 23.1209 263.566 23.1209C264.659 23.1209 265.468 23.7737 265.472 24.6668C265.468 25.2995 265.064 25.8282 264.479 25.9643V25.9964C265.156 26.1005 265.692 26.7092 265.696 27.4541C265.692 28.3993 264.807 29.0801 263.566 29.0801ZM262.332 27.39C262.32 27.9587 262.801 28.3512 263.566 28.3512C264.319 28.3512 264.799 27.9587 264.799 27.39C264.799 26.7933 264.279 26.3568 263.566 26.3568C262.845 26.3568 262.32 26.7933 262.332 27.39ZM262.509 24.7468C262.513 25.2875 262.945 25.664 263.566 25.66C264.171 25.664 264.611 25.2915 264.607 24.7468C264.611 24.2062 264.187 23.8377 263.566 23.8418C262.929 23.8377 262.513 24.2062 262.509 24.7468ZM267.002 29.0561C266.69 29.0521 266.429 28.7998 266.433 28.4874C266.429 28.175 266.69 27.9187 267.002 27.9187C267.31 27.9187 267.567 28.175 267.571 28.4874C267.567 28.7998 267.31 29.0521 267.002 29.0561ZM270.398 29.0801C269.056 29.0801 268.267 27.9988 268.267 26.1005C268.267 24.2142 269.064 23.1209 270.398 23.1209C271.728 23.1209 272.525 24.2142 272.529 26.1005C272.525 27.9988 271.74 29.0801 270.398 29.0801ZM269.149 26.1005C269.145 27.5462 269.613 28.3192 270.398 28.3192C271.179 28.3192 271.648 27.5462 271.648 26.1005C271.648 24.6587 271.175 23.8698 270.398 23.8658C269.617 23.8698 269.149 24.6587 269.149 26.1005ZM274.771 25.9563C273.978 25.9643 273.546 25.3756 273.554 24.5146C273.546 23.6655 273.998 23.0768 274.771 23.0808C275.568 23.0768 275.985 23.6655 275.989 24.5146C275.985 25.3796 275.552 25.9643 274.771 25.9563ZM274.211 29L278.191 23.201H278.92L274.94 29H274.211ZM274.211 24.5146C274.215 25.0472 274.399 25.3916 274.771 25.3956C275.148 25.3916 275.324 25.0472 275.324 24.5146C275.324 23.9939 275.16 23.6375 274.771 23.6415C274.399 23.6495 274.215 23.9979 274.211 24.5146ZM277.214 27.6784C277.21 26.8214 277.659 26.2326 278.432 26.2367C279.225 26.2326 279.645 26.8214 279.649 27.6784C279.645 28.5354 279.213 29.1201 278.432 29.1201C277.643 29.1201 277.21 28.5314 277.214 27.6784ZM277.871 27.6784C277.875 28.203 278.059 28.5515 278.432 28.5515C278.808 28.5515 278.984 28.203 278.984 27.6784C278.984 27.1498 278.82 26.7973 278.432 26.7973C278.063 26.8053 277.875 27.1538 277.871 27.6784Z" fill="#113287"/>
<path d="M176.032 25.8282V26.4449H173.132V27.1337C174.446 27.2058 175.227 27.6464 175.231 28.3993C175.227 29.2123 174.297 29.6688 172.756 29.6648C171.194 29.6688 170.265 29.2123 170.265 28.3993C170.265 27.6464 171.045 27.2018 172.379 27.1337V26.4449H169.488V25.8282H176.032ZM169.832 24.851C171.122 24.7188 172.139 24.1341 172.243 23.4413H170.088V22.8325H175.447V23.4413H173.268C173.372 24.1381 174.382 24.7188 175.695 24.851L175.423 25.4517C174.177 25.3075 173.148 24.7829 172.76 24.022C172.363 24.7829 171.342 25.3075 170.096 25.4517L169.832 24.851ZM171.033 28.3993C171.029 28.8358 171.658 29.0881 172.756 29.0801C173.837 29.0881 174.47 28.8358 174.47 28.3993C174.47 27.9547 173.837 27.7144 172.756 27.7104C171.658 27.7144 171.029 27.9547 171.033 28.3993ZM182.391 25.8121V26.4209H180.221V28.175H183.144V28.7998H176.576V28.175H179.468V26.4209H177.393V23.0568H182.327V23.6735H178.154V25.8121H182.391ZM188.118 23.201V29H187.229V24.082H187.197L185.811 24.9871V24.1461L187.253 23.201H188.118ZM189.832 29.0561C189.52 29.0521 189.26 28.7998 189.264 28.4874C189.26 28.175 189.52 27.9187 189.832 27.9187C190.141 27.9187 190.397 28.175 190.401 28.4874C190.397 28.7998 190.141 29.0521 189.832 29.0561ZM193.308 29.0801C192.235 29.0721 191.114 28.4353 191.114 26.2927C191.118 24.2743 191.991 23.1209 193.381 23.1209C194.45 23.1209 195.191 23.7857 195.327 24.7068H194.454C194.338 24.2342 193.965 23.8938 193.381 23.8898C192.483 23.8938 191.963 24.6708 191.963 25.9803H192.027C192.343 25.4877 192.888 25.1994 193.517 25.1954C194.55 25.1994 195.383 25.9924 195.383 27.1017C195.383 28.2271 194.554 29.0881 193.308 29.0801ZM192.067 27.1257C192.071 27.7705 192.588 28.3392 193.3 28.3432C194.001 28.3392 194.526 27.7945 194.526 27.1177C194.526 26.4529 194.021 25.9123 193.324 25.9163C192.616 25.9123 192.075 26.4809 192.067 27.1257ZM197.65 25.9563C196.857 25.9643 196.424 25.3756 196.432 24.5146C196.424 23.6655 196.877 23.0768 197.65 23.0808C198.447 23.0768 198.863 23.6655 198.867 24.5146C198.863 25.3796 198.431 25.9643 197.65 25.9563ZM197.089 29L201.07 23.201H201.799L197.818 29H197.089ZM197.089 24.5146C197.093 25.0472 197.277 25.3916 197.65 25.3956C198.026 25.3916 198.202 25.0472 198.202 24.5146C198.202 23.9939 198.038 23.6375 197.65 23.6415C197.277 23.6495 197.093 23.9979 197.089 24.5146ZM200.093 27.6784C200.089 26.8214 200.537 26.2326 201.31 26.2367C202.103 26.2326 202.524 26.8214 202.528 27.6784C202.524 28.5354 202.091 29.1201 201.31 29.1201C200.521 29.1201 200.089 28.5314 200.093 27.6784ZM200.749 27.6784C200.753 28.203 200.938 28.5515 201.31 28.5515C201.687 28.5515 201.863 28.203 201.863 27.6784C201.863 27.1498 201.699 26.7973 201.31 26.7973C200.942 26.8053 200.753 27.1538 200.749 27.6784Z" fill="white"/>
<path d="M100.572 23.193V23.8978C100.568 24.7829 100.568 25.7761 100.3 27.2459L99.5309 27.1658C99.8072 25.7761 99.8072 24.7589 99.8112 23.8978V23.8097H95.454V23.193H100.572ZM94.7651 28.7117V28.0789H97.2561V25.5478H98.0091V28.0789H101.309V28.7117H94.7651ZM107.669 25.8121V26.4209H105.498V28.175H108.422V28.7998H101.854V28.175H104.745V26.4209H102.671V23.0568H107.605V23.6735H103.432V25.8121H107.669ZM113.211 29.0801C111.87 29.0801 111.081 27.9988 111.081 26.1005C111.081 24.2142 111.878 23.1209 113.211 23.1209C114.541 23.1209 115.338 24.2142 115.342 26.1005C115.338 27.9988 114.553 29.0801 113.211 29.0801ZM111.962 26.1005C111.958 27.5462 112.427 28.3192 113.211 28.3192C113.992 28.3192 114.461 27.5462 114.461 26.1005C114.461 24.6587 113.988 23.8698 113.211 23.8658C112.431 23.8698 111.962 24.6587 111.962 26.1005ZM116.608 29.0561C116.295 29.0521 116.035 28.7998 116.039 28.4874C116.035 28.175 116.295 27.9187 116.608 27.9187C116.916 27.9187 117.172 28.175 117.176 28.4874C117.172 28.7998 116.916 29.0521 116.608 29.0561ZM118.073 27.8706V27.1578L120.636 23.201H121.726V27.1257H122.519V27.8706H121.726V29H120.893V27.8706H118.073ZM119.002 27.1257H120.893V24.2502H120.829L119.002 27.0777V27.1257ZM124.737 25.9563C123.944 25.9643 123.512 25.3756 123.52 24.5146C123.512 23.6655 123.965 23.0768 124.737 23.0808C125.534 23.0768 125.951 23.6655 125.955 24.5146C125.951 25.3796 125.518 25.9643 124.737 25.9563ZM124.177 29L128.158 23.201H128.886L124.906 29H124.177ZM124.177 24.5146C124.181 25.0472 124.365 25.3916 124.737 25.3956C125.114 25.3916 125.29 25.0472 125.29 24.5146C125.29 23.9939 125.126 23.6375 124.737 23.6415C124.365 23.6495 124.181 23.9979 124.177 24.5146ZM127.18 27.6784C127.176 26.8214 127.625 26.2326 128.398 26.2367C129.191 26.2326 129.611 26.8214 129.615 27.6784C129.611 28.5354 129.179 29.1201 128.398 29.1201C127.609 29.1201 127.176 28.5314 127.18 27.6784ZM127.837 27.6784C127.841 28.203 128.025 28.5515 128.398 28.5515C128.774 28.5515 128.951 28.203 128.951 27.6784C128.951 27.1498 128.786 26.7973 128.398 26.7973C128.029 26.8053 127.841 27.1538 127.837 27.6784Z" fill="white"/>
<path d="M17.5903 28.175V28.7998H11.0223V28.175H13.9218V26.6131H14.6747V28.175H17.5903ZM11.3427 26.2687C12.8165 26.0524 13.8778 25.2194 13.9138 24.2102H11.615V23.5934H13.9218V22.6323H14.6747V23.5934H16.9815V24.2102H14.6827C14.7188 25.2194 15.7801 26.0524 17.2539 26.2687L16.9655 26.8614C15.7641 26.6732 14.7628 26.1045 14.2943 25.2675C13.8297 26.1045 12.8325 26.6732 11.631 26.8614L11.3427 26.2687ZM23.9179 23.193V23.8978C23.9139 24.7829 23.9139 25.7761 23.6456 27.2459L22.8767 27.1658C23.153 25.7761 23.153 24.7589 23.157 23.8978V23.8097H18.7997V23.193H23.9179ZM18.1109 28.7117V28.0789H20.6019V25.5478H21.3548V28.0789H24.6548V28.7117H18.1109ZM31.0145 25.8121V26.4209H28.8439V28.175H31.7674V28.7998H25.1995V28.175H28.091V26.4209H26.0165V23.0568H30.9505V23.6735H26.7774V25.8121H31.0145ZM36.5572 29.0801C35.2156 29.0801 34.4267 27.9988 34.4267 26.1005C34.4267 24.2142 35.2236 23.1209 36.5572 23.1209C37.8869 23.1209 38.6838 24.2142 38.6878 26.1005C38.6838 27.9988 37.8989 29.0801 36.5572 29.0801ZM35.3077 26.1005C35.3037 27.5462 35.7723 28.3192 36.5572 28.3192C37.3382 28.3192 37.8068 27.5462 37.8068 26.1005C37.8068 24.6587 37.3342 23.8698 36.5572 23.8658C35.7763 23.8698 35.3077 24.6587 35.3077 26.1005ZM39.9534 29.0561C39.641 29.0521 39.3807 28.7998 39.3847 28.4874C39.3807 28.175 39.641 27.9187 39.9534 27.9187C40.2617 27.9187 40.518 28.175 40.522 28.4874C40.518 28.7998 40.2617 29.0521 39.9534 29.0561ZM43.0451 23.201V29H42.156V24.082H42.124L40.7383 24.9871V24.1461L42.1801 23.201H43.0451ZM45.8485 25.9563C45.0555 25.9643 44.623 25.3756 44.631 24.5146C44.623 23.6655 45.0756 23.0768 45.8485 23.0808C46.6455 23.0768 47.062 23.6655 47.066 24.5146C47.062 25.3796 46.6294 25.9643 45.8485 25.9563ZM45.2878 29L49.2686 23.201H49.9975L46.0167 29H45.2878ZM45.2878 24.5146C45.2918 25.0472 45.476 25.3916 45.8485 25.3956C46.225 25.3916 46.4012 25.0472 46.4012 24.5146C46.4012 23.9939 46.237 23.6375 45.8485 23.6415C45.476 23.6495 45.2918 23.9979 45.2878 24.5146ZM48.2915 27.6784C48.2875 26.8214 48.736 26.2326 49.5089 26.2367C50.3019 26.2326 50.7224 26.8214 50.7264 27.6784C50.7224 28.5354 50.2899 29.1201 49.5089 29.1201C48.72 29.1201 48.2875 28.5314 48.2915 27.6784ZM48.9483 27.6784C48.9523 28.203 49.1365 28.5515 49.5089 28.5515C49.8854 28.5515 50.0616 28.203 50.0616 27.6784C50.0616 27.1498 49.8974 26.7973 49.5089 26.7973C49.1405 26.8053 48.9523 27.1538 48.9483 27.6784ZM55.372 23.193V27.9107H52.008V23.193H55.372ZM52.7609 27.2939H54.6351V23.7937H52.7609V27.2939ZM56.7898 29.6968V22.5041H57.5507V29.6968H56.7898ZM62.3325 23.1369V26.485H58.9764V23.1369H62.3325ZM59.7213 25.8842H61.5876V23.7536H59.7213V25.8842ZM59.7854 29.5286V27.2539H60.5463V28.9119H64.6393V29.5286H59.7854ZM63.574 27.7585V22.4961H64.3349V24.6427H65.3762V25.2835H64.3349V27.7585H63.574Z" fill="white"/>
<path d="M469.996 23.193V23.8978C469.992 24.7829 469.992 25.7761 469.723 27.2459L468.954 27.1658C469.231 25.7761 469.231 24.7589 469.235 23.8978V23.8097H464.878V23.193H469.996ZM464.189 28.7117V28.0789H466.68V25.5478H467.433V28.0789H470.733V28.7117H464.189ZM477.092 25.8121V26.4209H474.922V28.175H477.845V28.7998H471.277V28.175H474.169V26.4209H472.094V23.0568H477.028V23.6735H472.855V25.8121H477.092ZM482.675 29.0801C481.474 29.0801 480.621 28.4353 480.585 27.4862H481.482C481.514 27.9948 482.018 28.3192 482.667 28.3192C483.368 28.3192 483.877 27.9387 483.877 27.374C483.877 26.8013 483.4 26.3928 482.571 26.3888H482.074V25.668H482.571C483.232 25.672 483.692 25.3035 483.692 24.7468C483.692 24.2182 483.296 23.8578 482.683 23.8578C482.102 23.8578 481.582 24.1822 481.562 24.7068H480.713C480.737 23.7617 481.61 23.1209 482.691 23.1209C483.832 23.1209 484.549 23.8418 484.541 24.6988C484.549 25.3596 484.141 25.8322 483.516 25.9884V26.0284C484.309 26.1405 484.77 26.6732 484.766 27.4061C484.77 28.3712 483.877 29.0801 482.675 29.0801ZM486.127 29.0561C485.815 29.0521 485.555 28.7998 485.559 28.4874C485.555 28.175 485.815 27.9187 486.127 27.9187C486.436 27.9187 486.692 28.175 486.696 28.4874C486.692 28.7998 486.436 29.0521 486.127 29.0561ZM487.769 29L490.356 24.0019V23.9539H487.369V23.201H491.27V23.9859L488.69 29H487.769ZM493.488 25.9563C492.695 25.9643 492.263 25.3756 492.271 24.5146C492.263 23.6655 492.715 23.0768 493.488 23.0808C494.285 23.0768 494.702 23.6655 494.706 24.5146C494.702 25.3796 494.269 25.9643 493.488 25.9563ZM492.928 29L496.908 23.201H497.637L493.656 29H492.928ZM492.928 24.5146C492.932 25.0472 493.116 25.3916 493.488 25.3956C493.865 25.3916 494.041 25.0472 494.041 24.5146C494.041 23.9939 493.877 23.6375 493.488 23.6415C493.116 23.6495 492.932 23.9979 492.928 24.5146ZM495.931 27.6784C495.927 26.8214 496.376 26.2326 497.149 26.2367C497.942 26.2326 498.362 26.8214 498.366 27.6784C498.362 28.5354 497.93 29.1201 497.149 29.1201C496.36 29.1201 495.927 28.5314 495.931 27.6784ZM496.588 27.6784C496.592 28.203 496.776 28.5515 497.149 28.5515C497.525 28.5515 497.701 28.203 497.701 27.6784C497.701 27.1498 497.537 26.7973 497.149 26.7973C496.78 26.8053 496.592 27.1538 496.588 27.6784Z" fill="white"/>
<path d="M394.945 25.8282V26.4449H392.045V27.1337C393.359 27.2058 394.14 27.6464 394.144 28.3993C394.14 29.2123 393.211 29.6688 391.669 29.6648C390.107 29.6688 389.178 29.2123 389.178 28.3993C389.178 27.6464 389.959 27.2018 391.292 27.1337V26.4449H388.401V25.8282H394.945ZM388.745 24.851C390.035 24.7188 391.052 24.1341 391.156 23.4413H389.002V22.8325H394.36V23.4413H392.182C392.286 24.1381 393.295 24.7188 394.608 24.851L394.336 25.4517C393.091 25.3075 392.061 24.7829 391.673 24.022C391.276 24.7829 390.255 25.3075 389.01 25.4517L388.745 24.851ZM389.947 28.3993C389.943 28.8358 390.572 29.0881 391.669 29.0801C392.75 29.0881 393.383 28.8358 393.383 28.3993C393.383 27.9547 392.75 27.7144 391.669 27.7104C390.572 27.7144 389.943 27.9547 389.947 28.3993ZM401.305 25.8121V26.4209H399.134V28.175H402.057V28.7998H395.49V28.175H398.381V26.4209H396.307V23.0568H401.24V23.6735H397.067V25.8121H401.305ZM407.031 23.201V29H406.142V24.082H406.11L404.725 24.9871V24.1461L406.166 23.201H407.031ZM410.476 29.0801C409.378 29.0801 408.553 28.4113 408.513 27.4862H409.37C409.418 27.9788 409.891 28.3392 410.476 28.3432C411.181 28.3392 411.685 27.8306 411.685 27.1417C411.685 26.4369 411.165 25.9243 410.436 25.9163C409.971 25.9163 409.615 26.0725 409.418 26.4289H408.585L408.962 23.201H412.246V23.9539H409.691L409.498 25.5799H409.555C409.795 25.3476 410.203 25.1914 410.644 25.1874C411.737 25.1914 412.542 26.0004 412.542 27.1177C412.542 28.2591 411.685 29.0801 410.476 29.0801ZM413.84 29.0561C413.527 29.0521 413.267 28.7998 413.271 28.4874C413.267 28.175 413.527 27.9187 413.84 27.9187C414.148 27.9187 414.404 28.175 414.408 28.4874C414.404 28.7998 414.148 29.0521 413.84 29.0561ZM415.434 29V28.3592L417.444 26.3328C418.081 25.672 418.397 25.3035 418.397 24.7949C418.397 24.2222 417.933 23.8578 417.324 23.8578C416.679 23.8578 416.271 24.2663 416.267 24.883H415.434C415.426 23.8217 416.235 23.1209 417.34 23.1209C418.457 23.1209 419.23 23.8297 419.238 24.7709C419.23 25.4197 418.926 25.9363 417.837 27.0056L416.659 28.199V28.2471H419.334V29H415.434ZM421.641 25.9563C420.848 25.9643 420.416 25.3756 420.424 24.5146C420.416 23.6655 420.868 23.0768 421.641 23.0808C422.438 23.0768 422.855 23.6655 422.859 24.5146C422.855 25.3796 422.422 25.9643 421.641 25.9563ZM421.081 29L425.061 23.201H425.79L421.809 29H421.081ZM421.081 24.5146C421.085 25.0472 421.269 25.3916 421.641 25.3956C422.018 25.3916 422.194 25.0472 422.194 24.5146C422.194 23.9939 422.03 23.6375 421.641 23.6415C421.269 23.6495 421.085 23.9979 421.081 24.5146ZM424.084 27.6784C424.08 26.8214 424.529 26.2326 425.302 26.2367C426.095 26.2326 426.515 26.8214 426.519 27.6784C426.515 28.5354 426.083 29.1201 425.302 29.1201C424.513 29.1201 424.08 28.5314 424.084 27.6784ZM424.741 27.6784C424.745 28.203 424.929 28.5515 425.302 28.5515C425.678 28.5515 425.854 28.203 425.854 27.6784C425.854 27.1498 425.69 26.7973 425.302 26.7973C424.933 26.8053 424.745 27.1538 424.741 27.6784Z" fill="white"/>
<path d="M320.783 22.5121V26.7573H320.022V25.8842H318.212V25.2595H320.022V24.3864H318.288C317.823 25.5398 316.746 26.3528 315.192 26.7973L314.888 26.2046C316.586 25.72 317.579 24.8069 317.715 23.6495H315.256V23.0248H318.54C318.54 23.2891 318.512 23.5454 318.464 23.7857H320.022V22.5121H320.783ZM316.001 28.2391C316.001 27.37 316.946 26.8414 318.42 26.8374C319.874 26.8414 320.827 27.37 320.831 28.2391C320.827 29.1121 319.874 29.6488 318.42 29.6488C316.946 29.6488 316.001 29.1121 316.001 28.2391ZM316.754 28.2391C316.754 28.7437 317.395 29.036 318.42 29.04C319.425 29.036 320.066 28.7437 320.07 28.2391C320.066 27.7265 319.425 27.4341 318.42 27.4381C317.395 27.4341 316.754 27.7265 316.754 28.2391ZM327.703 25.8121V26.4209H325.533V28.175H328.456V28.7998H321.888V28.175H324.78V26.4209H322.705V23.0568H327.639V23.6735H323.466V25.8121H327.703ZM333.254 29.0801C331.993 29.0801 331.116 28.3993 331.124 27.4541C331.116 26.7092 331.648 26.1005 332.333 25.9964V25.9643C331.736 25.8282 331.34 25.2995 331.34 24.6668C331.34 23.7737 332.145 23.1209 333.254 23.1209C334.347 23.1209 335.156 23.7737 335.16 24.6668C335.156 25.2995 334.752 25.8282 334.167 25.9643V25.9964C334.844 26.1005 335.381 26.7092 335.385 27.4541C335.381 28.3993 334.496 29.0801 333.254 29.0801ZM332.021 27.39C332.009 27.9587 332.489 28.3512 333.254 28.3512C334.007 28.3512 334.488 27.9587 334.488 27.39C334.488 26.7933 333.967 26.3568 333.254 26.3568C332.533 26.3568 332.009 26.7933 332.021 27.39ZM332.197 24.7468C332.201 25.2875 332.633 25.664 333.254 25.66C333.859 25.664 334.299 25.2915 334.295 24.7468C334.299 24.2062 333.875 23.8377 333.254 23.8418C332.617 23.8377 332.201 24.2062 332.197 24.7468ZM338.316 29.0801C336.975 29.0801 336.186 27.9988 336.186 26.1005C336.186 24.2142 336.983 23.1209 338.316 23.1209C339.646 23.1209 340.443 24.2142 340.447 26.1005C340.443 27.9988 339.658 29.0801 338.316 29.0801ZM337.067 26.1005C337.063 27.5462 337.531 28.3192 338.316 28.3192C339.097 28.3192 339.566 27.5462 339.566 26.1005C339.566 24.6587 339.093 23.8698 338.316 23.8658C337.535 23.8698 337.067 24.6587 337.067 26.1005ZM341.712 29.0561C341.4 29.0521 341.14 28.7998 341.144 28.4874C341.14 28.175 341.4 27.9187 341.712 27.9187C342.021 27.9187 342.277 28.175 342.281 28.4874C342.277 28.7998 342.021 29.0521 341.712 29.0561ZM344.804 23.201V29H343.915V24.082H343.883L342.497 24.9871V24.1461L343.939 23.201H344.804ZM347.608 25.9563C346.815 25.9643 346.382 25.3756 346.39 24.5146C346.382 23.6655 346.835 23.0768 347.608 23.0808C348.405 23.0768 348.821 23.6655 348.825 24.5146C348.821 25.3796 348.388 25.9643 347.608 25.9563ZM347.047 29L351.028 23.201H351.757L347.776 29H347.047ZM347.047 24.5146C347.051 25.0472 347.235 25.3916 347.608 25.3956C347.984 25.3916 348.16 25.0472 348.16 24.5146C348.16 23.9939 347.996 23.6375 347.608 23.6415C347.235 23.6495 347.051 23.9979 347.047 24.5146ZM350.051 27.6784C350.047 26.8214 350.495 26.2326 351.268 26.2367C352.061 26.2326 352.481 26.8214 352.485 27.6784C352.481 28.5354 352.049 29.1201 351.268 29.1201C350.479 29.1201 350.047 28.5314 350.051 27.6784ZM350.707 27.6784C350.711 28.203 350.896 28.5515 351.268 28.5515C351.644 28.5515 351.821 28.203 351.821 27.6784C351.821 27.1498 351.656 26.7973 351.268 26.7973C350.9 26.8053 350.711 27.1538 350.707 27.6784Z" fill="#113287"/>
<path d="M542.56 28.2539V28.8786H535.992V28.2539H538.891V26.692H539.644V28.2539H542.56ZM536.312 26.3475C537.786 26.1313 538.847 25.2983 538.883 24.2891H536.584V23.6723H538.891V22.7111H539.644V23.6723H541.951V24.2891H539.652C539.688 25.2983 540.749 26.1313 542.223 26.3475L541.935 26.9403C540.733 26.752 539.732 26.1833 539.264 25.3463C538.799 26.1833 537.802 26.752 536.6 26.9403L536.312 26.3475ZM548.887 23.2718V23.9767C548.883 24.8617 548.883 25.855 548.615 27.3247L547.846 27.2446C548.122 25.855 548.122 24.8377 548.126 23.9767V23.8886H543.769V23.2718H548.887ZM543.08 28.7905V28.1577H545.571V25.6267H546.324V28.1577H549.624V28.7905H543.08ZM555.984 25.891V26.4997H553.813V28.2539H556.737V28.8786H550.169V28.2539H553.06V26.4997H550.986V23.1357H555.92V23.7524H551.747V25.891H555.984ZM561.711 23.2798V29.0789H560.822V24.1609H560.79L559.404 25.066V24.225L560.846 23.2798H561.711ZM563.425 29.1349C563.113 29.1309 562.852 28.8786 562.856 28.5662C562.852 28.2539 563.113 27.9975 563.425 27.9975C563.733 27.9975 563.99 28.2539 563.994 28.5662C563.99 28.8786 563.733 29.1309 563.425 29.1349ZM566.517 23.2798V29.0789H565.628V24.1609H565.596L564.21 25.066V24.225L565.652 23.2798H566.517ZM569.32 26.0352C568.527 26.0432 568.095 25.4545 568.103 24.5934C568.095 23.7444 568.547 23.1557 569.32 23.1597C570.117 23.1557 570.534 23.7444 570.538 24.5934C570.534 25.4585 570.101 26.0432 569.32 26.0352ZM568.759 29.0789L572.74 23.2798H573.469L569.488 29.0789H568.759ZM568.759 24.5934C568.763 25.1261 568.948 25.4705 569.32 25.4745C569.697 25.4705 569.873 25.1261 569.873 24.5934C569.873 24.0728 569.709 23.7164 569.32 23.7204C568.948 23.7284 568.763 24.0768 568.759 24.5934ZM571.763 27.7573C571.759 26.9002 572.208 26.3115 572.981 26.3155C573.773 26.3115 574.194 26.9002 574.198 27.7573C574.194 28.6143 573.761 29.199 572.981 29.199C572.192 29.199 571.759 28.6103 571.763 27.7573ZM572.42 27.7573C572.424 28.2819 572.608 28.6303 572.981 28.6303C573.357 28.6303 573.533 28.2819 573.533 27.7573C573.533 27.2286 573.369 26.8762 572.981 26.8762C572.612 26.8842 572.424 27.2326 572.42 27.7573Z" fill="white"/>
</svg>
