<?xml version="1.0" encoding="UTF-8"?>
<svg width="593px" height="88px" viewBox="0 0 593 88" version="1.1" xmlns="http://www.w3.org/2000/svg" xmlns:xlink="http://www.w3.org/1999/xlink">
    <title>Artboard</title>
    <g id="Artboard" stroke="none" stroke-width="1" fill="none" fill-rule="evenodd">
        <g id="totalSeverityBaby" transform="translate(0.000000, 9.000000)">
            <polygon id="Path" fill="#979797" points="111.956432 40.0133107 111.956432 12.5232086 112.776625 12.5232086 112.776625 40.0133107"></polygon>
            <polygon id="Path" fill="#001A5B" fill-rule="nonzero" points="6.18831999 15.9040467 29.8161712 15.9040467 29.8161712 35.5886941 6.18831999 35.5886941 0 25.7463704"></polygon>
            <path d="M292.134109,62.8017027 C293.255314,62.8088704 294.00169,62.0339515 294.00169,61.0210943 C294.00169,60.0227546 293.252033,59.3090221 292.321934,59.3054133 C291.756,59.3090221 291.265524,59.5685314 290.980917,60.0119281 L290.923503,60.0119281 C290.923503,58.8333098 291.391834,58.1340127 292.198905,58.1304039 C292.725469,58.1340127 293.060928,58.4404371 293.165093,58.8657075 L293.950838,58.8657075 C293.828629,58.0367378 293.161812,57.4384065 292.198905,57.4384065 C290.948109,57.4384065 290.162364,58.4764436 290.159083,60.2930084 C290.159083,62.2213657 291.168741,62.794435 292.134109,62.8017027 Z M291.017006,61.0427474 C291.024387,60.4624604 291.510762,59.9506596 292.148873,59.9542485 C292.775501,59.9506596 293.229888,60.4371985 293.229888,61.0355297 C293.229888,61.6446876 292.758277,62.1348353 292.126728,62.1384441 C291.485336,62.1348353 291.020286,61.6230344 291.017006,61.0427474 Z" id="Shape" fill="#001A5B" fill-rule="nonzero"></path>
            <path d="M296.661578,62.8016527 C297.868903,62.8016527 298.57509,61.8284929 298.579191,60.1200296 C298.57509,58.4223928 297.858241,57.4384065 296.661578,57.4384065 C295.460815,57.4384065 294.743965,58.4223928 294.743965,60.1200296 C294.743965,61.8284929 295.454253,62.8016527 296.661578,62.8016527 Z M295.537093,60.1200296 C295.537093,58.8224833 295.958672,58.1124416 296.661578,58.1088328 C297.360383,58.1124416 297.786064,58.8224833 297.786064,60.1200296 C297.786064,61.4211848 297.364484,62.116873 296.661578,62.116873 C295.954571,62.116873 295.532992,61.4211848 295.537093,60.1200296 Z" id="Shape" fill="#001A5B" fill-rule="nonzero"></path>
            <path d="M301.166902,62.7295577 C302.756437,62.7295577 303.671773,61.7419625 303.675874,60.1128119 C303.671773,58.4872701 302.756437,57.5105015 301.216934,57.5105015 L299.473202,57.5105015 L299.473202,62.7295577 L301.166902,62.7295577 Z M300.265509,62.0375603 L300.265509,58.2024989 L301.166902,58.2024989 C302.306151,58.2024989 302.890129,58.8837517 302.890129,60.1128119 C302.890129,61.3454809 302.306151,62.0339515 301.123432,62.0375603 L300.265509,62.0375603 Z" id="Shape" fill="#001A5B" fill-rule="nonzero"></path>
            <path d="M275.65888,66.5806949 L275.15282,66.5806949 L275.15282,69.9511166 L273.973382,69.9511166 L273.973382,70.3163488 L275.15282,70.3163488 L275.15282,70.905904 L275.65888,70.905904 L275.65888,66.5806949 Z M270.929643,69.2206521 L271.00018,69.630749 C271.477533,69.630749 272.025422,69.630749 272.602018,69.6083577 L272.602018,70.7072531 L273.108077,70.7072531 L273.108077,69.5826856 C273.630541,69.5506981 274.166127,69.499436 274.672187,69.419303 L274.640199,69.0540708 C273.418931,69.2046584 271.990154,69.2142546 270.929643,69.2206521 Z M271.391398,67.8045058 C271.388131,68.4132535 271.958166,68.7913628 272.800505,68.7913628 C273.637102,68.7913628 274.207137,68.4132535 274.210418,67.8045058 C274.207137,67.2054364 273.637102,66.8113333 272.800505,66.8113333 C271.958166,66.8113333 271.388131,67.2054364 271.391398,67.8045058 Z M271.749837,72.1489895 L275.799953,72.1489895 L275.799953,71.7260976 L272.255896,71.7260976 L272.255896,70.4830122 L271.749837,70.4830122 L271.749837,72.1489895 Z M271.872046,67.8045058 C271.865484,67.4392736 272.243593,67.1893606 272.800505,67.1958401 C273.342653,67.1893606 273.726503,67.4392736 273.729784,67.8045058 C273.726503,68.1762176 273.342653,68.4164523 272.800505,68.419651 C272.243593,68.4164523 271.865484,68.1762176 271.872046,67.8045058 Z" id="Shape" fill="#001A5B" fill-rule="nonzero"></path>
            <path d="M280.304456,68.1056809 L280.304456,67.0676438 L279.804959,67.0676438 L279.804959,68.1056809 C279.798397,69.1853838 279.096311,70.274765 278.247411,70.6623885 L278.568107,71.0852804 C279.234104,70.7489189 279.795116,70.0280508 280.057578,69.16939 C280.329882,69.9799874 280.890895,70.655991 281.541308,70.9699611 L281.848881,70.5726593 C281.009003,70.1914333 280.301176,69.1469988 280.304456,68.1056809 Z M282.470588,72.2835833 L282.976647,72.2835833 L282.976647,66.5742154 L282.470588,66.5742154 L282.470588,72.2835833 Z" id="Shape" fill="#001A5B" fill-rule="nonzero"></path>
            <path d="M314.861675,67.7404487 L310.991181,67.7404487 L310.991181,68.1505455 L314.361357,68.1505455 L314.361357,68.1826151 C314.364638,68.6663653 314.364638,69.2270497 314.211261,70.0152557 L310.330925,70.0152557 L310.330925,70.4381476 L315.547357,70.4381476 L315.547357,70.0152557 L314.710759,70.0152557 C314.861675,69.2398447 314.861675,68.6631665 314.861675,68.1826151 L314.861675,67.7404487 Z M311.023169,72.9627856 L315.034736,72.9627856 L315.034736,72.5398938 L311.522667,72.5398938 L311.522667,71.0788828 L311.023169,71.0788828 L311.023169,72.9627856 Z" id="Shape" fill="#001A5B" fill-rule="nonzero"></path>
            <path d="M319.673751,68.9258746 L319.673751,67.8878375 L319.174253,67.8878375 L319.174253,68.9258746 C319.167692,70.0055775 318.465606,71.0949586 317.616705,71.4825822 L317.937401,71.905474 C318.603398,71.5691126 319.164411,70.8482444 319.426873,69.9895837 C319.699177,70.8001811 320.260189,71.4761846 320.910603,71.7901548 L321.218176,71.392853 C320.378297,71.011627 319.67047,69.9671924 319.673751,68.9258746 Z M321.839882,73.1037769 L322.345942,73.1037769 L322.345942,67.394409 L321.839882,67.394409 L321.839882,73.1037769 Z" id="Shape" fill="#001A5B" fill-rule="nonzero"></path>
            <path d="M70.5630631,63.6218463 C71.6516241,63.6218463 72.4229342,62.8830159 72.4229342,61.8557234 C72.4229342,60.850084 71.6984571,60.1219981 70.7144708,60.1184712 C70.3179892,60.1219981 69.9503784,60.2625793 69.7340934,60.4716466 L69.6836515,60.4716466 L69.8566303,59.0082571 L72.1562072,59.0082571 L72.1562072,58.3306952 L69.2006394,58.3306952 L68.8618174,61.235821 L69.6115564,61.235821 C69.7881441,60.9149613 70.1089219,60.7744621 70.5270566,60.7744621 C71.1830474,60.7815978 71.6516241,61.2429567 71.6516241,61.8773765 C71.6516241,62.4972788 71.1974828,62.9550289 70.5630631,62.9586378 C70.0368268,62.9550289 69.6115564,62.6306423 69.5682502,62.1873277 L68.7969401,62.1873277 C68.8330286,63.0199062 69.5754679,63.6218463 70.5630631,63.6218463 Z" id="Path" fill="#001A5B" fill-rule="nonzero"></path>
            <path d="M73.1510201,62.5333674 L75.6884531,62.5333674 L75.6884531,63.5497513 L76.4381921,63.5497513 L76.4381921,62.5333674 L77.1518426,62.5333674 L77.1518426,61.8629411 L76.4381921,61.8629411 L76.4381921,58.3306952 L75.4578147,58.3306952 L73.1510201,61.8918119 L73.1510201,62.5333674 Z M73.9872075,61.8629411 L73.9872075,61.8197169 L75.6307935,59.2749841 L75.6884531,59.2749841 L75.6884531,61.8629411 L73.9872075,61.8629411 Z" id="Shape" fill="#001A5B" fill-rule="nonzero"></path>
            <path d="M79.7181465,63.5497513 C81.3076817,63.5497513 82.223592,62.5621562 82.2268728,60.9330055 C82.223592,59.3074638 81.3076817,58.3306952 79.7686704,58.3306952 L78.0241185,58.3306952 L78.0241185,63.5497513 L79.7181465,63.5497513 Z M78.8170817,62.8577539 L78.8170817,59.0226925 L79.7181465,59.0226925 C80.8571494,59.0226925 81.4410452,59.7039454 81.4410452,60.9330055 C81.4410452,62.1656746 80.8571494,62.8541451 79.6749223,62.8577539 L78.8170817,62.8577539 Z" id="Shape" fill="#001A5B" fill-rule="nonzero"></path>
            <path d="M144.423797,63.6218463 C145.512194,63.6218463 146.283996,62.8830159 146.283996,61.8557234 C146.283996,60.850084 145.558945,60.1219981 144.575533,60.1184712 C144.178559,60.1219981 143.811112,60.2625793 143.594581,60.4716466 L143.544549,60.4716466 L143.71761,59.0082571 L146.016613,59.0082571 L146.016613,58.3306952 L143.061455,58.3306952 L142.722715,61.235821 L143.472372,61.235821 C143.648714,60.9149613 143.969409,60.7744621 144.387708,60.7744621 C145.043863,60.7815978 145.512194,61.2429567 145.512194,61.8773765 C145.512194,62.4972788 145.057806,62.9550289 144.423797,62.9586378 C143.897232,62.9550289 143.472372,62.6306423 143.428902,62.1873277 L142.65792,62.1873277 C142.694008,63.0199062 143.436284,63.6218463 144.423797,63.6218463 Z" id="Path" fill="#001A5B" fill-rule="nonzero"></path>
            <path d="M149.016061,63.6218963 C150.136445,63.629064 150.882822,62.8541451 150.882822,61.841288 C150.882822,60.8429483 150.133165,60.1292158 149.203065,60.1256069 C148.637131,60.1292158 148.147476,60.388725 147.862048,60.8321217 L147.804635,60.8321217 C147.804635,59.6535035 148.272965,58.9542064 149.080856,58.9505975 C149.6066,58.9542064 149.942059,59.2606307 150.046224,59.6859011 L150.83197,59.6859011 C150.709761,58.8569314 150.042943,58.2586001 149.080856,58.2586001 C147.830061,58.2586001 147.044315,59.2966372 147.040214,61.1132021 C147.040214,63.0415593 148.049873,63.6146286 149.016061,63.6218963 Z M147.898137,61.8629411 C147.905519,61.2826541 148.391893,60.7708533 149.030004,60.7744422 C149.657452,60.7708533 150.11184,61.2573921 150.11184,61.8557234 C150.11184,62.4648812 149.639408,62.9550289 149.008679,62.9586378 C148.367288,62.9550289 147.902238,62.4432281 147.898137,61.8629411 Z" id="Shape" fill="#001A5B" fill-rule="nonzero"></path>
            <path d="M153.492678,63.5497513 C155.082213,63.5497513 155.997549,62.5621562 156.00083,60.9330055 C155.997549,59.3074638 155.082213,58.3306952 153.54271,58.3306952 L151.798158,58.3306952 L151.798158,63.5497513 L153.492678,63.5497513 Z M152.591285,62.8577539 L152.591285,59.0226925 L153.492678,59.0226925 C154.631107,59.0226925 155.215084,59.7039454 155.215084,60.9330055 C155.215084,62.1656746 154.631107,62.8541451 153.449207,62.8577539 L152.591285,62.8577539 Z" id="Shape" fill="#001A5B" fill-rule="nonzero"></path>
            <path d="M218.259268,63.6218463 C219.347665,63.6218463 220.119467,62.8830159 220.119467,61.8557234 C220.119467,60.850084 219.394416,60.1219981 218.411004,60.1184712 C218.01403,60.1219981 217.646584,60.2625793 217.430053,60.4716466 L217.380021,60.4716466 L217.553082,59.0082571 L219.852084,59.0082571 L219.852084,58.3306952 L216.896927,58.3306952 L216.558187,61.235821 L217.307844,61.235821 C217.484185,60.9149613 217.804881,60.7744621 218.22318,60.7744621 C218.879335,60.7815978 219.347665,61.2429567 219.347665,61.8773765 C219.347665,62.4972788 218.893278,62.9550289 218.259268,62.9586378 C217.732704,62.9550289 217.307844,62.6306423 217.264373,62.1873277 L216.493391,62.1873277 C216.52948,63.0199062 217.271755,63.6218463 218.259268,63.6218463 Z" id="Path" fill="#001A5B" fill-rule="nonzero"></path>
            <path d="M222.785917,63.6218463 C223.903841,63.6218463 224.700249,63.0091617 224.70353,62.1585389 C224.700249,61.4881126 224.217155,60.9402232 223.607751,60.8464751 L223.607751,60.8176863 C224.134315,60.6951494 224.498481,60.219355 224.501762,59.6498946 C224.498481,58.8461048 223.770149,58.2586001 222.785917,58.2586001 C221.787741,58.2586001 221.06351,58.8461048 221.06351,59.6498946 C221.06351,60.219355 221.420295,60.6951494 221.957521,60.8176863 L221.957521,60.8464751 C221.340736,60.9402232 220.861743,61.4881126 220.869124,62.1585389 C220.861743,63.0091617 221.650769,63.6218463 222.785917,63.6218463 Z M221.676195,62.1007972 C221.665533,61.5638165 222.137144,61.1709437 222.785917,61.1709437 C223.428129,61.1709437 223.896459,61.5638165 223.896459,62.1007972 C223.896459,62.6126801 223.464217,62.9658555 222.785917,62.9658555 C222.097775,62.9658555 221.665533,62.6126801 221.676195,62.1007972 Z M221.834492,59.7219896 C221.838593,59.2353687 222.213422,58.9037645 222.785917,58.9073733 C223.345289,58.9037645 223.726679,59.2353687 223.723398,59.7219896 C223.726679,60.2121373 223.330526,60.5473505 222.785917,60.5437416 C222.227365,60.5473505 221.838593,60.2085285 221.834492,59.7219896 Z" id="Shape" fill="#001A5B" fill-rule="nonzero"></path>
            <path d="M227.292061,63.5497513 C228.881596,63.5497513 229.796932,62.5621562 229.800213,60.9330055 C229.796932,59.3074638 228.881596,58.3306952 227.342093,58.3306952 L225.597541,58.3306952 L225.597541,63.5497513 L227.292061,63.5497513 Z M226.390668,62.8577539 L226.390668,59.0226925 L227.292061,59.0226925 C228.43049,59.0226925 229.014467,59.7039454 229.014467,60.9330055 C229.014467,62.1656746 228.43049,62.8541451 227.248591,62.8577539 L226.390668,62.8577539 Z" id="Shape" fill="#001A5B" fill-rule="nonzero"></path>
            <path d="M365.926111,62.8017027 C367.047315,62.8088704 367.793692,62.0339515 367.793692,61.0210943 C367.793692,60.0227546 367.044035,59.3090221 366.113935,59.3054133 C365.548001,59.3090221 365.057526,59.5685314 364.772918,60.0119281 L364.715505,60.0119281 C364.715505,58.8333098 365.183835,58.1340127 365.991726,58.1304039 C366.51747,58.1340127 366.852929,58.4404371 366.957094,58.8657075 L367.74284,58.8657075 C367.620631,58.0367378 366.953813,57.4384065 365.991726,57.4384065 C364.740931,57.4384065 363.955185,58.4764436 363.951084,60.2930084 C363.951084,62.2213657 364.960743,62.794435 365.926111,62.8017027 Z M364.809007,61.0427474 C364.816389,60.4624604 365.302763,59.9506596 365.940874,59.9542485 C366.568322,59.9506596 367.021889,60.4371985 367.021889,61.0355297 C367.021889,61.6446876 366.550278,62.1348353 365.919549,62.1384441 C365.277337,62.1348353 364.813108,61.6230344 364.809007,61.0427474 Z" id="Shape" fill="#001A5B" fill-rule="nonzero"></path>
            <path d="M370.489668,62.8016527 C371.570683,62.8016527 372.374473,62.1637061 372.371212,61.295039 C372.374473,60.6354393 371.960275,60.1561181 371.246707,60.0551523 L371.246707,60.0191458 C371.808539,59.8785646 372.176806,59.4532122 372.169425,58.8584898 C372.176806,58.0871797 371.531314,57.4384065 370.504432,57.4384065 C369.530862,57.4384065 368.745116,58.0150846 368.723791,58.8657075 L369.487391,58.8657075 C369.505436,58.393522 369.974586,58.1016151 370.49705,58.1016151 C371.04822,58.1016151 371.405004,58.4260017 371.405004,58.901796 C371.405004,59.4027703 370.990806,59.7343746 370.396166,59.7307657 L369.94916,59.7307657 L369.94916,60.3795389 L370.396166,60.3795389 C371.141722,60.3831477 371.570683,60.7507585 371.570683,61.2662502 C371.570683,61.7744422 371.113015,62.116873 370.482286,62.116873 C369.898308,62.116873 369.444741,61.8248841 369.415214,61.367134 L368.608144,61.367134 C368.640952,62.2213657 369.408653,62.8016527 370.489668,62.8016527 Z" id="Path" fill="#001A5B" fill-rule="nonzero"></path>
            <path d="M375.009755,62.7295577 C376.59929,62.7295577 377.514627,61.7419625 377.517907,60.1128119 C377.514627,58.4872701 376.59929,57.5105015 375.059787,57.5105015 L373.315235,57.5105015 L373.315235,62.7295577 L375.009755,62.7295577 Z M374.108362,62.0375603 L374.108362,58.2024989 L375.009755,58.2024989 C376.148184,58.2024989 376.732162,58.8837517 376.732162,60.1128119 C376.732162,61.3454809 376.148184,62.0339515 374.966285,62.0375603 L374.108362,62.0375603 Z" id="Shape" fill="#001A5B" fill-rule="nonzero"></path>
            <path d="M439.747639,62.8017027 C440.868844,62.8088704 441.6144,62.0339515 441.6144,61.0210943 C441.6144,60.0227546 440.864743,59.3090221 439.934643,59.3054133 C439.36871,59.3090221 438.879054,59.5685314 438.594447,60.0119281 L438.536213,60.0119281 C438.536213,58.8333098 439.005364,58.1340127 439.812434,58.1304039 C440.338999,58.1340127 440.673638,58.4404371 440.778622,58.8657075 L441.564368,58.8657075 C441.441339,58.0367378 440.774521,57.4384065 439.812434,57.4384065 C438.561639,57.4384065 437.775893,58.4764436 437.772613,60.2930084 C437.772613,62.2213657 438.781451,62.794435 439.747639,62.8017027 Z M438.630535,61.0427474 C438.637097,60.4624604 439.124292,59.9506596 439.761582,59.9542485 C440.38903,59.9506596 440.843418,60.4371985 440.843418,61.0355297 C440.843418,61.6446876 440.370986,62.1348353 439.740257,62.1384441 C439.098866,62.1348353 438.633816,61.6230344 438.630535,61.0427474 Z" id="Shape" fill="#001A5B" fill-rule="nonzero"></path>
            <path d="M444.346465,62.8017027 C445.467669,62.8088704 446.214046,62.0339515 446.214046,61.0210943 C446.214046,60.0227546 445.464389,59.3090221 444.534289,59.3054133 C443.968355,59.3090221 443.47788,59.5685314 443.193272,60.0119281 L443.135859,60.0119281 C443.135859,58.8333098 443.604189,58.1340127 444.41126,58.1304039 C444.937824,58.1340127 445.273284,58.4404371 445.377448,58.8657075 L446.163194,58.8657075 C446.040985,58.0367378 445.374167,57.4384065 444.41126,57.4384065 C443.160465,57.4384065 442.374719,58.4764436 442.371438,60.2930084 C442.371438,62.2213657 443.381097,62.794435 444.346465,62.8017027 Z M443.229361,61.0427474 C443.236743,60.4624604 443.723118,59.9506596 444.361228,59.9542485 C444.988676,59.9506596 445.442243,60.4371985 445.442243,61.0355297 C445.442243,61.6446876 444.970632,62.1348353 444.339903,62.1384441 C443.697692,62.1348353 443.232642,61.6230344 443.229361,61.0427474 Z" id="Shape" fill="#001A5B" fill-rule="nonzero"></path>
            <path d="M448.823082,62.7295577 C450.412617,62.7295577 451.328773,61.7419625 451.332054,60.1128119 C451.328773,58.4872701 450.412617,57.5105015 448.873934,57.5105015 L447.129382,57.5105015 L447.129382,62.7295577 L448.823082,62.7295577 Z M447.922509,62.0375603 L447.922509,58.2024989 L448.823082,58.2024989 C449.962331,58.2024989 450.546308,58.8837517 450.546308,60.1128119 C450.546308,61.3454809 449.962331,62.0339515 448.780432,62.0375603 L447.922509,62.0375603 Z" id="Shape" fill="#001A5B" fill-rule="nonzero"></path>
            <path d="M513.565066,62.8017847 C514.686271,62.8089524 515.431827,62.0340335 515.431827,61.0211763 C515.431827,60.0227546 514.68217,59.3091041 513.752071,59.3054953 C513.186137,59.3091041 512.696481,59.5686134 512.411874,60.0119281 L512.35364,60.0119281 C512.35364,58.8333098 512.822791,58.1340947 513.629862,58.1304859 C514.156426,58.1340947 514.491065,58.4404371 514.59605,58.8657895 L515.381795,58.8657895 C515.258766,58.0367378 514.591949,57.4384065 513.629862,57.4384065 C512.379066,57.4384065 511.593321,58.4765256 511.59004,60.2930905 C511.59004,62.2214477 512.598878,62.794517 513.565066,62.8017847 Z M512.447963,61.0428295 C512.454524,60.4624604 512.941719,59.9506596 513.57901,59.9542485 C514.206458,59.9506596 514.660845,60.4372805 514.660845,61.0356118 C514.660845,61.6447696 514.188414,62.1349173 513.557685,62.1385261 C512.916293,62.1349173 512.451243,61.6231165 512.447963,61.0428295 Z" id="Shape" fill="#001A5B" fill-rule="nonzero"></path>
            <path d="M518.07039,57.4383567 C516.935242,57.4311888 516.196248,58.2097986 516.196248,59.2046115 C516.196248,60.2029512 516.945905,60.9202925 517.883386,60.9202925 C518.445219,60.9202925 518.935694,60.6535656 519.217021,60.2137777 L519.281816,60.2137777 C519.274434,61.4068314 518.802003,62.1061285 517.998213,62.1096553 C517.472469,62.1061285 517.132909,61.7997041 517.025463,61.3599983 L516.239718,61.3599983 C516.365207,62.2070123 517.036126,62.8017347 517.998213,62.8017347 C519.249008,62.8017347 520.038035,61.7636976 520.038035,59.9326154 C520.034754,58.0223024 519.029196,57.4456242 518.07039,57.4383567 Z M516.967213,59.1901761 C516.963949,58.5918448 517.439661,58.1016151 518.07039,58.1016151 C518.708501,58.1016151 519.17355,58.6170248 519.17355,59.1829584 C519.17355,59.7596365 518.687176,60.2750462 518.055627,60.2714576 C517.421617,60.2750462 516.971331,59.795725 516.967213,59.1901761 Z" id="Shape" fill="#001A5B" fill-rule="nonzero"></path>
            <path d="M522.640509,62.7296397 C524.230044,62.7296397 525.146201,61.7420445 525.149481,60.1128939 C525.146201,58.4872701 524.230044,57.5105015 522.691361,57.5105015 L520.946809,57.5105015 L520.946809,62.7296397 L522.640509,62.7296397 Z M521.739936,62.0376423 L521.739936,58.2025809 L522.640509,58.2025809 C523.779758,58.2025809 524.363736,58.8837517 524.363736,60.1128939 C524.363736,61.3455629 523.779758,62.0340335 522.597859,62.0376423 L521.739936,62.0376423 Z" id="Shape" fill="#001A5B" fill-rule="nonzero"></path>
            <polygon id="Path" fill="#979797" points="38.1390041 40.0133107 38.1390041 12.5232086 38.9591978 12.5232086 38.9591978 40.0133107"></polygon>
            <polygon id="Path" fill="#979797" points="185.773859 40.0133107 185.773859 12.5232086 186.594053 12.5232086 186.594053 40.0133107"></polygon>
            <polygon id="Path" fill="#979797" points="259.591286 40.0133107 259.591286 12.5232086 260.41148 12.5232086 260.41148 40.0133107"></polygon>
            <polygon id="Path" fill="#979797" points="321.105809 40.0133107 321.105809 12.5232086 321.926003 12.5232086 321.926003 40.0133107"></polygon>
            <polygon id="Path" fill="#979797" points="345.711618 40.0133107 345.711618 12.5232086 346.531812 12.5232086 346.531812 40.0133107"></polygon>
            <polygon id="Path" fill="#979797" points="394.923237 40.0133107 394.923237 12.5232086 395.74343 12.5232086 395.74343 40.0133107"></polygon>
            <polygon id="Path" fill="#979797" points="419.529046 40.0133107 419.529046 12.5232086 420.349239 12.5232086 420.349239 40.0133107"></polygon>
            <polygon id="Path" fill="#979797" points="468.740664 40.0133107 468.740664 12.5232086 469.560858 12.5232086 469.560858 40.0133107"></polygon>
            <polygon id="Path" fill="#979797" points="493.346473 40.0133107 493.346473 12.5232086 494.166667 12.5232086 494.166667 40.0133107"></polygon>
            <polygon id="Path" fill="#979797" points="542.558091 40.0133107 542.558091 12.5232086 543.378285 12.5232086 543.378285 40.0133107"></polygon>
            <polygon id="Path" fill="#979797" points="567.1639 40.0133107 567.1639 12.5232086 567.984094 12.5232086 567.984094 40.0133107"></polygon>
            <rect id="Rectangle" fill="#E2E6F6" fill-rule="nonzero" x="223.092669" y="15.9040467" width="73.8174274" height="19.6846473"></rect>
            <path d="M246.124527,22.178036 L245.363387,22.178036 L245.363387,23.4516326 L243.80584,23.4516326 C243.853411,23.2113159 243.882118,22.9550054 243.882118,22.690657 L240.598062,22.690657 L240.598062,23.3154805 L243.057003,23.3154805 C242.920851,24.4728557 241.927596,25.3859773 240.229795,25.8705477 L240.534087,26.4632196 C242.087534,26.0187567 243.165268,25.2056988 243.629498,24.0523425 L245.363387,24.0523425 L245.363387,24.9253566 L243.55322,24.9253566 L243.55322,25.5501801 L245.363387,25.5501801 L245.363387,26.4231942 L246.124527,26.4231942 L246.124527,22.178036 Z M241.342798,27.905038 C241.342798,28.7780521 242.287661,29.3147048 243.761549,29.3147048 C245.215752,29.3147048 246.168817,28.7780521 246.172918,27.905038 C246.168817,27.0359609 245.215752,26.5073461 243.761549,26.5033271 C242.287661,26.5073461 241.342798,27.0359609 241.342798,27.905038 Z M242.095736,27.905038 C242.095736,27.392417 242.736307,27.100018 243.761549,27.1040369 C244.767107,27.100018 245.407678,27.392417 245.411779,27.905038 C245.407678,28.4096212 244.767107,28.7019382 243.761549,28.7059571 C242.736307,28.7019382 242.095736,28.4096212 242.095736,27.905038 Z" id="Shape" fill="#113287" fill-rule="nonzero"></path>
            <polygon id="Path" fill="#113287" fill-rule="nonzero" points="253.045321 25.4780851 248.808201 25.4780851 248.808201 23.3395122 252.980526 23.3395122 252.980526 22.7227266 248.047061 22.7227266 248.047061 26.0868328 250.121331 26.0868328 250.121331 27.8408989 247.230148 27.8408989 247.230148 28.4657224 253.798259 28.4657224 253.798259 27.8408989 250.874268 27.8408989 250.874268 26.0868328 253.045321 26.0868328"></polygon>
            <path d="M258.539798,28.7460646 C259.748763,28.7460646 260.605866,27.9250508 260.605866,26.7836693 C260.605866,25.6663195 259.801256,24.8572805 258.707938,24.8533436 C258.267494,24.8572805 257.859037,25.0135274 257.618721,25.2458062 L257.562127,25.2458062 L257.754873,23.6198544 L260.309776,23.6198544 L260.309776,22.8669166 L257.025721,22.8669166 L256.649252,26.0947887 L257.482568,26.0947887 C257.678595,25.7384145 258.035379,25.5821676 258.499609,25.5821676 C259.228761,25.5902055 259.748763,26.1028266 259.748763,26.807701 C259.748763,27.4964996 259.244344,28.0051017 258.539798,28.0091206 C257.955,28.0051017 257.482568,27.6447086 257.434177,27.1521003 L256.577075,27.1521003 C256.617264,28.0771967 257.442379,28.7460646 258.539798,28.7460646 Z" id="Path" fill="#113287" fill-rule="nonzero"></path>
            <path d="M261.415397,27.536525 L264.234402,27.536525 L264.234402,28.6659317 L265.067719,28.6659317 L265.067719,27.536525 L265.860846,27.536525 L265.860846,26.7916252 L265.067719,26.7916252 L265.067719,22.8669166 L263.978502,22.8669166 L261.415397,26.8236947 L261.415397,27.536525 Z M262.343856,26.7916252 L262.343856,26.7435618 L264.170427,23.9161903 L264.234402,23.9161903 L264.234402,26.7916252 L262.343856,26.7916252 Z" id="Shape" fill="#113287" fill-rule="nonzero"></path>
            <path d="M267.101799,28.7220329 C267.410192,28.718014 267.666913,28.4657224 267.671014,28.1533107 C267.666913,27.8408989 267.410192,27.5845884 267.101799,27.5845884 C266.789306,27.5845884 266.529304,27.8408989 266.533405,28.1533107 C266.529304,28.4657224 266.789306,28.718014 267.101799,28.7220329 Z" id="Path" fill="#113287" fill-rule="nonzero"></path>
            <path d="M270.522007,28.7460646 C271.76378,28.7460646 272.648769,28.0652219 272.65287,27.1200307 C272.648769,26.3751308 272.112362,25.7663831 271.434882,25.6623006 L271.434882,25.630231 C272.01968,25.4940788 272.424036,24.965464 272.428137,24.3326846 C272.424036,23.4395758 271.615325,22.7867837 270.522007,22.7867837 C269.413105,22.7867837 268.607675,23.4395758 268.607675,24.3326846 C268.607675,24.965464 269.004649,25.4940788 269.600929,25.630231 L269.600929,25.6623006 C268.916068,25.7663831 268.383762,26.3751308 268.391144,27.1200307 C268.383762,28.0652219 269.260549,28.7460646 270.522007,28.7460646 Z M269.288436,27.0559736 C269.276953,26.4592827 269.801057,26.0226936 270.522007,26.0226936 C271.234755,26.0226936 271.755578,26.4592827 271.755578,27.0559736 C271.755578,27.6246959 271.274945,28.0171585 270.522007,28.0171585 C269.757586,28.0171585 269.276953,27.6246959 269.288436,27.0559736 Z M269.464777,24.4127355 C269.468878,23.8721459 269.885537,23.5036329 270.522007,23.5076519 C271.142893,23.5036329 271.567754,23.8721459 271.563653,24.4127355 C271.567754,24.9574261 271.12649,25.3298761 270.522007,25.3258571 C269.90112,25.3298761 269.468878,24.9534072 269.464777,24.4127355 Z" id="Shape" fill="#113287" fill-rule="nonzero"></path>
            <path d="M274.895279,25.6222751 C275.676104,25.630231 276.109166,25.0455149 276.113267,24.1804567 C276.109166,23.3314743 275.692508,22.7427393 274.895279,22.7467378 C274.122657,22.7427393 273.66991,23.3314743 273.678112,24.1804567 C273.66991,25.041496 274.102152,25.630231 274.895279,25.6222751 Z M274.335087,28.6659317 L275.063419,28.6659317 L279.044639,22.8669166 L278.315487,22.8669166 L274.335087,28.6659317 Z M274.335087,24.1804567 C274.338368,23.6638988 274.522911,23.3154805 274.895279,23.3074426 C275.284051,23.3034237 275.44809,23.6598798 275.44809,24.1804567 C275.44809,24.7131725 275.271748,25.0575718 274.895279,25.0615907 C274.522911,25.0575718 274.338368,24.7131725 274.335087,24.1804567 Z M277.338636,27.3443537 C277.334535,28.197355 277.766777,28.78609 278.555804,28.78609 C279.336628,28.78609 279.76969,28.201374 279.772971,27.3443537 C279.76969,26.4872513 279.348931,25.8985983 278.555804,25.9025968 C277.783181,25.8985983 277.334535,26.4872513 277.338636,27.3443537 Z M277.994791,27.3443537 C277.998892,26.8196758 278.187537,26.4712575 278.555804,26.4632196 C278.944575,26.4632196 279.108614,26.8156568 279.108614,27.3443537 C279.108614,27.8689495 278.932272,28.2173678 278.555804,28.2173678 C278.183436,28.2173678 277.998892,27.8689495 277.994791,27.3443537 Z" id="Shape" fill="#113287" fill-rule="nonzero"></path>
            <rect id="Rectangle" fill="#5B6EB4" fill-rule="nonzero" x="149.275242" y="15.9040467" width="73.8174274" height="19.6846473"></rect>
            <path d="M176.135763,25.3258571 L169.592259,25.3258571 L169.592259,25.9426427 L172.483441,25.9426427 L172.483441,26.6314414 C171.149806,26.6995174 170.368982,27.1440624 170.368982,27.8970001 C170.368982,28.7099761 171.298261,29.1664959 172.85991,29.1625842 C174.401874,29.1664959 175.331154,28.7099761 175.334434,27.8970001 C175.331154,27.1440624 174.549509,26.7035364 173.236379,26.6314414 L173.236379,25.9426427 L176.135763,25.9426427 L176.135763,25.3258571 Z M169.93592,24.3486784 L170.200842,24.9493882 C171.445896,24.8052802 172.467037,24.2806024 172.864011,23.5197087 C173.251963,24.2806024 174.281306,24.8052802 175.52718,24.9493882 L175.799484,24.3486784 C174.485534,24.2165452 173.476696,23.6358481 173.372531,22.9390116 L175.550965,22.9390116 L175.550965,22.3302639 L170.19264,22.3302639 L170.19264,22.9390116 L172.347289,22.9390116 C172.243124,23.6318292 171.226084,24.2165452 169.93592,24.3486784 Z M171.137484,27.8970001 C171.133402,27.4524552 171.762491,27.2121385 172.85991,27.2082015 C173.940925,27.2121385 174.574115,27.4524552 174.574115,27.8970001 C174.574115,28.3335072 173.940925,28.5857988 172.85991,28.5778429 C171.762491,28.5857988 171.133402,28.3335072 171.137484,27.8970001 Z" id="Shape" fill="#FFFFFF" fill-rule="nonzero"></path>
            <polygon id="Path" fill="#FFFFFF" fill-rule="nonzero" points="182.495545 25.3098633 178.258425 25.3098633 178.258425 23.1712905 182.43157 23.1712905 182.43157 22.5545048 177.497285 22.5545048 177.497285 25.9186111 179.571555 25.9186111 179.571555 27.6727592 176.680372 27.6727592 176.680372 28.2975007 183.248483 28.2975007 183.248483 27.6727592 180.324492 27.6727592 180.324492 25.9186111 182.495545 25.9186111"></polygon>
            <polygon id="Path" fill="#FFFFFF" fill-rule="nonzero" points="188.222137 22.6986949 187.357653 22.6986949 185.915752 23.643804 185.915752 24.4848306 187.301059 23.5797469 187.333047 23.5797469 187.333047 28.49771 188.222137 28.49771"></polygon>
            <path d="M189.936342,28.5538112 C190.244734,28.5497923 190.501455,28.2975007 190.505556,27.9850889 C190.501455,27.6727592 190.244734,27.4164487 189.936342,27.4164487 C189.623848,27.4164487 189.363846,27.6727592 189.367947,27.9850889 C189.363846,28.2975007 189.623848,28.5497923 189.936342,28.5538112 Z" id="Path" fill="#FFFFFF" fill-rule="nonzero"></path>
            <path d="M193.452512,22.6185075 C192.191054,22.6106061 191.37004,23.4756643 191.37004,24.5809573 C191.37004,25.6903512 192.203357,26.4872513 193.244183,26.4872513 C193.86917,26.4872513 194.413779,26.1909154 194.726272,25.702326 L194.79845,25.702326 C194.790248,27.027923 194.266144,27.8048924 193.372953,27.8089113 C192.788155,27.8048924 192.411686,27.464512 192.291118,26.9758407 L191.418432,26.9758407 C191.558685,27.9170129 192.30342,28.5778429 193.372953,28.5778429 C194.762361,28.5778429 195.639148,27.4244046 195.639148,25.3899963 C195.635047,23.2674172 194.517943,22.6265999 193.452512,22.6185075 Z M192.227119,24.5649635 C192.223041,23.9001145 192.752066,23.3555059 193.452512,23.3555059 C194.161979,23.3555059 194.677881,23.9281651 194.677881,24.5569256 C194.677881,25.1977429 194.137373,25.7704021 193.436928,25.7664057 C192.731562,25.7704021 192.231243,25.2377683 192.227119,24.5649635 Z" id="Shape" fill="#FFFFFF" fill-rule="nonzero"></path>
            <path d="M197.897961,25.4540534 C198.678786,25.4620093 199.111848,24.8773752 199.115949,24.012317 C199.111848,23.1632526 198.695189,22.5745176 197.897961,22.5785161 C197.125339,22.5745176 196.672592,23.1632526 196.680794,24.012317 C196.672592,24.8733563 197.104834,25.4620093 197.897961,25.4540534 Z M197.337769,28.49771 L198.066101,28.49771 L202.047321,22.6986949 L201.318169,22.6986949 L197.337769,28.49771 Z M197.337769,24.012317 C197.34187,23.495677 197.525593,23.1472588 197.897961,23.1392209 C198.286733,23.1352019 198.450772,23.4916581 198.450772,24.012317 C198.450772,24.5449508 198.27443,24.8893501 197.897961,24.893369 C197.525593,24.8893501 197.34187,24.5449508 197.337769,24.012317 Z M200.341318,27.176132 C200.337217,28.0291333 200.769459,28.6178683 201.558485,28.6178683 C202.33931,28.6178683 202.772372,28.0331523 202.775653,27.176132 C202.772372,26.3191116 202.351613,25.7303766 201.558485,25.7343751 C200.785863,25.7303766 200.337217,26.3191116 200.341318,27.176132 Z M200.998293,27.176132 C201.001574,26.6514541 201.190219,26.3030358 201.558485,26.2950799 C201.947257,26.2950799 202.111296,26.6475172 202.111296,27.176132 C202.111296,27.7007278 201.934954,28.0491461 201.558485,28.0491461 C201.186118,28.0491461 201.001574,27.7007278 200.998293,27.176132 Z" id="Shape" fill="#FFFFFF" fill-rule="nonzero"></path>
            <rect id="Rectangle" fill="#113287" fill-rule="nonzero" x="75.4578147" y="15.9040467" width="73.8174274" height="19.6846473"></rect>
            <path d="M100.748485,22.8509228 L95.6304772,22.8509228 L95.6304772,23.4676264 L99.9873458,23.4676264 L99.9873458,23.5557152 C99.9832448,24.4167545 99.9832448,25.4340407 99.7068396,26.8236947 L100.476181,26.9038277 C100.744385,25.4340407 100.744385,24.4407862 100.748485,23.5557152 L100.748485,22.8509228 Z M94.9415145,28.3695957 L101.485019,28.3695957 L101.485019,27.7368163 L98.1853804,27.7368163 L98.1853804,25.2056988 L97.4324426,25.2056988 L97.4324426,27.7368163 L94.9415145,27.7368163 L94.9415145,28.3695957 Z" id="Shape" fill="#FFFFFF" fill-rule="nonzero"></path>
            <polygon id="Path" fill="#FFFFFF" fill-rule="nonzero" points="107.844801 25.4700472 103.60768 25.4700472 103.60768 23.3314743 107.780826 23.3314743 107.780826 22.7146887 102.847361 22.7146887 102.847361 26.0787949 104.921631 26.0787949 104.921631 27.832943 102.029628 27.832943 102.029628 28.4576845 108.597739 28.4576845 108.597739 27.832943 105.674568 27.832943 105.674568 26.0787949 107.844801 26.0787949"></polygon>
            <path d="M113.387669,28.7380267 C114.729506,28.7380267 115.514432,27.6566834 115.518533,25.7584272 C115.514432,23.8721459 114.717203,22.7788278 113.387669,22.7788278 C112.054035,22.7788278 111.256806,23.8721459 111.256806,25.7584272 C111.256806,27.6566834 112.045833,28.7380267 113.387669,28.7380267 Z M112.138515,25.7584272 C112.138515,24.3166909 112.606845,23.5276646 113.387669,23.5237277 C114.164393,23.5276646 114.637645,24.3166909 114.637645,25.7584272 C114.637645,27.2041826 114.168494,27.9771331 113.387669,27.9771331 C112.602744,27.9771331 112.134414,27.2041826 112.138515,25.7584272 Z" id="Shape" fill="#FFFFFF" fill-rule="nonzero"></path>
            <path d="M116.784091,28.713995 C117.092484,28.7099761 117.348385,28.4576845 117.352485,28.1452728 C117.348385,27.832943 117.092484,27.5766325 116.784091,27.5766325 C116.471598,27.5766325 116.211596,27.832943 116.214877,28.1452728 C116.211596,28.4576845 116.471598,28.7099761 116.784091,28.713995 Z" id="Path" fill="#FFFFFF" fill-rule="nonzero"></path>
            <path d="M118.249777,27.5285692 L121.068783,27.5285692 L121.068783,28.6578938 L121.9021,28.6578938 L121.9021,27.5285692 L122.695227,27.5285692 L122.695227,26.7836693 L121.9021,26.7836693 L121.9021,22.8588787 L120.812882,22.8588787 L118.249777,26.8156568 L118.249777,27.5285692 Z M119.179057,26.7836693 L119.179057,26.7356059 L121.004808,23.9081524 L121.068783,23.9081524 L121.068783,26.7836693 L119.179057,26.7836693 Z" id="Shape" fill="#FFFFFF" fill-rule="nonzero"></path>
            <path d="M124.913851,25.6142372 C125.694675,25.6222751 126.126917,25.0375591 126.131018,24.1725008 C126.126917,23.3234364 125.711079,22.7347834 124.913851,22.7387007 C124.140408,22.7347834 123.688481,23.3234364 123.695863,24.1725008 C123.688481,25.0335401 124.120723,25.6222751 124.913851,25.6142372 Z M124.352838,28.6578938 L125.08199,28.6578938 L129.06239,22.8588787 L128.334058,22.8588787 L124.352838,28.6578938 Z M124.352838,24.1725008 C124.356939,23.6558609 124.541483,23.3074426 124.913851,23.2994047 C125.301802,23.2953858 125.466661,23.6518419 125.466661,24.1725008 C125.466661,24.7051346 125.29032,25.0495339 124.913851,25.0535528 C124.541483,25.0495339 124.356939,24.7051346 124.352838,24.1725008 Z M127.356387,27.3363158 C127.352286,28.1893172 127.785349,28.7780521 128.574375,28.7780521 C129.355199,28.7780521 129.787441,28.1933361 129.791542,27.3363158 C129.787441,26.4792954 129.367502,25.8905604 128.574375,25.8945589 C127.800932,25.8905604 127.352286,26.4792954 127.356387,27.3363158 Z M128.013362,27.3363158 C128.017463,26.8117199 128.206108,26.4632196 128.574375,26.4552638 C128.962326,26.4552638 129.127185,26.807701 129.127185,27.3363158 C129.127185,27.8609936 128.950844,28.2094119 128.574375,28.2094119 C128.202007,28.2094119 128.017463,27.8609936 128.013362,27.3363158 Z" id="Shape" fill="#FFFFFF" fill-rule="nonzero"></path>
            <rect id="Rectangle" fill="#001A5B" fill-rule="nonzero" x="9.02213001" y="15.9040467" width="66.4356846" height="19.6846473"></rect>
            <path d="M23.9017549,28.0452091 L20.9862126,28.0452091 L20.9862126,26.4833144 L20.2332748,26.4833144 L20.2332748,28.0452091 L17.3338083,28.0452091 L17.3338083,28.6699506 L23.9017549,28.6699506 L23.9017549,28.0452091 Z M17.6541759,26.1388331 L17.942556,26.731587 C19.1439757,26.5433526 20.1411671,25.9746303 20.6057248,25.1376227 C21.0743014,25.9746303 22.0755118,26.5433526 23.2770134,26.731587 L23.5653115,26.1388331 C22.0915876,25.92263 21.030257,25.0895593 20.9942505,24.0803931 L23.2930072,24.0803931 L23.2930072,23.4636075 L20.9862126,23.4636075 L20.9862126,22.5024225 L20.2332748,22.5024225 L20.2332748,23.4636075 L17.9264802,23.4636075 L17.9264802,24.0803931 L20.2253189,24.0803931 C20.1892304,25.0895593 19.1279819,25.92263 17.6541759,26.1388331 Z" id="Shape" fill="#FFFFFF" fill-rule="nonzero"></path>
            <path d="M30.2293848,23.0631069 L25.1112124,23.0631069 L25.1112124,23.6798925 L29.4684911,23.6798925 L29.4684911,23.7679813 C29.4644722,24.6290206 29.4644722,25.6463068 29.188149,27.0359609 L29.9570805,27.1160118 C30.2254479,25.6463068 30.2254479,24.6530523 30.2293848,23.7679813 L30.2293848,23.0631069 Z M24.4224138,28.5818618 L30.9663288,28.5818618 L30.9663288,27.9490824 L27.6662797,27.9490824 L27.6662797,25.4179649 L26.9134239,25.4179649 L26.9134239,27.9490824 L24.4224138,27.9490824 L24.4224138,28.5818618 Z" id="Shape" fill="#FFFFFF" fill-rule="nonzero"></path>
            <polygon id="Path" fill="#FFFFFF" fill-rule="nonzero" points="37.3260282 25.6823133 33.0889079 25.6823133 33.0889079 23.5437404 37.2619711 23.5437404 37.2619711 22.9269548 32.3279322 22.9269548 32.3279322 26.291061 34.402448 26.291061 34.402448 28.0452091 31.5109373 28.0452091 31.5109373 28.6699506 38.078966 28.6699506 38.078966 28.0452091 35.1553858 28.0452091 35.1553858 26.291061 37.3260282 26.291061"></polygon>
            <path d="M42.8687328,28.9502928 C44.2103235,28.9502928 44.9953308,27.8689495 44.9993498,25.9706934 C44.9953308,24.084412 44.1983487,22.9910119 42.8687328,22.9910119 C41.5350979,22.9910119 40.7381158,24.084412 40.7381158,25.9706934 C40.7381158,27.8689495 41.527142,28.9502928 42.8687328,28.9502928 Z M41.6192498,25.9706934 C41.6192498,24.528875 42.0878264,23.7399307 42.8687328,23.7359938 C43.6457022,23.7399307 44.1182158,24.528875 44.1182158,25.9706934 C44.1182158,27.4164487 43.6497212,28.1893172 42.8687328,28.1893172 C42.0838075,28.1893172 41.6152308,27.4164487 41.6192498,25.9706934 Z" id="Shape" fill="#FFFFFF" fill-rule="nonzero"></path>
            <path d="M46.2648266,28.9262611 C46.5732194,28.9222422 46.8295299,28.6699506 46.8335488,28.3575389 C46.8295299,28.0452091 46.5732194,27.7888986 46.2648266,27.7888986 C45.9524968,27.7888986 45.6921674,28.0452091 45.6961863,28.3575389 C45.6921674,28.6699506 45.9524968,28.9222422 46.2648266,28.9262611 Z" id="Path" fill="#FFFFFF" fill-rule="nonzero"></path>
            <path d="M47.8587909,28.8701599 L51.7594678,28.8701599 L51.7594678,28.1172221 L49.0842422,28.1172221 L49.0842422,28.0692408 L50.2617122,26.875777 C51.3510113,25.8064906 51.6553852,25.2898506 51.6634231,24.6410775 C51.6553852,23.6999053 50.8824347,22.9910119 49.7650849,22.9910119 C48.65971,22.9910119 47.850753,23.6918674 47.8587909,24.7531979 L48.6917795,24.7531979 C48.6957985,24.1364123 49.1042549,23.7279559 49.7490911,23.7279559 C50.3578389,23.7279559 50.8223965,24.0923679 50.8223965,24.6651091 C50.8223965,25.1737112 50.5059658,25.5421422 49.8692495,26.2029722 L47.8587909,28.2294246 L47.8587909,28.8701599 Z" id="Path" fill="#FFFFFF" fill-rule="nonzero"></path>
            <path d="M54.0662624,25.8265033 C54.8472508,25.8344592 55.2797389,25.2498252 55.2837578,24.3847669 C55.2797389,23.5357025 54.8632445,22.9469675 54.0662624,22.950966 C53.2933939,22.9469675 52.8408111,23.5357025 52.848849,24.3847669 C52.8408111,25.2458062 53.2732992,25.8344592 54.0662624,25.8265033 Z M53.50566,28.8701599 L54.2344841,28.8701599 L58.2152939,23.0711448 L57.4864698,23.0711448 L53.50566,28.8701599 Z M53.50566,24.3847669 C53.509597,23.868127 53.6938124,23.5197087 54.0662624,23.5116708 C54.4547881,23.5076519 54.6189909,23.864108 54.6189909,24.3847669 C54.6189909,24.9174007 54.4427313,25.2618 54.0662624,25.2658189 C53.6938124,25.2618 53.509597,24.9174007 53.50566,24.3847669 Z M56.5092911,27.5485819 C56.5052722,28.4015833 56.9377603,28.9903183 57.7267046,28.9903183 C58.5076929,28.9903183 58.9401811,28.4056022 58.9442,27.5485819 C58.9401811,26.6915615 58.5196678,26.1028266 57.7267046,26.1068251 C56.9538361,26.1028266 56.5052722,26.6915615 56.5092911,27.5485819 Z M57.1660202,27.5485819 C57.1700391,27.023904 57.3582736,26.6754858 57.7267046,26.6675299 C58.1152303,26.6675299 58.2794331,27.0199671 58.2794331,27.5485819 C58.2794331,28.0731777 58.1031734,28.421596 57.7267046,28.421596 C57.3542546,28.421596 57.1700391,28.0731777 57.1660202,27.5485819 Z" id="Shape" fill="#FFFFFF" fill-rule="nonzero"></path>
            <polygon id="Path" fill="#979797" points="148.865145 52.4923928 148.865145 3.58518122e-08 149.685339 0 149.685339 52.4923928"></polygon>
            <polygon id="Path" fill="#979797" points="222.682573 52.4923928 222.682573 3.58518122e-08 223.502766 0 223.502766 52.4923928"></polygon>
            <polygon id="Path" fill="#979797" points="75.0477178 52.4923928 75.0477178 3.58518122e-08 75.8679115 0 75.8679115 52.4923928"></polygon>
            <rect id="Rectangle" fill="#113287" fill-rule="nonzero" x="444.544952" y="15.9040467" width="73.8174274" height="19.6846473"></rect>
            <path d="M470.952726,22.8509228 L465.834718,22.8509228 L465.834718,23.4676264 L470.192407,23.4676264 L470.192407,23.5557152 C470.188306,24.4167545 470.188306,25.4340407 469.9119,26.8236947 L470.680422,26.9038277 C470.948625,25.4340407 470.948625,24.4407862 470.952726,23.5557152 L470.952726,22.8509228 Z M465.145755,28.3695957 L471.69008,28.3695957 L471.69008,27.7368163 L468.389621,27.7368163 L468.389621,25.2056988 L467.636683,25.2056988 L467.636683,27.7368163 L465.145755,27.7368163 L465.145755,28.3695957 Z" id="Shape" fill="#FFFFFF" fill-rule="nonzero"></path>
            <polygon id="Path" fill="#FFFFFF" fill-rule="nonzero" points="478.049862 25.4700472 473.812741 25.4700472 473.812741 23.3314743 477.985066 23.3314743 477.985066 22.7146887 473.051602 22.7146887 473.051602 26.0787949 475.125871 26.0787949 475.125871 27.832943 472.234689 27.832943 472.234689 28.4576845 478.802799 28.4576845 478.802799 27.832943 475.878809 27.832943 475.878809 26.0787949 478.049862 26.0787949"></polygon>
            <path d="M483.59191,28.7380267 C484.933747,28.7380267 485.718672,27.6566834 485.722773,25.7584272 C485.718672,23.8721459 484.922264,22.7788278 483.59191,22.7788278 C482.258275,22.7788278 481.461867,23.8721459 481.461867,25.7584272 C481.461867,27.6566834 482.250893,28.7380267 483.59191,28.7380267 Z M482.342755,25.7584272 C482.342755,24.3166909 482.811086,23.5276646 483.59191,23.5237277 C484.369454,23.5276646 484.841885,24.3166909 484.841885,25.7584272 C484.841885,27.2041826 484.373555,27.9771331 483.59191,27.9771331 C482.806985,27.9771331 482.338654,27.2041826 482.342755,25.7584272 Z" id="Shape" fill="#FFFFFF" fill-rule="nonzero"></path>
            <path d="M486.988332,28.713995 C487.296725,28.7099761 487.553445,28.4576845 487.556726,28.1452728 C487.553445,27.832943 487.296725,27.5766325 486.988332,27.5766325 C486.675838,27.5766325 486.415837,27.832943 486.419938,28.1452728 C486.415837,28.4576845 486.675838,28.7099761 486.988332,28.713995 Z" id="Path" fill="#FFFFFF" fill-rule="nonzero"></path>
            <polygon id="Path" fill="#FFFFFF" fill-rule="nonzero" points="490.080462 22.8588787 489.215158 22.8588787 487.773257 23.8040698 487.773257 24.6450964 489.159385 23.7399307 489.191372 23.7399307 489.191372 28.6578938 490.080462 28.6578938"></polygon>
            <path d="M492.883884,25.6142372 C493.664708,25.6222751 494.09695,25.0375591 494.101051,24.1725008 C494.09695,23.3234364 493.680292,22.7347834 492.883884,22.7387007 C492.110441,22.7347834 491.657694,23.3234364 491.665896,24.1725008 C491.657694,25.0335401 492.090757,25.6222751 492.883884,25.6142372 Z M492.322871,28.6578938 L493.052024,28.6578938 L497.032423,22.8588787 L496.303271,22.8588787 L492.322871,28.6578938 Z M492.322871,24.1725008 C492.326972,23.6558609 492.510696,23.3074426 492.883884,23.2994047 C493.271835,23.2953858 493.435874,23.6518419 493.435874,24.1725008 C493.435874,24.7051346 493.260353,25.0495339 492.883884,25.0535528 C492.510696,25.0495339 492.326972,24.7051346 492.322871,24.1725008 Z M495.32642,27.3363158 C495.32232,28.1893172 495.755382,28.7780521 496.543588,28.7780521 C497.325232,28.7780521 497.757474,28.1933361 497.761575,27.3363158 C497.757474,26.4792954 497.336715,25.8905604 496.543588,25.8945589 C495.770965,25.8905604 495.32232,26.4792954 495.32642,27.3363158 Z M495.983396,27.3363158 C495.987497,26.8117199 496.175321,26.4632196 496.543588,26.4552638 C496.93236,26.4552638 497.096398,26.807701 497.096398,27.3363158 C497.096398,27.8609936 496.920057,28.2094119 496.543588,28.2094119 C496.17122,28.2094119 495.987497,27.8609936 495.983396,27.3363158 Z" id="Shape" fill="#FFFFFF" fill-rule="nonzero"></path>
            <rect id="Rectangle" fill="#5B6EB4" fill-rule="nonzero" x="370.727524" y="15.9040467" width="73.8174274" height="19.6846473"></rect>
            <path d="M396.839209,25.3258571 L390.294884,25.3258571 L390.294884,25.9426427 L393.186887,25.9426427 L393.186887,26.6314414 C391.853252,26.6995174 391.072427,27.1440624 391.072427,27.8970001 C391.072427,28.7099761 392.001707,29.1664959 393.563355,29.1625842 C395.10532,29.1664959 396.033779,28.7099761 396.03788,27.8970001 C396.033779,27.1440624 395.252954,26.7035364 393.939824,26.6314414 L393.939824,25.9426427 L396.839209,25.9426427 L396.839209,25.3258571 Z M390.639365,24.3486784 L390.904288,24.9493882 C392.149342,24.8052802 393.170483,24.2806024 393.567456,23.5197087 C393.955408,24.2806024 394.984751,24.8052802 396.230625,24.9493882 L396.502929,24.3486784 C395.188979,24.2165452 394.180141,23.6358481 394.075976,22.9390116 L396.254411,22.9390116 L396.254411,22.3302639 L390.896086,22.3302639 L390.896086,22.9390116 L393.050734,22.9390116 C392.94657,23.6318292 391.92953,24.2165452 390.639365,24.3486784 Z M391.840929,27.8970001 C391.836848,27.4524552 392.465936,27.2121385 393.563355,27.2082015 C394.644371,27.2121385 395.27756,27.4524552 395.27756,27.8970001 C395.27756,28.3335072 394.644371,28.5857988 393.563355,28.5778429 C392.465936,28.5857988 391.836848,28.3335072 391.840929,27.8970001 Z" id="Shape" fill="#FFFFFF" fill-rule="nonzero"></path>
            <polygon id="Path" fill="#FFFFFF" fill-rule="nonzero" points="403.19899 25.3098633 398.96187 25.3098633 398.96187 23.1712905 403.135015 23.1712905 403.135015 22.5545048 398.20073 22.5545048 398.20073 25.9186111 400.275 25.9186111 400.275 27.6727592 397.383817 27.6727592 397.383817 28.2975007 403.951928 28.2975007 403.951928 27.6727592 401.027938 27.6727592 401.027938 25.9186111 403.19899 25.9186111"></polygon>
            <path d="M408.741859,28.5778429 C410.082876,28.5778429 410.867801,27.4964996 410.871902,25.5982434 C410.867801,23.7119621 410.071393,22.618562 408.741859,22.618562 C407.408224,22.618562 406.610996,23.7119621 406.610996,25.5982434 C406.610996,27.4964996 407.400022,28.5778429 408.741859,28.5778429 Z M407.491884,25.5982434 C407.491884,24.156425 407.961035,23.3674808 408.741859,23.3635438 C409.518582,23.3674808 409.991014,24.156425 409.991014,25.5982434 C409.991014,27.0439988 409.522683,27.8168672 408.741859,27.8168672 C407.956934,27.8168672 407.487783,27.0439988 407.491884,25.5982434 Z" id="Shape" fill="#FFFFFF" fill-rule="nonzero"></path>
            <path d="M412.137461,28.5538112 C412.445853,28.5497923 412.702574,28.2975007 412.706675,27.9850889 C412.702574,27.6727592 412.445853,27.4164487 412.137461,27.4164487 C411.824967,27.4164487 411.564965,27.6727592 411.569066,27.9850889 C411.564965,28.2975007 411.824967,28.5497923 412.137461,28.5538112 Z" id="Path" fill="#FFFFFF" fill-rule="nonzero"></path>
            <path d="M415.653631,22.6185075 C414.392173,22.6106061 413.571159,23.4756643 413.571159,24.5809573 C413.571159,25.6903512 414.404476,26.4872513 415.445302,26.4872513 C416.070289,26.4872513 416.614898,26.1909154 416.927391,25.702326 L416.999568,25.702326 C416.991367,27.027923 416.467263,27.8048924 415.574072,27.8089113 C414.989274,27.8048924 414.612805,27.464512 414.492237,26.9758407 L413.61955,26.9758407 C413.759804,27.9170129 414.504539,28.5778429 415.574072,28.5778429 C416.96348,28.5778429 417.840267,27.4244046 417.840267,25.3899963 C417.836986,23.2674172 416.719062,22.6265999 415.653631,22.6185075 Z M414.428238,24.5649635 C414.42416,23.9001145 414.953185,23.3555059 415.653631,23.3555059 C416.363098,23.3555059 416.87982,23.9281651 416.87982,24.5569256 C416.87982,25.1977429 416.338492,25.7704021 415.638047,25.7664057 C414.93268,25.7704021 414.432362,25.2377683 414.428238,24.5649635 Z" id="Shape" fill="#FFFFFF" fill-rule="nonzero"></path>
            <path d="M420.09908,25.4540534 C420.879905,25.4620093 421.312967,24.8773752 421.317068,24.012317 C421.312967,23.1632526 420.896308,22.5745176 420.09908,22.5785161 C419.326458,22.5745176 418.873711,23.1632526 418.881913,24.012317 C418.873711,24.8733563 419.306773,25.4620093 420.09908,25.4540534 Z M419.538888,28.49771 L420.26722,28.49771 L424.24844,22.6986949 L423.519288,22.6986949 L419.538888,28.49771 Z M419.538888,24.012317 C419.542989,23.495677 419.726712,23.1472588 420.09908,23.1392209 C420.487852,23.1352019 420.651891,23.4916581 420.651891,24.012317 C420.651891,24.5449508 420.475549,24.8893501 420.09908,24.893369 C419.726712,24.8893501 419.542989,24.5449508 419.538888,24.012317 Z M422.542437,27.176132 C422.538336,28.0291333 422.970578,28.6178683 423.759604,28.6178683 C424.540429,28.6178683 424.973491,28.0331523 424.977592,27.176132 C424.973491,26.3191116 424.552732,25.7303766 423.759604,25.7343751 C422.986982,25.7303766 422.538336,26.3191116 422.542437,27.176132 Z M423.199412,27.176132 C423.202693,26.6514541 423.391337,26.3030358 423.759604,26.2950799 C424.148376,26.2950799 424.312415,26.6475172 424.312415,27.176132 C424.312415,27.7007278 424.136073,28.0491461 423.759604,28.0491461 C423.387237,28.0491461 423.202693,27.7007278 423.199412,27.176132 Z" id="Shape" fill="#FFFFFF" fill-rule="nonzero"></path>
            <rect id="Rectangle" fill="#E2E6F6" fill-rule="nonzero" x="296.910097" y="15.9040467" width="73.8174274" height="19.6846473"></rect>
            <path d="M320.68669,22.178036 L319.926371,22.178036 L319.926371,23.4516326 L318.368003,23.4516326 C318.416394,23.2113159 318.444281,22.9550054 318.444281,22.690657 L315.160225,22.690657 L315.160225,23.3154805 L317.619166,23.3154805 C317.483014,24.4728557 316.489759,25.3859773 314.791959,25.8705477 L315.09625,26.4632196 C316.649697,26.0187567 317.727432,25.2056988 318.191661,24.0523425 L319.926371,24.0523425 L319.926371,24.9253566 L318.115383,24.9253566 L318.115383,25.5501801 L319.926371,25.5501801 L319.926371,26.4231942 L320.68669,26.4231942 L320.68669,22.178036 Z M315.904961,27.905038 C315.904961,28.7780521 316.850645,29.3147048 318.323712,29.3147048 C319.777916,29.3147048 320.730981,28.7780521 320.735082,27.905038 C320.730981,27.0359609 319.777916,26.5073461 318.323712,26.5033271 C316.850645,26.5073461 315.904961,27.0359609 315.904961,27.905038 Z M316.657899,27.905038 C316.657899,27.392417 317.29847,27.100018 318.323712,27.1040369 C319.32927,27.100018 319.969841,27.392417 319.973942,27.905038 C319.969841,28.4096212 319.32927,28.7019382 318.323712,28.7059571 C317.29847,28.7019382 316.657899,28.4096212 316.657899,27.905038 Z" id="Shape" fill="#113287" fill-rule="nonzero"></path>
            <polygon id="Path" fill="#113287" fill-rule="nonzero" points="327.607484 25.4780851 323.370364 25.4780851 323.370364 23.3395122 327.543509 23.3395122 327.543509 22.7227266 322.609224 22.7227266 322.609224 26.0868328 324.683494 26.0868328 324.683494 27.8408989 321.792311 27.8408989 321.792311 28.4657224 328.360422 28.4657224 328.360422 27.8408989 325.436432 27.8408989 325.436432 26.0868328 327.607484 26.0868328"></polygon>
            <path d="M331.131856,28.6659317 L335.031877,28.6659317 L335.031877,27.9129939 L332.357225,27.9129939 L332.357225,27.8649306 L333.534203,26.6715488 C334.62342,25.6021804 334.928533,25.0856224 334.935914,24.4367672 C334.928533,23.495677 334.15509,22.7867837 333.037986,22.7867837 C331.932365,22.7867837 331.123654,23.4876391 331.131856,24.5489697 L331.964353,24.5489697 C331.968454,23.9321841 332.37691,23.5237277 333.021582,23.5237277 C333.630986,23.5237277 334.095216,23.8881397 334.095216,24.4607989 C334.095216,24.969483 333.778621,25.337914 333.142151,25.998662 L331.131856,28.0251144 L331.131856,28.6659317 Z" id="Path" fill="#113287" fill-rule="nonzero"></path>
            <polygon id="Path" fill="#113287" fill-rule="nonzero" points="336.209675 28.6659317 337.130752 28.6659317 339.710261 23.6518419 339.710261 22.8669166 335.80942 22.8669166 335.80942 23.6198544 338.796566 23.6198544 338.796566 23.6678357"></polygon>
            <path d="M340.166289,28.7220329 C340.474682,28.718014 340.731402,28.4657224 340.735503,28.1533107 C340.731402,27.8408989 340.474682,27.5845884 340.166289,27.5845884 C339.853795,27.5845884 339.593794,27.8408989 339.597895,28.1533107 C339.593794,28.4657224 339.853795,28.718014 340.166289,28.7220329 Z" id="Path" fill="#113287" fill-rule="nonzero"></path>
            <path d="M341.760746,28.6659317 L345.660766,28.6659317 L345.660766,27.9129939 L342.986115,27.9129939 L342.986115,27.8649306 L344.163093,26.6715488 C345.25231,25.6021804 345.557422,25.0856224 345.564804,24.4367672 C345.557422,23.495677 344.783979,22.7867837 343.666876,22.7867837 C342.561254,22.7867837 341.752544,23.4876391 341.760746,24.5489697 L342.593242,24.5489697 C342.597343,23.9321841 343.005799,23.5237277 343.650472,23.5237277 C344.259055,23.5237277 344.724105,23.8881397 344.724105,24.4607989 C344.724105,24.969483 344.40751,25.337914 343.77104,25.998662 L341.760746,28.0251144 L341.760746,28.6659317 Z" id="Path" fill="#113287" fill-rule="nonzero"></path>
            <path d="M347.967971,25.6222751 C348.748795,25.630231 349.181037,25.0455149 349.185138,24.1804567 C349.181037,23.3314743 348.765199,22.7427393 347.967971,22.7467378 C347.195349,22.7427393 346.742602,23.3314743 346.750804,24.1804567 C346.742602,25.041496 347.174844,25.630231 347.967971,25.6222751 Z M347.406959,28.6659317 L348.136111,28.6659317 L352.117331,22.8669166 L351.388178,22.8669166 L347.406959,28.6659317 Z M347.406959,24.1804567 C347.411059,23.6638988 347.595603,23.3154805 347.967971,23.3074426 C348.356743,23.3034237 348.520781,23.6598798 348.520781,24.1804567 C348.520781,24.7131725 348.34444,25.0575718 347.967971,25.0615907 C347.595603,25.0575718 347.411059,24.7131725 347.406959,24.1804567 Z M350.410489,27.3443537 C350.407227,28.197355 350.839469,28.78609 351.628495,28.78609 C352.40932,28.78609 352.841562,28.201374 352.845663,27.3443537 C352.841562,26.4872513 352.421622,25.8985983 351.628495,25.9025968 C350.855053,25.8985983 350.407227,26.4872513 350.410489,27.3443537 Z M351.067483,27.3443537 C351.071584,26.8196758 351.260228,26.4712575 351.628495,26.4632196 C352.017267,26.4632196 352.181306,26.8156568 352.181306,27.3443537 C352.181306,27.8689495 352.004964,28.2173678 351.628495,28.2173678 C351.256127,28.2173678 351.071584,27.8689495 351.067483,27.3443537 Z" id="Shape" fill="#113287" fill-rule="nonzero"></path>
            <polygon id="Path" fill="#113287" points="295.679806 52.4923928 295.679806 7.17035423e-08 297.320194 0 297.320194 52.4923928"></polygon>
            <path d="M271.343021,63.1688534 L268.733165,60.5589972 C268.573227,60.3988954 268.573227,60.1392221 268.733165,59.9790383 L271.343021,57.3691822 C271.503779,57.2090804 271.76296,57.2090804 271.923718,57.3691822 C272.083656,57.529366 272.083656,57.7890393 271.923718,57.9491411 L270.013487,59.858962 L284.607192,59.858962 L284.607192,60.6791556 L270.013487,60.6791556 L271.923718,62.5888945 C272.083656,62.7490783 272.083656,63.0086696 271.923718,63.1688534 C271.76296,63.3290372 271.503779,63.3290372 271.343021,63.1688534 Z" id="Path" fill="#113287"></path>
            <path d="M322.477173,57.3691822 L325.087029,59.9790383 C325.246967,60.1391401 325.246967,60.3988134 325.087029,60.5589972 L322.477173,63.1688534 C322.316415,63.3289552 322.057234,63.3289552 321.896476,63.1688534 C321.736538,63.0086696 321.736538,62.7489963 321.896476,62.5888124 L323.806707,60.6790736 L309.213001,60.6790736 L309.213001,59.8588799 L323.806707,59.8588799 L321.896476,57.9491411 C321.736538,57.7889573 321.736538,57.529284 321.896476,57.3691822 C322.057234,57.2089983 322.316415,57.2089983 322.477173,57.3691822 Z" id="Path" fill="#113287"></path>
            <polygon id="Path" fill="#001A5B" fill-rule="nonzero" points="586.811639 15.9040467 563.183501 15.9040467 563.183501 35.5886941 586.811639 35.5886941 593 25.7463704"></polygon>
            <rect id="Rectangle" fill="#001A5B" fill-rule="nonzero" transform="translate(551.170124, 25.746370) scale(-1, 1) translate(-551.170124, -25.746370) " x="518.362379" y="15.9040467" width="65.615491" height="19.6846473"></rect>
            <path d="M541.049755,28.0452091 L538.133967,28.0452091 L538.133967,26.4833144 L537.381029,26.4833144 L537.381029,28.0452091 L534.481645,28.0452091 L534.481645,28.6699506 L541.049755,28.6699506 L541.049755,28.0452091 Z M534.80234,26.1388331 L535.091048,26.731587 C536.291812,26.5433526 537.289167,25.9746303 537.754217,25.1376227 C538.222548,25.9746303 539.224004,26.5433526 540.424768,26.731587 L540.713476,26.1388331 C539.239588,25.92263 538.178257,25.0895593 538.142169,24.0803931 L540.441172,24.0803931 L540.441172,23.4636075 L538.133967,23.4636075 L538.133967,22.5024225 L537.381029,22.5024225 L537.381029,23.4636075 L535.074645,23.4636075 L535.074645,24.0803931 L537.373647,24.0803931 C537.337559,25.0895593 536.276228,25.92263 534.80234,26.1388331 Z" id="Shape" fill="#FFFFFF" fill-rule="nonzero"></path>
            <path d="M547.377549,23.0631069 L542.259541,23.0631069 L542.259541,23.6798925 L546.616409,23.6798925 L546.616409,23.7679813 C546.612308,24.6290206 546.612308,25.6463068 546.335903,27.0359609 L547.105245,27.1160118 C547.373448,25.6463068 547.373448,24.6530523 547.377549,23.7679813 L547.377549,23.0631069 Z M541.570578,28.5818618 L548.114083,28.5818618 L548.114083,27.9490824 L544.814444,27.9490824 L544.814444,25.4179649 L544.061506,25.4179649 L544.061506,27.9490824 L541.570578,27.9490824 L541.570578,28.5818618 Z" id="Shape" fill="#FFFFFF" fill-rule="nonzero"></path>
            <polygon id="Path" fill="#FFFFFF" fill-rule="nonzero" points="554.473864 25.6823133 550.236744 25.6823133 550.236744 23.5437404 554.409889 23.5437404 554.409889 22.9269548 549.476425 22.9269548 549.476425 26.291061 551.550694 26.291061 551.550694 28.0452091 548.658692 28.0452091 548.658692 28.6699506 555.226802 28.6699506 555.226802 28.0452091 552.303632 28.0452091 552.303632 26.291061 554.473864 26.291061"></polygon>
            <path d="M560.016733,28.9502928 C561.35857,28.9502928 562.143495,27.8689495 562.147596,25.9706934 C562.143495,24.084412 561.346267,22.9910119 560.016733,22.9910119 C558.683098,22.9910119 557.88587,24.084412 557.88587,25.9706934 C557.88587,27.8689495 558.674896,28.9502928 560.016733,28.9502928 Z M558.767578,25.9706934 C558.767578,24.528875 559.235909,23.7399307 560.016733,23.7359938 C560.793456,23.7399307 561.266708,24.528875 561.266708,25.9706934 C561.266708,27.4164487 560.797557,28.1893172 560.016733,28.1893172 C559.231808,28.1893172 558.763477,27.4164487 558.767578,25.9706934 Z" id="Shape" fill="#FFFFFF" fill-rule="nonzero"></path>
            <path d="M563.413155,28.9262611 C563.721548,28.9222422 563.977448,28.6699506 563.981549,28.3575389 C563.977448,28.0452091 563.721548,27.7888986 563.413155,27.7888986 C563.100661,27.7888986 562.84066,28.0452091 562.843941,28.3575389 C562.84066,28.6699506 563.100661,28.9222422 563.413155,28.9262611 Z" id="Path" fill="#FFFFFF" fill-rule="nonzero"></path>
            <path d="M566.808757,28.9502928 C568.150593,28.9502928 568.935519,27.8689495 568.93962,25.9706934 C568.935519,24.084412 568.13829,22.9910119 566.808757,22.9910119 C565.475122,22.9910119 564.678714,24.084412 564.678714,25.9706934 C564.678714,27.8689495 565.46774,28.9502928 566.808757,28.9502928 Z M565.559602,25.9706934 C565.559602,24.528875 566.027932,23.7399307 566.808757,23.7359938 C567.5863,23.7399307 568.058732,24.528875 568.058732,25.9706934 C568.058732,27.4164487 567.590401,28.1893172 566.808757,28.1893172 C566.023831,28.1893172 565.555501,27.4164487 565.559602,25.9706934 Z" id="Shape" fill="#FFFFFF" fill-rule="nonzero"></path>
            <path d="M571.182029,25.8265033 C571.963674,25.8344592 572.395916,25.2498252 572.400017,24.3847669 C572.395916,23.5357025 571.979257,22.9469675 571.182029,22.950966 C570.409407,22.9469675 569.95666,23.5357025 569.964862,24.3847669 C569.95666,25.2458062 570.389722,25.8344592 571.182029,25.8265033 Z M570.621837,28.8701599 L571.350169,28.8701599 L575.331389,23.0711448 L574.602237,23.0711448 L570.621837,28.8701599 Z M570.621837,24.3847669 C570.625938,23.868127 570.809661,23.5197087 571.182029,23.5116708 C571.570801,23.5076519 571.73484,23.864108 571.73484,24.3847669 C571.73484,24.9174007 571.558498,25.2618 571.182029,25.2658189 C570.809661,25.2618 570.625938,24.9174007 570.621837,24.3847669 Z M573.625386,27.5485819 C573.621285,28.4015833 574.053527,28.9903183 574.842553,28.9903183 C575.623378,28.9903183 576.05644,28.4056022 576.060541,27.5485819 C576.05644,26.6915615 575.63568,26.1028266 574.842553,26.1068251 C574.069931,26.1028266 573.621285,26.6915615 573.625386,27.5485819 Z M574.282361,27.5485819 C574.286462,27.023904 574.474286,26.6754858 574.842553,26.6675299 C575.231325,26.6675299 575.395364,27.0199671 575.395364,27.5485819 C575.395364,28.0731777 575.219022,28.421596 574.842553,28.421596 C574.470185,28.421596 574.286462,28.0731777 574.282361,27.5485819 Z" id="Shape" fill="#FFFFFF" fill-rule="nonzero"></path>
            <polygon id="Path" fill="#979797" points="370.317427 52.4923928 370.317427 3.58518122e-08 371.137621 0 371.137621 52.4923928"></polygon>
            <polygon id="Path" fill="#979797" points="444.134855 52.4923928 444.134855 3.58518122e-08 444.955048 0 444.955048 52.4923928"></polygon>
            <polygon id="Path" fill="#979797" points="517.952282 52.4923928 517.952282 3.58518122e-08 518.772476 0 518.772476 52.4923928"></polygon>
        </g>
    </g>
</svg>