<?xml version="1.0" encoding="UTF-8"?>
<svg width="593px" height="88px" viewBox="0 0 593 88" version="1.1" xmlns="http://www.w3.org/2000/svg" xmlns:xlink="http://www.w3.org/1999/xlink">
    <title>Artboard</title>
    <g id="Artboard" stroke="none" stroke-width="1" fill="none" fill-rule="evenodd">
        <g id="totalSeverity40s" transform="translate(0.000000, 9.000000)">
            <polygon id="Path" fill="#979797" points="111.956432 40.0132885 111.956432 12.5231864 112.776625 12.5231864 112.776625 40.0132885"></polygon>
            <polygon id="Path" fill="#001A5B" fill-rule="nonzero" points="6.18831999 15.9041066 29.8161712 15.9041066 29.8161712 35.5887539 6.18831999 35.5887539 0 25.7464303"></polygon>
            <path d="M292.134109,62.8017626 C293.255314,62.8089303 294.00169,62.0339293 294.00169,61.0211542 C294.00169,60.0227325 293.252033,59.309082 292.321934,59.3054732 C291.756,59.309082 291.265524,59.5685913 290.980917,60.0119059 L290.923503,60.0119059 C290.923503,58.8332877 291.391834,58.1339906 292.198905,58.1303817 C292.725469,58.1339906 293.060928,58.4404149 293.165093,58.8656853 L293.950838,58.8656853 C293.828629,58.0367156 293.161812,57.4383844 292.198905,57.4383844 C290.948109,57.4383844 290.162364,58.4764214 290.159083,60.2930683 C290.159083,62.2213436 291.168741,62.7944949 292.134109,62.8017626 Z M291.017006,61.0427253 C291.024387,60.4624383 291.510762,59.9506375 292.148873,59.9542264 C292.775501,59.9506375 293.229888,60.4372584 293.229888,61.0355076 C293.229888,61.6446654 292.758277,62.1348951 292.126728,62.138504 C291.485336,62.1348951 291.020286,61.6230943 291.017006,61.0427253 Z" id="Shape" fill="#001A5B" fill-rule="nonzero"></path>
            <path d="M296.661578,62.8017126 C297.868903,62.8017126 298.57509,61.8284708 298.579191,60.1200075 C298.57509,58.4223707 297.858241,57.4383844 296.661578,57.4383844 C295.460815,57.4383844 294.743965,58.4223707 294.743965,60.1200075 C294.743965,61.8284708 295.454253,62.8017126 296.661578,62.8017126 Z M295.537093,60.1200075 C295.537093,58.8224611 295.958672,58.1124195 296.661578,58.1088106 C297.360383,58.1124195 297.786064,58.8224611 297.786064,60.1200075 C297.786064,61.4212447 297.364484,62.1168509 296.661578,62.1168509 C295.954571,62.1168509 295.532992,61.4212447 295.537093,60.1200075 Z" id="Shape" fill="#001A5B" fill-rule="nonzero"></path>
            <path d="M301.166902,62.7296176 C302.756437,62.7296176 303.671773,61.7420224 303.675874,60.1127897 C303.671773,58.487248 302.756437,57.5104794 301.216934,57.5104794 L299.473202,57.5104794 L299.473202,62.7296176 L301.166902,62.7296176 Z M300.265509,62.0375382 L300.265509,58.2024767 L301.166902,58.2024767 C302.306151,58.2024767 302.890129,58.8837296 302.890129,60.1127897 C302.890129,61.3455408 302.306151,62.0339293 301.123432,62.0375382 L300.265509,62.0375382 Z" id="Shape" fill="#001A5B" fill-rule="nonzero"></path>
            <path d="M275.65888,66.5806727 L275.15282,66.5806727 L275.15282,69.9511765 L273.973382,69.9511765 L273.973382,70.3164087 L275.15282,70.3164087 L275.15282,70.9058819 L275.65888,70.9058819 L275.65888,66.5806727 Z M270.929643,69.22063 L271.00018,69.6307268 C271.477533,69.6307268 272.025422,69.6307268 272.602018,69.6083355 L272.602018,70.707231 L273.108077,70.707231 L273.108077,69.5826635 C273.630541,69.5506759 274.166127,69.4994138 274.672187,69.4192809 L274.640199,69.0540487 C273.418931,69.2046362 271.990154,69.2142325 270.929643,69.22063 Z M271.391398,67.8045657 C271.388131,68.4133134 271.958166,68.7913406 272.800505,68.7913406 C273.637102,68.7913406 274.207137,68.4133134 274.210418,67.8045657 C274.207137,67.2054142 273.637102,66.8113112 272.800505,66.8113112 C271.958166,66.8113112 271.388131,67.2054142 271.391398,67.8045657 Z M271.749837,72.1489673 L275.799953,72.1489673 L275.799953,71.7260755 L272.255896,71.7260755 L272.255896,70.48299 L271.749837,70.48299 L271.749837,72.1489673 Z M271.872046,67.8045657 C271.865484,67.4393335 272.243593,67.1894205 272.800505,67.195818 C273.342653,67.1894205 273.726503,67.4393335 273.729784,67.8045657 C273.726503,68.1761954 273.342653,68.4165122 272.800505,68.4197109 C272.243593,68.4165122 271.865484,68.1761954 271.872046,67.8045657 Z" id="Shape" fill="#001A5B" fill-rule="nonzero"></path>
            <path d="M280.304456,68.1057408 L280.304456,67.0676217 L279.804959,67.0676217 L279.804959,68.1057408 C279.798397,69.1854437 279.096311,70.2747429 278.247411,70.6623664 L278.568107,71.0853402 C279.234104,70.7488968 279.795116,70.0280286 280.057578,69.1693679 C280.329882,69.9799653 280.890895,70.6559689 281.541308,70.969939 L281.848881,70.5727192 C281.009003,70.1914112 280.301176,69.1469766 280.304456,68.1057408 Z M282.470588,72.2835611 L282.976647,72.2835611 L282.976647,66.5742752 L282.470588,66.5742752 L282.470588,72.2835611 Z" id="Shape" fill="#001A5B" fill-rule="nonzero"></path>
            <path d="M314.861675,67.7404265 L310.991181,67.7404265 L310.991181,68.1505234 L314.361357,68.1505234 L314.361357,68.1825929 C314.364638,68.6664252 314.364638,69.2270275 314.211261,70.0152336 L310.330925,70.0152336 L310.330925,70.4381254 L315.547357,70.4381254 L315.547357,70.0152336 L314.710759,70.0152336 C314.861675,69.2399045 314.861675,68.6631444 314.861675,68.1825929 L314.861675,67.7404265 Z M311.023169,72.9627635 L315.034736,72.9627635 L315.034736,72.5398716 L311.522667,72.5398716 L311.522667,71.0789427 L311.023169,71.0789427 L311.023169,72.9627635 Z" id="Shape" fill="#001A5B" fill-rule="nonzero"></path>
            <path d="M319.673751,68.9259344 L319.673751,67.8878153 L319.174253,67.8878153 L319.174253,68.9259344 C319.167692,70.0056373 318.465606,71.0949365 317.616705,71.48256 L317.937401,71.9055339 C318.603398,71.5690904 319.164411,70.8482223 319.426873,69.9895615 C319.699177,70.8001589 320.260189,71.4761625 320.910603,71.7901326 L321.218176,71.3929128 C320.378297,71.0116048 319.67047,69.9671702 319.673751,68.9259344 Z M321.839882,73.1037548 L322.345942,73.1037548 L322.345942,67.3944689 L321.839882,67.3944689 L321.839882,73.1037548 Z" id="Shape" fill="#001A5B" fill-rule="nonzero"></path>
            <path d="M70.5630631,63.6219062 C71.6516241,63.6219062 72.4229342,62.8829938 72.4229342,61.8557012 C72.4229342,60.8501438 71.6984571,60.1220579 70.7144708,60.1184491 C70.3179892,60.1220579 69.9503784,60.2626391 69.7340934,60.4716245 L69.6836515,60.4716245 L69.8566303,59.008317 L72.1562072,59.008317 L72.1562072,58.330673 L69.2006394,58.330673 L68.8618174,61.2357989 L69.6115564,61.2357989 C69.7881441,60.9150211 70.1089219,60.77444 70.5270566,60.77444 C71.1830474,60.7816577 71.6516241,61.2430166 71.6516241,61.8773543 C71.6516241,62.4973387 71.1974828,62.9550888 70.5630631,62.9586976 C70.0368268,62.9550888 69.6115564,62.6307022 69.5682502,62.1873055 L68.7969401,62.1873055 C68.8330286,63.0199661 69.5754679,63.6219062 70.5630631,63.6219062 Z" id="Path" fill="#001A5B" fill-rule="nonzero"></path>
            <path d="M73.1510201,62.5333452 L75.6884531,62.5333452 L75.6884531,63.5498112 L76.4381921,63.5498112 L76.4381921,62.5333452 L77.1518426,62.5333452 L77.1518426,61.8629189 L76.4381921,61.8629189 L76.4381921,58.330673 L75.4578147,58.330673 L73.1510201,61.8917897 L73.1510201,62.5333452 Z M73.9872075,61.8629189 L73.9872075,61.8196947 L75.6307935,59.275044 L75.6884531,59.275044 L75.6884531,61.8629189 L73.9872075,61.8629189 Z" id="Shape" fill="#001A5B" fill-rule="nonzero"></path>
            <path d="M79.7181465,63.5498112 C81.3076817,63.5498112 82.223592,62.562216 82.2268728,60.9329834 C82.223592,59.3074416 81.3076817,58.330673 79.7686704,58.330673 L78.0241185,58.330673 L78.0241185,63.5498112 L79.7181465,63.5498112 Z M78.8170817,62.8577318 L78.8170817,59.0226704 L79.7181465,59.0226704 C80.8571494,59.0226704 81.4410452,59.7039232 81.4410452,60.9329834 C81.4410452,62.1657344 80.8571494,62.8541229 79.6749223,62.8577318 L78.8170817,62.8577318 Z" id="Shape" fill="#001A5B" fill-rule="nonzero"></path>
            <path d="M144.423797,63.6219062 C145.512194,63.6219062 146.283996,62.8829938 146.283996,61.8557012 C146.283996,60.8501438 145.558945,60.1220579 144.575533,60.1184491 C144.178559,60.1220579 143.811112,60.2626391 143.594581,60.4716245 L143.544549,60.4716245 L143.71761,59.008317 L146.016613,59.008317 L146.016613,58.330673 L143.061455,58.330673 L142.722715,61.2357989 L143.472372,61.2357989 C143.648714,60.9150211 143.969409,60.77444 144.387708,60.77444 C145.043863,60.7816577 145.512194,61.2430166 145.512194,61.8773543 C145.512194,62.4973387 145.057806,62.9550888 144.423797,62.9586976 C143.897232,62.9550888 143.472372,62.6307022 143.428902,62.1873055 L142.65792,62.1873055 C142.694008,63.0199661 143.436284,63.6219062 144.423797,63.6219062 Z" id="Path" fill="#001A5B" fill-rule="nonzero"></path>
            <path d="M149.016061,63.6219562 C150.136445,63.6291239 150.882822,62.8541229 150.882822,61.8413478 C150.882822,60.8429261 150.133165,60.1292756 149.203065,60.1256668 C148.637131,60.1292756 148.147476,60.3887849 147.862048,60.8320996 L147.804635,60.8320996 C147.804635,59.6534813 148.272965,58.9541842 149.080856,58.9505754 C149.6066,58.9541842 149.942059,59.2606086 150.046224,59.685879 L150.83197,59.685879 C150.709761,58.8569093 150.042943,58.258578 149.080856,58.258578 C147.830061,58.258578 147.044315,59.2966151 147.040214,61.1132619 C147.040214,63.0415372 148.049873,63.6146885 149.016061,63.6219562 Z M147.898137,61.8629189 C147.905519,61.2826319 148.391893,60.7708311 149.030004,60.77442 C149.657452,60.7708311 150.11184,61.257452 150.11184,61.8557012 C150.11184,62.464859 149.639408,62.9550888 149.008679,62.9586976 C148.367288,62.9550888 147.902238,62.443288 147.898137,61.8629189 Z" id="Shape" fill="#001A5B" fill-rule="nonzero"></path>
            <path d="M153.492678,63.5498112 C155.082213,63.5498112 155.997549,62.562216 156.00083,60.9329834 C155.997549,59.3074416 155.082213,58.330673 153.54271,58.330673 L151.798158,58.330673 L151.798158,63.5498112 L153.492678,63.5498112 Z M152.591285,62.8577318 L152.591285,59.0226704 L153.492678,59.0226704 C154.631107,59.0226704 155.215084,59.7039232 155.215084,60.9329834 C155.215084,62.1657344 154.631107,62.8541229 153.449207,62.8577318 L152.591285,62.8577318 Z" id="Shape" fill="#001A5B" fill-rule="nonzero"></path>
            <path d="M218.259268,63.6219062 C219.347665,63.6219062 220.119467,62.8829938 220.119467,61.8557012 C220.119467,60.8501438 219.394416,60.1220579 218.411004,60.1184491 C218.01403,60.1220579 217.646584,60.2626391 217.430053,60.4716245 L217.380021,60.4716245 L217.553082,59.008317 L219.852084,59.008317 L219.852084,58.330673 L216.896927,58.330673 L216.558187,61.2357989 L217.307844,61.2357989 C217.484185,60.9150211 217.804881,60.77444 218.22318,60.77444 C218.879335,60.7816577 219.347665,61.2430166 219.347665,61.8773543 C219.347665,62.4973387 218.893278,62.9550888 218.259268,62.9586976 C217.732704,62.9550888 217.307844,62.6307022 217.264373,62.1873055 L216.493391,62.1873055 C216.52948,63.0199661 217.271755,63.6219062 218.259268,63.6219062 Z" id="Path" fill="#001A5B" fill-rule="nonzero"></path>
            <path d="M222.785917,63.6219062 C223.903841,63.6219062 224.700249,63.0091395 224.70353,62.1585167 C224.700249,61.4880904 224.217155,60.9402011 223.607751,60.846535 L223.607751,60.8176642 C224.134315,60.6951272 224.498481,60.2193329 224.501762,59.6498725 C224.498481,58.8460827 223.770149,58.258578 222.785917,58.258578 C221.787741,58.258578 221.06351,58.8460827 221.06351,59.6498725 C221.06351,60.2193329 221.420295,60.6951272 221.957521,60.8176642 L221.957521,60.846535 C221.340736,60.9402011 220.861743,61.4880904 220.869124,62.1585167 C220.861743,63.0091395 221.650769,63.6219062 222.785917,63.6219062 Z M221.676195,62.1008571 C221.665533,61.5637943 222.137144,61.1709216 222.785917,61.1709216 C223.428129,61.1709216 223.896459,61.5637943 223.896459,62.1008571 C223.896459,62.6126579 223.464217,62.9659153 222.785917,62.9659153 C222.097775,62.9659153 221.665533,62.6126579 221.676195,62.1008571 Z M221.834492,59.7219675 C221.838593,59.2353466 222.213422,58.9037423 222.785917,58.9073512 C223.345289,58.9037423 223.726679,59.2353466 223.723398,59.7219675 C223.726679,60.2121152 223.330526,60.5473283 222.785917,60.5437195 C222.227365,60.5473283 221.838593,60.2085063 221.834492,59.7219675 Z" id="Shape" fill="#001A5B" fill-rule="nonzero"></path>
            <path d="M227.292061,63.5498112 C228.881596,63.5498112 229.796932,62.562216 229.800213,60.9329834 C229.796932,59.3074416 228.881596,58.330673 227.342093,58.330673 L225.597541,58.330673 L225.597541,63.5498112 L227.292061,63.5498112 Z M226.390668,62.8577318 L226.390668,59.0226704 L227.292061,59.0226704 C228.43049,59.0226704 229.014467,59.7039232 229.014467,60.9329834 C229.014467,62.1657344 228.43049,62.8541229 227.248591,62.8577318 L226.390668,62.8577318 Z" id="Shape" fill="#001A5B" fill-rule="nonzero"></path>
            <path d="M365.926111,62.8017626 C367.047315,62.8089303 367.793692,62.0339293 367.793692,61.0211542 C367.793692,60.0227325 367.044035,59.309082 366.113935,59.3054732 C365.548001,59.309082 365.057526,59.5685913 364.772918,60.0119059 L364.715505,60.0119059 C364.715505,58.8332877 365.183835,58.1339906 365.991726,58.1303817 C366.51747,58.1339906 366.852929,58.4404149 366.957094,58.8656853 L367.74284,58.8656853 C367.620631,58.0367156 366.953813,57.4383844 365.991726,57.4383844 C364.740931,57.4383844 363.955185,58.4764214 363.951084,60.2930683 C363.951084,62.2213436 364.960743,62.7944949 365.926111,62.8017626 Z M364.809007,61.0427253 C364.816389,60.4624383 365.302763,59.9506375 365.940874,59.9542264 C366.568322,59.9506375 367.021889,60.4372584 367.021889,61.0355076 C367.021889,61.6446654 366.550278,62.1348951 365.919549,62.138504 C365.277337,62.1348951 364.813108,61.6230943 364.809007,61.0427253 Z" id="Shape" fill="#001A5B" fill-rule="nonzero"></path>
            <path d="M370.489668,62.8017126 C371.570683,62.8017126 372.374473,62.1636839 372.371212,61.2950169 C372.374473,60.6354171 371.960275,60.156096 371.246707,60.0551301 L371.246707,60.0191236 C371.808539,59.8785424 372.176806,59.45319 372.169425,58.8584676 C372.176806,58.0871575 371.531314,57.4383844 370.504432,57.4383844 C369.530862,57.4383844 368.745116,58.0150625 368.723791,58.8656853 L369.487391,58.8656853 C369.505436,58.3935819 369.974586,58.1015929 370.49705,58.1015929 C371.04822,58.1015929 371.405004,58.4259795 371.405004,58.9017738 C371.405004,59.4027481 370.990806,59.7343524 370.396166,59.7307436 L369.94916,59.7307436 L369.94916,60.3795167 L370.396166,60.3795167 C371.141722,60.3831256 371.570683,60.7508184 371.570683,61.2662281 C371.570683,61.77442 371.113015,62.1168509 370.482286,62.1168509 C369.898308,62.1168509 369.444741,61.8248619 369.415214,61.3671119 L368.608144,61.3671119 C368.640952,62.2213436 369.408653,62.8017126 370.489668,62.8017126 Z" id="Path" fill="#001A5B" fill-rule="nonzero"></path>
            <path d="M375.009755,62.7296176 C376.59929,62.7296176 377.514627,61.7420224 377.517907,60.1127897 C377.514627,58.487248 376.59929,57.5104794 375.059787,57.5104794 L373.315235,57.5104794 L373.315235,62.7296176 L375.009755,62.7296176 Z M374.108362,62.0375382 L374.108362,58.2024767 L375.009755,58.2024767 C376.148184,58.2024767 376.732162,58.8837296 376.732162,60.1127897 C376.732162,61.3455408 376.148184,62.0339293 374.966285,62.0375382 L374.108362,62.0375382 Z" id="Shape" fill="#001A5B" fill-rule="nonzero"></path>
            <path d="M439.747639,62.8017626 C440.868844,62.8089303 441.6144,62.0339293 441.6144,61.0211542 C441.6144,60.0227325 440.864743,59.309082 439.934643,59.3054732 C439.36871,59.309082 438.879054,59.5685913 438.594447,60.0119059 L438.536213,60.0119059 C438.536213,58.8332877 439.005364,58.1339906 439.812434,58.1303817 C440.338999,58.1339906 440.673638,58.4404149 440.778622,58.8656853 L441.564368,58.8656853 C441.441339,58.0367156 440.774521,57.4383844 439.812434,57.4383844 C438.561639,57.4383844 437.775893,58.4764214 437.772613,60.2930683 C437.772613,62.2213436 438.781451,62.7944949 439.747639,62.8017626 Z M438.630535,61.0427253 C438.637097,60.4624383 439.124292,59.9506375 439.761582,59.9542264 C440.38903,59.9506375 440.843418,60.4372584 440.843418,61.0355076 C440.843418,61.6446654 440.370986,62.1348951 439.740257,62.138504 C439.098866,62.1348951 438.633816,61.6230943 438.630535,61.0427253 Z" id="Shape" fill="#001A5B" fill-rule="nonzero"></path>
            <path d="M444.346465,62.8017626 C445.467669,62.8089303 446.214046,62.0339293 446.214046,61.0211542 C446.214046,60.0227325 445.464389,59.309082 444.534289,59.3054732 C443.968355,59.309082 443.47788,59.5685913 443.193272,60.0119059 L443.135859,60.0119059 C443.135859,58.8332877 443.604189,58.1339906 444.41126,58.1303817 C444.937824,58.1339906 445.273284,58.4404149 445.377448,58.8656853 L446.163194,58.8656853 C446.040985,58.0367156 445.374167,57.4383844 444.41126,57.4383844 C443.160465,57.4383844 442.374719,58.4764214 442.371438,60.2930683 C442.371438,62.2213436 443.381097,62.7944949 444.346465,62.8017626 Z M443.229361,61.0427253 C443.236743,60.4624383 443.723118,59.9506375 444.361228,59.9542264 C444.988676,59.9506375 445.442243,60.4372584 445.442243,61.0355076 C445.442243,61.6446654 444.970632,62.1348951 444.339903,62.138504 C443.697692,62.1348951 443.232642,61.6230943 443.229361,61.0427253 Z" id="Shape" fill="#001A5B" fill-rule="nonzero"></path>
            <path d="M448.823082,62.7296176 C450.412617,62.7296176 451.328773,61.7420224 451.332054,60.1127897 C451.328773,58.487248 450.412617,57.5104794 448.873934,57.5104794 L447.129382,57.5104794 L447.129382,62.7296176 L448.823082,62.7296176 Z M447.922509,62.0375382 L447.922509,58.2024767 L448.823082,58.2024767 C449.962331,58.2024767 450.546308,58.8837296 450.546308,60.1127897 C450.546308,61.3455408 449.962331,62.0339293 448.780432,62.0375382 L447.922509,62.0375382 Z" id="Shape" fill="#001A5B" fill-rule="nonzero"></path>
            <path d="M513.565066,62.8017626 C514.686271,62.8089303 515.431827,62.0340113 515.431827,61.0211542 C515.431827,60.0227325 514.68217,59.309082 513.752071,59.3054732 C513.186137,59.309082 512.696481,59.5685913 512.411874,60.011988 L512.35364,60.011988 C512.35364,58.8332877 512.822791,58.1340726 513.629862,58.1304637 C514.156426,58.1340726 514.491065,58.4404149 514.59605,58.8657673 L515.381795,58.8657673 C515.258766,58.0367976 514.591949,57.4384664 513.629862,57.4384664 C512.379066,57.4384664 511.593321,58.4765034 511.59004,60.2930683 C511.59004,62.2214256 512.598878,62.7944949 513.565066,62.8017626 Z M512.447963,61.0428073 C512.454524,60.4625203 512.941719,59.9506375 513.57901,59.9542264 C514.206458,59.9506375 514.660845,60.4372584 514.660845,61.0355896 C514.660845,61.6447474 514.188414,62.1348951 513.557685,62.138504 C512.916293,62.1348951 512.451243,61.6230943 512.447963,61.0428073 Z" id="Shape" fill="#001A5B" fill-rule="nonzero"></path>
            <path d="M518.07039,57.4384166 C516.935242,57.4312487 516.196248,58.2097765 516.196248,59.2045893 C516.196248,60.203011 516.945905,60.9202704 517.883386,60.9202704 C518.445219,60.9202704 518.935694,60.6535434 519.217021,60.2137556 L519.281816,60.2137556 C519.274434,61.4068093 518.802003,62.1061063 517.998213,62.1097152 C517.472469,62.1061063 517.132909,61.799682 517.025463,61.3599762 L516.239718,61.3599762 C516.365207,62.2069902 517.036126,62.8017126 517.998213,62.8017126 C519.249008,62.8017126 520.038035,61.7636755 520.038035,59.9326752 C520.034754,58.0223622 519.029196,57.4456021 518.07039,57.4384166 Z M516.967213,59.1901539 C516.963949,58.5918227 517.439661,58.101675 518.07039,58.101675 C518.708501,58.101675 519.17355,58.6170846 519.17355,59.1829362 C519.17355,59.7596144 518.687176,60.2751061 518.055627,60.2715175 C517.421617,60.2751061 516.971331,59.7957029 516.967213,59.1901539 Z" id="Shape" fill="#001A5B" fill-rule="nonzero"></path>
            <path d="M522.640509,62.7296176 C524.230044,62.7296176 525.146201,61.7420224 525.149481,60.1128718 C525.146201,58.48733 524.230044,57.5105614 522.691361,57.5105614 L520.946809,57.5105614 L520.946809,62.7296176 L522.640509,62.7296176 Z M521.739936,62.0376202 L521.739936,58.2025588 L522.640509,58.2025588 C523.779758,58.2025588 524.363736,58.8838116 524.363736,60.1128718 C524.363736,61.3455408 523.779758,62.0340113 522.597859,62.0376202 L521.739936,62.0376202 Z" id="Shape" fill="#001A5B" fill-rule="nonzero"></path>
            <polygon id="Path" fill="#979797" points="38.1390041 40.0132885 38.1390041 12.5231864 38.9591978 12.5231864 38.9591978 40.0132885"></polygon>
            <polygon id="Path" fill="#979797" points="185.773859 40.0132885 185.773859 12.5231864 186.594053 12.5231864 186.594053 40.0132885"></polygon>
            <polygon id="Path" fill="#979797" points="259.591286 40.0132885 259.591286 12.5231864 260.41148 12.5231864 260.41148 40.0132885"></polygon>
            <polygon id="Path" fill="#979797" points="321.105809 40.0132885 321.105809 12.5231864 321.926003 12.5231864 321.926003 40.0132885"></polygon>
            <polygon id="Path" fill="#979797" points="345.711618 40.0132885 345.711618 12.5231864 346.531812 12.5231864 346.531812 40.0132885"></polygon>
            <polygon id="Path" fill="#979797" points="394.923237 40.0132885 394.923237 12.5231864 395.74343 12.5231864 395.74343 40.0132885"></polygon>
            <polygon id="Path" fill="#979797" points="419.529046 40.0132885 419.529046 12.5231864 420.349239 12.5231864 420.349239 40.0132885"></polygon>
            <polygon id="Path" fill="#979797" points="468.740664 40.0132885 468.740664 12.5231864 469.560858 12.5231864 469.560858 40.0132885"></polygon>
            <polygon id="Path" fill="#979797" points="493.346473 40.0132885 493.346473 12.5231864 494.166667 12.5231864 494.166667 40.0132885"></polygon>
            <polygon id="Path" fill="#979797" points="542.558091 40.0132885 542.558091 12.5231864 543.378285 12.5231864 543.378285 40.0132885"></polygon>
            <polygon id="Path" fill="#979797" points="567.1639 40.0132885 567.1639 12.5231864 567.984094 12.5231864 567.984094 40.0132885"></polygon>
            <rect id="Rectangle" fill="#E2E6F6" fill-rule="nonzero" x="223.092669" y="15.9041066" width="73.8174274" height="19.6846473"></rect>
            <path d="M246.224591,22.1780958 L245.463451,22.1780958 L245.463451,23.4516105 L243.905903,23.4516105 C243.954295,23.2112938 243.982181,22.9549832 243.982181,22.6907169 L240.698126,22.6907169 L240.698126,23.3154584 L243.157066,23.3154584 C243.020914,24.4728336 242.02766,25.3859552 240.329859,25.8705256 L240.634151,26.4632795 C242.187598,26.0187346 243.265332,25.2057586 243.729562,24.0523203 L245.463451,24.0523203 L245.463451,24.9254164 L243.653284,24.9254164 L243.653284,25.5501579 L245.463451,25.5501579 L245.463451,26.423172 L246.224591,26.423172 L246.224591,22.1780958 Z M241.442862,27.9050159 C241.442862,28.77803 242.387725,29.3146827 243.861613,29.3146827 C245.315816,29.3146827 246.268881,28.77803 246.272982,27.9050159 C246.268881,27.0359387 245.315816,26.5073239 243.861613,26.503305 C242.387725,26.5073239 241.442862,27.0359387 241.442862,27.9050159 Z M242.195799,27.9050159 C242.195799,27.3923949 242.836371,27.0999958 243.861613,27.1040148 C244.86717,27.0999958 245.507741,27.3923949 245.511842,27.9050159 C245.507741,28.409599 244.86717,28.701998 243.861613,28.705935 C242.836371,28.701998 242.195799,28.409599 242.195799,27.9050159 Z" id="Shape" fill="#113287" fill-rule="nonzero"></path>
            <polygon id="Path" fill="#113287" fill-rule="nonzero" points="253.145385 25.4780629 248.908264 25.4780629 248.908264 23.33949 253.080589 23.33949 253.080589 22.7227044 248.147124 22.7227044 248.147124 26.0868106 250.221394 26.0868106 250.221394 27.8409588 247.330212 27.8409588 247.330212 28.4657003 253.898322 28.4657003 253.898322 27.8409588 250.974332 27.8409588 250.974332 26.0868106 253.145385 26.0868106"></polygon>
            <path d="M256.669757,28.6659095 L260.569777,28.6659095 L260.569777,27.9130538 L257.895126,27.9130538 L257.895126,27.8649904 L259.072104,26.6715267 C260.161321,25.6022402 260.465613,25.0856003 260.473815,24.4368271 C260.465613,23.4956549 259.69299,22.7868436 258.575887,22.7868436 C257.470266,22.7868436 256.661555,23.487617 256.669757,24.5489476 L257.502253,24.5489476 C257.506354,23.9321619 257.914811,23.5237055 258.559483,23.5237055 C259.168066,23.5237055 259.633116,23.8881176 259.633116,24.4608588 C259.633116,24.9694608 259.316521,25.3378918 258.680051,25.9987218 L256.669757,28.0251743 L256.669757,28.6659095 Z" id="Path" fill="#113287" fill-rule="nonzero"></path>
            <path d="M261.290728,27.5365849 L264.110553,27.5365849 L264.110553,28.6659095 L264.94305,28.6659095 L264.94305,27.5365849 L265.736177,27.5365849 L265.736177,26.791685 L264.94305,26.791685 L264.94305,22.8668945 L263.853833,22.8668945 L261.290728,26.8236726 L261.290728,27.5365849 Z M262.220007,26.791685 L262.220007,26.7436217 L264.046578,23.9161682 L264.110553,23.9161682 L264.110553,26.791685 L262.220007,26.791685 Z" id="Shape" fill="#113287" fill-rule="nonzero"></path>
            <path d="M266.97795,28.7220108 C267.286343,28.7179918 267.542243,28.4657003 267.546344,28.1532885 C267.542243,27.8409588 267.286343,27.5846483 266.97795,27.5846483 C266.665456,27.5846483 266.405455,27.8409588 266.408736,28.1532885 C266.405455,28.4657003 266.665456,28.7179918 266.97795,28.7220108 Z" id="Path" fill="#113287" fill-rule="nonzero"></path>
            <path d="M270.453931,28.7460971 C271.699805,28.7539983 272.528201,27.892959 272.528201,26.7676534 C272.528201,25.6582595 271.695704,24.8652963 270.66226,24.8613593 C270.033172,24.8652963 269.488563,25.1536763 269.172788,25.6462846 L269.108813,25.6462846 C269.108813,24.3366815 269.628816,23.559712 270.526108,23.5557751 C271.110906,23.559712 271.483274,23.9001744 271.599741,24.372688 L272.472427,24.372688 C272.336275,23.4516105 271.59564,22.7868436 270.526108,22.7868436 C269.1367,22.7868436 268.263194,23.9401998 268.259093,25.9586144 C268.259093,28.1012062 269.381118,28.7380045 270.453931,28.7460971 Z M269.212158,26.791685 C269.22036,26.1468488 269.760867,25.5782086 270.470335,25.5822052 C271.166679,25.5782086 271.671918,26.1188802 271.671918,26.7836471 C271.671918,27.4604709 271.146994,28.0051615 270.445729,28.0090985 C269.732981,28.0051615 269.216259,27.4364393 269.212158,26.791685 Z" id="Shape" fill="#113287" fill-rule="nonzero"></path>
            <path d="M274.795216,25.622253 C275.57604,25.6302088 276.009102,25.0455748 276.012383,24.1805166 C276.009102,23.3314521 275.592444,22.7427171 274.795216,22.7467156 C274.022593,22.7427171 273.569846,23.3314521 273.578048,24.1805166 C273.569846,25.0415559 274.002089,25.6302088 274.795216,25.622253 Z M274.235024,28.6659095 L274.963355,28.6659095 L278.944575,22.8668945 L278.215423,22.8668945 L274.235024,28.6659095 Z M274.235024,24.1805166 C274.238304,23.6638766 274.422848,23.3154584 274.795216,23.3074205 C275.183988,23.3034015 275.348026,23.6598577 275.348026,24.1805166 C275.348026,24.7131503 275.171685,25.0575496 274.795216,25.0615686 C274.422848,25.0575496 274.238304,24.7131503 274.235024,24.1805166 Z M277.238573,27.3443315 C277.234472,28.1973329 277.666714,28.7860679 278.45574,28.7860679 C279.236564,28.7860679 279.668806,28.2013519 279.672907,27.3443315 C279.668806,26.4873112 279.248867,25.8985762 278.45574,25.9025747 C277.683118,25.8985762 277.234472,26.4873112 277.238573,27.3443315 Z M277.894728,27.3443315 C277.898828,26.8196537 278.087473,26.4712354 278.45574,26.4632795 C278.844512,26.4632795 279.00855,26.8157167 279.00855,27.3443315 C279.00855,27.8689274 278.832209,28.2173456 278.45574,28.2173456 C278.083372,28.2173456 277.898828,27.8689274 277.894728,27.3443315 Z" id="Shape" fill="#113287" fill-rule="nonzero"></path>
            <rect id="Rectangle" fill="#5B6EB4" fill-rule="nonzero" x="149.275242" y="15.9041066" width="73.8174274" height="19.6846473"></rect>
            <path d="M175.302447,25.325917 L168.758942,25.325917 L168.758942,25.9426206 L171.650124,25.9426206 L171.650124,26.6315012 C170.31649,26.6995773 169.535665,27.1441223 169.535665,27.896978 C169.535665,28.7099539 170.464945,29.1665557 172.026593,29.1625631 C173.568557,29.1665557 174.497837,28.7099539 174.501938,27.896978 C174.497837,27.1441223 173.717012,26.7035142 172.403062,26.6315012 L172.403062,25.9426206 L175.302447,25.9426206 L175.302447,25.325917 Z M169.103423,24.3487383 L169.367526,24.9494481 C170.6134,24.8052581 171.634541,24.2805802 172.030694,23.5196866 C172.419466,24.2805802 173.448809,24.8052581 174.693863,24.9494481 L174.966167,24.3487383 C173.653037,24.2165231 172.643379,23.635826 172.539214,22.9389895 L174.718469,22.9389895 L174.718469,22.3302418 L169.359324,22.3302418 L169.359324,22.9389895 L171.513972,22.9389895 C171.409808,23.631807 170.392768,24.2165231 169.103423,24.3487383 Z M170.304987,27.896978 C170.300906,27.452433 170.929174,27.2121983 172.026593,27.2081794 C173.108429,27.2121983 173.740798,27.452433 173.740798,27.896978 C173.740798,28.333485 173.108429,28.5858586 172.026593,28.5778207 C170.929174,28.5858586 170.300906,28.333485 170.304987,27.896978 Z" id="Shape" fill="#FFFFFF" fill-rule="nonzero"></path>
            <polygon id="Path" fill="#FFFFFF" fill-rule="nonzero" points="181.662228 25.3098412 177.425108 25.3098412 177.425108 23.1712683 181.598253 23.1712683 181.598253 22.5544827 176.664788 22.5544827 176.664788 25.9185889 178.739058 25.9185889 178.739058 27.6727371 175.847055 27.6727371 175.847055 28.2974785 182.415166 28.2974785 182.415166 27.6727371 179.491996 27.6727371 179.491996 25.9185889 181.662228 25.9185889"></polygon>
            <path d="M187.205097,28.5778207 C188.546934,28.5778207 189.331859,27.4964774 189.33596,25.5982213 C189.331859,23.71194 188.534631,22.6186218 187.205097,22.6186218 C185.871462,22.6186218 185.074234,23.71194 185.074234,25.5982213 C185.074234,27.4964774 185.86326,28.5778207 187.205097,28.5778207 Z M185.955942,25.5982213 C185.955942,24.1564849 186.424272,23.3675406 187.205097,23.3635217 C187.98182,23.3675406 188.455072,24.1564849 188.455072,25.5982213 C188.455072,27.0439766 187.985921,27.8169271 187.205097,27.8169271 C186.420172,27.8169271 185.951841,27.0439766 185.955942,25.5982213 Z" id="Shape" fill="#FFFFFF" fill-rule="nonzero"></path>
            <path d="M190.601519,28.5537891 C190.909911,28.5497701 191.165812,28.2974785 191.169913,27.9850668 C191.165812,27.6727371 190.909911,27.4164265 190.601519,27.4164265 C190.289025,27.4164265 190.029024,27.6727371 190.032304,27.9850668 C190.029024,28.2974785 190.289025,28.5497701 190.601519,28.5537891 Z" id="Path" fill="#FFFFFF" fill-rule="nonzero"></path>
            <path d="M192.067205,27.3683632 L194.88621,27.3683632 L194.88621,28.4976878 L195.719527,28.4976878 L195.719527,27.3683632 L196.512654,27.3683632 L196.512654,26.6234633 L195.719527,26.6234633 L195.719527,22.6986727 L194.63031,22.6986727 L192.067205,26.6554509 L192.067205,27.3683632 Z M192.996484,26.6234633 L192.996484,26.5754 L194.822235,23.7479465 L194.88621,23.7479465 L194.88621,26.6234633 L192.996484,26.6234633 Z" id="Shape" fill="#FFFFFF" fill-rule="nonzero"></path>
            <path d="M198.731278,25.4540312 C199.512102,25.4620691 199.944344,24.8773531 199.948445,24.0122949 C199.944344,23.1632304 199.528506,22.5745774 198.731278,22.5784947 C197.957835,22.5745774 197.505909,23.1632304 197.51329,24.0122949 C197.505909,24.8733341 197.938151,25.4620691 198.731278,25.4540312 Z M198.170266,28.4976878 L198.899418,28.4976878 L202.879817,22.6986727 L202.151485,22.6986727 L198.170266,28.4976878 Z M198.170266,24.0122949 C198.174367,23.4956549 198.35891,23.1472366 198.731278,23.1391987 C199.11923,23.1352618 199.284089,23.4916359 199.284089,24.0122949 C199.284089,24.5449286 199.107747,24.8893279 198.731278,24.8933469 C198.35891,24.8893279 198.174367,24.5449286 198.170266,24.0122949 Z M201.173815,27.1761098 C201.169714,28.0291932 201.602776,28.6178462 202.391802,28.6178462 C203.172627,28.6178462 203.604869,28.0331301 203.60897,27.1761098 C203.604869,26.3190895 203.184929,25.7303545 202.391802,25.734353 C201.61836,25.7303545 201.169714,26.3190895 201.173815,27.1761098 Z M201.83079,27.1761098 C201.834891,26.651514 202.023535,26.3030957 202.391802,26.2950578 C202.779754,26.2950578 202.944613,26.647495 202.944613,27.1761098 C202.944613,27.7007877 202.768271,28.0492059 202.391802,28.0492059 C202.019434,28.0492059 201.834891,27.7007877 201.83079,27.1761098 Z" id="Shape" fill="#FFFFFF" fill-rule="nonzero"></path>
            <rect id="Rectangle" fill="#113287" fill-rule="nonzero" x="75.4578147" y="15.9041066" width="73.8174274" height="19.6846473"></rect>
            <path d="M101.865589,22.8509007 L96.7475809,22.8509007 L96.7475809,23.4676043 L101.10527,23.4676043 L101.10527,23.5557751 C101.101169,24.4168144 101.101169,25.4340185 100.824763,26.8236726 L101.593285,26.9038055 C101.861488,25.4340185 101.861488,24.440846 101.865589,23.5557751 L101.865589,22.8509007 Z M96.0586183,28.3695736 L102.602943,28.3695736 L102.602943,27.7367942 L99.3024841,27.7367942 L99.3024841,25.2057586 L98.5495463,25.2057586 L98.5495463,27.7367942 L96.0586183,27.7367942 L96.0586183,28.3695736 Z" id="Shape" fill="#FFFFFF" fill-rule="nonzero"></path>
            <polygon id="Path" fill="#FFFFFF" fill-rule="nonzero" points="108.962725 25.470025 104.725604 25.470025 104.725604 23.3314521 108.897929 23.3314521 108.897929 22.7147485 103.964465 22.7147485 103.964465 26.0787727 106.038734 26.0787727 106.038734 27.8329209 103.147552 27.8329209 103.147552 28.4576624 109.715663 28.4576624 109.715663 27.8329209 106.791672 27.8329209 106.791672 26.0787727 108.962725 26.0787727"></polygon>
            <path d="M114.504773,28.7380045 C115.84661,28.7380045 116.631535,27.6567433 116.635636,25.7584051 C116.631535,23.8721238 115.835127,22.7788057 114.504773,22.7788057 C113.171138,22.7788057 112.37473,23.8721238 112.37473,25.7584051 C112.37473,27.6567433 113.163757,28.7380045 114.504773,28.7380045 Z M113.255618,25.7584051 C113.255618,24.3166687 113.723949,23.5277245 114.504773,23.5237055 C115.282317,23.5277245 115.754748,24.3166687 115.754748,25.7584051 C115.754748,27.2041604 115.286418,27.9771109 114.504773,27.9771109 C113.719848,27.9771109 113.251517,27.2041604 113.255618,25.7584051 Z" id="Shape" fill="#FFFFFF" fill-rule="nonzero"></path>
            <path d="M117.901195,28.7139729 C118.209588,28.7099539 118.466308,28.4576624 118.469589,28.1453326 C118.466308,27.8329209 118.209588,27.5766104 117.901195,27.5766104 C117.588701,27.5766104 117.3287,27.8329209 117.332801,28.1453326 C117.3287,28.4576624 117.588701,28.7099539 117.901195,28.7139729 Z" id="Path" fill="#FFFFFF" fill-rule="nonzero"></path>
            <polygon id="Path" fill="#FFFFFF" fill-rule="nonzero" points="120.993325 22.8588566 120.128021 22.8588566 118.68612 23.8040477 118.68612 24.6450743 120.072248 23.7399906 120.104235 23.7399906 120.104235 28.6579537 120.993325 28.6579537"></polygon>
            <path d="M123.796747,25.6142151 C124.577571,25.622253 125.009813,25.0375369 125.013914,24.1724787 C125.009813,23.3234963 124.593155,22.7347613 123.796747,22.7387598 C123.023304,22.7347613 122.570557,23.3234963 122.578759,24.1724787 C122.570557,25.033518 123.00362,25.622253 123.796747,25.6142151 Z M123.235734,28.6579537 L123.964887,28.6579537 L127.945286,22.8588566 L127.216134,22.8588566 L123.235734,28.6579537 Z M123.235734,24.1724787 C123.239835,23.6558387 123.423559,23.3074205 123.796747,23.2994646 C124.184698,23.2954456 124.348737,23.6518198 124.348737,24.1724787 C124.348737,24.7051124 124.173216,25.0495117 123.796747,25.0535307 C123.423559,25.0495117 123.239835,24.7051124 123.235734,24.1724787 Z M126.239284,27.3362936 C126.235183,28.189377 126.668245,28.77803 127.456451,28.77803 C128.238095,28.77803 128.670337,28.193314 128.674438,27.3362936 C128.670337,26.4792733 128.249578,25.8905383 127.456451,25.8945368 C126.683828,25.8905383 126.235183,26.4792733 126.239284,27.3362936 Z M126.896259,27.3362936 C126.90036,26.8116978 127.088184,26.4632795 127.456451,26.4552416 C127.845223,26.4552416 128.009261,26.8076788 128.009261,27.3362936 C128.009261,27.8609715 127.83292,28.2093897 127.456451,28.2093897 C127.084083,28.2093897 126.90036,27.8609715 126.896259,27.3362936 Z" id="Shape" fill="#FFFFFF" fill-rule="nonzero"></path>
            <rect id="Rectangle" fill="#001A5B" fill-rule="nonzero" x="9.02213001" y="15.9041066" width="66.4356846" height="19.6846473"></rect>
            <path d="M23.9177487,28.045187 L21.0022064,28.045187 L21.0022064,26.4832922 L20.2493506,26.4832922 L20.2493506,28.045187 L17.3498021,28.045187 L17.3498021,28.6699285 L23.9177487,28.6699285 L23.9177487,28.045187 Z M17.6701697,26.1388929 L17.9585498,26.7315649 C19.1600515,26.5433304 20.1572429,25.9746902 20.6218006,25.1376826 C21.0903772,25.9746902 22.0915876,26.5433304 23.2930072,26.7315649 L23.5813873,26.1388929 C22.1075813,25.9226079 21.0463328,25.0896192 21.0102443,24.0803709 L23.309001,24.0803709 L23.309001,23.4635853 L21.0022064,23.4635853 L21.0022064,22.5024824 L20.2493506,22.5024824 L20.2493506,23.4635853 L17.942556,23.4635853 L17.942556,24.0803709 L20.2413127,24.0803709 C20.2053062,25.0896192 19.1439757,25.9226079 17.6701697,26.1388929 Z" id="Shape" fill="#FFFFFF" fill-rule="nonzero"></path>
            <path d="M30.2454606,23.0631668 L25.1272062,23.0631668 L25.1272062,23.6798704 L29.4844849,23.6798704 L29.4844849,23.7679592 C29.480548,24.6289985 29.480548,25.6462846 29.2041427,27.0359387 L29.9730743,27.1160716 C30.2414416,25.6462846 30.2414416,24.6530301 30.2454606,23.7679592 L30.2454606,23.0631668 Z M24.4384076,28.5818397 L30.9823225,28.5818397 L30.9823225,27.9490603 L27.6823555,27.9490603 L27.6823555,25.4180247 L26.9294177,25.4180247 L26.9294177,27.9490603 L24.4384076,27.9490603 L24.4384076,28.5818397 Z" id="Shape" fill="#FFFFFF" fill-rule="nonzero"></path>
            <polygon id="Path" fill="#FFFFFF" fill-rule="nonzero" points="37.342022 25.6822911 33.1049017 25.6822911 33.1049017 23.5437182 37.2779649 23.5437182 37.2779649 22.9270146 32.344008 22.9270146 32.344008 26.2910389 34.4185238 26.2910389 34.4185238 28.045187 31.5270131 28.045187 31.5270131 28.6699285 38.0949598 28.6699285 38.0949598 28.045187 35.1713795 28.045187 35.1713795 26.2910389 37.342022 26.2910389"></polygon>
            <path d="M42.8847266,28.9502707 C44.2263993,28.9502707 45.0113246,27.8689274 45.0153436,25.9706712 C45.0113246,24.0843899 44.2143425,22.9910718 42.8847266,22.9910718 C41.5511737,22.9910718 40.7541916,24.0843899 40.7541916,25.9706712 C40.7541916,27.8689274 41.5431358,28.9502707 42.8847266,28.9502707 Z M41.6352436,25.9706712 C41.6352436,24.5289348 42.1038202,23.7399906 42.8847266,23.7359716 C43.661696,23.7399906 44.1342916,24.5289348 44.1342916,25.9706712 C44.1342916,27.4164265 43.6657149,28.189377 42.8847266,28.189377 C42.0998012,28.189377 41.6312246,27.4164265 41.6352436,25.9706712 Z" id="Shape" fill="#FFFFFF" fill-rule="nonzero"></path>
            <path d="M46.2809024,28.926239 C46.5892131,28.92222 46.8455237,28.6699285 46.8495426,28.3575167 C46.8455237,28.045187 46.5892131,27.7888765 46.2809024,27.7888765 C45.9684906,27.7888765 45.7081611,28.045187 45.7121801,28.3575167 C45.7081611,28.6699285 45.9684906,28.92222 46.2809024,28.926239 Z" id="Path" fill="#FFFFFF" fill-rule="nonzero"></path>
            <path d="M49.6769961,28.9502707 C51.0185869,28.9502707 51.8035942,27.8689274 51.8075311,25.9706712 C51.8035942,24.0843899 51.006612,22.9910718 49.6769961,22.9910718 C48.3433613,22.9910718 47.5463791,24.0843899 47.5463791,25.9706712 C47.5463791,27.8689274 48.3353234,28.9502707 49.6769961,28.9502707 Z M48.4274065,25.9706712 C48.4274065,24.5289348 48.8960077,23.7399906 49.6769961,23.7359716 C50.4538835,23.7399906 50.9264791,24.5289348 50.9264791,25.9706712 C50.9264791,27.4164265 50.4579025,28.189377 49.6769961,28.189377 C48.8920708,28.189377 48.4234942,27.4164265 48.4274065,25.9706712 Z" id="Shape" fill="#FFFFFF" fill-rule="nonzero"></path>
            <path d="M54.0502686,25.8264812 C54.831257,25.8345191 55.2637451,25.249803 55.267764,24.3847448 C55.2637451,23.5356803 54.8472508,22.9470274 54.0502686,22.9509447 C53.2773181,22.9470274 52.8248173,23.5356803 52.8327732,24.3847448 C52.8248173,25.2457841 53.2573054,25.8345191 54.0502686,25.8264812 Z M53.4895842,28.8701377 L54.2184903,28.8701377 L58.1993001,23.0711227 L57.4703941,23.0711227 L53.4895842,28.8701377 Z M53.4895842,24.3847448 C53.4936032,23.8681048 53.6778187,23.5196866 54.0502686,23.5116487 C54.4387123,23.5077117 54.6029151,23.8640859 54.6029151,24.3847448 C54.6029151,24.9173785 54.4267375,25.2617779 54.0502686,25.2657968 C53.6778187,25.2617779 53.4936032,24.9173785 53.4895842,24.3847448 Z M56.4932154,27.5485597 C56.4891964,28.4016431 56.9217665,28.9902961 57.7107108,28.9902961 C58.4916992,28.9902961 58.9241873,28.4055801 58.9282062,27.5485597 C58.9241873,26.6915394 58.503674,26.1028044 57.7107108,26.1068029 C56.9377603,26.1028044 56.4891964,26.6915394 56.4932154,27.5485597 Z M57.1500264,27.5485597 C57.1540454,27.0239639 57.3422798,26.6755456 57.7107108,26.6675077 C58.0991545,26.6675077 58.2633573,27.0199449 58.2633573,27.5485597 C58.2633573,28.0732376 58.0871797,28.4216559 57.7107108,28.4216559 C57.3382609,28.4216559 57.1540454,28.0732376 57.1500264,27.5485597 Z" id="Shape" fill="#FFFFFF" fill-rule="nonzero"></path>
            <polygon id="Path" fill="#979797" points="148.865145 52.4923707 148.865145 0 149.685339 0 149.685339 52.4923707"></polygon>
            <polygon id="Path" fill="#979797" points="222.682573 52.4923707 222.682573 0 223.502766 0 223.502766 52.4923707"></polygon>
            <polygon id="Path" fill="#979797" points="75.0477178 52.4923707 75.0477178 0 75.8679115 0 75.8679115 52.4923707"></polygon>
            <rect id="Rectangle" fill="#113287" fill-rule="nonzero" x="444.544952" y="15.9041066" width="73.8174274" height="19.6846473"></rect>
            <path d="M469.967674,22.8509007 L464.849665,22.8509007 L464.849665,23.4676043 L469.206534,23.4676043 L469.206534,23.5557751 C469.202433,24.4168144 469.202433,25.4340185 468.926848,26.8236726 L469.695369,26.9038055 C469.963573,25.4340185 469.963573,24.440846 469.967674,23.5557751 L469.967674,22.8509007 Z M464.160703,28.3695736 L470.705028,28.3695736 L470.705028,27.7367942 L467.404568,27.7367942 L467.404568,25.2057586 L466.651631,25.2057586 L466.651631,27.7367942 L464.160703,27.7367942 L464.160703,28.3695736 Z" id="Shape" fill="#FFFFFF" fill-rule="nonzero"></path>
            <polygon id="Path" fill="#FFFFFF" fill-rule="nonzero" points="477.063989 25.470025 472.826869 25.470025 472.826869 23.3314521 477.000014 23.3314521 477.000014 22.7147485 472.066549 22.7147485 472.066549 26.0787727 474.140819 26.0787727 474.140819 27.8329209 471.249636 27.8329209 471.249636 28.4576624 477.816927 28.4576624 477.816927 27.8329209 474.893757 27.8329209 474.893757 26.0787727 477.063989 26.0787727"></polygon>
            <path d="M480.588361,28.6579537 L484.489202,28.6579537 L484.489202,27.9050159 L481.81373,27.9050159 L481.81373,27.8569525 L482.991528,26.6634888 C484.080746,25.5942023 484.385037,25.0775624 484.393239,24.4287892 C484.385037,23.487617 483.612415,22.7788057 482.495311,22.7788057 C481.38969,22.7788057 480.580979,23.4796611 480.588361,24.5409097 L481.421678,24.5409097 C481.425779,23.9242061 481.834235,23.5156676 482.478907,23.5156676 C483.087491,23.5156676 483.552541,23.8801617 483.552541,24.4528209 C483.552541,24.9614229 483.235946,25.3298539 482.598656,25.9906839 L480.588361,28.0171364 L480.588361,28.6579537 Z" id="Path" fill="#FFFFFF" fill-rule="nonzero"></path>
            <path d="M486.035267,28.7139729 C486.34366,28.7099539 486.59956,28.4576624 486.603661,28.1453326 C486.59956,27.8329209 486.34366,27.5766104 486.035267,27.5766104 C485.722773,27.5766104 485.462772,27.8329209 485.466873,28.1453326 C485.462772,28.4576624 485.722773,28.7099539 486.035267,28.7139729 Z" id="Path" fill="#FFFFFF" fill-rule="nonzero"></path>
            <path d="M489.47926,28.7380045 C490.680844,28.7380045 491.574035,28.0291932 491.569961,27.0639893 C491.574035,26.3310643 491.113086,25.7984306 490.320779,25.6863101 L490.320779,25.6462846 C490.944946,25.4901198 491.353402,25.0175242 491.346021,24.3566942 C491.353402,23.4996738 490.636553,22.7788057 489.495664,22.7788057 C488.413828,22.7788057 487.541142,23.4195409 487.517357,24.3647321 L488.366257,24.3647321 C488.385942,23.8400542 488.906765,23.5156676 489.487462,23.5156676 C490.100147,23.5156676 490.4963,23.8761427 490.4963,24.4047575 C490.4963,24.9614229 490.036172,25.3298539 489.375095,25.325917 L488.878878,25.325917 L488.878878,26.0467852 L489.375095,26.0467852 C490.204311,26.0507221 490.680844,26.4592606 490.680844,27.0319198 C490.680844,27.5966231 490.172324,27.9771109 489.471058,27.9771109 C488.822285,27.9771109 488.317866,27.6527243 488.285878,27.1441223 L487.388586,27.1441223 C487.424675,28.0932503 488.277676,28.7380045 489.47926,28.7380045 Z" id="Path" fill="#FFFFFF" fill-rule="nonzero"></path>
            <path d="M493.868936,25.6142151 C494.649761,25.622253 495.082003,25.0375369 495.086104,24.1724787 C495.082003,23.3234963 494.665344,22.7347613 493.868936,22.7387598 C493.095494,22.7347613 492.643567,23.3234963 492.650949,24.1724787 C492.643567,25.033518 493.075809,25.622253 493.868936,25.6142151 Z M493.307924,28.6579537 L494.037076,28.6579537 L498.017476,22.8588566 L497.289144,22.8588566 L493.307924,28.6579537 Z M493.307924,24.1724787 C493.312025,23.6558387 493.496568,23.3074205 493.868936,23.2994646 C494.256888,23.2954456 494.421747,23.6518198 494.421747,24.1724787 C494.421747,24.7051124 494.245405,25.0495117 493.868936,25.0535307 C493.496568,25.0495117 493.312025,24.7051124 493.307924,24.1724787 Z M496.311473,27.3362936 C496.307372,28.189377 496.740434,28.77803 497.529461,28.77803 C498.310285,28.77803 498.742527,28.193314 498.746628,27.3362936 C498.742527,26.4792733 498.321768,25.8905383 497.529461,25.8945368 C496.756018,25.8905383 496.307372,26.4792733 496.311473,27.3362936 Z M496.968448,27.3362936 C496.972549,26.8116978 497.160373,26.4632795 497.529461,26.4552416 C497.917412,26.4552416 498.081451,26.8076788 498.081451,27.3362936 C498.081451,27.8609715 497.905929,28.2093897 497.529461,28.2093897 C497.157093,28.2093897 496.972549,27.8609715 496.968448,27.3362936 Z" id="Shape" fill="#FFFFFF" fill-rule="nonzero"></path>
            <rect id="Rectangle" fill="#5B6EB4" fill-rule="nonzero" x="370.727524" y="15.9041066" width="73.8174274" height="19.6846473"></rect>
            <path d="M396.894982,25.325917 L390.351477,25.325917 L390.351477,25.9426206 L393.24266,25.9426206 L393.24266,26.6315012 C391.909025,26.6995773 391.128201,27.1441223 391.128201,27.896978 C391.128201,28.7099539 392.05748,29.1665557 393.619129,29.1625631 C395.161093,29.1665557 396.090372,28.7099539 396.094473,27.896978 C396.090372,27.1441223 395.309548,26.7035142 393.995598,26.6315012 L393.995598,25.9426206 L396.894982,25.9426206 L396.894982,25.325917 Z M390.695959,24.3487383 L390.960061,24.9494481 C392.205935,24.8052581 393.227076,24.2805802 393.62323,23.5196866 C394.012001,24.2805802 395.041344,24.8052581 396.286398,24.9494481 L396.558703,24.3487383 C395.245573,24.2165231 394.235914,23.635826 394.13175,22.9389895 L396.310184,22.9389895 L396.310184,22.3302418 L390.951859,22.3302418 L390.951859,22.9389895 L393.106508,22.9389895 C393.002343,23.631807 391.985303,24.2165231 390.695959,24.3487383 Z M391.897522,27.896978 C391.893441,27.452433 392.52171,27.2121983 393.619129,27.2081794 C394.700964,27.2121983 395.333333,27.452433 395.333333,27.896978 C395.333333,28.333485 394.700964,28.5858586 393.619129,28.5778207 C392.52171,28.5858586 391.893441,28.333485 391.897522,27.896978 Z" id="Shape" fill="#FFFFFF" fill-rule="nonzero"></path>
            <polygon id="Path" fill="#FFFFFF" fill-rule="nonzero" points="403.254763 25.3098412 399.017643 25.3098412 399.017643 23.1712683 403.190788 23.1712683 403.190788 22.5544827 398.256503 22.5544827 398.256503 25.9185889 400.331593 25.9185889 400.331593 27.6727371 397.439591 27.6727371 397.439591 28.2974785 404.007701 28.2974785 404.007701 27.6727371 401.084531 27.6727371 401.084531 25.9185889 403.254763 25.9185889"></polygon>
            <path d="M408.773846,22.6185663 C407.512389,22.6105839 406.691375,23.4756422 406.691375,24.5810171 C406.691375,25.690329 407.523871,26.4873112 408.565517,26.4873112 C409.190505,26.4873112 409.735113,26.1908932 410.046787,25.7023039 L410.118964,25.7023039 C410.111582,27.0279828 409.586658,27.8048702 408.693467,27.8088892 C408.108669,27.8048702 407.732201,27.4644899 407.612452,26.9759005 L406.738946,26.9759005 C406.879199,27.9169907 407.623935,28.5778207 408.693467,28.5778207 C410.082876,28.5778207 410.960483,27.4244644 410.960483,25.3899741 C410.956382,23.267395 409.839278,22.6265777 408.773846,22.6185663 Z M407.548453,24.5649413 C407.544376,23.9001744 408.072581,23.3554838 408.773846,23.3554838 C409.482494,23.3554838 409.999216,23.928225 409.999216,24.5569855 C409.999216,25.1977207 409.458708,25.7703799 408.757443,25.7664647 C408.052896,25.7703799 407.551758,25.2377462 407.548453,24.5649413 Z" id="Shape" fill="#FFFFFF" fill-rule="nonzero"></path>
            <path d="M412.241625,28.5537891 C412.550018,28.5497701 412.806739,28.2974785 412.81084,27.9850668 C412.806739,27.6727371 412.550018,27.4164265 412.241625,27.4164265 C411.929131,27.4164265 411.66913,27.6727371 411.673231,27.9850668 C411.66913,28.2974785 411.929131,28.5497701 412.241625,28.5537891 Z" id="Path" fill="#FFFFFF" fill-rule="nonzero"></path>
            <path d="M415.710224,28.5778207 C416.919189,28.5778207 417.776292,27.7568069 417.776292,26.6154254 C417.776292,25.4980756 416.971682,24.6891187 415.878364,24.6850997 C415.43792,24.6891187 415.029463,24.8452835 414.789147,25.0775624 L414.732553,25.0775624 L414.925299,23.4516105 L417.480202,23.4516105 L417.480202,22.6986727 L414.196147,22.6986727 L413.819678,25.9266268 L414.652994,25.9266268 C414.849021,25.5701707 415.205805,25.4140058 415.670035,25.4140058 C416.399187,25.4219617 416.919189,25.9345827 416.919189,26.6394571 C416.919189,27.3283377 416.41477,27.8369398 415.710224,27.8409588 C415.125426,27.8369398 414.652994,27.4764647 414.604603,26.9838564 L413.747501,26.9838564 C413.78769,27.9090348 414.612805,28.5778207 415.710224,28.5778207 Z" id="Path" fill="#FFFFFF" fill-rule="nonzero"></path>
            <path d="M420.043307,25.4540312 C420.824131,25.4620691 421.256373,24.8773531 421.260474,24.0122949 C421.256373,23.1632304 420.840535,22.5745774 420.043307,22.5784947 C419.270685,22.5745774 418.817938,23.1632304 418.82614,24.0122949 C418.817938,24.8733341 419.25018,25.4620691 420.043307,25.4540312 Z M419.482295,28.4976878 L420.211447,28.4976878 L424.192667,22.6986727 L423.463515,22.6986727 L419.482295,28.4976878 Z M419.482295,24.0122949 C419.486396,23.4956549 419.670939,23.1472366 420.043307,23.1391987 C420.432079,23.1352618 420.596118,23.4916359 420.596118,24.0122949 C420.596118,24.5449286 420.419776,24.8893279 420.043307,24.8933469 C419.670939,24.8893279 419.486396,24.5449286 419.482295,24.0122949 Z M422.485825,27.1761098 C422.482563,28.0291932 422.914805,28.6178462 423.703831,28.6178462 C424.484656,28.6178462 424.916898,28.0331301 424.920999,27.1761098 C424.916898,26.3190895 424.496959,25.7303545 423.703831,25.734353 C422.930389,25.7303545 422.482563,26.3190895 422.485825,27.1761098 Z M423.142819,27.1761098 C423.14692,26.651514 423.335564,26.3030957 423.703831,26.2950578 C424.091783,26.2950578 424.256642,26.647495 424.256642,27.1761098 C424.256642,27.7007877 424.0803,28.0492059 423.703831,28.0492059 C423.331463,28.0492059 423.14692,27.7007877 423.142819,27.1761098 Z" id="Shape" fill="#FFFFFF" fill-rule="nonzero"></path>
            <rect id="Rectangle" fill="#E2E6F6" fill-rule="nonzero" x="296.910097" y="15.9041066" width="73.8174274" height="19.6846473"></rect>
            <path d="M320.01003,22.1780958 L319.248891,22.1780958 L319.248891,23.4516105 L317.691343,23.4516105 C317.739734,23.2112938 317.767621,22.9549832 317.767621,22.6907169 L314.483566,22.6907169 L314.483566,23.3154584 L316.942506,23.3154584 C316.806354,24.4728336 315.8131,25.3859552 314.115299,25.8705256 L314.419591,26.4632795 C315.973037,26.0187346 317.050772,25.2057586 317.515001,24.0523203 L319.248891,24.0523203 L319.248891,24.9254164 L317.438723,24.9254164 L317.438723,25.5501579 L319.248891,25.5501579 L319.248891,26.423172 L320.01003,26.423172 L320.01003,22.1780958 Z M315.228302,27.9050159 C315.228302,28.77803 316.173165,29.3146827 317.647053,29.3146827 C319.101256,29.3146827 320.054321,28.77803 320.058422,27.9050159 C320.054321,27.0359387 319.101256,26.5073239 317.647053,26.503305 C316.173165,26.5073239 315.228302,27.0359387 315.228302,27.9050159 Z M315.981239,27.9050159 C315.981239,27.3923949 316.621811,27.0999958 317.647053,27.1040148 C318.65261,27.0999958 319.293181,27.3923949 319.297282,27.9050159 C319.293181,28.409599 318.65261,28.701998 317.647053,28.705935 C316.621811,28.701998 315.981239,28.409599 315.981239,27.9050159 Z" id="Shape" fill="#113287" fill-rule="nonzero"></path>
            <polygon id="Path" fill="#113287" fill-rule="nonzero" points="326.930824 25.4780629 322.693704 25.4780629 322.693704 23.33949 326.866029 23.33949 326.866029 22.7227044 321.932564 22.7227044 321.932564 26.0868106 324.006834 26.0868106 324.006834 27.8409588 321.115651 27.8409588 321.115651 28.4657003 327.683762 28.4657003 327.683762 27.8409588 324.759772 27.8409588 324.759772 26.0868106 326.930824 26.0868106"></polygon>
            <path d="M332.425302,28.7460424 C333.634267,28.7460424 334.491369,27.9250286 334.491369,26.7836471 C334.491369,25.6662974 333.686759,24.8573404 332.593441,24.8533214 C332.152997,24.8573404 331.744541,25.0135052 331.504224,25.2457841 L331.447631,25.2457841 L331.640376,23.6198322 L334.195279,23.6198322 L334.195279,22.8668945 L330.911224,22.8668945 L330.534755,26.0948485 L331.368072,26.0948485 C331.564098,25.7383924 331.920882,25.5822275 332.385112,25.5822275 C333.114264,25.5901834 333.634267,26.1028044 333.634267,26.8076788 C333.634267,27.4964774 333.129848,28.0051615 332.425302,28.0090985 C331.840503,28.0051615 331.368072,27.6446864 331.31968,27.1520781 L330.462578,27.1520781 C330.502768,28.0771745 331.327882,28.7460424 332.425302,28.7460424 Z" id="Path" fill="#113287" fill-rule="nonzero"></path>
            <path d="M337.447347,28.7460424 C338.789184,28.7460424 339.574109,27.6646992 339.57739,25.766443 C339.574109,23.8801617 338.776881,22.7868436 337.447347,22.7868436 C336.113712,22.7868436 335.316484,23.8801617 335.316484,25.766443 C335.316484,27.6646992 336.10551,28.7460424 337.447347,28.7460424 Z M336.197355,25.766443 C336.197355,24.3247066 336.666523,23.5356803 337.447347,23.5317434 C338.224071,23.5356803 338.696502,24.3247066 338.696502,25.766443 C338.696502,27.2121983 338.228172,27.9850668 337.447347,27.9850668 C336.662422,27.9850668 336.194091,27.2121983 336.197355,25.766443 Z" id="Shape" fill="#113287" fill-rule="nonzero"></path>
            <path d="M340.842949,28.7220108 C341.151342,28.7179918 341.408062,28.4657003 341.412163,28.1532885 C341.408062,27.8409588 341.151342,27.5846483 340.842949,27.5846483 C340.531275,27.5846483 340.270454,27.8409588 340.274555,28.1532885 C340.270454,28.4657003 340.531275,28.7179918 340.842949,28.7220108 Z" id="Path" fill="#113287" fill-rule="nonzero"></path>
            <path d="M342.437405,28.6659095 L346.338246,28.6659095 L346.338246,27.9130538 L343.662775,27.9130538 L343.662775,27.8649904 L344.840573,26.6715267 C345.92979,25.6022402 346.234082,25.0856003 346.241463,24.4368271 C346.234082,23.4956549 345.460639,22.7868436 344.343535,22.7868436 C343.237914,22.7868436 342.429203,23.487617 342.437405,24.5489476 L343.269902,24.5489476 C343.274003,23.9321619 343.682459,23.5237055 344.327131,23.5237055 C344.936535,23.5237055 345.400765,23.8881176 345.400765,24.4608588 C345.400765,24.9694608 345.08417,25.3378918 344.4477,25.9987218 L342.437405,28.0251743 L342.437405,28.6659095 Z" id="Path" fill="#113287" fill-rule="nonzero"></path>
            <path d="M348.644631,25.622253 C349.425455,25.6302088 349.858517,25.0455748 349.862618,24.1805166 C349.858517,23.3314521 349.441859,22.7427171 348.644631,22.7467156 C347.872008,22.7427171 347.419261,23.3314521 347.427463,24.1805166 C347.419261,25.0415559 347.851503,25.6302088 348.644631,25.622253 Z M348.084438,28.6659095 L348.81277,28.6659095 L352.79399,22.8668945 L352.064838,22.8668945 L348.084438,28.6659095 Z M348.084438,24.1805166 C348.087719,23.6638766 348.272263,23.3154584 348.644631,23.3074205 C349.033402,23.3034015 349.197441,23.6598577 349.197441,24.1805166 C349.197441,24.7131503 349.0211,25.0575496 348.644631,25.0615686 C348.272263,25.0575496 348.087719,24.7131503 348.084438,24.1805166 Z M351.087988,27.3443315 C351.083887,28.1973329 351.516129,28.7860679 352.305155,28.7860679 C353.085979,28.7860679 353.519041,28.2013519 353.522322,27.3443315 C353.519041,26.4873112 353.098282,25.8985762 352.305155,25.9025747 C351.532533,25.8985762 351.083887,26.4873112 351.087988,27.3443315 Z M351.744142,27.3443315 C351.748243,26.8196537 351.936888,26.4712354 352.305155,26.4632795 C352.693927,26.4632795 352.857965,26.8157167 352.857965,27.3443315 C352.857965,27.8689274 352.681624,28.2173456 352.305155,28.2173456 C351.932787,28.2173456 351.748243,27.8689274 351.744142,27.3443315 Z" id="Shape" fill="#113287" fill-rule="nonzero"></path>
            <polygon id="Path" fill="#113287" points="295.679806 52.4923707 295.679806 0 297.320194 0 297.320194 52.4923707"></polygon>
            <path d="M271.343021,63.1688312 L268.733165,60.5589751 C268.573227,60.3988733 268.573227,60.1392 268.733165,59.9790162 L271.343021,57.369242 C271.503779,57.2090582 271.76296,57.2090582 271.923718,57.369242 C272.083656,57.5293438 272.083656,57.7890171 271.923718,57.949201 L270.013487,59.8589398 L284.607192,59.8589398 L284.607192,60.6791335 L270.013487,60.6791335 L271.923718,62.5888723 C272.083656,62.7490561 272.083656,63.0087294 271.923718,63.1688312 C271.76296,63.3290151 271.503779,63.3290151 271.343021,63.1688312 Z" id="Path" fill="#113287"></path>
            <path d="M322.477173,57.36916 L325.087029,59.9790162 C325.246967,60.1392 325.246967,60.3987913 325.087029,60.5589751 L322.477173,63.1688312 C322.316415,63.328933 322.057234,63.328933 321.896476,63.1688312 C321.736538,63.0086474 321.736538,62.7489741 321.896476,62.5888723 L323.806707,60.6790514 L309.213001,60.6790514 L309.213001,59.8588578 L323.806707,59.8588578 L321.896476,57.9491189 C321.736538,57.7890171 321.736538,57.5293438 321.896476,57.36916 C322.057234,57.2089762 322.316415,57.2089762 322.477173,57.36916 Z" id="Path" fill="#113287"></path>
            <polygon id="Path" fill="#001A5B" fill-rule="nonzero" points="586.811639 15.9041066 563.183501 15.9041066 563.183501 35.5887539 586.811639 35.5887539 593 25.7464303"></polygon>
            <rect id="Rectangle" fill="#001A5B" fill-rule="nonzero" transform="translate(551.170124, 25.746430) scale(-1, 1) translate(-551.170124, -25.746430) " x="518.362379" y="15.9041066" width="65.615491" height="19.6846473"></rect>
            <path d="M541.253983,28.045187 L538.338195,28.045187 L538.338195,26.4832922 L537.586077,26.4832922 L537.586077,28.045187 L534.685873,28.045187 L534.685873,28.6699285 L541.253983,28.6699285 L541.253983,28.045187 Z M535.006568,26.1388929 L535.295277,26.7315649 C536.49604,26.5433304 537.493396,25.9746902 537.958445,25.1376826 C538.426776,25.9746902 539.428232,26.5433304 540.628996,26.7315649 L540.917704,26.1388929 C539.443816,25.9226079 538.382485,25.0896192 538.346397,24.0803709 L540.6454,24.0803709 L540.6454,23.4635853 L538.338195,23.4635853 L538.338195,22.5024824 L537.586077,22.5024824 L537.586077,23.4635853 L535.278873,23.4635853 L535.278873,24.0803709 L537.577876,24.0803709 C537.541787,25.0896192 536.480456,25.9226079 535.006568,26.1388929 Z" id="Shape" fill="#FFFFFF" fill-rule="nonzero"></path>
            <path d="M547.581777,23.0631668 L542.463769,23.0631668 L542.463769,23.6798704 L546.820638,23.6798704 L546.820638,23.7679592 C546.816537,24.6289985 546.816537,25.6462846 546.540131,27.0359387 L547.309473,27.1160716 C547.577676,25.6462846 547.577676,24.6530301 547.581777,23.7679592 L547.581777,23.0631668 Z M541.774806,28.5818397 L548.318311,28.5818397 L548.318311,27.9490603 L545.018672,27.9490603 L545.018672,25.4180247 L544.265734,25.4180247 L544.265734,27.9490603 L541.774806,27.9490603 L541.774806,28.5818397 Z" id="Shape" fill="#FFFFFF" fill-rule="nonzero"></path>
            <polygon id="Path" fill="#FFFFFF" fill-rule="nonzero" points="554.678093 25.6822911 550.440972 25.6822911 550.440972 23.5437182 554.614118 23.5437182 554.614118 22.9270146 549.680653 22.9270146 549.680653 26.2910389 551.754923 26.2910389 551.754923 28.045187 548.86374 28.045187 548.86374 28.6699285 555.43103 28.6699285 555.43103 28.045187 552.50786 28.045187 552.50786 26.2910389 554.678093 26.2910389"></polygon>
            <path d="M560.220961,28.9502707 C561.562798,28.9502707 562.347723,27.8689274 562.351824,25.9706712 C562.347723,24.0843899 561.550495,22.9910718 560.220961,22.9910718 C558.887326,22.9910718 558.090918,24.0843899 558.090918,25.9706712 C558.090918,27.8689274 558.879124,28.9502707 560.220961,28.9502707 Z M558.971806,25.9706712 C558.971806,24.5289348 559.440137,23.7399906 560.220961,23.7359716 C560.997685,23.7399906 561.470936,24.5289348 561.470936,25.9706712 C561.470936,27.4164265 561.001786,28.189377 560.220961,28.189377 C559.436036,28.189377 558.967705,27.4164265 558.971806,25.9706712 Z" id="Shape" fill="#FFFFFF" fill-rule="nonzero"></path>
            <path d="M563.617383,28.926239 C563.925776,28.92222 564.181676,28.6699285 564.185777,28.3575167 C564.181676,28.045187 563.925776,27.7888765 563.617383,27.7888765 C563.304889,27.7888765 563.044888,28.045187 563.048169,28.3575167 C563.044888,28.6699285 563.304889,28.92222 563.617383,28.926239 Z" id="Path" fill="#FFFFFF" fill-rule="nonzero"></path>
            <polygon id="Path" fill="#FFFFFF" fill-rule="nonzero" points="565.259411 28.8701377 566.180488 28.8701377 568.759177 23.85613 568.759177 23.0711227 564.858336 23.0711227 564.858336 23.8240604 567.846302 23.8240604 567.846302 23.8721238"></polygon>
            <path d="M570.977801,25.8264812 C571.759445,25.8345191 572.191687,25.249803 572.195788,24.3847448 C572.191687,23.5356803 571.775029,22.9470274 570.977801,22.9509447 C570.205178,22.9470274 569.752432,23.5356803 569.760633,24.3847448 C569.752432,25.2457841 570.185494,25.8345191 570.977801,25.8264812 Z M570.417609,28.8701377 L571.145941,28.8701377 L575.12716,23.0711227 L574.398008,23.0711227 L570.417609,28.8701377 Z M570.417609,24.3847448 C570.42171,23.8681048 570.605433,23.5196866 570.977801,23.5116487 C571.366573,23.5077117 571.530611,23.8640859 571.530611,24.3847448 C571.530611,24.9173785 571.35427,25.2617779 570.977801,25.2657968 C570.605433,25.2617779 570.42171,24.9173785 570.417609,24.3847448 Z M573.421158,27.5485597 C573.417057,28.4016431 573.849299,28.9902961 574.638325,28.9902961 C575.419149,28.9902961 575.852212,28.4055801 575.856313,27.5485597 C575.852212,26.6915394 575.431452,26.1028044 574.638325,26.1068029 C573.865703,26.1028044 573.417057,26.6915394 573.421158,27.5485597 Z M574.078133,27.5485597 C574.082234,27.0239639 574.270058,26.6755456 574.638325,26.6675077 C575.027097,26.6675077 575.191136,27.0199449 575.191136,27.5485597 C575.191136,28.0732376 575.014794,28.4216559 574.638325,28.4216559 C574.265957,28.4216559 574.082234,28.0732376 574.078133,27.5485597 Z" id="Shape" fill="#FFFFFF" fill-rule="nonzero"></path>
            <polygon id="Path" fill="#979797" points="370.317427 52.4923707 370.317427 0 371.137621 0 371.137621 52.4923707"></polygon>
            <polygon id="Path" fill="#979797" points="444.134855 52.4923707 444.134855 0 444.955048 0 444.955048 52.4923707"></polygon>
            <polygon id="Path" fill="#979797" points="517.952282 52.4923707 517.952282 0 518.772476 0 518.772476 52.4923707"></polygon>
        </g>
    </g>
</svg>