<?xml version="1.0" encoding="UTF-8"?>
<svg width="593px" height="88px" viewBox="0 0 593 88" version="1.1" xmlns="http://www.w3.org/2000/svg" xmlns:xlink="http://www.w3.org/1999/xlink">
    <title>Artboard</title>
    <g id="Artboard" stroke="none" stroke-width="1" fill="none" fill-rule="evenodd">
        <g id="totalSeverityYouth" transform="translate(0.000000, 9.000000)">
            <polygon id="Path" fill="#979797" points="111.956432 40.013236 111.956432 12.5231339 112.776625 12.5231339 112.776625 40.013236"></polygon>
            <polygon id="Path" fill="#001A5B" fill-rule="nonzero" points="6.18831999 15.9040541 29.8161712 15.9040541 29.8161712 35.5887014 6.18831999 35.5887014 0 25.7463778"></polygon>
            <path d="M292.134109,62.8017101 C293.255314,62.8088778 294.00169,62.0339588 294.00169,61.0211017 C294.00169,60.02268 293.252033,59.3090295 292.321934,59.3054207 C291.756,59.3090295 291.265524,59.5685388 290.980917,60.0119355 L290.923503,60.0119355 C290.923503,58.8332352 291.391834,58.1340201 292.198905,58.1304113 C292.725469,58.1340201 293.060928,58.4403624 293.165093,58.8657149 L293.950838,58.8657149 C293.828629,58.0367451 293.161812,57.4384139 292.198905,57.4384139 C290.948109,57.4384139 290.162364,58.476451 290.159083,60.2930158 C290.159083,62.2213731 291.168741,62.7944424 292.134109,62.8017101 Z M291.017006,61.0427548 C291.024387,60.4624678 291.510762,59.950667 292.148873,59.9541748 C292.775501,59.950667 293.229888,60.4372059 293.229888,61.0355371 C293.229888,61.6446949 292.758277,62.1348427 292.126728,62.1384515 C291.485336,62.1348427 291.020286,61.6230418 291.017006,61.0427548 Z" id="Shape" fill="#001A5B" fill-rule="nonzero"></path>
            <path d="M296.661578,62.8016601 C297.868903,62.8016601 298.57509,61.8285003 298.579191,60.120037 C298.57509,58.4224002 297.858241,57.4384139 296.661578,57.4384139 C295.460815,57.4384139 294.743965,58.4224002 294.743965,60.120037 C294.743965,61.8285003 295.454253,62.8016601 296.661578,62.8016601 Z M295.537093,60.120037 C295.537093,58.8224906 295.958672,58.112367 296.661578,58.1087581 C297.360383,58.112367 297.786064,58.8224906 297.786064,60.120037 C297.786064,61.4211922 297.364484,62.1168804 296.661578,62.1168804 C295.954571,62.1168804 295.532992,61.4211922 295.537093,60.120037 Z" id="Shape" fill="#001A5B" fill-rule="nonzero"></path>
            <path d="M301.166902,62.7295651 C302.756437,62.7295651 303.671773,61.7419699 303.675874,60.1128193 C303.671773,58.4872775 302.756437,57.5105089 301.216934,57.5105089 L299.473202,57.5105089 L299.473202,62.7295651 L301.166902,62.7295651 Z M300.265509,62.0375677 L300.265509,58.2025063 L301.166902,58.2025063 C302.306151,58.2025063 302.890129,58.8837591 302.890129,60.1128193 C302.890129,61.3454883 302.306151,62.0339588 301.123432,62.0375677 L300.265509,62.0375677 Z" id="Shape" fill="#001A5B" fill-rule="nonzero"></path>
            <path d="M275.65888,66.5806202 L275.15282,66.5806202 L275.15282,69.951124 L273.973382,69.951124 L273.973382,70.3163562 L275.15282,70.3163562 L275.15282,70.9059114 L275.65888,70.9059114 L275.65888,66.5806202 Z M270.929643,69.2206595 L271.00018,69.6307563 C271.477533,69.6307563 272.025422,69.6307563 272.602018,69.6083651 L272.602018,70.7072605 L273.108077,70.7072605 L273.108077,69.582693 C273.630541,69.5506234 274.166127,69.4993613 274.672187,69.4193104 L274.640199,69.0540782 C273.418931,69.2046657 271.990154,69.214262 270.929643,69.2206595 Z M271.391398,67.8045132 C271.388131,68.4132609 271.958166,68.7913702 272.800505,68.7913702 C273.637102,68.7913702 274.207137,68.4132609 274.210418,67.8045132 C274.207137,67.2054438 273.637102,66.8113407 272.800505,66.8113407 C271.958166,66.8113407 271.388131,67.2054438 271.391398,67.8045132 Z M271.749837,72.1489969 L275.799953,72.1489969 L275.799953,71.726105 L272.255896,71.726105 L272.255896,70.4830196 L271.749837,70.4830196 L271.749837,72.1489969 Z M271.872046,67.8045132 C271.865484,67.439281 272.243593,67.189368 272.800505,67.1957655 C273.342653,67.189368 273.726503,67.439281 273.729784,67.8045132 C273.726503,68.1762249 273.342653,68.4164597 272.800505,68.4196584 C272.243593,68.4164597 271.865484,68.1762249 271.872046,67.8045132 Z" id="Shape" fill="#001A5B" fill-rule="nonzero"></path>
            <path d="M280.304456,68.1056883 L280.304456,67.0676512 L279.804959,67.0676512 L279.804959,68.1056883 C279.798397,69.1853912 279.096311,70.2747724 278.247411,70.6623959 L278.568107,71.0852877 C279.234104,70.7489263 279.795116,70.0280581 280.057578,69.1693974 C280.329882,69.9799948 280.890895,70.6559984 281.541308,70.9699685 L281.848881,70.5726667 C281.009003,70.1914407 280.301176,69.1470061 280.304456,68.1056883 Z M282.470588,72.2835906 L282.976647,72.2835906 L282.976647,66.5742227 L282.470588,66.5742227 L282.470588,72.2835906 Z" id="Shape" fill="#001A5B" fill-rule="nonzero"></path>
            <path d="M314.861675,67.7404561 L310.991181,67.7404561 L310.991181,68.1505529 L314.361357,68.1505529 L314.361357,68.1826225 C314.364638,68.6663727 314.364638,69.227057 314.211261,70.0151811 L310.330925,70.0151811 L310.330925,70.438155 L315.547357,70.438155 L315.547357,70.0151811 L314.710759,70.0151811 C314.861675,69.2398521 314.861675,68.6631739 314.861675,68.1826225 L314.861675,67.7404561 Z M311.023169,72.962793 L315.034736,72.962793 L315.034736,72.5399012 L311.522667,72.5399012 L311.522667,71.0788902 L311.023169,71.0788902 L311.023169,72.962793 Z" id="Shape" fill="#001A5B" fill-rule="nonzero"></path>
            <path d="M319.673751,68.9258819 L319.673751,67.8878449 L319.174253,67.8878449 L319.174253,68.9258819 C319.167692,70.0055848 318.465606,71.094966 317.616705,71.4825895 L317.937401,71.9054814 C318.603398,71.56912 319.164411,70.8482518 319.426873,69.9895911 C319.699177,70.8001884 320.260189,71.476192 320.910603,71.7901622 L321.218176,71.3928604 C320.378297,71.0116344 319.67047,69.9671998 319.673751,68.9258819 Z M321.839882,73.1037843 L322.345942,73.1037843 L322.345942,67.3944164 L321.839882,67.3944164 L321.839882,73.1037843 Z" id="Shape" fill="#001A5B" fill-rule="nonzero"></path>
            <path d="M70.5630631,63.6218537 C71.6516241,63.6218537 72.4229342,62.8829413 72.4229342,61.8557308 C72.4229342,60.8500913 71.6984571,60.1220054 70.7144708,60.1183966 C70.3179892,60.1220054 69.9503784,60.2625866 69.7340934,60.471654 L69.6836515,60.471654 L69.8566303,59.0082645 L72.1562072,59.0082645 L72.1562072,58.3307025 L69.2006394,58.3307025 L68.8618174,61.2357464 L69.6115564,61.2357464 C69.7881441,60.9149687 70.1089219,60.7743875 70.5270566,60.7743875 C71.1830474,60.7816052 71.6516241,61.2429641 71.6516241,61.8773839 C71.6516241,62.4972862 71.1974828,62.9550363 70.5630631,62.9586451 C70.0368268,62.9550363 69.6115564,62.6306497 69.5682502,62.187335 L68.7969401,62.187335 C68.8330286,63.0199136 69.5754679,63.6218537 70.5630631,63.6218537 Z" id="Path" fill="#001A5B" fill-rule="nonzero"></path>
            <path d="M73.1510201,62.5333747 L75.6884531,62.5333747 L75.6884531,63.5497587 L76.4381921,63.5497587 L76.4381921,62.5333747 L77.1518426,62.5333747 L77.1518426,61.8629485 L76.4381921,61.8629485 L76.4381921,58.3307025 L75.4578147,58.3307025 L73.1510201,61.8918193 L73.1510201,62.5333747 Z M73.9872075,61.8629485 L73.9872075,61.8197243 L75.6307935,59.2749915 L75.6884531,59.2749915 L75.6884531,61.8629485 L73.9872075,61.8629485 Z" id="Shape" fill="#001A5B" fill-rule="nonzero"></path>
            <path d="M79.7181465,63.5497587 C81.3076817,63.5497587 82.223592,62.5621635 82.2268728,60.9330129 C82.223592,59.3074711 81.3076817,58.3307025 79.7686704,58.3307025 L78.0241185,58.3307025 L78.0241185,63.5497587 L79.7181465,63.5497587 Z M78.8170817,62.8577613 L78.8170817,59.0226999 L79.7181465,59.0226999 C80.8571494,59.0226999 81.4410452,59.7039527 81.4410452,60.9330129 C81.4410452,62.1656819 80.8571494,62.8541525 79.6749223,62.8577613 L78.8170817,62.8577613 Z" id="Shape" fill="#001A5B" fill-rule="nonzero"></path>
            <path d="M144.423797,63.6218537 C145.512194,63.6218537 146.283996,62.8829413 146.283996,61.8557308 C146.283996,60.8500913 145.558945,60.1220054 144.575533,60.1183966 C144.178559,60.1220054 143.811112,60.2625866 143.594581,60.471654 L143.544549,60.471654 L143.71761,59.0082645 L146.016613,59.0082645 L146.016613,58.3307025 L143.061455,58.3307025 L142.722715,61.2357464 L143.472372,61.2357464 C143.648714,60.9149687 143.969409,60.7743875 144.387708,60.7743875 C145.043863,60.7816052 145.512194,61.2429641 145.512194,61.8773839 C145.512194,62.4972862 145.057806,62.9550363 144.423797,62.9586451 C143.897232,62.9550363 143.472372,62.6306497 143.428902,62.187335 L142.65792,62.187335 C142.694008,63.0199136 143.436284,63.6218537 144.423797,63.6218537 Z" id="Path" fill="#001A5B" fill-rule="nonzero"></path>
            <path d="M149.016061,63.6219037 C150.136445,63.6290714 150.882822,62.8541525 150.882822,61.8412953 C150.882822,60.8428736 150.133165,60.1292231 149.203065,60.1256143 C148.637131,60.1292231 148.147476,60.3887324 147.862048,60.8321291 L147.804635,60.8321291 C147.804635,59.6534288 148.272965,58.9542137 149.080856,58.9506049 C149.6066,58.9542137 149.942059,59.2605561 150.046224,59.6859085 L150.83197,59.6859085 C150.709761,58.8569388 150.042943,58.2586075 149.080856,58.2586075 C147.830061,58.2586075 147.044315,59.2966446 147.040214,61.1132095 C147.040214,63.0415667 148.049873,63.614636 149.016061,63.6219037 Z M147.898137,61.8629485 C147.905519,61.2826615 148.391893,60.7708606 149.030004,60.7743684 C149.657452,60.7708606 150.11184,61.2573995 150.11184,61.8557308 C150.11184,62.4648886 149.639408,62.9550363 149.008679,62.9586451 C148.367288,62.9550363 147.902238,62.4432355 147.898137,61.8629485 Z" id="Shape" fill="#001A5B" fill-rule="nonzero"></path>
            <path d="M153.492678,63.5497587 C155.082213,63.5497587 155.997549,62.5621635 156.00083,60.9330129 C155.997549,59.3074711 155.082213,58.3307025 153.54271,58.3307025 L151.798158,58.3307025 L151.798158,63.5497587 L153.492678,63.5497587 Z M152.591285,62.8577613 L152.591285,59.0226999 L153.492678,59.0226999 C154.631107,59.0226999 155.215084,59.7039527 155.215084,60.9330129 C155.215084,62.1656819 154.631107,62.8541525 153.449207,62.8577613 L152.591285,62.8577613 Z" id="Shape" fill="#001A5B" fill-rule="nonzero"></path>
            <path d="M218.259268,63.6218537 C219.347665,63.6218537 220.119467,62.8829413 220.119467,61.8557308 C220.119467,60.8500913 219.394416,60.1220054 218.411004,60.1183966 C218.01403,60.1220054 217.646584,60.2625866 217.430053,60.471654 L217.380021,60.471654 L217.553082,59.0082645 L219.852084,59.0082645 L219.852084,58.3307025 L216.896927,58.3307025 L216.558187,61.2357464 L217.307844,61.2357464 C217.484185,60.9149687 217.804881,60.7743875 218.22318,60.7743875 C218.879335,60.7816052 219.347665,61.2429641 219.347665,61.8773839 C219.347665,62.4972862 218.893278,62.9550363 218.259268,62.9586451 C217.732704,62.9550363 217.307844,62.6306497 217.264373,62.187335 L216.493391,62.187335 C216.52948,63.0199136 217.271755,63.6218537 218.259268,63.6218537 Z" id="Path" fill="#001A5B" fill-rule="nonzero"></path>
            <path d="M222.785917,63.6218537 C223.903841,63.6218537 224.700249,63.0091691 224.70353,62.1584642 C224.700249,61.48812 224.217155,60.9402306 223.607751,60.8464825 L223.607751,60.8176937 C224.134315,60.6951568 224.498481,60.2193624 224.501762,59.649902 C224.498481,58.8461122 223.770149,58.2586075 222.785917,58.2586075 C221.787741,58.2586075 221.06351,58.8461122 221.06351,59.649902 C221.06351,60.2193624 221.420295,60.6951568 221.957521,60.8176937 L221.957521,60.8464825 C221.340736,60.9402306 220.861743,61.48812 220.869124,62.1584642 C220.861743,63.0091691 221.650769,63.6218537 222.785917,63.6218537 Z M221.676195,62.1008046 C221.665533,61.5637418 222.137144,61.1708691 222.785917,61.1708691 C223.428129,61.1708691 223.896459,61.5637418 223.896459,62.1008046 C223.896459,62.6126875 223.464217,62.9658628 222.785917,62.9658628 C222.097775,62.9658628 221.665533,62.6126875 221.676195,62.1008046 Z M221.834492,59.721915 C221.838593,59.2353761 222.213422,58.9037718 222.785917,58.9073807 C223.345289,58.9037718 223.726679,59.2353761 223.723398,59.721915 C223.726679,60.2121447 223.330526,60.5473579 222.785917,60.543749 C222.227365,60.5473579 221.838593,60.2085359 221.834492,59.721915 Z" id="Shape" fill="#001A5B" fill-rule="nonzero"></path>
            <path d="M227.292061,63.5497587 C228.881596,63.5497587 229.796932,62.5621635 229.800213,60.9330129 C229.796932,59.3074711 228.881596,58.3307025 227.342093,58.3307025 L225.597541,58.3307025 L225.597541,63.5497587 L227.292061,63.5497587 Z M226.390668,62.8577613 L226.390668,59.0226999 L227.292061,59.0226999 C228.43049,59.0226999 229.014467,59.7039527 229.014467,60.9330129 C229.014467,62.1656819 228.43049,62.8541525 227.248591,62.8577613 L226.390668,62.8577613 Z" id="Shape" fill="#001A5B" fill-rule="nonzero"></path>
            <path d="M365.926111,62.8017101 C367.047315,62.8088778 367.793692,62.0339588 367.793692,61.0211017 C367.793692,60.02268 367.044035,59.3090295 366.113935,59.3054207 C365.548001,59.3090295 365.057526,59.5685388 364.772918,60.0119355 L364.715505,60.0119355 C364.715505,58.8332352 365.183835,58.1340201 365.991726,58.1304113 C366.51747,58.1340201 366.852929,58.4403624 366.957094,58.8657149 L367.74284,58.8657149 C367.620631,58.0367451 366.953813,57.4384139 365.991726,57.4384139 C364.740931,57.4384139 363.955185,58.476451 363.951084,60.2930158 C363.951084,62.2213731 364.960743,62.7944424 365.926111,62.8017101 Z M364.809007,61.0427548 C364.816389,60.4624678 365.302763,59.950667 365.940874,59.9541748 C366.568322,59.950667 367.021889,60.4372059 367.021889,61.0355371 C367.021889,61.6446949 366.550278,62.1348427 365.919549,62.1384515 C365.277337,62.1348427 364.813108,61.6230418 364.809007,61.0427548 Z" id="Shape" fill="#001A5B" fill-rule="nonzero"></path>
            <path d="M370.489668,62.8016601 C371.570683,62.8016601 372.374473,62.1637135 372.371212,61.2950464 C372.374473,60.6354467 371.960275,60.1560435 371.246707,60.0551597 L371.246707,60.0190711 C371.808539,59.878572 372.176806,59.4532196 372.169425,58.8584971 C372.176806,58.087187 371.531314,57.4384139 370.504432,57.4384139 C369.530862,57.4384139 368.745116,58.015092 368.723791,58.8657149 L369.487391,58.8657149 C369.505436,58.3935294 369.974586,58.1016225 370.49705,58.1016225 C371.04822,58.1016225 371.405004,58.426009 371.405004,58.9017214 C371.405004,59.4027776 370.990806,59.7343819 370.396166,59.7307731 L369.94916,59.7307731 L369.94916,60.3795462 L370.396166,60.3795462 C371.141722,60.3831551 371.570683,60.7507659 371.570683,61.2662576 C371.570683,61.7744496 371.113015,62.1168804 370.482286,62.1168804 C369.898308,62.1168804 369.444741,61.8248915 369.415214,61.3671414 L368.608144,61.3671414 C368.640952,62.2213731 369.408653,62.8016601 370.489668,62.8016601 Z" id="Path" fill="#001A5B" fill-rule="nonzero"></path>
            <path d="M375.009755,62.7295651 C376.59929,62.7295651 377.514627,61.7419699 377.517907,60.1128193 C377.514627,58.4872775 376.59929,57.5105089 375.059787,57.5105089 L373.315235,57.5105089 L373.315235,62.7295651 L375.009755,62.7295651 Z M374.108362,62.0375677 L374.108362,58.2025063 L375.009755,58.2025063 C376.148184,58.2025063 376.732162,58.8837591 376.732162,60.1128193 C376.732162,61.3454883 376.148184,62.0339588 374.966285,62.0375677 L374.108362,62.0375677 Z" id="Shape" fill="#001A5B" fill-rule="nonzero"></path>
            <path d="M439.747639,62.8017101 C440.868844,62.8088778 441.6144,62.0339588 441.6144,61.0211017 C441.6144,60.02268 440.864743,59.3090295 439.934643,59.3054207 C439.36871,59.3090295 438.879054,59.5685388 438.594447,60.0119355 L438.536213,60.0119355 C438.536213,58.8332352 439.005364,58.1340201 439.812434,58.1304113 C440.338999,58.1340201 440.673638,58.4403624 440.778622,58.8657149 L441.564368,58.8657149 C441.441339,58.0367451 440.774521,57.4384139 439.812434,57.4384139 C438.561639,57.4384139 437.775893,58.476451 437.772613,60.2930158 C437.772613,62.2213731 438.781451,62.7944424 439.747639,62.8017101 Z M438.630535,61.0427548 C438.637097,60.4624678 439.124292,59.950667 439.761582,59.9541748 C440.38903,59.950667 440.843418,60.4372059 440.843418,61.0355371 C440.843418,61.6446949 440.370986,62.1348427 439.740257,62.1384515 C439.098866,62.1348427 438.633816,61.6230418 438.630535,61.0427548 Z" id="Shape" fill="#001A5B" fill-rule="nonzero"></path>
            <path d="M444.346465,62.8017101 C445.467669,62.8088778 446.214046,62.0339588 446.214046,61.0211017 C446.214046,60.02268 445.464389,59.3090295 444.534289,59.3054207 C443.968355,59.3090295 443.47788,59.5685388 443.193272,60.0119355 L443.135859,60.0119355 C443.135859,58.8332352 443.604189,58.1340201 444.41126,58.1304113 C444.937824,58.1340201 445.273284,58.4403624 445.377448,58.8657149 L446.163194,58.8657149 C446.040985,58.0367451 445.374167,57.4384139 444.41126,57.4384139 C443.160465,57.4384139 442.374719,58.476451 442.371438,60.2930158 C442.371438,62.2213731 443.381097,62.7944424 444.346465,62.8017101 Z M443.229361,61.0427548 C443.236743,60.4624678 443.723118,59.950667 444.361228,59.9541748 C444.988676,59.950667 445.442243,60.4372059 445.442243,61.0355371 C445.442243,61.6446949 444.970632,62.1348427 444.339903,62.1384515 C443.697692,62.1348427 443.232642,61.6230418 443.229361,61.0427548 Z" id="Shape" fill="#001A5B" fill-rule="nonzero"></path>
            <path d="M448.823082,62.7295651 C450.412617,62.7295651 451.328773,61.7419699 451.332054,60.1128193 C451.328773,58.4872775 450.412617,57.5105089 448.873934,57.5105089 L447.129382,57.5105089 L447.129382,62.7295651 L448.823082,62.7295651 Z M447.922509,62.0375677 L447.922509,58.2025063 L448.823082,58.2025063 C449.962331,58.2025063 450.546308,58.8837591 450.546308,60.1128193 C450.546308,61.3454883 449.962331,62.0339588 448.780432,62.0375677 L447.922509,62.0375677 Z" id="Shape" fill="#001A5B" fill-rule="nonzero"></path>
            <path d="M513.565066,62.8017921 C514.686271,62.8089598 515.431827,62.0340409 515.431827,61.0211837 C515.431827,60.022762 514.68217,59.3091115 513.752071,59.3055027 C513.186137,59.3091115 512.696481,59.5686208 512.411874,60.0119355 L512.35364,60.0119355 C512.35364,58.8333172 512.822791,58.1341021 513.629862,58.1304933 C514.156426,58.1341021 514.491065,58.4404444 514.59605,58.8657969 L515.381795,58.8657969 C515.258766,58.0367451 514.591949,57.4384139 513.629862,57.4384139 C512.379066,57.4384139 511.593321,58.476451 511.59004,60.2930978 C511.59004,62.2214551 512.598878,62.7945244 513.565066,62.8017921 Z M512.447963,61.0428368 C512.454524,60.4624678 512.941719,59.950667 513.57901,59.9542559 C514.206458,59.950667 514.660845,60.4372879 514.660845,61.0356191 C514.660845,61.6446949 514.188414,62.1349247 513.557685,62.1385335 C512.916293,62.1349247 512.451243,61.6231238 512.447963,61.0428368 Z" id="Shape" fill="#001A5B" fill-rule="nonzero"></path>
            <path d="M518.07039,57.4383641 C516.935242,57.4311962 516.196248,58.209806 516.196248,59.2045368 C516.196248,60.2029586 516.945905,60.9202179 517.883386,60.9202179 C518.445219,60.9202179 518.935694,60.6534909 519.217021,60.2137851 L519.281816,60.2137851 C519.274434,61.4068388 518.802003,62.1060539 517.998213,62.1096627 C517.472469,62.1060539 517.132909,61.7997115 517.025463,61.3600057 L516.239718,61.3600057 C516.365207,62.2070197 517.036126,62.8017421 517.998213,62.8017421 C519.249008,62.8017421 520.038035,61.763705 520.038035,59.9326227 C520.034754,58.0223097 519.029196,57.4456316 518.07039,57.4383641 Z M516.967213,59.1901835 C516.963949,58.5918522 517.439661,58.1016225 518.07039,58.1016225 C518.708501,58.1016225 519.17355,58.6170321 519.17355,59.1829657 C519.17355,59.7596439 518.687176,60.2750536 518.055627,60.271465 C517.421617,60.2750536 516.971331,59.7956504 516.967213,59.1901835 Z" id="Shape" fill="#001A5B" fill-rule="nonzero"></path>
            <path d="M522.640509,62.7296471 C524.230044,62.7296471 525.146201,61.7420519 525.149481,60.1129013 C525.146201,58.4872775 524.230044,57.5105089 522.691361,57.5105089 L520.946809,57.5105089 L520.946809,62.7296471 L522.640509,62.7296471 Z M521.739936,62.0375677 L521.739936,58.2025883 L522.640509,58.2025883 C523.779758,58.2025883 524.363736,58.8837591 524.363736,60.1129013 C524.363736,61.3455703 523.779758,62.0340409 522.597859,62.0375677 L521.739936,62.0375677 Z" id="Shape" fill="#001A5B" fill-rule="nonzero"></path>
            <polygon id="Path" fill="#979797" points="38.1390041 40.013236 38.1390041 12.5231339 38.9591978 12.5231339 38.9591978 40.013236"></polygon>
            <polygon id="Path" fill="#979797" points="185.773859 40.013236 185.773859 12.5231339 186.594053 12.5231339 186.594053 40.013236"></polygon>
            <polygon id="Path" fill="#979797" points="259.591286 40.013236 259.591286 12.5231339 260.41148 12.5231339 260.41148 40.013236"></polygon>
            <polygon id="Path" fill="#979797" points="321.105809 40.013236 321.105809 12.5231339 321.926003 12.5231339 321.926003 40.013236"></polygon>
            <polygon id="Path" fill="#979797" points="345.711618 40.013236 345.711618 12.5231339 346.531812 12.5231339 346.531812 40.013236"></polygon>
            <polygon id="Path" fill="#979797" points="394.923237 40.013236 394.923237 12.5231339 395.74343 12.5231339 395.74343 40.013236"></polygon>
            <polygon id="Path" fill="#979797" points="419.529046 40.013236 419.529046 12.5231339 420.349239 12.5231339 420.349239 40.013236"></polygon>
            <polygon id="Path" fill="#979797" points="468.740664 40.013236 468.740664 12.5231339 469.560858 12.5231339 469.560858 40.013236"></polygon>
            <polygon id="Path" fill="#979797" points="493.346473 40.013236 493.346473 12.5231339 494.166667 12.5231339 494.166667 40.013236"></polygon>
            <polygon id="Path" fill="#979797" points="542.558091 40.013236 542.558091 12.5231339 543.378285 12.5231339 543.378285 40.013236"></polygon>
            <polygon id="Path" fill="#979797" points="567.1639 40.013236 567.1639 12.5231339 567.984094 12.5231339 567.984094 40.013236"></polygon>
            <rect id="Rectangle" fill="#E2E6F6" fill-rule="nonzero" x="223.092669" y="15.9040541" width="73.8174274" height="19.6846473"></rect>
            <path d="M247.574629,22.1780433 L246.81349,22.1780433 L246.81349,23.45164 L245.255122,23.45164 C245.303513,23.2113233 245.3314,22.9550128 245.3314,22.6906644 L242.047344,22.6906644 L242.047344,23.3154059 L244.506285,23.3154059 C244.370133,24.4728631 243.376878,25.3859847 241.679077,25.8705551 L241.983369,26.463227 C243.537636,26.0186821 244.61455,25.2057061 245.0796,24.0523498 L246.81349,24.0523498 L246.81349,24.925364 L245.003322,24.925364 L245.003322,25.5501875 L246.81349,25.5501875 L246.81349,26.4232016 L247.574629,26.4232016 L247.574629,22.1780433 Z M242.7929,27.9050454 C242.7929,28.7780595 243.737763,29.3147122 245.211651,29.3147122 C246.665035,29.3147122 247.6181,28.7780595 247.622201,27.9050454 C247.6181,27.0359682 246.665035,26.5072714 245.211651,26.5033345 C243.737763,26.5072714 242.7929,27.0359682 242.7929,27.9050454 Z M243.545838,27.9050454 C243.545838,27.3924244 244.186409,27.1000254 245.211651,27.1040443 C246.216389,27.1000254 246.85778,27.3924244 246.861061,27.9050454 C246.85778,28.4096285 246.216389,28.7019456 245.211651,28.7059645 C244.186409,28.7019456 243.545838,28.4096285 243.545838,27.9050454 Z" id="Shape" fill="#113287" fill-rule="nonzero"></path>
            <polygon id="Path" fill="#113287" fill-rule="nonzero" points="254.494603 25.4780924 250.257483 25.4780924 250.257483 23.3394375 254.430628 23.3394375 254.430628 22.7227339 249.496343 22.7227339 249.496343 26.0868402 251.571433 26.0868402 251.571433 27.8409063 248.67943 27.8409063 248.67943 28.4656478 255.247541 28.4656478 255.247541 27.8409063 252.324371 27.8409063 252.324371 26.0868402 254.494603 26.0868402"></polygon>
            <polygon id="Path" fill="#113287" fill-rule="nonzero" points="260.222015 22.866924 259.356711 22.866924 257.914811 23.8120331 257.914811 24.6530597 259.300938 23.747976 259.332925 23.747976 259.332925 28.6659391 260.222015 28.6659391"></polygon>
            <polygon id="Path" fill="#113287" fill-rule="nonzero" points="263.898123 22.866924 263.032819 22.866924 261.590918 23.8120331 261.590918 24.6530597 262.977046 23.747976 263.009033 23.747976 263.009033 28.6659391 263.898123 28.6659391"></polygon>
            <path d="M265.612328,28.7219583 C265.920721,28.7180214 266.176621,28.4656478 266.180722,28.153318 C266.176621,27.8409063 265.920721,27.5845958 265.612328,27.5845958 C265.299834,27.5845958 265.039833,27.8409063 265.043113,28.153318 C265.039833,28.4656478 265.299834,28.7180214 265.612328,28.7219583 Z" id="Path" fill="#113287" fill-rule="nonzero"></path>
            <path d="M269.056321,28.74599 C270.257905,28.74599 271.151095,28.0371786 271.147022,27.0719747 C271.151095,26.3391317 270.690147,25.806498 269.897019,25.6942955 L269.897019,25.65427 C270.522007,25.4981052 270.930463,25.0255096 270.922261,24.3646796 C270.930463,23.5076592 270.213614,22.7867911 269.072725,22.7867911 C267.990889,22.7867911 267.118203,23.4276083 267.093598,24.3727175 L267.943318,24.3727175 C267.963003,23.8481216 268.483826,23.523735 269.064523,23.523735 C269.677207,23.523735 270.073361,23.8841281 270.073361,24.4127429 C270.073361,24.9694083 269.613232,25.3379214 268.952156,25.3339024 L268.455939,25.3339024 L268.455939,26.0547706 L268.952156,26.0547706 C269.781372,26.0587895 270.257905,26.467246 270.257905,27.0399872 C270.257905,27.6046085 269.749385,27.9850963 269.048119,27.9850963 C268.399346,27.9850963 267.894927,27.6607097 267.862939,27.1521077 L266.965647,27.1521077 C267.001736,28.1012357 267.854737,28.74599 269.056321,28.74599 Z" id="Path" fill="#113287" fill-rule="nonzero"></path>
            <path d="M273.445997,25.6222005 C274.226822,25.6302384 274.659064,25.0455223 274.663165,24.1804641 C274.659064,23.3314817 274.242405,22.7427467 273.445997,22.7467452 C272.672555,22.7427467 272.219808,23.3314817 272.22801,24.1804641 C272.219808,25.0415034 272.65287,25.6302384 273.445997,25.6222005 Z M272.884985,28.6659391 L273.614137,28.6659391 L277.594537,22.866924 L276.866205,22.866924 L272.884985,28.6659391 Z M272.884985,24.1804641 C272.889086,23.6639061 273.073629,23.3154059 273.445997,23.30745 C273.833949,23.303431 273.997988,23.6598872 273.997988,24.1804641 C273.997988,24.7131799 273.822466,25.0575792 273.445997,25.0615981 C273.073629,25.0575792 272.889086,24.7131799 272.884985,24.1804641 Z M275.888534,27.344361 C275.884433,28.1973624 276.317495,28.7860974 277.105701,28.7860974 C277.887346,28.7860974 278.319588,28.2013814 278.323689,27.344361 C278.319588,26.4872587 277.898828,25.8986057 277.105701,25.902523 C276.333079,25.8986057 275.884433,26.4872587 275.888534,27.344361 Z M276.545509,27.344361 C276.54961,26.8196832 276.737434,26.4712649 277.105701,26.463227 C277.494473,26.463227 277.658512,26.8156642 277.658512,27.344361 C277.658512,27.8689569 277.48217,28.2173752 277.105701,28.2173752 C276.733333,28.2173752 276.54961,27.8689569 276.545509,27.344361 Z" id="Shape" fill="#113287" fill-rule="nonzero"></path>
            <rect id="Rectangle" fill="#5B6EB4" fill-rule="nonzero" x="149.275242" y="15.9040541" width="73.8174274" height="19.6846473"></rect>
            <path d="M176.231726,25.3258645 L169.688221,25.3258645 L169.688221,25.9426501 L172.579404,25.9426501 L172.579404,26.6314487 C171.245769,26.6995248 170.464945,27.1440698 170.464945,27.8970075 C170.464945,28.7099835 171.394224,29.1665032 172.955873,29.1625916 C174.497837,29.1665032 175.427116,28.7099835 175.431217,27.8970075 C175.427116,27.1440698 174.646292,26.7035438 173.332342,26.6314487 L173.332342,25.9426501 L176.231726,25.9426501 L176.231726,25.3258645 Z M170.032703,24.3486858 L170.296805,24.9493956 C171.541859,24.8052876 172.56382,24.2806097 172.959974,23.5197161 C173.348746,24.2806097 174.377268,24.8052876 175.623142,24.9493956 L175.895447,24.3486858 C174.581497,24.2165526 173.572658,23.6358555 173.468494,22.939019 L175.646928,22.939019 L175.646928,22.3302713 L170.288603,22.3302713 L170.288603,22.939019 L172.443252,22.939019 C172.339087,23.6318366 171.322047,24.2165526 170.032703,24.3486858 Z M171.233453,27.8970075 C171.230185,27.4524626 171.858454,27.2121458 172.955873,27.2081269 C174.036888,27.2121458 174.670077,27.4524626 174.670077,27.8970075 C174.670077,28.3335146 174.036888,28.5858061 172.955873,28.5778503 C171.858454,28.5858061 171.230185,28.3335146 171.233453,27.8970075 Z" id="Shape" fill="#FFFFFF" fill-rule="nonzero"></path>
            <polygon id="Path" fill="#FFFFFF" fill-rule="nonzero" points="182.591508 25.3098707 178.354387 25.3098707 178.354387 23.1712978 182.527533 23.1712978 182.527533 22.5545122 177.593248 22.5545122 177.593248 25.9186184 179.668337 25.9186184 179.668337 27.6726846 176.776335 27.6726846 176.776335 28.2975081 183.344445 28.2975081 183.344445 27.6726846 180.421275 27.6726846 180.421275 25.9186184 182.591508 25.9186184"></polygon>
            <polygon id="Path" fill="#FFFFFF" fill-rule="nonzero" points="188.31892 22.6987023 187.453615 22.6987023 186.011715 23.6438114 186.011715 24.4848379 187.397022 23.5797543 187.42983 23.5797543 187.42983 28.4977173 188.31892 28.4977173"></polygon>
            <path d="M190.032304,28.5538186 C190.340697,28.5497996 190.597418,28.2975081 190.601519,27.9850963 C190.597418,27.6726846 190.340697,27.416374 190.032304,27.416374 C189.720631,27.416374 189.459809,27.6726846 189.46391,27.9850963 C189.459809,28.2975081 189.720631,28.5497996 190.032304,28.5538186 Z" id="Path" fill="#FFFFFF" fill-rule="nonzero"></path>
            <path d="M193.428726,28.5778503 C194.770563,28.5778503 195.555488,27.496507 195.559589,25.5982508 C195.555488,23.7118875 194.75826,22.6185693 193.428726,22.6185693 C192.095091,22.6185693 191.297863,23.7118875 191.297863,25.5982508 C191.297863,27.496507 192.086889,28.5778503 193.428726,28.5778503 Z M192.179571,25.5982508 C192.179571,24.1564324 192.647902,23.3674882 193.428726,23.3634692 C194.20545,23.3674882 194.677881,24.1564324 194.677881,25.5982508 C194.677881,27.0439241 194.20955,27.8168746 193.428726,27.8168746 C192.643801,27.8168746 192.17547,27.0439241 192.179571,25.5982508 Z" id="Shape" fill="#FFFFFF" fill-rule="nonzero"></path>
            <path d="M197.801999,25.4540608 C198.582823,25.4620166 199.015885,24.8773006 199.019166,24.0123244 C199.015885,23.1632599 198.599227,22.5745249 197.801999,22.5785234 C197.029376,22.5745249 196.576629,23.1632599 196.584831,24.0123244 C196.576629,24.8733637 197.008871,25.4620166 197.801999,25.4540608 Z M197.240986,28.4977173 L197.970138,28.4977173 L201.951358,22.6987023 L201.222206,22.6987023 L197.240986,28.4977173 Z M197.240986,24.0123244 C197.245087,23.4956844 197.429631,23.1472662 197.801999,23.1392283 C198.19077,23.1352093 198.354809,23.4916655 198.354809,24.0123244 C198.354809,24.5449581 198.178467,24.8893575 197.801999,24.8933764 C197.429631,24.8893575 197.245087,24.5449581 197.240986,24.0123244 Z M200.245355,27.1761393 C200.241254,28.0291407 200.673497,28.6178757 201.462523,28.6178757 C202.243347,28.6178757 202.675589,28.0331597 202.67969,27.1761393 C202.675589,26.319119 202.25565,25.730384 201.462523,25.7343825 C200.6899,25.730384 200.241254,26.319119 200.245355,27.1761393 Z M200.90151,27.1761393 C200.905611,26.6514615 201.094256,26.3030432 201.462523,26.2950873 C201.851295,26.2950873 202.015333,26.6474425 202.015333,27.1761393 C202.015333,27.7007352 201.838992,28.0491534 201.462523,28.0491534 C201.090155,28.0491534 200.905611,27.7007352 200.90151,27.1761393 Z" id="Shape" fill="#FFFFFF" fill-rule="nonzero"></path>
            <rect id="Rectangle" fill="#113287" fill-rule="nonzero" x="75.4578147" y="15.9040541" width="73.8174274" height="19.6846473"></rect>
            <path d="M101.865589,22.8508482 L96.7475809,22.8508482 L96.7475809,23.4676338 L101.10527,23.4676338 L101.10527,23.5557226 C101.101169,24.4167619 101.101169,25.434048 100.824763,26.8237021 L101.593285,26.903753 C101.861488,25.434048 101.861488,24.4407936 101.865589,23.5557226 L101.865589,22.8508482 Z M96.0586183,28.3696031 L102.602943,28.3696031 L102.602943,27.7368237 L99.3024841,27.7368237 L99.3024841,25.2057061 L98.5495463,25.2057061 L98.5495463,27.7368237 L96.0586183,27.7368237 L96.0586183,28.3696031 Z" id="Shape" fill="#FFFFFF" fill-rule="nonzero"></path>
            <polygon id="Path" fill="#FFFFFF" fill-rule="nonzero" points="108.962725 25.4700545 104.725604 25.4700545 104.725604 23.3314817 108.897929 23.3314817 108.897929 22.714696 103.964465 22.714696 103.964465 26.0788023 106.038734 26.0788023 106.038734 27.8329504 103.147552 27.8329504 103.147552 28.4576919 109.715663 28.4576919 109.715663 27.8329504 106.791672 27.8329504 106.791672 26.0788023 108.962725 26.0788023"></polygon>
            <path d="M114.504773,28.7380341 C115.84661,28.7380341 116.631535,27.6566908 116.635636,25.7584346 C116.631535,23.8721533 115.835127,22.7788352 114.504773,22.7788352 C113.171138,22.7788352 112.37473,23.8721533 112.37473,25.7584346 C112.37473,27.6566908 113.163757,28.7380341 114.504773,28.7380341 Z M113.255618,25.7584346 C113.255618,24.3166983 113.723949,23.527672 114.504773,23.523735 C115.282317,23.527672 115.754748,24.3166983 115.754748,25.7584346 C115.754748,27.20419 115.286418,27.9770584 114.504773,27.9770584 C113.719848,27.9770584 113.251517,27.20419 113.255618,25.7584346 Z" id="Shape" fill="#FFFFFF" fill-rule="nonzero"></path>
            <path d="M117.901195,28.7140024 C118.209588,28.7099835 118.466308,28.4576919 118.469589,28.1452801 C118.466308,27.8329504 118.209588,27.5766399 117.901195,27.5766399 C117.588701,27.5766399 117.3287,27.8329504 117.332801,28.1452801 C117.3287,28.4576919 117.588701,28.7099835 117.901195,28.7140024 Z" id="Path" fill="#FFFFFF" fill-rule="nonzero"></path>
            <polygon id="Path" fill="#FFFFFF" fill-rule="nonzero" points="120.993325 22.8588861 120.128021 22.8588861 118.68612 23.8040772 118.68612 24.6450218 120.072248 23.7399381 120.104235 23.7399381 120.104235 28.6579012 120.993325 28.6579012"></polygon>
            <path d="M123.796747,25.6142446 C124.577571,25.6222005 125.009813,25.0375664 125.013914,24.1725082 C125.009813,23.3234438 124.593155,22.7347088 123.796747,22.7387073 C123.023304,22.7347088 122.570557,23.3234438 122.578759,24.1725082 C122.570557,25.0335475 123.00362,25.6222005 123.796747,25.6142446 Z M123.235734,28.6579012 L123.964887,28.6579012 L127.945286,22.8588861 L127.216134,22.8588861 L123.235734,28.6579012 Z M123.235734,24.1725082 C123.239835,23.6558682 123.423559,23.30745 123.796747,23.2994121 C124.184698,23.2953931 124.348737,23.6518493 124.348737,24.1725082 C124.348737,24.705142 124.173216,25.0495413 123.796747,25.0535602 C123.423559,25.0495413 123.239835,24.705142 123.235734,24.1725082 Z M126.239284,27.3363231 C126.235183,28.1893245 126.668245,28.7780595 127.456451,28.7780595 C128.238095,28.7780595 128.670337,28.1933435 128.674438,27.3363231 C128.670337,26.4793028 128.249578,25.8905678 127.456451,25.8945663 C126.683828,25.8905678 126.235183,26.4793028 126.239284,27.3363231 Z M126.896259,27.3363231 C126.90036,26.8116453 127.088184,26.463227 127.456451,26.4552711 C127.845223,26.4552711 128.009261,26.8077083 128.009261,27.3363231 C128.009261,27.860919 127.83292,28.2093373 127.456451,28.2093373 C127.084083,28.2093373 126.90036,27.860919 126.896259,27.3363231 Z" id="Shape" fill="#FFFFFF" fill-rule="nonzero"></path>
            <rect id="Rectangle" fill="#001A5B" fill-rule="nonzero" x="9.02213001" y="15.9040541" width="66.4356846" height="19.6846473"></rect>
            <path d="M24.8549019,28.0451345 L21.9393596,28.0451345 L21.9393596,26.4833218 L21.1865039,26.4833218 L21.1865039,28.0451345 L18.2869553,28.0451345 L18.2869553,28.669958 L24.8549019,28.669958 L24.8549019,28.0451345 Z M18.607323,26.1388404 L18.895703,26.7315944 C20.0971227,26.5433599 21.0943961,25.9746377 21.5589538,25.1376301 C22.0274484,25.9746377 23.0286588,26.5433599 24.2301604,26.7315944 L24.5185405,26.1388404 C23.0447346,25.9226374 21.983404,25.0895667 21.9473975,24.0804005 L24.2461542,24.0804005 L24.2461542,23.4636149 L21.9393596,23.4636149 L21.9393596,22.5024299 L21.1865039,22.5024299 L21.1865039,23.4636149 L18.8797093,23.4636149 L18.8797093,24.0804005 L21.178466,24.0804005 C21.1423775,25.0895667 20.0811289,25.9226374 18.607323,26.1388404 Z" id="Shape" fill="#FFFFFF" fill-rule="nonzero"></path>
            <path d="M31.1826138,23.0631143 L26.0643595,23.0631143 L26.0643595,23.6798999 L30.4216382,23.6798999 L30.4216382,23.7679887 C30.4176192,24.629028 30.4176192,25.6462321 30.141296,27.0359682 L30.9102275,27.1160191 C31.1785949,25.6462321 31.1785949,24.6530597 31.1826138,23.7679887 L31.1826138,23.0631143 Z M25.3755609,28.5817872 L31.9194758,28.5817872 L31.9194758,27.9490898 L28.6195087,27.9490898 L28.6195087,25.4179723 L27.866571,25.4179723 L27.866571,27.9490898 L25.3755609,27.9490898 L25.3755609,28.5817872 Z" id="Shape" fill="#FFFFFF" fill-rule="nonzero"></path>
            <polygon id="Path" fill="#FFFFFF" fill-rule="nonzero" points="38.2791752 25.6823207 34.0420549 25.6823207 34.0420549 23.5437478 38.2151181 23.5437478 38.2151181 22.9269622 33.2810793 22.9269622 33.2810793 26.2910684 35.355595 26.2910684 35.355595 28.0451345 32.4641664 28.0451345 32.4641664 28.669958 39.032113 28.669958 39.032113 28.0451345 36.1085328 28.0451345 36.1085328 26.2910684 38.2791752 26.2910684"></polygon>
            <path d="M43.8218798,28.9503002 C45.1635526,28.9503002 45.9484779,27.8689569 45.9524968,25.9707007 C45.9484779,24.0843374 45.1514957,22.9910193 43.8218798,22.9910193 C42.488245,22.9910193 41.6913448,24.0843374 41.6913448,25.9707007 C41.6913448,27.8689569 42.4802891,28.9503002 43.8218798,28.9503002 Z M42.5723968,25.9707007 C42.5723968,24.5288823 43.0409734,23.7399381 43.8218798,23.7359191 C44.5988492,23.7399381 45.0713628,24.5288823 45.0713628,25.9707007 C45.0713628,27.416374 44.6028682,28.1893245 43.8218798,28.1893245 C43.0369545,28.1893245 42.5683779,27.416374 42.5723968,25.9707007 Z" id="Shape" fill="#FFFFFF" fill-rule="nonzero"></path>
            <path d="M47.2179736,28.9262685 C47.5263664,28.9222496 47.7826769,28.669958 47.7866959,28.3575462 C47.7826769,28.0451345 47.5263664,27.788906 47.2179736,27.788906 C46.9056438,27.788906 46.6453144,28.0451345 46.6493333,28.3575462 C46.6453144,28.669958 46.9056438,28.9222496 47.2179736,28.9262685 Z" id="Path" fill="#FFFFFF" fill-rule="nonzero"></path>
            <polygon id="Path" fill="#FFFFFF" fill-rule="nonzero" points="50.3097755 23.0711522 49.4447173 23.0711522 48.0029809 24.0162613 48.0029809 24.8572879 49.388616 23.9522042 49.4206856 23.9522042 49.4206856 28.8701673 50.3097755 28.8701673"></polygon>
            <path d="M53.1131154,25.8265107 C53.8941037,25.8344666 54.3265918,25.2497505 54.3306108,24.3847743 C54.3265918,23.5357099 53.9100975,22.9469749 53.1131154,22.9509734 C52.3402469,22.9469749 51.887664,23.5357099 51.8957019,24.3847743 C51.887664,25.2458136 52.3201521,25.8344666 53.1131154,25.8265107 Z M52.552431,28.8701673 L53.2813371,28.8701673 L57.2621469,23.0711522 L56.5333228,23.0711522 L52.552431,28.8701673 Z M52.552431,24.3847743 C52.5564499,23.8681344 52.7406654,23.5197161 53.1131154,23.5116782 C53.5016411,23.5076592 53.6658438,23.8641154 53.6658438,24.3847743 C53.6658438,24.9174081 53.4895842,25.2618074 53.1131154,25.2658263 C52.7406654,25.2618074 52.5564499,24.9174081 52.552431,24.3847743 Z M55.5561441,27.5485893 C55.5521252,28.4015906 55.9846133,28.9903256 56.7735575,28.9903256 C57.5545459,28.9903256 57.987034,28.4056096 57.991053,27.5485893 C57.987034,26.6915689 57.5665207,26.1028339 56.7735575,26.1068324 C56.0006071,26.1028339 55.5521252,26.6915689 55.5561441,27.5485893 Z M56.2128732,27.5485893 C56.2168921,27.0239114 56.4051266,26.6754931 56.7735575,26.6675373 C57.1620833,26.6675373 57.326286,27.0198924 57.326286,27.5485893 C57.326286,28.0731851 57.1500264,28.4216034 56.7735575,28.4216034 C56.4011076,28.4216034 56.2168921,28.0731851 56.2128732,27.5485893 Z" id="Shape" fill="#FFFFFF" fill-rule="nonzero"></path>
            <polygon id="Path" fill="#979797" points="148.865145 52.4924002 148.865145 0 149.685339 0 149.685339 52.4924002"></polygon>
            <polygon id="Path" fill="#979797" points="222.682573 52.4924002 222.682573 0 223.502766 0 223.502766 52.4924002"></polygon>
            <polygon id="Path" fill="#979797" points="75.0477178 52.4924002 75.0477178 0 75.8679115 0 75.8679115 52.4924002"></polygon>
            <rect id="Rectangle" fill="#113287" fill-rule="nonzero" x="444.544952" y="15.9040541" width="73.8174274" height="19.6846473"></rect>
            <path d="M470.031649,22.8508482 L464.91364,22.8508482 L464.91364,23.4676338 L469.270509,23.4676338 L469.270509,23.5557226 C469.267228,24.4167619 469.267228,25.434048 468.990823,26.8237021 L469.759344,26.903753 C470.027548,25.434048 470.027548,24.4407936 470.031649,23.5557226 L470.031649,22.8508482 Z M464.224678,28.3696031 L470.769003,28.3696031 L470.769003,27.7368237 L467.468544,27.7368237 L467.468544,25.2057061 L466.715606,25.2057061 L466.715606,27.7368237 L464.224678,27.7368237 L464.224678,28.3696031 Z" id="Shape" fill="#FFFFFF" fill-rule="nonzero"></path>
            <polygon id="Path" fill="#FFFFFF" fill-rule="nonzero" points="477.128784 25.4700545 472.891664 25.4700545 472.891664 23.3314817 477.063989 23.3314817 477.063989 22.714696 472.130524 22.714696 472.130524 26.0788023 474.204794 26.0788023 474.204794 27.8329504 471.313611 27.8329504 471.313611 28.4576919 477.881722 28.4576919 477.881722 27.8329504 474.957732 27.8329504 474.957732 26.0788023 477.128784 26.0788023"></polygon>
            <path d="M482.623261,28.7380341 C483.832227,28.7380341 484.689329,27.9170202 484.689329,26.7756388 C484.689329,25.658289 483.884719,24.849332 482.791401,24.8453131 C482.350957,24.849332 481.942501,25.0054969 481.702184,25.2377757 L481.645591,25.2377757 L481.838336,23.6118238 L484.393239,23.6118238 L484.393239,22.8588861 L481.109184,22.8588861 L480.732715,26.0868402 L481.566032,26.0868402 C481.762058,25.730384 482.118842,25.5742191 482.583072,25.5742191 C483.312224,25.582175 483.832227,26.094796 483.832227,26.7996705 C483.832227,27.4884691 483.327808,27.9971532 482.623261,28.0010901 C482.038463,27.9971532 481.566032,27.6366781 481.51764,27.1440698 L480.660538,27.1440698 C480.700728,28.0691662 481.525842,28.7380341 482.623261,28.7380341 Z" id="Path" fill="#FFFFFF" fill-rule="nonzero"></path>
            <path d="M485.986876,28.7140024 C486.295268,28.7099835 486.551989,28.4576919 486.55609,28.1452801 C486.551989,27.8329504 486.295268,27.5766399 485.986876,27.5766399 C485.674382,27.5766399 485.41438,27.8329504 485.418481,28.1452801 C485.41438,28.4576919 485.674382,28.7099835 485.986876,28.7140024 Z" id="Path" fill="#FFFFFF" fill-rule="nonzero"></path>
            <path d="M489.463676,28.7380888 C490.70873,28.74599 491.537946,27.8849507 491.537946,26.759645 C491.537946,25.6502511 490.704629,24.8572879 489.672006,24.8532689 C489.042917,24.8572879 488.498308,25.145668 488.181714,25.6382763 L488.117739,25.6382763 C488.117739,24.3286731 488.638562,23.5517036 489.535853,23.5477667 C490.119831,23.5517036 490.493019,23.892166 490.608667,24.3646796 L491.482173,24.3646796 C491.346021,23.4436021 490.604566,22.7788352 489.535853,22.7788352 C488.145625,22.7788352 487.272939,23.9321915 487.268838,25.950606 C487.268838,28.0931978 488.390043,28.7299962 489.463676,28.7380888 Z M488.221903,26.7836767 C488.230105,26.1388404 488.770613,25.5702002 489.47926,25.5741969 C490.176425,25.5702002 490.680844,26.1108718 490.680844,26.7756388 C490.680844,27.4524626 490.15592,27.9971532 489.455474,28.0010901 C488.742726,27.9971532 488.226004,27.4284309 488.221903,26.7836767 Z" id="Shape" fill="#FFFFFF" fill-rule="nonzero"></path>
            <path d="M493.804961,25.6142446 C494.585786,25.6222005 495.018028,25.0375664 495.022129,24.1725082 C495.018028,23.3234438 494.601369,22.7347088 493.804961,22.7387073 C493.031519,22.7347088 492.578772,23.3234438 492.586974,24.1725082 C492.578772,25.0335475 493.011834,25.6222005 493.804961,25.6142446 Z M493.243949,28.6579012 L493.973101,28.6579012 L497.953501,22.8588861 L497.225169,22.8588861 L493.243949,28.6579012 Z M493.243949,24.1725082 C493.24805,23.6558682 493.431773,23.30745 493.804961,23.2994121 C494.192913,23.2953931 494.356952,23.6518493 494.356952,24.1725082 C494.356952,24.705142 494.18143,25.0495413 493.804961,25.0535602 C493.431773,25.0495413 493.24805,24.705142 493.243949,24.1725082 Z M496.247498,27.3363231 C496.243397,28.1893245 496.676459,28.7780595 497.464665,28.7780595 C498.24631,28.7780595 498.678552,28.1933435 498.682653,27.3363231 C498.678552,26.4793028 498.257793,25.8905678 497.464665,25.8945663 C496.692043,25.8905678 496.243397,26.4793028 496.247498,27.3363231 Z M496.904473,27.3363231 C496.908574,26.8116453 497.096398,26.463227 497.464665,26.4552711 C497.853437,26.4552711 498.017476,26.8077083 498.017476,27.3363231 C498.017476,27.860919 497.841134,28.2093373 497.464665,28.2093373 C497.092297,28.2093373 496.908574,27.860919 496.904473,27.3363231 Z" id="Shape" fill="#FFFFFF" fill-rule="nonzero"></path>
            <rect id="Rectangle" fill="#5B6EB4" fill-rule="nonzero" x="370.727524" y="15.9040541" width="73.8174274" height="19.6846473"></rect>
            <path d="M394.51232,25.3258645 L387.968815,25.3258645 L387.968815,25.9426501 L390.859997,25.9426501 L390.859997,26.6314487 C389.526362,26.6995248 388.745538,27.1440698 388.745538,27.8970075 C388.745538,28.7099835 389.674817,29.1665032 391.236466,29.1625916 C392.77843,29.1665032 393.70771,28.7099835 393.71099,27.8970075 C393.70771,27.1440698 392.926065,26.7035438 391.612935,26.6314487 L391.612935,25.9426501 L394.51232,25.9426501 L394.51232,25.3258645 Z M388.312476,24.3486858 L388.577398,24.9493956 C389.822452,24.8052876 390.843593,24.2806097 391.240567,23.5197161 C391.628519,24.2806097 392.657862,24.8052876 393.903736,24.9493956 L394.17604,24.3486858 C392.86209,24.2165526 391.853252,23.6358555 391.749087,22.939019 L393.927521,22.939019 L393.927521,22.3302713 L388.569196,22.3302713 L388.569196,22.939019 L390.723845,22.939019 C390.61968,23.6318366 389.60264,24.2165526 388.312476,24.3486858 Z M389.51404,27.8970075 C389.509959,27.4524626 390.139047,27.2121458 391.236466,27.2081269 C392.317481,27.2121458 392.950671,27.4524626 392.950671,27.8970075 C392.950671,28.3335146 392.317481,28.5858061 391.236466,28.5778503 C390.139047,28.5858061 389.509959,28.3335146 389.51404,27.8970075 Z" id="Shape" fill="#FFFFFF" fill-rule="nonzero"></path>
            <polygon id="Path" fill="#FFFFFF" fill-rule="nonzero" points="400.872101 25.3098707 396.634981 25.3098707 396.634981 23.1712978 400.808126 23.1712978 400.808126 22.5545122 395.873841 22.5545122 395.873841 25.9186184 397.948111 25.9186184 397.948111 27.6726846 395.056928 27.6726846 395.056928 28.2975081 401.625039 28.2975081 401.625039 27.6726846 398.701048 27.6726846 398.701048 25.9186184 400.872101 25.9186184"></polygon>
            <path d="M404.396473,28.4977173 L408.297314,28.4977173 L408.297314,27.7447796 L405.621842,27.7447796 L405.621842,27.6967162 L406.79882,26.5033345 C407.888858,25.434048 408.193149,24.9174081 408.200531,24.2686349 C408.193149,23.3274627 407.419707,22.6185693 406.302603,22.6185693 C405.196982,22.6185693 404.388271,23.3194248 404.396473,24.3807554 L405.22897,24.3807554 C405.233071,23.7639698 405.641527,23.3555133 406.286199,23.3555133 C406.895603,23.3555133 407.359833,23.7199254 407.359833,24.2926666 C407.359833,24.8012687 407.043238,25.1696996 406.406768,25.8305297 L404.396473,27.8569821 L404.396473,28.4977173 Z" id="Path" fill="#FFFFFF" fill-rule="nonzero"></path>
            <path d="M411.24427,28.5778503 C412.454055,28.5778503 413.311158,27.7568364 413.311158,26.615455 C413.311158,25.4981052 412.506548,24.6891482 411.412409,24.6851292 C410.971965,24.6891482 410.563509,24.8453131 410.323192,25.0775919 L410.267419,25.0775919 L410.459344,23.45164 L413.015068,23.45164 L413.015068,22.6987023 L409.731012,22.6987023 L409.354544,25.9265743 L410.18704,25.9265743 C410.383887,25.5702002 410.739851,25.4139533 411.2049,25.4139533 C411.933232,25.4219912 412.454055,25.9346122 412.454055,26.6394866 C412.454055,27.3282853 411.949636,27.8368873 411.24427,27.8409063 C410.660292,27.8368873 410.18704,27.4764942 410.139469,26.9838859 L409.282367,26.9838859 C409.322556,27.9089823 410.147671,28.5778503 411.24427,28.5778503 Z" id="Path" fill="#FFFFFF" fill-rule="nonzero"></path>
            <path d="M414.608704,28.5538186 C414.917097,28.5497996 415.172997,28.2975081 415.177098,27.9850963 C415.172997,27.6726846 414.917097,27.416374 414.608704,27.416374 C414.29621,27.416374 414.036209,27.6726846 414.04031,27.9850963 C414.036209,28.2975081 414.29621,28.5497996 414.608704,28.5538186 Z" id="Path" fill="#FFFFFF" fill-rule="nonzero"></path>
            <path d="M418.084685,28.5779049 C419.330559,28.5858061 420.159775,27.7247669 420.159775,26.5994612 C420.159775,25.4900673 419.326458,24.6971041 418.293014,24.6930851 C417.664746,24.6971041 417.119317,24.9854841 416.803542,25.4780924 L416.739567,25.4780924 C416.739567,24.1684893 417.25957,23.3915198 418.156862,23.3875009 C418.74166,23.3915198 419.114028,23.7319822 419.230495,24.2044958 L420.103181,24.2044958 C419.967029,23.2834183 419.226394,22.6185693 418.156862,22.6185693 C416.767454,22.6185693 415.893947,23.7720077 415.889846,25.7904222 C415.889846,27.933014 417.011871,28.5698124 418.084685,28.5779049 Z M416.843732,26.6234929 C416.851113,25.9786566 417.392441,25.4100164 418.101089,25.4139319 C418.797433,25.4100164 419.302672,25.950606 419.302672,26.615455 C419.302672,27.2922788 418.777748,27.8368873 418.076483,27.8409063 C417.363734,27.8368873 416.847012,27.2682471 416.843732,26.6234929 Z" id="Shape" fill="#FFFFFF" fill-rule="nonzero"></path>
            <path d="M422.42597,25.4540608 C423.206794,25.4620166 423.639856,24.8773006 423.643957,24.0123244 C423.639856,23.1632599 423.223198,22.5745249 422.42597,22.5785234 C421.653347,22.5745249 421.2006,23.1632599 421.208802,24.0123244 C421.2006,24.8733637 421.632842,25.4620166 422.42597,25.4540608 Z M421.865777,28.4977173 L422.594109,28.4977173 L426.575329,22.6987023 L425.846177,22.6987023 L421.865777,28.4977173 Z M421.865777,24.0123244 C421.869878,23.4956844 422.053602,23.1472662 422.42597,23.1392283 C422.814741,23.1352093 422.97878,23.4916655 422.97878,24.0123244 C422.97878,24.5449581 422.802438,24.8893575 422.42597,24.8933764 C422.053602,24.8893575 421.869878,24.5449581 421.865777,24.0123244 Z M424.869326,27.1761393 C424.865225,28.0291407 425.297467,28.6178757 426.086494,28.6178757 C426.867318,28.6178757 427.30038,28.0331597 427.303661,27.1761393 C427.30038,26.319119 426.879621,25.730384 426.086494,25.7343825 C425.313871,25.730384 424.865225,26.319119 424.869326,27.1761393 Z M425.526302,27.1761393 C425.529582,26.6514615 425.718227,26.3030432 426.086494,26.2950873 C426.475266,26.2950873 426.639304,26.6474425 426.639304,27.1761393 C426.639304,27.7007352 426.462963,28.0491534 426.086494,28.0491534 C425.714126,28.0491534 425.529582,27.7007352 425.526302,27.1761393 Z" id="Shape" fill="#FFFFFF" fill-rule="nonzero"></path>
            <rect id="Rectangle" fill="#E2E6F6" fill-rule="nonzero" x="296.910097" y="15.9040541" width="73.8174274" height="19.6846473"></rect>
            <path d="M319.929651,22.1780433 L319.169332,22.1780433 L319.169332,23.45164 L317.610964,23.45164 C317.659355,23.2113233 317.687242,22.9550128 317.687242,22.6906644 L314.403187,22.6906644 L314.403187,23.3154059 L316.862127,23.3154059 C316.725975,24.4728631 315.732721,25.3859847 314.03492,25.8705551 L314.339212,26.463227 C315.893479,26.0186821 316.970393,25.2057061 317.434622,24.0523498 L319.169332,24.0523498 L319.169332,24.925364 L317.359165,24.925364 L317.359165,25.5501875 L319.169332,25.5501875 L319.169332,26.4232016 L319.929651,26.4232016 L319.929651,22.1780433 Z M315.147923,27.9050454 C315.147923,28.7780595 316.093606,29.3147122 317.567494,29.3147122 C319.020877,29.3147122 319.973942,28.7780595 319.978043,27.9050454 C319.973942,27.0359682 319.020877,26.5072714 317.567494,26.5033345 C316.093606,26.5072714 315.147923,27.0359682 315.147923,27.9050454 Z M315.90086,27.9050454 C315.90086,27.3924244 316.542252,27.1000254 317.567494,27.1040443 C318.572231,27.1000254 319.212802,27.3924244 319.216903,27.9050454 C319.212802,28.4096285 318.572231,28.7019456 317.567494,28.7059645 C316.542252,28.7019456 315.90086,28.4096285 315.90086,27.9050454 Z" id="Shape" fill="#113287" fill-rule="nonzero"></path>
            <polygon id="Path" fill="#113287" fill-rule="nonzero" points="326.850445 25.4780924 322.613325 25.4780924 322.613325 23.3394375 326.78647 23.3394375 326.78647 22.7227339 321.852185 22.7227339 321.852185 26.0868402 323.926455 26.0868402 323.926455 27.8409063 321.035272 27.8409063 321.035272 28.4656478 327.603383 28.4656478 327.603383 27.8409063 324.679393 27.8409063 324.679393 26.0868402 326.850445 26.0868402"></polygon>
            <path d="M332.344923,28.74599 C333.554708,28.74599 334.411811,27.9250581 334.411811,26.7836767 C334.411811,25.6663269 333.60638,24.8572879 332.513062,24.8532689 C332.072618,24.8572879 331.664162,25.0135348 331.423845,25.2458136 L331.368072,25.2458136 L331.559997,23.6197797 L334.1149,23.6197797 L334.1149,22.866924 L330.830845,22.866924 L330.454376,26.094796 L331.287693,26.094796 C331.483719,25.7384219 331.840503,25.582175 332.304733,25.582175 C333.033885,25.5902129 333.554708,26.1028339 333.554708,26.8077083 C333.554708,27.496507 333.049469,28.005109 332.344923,28.009128 C331.760124,28.005109 331.287693,27.644716 331.239302,27.1521077 L330.383019,27.1521077 C330.422389,28.0772041 331.247503,28.74599 332.344923,28.74599 Z" id="Path" fill="#113287" fill-rule="nonzero"></path>
            <path d="M337.366968,28.74599 C338.708805,28.74599 339.49373,27.6647287 339.497831,25.7663905 C339.49373,23.8801092 338.696502,22.7867911 337.366968,22.7867911 C336.033333,22.7867911 335.236925,23.8801092 335.236925,25.7663905 C335.236925,27.6647287 336.025131,28.74599 337.366968,28.74599 Z M336.117813,25.7663905 C336.117813,24.3246541 336.586144,23.5357099 337.366968,23.5316909 C338.143692,23.5357099 338.616943,24.3246541 338.616943,25.7663905 C338.616943,27.2121458 338.147793,27.9850963 337.366968,27.9850963 C336.582043,27.9850963 336.113712,27.2121458 336.117813,25.7663905 Z" id="Shape" fill="#113287" fill-rule="nonzero"></path>
            <path d="M340.76339,28.7219583 C341.071783,28.7180214 341.327683,28.4656478 341.331784,28.153318 C341.327683,27.8409063 341.071783,27.5845958 340.76339,27.5845958 C340.450896,27.5845958 340.190895,27.8409063 340.194176,28.153318 C340.190895,28.4656478 340.450896,28.7180214 340.76339,28.7219583 Z" id="Path" fill="#113287" fill-rule="nonzero"></path>
            <path d="M344.27956,22.7867366 C343.018102,22.7788352 342.197089,23.6438114 342.197089,24.7491864 C342.197089,25.8584983 343.029585,26.6554804 344.071231,26.6554804 C344.696219,26.6554804 345.240827,26.3591444 345.553321,25.8705551 L345.625498,25.8705551 C345.617296,27.1961521 345.092372,27.9731215 344.199181,27.9770584 C343.614383,27.9731215 343.237914,27.6326591 343.118166,27.1440698 L342.24466,27.1440698 C342.384913,28.085242 343.130469,28.74599 344.199181,28.74599 C345.589409,28.74599 346.466196,27.5926337 346.466196,25.5581433 C346.462095,23.4355642 345.344992,22.794829 344.27956,22.7867366 Z M343.054167,24.7331926 C343.05009,24.0683436 343.578295,23.523735 344.27956,23.523735 C344.988207,23.523735 345.504929,24.0963942 345.504929,24.7251547 C345.504929,25.36589 344.964422,25.9386312 344.263156,25.9346348 C343.55861,25.9386312 343.058292,25.4059974 343.054167,24.7331926 Z" id="Shape" fill="#113287" fill-rule="nonzero"></path>
            <path d="M348.72501,25.6222005 C349.505834,25.6302384 349.938076,25.0455223 349.942177,24.1804641 C349.938076,23.3314817 349.522238,22.7427467 348.72501,22.7467452 C347.951567,22.7427467 347.49964,23.3314817 347.507022,24.1804641 C347.49964,25.0415034 347.931882,25.6302384 348.72501,25.6222005 Z M348.163997,28.6659391 L348.893149,28.6659391 L352.873549,22.866924 L352.145217,22.866924 L348.163997,28.6659391 Z M348.163997,24.1804641 C348.168098,23.6639061 348.352642,23.3154059 348.72501,23.30745 C349.112961,23.303431 349.27782,23.6598872 349.27782,24.1804641 C349.27782,24.7131799 349.101479,25.0575792 348.72501,25.0615981 C348.352642,25.0575792 348.168098,24.7131799 348.163997,24.1804641 Z M351.167546,27.344361 C351.163445,28.1973624 351.596508,28.7860974 352.385534,28.7860974 C353.166358,28.7860974 353.5986,28.2013814 353.602701,27.344361 C353.5986,26.4872587 353.178661,25.8986057 352.385534,25.902523 C351.612091,25.8986057 351.163445,26.4872587 351.167546,27.344361 Z M351.824521,27.344361 C351.828622,26.8196832 352.017267,26.4712649 352.385534,26.463227 C352.773485,26.463227 352.938344,26.8156642 352.938344,27.344361 C352.938344,27.8689569 352.762003,28.2173752 352.385534,28.2173752 C352.013166,28.2173752 351.828622,27.8689569 351.824521,27.344361 Z" id="Shape" fill="#113287" fill-rule="nonzero"></path>
            <polygon id="Path" fill="#113287" points="295.679806 52.4924002 295.679806 0 297.320194 0 297.320194 52.4924002"></polygon>
            <path d="M271.343021,63.1688608 L268.733165,60.5590046 C268.573227,60.3989028 268.573227,60.1392295 268.733165,59.9790457 L271.343021,57.3691895 C271.503779,57.2090877 271.76296,57.2090877 271.923718,57.3691895 C272.083656,57.5293734 272.083656,57.7890467 271.923718,57.9491485 L270.013487,59.8589693 L284.607192,59.8589693 L284.607192,60.679163 L270.013487,60.679163 L271.923718,62.5889018 C272.083656,62.7490857 272.083656,63.008677 271.923718,63.1688608 C271.76296,63.3290446 271.503779,63.3290446 271.343021,63.1688608 Z" id="Path" fill="#113287"></path>
            <path d="M322.477173,57.3691895 L325.087029,59.9790457 C325.246967,60.1391475 325.246967,60.3988208 325.087029,60.5590046 L322.477173,63.1687788 C322.316415,63.3289626 322.057234,63.3289626 321.896476,63.1687788 C321.736538,63.008677 321.736538,62.7490036 321.896476,62.5888198 L323.806707,60.679081 L309.213001,60.679081 L309.213001,59.8588873 L323.806707,59.8588873 L321.896476,57.9491485 C321.736538,57.7889646 321.736538,57.5292913 321.896476,57.3691895 C322.057234,57.2090057 322.316415,57.2090057 322.477173,57.3691895 Z" id="Path" fill="#113287"></path>
            <polygon id="Path" fill="#001A5B" fill-rule="nonzero" points="586.811639 15.9040541 563.183501 15.9040541 563.183501 35.5887014 586.811639 35.5887014 593 25.7463778"></polygon>
            <rect id="Rectangle" fill="#001A5B" fill-rule="nonzero" transform="translate(551.170124, 25.746378) scale(-1, 1) translate(-551.170124, -25.746378) " x="518.362379" y="15.9040541" width="65.615491" height="19.6846473"></rect>
            <path d="M541.034172,28.0451345 L538.118383,28.0451345 L538.118383,26.4833218 L537.365445,26.4833218 L537.365445,28.0451345 L534.466061,28.0451345 L534.466061,28.669958 L541.034172,28.669958 L541.034172,28.0451345 Z M534.785936,26.1388404 L535.074645,26.7315944 C536.276228,26.5433599 537.273584,25.9746377 537.737813,25.1376301 C538.206144,25.9746377 539.2076,26.5433599 540.409184,26.7315944 L540.697072,26.1388404 C539.224004,25.9226374 538.162674,25.0895667 538.126585,24.0804005 L540.424768,24.0804005 L540.424768,23.4636149 L538.118383,23.4636149 L538.118383,22.5024299 L537.365445,22.5024299 L537.365445,23.4636149 L535.058241,23.4636149 L535.058241,24.0804005 L537.357243,24.0804005 C537.321155,25.0895667 536.259824,25.9226374 534.785936,26.1388404 Z" id="Shape" fill="#FFFFFF" fill-rule="nonzero"></path>
            <path d="M547.361145,23.0631143 L542.243137,23.0631143 L542.243137,23.6798999 L546.600826,23.6798999 L546.600826,23.7679887 C546.596725,24.629028 546.596725,25.6462321 546.32032,27.0359682 L547.088841,27.1160191 C547.357864,25.6462321 547.357864,24.6530597 547.361145,23.7679887 L547.361145,23.0631143 Z M541.554174,28.5817872 L548.098499,28.5817872 L548.098499,27.9490898 L544.79804,27.9490898 L544.79804,25.4179723 L544.045102,25.4179723 L544.045102,27.9490898 L541.554174,27.9490898 L541.554174,28.5817872 Z" id="Shape" fill="#FFFFFF" fill-rule="nonzero"></path>
            <polygon id="Path" fill="#FFFFFF" fill-rule="nonzero" points="554.458281 25.6823207 550.22116 25.6823207 550.22116 23.5437478 554.394306 23.5437478 554.394306 22.9269622 549.460021 22.9269622 549.460021 26.2910684 551.53429 26.2910684 551.53429 28.0451345 548.643108 28.0451345 548.643108 28.669958 555.211219 28.669958 555.211219 28.0451345 552.287228 28.0451345 552.287228 26.2910684 554.458281 26.2910684"></polygon>
            <path d="M560.001149,28.9503002 C561.342166,28.9503002 562.127091,27.8689569 562.131192,25.9707007 C562.127091,24.0843374 561.330683,22.9910193 560.001149,22.9910193 C558.667515,22.9910193 557.870286,24.0843374 557.870286,25.9707007 C557.870286,27.8689569 558.659313,28.9503002 560.001149,28.9503002 Z M558.751174,25.9707007 C558.751174,24.5288823 559.219505,23.7399381 560.001149,23.7359191 C560.777873,23.7399381 561.250304,24.5288823 561.250304,25.9707007 C561.250304,27.416374 560.781974,28.1893245 560.001149,28.1893245 C559.216224,28.1893245 558.747073,27.416374 558.751174,25.9707007 Z" id="Shape" fill="#FFFFFF" fill-rule="nonzero"></path>
            <path d="M563.396751,28.9262685 C563.705144,28.9222496 563.961864,28.669958 563.965965,28.3575462 C563.961864,28.0451345 563.705144,27.788906 563.396751,27.788906 C563.084257,27.788906 562.824256,28.0451345 562.828357,28.3575462 C562.824256,28.669958 563.084257,28.9222496 563.396751,28.9262685 Z" id="Path" fill="#FFFFFF" fill-rule="nonzero"></path>
            <path d="M566.86535,28.9503002 C568.074315,28.9503002 568.931418,28.1292864 568.931418,26.9879049 C568.931418,25.8705551 568.126808,25.0615981 567.03349,25.0575792 C566.593046,25.0615981 566.184589,25.217763 565.944272,25.4500418 L565.887679,25.4500418 L566.080425,23.82409 L568.635328,23.82409 L568.635328,23.0711522 L565.351272,23.0711522 L564.974804,26.2990243 L565.80812,26.2990243 C566.004147,25.9426501 566.360931,25.7864032 566.82516,25.7864032 C567.554313,25.7944411 568.074315,26.3070622 568.074315,27.0119366 C568.074315,27.7007352 567.569896,28.2093373 566.86535,28.2133562 C566.280552,28.2093373 565.80812,27.8489442 565.759729,27.3563359 L564.902627,27.3563359 C564.942816,28.2814323 565.767931,28.9503002 566.86535,28.9503002 Z" id="Path" fill="#FFFFFF" fill-rule="nonzero"></path>
            <path d="M571.198433,25.8265107 C571.979257,25.8344666 572.411499,25.2497505 572.4156,24.3847743 C572.411499,23.5357099 571.995661,22.9469749 571.198433,22.9509734 C570.425811,22.9469749 569.973064,23.5357099 569.981266,24.3847743 C569.973064,25.2458136 570.405306,25.8344666 571.198433,25.8265107 Z M570.63742,28.8701673 L571.366573,28.8701673 L575.347793,23.0711522 L574.61864,23.0711522 L570.63742,28.8701673 Z M570.63742,24.3847743 C570.641521,23.8681344 570.826065,23.5197161 571.198433,23.5116782 C571.587205,23.5076592 571.751243,23.8641154 571.751243,24.3847743 C571.751243,24.9174081 571.574902,25.2618074 571.198433,25.2658263 C570.826065,25.2618074 570.641521,24.9174081 570.63742,24.3847743 Z M573.640951,27.5485893 C573.637689,28.4015906 574.069931,28.9903256 574.858957,28.9903256 C575.639781,28.9903256 576.072024,28.4056096 576.076124,27.5485893 C576.072024,26.6915689 575.652084,26.1028339 574.858957,26.1068324 C574.085515,26.1028339 573.637689,26.6915689 573.640951,27.5485893 Z M574.297945,27.5485893 C574.302046,27.0239114 574.49069,26.6754931 574.858957,26.6675373 C575.246909,26.6675373 575.411768,27.0198924 575.411768,27.5485893 C575.411768,28.0731851 575.235426,28.4216034 574.858957,28.4216034 C574.486589,28.4216034 574.302046,28.0731851 574.297945,27.5485893 Z" id="Shape" fill="#FFFFFF" fill-rule="nonzero"></path>
            <polygon id="Path" fill="#979797" points="370.317427 52.4924002 370.317427 0 371.137621 0 371.137621 52.4924002"></polygon>
            <polygon id="Path" fill="#979797" points="444.134855 52.4924002 444.134855 0 444.955048 0 444.955048 52.4924002"></polygon>
            <polygon id="Path" fill="#979797" points="517.952282 52.4924002 517.952282 0 518.772476 0 518.772476 52.4924002"></polygon>
        </g>
    </g>
</svg>