<svg width="593" height="74" viewBox="0 0 593 74" fill="none" xmlns="http://www.w3.org/2000/svg">
<rect width="593" height="74" fill="#727272"/>
<path d="M-340 -1159C-340 -1160.1 -339.105 -1161 -338 -1161H2975C2976.1 -1161 2977 -1160.1 2977 -1159V811C2977 812.105 2976.1 813 2975 813H-338C-339.105 813 -340 812.105 -340 811V-1159Z" fill="white"/>
<path d="M-338 -1160H2975V-1162H-338V-1160ZM2976 -1159V811H2978V-1159H2976ZM2975 812H-338V814H2975V812ZM-339 811V-1159H-341V811H-339ZM-338 812C-338.552 812 -339 811.552 -339 811H-341C-341 812.657 -339.657 814 -338 814V812ZM2976 811C2976 811.552 2975.55 812 2975 812V814C2976.66 814 2978 812.657 2978 811H2976ZM2975 -1160C2975.55 -1160 2976 -1159.55 2976 -1159H2978C2978 -1160.66 2976.66 -1162 2975 -1162V-1160ZM-338 -1162C-339.657 -1162 -341 -1160.66 -341 -1159H-339C-339 -1159.55 -338.552 -1160 -338 -1160V-1162Z" fill="black" fill-opacity="0.1"/>
<path fill-rule="evenodd" clip-rule="evenodd" d="M111.957 40.0133V12.5232H112.777V40.0133H111.957Z" fill="#979797"/>
<path d="M6.18832 15.9041H29.8162V35.5887H6.18832L0 25.7464L6.18832 15.9041Z" fill="#001A5B"/>
<path d="M292.134 62.8017C293.255 62.8088 294.002 62.0339 294.002 61.021C294.002 60.0227 293.252 59.309 292.322 59.3054C291.756 59.309 291.266 59.5685 290.981 60.0119H290.924C290.924 58.8333 291.392 58.134 292.199 58.1304C292.726 58.134 293.061 58.4404 293.165 58.8657H293.951C293.829 58.0367 293.162 57.4384 292.199 57.4384C290.948 57.4384 290.162 58.4764 290.159 60.293C290.159 62.2213 291.169 62.7944 292.134 62.8017ZM291.017 61.0427C291.024 60.4624 291.511 59.9506 292.149 59.9542C292.776 59.9506 293.23 60.4371 293.23 61.0355C293.23 61.6446 292.758 62.1348 292.127 62.1384C291.485 62.1348 291.02 61.623 291.017 61.0427Z" fill="#001A5B"/>
<path d="M296.662 62.8016C297.869 62.8016 298.575 61.8284 298.579 60.12C298.575 58.4223 297.858 57.4384 296.662 57.4384C295.461 57.4384 294.744 58.4223 294.744 60.12C294.744 61.8284 295.454 62.8016 296.662 62.8016ZM295.537 60.12C295.537 58.8224 295.959 58.1124 296.662 58.1088C297.36 58.1124 297.786 58.8224 297.786 60.12C297.786 61.4211 297.364 62.1168 296.662 62.1168C295.955 62.1168 295.533 61.4211 295.537 60.12Z" fill="#001A5B"/>
<path d="M301.167 62.7296C302.756 62.7296 303.672 61.742 303.676 60.1128C303.672 58.4873 302.756 57.5105 301.217 57.5105H299.473V62.7296H301.167ZM300.265 62.0376V58.2025H301.167C302.306 58.2025 302.89 58.8837 302.89 60.1128C302.89 61.3455 302.306 62.0339 301.123 62.0376H300.265Z" fill="#001A5B"/>
<path d="M275.659 66.5807H275.153V69.9511H273.973V70.3163H275.153V70.9059H275.659V66.5807ZM270.93 69.2206L271 69.6307C271.478 69.6307 272.025 69.6307 272.602 69.6084V70.7072H273.108V69.5827C273.631 69.5507 274.166 69.4994 274.672 69.4193L274.64 69.0541C273.419 69.2046 271.99 69.2142 270.93 69.2206ZM271.391 67.8045C271.388 68.4132 271.958 68.7914 272.801 68.7914C273.637 68.7914 274.207 68.4132 274.21 67.8045C274.207 67.2054 273.637 66.8113 272.801 66.8113C271.958 66.8113 271.388 67.2054 271.391 67.8045ZM271.75 72.149H275.8V71.7261H272.256V70.483H271.75V72.149ZM271.872 67.8045C271.866 67.4393 272.244 67.1894 272.801 67.1958C273.343 67.1894 273.727 67.4393 273.73 67.8045C273.727 68.1762 273.343 68.4164 272.801 68.4196C272.244 68.4164 271.866 68.1762 271.872 67.8045Z" fill="#001A5B"/>
<path d="M280.304 68.1057V67.0676H279.805V68.1057C279.798 69.1854 279.096 70.2748 278.247 70.6624L278.568 71.0853C279.234 70.7489 279.795 70.028 280.057 69.1694C280.33 69.98 280.891 70.656 281.541 70.97L281.849 70.5727C281.009 70.1914 280.301 69.147 280.304 68.1057ZM282.47 72.2836H282.977V66.5742H282.47V72.2836Z" fill="#001A5B"/>
<path d="M314.862 67.7405H310.991V68.1506H314.361V68.1826C314.365 68.6664 314.365 69.2271 314.211 70.0153H310.331V70.4382H315.547V70.0153H314.711C314.862 69.2399 314.862 68.6632 314.862 68.1826V67.7405ZM311.023 72.9628H315.035V72.5399H311.523V71.0789H311.023V72.9628Z" fill="#001A5B"/>
<path d="M319.674 68.9259V67.8878H319.174V68.9259C319.168 70.0056 318.466 71.095 317.617 71.4826L317.937 71.9055C318.603 71.5691 319.164 70.8482 319.427 69.9896C319.699 70.8002 320.26 71.4762 320.911 71.7902L321.218 71.3929C320.378 71.0116 319.67 69.9672 319.674 68.9259ZM321.84 73.1038H322.346V67.3944H321.84V73.1038Z" fill="#001A5B"/>
<path d="M70.563 63.6218C71.6516 63.6218 72.4229 62.883 72.4229 61.8557C72.4229 60.8501 71.6984 60.122 70.7144 60.1185C70.3179 60.122 69.9503 60.2626 69.734 60.4716H69.6836L69.8566 59.0083H72.1561V58.3307H69.2006L68.8617 61.2358H69.6115C69.7881 60.915 70.1089 60.7745 70.527 60.7745C71.183 60.7816 71.6516 61.2429 71.6516 61.8774C71.6516 62.4973 71.1974 62.955 70.563 62.9586C70.0368 62.955 69.6115 62.6306 69.5682 62.1873H68.7969C68.833 63.0199 69.5754 63.6218 70.563 63.6218Z" fill="#001A5B"/>
<path d="M73.1511 62.5334H75.6886V63.5497H76.4383V62.5334H77.1519V61.8629H76.4383V58.3307H75.4579L73.1511 61.8918V62.5334ZM73.9873 61.8629V61.8197L75.6309 59.275H75.6886V61.8629H73.9873Z" fill="#001A5B"/>
<path d="M79.7182 63.5497C81.3077 63.5497 82.2236 62.5621 82.2269 60.933C82.2236 59.3075 81.3077 58.3307 79.7687 58.3307H78.0242V63.5497H79.7182ZM78.8171 62.8577V59.0227H79.7182C80.8572 59.0227 81.4411 59.7039 81.4411 60.933C81.4411 62.1657 80.8572 62.8541 79.675 62.8577H78.8171Z" fill="#001A5B"/>
<path d="M144.424 63.6218C145.512 63.6218 146.284 62.883 146.284 61.8557C146.284 60.8501 145.559 60.122 144.576 60.1185C144.179 60.122 143.811 60.2626 143.595 60.4716H143.545L143.718 59.0083H146.017V58.3307H143.062L142.723 61.2358H143.472C143.649 60.915 143.969 60.7745 144.388 60.7745C145.044 60.7816 145.512 61.2429 145.512 61.8774C145.512 62.4973 145.058 62.955 144.424 62.9586C143.897 62.955 143.472 62.6306 143.429 62.1873H142.658C142.694 63.0199 143.436 63.6218 144.424 63.6218Z" fill="#001A5B"/>
<path d="M149.016 63.6218C150.137 63.629 150.883 62.8541 150.883 61.8412C150.883 60.8429 150.133 60.1292 149.203 60.1256C148.637 60.1292 148.148 60.3887 147.862 60.8321H147.805C147.805 59.6535 148.273 58.9542 149.081 58.9505C149.607 58.9542 149.942 59.2606 150.046 59.6858H150.832C150.71 58.8569 150.043 58.2585 149.081 58.2585C147.83 58.2585 147.044 59.2966 147.04 61.1131C147.04 63.0415 148.05 63.6146 149.016 63.6218ZM147.898 61.8629C147.906 61.2826 148.392 60.7708 149.03 60.7744C149.658 60.7708 150.112 61.2573 150.112 61.8557C150.112 62.4648 149.639 62.955 149.009 62.9586C148.367 62.955 147.902 62.4432 147.898 61.8629Z" fill="#001A5B"/>
<path d="M153.493 63.5497C155.082 63.5497 155.997 62.5621 156.001 60.933C155.997 59.3075 155.082 58.3307 153.543 58.3307H151.798V63.5497H153.493ZM152.591 62.8577V59.0227H153.493C154.631 59.0227 155.215 59.7039 155.215 60.933C155.215 62.1657 154.631 62.8541 153.449 62.8577H152.591Z" fill="#001A5B"/>
<path d="M218.259 63.6218C219.348 63.6218 220.119 62.883 220.119 61.8557C220.119 60.8501 219.394 60.122 218.411 60.1185C218.014 60.122 217.647 60.2626 217.43 60.4716H217.38L217.553 59.0083H219.852V58.3307H216.897L216.558 61.2358H217.308C217.484 60.915 217.805 60.7745 218.223 60.7745C218.879 60.7816 219.348 61.2429 219.348 61.8774C219.348 62.4973 218.893 62.955 218.259 62.9586C217.733 62.955 217.308 62.6306 217.264 62.1873H216.493C216.529 63.0199 217.272 63.6218 218.259 63.6218Z" fill="#001A5B"/>
<path d="M222.786 63.6218C223.904 63.6218 224.7 63.0091 224.704 62.1585C224.7 61.4881 224.217 60.9402 223.608 60.8464V60.8176C224.134 60.6951 224.499 60.2193 224.502 59.6498C224.499 58.8461 223.77 58.2585 222.786 58.2585C221.788 58.2585 221.064 58.8461 221.064 59.6498C221.064 60.2193 221.42 60.6951 221.958 60.8176V60.8464C221.341 60.9402 220.862 61.4881 220.869 62.1585C220.862 63.0091 221.651 63.6218 222.786 63.6218ZM221.676 62.1007C221.666 61.5638 222.137 61.1709 222.786 61.1709C223.428 61.1709 223.897 61.5638 223.897 62.1007C223.897 62.6126 223.464 62.9658 222.786 62.9658C222.098 62.9658 221.666 62.6126 221.676 62.1007ZM221.835 59.7219C221.839 59.2353 222.214 58.9037 222.786 58.9073C223.345 58.9037 223.727 59.2353 223.724 59.7219C223.727 60.2121 223.331 60.5473 222.786 60.5437C222.227 60.5473 221.839 60.2085 221.835 59.7219Z" fill="#001A5B"/>
<path d="M227.292 63.5497C228.882 63.5497 229.797 62.5621 229.8 60.933C229.797 59.3075 228.882 58.3307 227.342 58.3307H225.598V63.5497H227.292ZM226.391 62.8577V59.0227H227.292C228.431 59.0227 229.015 59.7039 229.015 60.933C229.015 62.1657 228.431 62.8541 227.249 62.8577H226.391Z" fill="#001A5B"/>
<path d="M365.926 62.8017C367.047 62.8088 367.794 62.0339 367.794 61.021C367.794 60.0227 367.044 59.309 366.114 59.3054C365.548 59.309 365.058 59.5685 364.773 60.0119H364.716C364.716 58.8333 365.184 58.134 365.992 58.1304C366.518 58.134 366.853 58.4404 366.957 58.8657H367.743C367.621 58.0367 366.954 57.4384 365.992 57.4384C364.741 57.4384 363.955 58.4764 363.951 60.293C363.951 62.2213 364.961 62.7944 365.926 62.8017ZM364.809 61.0427C364.816 60.4624 365.303 59.9506 365.941 59.9542C366.568 59.9506 367.022 60.4371 367.022 61.0355C367.022 61.6446 366.55 62.1348 365.92 62.1384C365.277 62.1348 364.813 61.623 364.809 61.0427Z" fill="#001A5B"/>
<path d="M370.49 62.8016C371.571 62.8016 372.374 62.1637 372.371 61.295C372.374 60.6354 371.96 60.1561 371.247 60.0551V60.0191C371.809 59.8785 372.177 59.4532 372.169 58.8584C372.177 58.0871 371.531 57.4384 370.504 57.4384C369.531 57.4384 368.745 58.015 368.724 58.8657H369.487C369.505 58.3935 369.975 58.1016 370.497 58.1016C371.048 58.1016 371.405 58.4259 371.405 58.9017C371.405 59.4027 370.991 59.7343 370.396 59.7307H369.949V60.3795H370.396C371.142 60.3831 371.571 60.7507 371.571 61.2662C371.571 61.7744 371.113 62.1168 370.482 62.1168C369.898 62.1168 369.445 61.8248 369.415 61.3671H368.608C368.641 62.2213 369.409 62.8016 370.49 62.8016Z" fill="#001A5B"/>
<path d="M375.01 62.7296C376.599 62.7296 377.515 61.742 377.518 60.1128C377.515 58.4873 376.599 57.5105 375.06 57.5105H373.315V62.7296H375.01ZM374.108 62.0376V58.2025H375.01C376.148 58.2025 376.732 58.8837 376.732 60.1128C376.732 61.3455 376.148 62.0339 374.966 62.0376H374.108Z" fill="#001A5B"/>
<path d="M439.748 62.8017C440.869 62.8088 441.615 62.0339 441.615 61.021C441.615 60.0227 440.865 59.309 439.935 59.3054C439.369 59.309 438.879 59.5685 438.595 60.0119H438.536C438.536 58.8333 439.005 58.134 439.813 58.1304C440.339 58.134 440.674 58.4404 440.779 58.8657H441.564C441.441 58.0367 440.775 57.4384 439.813 57.4384C438.562 57.4384 437.776 58.4764 437.773 60.293C437.773 62.2213 438.782 62.7944 439.748 62.8017ZM438.631 61.0427C438.637 60.4624 439.124 59.9506 439.762 59.9542C440.389 59.9506 440.844 60.4371 440.844 61.0355C440.844 61.6446 440.371 62.1348 439.74 62.1384C439.099 62.1348 438.634 61.623 438.631 61.0427Z" fill="#001A5B"/>
<path d="M444.346 62.8017C445.468 62.8088 446.214 62.0339 446.214 61.021C446.214 60.0227 445.464 59.309 444.534 59.3054C443.968 59.309 443.478 59.5685 443.193 60.0119H443.136C443.136 58.8333 443.604 58.134 444.411 58.1304C444.938 58.134 445.273 58.4404 445.377 58.8657H446.163C446.041 58.0367 445.374 57.4384 444.411 57.4384C443.16 57.4384 442.375 58.4764 442.371 60.293C442.371 62.2213 443.381 62.7944 444.346 62.8017ZM443.229 61.0427C443.237 60.4624 443.723 59.9506 444.361 59.9542C444.989 59.9506 445.442 60.4371 445.442 61.0355C445.442 61.6446 444.971 62.1348 444.34 62.1384C443.698 62.1348 443.233 61.623 443.229 61.0427Z" fill="#001A5B"/>
<path d="M448.823 62.7296C450.413 62.7296 451.329 61.742 451.332 60.1128C451.329 58.4873 450.413 57.5105 448.874 57.5105H447.129V62.7296H448.823ZM447.923 62.0376V58.2025H448.823C449.962 58.2025 450.546 58.8837 450.546 60.1128C450.546 61.3455 449.962 62.0339 448.78 62.0376H447.923Z" fill="#001A5B"/>
<path d="M513.565 62.8017C514.686 62.8089 515.432 62.034 515.432 61.0211C515.432 60.0227 514.682 59.3091 513.752 59.3054C513.186 59.3091 512.697 59.5686 512.412 60.0119H512.354C512.354 58.8333 512.823 58.134 513.63 58.1304C514.157 58.134 514.491 58.4404 514.596 58.8657H515.382C515.259 58.0367 514.592 57.4384 513.63 57.4384C512.379 57.4384 511.593 58.4765 511.59 60.293C511.59 62.2214 512.599 62.7945 513.565 62.8017ZM512.448 61.0428C512.455 60.4624 512.942 59.9506 513.579 59.9542C514.206 59.9506 514.661 60.4372 514.661 61.0356C514.661 61.6447 514.188 62.1349 513.558 62.1385C512.916 62.1349 512.451 61.6231 512.448 61.0428Z" fill="#001A5B"/>
<path d="M518.07 57.4384C516.935 57.4312 516.196 58.2098 516.196 59.2047C516.196 60.203 516.946 60.9203 517.883 60.9203C518.445 60.9203 518.936 60.6536 519.217 60.2138H519.282C519.274 61.4069 518.802 62.1062 517.998 62.1097C517.473 62.1062 517.133 61.7997 517.026 61.36H516.24C516.365 62.2071 517.036 62.8018 517.998 62.8018C519.249 62.8018 520.038 61.7637 520.038 59.9327C520.035 58.0223 519.029 57.4457 518.07 57.4384ZM516.967 59.1902C516.964 58.5919 517.44 58.1017 518.07 58.1017C518.709 58.1017 519.174 58.6171 519.174 59.183C519.174 59.7597 518.687 60.2751 518.056 60.2715C517.422 60.2751 516.971 59.7958 516.967 59.1902Z" fill="#001A5B"/>
<path d="M522.64 62.7296C524.23 62.7296 525.146 61.742 525.149 60.1129C525.146 58.4873 524.23 57.5105 522.691 57.5105H520.947V62.7296H522.64ZM521.74 62.0376V58.2026H522.64C523.78 58.2026 524.364 58.8837 524.364 60.1129C524.364 61.3456 523.78 62.034 522.598 62.0376H521.74Z" fill="#001A5B"/>
<path fill-rule="evenodd" clip-rule="evenodd" d="M38.1389 40.0133V12.5232H38.9591V40.0133H38.1389Z" fill="#979797"/>
<path fill-rule="evenodd" clip-rule="evenodd" d="M185.774 40.0133V12.5232H186.594V40.0133H185.774Z" fill="#979797"/>
<path fill-rule="evenodd" clip-rule="evenodd" d="M259.591 40.0133V12.5232H260.411V40.0133H259.591Z" fill="#979797"/>
<path fill-rule="evenodd" clip-rule="evenodd" d="M321.106 40.0133V12.5232H321.926V40.0133H321.106Z" fill="#979797"/>
<path fill-rule="evenodd" clip-rule="evenodd" d="M345.712 40.0133V12.5232H346.532V40.0133H345.712Z" fill="#979797"/>
<path fill-rule="evenodd" clip-rule="evenodd" d="M394.923 40.0133V12.5232H395.744V40.0133H394.923Z" fill="#979797"/>
<path fill-rule="evenodd" clip-rule="evenodd" d="M419.529 40.0133V12.5232H420.349V40.0133H419.529Z" fill="#979797"/>
<path fill-rule="evenodd" clip-rule="evenodd" d="M468.741 40.0133V12.5232H469.561V40.0133H468.741Z" fill="#979797"/>
<path fill-rule="evenodd" clip-rule="evenodd" d="M493.346 40.0133V12.5232H494.167V40.0133H493.346Z" fill="#979797"/>
<path fill-rule="evenodd" clip-rule="evenodd" d="M542.558 40.0133V12.5232H543.378V40.0133H542.558Z" fill="#979797"/>
<path fill-rule="evenodd" clip-rule="evenodd" d="M567.164 40.0133V12.5232H567.984V40.0133H567.164Z" fill="#979797"/>
<path d="M296.91 15.9041H223.093V35.5887H296.91V15.9041Z" fill="#E2E6F6"/>
<path d="M223.093 15.9041H149.275V35.5887H223.093V15.9041Z" fill="#5B6EB4"/>
<path d="M149.275 15.9041H75.4578V35.5887H149.275V15.9041Z" fill="#113287"/>
<path d="M75.4579 15.9041H9.02222V35.5887H75.4579V15.9041Z" fill="#001A5B"/>
<path fill-rule="evenodd" clip-rule="evenodd" d="M148.865 52.4924V3.58518e-08L149.685 0V52.4924H148.865Z" fill="#979797"/>
<path fill-rule="evenodd" clip-rule="evenodd" d="M222.683 52.4924V3.58518e-08L223.503 0V52.4924H222.683Z" fill="#979797"/>
<path fill-rule="evenodd" clip-rule="evenodd" d="M75.0476 52.4924V3.58518e-08L75.8678 0V52.4924H75.0476Z" fill="#979797"/>
<path d="M518.362 15.9041H444.545V35.5887H518.362V15.9041Z" fill="#113287"/>
<path d="M444.545 15.9041H370.728V35.5887H444.545V15.9041Z" fill="#5B6EB4"/>
<path d="M370.728 15.9041H296.91V35.5887H370.728V15.9041Z" fill="#E2E6F6"/>
<path fill-rule="evenodd" clip-rule="evenodd" d="M295.68 52.4924V7.17035e-08L297.32 0V52.4924H295.68Z" fill="#113287"/>
<path fill-rule="evenodd" clip-rule="evenodd" d="M271.343 63.1689L268.733 60.559C268.573 60.3989 268.573 60.1393 268.733 59.9791L271.343 57.3692C271.504 57.2091 271.763 57.2091 271.924 57.3692C272.084 57.5294 272.084 57.7891 271.924 57.9492L270.014 59.859H284.607V60.6792H270.014L271.924 62.5889C272.084 62.7491 272.084 63.0087 271.924 63.1689C271.763 63.3291 271.504 63.3291 271.343 63.1689Z" fill="#113287"/>
<path fill-rule="evenodd" clip-rule="evenodd" d="M322.477 57.3692L325.087 59.979C325.247 60.1391 325.247 60.3988 325.087 60.559L322.477 63.1688C322.316 63.3289 322.057 63.3289 321.896 63.1688C321.736 63.0086 321.736 62.749 321.896 62.5888L323.807 60.6791H309.213V59.8589H323.807L321.896 57.9491C321.736 57.7889 321.736 57.5293 321.896 57.3692C322.057 57.209 322.316 57.209 322.477 57.3692Z" fill="#113287"/>
<path d="M586.812 15.9041H563.184V35.5887H586.812L593 25.7464L586.812 15.9041Z" fill="#001A5B"/>
<path d="M518.363 15.9041H583.978V35.5887H518.363V15.9041Z" fill="#001A5B"/>
<path fill-rule="evenodd" clip-rule="evenodd" d="M370.317 52.4924V3.58518e-08L371.138 0V52.4924H370.317Z" fill="#979797"/>
<path fill-rule="evenodd" clip-rule="evenodd" d="M444.135 52.4924V3.58518e-08L444.955 0V52.4924H444.135Z" fill="#979797"/>
<path fill-rule="evenodd" clip-rule="evenodd" d="M517.952 52.4924V3.58518e-08L518.772 0V52.4924H517.952Z" fill="#979797"/>
<path d="M245.924 22.5121V26.7573H245.163V25.8842H243.353V25.2595H245.163V24.3864H243.429C242.965 25.5398 241.888 26.3528 240.334 26.7973L240.029 26.2046C241.727 25.72 242.721 24.8069 242.857 23.6495H240.398V23.0248H243.682C243.682 23.2891 243.654 23.5454 243.606 23.7857H245.163V22.5121H245.924ZM241.143 28.2391C241.143 27.37 242.088 26.8414 243.562 26.8374C245.015 26.8414 245.968 27.37 245.972 28.2391C245.968 29.1121 245.015 29.6488 243.562 29.6488C242.088 29.6488 241.143 29.1121 241.143 28.2391ZM241.896 28.2391C241.896 28.7437 242.536 29.036 243.562 29.04C244.567 29.036 245.208 28.7437 245.212 28.2391C245.208 27.7265 244.567 27.4341 243.562 27.4381C242.536 27.4341 241.896 27.7265 241.896 28.2391ZM252.845 25.8121V26.4209H250.674V28.175H253.598V28.7998H247.03V28.175H249.921V26.4209H247.847V23.0568H252.781V23.6735H248.608V25.8121H252.845ZM258.363 23.1209C259.429 23.1289 260.546 23.7697 260.55 25.8922C260.55 27.9267 259.673 29.0801 258.283 29.0801C257.214 29.0801 256.469 28.4193 256.329 27.4782H257.202C257.322 27.9667 257.699 28.3072 258.283 28.3112C259.176 28.3072 259.701 27.5302 259.709 26.2046H259.637C259.325 26.6932 258.78 26.9896 258.155 26.9896C257.114 26.9896 256.281 26.1926 256.281 25.0833C256.281 23.9779 257.102 23.1129 258.363 23.1209ZM257.138 25.0672C257.142 25.7401 257.643 26.2727 258.347 26.2687C259.048 26.2727 259.589 25.7 259.589 25.0592C259.589 24.4305 259.072 23.8578 258.363 23.8578C257.663 23.8578 257.134 24.4024 257.138 25.0672ZM261.351 27.8706V27.1578L263.914 23.201H265.004V27.1257H265.796V27.8706H265.004V29H264.171V27.8706H261.351ZM262.28 27.1257H264.171V24.2502H264.106L262.28 27.0777V27.1257ZM267.038 29.0561C266.726 29.0521 266.465 28.7998 266.469 28.4874C266.465 28.175 266.726 27.9187 267.038 27.9187C267.346 27.9187 267.603 28.175 267.607 28.4874C267.603 28.7998 267.346 29.0521 267.038 29.0561ZM270.458 29.0801C269.197 29.0801 268.32 28.3993 268.328 27.4541C268.32 26.7092 268.852 26.1005 269.537 25.9964V25.9643C268.94 25.8282 268.544 25.2995 268.544 24.6668C268.544 23.7737 269.349 23.1209 270.458 23.1209C271.551 23.1209 272.36 23.7737 272.364 24.6668C272.36 25.2995 271.956 25.8282 271.371 25.9643V25.9964C272.048 26.1005 272.585 26.7092 272.589 27.4541C272.585 28.3993 271.7 29.0801 270.458 29.0801ZM269.225 27.39C269.213 27.9587 269.693 28.3512 270.458 28.3512C271.211 28.3512 271.692 27.9587 271.692 27.39C271.692 26.7933 271.171 26.3568 270.458 26.3568C269.737 26.3568 269.213 26.7933 269.225 27.39ZM269.401 24.7468C269.405 25.2875 269.837 25.664 270.458 25.66C271.063 25.664 271.503 25.2915 271.499 24.7468C271.503 24.2062 271.079 23.8377 270.458 23.8418C269.821 23.8377 269.405 24.2062 269.401 24.7468ZM274.831 25.9563C274.038 25.9643 273.606 25.3756 273.614 24.5146C273.606 23.6655 274.058 23.0768 274.831 23.0808C275.628 23.0768 276.045 23.6655 276.049 24.5146C276.045 25.3796 275.612 25.9643 274.831 25.9563ZM274.271 29L278.252 23.201H278.98L275 29H274.271ZM274.271 24.5146C274.275 25.0472 274.459 25.3916 274.831 25.3956C275.208 25.3916 275.384 25.0472 275.384 24.5146C275.384 23.9939 275.22 23.6375 274.831 23.6415C274.459 23.6495 274.275 23.9979 274.271 24.5146ZM277.274 27.6784C277.27 26.8214 277.719 26.2326 278.492 26.2367C279.285 26.2326 279.705 26.8214 279.709 27.6784C279.705 28.5354 279.273 29.1201 278.492 29.1201C277.703 29.1201 277.27 28.5314 277.274 27.6784ZM277.931 27.6784C277.935 28.203 278.119 28.5515 278.492 28.5515C278.868 28.5515 279.045 28.203 279.045 27.6784C279.045 27.1498 278.88 26.7973 278.492 26.7973C278.123 26.8053 277.935 27.1538 277.931 27.6784Z" fill="#113287"/>
<path d="M175.223 25.8282V26.4449H172.323V27.1337C173.637 27.2058 174.418 27.6464 174.422 28.3993C174.418 29.2123 173.488 29.6688 171.947 29.6648C170.385 29.6688 169.456 29.2123 169.456 28.3993C169.456 27.6464 170.237 27.2018 171.57 27.1337V26.4449H168.679V25.8282H175.223ZM169.023 24.851C170.313 24.7188 171.33 24.1341 171.434 23.4413H169.279V22.8325H174.638V23.4413H172.459C172.563 24.1381 173.573 24.7188 174.886 24.851L174.614 25.4517C173.368 25.3075 172.339 24.7829 171.951 24.022C171.554 24.7829 170.533 25.3075 169.287 25.4517L169.023 24.851ZM170.225 28.3993C170.22 28.8358 170.849 29.0881 171.947 29.0801C173.028 29.0881 173.661 28.8358 173.661 28.3993C173.661 27.9547 173.028 27.7144 171.947 27.7104C170.849 27.7144 170.22 27.9547 170.225 28.3993ZM181.582 25.8121V26.4209H179.412V28.175H182.335V28.7998H175.767V28.175H178.659V26.4209H176.584V23.0568H181.518V23.6735H177.345V25.8121H181.582ZM184.978 27.8706V27.1578L187.541 23.201H188.631V27.1257H189.424V27.8706H188.631V29H187.798V27.8706H184.978ZM185.908 27.1257H187.798V24.2502H187.734L185.908 27.0777V27.1257ZM190.665 29.0561C190.353 29.0521 190.093 28.7998 190.097 28.4874C190.093 28.175 190.353 27.9187 190.665 27.9187C190.974 27.9187 191.23 28.175 191.234 28.4874C191.23 28.7998 190.974 29.0521 190.665 29.0561ZM194.085 29.0801C192.824 29.0801 191.947 28.3993 191.955 27.4541C191.947 26.7092 192.479 26.1005 193.164 25.9964V25.9643C192.568 25.8282 192.171 25.2995 192.171 24.6668C192.171 23.7737 192.976 23.1209 194.085 23.1209C195.179 23.1209 195.988 23.7737 195.992 24.6668C195.988 25.2995 195.583 25.8282 194.999 25.9643V25.9964C195.675 26.1005 196.212 26.7092 196.216 27.4541C196.212 28.3993 195.327 29.0801 194.085 29.0801ZM192.852 27.39C192.84 27.9587 193.32 28.3512 194.085 28.3512C194.838 28.3512 195.319 27.9587 195.319 27.39C195.319 26.7933 194.798 26.3568 194.085 26.3568C193.365 26.3568 192.84 26.7933 192.852 27.39ZM193.028 24.7468C193.032 25.2875 193.465 25.664 194.085 25.66C194.69 25.664 195.131 25.2915 195.127 24.7468C195.131 24.2062 194.706 23.8377 194.085 23.8418C193.449 23.8377 193.032 24.2062 193.028 24.7468ZM198.459 25.9563C197.666 25.9643 197.233 25.3756 197.241 24.5146C197.233 23.6655 197.686 23.0768 198.459 23.0808C199.256 23.0768 199.672 23.6655 199.676 24.5146C199.672 25.3796 199.24 25.9643 198.459 25.9563ZM197.898 29L201.879 23.201H202.608L198.627 29H197.898ZM197.898 24.5146C197.902 25.0472 198.086 25.3916 198.459 25.3956C198.835 25.3916 199.011 25.0472 199.011 24.5146C199.011 23.9939 198.847 23.6375 198.459 23.6415C198.086 23.6495 197.902 23.9979 197.898 24.5146ZM200.902 27.6784C200.898 26.8214 201.346 26.2326 202.119 26.2367C202.912 26.2326 203.333 26.8214 203.337 27.6784C203.333 28.5354 202.9 29.1201 202.119 29.1201C201.33 29.1201 200.898 28.5314 200.902 27.6784ZM201.558 27.6784C201.562 28.203 201.747 28.5515 202.119 28.5515C202.496 28.5515 202.672 28.203 202.672 27.6784C202.672 27.1498 202.508 26.7973 202.119 26.7973C201.751 26.8053 201.562 27.1538 201.558 27.6784Z" fill="white"/>
<path d="M100.72 23.193V23.8978C100.716 24.7829 100.716 25.7761 100.448 27.2459L99.6791 27.1658C99.9554 25.7761 99.9554 24.7589 99.9594 23.8978V23.8097H95.6021V23.193H100.72ZM94.9133 28.7117V28.0789H97.4043V25.5478H98.1572V28.0789H101.457V28.7117H94.9133ZM107.817 25.8121V26.4209H105.646V28.175H108.57V28.7998H102.002V28.175H104.893V26.4209H102.819V23.0568H107.753V23.6735H103.58V25.8121H107.817ZM113.36 29.0801C112.018 29.0801 111.229 27.9988 111.229 26.1005C111.229 24.2142 112.026 23.1209 113.36 23.1209C114.689 23.1209 115.486 24.2142 115.49 26.1005C115.486 27.9988 114.701 29.0801 113.36 29.0801ZM112.11 26.1005C112.106 27.5462 112.575 28.3192 113.36 28.3192C114.141 28.3192 114.609 27.5462 114.609 26.1005C114.609 24.6587 114.137 23.8698 113.36 23.8658C112.579 23.8698 112.11 24.6587 112.11 26.1005ZM116.756 29.0561C116.443 29.0521 116.183 28.7998 116.187 28.4874C116.183 28.175 116.443 27.9187 116.756 27.9187C117.064 27.9187 117.32 28.175 117.324 28.4874C117.32 28.7998 117.064 29.0521 116.756 29.0561ZM120.2 29.0801C118.998 29.0801 118.145 28.4353 118.109 27.4862H119.006C119.039 27.9948 119.543 28.3192 120.192 28.3192C120.893 28.3192 121.401 27.9387 121.401 27.374C121.401 26.8013 120.925 26.3928 120.096 26.3888H119.599V25.668H120.096C120.757 25.672 121.217 25.3035 121.217 24.7468C121.217 24.2182 120.821 23.8578 120.208 23.8578C119.627 23.8578 119.107 24.1822 119.087 24.7068H118.238C118.262 23.7617 119.135 23.1209 120.216 23.1209C121.357 23.1209 122.074 23.8418 122.066 24.6988C122.074 25.3596 121.666 25.8322 121.041 25.9884V26.0284C121.834 26.1405 122.294 26.6732 122.29 27.4061C122.294 28.3712 121.401 29.0801 120.2 29.0801ZM124.589 25.9563C123.796 25.9643 123.364 25.3756 123.372 24.5146C123.364 23.6655 123.816 23.0768 124.589 23.0808C125.386 23.0768 125.803 23.6655 125.807 24.5146C125.803 25.3796 125.37 25.9643 124.589 25.9563ZM124.029 29L128.009 23.201H128.738L124.757 29H124.029ZM124.029 24.5146C124.033 25.0472 124.217 25.3916 124.589 25.3956C124.966 25.3916 125.142 25.0472 125.142 24.5146C125.142 23.9939 124.978 23.6375 124.589 23.6415C124.217 23.6495 124.033 23.9979 124.029 24.5146ZM127.032 27.6784C127.028 26.8214 127.477 26.2326 128.25 26.2367C129.043 26.2326 129.463 26.8214 129.467 27.6784C129.463 28.5354 129.031 29.1201 128.25 29.1201C127.461 29.1201 127.028 28.5314 127.032 27.6784ZM127.689 27.6784C127.693 28.203 127.877 28.5515 128.25 28.5515C128.626 28.5515 128.802 28.203 128.802 27.6784C128.802 27.1498 128.638 26.7973 128.25 26.7973C127.881 26.8053 127.693 27.1538 127.689 27.6784Z" fill="white"/>
<path d="M17.5903 28.175V28.7998H11.0223V28.175H13.9218V26.6131H14.6747V28.175H17.5903ZM11.3427 26.2687C12.8165 26.0524 13.8778 25.2194 13.9138 24.2102H11.615V23.5934H13.9218V22.6323H14.6747V23.5934H16.9815V24.2102H14.6827C14.7188 25.2194 15.7801 26.0524 17.2539 26.2687L16.9655 26.8614C15.7641 26.6732 14.7628 26.1045 14.2943 25.2675C13.8297 26.1045 12.8325 26.6732 11.631 26.8614L11.3427 26.2687ZM23.9179 23.193V23.8978C23.9139 24.7829 23.9139 25.7761 23.6456 27.2459L22.8767 27.1658C23.153 25.7761 23.153 24.7589 23.157 23.8978V23.8097H18.7997V23.193H23.9179ZM18.1109 28.7117V28.0789H20.6019V25.5478H21.3548V28.0789H24.6548V28.7117H18.1109ZM31.0145 25.8121V26.4209H28.8439V28.175H31.7674V28.7998H25.1995V28.175H28.091V26.4209H26.0165V23.0568H30.9505V23.6735H26.7774V25.8121H31.0145ZM36.5572 29.0801C35.2156 29.0801 34.4267 27.9988 34.4267 26.1005C34.4267 24.2142 35.2236 23.1209 36.5572 23.1209C37.8869 23.1209 38.6838 24.2142 38.6878 26.1005C38.6838 27.9988 37.8989 29.0801 36.5572 29.0801ZM35.3077 26.1005C35.3037 27.5462 35.7723 28.3192 36.5572 28.3192C37.3382 28.3192 37.8068 27.5462 37.8068 26.1005C37.8068 24.6587 37.3342 23.8698 36.5572 23.8658C35.7763 23.8698 35.3077 24.6587 35.3077 26.1005ZM39.9534 29.0561C39.641 29.0521 39.3807 28.7998 39.3847 28.4874C39.3807 28.175 39.641 27.9187 39.9534 27.9187C40.2617 27.9187 40.518 28.175 40.522 28.4874C40.518 28.7998 40.2617 29.0521 39.9534 29.0561ZM43.0451 23.201V29H42.156V24.082H42.124L40.7383 24.9871V24.1461L42.1801 23.201H43.0451ZM45.8485 25.9563C45.0555 25.9643 44.623 25.3756 44.631 24.5146C44.623 23.6655 45.0756 23.0768 45.8485 23.0808C46.6455 23.0768 47.062 23.6655 47.066 24.5146C47.062 25.3796 46.6294 25.9643 45.8485 25.9563ZM45.2878 29L49.2686 23.201H49.9975L46.0167 29H45.2878ZM45.2878 24.5146C45.2918 25.0472 45.476 25.3916 45.8485 25.3956C46.225 25.3916 46.4012 25.0472 46.4012 24.5146C46.4012 23.9939 46.237 23.6375 45.8485 23.6415C45.476 23.6495 45.2918 23.9979 45.2878 24.5146ZM48.2915 27.6784C48.2875 26.8214 48.736 26.2326 49.5089 26.2367C50.3019 26.2326 50.7224 26.8214 50.7264 27.6784C50.7224 28.5354 50.2899 29.1201 49.5089 29.1201C48.72 29.1201 48.2875 28.5314 48.2915 27.6784ZM48.9483 27.6784C48.9523 28.203 49.1365 28.5515 49.5089 28.5515C49.8854 28.5515 50.0616 28.203 50.0616 27.6784C50.0616 27.1498 49.8974 26.7973 49.5089 26.7973C49.1405 26.8053 48.9523 27.1538 48.9483 27.6784ZM55.372 23.193V27.9107H52.008V23.193H55.372ZM52.7609 27.2939H54.6351V23.7937H52.7609V27.2939ZM56.7898 29.6968V22.5041H57.5507V29.6968H56.7898ZM62.3325 23.1369V26.485H58.9764V23.1369H62.3325ZM59.7213 25.8842H61.5876V23.7536H59.7213V25.8842ZM59.7854 29.5286V27.2539H60.5463V28.9119H64.6393V29.5286H59.7854ZM63.574 27.7585V22.4961H64.3349V24.6427H65.3762V25.2835H64.3349V27.7585H63.574Z" fill="white"/>
<path d="M469.808 23.193V23.8978C469.803 24.7829 469.803 25.7761 469.535 27.2459L468.766 27.1658C469.043 25.7761 469.043 24.7589 469.047 23.8978V23.8097H464.689V23.193H469.808ZM464 28.7117V28.0789H466.491V25.5478H467.244V28.0789H470.544V28.7117H464ZM476.904 25.8121V26.4209H474.733V28.175H477.657V28.7998H471.089V28.175H473.981V26.4209H471.906V23.0568H476.84V23.6735H472.667V25.8121H476.904ZM480.428 29V28.3592L482.439 26.3328C483.076 25.672 483.392 25.3035 483.392 24.7949C483.392 24.2222 482.927 23.8578 482.319 23.8578C481.674 23.8578 481.265 24.2663 481.261 24.883H480.428C480.42 23.8217 481.229 23.1209 482.335 23.1209C483.452 23.1209 484.225 23.8297 484.233 24.7709C484.225 25.4197 483.921 25.9363 482.831 27.0056L481.654 28.199V28.2471H484.329V29H480.428ZM485.875 29.0561C485.563 29.0521 485.302 28.7998 485.306 28.4874C485.302 28.175 485.563 27.9187 485.875 27.9187C486.183 27.9187 486.44 28.175 486.444 28.4874C486.44 28.7998 486.183 29.0521 485.875 29.0561ZM487.469 29V28.3592L489.479 26.3328C490.116 25.672 490.432 25.3035 490.432 24.7949C490.432 24.2222 489.968 23.8578 489.359 23.8578C488.714 23.8578 488.306 24.2663 488.302 24.883H487.469C487.461 23.8217 488.27 23.1209 489.375 23.1209C490.493 23.1209 491.266 23.8297 491.274 24.7709C491.266 25.4197 490.961 25.9363 489.872 27.0056L488.694 28.199V28.2471H491.37V29H487.469ZM493.676 25.9563C492.883 25.9643 492.451 25.3756 492.459 24.5146C492.451 23.6655 492.903 23.0768 493.676 23.0808C494.473 23.0768 494.89 23.6655 494.894 24.5146C494.89 25.3796 494.457 25.9643 493.676 25.9563ZM493.116 29L497.097 23.201H497.825L493.845 29H493.116ZM493.116 24.5146C493.12 25.0472 493.304 25.3916 493.676 25.3956C494.053 25.3916 494.229 25.0472 494.229 24.5146C494.229 23.9939 494.065 23.6375 493.676 23.6415C493.304 23.6495 493.12 23.9979 493.116 24.5146ZM496.119 27.6784C496.115 26.8214 496.564 26.2326 497.337 26.2367C498.13 26.2326 498.55 26.8214 498.554 27.6784C498.55 28.5354 498.118 29.1201 497.337 29.1201C496.548 29.1201 496.115 28.5314 496.119 27.6784ZM496.776 27.6784C496.78 28.203 496.964 28.5515 497.337 28.5515C497.713 28.5515 497.89 28.203 497.89 27.6784C497.89 27.1498 497.725 26.7973 497.337 26.7973C496.968 26.8053 496.78 27.1538 496.776 27.6784Z" fill="white"/>
<path d="M394.897 25.8282V26.4449H391.997V27.1337C393.311 27.2058 394.092 27.6464 394.096 28.3993C394.092 29.2123 393.163 29.6688 391.621 29.6648C390.059 29.6688 389.13 29.2123 389.13 28.3993C389.13 27.6464 389.911 27.2018 391.244 27.1337V26.4449H388.353V25.8282H394.897ZM388.697 24.851C389.987 24.7188 391.004 24.1341 391.108 23.4413H388.954V22.8325H394.312V23.4413H392.133C392.238 24.1381 393.247 24.7188 394.56 24.851L394.288 25.4517C393.043 25.3075 392.013 24.7829 391.625 24.022C391.228 24.7829 390.207 25.3075 388.962 25.4517L388.697 24.851ZM389.899 28.3993C389.895 28.8358 390.523 29.0881 391.621 29.0801C392.702 29.0881 393.335 28.8358 393.335 28.3993C393.335 27.9547 392.702 27.7144 391.621 27.7104C390.523 27.7144 389.895 27.9547 389.899 28.3993ZM401.257 25.8121V26.4209H399.086V28.175H402.009V28.7998H395.441V28.175H398.333V26.4209H396.258V23.0568H401.192V23.6735H397.019V25.8121H401.257ZM406.983 23.201V29H406.094V24.082H406.062L404.677 24.9871V24.1461L406.118 23.201H406.983ZM410.476 29.0801C409.134 29.0801 408.345 27.9988 408.345 26.1005C408.345 24.2142 409.142 23.1209 410.476 23.1209C411.805 23.1209 412.602 24.2142 412.606 26.1005C412.602 27.9988 411.817 29.0801 410.476 29.0801ZM409.226 26.1005C409.222 27.5462 409.691 28.3192 410.476 28.3192C411.257 28.3192 411.725 27.5462 411.725 26.1005C411.725 24.6587 411.253 23.8698 410.476 23.8658C409.695 23.8698 409.226 24.6587 409.226 26.1005ZM413.872 29.0561C413.559 29.0521 413.299 28.7998 413.303 28.4874C413.299 28.175 413.559 27.9187 413.872 27.9187C414.18 27.9187 414.436 28.175 414.44 28.4874C414.436 28.7998 414.18 29.0521 413.872 29.0561ZM417.348 29.0801C416.275 29.0721 415.153 28.4353 415.153 26.2927C415.157 24.2743 416.03 23.1209 417.42 23.1209C418.489 23.1209 419.23 23.7857 419.366 24.7068H418.493C418.377 24.2342 418.005 23.8938 417.42 23.8898C416.523 23.8938 416.002 24.6708 416.002 25.9803H416.066C416.383 25.4877 416.927 25.1994 417.556 25.1954C418.59 25.1994 419.423 25.9924 419.423 27.1017C419.423 28.2271 418.594 29.0881 417.348 29.0801ZM416.106 27.1257C416.11 27.7705 416.627 28.3392 417.34 28.3432C418.041 28.3392 418.565 27.7945 418.565 27.1177C418.565 26.4529 418.061 25.9123 417.364 25.9163C416.655 25.9123 416.115 26.4809 416.106 27.1257ZM421.689 25.9563C420.896 25.9643 420.464 25.3756 420.472 24.5146C420.464 23.6655 420.916 23.0768 421.689 23.0808C422.486 23.0768 422.903 23.6655 422.907 24.5146C422.903 25.3796 422.47 25.9643 421.689 25.9563ZM421.129 29L425.109 23.201H425.838L421.857 29H421.129ZM421.129 24.5146C421.133 25.0472 421.317 25.3916 421.689 25.3956C422.066 25.3916 422.242 25.0472 422.242 24.5146C422.242 23.9939 422.078 23.6375 421.689 23.6415C421.317 23.6495 421.133 23.9979 421.129 24.5146ZM424.132 27.6784C424.128 26.8214 424.577 26.2326 425.35 26.2367C426.143 26.2326 426.563 26.8214 426.567 27.6784C426.563 28.5354 426.131 29.1201 425.35 29.1201C424.561 29.1201 424.128 28.5314 424.132 27.6784ZM424.789 27.6784C424.793 28.203 424.977 28.5515 425.35 28.5515C425.726 28.5515 425.902 28.203 425.902 27.6784C425.902 27.1498 425.738 26.7973 425.35 26.7973C424.981 26.8053 424.793 27.1538 424.789 27.6784Z" fill="white"/>
<path d="M319.814 22.5121V26.7573H319.053V25.8842H317.243V25.2595H319.053V24.3864H317.319C316.854 25.5398 315.777 26.3528 314.223 26.7973L313.919 26.2046C315.617 25.72 316.61 24.8069 316.746 23.6495H314.287V23.0248H317.571C317.571 23.2891 317.543 23.5454 317.495 23.7857H319.053V22.5121H319.814ZM315.032 28.2391C315.032 27.37 315.977 26.8414 317.451 26.8374C318.905 26.8414 319.858 27.37 319.862 28.2391C319.858 29.1121 318.905 29.6488 317.451 29.6488C315.977 29.6488 315.032 29.1121 315.032 28.2391ZM315.785 28.2391C315.785 28.7437 316.426 29.036 317.451 29.04C318.456 29.036 319.097 28.7437 319.101 28.2391C319.097 27.7265 318.456 27.4341 317.451 27.4381C316.426 27.4341 315.785 27.7265 315.785 28.2391ZM326.734 25.8121V26.4209H324.564V28.175H327.487V28.7998H320.919V28.175H323.811V26.4209H321.736V23.0568H326.67V23.6735H322.497V25.8121H326.734ZM332.285 29.0801C331.023 29.0801 330.146 28.3993 330.154 27.4541C330.146 26.7092 330.679 26.1005 331.364 25.9964V25.9643C330.767 25.8282 330.371 25.2995 330.371 24.6668C330.371 23.7737 331.176 23.1209 332.285 23.1209C333.378 23.1209 334.187 23.7737 334.191 24.6668C334.187 25.2995 333.783 25.8282 333.198 25.9643V25.9964C333.875 26.1005 334.412 26.7092 334.416 27.4541C334.412 28.3993 333.526 29.0801 332.285 29.0801ZM331.051 27.39C331.039 27.9587 331.52 28.3512 332.285 28.3512C333.038 28.3512 333.518 27.9587 333.518 27.39C333.518 26.7933 332.998 26.3568 332.285 26.3568C331.564 26.3568 331.039 26.7933 331.051 27.39ZM331.228 24.7468C331.232 25.2875 331.664 25.664 332.285 25.66C332.89 25.664 333.33 25.2915 333.326 24.7468C333.33 24.2062 332.906 23.8377 332.285 23.8418C331.648 23.8377 331.232 24.2062 331.228 24.7468ZM337.427 29.0801C336.354 29.0721 335.233 28.4353 335.233 26.2927C335.237 24.2743 336.11 23.1209 337.499 23.1209C338.569 23.1209 339.309 23.7857 339.446 24.7068H338.573C338.456 24.2342 338.084 23.8938 337.499 23.8898C336.602 23.8938 336.082 24.6708 336.082 25.9803H336.146C336.462 25.4877 337.007 25.1994 337.635 25.1954C338.669 25.1994 339.502 25.9924 339.502 27.1017C339.502 28.2271 338.673 29.0881 337.427 29.0801ZM336.186 27.1257C336.19 27.7705 336.706 28.3392 337.419 28.3432C338.12 28.3392 338.645 27.7945 338.645 27.1177C338.645 26.4529 338.14 25.9123 337.443 25.9163C336.734 25.9123 336.194 26.4809 336.186 27.1257ZM340.743 29.0561C340.431 29.0521 340.171 28.7998 340.175 28.4874C340.171 28.175 340.431 27.9187 340.743 27.9187C341.052 27.9187 341.308 28.175 341.312 28.4874C341.308 28.7998 341.052 29.0521 340.743 29.0561ZM344.187 29.0801C342.986 29.0801 342.133 28.4353 342.097 27.4862H342.994C343.026 27.9948 343.531 28.3192 344.179 28.3192C344.88 28.3192 345.389 27.9387 345.389 27.374C345.389 26.8013 344.912 26.3928 344.083 26.3888H343.587V25.668H344.083C344.744 25.672 345.205 25.3035 345.205 24.7468C345.205 24.2182 344.808 23.8578 344.195 23.8578C343.615 23.8578 343.094 24.1822 343.074 24.7068H342.225C342.249 23.7617 343.122 23.1209 344.203 23.1209C345.345 23.1209 346.062 23.8418 346.054 24.6988C346.062 25.3596 345.653 25.8322 345.028 25.9884V26.0284C345.821 26.1405 346.282 26.6732 346.278 27.4061C346.282 28.3712 345.389 29.0801 344.187 29.0801ZM348.577 25.9563C347.784 25.9643 347.351 25.3756 347.359 24.5146C347.351 23.6655 347.804 23.0768 348.577 23.0808C349.374 23.0768 349.79 23.6655 349.794 24.5146C349.79 25.3796 349.358 25.9643 348.577 25.9563ZM348.016 29L351.997 23.201H352.726L348.745 29H348.016ZM348.016 24.5146C348.02 25.0472 348.204 25.3916 348.577 25.3956C348.953 25.3916 349.129 25.0472 349.129 24.5146C349.129 23.9939 348.965 23.6375 348.577 23.6415C348.204 23.6495 348.02 23.9979 348.016 24.5146ZM351.02 27.6784C351.016 26.8214 351.464 26.2326 352.237 26.2367C353.03 26.2326 353.451 26.8214 353.455 27.6784C353.451 28.5354 353.018 29.1201 352.237 29.1201C351.448 29.1201 351.016 28.5314 351.02 27.6784ZM351.676 27.6784C351.68 28.203 351.865 28.5515 352.237 28.5515C352.614 28.5515 352.79 28.203 352.79 27.6784C352.79 27.1498 352.626 26.7973 352.237 26.7973C351.869 26.8053 351.68 27.1538 351.676 27.6784Z" fill="#113287"/>
<path d="M540.778 28.2539V28.8786H534.21V28.2539H537.109V26.692H537.862V28.2539H540.778ZM534.53 26.3475C536.004 26.1313 537.065 25.2983 537.101 24.2891H534.802V23.6723H537.109V22.7111H537.862V23.6723H540.169V24.2891H537.87C537.906 25.2983 538.967 26.1313 540.441 26.3475L540.153 26.9403C538.951 26.752 537.95 26.1833 537.482 25.3463C537.017 26.1833 536.02 26.752 534.818 26.9403L534.53 26.3475ZM547.105 23.2718V23.9767C547.101 24.8617 547.101 25.855 546.833 27.3247L546.064 27.2446C546.34 25.855 546.34 24.8377 546.344 23.9767V23.8886H541.987V23.2718H547.105ZM541.298 28.7905V28.1577H543.789V25.6267H544.542V28.1577H547.842V28.7905H541.298ZM554.202 25.891V26.4997H552.031V28.2539H554.955V28.8786H548.387V28.2539H551.278V26.4997H549.204V23.1357H554.138V23.7524H549.965V25.891H554.202ZM559.745 29.159C558.403 29.159 557.614 28.0776 557.614 26.1793C557.614 24.2931 558.411 23.1997 559.745 23.1997C561.074 23.1997 561.871 24.2931 561.875 26.1793C561.871 28.0776 561.086 29.159 559.745 29.159ZM558.495 26.1793C558.491 27.6251 558.96 28.398 559.745 28.398C560.525 28.398 560.994 27.6251 560.994 26.1793C560.994 24.7376 560.521 23.9486 559.745 23.9446C558.964 23.9486 558.495 24.7376 558.495 26.1793ZM563.141 29.1349C562.828 29.1309 562.568 28.8786 562.572 28.5662C562.568 28.2539 562.828 27.9975 563.141 27.9975C563.449 27.9975 563.705 28.2539 563.709 28.5662C563.705 28.8786 563.449 29.1309 563.141 29.1349ZM566.657 23.1997C567.722 23.2077 568.84 23.8485 568.844 25.9711C568.844 28.0056 567.966 29.159 566.577 29.159C565.507 29.159 564.763 28.4982 564.622 27.557H565.495C565.616 28.0456 565.992 28.386 566.577 28.39C567.47 28.386 567.995 27.6091 568.003 26.2835H567.93C567.618 26.7721 567.073 27.0684 566.449 27.0684C565.407 27.0684 564.574 26.2715 564.574 25.1621C564.574 24.0568 565.395 23.1917 566.657 23.1997ZM565.431 25.1461C565.435 25.8189 565.936 26.3516 566.641 26.3475C567.342 26.3516 567.882 25.7789 567.882 25.1381C567.882 24.5093 567.366 23.9366 566.657 23.9366C565.956 23.9366 565.427 24.4813 565.431 25.1461ZM571.102 26.0352C570.309 26.0432 569.877 25.4545 569.885 24.5934C569.877 23.7444 570.329 23.1557 571.102 23.1597C571.899 23.1557 572.316 23.7444 572.32 24.5934C572.316 25.4585 571.883 26.0432 571.102 26.0352ZM570.542 29.0789L574.522 23.2798H575.251L571.27 29.0789H570.542ZM570.542 24.5934C570.546 25.1261 570.73 25.4705 571.102 25.4745C571.479 25.4705 571.655 25.1261 571.655 24.5934C571.655 24.0728 571.491 23.7164 571.102 23.7204C570.73 23.7284 570.546 24.0768 570.542 24.5934ZM573.545 27.7573C573.541 26.9002 573.99 26.3115 574.763 26.3155C575.556 26.3115 575.976 26.9002 575.98 27.7573C575.976 28.6143 575.544 29.199 574.763 29.199C573.974 29.199 573.541 28.6103 573.545 27.7573ZM574.202 27.7573C574.206 28.2819 574.39 28.6303 574.763 28.6303C575.139 28.6303 575.315 28.2819 575.315 27.7573C575.315 27.2286 575.151 26.8762 574.763 26.8762C574.394 26.8842 574.206 27.2326 574.202 27.7573Z" fill="white"/>
</svg>
