<?xml version="1.0" encoding="UTF-8"?>
<svg width="593px" height="88px" viewBox="0 0 593 88" version="1.1" xmlns="http://www.w3.org/2000/svg" xmlns:xlink="http://www.w3.org/1999/xlink">
    <title>Artboard</title>
    <g id="Artboard" stroke="none" stroke-width="1" fill="none" fill-rule="evenodd">
        <g id="totalSeverity70s" transform="translate(0.000000, 9.000000)">
            <polygon id="Path" fill="#979797" points="111.956432 40.0132598 111.956432 12.5231577 112.776625 12.5231577 112.776625 40.0132598"></polygon>
            <polygon id="Path" fill="#001A5B" fill-rule="nonzero" points="6.18831999 15.9040779 29.8161712 15.9040779 29.8161712 35.5887252 6.18831999 35.5887252 0 25.7464016"></polygon>
            <path d="M292.134109,62.8017339 C293.255314,62.8089016 294.00169,62.0339826 294.00169,61.0211255 C294.00169,60.0227038 293.252033,59.3090533 292.321934,59.3054444 C291.756,59.3090533 291.265524,59.5685626 290.980917,60.0118772 L290.923503,60.0118772 C290.923503,58.833259 291.391834,58.1340439 292.198905,58.130435 C292.725469,58.1340439 293.060928,58.4403862 293.165093,58.8657386 L293.950838,58.8657386 C293.828629,58.0366869 293.161812,57.4383556 292.198905,57.4383556 C290.948109,57.4383556 290.162364,58.4764747 290.159083,60.2930396 C290.159083,62.2213969 291.168741,62.7944662 292.134109,62.8017339 Z M291.017006,61.0427786 C291.024387,60.4624096 291.510762,59.9506088 292.148873,59.9541977 C292.775501,59.9506088 293.229888,60.4372296 293.229888,61.0355609 C293.229888,61.6447187 292.758277,62.1348664 292.126728,62.1384753 C291.485336,62.1348664 291.020286,61.6230656 291.017006,61.0427786 Z" id="Shape" fill="#001A5B" fill-rule="nonzero"></path>
            <path d="M296.661578,62.8016839 C297.868903,62.8016839 298.57509,61.8285241 298.579191,60.1200608 C298.57509,58.422342 297.858241,57.4383556 296.661578,57.4383556 C295.460815,57.4383556 294.743965,58.422342 294.743965,60.1200608 C294.743965,61.8285241 295.454253,62.8016839 296.661578,62.8016839 Z M295.537093,60.1200608 C295.537093,58.8224324 295.958672,58.1123908 296.661578,58.1087819 C297.360383,58.1123908 297.786064,58.8224324 297.786064,60.1200608 C297.786064,61.421216 297.364484,62.1168222 296.661578,62.1168222 C295.954571,62.1168222 295.532992,61.421216 295.537093,60.1200608 Z" id="Shape" fill="#001A5B" fill-rule="nonzero"></path>
            <path d="M301.166902,62.7295888 C302.756437,62.7295888 303.671773,61.7419937 303.675874,60.1128431 C303.671773,58.4872193 302.756437,57.5104507 301.216934,57.5104507 L299.473202,57.5104507 L299.473202,62.7295888 L301.166902,62.7295888 Z M300.265509,62.0375915 L300.265509,58.2025301 L301.166902,58.2025301 C302.306151,58.2025301 302.890129,58.8837009 302.890129,60.1128431 C302.890129,61.3455121 302.306151,62.0339826 301.123432,62.0375915 L300.265509,62.0375915 Z" id="Shape" fill="#001A5B" fill-rule="nonzero"></path>
            <path d="M275.65888,66.580644 L275.15282,66.580644 L275.15282,69.9511478 L273.973382,69.9511478 L273.973382,70.31638 L275.15282,70.31638 L275.15282,70.9059352 L275.65888,70.9059352 L275.65888,66.580644 Z M270.929643,69.2206833 L271.00018,69.6307801 C271.477533,69.6307801 272.025422,69.6307801 272.602018,69.6083068 L272.602018,70.7072843 L273.108077,70.7072843 L273.108077,69.5827168 C273.630541,69.5506472 274.166127,69.4993851 274.672187,69.4193342 L274.640199,69.05402 C273.418931,69.2046075 271.990154,69.2142858 270.929643,69.2206833 Z M271.391398,67.804537 C271.388131,68.4132847 271.958166,68.7913119 272.800505,68.7913119 C273.637102,68.7913119 274.207137,68.4132847 274.210418,67.804537 C274.207137,67.2053855 273.637102,66.8113645 272.800505,66.8113645 C271.958166,66.8113645 271.388131,67.2053855 271.391398,67.804537 Z M271.749837,72.1490207 L275.799953,72.1490207 L275.799953,71.7261288 L272.255896,71.7261288 L272.255896,70.4829613 L271.749837,70.4829613 L271.749837,72.1490207 Z M271.872046,67.804537 C271.865484,67.4393047 272.243593,67.1893917 272.800505,67.1957893 C273.342653,67.1893917 273.726503,67.4393047 273.729784,67.804537 C273.726503,68.1761667 273.342653,68.4164834 272.800505,68.4196822 C272.243593,68.4164834 271.865484,68.1761667 271.872046,67.804537 Z" id="Shape" fill="#001A5B" fill-rule="nonzero"></path>
            <path d="M280.304456,68.1057121 L280.304456,67.067675 L279.804959,67.067675 L279.804959,68.1057121 C279.798397,69.185415 279.096311,70.2747142 278.247411,70.6624197 L278.568107,71.0853115 C279.234104,70.7489501 279.795116,70.0279999 280.057578,69.1694212 C280.329882,69.9800186 280.890895,70.6560222 281.541308,70.9699923 L281.848881,70.5726905 C281.009003,70.1914645 280.301176,69.1469479 280.304456,68.1057121 Z M282.470588,72.2835324 L282.976647,72.2835324 L282.976647,66.5742465 L282.470588,66.5742465 L282.470588,72.2835324 Z" id="Shape" fill="#001A5B" fill-rule="nonzero"></path>
            <path d="M314.861675,67.7404799 L310.991181,67.7404799 L310.991181,68.1505767 L314.361357,68.1505767 L314.361357,68.1825642 C314.364638,68.6663965 314.364638,69.2270808 314.211261,70.0152049 L310.330925,70.0152049 L310.330925,70.4380967 L315.547357,70.4380967 L315.547357,70.0152049 L314.710759,70.0152049 C314.861675,69.2398758 314.861675,68.6631977 314.861675,68.1825642 L314.861675,67.7404799 Z M311.023169,72.9628168 L315.034736,72.9628168 L315.034736,72.5398429 L311.522667,72.5398429 L311.522667,71.078914 L311.023169,71.078914 L311.023169,72.9628168 Z" id="Shape" fill="#001A5B" fill-rule="nonzero"></path>
            <path d="M319.673751,68.9259057 L319.673751,67.8878687 L319.174253,67.8878687 L319.174253,68.9259057 C319.167692,70.0056086 318.465606,71.0949078 317.616705,71.4826133 L317.937401,71.9055052 C318.603398,71.5691438 319.164411,70.8481935 319.426873,69.9896148 C319.699177,70.8002122 320.260189,71.4762158 320.910603,71.7901859 L321.218176,71.3928841 C320.378297,71.0116581 319.67047,69.9671415 319.673751,68.9259057 Z M321.839882,73.103726 L322.345942,73.103726 L322.345942,67.3944402 L321.839882,67.3944402 L321.839882,73.103726 Z" id="Shape" fill="#001A5B" fill-rule="nonzero"></path>
            <path d="M70.5630631,63.6218775 C71.6516241,63.6218775 72.4229342,62.8829651 72.4229342,61.8557545 C72.4229342,60.8501151 71.6984571,60.1220292 70.7144708,60.1184204 C70.3179892,60.1220292 69.9503784,60.2626104 69.7340934,60.4716778 L69.6836515,60.4716778 L69.8566303,59.0082883 L72.1562072,59.0082883 L72.1562072,58.3306443 L69.2006394,58.3306443 L68.8618174,61.2357702 L69.6115564,61.2357702 C69.7881441,60.9149924 70.1089219,60.7744113 70.5270566,60.7744113 C71.1830474,60.781629 71.6516241,61.2429879 71.6516241,61.8773256 C71.6516241,62.49731 71.1974828,62.9550601 70.5630631,62.9586689 C70.0368268,62.9550601 69.6115564,62.6306735 69.5682502,62.1873588 L68.7969401,62.1873588 C68.8330286,63.0199374 69.5754679,63.6218775 70.5630631,63.6218775 Z" id="Path" fill="#001A5B" fill-rule="nonzero"></path>
            <path d="M73.1510201,62.5333985 L75.6884531,62.5333985 L75.6884531,63.5497825 L76.4381921,63.5497825 L76.4381921,62.5333985 L77.1518426,62.5333985 L77.1518426,61.8629722 L76.4381921,61.8629722 L76.4381921,58.3306443 L75.4578147,58.3306443 L73.1510201,61.891761 L73.1510201,62.5333985 Z M73.9872075,61.8629722 L73.9872075,61.819666 L75.6307935,59.2750153 L75.6884531,59.2750153 L75.6884531,61.8629722 L73.9872075,61.8629722 Z" id="Shape" fill="#001A5B" fill-rule="nonzero"></path>
            <path d="M79.7181465,63.5497825 C81.3076817,63.5497825 82.223592,62.5621873 82.2268728,60.9330367 C82.223592,59.3074129 81.3076817,58.3306443 79.7686704,58.3306443 L78.0241185,58.3306443 L78.0241185,63.5497825 L79.7181465,63.5497825 Z M78.8170817,62.8577851 L78.8170817,59.0227237 L79.7181465,59.0227237 C80.8571494,59.0227237 81.4410452,59.7038945 81.4410452,60.9330367 C81.4410452,62.1657057 80.8571494,62.8541763 79.6749223,62.8577851 L78.8170817,62.8577851 Z" id="Shape" fill="#001A5B" fill-rule="nonzero"></path>
            <path d="M144.423797,63.6218775 C145.512194,63.6218775 146.283996,62.8829651 146.283996,61.8557545 C146.283996,60.8501151 145.558945,60.1220292 144.575533,60.1184204 C144.178559,60.1220292 143.811112,60.2626104 143.594581,60.4716778 L143.544549,60.4716778 L143.71761,59.0082883 L146.016613,59.0082883 L146.016613,58.3306443 L143.061455,58.3306443 L142.722715,61.2357702 L143.472372,61.2357702 C143.648714,60.9149924 143.969409,60.7744113 144.387708,60.7744113 C145.043863,60.781629 145.512194,61.2429879 145.512194,61.8773256 C145.512194,62.49731 145.057806,62.9550601 144.423797,62.9586689 C143.897232,62.9550601 143.472372,62.6306735 143.428902,62.1873588 L142.65792,62.1873588 C142.694008,63.0199374 143.436284,63.6218775 144.423797,63.6218775 Z" id="Path" fill="#001A5B" fill-rule="nonzero"></path>
            <path d="M149.016061,63.6219275 C150.136445,63.6290952 150.882822,62.8541763 150.882822,61.8413191 C150.882822,60.8428974 150.133165,60.1292469 149.203065,60.1256381 C148.637131,60.1292469 148.147476,60.3887562 147.862048,60.8320709 L147.804635,60.8320709 C147.804635,59.6534526 148.272965,58.9542375 149.080856,58.9506287 C149.6066,58.9542375 149.942059,59.2605799 150.046224,59.6859323 L150.83197,59.6859323 C150.709761,58.8568805 150.042943,58.2585493 149.080856,58.2585493 C147.830061,58.2585493 147.044315,59.2966684 147.040214,61.1132332 C147.040214,63.0415905 148.049873,63.6146598 149.016061,63.6219275 Z M147.898137,61.8629722 C147.905519,61.2826032 148.391893,60.7708024 149.030004,60.7743913 C149.657452,60.7708024 150.11184,61.2574233 150.11184,61.8557545 C150.11184,62.4649124 149.639408,62.9550601 149.008679,62.9586689 C148.367288,62.9550601 147.902238,62.4432592 147.898137,61.8629722 Z" id="Shape" fill="#001A5B" fill-rule="nonzero"></path>
            <path d="M153.492678,63.5497825 C155.082213,63.5497825 155.997549,62.5621873 156.00083,60.9330367 C155.997549,59.3074129 155.082213,58.3306443 153.54271,58.3306443 L151.798158,58.3306443 L151.798158,63.5497825 L153.492678,63.5497825 Z M152.591285,62.8577851 L152.591285,59.0227237 L153.492678,59.0227237 C154.631107,59.0227237 155.215084,59.7038945 155.215084,60.9330367 C155.215084,62.1657057 154.631107,62.8541763 153.449207,62.8577851 L152.591285,62.8577851 Z" id="Shape" fill="#001A5B" fill-rule="nonzero"></path>
            <path d="M218.259268,63.6218775 C219.347665,63.6218775 220.119467,62.8829651 220.119467,61.8557545 C220.119467,60.8501151 219.394416,60.1220292 218.411004,60.1184204 C218.01403,60.1220292 217.646584,60.2626104 217.430053,60.4716778 L217.380021,60.4716778 L217.553082,59.0082883 L219.852084,59.0082883 L219.852084,58.3306443 L216.896927,58.3306443 L216.558187,61.2357702 L217.307844,61.2357702 C217.484185,60.9149924 217.804881,60.7744113 218.22318,60.7744113 C218.879335,60.781629 219.347665,61.2429879 219.347665,61.8773256 C219.347665,62.49731 218.893278,62.9550601 218.259268,62.9586689 C217.732704,62.9550601 217.307844,62.6306735 217.264373,62.1873588 L216.493391,62.1873588 C216.52948,63.0199374 217.271755,63.6218775 218.259268,63.6218775 Z" id="Path" fill="#001A5B" fill-rule="nonzero"></path>
            <path d="M222.785917,63.6218775 C223.903841,63.6218775 224.700249,63.0091108 224.70353,62.158488 C224.700249,61.4880617 224.217155,60.9402544 223.607751,60.8465063 L223.607751,60.8177175 C224.134315,60.6950985 224.498481,60.2193862 224.501762,59.6498438 C224.498481,58.846054 223.770149,58.2585493 222.785917,58.2585493 C221.787741,58.2585493 221.06351,58.846054 221.06351,59.6498438 C221.06351,60.2193862 221.420295,60.6950985 221.957521,60.8177175 L221.957521,60.8465063 C221.340736,60.9402544 220.861743,61.4880617 220.869124,62.158488 C220.861743,63.0091108 221.650769,63.6218775 222.785917,63.6218775 Z M221.676195,62.1008284 C221.665533,61.5637656 222.137144,61.1708929 222.785917,61.1708929 C223.428129,61.1708929 223.896459,61.5637656 223.896459,62.1008284 C223.896459,62.6126292 223.464217,62.9658866 222.785917,62.9658866 C222.097775,62.9658866 221.665533,62.6126292 221.676195,62.1008284 Z M221.834492,59.7219388 C221.838593,59.2353999 222.213422,58.9037956 222.785917,58.9074045 C223.345289,58.9037956 223.726679,59.2353999 223.723398,59.7219388 C223.726679,60.2121685 223.330526,60.5473817 222.785917,60.5437728 C222.227365,60.5473817 221.838593,60.2085597 221.834492,59.7219388 Z" id="Shape" fill="#001A5B" fill-rule="nonzero"></path>
            <path d="M227.292061,63.5497825 C228.881596,63.5497825 229.796932,62.5621873 229.800213,60.9330367 C229.796932,59.3074129 228.881596,58.3306443 227.342093,58.3306443 L225.597541,58.3306443 L225.597541,63.5497825 L227.292061,63.5497825 Z M226.390668,62.8577851 L226.390668,59.0227237 L227.292061,59.0227237 C228.43049,59.0227237 229.014467,59.7038945 229.014467,60.9330367 C229.014467,62.1657057 228.43049,62.8541763 227.248591,62.8577851 L226.390668,62.8577851 Z" id="Shape" fill="#001A5B" fill-rule="nonzero"></path>
            <path d="M365.926111,62.8017339 C367.047315,62.8089016 367.793692,62.0339826 367.793692,61.0211255 C367.793692,60.0227038 367.044035,59.3090533 366.113935,59.3054444 C365.548001,59.3090533 365.057526,59.5685626 364.772918,60.0118772 L364.715505,60.0118772 C364.715505,58.833259 365.183835,58.1340439 365.991726,58.130435 C366.51747,58.1340439 366.852929,58.4403862 366.957094,58.8657386 L367.74284,58.8657386 C367.620631,58.0366869 366.953813,57.4383556 365.991726,57.4383556 C364.740931,57.4383556 363.955185,58.4764747 363.951084,60.2930396 C363.951084,62.2213969 364.960743,62.7944662 365.926111,62.8017339 Z M364.809007,61.0427786 C364.816389,60.4624096 365.302763,59.9506088 365.940874,59.9541977 C366.568322,59.9506088 367.021889,60.4372296 367.021889,61.0355609 C367.021889,61.6447187 366.550278,62.1348664 365.919549,62.1384753 C365.277337,62.1348664 364.813108,61.6230656 364.809007,61.0427786 Z" id="Shape" fill="#001A5B" fill-rule="nonzero"></path>
            <path d="M370.489668,62.8016839 C371.570683,62.8016839 372.374473,62.1637373 372.371212,61.2950702 C372.374473,60.6354704 371.960275,60.1560673 371.246707,60.0551834 L371.246707,60.0190949 C371.808539,59.8785137 372.176806,59.4532433 372.169425,58.8585209 C372.176806,58.0872108 371.531314,57.4383556 370.504432,57.4383556 C369.530862,57.4383556 368.745116,58.0151158 368.723791,58.8657386 L369.487391,58.8657386 C369.505436,58.3935532 369.974586,58.1015642 370.49705,58.1015642 C371.04822,58.1015642 371.405004,58.4259508 371.405004,58.9017451 C371.405004,59.4028014 370.990806,59.7344057 370.396166,59.7307969 L369.94916,59.7307969 L369.94916,60.37957 L370.396166,60.37957 C371.141722,60.3831789 371.570683,60.7507897 371.570683,61.2661994 C371.570683,61.7744734 371.113015,62.1168222 370.482286,62.1168222 C369.898308,62.1168222 369.444741,61.8249153 369.415214,61.3671652 L368.608144,61.3671652 C368.640952,62.2213969 369.408653,62.8016839 370.489668,62.8016839 Z" id="Path" fill="#001A5B" fill-rule="nonzero"></path>
            <path d="M375.009755,62.7295888 C376.59929,62.7295888 377.514627,61.7419937 377.517907,60.1128431 C377.514627,58.4872193 376.59929,57.5104507 375.059787,57.5104507 L373.315235,57.5104507 L373.315235,62.7295888 L375.009755,62.7295888 Z M374.108362,62.0375915 L374.108362,58.2025301 L375.009755,58.2025301 C376.148184,58.2025301 376.732162,58.8837009 376.732162,60.1128431 C376.732162,61.3455121 376.148184,62.0339826 374.966285,62.0375915 L374.108362,62.0375915 Z" id="Shape" fill="#001A5B" fill-rule="nonzero"></path>
            <path d="M439.747639,62.8017339 C440.868844,62.8089016 441.6144,62.0339826 441.6144,61.0211255 C441.6144,60.0227038 440.864743,59.3090533 439.934643,59.3054444 C439.36871,59.3090533 438.879054,59.5685626 438.594447,60.0118772 L438.536213,60.0118772 C438.536213,58.833259 439.005364,58.1340439 439.812434,58.130435 C440.338999,58.1340439 440.673638,58.4403862 440.778622,58.8657386 L441.564368,58.8657386 C441.441339,58.0366869 440.774521,57.4383556 439.812434,57.4383556 C438.561639,57.4383556 437.775893,58.4764747 437.772613,60.2930396 C437.772613,62.2213969 438.781451,62.7944662 439.747639,62.8017339 Z M438.630535,61.0427786 C438.637097,60.4624096 439.124292,59.9506088 439.761582,59.9541977 C440.38903,59.9506088 440.843418,60.4372296 440.843418,61.0355609 C440.843418,61.6447187 440.370986,62.1348664 439.740257,62.1384753 C439.098866,62.1348664 438.633816,61.6230656 438.630535,61.0427786 Z" id="Shape" fill="#001A5B" fill-rule="nonzero"></path>
            <path d="M444.346465,62.8017339 C445.467669,62.8089016 446.214046,62.0339826 446.214046,61.0211255 C446.214046,60.0227038 445.464389,59.3090533 444.534289,59.3054444 C443.968355,59.3090533 443.47788,59.5685626 443.193272,60.0118772 L443.135859,60.0118772 C443.135859,58.833259 443.604189,58.1340439 444.41126,58.130435 C444.937824,58.1340439 445.273284,58.4403862 445.377448,58.8657386 L446.163194,58.8657386 C446.040985,58.0366869 445.374167,57.4383556 444.41126,57.4383556 C443.160465,57.4383556 442.374719,58.4764747 442.371438,60.2930396 C442.371438,62.2213969 443.381097,62.7944662 444.346465,62.8017339 Z M443.229361,61.0427786 C443.236743,60.4624096 443.723118,59.9506088 444.361228,59.9541977 C444.988676,59.9506088 445.442243,60.4372296 445.442243,61.0355609 C445.442243,61.6447187 444.970632,62.1348664 444.339903,62.1384753 C443.697692,62.1348664 443.232642,61.6230656 443.229361,61.0427786 Z" id="Shape" fill="#001A5B" fill-rule="nonzero"></path>
            <path d="M448.823082,62.7295888 C450.412617,62.7295888 451.328773,61.7419937 451.332054,60.1128431 C451.328773,58.4872193 450.412617,57.5104507 448.873934,57.5104507 L447.129382,57.5104507 L447.129382,62.7295888 L448.823082,62.7295888 Z M447.922509,62.0375915 L447.922509,58.2025301 L448.823082,58.2025301 C449.962331,58.2025301 450.546308,58.8837009 450.546308,60.1128431 C450.546308,61.3455121 449.962331,62.0339826 448.780432,62.0375915 L447.922509,62.0375915 Z" id="Shape" fill="#001A5B" fill-rule="nonzero"></path>
            <path d="M513.565066,62.8018148 C514.686271,62.8089016 515.431827,62.0339826 515.431827,61.0212075 C515.431827,60.0227858 514.68217,59.3091353 513.752071,59.3055265 C513.186137,59.3091353 512.696481,59.5686446 512.411874,60.0119592 L512.35364,60.0119592 C512.35364,58.833341 512.822791,58.1340439 513.629862,58.130435 C514.156426,58.1340439 514.491065,58.4404682 514.59605,58.8657386 L515.381795,58.8657386 C515.258766,58.0367689 514.591949,57.4384377 513.629862,57.4384377 C512.379066,57.4384377 511.593321,58.4764747 511.59004,60.2931216 C511.59004,62.2213969 512.598878,62.7945482 513.565066,62.8018148 Z M512.447963,61.0427786 C512.454524,60.4624916 512.941719,59.9506908 513.57901,59.9542797 C514.206458,59.9506908 514.660845,60.4372296 514.660845,61.0355609 C514.660845,61.6447187 514.188414,62.1349485 513.557685,62.1385573 C512.916293,62.1349485 512.451243,61.6230656 512.447963,61.0427786 Z" id="Shape" fill="#001A5B" fill-rule="nonzero"></path>
            <path d="M518.07039,57.4383879 C516.935242,57.43122 516.196248,58.2097478 516.196248,59.2045606 C516.196248,60.2029823 516.945905,60.9202417 517.883386,60.9202417 C518.445219,60.9202417 518.935694,60.6535147 519.217021,60.2138089 L519.281816,60.2138089 C519.274434,61.4068626 518.802003,62.1060776 517.998213,62.1096865 C517.472469,62.1060776 517.132909,61.7997353 517.025463,61.3599475 L516.239718,61.3599475 C516.365207,62.2070435 517.036126,62.8017659 517.998213,62.8017659 C519.249008,62.8017659 520.038035,61.7636468 520.038035,59.9326465 C520.034754,58.0223335 519.029196,57.4456554 518.07039,57.4383879 Z M516.967213,59.1901252 C516.963949,58.591794 517.439661,58.1016462 518.07039,58.1016462 C518.708501,58.1016462 519.17355,58.6170559 519.17355,59.1829075 C519.17355,59.7596677 518.687176,60.2750774 518.055627,60.2714888 C517.421617,60.2750774 516.971331,59.7956742 516.967213,59.1901252 Z" id="Shape" fill="#001A5B" fill-rule="nonzero"></path>
            <path d="M522.640509,62.7296709 C524.230044,62.7296709 525.146201,61.7420757 525.149481,60.1128431 C525.146201,58.4873013 524.230044,57.5105327 522.691361,57.5105327 L520.946809,57.5105327 L520.946809,62.7296709 L522.640509,62.7296709 Z M521.739936,62.0375915 L521.739936,58.2025301 L522.640509,58.2025301 C523.779758,58.2025301 524.363736,58.8837829 524.363736,60.1128431 C524.363736,61.3455941 523.779758,62.0339826 522.597859,62.0375915 L521.739936,62.0375915 Z" id="Shape" fill="#001A5B" fill-rule="nonzero"></path>
            <polygon id="Path" fill="#979797" points="38.1390041 40.0132598 38.1390041 12.5231577 38.9591978 12.5231577 38.9591978 40.0132598"></polygon>
            <polygon id="Path" fill="#979797" points="185.773859 40.0132598 185.773859 12.5231577 186.594053 12.5231577 186.594053 40.0132598"></polygon>
            <polygon id="Path" fill="#979797" points="259.591286 40.0132598 259.591286 12.5231577 260.41148 12.5231577 260.41148 40.0132598"></polygon>
            <polygon id="Path" fill="#979797" points="321.105809 40.0132598 321.105809 12.5231577 321.926003 12.5231577 321.926003 40.0132598"></polygon>
            <polygon id="Path" fill="#979797" points="345.711618 40.0132598 345.711618 12.5231577 346.531812 12.5231577 346.531812 40.0132598"></polygon>
            <polygon id="Path" fill="#979797" points="394.923237 40.0132598 394.923237 12.5231577 395.74343 12.5231577 395.74343 40.0132598"></polygon>
            <polygon id="Path" fill="#979797" points="419.529046 40.0132598 419.529046 12.5231577 420.349239 12.5231577 420.349239 40.0132598"></polygon>
            <polygon id="Path" fill="#979797" points="468.740664 40.0132598 468.740664 12.5231577 469.560858 12.5231577 469.560858 40.0132598"></polygon>
            <polygon id="Path" fill="#979797" points="493.346473 40.0132598 493.346473 12.5231577 494.166667 12.5231577 494.166667 40.0132598"></polygon>
            <polygon id="Path" fill="#979797" points="542.558091 40.0132598 542.558091 12.5231577 543.378285 12.5231577 543.378285 40.0132598"></polygon>
            <polygon id="Path" fill="#979797" points="567.1639 40.0132598 567.1639 12.5231577 567.984094 12.5231577 567.984094 40.0132598"></polygon>
            <rect id="Rectangle" fill="#E2E6F6" fill-rule="nonzero" x="223.092669" y="15.9040779" width="73.8174274" height="19.6846473"></rect>
            <path d="M246.104842,22.1780671 L245.343703,22.1780671 L245.343703,23.4515818 L243.785335,23.4515818 C243.833726,23.2113471 243.861613,22.9550366 243.861613,22.6906882 L240.577557,22.6906882 L240.577557,23.3154296 L243.036498,23.3154296 C242.900346,24.4728869 241.907091,25.3859265 240.20929,25.8705789 L240.513582,26.4632508 C242.067849,26.0187059 243.144763,25.2057299 243.609813,24.0523736 L245.343703,24.0523736 L245.343703,24.9253877 L243.533535,24.9253877 L243.533535,25.5501292 L245.343703,25.5501292 L245.343703,26.4232254 L246.104842,26.4232254 L246.104842,22.1780671 Z M241.323113,27.9049872 C241.323113,28.7780833 242.267976,29.314736 243.741864,29.314736 C245.195248,29.314736 246.148313,28.7780833 246.152414,27.9049872 C246.148313,27.035992 245.195248,26.5072952 243.741864,26.5032763 C242.267976,26.5072952 241.323113,27.035992 241.323113,27.9049872 Z M242.076051,27.9049872 C242.076051,27.3923662 242.716622,27.1000491 243.741864,27.1040681 C244.746602,27.1000491 245.387993,27.3923662 245.392094,27.9049872 C245.387993,28.4096523 244.746602,28.7019693 243.741864,28.7059883 C242.716622,28.7019693 242.076051,28.4096523 242.076051,27.9049872 Z" id="Shape" fill="#113287" fill-rule="nonzero"></path>
            <polygon id="Path" fill="#113287" fill-rule="nonzero" points="253.024816 25.4780342 248.787696 25.4780342 248.787696 23.3394613 252.960841 23.3394613 252.960841 22.7227577 248.026556 22.7227577 248.026556 26.0867819 250.101646 26.0867819 250.101646 27.8409301 247.209643 27.8409301 247.209643 28.4656716 253.777754 28.4656716 253.777754 27.8409301 250.854584 27.8409301 250.854584 26.0867819 253.024816 26.0867819"></polygon>
            <path d="M258.519293,28.7460137 C259.729079,28.7460137 260.586181,27.9249999 260.586181,26.7836184 C260.586181,25.6662687 259.780751,24.8573117 258.687433,24.8532927 C258.246989,24.8573117 257.838533,25.0134765 257.598216,25.2457554 L257.542443,25.2457554 L257.734368,23.6198035 L260.290091,23.6198035 L260.290091,22.8668657 L257.006036,22.8668657 L256.629567,26.0948198 L257.462064,26.0948198 C257.65891,25.7383637 258.014874,25.5821988 258.479924,25.5821988 C259.208256,25.5902367 259.729079,26.1028577 259.729079,26.8076501 C259.729079,27.4965308 259.22466,28.0051328 258.519293,28.0091518 C257.934495,28.0051328 257.462064,27.6446577 257.414492,27.1521314 L256.55739,27.1521314 C256.59758,28.0772278 257.421874,28.7460137 258.519293,28.7460137 Z" id="Path" fill="#113287" fill-rule="nonzero"></path>
            <path d="M261.394892,27.5365562 L264.214718,27.5365562 L264.214718,28.6659628 L265.047214,28.6659628 L265.047214,27.5365562 L265.840342,27.5365562 L265.840342,26.7916563 L265.047214,26.7916563 L265.047214,22.8668657 L263.957997,22.8668657 L261.394892,26.8237259 L261.394892,27.5365562 Z M262.324172,26.7916563 L262.324172,26.743593 L264.150743,23.9161395 L264.214718,23.9161395 L264.214718,26.7916563 L262.324172,26.7916563 Z" id="Shape" fill="#113287" fill-rule="nonzero"></path>
            <path d="M267.082115,28.7219821 C267.390508,28.7179631 267.646408,28.4656716 267.650509,28.1533418 C267.646408,27.8409301 267.390508,27.5846195 267.082115,27.5846195 C266.769621,27.5846195 266.50962,27.8409301 266.5129,28.1533418 C266.50962,28.4656716 266.769621,28.7179631 267.082115,28.7219821 Z" id="Path" fill="#113287" fill-rule="nonzero"></path>
            <path d="M270.526108,28.7460137 C271.727692,28.7460137 272.620882,28.0372024 272.616809,27.0719985 C272.620882,26.3390735 272.159934,25.8064397 271.366806,25.6943193 L271.366806,25.6542938 C271.991794,25.498129 272.40025,25.0255334 272.392048,24.3647034 C272.40025,23.507683 271.683401,22.7868148 270.542512,22.7868148 C269.460676,22.7868148 268.58799,23.4275501 268.563385,24.3727413 L269.413105,24.3727413 C269.43279,23.8480634 269.953613,23.5236768 270.53431,23.5236768 C271.146994,23.5236768 271.543148,23.8841519 271.543148,24.4127667 C271.543148,24.9694321 271.083019,25.3378631 270.421943,25.3339262 L269.925726,25.3339262 L269.925726,26.0547944 L270.421943,26.0547944 C271.251159,26.0587313 271.727692,26.4672698 271.727692,27.039929 C271.727692,27.6046323 271.219172,27.9851201 270.517906,27.9851201 C269.869133,27.9851201 269.364714,27.6607335 269.332726,27.1521314 L268.435434,27.1521314 C268.471523,28.1012595 269.324524,28.7460137 270.526108,28.7460137 Z" id="Path" fill="#113287" fill-rule="nonzero"></path>
            <path d="M274.915784,25.6222243 C275.696609,25.6302621 276.128851,25.0455461 276.132952,24.1804879 C276.128851,23.3315054 275.712192,22.7427704 274.915784,22.7467689 C274.142342,22.7427704 273.689595,23.3315054 273.697797,24.1804879 C273.689595,25.0415272 274.122657,25.6302621 274.915784,25.6222243 Z M274.354772,28.6659628 L275.083924,28.6659628 L279.064324,22.8668657 L278.335992,22.8668657 L274.354772,28.6659628 Z M274.354772,24.1804879 C274.358873,23.6638479 274.542596,23.3154296 274.915784,23.3074738 C275.303736,23.3034548 275.467775,23.659829 275.467775,24.1804879 C275.467775,24.7131216 275.292253,25.0575209 274.915784,25.0615399 C274.542596,25.0575209 274.358873,24.7131216 274.354772,24.1804879 Z M277.358321,27.3443028 C277.35422,28.1973862 277.787282,28.7860392 278.575488,28.7860392 C279.357133,28.7860392 279.789375,28.2014052 279.793476,27.3443028 C279.789375,26.4872825 279.368615,25.8985475 278.575488,25.902546 C277.802866,25.8985475 277.35422,26.4872825 277.358321,27.3443028 Z M278.015296,27.3443028 C278.019397,26.819707 278.207221,26.4712887 278.575488,26.4632508 C278.96426,26.4632508 279.128299,26.815688 279.128299,27.3443028 C279.128299,27.8689807 278.951957,28.2173989 278.575488,28.2173989 C278.20312,28.2173989 278.019397,27.8689807 278.015296,27.3443028 Z" id="Shape" fill="#113287" fill-rule="nonzero"></path>
            <rect id="Rectangle" fill="#5B6EB4" fill-rule="nonzero" x="149.275242" y="15.9040779" width="73.8174274" height="19.6846473"></rect>
            <path d="M172.864011,25.3258883 L166.319686,25.3258883 L166.319686,25.9425919 L169.211689,25.9425919 L169.211689,26.6314725 C167.878054,26.6995486 167.09723,27.1440935 167.09723,27.8970313 C167.09723,28.7100072 168.025689,29.166527 169.588158,29.1625344 C171.130122,29.166527 172.058581,28.7100072 172.062682,27.8970313 C172.058581,27.1440935 171.277757,26.7035675 169.964627,26.6314725 L169.964627,25.9425919 L172.864011,25.9425919 L172.864011,25.3258883 Z M166.664167,24.3487096 L166.92827,24.9494194 C168.174144,24.8052294 169.195285,24.2806335 169.592259,23.5196579 C169.98021,24.2806335 171.009553,24.8052294 172.255427,24.9494194 L172.527732,24.3487096 C171.213781,24.2165764 170.204943,23.6357973 170.100779,22.9389608 L172.279213,22.9389608 L172.279213,22.330213 L166.920888,22.330213 L166.920888,22.9389608 L169.075537,22.9389608 C168.971372,23.6318604 167.953512,24.2165764 166.664167,24.3487096 Z M167.865731,27.8970313 C167.86165,27.4524864 168.490739,27.2121696 169.588158,27.2081507 C170.669173,27.2121696 171.301542,27.4524864 171.301542,27.8970313 C171.301542,28.3335384 170.669173,28.5858299 169.588158,28.577792 C168.490739,28.5858299 167.86165,28.3335384 167.865731,27.8970313 Z" id="Shape" fill="#FFFFFF" fill-rule="nonzero"></path>
            <polygon id="Path" fill="#FFFFFF" fill-rule="nonzero" points="179.223793 25.3098945 174.986672 25.3098945 174.986672 23.1712396 179.159817 23.1712396 179.159817 22.554536 174.225533 22.554536 174.225533 25.9185602 176.299802 25.9185602 176.299802 27.6727083 173.40862 27.6727083 173.40862 28.2974498 179.97673 28.2974498 179.97673 27.6727083 177.05274 27.6727083 177.05274 25.9185602 179.223793 25.9185602"></polygon>
            <path d="M182.748165,28.4977411 L186.648185,28.4977411 L186.648185,27.7448034 L183.973534,27.7448034 L183.973534,27.69674 L185.150512,26.5032763 C186.239729,25.4339898 186.544021,24.9173498 186.552223,24.2685767 C186.544021,23.3274865 185.771398,22.6185931 184.654295,22.6185931 C183.548674,22.6185931 182.739963,23.3194486 182.748165,24.3806971 L183.580661,24.3806971 C183.584762,23.7639935 183.993219,23.3554551 184.637891,23.3554551 C185.246474,23.3554551 185.711524,23.7199491 185.711524,24.2926083 C185.711524,24.8012104 185.394929,25.1697234 184.758459,25.8304714 L182.748165,27.8569238 L182.748165,28.4977411 Z" id="Path" fill="#FFFFFF" fill-rule="nonzero"></path>
            <path d="M189.644353,28.577792 C190.985369,28.577792 191.771115,27.4965308 191.774396,25.5981926 C191.771115,23.7119113 190.973887,22.6185931 189.644353,22.6185931 C188.310718,22.6185931 187.51349,23.7119113 187.51349,25.5981926 C187.51349,27.4965308 188.302516,28.577792 189.644353,28.577792 Z M188.394378,25.5981926 C188.394378,24.1564562 188.863528,23.3675119 189.644353,23.363493 C190.421076,23.3675119 190.893508,24.1564562 190.893508,25.5981926 C190.893508,27.0439479 190.425177,27.8168984 189.644353,27.8168984 C188.859427,27.8168984 188.390277,27.0439479 188.394378,25.5981926 Z" id="Shape" fill="#FFFFFF" fill-rule="nonzero"></path>
            <path d="M193.039954,28.5537604 C193.348347,28.5498234 193.605068,28.2974498 193.609169,27.9851201 C193.605068,27.6727083 193.348347,27.4163978 193.039954,27.4163978 C192.728281,27.4163978 192.467459,27.6727083 192.47156,27.9851201 C192.467459,28.2974498 192.728281,28.5498234 193.039954,28.5537604 Z" id="Path" fill="#FFFFFF" fill-rule="nonzero"></path>
            <path d="M194.50564,27.3683345 L197.325466,27.3683345 L197.325466,28.4977411 L198.158783,28.4977411 L198.158783,27.3683345 L198.95109,27.3683345 L198.95109,26.6234346 L198.158783,26.6234346 L198.158783,22.698726 L197.068746,22.698726 L194.50564,26.6555042 L194.50564,27.3683345 Z M195.43492,26.6234346 L195.43492,26.5753713 L197.261491,23.7479998 L197.325466,23.7479998 L197.325466,26.6234346 L195.43492,26.6234346 Z" id="Shape" fill="#FFFFFF" fill-rule="nonzero"></path>
            <path d="M201.169714,25.4540025 C201.951358,25.4620404 202.3836,24.8773244 202.387701,24.0122662 C202.3836,23.1632837 201.966942,22.5745487 201.169714,22.5785472 C200.397091,22.5745487 199.944344,23.1632837 199.952546,24.0122662 C199.944344,24.8733054 200.377407,25.4620404 201.169714,25.4540025 Z M200.609521,28.4977411 L201.338674,28.4977411 L205.319073,22.698726 L204.589921,22.698726 L200.609521,28.4977411 Z M200.609521,24.0122662 C200.613622,23.4956262 200.797346,23.1472079 201.169714,23.1392521 C201.558485,23.1352331 201.722524,23.4916893 201.722524,24.0122662 C201.722524,24.5448999 201.546183,24.8893812 201.169714,24.8933182 C200.797346,24.8893812 200.613622,24.5448999 200.609521,24.0122662 Z M203.613071,27.1761631 C203.60897,28.0291645 204.041212,28.6178995 204.830238,28.6178995 C205.611882,28.6178995 206.044124,28.0331834 206.048225,27.1761631 C206.044124,26.3190608 205.623365,25.7304078 204.830238,25.7343251 C204.057615,25.7304078 203.60897,26.3190608 203.613071,27.1761631 Z M204.270046,27.1761631 C204.274147,26.6514852 204.461971,26.303067 204.830238,26.2950291 C205.21901,26.2950291 205.383048,26.6474663 205.383048,27.1761631 C205.383048,27.700759 205.206707,28.0491772 204.830238,28.0491772 C204.45787,28.0491772 204.274147,27.700759 204.270046,27.1761631 Z" id="Shape" fill="#FFFFFF" fill-rule="nonzero"></path>
            <rect id="Rectangle" fill="#113287" fill-rule="nonzero" x="75.4578147" y="15.9040779" width="73.8174274" height="19.6846473"></rect>
            <path d="M101.497322,22.850872 L96.379314,22.850872 L96.379314,23.4676576 L100.736183,23.4676576 L100.736183,23.5557464 C100.732082,24.4167857 100.732082,25.4339898 100.456497,26.8237259 L101.225018,26.9037768 C101.493221,25.4339898 101.493221,24.4408173 101.497322,23.5557464 L101.497322,22.850872 Z M95.6903513,28.3695449 L102.233856,28.3695449 L102.233856,27.7367655 L98.9342172,27.7367655 L98.9342172,25.2057299 L98.1812794,25.2057299 L98.1812794,27.7367655 L95.6903513,27.7367655 L95.6903513,28.3695449 Z" id="Shape" fill="#FFFFFF" fill-rule="nonzero"></path>
            <polygon id="Path" fill="#FFFFFF" fill-rule="nonzero" points="108.593638 25.4700783 104.356517 25.4700783 104.356517 23.3315054 108.529663 23.3315054 108.529663 22.7147198 103.596198 22.7147198 103.596198 26.078826 105.670467 26.078826 105.670467 27.8328922 102.779285 27.8328922 102.779285 28.4577157 109.346575 28.4577157 109.346575 27.8328922 106.423405 27.8328922 106.423405 26.078826 108.593638 26.078826"></polygon>
            <polygon id="Path" fill="#FFFFFF" fill-rule="nonzero" points="114.32105 22.8589099 113.455746 22.8589099 112.013845 23.804019 112.013845 24.6450456 113.399972 23.7399619 113.43196 23.7399619 113.43196 28.6579249 114.32105 28.6579249"></polygon>
            <path d="M116.035254,28.7140262 C116.343647,28.7100072 116.599548,28.4577157 116.603649,28.1453039 C116.599548,27.8328922 116.343647,27.5765817 116.035254,27.5765817 C115.722761,27.5765817 115.461939,27.8328922 115.46604,28.1453039 C115.461939,28.4577157 115.722761,28.7100072 116.035254,28.7140262 Z" id="Path" fill="#FFFFFF" fill-rule="nonzero"></path>
            <path d="M117.500941,27.5285183 L120.319946,27.5285183 L120.319946,28.6579249 L121.153263,28.6579249 L121.153263,27.5285183 L121.94639,27.5285183 L121.94639,26.7836184 L121.153263,26.7836184 L121.153263,22.8589099 L120.064046,22.8589099 L117.500941,26.815688 L117.500941,27.5285183 Z M118.43022,26.7836184 L118.43022,26.7355551 L120.255971,23.9081836 L120.319946,23.9081836 L120.319946,26.7836184 L118.43022,26.7836184 Z" id="Shape" fill="#FFFFFF" fill-rule="nonzero"></path>
            <path d="M124.165014,25.6142684 C124.945838,25.6222243 125.37808,25.0375082 125.382181,24.17245 C125.37808,23.3234675 124.961422,22.7347326 124.165014,22.738731 C123.391571,22.7347326 122.939645,23.3234675 122.947026,24.17245 C122.939645,25.0334893 123.371887,25.6222243 124.165014,25.6142684 Z M123.604001,28.6579249 L124.333154,28.6579249 L128.313553,22.8589099 L127.585221,22.8589099 L123.604001,28.6579249 Z M123.604001,24.17245 C123.608102,23.655892 123.792646,23.3074738 124.165014,23.2994359 C124.552965,23.2954169 124.717824,23.6518731 124.717824,24.17245 C124.717824,24.7051657 124.541483,25.0495651 124.165014,25.053584 C123.792646,25.0495651 123.608102,24.7051657 123.604001,24.17245 Z M126.60755,27.3363469 C126.60345,28.1893483 127.036512,28.7780833 127.825538,28.7780833 C128.606362,28.7780833 129.038604,28.1933673 129.042705,27.3363469 C129.038604,26.4792446 128.617845,25.8905916 127.825538,25.8945901 C127.052095,25.8905916 126.60345,26.4792446 126.60755,27.3363469 Z M127.264526,27.3363469 C127.268627,26.8116691 127.456451,26.4632508 127.825538,26.4552129 C128.21349,26.4552129 128.377528,26.8076501 128.377528,27.3363469 C128.377528,27.8609428 128.202007,28.209361 127.825538,28.209361 C127.45317,28.209361 127.268627,27.8609428 127.264526,27.3363469 Z" id="Shape" fill="#FFFFFF" fill-rule="nonzero"></path>
            <rect id="Rectangle" fill="#001A5B" fill-rule="nonzero" x="9.02213001" y="15.9040779" width="66.4356846" height="19.6846473"></rect>
            <path d="M23.893717,28.0451583 L20.9781747,28.0451583 L20.9781747,26.4832635 L20.2253189,26.4832635 L20.2253189,28.0451583 L17.3257704,28.0451583 L17.3257704,28.6698998 L23.893717,28.6698998 L23.893717,28.0451583 Z M17.646138,26.1388642 L17.9345181,26.7316182 C19.1360198,26.5433837 20.1332112,25.9746615 20.5977689,25.1376539 C21.0663455,25.9746615 22.0675559,26.5433837 23.2689755,26.7316182 L23.5573556,26.1388642 C22.0835497,25.9225792 21.0223011,25.0895905 20.9862126,24.0803422 L23.2849693,24.0803422 L23.2849693,23.4636386 L20.9781747,23.4636386 L20.9781747,22.5024537 L20.2253189,22.5024537 L20.2253189,23.4636386 L17.9185243,23.4636386 L17.9185243,24.0803422 L20.2172811,24.0803422 C20.1812746,25.0895905 19.119944,25.9225792 17.646138,26.1388642 Z" id="Shape" fill="#FFFFFF" fill-rule="nonzero"></path>
            <path d="M30.2214289,23.0631381 L25.1031746,23.0631381 L25.1031746,23.6799237 L29.4604533,23.6799237 L29.4604533,23.7680125 C29.4565163,24.6290518 29.4565163,25.6462559 29.1801111,27.035992 L29.9490426,27.1160429 C30.21741,25.6462559 30.21741,24.6530834 30.2214289,23.7680125 L30.2214289,23.0631381 Z M24.4143759,28.581811 L30.9582909,28.581811 L30.9582909,27.9490316 L27.6583238,27.9490316 L27.6583238,25.417996 L26.905386,25.417996 L26.905386,27.9490316 L24.4143759,27.9490316 L24.4143759,28.581811 Z" id="Shape" fill="#FFFFFF" fill-rule="nonzero"></path>
            <polygon id="Path" fill="#FFFFFF" fill-rule="nonzero" points="37.3179903 25.6823444 33.08087 25.6823444 33.08087 23.5436895 37.2539332 23.5436895 37.2539332 22.9269859 32.3199763 22.9269859 32.3199763 26.2910101 34.3944921 26.2910101 34.3944921 28.0451583 31.5029815 28.0451583 31.5029815 28.6698998 38.0709281 28.6698998 38.0709281 28.0451583 35.1473479 28.0451583 35.1473479 26.2910101 37.3179903 26.2910101"></polygon>
            <path d="M42.8606949,28.950242 C44.2023676,28.950242 44.9872929,27.8689807 44.9913119,25.9706425 C44.9872929,24.0843612 44.1903108,22.9910431 42.8606949,22.9910431 C41.527142,22.9910431 40.7301599,24.0843612 40.7301599,25.9706425 C40.7301599,27.8689807 41.5191041,28.950242 42.8606949,28.950242 Z M41.6112119,25.9706425 C41.6112119,24.5289061 42.0797885,23.7399619 42.8606949,23.7359429 C43.6376643,23.7399619 44.1102599,24.5289061 44.1102599,25.9706425 C44.1102599,27.4163978 43.6416833,28.1893483 42.8606949,28.1893483 C42.0757696,28.1893483 41.6071929,27.4163978 41.6112119,25.9706425 Z" id="Shape" fill="#FFFFFF" fill-rule="nonzero"></path>
            <path d="M46.2568707,28.9262103 C46.5651815,28.9222734 46.821492,28.6698998 46.8255109,28.35757 C46.821492,28.0451583 46.5651815,27.7888478 46.2568707,27.7888478 C45.9444589,27.7888478 45.6841295,28.0451583 45.6881484,28.35757 C45.6841295,28.6698998 45.9444589,28.9222734 46.2568707,28.9262103 Z" id="Path" fill="#FFFFFF" fill-rule="nonzero"></path>
            <path d="M49.7330154,28.9502978 C50.9785614,28.9582799 51.8075311,28.0972406 51.8075311,26.9718529 C51.8075311,25.862541 50.9745425,25.0695778 49.9412625,25.0655588 C49.3125021,25.0695778 48.7678935,25.3579579 48.4514628,25.8504841 L48.3874057,25.8504841 C48.3874057,24.540963 48.9080646,23.7639935 49.8051104,23.7599746 C50.3898264,23.7639935 50.7622763,24.1043739 50.8784158,24.5769695 L51.7515119,24.5769695 C51.6153598,23.655892 50.8743968,22.9910431 49.8051104,22.9910431 C48.4154563,22.9910431 47.5423602,24.1444814 47.5384232,26.1628959 C47.5384232,28.3054877 48.65971,28.9422861 49.7330154,28.9502978 Z M48.4915703,26.9958846 C48.4995261,26.3511303 49.0401978,25.7824081 49.7490911,25.7864048 C50.4459277,25.7824081 50.9505108,26.3230797 50.9505108,26.9879287 C50.9505108,27.6647525 50.4259149,28.209361 49.7250595,28.21338 C49.0121472,28.209361 48.4955892,27.6407208 48.4915703,26.9958846 Z" id="Shape" fill="#FFFFFF" fill-rule="nonzero"></path>
            <path d="M54.0743003,25.8264525 C54.8552887,25.8344904 55.2877768,25.2497743 55.2917957,24.3847161 C55.2877768,23.5357337 54.8712824,22.9469987 54.0743003,22.9509972 C53.3013498,22.9469987 52.848849,23.5357337 52.8568048,24.3847161 C52.848849,25.2457554 53.2813371,25.8344904 54.0743003,25.8264525 Z M53.5136159,28.8701911 L54.242522,28.8701911 L58.2233318,23.071176 L57.4944257,23.071176 L53.5136159,28.8701911 Z M53.5136159,24.3847161 C53.5176349,23.8680761 53.7018503,23.5196579 54.0743003,23.511702 C54.462744,23.507683 54.6269467,23.8641392 54.6269467,24.3847161 C54.6269467,24.9173498 54.4507692,25.2618312 54.0743003,25.2657681 C53.7018503,25.2618312 53.5176349,24.9173498 53.5136159,24.3847161 Z M56.517247,27.548613 C56.5132281,28.4016144 56.9457982,28.9903494 57.7347425,28.9903494 C58.5157308,28.9903494 58.9482189,28.4056334 58.9522379,27.548613 C58.9482189,26.6915107 58.5277057,26.1028577 57.7347425,26.106775 C56.961792,26.1028577 56.5132281,26.6915107 56.517247,27.548613 Z M57.1740581,27.548613 C57.178077,27.0239352 57.3663115,26.6755169 57.7347425,26.667479 C58.1231862,26.667479 58.2873889,27.0199162 58.2873889,27.548613 C58.2873889,28.0732089 58.1112113,28.4216272 57.7347425,28.4216272 C57.3622925,28.4216272 57.178077,28.0732089 57.1740581,27.548613 Z" id="Shape" fill="#FFFFFF" fill-rule="nonzero"></path>
            <polygon id="Path" fill="#979797" points="148.865145 52.492424 148.865145 8.20193638e-07 149.685339 0 149.685339 52.492424"></polygon>
            <polygon id="Path" fill="#979797" points="222.682573 52.492424 222.682573 8.20193638e-07 223.502766 0 223.502766 52.492424"></polygon>
            <polygon id="Path" fill="#979797" points="75.0477178 52.492424 75.0477178 8.20193638e-07 75.8679115 0 75.8679115 52.492424"></polygon>
            <rect id="Rectangle" fill="#113287" fill-rule="nonzero" x="444.544952" y="15.9040779" width="73.8174274" height="19.6846473"></rect>
            <path d="M469.984077,22.850872 L464.865249,22.850872 L464.865249,23.4676576 L469.222938,23.4676576 L469.222938,23.5557464 C469.218837,24.4167857 469.218837,25.4339898 468.942432,26.8237259 L469.711773,26.9037768 C469.979976,25.4339898 469.979976,24.4408173 469.984077,23.5557464 L469.984077,22.850872 Z M464.177107,28.3695449 L470.720611,28.3695449 L470.720611,27.7367655 L467.420972,27.7367655 L467.420972,25.2057299 L466.668035,25.2057299 L466.668035,27.7367655 L464.177107,27.7367655 L464.177107,28.3695449 Z" id="Shape" fill="#FFFFFF" fill-rule="nonzero"></path>
            <polygon id="Path" fill="#FFFFFF" fill-rule="nonzero" points="477.080393 25.4700783 472.843272 25.4700783 472.843272 23.3315054 477.016418 23.3315054 477.016418 22.7147198 472.082133 22.7147198 472.082133 26.078826 474.157223 26.078826 474.157223 27.8328922 471.26522 27.8328922 471.26522 28.4577157 477.833331 28.4577157 477.833331 27.8328922 474.90934 27.8328922 474.90934 26.078826 477.080393 26.078826"></polygon>
            <path d="M482.623261,28.7379758 C483.965098,28.7379758 484.750024,27.6567146 484.753304,25.7583764 C484.750024,23.8720951 483.952795,22.7787769 482.623261,22.7787769 C481.289627,22.7787769 480.492398,23.8720951 480.492398,25.7583764 C480.492398,27.6567146 481.281425,28.7379758 482.623261,28.7379758 Z M481.373286,25.7583764 C481.373286,24.31664 481.842437,23.5276958 482.623261,23.5236768 C483.399985,23.5276958 483.872416,24.31664 483.872416,25.7583764 C483.872416,27.2041317 483.404086,27.9770822 482.623261,27.9770822 C481.838336,27.9770822 481.369185,27.2041317 481.373286,25.7583764 Z" id="Shape" fill="#FFFFFF" fill-rule="nonzero"></path>
            <path d="M486.018863,28.7140262 C486.327256,28.7100072 486.583976,28.4577157 486.588077,28.1453039 C486.583976,27.8328922 486.327256,27.5765817 486.018863,27.5765817 C485.707189,27.5765817 485.446368,27.8328922 485.450469,28.1453039 C485.446368,28.4577157 485.707189,28.7100072 486.018863,28.7140262 Z" id="Path" fill="#FFFFFF" fill-rule="nonzero"></path>
            <path d="M489.463676,28.7379758 C490.66444,28.7379758 491.557631,28.0291645 491.553557,27.0639606 C491.557631,26.3311176 491.097502,25.7984839 490.304375,25.6862814 L490.304375,25.6462559 C490.929362,25.4900911 491.337819,25.0174955 491.329617,24.3567475 C491.337819,23.4996451 490.62097,22.7787769 489.47926,22.7787769 C488.398245,22.7787769 487.524739,23.4195942 487.500953,24.3647034 L488.349853,24.3647034 C488.370358,23.8401075 488.890361,23.5157209 489.471058,23.5157209 C490.083743,23.5157209 490.480716,23.876114 490.480716,24.4047288 C490.480716,24.9614763 490.019768,25.3299072 489.359512,25.3258883 L488.862474,25.3258883 L488.862474,26.0467565 L489.359512,26.0467565 C490.187907,26.0507754 490.66444,26.4592319 490.66444,27.0319731 C490.66444,27.5965944 490.15592,27.9770822 489.455474,27.9770822 C488.806701,27.9770822 488.302282,27.6526956 488.270295,27.1440935 L487.373003,27.1440935 C487.409091,28.0932216 488.262093,28.7379758 489.463676,28.7379758 Z" id="Path" fill="#FFFFFF" fill-rule="nonzero"></path>
            <path d="M493.852533,25.6142684 C494.633357,25.6222243 495.066419,25.0375082 495.07052,24.17245 C495.066419,23.3234675 494.649761,22.7347326 493.852533,22.738731 C493.07991,22.7347326 492.627163,23.3234675 492.635365,24.17245 C492.627163,25.0334893 493.059405,25.6222243 493.852533,25.6142684 Z M493.29234,28.6579249 L494.020672,28.6579249 L498.001892,22.8589099 L497.27274,22.8589099 L493.29234,28.6579249 Z M493.29234,24.17245 C493.295621,23.655892 493.480165,23.3074738 493.852533,23.2994359 C494.241304,23.2954169 494.405343,23.6518731 494.405343,24.17245 C494.405343,24.7051657 494.229001,25.0495651 493.852533,25.053584 C493.480165,25.0495651 493.295621,24.7051657 493.29234,24.17245 Z M496.295889,27.3363469 C496.291788,28.1893483 496.72403,28.7780833 497.513057,28.7780833 C498.293881,28.7780833 498.726943,28.1933673 498.730224,27.3363469 C498.726943,26.4792446 498.306184,25.8905916 497.513057,25.8945901 C496.740434,25.8905916 496.291788,26.4792446 496.295889,27.3363469 Z M496.952044,27.3363469 C496.956145,26.8116691 497.14479,26.4632508 497.513057,26.4552129 C497.901828,26.4552129 498.065867,26.8076501 498.065867,27.3363469 C498.065867,27.8609428 497.889526,28.209361 497.513057,28.209361 C497.140689,28.209361 496.956145,27.8609428 496.952044,27.3363469 Z" id="Shape" fill="#FFFFFF" fill-rule="nonzero"></path>
            <rect id="Rectangle" fill="#5B6EB4" fill-rule="nonzero" x="370.727524" y="15.9040779" width="73.8174274" height="19.6846473"></rect>
            <path d="M398.62149,25.3258883 L392.077165,25.3258883 L392.077165,25.9425919 L394.969167,25.9425919 L394.969167,26.6314725 C393.635533,26.6995486 392.854708,27.1440935 392.854708,27.8970313 C392.854708,28.7100072 393.783167,29.166527 395.345636,29.1625344 C396.8876,29.166527 397.816059,28.7100072 397.82016,27.8970313 C397.816059,27.1440935 397.035235,26.7035675 395.722105,26.6314725 L395.722105,25.9425919 L398.62149,25.9425919 L398.62149,25.3258883 Z M392.421646,24.3487096 L392.685748,24.9494194 C393.931622,24.8052294 394.952763,24.2806335 395.349737,23.5196579 C395.737689,24.2806335 396.767032,24.8052294 398.012906,24.9494194 L398.28521,24.3487096 C396.97126,24.2165764 395.962422,23.6357973 395.858257,22.9389608 L398.036692,22.9389608 L398.036692,22.330213 L392.678367,22.330213 L392.678367,22.9389608 L394.833015,22.9389608 C394.728851,23.6318604 393.71099,24.2165764 392.421646,24.3487096 Z M393.62321,27.8970313 C393.619129,27.4524864 394.248217,27.2121696 395.345636,27.2081507 C396.426651,27.2121696 397.059021,27.4524864 397.059021,27.8970313 C397.059021,28.3335384 396.426651,28.5858299 395.345636,28.577792 C394.248217,28.5858299 393.619129,28.3335384 393.62321,27.8970313 Z" id="Shape" fill="#FFFFFF" fill-rule="nonzero"></path>
            <polygon id="Path" fill="#FFFFFF" fill-rule="nonzero" points="404.981271 25.3098945 400.744151 25.3098945 400.744151 23.1712396 404.917296 23.1712396 404.917296 22.554536 399.983011 22.554536 399.983011 25.9185602 402.057281 25.9185602 402.057281 27.6727083 399.166098 27.6727083 399.166098 28.2974498 405.734209 28.2974498 405.734209 27.6727083 402.810219 27.6727083 402.810219 25.9185602 404.981271 25.9185602"></polygon>
            <polygon id="Path" fill="#FFFFFF" fill-rule="nonzero" points="410.707863 22.698726 409.842559 22.698726 408.401479 23.6438352 408.401479 24.4848617 409.786786 23.5797781 409.818773 23.5797781 409.818773 28.4977411 410.707863 28.4977411"></polygon>
            <path d="M412.422068,28.5537604 C412.730461,28.5498234 412.986361,28.2974498 412.990462,27.9851201 C412.986361,27.6727083 412.730461,27.4163978 412.422068,27.4163978 C412.109574,27.4163978 411.849573,27.6727083 411.853674,27.9851201 C411.849573,28.2974498 412.109574,28.5498234 412.422068,28.5537604 Z" id="Path" fill="#FFFFFF" fill-rule="nonzero"></path>
            <polygon id="Path" fill="#FFFFFF" fill-rule="nonzero" points="415.513378 22.698726 414.648893 22.698726 413.206993 23.6438352 413.206993 24.4848617 414.5923 23.5797781 414.625108 23.5797781 414.625108 28.4977411 415.513378 28.4977411"></polygon>
            <path d="M418.316799,25.4540025 C419.098444,25.4620404 419.530686,24.8773244 419.534787,24.0122662 C419.530686,23.1632837 419.114028,22.5745487 418.316799,22.5785472 C417.544177,22.5745487 417.09143,23.1632837 417.099632,24.0122662 C417.09143,24.8733054 417.524492,25.4620404 418.316799,25.4540025 Z M417.756607,28.4977411 L418.485759,28.4977411 L422.466159,22.698726 L421.737007,22.698726 L417.756607,28.4977411 Z M417.756607,24.0122662 C417.760708,23.4956262 417.944432,23.1472079 418.316799,23.1392521 C418.705571,23.1352331 418.86961,23.4916893 418.86961,24.0122662 C418.86961,24.5448999 418.693268,24.8893812 418.316799,24.8933182 C417.944432,24.8893812 417.760708,24.5448999 417.756607,24.0122662 Z M420.760156,27.1761631 C420.756055,28.0291645 421.188297,28.6178995 421.977324,28.6178995 C422.758968,28.6178995 423.19121,28.0331834 423.195311,27.1761631 C423.19121,26.3190608 422.770451,25.7304078 421.977324,25.7343251 C421.204701,25.7304078 420.756055,26.3190608 420.760156,27.1761631 Z M421.417131,27.1761631 C421.421232,26.6514852 421.609057,26.303067 421.977324,26.2950291 C422.366095,26.2950291 422.530134,26.6474663 422.530134,27.1761631 C422.530134,27.700759 422.353793,28.0491772 421.977324,28.0491772 C421.604956,28.0491772 421.421232,27.700759 421.417131,27.1761631 Z" id="Shape" fill="#FFFFFF" fill-rule="nonzero"></path>
            <rect id="Rectangle" fill="#E2E6F6" fill-rule="nonzero" x="296.910097" y="15.9040779" width="73.8174274" height="19.6846473"></rect>
            <path d="M320.494765,22.1780671 L319.733625,22.1780671 L319.733625,23.4515818 L318.176077,23.4515818 C318.223649,23.2113471 318.252355,22.9550366 318.252355,22.6906882 L314.9683,22.6906882 L314.9683,23.3154296 L317.427241,23.3154296 C317.291089,24.4728869 316.297834,25.3859265 314.599213,25.8705789 L314.903505,26.4632508 C316.457772,26.0187059 317.534686,25.2057299 317.999736,24.0523736 L319.733625,24.0523736 L319.733625,24.9253877 L317.923458,24.9253877 L317.923458,25.5501292 L319.733625,25.5501292 L319.733625,26.4232254 L320.494765,26.4232254 L320.494765,22.1780671 Z M315.713036,27.9049872 C315.713036,28.7780833 316.657899,29.314736 318.131787,29.314736 C319.58517,29.314736 320.539055,28.7780833 320.542336,27.9049872 C320.539055,27.035992 319.58517,26.5072952 318.131787,26.5032763 C316.657899,26.5072952 315.713036,27.035992 315.713036,27.9049872 Z M316.465974,27.9049872 C316.465974,27.3923662 317.106545,27.1000491 318.131787,27.1040681 C319.137344,27.1000491 319.777916,27.3923662 319.782017,27.9049872 C319.777916,28.4096523 319.137344,28.7019693 318.131787,28.7059883 C317.106545,28.7019693 316.465974,28.4096523 316.465974,27.9049872 Z" id="Shape" fill="#113287" fill-rule="nonzero"></path>
            <polygon id="Path" fill="#113287" fill-rule="nonzero" points="327.414739 25.4780342 323.177618 25.4780342 323.177618 23.3394613 327.350763 23.3394613 327.350763 22.7227577 322.417299 22.7227577 322.417299 26.0867819 324.491568 26.0867819 324.491568 27.8409301 321.600386 27.8409301 321.600386 28.4656716 328.167676 28.4656716 328.167676 27.8409301 325.244506 27.8409301 325.244506 26.0867819 327.414739 26.0867819"></polygon>
            <polygon id="Path" fill="#113287" fill-rule="nonzero" points="333.142151 22.8668657 332.276846 22.8668657 330.834946 23.8120569 330.834946 24.6530834 332.221073 23.7479998 332.253061 23.7479998 332.253061 28.6659628 333.142151 28.6659628"></polygon>
            <path d="M336.714094,28.7460696 C337.959968,28.7540516 338.789184,27.8930124 338.789184,26.7676247 C338.789184,25.6583128 337.955867,24.8653496 336.922423,24.8613306 C336.294155,24.8653496 335.749546,25.1536476 335.432952,25.6462559 L335.368976,25.6462559 C335.368976,24.3366527 335.888979,23.5597653 336.786271,23.5557464 C337.371069,23.5597653 337.743437,23.9001457 337.859905,24.3727413 L338.732591,24.3727413 C338.596438,23.4515818 337.855804,22.7868148 336.786271,22.7868148 C335.396863,22.7868148 334.523357,23.9401711 334.519256,25.9586677 C334.519256,28.1012595 335.641281,28.7379758 336.714094,28.7460696 Z M335.473141,26.7916563 C335.480523,26.1469021 336.021851,25.5781799 336.730498,25.5821765 C337.426842,25.5781799 337.932082,26.1188515 337.932082,26.7836184 C337.932082,27.4604422 337.407158,28.0051328 336.706712,28.0091518 C335.993144,28.0051328 335.476422,27.4364106 335.473141,26.7916563 Z" id="Shape" fill="#113287" fill-rule="nonzero"></path>
            <path d="M340.030137,28.7219821 C340.33853,28.7179631 340.59525,28.4656716 340.599351,28.1533418 C340.59525,27.8409301 340.33853,27.5846195 340.030137,27.5846195 C339.717643,27.5846195 339.457642,27.8409301 339.461743,28.1533418 C339.457642,28.4656716 339.717643,28.7179631 340.030137,28.7219821 Z" id="Path" fill="#113287" fill-rule="nonzero"></path>
            <path d="M341.495823,27.5365562 L344.315649,27.5365562 L344.315649,28.6659628 L345.148145,28.6659628 L345.148145,27.5365562 L345.941272,27.5365562 L345.941272,26.7916563 L345.148145,26.7916563 L345.148145,22.8668657 L344.058928,22.8668657 L341.495823,26.8237259 L341.495823,27.5365562 Z M342.425102,26.7916563 L342.425102,26.743593 L344.251674,23.9161395 L344.315649,23.9161395 L344.315649,26.7916563 L342.425102,26.7916563 Z" id="Shape" fill="#113287" fill-rule="nonzero"></path>
            <path d="M348.159896,25.6222243 C348.941541,25.6302621 349.373783,25.0455461 349.377884,24.1804879 C349.373783,23.3315054 348.957124,22.7427704 348.159896,22.7467689 C347.387274,22.7427704 346.934527,23.3315054 346.942729,24.1804879 C346.934527,25.0415272 347.367589,25.6302621 348.159896,25.6222243 Z M347.599704,28.6659628 L348.328036,28.6659628 L352.309256,22.8668657 L351.580104,22.8668657 L347.599704,28.6659628 Z M347.599704,24.1804879 C347.603805,23.6638479 347.787528,23.3154296 348.159896,23.3074738 C348.548668,23.3034548 348.712707,23.659829 348.712707,24.1804879 C348.712707,24.7131216 348.536365,25.0575209 348.159896,25.0615399 C347.787528,25.0575209 347.603805,24.7131216 347.599704,24.1804879 Z M350.603253,27.3443028 C350.599152,28.1973862 351.031394,28.7860392 351.82042,28.7860392 C352.601245,28.7860392 353.034307,28.2014052 353.038408,27.3443028 C353.034307,26.4872825 352.613548,25.8985475 351.82042,25.902546 C351.047798,25.8985475 350.599152,26.4872825 350.603253,27.3443028 Z M351.260228,27.3443028 C351.264329,26.819707 351.452154,26.4712887 351.82042,26.4632508 C352.209192,26.4632508 352.373231,26.815688 352.373231,27.3443028 C352.373231,27.8689807 352.196889,28.2173989 351.82042,28.2173989 C351.448053,28.2173989 351.264329,27.8689807 351.260228,27.3443028 Z" id="Shape" fill="#113287" fill-rule="nonzero"></path>
            <polygon id="Path" fill="#113287" points="295.679806 52.492424 295.679806 8.20193638e-07 297.320194 0 297.320194 52.492424"></polygon>
            <path d="M271.343021,63.1687205 L268.733165,60.5589464 C268.573227,60.3987626 268.573227,60.1390893 268.733165,59.9789875 L271.343021,57.3691313 C271.503779,57.2089475 271.76296,57.2089475 271.923718,57.3691313 C272.083656,57.5292331 272.083656,57.7889064 271.923718,57.9490902 L270.013487,59.8588291 L284.607192,59.8588291 L284.607192,60.6790227 L270.013487,60.6790227 L271.923718,62.5887616 C272.083656,62.7489454 272.083656,63.0086187 271.923718,63.1687205 C271.76296,63.3289043 271.503779,63.3289043 271.343021,63.1687205 Z" id="Path" fill="#113287"></path>
            <path d="M322.477173,57.3692953 L325.087029,59.9790695 C325.246967,60.1392533 325.246967,60.3989266 325.087029,60.5591104 L322.477173,63.1688846 C322.316415,63.3290684 322.057234,63.3290684 321.896476,63.1688846 C321.736538,63.0087828 321.736538,62.7491095 321.896476,62.5889256 L323.806707,60.6791868 L309.213001,60.6791868 L309.213001,59.8589931 L323.806707,59.8589931 L321.896476,57.9492543 C321.736538,57.7890704 321.736538,57.5293971 321.896476,57.3692953 C322.057234,57.2091115 322.316415,57.2091115 322.477173,57.3692953 Z" id="Path" fill="#113287"></path>
            <polygon id="Path" fill="#001A5B" fill-rule="nonzero" points="586.811639 15.9040779 563.183501 15.9040779 563.183501 35.5887252 586.811639 35.5887252 593 25.7464016"></polygon>
            <rect id="Rectangle" fill="#001A5B" fill-rule="nonzero" transform="translate(551.170124, 25.746402) scale(-1, 1) translate(-551.170124, -25.746402) " x="518.362379" y="15.9040779" width="65.615491" height="19.6846473"></rect>
            <path d="M541.017768,28.0451583 L538.101979,28.0451583 L538.101979,26.4832635 L537.349041,26.4832635 L537.349041,28.0451583 L534.449657,28.0451583 L534.449657,28.6698998 L541.017768,28.6698998 L541.017768,28.0451583 Z M534.770353,26.1388642 L535.058241,26.7316182 C536.259824,26.5433837 537.25718,25.9746615 537.72223,25.1376539 C538.19056,25.9746615 539.192017,26.5433837 540.39278,26.7316182 L540.681488,26.1388642 C539.2076,25.9225792 538.14627,25.0895905 538.110181,24.0803422 L540.409184,24.0803422 L540.409184,23.4636386 L538.101979,23.4636386 L538.101979,22.5024537 L537.349041,22.5024537 L537.349041,23.4636386 L535.042657,23.4636386 L535.042657,24.0803422 L537.34166,24.0803422 C537.305571,25.0895905 536.244241,25.9225792 534.770353,26.1388642 Z" id="Shape" fill="#FFFFFF" fill-rule="nonzero"></path>
            <path d="M547.345562,23.0631381 L542.227553,23.0631381 L542.227553,23.6799237 L546.584422,23.6799237 L546.584422,23.7680125 C546.580321,24.6290518 546.580321,25.6462559 546.303916,27.035992 L547.073257,27.1160429 C547.341461,25.6462559 547.341461,24.6530834 547.345562,23.7680125 L547.345562,23.0631381 Z M541.538591,28.581811 L548.082095,28.581811 L548.082095,27.9490316 L544.782456,27.9490316 L544.782456,25.417996 L544.029519,25.417996 L544.029519,27.9490316 L541.538591,27.9490316 L541.538591,28.581811 Z" id="Shape" fill="#FFFFFF" fill-rule="nonzero"></path>
            <polygon id="Path" fill="#FFFFFF" fill-rule="nonzero" points="554.441877 25.6823444 550.204757 25.6823444 550.204757 23.5436895 554.377902 23.5436895 554.377902 22.9269859 549.444437 22.9269859 549.444437 26.2910101 551.518707 26.2910101 551.518707 28.0451583 548.626704 28.0451583 548.626704 28.6698998 555.194815 28.6698998 555.194815 28.0451583 552.271645 28.0451583 552.271645 26.2910101 554.441877 26.2910101"></polygon>
            <path d="M559.984746,28.950242 C561.326582,28.950242 562.111508,27.8689807 562.115609,25.9706425 C562.111508,24.0843612 561.314279,22.9910431 559.984746,22.9910431 C558.651111,22.9910431 557.853882,24.0843612 557.853882,25.9706425 C557.853882,27.8689807 558.642909,28.950242 559.984746,28.950242 Z M558.735591,25.9706425 C558.735591,24.5289061 559.203921,23.7399619 559.984746,23.7359429 C560.761469,23.7399619 561.234721,24.5289061 561.234721,25.9706425 C561.234721,27.4163978 560.76557,28.1893483 559.984746,28.1893483 C559.19982,28.1893483 558.73149,27.4163978 558.735591,25.9706425 Z" id="Shape" fill="#FFFFFF" fill-rule="nonzero"></path>
            <path d="M563.381167,28.9262103 C563.68956,28.9222734 563.945461,28.6698998 563.949562,28.35757 C563.945461,28.0451583 563.68956,27.7888478 563.381167,27.7888478 C563.068674,27.7888478 562.807852,28.0451583 562.811953,28.35757 C562.807852,28.6698998 563.068674,28.9222734 563.381167,28.9262103 Z" id="Path" fill="#FFFFFF" fill-rule="nonzero"></path>
            <path d="M566.82516,28.950242 C568.026744,28.950242 568.919935,28.2414306 568.915861,27.2762267 C568.919935,26.5433837 568.458986,26.01075 567.665859,25.8985475 L567.665859,25.858522 C568.290846,25.7023572 568.699303,25.2297616 568.691101,24.5689316 C568.699303,23.7119113 567.982454,22.9910431 566.840744,22.9910431 C565.759729,22.9910431 564.887043,23.6318604 564.862437,24.5769695 L565.711337,24.5769695 C565.731842,24.0523736 566.252665,23.727905 566.833362,23.727905 C567.446047,23.727905 567.842201,24.0883801 567.842201,24.6169949 C567.842201,25.1736604 567.382072,25.5421734 566.720996,25.5381544 L566.223959,25.5381544 L566.223959,26.2590226 L566.720996,26.2590226 C567.550212,26.2630415 568.026744,26.671498 568.026744,27.2442392 C568.026744,27.8088605 567.518224,28.1893483 566.816959,28.1893483 C566.168185,28.1893483 565.663766,27.8649617 565.631779,27.3563597 L564.734487,27.3563597 C564.770575,28.3054877 565.623577,28.950242 566.82516,28.950242 Z" id="Path" fill="#FFFFFF" fill-rule="nonzero"></path>
            <path d="M571.214017,25.8264525 C571.995661,25.8344904 572.427903,25.2497743 572.432004,24.3847161 C572.427903,23.5357337 572.011245,22.9469987 571.214017,22.9509972 C570.441394,22.9469987 569.988647,23.5357337 569.996849,24.3847161 C569.988647,25.2457554 570.42171,25.8344904 571.214017,25.8264525 Z M570.653824,28.8701911 L571.382976,28.8701911 L575.363376,23.071176 L574.634224,23.071176 L570.653824,28.8701911 Z M570.653824,24.3847161 C570.657925,23.8680761 570.841649,23.5196579 571.214017,23.511702 C571.602788,23.507683 571.766827,23.8641392 571.766827,24.3847161 C571.766827,24.9173498 571.590485,25.2618312 571.214017,25.2657681 C570.841649,25.2618312 570.657925,24.9173498 570.653824,24.3847161 Z M573.657373,27.548613 C573.653272,28.4016144 574.085515,28.9903494 574.874541,28.9903494 C575.656185,28.9903494 576.088427,28.4056334 576.092528,27.548613 C576.088427,26.6915107 575.667668,26.1028577 574.874541,26.106775 C574.101918,26.1028577 573.653272,26.6915107 573.657373,27.548613 Z M574.314349,27.548613 C574.31845,27.0239352 574.506274,26.6755169 574.874541,26.667479 C575.263313,26.667479 575.427351,27.0199162 575.427351,27.548613 C575.427351,28.0732089 575.25101,28.4216272 574.874541,28.4216272 C574.502173,28.4216272 574.31845,28.0732089 574.314349,27.548613 Z" id="Shape" fill="#FFFFFF" fill-rule="nonzero"></path>
            <polygon id="Path" fill="#979797" points="370.317427 52.492424 370.317427 8.20193638e-07 371.137621 0 371.137621 52.492424"></polygon>
            <polygon id="Path" fill="#979797" points="444.134855 52.492424 444.134855 8.20193638e-07 444.955048 0 444.955048 52.492424"></polygon>
            <polygon id="Path" fill="#979797" points="517.952282 52.492424 517.952282 8.20193638e-07 518.772476 0 518.772476 52.492424"></polygon>
        </g>
    </g>
</svg>