<?xml version="1.0" encoding="UTF-8"?>
<svg width="593px" height="88px" viewBox="0 0 593 88" version="1.1" xmlns="http://www.w3.org/2000/svg" xmlns:xlink="http://www.w3.org/1999/xlink">
    <title>Artboard</title>
    <g id="Artboard" stroke="none" stroke-width="1" fill="none" fill-rule="evenodd">
        <g id="totalSeverity20s" transform="translate(0.000000, 9.000000)">
            <polygon id="Path" fill="#979797" points="111.956432 40.0132811 111.956432 12.523179 112.776625 12.523179 112.776625 40.0132811"></polygon>
            <polygon id="Path" fill="#001A5B" fill-rule="nonzero" points="6.18831999 15.9040992 29.8161712 15.9040992 29.8161712 35.5887465 6.18831999 35.5887465 0 25.7464229"></polygon>
            <path d="M292.134109,62.8017552 C293.255314,62.8089229 294.00169,62.0339219 294.00169,61.0211468 C294.00169,60.0227251 293.252033,59.3090746 292.321934,59.3054658 C291.756,59.3090746 291.265524,59.5685839 290.980917,60.0118986 L290.923503,60.0118986 C290.923503,58.8332803 291.391834,58.1340652 292.198905,58.1304564 C292.725469,58.1340652 293.060928,58.4404075 293.165093,58.8656779 L293.950838,58.8656779 C293.828629,58.0367082 293.161812,57.438377 292.198905,57.438377 C290.948109,57.438377 290.162364,58.476414 290.159083,60.2930609 C290.159083,62.2214182 291.168741,62.7944875 292.134109,62.8017552 Z M291.017006,61.0427179 C291.024387,60.4624309 291.510762,59.9506301 292.148873,59.954219 C292.775501,59.9506301 293.229888,60.437251 293.229888,61.0355822 C293.229888,61.644658 292.758277,62.1348878 292.126728,62.1384966 C291.485336,62.1348878 291.020286,61.6230869 291.017006,61.0427179 Z" id="Shape" fill="#001A5B" fill-rule="nonzero"></path>
            <path d="M296.661578,62.8017052 C297.868903,62.8017052 298.57509,61.8284634 298.579191,60.1200001 C298.57509,58.4223633 297.858241,57.438377 296.661578,57.438377 C295.460815,57.438377 294.743965,58.4223633 294.743965,60.1200001 C294.743965,61.8284634 295.454253,62.8017052 296.661578,62.8017052 Z M295.537093,60.1200001 C295.537093,58.8224537 295.958672,58.1124121 296.661578,58.1088033 C297.360383,58.1124121 297.786064,58.8224537 297.786064,60.1200001 C297.786064,61.4212373 297.364484,62.1168435 296.661578,62.1168435 C295.954571,62.1168435 295.532992,61.4212373 295.537093,60.1200001 Z" id="Shape" fill="#001A5B" fill-rule="nonzero"></path>
            <path d="M301.166902,62.7296102 C302.756437,62.7296102 303.671773,61.742015 303.675874,60.1128644 C303.671773,58.4872406 302.756437,57.510472 301.216934,57.510472 L299.473202,57.510472 L299.473202,62.7296102 L301.166902,62.7296102 Z M300.265509,62.0375308 L300.265509,58.2024694 L301.166902,58.2024694 C302.306151,58.2024694 302.890129,58.8837222 302.890129,60.1128644 C302.890129,61.3455334 302.306151,62.0339219 301.123432,62.0375308 L300.265509,62.0375308 Z" id="Shape" fill="#001A5B" fill-rule="nonzero"></path>
            <path d="M275.65888,66.5806654 L275.15282,66.5806654 L275.15282,69.9511691 L273.973382,69.9511691 L273.973382,70.3164013 L275.15282,70.3164013 L275.15282,70.9058745 L275.65888,70.9058745 L275.65888,66.5806654 Z M270.929643,69.2206226 L271.00018,69.6307194 C271.477533,69.6307194 272.025422,69.6307194 272.602018,69.6083281 L272.602018,70.7072236 L273.108077,70.7072236 L273.108077,69.5826561 C273.630541,69.5506685 274.166127,69.4994064 274.672187,69.4192735 L274.640199,69.0540413 C273.418931,69.2046288 271.990154,69.2142251 270.929643,69.2206226 Z M271.391398,67.8045583 C271.388131,68.413306 271.958166,68.7913333 272.800505,68.7913333 C273.637102,68.7913333 274.207137,68.413306 274.210418,67.8045583 C274.207137,67.2054068 273.637102,66.8113038 272.800505,66.8113038 C271.958166,66.8113038 271.388131,67.2054068 271.391398,67.8045583 Z M271.749837,72.149042 L275.799953,72.149042 L275.799953,71.7260681 L272.255896,71.7260681 L272.255896,70.4829826 L271.749837,70.4829826 L271.749837,72.149042 Z M271.872046,67.8045583 C271.865484,67.4393261 272.243593,67.1894131 272.800505,67.1958106 C273.342653,67.1894131 273.726503,67.4393261 273.729784,67.8045583 C273.726503,68.176188 273.342653,68.4165048 272.800505,68.4197035 C272.243593,68.4165048 271.865484,68.176188 271.872046,67.8045583 Z" id="Shape" fill="#001A5B" fill-rule="nonzero"></path>
            <path d="M280.304456,68.1057334 L280.304456,67.0676143 L279.804959,67.0676143 L279.804959,68.1057334 C279.798397,69.1854363 279.096311,70.2747355 278.247411,70.662441 L278.568107,71.0853329 C279.234104,70.7488894 279.795116,70.0280212 280.057578,69.1693605 C280.329882,69.9799579 280.890895,70.6559615 281.541308,70.9700136 L281.848881,70.5727118 C281.009003,70.1914038 280.301176,69.1469692 280.304456,68.1057334 Z M282.470588,72.2835537 L282.976647,72.2835537 L282.976647,66.5742678 L282.470588,66.5742678 L282.470588,72.2835537 Z" id="Shape" fill="#001A5B" fill-rule="nonzero"></path>
            <path d="M314.861675,67.7405012 L310.991181,67.7405012 L310.991181,68.150598 L314.361357,68.150598 L314.361357,68.1825855 C314.364638,68.6664178 314.364638,69.2271021 314.211261,70.0152262 L310.330925,70.0152262 L310.330925,70.4381181 L315.547357,70.4381181 L315.547357,70.0152262 L314.710759,70.0152262 C314.861675,69.2398972 314.861675,68.663219 314.861675,68.1825855 L314.861675,67.7405012 Z M311.023169,72.9627561 L315.034736,72.9627561 L315.034736,72.5398642 L311.522667,72.5398642 L311.522667,71.0789353 L311.023169,71.0789353 L311.023169,72.9627561 Z" id="Shape" fill="#001A5B" fill-rule="nonzero"></path>
            <path d="M319.673751,68.925927 L319.673751,67.887808 L319.174253,67.887808 L319.174253,68.925927 C319.167692,70.0056299 318.465606,71.0949291 317.616705,71.4826347 L317.937401,71.9055265 C318.603398,71.5690831 319.164411,70.8482149 319.426873,69.9895542 C319.699177,70.8001515 320.260189,71.4761551 320.910603,71.7902073 L321.218176,71.3929055 C320.378297,71.0115974 319.67047,69.9671629 319.673751,68.925927 Z M321.839882,73.1037474 L322.345942,73.1037474 L322.345942,67.3944615 L321.839882,67.3944615 L321.839882,73.1037474 Z" id="Shape" fill="#001A5B" fill-rule="nonzero"></path>
            <path d="M70.5630631,63.6218988 C71.6516241,63.6218988 72.4229342,62.8829864 72.4229342,61.8557759 C72.4229342,60.8501364 71.6984571,60.1220506 70.7144708,60.1184417 C70.3179892,60.1220506 69.9503784,60.2626317 69.7340934,60.4716991 L69.6836515,60.4716991 L69.8566303,59.0083096 L72.1562072,59.0083096 L72.1562072,58.3306656 L69.2006394,58.3306656 L68.8618174,61.2357915 L69.6115564,61.2357915 C69.7881441,60.9150138 70.1089219,60.7744326 70.5270566,60.7744326 C71.1830474,60.7816503 71.6516241,61.2430092 71.6516241,61.877347 C71.6516241,62.4973313 71.1974828,62.9550814 70.5630631,62.9586903 C70.0368268,62.9550814 69.6115564,62.6306948 69.5682502,62.1872981 L68.7969401,62.1872981 C68.8330286,63.0199587 69.5754679,63.6218988 70.5630631,63.6218988 Z" id="Path" fill="#001A5B" fill-rule="nonzero"></path>
            <path d="M73.1510201,62.5333378 L75.6884531,62.5333378 L75.6884531,63.5498038 L76.4381921,63.5498038 L76.4381921,62.5333378 L77.1518426,62.5333378 L77.1518426,61.8629116 L76.4381921,61.8629116 L76.4381921,58.3306656 L75.4578147,58.3306656 L73.1510201,61.8917824 L73.1510201,62.5333378 Z M73.9872075,61.8629116 L73.9872075,61.8196873 L75.6307935,59.2750366 L75.6884531,59.2750366 L75.6884531,61.8629116 L73.9872075,61.8629116 Z" id="Shape" fill="#001A5B" fill-rule="nonzero"></path>
            <path d="M79.7181465,63.5498038 C81.3076817,63.5498038 82.223592,62.5622086 82.2268728,60.933058 C82.223592,59.3074342 81.3076817,58.3306656 79.7686704,58.3306656 L78.0241185,58.3306656 L78.0241185,63.5498038 L79.7181465,63.5498038 Z M78.8170817,62.8577244 L78.8170817,59.022663 L79.7181465,59.022663 C80.8571494,59.022663 81.4410452,59.7039158 81.4410452,60.933058 C81.4410452,62.165727 80.8571494,62.8541156 79.6749223,62.8577244 L78.8170817,62.8577244 Z" id="Shape" fill="#001A5B" fill-rule="nonzero"></path>
            <path d="M144.423797,63.6218988 C145.512194,63.6218988 146.283996,62.8829864 146.283996,61.8557759 C146.283996,60.8501364 145.558945,60.1220506 144.575533,60.1184417 C144.178559,60.1220506 143.811112,60.2626317 143.594581,60.4716991 L143.544549,60.4716991 L143.71761,59.0083096 L146.016613,59.0083096 L146.016613,58.3306656 L143.061455,58.3306656 L142.722715,61.2357915 L143.472372,61.2357915 C143.648714,60.9150138 143.969409,60.7744326 144.387708,60.7744326 C145.043863,60.7816503 145.512194,61.2430092 145.512194,61.877347 C145.512194,62.4973313 145.057806,62.9550814 144.423797,62.9586903 C143.897232,62.9550814 143.472372,62.6306948 143.428902,62.1872981 L142.65792,62.1872981 C142.694008,63.0199587 143.436284,63.6218988 144.423797,63.6218988 Z" id="Path" fill="#001A5B" fill-rule="nonzero"></path>
            <path d="M149.016061,63.6219488 C150.136445,63.6291165 150.882822,62.8541156 150.882822,61.8413405 C150.882822,60.8429187 150.133165,60.1292683 149.203065,60.1256594 C148.637131,60.1292683 148.147476,60.3887775 147.862048,60.8320922 L147.804635,60.8320922 C147.804635,59.6534739 148.272965,58.9542589 149.080856,58.95065 C149.6066,58.9542589 149.942059,59.2606012 150.046224,59.6858716 L150.83197,59.6858716 C150.709761,58.8569019 150.042943,58.2585706 149.080856,58.2585706 C147.830061,58.2585706 147.044315,59.2966077 147.040214,61.1132546 C147.040214,63.0416118 148.049873,63.6146811 149.016061,63.6219488 Z M147.898137,61.8629116 C147.905519,61.2826246 148.391893,60.7708237 149.030004,60.7744126 C149.657452,60.7708237 150.11184,61.2574446 150.11184,61.8557759 C150.11184,62.4648517 149.639408,62.9550814 149.008679,62.9586903 C148.367288,62.9550814 147.902238,62.4432806 147.898137,61.8629116 Z" id="Shape" fill="#001A5B" fill-rule="nonzero"></path>
            <path d="M153.492678,63.5498038 C155.082213,63.5498038 155.997549,62.5622086 156.00083,60.933058 C155.997549,59.3074342 155.082213,58.3306656 153.54271,58.3306656 L151.798158,58.3306656 L151.798158,63.5498038 L153.492678,63.5498038 Z M152.591285,62.8577244 L152.591285,59.022663 L153.492678,59.022663 C154.631107,59.022663 155.215084,59.7039158 155.215084,60.933058 C155.215084,62.165727 154.631107,62.8541156 153.449207,62.8577244 L152.591285,62.8577244 Z" id="Shape" fill="#001A5B" fill-rule="nonzero"></path>
            <path d="M218.259268,63.6218988 C219.347665,63.6218988 220.119467,62.8829864 220.119467,61.8557759 C220.119467,60.8501364 219.394416,60.1220506 218.411004,60.1184417 C218.01403,60.1220506 217.646584,60.2626317 217.430053,60.4716991 L217.380021,60.4716991 L217.553082,59.0083096 L219.852084,59.0083096 L219.852084,58.3306656 L216.896927,58.3306656 L216.558187,61.2357915 L217.307844,61.2357915 C217.484185,60.9150138 217.804881,60.7744326 218.22318,60.7744326 C218.879335,60.7816503 219.347665,61.2430092 219.347665,61.877347 C219.347665,62.4973313 218.893278,62.9550814 218.259268,62.9586903 C217.732704,62.9550814 217.307844,62.6306948 217.264373,62.1872981 L216.493391,62.1872981 C216.52948,63.0199587 217.271755,63.6218988 218.259268,63.6218988 Z" id="Path" fill="#001A5B" fill-rule="nonzero"></path>
            <path d="M222.785917,63.6218988 C223.903841,63.6218988 224.700249,63.0091322 224.70353,62.1585093 C224.700249,61.4880831 224.217155,60.9401937 223.607751,60.8465276 L223.607751,60.8176568 C224.134315,60.6951199 224.498481,60.2193255 224.501762,59.6498651 C224.498481,58.8460753 223.770149,58.2585706 222.785917,58.2585706 C221.787741,58.2585706 221.06351,58.8460753 221.06351,59.6498651 C221.06351,60.2193255 221.420295,60.6951199 221.957521,60.8176568 L221.957521,60.8465276 C221.340736,60.9401937 220.861743,61.4880831 220.869124,62.1585093 C220.861743,63.0091322 221.650769,63.6218988 222.785917,63.6218988 Z M221.676195,62.1008497 C221.665533,61.5637869 222.137144,61.1709142 222.785917,61.1709142 C223.428129,61.1709142 223.896459,61.5637869 223.896459,62.1008497 C223.896459,62.6126506 223.464217,62.965908 222.785917,62.965908 C222.097775,62.965908 221.665533,62.6126506 221.676195,62.1008497 Z M221.834492,59.7219601 C221.838593,59.2353392 222.213422,58.9037349 222.785917,58.9073438 C223.345289,58.9037349 223.726679,59.2353392 223.723398,59.7219601 C223.726679,60.2121078 223.330526,60.547321 222.785917,60.5437121 C222.227365,60.547321 221.838593,60.208581 221.834492,59.7219601 Z" id="Shape" fill="#001A5B" fill-rule="nonzero"></path>
            <path d="M227.292061,63.5498038 C228.881596,63.5498038 229.796932,62.5622086 229.800213,60.933058 C229.796932,59.3074342 228.881596,58.3306656 227.342093,58.3306656 L225.597541,58.3306656 L225.597541,63.5498038 L227.292061,63.5498038 Z M226.390668,62.8577244 L226.390668,59.022663 L227.292061,59.022663 C228.43049,59.022663 229.014467,59.7039158 229.014467,60.933058 C229.014467,62.165727 228.43049,62.8541156 227.248591,62.8577244 L226.390668,62.8577244 Z" id="Shape" fill="#001A5B" fill-rule="nonzero"></path>
            <path d="M365.926111,62.8017552 C367.047315,62.8089229 367.793692,62.0339219 367.793692,61.0211468 C367.793692,60.0227251 367.044035,59.3090746 366.113935,59.3054658 C365.548001,59.3090746 365.057526,59.5685839 364.772918,60.0118986 L364.715505,60.0118986 C364.715505,58.8332803 365.183835,58.1340652 365.991726,58.1304564 C366.51747,58.1340652 366.852929,58.4404075 366.957094,58.8656779 L367.74284,58.8656779 C367.620631,58.0367082 366.953813,57.438377 365.991726,57.438377 C364.740931,57.438377 363.955185,58.476414 363.951084,60.2930609 C363.951084,62.2214182 364.960743,62.7944875 365.926111,62.8017552 Z M364.809007,61.0427179 C364.816389,60.4624309 365.302763,59.9506301 365.940874,59.954219 C366.568322,59.9506301 367.021889,60.437251 367.021889,61.0355822 C367.021889,61.644658 366.550278,62.1348878 365.919549,62.1384966 C365.277337,62.1348878 364.813108,61.6230869 364.809007,61.0427179 Z" id="Shape" fill="#001A5B" fill-rule="nonzero"></path>
            <path d="M370.489668,62.8017052 C371.570683,62.8017052 372.374473,62.1636766 372.371212,61.2950915 C372.374473,60.6354918 371.960275,60.1560886 371.246707,60.0551228 L371.246707,60.0191163 C371.808539,59.8785351 372.176806,59.4532647 372.169425,58.8585423 C372.176806,58.0871501 371.531314,57.438377 370.504432,57.438377 C369.530862,57.438377 368.745116,58.0150551 368.723791,58.8656779 L369.487391,58.8656779 C369.505436,58.3935745 369.974586,58.1015855 370.49705,58.1015855 C371.04822,58.1015855 371.405004,58.4259721 371.405004,58.9017665 C371.405004,59.4027407 370.990806,59.734345 370.396166,59.7307362 L369.94916,59.7307362 L369.94916,60.3795093 L370.396166,60.3795093 C371.141722,60.3831182 371.570683,60.750811 371.570683,61.2662207 C371.570683,61.7744127 371.113015,62.1168435 370.482286,62.1168435 C369.898308,62.1168435 369.444741,61.8249366 369.415214,61.3671045 L368.608144,61.3671045 C368.640952,62.2214182 369.408653,62.8017052 370.489668,62.8017052 Z" id="Path" fill="#001A5B" fill-rule="nonzero"></path>
            <path d="M375.009755,62.7296102 C376.59929,62.7296102 377.514627,61.742015 377.517907,60.1128644 C377.514627,58.4872406 376.59929,57.510472 375.059787,57.510472 L373.315235,57.510472 L373.315235,62.7296102 L375.009755,62.7296102 Z M374.108362,62.0375308 L374.108362,58.2024694 L375.009755,58.2024694 C376.148184,58.2024694 376.732162,58.8837222 376.732162,60.1128644 C376.732162,61.3455334 376.148184,62.0339219 374.966285,62.0375308 L374.108362,62.0375308 Z" id="Shape" fill="#001A5B" fill-rule="nonzero"></path>
            <path d="M439.747639,62.8017552 C440.868844,62.8089229 441.6144,62.0339219 441.6144,61.0211468 C441.6144,60.0227251 440.864743,59.3090746 439.934643,59.3054658 C439.36871,59.3090746 438.879054,59.5685839 438.594447,60.0118986 L438.536213,60.0118986 C438.536213,58.8332803 439.005364,58.1340652 439.812434,58.1304564 C440.338999,58.1340652 440.673638,58.4404075 440.778622,58.8656779 L441.564368,58.8656779 C441.441339,58.0367082 440.774521,57.438377 439.812434,57.438377 C438.561639,57.438377 437.775893,58.476414 437.772613,60.2930609 C437.772613,62.2214182 438.781451,62.7944875 439.747639,62.8017552 Z M438.630535,61.0427179 C438.637097,60.4624309 439.124292,59.9506301 439.761582,59.954219 C440.38903,59.9506301 440.843418,60.437251 440.843418,61.0355822 C440.843418,61.644658 440.370986,62.1348878 439.740257,62.1384966 C439.098866,62.1348878 438.633816,61.6230869 438.630535,61.0427179 Z" id="Shape" fill="#001A5B" fill-rule="nonzero"></path>
            <path d="M444.346465,62.8017552 C445.467669,62.8089229 446.214046,62.0339219 446.214046,61.0211468 C446.214046,60.0227251 445.464389,59.3090746 444.534289,59.3054658 C443.968355,59.3090746 443.47788,59.5685839 443.193272,60.0118986 L443.135859,60.0118986 C443.135859,58.8332803 443.604189,58.1340652 444.41126,58.1304564 C444.937824,58.1340652 445.273284,58.4404075 445.377448,58.8656779 L446.163194,58.8656779 C446.040985,58.0367082 445.374167,57.438377 444.41126,57.438377 C443.160465,57.438377 442.374719,58.476414 442.371438,60.2930609 C442.371438,62.2214182 443.381097,62.7944875 444.346465,62.8017552 Z M443.229361,61.0427179 C443.236743,60.4624309 443.723118,59.9506301 444.361228,59.954219 C444.988676,59.9506301 445.442243,60.437251 445.442243,61.0355822 C445.442243,61.644658 444.970632,62.1348878 444.339903,62.1384966 C443.697692,62.1348878 443.232642,61.6230869 443.229361,61.0427179 Z" id="Shape" fill="#001A5B" fill-rule="nonzero"></path>
            <path d="M448.823082,62.7296102 C450.412617,62.7296102 451.328773,61.742015 451.332054,60.1128644 C451.328773,58.4872406 450.412617,57.510472 448.873934,57.510472 L447.129382,57.510472 L447.129382,62.7296102 L448.823082,62.7296102 Z M447.922509,62.0375308 L447.922509,58.2024694 L448.823082,58.2024694 C449.962331,58.2024694 450.546308,58.8837222 450.546308,60.1128644 C450.546308,61.3455334 449.962331,62.0339219 448.780432,62.0375308 L447.922509,62.0375308 Z" id="Shape" fill="#001A5B" fill-rule="nonzero"></path>
            <path d="M513.565066,62.8017552 C514.686271,62.8089229 515.431827,62.0340039 515.431827,61.0211468 C515.431827,60.0227251 514.68217,59.3090746 513.752071,59.3054658 C513.186137,59.3090746 512.696481,59.5685839 512.411874,60.0119806 L512.35364,60.0119806 C512.35364,58.8333623 512.822791,58.1340652 513.629862,58.1304564 C514.156426,58.1340652 514.491065,58.4404075 514.59605,58.86576 L515.381795,58.86576 C515.258766,58.0367903 514.591949,57.438459 513.629862,57.438459 C512.379066,57.438459 511.593321,58.4764961 511.59004,60.2930609 C511.59004,62.2214182 512.598878,62.7944875 513.565066,62.8017552 Z M512.447963,61.0427999 C512.454524,60.4625129 512.941719,59.9507121 513.57901,59.954301 C514.206458,59.9507121 514.660845,60.437251 514.660845,61.0355822 C514.660845,61.64474 514.188414,62.1348878 513.557685,62.1384966 C512.916293,62.1348878 512.451243,61.6230869 512.447963,61.0427999 Z" id="Shape" fill="#001A5B" fill-rule="nonzero"></path>
            <path d="M518.07039,57.4384092 C516.935242,57.4312413 516.196248,58.2097691 516.196248,59.204582 C516.196248,60.2030037 516.945905,60.920263 517.883386,60.920263 C518.445219,60.920263 518.935694,60.653536 519.217021,60.2138302 L519.281816,60.2138302 C519.274434,61.4068019 518.802003,62.106099 517.998213,62.1097078 C517.472469,62.106099 517.132909,61.7997566 517.025463,61.3599688 L516.239718,61.3599688 C516.365207,62.2069828 517.036126,62.8017052 517.998213,62.8017052 C519.249008,62.8017052 520.038035,61.7636681 520.038035,59.9326678 C520.034754,58.0223548 519.029196,57.4456767 518.07039,57.4384092 Z M516.967213,59.1901465 C516.963949,58.5918153 517.439661,58.1016676 518.07039,58.1016676 C518.708501,58.1016676 519.17355,58.6170773 519.17355,59.1829288 C519.17355,59.759607 518.687176,60.2750987 518.055627,60.2715101 C517.421617,60.2750987 516.971331,59.7956955 516.967213,59.1901465 Z" id="Shape" fill="#001A5B" fill-rule="nonzero"></path>
            <path d="M522.640509,62.7296102 C524.230044,62.7296102 525.146201,61.742015 525.149481,60.1128644 C525.146201,58.4873226 524.230044,57.510554 522.691361,57.510554 L520.946809,57.510554 L520.946809,62.7296102 L522.640509,62.7296102 Z M521.739936,62.0376128 L521.739936,58.2025514 L522.640509,58.2025514 C523.779758,58.2025514 524.363736,58.8838042 524.363736,60.1128644 C524.363736,61.3455334 523.779758,62.0340039 522.597859,62.0376128 L521.739936,62.0376128 Z" id="Shape" fill="#001A5B" fill-rule="nonzero"></path>
            <polygon id="Path" fill="#979797" points="38.1390041 40.0132811 38.1390041 12.523179 38.9591978 12.523179 38.9591978 40.0132811"></polygon>
            <polygon id="Path" fill="#979797" points="185.773859 40.0132811 185.773859 12.523179 186.594053 12.523179 186.594053 40.0132811"></polygon>
            <polygon id="Path" fill="#979797" points="259.591286 40.0132811 259.591286 12.523179 260.41148 12.523179 260.41148 40.0132811"></polygon>
            <polygon id="Path" fill="#979797" points="321.105809 40.0132811 321.105809 12.523179 321.926003 12.523179 321.926003 40.0132811"></polygon>
            <polygon id="Path" fill="#979797" points="345.711618 40.0132811 345.711618 12.523179 346.531812 12.523179 346.531812 40.0132811"></polygon>
            <polygon id="Path" fill="#979797" points="394.923237 40.0132811 394.923237 12.523179 395.74343 12.523179 395.74343 40.0132811"></polygon>
            <polygon id="Path" fill="#979797" points="419.529046 40.0132811 419.529046 12.523179 420.349239 12.523179 420.349239 40.0132811"></polygon>
            <polygon id="Path" fill="#979797" points="468.740664 40.0132811 468.740664 12.523179 469.560858 12.523179 469.560858 40.0132811"></polygon>
            <polygon id="Path" fill="#979797" points="493.346473 40.0132811 493.346473 12.523179 494.166667 12.523179 494.166667 40.0132811"></polygon>
            <polygon id="Path" fill="#979797" points="542.558091 40.0132811 542.558091 12.523179 543.378285 12.523179 543.378285 40.0132811"></polygon>
            <polygon id="Path" fill="#979797" points="567.1639 40.0132811 567.1639 12.523179 567.984094 12.523179 567.984094 40.0132811"></polygon>
            <rect id="Rectangle" fill="#E2E6F6" fill-rule="nonzero" x="223.092669" y="15.9040992" width="73.8174274" height="19.6846473"></rect>
            <path d="M246.817591,22.1780885 L246.056451,22.1780885 L246.056451,23.4516031 L244.498903,23.4516031 C244.546474,23.2112864 244.574361,22.9549759 244.574361,22.6907095 L241.291126,22.6907095 L241.291126,23.315451 L243.750066,23.315451 C243.613914,24.4728262 242.62066,25.3859478 240.922039,25.8705182 L241.226331,26.4632721 C242.780598,26.0187272 243.857512,25.2057512 244.322562,24.0523129 L246.056451,24.0523129 L246.056451,24.9254091 L244.246284,24.9254091 L244.246284,25.5501506 L246.056451,25.5501506 L246.056451,26.4232467 L246.817591,26.4232467 L246.817591,22.1780885 Z M242.035862,27.9050085 C242.035862,28.7780226 242.980725,29.3146753 244.454613,29.3146753 C245.907996,29.3146753 246.861061,28.7780226 246.865162,27.9050085 C246.861061,27.0359313 245.907996,26.5073165 244.454613,26.5032976 C242.980725,26.5073165 242.035862,27.0359313 242.035862,27.9050085 Z M242.788799,27.9050085 C242.788799,27.3923875 243.429371,27.1000705 244.454613,27.1040074 C245.46017,27.1000705 246.100741,27.3923875 246.104842,27.9050085 C246.100741,28.4095916 245.46017,28.7019907 244.454613,28.7060096 C243.429371,28.7019907 242.788799,28.4095916 242.788799,27.9050085 Z" id="Shape" fill="#113287" fill-rule="nonzero"></path>
            <polygon id="Path" fill="#113287" fill-rule="nonzero" points="253.737564 25.4780555 249.500444 25.4780555 249.500444 23.3394826 253.673589 23.3394826 253.673589 22.722697 248.740124 22.722697 248.740124 26.0868033 250.814394 26.0868033 250.814394 27.8409514 247.922391 27.8409514 247.922391 28.4656929 254.490502 28.4656929 254.490502 27.8409514 251.567332 27.8409514 251.567332 26.0868033 253.737564 26.0868033"></polygon>
            <polygon id="Path" fill="#113287" fill-rule="nonzero" points="259.464976 22.8668871 258.599672 22.8668871 257.157772 23.8120782 257.157772 24.6531048 258.543899 23.7479391 258.575887 23.7479391 258.575887 28.6659021 259.464976 28.6659021"></polygon>
            <path d="M260.938864,28.6659021 L264.838885,28.6659021 L264.838885,27.9130464 L262.164234,27.9130464 L262.164234,27.8649831 L263.341212,26.6715193 C264.430429,25.6022329 264.734721,25.0855929 264.742923,24.4368197 C264.734721,23.4956475 263.962098,22.7868362 262.844994,22.7868362 C261.739373,22.7868362 260.930663,23.4876916 260.938864,24.5489402 L261.771361,24.5489402 C261.775462,23.9321546 262.183918,23.5236981 262.828591,23.5236981 C263.437174,23.5236981 263.902224,23.8881102 263.902224,24.4608514 C263.902224,24.9694535 263.585629,25.3378844 262.949159,25.9987145 L260.938864,28.0251669 L260.938864,28.6659021 Z" id="Path" fill="#113287" fill-rule="nonzero"></path>
            <path d="M266.38495,28.7220034 C266.693343,28.7179844 266.950064,28.4656929 266.954165,28.1532811 C266.950064,27.8409514 266.693343,27.5846409 266.38495,27.5846409 C266.072456,27.5846409 265.812455,27.8409514 265.816556,28.1532811 C265.812455,28.4656929 266.072456,28.7179844 266.38495,28.7220034 Z" id="Path" fill="#113287" fill-rule="nonzero"></path>
            <path d="M269.860931,28.7460909 C271.106805,28.754073 271.936021,27.8929517 271.936021,26.767646 C271.936021,25.6582521 271.102704,24.8652889 270.06926,24.8613519 C269.440992,24.8652889 268.896383,25.153669 268.579788,25.6462773 L268.515813,25.6462773 C268.515813,24.3366741 269.036636,23.5597046 269.933108,23.5557677 C270.517906,23.5597046 270.890274,23.900167 271.006741,24.3727626 L271.879427,24.3727626 C271.743275,23.4516031 271.00264,22.7868362 269.933108,22.7868362 C268.5437,22.7868362 267.671014,23.9401925 267.666913,25.958689 C267.666913,28.1012808 268.788118,28.7379972 269.860931,28.7460909 Z M268.619978,26.7916777 C268.62818,26.1468414 269.168687,25.5782012 269.877335,25.5821979 C270.574499,25.5782012 271.078918,26.1188728 271.078918,26.7836398 C271.078918,27.4604636 270.553994,28.0051542 269.853549,28.0091731 C269.140801,28.0051542 268.624079,27.4364319 268.619978,26.7916777 Z" id="Shape" fill="#113287" fill-rule="nonzero"></path>
            <path d="M274.202216,25.6222456 C274.98386,25.6302835 275.416102,25.0455674 275.420203,24.1805092 C275.416102,23.3314447 274.999444,22.7427918 274.202216,22.7467091 C273.429593,22.7427918 272.976846,23.3314447 272.985048,24.1805092 C272.976846,25.0415485 273.409909,25.6302835 274.202216,25.6222456 Z M273.642024,28.6659021 L274.371176,28.6659021 L278.351575,22.8668871 L277.622423,22.8668871 L273.642024,28.6659021 Z M273.642024,24.1805092 C273.646124,23.6638692 273.829848,23.315451 274.202216,23.3074131 C274.590988,23.3033941 274.755026,23.6598503 274.755026,24.1805092 C274.755026,24.7131429 274.578685,25.0575423 274.202216,25.0615612 C273.829848,25.0575423 273.646124,24.7131429 273.642024,24.1805092 Z M276.645573,27.3443241 C276.641472,28.1973255 277.073714,28.7860605 277.86274,28.7860605 C278.643564,28.7860605 279.076627,28.2013445 279.080728,27.3443241 C279.076627,26.4873038 278.655867,25.8985688 277.86274,25.9025673 C277.090118,25.8985688 276.641472,26.4873038 276.645573,27.3443241 Z M277.302548,27.3443241 C277.306649,26.8197283 277.494473,26.47131 277.86274,26.4632721 C278.251512,26.4632721 278.41555,26.8157093 278.41555,27.3443241 C278.41555,27.869002 278.239209,28.2174203 277.86274,28.2174203 C277.490372,28.2174203 277.306649,27.869002 277.302548,27.3443241 Z" id="Shape" fill="#113287" fill-rule="nonzero"></path>
            <rect id="Rectangle" fill="#5B6EB4" fill-rule="nonzero" x="149.275242" y="15.9040992" width="73.8174274" height="19.6846473"></rect>
            <path d="M175.467306,25.3259096 L168.922981,25.3259096 L168.922981,25.9426132 L171.814163,25.9426132 L171.814163,26.6314938 C170.480528,26.6995699 169.699704,27.1441149 169.699704,27.8969706 C169.699704,28.7099465 170.628983,29.1665483 172.190632,29.1625557 C173.732596,29.1665483 174.661876,28.7099465 174.665976,27.8969706 C174.661876,27.1441149 173.881051,26.7035889 172.567101,26.6314938 L172.567101,25.9426132 L175.467306,25.9426132 L175.467306,25.3259096 Z M169.267462,24.3487309 L169.531564,24.9494407 C170.777438,24.8052507 171.79858,24.2806548 172.194733,23.5196792 C172.583505,24.2806548 173.612848,24.8052507 174.857902,24.9494407 L175.130206,24.3487309 C173.817076,24.2165157 172.807418,23.6358186 172.703253,22.9389821 L174.882508,22.9389821 L174.882508,22.3302344 L169.524183,22.3302344 L169.524183,22.9389821 L171.678011,22.9389821 C171.574667,23.6317997 170.556806,24.2165157 169.267462,24.3487309 Z M170.469026,27.8969706 C170.464945,27.4524257 171.094033,27.2121909 172.190632,27.208172 C173.272467,27.2121909 173.904837,27.4524257 173.904837,27.8969706 C173.904837,28.3335597 173.272467,28.5858512 172.190632,28.5778133 C171.094033,28.5858512 170.464945,28.3335597 170.469026,27.8969706 Z" id="Shape" fill="#FFFFFF" fill-rule="nonzero"></path>
            <polygon id="Path" fill="#FFFFFF" fill-rule="nonzero" points="181.827087 25.3098338 177.589147 25.3098338 177.589147 23.1712609 181.762292 23.1712609 181.762292 22.5545573 176.828827 22.5545573 176.828827 25.9185815 178.903097 25.9185815 178.903097 27.6727297 176.011914 27.6727297 176.011914 28.2974712 182.579205 28.2974712 182.579205 27.6727297 179.656035 27.6727297 179.656035 25.9185815 181.827087 25.9185815"></polygon>
            <path d="M187.369136,28.5778133 C188.710972,28.5778133 189.495898,27.4965521 189.499999,25.5982139 C189.495898,23.7119326 188.698669,22.6186145 187.369136,22.6186145 C186.035501,22.6186145 185.239093,23.7119326 185.239093,25.5982139 C185.239093,27.4965521 186.028119,28.5778133 187.369136,28.5778133 Z M186.119981,25.5982139 C186.119981,24.1564775 186.588311,23.3675333 187.369136,23.3635143 C188.146679,23.3675333 188.619111,24.1564775 188.619111,25.5982139 C188.619111,27.0439692 188.14996,27.8169197 187.369136,27.8169197 C186.58421,27.8169197 186.11588,27.0439692 186.119981,25.5982139 Z" id="Shape" fill="#FFFFFF" fill-rule="nonzero"></path>
            <path d="M190.765557,28.5537817 C191.07395,28.5497627 191.329851,28.2974712 191.333952,27.9851414 C191.329851,27.6727297 191.07395,27.4164192 190.765557,27.4164192 C190.453064,27.4164192 190.193062,27.6727297 190.197163,27.9851414 C190.193062,28.2974712 190.453064,28.5497627 190.765557,28.5537817 Z" id="Path" fill="#FFFFFF" fill-rule="nonzero"></path>
            <path d="M194.233336,28.5778133 C195.443122,28.5778133 196.300224,27.7567995 196.300224,26.6154181 C196.300224,25.4980683 195.495614,24.6891113 194.402296,24.6850923 C193.961032,24.6891113 193.552575,24.8452761 193.312259,25.077555 L193.256485,25.077555 L193.448411,23.4516031 L196.004134,23.4516031 L196.004134,22.6986654 L192.720079,22.6986654 L192.34361,25.9266194 L193.176107,25.9266194 C193.372953,25.5701633 193.728917,25.4139984 194.193967,25.4139984 C194.922299,25.4220363 195.443122,25.9346573 195.443122,26.6394497 C195.443122,27.3283304 194.938703,27.8369324 194.233336,27.8409514 C193.649358,27.8369324 193.176107,27.4764573 193.128535,26.9839311 L192.271433,26.9839311 C192.311622,27.9090275 193.136737,28.5778133 194.233336,28.5778133 Z" id="Path" fill="#FFFFFF" fill-rule="nonzero"></path>
            <path d="M198.567239,25.4540239 C199.348064,25.4620618 199.780306,24.8773457 199.784407,24.0122875 C199.780306,23.163223 199.363647,22.5745701 198.567239,22.5785686 C197.793797,22.5745701 197.34187,23.163223 197.349252,24.0122875 C197.34187,24.8733268 197.774112,25.4620618 198.567239,25.4540239 Z M198.006227,28.4977625 L198.735379,28.4977625 L202.715779,22.6986654 L201.987447,22.6986654 L198.006227,28.4977625 Z M198.006227,24.0122875 C198.010328,23.4956475 198.194871,23.1472293 198.567239,23.1391914 C198.955191,23.1352544 199.11923,23.4916286 199.11923,24.0122875 C199.11923,24.5449212 198.943708,24.8893205 198.567239,24.8933395 C198.194871,24.8893205 198.010328,24.5449212 198.006227,24.0122875 Z M201.009776,27.1761024 C201.005675,28.0291858 201.438737,28.6178388 202.227763,28.6178388 C203.008588,28.6178388 203.44083,28.0331228 203.444931,27.1761024 C203.44083,26.3190821 203.020071,25.7303471 202.227763,25.7343456 C201.454321,25.7303471 201.005675,26.3190821 201.009776,27.1761024 Z M201.666751,27.1761024 C201.670852,26.6515066 201.858676,26.3030883 202.227763,26.2950504 C202.615715,26.2950504 202.779754,26.6474876 202.779754,27.1761024 C202.779754,27.7007803 202.604232,28.0491986 202.227763,28.0491986 C201.854575,28.0491986 201.670852,27.7007803 201.666751,27.1761024 Z" id="Shape" fill="#FFFFFF" fill-rule="nonzero"></path>
            <rect id="Rectangle" fill="#113287" fill-rule="nonzero" x="75.4578147" y="15.9040992" width="73.8174274" height="19.6846473"></rect>
            <path d="M100.912524,22.8508933 L95.7945159,22.8508933 L95.7945159,23.4675969 L100.151385,23.4675969 L100.151385,23.5557677 C100.148104,24.416807 100.148104,25.4340111 99.8716985,26.8236652 L100.64022,26.9037981 C100.908423,25.4340111 100.908423,24.4408387 100.912524,23.5557677 L100.912524,22.8508933 Z M95.1055533,28.3695662 L101.649878,28.3695662 L101.649878,27.7367868 L98.3494191,27.7367868 L98.3494191,25.2057512 L97.5964813,25.2057512 L97.5964813,27.7367868 L95.1055533,27.7367868 L95.1055533,28.3695662 Z" id="Shape" fill="#FFFFFF" fill-rule="nonzero"></path>
            <polygon id="Path" fill="#FFFFFF" fill-rule="nonzero" points="108.00966 25.4700176 103.771719 25.4700176 103.771719 23.3314447 107.944864 23.3314447 107.944864 22.7147412 103.0114 22.7147412 103.0114 26.0787654 105.085669 26.0787654 105.085669 27.8329135 102.194487 27.8329135 102.194487 28.457655 108.761777 28.457655 108.761777 27.8329135 105.838607 27.8329135 105.838607 26.0787654 108.00966 26.0787654"></polygon>
            <path d="M113.551708,28.7379972 C114.893545,28.7379972 115.67847,27.6567359 115.682571,25.7583977 C115.67847,23.8721164 114.881242,22.7787983 113.551708,22.7787983 C112.218073,22.7787983 111.421665,23.8721164 111.421665,25.7583977 C111.421665,27.6567359 112.210692,28.7379972 113.551708,28.7379972 Z M112.302553,25.7583977 C112.302553,24.3166613 112.770884,23.5277171 113.551708,23.5236981 C114.329252,23.5277171 114.801683,24.3166613 114.801683,25.7583977 C114.801683,27.204153 114.332533,27.9771035 113.551708,27.9771035 C112.766783,27.9771035 112.298452,27.204153 112.302553,25.7583977 Z" id="Shape" fill="#FFFFFF" fill-rule="nonzero"></path>
            <path d="M116.94813,28.7139655 C117.256523,28.7099465 117.512423,28.457655 117.516524,28.1453252 C117.512423,27.8329135 117.256523,27.576603 116.94813,27.576603 C116.635636,27.576603 116.375635,27.8329135 116.379736,28.1453252 C116.375635,28.457655 116.635636,28.7099465 116.94813,28.7139655 Z" id="Path" fill="#FFFFFF" fill-rule="nonzero"></path>
            <path d="M118.541766,28.6579463 L122.442607,28.6579463 L122.442607,27.9050085 L119.767136,27.9050085 L119.767136,27.8569452 L120.944934,26.6634814 C122.034151,25.594195 122.338443,25.077555 122.346645,24.4287818 C122.338443,23.4876916 121.56582,22.7787983 120.448716,22.7787983 C119.343095,22.7787983 118.534385,23.4796537 118.541766,24.5409023 L119.375083,24.5409023 C119.379184,23.9241987 119.78764,23.5156602 120.432313,23.5156602 C121.040896,23.5156602 121.505946,23.8801543 121.505946,24.4528135 C121.505946,24.9614156 121.189351,25.3298465 120.552061,25.9906766 L118.541766,28.017129 L118.541766,28.6579463 Z" id="Path" fill="#FFFFFF" fill-rule="nonzero"></path>
            <path d="M124.749812,25.6142077 C125.530636,25.6222456 125.962878,25.0375295 125.966979,24.1724713 C125.962878,23.3234889 125.54622,22.7347539 124.749812,22.7387524 C123.976369,22.7347539 123.524443,23.3234889 123.531824,24.1724713 C123.524443,25.0335106 123.956685,25.6222456 124.749812,25.6142077 Z M124.188799,28.6579463 L124.917952,28.6579463 L128.898351,22.8589312 L128.170019,22.8589312 L124.188799,28.6579463 Z M124.188799,24.1724713 C124.1929,23.6558313 124.377444,23.3074131 124.749812,23.2994572 C125.137763,23.2954382 125.301802,23.6518124 125.301802,24.1724713 C125.301802,24.7051051 125.126281,25.0495864 124.749812,25.0535233 C124.377444,25.0495864 124.1929,24.7051051 124.188799,24.1724713 Z M127.192349,27.3362862 C127.188248,28.1893696 127.62131,28.7780226 128.410336,28.7780226 C129.19116,28.7780226 129.623402,28.1933886 129.627503,27.3362862 C129.623402,26.4792659 129.202643,25.8905309 128.410336,25.8945294 C127.636893,25.8905309 127.188248,26.4792659 127.192349,27.3362862 Z M127.849324,27.3362862 C127.853425,26.8116904 128.041249,26.4632721 128.410336,26.4552342 C128.798288,26.4552342 128.962326,26.8076714 128.962326,27.3362862 C128.962326,27.8609641 128.786805,28.2093824 128.410336,28.2093824 C128.037148,28.2093824 127.853425,27.8609641 127.849324,27.3362862 Z" id="Shape" fill="#FFFFFF" fill-rule="nonzero"></path>
            <rect id="Rectangle" fill="#001A5B" fill-rule="nonzero" x="9.02213001" y="15.9040992" width="66.4356846" height="19.6846473"></rect>
            <path d="M23.9177487,28.0451796 L21.0022064,28.0451796 L21.0022064,26.4832849 L20.2493506,26.4832849 L20.2493506,28.0451796 L17.3498021,28.0451796 L17.3498021,28.6699211 L23.9177487,28.6699211 L23.9177487,28.0451796 Z M17.6701697,26.1388855 L17.9585498,26.7315575 C19.1600515,26.543323 20.1572429,25.9746828 20.6218006,25.1376752 C21.0903772,25.9746828 22.0915876,26.543323 23.2930072,26.7315575 L23.5813873,26.1388855 C22.1075813,25.9226005 21.0463328,25.0896118 21.0102443,24.0803636 L23.309001,24.0803636 L23.309001,23.46366 L21.0022064,23.46366 L21.0022064,22.502475 L20.2493506,22.502475 L20.2493506,23.46366 L17.942556,23.46366 L17.942556,24.0803636 L20.2413127,24.0803636 C20.2053062,25.0896118 19.1439757,25.9226005 17.6701697,26.1388855 Z" id="Shape" fill="#FFFFFF" fill-rule="nonzero"></path>
            <path d="M30.2454606,23.0631594 L25.1272062,23.0631594 L25.1272062,23.679863 L29.4844849,23.679863 L29.4844849,23.7680338 C29.480548,24.6290731 29.480548,25.6462773 29.2041427,27.0359313 L29.9730743,27.1160642 C30.2414416,25.6462773 30.2414416,24.6531048 30.2454606,23.7680338 L30.2454606,23.0631594 Z M24.4384076,28.5818323 L30.9823225,28.5818323 L30.9823225,27.9490529 L27.6823555,27.9490529 L27.6823555,25.4180174 L26.9294177,25.4180174 L26.9294177,27.9490529 L24.4384076,27.9490529 L24.4384076,28.5818323 Z" id="Shape" fill="#FFFFFF" fill-rule="nonzero"></path>
            <polygon id="Path" fill="#FFFFFF" fill-rule="nonzero" points="37.342022 25.6822838 33.1049017 25.6822838 33.1049017 23.5437109 37.2779649 23.5437109 37.2779649 22.9270073 32.344008 22.9270073 32.344008 26.2910315 34.4185238 26.2910315 34.4185238 28.0451796 31.5270131 28.0451796 31.5270131 28.6699211 38.0949598 28.6699211 38.0949598 28.0451796 35.1713795 28.0451796 35.1713795 26.2910315 37.342022 26.2910315"></polygon>
            <path d="M42.8847266,28.9502633 C44.2263993,28.9502633 45.0113246,27.869002 45.0153436,25.9706638 C45.0113246,24.0843825 44.2143425,22.9910644 42.8847266,22.9910644 C41.5511737,22.9910644 40.7541916,24.0843825 40.7541916,25.9706638 C40.7541916,27.869002 41.5431358,28.9502633 42.8847266,28.9502633 Z M41.6352436,25.9706638 C41.6352436,24.5289275 42.1038202,23.7399832 42.8847266,23.7359642 C43.661696,23.7399832 44.1342916,24.5289275 44.1342916,25.9706638 C44.1342916,27.4164192 43.6657149,28.1893696 42.8847266,28.1893696 C42.0998012,28.1893696 41.6312246,27.4164192 41.6352436,25.9706638 Z" id="Shape" fill="#FFFFFF" fill-rule="nonzero"></path>
            <path d="M46.2809024,28.9262316 C46.5892131,28.9222127 46.8455237,28.6699211 46.8495426,28.3575914 C46.8455237,28.0451796 46.5892131,27.7888691 46.2809024,27.7888691 C45.9684906,27.7888691 45.7081611,28.0451796 45.7121801,28.3575914 C45.7081611,28.6699211 45.9684906,28.9222127 46.2809024,28.9262316 Z" id="Path" fill="#FFFFFF" fill-rule="nonzero"></path>
            <path d="M49.6769961,28.9502633 C51.0185869,28.9502633 51.8035942,27.869002 51.8075311,25.9706638 C51.8035942,24.0843825 51.006612,22.9910644 49.6769961,22.9910644 C48.3433613,22.9910644 47.5463791,24.0843825 47.5463791,25.9706638 C47.5463791,27.869002 48.3353234,28.9502633 49.6769961,28.9502633 Z M48.4274065,25.9706638 C48.4274065,24.5289275 48.8960077,23.7399832 49.6769961,23.7359642 C50.4538835,23.7399832 50.9264791,24.5289275 50.9264791,25.9706638 C50.9264791,27.4164192 50.4579025,28.1893696 49.6769961,28.1893696 C48.8920708,28.1893696 48.4234942,27.4164192 48.4274065,25.9706638 Z" id="Shape" fill="#FFFFFF" fill-rule="nonzero"></path>
            <path d="M54.0502686,25.8264738 C54.831257,25.8345117 55.2637451,25.2497956 55.267764,24.3847374 C55.2637451,23.535673 54.8472508,22.94702 54.0502686,22.9510185 C53.2773181,22.94702 52.8248173,23.535673 52.8327732,24.3847374 C52.8248173,25.2457767 53.2573054,25.8345117 54.0502686,25.8264738 Z M53.4895842,28.8702124 L54.2184903,28.8702124 L58.1993001,23.0711153 L57.4703941,23.0711153 L53.4895842,28.8702124 Z M53.4895842,24.3847374 C53.4936032,23.8680974 53.6778187,23.5196792 54.0502686,23.5117233 C54.4387123,23.5077044 54.6029151,23.8640785 54.6029151,24.3847374 C54.6029151,24.9173712 54.4267375,25.2617705 54.0502686,25.2657894 C53.6778187,25.2617705 53.4936032,24.9173712 53.4895842,24.3847374 Z M56.4932154,27.5485524 C56.4891964,28.4016358 56.9217665,28.9902887 57.7107108,28.9902887 C58.4916992,28.9902887 58.9241873,28.4055727 58.9282062,27.5485524 C58.9241873,26.691532 58.503674,26.102797 57.7107108,26.1067955 C56.9377603,26.102797 56.4891964,26.691532 56.4932154,27.5485524 Z M57.1500264,27.5485524 C57.1540454,27.0239565 57.3422798,26.6755382 57.7107108,26.6675003 C58.0991545,26.6675003 58.2633573,27.0199376 58.2633573,27.5485524 C58.2633573,28.0732302 58.0871797,28.4216485 57.7107108,28.4216485 C57.3382609,28.4216485 57.1540454,28.0732302 57.1500264,27.5485524 Z" id="Shape" fill="#FFFFFF" fill-rule="nonzero"></path>
            <polygon id="Path" fill="#979797" points="148.865145 52.4923633 148.865145 0 149.685339 0 149.685339 52.4923633"></polygon>
            <polygon id="Path" fill="#979797" points="222.682573 52.4923633 222.682573 0 223.502766 0 223.502766 52.4923633"></polygon>
            <polygon id="Path" fill="#979797" points="75.0477178 52.4923633 75.0477178 0 75.8679115 0 75.8679115 52.4923633"></polygon>
            <rect id="Rectangle" fill="#113287" fill-rule="nonzero" x="444.544952" y="15.9040992" width="73.8174274" height="19.6846473"></rect>
            <path d="M470.952726,22.8508933 L465.834718,22.8508933 L465.834718,23.4675969 L470.192407,23.4675969 L470.192407,23.5557677 C470.188306,24.416807 470.188306,25.4340111 469.9119,26.8236652 L470.680422,26.9037981 C470.948625,25.4340111 470.948625,24.4408387 470.952726,23.5557677 L470.952726,22.8508933 Z M465.145755,28.3695662 L471.69008,28.3695662 L471.69008,27.7367868 L468.389621,27.7367868 L468.389621,25.2057512 L467.636683,25.2057512 L467.636683,27.7367868 L465.145755,27.7367868 L465.145755,28.3695662 Z" id="Shape" fill="#FFFFFF" fill-rule="nonzero"></path>
            <polygon id="Path" fill="#FFFFFF" fill-rule="nonzero" points="478.049862 25.4700176 473.812741 25.4700176 473.812741 23.3314447 477.985066 23.3314447 477.985066 22.7147412 473.051602 22.7147412 473.051602 26.0787654 475.125871 26.0787654 475.125871 27.8329135 472.234689 27.8329135 472.234689 28.457655 478.802799 28.457655 478.802799 27.8329135 475.878809 27.8329135 475.878809 26.0787654 478.049862 26.0787654"></polygon>
            <path d="M483.672289,28.738053 C484.918163,28.7460351 485.746559,27.8849958 485.746559,26.7596081 C485.746559,25.6502962 484.914062,24.857333 483.880618,24.853314 C483.25153,24.857333 482.706921,25.1456311 482.391147,25.6382394 L482.326351,25.6382394 C482.326351,24.3286362 482.847174,23.5517488 483.744466,23.5477298 C484.329264,23.5517488 484.701632,23.8921291 484.8181,24.3647247 L485.690786,24.3647247 C485.554633,23.4435652 484.813999,22.7787983 483.744466,22.7787983 C482.355058,22.7787983 481.481552,23.9321546 481.477451,25.9506511 C481.477451,28.0932429 482.598656,28.7300413 483.672289,28.738053 Z M482.430516,26.7836398 C482.438718,26.1388855 482.979225,25.5701633 483.688693,25.57416 C484.385037,25.5701633 484.889456,26.1108349 484.889456,26.7756019 C484.889456,27.4524257 484.365353,27.9971163 483.664087,28.0011352 C482.951339,27.9971163 482.434617,27.428394 482.430516,26.7836398 Z" id="Shape" fill="#FFFFFF" fill-rule="nonzero"></path>
            <path d="M486.988332,28.7139655 C487.296725,28.7099465 487.553445,28.457655 487.556726,28.1453252 C487.553445,27.8329135 487.296725,27.576603 486.988332,27.576603 C486.675838,27.576603 486.415837,27.8329135 486.419938,28.1453252 C486.415837,28.457655 486.675838,28.7099465 486.988332,28.7139655 Z" id="Path" fill="#FFFFFF" fill-rule="nonzero"></path>
            <polygon id="Path" fill="#FFFFFF" fill-rule="nonzero" points="490.080462 22.8589312 489.215158 22.8589312 487.773257 23.8040403 487.773257 24.6450669 489.159385 23.7399832 489.191372 23.7399832 489.191372 28.6579463 490.080462 28.6579463"></polygon>
            <path d="M492.883884,25.6142077 C493.664708,25.6222456 494.09695,25.0375295 494.101051,24.1724713 C494.09695,23.3234889 493.680292,22.7347539 492.883884,22.7387524 C492.110441,22.7347539 491.657694,23.3234889 491.665896,24.1724713 C491.657694,25.0335106 492.090757,25.6222456 492.883884,25.6142077 Z M492.322871,28.6579463 L493.052024,28.6579463 L497.032423,22.8589312 L496.303271,22.8589312 L492.322871,28.6579463 Z M492.322871,24.1724713 C492.326972,23.6558313 492.510696,23.3074131 492.883884,23.2994572 C493.271835,23.2954382 493.435874,23.6518124 493.435874,24.1724713 C493.435874,24.7051051 493.260353,25.0495864 492.883884,25.0535233 C492.510696,25.0495864 492.326972,24.7051051 492.322871,24.1724713 Z M495.32642,27.3362862 C495.32232,28.1893696 495.755382,28.7780226 496.543588,28.7780226 C497.325232,28.7780226 497.757474,28.1933886 497.761575,27.3362862 C497.757474,26.4792659 497.336715,25.8905309 496.543588,25.8945294 C495.770965,25.8905309 495.32232,26.4792659 495.32642,27.3362862 Z M495.983396,27.3362862 C495.987497,26.8116904 496.175321,26.4632721 496.543588,26.4552342 C496.93236,26.4552342 497.096398,26.8076714 497.096398,27.3362862 C497.096398,27.8609641 496.920057,28.2093824 496.543588,28.2093824 C496.17122,28.2093824 495.987497,27.8609641 495.983396,27.3362862 Z" id="Shape" fill="#FFFFFF" fill-rule="nonzero"></path>
            <rect id="Rectangle" fill="#5B6EB4" fill-rule="nonzero" x="370.727524" y="15.9040992" width="73.8174274" height="19.6846473"></rect>
            <path d="M394.480332,25.3259096 L387.936007,25.3259096 L387.936007,25.9426132 L390.82801,25.9426132 L390.82801,26.6314938 C389.494375,26.6995699 388.71355,27.1441149 388.71355,27.8969706 C388.71355,28.7099465 389.64283,29.1665483 391.204479,29.1625557 C392.746443,29.1665483 393.675722,28.7099465 393.679003,27.8969706 C393.675722,27.1441149 392.894077,26.7035889 391.580947,26.6314938 L391.580947,25.9426132 L394.480332,25.9426132 L394.480332,25.3259096 Z M388.280488,24.3487309 L388.545411,24.9494407 C389.790465,24.8052507 390.811606,24.2806548 391.20858,23.5196792 C391.596531,24.2806548 392.625874,24.8052507 393.871748,24.9494407 L394.144053,24.3487309 C392.830102,24.2165157 391.821264,23.6358186 391.7171,22.9389821 L393.895534,22.9389821 L393.895534,22.3302344 L388.537209,22.3302344 L388.537209,22.9389821 L390.691858,22.9389821 C390.587693,23.6317997 389.570653,24.2165157 388.280488,24.3487309 Z M389.482052,27.8969706 C389.477971,27.4524257 390.107059,27.2121909 391.204479,27.208172 C392.285494,27.2121909 392.918683,27.4524257 392.918683,27.8969706 C392.918683,28.3335597 392.285494,28.5858512 391.204479,28.5778133 C390.107059,28.5858512 389.477971,28.3335597 389.482052,27.8969706 Z" id="Shape" fill="#FFFFFF" fill-rule="nonzero"></path>
            <polygon id="Path" fill="#FFFFFF" fill-rule="nonzero" points="400.840113 25.3098338 396.602993 25.3098338 396.602993 23.1712609 400.776138 23.1712609 400.776138 22.5545573 395.841853 22.5545573 395.841853 25.9185815 397.916123 25.9185815 397.916123 27.6727297 395.024941 27.6727297 395.024941 28.2974712 401.593051 28.2974712 401.593051 27.6727297 398.669061 27.6727297 398.669061 25.9185815 400.840113 25.9185815"></polygon>
            <path d="M404.364485,28.4977625 L408.265326,28.4977625 L408.265326,27.7448247 L405.589855,27.7448247 L405.589855,27.6967613 L406.766833,26.5032976 C407.85687,25.4340111 408.161162,24.9173712 408.168544,24.268598 C408.161162,23.3274258 407.387719,22.6186145 406.270615,22.6186145 C405.164994,22.6186145 404.356284,23.3194699 404.364485,24.3807185 L405.196982,24.3807185 C405.201083,23.7640149 405.609539,23.3554764 406.254212,23.3554764 C406.863615,23.3554764 407.327845,23.7199705 407.327845,24.2926297 C407.327845,24.8012317 407.01125,25.1696627 406.37478,25.8304927 L404.364485,27.8569452 L404.364485,28.4977625 Z" id="Path" fill="#FFFFFF" fill-rule="nonzero"></path>
            <path d="M411.260674,28.5778133 C412.60251,28.5778133 413.387436,27.4965521 413.391537,25.5982139 C413.387436,23.7119326 412.590207,22.6186145 411.260674,22.6186145 C409.927039,22.6186145 409.129811,23.7119326 409.129811,25.5982139 C409.129811,27.4965521 409.918837,28.5778133 411.260674,28.5778133 Z M410.011519,25.5982139 C410.011519,24.1564775 410.479849,23.3675333 411.260674,23.3635143 C412.037397,23.3675333 412.509828,24.1564775 412.509828,25.5982139 C412.509828,27.0439692 412.041498,27.8169197 411.260674,27.8169197 C410.475748,27.8169197 410.007418,27.0439692 410.011519,25.5982139 Z" id="Shape" fill="#FFFFFF" fill-rule="nonzero"></path>
            <path d="M414.657095,28.5537817 C414.965488,28.5497627 415.221389,28.2974712 415.22549,27.9851414 C415.221389,27.6727297 414.965488,27.4164192 414.657095,27.4164192 C414.344602,27.4164192 414.08378,27.6727297 414.087881,27.9851414 C414.08378,28.2974712 414.344602,28.5497627 414.657095,28.5537817 Z" id="Path" fill="#FFFFFF" fill-rule="nonzero"></path>
            <path d="M418.124874,28.5778133 C419.33466,28.5778133 420.191762,27.7567995 420.191762,26.6154181 C420.191762,25.4980683 419.386332,24.6891113 418.293014,24.6850923 C417.85257,24.6891113 417.444113,24.8452761 417.203797,25.077555 L417.148024,25.077555 L417.339949,23.4516031 L419.894852,23.4516031 L419.894852,22.6986654 L416.610797,22.6986654 L416.234328,25.9266194 L417.067645,25.9266194 C417.263671,25.5701633 417.620455,25.4139984 418.084685,25.4139984 C418.813837,25.4220363 419.33466,25.9346573 419.33466,26.6394497 C419.33466,27.3283304 418.82942,27.8369324 418.124874,27.8409514 C417.540076,27.8369324 417.067645,27.4764573 417.019253,26.9839311 L416.162971,26.9839311 C416.20234,27.9090275 417.027455,28.5778133 418.124874,28.5778133 Z" id="Path" fill="#FFFFFF" fill-rule="nonzero"></path>
            <path d="M422.457957,25.4540239 C423.238781,25.4620618 423.671844,24.8773457 423.675945,24.0122875 C423.671844,23.163223 423.255185,22.5745701 422.457957,22.5785686 C421.685335,22.5745701 421.232588,23.163223 421.24079,24.0122875 C421.232588,24.8733268 421.66483,25.4620618 422.457957,25.4540239 Z M421.897765,28.4977625 L422.626097,28.4977625 L426.607317,22.6986654 L425.878165,22.6986654 L421.897765,28.4977625 Z M421.897765,24.0122875 C421.901866,23.4956475 422.085589,23.1472293 422.457957,23.1391914 C422.846729,23.1352544 423.010768,23.4916286 423.010768,24.0122875 C423.010768,24.5449212 422.834426,24.8893205 422.457957,24.8933395 C422.085589,24.8893205 421.901866,24.5449212 421.897765,24.0122875 Z M424.901314,27.1761024 C424.897213,28.0291858 425.329455,28.6178388 426.118481,28.6178388 C426.899306,28.6178388 427.332368,28.0331228 427.336469,27.1761024 C427.332368,26.3190821 426.911609,25.7303471 426.118481,25.7343456 C425.345859,25.7303471 424.897213,26.3190821 424.901314,27.1761024 Z M425.558289,27.1761024 C425.56157,26.6515066 425.750214,26.3030883 426.118481,26.2950504 C426.507253,26.2950504 426.671292,26.6474876 426.671292,27.1761024 C426.671292,27.7007803 426.49495,28.0491986 426.118481,28.0491986 C425.746113,28.0491986 425.56157,27.7007803 425.558289,27.1761024 Z" id="Shape" fill="#FFFFFF" fill-rule="nonzero"></path>
            <rect id="Rectangle" fill="#E2E6F6" fill-rule="nonzero" x="296.910097" y="15.9040992" width="73.8174274" height="19.6846473"></rect>
            <path d="M319.978043,22.1780885 L319.216903,22.1780885 L319.216903,23.4516031 L317.659355,23.4516031 C317.706927,23.2112864 317.735633,22.9549759 317.735633,22.6907095 L314.451578,22.6907095 L314.451578,23.315451 L316.910519,23.315451 C316.774367,24.4728262 315.781112,25.3859478 314.083311,25.8705182 L314.387603,26.4632721 C315.94105,26.0187272 317.018784,25.2057512 317.483014,24.0523129 L319.216903,24.0523129 L319.216903,24.9254091 L317.406736,24.9254091 L317.406736,25.5501506 L319.216903,25.5501506 L319.216903,26.4232467 L319.978043,26.4232467 L319.978043,22.1780885 Z M315.196314,27.9050085 C315.196314,28.7780226 316.141177,29.3146753 317.615065,29.3146753 C319.069268,29.3146753 320.022333,28.7780226 320.026434,27.9050085 C320.022333,27.0359313 319.069268,26.5073165 317.615065,26.5032976 C316.141177,26.5073165 315.196314,27.0359313 315.196314,27.9050085 Z M315.949252,27.9050085 C315.949252,27.3923875 316.589823,27.1000705 317.615065,27.1040074 C318.620622,27.1000705 319.261194,27.3923875 319.265295,27.9050085 C319.261194,28.4095916 318.620622,28.7019907 317.615065,28.7060096 C316.589823,28.7019907 315.949252,28.4095916 315.949252,27.9050085 Z" id="Shape" fill="#113287" fill-rule="nonzero"></path>
            <polygon id="Path" fill="#113287" fill-rule="nonzero" points="326.898017 25.4780555 322.660896 25.4780555 322.660896 23.3394826 326.834041 23.3394826 326.834041 22.722697 321.900577 22.722697 321.900577 26.0868033 323.974846 26.0868033 323.974846 27.8409514 321.083664 27.8409514 321.083664 28.4656929 327.650954 28.4656929 327.650954 27.8409514 324.727784 27.8409514 324.727784 26.0868033 326.898017 26.0868033"></polygon>
            <path d="M332.393314,28.7460351 C333.602279,28.7460351 334.459382,27.9250212 334.459382,26.7836398 C334.459382,25.66629 333.654772,24.857333 332.561454,24.853314 C332.12101,24.857333 331.712553,25.0134979 331.472237,25.2457767 L331.415643,25.2457767 L331.608389,23.6198248 L334.163292,23.6198248 L334.163292,22.8668871 L330.879237,22.8668871 L330.502768,26.0948412 L331.336084,26.0948412 C331.532111,25.738385 331.888075,25.5822201 332.353124,25.5822201 C333.082277,25.590176 333.602279,26.102797 333.602279,26.8076714 C333.602279,27.4965521 333.09786,28.0051542 332.393314,28.0091731 C331.808516,28.0051542 331.336084,27.644679 331.287693,27.1520707 L330.430591,27.1520707 C330.47078,28.0772492 331.295895,28.7460351 332.393314,28.7460351 Z" id="Path" fill="#113287" fill-rule="nonzero"></path>
            <path d="M335.396863,28.6659021 L339.297704,28.6659021 L339.297704,27.9130464 L336.622232,27.9130464 L336.622232,27.8649831 L337.80003,26.6715193 C338.889248,25.6022329 339.193539,25.0855929 339.200921,24.4368197 C339.193539,23.4956475 338.420097,22.7868362 337.302993,22.7868362 C336.197372,22.7868362 335.388661,23.4876916 335.396863,24.5489402 L336.22936,24.5489402 C336.233461,23.9321546 336.641917,23.5236981 337.287409,23.5236981 C337.895993,23.5236981 338.360223,23.8881102 338.360223,24.4608514 C338.360223,24.9694535 338.043628,25.3378844 337.407158,25.9987145 L335.396863,28.0251669 L335.396863,28.6659021 Z" id="Path" fill="#113287" fill-rule="nonzero"></path>
            <path d="M340.842949,28.7220034 C341.151342,28.7179844 341.408062,28.4656929 341.412163,28.1532811 C341.408062,27.8409514 341.151342,27.5846409 340.842949,27.5846409 C340.531275,27.5846409 340.270454,27.8409514 340.274555,28.1532811 C340.270454,28.4656929 340.531275,28.7179844 340.842949,28.7220034 Z" id="Path" fill="#113287" fill-rule="nonzero"></path>
            <path d="M344.287762,28.7460351 C345.489346,28.7460351 346.381716,28.0371417 346.377643,27.0720199 C346.381716,26.3390948 345.921588,25.8064611 345.128461,25.6943406 L345.128461,25.6543151 C345.753448,25.4980683 346.161905,25.0255547 346.153703,24.3647247 C346.161905,23.5077044 345.445055,22.7868362 344.303346,22.7868362 C343.222331,22.7868362 342.348824,23.4275714 342.325039,24.3727626 L343.173939,24.3727626 C343.194444,23.8480847 343.714447,23.5236981 344.295144,23.5236981 C344.908649,23.5236981 345.304802,23.8841732 345.304802,24.412788 C345.304802,24.9694535 344.843853,25.3378844 344.183598,25.3338655 L343.68656,25.3338655 L343.68656,26.0547337 L344.183598,26.0547337 C345.011993,26.0587526 345.489346,26.4672911 345.489346,27.0399503 C345.489346,27.6046536 344.980006,27.9851414 344.27956,27.9851414 C343.630787,27.9851414 343.126368,27.6606728 343.09438,27.1520707 L342.197089,27.1520707 C342.233177,28.1012808 343.086178,28.7460351 344.287762,28.7460351 Z" id="Path" fill="#113287" fill-rule="nonzero"></path>
            <path d="M348.676618,25.6222456 C349.457443,25.6302835 349.890505,25.0455674 349.894606,24.1805092 C349.890505,23.3314447 349.473846,22.7427918 348.676618,22.7467091 C347.903996,22.7427918 347.451249,23.3314447 347.459451,24.1805092 C347.451249,25.0415485 347.883491,25.6302835 348.676618,25.6222456 Z M348.116426,28.6659021 L348.844758,28.6659021 L352.825978,22.8668871 L352.096826,22.8668871 L348.116426,28.6659021 Z M348.116426,24.1805092 C348.120527,23.6638692 348.30425,23.315451 348.676618,23.3074131 C349.06539,23.3033941 349.229429,23.6598503 349.229429,24.1805092 C349.229429,24.7131429 349.053087,25.0575423 348.676618,25.0615612 C348.30425,25.0575423 348.120527,24.7131429 348.116426,24.1805092 Z M351.119975,27.3443241 C351.115874,28.1973255 351.548116,28.7860605 352.337142,28.7860605 C353.117967,28.7860605 353.551029,28.2013445 353.55431,27.3443241 C353.551029,26.4873038 353.13027,25.8985688 352.337142,25.9025673 C351.56452,25.8985688 351.115874,26.4873038 351.119975,27.3443241 Z M351.77695,27.3443241 C351.780231,26.8197283 351.968876,26.47131 352.337142,26.4632721 C352.725914,26.4632721 352.889953,26.8157093 352.889953,27.3443241 C352.889953,27.869002 352.713611,28.2174203 352.337142,28.2174203 C351.964775,28.2174203 351.780231,27.869002 351.77695,27.3443241 Z" id="Shape" fill="#113287" fill-rule="nonzero"></path>
            <polygon id="Path" fill="#113287" points="295.679806 52.4923633 295.679806 0 297.320194 0 297.320194 52.4923633"></polygon>
            <path d="M271.343021,63.1688239 L268.733165,60.5590497 C268.573227,60.3988659 268.573227,60.1391926 268.733165,59.9790908 L271.343021,57.3692347 C271.503779,57.2090508 271.76296,57.2090508 271.923718,57.3692347 C272.083656,57.5293364 272.083656,57.7890098 271.923718,57.9491936 L270.013487,59.8589324 L284.607192,59.8589324 L284.607192,60.6791261 L270.013487,60.6791261 L271.923718,62.5888649 C272.083656,62.7490488 272.083656,63.0087221 271.923718,63.1688239 C271.76296,63.3290077 271.503779,63.3290077 271.343021,63.1688239 Z" id="Path" fill="#113287"></path>
            <path d="M322.477173,57.3691526 L325.087029,59.9790088 C325.246967,60.1391926 325.246967,60.3987839 325.087029,60.5589677 L322.477173,63.1688239 C322.316415,63.3289257 322.057234,63.3289257 321.896476,63.1688239 C321.736538,63.00864 321.736538,62.7489667 321.896476,62.5888649 L323.806707,60.6791261 L309.213001,60.6791261 L309.213001,59.8589324 L323.806707,59.8589324 L321.896476,57.9491116 C321.736538,57.7890098 321.736538,57.5293364 321.896476,57.3691526 C322.057234,57.2090508 322.316415,57.2090508 322.477173,57.3691526 Z" id="Path" fill="#113287"></path>
            <polygon id="Path" fill="#001A5B" fill-rule="nonzero" points="586.811639 15.9040992 563.183501 15.9040992 563.183501 35.5887465 586.811639 35.5887465 593 25.7464229"></polygon>
            <rect id="Rectangle" fill="#001A5B" fill-rule="nonzero" transform="translate(551.170124, 25.746423) scale(-1, 1) translate(-551.170124, -25.746423) " x="518.362379" y="15.9040992" width="65.615491" height="19.6846473"></rect>
            <path d="M541.037452,28.0451796 L538.122484,28.0451796 L538.122484,26.4832849 L537.369546,26.4832849 L537.369546,28.0451796 L534.470162,28.0451796 L534.470162,28.6699211 L541.037452,28.6699211 L541.037452,28.0451796 Z M534.790037,26.1388855 L535.078746,26.7315575 C536.280329,26.543323 537.277685,25.9746828 537.741914,25.1376752 C538.210245,25.9746828 539.211701,26.543323 540.413285,26.7315575 L540.701173,26.1388855 C539.227285,25.9226005 538.166775,25.0896118 538.130686,24.0803636 L540.428869,24.0803636 L540.428869,23.46366 L538.122484,23.46366 L538.122484,22.502475 L537.369546,22.502475 L537.369546,23.46366 L535.062342,23.46366 L535.062342,24.0803636 L537.361344,24.0803636 C537.325256,25.0896118 536.263925,25.9226005 534.790037,26.1388855 Z" id="Shape" fill="#FFFFFF" fill-rule="nonzero"></path>
            <path d="M547.365246,23.0631594 L542.247238,23.0631594 L542.247238,23.679863 L546.604927,23.679863 L546.604927,23.7680338 C546.600826,24.6290731 546.600826,25.6462773 546.32442,27.0359313 L547.092942,27.1160642 C547.361145,25.6462773 547.361145,24.6531048 547.365246,23.7680338 L547.365246,23.0631594 Z M541.558275,28.5818323 L548.1026,28.5818323 L548.1026,27.9490529 L544.802141,27.9490529 L544.802141,25.4180174 L544.049203,25.4180174 L544.049203,27.9490529 L541.558275,27.9490529 L541.558275,28.5818323 Z" id="Shape" fill="#FFFFFF" fill-rule="nonzero"></path>
            <polygon id="Path" fill="#FFFFFF" fill-rule="nonzero" points="554.462382 25.6822838 550.225261 25.6822838 550.225261 23.5437109 554.398407 23.5437109 554.398407 22.9270073 549.464122 22.9270073 549.464122 26.2910315 551.538391 26.2910315 551.538391 28.0451796 548.647209 28.0451796 548.647209 28.6699211 555.21532 28.6699211 555.21532 28.0451796 552.291329 28.0451796 552.291329 26.2910315 554.462382 26.2910315"></polygon>
            <path d="M560.00443,28.9502633 C561.346267,28.9502633 562.131192,27.869002 562.135293,25.9706638 C562.131192,24.0843825 561.334784,22.9910644 560.00443,22.9910644 C558.671615,22.9910644 557.874387,24.0843825 557.874387,25.9706638 C557.874387,27.869002 558.663414,28.9502633 560.00443,28.9502633 Z M558.755275,25.9706638 C558.755275,24.5289275 559.223606,23.7399832 560.00443,23.7359642 C560.781974,23.7399832 561.254405,24.5289275 561.254405,25.9706638 C561.254405,27.4164192 560.786075,28.1893696 560.00443,28.1893696 C559.219505,28.1893696 558.751174,27.4164192 558.755275,25.9706638 Z" id="Shape" fill="#FFFFFF" fill-rule="nonzero"></path>
            <path d="M563.400852,28.9262316 C563.709245,28.9222127 563.965965,28.6699211 563.969246,28.3575914 C563.965965,28.0451796 563.709245,27.7888691 563.400852,27.7888691 C563.088358,27.7888691 562.828357,28.0451796 562.832458,28.3575914 C562.828357,28.6699211 563.088358,28.9222127 563.400852,28.9262316 Z" id="Path" fill="#FFFFFF" fill-rule="nonzero"></path>
            <path d="M566.821059,28.9502633 C568.062833,28.9502633 568.947822,28.2694205 568.951923,27.3243114 C568.947822,26.5794116 568.411415,25.9706638 567.733935,25.8664992 L567.733935,25.8345117 C568.318733,25.6983595 568.723089,25.1696627 568.727189,24.5369654 C568.723089,23.6438565 567.914378,22.9910644 566.821059,22.9910644 C565.711337,22.9910644 564.906728,23.6438565 564.906728,24.5369654 C564.906728,25.1696627 565.302881,25.6983595 565.899982,25.8345117 L565.899982,25.8664992 C565.21512,25.9706638 564.682815,26.5794116 564.690196,27.3243114 C564.682815,28.2694205 565.559602,28.9502633 566.821059,28.9502633 Z M565.587488,27.2602543 C565.575185,26.6634814 566.100109,26.2269743 566.821059,26.2269743 C567.533808,26.2269743 568.054631,26.6634814 568.054631,27.2602543 C568.054631,27.8288945 567.573997,28.2213572 566.821059,28.2213572 C566.055819,28.2213572 565.575185,27.8288945 565.587488,27.2602543 Z M565.76383,24.6170163 C565.767931,24.0763446 566.184589,23.7079136 566.821059,23.7119326 C567.441946,23.7079136 567.865986,24.0763446 567.862724,24.6170163 C567.865986,25.1617068 567.425542,25.5341568 566.821059,25.5301378 C566.200173,25.5341568 565.767931,25.1576879 565.76383,24.6170163 Z" id="Shape" fill="#FFFFFF" fill-rule="nonzero"></path>
            <path d="M571.194332,25.8264738 C571.975156,25.8345117 572.408219,25.2497956 572.411499,24.3847374 C572.408219,23.535673 571.99156,22.94702 571.194332,22.9510185 C570.42171,22.94702 569.968963,23.535673 569.977165,24.3847374 C569.968963,25.2457767 570.401205,25.8345117 571.194332,25.8264738 Z M570.63332,28.8702124 L571.362472,28.8702124 L575.343692,23.0711153 L574.614539,23.0711153 L570.63332,28.8702124 Z M570.63332,24.3847374 C570.63742,23.8680974 570.821964,23.5196792 571.194332,23.5117233 C571.583104,23.5077044 571.747142,23.8640785 571.747142,24.3847374 C571.747142,24.9173712 571.570801,25.2617705 571.194332,25.2657894 C570.821964,25.2617705 570.63742,24.9173712 570.63332,24.3847374 Z M573.637689,27.5485524 C573.633588,28.4016358 574.06583,28.9902887 574.854856,28.9902887 C575.63568,28.9902887 576.067923,28.4055727 576.072024,27.5485524 C576.067923,26.691532 575.647983,26.102797 574.854856,26.1067955 C574.082234,26.102797 573.633588,26.691532 573.637689,27.5485524 Z M574.293844,27.5485524 C574.297945,27.0239565 574.486589,26.6755382 574.854856,26.6675003 C575.243628,26.6675003 575.407667,27.0199376 575.407667,27.5485524 C575.407667,28.0732302 575.231325,28.4216485 574.854856,28.4216485 C574.482488,28.4216485 574.297945,28.0732302 574.293844,27.5485524 Z" id="Shape" fill="#FFFFFF" fill-rule="nonzero"></path>
            <polygon id="Path" fill="#979797" points="370.317427 52.4923633 370.317427 0 371.137621 0 371.137621 52.4923633"></polygon>
            <polygon id="Path" fill="#979797" points="444.134855 52.4923633 444.134855 0 444.955048 0 444.955048 52.4923633"></polygon>
            <polygon id="Path" fill="#979797" points="517.952282 52.4923633 517.952282 0 518.772476 0 518.772476 52.4923633"></polygon>
        </g>
    </g>
</svg>