<svg width="593" height="74" viewBox="0 0 593 74" fill="none" xmlns="http://www.w3.org/2000/svg">
<rect width="593" height="74" fill="#727272"/>
<path d="M-340 -1571C-340 -1572.1 -339.105 -1573 -338 -1573H2975C2976.1 -1573 2977 -1572.1 2977 -1571V399C2977 400.105 2976.1 401 2975 401H-338C-339.105 401 -340 400.105 -340 399V-1571Z" fill="white"/>
<path fill-rule="evenodd" clip-rule="evenodd" d="M111.957 40.0133V12.5232H112.777V40.0133H111.957Z" fill="#979797"/>
<path d="M6.18832 15.9041H29.8162V35.5887H6.18832L0 25.7464L6.18832 15.9041Z" fill="#001A5B"/>
<path d="M292.134 62.8018C293.255 62.8089 294.002 62.034 294.002 61.0212C294.002 60.0228 293.252 59.3091 292.322 59.3055C291.756 59.3091 291.266 59.5686 290.981 60.012H290.924C290.924 58.8334 291.392 58.1341 292.199 58.1305C292.726 58.1341 293.061 58.4405 293.165 58.8658H293.951C293.829 58.0368 293.162 57.4385 292.199 57.4385C290.948 57.4385 290.162 58.4765 290.159 60.2931C290.159 62.2214 291.169 62.7945 292.134 62.8018ZM291.017 61.0428C291.024 60.4625 291.511 59.9507 292.149 59.9543C292.776 59.9507 293.23 60.4373 293.23 61.0356C293.23 61.6448 292.758 62.1349 292.127 62.1385C291.485 62.1349 291.02 61.6231 291.017 61.0428Z" fill="#001A5B"/>
<path d="M296.662 62.8017C297.869 62.8017 298.575 61.8286 298.579 60.1201C298.575 58.4225 297.858 57.4385 296.662 57.4385C295.461 57.4385 294.744 58.4225 294.744 60.1201C294.744 61.8286 295.454 62.8017 296.662 62.8017ZM295.537 60.1201C295.537 58.8226 295.959 58.1125 296.662 58.1089C297.36 58.1125 297.786 58.8226 297.786 60.1201C297.786 61.4213 297.364 62.1169 296.662 62.1169C295.955 62.1169 295.533 61.4213 295.537 60.1201Z" fill="#001A5B"/>
<path d="M301.167 62.7296C302.756 62.7296 303.672 61.742 303.676 60.1128C303.672 58.4873 302.756 57.5105 301.217 57.5105H299.473V62.7296H301.167ZM300.265 62.0376V58.2025H301.167C302.306 58.2025 302.89 58.8837 302.89 60.1128C302.89 61.3455 302.306 62.0339 301.123 62.0376H300.265Z" fill="#001A5B"/>
<path d="M275.659 66.5808H275.153V69.9512H273.973V70.3165H275.153V70.906H275.659V66.5808ZM270.93 69.2208L271 69.6309C271.478 69.6309 272.025 69.6309 272.602 69.6085V70.7074H273.108V69.5828C273.631 69.5508 274.166 69.4996 274.672 69.4194L274.64 69.0542C273.419 69.2048 271.99 69.2144 270.93 69.2208ZM271.391 67.8046C271.388 68.4134 271.958 68.7915 272.801 68.7915C273.637 68.7915 274.207 68.4134 274.21 67.8046C274.207 67.2055 273.637 66.8114 272.801 66.8114C271.958 66.8114 271.388 67.2055 271.391 67.8046ZM271.75 72.1491H275.8V71.7262H272.256V70.4831H271.75V72.1491ZM271.872 67.8046C271.866 67.4394 272.244 67.1895 272.801 67.196C273.343 67.1895 273.727 67.4394 273.73 67.8046C273.727 68.1763 273.343 68.4166 272.801 68.4198C272.244 68.4166 271.866 68.1763 271.872 67.8046Z" fill="#001A5B"/>
<path d="M280.304 68.1057V67.0676H279.805V68.1057C279.798 69.1854 279.096 70.2748 278.247 70.6624L278.568 71.0853C279.234 70.7489 279.795 70.028 280.057 69.1694C280.33 69.98 280.891 70.656 281.541 70.97L281.849 70.5727C281.009 70.1914 280.301 69.147 280.304 68.1057ZM282.47 72.2836H282.977V66.5742H282.47V72.2836Z" fill="#001A5B"/>
<path d="M314.862 67.7405H310.991V68.1506H314.361V68.1826C314.365 68.6664 314.365 69.2271 314.211 70.0153H310.331V70.4382H315.547V70.0153H314.711C314.862 69.2399 314.862 68.6632 314.862 68.1826V67.7405ZM311.023 72.9628H315.035V72.5399H311.523V71.0789H311.023V72.9628Z" fill="#001A5B"/>
<path d="M319.674 68.926V67.888H319.174V68.926C319.168 70.0057 318.466 71.0951 317.617 71.4827L317.937 71.9056C318.603 71.5692 319.164 70.8484 319.427 69.9897C319.699 70.8003 320.26 71.4763 320.911 71.7903L321.218 71.393C320.378 71.0117 319.67 69.9673 319.674 68.926ZM321.84 73.1039H322.346V67.3945H321.84V73.1039Z" fill="#001A5B"/>
<path d="M70.563 63.622C71.6516 63.622 72.4229 62.8831 72.4229 61.8558C72.4229 60.8502 71.6984 60.1221 70.7144 60.1186C70.3179 60.1221 69.9503 60.2627 69.734 60.4718H69.6836L69.8566 59.0084H72.1561V58.3308H69.2006L68.8617 61.2359H69.6115C69.7881 60.9151 70.1089 60.7746 70.527 60.7746C71.183 60.7817 71.6516 61.2431 71.6516 61.8775C71.6516 62.4974 71.1974 62.9551 70.563 62.9588C70.0368 62.9551 69.6115 62.6308 69.5682 62.1874H68.7969C68.833 63.02 69.5754 63.622 70.563 63.622Z" fill="#001A5B"/>
<path d="M73.1511 62.5335H75.6886V63.5499H76.4383V62.5335H77.1519V61.8631H76.4383V58.3308H75.4579L73.1511 61.8919V62.5335ZM73.9873 61.8631V61.8198L75.6309 59.2751H75.6886V61.8631H73.9873Z" fill="#001A5B"/>
<path d="M79.7182 63.5499C81.3077 63.5499 82.2236 62.5623 82.2269 60.9331C82.2236 59.3076 81.3077 58.3308 79.7687 58.3308H78.0242V63.5499H79.7182ZM78.8171 62.8579V59.0228H79.7182C80.8572 59.0228 81.4411 59.7041 81.4411 60.9331C81.4411 62.1658 80.8572 62.8543 79.675 62.8579H78.8171Z" fill="#001A5B"/>
<path d="M144.424 63.622C145.512 63.622 146.284 62.8831 146.284 61.8558C146.284 60.8502 145.559 60.1221 144.576 60.1186C144.179 60.1221 143.811 60.2627 143.595 60.4718H143.545L143.718 59.0084H146.017V58.3308H143.062L142.723 61.2359H143.472C143.649 60.9151 143.969 60.7746 144.388 60.7746C145.044 60.7817 145.512 61.2431 145.512 61.8775C145.512 62.4974 145.058 62.9551 144.424 62.9588C143.897 62.9551 143.472 62.6308 143.429 62.1874H142.658C142.694 63.02 143.436 63.622 144.424 63.622Z" fill="#001A5B"/>
<path d="M149.016 63.6218C150.137 63.629 150.883 62.8541 150.883 61.8412C150.883 60.8429 150.133 60.1292 149.203 60.1256C148.637 60.1292 148.148 60.3887 147.862 60.8321H147.805C147.805 59.6535 148.273 58.9542 149.081 58.9505C149.607 58.9542 149.942 59.2606 150.046 59.6858H150.832C150.71 58.8569 150.043 58.2585 149.081 58.2585C147.83 58.2585 147.044 59.2966 147.04 61.1131C147.04 63.0415 148.05 63.6146 149.016 63.6218ZM147.898 61.8629C147.906 61.2826 148.392 60.7708 149.03 60.7744C149.658 60.7708 150.112 61.2573 150.112 61.8557C150.112 62.4648 149.639 62.955 149.009 62.9586C148.367 62.955 147.902 62.4432 147.898 61.8629Z" fill="#001A5B"/>
<path d="M153.493 63.5499C155.082 63.5499 155.997 62.5623 156.001 60.9331C155.997 59.3076 155.082 58.3308 153.543 58.3308H151.798V63.5499H153.493ZM152.591 62.8579V59.0228H153.493C154.631 59.0228 155.215 59.7041 155.215 60.9331C155.215 62.1658 154.631 62.8543 153.449 62.8579H152.591Z" fill="#001A5B"/>
<path d="M218.259 63.622C219.348 63.622 220.119 62.8831 220.119 61.8558C220.119 60.8502 219.394 60.1221 218.411 60.1186C218.014 60.1221 217.647 60.2627 217.43 60.4718H217.38L217.553 59.0084H219.852V58.3308H216.897L216.558 61.2359H217.308C217.484 60.9151 217.805 60.7746 218.223 60.7746C218.879 60.7817 219.348 61.2431 219.348 61.8775C219.348 62.4974 218.893 62.9551 218.259 62.9588C217.733 62.9551 217.308 62.6308 217.264 62.1874H216.493C216.529 63.02 217.272 63.622 218.259 63.622Z" fill="#001A5B"/>
<path d="M222.786 63.6218C223.904 63.6218 224.7 63.0091 224.704 62.1585C224.7 61.4881 224.217 60.9402 223.608 60.8464V60.8176C224.134 60.6951 224.499 60.2193 224.502 59.6498C224.499 58.8461 223.77 58.2585 222.786 58.2585C221.788 58.2585 221.064 58.8461 221.064 59.6498C221.064 60.2193 221.42 60.6951 221.958 60.8176V60.8464C221.341 60.9402 220.862 61.4881 220.869 62.1585C220.862 63.0091 221.651 63.6218 222.786 63.6218ZM221.676 62.1007C221.666 61.5638 222.137 61.1709 222.786 61.1709C223.428 61.1709 223.897 61.5638 223.897 62.1007C223.897 62.6126 223.464 62.9658 222.786 62.9658C222.098 62.9658 221.666 62.6126 221.676 62.1007ZM221.835 59.7219C221.839 59.2353 222.214 58.9037 222.786 58.9073C223.345 58.9037 223.727 59.2353 223.724 59.7219C223.727 60.2121 223.331 60.5473 222.786 60.5437C222.227 60.5473 221.839 60.2085 221.835 59.7219Z" fill="#001A5B"/>
<path d="M227.292 63.5499C228.882 63.5499 229.797 62.5623 229.8 60.9331C229.797 59.3076 228.882 58.3308 227.342 58.3308H225.598V63.5499H227.292ZM226.391 62.8579V59.0228H227.292C228.431 59.0228 229.015 59.7041 229.015 60.9331C229.015 62.1658 228.431 62.8543 227.249 62.8579H226.391Z" fill="#001A5B"/>
<path d="M365.926 62.8018C367.047 62.8089 367.794 62.034 367.794 61.0212C367.794 60.0228 367.044 59.3091 366.114 59.3055C365.548 59.3091 365.058 59.5686 364.773 60.012H364.716C364.716 58.8334 365.184 58.1341 365.992 58.1305C366.518 58.1341 366.853 58.4405 366.957 58.8658H367.743C367.621 58.0368 366.954 57.4385 365.992 57.4385C364.741 57.4385 363.955 58.4765 363.951 60.2931C363.951 62.2214 364.961 62.7945 365.926 62.8018ZM364.809 61.0428C364.816 60.4625 365.303 59.9507 365.941 59.9543C366.568 59.9507 367.022 60.4373 367.022 61.0356C367.022 61.6448 366.55 62.1349 365.92 62.1385C365.277 62.1349 364.813 61.6231 364.809 61.0428Z" fill="#001A5B"/>
<path d="M370.49 62.8017C371.571 62.8017 372.374 62.1638 372.371 61.2951C372.374 60.6355 371.96 60.1562 371.247 60.0552V60.0192C371.809 59.8786 372.177 59.4533 372.169 58.8586C372.177 58.0872 371.531 57.4385 370.504 57.4385C369.531 57.4385 368.745 58.0152 368.724 58.8658H369.487C369.505 58.3936 369.975 58.1017 370.497 58.1017C371.048 58.1017 371.405 58.4261 371.405 58.9019C371.405 59.4028 370.991 59.7344 370.396 59.7308H369.949V60.3796H370.396C371.142 60.3832 371.571 60.7508 371.571 61.2663C371.571 61.7745 371.113 62.1169 370.482 62.1169C369.898 62.1169 369.445 61.825 369.415 61.3672H368.608C368.641 62.2214 369.409 62.8017 370.49 62.8017Z" fill="#001A5B"/>
<path d="M375.01 62.7296C376.599 62.7296 377.515 61.742 377.518 60.1128C377.515 58.4873 376.599 57.5105 375.06 57.5105H373.315V62.7296H375.01ZM374.108 62.0376V58.2025H375.01C376.148 58.2025 376.732 58.8837 376.732 60.1128C376.732 61.3455 376.148 62.0339 374.966 62.0376H374.108Z" fill="#001A5B"/>
<path d="M439.748 62.8018C440.869 62.8089 441.615 62.034 441.615 61.0212C441.615 60.0228 440.865 59.3091 439.935 59.3055C439.369 59.3091 438.879 59.5686 438.595 60.012H438.536C438.536 58.8334 439.005 58.1341 439.813 58.1305C440.339 58.1341 440.674 58.4405 440.779 58.8658H441.564C441.441 58.0368 440.775 57.4385 439.813 57.4385C438.562 57.4385 437.776 58.4765 437.773 60.2931C437.773 62.2214 438.782 62.7945 439.748 62.8018ZM438.631 61.0428C438.637 60.4625 439.124 59.9507 439.762 59.9543C440.389 59.9507 440.844 60.4373 440.844 61.0356C440.844 61.6448 440.371 62.1349 439.74 62.1385C439.099 62.1349 438.634 61.6231 438.631 61.0428Z" fill="#001A5B"/>
<path d="M444.346 62.8018C445.468 62.8089 446.214 62.034 446.214 61.0212C446.214 60.0228 445.464 59.3091 444.534 59.3055C443.968 59.3091 443.478 59.5686 443.193 60.012H443.136C443.136 58.8334 443.604 58.1341 444.411 58.1305C444.938 58.1341 445.273 58.4405 445.377 58.8658H446.163C446.041 58.0368 445.374 57.4385 444.411 57.4385C443.16 57.4385 442.375 58.4765 442.371 60.2931C442.371 62.2214 443.381 62.7945 444.346 62.8018ZM443.229 61.0428C443.237 60.4625 443.723 59.9507 444.361 59.9543C444.989 59.9507 445.442 60.4373 445.442 61.0356C445.442 61.6448 444.971 62.1349 444.34 62.1385C443.698 62.1349 443.233 61.6231 443.229 61.0428Z" fill="#001A5B"/>
<path d="M448.823 62.7296C450.413 62.7296 451.329 61.742 451.332 60.1128C451.329 58.4873 450.413 57.5105 448.874 57.5105H447.129V62.7296H448.823ZM447.923 62.0376V58.2025H448.823C449.962 58.2025 450.546 58.8837 450.546 60.1128C450.546 61.3455 449.962 62.0339 448.78 62.0376H447.923Z" fill="#001A5B"/>
<path d="M513.565 62.8019C514.686 62.809 515.432 62.0341 515.432 61.0212C515.432 60.0228 514.682 59.3092 513.752 59.3056C513.186 59.3092 512.697 59.5687 512.412 60.012H512.354C512.354 58.8334 512.823 58.1342 513.63 58.1306C514.157 58.1342 514.491 58.4405 514.596 58.8659H515.382C515.259 58.0368 514.592 57.4385 513.63 57.4385C512.379 57.4385 511.593 58.4766 511.59 60.2932C511.59 62.2215 512.599 62.7946 513.565 62.8019ZM512.448 61.0429C512.455 60.4625 512.942 59.9507 513.579 59.9543C514.206 59.9507 514.661 60.4373 514.661 61.0357C514.661 61.6448 514.188 62.135 513.558 62.1386C512.916 62.135 512.451 61.6232 512.448 61.0429Z" fill="#001A5B"/>
<path d="M518.07 57.4383C516.935 57.4311 516.196 58.2097 516.196 59.2045C516.196 60.2029 516.946 60.9202 517.883 60.9202C518.445 60.9202 518.936 60.6535 519.217 60.2137H519.282C519.274 61.4068 518.802 62.1061 517.998 62.1096C517.473 62.1061 517.133 61.7996 517.026 61.3599H516.24C516.365 62.2069 517.036 62.8017 517.998 62.8017C519.249 62.8017 520.038 61.7636 520.038 59.9325C520.035 58.0222 519.029 57.4455 518.07 57.4383ZM516.967 59.1901C516.964 58.5918 517.44 58.1015 518.07 58.1015C518.709 58.1015 519.174 58.6169 519.174 59.1829C519.174 59.7596 518.687 60.275 518.056 60.2714C517.422 60.275 516.971 59.7957 516.967 59.1901Z" fill="#001A5B"/>
<path d="M522.64 62.7296C524.23 62.7296 525.146 61.742 525.149 60.1129C525.146 58.4873 524.23 57.5105 522.691 57.5105H520.947V62.7296H522.64ZM521.74 62.0376V58.2026H522.64C523.78 58.2026 524.364 58.8837 524.364 60.1129C524.364 61.3456 523.78 62.034 522.598 62.0376H521.74Z" fill="#001A5B"/>
<path fill-rule="evenodd" clip-rule="evenodd" d="M38.1389 40.0133V12.5232H38.9591V40.0133H38.1389Z" fill="#979797"/>
<path fill-rule="evenodd" clip-rule="evenodd" d="M185.774 40.0133V12.5232H186.594V40.0133H185.774Z" fill="#979797"/>
<path fill-rule="evenodd" clip-rule="evenodd" d="M259.591 40.0133V12.5232H260.411V40.0133H259.591Z" fill="#979797"/>
<path fill-rule="evenodd" clip-rule="evenodd" d="M321.106 40.0133V12.5232H321.926V40.0133H321.106Z" fill="#979797"/>
<path fill-rule="evenodd" clip-rule="evenodd" d="M345.712 40.0133V12.5232H346.532V40.0133H345.712Z" fill="#979797"/>
<path fill-rule="evenodd" clip-rule="evenodd" d="M394.923 40.0133V12.5232H395.744V40.0133H394.923Z" fill="#979797"/>
<path fill-rule="evenodd" clip-rule="evenodd" d="M419.529 40.0133V12.5232H420.349V40.0133H419.529Z" fill="#979797"/>
<path fill-rule="evenodd" clip-rule="evenodd" d="M468.741 40.0133V12.5232H469.561V40.0133H468.741Z" fill="#979797"/>
<path fill-rule="evenodd" clip-rule="evenodd" d="M493.346 40.0133V12.5232H494.167V40.0133H493.346Z" fill="#979797"/>
<path fill-rule="evenodd" clip-rule="evenodd" d="M542.558 40.0133V12.5232H543.378V40.0133H542.558Z" fill="#979797"/>
<path fill-rule="evenodd" clip-rule="evenodd" d="M567.164 40.0133V12.5232H567.984V40.0133H567.164Z" fill="#979797"/>
<path d="M296.91 15.9041H223.093V35.5887H296.91V15.9041Z" fill="#E2E6F6"/>
<path d="M223.093 15.9041H149.275V35.5887H223.093V15.9041Z" fill="#5B6EB4"/>
<path d="M149.275 15.9041H75.4578V35.5887H149.275V15.9041Z" fill="#113287"/>
<path d="M75.4579 15.9041H9.02222V35.5887H75.4579V15.9041Z" fill="#001A5B"/>
<path fill-rule="evenodd" clip-rule="evenodd" d="M148.865 52.4924V3.58518e-08L149.685 0V52.4924H148.865Z" fill="#979797"/>
<path fill-rule="evenodd" clip-rule="evenodd" d="M222.683 52.4924V3.58518e-08L223.503 0V52.4924H222.683Z" fill="#979797"/>
<path fill-rule="evenodd" clip-rule="evenodd" d="M75.0476 52.4924V3.58518e-08L75.8678 0V52.4924H75.0476Z" fill="#979797"/>
<path d="M518.362 15.9041H444.545V35.5887H518.362V15.9041Z" fill="#113287"/>
<path d="M444.545 15.9041H370.728V35.5887H444.545V15.9041Z" fill="#5B6EB4"/>
<path d="M370.728 15.9041H296.91V35.5887H370.728V15.9041Z" fill="#E2E6F6"/>
<path fill-rule="evenodd" clip-rule="evenodd" d="M295.68 52.4924V7.17035e-08L297.32 0V52.4924H295.68Z" fill="#113287"/>
<path fill-rule="evenodd" clip-rule="evenodd" d="M271.343 63.1688L268.733 60.5589C268.573 60.3988 268.573 60.1391 268.733 59.979L271.343 57.3691C271.504 57.209 271.763 57.209 271.924 57.3691C272.084 57.5293 272.084 57.789 271.924 57.9491L270.014 59.8589H284.607V60.6791H270.014L271.924 62.5888C272.084 62.749 272.084 63.0086 271.924 63.1688C271.763 63.329 271.504 63.329 271.343 63.1688Z" fill="#113287"/>
<path fill-rule="evenodd" clip-rule="evenodd" d="M322.477 57.3692L325.087 59.979C325.247 60.1391 325.247 60.3988 325.087 60.559L322.477 63.1688C322.316 63.3289 322.057 63.3289 321.896 63.1688C321.736 63.0086 321.736 62.749 321.896 62.5888L323.807 60.6791H309.213V59.8589H323.807L321.896 57.9491C321.736 57.7889 321.736 57.5293 321.896 57.3692C322.057 57.209 322.316 57.209 322.477 57.3692Z" fill="#113287"/>
<path d="M586.812 15.9041H563.184V35.5887H586.812L593 25.7464L586.812 15.9041Z" fill="#001A5B"/>
<path d="M518.363 15.9041H583.978V35.5887H518.363V15.9041Z" fill="#001A5B"/>
<path fill-rule="evenodd" clip-rule="evenodd" d="M370.317 52.4924V3.58518e-08L371.138 0V52.4924H370.317Z" fill="#979797"/>
<path fill-rule="evenodd" clip-rule="evenodd" d="M444.135 52.4924V3.58518e-08L444.955 0V52.4924H444.135Z" fill="#979797"/>
<path fill-rule="evenodd" clip-rule="evenodd" d="M517.952 52.4924V3.58518e-08L518.772 0V52.4924H517.952Z" fill="#979797"/>
<path d="M246.321 22.5121V26.7573H245.56V25.8842H243.75V25.2595H245.56V24.3864H243.826C243.361 25.5398 242.284 26.3528 240.73 26.7973L240.426 26.2046C242.124 25.72 243.117 24.8069 243.253 23.6495H240.794V23.0248H244.078C244.078 23.2891 244.05 23.5454 244.002 23.7857H245.56V22.5121H246.321ZM241.539 28.2391C241.539 27.37 242.484 26.8414 243.958 26.8374C245.412 26.8414 246.365 27.37 246.369 28.2391C246.365 29.1121 245.412 29.6488 243.958 29.6488C242.484 29.6488 241.539 29.1121 241.539 28.2391ZM242.292 28.2391C242.292 28.7437 242.933 29.036 243.958 29.04C244.963 29.036 245.604 28.7437 245.608 28.2391C245.604 27.7265 244.963 27.4341 243.958 27.4381C242.933 27.4341 242.292 27.7265 242.292 28.2391ZM253.241 25.8121V26.4209H251.071V28.175H253.994V28.7998H247.426V28.175H250.318V26.4209H248.243V23.0568H253.177V23.6735H249.004V25.8121H253.241ZM256.966 29L259.553 24.0019V23.9539H256.565V23.201H260.466V23.9859L257.887 29H256.966ZM263.245 29.0801C261.904 29.0801 261.115 27.9988 261.115 26.1005C261.115 24.2142 261.912 23.1209 263.245 23.1209C264.575 23.1209 265.372 24.2142 265.376 26.1005C265.372 27.9988 264.587 29.0801 263.245 29.0801ZM261.996 26.1005C261.992 27.5462 262.46 28.3192 263.245 28.3192C264.026 28.3192 264.495 27.5462 264.495 26.1005C264.495 24.6587 264.022 23.8698 263.245 23.8658C262.464 23.8698 261.996 24.6587 261.996 26.1005ZM266.642 29.0561C266.329 29.0521 266.069 28.7998 266.073 28.4874C266.069 28.175 266.329 27.9187 266.642 27.9187C266.95 27.9187 267.206 28.175 267.21 28.4874C267.206 28.7998 266.95 29.0521 266.642 29.0561ZM270.062 29.0801C268.8 29.0801 267.923 28.3993 267.931 27.4541C267.923 26.7092 268.456 26.1005 269.141 25.9964V25.9643C268.544 25.8282 268.147 25.2995 268.147 24.6668C268.147 23.7737 268.952 23.1209 270.062 23.1209C271.155 23.1209 271.964 23.7737 271.968 24.6668C271.964 25.2995 271.559 25.8282 270.975 25.9643V25.9964C271.652 26.1005 272.188 26.7092 272.192 27.4541C272.188 28.3993 271.303 29.0801 270.062 29.0801ZM268.828 27.39C268.816 27.9587 269.297 28.3512 270.062 28.3512C270.815 28.3512 271.295 27.9587 271.295 27.39C271.295 26.7933 270.775 26.3568 270.062 26.3568C269.341 26.3568 268.816 26.7933 268.828 27.39ZM269.004 24.7468C269.008 25.2875 269.441 25.664 270.062 25.66C270.666 25.664 271.107 25.2915 271.103 24.7468C271.107 24.2062 270.682 23.8377 270.062 23.8418C269.425 23.8377 269.008 24.2062 269.004 24.7468ZM274.435 25.9563C273.642 25.9643 273.209 25.3756 273.217 24.5146C273.209 23.6655 273.662 23.0768 274.435 23.0808C275.232 23.0768 275.648 23.6655 275.652 24.5146C275.648 25.3796 275.216 25.9643 274.435 25.9563ZM273.874 29L277.855 23.201H278.584L274.603 29H273.874ZM273.874 24.5146C273.878 25.0472 274.063 25.3916 274.435 25.3956C274.811 25.3916 274.988 25.0472 274.988 24.5146C274.988 23.9939 274.823 23.6375 274.435 23.6415C274.063 23.6495 273.878 23.9979 273.874 24.5146ZM276.878 27.6784C276.874 26.8214 277.322 26.2326 278.095 26.2367C278.888 26.2326 279.309 26.8214 279.313 27.6784C279.309 28.5354 278.876 29.1201 278.095 29.1201C277.306 29.1201 276.874 28.5314 276.878 27.6784ZM277.535 27.6784C277.539 28.203 277.723 28.5515 278.095 28.5515C278.472 28.5515 278.648 28.203 278.648 27.6784C278.648 27.1498 278.484 26.7973 278.095 26.7973C277.727 26.8053 277.539 27.1538 277.535 27.6784Z" fill="#113287"/>
<path d="M172.844 25.8282V26.4449H169.944V27.1337C171.258 27.2058 172.039 27.6464 172.043 28.3993C172.039 29.2123 171.11 29.6688 169.568 29.6648C168.006 29.6688 167.077 29.2123 167.077 28.3993C167.077 27.6464 167.858 27.2018 169.191 27.1337V26.4449H166.3V25.8282H172.844ZM166.644 24.851C167.934 24.7188 168.951 24.1341 169.055 23.4413H166.9V22.8325H172.259V23.4413H170.08C170.184 24.1381 171.194 24.7188 172.507 24.851L172.235 25.4517C170.989 25.3075 169.96 24.7829 169.572 24.022C169.175 24.7829 168.154 25.3075 166.908 25.4517L166.644 24.851ZM167.846 28.3993C167.842 28.8358 168.47 29.0881 169.568 29.0801C170.649 29.0881 171.282 28.8358 171.282 28.3993C171.282 27.9547 170.649 27.7144 169.568 27.7104C168.47 27.7144 167.842 27.9547 167.846 28.3993ZM179.203 25.8121V26.4209H177.033V28.175H179.956V28.7998H173.388V28.175H176.28V26.4209H174.205V23.0568H179.139V23.6735H174.966V25.8121H179.203ZM182.728 29V28.3592L184.738 26.3328C185.375 25.672 185.691 25.3035 185.691 24.7949C185.691 24.2222 185.227 23.8578 184.618 23.8578C183.973 23.8578 183.565 24.2663 183.561 24.883H182.728C182.72 23.8217 183.529 23.1209 184.634 23.1209C185.751 23.1209 186.524 23.8297 186.532 24.7709C186.524 25.4197 186.22 25.9363 185.131 27.0056L183.953 28.199V28.2471H186.628V29H182.728ZM189.704 29.0801C188.631 29.0721 187.509 28.4353 187.509 26.2927C187.513 24.2743 188.387 23.1209 189.776 23.1209C190.845 23.1209 191.586 23.7857 191.723 24.7068H190.849C190.733 24.2342 190.361 23.8938 189.776 23.8898C188.879 23.8938 188.358 24.6708 188.358 25.9803H188.423C188.739 25.4877 189.284 25.1994 189.912 25.1954C190.946 25.1994 191.779 25.9924 191.779 27.1017C191.779 28.2271 190.95 29.0881 189.704 29.0801ZM188.463 27.1257C188.467 27.7705 188.983 28.3392 189.696 28.3432C190.397 28.3392 190.922 27.7945 190.922 27.1177C190.922 26.4529 190.417 25.9123 189.72 25.9163C189.011 25.9123 188.471 26.4809 188.463 27.1257ZM193.02 29.0561C192.708 29.0521 192.447 28.7998 192.451 28.4874C192.447 28.175 192.708 27.9187 193.02 27.9187C193.328 27.9187 193.585 28.175 193.589 28.4874C193.585 28.7998 193.328 29.0521 193.02 29.0561ZM196.496 29.0801C195.423 29.0721 194.302 28.4353 194.302 26.2927C194.306 24.2743 195.179 23.1209 196.568 23.1209C197.638 23.1209 198.379 23.7857 198.515 24.7068H197.642C197.526 24.2342 197.153 23.8938 196.568 23.8898C195.671 23.8938 195.151 24.6708 195.151 25.9803H195.215C195.531 25.4877 196.076 25.1994 196.705 25.1954C197.738 25.1994 198.571 25.9924 198.571 27.1017C198.571 28.2271 197.742 29.0881 196.496 29.0801ZM195.255 27.1257C195.259 27.7705 195.775 28.3392 196.488 28.3432C197.189 28.3392 197.714 27.7945 197.714 27.1177C197.714 26.4529 197.209 25.9123 196.512 25.9163C195.803 25.9123 195.263 26.4809 195.255 27.1257ZM200.838 25.9563C200.045 25.9643 199.612 25.3756 199.62 24.5146C199.612 23.6655 200.065 23.0768 200.838 23.0808C201.635 23.0768 202.051 23.6655 202.055 24.5146C202.051 25.3796 201.619 25.9643 200.838 25.9563ZM200.277 29L204.258 23.201H204.987L201.006 29H200.277ZM200.277 24.5146C200.281 25.0472 200.465 25.3916 200.838 25.3956C201.214 25.3916 201.39 25.0472 201.39 24.5146C201.39 23.9939 201.226 23.6375 200.838 23.6415C200.465 23.6495 200.281 23.9979 200.277 24.5146ZM203.281 27.6784C203.277 26.8214 203.725 26.2326 204.498 26.2367C205.291 26.2326 205.711 26.8214 205.715 27.6784C205.711 28.5354 205.279 29.1201 204.498 29.1201C203.709 29.1201 203.277 28.5314 203.281 27.6784ZM203.937 27.6784C203.941 28.203 204.126 28.5515 204.498 28.5515C204.874 28.5515 205.051 28.203 205.051 27.6784C205.051 27.1498 204.886 26.7973 204.498 26.7973C204.13 26.8053 203.941 27.1538 203.937 27.6784Z" fill="white"/>
<path d="M101.489 23.193V23.8978C101.485 24.7829 101.485 25.7761 101.217 27.2459L100.448 27.1658C100.724 25.7761 100.724 24.7589 100.728 23.8978V23.8097H96.3711V23.193H101.489ZM95.6822 28.7117V28.0789H98.1733V25.5478H98.9262V28.0789H102.226V28.7117H95.6822ZM108.586 25.8121V26.4209H106.415V28.175H109.339V28.7998H102.771V28.175H105.662V26.4209H103.588V23.0568H108.522V23.6735H104.349V25.8121H108.586ZM114.313 23.201V29H113.424V24.082H113.392L112.006 24.9871V24.1461L113.448 23.201H114.313ZM116.027 29.0561C115.715 29.0521 115.454 28.7998 115.458 28.4874C115.454 28.175 115.715 27.9187 116.027 27.9187C116.335 27.9187 116.592 28.175 116.596 28.4874C116.592 28.7998 116.335 29.0521 116.027 29.0561ZM119.447 29.0801C118.186 29.0801 117.308 28.3993 117.316 27.4541C117.308 26.7092 117.841 26.1005 118.526 25.9964V25.9643C117.929 25.8282 117.533 25.2995 117.533 24.6668C117.533 23.7737 118.338 23.1209 119.447 23.1209C120.54 23.1209 121.349 23.7737 121.353 24.6668C121.349 25.2995 120.945 25.8282 120.36 25.9643V25.9964C121.037 26.1005 121.574 26.7092 121.578 27.4541C121.574 28.3993 120.689 29.0801 119.447 29.0801ZM118.214 27.39C118.202 27.9587 118.682 28.3512 119.447 28.3512C120.2 28.3512 120.681 27.9587 120.681 27.39C120.681 26.7933 120.16 26.3568 119.447 26.3568C118.726 26.3568 118.202 26.7933 118.214 27.39ZM118.39 24.7468C118.394 25.2875 118.826 25.664 119.447 25.66C120.052 25.664 120.492 25.2915 120.488 24.7468C120.492 24.2062 120.068 23.8377 119.447 23.8418C118.81 23.8377 118.394 24.2062 118.39 24.7468ZM123.82 25.9563C123.027 25.9643 122.595 25.3756 122.603 24.5146C122.595 23.6655 123.047 23.0768 123.82 23.0808C124.617 23.0768 125.034 23.6655 125.038 24.5146C125.034 25.3796 124.601 25.9643 123.82 25.9563ZM123.26 29L127.24 23.201H127.969L123.989 29H123.26ZM123.26 24.5146C123.264 25.0472 123.448 25.3916 123.82 25.3956C124.197 25.3916 124.373 25.0472 124.373 24.5146C124.373 23.9939 124.209 23.6375 123.82 23.6415C123.448 23.6495 123.264 23.9979 123.26 24.5146ZM126.263 27.6784C126.259 26.8214 126.708 26.2326 127.481 26.2367C128.274 26.2326 128.694 26.8214 128.698 27.6784C128.694 28.5354 128.262 29.1201 127.481 29.1201C126.692 29.1201 126.259 28.5314 126.263 27.6784ZM126.92 27.6784C126.924 28.203 127.108 28.5515 127.481 28.5515C127.857 28.5515 128.033 28.203 128.033 27.6784C128.033 27.1498 127.869 26.7973 127.481 26.7973C127.112 26.8053 126.924 27.1538 126.92 27.6784Z" fill="white"/>
<path d="M23.7297 28.175V28.7998H17.1617V28.175H20.0613V26.6131H20.8142V28.175H23.7297ZM17.4821 26.2687C18.9559 26.0524 20.0172 25.2194 20.0532 24.2102H17.7545V23.5934H20.0613V22.6323H20.8142V23.5934H23.121V24.2102H20.8222C20.8582 25.2194 21.9195 26.0524 23.3933 26.2687L23.1049 26.8614C21.9035 26.6732 20.9023 26.1045 20.4337 25.2675C19.9691 26.1045 18.9719 26.6732 17.7705 26.8614L17.4821 26.2687ZM30.0574 23.193V23.8978C30.0534 24.7829 30.0534 25.7761 29.785 27.2459L29.0161 27.1658C29.2924 25.7761 29.2924 24.7589 29.2964 23.8978V23.8097H24.9392V23.193H30.0574ZM24.2503 28.7117V28.0789H26.7414V25.5478H27.4943V28.0789H30.7943V28.7117H24.2503ZM37.154 25.8121V26.4209H34.9833V28.175H37.9069V28.7998H31.3389V28.175H34.2304V26.4209H32.1559V23.0568H37.0899V23.6735H32.9168V25.8121H37.154ZM42.6967 29.0801C41.3551 29.0801 40.5661 27.9988 40.5661 26.1005C40.5661 24.2142 41.3631 23.1209 42.6967 23.1209C44.0263 23.1209 44.8233 24.2142 44.8273 26.1005C44.8233 27.9988 44.0383 29.0801 42.6967 29.0801ZM41.4472 26.1005C41.4432 27.5462 41.9117 28.3192 42.6967 28.3192C43.4776 28.3192 43.9462 27.5462 43.9462 26.1005C43.9462 24.6587 43.4736 23.8698 42.6967 23.8658C41.9157 23.8698 41.4472 24.6587 41.4472 26.1005ZM46.0928 29.0561C45.7804 29.0521 45.5201 28.7998 45.5241 28.4874C45.5201 28.175 45.7804 27.9187 46.0928 27.9187C46.4012 27.9187 46.6575 28.175 46.6615 28.4874C46.6575 28.7998 46.4012 29.0521 46.0928 29.0561ZM49.5129 29.0801C48.2514 29.0801 47.3743 28.3993 47.3824 27.4541C47.3743 26.7092 47.907 26.1005 48.5918 25.9964V25.9643C47.9951 25.8282 47.5986 25.2995 47.5986 24.6668C47.5986 23.7737 48.4036 23.1209 49.5129 23.1209C50.6063 23.1209 51.4152 23.7737 51.4192 24.6668C51.4152 25.2995 51.0108 25.8282 50.426 25.9643V25.9964C51.1029 26.1005 51.6395 26.7092 51.6435 27.4541C51.6395 28.3993 50.7544 29.0801 49.5129 29.0801ZM48.2794 27.39C48.2674 27.9587 48.748 28.3512 49.5129 28.3512C50.2658 28.3512 50.7464 27.9587 50.7464 27.39C50.7464 26.7933 50.2258 26.3568 49.5129 26.3568C48.7921 26.3568 48.2674 26.7933 48.2794 27.39ZM48.4557 24.7468C48.4597 25.2875 48.8922 25.664 49.5129 25.66C50.1177 25.664 50.5582 25.2915 50.5542 24.7468C50.5582 24.2062 50.1337 23.8377 49.5129 23.8418C48.8762 23.8377 48.4597 24.2062 48.4557 24.7468ZM53.8862 25.9563C53.0933 25.9643 52.6608 25.3756 52.6688 24.5146C52.6608 23.6655 53.1133 23.0768 53.8862 23.0808C54.6832 23.0768 55.0997 23.6655 55.1037 24.5146C55.0997 25.3796 54.6672 25.9643 53.8862 25.9563ZM53.3256 29L57.3064 23.201H58.0353L54.0544 29H53.3256ZM53.3256 24.5146C53.3296 25.0472 53.5138 25.3916 53.8862 25.3956C54.2627 25.3916 54.4389 25.0472 54.4389 24.5146C54.4389 23.9939 54.2747 23.6375 53.8862 23.6415C53.5138 23.6495 53.3296 23.9979 53.3256 24.5146ZM56.3292 27.6784C56.3252 26.8214 56.7737 26.2326 57.5467 26.2367C58.3396 26.2326 58.7601 26.8214 58.7641 27.6784C58.7601 28.5354 58.3276 29.1201 57.5467 29.1201C56.7577 29.1201 56.3252 28.5314 56.3292 27.6784ZM56.986 27.6784C56.99 28.203 57.1742 28.5515 57.5467 28.5515C57.9231 28.5515 58.0993 28.203 58.0993 27.6784C58.0993 27.1498 57.9351 26.7973 57.5467 26.7973C57.1782 26.8053 56.99 27.1538 56.986 27.6784Z" fill="white"/>
<path d="M470.793 23.193V23.8978C470.789 24.7829 470.789 25.7761 470.52 27.2459L469.751 27.1658C470.028 25.7761 470.028 24.7589 470.032 23.8978V23.8097H465.674V23.193H470.793ZM464.986 28.7117V28.0789H467.477V25.5478H468.23V28.0789H471.53V28.7117H464.986ZM477.889 25.8121V26.4209H475.719V28.175H478.642V28.7998H472.074V28.175H474.966V26.4209H472.891V23.0568H477.825V23.6735H473.652V25.8121H477.889ZM483.616 23.201V29H482.727V24.082H482.695L481.309 24.9871V24.1461L482.751 23.201H483.616ZM485.33 29.0561C485.018 29.0521 484.758 28.7998 484.762 28.4874C484.758 28.175 485.018 27.9187 485.33 27.9187C485.639 27.9187 485.895 28.175 485.899 28.4874C485.895 28.7998 485.639 29.0521 485.33 29.0561ZM486.972 29L489.559 24.0019V23.9539H486.572V23.201H490.473V23.9859L487.893 29H486.972ZM492.691 25.9563C491.898 25.9643 491.466 25.3756 491.474 24.5146C491.466 23.6655 491.918 23.0768 492.691 23.0808C493.488 23.0768 493.905 23.6655 493.909 24.5146C493.905 25.3796 493.472 25.9643 492.691 25.9563ZM492.131 29L496.111 23.201H496.84L492.859 29H492.131ZM492.131 24.5146C492.135 25.0472 492.319 25.3916 492.691 25.3956C493.068 25.3916 493.244 25.0472 493.244 24.5146C493.244 23.9939 493.08 23.6375 492.691 23.6415C492.319 23.6495 492.135 23.9979 492.131 24.5146ZM495.134 27.6784C495.13 26.8214 495.579 26.2326 496.352 26.2367C497.145 26.2326 497.565 26.8214 497.569 27.6784C497.565 28.5354 497.133 29.1201 496.352 29.1201C495.563 29.1201 495.13 28.5314 495.134 27.6784ZM495.791 27.6784C495.795 28.203 495.979 28.5515 496.352 28.5515C496.728 28.5515 496.904 28.203 496.904 27.6784C496.904 27.1498 496.74 26.7973 496.352 26.7973C495.983 26.8053 495.795 27.1538 495.791 27.6784Z" fill="white"/>
<path d="M397.696 25.8282V26.4449H394.797V27.1337C396.11 27.2058 396.891 27.6464 396.895 28.3993C396.891 29.2123 395.962 29.6688 394.42 29.6648C392.858 29.6688 391.929 29.2123 391.929 28.3993C391.929 27.6464 392.71 27.2018 394.044 27.1337V26.4449H391.152V25.8282H397.696ZM391.497 24.851C392.786 24.7188 393.803 24.1341 393.908 23.4413H391.753V22.8325H397.111V23.4413H394.933C395.037 24.1381 396.046 24.7188 397.36 24.851L397.087 25.4517C395.842 25.3075 394.813 24.7829 394.424 24.022C394.028 24.7829 393.007 25.3075 391.761 25.4517L391.497 24.851ZM392.698 28.3993C392.694 28.8358 393.323 29.0881 394.42 29.0801C395.502 29.0881 396.134 28.8358 396.134 28.3993C396.134 27.9547 395.502 27.7144 394.42 27.7104C393.323 27.7144 392.694 27.9547 392.698 28.3993ZM404.056 25.8121V26.4209H401.885V28.175H404.809V28.7998H398.241V28.175H401.132V26.4209H399.058V23.0568H403.992V23.6735H399.819V25.8121H404.056ZM409.679 29.0801C408.605 29.0721 407.484 28.4353 407.484 26.2927C407.488 24.2743 408.361 23.1209 409.751 23.1209C410.82 23.1209 411.561 23.7857 411.697 24.7068H410.824C410.708 24.2342 410.336 23.8938 409.751 23.8898C408.854 23.8938 408.333 24.6708 408.333 25.9803H408.397C408.714 25.4877 409.258 25.1994 409.887 25.1954C410.92 25.1994 411.753 25.9924 411.753 27.1017C411.753 28.2271 410.924 29.0881 409.679 29.0801ZM408.437 27.1257C408.441 27.7705 408.958 28.3392 409.671 28.3432C410.372 28.3392 410.896 27.7945 410.896 27.1177C410.896 26.4529 410.392 25.9123 409.695 25.9163C408.986 25.9123 408.445 26.4809 408.437 27.1257ZM412.995 29.0561C412.682 29.0521 412.422 28.7998 412.426 28.4874C412.422 28.175 412.682 27.9187 412.995 27.9187C413.303 27.9187 413.559 28.175 413.563 28.4874C413.559 28.7998 413.303 29.0521 412.995 29.0561ZM416.086 23.201V29H415.197V24.082H415.165L413.78 24.9871V24.1461L415.221 23.201H416.086ZM418.89 25.9563C418.097 25.9643 417.664 25.3756 417.672 24.5146C417.664 23.6655 418.117 23.0768 418.89 23.0808C419.687 23.0768 420.103 23.6655 420.107 24.5146C420.103 25.3796 419.671 25.9643 418.89 25.9563ZM418.329 29L422.31 23.201H423.039L419.058 29H418.329ZM418.329 24.5146C418.333 25.0472 418.517 25.3916 418.89 25.3956C419.266 25.3916 419.443 25.0472 419.443 24.5146C419.443 23.9939 419.278 23.6375 418.89 23.6415C418.517 23.6495 418.333 23.9979 418.329 24.5146ZM421.333 27.6784C421.329 26.8214 421.777 26.2326 422.55 26.2367C423.343 26.2326 423.764 26.8214 423.768 27.6784C423.764 28.5354 423.331 29.1201 422.55 29.1201C421.761 29.1201 421.329 28.5314 421.333 27.6784ZM421.99 27.6784C421.994 28.203 422.178 28.5515 422.55 28.5515C422.927 28.5515 423.103 28.203 423.103 27.6784C423.103 27.1498 422.939 26.7973 422.55 26.7973C422.182 26.8053 421.994 27.1538 421.99 27.6784Z" fill="white"/>
<path d="M319.802 22.5121V26.7573H319.041V25.8842H317.231V25.2595H319.041V24.3864H317.307C316.842 25.5398 315.765 26.3528 314.211 26.7973L313.907 26.2046C315.605 25.72 316.598 24.8069 316.734 23.6495H314.275V23.0248H317.559C317.559 23.2891 317.531 23.5454 317.483 23.7857H319.041V22.5121H319.802ZM315.02 28.2391C315.02 27.37 315.965 26.8414 317.439 26.8374C318.893 26.8414 319.846 27.37 319.85 28.2391C319.846 29.1121 318.893 29.6488 317.439 29.6488C315.965 29.6488 315.02 29.1121 315.02 28.2391ZM315.773 28.2391C315.773 28.7437 316.414 29.036 317.439 29.04C318.444 29.036 319.085 28.7437 319.089 28.2391C319.085 27.7265 318.444 27.4341 317.439 27.4381C316.414 27.4341 315.773 27.7265 315.773 28.2391ZM326.722 25.8121V26.4209H324.552V28.175H327.475V28.7998H320.907V28.175H323.799V26.4209H321.724V23.0568H326.658V23.6735H322.485V25.8121H326.722ZM332.241 23.1209C333.306 23.1289 334.424 23.7697 334.428 25.8922C334.428 27.9267 333.551 29.0801 332.161 29.0801C331.092 29.0801 330.347 28.4193 330.206 27.4782H331.08C331.2 27.9667 331.576 28.3072 332.161 28.3112C333.054 28.3072 333.579 27.5302 333.587 26.2046H333.514C333.202 26.6932 332.657 26.9896 332.033 26.9896C330.991 26.9896 330.158 26.1926 330.158 25.0833C330.158 23.9779 330.979 23.1129 332.241 23.1209ZM331.015 25.0672C331.019 25.7401 331.52 26.2727 332.225 26.2687C332.926 26.2727 333.466 25.7 333.466 25.0592C333.466 24.4305 332.95 23.8578 332.241 23.8578C331.54 23.8578 331.011 24.4024 331.015 25.0672ZM337.375 29.0801C336.034 29.0801 335.245 27.9988 335.245 26.1005C335.245 24.2142 336.042 23.1209 337.375 23.1209C338.705 23.1209 339.502 24.2142 339.506 26.1005C339.502 27.9988 338.717 29.0801 337.375 29.0801ZM336.126 26.1005C336.122 27.5462 336.59 28.3192 337.375 28.3192C338.156 28.3192 338.625 27.5462 338.625 26.1005C338.625 24.6587 338.152 23.8698 337.375 23.8658C336.594 23.8698 336.126 24.6587 336.126 26.1005ZM340.771 29.0561C340.459 29.0521 340.199 28.7998 340.203 28.4874C340.199 28.175 340.459 27.9187 340.771 27.9187C341.08 27.9187 341.336 28.175 341.34 28.4874C341.336 28.7998 341.08 29.0521 340.771 29.0561ZM344.247 29.0801C343.174 29.0721 342.053 28.4353 342.053 26.2927C342.057 24.2743 342.93 23.1209 344.32 23.1209C345.389 23.1209 346.13 23.7857 346.266 24.7068H345.393C345.277 24.2342 344.904 23.8938 344.32 23.8898C343.422 23.8938 342.902 24.6708 342.902 25.9803H342.966C343.282 25.4877 343.827 25.1994 344.456 25.1954C345.489 25.1994 346.322 25.9924 346.322 27.1017C346.322 28.2271 345.493 29.0881 344.247 29.0801ZM343.006 27.1257C343.01 27.7705 343.527 28.3392 344.239 28.3432C344.94 28.3392 345.465 27.7945 345.465 27.1177C345.465 26.4529 344.96 25.9123 344.264 25.9163C343.555 25.9123 343.014 26.4809 343.006 27.1257ZM348.589 25.9563C347.796 25.9643 347.363 25.3756 347.371 24.5146C347.363 23.6655 347.816 23.0768 348.589 23.0808C349.386 23.0768 349.802 23.6655 349.806 24.5146C349.802 25.3796 349.37 25.9643 348.589 25.9563ZM348.028 29L352.009 23.201H352.738L348.757 29H348.028ZM348.028 24.5146C348.032 25.0472 348.216 25.3916 348.589 25.3956C348.965 25.3916 349.141 25.0472 349.141 24.5146C349.141 23.9939 348.977 23.6375 348.589 23.6415C348.216 23.6495 348.032 23.9979 348.028 24.5146ZM351.032 27.6784C351.028 26.8214 351.476 26.2326 352.249 26.2367C353.042 26.2326 353.463 26.8214 353.467 27.6784C353.463 28.5354 353.03 29.1201 352.249 29.1201C351.46 29.1201 351.028 28.5314 351.032 27.6784ZM351.688 27.6784C351.692 28.203 351.877 28.5515 352.249 28.5515C352.626 28.5515 352.802 28.203 352.802 27.6784C352.802 27.1498 352.638 26.7973 352.249 26.7973C351.881 26.8053 351.692 27.1538 351.688 27.6784Z" fill="#113287"/>
<path d="M541.827 28.175V28.7998H535.259V28.175H538.158V26.6131H538.911V28.175H541.827ZM535.579 26.2687C537.053 26.0524 538.114 25.2194 538.15 24.2102H535.851V23.5934H538.158V22.6323H538.911V23.5934H541.218V24.2102H538.919C538.955 25.2194 540.017 26.0524 541.49 26.2687L541.202 26.8614C540 26.6732 538.999 26.1045 538.531 25.2675C538.066 26.1045 537.069 26.6732 535.867 26.8614L535.579 26.2687ZM548.154 23.193V23.8978C548.15 24.7829 548.15 25.7761 547.882 27.2459L547.113 27.1658C547.389 25.7761 547.389 24.7589 547.393 23.8978V23.8097H543.036V23.193H548.154ZM542.347 28.7117V28.0789H544.838V25.5478H545.591V28.0789H548.891V28.7117H542.347ZM555.251 25.8121V26.4209H553.08V28.175H556.004V28.7998H549.436V28.175H552.327V26.4209H550.253V23.0568H555.187V23.6735H551.014V25.8121H555.251ZM560.978 23.201V29H560.089V24.082H560.057L558.671 24.9871V24.1461L560.113 23.201H560.978ZM562.692 29.0561C562.38 29.0521 562.119 28.7998 562.123 28.4874C562.119 28.175 562.38 27.9187 562.692 27.9187C563 27.9187 563.257 28.175 563.261 28.4874C563.257 28.7998 563 29.0521 562.692 29.0561ZM564.334 29L566.921 24.0019V23.9539H563.933V23.201H567.834V23.9859L565.255 29H564.334ZM570.053 25.9563C569.26 25.9643 568.827 25.3756 568.835 24.5146C568.827 23.6655 569.28 23.0768 570.053 23.0808C570.85 23.0768 571.266 23.6655 571.27 24.5146C571.266 25.3796 570.834 25.9643 570.053 25.9563ZM569.492 29L573.473 23.201H574.202L570.221 29H569.492ZM569.492 24.5146C569.496 25.0472 569.68 25.3916 570.053 25.3956C570.429 25.3916 570.606 25.0472 570.606 24.5146C570.606 23.9939 570.441 23.6375 570.053 23.6415C569.68 23.6495 569.496 23.9979 569.492 24.5146ZM572.496 27.6784C572.492 26.8214 572.94 26.2326 573.713 26.2367C574.506 26.2326 574.927 26.8214 574.931 27.6784C574.927 28.5354 574.494 29.1201 573.713 29.1201C572.924 29.1201 572.492 28.5314 572.496 27.6784ZM573.153 27.6784C573.157 28.203 573.341 28.5515 573.713 28.5515C574.09 28.5515 574.266 28.203 574.266 27.6784C574.266 27.1498 574.102 26.7973 573.713 26.7973C573.345 26.8053 573.157 27.1538 573.153 27.6784Z" fill="white"/>
<path d="M-338 -1572H2975V-1574H-338V-1572ZM2976 -1571V399H2978V-1571H2976ZM2975 400H-338V402H2975V400ZM-339 399V-1571H-341V399H-339ZM-338 400C-338.552 400 -339 399.552 -339 399H-341C-341 400.657 -339.657 402 -338 402V400ZM2976 399C2976 399.552 2975.55 400 2975 400V402C2976.66 402 2978 400.657 2978 399H2976ZM2975 -1572C2975.55 -1572 2976 -1571.55 2976 -1571H2978C2978 -1572.66 2976.66 -1574 2975 -1574V-1572ZM-338 -1574C-339.657 -1574 -341 -1572.66 -341 -1571H-339C-339 -1571.55 -338.552 -1572 -338 -1572V-1574Z" fill="black" fill-opacity="0.1"/>
</svg>
