<svg width="593" height="74" viewBox="0 0 593 74" fill="none" xmlns="http://www.w3.org/2000/svg">
<rect width="593" height="74" fill="#727272"/>
<path d="M-340 -1402C-340 -1403.1 -339.105 -1404 -338 -1404H2975C2976.1 -1404 2977 -1403.1 2977 -1402V568C2977 569.105 2976.1 570 2975 570H-338C-339.105 570 -340 569.105 -340 568V-1402Z" fill="white"/>
<path fill-rule="evenodd" clip-rule="evenodd" d="M111.957 40.0133V12.5232H112.777V40.0133H111.957Z" fill="#979797"/>
<path d="M6.18832 15.9041H29.8162V35.5887H6.18832L0 25.7464L6.18832 15.9041Z" fill="#001A5B"/>
<path d="M292.134 62.8017C293.255 62.8088 294.002 62.0339 294.002 61.021C294.002 60.0227 293.252 59.309 292.322 59.3054C291.756 59.309 291.266 59.5685 290.981 60.0119H290.924C290.924 58.8333 291.392 58.134 292.199 58.1304C292.726 58.134 293.061 58.4404 293.165 58.8657H293.951C293.829 58.0367 293.162 57.4384 292.199 57.4384C290.948 57.4384 290.162 58.4764 290.159 60.293C290.159 62.2213 291.169 62.7944 292.134 62.8017ZM291.017 61.0427C291.024 60.4624 291.511 59.9506 292.149 59.9542C292.776 59.9506 293.23 60.4371 293.23 61.0355C293.23 61.6446 292.758 62.1348 292.127 62.1384C291.485 62.1348 291.02 61.623 291.017 61.0427Z" fill="#001A5B"/>
<path d="M296.662 62.8016C297.869 62.8016 298.575 61.8284 298.579 60.12C298.575 58.4223 297.858 57.4384 296.662 57.4384C295.461 57.4384 294.744 58.4223 294.744 60.12C294.744 61.8284 295.454 62.8016 296.662 62.8016ZM295.537 60.12C295.537 58.8224 295.959 58.1124 296.662 58.1088C297.36 58.1124 297.786 58.8224 297.786 60.12C297.786 61.4211 297.364 62.1168 296.662 62.1168C295.955 62.1168 295.533 61.4211 295.537 60.12Z" fill="#001A5B"/>
<path d="M301.167 62.7296C302.756 62.7296 303.672 61.742 303.676 60.1128C303.672 58.4873 302.756 57.5105 301.217 57.5105H299.473V62.7296H301.167ZM300.265 62.0376V58.2025H301.167C302.306 58.2025 302.89 58.8837 302.89 60.1128C302.89 61.3455 302.306 62.0339 301.123 62.0376H300.265Z" fill="#001A5B"/>
<path d="M275.659 66.5807H275.153V69.9511H273.973V70.3163H275.153V70.9059H275.659V66.5807ZM270.93 69.2206L271 69.6307C271.478 69.6307 272.025 69.6307 272.602 69.6084V70.7072H273.108V69.5827C273.631 69.5507 274.166 69.4994 274.672 69.4193L274.64 69.0541C273.419 69.2046 271.99 69.2142 270.93 69.2206ZM271.391 67.8045C271.388 68.4132 271.958 68.7914 272.801 68.7914C273.637 68.7914 274.207 68.4132 274.21 67.8045C274.207 67.2054 273.637 66.8113 272.801 66.8113C271.958 66.8113 271.388 67.2054 271.391 67.8045ZM271.75 72.149H275.8V71.7261H272.256V70.483H271.75V72.149ZM271.872 67.8045C271.866 67.4393 272.244 67.1894 272.801 67.1958C273.343 67.1894 273.727 67.4393 273.73 67.8045C273.727 68.1762 273.343 68.4164 272.801 68.4196C272.244 68.4164 271.866 68.1762 271.872 67.8045Z" fill="#001A5B"/>
<path d="M280.304 68.1057V67.0676H279.805V68.1057C279.798 69.1854 279.096 70.2748 278.247 70.6624L278.568 71.0853C279.234 70.7489 279.795 70.028 280.057 69.1694C280.33 69.98 280.891 70.656 281.541 70.97L281.849 70.5727C281.009 70.1914 280.301 69.147 280.304 68.1057ZM282.47 72.2836H282.977V66.5742H282.47V72.2836Z" fill="#001A5B"/>
<path d="M314.862 67.7405H310.991V68.1506H314.361V68.1826C314.365 68.6664 314.365 69.2271 314.211 70.0153H310.331V70.4382H315.547V70.0153H314.711C314.862 69.2399 314.862 68.6632 314.862 68.1826V67.7405ZM311.023 72.9628H315.035V72.5399H311.523V71.0789H311.023V72.9628Z" fill="#001A5B"/>
<path d="M319.674 68.9259V67.8878H319.174V68.9259C319.168 70.0056 318.466 71.095 317.617 71.4826L317.937 71.9055C318.603 71.5691 319.164 70.8482 319.427 69.9896C319.699 70.8002 320.26 71.4762 320.911 71.7902L321.218 71.3929C320.378 71.0116 319.67 69.9672 319.674 68.9259ZM321.84 73.1038H322.346V67.3944H321.84V73.1038Z" fill="#001A5B"/>
<path d="M70.563 63.6218C71.6516 63.6218 72.4229 62.883 72.4229 61.8557C72.4229 60.8501 71.6984 60.122 70.7144 60.1185C70.3179 60.122 69.9503 60.2626 69.734 60.4716H69.6836L69.8566 59.0083H72.1561V58.3307H69.2006L68.8617 61.2358H69.6115C69.7881 60.915 70.1089 60.7745 70.527 60.7745C71.183 60.7816 71.6516 61.2429 71.6516 61.8774C71.6516 62.4973 71.1974 62.955 70.563 62.9586C70.0368 62.955 69.6115 62.6306 69.5682 62.1873H68.7969C68.833 63.0199 69.5754 63.6218 70.563 63.6218Z" fill="#001A5B"/>
<path d="M73.1511 62.5334H75.6886V63.5497H76.4383V62.5334H77.1519V61.8629H76.4383V58.3307H75.4579L73.1511 61.8918V62.5334ZM73.9873 61.8629V61.8197L75.6309 59.275H75.6886V61.8629H73.9873Z" fill="#001A5B"/>
<path d="M79.7182 63.5497C81.3077 63.5497 82.2236 62.5621 82.2269 60.933C82.2236 59.3075 81.3077 58.3307 79.7687 58.3307H78.0242V63.5497H79.7182ZM78.8171 62.8577V59.0227H79.7182C80.8572 59.0227 81.4411 59.7039 81.4411 60.933C81.4411 62.1657 80.8572 62.8541 79.675 62.8577H78.8171Z" fill="#001A5B"/>
<path d="M144.424 63.6218C145.512 63.6218 146.284 62.883 146.284 61.8557C146.284 60.8501 145.559 60.122 144.576 60.1185C144.179 60.122 143.811 60.2626 143.595 60.4716H143.545L143.718 59.0083H146.017V58.3307H143.062L142.723 61.2358H143.472C143.649 60.915 143.969 60.7745 144.388 60.7745C145.044 60.7816 145.512 61.2429 145.512 61.8774C145.512 62.4973 145.058 62.955 144.424 62.9586C143.897 62.955 143.472 62.6306 143.429 62.1873H142.658C142.694 63.0199 143.436 63.6218 144.424 63.6218Z" fill="#001A5B"/>
<path d="M149.016 63.6218C150.137 63.629 150.883 62.8541 150.883 61.8412C150.883 60.8429 150.133 60.1292 149.203 60.1256C148.637 60.1292 148.148 60.3887 147.862 60.8321H147.805C147.805 59.6535 148.273 58.9542 149.081 58.9505C149.607 58.9542 149.942 59.2606 150.046 59.6858H150.832C150.71 58.8569 150.043 58.2585 149.081 58.2585C147.83 58.2585 147.044 59.2966 147.04 61.1131C147.04 63.0415 148.05 63.6146 149.016 63.6218ZM147.898 61.8629C147.906 61.2826 148.392 60.7708 149.03 60.7744C149.658 60.7708 150.112 61.2573 150.112 61.8557C150.112 62.4648 149.639 62.955 149.009 62.9586C148.367 62.955 147.902 62.4432 147.898 61.8629Z" fill="#001A5B"/>
<path d="M153.493 63.5497C155.082 63.5497 155.997 62.5621 156.001 60.933C155.997 59.3075 155.082 58.3307 153.543 58.3307H151.798V63.5497H153.493ZM152.591 62.8577V59.0227H153.493C154.631 59.0227 155.215 59.7039 155.215 60.933C155.215 62.1657 154.631 62.8541 153.449 62.8577H152.591Z" fill="#001A5B"/>
<path d="M218.259 63.6218C219.348 63.6218 220.119 62.883 220.119 61.8557C220.119 60.8501 219.394 60.122 218.411 60.1185C218.014 60.122 217.647 60.2626 217.43 60.4716H217.38L217.553 59.0083H219.852V58.3307H216.897L216.558 61.2358H217.308C217.484 60.915 217.805 60.7745 218.223 60.7745C218.879 60.7816 219.348 61.2429 219.348 61.8774C219.348 62.4973 218.893 62.955 218.259 62.9586C217.733 62.955 217.308 62.6306 217.264 62.1873H216.493C216.529 63.0199 217.272 63.6218 218.259 63.6218Z" fill="#001A5B"/>
<path d="M222.786 63.6218C223.904 63.6218 224.7 63.0091 224.704 62.1585C224.7 61.4881 224.217 60.9402 223.608 60.8464V60.8176C224.134 60.6951 224.499 60.2193 224.502 59.6498C224.499 58.8461 223.77 58.2585 222.786 58.2585C221.788 58.2585 221.064 58.8461 221.064 59.6498C221.064 60.2193 221.42 60.6951 221.958 60.8176V60.8464C221.341 60.9402 220.862 61.4881 220.869 62.1585C220.862 63.0091 221.651 63.6218 222.786 63.6218ZM221.676 62.1007C221.666 61.5638 222.137 61.1709 222.786 61.1709C223.428 61.1709 223.897 61.5638 223.897 62.1007C223.897 62.6126 223.464 62.9658 222.786 62.9658C222.098 62.9658 221.666 62.6126 221.676 62.1007ZM221.835 59.7219C221.839 59.2353 222.214 58.9037 222.786 58.9073C223.345 58.9037 223.727 59.2353 223.724 59.7219C223.727 60.2121 223.331 60.5473 222.786 60.5437C222.227 60.5473 221.839 60.2085 221.835 59.7219Z" fill="#001A5B"/>
<path d="M227.292 63.5497C228.882 63.5497 229.797 62.5621 229.8 60.933C229.797 59.3075 228.882 58.3307 227.342 58.3307H225.598V63.5497H227.292ZM226.391 62.8577V59.0227H227.292C228.431 59.0227 229.015 59.7039 229.015 60.933C229.015 62.1657 228.431 62.8541 227.249 62.8577H226.391Z" fill="#001A5B"/>
<path d="M365.926 62.8017C367.047 62.8088 367.794 62.0339 367.794 61.021C367.794 60.0227 367.044 59.309 366.114 59.3054C365.548 59.309 365.058 59.5685 364.773 60.0119H364.716C364.716 58.8333 365.184 58.134 365.992 58.1304C366.518 58.134 366.853 58.4404 366.957 58.8657H367.743C367.621 58.0367 366.954 57.4384 365.992 57.4384C364.741 57.4384 363.955 58.4764 363.951 60.293C363.951 62.2213 364.961 62.7944 365.926 62.8017ZM364.809 61.0427C364.816 60.4624 365.303 59.9506 365.941 59.9542C366.568 59.9506 367.022 60.4371 367.022 61.0355C367.022 61.6446 366.55 62.1348 365.92 62.1384C365.277 62.1348 364.813 61.623 364.809 61.0427Z" fill="#001A5B"/>
<path d="M370.49 62.8016C371.571 62.8016 372.374 62.1637 372.371 61.295C372.374 60.6354 371.96 60.1561 371.247 60.0551V60.0191C371.809 59.8785 372.177 59.4532 372.169 58.8584C372.177 58.0871 371.531 57.4384 370.504 57.4384C369.531 57.4384 368.745 58.015 368.724 58.8657H369.487C369.505 58.3935 369.975 58.1016 370.497 58.1016C371.048 58.1016 371.405 58.4259 371.405 58.9017C371.405 59.4027 370.991 59.7343 370.396 59.7307H369.949V60.3795H370.396C371.142 60.3831 371.571 60.7507 371.571 61.2662C371.571 61.7744 371.113 62.1168 370.482 62.1168C369.898 62.1168 369.445 61.8248 369.415 61.3671H368.608C368.641 62.2213 369.409 62.8016 370.49 62.8016Z" fill="#001A5B"/>
<path d="M375.01 62.7296C376.599 62.7296 377.515 61.742 377.518 60.1128C377.515 58.4873 376.599 57.5105 375.06 57.5105H373.315V62.7296H375.01ZM374.108 62.0376V58.2025H375.01C376.148 58.2025 376.732 58.8837 376.732 60.1128C376.732 61.3455 376.148 62.0339 374.966 62.0376H374.108Z" fill="#001A5B"/>
<path d="M439.748 62.8017C440.869 62.8088 441.615 62.0339 441.615 61.021C441.615 60.0227 440.865 59.309 439.935 59.3054C439.369 59.309 438.879 59.5685 438.595 60.0119H438.536C438.536 58.8333 439.005 58.134 439.813 58.1304C440.339 58.134 440.674 58.4404 440.779 58.8657H441.564C441.441 58.0367 440.775 57.4384 439.813 57.4384C438.562 57.4384 437.776 58.4764 437.773 60.293C437.773 62.2213 438.782 62.7944 439.748 62.8017ZM438.631 61.0427C438.637 60.4624 439.124 59.9506 439.762 59.9542C440.389 59.9506 440.844 60.4371 440.844 61.0355C440.844 61.6446 440.371 62.1348 439.74 62.1384C439.099 62.1348 438.634 61.623 438.631 61.0427Z" fill="#001A5B"/>
<path d="M444.346 62.8017C445.468 62.8088 446.214 62.0339 446.214 61.021C446.214 60.0227 445.464 59.309 444.534 59.3054C443.968 59.309 443.478 59.5685 443.193 60.0119H443.136C443.136 58.8333 443.604 58.134 444.411 58.1304C444.938 58.134 445.273 58.4404 445.377 58.8657H446.163C446.041 58.0367 445.374 57.4384 444.411 57.4384C443.16 57.4384 442.375 58.4764 442.371 60.293C442.371 62.2213 443.381 62.7944 444.346 62.8017ZM443.229 61.0427C443.237 60.4624 443.723 59.9506 444.361 59.9542C444.989 59.9506 445.442 60.4371 445.442 61.0355C445.442 61.6446 444.971 62.1348 444.34 62.1384C443.698 62.1348 443.233 61.623 443.229 61.0427Z" fill="#001A5B"/>
<path d="M448.823 62.7296C450.413 62.7296 451.329 61.742 451.332 60.1128C451.329 58.4873 450.413 57.5105 448.874 57.5105H447.129V62.7296H448.823ZM447.923 62.0376V58.2025H448.823C449.962 58.2025 450.546 58.8837 450.546 60.1128C450.546 61.3455 449.962 62.0339 448.78 62.0376H447.923Z" fill="#001A5B"/>
<path d="M513.565 62.8017C514.686 62.8089 515.432 62.034 515.432 61.0211C515.432 60.0227 514.682 59.3091 513.752 59.3054C513.186 59.3091 512.697 59.5686 512.412 60.0119H512.354C512.354 58.8333 512.823 58.134 513.63 58.1304C514.157 58.134 514.491 58.4404 514.596 58.8657H515.382C515.259 58.0367 514.592 57.4384 513.63 57.4384C512.379 57.4384 511.593 58.4765 511.59 60.293C511.59 62.2214 512.599 62.7945 513.565 62.8017ZM512.448 61.0428C512.455 60.4624 512.942 59.9506 513.579 59.9542C514.206 59.9506 514.661 60.4372 514.661 61.0356C514.661 61.6447 514.188 62.1349 513.558 62.1385C512.916 62.1349 512.451 61.6231 512.448 61.0428Z" fill="#001A5B"/>
<path d="M518.07 57.4384C516.935 57.4312 516.196 58.2098 516.196 59.2047C516.196 60.203 516.946 60.9203 517.883 60.9203C518.445 60.9203 518.936 60.6536 519.217 60.2138H519.282C519.274 61.4069 518.802 62.1062 517.998 62.1097C517.473 62.1062 517.133 61.7997 517.026 61.36H516.24C516.365 62.2071 517.036 62.8018 517.998 62.8018C519.249 62.8018 520.038 61.7637 520.038 59.9327C520.035 58.0223 519.029 57.4457 518.07 57.4384ZM516.967 59.1902C516.964 58.5919 517.44 58.1017 518.07 58.1017C518.709 58.1017 519.174 58.6171 519.174 59.183C519.174 59.7597 518.687 60.2751 518.056 60.2715C517.422 60.2751 516.971 59.7958 516.967 59.1902Z" fill="#001A5B"/>
<path d="M522.64 62.7296C524.23 62.7296 525.146 61.742 525.149 60.1129C525.146 58.4873 524.23 57.5105 522.691 57.5105H520.947V62.7296H522.64ZM521.74 62.0376V58.2026H522.64C523.78 58.2026 524.364 58.8837 524.364 60.1129C524.364 61.3456 523.78 62.034 522.598 62.0376H521.74Z" fill="#001A5B"/>
<path fill-rule="evenodd" clip-rule="evenodd" d="M38.1389 40.0133V12.5232H38.9591V40.0133H38.1389Z" fill="#979797"/>
<path fill-rule="evenodd" clip-rule="evenodd" d="M185.774 40.0133V12.5232H186.594V40.0133H185.774Z" fill="#979797"/>
<path fill-rule="evenodd" clip-rule="evenodd" d="M259.591 40.0133V12.5232H260.411V40.0133H259.591Z" fill="#979797"/>
<path fill-rule="evenodd" clip-rule="evenodd" d="M321.106 40.0133V12.5232H321.926V40.0133H321.106Z" fill="#979797"/>
<path fill-rule="evenodd" clip-rule="evenodd" d="M345.712 40.0133V12.5232H346.532V40.0133H345.712Z" fill="#979797"/>
<path fill-rule="evenodd" clip-rule="evenodd" d="M394.923 40.0133V12.5232H395.744V40.0133H394.923Z" fill="#979797"/>
<path fill-rule="evenodd" clip-rule="evenodd" d="M419.529 40.0133V12.5232H420.349V40.0133H419.529Z" fill="#979797"/>
<path fill-rule="evenodd" clip-rule="evenodd" d="M468.741 40.0133V12.5232H469.561V40.0133H468.741Z" fill="#979797"/>
<path fill-rule="evenodd" clip-rule="evenodd" d="M493.346 40.0133V12.5232H494.167V40.0133H493.346Z" fill="#979797"/>
<path fill-rule="evenodd" clip-rule="evenodd" d="M542.558 40.0133V12.5232H543.378V40.0133H542.558Z" fill="#979797"/>
<path fill-rule="evenodd" clip-rule="evenodd" d="M567.164 40.0133V12.5232H567.984V40.0133H567.164Z" fill="#979797"/>
<path d="M296.91 15.9041H223.093V35.5887H296.91V15.9041Z" fill="#E2E6F6"/>
<path d="M223.093 15.9041H149.275V35.5887H223.093V15.9041Z" fill="#5B6EB4"/>
<path d="M149.275 15.9041H75.4578V35.5887H149.275V15.9041Z" fill="#113287"/>
<path d="M75.4579 15.9041H9.02222V35.5887H75.4579V15.9041Z" fill="#001A5B"/>
<path fill-rule="evenodd" clip-rule="evenodd" d="M148.865 52.4924V3.58518e-08L149.685 0V52.4924H148.865Z" fill="#979797"/>
<path fill-rule="evenodd" clip-rule="evenodd" d="M222.683 52.4924V3.58518e-08L223.503 0V52.4924H222.683Z" fill="#979797"/>
<path fill-rule="evenodd" clip-rule="evenodd" d="M75.0476 52.4924V3.58518e-08L75.8678 0V52.4924H75.0476Z" fill="#979797"/>
<path d="M518.362 15.9041H444.545V35.5887H518.362V15.9041Z" fill="#113287"/>
<path d="M444.545 15.9041H370.728V35.5887H444.545V15.9041Z" fill="#5B6EB4"/>
<path d="M370.728 15.9041H296.91V35.5887H370.728V15.9041Z" fill="#E2E6F6"/>
<path fill-rule="evenodd" clip-rule="evenodd" d="M295.68 52.4924V7.17035e-08L297.32 0V52.4924H295.68Z" fill="#113287"/>
<path fill-rule="evenodd" clip-rule="evenodd" d="M271.343 63.1689L268.733 60.559C268.573 60.3989 268.573 60.1393 268.733 59.9791L271.343 57.3692C271.504 57.2091 271.763 57.2091 271.924 57.3692C272.084 57.5294 272.084 57.7891 271.924 57.9492L270.014 59.859H284.607V60.6792H270.014L271.924 62.5889C272.084 62.7491 272.084 63.0087 271.924 63.1689C271.763 63.3291 271.504 63.3291 271.343 63.1689Z" fill="#113287"/>
<path fill-rule="evenodd" clip-rule="evenodd" d="M322.477 57.3692L325.087 59.979C325.247 60.1391 325.247 60.3988 325.087 60.559L322.477 63.1688C322.316 63.3289 322.057 63.3289 321.896 63.1688C321.736 63.0086 321.736 62.749 321.896 62.5888L323.807 60.6791H309.213V59.8589H323.807L321.896 57.9491C321.736 57.7889 321.736 57.5293 321.896 57.3692C322.057 57.209 322.316 57.209 322.477 57.3692Z" fill="#113287"/>
<path d="M586.812 15.9041H563.184V35.5887H586.812L593 25.7464L586.812 15.9041Z" fill="#001A5B"/>
<path d="M518.363 15.9041H583.978V35.5887H518.363V15.9041Z" fill="#001A5B"/>
<path fill-rule="evenodd" clip-rule="evenodd" d="M370.317 52.4924V3.58518e-08L371.138 0V52.4924H370.317Z" fill="#979797"/>
<path fill-rule="evenodd" clip-rule="evenodd" d="M444.135 52.4924V3.58518e-08L444.955 0V52.4924H444.135Z" fill="#979797"/>
<path fill-rule="evenodd" clip-rule="evenodd" d="M517.952 52.4924V3.58518e-08L518.772 0V52.4924H517.952Z" fill="#979797"/>
<path d="M245.996 22.5121V26.7573H245.236V25.8842H243.425V25.2595H245.236V24.3864H243.501C243.037 25.5398 241.96 26.3528 240.406 26.7973L240.101 26.2046C241.799 25.72 242.793 24.8069 242.929 23.6495H240.47V23.0248H243.754C243.754 23.2891 243.726 23.5454 243.678 23.7857H245.236V22.5121H245.996ZM241.215 28.2391C241.215 27.37 242.16 26.8414 243.634 26.8374C245.087 26.8414 246.041 27.37 246.045 28.2391C246.041 29.1121 245.087 29.6488 243.634 29.6488C242.16 29.6488 241.215 29.1121 241.215 28.2391ZM241.968 28.2391C241.968 28.7437 242.608 29.036 243.634 29.04C244.639 29.036 245.28 28.7437 245.284 28.2391C245.28 27.7265 244.639 27.4341 243.634 27.4381C242.608 27.4341 241.968 27.7265 241.968 28.2391ZM252.917 25.8121V26.4209H250.746V28.175H253.67V28.7998H247.102V28.175H249.993V26.4209H247.919V23.0568H252.853V23.6735H248.68V25.8121H252.917ZM258.468 29.0801C257.206 29.0801 256.329 28.3993 256.337 27.4541C256.329 26.7092 256.862 26.1005 257.546 25.9964V25.9643C256.95 25.8282 256.553 25.2995 256.553 24.6668C256.553 23.7737 257.358 23.1209 258.468 23.1209C259.561 23.1209 260.37 23.7737 260.374 24.6668C260.37 25.2995 259.965 25.8282 259.381 25.9643V25.9964C260.058 26.1005 260.594 26.7092 260.598 27.4541C260.594 28.3993 259.709 29.0801 258.468 29.0801ZM257.234 27.39C257.222 27.9587 257.703 28.3512 258.468 28.3512C259.221 28.3512 259.701 27.9587 259.701 27.39C259.701 26.7933 259.18 26.3568 258.468 26.3568C257.747 26.3568 257.222 26.7933 257.234 27.39ZM257.41 24.7468C257.414 25.2875 257.847 25.664 258.468 25.66C259.072 25.664 259.513 25.2915 259.509 24.7468C259.513 24.2062 259.088 23.8377 258.468 23.8418C257.831 23.8377 257.414 24.2062 257.41 24.7468ZM263.53 29.0801C262.188 29.0801 261.399 27.9988 261.399 26.1005C261.399 24.2142 262.196 23.1209 263.53 23.1209C264.859 23.1209 265.656 24.2142 265.66 26.1005C265.656 27.9988 264.871 29.0801 263.53 29.0801ZM262.28 26.1005C262.276 27.5462 262.745 28.3192 263.53 28.3192C264.311 28.3192 264.779 27.5462 264.779 26.1005C264.779 24.6587 264.307 23.8698 263.53 23.8658C262.749 23.8698 262.28 24.6587 262.28 26.1005ZM266.926 29.0561C266.613 29.0521 266.353 28.7998 266.357 28.4874C266.353 28.175 266.613 27.9187 266.926 27.9187C267.234 27.9187 267.491 28.175 267.495 28.4874C267.491 28.7998 267.234 29.0521 266.926 29.0561ZM270.37 29.0801C269.169 29.0801 268.316 28.4353 268.279 27.4862H269.177C269.209 27.9948 269.713 28.3192 270.362 28.3192C271.063 28.3192 271.571 27.9387 271.571 27.374C271.571 26.8013 271.095 26.3928 270.266 26.3888H269.769V25.668H270.266C270.927 25.672 271.387 25.3035 271.387 24.7468C271.387 24.2182 270.991 23.8578 270.378 23.8578C269.797 23.8578 269.277 24.1822 269.257 24.7068H268.408C268.432 23.7617 269.305 23.1209 270.386 23.1209C271.527 23.1209 272.244 23.8418 272.236 24.6988C272.244 25.3596 271.836 25.8322 271.211 25.9884V26.0284C272.004 26.1405 272.465 26.6732 272.461 27.4061C272.465 28.3712 271.571 29.0801 270.37 29.0801ZM274.759 25.9563C273.966 25.9643 273.534 25.3756 273.542 24.5146C273.534 23.6655 273.986 23.0768 274.759 23.0808C275.556 23.0768 275.973 23.6655 275.977 24.5146C275.973 25.3796 275.54 25.9643 274.759 25.9563ZM274.199 29L278.179 23.201H278.908L274.928 29H274.199ZM274.199 24.5146C274.203 25.0472 274.387 25.3916 274.759 25.3956C275.136 25.3916 275.312 25.0472 275.312 24.5146C275.312 23.9939 275.148 23.6375 274.759 23.6415C274.387 23.6495 274.203 23.9979 274.199 24.5146ZM277.202 27.6784C277.198 26.8214 277.647 26.2326 278.42 26.2367C279.213 26.2326 279.633 26.8214 279.637 27.6784C279.633 28.5354 279.201 29.1201 278.42 29.1201C277.631 29.1201 277.198 28.5314 277.202 27.6784ZM277.859 27.6784C277.863 28.203 278.047 28.5515 278.42 28.5515C278.796 28.5515 278.972 28.203 278.972 27.6784C278.972 27.1498 278.808 26.7973 278.42 26.7973C278.051 26.8053 277.863 27.1538 277.859 27.6784Z" fill="#113287"/>
<path d="M173.428 25.8282V26.4449H170.529V27.1337C171.842 27.2058 172.623 27.6464 172.627 28.3993C172.623 29.2123 171.694 29.6688 170.152 29.6648C168.591 29.6688 167.661 29.2123 167.661 28.3993C167.661 27.6464 168.442 27.2018 169.776 27.1337V26.4449H166.884V25.8282H173.428ZM167.229 24.851C168.518 24.7188 169.536 24.1341 169.64 23.4413H167.485V22.8325H172.844V23.4413H170.665C170.769 24.1381 171.778 24.7188 173.092 24.851L172.82 25.4517C171.574 25.3075 170.545 24.7829 170.156 24.022C169.76 24.7829 168.739 25.3075 167.493 25.4517L167.229 24.851ZM168.43 28.3993C168.426 28.8358 169.055 29.0881 170.152 29.0801C171.234 29.0881 171.866 28.8358 171.866 28.3993C171.866 27.9547 171.234 27.7144 170.152 27.7104C169.055 27.7144 168.426 27.9547 168.43 28.3993ZM179.788 25.8121V26.4209H177.617V28.175H180.541V28.7998H173.973V28.175H176.865V26.4209H174.79V23.0568H179.724V23.6735H175.551V25.8121H179.788ZM185.515 23.201V29H184.626V24.082H184.594L183.208 24.9871V24.1461L184.65 23.201H185.515ZM189.015 29.0801C187.754 29.0801 186.877 28.3993 186.885 27.4541C186.877 26.7092 187.409 26.1005 188.094 25.9964V25.9643C187.497 25.8282 187.101 25.2995 187.101 24.6668C187.101 23.7737 187.906 23.1209 189.015 23.1209C190.109 23.1209 190.918 23.7737 190.922 24.6668C190.918 25.2995 190.513 25.8282 189.928 25.9643V25.9964C190.605 26.1005 191.142 26.7092 191.146 27.4541C191.142 28.3993 190.257 29.0801 189.015 29.0801ZM187.782 27.39C187.77 27.9587 188.25 28.3512 189.015 28.3512C189.768 28.3512 190.249 27.9587 190.249 27.39C190.249 26.7933 189.728 26.3568 189.015 26.3568C188.294 26.3568 187.77 26.7933 187.782 27.39ZM187.958 24.7468C187.962 25.2875 188.395 25.664 189.015 25.66C189.62 25.664 190.061 25.2915 190.057 24.7468C190.061 24.2062 189.636 23.8377 189.015 23.8418C188.378 23.8377 187.962 24.2062 187.958 24.7468ZM192.451 29.0561C192.139 29.0521 191.879 28.7998 191.883 28.4874C191.879 28.175 192.139 27.9187 192.451 27.9187C192.76 27.9187 193.016 28.175 193.02 28.4874C193.016 28.7998 192.76 29.0521 192.451 29.0561ZM195.92 29.0801C194.822 29.0801 193.997 28.4113 193.957 27.4862H194.814C194.862 27.9788 195.335 28.3392 195.92 28.3432C196.624 28.3392 197.129 27.8306 197.129 27.1417C197.129 26.4369 196.608 25.9243 195.88 25.9163C195.415 25.9163 195.059 26.0725 194.862 26.4289H194.029L194.406 23.201H197.69V23.9539H195.135L194.942 25.5799H194.999C195.239 25.3476 195.647 25.1914 196.088 25.1874C197.181 25.1914 197.986 26.0004 197.986 27.1177C197.986 28.2591 197.129 29.0801 195.92 29.0801ZM200.253 25.9563C199.46 25.9643 199.027 25.3756 199.035 24.5146C199.027 23.6655 199.48 23.0768 200.253 23.0808C201.05 23.0768 201.466 23.6655 201.47 24.5146C201.466 25.3796 201.034 25.9643 200.253 25.9563ZM199.692 29L203.673 23.201H204.402L200.421 29H199.692ZM199.692 24.5146C199.696 25.0472 199.88 25.3916 200.253 25.3956C200.629 25.3916 200.806 25.0472 200.806 24.5146C200.806 23.9939 200.641 23.6375 200.253 23.6415C199.88 23.6495 199.696 23.9979 199.692 24.5146ZM202.696 27.6784C202.692 26.8214 203.14 26.2326 203.913 26.2367C204.706 26.2326 205.127 26.8214 205.131 27.6784C205.127 28.5354 204.694 29.1201 203.913 29.1201C203.124 29.1201 202.692 28.5314 202.696 27.6784ZM203.353 27.6784C203.357 28.203 203.541 28.5515 203.913 28.5515C204.29 28.5515 204.466 28.203 204.466 27.6784C204.466 27.1498 204.302 26.7973 203.913 26.7973C203.545 26.8053 203.357 27.1538 203.353 27.6784Z" fill="white"/>
<path d="M100.656 23.193V23.8978C100.652 24.7829 100.652 25.7761 100.384 27.2459L99.615 27.1658C99.8913 25.7761 99.8913 24.7589 99.8953 23.8978V23.8097H95.5381V23.193H100.656ZM94.8492 28.7117V28.0789H97.3403V25.5478H98.0932V28.0789H101.393V28.7117H94.8492ZM107.753 25.8121V26.4209H105.582V28.175H108.506V28.7998H101.938V28.175H104.829V26.4209H102.755V23.0568H107.689V23.6735H103.516V25.8121H107.753ZM113.296 29.0801C111.954 29.0801 111.165 27.9988 111.165 26.1005C111.165 24.2142 111.962 23.1209 113.296 23.1209C114.625 23.1209 115.422 24.2142 115.426 26.1005C115.422 27.9988 114.637 29.0801 113.296 29.0801ZM112.046 26.1005C112.042 27.5462 112.511 28.3192 113.296 28.3192C114.077 28.3192 114.545 27.5462 114.545 26.1005C114.545 24.6587 114.073 23.8698 113.296 23.8658C112.515 23.8698 112.046 24.6587 112.046 26.1005ZM116.692 29.0561C116.379 29.0521 116.119 28.7998 116.123 28.4874C116.119 28.175 116.379 27.9187 116.692 27.9187C117 27.9187 117.256 28.175 117.26 28.4874C117.256 28.7998 117 29.0521 116.692 29.0561ZM120.208 23.1209C121.273 23.1289 122.391 23.7697 122.395 25.8922C122.395 27.9267 121.518 29.0801 120.128 29.0801C119.059 29.0801 118.314 28.4193 118.173 27.4782H119.047C119.167 27.9667 119.543 28.3072 120.128 28.3112C121.021 28.3072 121.546 27.5302 121.554 26.2046H121.481C121.169 26.6932 120.624 26.9896 120 26.9896C118.958 26.9896 118.125 26.1926 118.125 25.0833C118.125 23.9779 118.946 23.1129 120.208 23.1209ZM118.982 25.0672C118.986 25.7401 119.487 26.2727 120.192 26.2687C120.893 26.2727 121.433 25.7 121.433 25.0592C121.433 24.4305 120.917 23.8578 120.208 23.8578C119.507 23.8578 118.978 24.4024 118.982 25.0672ZM124.653 25.9563C123.86 25.9643 123.428 25.3756 123.436 24.5146C123.428 23.6655 123.88 23.0768 124.653 23.0808C125.45 23.0768 125.867 23.6655 125.871 24.5146C125.867 25.3796 125.434 25.9643 124.653 25.9563ZM124.093 29L128.073 23.201H128.802L124.822 29H124.093ZM124.093 24.5146C124.097 25.0472 124.281 25.3916 124.653 25.3956C125.03 25.3916 125.206 25.0472 125.206 24.5146C125.206 23.9939 125.042 23.6375 124.653 23.6415C124.281 23.6495 124.097 23.9979 124.093 24.5146ZM127.096 27.6784C127.092 26.8214 127.541 26.2326 128.314 26.2367C129.107 26.2326 129.527 26.8214 129.531 27.6784C129.527 28.5354 129.095 29.1201 128.314 29.1201C127.525 29.1201 127.092 28.5314 127.096 27.6784ZM127.753 27.6784C127.757 28.203 127.941 28.5515 128.314 28.5515C128.69 28.5515 128.866 28.203 128.866 27.6784C128.866 27.1498 128.702 26.7973 128.314 26.7973C127.945 26.8053 127.757 27.1538 127.753 27.6784Z" fill="white"/>
<path d="M23.5615 28.175V28.7998H16.9935V28.175H19.8931V26.6131H20.646V28.175H23.5615ZM17.3139 26.2687C18.7877 26.0524 19.849 25.2194 19.885 24.2102H17.5863V23.5934H19.8931V22.6323H20.646V23.5934H22.9528V24.2102H20.654C20.69 25.2194 21.7513 26.0524 23.2251 26.2687L22.9367 26.8614C21.7353 26.6732 20.7341 26.1045 20.2655 25.2675C19.8009 26.1045 18.8037 26.6732 17.6023 26.8614L17.3139 26.2687ZM29.8892 23.193V23.8978C29.8852 24.7829 29.8852 25.7761 29.6168 27.2459L28.8479 27.1658C29.1242 25.7761 29.1242 24.7589 29.1282 23.8978V23.8097H24.771V23.193H29.8892ZM24.0821 28.7117V28.0789H26.5731V25.5478H27.3261V28.0789H30.6261V28.7117H24.0821ZM36.9858 25.8121V26.4209H34.8151V28.175H37.7387V28.7998H31.1707V28.175H34.0622V26.4209H31.9877V23.0568H36.9217V23.6735H32.7486V25.8121H36.9858ZM42.5285 29.0801C41.1869 29.0801 40.3979 27.9988 40.3979 26.1005C40.3979 24.2142 41.1949 23.1209 42.5285 23.1209C43.8581 23.1209 44.6551 24.2142 44.6591 26.1005C44.6551 27.9988 43.8701 29.0801 42.5285 29.0801ZM41.279 26.1005C41.275 27.5462 41.7435 28.3192 42.5285 28.3192C43.3094 28.3192 43.778 27.5462 43.778 26.1005C43.778 24.6587 43.3054 23.8698 42.5285 23.8658C41.7475 23.8698 41.279 24.6587 41.279 26.1005ZM45.9246 29.0561C45.6122 29.0521 45.3519 28.7998 45.3559 28.4874C45.3519 28.175 45.6122 27.9187 45.9246 27.9187C46.233 27.9187 46.4893 28.175 46.4933 28.4874C46.4893 28.7998 46.233 29.0521 45.9246 29.0561ZM47.3904 27.8706V27.1578L49.9535 23.201H51.0428V27.1257H51.8358V27.8706H51.0428V29H50.2098V27.8706H47.3904ZM48.3195 27.1257H50.2098V24.2502H50.1457L48.3195 27.0777V27.1257ZM54.0544 25.9563C53.2615 25.9643 52.829 25.3756 52.837 24.5146C52.829 23.6655 53.2815 23.0768 54.0544 23.0808C54.8514 23.0768 55.2679 23.6655 55.2719 24.5146C55.2679 25.3796 54.8354 25.9643 54.0544 25.9563ZM53.4938 29L57.4746 23.201H58.2035L54.2226 29H53.4938ZM53.4938 24.5146C53.4978 25.0472 53.682 25.3916 54.0544 25.3956C54.4309 25.3916 54.6071 25.0472 54.6071 24.5146C54.6071 23.9939 54.4429 23.6375 54.0544 23.6415C53.682 23.6495 53.4978 23.9979 53.4938 24.5146ZM56.4974 27.6784C56.4934 26.8214 56.9419 26.2326 57.7149 26.2367C58.5078 26.2326 58.9283 26.8214 58.9323 27.6784C58.9283 28.5354 58.4958 29.1201 57.7149 29.1201C56.9259 29.1201 56.4934 28.5314 56.4974 27.6784ZM57.1542 27.6784C57.1582 28.203 57.3424 28.5515 57.7149 28.5515C58.0913 28.5515 58.2675 28.203 58.2675 27.6784C58.2675 27.1498 58.1033 26.7973 57.7149 26.7973C57.3464 26.8053 57.1582 27.1538 57.1542 27.6784Z" fill="white"/>
<path d="M469.808 23.193V23.8978C469.803 24.7829 469.803 25.7761 469.535 27.2459L468.766 27.1658C469.043 25.7761 469.043 24.7589 469.047 23.8978V23.8097H464.689V23.193H469.808ZM464 28.7117V28.0789H466.491V25.5478H467.244V28.0789H470.544V28.7117H464ZM476.904 25.8121V26.4209H474.733V28.175H477.657V28.7998H471.089V28.175H473.981V26.4209H471.906V23.0568H476.84V23.6735H472.667V25.8121H476.904ZM480.428 29V28.3592L482.439 26.3328C483.076 25.672 483.392 25.3035 483.392 24.7949C483.392 24.2222 482.927 23.8578 482.319 23.8578C481.674 23.8578 481.265 24.2663 481.261 24.883H480.428C480.42 23.8217 481.229 23.1209 482.335 23.1209C483.452 23.1209 484.225 23.8297 484.233 24.7709C484.225 25.4197 483.921 25.9363 482.831 27.0056L481.654 28.199V28.2471H484.329V29H480.428ZM485.875 29.0561C485.563 29.0521 485.302 28.7998 485.306 28.4874C485.302 28.175 485.563 27.9187 485.875 27.9187C486.183 27.9187 486.44 28.175 486.444 28.4874C486.44 28.7998 486.183 29.0521 485.875 29.0561ZM489.343 29.0801C488.246 29.0801 487.421 28.4113 487.381 27.4862H488.238C488.286 27.9788 488.758 28.3392 489.343 28.3432C490.048 28.3392 490.553 27.8306 490.553 27.1417C490.553 26.4369 490.032 25.9243 489.303 25.9163C488.839 25.9163 488.482 26.0725 488.286 26.4289H487.453L487.829 23.201H491.113V23.9539H488.558L488.366 25.5799H488.422C488.662 25.3476 489.071 25.1914 489.511 25.1874C490.605 25.1914 491.41 26.0004 491.41 27.1177C491.41 28.2591 490.553 29.0801 489.343 29.0801ZM493.676 25.9563C492.883 25.9643 492.451 25.3756 492.459 24.5146C492.451 23.6655 492.903 23.0768 493.676 23.0808C494.473 23.0768 494.89 23.6655 494.894 24.5146C494.89 25.3796 494.457 25.9643 493.676 25.9563ZM493.116 29L497.097 23.201H497.825L493.845 29H493.116ZM493.116 24.5146C493.12 25.0472 493.304 25.3916 493.676 25.3956C494.053 25.3916 494.229 25.0472 494.229 24.5146C494.229 23.9939 494.065 23.6375 493.676 23.6415C493.304 23.6495 493.12 23.9979 493.116 24.5146ZM496.119 27.6784C496.115 26.8214 496.564 26.2326 497.337 26.2367C498.13 26.2326 498.55 26.8214 498.554 27.6784C498.55 28.5354 498.118 29.1201 497.337 29.1201C496.548 29.1201 496.115 28.5314 496.119 27.6784ZM496.776 27.6784C496.78 28.203 496.964 28.5515 497.337 28.5515C497.713 28.5515 497.89 28.203 497.89 27.6784C497.89 27.1498 497.725 26.7973 497.337 26.7973C496.968 26.8053 496.78 27.1538 496.776 27.6784Z" fill="white"/>
<path d="M397.372 25.8282V26.4449H394.472V27.1337C395.786 27.2058 396.567 27.6464 396.571 28.3993C396.567 29.2123 395.638 29.6688 394.096 29.6648C392.534 29.6688 391.605 29.2123 391.605 28.3993C391.605 27.6464 392.386 27.2018 393.719 27.1337V26.4449H390.828V25.8282H397.372ZM391.172 24.851C392.462 24.7188 393.479 24.1341 393.583 23.4413H391.429V22.8325H396.787V23.4413H394.608C394.713 24.1381 395.722 24.7188 397.035 24.851L396.763 25.4517C395.518 25.3075 394.488 24.7829 394.1 24.022C393.703 24.7829 392.682 25.3075 391.437 25.4517L391.172 24.851ZM392.374 28.3993C392.37 28.8358 392.998 29.0881 394.096 29.0801C395.177 29.0881 395.81 28.8358 395.81 28.3993C395.81 27.9547 395.177 27.7144 394.096 27.7104C392.998 27.7144 392.37 27.9547 392.374 28.3993ZM403.732 25.8121V26.4209H401.561V28.175H404.484V28.7998H397.916V28.175H400.808V26.4209H398.733V23.0568H403.667V23.6735H399.494V25.8121H403.732ZM407.456 29L410.043 24.0019V23.9539H407.056V23.201H410.956V23.9859L408.377 29H407.456ZM411.413 29.0561C411.1 29.0521 410.84 28.7998 410.844 28.4874C410.84 28.175 411.1 27.9187 411.413 27.9187C411.721 27.9187 411.977 28.175 411.981 28.4874C411.977 28.7998 411.721 29.0521 411.413 29.0561ZM414.881 29.0801C413.784 29.0801 412.959 28.4113 412.919 27.4862H413.776C413.824 27.9788 414.296 28.3392 414.881 28.3432C415.586 28.3392 416.09 27.8306 416.09 27.1417C416.09 26.4369 415.57 25.9243 414.841 25.9163C414.376 25.9163 414.02 26.0725 413.824 26.4289H412.991L413.367 23.201H416.651V23.9539H414.096L413.904 25.5799H413.96C414.2 25.3476 414.609 25.1914 415.049 25.1874C416.143 25.1914 416.948 26.0004 416.948 27.1177C416.948 28.2591 416.09 29.0801 414.881 29.0801ZM419.214 25.9563C418.421 25.9643 417.989 25.3756 417.997 24.5146C417.989 23.6655 418.441 23.0768 419.214 23.0808C420.011 23.0768 420.428 23.6655 420.432 24.5146C420.428 25.3796 419.995 25.9643 419.214 25.9563ZM418.654 29L422.634 23.201H423.363L419.382 29H418.654ZM418.654 24.5146C418.658 25.0472 418.842 25.3916 419.214 25.3956C419.591 25.3916 419.767 25.0472 419.767 24.5146C419.767 23.9939 419.603 23.6375 419.214 23.6415C418.842 23.6495 418.658 23.9979 418.654 24.5146ZM421.657 27.6784C421.653 26.8214 422.102 26.2326 422.875 26.2367C423.668 26.2326 424.088 26.8214 424.092 27.6784C424.088 28.5354 423.656 29.1201 422.875 29.1201C422.086 29.1201 421.653 28.5314 421.657 27.6784ZM422.314 27.6784C422.318 28.203 422.502 28.5515 422.875 28.5515C423.251 28.5515 423.427 28.203 423.427 27.6784C423.427 27.1498 423.263 26.7973 422.875 26.7973C422.506 26.8053 422.318 27.1538 422.314 27.6784Z" fill="white"/>
<path d="M320.294 22.5121V26.7573H319.534V25.8842H317.723V25.2595H319.534V24.3864H317.799C317.335 25.5398 316.258 26.3528 314.704 26.7973L314.399 26.2046C316.097 25.72 317.091 24.8069 317.227 23.6495H314.768V23.0248H318.052C318.052 23.2891 318.024 23.5454 317.976 23.7857H319.534V22.5121H320.294ZM315.513 28.2391C315.513 27.37 316.458 26.8414 317.932 26.8374C319.385 26.8414 320.339 27.37 320.343 28.2391C320.339 29.1121 319.385 29.6488 317.932 29.6488C316.458 29.6488 315.513 29.1121 315.513 28.2391ZM316.266 28.2391C316.266 28.7437 316.906 29.036 317.932 29.04C318.937 29.036 319.578 28.7437 319.582 28.2391C319.578 27.7265 318.937 27.4341 317.932 27.4381C316.906 27.4341 316.266 27.7265 316.266 28.2391ZM327.215 25.8121V26.4209H325.044V28.175H327.968V28.7998H321.4V28.175H324.291V26.4209H322.217V23.0568H327.151V23.6735H322.978V25.8121H327.215ZM332.766 29.0801C331.504 29.0801 330.627 28.3993 330.635 27.4541C330.627 26.7092 331.16 26.1005 331.844 25.9964V25.9643C331.248 25.8282 330.851 25.2995 330.851 24.6668C330.851 23.7737 331.656 23.1209 332.766 23.1209C333.859 23.1209 334.668 23.7737 334.672 24.6668C334.668 25.2995 334.263 25.8282 333.679 25.9643V25.9964C334.355 26.1005 334.892 26.7092 334.896 27.4541C334.892 28.3993 334.007 29.0801 332.766 29.0801ZM331.532 27.39C331.52 27.9587 332.001 28.3512 332.766 28.3512C333.518 28.3512 333.999 27.9587 333.999 27.39C333.999 26.7933 333.478 26.3568 332.766 26.3568C332.045 26.3568 331.52 26.7933 331.532 27.39ZM331.708 24.7468C331.712 25.2875 332.145 25.664 332.766 25.66C333.37 25.664 333.811 25.2915 333.807 24.7468C333.811 24.2062 333.386 23.8377 332.766 23.8418C332.129 23.8377 331.712 24.2062 331.708 24.7468ZM336.01 29L338.597 24.0019V23.9539H335.609V23.201H339.51V23.9859L336.931 29H336.01ZM339.966 29.0561C339.654 29.0521 339.394 28.7998 339.398 28.4874C339.394 28.175 339.654 27.9187 339.966 27.9187C340.275 27.9187 340.531 28.175 340.535 28.4874C340.531 28.7998 340.275 29.0521 339.966 29.0561ZM341.432 27.8706V27.1578L343.995 23.201H345.084V27.1257H345.877V27.8706H345.084V29H344.251V27.8706H341.432ZM342.361 27.1257H344.251V24.2502H344.187L342.361 27.0777V27.1257ZM348.096 25.9563C347.303 25.9643 346.871 25.3756 346.879 24.5146C346.871 23.6655 347.323 23.0768 348.096 23.0808C348.893 23.0768 349.31 23.6655 349.314 24.5146C349.31 25.3796 348.877 25.9643 348.096 25.9563ZM347.535 29L351.516 23.201H352.245L348.264 29H347.535ZM347.535 24.5146C347.539 25.0472 347.724 25.3916 348.096 25.3956C348.473 25.3916 348.649 25.0472 348.649 24.5146C348.649 23.9939 348.485 23.6375 348.096 23.6415C347.724 23.6495 347.539 23.9979 347.535 24.5146ZM350.539 27.6784C350.535 26.8214 350.984 26.2326 351.757 26.2367C352.55 26.2326 352.97 26.8214 352.974 27.6784C352.97 28.5354 352.538 29.1201 351.757 29.1201C350.968 29.1201 350.535 28.5314 350.539 27.6784ZM351.196 27.6784C351.2 28.203 351.384 28.5515 351.757 28.5515C352.133 28.5515 352.309 28.203 352.309 27.6784C352.309 27.1498 352.145 26.7973 351.757 26.7973C351.388 26.8053 351.2 27.1538 351.196 27.6784Z" fill="#113287"/>
<path d="M540.842 28.175V28.7998H534.274V28.175H537.173V26.6131H537.926V28.175H540.842ZM534.594 26.2687C536.068 26.0524 537.129 25.2194 537.165 24.2102H534.866V23.5934H537.173V22.6323H537.926V23.5934H540.233V24.2102H537.934C537.97 25.2194 539.031 26.0524 540.505 26.2687L540.217 26.8614C539.015 26.6732 538.014 26.1045 537.546 25.2675C537.081 26.1045 536.084 26.6732 534.882 26.8614L534.594 26.2687ZM547.169 23.193V23.8978C547.165 24.7829 547.165 25.7761 546.897 27.2459L546.128 27.1658C546.404 25.7761 546.404 24.7589 546.408 23.8978V23.8097H542.051V23.193H547.169ZM541.362 28.7117V28.0789H543.853V25.5478H544.606V28.0789H547.906V28.7117H541.362ZM554.266 25.8121V26.4209H552.095V28.175H555.019V28.7998H548.451V28.175H551.342V26.4209H549.268V23.0568H554.202V23.6735H550.029V25.8121H554.266ZM557.79 29V28.3592L559.8 26.3328C560.437 25.672 560.754 25.3035 560.754 24.7949C560.754 24.2222 560.289 23.8578 559.68 23.8578C559.036 23.8578 558.627 24.2663 558.623 24.883H557.79C557.782 23.8217 558.591 23.1209 559.696 23.1209C560.814 23.1209 561.587 23.8297 561.595 24.7709C561.587 25.4197 561.282 25.9363 560.193 27.0056L559.016 28.199V28.2471H561.691V29H557.79ZM563.237 29.0561C562.924 29.0521 562.664 28.7998 562.668 28.4874C562.664 28.175 562.924 27.9187 563.237 27.9187C563.545 27.9187 563.801 28.175 563.805 28.4874C563.801 28.7998 563.545 29.0521 563.237 29.0561ZM566.705 29.0801C565.608 29.0801 564.783 28.4113 564.742 27.4862H565.6C565.648 27.9788 566.12 28.3392 566.705 28.3432C567.41 28.3392 567.914 27.8306 567.914 27.1417C567.914 26.4369 567.394 25.9243 566.665 25.9163C566.2 25.9163 565.844 26.0725 565.648 26.4289H564.815L565.191 23.201H568.475V23.9539H565.92L565.728 25.5799H565.784C566.024 25.3476 566.433 25.1914 566.873 25.1874C567.966 25.1914 568.771 26.0004 568.771 27.1177C568.771 28.2591 567.914 29.0801 566.705 29.0801ZM571.038 25.9563C570.245 25.9643 569.813 25.3756 569.821 24.5146C569.813 23.6655 570.265 23.0768 571.038 23.0808C571.835 23.0768 572.252 23.6655 572.256 24.5146C572.252 25.3796 571.819 25.9643 571.038 25.9563ZM570.477 29L574.458 23.201H575.187L571.206 29H570.477ZM570.477 24.5146C570.481 25.0472 570.666 25.3916 571.038 25.3956C571.415 25.3916 571.591 25.0472 571.591 24.5146C571.591 23.9939 571.427 23.6375 571.038 23.6415C570.666 23.6495 570.481 23.9979 570.477 24.5146ZM573.481 27.6784C573.477 26.8214 573.926 26.2326 574.699 26.2367C575.491 26.2326 575.912 26.8214 575.916 27.6784C575.912 28.5354 575.479 29.1201 574.699 29.1201C573.91 29.1201 573.477 28.5314 573.481 27.6784ZM574.138 27.6784C574.142 28.203 574.326 28.5515 574.699 28.5515C575.075 28.5515 575.251 28.203 575.251 27.6784C575.251 27.1498 575.087 26.7973 574.699 26.7973C574.33 26.8053 574.142 27.1538 574.138 27.6784Z" fill="white"/>
<path d="M-338 -1403H2975V-1405H-338V-1403ZM2976 -1402V568H2978V-1402H2976ZM2975 569H-338V571H2975V569ZM-339 568V-1402H-341V568H-339ZM-338 569C-338.552 569 -339 568.552 -339 568H-341C-341 569.657 -339.657 571 -338 571V569ZM2976 568C2976 568.552 2975.55 569 2975 569V571C2976.66 571 2978 569.657 2978 568H2976ZM2975 -1403C2975.55 -1403 2976 -1402.55 2976 -1402H2978C2978 -1403.66 2976.66 -1405 2975 -1405V-1403ZM-338 -1405C-339.657 -1405 -341 -1403.66 -341 -1402H-339C-339 -1402.55 -338.552 -1403 -338 -1403V-1405Z" fill="black" fill-opacity="0.1"/>
</svg>
