<?xml version="1.0" encoding="UTF-8"?>
<svg width="593px" height="88px" viewBox="0 0 593 88" version="1.1" xmlns="http://www.w3.org/2000/svg" xmlns:xlink="http://www.w3.org/1999/xlink">
    <title>Artboard</title>
    <g id="Artboard" stroke="none" stroke-width="1" fill="none" fill-rule="evenodd">
        <g id="totalSeverity60s" transform="translate(0.000000, 9.000000)">
            <polygon id="Path" fill="#979797" points="111.956432 40.0132967 111.956432 12.5231946 112.776625 12.5231946 112.776625 40.0132967"></polygon>
            <polygon id="Path" fill="#001A5B" fill-rule="nonzero" points="6.18831999 15.9040328 29.8161712 15.9040328 29.8161712 35.5886801 6.18831999 35.5886801 0 25.7463565"></polygon>
            <path d="M292.134109,62.8017697 C293.255314,62.8088565 294.00169,62.0339375 294.00169,61.0211624 C294.00169,60.0227407 293.252033,59.3090902 292.321934,59.3054814 C291.756,59.3090902 291.265524,59.5685995 290.980917,60.0119141 L290.923503,60.0119141 C290.923503,58.8332959 291.391834,58.1339988 292.198905,58.1303899 C292.725469,58.1339988 293.060928,58.4404231 293.165093,58.8656935 L293.950838,58.8656935 C293.828629,58.0367238 293.161812,57.4383926 292.198905,57.4383926 C290.948109,57.4383926 290.162364,58.4764296 290.159083,60.2930765 C290.159083,62.2213518 291.168741,62.7945031 292.134109,62.8017697 Z M291.017006,61.0427335 C291.024387,60.4624465 291.510762,59.9506457 292.148873,59.9542346 C292.775501,59.9506457 293.229888,60.4371845 293.229888,61.0355158 C293.229888,61.6446736 292.758277,62.1349033 292.126728,62.1385122 C291.485336,62.1349033 291.020286,61.6230205 291.017006,61.0427335 Z" id="Shape" fill="#001A5B" fill-rule="nonzero"></path>
            <path d="M296.661578,62.8017208 C297.868903,62.8017208 298.57509,61.828479 298.579191,60.1200157 C298.57509,58.4223789 297.858241,57.4383926 296.661578,57.4383926 C295.460815,57.4383926 294.743965,58.4223789 294.743965,60.1200157 C294.743965,61.828479 295.454253,62.8017208 296.661578,62.8017208 Z M295.537093,60.1200157 C295.537093,58.8224693 295.958672,58.1124277 296.661578,58.1088188 C297.360383,58.1124277 297.786064,58.8224693 297.786064,60.1200157 C297.786064,61.4211708 297.364484,62.1168591 296.661578,62.1168591 C295.954571,62.1168591 295.532992,61.4211708 295.537093,60.1200157 Z" id="Shape" fill="#001A5B" fill-rule="nonzero"></path>
            <path d="M301.166902,62.7296258 C302.756437,62.7296258 303.671773,61.7420306 303.675874,60.112798 C303.671773,58.4872562 302.756437,57.5104876 301.216934,57.5104876 L299.473202,57.5104876 L299.473202,62.7296258 L301.166902,62.7296258 Z M300.265509,62.0375464 L300.265509,58.202485 L301.166902,58.202485 C302.306151,58.202485 302.890129,58.8837378 302.890129,60.112798 C302.890129,61.345549 302.306151,62.0339375 301.123432,62.0375464 L300.265509,62.0375464 Z" id="Shape" fill="#001A5B" fill-rule="nonzero"></path>
            <path d="M275.65888,66.5806809 L275.15282,66.5806809 L275.15282,69.9511027 L273.973382,69.9511027 L273.973382,70.3164169 L275.15282,70.3164169 L275.15282,70.9058901 L275.65888,70.9058901 L275.65888,66.5806809 Z M270.929643,69.2206382 L271.00018,69.630735 C271.477533,69.630735 272.025422,69.630735 272.602018,69.6083437 L272.602018,70.7072392 L273.108077,70.7072392 L273.108077,69.5826717 C273.630541,69.5506841 274.166127,69.499422 274.672187,69.4192891 L274.640199,69.0540569 C273.418931,69.2046444 271.990154,69.2142407 270.929643,69.2206382 Z M271.391398,67.8045739 C271.388131,68.4132396 271.958166,68.7913489 272.800505,68.7913489 C273.637102,68.7913489 274.207137,68.4132396 274.210418,67.8045739 C274.207137,67.2054224 273.637102,66.8113194 272.800505,66.8113194 C271.958166,66.8113194 271.388131,67.2054224 271.391398,67.8045739 Z M271.749837,72.1489755 L275.799953,72.1489755 L275.799953,71.7260837 L272.255896,71.7260837 L272.255896,70.4829982 L271.749837,70.4829982 L271.749837,72.1489755 Z M271.872046,67.8045739 C271.865484,67.4393417 272.243593,67.1894287 272.800505,67.1958262 C273.342653,67.1894287 273.726503,67.4393417 273.729784,67.8045739 C273.726503,68.1762036 273.342653,68.4165204 272.800505,68.4197191 C272.243593,68.4165204 271.865484,68.1762036 271.872046,67.8045739 Z" id="Shape" fill="#001A5B" fill-rule="nonzero"></path>
            <path d="M280.304456,68.105667 L280.304456,67.0676299 L279.804959,67.0676299 L279.804959,68.105667 C279.798397,69.1854519 279.096311,70.2747511 278.247411,70.6623746 L278.568107,71.0853484 C279.234104,70.748905 279.795116,70.0280368 280.057578,69.1693761 C280.329882,69.9799735 280.890895,70.6559771 281.541308,70.9699472 L281.848881,70.5727274 C281.009003,70.1914194 280.301176,69.1469848 280.304456,68.105667 Z M282.470588,72.2835693 L282.976647,72.2835693 L282.976647,66.5742834 L282.470588,66.5742834 L282.470588,72.2835693 Z" id="Shape" fill="#001A5B" fill-rule="nonzero"></path>
            <path d="M314.861675,67.7404347 L310.991181,67.7404347 L310.991181,68.1505316 L314.361357,68.1505316 L314.361357,68.1826011 C314.364638,68.6663513 314.364638,69.2270357 314.211261,70.0152418 L310.330925,70.0152418 L310.330925,70.4381336 L315.547357,70.4381336 L315.547357,70.0152418 L314.710759,70.0152418 C314.861675,69.2399128 314.861675,68.6631526 314.861675,68.1826011 L314.861675,67.7404347 Z M311.023169,72.9627717 L315.034736,72.9627717 L315.034736,72.5398798 L311.522667,72.5398798 L311.522667,71.0788689 L311.023169,71.0788689 L311.023169,72.9627717 Z" id="Shape" fill="#001A5B" fill-rule="nonzero"></path>
            <path d="M319.673751,68.9258606 L319.673751,67.8878235 L319.174253,67.8878235 L319.174253,68.9258606 C319.167692,70.0056455 318.465606,71.0949447 317.616705,71.4825682 L317.937401,71.9055421 C318.603398,71.5690986 319.164411,70.8482305 319.426873,69.9895697 C319.699177,70.8001671 320.260189,71.4761707 320.910603,71.7901408 L321.218176,71.392921 C320.378297,71.011613 319.67047,69.9671784 319.673751,68.9258606 Z M321.839882,73.103763 L322.345942,73.103763 L322.345942,67.3944771 L321.839882,67.3944771 L321.839882,73.103763 Z" id="Shape" fill="#001A5B" fill-rule="nonzero"></path>
            <path d="M70.5630631,63.6219144 C71.6516241,63.6219144 72.4229342,62.883002 72.4229342,61.8557094 C72.4229342,60.850152 71.6984571,60.1220661 70.7144708,60.1184573 C70.3179892,60.1220661 69.9503784,60.2626473 69.7340934,60.4716327 L69.6836515,60.4716327 L69.8566303,59.0083252 L72.1562072,59.0083252 L72.1562072,58.3306812 L69.2006394,58.3306812 L68.8618174,61.2358071 L69.6115564,61.2358071 C69.7881441,60.9150293 70.1089219,60.7744482 70.5270566,60.7744482 C71.1830474,60.7816659 71.6516241,61.2430248 71.6516241,61.8773625 C71.6516241,62.4973469 71.1974828,62.955097 70.5630631,62.9587058 C70.0368268,62.955097 69.6115564,62.6307104 69.5682502,62.1873137 L68.7969401,62.1873137 C68.8330286,63.0199743 69.5754679,63.6219144 70.5630631,63.6219144 Z" id="Path" fill="#001A5B" fill-rule="nonzero"></path>
            <path d="M73.1510201,62.5333534 L75.6884531,62.5333534 L75.6884531,63.5498194 L76.4381921,63.5498194 L76.4381921,62.5333534 L77.1518426,62.5333534 L77.1518426,61.8629271 L76.4381921,61.8629271 L76.4381921,58.3306812 L75.4578147,58.3306812 L73.1510201,61.891798 L73.1510201,62.5333534 Z M73.9872075,61.8629271 L73.9872075,61.8197029 L75.6307935,59.2749702 L75.6884531,59.2749702 L75.6884531,61.8629271 L73.9872075,61.8629271 Z" id="Shape" fill="#001A5B" fill-rule="nonzero"></path>
            <path d="M79.7181465,63.5498194 C81.3076817,63.5498194 82.223592,62.5622242 82.2268728,60.9329916 C82.223592,59.3074498 81.3076817,58.3306812 79.7686704,58.3306812 L78.0241185,58.3306812 L78.0241185,63.5498194 L79.7181465,63.5498194 Z M78.8170817,62.85774 L78.8170817,59.0226786 L79.7181465,59.0226786 C80.8571494,59.0226786 81.4410452,59.7039314 81.4410452,60.9329916 C81.4410452,62.1657426 80.8571494,62.8541311 79.6749223,62.85774 L78.8170817,62.85774 Z" id="Shape" fill="#001A5B" fill-rule="nonzero"></path>
            <path d="M144.423797,63.6219144 C145.512194,63.6219144 146.283996,62.883002 146.283996,61.8557094 C146.283996,60.850152 145.558945,60.1220661 144.575533,60.1184573 C144.178559,60.1220661 143.811112,60.2626473 143.594581,60.4716327 L143.544549,60.4716327 L143.71761,59.0083252 L146.016613,59.0083252 L146.016613,58.3306812 L143.061455,58.3306812 L142.722715,61.2358071 L143.472372,61.2358071 C143.648714,60.9150293 143.969409,60.7744482 144.387708,60.7744482 C145.043863,60.7816659 145.512194,61.2430248 145.512194,61.8773625 C145.512194,62.4973469 145.057806,62.955097 144.423797,62.9587058 C143.897232,62.955097 143.472372,62.6307104 143.428902,62.1873137 L142.65792,62.1873137 C142.694008,63.0199743 143.436284,63.6219144 144.423797,63.6219144 Z" id="Path" fill="#001A5B" fill-rule="nonzero"></path>
            <path d="M149.016061,63.6219633 C150.136445,63.6290501 150.882822,62.8541311 150.882822,61.841356 C150.882822,60.8429343 150.133165,60.1292838 149.203065,60.125675 C148.637131,60.1292838 148.147476,60.3887931 147.862048,60.8321078 L147.804635,60.8321078 C147.804635,59.6534895 148.272965,58.9541924 149.080856,58.9505836 C149.6066,58.9541924 149.942059,59.2606168 150.046224,59.6858872 L150.83197,59.6858872 C150.709761,58.8569175 150.042943,58.2585862 149.080856,58.2585862 C147.830061,58.2585862 147.044315,59.2966233 147.040214,61.1132702 C147.040214,63.0415454 148.049873,63.6146967 149.016061,63.6219633 Z M147.898137,61.8629271 C147.905519,61.2826401 148.391893,60.7708393 149.030004,60.7744282 C149.657452,60.7708393 150.11184,61.2573782 150.11184,61.8557094 C150.11184,62.4648672 149.639408,62.955097 149.008679,62.9587058 C148.367288,62.955097 147.902238,62.4432141 147.898137,61.8629271 Z" id="Shape" fill="#001A5B" fill-rule="nonzero"></path>
            <path d="M153.492678,63.5498194 C155.082213,63.5498194 155.997549,62.5622242 156.00083,60.9329916 C155.997549,59.3074498 155.082213,58.3306812 153.54271,58.3306812 L151.798158,58.3306812 L151.798158,63.5498194 L153.492678,63.5498194 Z M152.591285,62.85774 L152.591285,59.0226786 L153.492678,59.0226786 C154.631107,59.0226786 155.215084,59.7039314 155.215084,60.9329916 C155.215084,62.1657426 154.631107,62.8541311 153.449207,62.85774 L152.591285,62.85774 Z" id="Shape" fill="#001A5B" fill-rule="nonzero"></path>
            <path d="M218.259268,63.6219144 C219.347665,63.6219144 220.119467,62.883002 220.119467,61.8557094 C220.119467,60.850152 219.394416,60.1220661 218.411004,60.1184573 C218.01403,60.1220661 217.646584,60.2626473 217.430053,60.4716327 L217.380021,60.4716327 L217.553082,59.0083252 L219.852084,59.0083252 L219.852084,58.3306812 L216.896927,58.3306812 L216.558187,61.2358071 L217.307844,61.2358071 C217.484185,60.9150293 217.804881,60.7744482 218.22318,60.7744482 C218.879335,60.7816659 219.347665,61.2430248 219.347665,61.8773625 C219.347665,62.4973469 218.893278,62.955097 218.259268,62.9587058 C217.732704,62.955097 217.307844,62.6307104 217.264373,62.1873137 L216.493391,62.1873137 C216.52948,63.0199743 217.271755,63.6219144 218.259268,63.6219144 Z" id="Path" fill="#001A5B" fill-rule="nonzero"></path>
            <path d="M222.785917,63.6219144 C223.903841,63.6219144 224.700249,63.0091477 224.70353,62.1585249 C224.700249,61.4880986 224.217155,60.9402093 223.607751,60.8465432 L223.607751,60.8176724 C224.134315,60.6951354 224.498481,60.2193411 224.501762,59.6498807 C224.498481,58.8460909 223.770149,58.2585862 222.785917,58.2585862 C221.787741,58.2585862 221.06351,58.8460909 221.06351,59.6498807 C221.06351,60.2193411 221.420295,60.6951354 221.957521,60.8176724 L221.957521,60.8465432 C221.340736,60.9402093 220.861743,61.4880986 220.869124,62.1585249 C220.861743,63.0091477 221.650769,63.6219144 222.785917,63.6219144 Z M221.676195,62.1008653 C221.665533,61.5638025 222.137144,61.1709298 222.785917,61.1709298 C223.428129,61.1709298 223.896459,61.5638025 223.896459,62.1008653 C223.896459,62.6126661 223.464217,62.9658415 222.785917,62.9658415 C222.097775,62.9658415 221.665533,62.6126661 221.676195,62.1008653 Z M221.834492,59.7219757 C221.838593,59.2353548 222.213422,58.9037505 222.785917,58.9073594 C223.345289,58.9037505 223.726679,59.2353548 223.723398,59.7219757 C223.726679,60.2121234 223.330526,60.5473365 222.785917,60.5437277 C222.227365,60.5473365 221.838593,60.2085145 221.834492,59.7219757 Z" id="Shape" fill="#001A5B" fill-rule="nonzero"></path>
            <path d="M227.292061,63.5498194 C228.881596,63.5498194 229.796932,62.5622242 229.800213,60.9329916 C229.796932,59.3074498 228.881596,58.3306812 227.342093,58.3306812 L225.597541,58.3306812 L225.597541,63.5498194 L227.292061,63.5498194 Z M226.390668,62.85774 L226.390668,59.0226786 L227.292061,59.0226786 C228.43049,59.0226786 229.014467,59.7039314 229.014467,60.9329916 C229.014467,62.1657426 228.43049,62.8541311 227.248591,62.85774 L226.390668,62.85774 Z" id="Shape" fill="#001A5B" fill-rule="nonzero"></path>
            <path d="M365.926111,62.8017697 C367.047315,62.8088565 367.793692,62.0339375 367.793692,61.0211624 C367.793692,60.0227407 367.044035,59.3090902 366.113935,59.3054814 C365.548001,59.3090902 365.057526,59.5685995 364.772918,60.0119141 L364.715505,60.0119141 C364.715505,58.8332959 365.183835,58.1339988 365.991726,58.1303899 C366.51747,58.1339988 366.852929,58.4404231 366.957094,58.8656935 L367.74284,58.8656935 C367.620631,58.0367238 366.953813,57.4383926 365.991726,57.4383926 C364.740931,57.4383926 363.955185,58.4764296 363.951084,60.2930765 C363.951084,62.2213518 364.960743,62.7945031 365.926111,62.8017697 Z M364.809007,61.0427335 C364.816389,60.4624465 365.302763,59.9506457 365.940874,59.9542346 C366.568322,59.9506457 367.021889,60.4371845 367.021889,61.0355158 C367.021889,61.6446736 366.550278,62.1349033 365.919549,62.1385122 C365.277337,62.1349033 364.813108,61.6230205 364.809007,61.0427335 Z" id="Shape" fill="#001A5B" fill-rule="nonzero"></path>
            <path d="M370.489668,62.8017208 C371.570683,62.8017208 372.374473,62.1636921 372.371212,61.2950251 C372.374473,60.6354253 371.960275,60.1561042 371.246707,60.0551383 L371.246707,60.0191318 C371.808539,59.8785506 372.176806,59.4531982 372.169425,58.8584758 C372.176806,58.0871657 371.531314,57.4383926 370.504432,57.4383926 C369.530862,57.4383926 368.745116,58.0150707 368.723791,58.8656935 L369.487391,58.8656935 C369.505436,58.393508 369.974586,58.1016011 370.49705,58.1016011 C371.04822,58.1016011 371.405004,58.4259877 371.405004,58.901782 C371.405004,59.4027563 370.990806,59.7343606 370.396166,59.7307518 L369.94916,59.7307518 L369.94916,60.3795249 L370.396166,60.3795249 C371.141722,60.3831338 371.570683,60.7508266 371.570683,61.2662363 C371.570683,61.7744282 371.113015,62.1168591 370.482286,62.1168591 C369.898308,62.1168591 369.444741,61.8248702 369.415214,61.3671201 L368.608144,61.3671201 C368.640952,62.2213518 369.408653,62.8017208 370.489668,62.8017208 Z" id="Path" fill="#001A5B" fill-rule="nonzero"></path>
            <path d="M375.009755,62.7296258 C376.59929,62.7296258 377.514627,61.7420306 377.517907,60.112798 C377.514627,58.4872562 376.59929,57.5104876 375.059787,57.5104876 L373.315235,57.5104876 L373.315235,62.7296258 L375.009755,62.7296258 Z M374.108362,62.0375464 L374.108362,58.202485 L375.009755,58.202485 C376.148184,58.202485 376.732162,58.8837378 376.732162,60.112798 C376.732162,61.345549 376.148184,62.0339375 374.966285,62.0375464 L374.108362,62.0375464 Z" id="Shape" fill="#001A5B" fill-rule="nonzero"></path>
            <path d="M439.747639,62.8017697 C440.868844,62.8088565 441.6144,62.0339375 441.6144,61.0211624 C441.6144,60.0227407 440.864743,59.3090902 439.934643,59.3054814 C439.36871,59.3090902 438.879054,59.5685995 438.594447,60.0119141 L438.536213,60.0119141 C438.536213,58.8332959 439.005364,58.1339988 439.812434,58.1303899 C440.338999,58.1339988 440.673638,58.4404231 440.778622,58.8656935 L441.564368,58.8656935 C441.441339,58.0367238 440.774521,57.4383926 439.812434,57.4383926 C438.561639,57.4383926 437.775893,58.4764296 437.772613,60.2930765 C437.772613,62.2213518 438.781451,62.7945031 439.747639,62.8017697 Z M438.630535,61.0427335 C438.637097,60.4624465 439.124292,59.9506457 439.761582,59.9542346 C440.38903,59.9506457 440.843418,60.4371845 440.843418,61.0355158 C440.843418,61.6446736 440.370986,62.1349033 439.740257,62.1385122 C439.098866,62.1349033 438.633816,61.6230205 438.630535,61.0427335 Z" id="Shape" fill="#001A5B" fill-rule="nonzero"></path>
            <path d="M444.346465,62.8017697 C445.467669,62.8088565 446.214046,62.0339375 446.214046,61.0211624 C446.214046,60.0227407 445.464389,59.3090902 444.534289,59.3054814 C443.968355,59.3090902 443.47788,59.5685995 443.193272,60.0119141 L443.135859,60.0119141 C443.135859,58.8332959 443.604189,58.1339988 444.41126,58.1303899 C444.937824,58.1339988 445.273284,58.4404231 445.377448,58.8656935 L446.163194,58.8656935 C446.040985,58.0367238 445.374167,57.4383926 444.41126,57.4383926 C443.160465,57.4383926 442.374719,58.4764296 442.371438,60.2930765 C442.371438,62.2213518 443.381097,62.7945031 444.346465,62.8017697 Z M443.229361,61.0427335 C443.236743,60.4624465 443.723118,59.9506457 444.361228,59.9542346 C444.988676,59.9506457 445.442243,60.4371845 445.442243,61.0355158 C445.442243,61.6446736 444.970632,62.1349033 444.339903,62.1385122 C443.697692,62.1349033 443.232642,61.6230205 443.229361,61.0427335 Z" id="Shape" fill="#001A5B" fill-rule="nonzero"></path>
            <path d="M448.823082,62.7296258 C450.412617,62.7296258 451.328773,61.7420306 451.332054,60.112798 C451.328773,58.4872562 450.412617,57.5104876 448.873934,57.5104876 L447.129382,57.5104876 L447.129382,62.7296258 L448.823082,62.7296258 Z M447.922509,62.0375464 L447.922509,58.202485 L448.823082,58.202485 C449.962331,58.202485 450.546308,58.8837378 450.546308,60.112798 C450.546308,61.345549 449.962331,62.0339375 448.780432,62.0375464 L447.922509,62.0375464 Z" id="Shape" fill="#001A5B" fill-rule="nonzero"></path>
            <path d="M513.565066,62.8017708 C514.686271,62.8089385 515.431827,62.0340195 515.431827,61.0211624 C515.431827,60.0227407 514.68217,59.3090902 513.752071,59.3054814 C513.186137,59.3090902 512.696481,59.5685995 512.411874,60.0119141 L512.35364,60.0119141 C512.35364,58.8332959 512.822791,58.1340808 513.629862,58.1304719 C514.156426,58.1340808 514.491065,58.4404231 514.59605,58.8657755 L515.381795,58.8657755 C515.258766,58.0367238 514.591949,57.4384746 513.629862,57.4384746 C512.379066,57.4384746 511.593321,58.4765116 511.59004,60.2930765 C511.59004,62.2214338 512.598878,62.7945031 513.565066,62.8017708 Z M512.447963,61.0428155 C512.454524,60.4625285 512.941719,59.9506457 513.57901,59.9542346 C514.206458,59.9506457 514.660845,60.4372666 514.660845,61.0355978 C514.660845,61.6447556 514.188414,62.1349033 513.557685,62.1385122 C512.916293,62.1349033 512.451243,61.6231025 512.447963,61.0428155 Z" id="Shape" fill="#001A5B" fill-rule="nonzero"></path>
            <path d="M518.07039,57.4384248 C516.935242,57.4312569 516.196248,58.2097847 516.196248,59.2045975 C516.196248,60.2030193 516.945905,60.9202786 517.883386,60.9202786 C518.445219,60.9202786 518.935694,60.6535516 519.217021,60.2137638 L519.281816,60.2137638 C519.274434,61.4068175 518.802003,62.1061145 517.998213,62.1097234 C517.472469,62.1061145 517.132909,61.7996902 517.025463,61.3599844 L516.239718,61.3599844 C516.365207,62.2069984 517.036126,62.8017208 517.998213,62.8017208 C519.249008,62.8017208 520.038035,61.7636837 520.038035,59.9326834 C520.034754,58.0223704 519.029196,57.4456103 518.07039,57.4384248 Z M516.967213,59.1901621 C516.963949,58.5918309 517.439661,58.1016011 518.07039,58.1016011 C518.708501,58.1016011 519.17355,58.6170928 519.17355,59.1829444 C519.17355,59.7596226 518.687176,60.2750323 518.055627,60.2715248 C517.421617,60.2750323 516.971331,59.7957111 516.967213,59.1901621 Z" id="Shape" fill="#001A5B" fill-rule="nonzero"></path>
            <path d="M522.640509,62.7296258 C524.230044,62.7296258 525.146201,61.7420306 525.149481,60.11288 C525.146201,58.4873382 524.230044,57.5104876 522.691361,57.5104876 L520.946809,57.5104876 L520.946809,62.7296258 L522.640509,62.7296258 Z M521.739936,62.0376284 L521.739936,58.202567 L522.640509,58.202567 C523.779758,58.202567 524.363736,58.8838198 524.363736,60.11288 C524.363736,61.345549 523.779758,62.0340195 522.597859,62.0376284 L521.739936,62.0376284 Z" id="Shape" fill="#001A5B" fill-rule="nonzero"></path>
            <polygon id="Path" fill="#979797" points="38.1390041 40.0132967 38.1390041 12.5231946 38.9591978 12.5231946 38.9591978 40.0132967"></polygon>
            <polygon id="Path" fill="#979797" points="185.773859 40.0132967 185.773859 12.5231946 186.594053 12.5231946 186.594053 40.0132967"></polygon>
            <polygon id="Path" fill="#979797" points="259.591286 40.0132967 259.591286 12.5231946 260.41148 12.5231946 260.41148 40.0132967"></polygon>
            <polygon id="Path" fill="#979797" points="321.105809 40.0132967 321.105809 12.5231946 321.926003 12.5231946 321.926003 40.0132967"></polygon>
            <polygon id="Path" fill="#979797" points="345.711618 40.0132967 345.711618 12.5231946 346.531812 12.5231946 346.531812 40.0132967"></polygon>
            <polygon id="Path" fill="#979797" points="394.923237 40.0132967 394.923237 12.5231946 395.74343 12.5231946 395.74343 40.0132967"></polygon>
            <polygon id="Path" fill="#979797" points="419.529046 40.0132967 419.529046 12.5231946 420.349239 12.5231946 420.349239 40.0132967"></polygon>
            <polygon id="Path" fill="#979797" points="468.740664 40.0132967 468.740664 12.5231946 469.560858 12.5231946 469.560858 40.0132967"></polygon>
            <polygon id="Path" fill="#979797" points="493.346473 40.0132967 493.346473 12.5231946 494.166667 12.5231946 494.166667 40.0132967"></polygon>
            <polygon id="Path" fill="#979797" points="542.558091 40.0132967 542.558091 12.5231946 543.378285 12.5231946 543.378285 40.0132967"></polygon>
            <polygon id="Path" fill="#979797" points="567.1639 40.0132967 567.1639 12.5231946 567.984094 12.5231946 567.984094 40.0132967"></polygon>
            <rect id="Rectangle" fill="#E2E6F6" fill-rule="nonzero" x="223.092669" y="15.9040328" width="73.8174274" height="19.6846473"></rect>
            <path d="M246.076136,22.178104 L245.315816,22.178104 L245.315816,23.4516187 L243.757448,23.4516187 C243.80584,23.211302 243.833726,22.9549915 243.833726,22.6907251 L240.549671,22.6907251 L240.549671,23.3154666 L243.008611,23.3154666 C242.872459,24.4728418 241.879205,25.3859634 240.181404,25.8705338 L240.485696,26.4632877 C242.039963,26.0187428 243.116877,25.2057668 243.581107,24.0523285 L245.315816,24.0523285 L245.315816,24.9254246 L243.505649,24.9254246 L243.505649,25.5501661 L245.315816,25.5501661 L245.315816,26.4231802 L246.076136,26.4231802 L246.076136,22.178104 Z M241.294407,27.9050241 C241.294407,28.7780382 242.24009,29.3146909 243.713978,29.3146909 C245.167361,29.3146909 246.120426,28.7780382 246.124527,27.9050241 C246.120426,27.0359469 245.167361,26.5073321 243.713978,26.5033132 C242.24009,26.5073321 241.294407,27.0359469 241.294407,27.9050241 Z M242.047344,27.9050241 C242.047344,27.3924031 242.688736,27.100004 243.713978,27.104023 C244.718715,27.100004 245.359286,27.3924031 245.363387,27.9050241 C245.359286,28.4096072 244.718715,28.7020063 243.713978,28.7059432 C242.688736,28.7020063 242.047344,28.4096072 242.047344,27.9050241 Z" id="Shape" fill="#113287" fill-rule="nonzero"></path>
            <polygon id="Path" fill="#113287" fill-rule="nonzero" points="252.996929 25.4780711 248.759809 25.4780711 248.759809 23.3394982 252.932954 23.3394982 252.932954 22.7227126 247.998669 22.7227126 247.998669 26.0868188 250.073759 26.0868188 250.073759 27.840967 247.181757 27.840967 247.181757 28.4657085 253.749867 28.4657085 253.749867 27.840967 250.825877 27.840967 250.825877 26.0868188 252.996929 26.0868188"></polygon>
            <path d="M258.619357,28.7461053 C259.865231,28.7540065 260.694447,27.8929672 260.694447,26.7676616 C260.694447,25.6582677 259.86113,24.8653045 258.827686,24.8612855 C258.199418,24.8653045 257.654809,25.1536845 257.338214,25.6462928 L257.274239,25.6462928 C257.274239,24.3366897 257.795062,23.5597202 258.691534,23.5557013 C259.276332,23.5597202 259.6487,23.9001826 259.765167,24.3726962 L260.637853,24.3726962 C260.501701,23.4516187 259.761066,22.7867697 258.691534,22.7867697 C257.302126,22.7867697 256.42944,23.940208 256.425339,25.9586226 C256.425339,28.1012144 257.546544,28.7380128 258.619357,28.7461053 Z M257.378404,26.7916932 C257.386606,26.146857 257.927113,25.5782168 258.635761,25.5821323 C259.332925,25.5782168 259.837344,26.1188064 259.837344,26.7836554 C259.837344,27.4604791 259.31242,28.0050877 258.611975,28.0091067 C257.899227,28.0050877 257.382505,27.4364475 257.378404,26.7916932 Z" id="Shape" fill="#113287" fill-rule="nonzero"></path>
            <path d="M263.689794,28.7460506 C264.891378,28.7460506 265.784568,28.0371573 265.780495,27.0720354 C265.784568,26.3391104 265.32362,25.8064767 264.530492,25.6943562 L264.530492,25.6542487 C265.15548,25.4980838 265.563936,25.0254883 265.555734,24.3647403 C265.563936,23.5076379 264.847087,22.7867697 263.706198,22.7867697 C262.624362,22.7867697 261.751676,23.427587 261.727071,24.3726962 L262.576791,24.3726962 C262.596476,23.8481003 263.117299,23.5237137 263.697996,23.5237137 C264.31068,23.5237137 264.706834,23.8841068 264.706834,24.4128036 C264.706834,24.969469 264.246705,25.3379 263.585629,25.3338811 L263.089412,25.3338811 L263.089412,26.0547493 L263.585629,26.0547493 C264.414845,26.0587682 264.891378,26.4672246 264.891378,27.0399659 C264.891378,27.6046692 264.382858,27.985075 263.681592,27.985075 C263.032819,27.985075 262.5284,27.6606884 262.496412,27.1520863 L261.59912,27.1520863 C261.635209,28.1012144 262.48821,28.7460506 263.689794,28.7460506 Z" id="Path" fill="#113287" fill-rule="nonzero"></path>
            <path d="M267.141989,28.722019 C267.450382,28.718 267.707102,28.4657085 267.710383,28.1532967 C267.707102,27.840967 267.450382,27.5846565 267.141989,27.5846565 C266.829495,27.5846565 266.569494,27.840967 266.573595,28.1532967 C266.569494,28.4657085 266.829495,28.718 267.141989,28.722019 Z" id="Path" fill="#113287" fill-rule="nonzero"></path>
            <path d="M270.610588,28.7460506 C271.819553,28.7460506 272.676656,27.9250368 272.676656,26.7836554 C272.676656,25.6663056 271.872046,24.8573486 270.778728,24.8533296 C270.338284,24.8573486 269.929007,25.0135134 269.68951,25.2457923 L269.632917,25.2457923 L269.825663,23.6198404 L272.380566,23.6198404 L272.380566,22.8669027 L269.09651,22.8669027 L268.720041,26.0947747 L269.553358,26.0947747 C269.749385,25.7384006 270.105349,25.5821537 270.570398,25.5821537 C271.29873,25.5901916 271.819553,26.1028126 271.819553,26.807687 C271.819553,27.4964856 271.315134,28.0050877 270.610588,28.0091067 C270.02579,28.0050877 269.553358,27.6446946 269.504967,27.1520863 L268.647864,27.1520863 C268.688054,28.0771827 269.513169,28.7460506 270.610588,28.7460506 Z" id="Path" fill="#113287" fill-rule="nonzero"></path>
            <path d="M274.943671,25.6222612 C275.724495,25.630217 276.156737,25.045501 276.160838,24.1805248 C276.156737,23.3314603 275.740079,22.7427253 274.943671,22.7467238 C274.170228,22.7427253 273.718302,23.3314603 273.725683,24.1805248 C273.718302,25.0415641 274.150544,25.630217 274.943671,25.6222612 Z M274.382658,28.6659177 L275.111811,28.6659177 L279.09221,22.8669027 L278.363878,22.8669027 L274.382658,28.6659177 Z M274.382658,24.1805248 C274.386759,23.6638848 274.571303,23.3154666 274.943671,23.3074287 C275.331622,23.3034097 275.496481,23.6598659 275.496481,24.1805248 C275.496481,24.7131585 275.32014,25.0575578 274.943671,25.0615768 C274.571303,25.0575578 274.386759,24.7131585 274.382658,24.1805248 Z M277.386207,27.3443397 C277.382107,28.1973411 277.815169,28.7860761 278.604195,28.7860761 C279.385019,28.7860761 279.817261,28.2013601 279.821362,27.3443397 C279.817261,26.4873194 279.396502,25.8985844 278.604195,25.9025829 C277.830752,25.8985844 277.382107,26.4873194 277.386207,27.3443397 Z M278.043183,27.3443397 C278.047284,26.8196619 278.235108,26.4712436 278.604195,26.4632877 C278.992147,26.4632877 279.156185,26.8157249 279.156185,27.3443397 C279.156185,27.8689356 278.980664,28.2173538 278.604195,28.2173538 C278.231827,28.2173538 278.047284,27.8689356 278.043183,27.3443397 Z" id="Shape" fill="#113287" fill-rule="nonzero"></path>
            <rect id="Rectangle" fill="#5B6EB4" fill-rule="nonzero" x="149.275242" y="15.9040328" width="73.8174274" height="19.6846473"></rect>
            <path d="M173.548873,25.3258432 L167.004548,25.3258432 L167.004548,25.9426288 L169.89655,25.9426288 L169.89655,26.6314274 C168.562916,26.6995855 167.781271,27.1440484 167.781271,27.8969862 C167.781271,28.7099621 168.71055,29.1665639 170.273019,29.1625713 C171.814163,29.1665639 172.743443,28.7099621 172.747544,27.8969862 C172.743443,27.1440484 171.962618,26.7035224 170.649488,26.6314274 L170.649488,25.9426288 L173.548873,25.9426288 L173.548873,25.3258432 Z M167.349029,24.3486645 L167.613131,24.9494563 C168.859006,24.8052663 169.880147,24.2805884 170.2763,23.5196948 C170.665072,24.2805884 171.694415,24.8052663 172.940289,24.9494563 L173.212593,24.3486645 C171.898643,24.2165313 170.889805,23.6358342 170.78564,22.9389977 L172.964075,22.9389977 L172.964075,22.33025 L167.60575,22.33025 L167.60575,22.9389977 L169.760398,22.9389977 C169.656234,23.6318152 168.638373,24.2165313 167.349029,24.3486645 Z M168.550593,27.8969862 C168.546512,27.4524412 169.1756,27.2122065 170.273019,27.2081876 C171.354035,27.2122065 171.986404,27.4524412 171.986404,27.8969862 C171.986404,28.3334932 171.354035,28.5858668 170.273019,28.5778289 C169.1756,28.5858668 168.546512,28.3334932 168.550593,27.8969862 Z" id="Shape" fill="#FFFFFF" fill-rule="nonzero"></path>
            <polygon id="Path" fill="#FFFFFF" fill-rule="nonzero" points="179.908654 25.3098494 175.671534 25.3098494 175.671534 23.1712765 179.844679 23.1712765 179.844679 22.5544909 174.910394 22.5544909 174.910394 25.9185971 176.984664 25.9185971 176.984664 27.6727453 174.093481 27.6727453 174.093481 28.2974867 180.661592 28.2974867 180.661592 27.6727453 177.737602 27.6727453 177.737602 25.9185971 179.908654 25.9185971"></polygon>
            <polygon id="Path" fill="#FFFFFF" fill-rule="nonzero" points="185.635246 22.6986809 184.769942 22.6986809 183.328862 23.6438721 183.328862 24.4848986 184.714169 23.5797329 184.746156 23.5797329 184.746156 28.497696 185.635246 28.497696"></polygon>
            <path d="M186.981184,27.3683714 L189.800189,27.3683714 L189.800189,28.497696 L190.633506,28.497696 L190.633506,27.3683714 L191.426633,27.3683714 L191.426633,26.6234715 L190.633506,26.6234715 L190.633506,22.6986809 L189.544289,22.6986809 L186.981184,26.6554591 L186.981184,27.3683714 Z M187.909643,26.6234715 L187.909643,26.5754082 L189.736214,23.7479547 L189.800189,23.7479547 L189.800189,26.6234715 L187.909643,26.6234715 Z" id="Shape" fill="#FFFFFF" fill-rule="nonzero"></path>
            <path d="M192.667586,28.5537973 C192.975979,28.5497783 193.2327,28.2974867 193.236801,27.985075 C193.2327,27.6727453 192.975979,27.4164347 192.667586,27.4164347 C192.355093,27.4164347 192.095091,27.6727453 192.099192,27.985075 C192.095091,28.2974867 192.355093,28.5497783 192.667586,28.5537973 Z" id="Path" fill="#FFFFFF" fill-rule="nonzero"></path>
            <path d="M196.144387,28.5778847 C197.389441,28.5858668 198.218657,27.7248276 198.218657,26.5994399 C198.218657,25.4900459 197.38534,24.6970827 196.351896,24.6931458 C195.723628,24.6970827 195.179019,24.9854628 194.862425,25.4780711 L194.79845,25.4780711 C194.79845,24.1684679 195.319272,23.3914985 196.215744,23.3875616 C196.800542,23.3914985 197.17291,23.7319609 197.289378,24.2045565 L198.162064,24.2045565 C198.025911,23.283397 197.285277,22.61863 196.215744,22.61863 C194.826336,22.61863 193.95365,23.7719863 193.949549,25.7904829 C193.949549,27.9330747 195.070754,28.569791 196.144387,28.5778847 Z M194.902614,26.6234715 C194.910816,25.9786353 195.451324,25.409995 196.159971,25.4139917 C196.857136,25.409995 197.361555,25.9506667 197.361555,26.6154336 C197.361555,27.2922574 196.836631,27.836948 196.136185,27.840967 C195.423437,27.836948 194.906715,27.2682258 194.902614,26.6234715 Z" id="Shape" fill="#FFFFFF" fill-rule="nonzero"></path>
            <path d="M200.485672,25.4540394 C201.266497,25.4620773 201.698739,24.8773613 201.70284,24.0123031 C201.698739,23.1632386 201.28208,22.5745856 200.485672,22.5785029 C199.71223,22.5745856 199.259483,23.1632386 199.267685,24.0123031 C199.259483,24.8733423 199.692545,25.4620773 200.485672,25.4540394 Z M199.92466,28.497696 L200.653812,28.497696 L204.634212,22.6986809 L203.905059,22.6986809 L199.92466,28.497696 Z M199.92466,24.0123031 C199.928761,23.4956631 200.112484,23.1472448 200.485672,23.1392069 C200.873624,23.135188 201.037663,23.4916441 201.037663,24.0123031 C201.037663,24.5449368 200.862141,24.8893361 200.485672,24.8933551 C200.112484,24.8893361 199.928761,24.5449368 199.92466,24.0123031 Z M202.928209,27.176118 C202.924108,28.0291194 203.35717,28.6178544 204.145376,28.6178544 C204.927021,28.6178544 205.359263,28.0331383 205.363364,27.176118 C205.359263,26.3190977 204.938503,25.7303627 204.145376,25.7343612 C203.372754,25.7303627 202.924108,26.3190977 202.928209,27.176118 Z M203.585184,27.176118 C203.589285,26.6515222 203.777109,26.3031039 204.145376,26.295066 C204.534148,26.295066 204.698187,26.6475032 204.698187,27.176118 C204.698187,27.7007959 204.521845,28.0492141 204.145376,28.0492141 C203.773008,28.0492141 203.589285,27.7007959 203.585184,27.176118 Z" id="Shape" fill="#FFFFFF" fill-rule="nonzero"></path>
            <rect id="Rectangle" fill="#113287" fill-rule="nonzero" x="75.4578147" y="15.9040328" width="73.8174274" height="19.6846473"></rect>
            <path d="M101.133156,22.8509089 L96.0143278,22.8509089 L96.0143278,23.4676125 L100.372017,23.4676125 L100.372017,23.5557013 C100.367916,24.4167406 100.367916,25.4340267 100.09151,26.8236808 L100.860852,26.9038137 C101.129055,25.4340267 101.129055,24.4407722 101.133156,23.5557013 L101.133156,22.8509089 Z M95.3261853,28.3695818 L101.86969,28.3695818 L101.86969,27.7368024 L98.5700512,27.7368024 L98.5700512,25.2057668 L97.8171134,25.2057668 L97.8171134,27.7368024 L95.3261853,27.7368024 L95.3261853,28.3695818 Z" id="Shape" fill="#FFFFFF" fill-rule="nonzero"></path>
            <polygon id="Path" fill="#FFFFFF" fill-rule="nonzero" points="108.229472 25.4700332 103.992351 25.4700332 103.992351 23.3314603 108.165497 23.3314603 108.165497 22.7147567 103.231212 22.7147567 103.231212 26.0787809 105.306302 26.0787809 105.306302 27.8329291 102.414299 27.8329291 102.414299 28.4576706 108.982409 28.4576706 108.982409 27.8329291 106.059239 27.8329291 106.059239 26.0787809 108.229472 26.0787809"></polygon>
            <path d="M113.77234,28.7380128 C115.114177,28.7380128 115.899102,27.6566695 115.903203,25.7584133 C115.899102,23.872132 115.101874,22.7788139 113.77234,22.7788139 C112.438705,22.7788139 111.641477,23.872132 111.641477,25.7584133 C111.641477,27.6566695 112.430503,28.7380128 113.77234,28.7380128 Z M112.522348,25.7584133 C112.522348,24.3166769 112.991516,23.5277327 113.77234,23.5237137 C114.549064,23.5277327 115.021495,24.3166769 115.021495,25.7584133 C115.021495,27.2041686 114.553165,27.9771191 113.77234,27.9771191 C112.987415,27.9771191 112.519084,27.2041686 112.522348,25.7584133 Z" id="Shape" fill="#FFFFFF" fill-rule="nonzero"></path>
            <path d="M117.167942,28.7139811 C117.476335,28.7099621 117.733055,28.4576706 117.737156,28.1452588 C117.733055,27.8329291 117.476335,27.5766186 117.167942,27.5766186 C116.856268,27.5766186 116.595447,27.8329291 116.599548,28.1452588 C116.595447,28.4576706 116.856268,28.7099621 117.167942,28.7139811 Z" id="Path" fill="#FFFFFF" fill-rule="nonzero"></path>
            <polygon id="Path" fill="#FFFFFF" fill-rule="nonzero" points="118.80997 28.6578798 119.731047 28.6578798 122.310556 23.6438721 122.310556 22.8588648 118.409715 22.8588648 118.409715 23.6118025 121.39768 23.6118025 121.39768 23.6598659"></polygon>
            <path d="M124.52918,25.6142233 C125.310004,25.6222612 125.743066,25.0375451 125.746347,24.1724869 C125.743066,23.3234224 125.326408,22.7347695 124.52918,22.738768 C123.756557,22.7347695 123.303811,23.3234224 123.312012,24.1724869 C123.303811,25.0335262 123.736053,25.6222612 124.52918,25.6142233 Z M123.968988,28.6578798 L124.69732,28.6578798 L128.678539,22.8588648 L127.949387,22.8588648 L123.968988,28.6578798 Z M123.968988,24.1724869 C123.972268,23.6558469 124.156812,23.3074287 124.52918,23.2993908 C124.917952,23.2954538 125.08199,23.651828 125.08199,24.1724869 C125.08199,24.7051206 124.905649,25.0495199 124.52918,25.0535389 C124.156812,25.0495199 123.972268,24.7051206 123.968988,24.1724869 Z M126.972537,27.3363018 C126.968436,28.1893852 127.400678,28.7780382 128.189704,28.7780382 C128.970528,28.7780382 129.40277,28.1933222 129.406871,27.3363018 C129.40277,26.4792815 128.982831,25.8905465 128.189704,25.894545 C127.417082,25.8905465 126.968436,26.4792815 126.972537,27.3363018 Z M127.628692,27.3363018 C127.632793,26.811706 127.821437,26.4632877 128.189704,26.4552498 C128.578476,26.4552498 128.742515,26.807687 128.742515,27.3363018 C128.742515,27.8609797 128.566173,28.209398 128.189704,28.209398 C127.817336,28.209398 127.632793,27.8609797 127.628692,27.3363018 Z" id="Shape" fill="#FFFFFF" fill-rule="nonzero"></path>
            <rect id="Rectangle" fill="#001A5B" fill-rule="nonzero" x="9.02213001" y="15.9040328" width="66.4356846" height="19.6846473"></rect>
            <path d="M23.8857611,28.0451952 L20.9702188,28.0451952 L20.9702188,26.4833004 L20.2172811,26.4833004 L20.2172811,28.0451952 L17.3178145,28.0451952 L17.3178145,28.6699367 L23.8857611,28.6699367 L23.8857611,28.0451952 Z M17.6381822,26.1389011 L17.9264802,26.7315731 C19.1279819,26.5433386 20.1251733,25.9746984 20.589731,25.1376908 C21.0583076,25.9746984 22.059518,26.5433386 23.2610196,26.7315731 L23.5493177,26.1389011 C22.0755118,25.9226161 21.0142632,25.0896274 20.9781747,24.0803791 L23.2770134,24.0803791 L23.2770134,23.4635935 L20.9702188,23.4635935 L20.9702188,22.5024906 L20.2172811,22.5024906 L20.2172811,23.4635935 L17.9104864,23.4635935 L17.9104864,24.0803791 L20.2092432,24.0803791 C20.1732367,25.0896274 19.1119881,25.9226161 17.6381822,26.1389011 Z" id="Shape" fill="#FFFFFF" fill-rule="nonzero"></path>
            <path d="M30.213391,23.063175 L25.0952187,23.063175 L25.0952187,23.6798786 L29.4524974,23.6798786 L29.4524974,23.7679674 C29.4484784,24.6290067 29.4484784,25.6462928 29.1721552,27.0359469 L29.9410867,27.1160798 C30.2093721,25.6462928 30.2093721,24.6530383 30.213391,23.7679674 L30.213391,23.063175 Z M24.406338,28.5818479 L30.950335,28.5818479 L30.950335,27.9490685 L27.6502859,27.9490685 L27.6502859,25.4180329 L26.8973481,25.4180329 L26.8973481,27.9490685 L24.406338,27.9490685 L24.406338,28.5818479 Z" id="Shape" fill="#FFFFFF" fill-rule="nonzero"></path>
            <polygon id="Path" fill="#FFFFFF" fill-rule="nonzero" points="37.3100344 25.6822993 33.0728321 25.6822993 33.0728321 23.5437264 37.2458953 23.5437264 37.2458953 22.9269408 32.3119385 22.9269408 32.3119385 26.2910471 34.3864542 26.2910471 34.3864542 28.0451952 31.4949436 28.0451952 31.4949436 28.6699367 38.0628902 28.6699367 38.0628902 28.0451952 35.139392 28.0451952 35.139392 26.2910471 37.3100344 26.2910471"></polygon>
            <path d="M42.852739,28.9502789 C44.1943297,28.9502789 44.979255,27.8689356 44.983274,25.9706794 C44.979255,24.0843981 44.1823549,22.99108 42.852739,22.99108 C41.5191041,22.99108 40.722122,24.0843981 40.722122,25.9706794 C40.722122,27.8689356 41.5110663,28.9502789 42.852739,28.9502789 Z M41.6031494,25.9706794 C41.6031494,24.528943 42.0717506,23.7399988 42.852739,23.7359798 C43.6296264,23.7399988 44.102222,24.528943 44.102222,25.9706794 C44.102222,27.4164347 43.6336454,28.1893852 42.852739,28.1893852 C42.0677317,28.1893852 41.5992371,27.4164347 41.6031494,25.9706794 Z" id="Shape" fill="#FFFFFF" fill-rule="nonzero"></path>
            <path d="M46.2488328,28.9262472 C46.5572256,28.9222282 46.8135361,28.6699367 46.817555,28.3575249 C46.8135361,28.0451952 46.5572256,27.7888847 46.2488328,27.7888847 C45.936421,27.7888847 45.6761736,28.0451952 45.6801105,28.3575249 C45.6761736,28.6699367 45.936421,28.9222282 46.2488328,28.9262472 Z" id="Path" fill="#FFFFFF" fill-rule="nonzero"></path>
            <path d="M49.6929899,28.9502789 C50.8944916,28.9502789 51.7875184,28.2413855 51.7835255,27.2762637 C51.7875184,26.5433386 51.3269797,26.0107049 50.5340165,25.8985844 L50.5340165,25.8585589 C51.158758,25.7023121 51.5672964,25.2297985 51.5592585,24.5689685 C51.5672964,23.7119482 50.8503651,22.99108 49.7089837,22.99108 C48.6277224,22.99108 47.7546263,23.6318152 47.7305946,24.5770064 L48.5796591,24.5770064 C48.5996718,24.0523285 49.1203307,23.7279419 49.7010278,23.7279419 C50.3137945,23.7279419 50.7101941,24.088417 50.7101941,24.6170318 C50.7101941,25.1736973 50.2496553,25.5421282 49.5889073,25.5381093 L49.0922801,25.5381093 L49.0922801,26.2589775 L49.5889073,26.2589775 C50.417877,26.2629964 50.8944916,26.6715349 50.8944916,27.2441941 C50.8944916,27.8088974 50.3858075,28.1893852 49.684952,28.1893852 C49.0361788,28.1893852 48.5315957,27.8649986 48.4995261,27.3563145 L47.6024804,27.3563145 C47.6384869,28.3055246 48.4915703,28.9502789 49.6929899,28.9502789 Z" id="Path" fill="#FFFFFF" fill-rule="nonzero"></path>
            <path d="M54.0823382,25.8264894 C54.8632445,25.8345273 55.2958147,25.2498112 55.2998336,24.384753 C55.2958147,23.5356885 54.8793203,22.9470356 54.0823382,22.9509529 C53.3093877,22.9470356 52.8568048,23.5356885 52.8648427,24.384753 C52.8568048,25.2457923 53.289375,25.8345273 54.0823382,25.8264894 Z M53.5216538,28.8701459 L54.2505599,28.8701459 L58.2313697,23.0711309 L57.5024636,23.0711309 L53.5216538,28.8701459 Z M53.5216538,24.384753 C53.5256728,23.868113 53.7098882,23.5196948 54.0823382,23.5116569 C54.4707819,23.5076379 54.6349846,23.8640941 54.6349846,24.384753 C54.6349846,24.9173867 54.4588071,25.2617861 54.0823382,25.265805 C53.7098882,25.2617861 53.5256728,24.9173867 53.5216538,24.384753 Z M56.5252849,27.5485679 C56.521266,28.4015693 56.9538361,28.9903043 57.7427804,28.9903043 C58.5236867,28.9903043 58.9562568,28.4055883 58.9601938,27.5485679 C58.9562568,26.6915476 58.5357436,26.1028126 57.7427804,26.1068111 C56.9698299,26.1028126 56.521266,26.6915476 56.5252849,27.5485679 Z M57.182096,27.5485679 C57.1861149,27.0239721 57.3742674,26.6755538 57.7427804,26.6675159 C58.1312241,26.6675159 58.2954268,27.0199531 58.2954268,27.5485679 C58.2954268,28.0732458 58.1192492,28.4216641 57.7427804,28.4216641 C57.3703304,28.4216641 57.1861149,28.0732458 57.182096,27.5485679 Z" id="Shape" fill="#FFFFFF" fill-rule="nonzero"></path>
            <polygon id="Path" fill="#979797" points="148.865145 52.4923789 148.865145 0 149.685339 0 149.685339 52.4923789"></polygon>
            <polygon id="Path" fill="#979797" points="222.682573 52.4923789 222.682573 0 223.502766 0 223.502766 52.4923789"></polygon>
            <polygon id="Path" fill="#979797" points="75.0477178 52.4923789 75.0477178 0 75.8679115 0 75.8679115 52.4923789"></polygon>
            <rect id="Rectangle" fill="#113287" fill-rule="nonzero" x="444.544952" y="15.9040328" width="73.8174274" height="19.6846473"></rect>
            <path d="M469.835622,22.8509089 L464.717614,22.8509089 L464.717614,23.4676125 L469.074483,23.4676125 L469.074483,23.5557013 C469.070382,24.4167406 469.070382,25.4340267 468.793976,26.8236808 L469.563318,26.9038137 C469.831521,25.4340267 469.831521,24.4407722 469.835622,23.5557013 L469.835622,22.8509089 Z M464.028651,28.3695818 L470.572156,28.3695818 L470.572156,27.7368024 L467.272517,27.7368024 L467.272517,25.2057668 L466.51958,25.2057668 L466.51958,27.7368024 L464.028651,27.7368024 L464.028651,28.3695818 Z" id="Shape" fill="#FFFFFF" fill-rule="nonzero"></path>
            <polygon id="Path" fill="#FFFFFF" fill-rule="nonzero" points="476.931938 25.4700332 472.694817 25.4700332 472.694817 23.3314603 476.867963 23.3314603 476.867963 22.7147567 471.934498 22.7147567 471.934498 26.0787809 474.008768 26.0787809 474.008768 27.8329291 471.116765 27.8329291 471.116765 28.4576706 477.684876 28.4576706 477.684876 27.8329291 474.761705 27.8329291 474.761705 26.0787809 476.931938 26.0787809"></polygon>
            <path d="M482.474806,28.7380128 C483.816643,28.7380128 484.601568,27.6566695 484.605669,25.7584133 C484.601568,23.872132 483.80434,22.7788139 482.474806,22.7788139 C481.141172,22.7788139 480.343943,23.872132 480.343943,25.7584133 C480.343943,27.6566695 481.13297,28.7380128 482.474806,28.7380128 Z M481.225651,25.7584133 C481.225651,24.3166769 481.693982,23.5277327 482.474806,23.5237137 C483.25153,23.5277327 483.724781,24.3166769 483.724781,25.7584133 C483.724781,27.2041686 483.255631,27.9771191 482.474806,27.9771191 C481.689881,27.9771191 481.22155,27.2041686 481.225651,25.7584133 Z" id="Shape" fill="#FFFFFF" fill-rule="nonzero"></path>
            <path d="M485.871228,28.7139811 C486.179621,28.7099621 486.435521,28.4576706 486.439622,28.1452588 C486.435521,27.8329291 486.179621,27.5766186 485.871228,27.5766186 C485.558734,27.5766186 485.298733,27.8329291 485.302014,28.1452588 C485.298733,28.4576706 485.558734,28.7099621 485.871228,28.7139811 Z" id="Path" fill="#FFFFFF" fill-rule="nonzero"></path>
            <path d="M487.336914,27.5285552 L490.15592,27.5285552 L490.15592,28.6578798 L490.989237,28.6578798 L490.989237,27.5285552 L491.782364,27.5285552 L491.782364,26.7836554 L490.989237,26.7836554 L490.989237,22.8588648 L489.900019,22.8588648 L487.336914,26.8157249 L487.336914,27.5285552 Z M488.266194,26.7836554 L488.266194,26.735592 L490.091945,23.9081385 L490.15592,23.9081385 L490.15592,26.7836554 L488.266194,26.7836554 Z" id="Shape" fill="#FFFFFF" fill-rule="nonzero"></path>
            <path d="M494.000988,25.6142233 C494.781812,25.6222612 495.214054,25.0375451 495.218155,24.1724869 C495.214054,23.3234224 494.798216,22.7347695 494.000988,22.738768 C493.227545,22.7347695 492.775618,23.3234224 492.783,24.1724869 C492.775618,25.0335262 493.20786,25.6222612 494.000988,25.6142233 Z M493.439975,28.6578798 L494.169127,28.6578798 L498.149527,22.8588648 L497.421195,22.8588648 L493.439975,28.6578798 Z M493.439975,24.1724869 C493.444076,23.6558469 493.62862,23.3074287 494.000988,23.2993908 C494.388939,23.2954538 494.553798,23.651828 494.553798,24.1724869 C494.553798,24.7051206 494.377456,25.0495199 494.000988,25.0535389 C493.62862,25.0495199 493.444076,24.7051206 493.439975,24.1724869 Z M496.443524,27.3363018 C496.439423,28.1893852 496.872485,28.7780382 497.661512,28.7780382 C498.442336,28.7780382 498.874578,28.1933222 498.878679,27.3363018 C498.874578,26.4792815 498.454639,25.8905465 497.661512,25.894545 C496.888069,25.8905465 496.439423,26.4792815 496.443524,27.3363018 Z M497.100499,27.3363018 C497.1046,26.811706 497.293245,26.4632877 497.661512,26.4552498 C498.049463,26.4552498 498.214322,26.807687 498.214322,27.3363018 C498.214322,27.8609797 498.037981,28.209398 497.661512,28.209398 C497.289144,28.209398 497.1046,27.8609797 497.100499,27.3363018 Z" id="Shape" fill="#FFFFFF" fill-rule="nonzero"></path>
            <rect id="Rectangle" fill="#5B6EB4" fill-rule="nonzero" x="370.727524" y="15.9040328" width="73.8174274" height="19.6846473"></rect>
            <path d="M397.668425,25.3258432 L391.1241,25.3258432 L391.1241,25.9426288 L394.016102,25.9426288 L394.016102,26.6314274 C392.682467,26.6995855 391.900823,27.1440484 391.900823,27.8969862 C391.900823,28.7099621 392.830102,29.1665639 394.392571,29.1625713 C395.933715,29.1665639 396.862994,28.7099621 396.867095,27.8969862 C396.862994,27.1440484 396.08217,26.7035224 394.76904,26.6314274 L394.76904,25.9426288 L397.668425,25.9426288 L397.668425,25.3258432 Z M391.468581,24.3486645 L391.732683,24.9494563 C392.978557,24.8052663 393.999698,24.2805884 394.395852,23.5196948 C394.784624,24.2805884 395.813967,24.8052663 397.059021,24.9494563 L397.332145,24.3486645 C396.018195,24.2165313 395.008537,23.6358342 394.905192,22.9389977 L397.083627,22.9389977 L397.083627,22.33025 L391.725302,22.33025 L391.725302,22.9389977 L393.87995,22.9389977 C393.775786,23.6318152 392.757925,24.2165313 391.468581,24.3486645 Z M392.670145,27.8969862 C392.666064,27.4524412 393.295152,27.2122065 394.392571,27.2081876 C395.473586,27.2122065 396.105956,27.4524412 396.105956,27.8969862 C396.105956,28.3334932 395.473586,28.5858668 394.392571,28.5778289 C393.295152,28.5858668 392.666064,28.3334932 392.670145,27.8969862 Z" id="Shape" fill="#FFFFFF" fill-rule="nonzero"></path>
            <polygon id="Path" fill="#FFFFFF" fill-rule="nonzero" points="404.028206 25.3098494 399.791086 25.3098494 399.791086 23.1712765 403.963411 23.1712765 403.963411 22.5544909 399.029946 22.5544909 399.029946 25.9185971 401.104216 25.9185971 401.104216 27.6727453 398.213033 27.6727453 398.213033 28.2974867 404.781144 28.2974867 404.781144 27.6727453 401.857154 27.6727453 401.857154 25.9185971 404.028206 25.9185971"></polygon>
            <polygon id="Path" fill="#FFFFFF" fill-rule="nonzero" points="409.754798 22.6986809 408.889494 22.6986809 407.448414 23.6438721 407.448414 24.4848986 408.833721 23.5797329 408.865708 23.5797329 408.865708 28.497696 409.754798 28.497696"></polygon>
            <path d="M411.469003,28.5537973 C411.777396,28.5497783 412.033296,28.2974867 412.037397,27.985075 C412.033296,27.6727453 411.777396,27.4164347 411.469003,27.4164347 C411.156509,27.4164347 410.896508,27.6727453 410.899788,27.985075 C410.896508,28.2974867 411.156509,28.5497783 411.469003,28.5537973 Z" id="Path" fill="#FFFFFF" fill-rule="nonzero"></path>
            <path d="M413.062639,28.497696 L416.96348,28.497696 L416.96348,27.7448403 L414.288008,27.7448403 L414.288008,27.6967769 L415.465806,26.5033132 C416.555024,25.4340267 416.859315,24.9173867 416.867517,24.2686136 C416.859315,23.3274414 416.086693,22.61863 414.968769,22.61863 C413.863968,22.61863 413.054437,23.3194855 413.062639,24.3807341 L413.895956,24.3807341 C413.900057,23.7640305 414.308513,23.355492 414.953185,23.355492 C415.561769,23.355492 416.025999,23.719904 416.025999,24.2926453 C416.025999,24.8012473 415.710224,25.1696783 415.072934,25.8305083 L413.062639,27.8569607 L413.062639,28.497696 Z" id="Path" fill="#FFFFFF" fill-rule="nonzero"></path>
            <path d="M419.270685,25.4540394 C420.051509,25.4620773 420.483751,24.8773613 420.487852,24.0123031 C420.483751,23.1632386 420.067093,22.5745856 419.270685,22.5785029 C418.497242,22.5745856 418.044495,23.1632386 418.052697,24.0123031 C418.044495,24.8733423 418.477557,25.4620773 419.270685,25.4540394 Z M418.709672,28.497696 L419.438824,28.497696 L423.419224,22.6986809 L422.690072,22.6986809 L418.709672,28.497696 Z M418.709672,24.0123031 C418.713773,23.4956631 418.897497,23.1472448 419.270685,23.1392069 C419.658636,23.135188 419.822675,23.4916441 419.822675,24.0123031 C419.822675,24.5449368 419.647154,24.8893361 419.270685,24.8933551 C418.897497,24.8893361 418.713773,24.5449368 418.709672,24.0123031 Z M421.713221,27.176118 C421.70912,28.0291194 422.142183,28.6178544 422.930389,28.6178544 C423.712033,28.6178544 424.144275,28.0331383 424.148376,27.176118 C424.144275,26.3190977 423.723516,25.7303627 422.930389,25.7343612 C422.157766,25.7303627 421.70912,26.3190977 421.713221,27.176118 Z M422.370196,27.176118 C422.374297,26.6515222 422.562122,26.3031039 422.930389,26.295066 C423.31916,26.295066 423.483199,26.6475032 423.483199,27.176118 C423.483199,27.7007959 423.306858,28.0492141 422.930389,28.0492141 C422.558021,28.0492141 422.374297,27.7007959 422.370196,27.176118 Z" id="Shape" fill="#FFFFFF" fill-rule="nonzero"></path>
            <rect id="Rectangle" fill="#E2E6F6" fill-rule="nonzero" x="296.910097" y="15.9040328" width="73.8174274" height="19.6846473"></rect>
            <path d="M320.530853,22.178104 L319.769714,22.178104 L319.769714,23.4516187 L318.212166,23.4516187 C318.259737,23.211302 318.287624,22.9549915 318.287624,22.6907251 L315.004389,22.6907251 L315.004389,23.3154666 L317.463329,23.3154666 C317.327177,24.4728418 316.333923,25.3859634 314.635302,25.8705338 L314.939593,26.4632877 C316.49386,26.0187428 317.570775,25.2057668 318.035824,24.0523285 L319.769714,24.0523285 L319.769714,24.9254246 L317.959546,24.9254246 L317.959546,25.5501661 L319.769714,25.5501661 L319.769714,26.4231802 L320.530853,26.4231802 L320.530853,22.178104 Z M315.749124,27.9050241 C315.749124,28.7780382 316.693988,29.3146909 318.167876,29.3146909 C319.621259,29.3146909 320.575144,28.7780382 320.578425,27.9050241 C320.575144,27.0359469 319.621259,26.5073321 318.167876,26.5033132 C316.693988,26.5073321 315.749124,27.0359469 315.749124,27.9050241 Z M316.502062,27.9050241 C316.502062,27.3924031 317.142633,27.100004 318.167876,27.104023 C319.173433,27.100004 319.814004,27.3924031 319.818105,27.9050241 C319.814004,28.4096072 319.173433,28.7020063 318.167876,28.7059432 C317.142633,28.7020063 316.502062,28.4096072 316.502062,27.9050241 Z" id="Shape" fill="#113287" fill-rule="nonzero"></path>
            <polygon id="Path" fill="#113287" fill-rule="nonzero" points="327.450827 25.4780711 323.213707 25.4780711 323.213707 23.3394982 327.386852 23.3394982 327.386852 22.7227126 322.453387 22.7227126 322.453387 26.0868188 324.527657 26.0868188 324.527657 27.840967 321.635654 27.840967 321.635654 28.4657085 328.203765 28.4657085 328.203765 27.840967 325.280595 27.840967 325.280595 26.0868188 327.450827 26.0868188"></polygon>
            <polygon id="Path" fill="#113287" fill-rule="nonzero" points="333.178239 22.8669027 332.312935 22.8669027 330.871035 23.8120118 330.871035 24.6530383 332.257162 23.7479547 332.289149 23.7479547 332.289149 28.6659177 333.178239 28.6659177"></polygon>
            <path d="M336.709993,28.7460506 C337.911577,28.7460506 338.804768,28.0371573 338.800694,27.0720354 C338.804768,26.3391104 338.344639,25.8064767 337.551512,25.6943562 L337.551512,25.6542487 C338.175679,25.4980838 338.584956,25.0254883 338.576754,24.3647403 C338.584956,23.5076379 337.868107,22.7867697 336.726397,22.7867697 C335.645382,22.7867697 334.771876,23.427587 334.74809,24.3726962 L335.59699,24.3726962 C335.616675,23.8481003 336.137498,23.5237137 336.718195,23.5237137 C337.33088,23.5237137 337.727853,23.8841068 337.727853,24.4128036 C337.727853,24.969469 337.266905,25.3379 336.605828,25.3338811 L336.109611,25.3338811 L336.109611,26.0547493 L336.605828,26.0547493 C337.435044,26.0587682 337.911577,26.4672246 337.911577,27.0399659 C337.911577,27.6046692 337.403057,27.985075 336.702611,27.985075 C336.053838,27.985075 335.548599,27.6606884 335.516611,27.1520863 L334.62014,27.1520863 C334.656228,28.1012144 335.50923,28.7460506 336.709993,28.7460506 Z" id="Path" fill="#113287" fill-rule="nonzero"></path>
            <path d="M340.162188,28.722019 C340.470581,28.718 340.727302,28.4657085 340.731402,28.1532967 C340.727302,27.840967 340.470581,27.5846565 340.162188,27.5846565 C339.850515,27.5846565 339.589693,27.840967 339.593794,28.1532967 C339.589693,28.4657085 339.850515,28.718 340.162188,28.722019 Z" id="Path" fill="#113287" fill-rule="nonzero"></path>
            <path d="M343.678358,22.7867153 C342.4169,22.7788139 341.595887,23.6438721 341.595887,24.749165 C341.595887,25.8585589 342.429203,26.6554591 343.470849,26.6554591 C344.095017,26.6554591 344.639625,26.3591231 344.952119,25.8705338 L345.024296,25.8705338 C345.016094,27.1961307 344.49199,27.9731002 343.598799,27.9771191 C343.014001,27.9731002 342.637533,27.6326378 342.516964,27.1440484 L341.644278,27.1440484 C341.784531,28.0852206 342.529267,28.7460506 343.598799,28.7460506 C344.988207,28.7460506 345.865815,27.5926123 345.865815,25.558122 C345.861714,23.4356249 344.74379,22.7948076 343.678358,22.7867153 Z M342.452965,24.7331713 C342.448888,24.0683223 342.977913,23.5237137 343.678358,23.5237137 C344.387826,23.5237137 344.904548,24.0963729 344.904548,24.7251334 C344.904548,25.3659506 344.36322,25.9386098 343.662775,25.9346135 C342.958228,25.9386098 342.45709,25.4059761 342.452965,24.7331713 Z" id="Shape" fill="#113287" fill-rule="nonzero"></path>
            <path d="M348.123808,25.6222612 C348.905452,25.630217 349.337694,25.045501 349.341795,24.1805248 C349.337694,23.3314603 348.921036,22.7427253 348.123808,22.7467238 C347.351185,22.7427253 346.898438,23.3314603 346.90664,24.1805248 C346.898438,25.0415641 347.331501,25.630217 348.123808,25.6222612 Z M347.563615,28.6659177 L348.291947,28.6659177 L352.273167,22.8669027 L351.544015,22.8669027 L347.563615,28.6659177 Z M347.563615,24.1805248 C347.567716,23.6638848 347.75144,23.3154666 348.123808,23.3074287 C348.51258,23.3034097 348.676618,23.6598659 348.676618,24.1805248 C348.676618,24.7131585 348.500277,25.0575578 348.123808,25.0615768 C347.75144,25.0575578 347.567716,24.7131585 347.563615,24.1805248 Z M350.567165,27.3443397 C350.563064,28.1973411 350.995306,28.7860761 351.784332,28.7860761 C352.565156,28.7860761 352.998219,28.2013601 353.00232,27.3443397 C352.998219,26.4873194 352.577459,25.8985844 351.784332,25.9025829 C351.01171,25.8985844 350.563064,26.4873194 350.567165,27.3443397 Z M351.22414,27.3443397 C351.228241,26.8196619 351.416065,26.4712436 351.784332,26.4632877 C352.173104,26.4632877 352.337142,26.8157249 352.337142,27.3443397 C352.337142,27.8689356 352.160801,28.2173538 351.784332,28.2173538 C351.411964,28.2173538 351.228241,27.8689356 351.22414,27.3443397 Z" id="Shape" fill="#113287" fill-rule="nonzero"></path>
            <polygon id="Path" fill="#113287" points="295.679806 52.4923789 295.679806 0 297.320194 0 297.320194 52.4923789"></polygon>
            <path d="M271.343021,63.1687574 L268.733165,60.5589013 C268.573227,60.3987995 268.573227,60.1391262 268.733165,59.9789423 L271.343021,57.3690862 C271.503779,57.2089844 271.76296,57.2089844 271.923718,57.3690862 C272.083656,57.52927 272.083656,57.7889433 271.923718,57.9490451 L270.013487,59.858866 L284.607192,59.858866 L284.607192,60.6790596 L270.013487,60.6790596 L271.923718,62.5887985 C272.083656,62.7489823 272.083656,63.0085736 271.923718,63.1687574 C271.76296,63.3289412 271.503779,63.3289412 271.343021,63.1687574 Z" id="Path" fill="#113287"></path>
            <path d="M322.477173,57.3692502 L325.087029,59.9791064 C325.246967,60.1392902 325.246967,60.3988815 325.087029,60.5590653 L322.477173,63.1689215 C322.316415,63.3291053 322.057234,63.3291053 321.896476,63.1689215 C321.736538,63.0087376 321.736538,62.7490643 321.896476,62.5889625 L323.806707,60.6792237 L309.213001,60.6792237 L309.213001,59.85903 L323.806707,59.85903 L321.896476,57.9492092 C321.736538,57.7891074 321.736538,57.5294341 321.896476,57.3692502 C322.057234,57.2091484 322.316415,57.2091484 322.477173,57.3692502 Z" id="Path" fill="#113287"></path>
            <polygon id="Path" fill="#001A5B" fill-rule="nonzero" points="586.811639 15.9040328 563.183501 15.9040328 563.183501 35.5886801 586.811639 35.5886801 593 25.7463565"></polygon>
            <rect id="Rectangle" fill="#001A5B" fill-rule="nonzero" transform="translate(551.170124, 25.746356) scale(-1, 1) translate(-551.170124, -25.746356) " x="518.362379" y="15.9040328" width="65.615491" height="19.6846473"></rect>
            <path d="M540.869313,28.0451952 L537.954344,28.0451952 L537.954344,26.4833004 L537.201407,26.4833004 L537.201407,28.0451952 L534.302022,28.0451952 L534.302022,28.6699367 L540.869313,28.6699367 L540.869313,28.0451952 Z M534.621898,26.1389011 L534.910606,26.7315731 C536.112189,26.5433386 537.108725,25.9746984 537.573775,25.1376908 C538.042105,25.9746984 539.043562,26.5433386 540.245145,26.7315731 L540.533033,26.1389011 C539.059145,25.9226161 537.997815,25.0896274 537.961726,24.0803791 L540.260729,24.0803791 L540.260729,23.4635935 L537.954344,23.4635935 L537.954344,22.5024906 L537.201407,22.5024906 L537.201407,23.4635935 L534.894202,23.4635935 L534.894202,24.0803791 L537.193205,24.0803791 C537.157116,25.0896274 536.095786,25.9226161 534.621898,26.1389011 Z" id="Shape" fill="#FFFFFF" fill-rule="nonzero"></path>
            <path d="M547.197107,23.063175 L542.079098,23.063175 L542.079098,23.6798786 L546.436787,23.6798786 L546.436787,23.7679674 C546.432686,24.6290067 546.432686,25.6462928 546.156281,27.0359469 L546.924802,27.1160798 C547.193006,25.6462928 547.193006,24.6530383 547.197107,23.7679674 L547.197107,23.063175 Z M541.390136,28.5818479 L547.934461,28.5818479 L547.934461,27.9490685 L544.634001,27.9490685 L544.634001,25.4180329 L543.881064,25.4180329 L543.881064,27.9490685 L541.390136,27.9490685 L541.390136,28.5818479 Z" id="Shape" fill="#FFFFFF" fill-rule="nonzero"></path>
            <polygon id="Path" fill="#FFFFFF" fill-rule="nonzero" points="554.294242 25.6822993 550.057122 25.6822993 550.057122 23.5437264 554.229447 23.5437264 554.229447 22.9269408 549.295982 22.9269408 549.295982 26.2910471 551.370252 26.2910471 551.370252 28.0451952 548.479069 28.0451952 548.479069 28.6699367 555.04718 28.6699367 555.04718 28.0451952 552.123189 28.0451952 552.123189 26.2910471 554.294242 26.2910471"></polygon>
            <path d="M559.83629,28.9502789 C561.178127,28.9502789 561.963053,27.8689356 561.967154,25.9706794 C561.963053,24.0843981 561.166645,22.99108 559.83629,22.99108 C558.502656,22.99108 557.706248,24.0843981 557.706248,25.9706794 C557.706248,27.8689356 558.495274,28.9502789 559.83629,28.9502789 Z M558.587136,25.9706794 C558.587136,24.528943 559.055466,23.7399988 559.83629,23.7359798 C560.613834,23.7399988 561.086266,24.528943 561.086266,25.9706794 C561.086266,27.4164347 560.617935,28.1893852 559.83629,28.1893852 C559.051365,28.1893852 558.583035,27.4164347 558.587136,25.9706794 Z" id="Shape" fill="#FFFFFF" fill-rule="nonzero"></path>
            <path d="M563.232712,28.9262472 C563.541105,28.9222282 563.797826,28.6699367 563.801107,28.3575249 C563.797826,28.0451952 563.541105,27.7888847 563.232712,27.7888847 C562.920219,27.7888847 562.660217,28.0451952 562.664318,28.3575249 C562.660217,28.6699367 562.920219,28.9222282 563.232712,28.9262472 Z" id="Path" fill="#FFFFFF" fill-rule="nonzero"></path>
            <path d="M564.698398,27.7408213 L567.518224,27.7408213 L567.518224,28.8701459 L568.350721,28.8701459 L568.350721,27.7408213 L569.143848,27.7408213 L569.143848,26.9959215 L568.350721,26.9959215 L568.350721,23.0711309 L567.261503,23.0711309 L564.698398,27.027909 L564.698398,27.7408213 Z M565.627678,26.9959215 L565.627678,26.9478581 L567.454249,24.1204046 L567.518224,24.1204046 L567.518224,26.9959215 L565.627678,26.9959215 Z" id="Shape" fill="#FFFFFF" fill-rule="nonzero"></path>
            <path d="M571.362472,25.8264894 C572.143296,25.8345273 572.576358,25.2498112 572.580459,24.384753 C572.576358,23.5356885 572.1597,22.9470356 571.362472,22.9509529 C570.589849,22.9470356 570.137102,23.5356885 570.145304,24.384753 C570.137102,25.2457923 570.569344,25.8345273 571.362472,25.8264894 Z M570.802279,28.8701459 L571.530611,28.8701459 L575.511831,23.0711309 L574.782679,23.0711309 L570.802279,28.8701459 Z M570.802279,24.384753 C570.80556,23.868113 570.990104,23.5196948 571.362472,23.5116569 C571.751243,23.5076379 571.915282,23.8640941 571.915282,24.384753 C571.915282,24.9173867 571.738941,25.2617861 571.362472,25.265805 C570.990104,25.2617861 570.80556,24.9173867 570.802279,24.384753 Z M573.805828,27.5485679 C573.801728,28.4015693 574.23397,28.9903043 575.022996,28.9903043 C575.80382,28.9903043 576.236882,28.4055883 576.240163,27.5485679 C576.236882,26.6915476 575.816123,26.1028126 575.022996,26.1068111 C574.250373,26.1028126 573.801728,26.6915476 573.805828,27.5485679 Z M574.461983,27.5485679 C574.466084,27.0239721 574.654729,26.6755538 575.022996,26.6675159 C575.411768,26.6675159 575.575806,27.0199531 575.575806,27.5485679 C575.575806,28.0732458 575.399465,28.4216641 575.022996,28.4216641 C574.650628,28.4216641 574.466084,28.0732458 574.461983,27.5485679 Z" id="Shape" fill="#FFFFFF" fill-rule="nonzero"></path>
            <polygon id="Path" fill="#979797" points="370.317427 52.4923789 370.317427 0 371.137621 0 371.137621 52.4923789"></polygon>
            <polygon id="Path" fill="#979797" points="444.134855 52.4923789 444.134855 0 444.955048 0 444.955048 52.4923789"></polygon>
            <polygon id="Path" fill="#979797" points="517.952282 52.4923789 517.952282 0 518.772476 0 518.772476 52.4923789"></polygon>
        </g>
    </g>
</svg>