<svg width="593" height="74" viewBox="0 0 593 74" fill="none" xmlns="http://www.w3.org/2000/svg">
<rect width="593" height="74" fill="#727272"/>
<path d="M-340 -1753C-340 -1754.1 -339.105 -1755 -338 -1755H2975C2976.1 -1755 2977 -1754.1 2977 -1753V217C2977 218.105 2976.1 219 2975 219H-338C-339.105 219 -340 218.105 -340 217V-1753Z" fill="white"/>
<path fill-rule="evenodd" clip-rule="evenodd" d="M111.957 40.0133V12.5232H112.777V40.0133H111.957Z" fill="#979797"/>
<path d="M6.18832 15.9041H29.8162V35.5887H6.18832L0 25.7464L6.18832 15.9041Z" fill="#001A5B"/>
<path d="M292.134 62.8018C293.255 62.8089 294.002 62.034 294.002 61.0212C294.002 60.0228 293.252 59.3091 292.322 59.3055C291.756 59.3091 291.266 59.5686 290.981 60.012H290.924C290.924 58.8334 291.392 58.1341 292.199 58.1305C292.726 58.1341 293.061 58.4405 293.165 58.8658H293.951C293.829 58.0368 293.162 57.4385 292.199 57.4385C290.948 57.4385 290.162 58.4765 290.159 60.2931C290.159 62.2214 291.169 62.7945 292.134 62.8018ZM291.017 61.0428C291.024 60.4625 291.511 59.9507 292.149 59.9543C292.776 59.9507 293.23 60.4373 293.23 61.0356C293.23 61.6448 292.758 62.1349 292.127 62.1385C291.485 62.1349 291.02 61.6231 291.017 61.0428Z" fill="#001A5B"/>
<path d="M296.662 62.8017C297.869 62.8017 298.575 61.8286 298.579 60.1201C298.575 58.4225 297.858 57.4385 296.662 57.4385C295.461 57.4385 294.744 58.4225 294.744 60.1201C294.744 61.8286 295.454 62.8017 296.662 62.8017ZM295.537 60.1201C295.537 58.8226 295.959 58.1125 296.662 58.1089C297.36 58.1125 297.786 58.8226 297.786 60.1201C297.786 61.4213 297.364 62.1169 296.662 62.1169C295.955 62.1169 295.533 61.4213 295.537 60.1201Z" fill="#001A5B"/>
<path d="M301.167 62.7296C302.756 62.7296 303.672 61.742 303.676 60.1128C303.672 58.4873 302.756 57.5105 301.217 57.5105H299.473V62.7296H301.167ZM300.265 62.0376V58.2025H301.167C302.306 58.2025 302.89 58.8837 302.89 60.1128C302.89 61.3455 302.306 62.0339 301.123 62.0376H300.265Z" fill="#001A5B"/>
<path d="M275.659 66.5808H275.153V69.9512H273.973V70.3165H275.153V70.906H275.659V66.5808ZM270.93 69.2208L271 69.6309C271.478 69.6309 272.025 69.6309 272.602 69.6085V70.7074H273.108V69.5828C273.631 69.5508 274.166 69.4996 274.672 69.4194L274.64 69.0542C273.419 69.2048 271.99 69.2144 270.93 69.2208ZM271.391 67.8046C271.388 68.4134 271.958 68.7915 272.801 68.7915C273.637 68.7915 274.207 68.4134 274.21 67.8046C274.207 67.2055 273.637 66.8114 272.801 66.8114C271.958 66.8114 271.388 67.2055 271.391 67.8046ZM271.75 72.1491H275.8V71.7262H272.256V70.4831H271.75V72.1491ZM271.872 67.8046C271.866 67.4394 272.244 67.1895 272.801 67.196C273.343 67.1895 273.727 67.4394 273.73 67.8046C273.727 68.1763 273.343 68.4166 272.801 68.4198C272.244 68.4166 271.866 68.1763 271.872 67.8046Z" fill="#001A5B"/>
<path d="M280.304 68.1057V67.0676H279.805V68.1057C279.798 69.1854 279.096 70.2748 278.247 70.6624L278.568 71.0853C279.234 70.7489 279.795 70.028 280.057 69.1694C280.33 69.98 280.891 70.656 281.541 70.97L281.849 70.5727C281.009 70.1914 280.301 69.147 280.304 68.1057ZM282.47 72.2836H282.977V66.5742H282.47V72.2836Z" fill="#001A5B"/>
<path d="M314.862 67.7405H310.991V68.1506H314.361V68.1826C314.365 68.6664 314.365 69.2271 314.211 70.0153H310.331V70.4382H315.547V70.0153H314.711C314.862 69.2399 314.862 68.6632 314.862 68.1826V67.7405ZM311.023 72.9628H315.035V72.5399H311.523V71.0789H311.023V72.9628Z" fill="#001A5B"/>
<path d="M319.674 68.926V67.888H319.174V68.926C319.168 70.0057 318.466 71.0951 317.617 71.4827L317.937 71.9056C318.603 71.5692 319.164 70.8484 319.427 69.9897C319.699 70.8003 320.26 71.4763 320.911 71.7903L321.218 71.393C320.378 71.0117 319.67 69.9673 319.674 68.926ZM321.84 73.1039H322.346V67.3945H321.84V73.1039Z" fill="#001A5B"/>
<path d="M70.563 63.622C71.6516 63.622 72.4229 62.8831 72.4229 61.8558C72.4229 60.8502 71.6984 60.1221 70.7144 60.1186C70.3179 60.1221 69.9503 60.2627 69.734 60.4718H69.6836L69.8566 59.0084H72.1561V58.3308H69.2006L68.8617 61.2359H69.6115C69.7881 60.9151 70.1089 60.7746 70.527 60.7746C71.183 60.7817 71.6516 61.2431 71.6516 61.8775C71.6516 62.4974 71.1974 62.9551 70.563 62.9588C70.0368 62.9551 69.6115 62.6308 69.5682 62.1874H68.7969C68.833 63.02 69.5754 63.622 70.563 63.622Z" fill="#001A5B"/>
<path d="M73.1511 62.5335H75.6886V63.5499H76.4383V62.5335H77.1519V61.8631H76.4383V58.3308H75.4579L73.1511 61.8919V62.5335ZM73.9873 61.8631V61.8198L75.6309 59.2751H75.6886V61.8631H73.9873Z" fill="#001A5B"/>
<path d="M79.7182 63.5499C81.3077 63.5499 82.2236 62.5623 82.2269 60.9331C82.2236 59.3076 81.3077 58.3308 79.7687 58.3308H78.0242V63.5499H79.7182ZM78.8171 62.8579V59.0228H79.7182C80.8572 59.0228 81.4411 59.7041 81.4411 60.9331C81.4411 62.1658 80.8572 62.8543 79.675 62.8579H78.8171Z" fill="#001A5B"/>
<path d="M144.424 63.622C145.512 63.622 146.284 62.8831 146.284 61.8558C146.284 60.8502 145.559 60.1221 144.576 60.1186C144.179 60.1221 143.811 60.2627 143.595 60.4718H143.545L143.718 59.0084H146.017V58.3308H143.062L142.723 61.2359H143.472C143.649 60.9151 143.969 60.7746 144.388 60.7746C145.044 60.7817 145.512 61.2431 145.512 61.8775C145.512 62.4974 145.058 62.9551 144.424 62.9588C143.897 62.9551 143.472 62.6308 143.429 62.1874H142.658C142.694 63.02 143.436 63.622 144.424 63.622Z" fill="#001A5B"/>
<path d="M149.016 63.6218C150.137 63.629 150.883 62.8541 150.883 61.8412C150.883 60.8429 150.133 60.1292 149.203 60.1256C148.637 60.1292 148.148 60.3887 147.862 60.8321H147.805C147.805 59.6535 148.273 58.9542 149.081 58.9505C149.607 58.9542 149.942 59.2606 150.046 59.6858H150.832C150.71 58.8569 150.043 58.2585 149.081 58.2585C147.83 58.2585 147.044 59.2966 147.04 61.1131C147.04 63.0415 148.05 63.6146 149.016 63.6218ZM147.898 61.8629C147.906 61.2826 148.392 60.7708 149.03 60.7744C149.658 60.7708 150.112 61.2573 150.112 61.8557C150.112 62.4648 149.639 62.955 149.009 62.9586C148.367 62.955 147.902 62.4432 147.898 61.8629Z" fill="#001A5B"/>
<path d="M153.493 63.5499C155.082 63.5499 155.997 62.5623 156.001 60.9331C155.997 59.3076 155.082 58.3308 153.543 58.3308H151.798V63.5499H153.493ZM152.591 62.8579V59.0228H153.493C154.631 59.0228 155.215 59.7041 155.215 60.9331C155.215 62.1658 154.631 62.8543 153.449 62.8579H152.591Z" fill="#001A5B"/>
<path d="M218.259 63.622C219.348 63.622 220.119 62.8831 220.119 61.8558C220.119 60.8502 219.394 60.1221 218.411 60.1186C218.014 60.1221 217.647 60.2627 217.43 60.4718H217.38L217.553 59.0084H219.852V58.3308H216.897L216.558 61.2359H217.308C217.484 60.9151 217.805 60.7746 218.223 60.7746C218.879 60.7817 219.348 61.2431 219.348 61.8775C219.348 62.4974 218.893 62.9551 218.259 62.9588C217.733 62.9551 217.308 62.6308 217.264 62.1874H216.493C216.529 63.02 217.272 63.622 218.259 63.622Z" fill="#001A5B"/>
<path d="M222.786 63.6218C223.904 63.6218 224.7 63.0091 224.704 62.1585C224.7 61.4881 224.217 60.9402 223.608 60.8464V60.8176C224.134 60.6951 224.499 60.2193 224.502 59.6498C224.499 58.8461 223.77 58.2585 222.786 58.2585C221.788 58.2585 221.064 58.8461 221.064 59.6498C221.064 60.2193 221.42 60.6951 221.958 60.8176V60.8464C221.341 60.9402 220.862 61.4881 220.869 62.1585C220.862 63.0091 221.651 63.6218 222.786 63.6218ZM221.676 62.1007C221.666 61.5638 222.137 61.1709 222.786 61.1709C223.428 61.1709 223.897 61.5638 223.897 62.1007C223.897 62.6126 223.464 62.9658 222.786 62.9658C222.098 62.9658 221.666 62.6126 221.676 62.1007ZM221.835 59.7219C221.839 59.2353 222.214 58.9037 222.786 58.9073C223.345 58.9037 223.727 59.2353 223.724 59.7219C223.727 60.2121 223.331 60.5473 222.786 60.5437C222.227 60.5473 221.839 60.2085 221.835 59.7219Z" fill="#001A5B"/>
<path d="M227.292 63.5499C228.882 63.5499 229.797 62.5623 229.8 60.9331C229.797 59.3076 228.882 58.3308 227.342 58.3308H225.598V63.5499H227.292ZM226.391 62.8579V59.0228H227.292C228.431 59.0228 229.015 59.7041 229.015 60.9331C229.015 62.1658 228.431 62.8543 227.249 62.8579H226.391Z" fill="#001A5B"/>
<path d="M365.926 62.8018C367.047 62.8089 367.794 62.034 367.794 61.0212C367.794 60.0228 367.044 59.3091 366.114 59.3055C365.548 59.3091 365.058 59.5686 364.773 60.012H364.716C364.716 58.8334 365.184 58.1341 365.992 58.1305C366.518 58.1341 366.853 58.4405 366.957 58.8658H367.743C367.621 58.0368 366.954 57.4385 365.992 57.4385C364.741 57.4385 363.955 58.4765 363.951 60.2931C363.951 62.2214 364.961 62.7945 365.926 62.8018ZM364.809 61.0428C364.816 60.4625 365.303 59.9507 365.941 59.9543C366.568 59.9507 367.022 60.4373 367.022 61.0356C367.022 61.6448 366.55 62.1349 365.92 62.1385C365.277 62.1349 364.813 61.6231 364.809 61.0428Z" fill="#001A5B"/>
<path d="M370.49 62.8017C371.571 62.8017 372.374 62.1638 372.371 61.2951C372.374 60.6355 371.96 60.1562 371.247 60.0552V60.0192C371.809 59.8786 372.177 59.4533 372.169 58.8586C372.177 58.0872 371.531 57.4385 370.504 57.4385C369.531 57.4385 368.745 58.0152 368.724 58.8658H369.487C369.505 58.3936 369.975 58.1017 370.497 58.1017C371.048 58.1017 371.405 58.4261 371.405 58.9019C371.405 59.4028 370.991 59.7344 370.396 59.7308H369.949V60.3796H370.396C371.142 60.3832 371.571 60.7508 371.571 61.2663C371.571 61.7745 371.113 62.1169 370.482 62.1169C369.898 62.1169 369.445 61.825 369.415 61.3672H368.608C368.641 62.2214 369.409 62.8017 370.49 62.8017Z" fill="#001A5B"/>
<path d="M375.01 62.7296C376.599 62.7296 377.515 61.742 377.518 60.1128C377.515 58.4873 376.599 57.5105 375.06 57.5105H373.315V62.7296H375.01ZM374.108 62.0376V58.2025H375.01C376.148 58.2025 376.732 58.8837 376.732 60.1128C376.732 61.3455 376.148 62.0339 374.966 62.0376H374.108Z" fill="#001A5B"/>
<path d="M439.748 62.8018C440.869 62.8089 441.615 62.034 441.615 61.0212C441.615 60.0228 440.865 59.3091 439.935 59.3055C439.369 59.3091 438.879 59.5686 438.595 60.012H438.536C438.536 58.8334 439.005 58.1341 439.813 58.1305C440.339 58.1341 440.674 58.4405 440.779 58.8658H441.564C441.441 58.0368 440.775 57.4385 439.813 57.4385C438.562 57.4385 437.776 58.4765 437.773 60.2931C437.773 62.2214 438.782 62.7945 439.748 62.8018ZM438.631 61.0428C438.637 60.4625 439.124 59.9507 439.762 59.9543C440.389 59.9507 440.844 60.4373 440.844 61.0356C440.844 61.6448 440.371 62.1349 439.74 62.1385C439.099 62.1349 438.634 61.6231 438.631 61.0428Z" fill="#001A5B"/>
<path d="M444.346 62.8018C445.468 62.8089 446.214 62.034 446.214 61.0212C446.214 60.0228 445.464 59.3091 444.534 59.3055C443.968 59.3091 443.478 59.5686 443.193 60.012H443.136C443.136 58.8334 443.604 58.1341 444.411 58.1305C444.938 58.1341 445.273 58.4405 445.377 58.8658H446.163C446.041 58.0368 445.374 57.4385 444.411 57.4385C443.16 57.4385 442.375 58.4765 442.371 60.2931C442.371 62.2214 443.381 62.7945 444.346 62.8018ZM443.229 61.0428C443.237 60.4625 443.723 59.9507 444.361 59.9543C444.989 59.9507 445.442 60.4373 445.442 61.0356C445.442 61.6448 444.971 62.1349 444.34 62.1385C443.698 62.1349 443.233 61.6231 443.229 61.0428Z" fill="#001A5B"/>
<path d="M448.823 62.7296C450.413 62.7296 451.329 61.742 451.332 60.1128C451.329 58.4873 450.413 57.5105 448.874 57.5105H447.129V62.7296H448.823ZM447.923 62.0376V58.2025H448.823C449.962 58.2025 450.546 58.8837 450.546 60.1128C450.546 61.3455 449.962 62.0339 448.78 62.0376H447.923Z" fill="#001A5B"/>
<path d="M513.565 62.8019C514.686 62.809 515.432 62.0341 515.432 61.0212C515.432 60.0228 514.682 59.3092 513.752 59.3056C513.186 59.3092 512.697 59.5687 512.412 60.012H512.354C512.354 58.8334 512.823 58.1342 513.63 58.1306C514.157 58.1342 514.491 58.4405 514.596 58.8659H515.382C515.259 58.0368 514.592 57.4385 513.63 57.4385C512.379 57.4385 511.593 58.4766 511.59 60.2932C511.59 62.2215 512.599 62.7946 513.565 62.8019ZM512.448 61.0429C512.455 60.4625 512.942 59.9507 513.579 59.9543C514.206 59.9507 514.661 60.4373 514.661 61.0357C514.661 61.6448 514.188 62.135 513.558 62.1386C512.916 62.135 512.451 61.6232 512.448 61.0429Z" fill="#001A5B"/>
<path d="M518.07 57.4383C516.935 57.4311 516.196 58.2097 516.196 59.2045C516.196 60.2029 516.946 60.9202 517.883 60.9202C518.445 60.9202 518.936 60.6535 519.217 60.2137H519.282C519.274 61.4068 518.802 62.1061 517.998 62.1096C517.473 62.1061 517.133 61.7996 517.026 61.3599H516.24C516.365 62.2069 517.036 62.8017 517.998 62.8017C519.249 62.8017 520.038 61.7636 520.038 59.9325C520.035 58.0222 519.029 57.4455 518.07 57.4383ZM516.967 59.1901C516.964 58.5918 517.44 58.1015 518.07 58.1015C518.709 58.1015 519.174 58.6169 519.174 59.1829C519.174 59.7596 518.687 60.275 518.056 60.2714C517.422 60.275 516.971 59.7957 516.967 59.1901Z" fill="#001A5B"/>
<path d="M522.64 62.7296C524.23 62.7296 525.146 61.742 525.149 60.1129C525.146 58.4873 524.23 57.5105 522.691 57.5105H520.947V62.7296H522.64ZM521.74 62.0376V58.2026H522.64C523.78 58.2026 524.364 58.8837 524.364 60.1129C524.364 61.3456 523.78 62.034 522.598 62.0376H521.74Z" fill="#001A5B"/>
<path fill-rule="evenodd" clip-rule="evenodd" d="M38.1389 40.0133V12.5232H38.9591V40.0133H38.1389Z" fill="#979797"/>
<path fill-rule="evenodd" clip-rule="evenodd" d="M185.774 40.0133V12.5232H186.594V40.0133H185.774Z" fill="#979797"/>
<path fill-rule="evenodd" clip-rule="evenodd" d="M259.591 40.0133V12.5232H260.411V40.0133H259.591Z" fill="#979797"/>
<path fill-rule="evenodd" clip-rule="evenodd" d="M321.106 40.0133V12.5232H321.926V40.0133H321.106Z" fill="#979797"/>
<path fill-rule="evenodd" clip-rule="evenodd" d="M345.712 40.0133V12.5232H346.532V40.0133H345.712Z" fill="#979797"/>
<path fill-rule="evenodd" clip-rule="evenodd" d="M394.923 40.0133V12.5232H395.744V40.0133H394.923Z" fill="#979797"/>
<path fill-rule="evenodd" clip-rule="evenodd" d="M419.529 40.0133V12.5232H420.349V40.0133H419.529Z" fill="#979797"/>
<path fill-rule="evenodd" clip-rule="evenodd" d="M468.741 40.0133V12.5232H469.561V40.0133H468.741Z" fill="#979797"/>
<path fill-rule="evenodd" clip-rule="evenodd" d="M493.346 40.0133V12.5232H494.167V40.0133H493.346Z" fill="#979797"/>
<path fill-rule="evenodd" clip-rule="evenodd" d="M542.558 40.0133V12.5232H543.378V40.0133H542.558Z" fill="#979797"/>
<path fill-rule="evenodd" clip-rule="evenodd" d="M567.164 40.0133V12.5232H567.984V40.0133H567.164Z" fill="#979797"/>
<path d="M296.91 15.9041H223.093V35.5887H296.91V15.9041Z" fill="#E2E6F6"/>
<path d="M223.093 15.9041H149.275V35.5887H223.093V15.9041Z" fill="#5B6EB4"/>
<path d="M149.275 15.9041H75.4578V35.5887H149.275V15.9041Z" fill="#113287"/>
<path d="M75.4579 15.9041H9.02222V35.5887H75.4579V15.9041Z" fill="#001A5B"/>
<path fill-rule="evenodd" clip-rule="evenodd" d="M148.865 52.4924V3.58518e-08L149.685 0V52.4924H148.865Z" fill="#979797"/>
<path fill-rule="evenodd" clip-rule="evenodd" d="M222.683 52.4924V3.58518e-08L223.503 0V52.4924H222.683Z" fill="#979797"/>
<path fill-rule="evenodd" clip-rule="evenodd" d="M75.0476 52.4924V3.58518e-08L75.8678 0V52.4924H75.0476Z" fill="#979797"/>
<path d="M518.362 15.9041H444.545V35.5887H518.362V15.9041Z" fill="#113287"/>
<path d="M444.545 15.9041H370.728V35.5887H444.545V15.9041Z" fill="#5B6EB4"/>
<path d="M370.728 15.9041H296.91V35.5887H370.728V15.9041Z" fill="#E2E6F6"/>
<path fill-rule="evenodd" clip-rule="evenodd" d="M295.68 52.4924V7.17035e-08L297.32 0V52.4924H295.68Z" fill="#113287"/>
<path fill-rule="evenodd" clip-rule="evenodd" d="M271.343 63.1688L268.733 60.5589C268.573 60.3988 268.573 60.1391 268.733 59.979L271.343 57.3691C271.504 57.209 271.763 57.209 271.924 57.3691C272.084 57.5293 272.084 57.789 271.924 57.9491L270.014 59.8589H284.607V60.6791H270.014L271.924 62.5888C272.084 62.749 272.084 63.0086 271.924 63.1688C271.763 63.329 271.504 63.329 271.343 63.1688Z" fill="#113287"/>
<path fill-rule="evenodd" clip-rule="evenodd" d="M322.477 57.3692L325.087 59.979C325.247 60.1391 325.247 60.3988 325.087 60.559L322.477 63.1688C322.316 63.3289 322.057 63.3289 321.896 63.1688C321.736 63.0086 321.736 62.749 321.896 62.5888L323.807 60.6791H309.213V59.8589H323.807L321.896 57.9491C321.736 57.7889 321.736 57.5293 321.896 57.3692C322.057 57.209 322.316 57.209 322.477 57.3692Z" fill="#113287"/>
<path d="M586.812 15.9041H563.184V35.5887H586.812L593 25.7464L586.812 15.9041Z" fill="#001A5B"/>
<path d="M518.363 15.9041H583.978V35.5887H518.363V15.9041Z" fill="#001A5B"/>
<path fill-rule="evenodd" clip-rule="evenodd" d="M370.317 52.4924V3.58518e-08L371.138 0V52.4924H370.317Z" fill="#979797"/>
<path fill-rule="evenodd" clip-rule="evenodd" d="M444.135 52.4924V3.58518e-08L444.955 0V52.4924H444.135Z" fill="#979797"/>
<path fill-rule="evenodd" clip-rule="evenodd" d="M517.952 52.4924V3.58518e-08L518.772 0V52.4924H517.952Z" fill="#979797"/>
<path d="M247.27 22.5121V26.7573H246.509V25.8842H244.699V25.2595H246.509V24.3864H244.775C244.31 25.5398 243.233 26.3528 241.679 26.7973L241.375 26.2046C243.073 25.72 244.066 24.8069 244.202 23.6495H241.743V23.0248H245.027C245.027 23.2891 244.999 23.5454 244.951 23.7857H246.509V22.5121H247.27ZM242.488 28.2391C242.488 27.37 243.433 26.8414 244.907 26.8374C246.361 26.8414 247.314 27.37 247.318 28.2391C247.314 29.1121 246.361 29.6488 244.907 29.6488C243.433 29.6488 242.488 29.1121 242.488 28.2391ZM243.241 28.2391C243.241 28.7437 243.882 29.036 244.907 29.04C245.912 29.036 246.553 28.7437 246.557 28.2391C246.553 27.7265 245.912 27.4341 244.907 27.4381C243.882 27.4341 243.241 27.7265 243.241 28.2391ZM254.19 25.8121V26.4209H252.02V28.175H254.943V28.7998H248.375V28.175H251.267V26.4209H249.192V23.0568H254.126V23.6735H249.953V25.8121H254.19ZM257.915 29L260.502 24.0019V23.9539H257.514V23.201H261.415V23.9859L258.836 29H257.915ZM264.195 29.0801C262.853 29.0801 262.064 27.9988 262.064 26.1005C262.064 24.2142 262.861 23.1209 264.195 23.1209C265.524 23.1209 266.321 24.2142 266.325 26.1005C266.321 27.9988 265.536 29.0801 264.195 29.0801ZM262.945 26.1005C262.941 27.5462 263.41 28.3192 264.195 28.3192C264.975 28.3192 265.444 27.5462 265.444 26.1005C265.444 24.6587 264.971 23.8698 264.195 23.8658C263.414 23.8698 262.945 24.6587 262.945 26.1005ZM267.591 29.0561C267.278 29.0521 267.018 28.7998 267.022 28.4874C267.018 28.175 267.278 27.9187 267.591 27.9187C267.899 27.9187 268.155 28.175 268.159 28.4874C268.155 28.7998 267.899 29.0521 267.591 29.0561ZM270.682 23.201V29H269.793V24.082H269.761L268.376 24.9871V24.1461L269.817 23.201H270.682ZM273.486 25.9563C272.693 25.9643 272.26 25.3756 272.268 24.5146C272.26 23.6655 272.713 23.0768 273.486 23.0808C274.283 23.0768 274.699 23.6655 274.703 24.5146C274.699 25.3796 274.267 25.9643 273.486 25.9563ZM272.925 29L276.906 23.201H277.635L273.654 29H272.925ZM272.925 24.5146C272.929 25.0472 273.113 25.3916 273.486 25.3956C273.862 25.3916 274.038 25.0472 274.038 24.5146C274.038 23.9939 273.874 23.6375 273.486 23.6415C273.113 23.6495 272.929 23.9979 272.925 24.5146ZM275.929 27.6784C275.925 26.8214 276.373 26.2326 277.146 26.2367C277.939 26.2326 278.36 26.8214 278.364 27.6784C278.36 28.5354 277.927 29.1201 277.146 29.1201C276.357 29.1201 275.925 28.5314 275.929 27.6784ZM276.586 27.6784C276.59 28.203 276.774 28.5515 277.146 28.5515C277.523 28.5515 277.699 28.203 277.699 27.6784C277.699 27.1498 277.535 26.7973 277.146 26.7973C276.778 26.8053 276.59 27.1538 276.586 27.6784Z" fill="#113287"/>
<path d="M173.805 25.8282V26.4449H170.905V27.1337C172.219 27.2058 173 27.6464 173.004 28.3993C173 29.2123 172.071 29.6688 170.529 29.6648C168.967 29.6688 168.038 29.2123 168.038 28.3993C168.038 27.6464 168.819 27.2018 170.152 27.1337V26.4449H167.261V25.8282H173.805ZM167.605 24.851C168.895 24.7188 169.912 24.1341 170.016 23.4413H167.862V22.8325H173.22V23.4413H171.041C171.146 24.1381 172.155 24.7188 173.468 24.851L173.196 25.4517C171.951 25.3075 170.921 24.7829 170.533 24.022C170.136 24.7829 169.115 25.3075 167.87 25.4517L167.605 24.851ZM168.807 28.3993C168.803 28.8358 169.432 29.0881 170.529 29.0801C171.61 29.0881 172.243 28.8358 172.243 28.3993C172.243 27.9547 171.61 27.7144 170.529 27.7104C169.432 27.7144 168.803 27.9547 168.807 28.3993ZM180.165 25.8121V26.4209H177.994V28.175H180.917V28.7998H174.349V28.175H177.241V26.4209H175.166V23.0568H180.1V23.6735H175.927V25.8121H180.165ZM183.689 29V28.3592L185.699 26.3328C186.336 25.672 186.652 25.3035 186.652 24.7949C186.652 24.2222 186.188 23.8578 185.579 23.8578C184.934 23.8578 184.526 24.2663 184.522 24.883H183.689C183.681 23.8217 184.49 23.1209 185.595 23.1209C186.712 23.1209 187.485 23.8297 187.493 24.7709C187.485 25.4197 187.181 25.9363 186.092 27.0056L184.914 28.199V28.2471H187.59V29H183.689ZM190.665 29.0801C189.592 29.0721 188.471 28.4353 188.471 26.2927C188.475 24.2743 189.348 23.1209 190.737 23.1209C191.807 23.1209 192.548 23.7857 192.684 24.7068H191.811C191.695 24.2342 191.322 23.8938 190.737 23.8898C189.84 23.8938 189.32 24.6708 189.32 25.9803H189.384C189.7 25.4877 190.245 25.1994 190.874 25.1954C191.907 25.1994 192.74 25.9924 192.74 27.1017C192.74 28.2271 191.911 29.0881 190.665 29.0801ZM189.424 27.1257C189.428 27.7705 189.944 28.3392 190.657 28.3432C191.358 28.3392 191.883 27.7945 191.883 27.1177C191.883 26.4529 191.378 25.9123 190.681 25.9163C189.972 25.9123 189.432 26.4809 189.424 27.1257ZM193.981 29.0561C193.669 29.0521 193.409 28.7998 193.413 28.4874C193.409 28.175 193.669 27.9187 193.981 27.9187C194.29 27.9187 194.546 28.175 194.55 28.4874C194.546 28.7998 194.29 29.0521 193.981 29.0561ZM197.073 23.201V29H196.184V24.082H196.152L194.766 24.9871V24.1461L196.208 23.201H197.073ZM199.876 25.9563C199.083 25.9643 198.651 25.3756 198.659 24.5146C198.651 23.6655 199.103 23.0768 199.876 23.0808C200.673 23.0768 201.09 23.6655 201.094 24.5146C201.09 25.3796 200.657 25.9643 199.876 25.9563ZM199.316 29L203.297 23.201H204.025L200.045 29H199.316ZM199.316 24.5146C199.32 25.0472 199.504 25.3916 199.876 25.3956C200.253 25.3916 200.429 25.0472 200.429 24.5146C200.429 23.9939 200.265 23.6375 199.876 23.6415C199.504 23.6495 199.32 23.9979 199.316 24.5146ZM202.319 27.6784C202.315 26.8214 202.764 26.2326 203.537 26.2367C204.33 26.2326 204.75 26.8214 204.754 27.6784C204.75 28.5354 204.318 29.1201 203.537 29.1201C202.748 29.1201 202.315 28.5314 202.319 27.6784ZM202.976 27.6784C202.98 28.203 203.164 28.5515 203.537 28.5515C203.913 28.5515 204.09 28.203 204.09 27.6784C204.09 27.1498 203.925 26.7973 203.537 26.7973C203.168 26.8053 202.98 27.1538 202.976 27.6784Z" fill="white"/>
<path d="M100.724 23.193V23.8978C100.72 24.7829 100.72 25.7761 100.452 27.2459L99.6831 27.1658C99.9594 25.7761 99.9594 24.7589 99.9634 23.8978V23.8097H95.6061V23.193H100.724ZM94.9173 28.7117V28.0789H97.4083V25.5478H98.1612V28.0789H101.461V28.7117H94.9173ZM107.821 25.8121V26.4209H105.65V28.175H108.574V28.7998H102.006V28.175H104.897V26.4209H102.823V23.0568H107.757V23.6735H103.584V25.8121H107.821ZM111.345 29V28.3592L113.356 26.3328C113.992 25.672 114.309 25.3035 114.309 24.7949C114.309 24.2222 113.844 23.8578 113.236 23.8578C112.591 23.8578 112.182 24.2663 112.178 24.883H111.345C111.337 23.8217 112.146 23.1209 113.252 23.1209C114.369 23.1209 115.142 23.8297 115.15 24.7709C115.142 25.4197 114.837 25.9363 113.748 27.0056L112.571 28.199V28.2471H115.246V29H111.345ZM116.792 29.0561C116.479 29.0521 116.219 28.7998 116.223 28.4874C116.219 28.175 116.479 27.9187 116.792 27.9187C117.1 27.9187 117.356 28.175 117.361 28.4874C117.356 28.7998 117.1 29.0521 116.792 29.0561ZM120.212 29.0801C118.95 29.0801 118.073 28.3993 118.081 27.4541C118.073 26.7092 118.606 26.1005 119.291 25.9964V25.9643C118.694 25.8282 118.298 25.2995 118.298 24.6668C118.298 23.7737 119.103 23.1209 120.212 23.1209C121.305 23.1209 122.114 23.7737 122.118 24.6668C122.114 25.2995 121.71 25.8282 121.125 25.9643V25.9964C121.802 26.1005 122.339 26.7092 122.343 27.4541C122.339 28.3993 121.453 29.0801 120.212 29.0801ZM118.978 27.39C118.966 27.9587 119.447 28.3512 120.212 28.3512C120.965 28.3512 121.445 27.9587 121.445 27.39C121.445 26.7933 120.925 26.3568 120.212 26.3568C119.491 26.3568 118.966 26.7933 118.978 27.39ZM119.155 24.7468C119.159 25.2875 119.591 25.664 120.212 25.66C120.817 25.664 121.257 25.2915 121.253 24.7468C121.257 24.2062 120.833 23.8377 120.212 23.8418C119.575 23.8377 119.159 24.2062 119.155 24.7468ZM124.585 25.9563C123.792 25.9643 123.36 25.3756 123.368 24.5146C123.36 23.6655 123.812 23.0768 124.585 23.0808C125.382 23.0768 125.799 23.6655 125.803 24.5146C125.799 25.3796 125.366 25.9643 124.585 25.9563ZM124.025 29L128.005 23.201H128.734L124.753 29H124.025ZM124.025 24.5146C124.029 25.0472 124.213 25.3916 124.585 25.3956C124.962 25.3916 125.138 25.0472 125.138 24.5146C125.138 23.9939 124.974 23.6375 124.585 23.6415C124.213 23.6495 124.029 23.9979 124.025 24.5146ZM127.028 27.6784C127.024 26.8214 127.473 26.2326 128.246 26.2367C129.039 26.2326 129.459 26.8214 129.463 27.6784C129.459 28.5354 129.027 29.1201 128.246 29.1201C127.457 29.1201 127.024 28.5314 127.028 27.6784ZM127.685 27.6784C127.689 28.203 127.873 28.5515 128.246 28.5515C128.622 28.5515 128.798 28.203 128.798 27.6784C128.798 27.1498 128.634 26.7973 128.246 26.7973C127.877 26.8053 127.689 27.1538 127.685 27.6784Z" fill="white"/>
<path d="M24.4906 28.175V28.7998H17.9227V28.175H20.8222V26.6131H21.5751V28.175H24.4906ZM18.2431 26.2687C19.7168 26.0524 20.7781 25.2194 20.8142 24.2102H18.5154V23.5934H20.8222V22.6323H21.5751V23.5934H23.8819V24.2102H21.5831C21.6191 25.2194 22.6804 26.0524 24.1542 26.2687L23.8659 26.8614C22.6644 26.6732 21.6632 26.1045 21.1946 25.2675C20.7301 26.1045 19.7329 26.6732 18.5314 26.8614L18.2431 26.2687ZM30.8183 23.193V23.8978C30.8143 24.7829 30.8143 25.7761 30.546 27.2459L29.777 27.1658C30.0534 25.7761 30.0534 24.7589 30.0574 23.8978V23.8097H25.7001V23.193H30.8183ZM25.0113 28.7117V28.0789H27.5023V25.5478H28.2552V28.0789H31.5552V28.7117H25.0113ZM37.9149 25.8121V26.4209H35.7443V28.175H38.6678V28.7998H32.0998V28.175H34.9913V26.4209H32.9168V23.0568H37.8508V23.6735H33.6778V25.8121H37.9149ZM43.6418 23.201V29H42.7527V24.082H42.7207L41.335 24.9871V24.1461L42.7768 23.201H43.6418ZM45.3559 29.0561C45.0435 29.0521 44.7832 28.7998 44.7872 28.4874C44.7832 28.175 45.0435 27.9187 45.3559 27.9187C45.6643 27.9187 45.9206 28.175 45.9246 28.4874C45.9206 28.7998 45.6643 29.0521 45.3559 29.0561ZM48.752 29.0801C47.4104 29.0801 46.6214 27.9988 46.6214 26.1005C46.6214 24.2142 47.4184 23.1209 48.752 23.1209C50.0816 23.1209 50.8786 24.2142 50.8826 26.1005C50.8786 27.9988 50.0936 29.0801 48.752 29.0801ZM47.5025 26.1005C47.4985 27.5462 47.9671 28.3192 48.752 28.3192C49.533 28.3192 50.0015 27.5462 50.0015 26.1005C50.0015 24.6587 49.529 23.8698 48.752 23.8658C47.9711 23.8698 47.5025 24.6587 47.5025 26.1005ZM53.1253 25.9563C52.3324 25.9643 51.8998 25.3756 51.9078 24.5146C51.8998 23.6655 52.3524 23.0768 53.1253 23.0808C53.9223 23.0768 54.3388 23.6655 54.3428 24.5146C54.3388 25.3796 53.9063 25.9643 53.1253 25.9563ZM52.5646 29L56.5455 23.201H57.2743L53.2935 29H52.5646ZM52.5646 24.5146C52.5686 25.0472 52.7529 25.3916 53.1253 25.3956C53.5018 25.3916 53.678 25.0472 53.678 24.5146C53.678 23.9939 53.5138 23.6375 53.1253 23.6415C52.7529 23.6495 52.5686 23.9979 52.5646 24.5146ZM55.5683 27.6784C55.5643 26.8214 56.0128 26.2326 56.7858 26.2367C57.5787 26.2326 57.9992 26.8214 58.0032 27.6784C57.9992 28.5354 57.5667 29.1201 56.7858 29.1201C55.9968 29.1201 55.5643 28.5314 55.5683 27.6784ZM56.2251 27.6784C56.2291 28.203 56.4133 28.5515 56.7858 28.5515C57.1622 28.5515 57.3384 28.203 57.3384 27.6784C57.3384 27.1498 57.1742 26.7973 56.7858 26.7973C56.4173 26.8053 56.2291 27.1538 56.2251 27.6784Z" fill="white"/>
<path d="M469.828 23.193V23.8978C469.824 24.7829 469.824 25.7761 469.555 27.2459L468.786 27.1658C469.063 25.7761 469.063 24.7589 469.067 23.8978V23.8097H464.709V23.193H469.828ZM464.02 28.7117V28.0789H466.512V25.5478H467.264V28.0789H470.564V28.7117H464.02ZM476.924 25.8121V26.4209H474.753V28.175H477.677V28.7998H471.109V28.175H474.001V26.4209H471.926V23.0568H476.86V23.6735H472.687V25.8121H476.924ZM482.467 29.0801C481.125 29.0801 480.336 27.9988 480.336 26.1005C480.336 24.2142 481.133 23.1209 482.467 23.1209C483.796 23.1209 484.593 24.2142 484.597 26.1005C484.593 27.9988 483.808 29.0801 482.467 29.0801ZM481.217 26.1005C481.213 27.5462 481.682 28.3192 482.467 28.3192C483.248 28.3192 483.716 27.5462 483.716 26.1005C483.716 24.6587 483.244 23.8698 482.467 23.8658C481.686 23.8698 481.217 24.6587 481.217 26.1005ZM485.863 29.0561C485.551 29.0521 485.29 28.7998 485.294 28.4874C485.29 28.175 485.551 27.9187 485.863 27.9187C486.171 27.9187 486.428 28.175 486.432 28.4874C486.428 28.7998 486.171 29.0521 485.863 29.0561ZM489.283 29.0801C488.022 29.0801 487.145 28.3993 487.153 27.4541C487.145 26.7092 487.677 26.1005 488.362 25.9964V25.9643C487.765 25.8282 487.369 25.2995 487.369 24.6668C487.369 23.7737 488.174 23.1209 489.283 23.1209C490.376 23.1209 491.185 23.7737 491.189 24.6668C491.185 25.2995 490.781 25.8282 490.196 25.9643V25.9964C490.873 26.1005 491.41 26.7092 491.414 27.4541C491.41 28.3993 490.525 29.0801 489.283 29.0801ZM488.05 27.39C488.038 27.9587 488.518 28.3512 489.283 28.3512C490.036 28.3512 490.517 27.9587 490.517 27.39C490.517 26.7933 489.996 26.3568 489.283 26.3568C488.562 26.3568 488.038 26.7933 488.05 27.39ZM488.226 24.7468C488.23 25.2875 488.662 25.664 489.283 25.66C489.888 25.664 490.328 25.2915 490.324 24.7468C490.328 24.2062 489.904 23.8377 489.283 23.8418C488.646 23.8377 488.23 24.2062 488.226 24.7468ZM493.656 25.9563C492.863 25.9643 492.431 25.3756 492.439 24.5146C492.431 23.6655 492.883 23.0768 493.656 23.0808C494.453 23.0768 494.87 23.6655 494.874 24.5146C494.87 25.3796 494.437 25.9643 493.656 25.9563ZM493.096 29L497.077 23.201H497.805L493.825 29H493.096ZM493.096 24.5146C493.1 25.0472 493.284 25.3916 493.656 25.3956C494.033 25.3916 494.209 25.0472 494.209 24.5146C494.209 23.9939 494.045 23.6375 493.656 23.6415C493.284 23.6495 493.1 23.9979 493.096 24.5146ZM496.099 27.6784C496.095 26.8214 496.544 26.2326 497.317 26.2367C498.11 26.2326 498.53 26.8214 498.534 27.6784C498.53 28.5354 498.098 29.1201 497.317 29.1201C496.528 29.1201 496.095 28.5314 496.099 27.6784ZM496.756 27.6784C496.76 28.203 496.944 28.5515 497.317 28.5515C497.693 28.5515 497.87 28.203 497.87 27.6784C497.87 27.1498 497.705 26.7973 497.317 26.7973C496.948 26.8053 496.76 27.1538 496.756 27.6784Z" fill="white"/>
<path d="M396.735 25.8282V26.4449H393.836V27.1337C395.149 27.2058 395.93 27.6464 395.934 28.3993C395.93 29.2123 395.001 29.6688 393.459 29.6648C391.897 29.6688 390.968 29.2123 390.968 28.3993C390.968 27.6464 391.749 27.2018 393.083 27.1337V26.4449H390.191V25.8282H396.735ZM390.536 24.851C391.825 24.7188 392.842 24.1341 392.946 23.4413H390.792V22.8325H396.15V23.4413H393.972C394.076 24.1381 395.085 24.7188 396.399 24.851L396.126 25.4517C394.881 25.3075 393.852 24.7829 393.463 24.022C393.067 24.7829 392.045 25.3075 390.8 25.4517L390.536 24.851ZM391.737 28.3993C391.733 28.8358 392.362 29.0881 393.459 29.0801C394.54 29.0881 395.173 28.8358 395.173 28.3993C395.173 27.9547 394.54 27.7144 393.459 27.7104C392.362 27.7144 391.733 27.9547 391.737 28.3993ZM403.095 25.8121V26.4209H400.924V28.175H403.848V28.7998H397.28V28.175H400.171V26.4209H398.097V23.0568H403.031V23.6735H398.858V25.8121H403.095ZM408.718 29.0801C407.644 29.0721 406.523 28.4353 406.523 26.2927C406.527 24.2743 407.4 23.1209 408.79 23.1209C409.859 23.1209 410.6 23.7857 410.736 24.7068H409.863C409.747 24.2342 409.374 23.8938 408.79 23.8898C407.893 23.8938 407.372 24.6708 407.372 25.9803H407.436C407.752 25.4877 408.297 25.1994 408.926 25.1954C409.959 25.1994 410.792 25.9924 410.792 27.1017C410.792 28.2271 409.963 29.0881 408.718 29.0801ZM407.476 27.1257C407.48 27.7705 407.997 28.3392 408.71 28.3432C409.41 28.3392 409.935 27.7945 409.935 27.1177C409.935 26.4529 409.43 25.9123 408.734 25.9163C408.025 25.9123 407.484 26.4809 407.476 27.1257ZM412.034 29.0561C411.721 29.0521 411.461 28.7998 411.465 28.4874C411.461 28.175 411.721 27.9187 412.034 27.9187C412.342 27.9187 412.598 28.175 412.602 28.4874C412.598 28.7998 412.342 29.0521 412.034 29.0561ZM415.51 29.0801C414.436 29.0721 413.315 28.4353 413.315 26.2927C413.319 24.2743 414.192 23.1209 415.582 23.1209C416.651 23.1209 417.392 23.7857 417.528 24.7068H416.655C416.539 24.2342 416.167 23.8938 415.582 23.8898C414.685 23.8938 414.164 24.6708 414.164 25.9803H414.228C414.545 25.4877 415.089 25.1994 415.718 25.1954C416.751 25.1994 417.584 25.9924 417.584 27.1017C417.584 28.2271 416.755 29.0881 415.51 29.0801ZM414.268 27.1257C414.272 27.7705 414.789 28.3392 415.502 28.3432C416.203 28.3392 416.727 27.7945 416.727 27.1177C416.727 26.4529 416.223 25.9123 415.526 25.9163C414.817 25.9123 414.276 26.4809 414.268 27.1257ZM419.851 25.9563C419.058 25.9643 418.626 25.3756 418.634 24.5146C418.626 23.6655 419.078 23.0768 419.851 23.0808C420.648 23.0768 421.064 23.6655 421.069 24.5146C421.064 25.3796 420.632 25.9643 419.851 25.9563ZM419.29 29L423.271 23.201H424L420.019 29H419.29ZM419.29 24.5146C419.294 25.0472 419.479 25.3916 419.851 25.3956C420.227 25.3916 420.404 25.0472 420.404 24.5146C420.404 23.9939 420.239 23.6375 419.851 23.6415C419.479 23.6495 419.294 23.9979 419.29 24.5146ZM422.294 27.6784C422.29 26.8214 422.739 26.2326 423.511 26.2367C424.304 26.2326 424.725 26.8214 424.729 27.6784C424.725 28.5354 424.292 29.1201 423.511 29.1201C422.723 29.1201 422.29 28.5314 422.294 27.6784ZM422.951 27.6784C422.955 28.203 423.139 28.5515 423.511 28.5515C423.888 28.5515 424.064 28.203 424.064 27.6784C424.064 27.1498 423.9 26.7973 423.511 26.7973C423.143 26.8053 422.955 27.1538 422.951 27.6784Z" fill="white"/>
<path d="M321.396 22.5121V26.7573H320.635V25.8842H318.825V25.2595H320.635V24.3864H318.901C318.436 25.5398 317.359 26.3528 315.805 26.7973L315.501 26.2046C317.199 25.72 318.192 24.8069 318.328 23.6495H315.869V23.0248H319.153C319.153 23.2891 319.125 23.5454 319.077 23.7857H320.635V22.5121H321.396ZM316.614 28.2391C316.614 27.37 317.559 26.8414 319.033 26.8374C320.487 26.8414 321.44 27.37 321.444 28.2391C321.44 29.1121 320.487 29.6488 319.033 29.6488C317.559 29.6488 316.614 29.1121 316.614 28.2391ZM317.367 28.2391C317.367 28.7437 318.008 29.036 319.033 29.04C320.038 29.036 320.679 28.7437 320.683 28.2391C320.679 27.7265 320.038 27.4341 319.033 27.4381C318.008 27.4341 317.367 27.7265 317.367 28.2391ZM328.316 25.8121V26.4209H326.146V28.175H329.069V28.7998H322.501V28.175H325.393V26.4209H323.318V23.0568H328.252V23.6735H324.079V25.8121H328.316ZM331.832 23.1209C332.898 23.1289 334.015 23.7697 334.019 25.8922C334.019 27.9267 333.142 29.0801 331.752 29.0801C330.683 29.0801 329.938 28.4193 329.798 27.4782H330.671C330.791 27.9667 331.168 28.3072 331.752 28.3112C332.645 28.3072 333.17 27.5302 333.178 26.2046H333.106C332.794 26.6932 332.249 26.9896 331.624 26.9896C330.583 26.9896 329.75 26.1926 329.75 25.0833C329.75 23.9779 330.571 23.1129 331.832 23.1209ZM330.607 25.0672C330.611 25.7401 331.112 26.2727 331.816 26.2687C332.517 26.2727 333.058 25.7 333.058 25.0592C333.058 24.4305 332.541 23.8578 331.832 23.8578C331.132 23.8578 330.603 24.4024 330.607 25.0672ZM337.151 23.201V29H336.262V24.082H336.23L334.844 24.9871V24.1461L336.286 23.201H337.151ZM338.865 29.0561C338.553 29.0521 338.292 28.7998 338.296 28.4874C338.292 28.175 338.553 27.9187 338.865 27.9187C339.173 27.9187 339.43 28.175 339.434 28.4874C339.43 28.7998 339.173 29.0521 338.865 29.0561ZM340.331 27.8706V27.1578L342.894 23.201H343.983V27.1257H344.776V27.8706H343.983V29H343.15V27.8706H340.331ZM341.26 27.1257H343.15V24.2502H343.086L341.26 27.0777V27.1257ZM346.995 25.9563C346.202 25.9643 345.769 25.3756 345.777 24.5146C345.769 23.6655 346.222 23.0768 346.995 23.0808C347.792 23.0768 348.208 23.6655 348.212 24.5146C348.208 25.3796 347.776 25.9643 346.995 25.9563ZM346.434 29L350.415 23.201H351.144L347.163 29H346.434ZM346.434 24.5146C346.438 25.0472 346.622 25.3916 346.995 25.3956C347.371 25.3916 347.547 25.0472 347.547 24.5146C347.547 23.9939 347.383 23.6375 346.995 23.6415C346.622 23.6495 346.438 23.9979 346.434 24.5146ZM349.438 27.6784C349.434 26.8214 349.882 26.2326 350.655 26.2367C351.448 26.2326 351.869 26.8214 351.873 27.6784C351.869 28.5354 351.436 29.1201 350.655 29.1201C349.866 29.1201 349.434 28.5314 349.438 27.6784ZM350.095 27.6784C350.099 28.203 350.283 28.5515 350.655 28.5515C351.032 28.5515 351.208 28.203 351.208 27.6784C351.208 27.1498 351.044 26.7973 350.655 26.7973C350.287 26.8053 350.099 27.1538 350.095 27.6784Z" fill="#113287"/>
<path d="M541.607 28.2539V28.8786H535.039V28.2539H537.938V26.692H538.691V28.2539H541.607ZM535.359 26.3475C536.833 26.1313 537.894 25.2983 537.93 24.2891H535.631V23.6723H537.938V22.7111H538.691V23.6723H540.998V24.2891H538.699C538.735 25.2983 539.796 26.1313 541.27 26.3475L540.982 26.9403C539.78 26.752 538.779 26.1833 538.311 25.3463C537.846 26.1833 536.849 26.752 535.647 26.9403L535.359 26.3475ZM547.934 23.2718V23.9767C547.93 24.8617 547.93 25.855 547.662 27.3247L546.893 27.2446C547.169 25.855 547.169 24.8377 547.173 23.9767V23.8886H542.816V23.2718H547.934ZM542.127 28.7905V28.1577H544.618V25.6267H545.371V28.1577H548.671V28.7905H542.127ZM555.031 25.891V26.4997H552.86V28.2539H555.784V28.8786H549.216V28.2539H552.107V26.4997H550.033V23.1357H554.967V23.7524H550.794V25.891H555.031ZM560.758 23.2798V29.0789H559.869V24.1609H559.837L558.451 25.066V24.225L559.893 23.2798H560.758ZM562.472 29.1349C562.159 29.1309 561.899 28.8786 561.903 28.5662C561.899 28.2539 562.159 27.9975 562.472 27.9975C562.78 27.9975 563.036 28.2539 563.04 28.5662C563.036 28.8786 562.78 29.1309 562.472 29.1349ZM564.066 29.0789V28.4381L566.076 26.4116C566.713 25.7508 567.029 25.3824 567.029 24.8738C567.029 24.3011 566.565 23.9366 565.956 23.9366C565.311 23.9366 564.903 24.3451 564.899 24.9619H564.066C564.058 23.9006 564.867 23.1997 565.972 23.1997C567.089 23.1997 567.862 23.9086 567.87 24.8497C567.862 25.4985 567.558 26.0151 566.469 27.0844L565.291 28.2779V28.3259H567.966V29.0789H564.066ZM570.273 26.0352C569.48 26.0432 569.048 25.4545 569.056 24.5934C569.048 23.7444 569.5 23.1557 570.273 23.1597C571.07 23.1557 571.487 23.7444 571.491 24.5934C571.487 25.4585 571.054 26.0432 570.273 26.0352ZM569.713 29.0789L573.693 23.2798H574.422L570.441 29.0789H569.713ZM569.713 24.5934C569.717 25.1261 569.901 25.4705 570.273 25.4745C570.65 25.4705 570.826 25.1261 570.826 24.5934C570.826 24.0728 570.662 23.7164 570.273 23.7204C569.901 23.7284 569.717 24.0768 569.713 24.5934ZM572.716 27.7573C572.712 26.9002 573.161 26.3115 573.934 26.3155C574.727 26.3115 575.147 26.9002 575.151 27.7573C575.147 28.6143 574.715 29.199 573.934 29.199C573.145 29.199 572.712 28.6103 572.716 27.7573ZM573.373 27.7573C573.377 28.2819 573.561 28.6303 573.934 28.6303C574.31 28.6303 574.486 28.2819 574.486 27.7573C574.486 27.2286 574.322 26.8762 573.934 26.8762C573.565 26.8842 573.377 27.2326 573.373 27.7573Z" fill="white"/>
<path d="M-338 -1754H2975V-1756H-338V-1754ZM2976 -1753V217H2978V-1753H2976ZM2975 218H-338V220H2975V218ZM-339 217V-1753H-341V217H-339ZM-338 218C-338.552 218 -339 217.552 -339 217H-341C-341 218.657 -339.657 220 -338 220V218ZM2976 217C2976 217.552 2975.55 218 2975 218V220C2976.66 220 2978 218.657 2978 217H2976ZM2975 -1754C2975.55 -1754 2976 -1753.55 2976 -1753H2978C2978 -1754.66 2976.66 -1756 2975 -1756V-1754ZM-338 -1756C-339.657 -1756 -341 -1754.66 -341 -1753H-339C-339 -1753.55 -338.552 -1754 -338 -1754V-1756Z" fill="black" fill-opacity="0.1"/>
</svg>
