<svg width="593" height="74" viewBox="0 0 593 74" fill="none" xmlns="http://www.w3.org/2000/svg">
<rect width="593" height="74" fill="#727272"/>
<path d="M-340 -586C-340 -587.105 -339.105 -588 -338 -588H2975C2976.1 -588 2977 -587.105 2977 -586V1384C2977 1385.1 2976.1 1386 2975 1386H-338C-339.105 1386 -340 1385.1 -340 1384V-586Z" fill="white"/>
<path d="M149.275 73L149.275 125.492" stroke="#979797" stroke-width="0.820194"/>
<path d="M223.093 73L223.093 125.492" stroke="#979797" stroke-width="0.820194"/>
<path d="M75.4578 73L75.4578 125.492" stroke="#979797" stroke-width="0.820194"/>
<path d="M296.5 73L296.5 125.492" stroke="#113287" stroke-width="1.64039"/>
<path d="M370.728 73L370.728 125.492" stroke="#979797" stroke-width="0.820194"/>
<path d="M444.545 73L444.545 125.492" stroke="#979797" stroke-width="0.820194"/>
<path d="M518.362 73L518.362 125.492" stroke="#979797" stroke-width="0.820194"/>
<path fill-rule="evenodd" clip-rule="evenodd" d="M111.957 40.0133V12.5232H112.777V40.0133H111.957Z" fill="#979797"/>
<path d="M6.18832 15.9041H29.8162V35.5887H6.18832L0 25.7464L6.18832 15.9041Z" fill="#001A5B"/>
<path d="M292.134 62.8017C293.255 62.8088 294.002 62.0339 294.002 61.021C294.002 60.0227 293.252 59.309 292.322 59.3054C291.756 59.309 291.266 59.5685 290.981 60.0119H290.924C290.924 58.8333 291.392 58.134 292.199 58.1304C292.726 58.134 293.061 58.4404 293.165 58.8657H293.951C293.829 58.0367 293.162 57.4384 292.199 57.4384C290.948 57.4384 290.162 58.4764 290.159 60.293C290.159 62.2213 291.169 62.7944 292.134 62.8017ZM291.017 61.0427C291.024 60.4624 291.511 59.9506 292.149 59.9542C292.776 59.9506 293.23 60.4371 293.23 61.0355C293.23 61.6446 292.758 62.1348 292.127 62.1384C291.485 62.1348 291.02 61.623 291.017 61.0427Z" fill="#001A5B"/>
<path d="M296.662 62.8016C297.869 62.8016 298.575 61.8284 298.579 60.12C298.575 58.4223 297.858 57.4384 296.662 57.4384C295.461 57.4384 294.744 58.4223 294.744 60.12C294.744 61.8284 295.454 62.8016 296.662 62.8016ZM295.537 60.12C295.537 58.8224 295.959 58.1124 296.662 58.1088C297.36 58.1124 297.786 58.8224 297.786 60.12C297.786 61.4211 297.364 62.1168 296.662 62.1168C295.955 62.1168 295.533 61.4211 295.537 60.12Z" fill="#001A5B"/>
<path d="M301.167 62.7296C302.756 62.7296 303.672 61.742 303.676 60.1128C303.672 58.4873 302.756 57.5105 301.217 57.5105H299.473V62.7296H301.167ZM300.265 62.0376V58.2025H301.167C302.306 58.2025 302.89 58.8837 302.89 60.1128C302.89 61.3455 302.306 62.0339 301.123 62.0376H300.265Z" fill="#001A5B"/>
<path d="M275.659 66.5807H275.153V69.9511H273.973V70.3163H275.153V70.9059H275.659V66.5807ZM270.93 69.2206L271 69.6307C271.478 69.6307 272.025 69.6307 272.602 69.6084V70.7072H273.108V69.5827C273.631 69.5507 274.166 69.4994 274.672 69.4193L274.64 69.0541C273.419 69.2046 271.99 69.2142 270.93 69.2206ZM271.391 67.8045C271.388 68.4132 271.958 68.7914 272.801 68.7914C273.637 68.7914 274.207 68.4132 274.21 67.8045C274.207 67.2054 273.637 66.8113 272.801 66.8113C271.958 66.8113 271.388 67.2054 271.391 67.8045ZM271.75 72.149H275.8V71.7261H272.256V70.483H271.75V72.149ZM271.872 67.8045C271.866 67.4393 272.244 67.1894 272.801 67.1958C273.343 67.1894 273.727 67.4393 273.73 67.8045C273.727 68.1762 273.343 68.4164 272.801 68.4196C272.244 68.4164 271.866 68.1762 271.872 67.8045Z" fill="#001A5B"/>
<path d="M280.304 68.1057V67.0676H279.805V68.1057C279.798 69.1854 279.096 70.2748 278.247 70.6624L278.568 71.0853C279.234 70.7489 279.795 70.028 280.057 69.1694C280.33 69.98 280.891 70.656 281.541 70.97L281.849 70.5727C281.009 70.1914 280.301 69.147 280.304 68.1057ZM282.47 72.2836H282.977V66.5742H282.47V72.2836Z" fill="#001A5B"/>
<path d="M314.862 67.7405H310.991V68.1506H314.361V68.1826C314.365 68.6664 314.365 69.2271 314.211 70.0153H310.331V70.4382H315.547V70.0153H314.711C314.862 69.2399 314.862 68.6632 314.862 68.1826V67.7405ZM311.023 72.9628H315.035V72.5399H311.523V71.0789H311.023V72.9628Z" fill="#001A5B"/>
<path d="M319.674 68.9259V67.8878H319.174V68.9259C319.168 70.0056 318.466 71.095 317.617 71.4826L317.937 71.9055C318.603 71.5691 319.164 70.8482 319.427 69.9896C319.699 70.8002 320.26 71.4762 320.911 71.7902L321.218 71.3929C320.378 71.0116 319.67 69.9672 319.674 68.9259ZM321.84 73.1038H322.346V67.3944H321.84V73.1038Z" fill="#001A5B"/>
<path d="M70.563 63.6218C71.6516 63.6218 72.4229 62.883 72.4229 61.8557C72.4229 60.8501 71.6984 60.122 70.7144 60.1185C70.3179 60.122 69.9503 60.2626 69.734 60.4716H69.6836L69.8566 59.0083H72.1561V58.3307H69.2006L68.8617 61.2358H69.6115C69.7881 60.915 70.1089 60.7745 70.527 60.7745C71.183 60.7816 71.6516 61.2429 71.6516 61.8774C71.6516 62.4973 71.1974 62.955 70.563 62.9586C70.0368 62.955 69.6115 62.6306 69.5682 62.1873H68.7969C68.833 63.0199 69.5754 63.6218 70.563 63.6218Z" fill="#001A5B"/>
<path d="M73.1511 62.5334H75.6886V63.5497H76.4383V62.5334H77.1519V61.8629H76.4383V58.3307H75.4579L73.1511 61.8918V62.5334ZM73.9873 61.8629V61.8197L75.6309 59.275H75.6886V61.8629H73.9873Z" fill="#001A5B"/>
<path d="M79.7182 63.5497C81.3077 63.5497 82.2236 62.5621 82.2269 60.933C82.2236 59.3075 81.3077 58.3307 79.7687 58.3307H78.0242V63.5497H79.7182ZM78.8171 62.8577V59.0227H79.7182C80.8572 59.0227 81.4411 59.7039 81.4411 60.933C81.4411 62.1657 80.8572 62.8541 79.675 62.8577H78.8171Z" fill="#001A5B"/>
<path d="M144.424 63.6218C145.512 63.6218 146.284 62.883 146.284 61.8557C146.284 60.8501 145.559 60.122 144.576 60.1185C144.179 60.122 143.811 60.2626 143.595 60.4716H143.545L143.718 59.0083H146.017V58.3307H143.062L142.723 61.2358H143.472C143.649 60.915 143.969 60.7745 144.388 60.7745C145.044 60.7816 145.512 61.2429 145.512 61.8774C145.512 62.4973 145.058 62.955 144.424 62.9586C143.897 62.955 143.472 62.6306 143.429 62.1873H142.658C142.694 63.0199 143.436 63.6218 144.424 63.6218Z" fill="#001A5B"/>
<path d="M149.016 63.6218C150.137 63.629 150.883 62.8541 150.883 61.8412C150.883 60.8429 150.133 60.1292 149.203 60.1256C148.637 60.1292 148.148 60.3887 147.862 60.8321H147.805C147.805 59.6535 148.273 58.9542 149.081 58.9505C149.607 58.9542 149.942 59.2606 150.046 59.6858H150.832C150.71 58.8569 150.043 58.2585 149.081 58.2585C147.83 58.2585 147.044 59.2966 147.04 61.1131C147.04 63.0415 148.05 63.6146 149.016 63.6218ZM147.898 61.8629C147.906 61.2826 148.392 60.7708 149.03 60.7744C149.658 60.7708 150.112 61.2573 150.112 61.8557C150.112 62.4648 149.639 62.955 149.009 62.9586C148.367 62.955 147.902 62.4432 147.898 61.8629Z" fill="#001A5B"/>
<path d="M153.493 63.5497C155.082 63.5497 155.997 62.5621 156.001 60.933C155.997 59.3075 155.082 58.3307 153.543 58.3307H151.798V63.5497H153.493ZM152.591 62.8577V59.0227H153.493C154.631 59.0227 155.215 59.7039 155.215 60.933C155.215 62.1657 154.631 62.8541 153.449 62.8577H152.591Z" fill="#001A5B"/>
<path d="M218.259 63.6218C219.348 63.6218 220.119 62.883 220.119 61.8557C220.119 60.8501 219.394 60.122 218.411 60.1185C218.014 60.122 217.647 60.2626 217.43 60.4716H217.38L217.553 59.0083H219.852V58.3307H216.897L216.558 61.2358H217.308C217.484 60.915 217.805 60.7745 218.223 60.7745C218.879 60.7816 219.348 61.2429 219.348 61.8774C219.348 62.4973 218.893 62.955 218.259 62.9586C217.733 62.955 217.308 62.6306 217.264 62.1873H216.493C216.529 63.0199 217.272 63.6218 218.259 63.6218Z" fill="#001A5B"/>
<path d="M222.786 63.6218C223.904 63.6218 224.7 63.0091 224.704 62.1585C224.7 61.4881 224.217 60.9402 223.608 60.8464V60.8176C224.134 60.6951 224.499 60.2193 224.502 59.6498C224.499 58.8461 223.77 58.2585 222.786 58.2585C221.788 58.2585 221.064 58.8461 221.064 59.6498C221.064 60.2193 221.42 60.6951 221.958 60.8176V60.8464C221.341 60.9402 220.862 61.4881 220.869 62.1585C220.862 63.0091 221.651 63.6218 222.786 63.6218ZM221.676 62.1007C221.666 61.5638 222.137 61.1709 222.786 61.1709C223.428 61.1709 223.897 61.5638 223.897 62.1007C223.897 62.6126 223.464 62.9658 222.786 62.9658C222.098 62.9658 221.666 62.6126 221.676 62.1007ZM221.835 59.7219C221.839 59.2353 222.214 58.9037 222.786 58.9073C223.345 58.9037 223.727 59.2353 223.724 59.7219C223.727 60.2121 223.331 60.5473 222.786 60.5437C222.227 60.5473 221.839 60.2085 221.835 59.7219Z" fill="#001A5B"/>
<path d="M227.292 63.5497C228.882 63.5497 229.797 62.5621 229.8 60.933C229.797 59.3075 228.882 58.3307 227.342 58.3307H225.598V63.5497H227.292ZM226.391 62.8577V59.0227H227.292C228.431 59.0227 229.015 59.7039 229.015 60.933C229.015 62.1657 228.431 62.8541 227.249 62.8577H226.391Z" fill="#001A5B"/>
<path d="M365.926 62.8017C367.047 62.8088 367.794 62.0339 367.794 61.021C367.794 60.0227 367.044 59.309 366.114 59.3054C365.548 59.309 365.058 59.5685 364.773 60.0119H364.716C364.716 58.8333 365.184 58.134 365.992 58.1304C366.518 58.134 366.853 58.4404 366.957 58.8657H367.743C367.621 58.0367 366.954 57.4384 365.992 57.4384C364.741 57.4384 363.955 58.4764 363.951 60.293C363.951 62.2213 364.961 62.7944 365.926 62.8017ZM364.809 61.0427C364.816 60.4624 365.303 59.9506 365.941 59.9542C366.568 59.9506 367.022 60.4371 367.022 61.0355C367.022 61.6446 366.55 62.1348 365.92 62.1384C365.277 62.1348 364.813 61.623 364.809 61.0427Z" fill="#001A5B"/>
<path d="M370.49 62.8016C371.571 62.8016 372.374 62.1637 372.371 61.295C372.374 60.6354 371.96 60.1561 371.247 60.0551V60.0191C371.809 59.8785 372.177 59.4532 372.169 58.8584C372.177 58.0871 371.531 57.4384 370.504 57.4384C369.531 57.4384 368.745 58.015 368.724 58.8657H369.487C369.505 58.3935 369.975 58.1016 370.497 58.1016C371.048 58.1016 371.405 58.4259 371.405 58.9017C371.405 59.4027 370.991 59.7343 370.396 59.7307H369.949V60.3795H370.396C371.142 60.3831 371.571 60.7507 371.571 61.2662C371.571 61.7744 371.113 62.1168 370.482 62.1168C369.898 62.1168 369.445 61.8248 369.415 61.3671H368.608C368.641 62.2213 369.409 62.8016 370.49 62.8016Z" fill="#001A5B"/>
<path d="M375.01 62.7296C376.599 62.7296 377.515 61.742 377.518 60.1128C377.515 58.4873 376.599 57.5105 375.06 57.5105H373.315V62.7296H375.01ZM374.108 62.0376V58.2025H375.01C376.148 58.2025 376.732 58.8837 376.732 60.1128C376.732 61.3455 376.148 62.0339 374.966 62.0376H374.108Z" fill="#001A5B"/>
<path d="M439.748 62.8017C440.869 62.8088 441.615 62.0339 441.615 61.021C441.615 60.0227 440.865 59.309 439.935 59.3054C439.369 59.309 438.879 59.5685 438.595 60.0119H438.536C438.536 58.8333 439.005 58.134 439.813 58.1304C440.339 58.134 440.674 58.4404 440.779 58.8657H441.564C441.441 58.0367 440.775 57.4384 439.813 57.4384C438.562 57.4384 437.776 58.4764 437.773 60.293C437.773 62.2213 438.782 62.7944 439.748 62.8017ZM438.631 61.0427C438.637 60.4624 439.124 59.9506 439.762 59.9542C440.389 59.9506 440.844 60.4371 440.844 61.0355C440.844 61.6446 440.371 62.1348 439.74 62.1384C439.099 62.1348 438.634 61.623 438.631 61.0427Z" fill="#001A5B"/>
<path d="M444.346 62.8017C445.468 62.8088 446.214 62.0339 446.214 61.021C446.214 60.0227 445.464 59.309 444.534 59.3054C443.968 59.309 443.478 59.5685 443.193 60.0119H443.136C443.136 58.8333 443.604 58.134 444.411 58.1304C444.938 58.134 445.273 58.4404 445.377 58.8657H446.163C446.041 58.0367 445.374 57.4384 444.411 57.4384C443.16 57.4384 442.375 58.4764 442.371 60.293C442.371 62.2213 443.381 62.7944 444.346 62.8017ZM443.229 61.0427C443.237 60.4624 443.723 59.9506 444.361 59.9542C444.989 59.9506 445.442 60.4371 445.442 61.0355C445.442 61.6446 444.971 62.1348 444.34 62.1384C443.698 62.1348 443.233 61.623 443.229 61.0427Z" fill="#001A5B"/>
<path d="M448.823 62.7296C450.413 62.7296 451.329 61.742 451.332 60.1128C451.329 58.4873 450.413 57.5105 448.874 57.5105H447.129V62.7296H448.823ZM447.923 62.0376V58.2025H448.823C449.962 58.2025 450.546 58.8837 450.546 60.1128C450.546 61.3455 449.962 62.0339 448.78 62.0376H447.923Z" fill="#001A5B"/>
<path d="M513.565 62.8017C514.686 62.8089 515.432 62.034 515.432 61.0211C515.432 60.0227 514.682 59.3091 513.752 59.3054C513.186 59.3091 512.697 59.5686 512.412 60.0119H512.354C512.354 58.8333 512.823 58.134 513.63 58.1304C514.157 58.134 514.491 58.4404 514.596 58.8657H515.382C515.259 58.0367 514.592 57.4384 513.63 57.4384C512.379 57.4384 511.593 58.4765 511.59 60.293C511.59 62.2214 512.599 62.7945 513.565 62.8017ZM512.448 61.0428C512.455 60.4624 512.942 59.9506 513.579 59.9542C514.206 59.9506 514.661 60.4372 514.661 61.0356C514.661 61.6447 514.188 62.1349 513.558 62.1385C512.916 62.1349 512.451 61.6231 512.448 61.0428Z" fill="#001A5B"/>
<path d="M518.07 57.4384C516.935 57.4312 516.196 58.2098 516.196 59.2047C516.196 60.203 516.946 60.9203 517.883 60.9203C518.445 60.9203 518.936 60.6536 519.217 60.2138H519.282C519.274 61.4069 518.802 62.1062 517.998 62.1097C517.473 62.1062 517.133 61.7997 517.026 61.36H516.24C516.365 62.2071 517.036 62.8018 517.998 62.8018C519.249 62.8018 520.038 61.7637 520.038 59.9327C520.035 58.0223 519.029 57.4457 518.07 57.4384ZM516.967 59.1902C516.964 58.5919 517.44 58.1017 518.07 58.1017C518.709 58.1017 519.174 58.6171 519.174 59.183C519.174 59.7597 518.687 60.2751 518.056 60.2715C517.422 60.2751 516.971 59.7958 516.967 59.1902Z" fill="#001A5B"/>
<path d="M522.64 62.7296C524.23 62.7296 525.146 61.742 525.149 60.1129C525.146 58.4873 524.23 57.5105 522.691 57.5105H520.947V62.7296H522.64ZM521.74 62.0376V58.2026H522.64C523.78 58.2026 524.364 58.8837 524.364 60.1129C524.364 61.3456 523.78 62.034 522.598 62.0376H521.74Z" fill="#001A5B"/>
<path fill-rule="evenodd" clip-rule="evenodd" d="M38.1389 40.0133V12.5232H38.9591V40.0133H38.1389Z" fill="#979797"/>
<path fill-rule="evenodd" clip-rule="evenodd" d="M185.774 40.0133V12.5232H186.594V40.0133H185.774Z" fill="#979797"/>
<path fill-rule="evenodd" clip-rule="evenodd" d="M259.591 40.0133V12.5232H260.411V40.0133H259.591Z" fill="#979797"/>
<path fill-rule="evenodd" clip-rule="evenodd" d="M321.106 40.0133V12.5232H321.926V40.0133H321.106Z" fill="#979797"/>
<path fill-rule="evenodd" clip-rule="evenodd" d="M345.712 40.0133V12.5232H346.532V40.0133H345.712Z" fill="#979797"/>
<path fill-rule="evenodd" clip-rule="evenodd" d="M394.923 40.0133V12.5232H395.744V40.0133H394.923Z" fill="#979797"/>
<path fill-rule="evenodd" clip-rule="evenodd" d="M419.529 40.0133V12.5232H420.349V40.0133H419.529Z" fill="#979797"/>
<path fill-rule="evenodd" clip-rule="evenodd" d="M468.741 40.0133V12.5232H469.561V40.0133H468.741Z" fill="#979797"/>
<path fill-rule="evenodd" clip-rule="evenodd" d="M493.346 40.0133V12.5232H494.167V40.0133H493.346Z" fill="#979797"/>
<path fill-rule="evenodd" clip-rule="evenodd" d="M542.558 40.0133V12.5232H543.378V40.0133H542.558Z" fill="#979797"/>
<path fill-rule="evenodd" clip-rule="evenodd" d="M567.164 40.0133V12.5232H567.984V40.0133H567.164Z" fill="#979797"/>
<path d="M296.91 15.9041H223.093V35.5887H296.91V15.9041Z" fill="#E2E6F6"/>
<path d="M223.093 15.9041H149.275V35.5887H223.093V15.9041Z" fill="#5B6EB4"/>
<path d="M149.275 15.9041H75.4578V35.5887H149.275V15.9041Z" fill="#113287"/>
<path d="M75.4579 15.9041H9.02222V35.5887H75.4579V15.9041Z" fill="#001A5B"/>
<path fill-rule="evenodd" clip-rule="evenodd" d="M148.865 52.4924V3.58518e-08L149.685 0V52.4924H148.865Z" fill="#979797"/>
<path fill-rule="evenodd" clip-rule="evenodd" d="M222.683 52.4924V3.58518e-08L223.503 0V52.4924H222.683Z" fill="#979797"/>
<path fill-rule="evenodd" clip-rule="evenodd" d="M75.0476 52.4924V3.58518e-08L75.8678 0V52.4924H75.0476Z" fill="#979797"/>
<path d="M518.362 15.9041H444.545V35.5887H518.362V15.9041Z" fill="#113287"/>
<path d="M444.545 15.9041H370.728V35.5887H444.545V15.9041Z" fill="#5B6EB4"/>
<path d="M370.728 15.9041H296.91V35.5887H370.728V15.9041Z" fill="#E2E6F6"/>
<path fill-rule="evenodd" clip-rule="evenodd" d="M295.68 52.4924V7.17035e-08L297.32 0V52.4924H295.68Z" fill="#113287"/>
<path fill-rule="evenodd" clip-rule="evenodd" d="M271.343 63.1689L268.733 60.559C268.573 60.3989 268.573 60.1393 268.733 59.9791L271.343 57.3692C271.504 57.2091 271.763 57.2091 271.924 57.3692C272.084 57.5294 272.084 57.7891 271.924 57.9492L270.014 59.859H284.607V60.6792H270.014L271.924 62.5889C272.084 62.7491 272.084 63.0087 271.924 63.1689C271.763 63.3291 271.504 63.3291 271.343 63.1689Z" fill="#113287"/>
<path fill-rule="evenodd" clip-rule="evenodd" d="M322.477 57.3692L325.087 59.979C325.247 60.1391 325.247 60.3988 325.087 60.559L322.477 63.1688C322.316 63.3289 322.057 63.3289 321.896 63.1688C321.736 63.0086 321.736 62.749 321.896 62.5888L323.807 60.6791H309.213V59.8589H323.807L321.896 57.9491C321.736 57.7889 321.736 57.5293 321.896 57.3692C322.057 57.209 322.316 57.209 322.477 57.3692Z" fill="#113287"/>
<path d="M586.812 15.9041H563.184V35.5887H586.812L593 25.7464L586.812 15.9041Z" fill="#001A5B"/>
<path d="M518.363 15.9041H583.978V35.5887H518.363V15.9041Z" fill="#001A5B"/>
<path fill-rule="evenodd" clip-rule="evenodd" d="M370.317 52.4924V3.58518e-08L371.138 0V52.4924H370.317Z" fill="#979797"/>
<path fill-rule="evenodd" clip-rule="evenodd" d="M444.135 52.4924V3.58518e-08L444.955 0V52.4924H444.135Z" fill="#979797"/>
<path fill-rule="evenodd" clip-rule="evenodd" d="M517.952 52.4924V3.58518e-08L518.772 0V52.4924H517.952Z" fill="#979797"/>
<path d="M245.828 22.5121V26.7573H245.067V25.8842H243.257V25.2595H245.067V24.3864H243.333C242.869 25.5398 241.791 26.3528 240.238 26.7973L239.933 26.2046C241.631 25.72 242.624 24.8069 242.761 23.6495H240.302V23.0248H243.586C243.586 23.2891 243.558 23.5454 243.509 23.7857H245.067V22.5121H245.828ZM241.047 28.2391C241.047 27.37 241.992 26.8414 243.465 26.8374C244.919 26.8414 245.872 27.37 245.876 28.2391C245.872 29.1121 244.919 29.6488 243.465 29.6488C241.992 29.6488 241.047 29.1121 241.047 28.2391ZM241.799 28.2391C241.799 28.7437 242.44 29.036 243.465 29.04C244.471 29.036 245.111 28.7437 245.115 28.2391C245.111 27.7265 244.471 27.4341 243.465 27.4381C242.44 27.4341 241.799 27.7265 241.799 28.2391ZM252.749 25.8121V26.4209H250.578V28.175H253.502V28.7998H246.934V28.175H249.825V26.4209H247.751V23.0568H252.685V23.6735H248.512V25.8121H252.749ZM258.267 23.1209C259.333 23.1289 260.45 23.7697 260.454 25.8922C260.454 27.9267 259.577 29.0801 258.187 29.0801C257.118 29.0801 256.373 28.4193 256.233 27.4782H257.106C257.226 27.9667 257.603 28.3072 258.187 28.3112C259.08 28.3072 259.605 27.5302 259.613 26.2046H259.541C259.229 26.6932 258.684 26.9896 258.059 26.9896C257.018 26.9896 256.185 26.1926 256.185 25.0833C256.185 23.9779 257.006 23.1129 258.267 23.1209ZM257.042 25.0672C257.046 25.7401 257.546 26.2727 258.251 26.2687C258.952 26.2727 259.493 25.7 259.493 25.0592C259.493 24.4305 258.976 23.8578 258.267 23.8578C257.567 23.8578 257.038 24.4024 257.042 25.0672ZM263.402 29.0801C262.06 29.0801 261.271 27.9988 261.271 26.1005C261.271 24.2142 262.068 23.1209 263.402 23.1209C264.731 23.1209 265.528 24.2142 265.532 26.1005C265.528 27.9988 264.743 29.0801 263.402 29.0801ZM262.152 26.1005C262.148 27.5462 262.617 28.3192 263.402 28.3192C264.183 28.3192 264.651 27.5462 264.651 26.1005C264.651 24.6587 264.179 23.8698 263.402 23.8658C262.621 23.8698 262.152 24.6587 262.152 26.1005ZM266.798 29.0561C266.485 29.0521 266.225 28.7998 266.229 28.4874C266.225 28.175 266.485 27.9187 266.798 27.9187C267.106 27.9187 267.362 28.175 267.366 28.4874C267.362 28.7998 267.106 29.0521 266.798 29.0561ZM268.263 27.8706V27.1578L270.827 23.201H271.916V27.1257H272.709V27.8706H271.916V29H271.083V27.8706H268.263ZM269.193 27.1257H271.083V24.2502H271.019L269.193 27.0777V27.1257ZM274.928 25.9563C274.135 25.9643 273.702 25.3756 273.71 24.5146C273.702 23.6655 274.155 23.0768 274.928 23.0808C275.725 23.0768 276.141 23.6655 276.145 24.5146C276.141 25.3796 275.708 25.9643 274.928 25.9563ZM274.367 29L278.348 23.201H279.077L275.096 29H274.367ZM274.367 24.5146C274.371 25.0472 274.555 25.3916 274.928 25.3956C275.304 25.3916 275.48 25.0472 275.48 24.5146C275.48 23.9939 275.316 23.6375 274.928 23.6415C274.555 23.6495 274.371 23.9979 274.367 24.5146ZM277.371 27.6784C277.366 26.8214 277.815 26.2326 278.588 26.2367C279.381 26.2326 279.801 26.8214 279.805 27.6784C279.801 28.5354 279.369 29.1201 278.588 29.1201C277.799 29.1201 277.366 28.5314 277.371 27.6784ZM278.027 27.6784C278.031 28.203 278.216 28.5515 278.588 28.5515C278.964 28.5515 279.141 28.203 279.141 27.6784C279.141 27.1498 278.976 26.7973 278.588 26.7973C278.22 26.8053 278.031 27.1538 278.027 27.6784Z" fill="#113287"/>
<path d="M175.283 25.8282V26.4449H172.383V27.1337C173.697 27.2058 174.478 27.6464 174.482 28.3993C174.478 29.2123 173.549 29.6688 172.007 29.6648C170.445 29.6688 169.516 29.2123 169.516 28.3993C169.516 27.6464 170.297 27.2018 171.63 27.1337V26.4449H168.739V25.8282H175.283ZM169.083 24.851C170.373 24.7188 171.39 24.1341 171.494 23.4413H169.339V22.8325H174.698V23.4413H172.519C172.623 24.1381 173.633 24.7188 174.946 24.851L174.674 25.4517C173.428 25.3075 172.399 24.7829 172.011 24.022C171.614 24.7829 170.593 25.3075 169.347 25.4517L169.083 24.851ZM170.285 28.3993C170.281 28.8358 170.909 29.0881 172.007 29.0801C173.088 29.0881 173.721 28.8358 173.721 28.3993C173.721 27.9547 173.088 27.7144 172.007 27.7104C170.909 27.7144 170.281 27.9547 170.285 28.3993ZM181.642 25.8121V26.4209H179.472V28.175H182.395V28.7998H175.827V28.175H178.719V26.4209H176.644V23.0568H181.578V23.6735H177.405V25.8121H181.642ZM187.193 29.0801C185.932 29.0801 185.054 28.3993 185.062 27.4541C185.054 26.7092 185.587 26.1005 186.272 25.9964V25.9643C185.675 25.8282 185.279 25.2995 185.279 24.6668C185.279 23.7737 186.084 23.1209 187.193 23.1209C188.286 23.1209 189.095 23.7737 189.099 24.6668C189.095 25.2995 188.691 25.8282 188.106 25.9643V25.9964C188.783 26.1005 189.32 26.7092 189.324 27.4541C189.32 28.3993 188.435 29.0801 187.193 29.0801ZM185.96 27.39C185.948 27.9587 186.428 28.3512 187.193 28.3512C187.946 28.3512 188.427 27.9587 188.427 27.39C188.427 26.7933 187.906 26.3568 187.193 26.3568C186.472 26.3568 185.948 26.7933 185.96 27.39ZM186.136 24.7468C186.14 25.2875 186.572 25.664 187.193 25.66C187.798 25.664 188.238 25.2915 188.234 24.7468C188.238 24.2062 187.814 23.8377 187.193 23.8418C186.556 23.8377 186.14 24.2062 186.136 24.7468ZM190.629 29.0561C190.317 29.0521 190.057 28.7998 190.061 28.4874C190.057 28.175 190.317 27.9187 190.629 27.9187C190.938 27.9187 191.194 28.175 191.198 28.4874C191.194 28.7998 190.938 29.0521 190.629 29.0561ZM194.025 29.0801C192.684 29.0801 191.895 27.9988 191.895 26.1005C191.895 24.2142 192.692 23.1209 194.025 23.1209C195.355 23.1209 196.152 24.2142 196.156 26.1005C196.152 27.9988 195.367 29.0801 194.025 29.0801ZM192.776 26.1005C192.772 27.5462 193.24 28.3192 194.025 28.3192C194.806 28.3192 195.275 27.5462 195.275 26.1005C195.275 24.6587 194.802 23.8698 194.025 23.8658C193.244 23.8698 192.776 24.6587 192.776 26.1005ZM198.399 25.9563C197.606 25.9643 197.173 25.3756 197.181 24.5146C197.173 23.6655 197.626 23.0768 198.399 23.0808C199.196 23.0768 199.612 23.6655 199.616 24.5146C199.612 25.3796 199.18 25.9643 198.399 25.9563ZM197.838 29L201.819 23.201H202.548L198.567 29H197.838ZM197.838 24.5146C197.842 25.0472 198.026 25.3916 198.399 25.3956C198.775 25.3916 198.951 25.0472 198.951 24.5146C198.951 23.9939 198.787 23.6375 198.399 23.6415C198.026 23.6495 197.842 23.9979 197.838 24.5146ZM200.842 27.6784C200.838 26.8214 201.286 26.2326 202.059 26.2367C202.852 26.2326 203.273 26.8214 203.277 27.6784C203.273 28.5354 202.84 29.1201 202.059 29.1201C201.27 29.1201 200.838 28.5314 200.842 27.6784ZM201.498 27.6784C201.502 28.203 201.687 28.5515 202.059 28.5515C202.436 28.5515 202.612 28.203 202.612 27.6784C202.612 27.1498 202.448 26.7973 202.059 26.7973C201.691 26.8053 201.502 27.1538 201.498 27.6784Z" fill="white"/>
<path d="M100.74 23.193V23.8978C100.736 24.7829 100.736 25.7761 100.468 27.2459L99.6991 27.1658C99.9754 25.7761 99.9754 24.7589 99.9794 23.8978V23.8097H95.6222V23.193H100.74ZM94.9333 28.7117V28.0789H97.4244V25.5478H98.1773V28.0789H101.477V28.7117H94.9333ZM107.837 25.8121V26.4209H105.666V28.175H108.59V28.7998H102.022V28.175H104.913V26.4209H102.839V23.0568H107.773V23.6735H103.6V25.8121H107.837ZM113.38 29.0801C112.038 29.0801 111.249 27.9988 111.249 26.1005C111.249 24.2142 112.046 23.1209 113.38 23.1209C114.709 23.1209 115.506 24.2142 115.51 26.1005C115.506 27.9988 114.721 29.0801 113.38 29.0801ZM112.13 26.1005C112.126 27.5462 112.595 28.3192 113.38 28.3192C114.161 28.3192 114.629 27.5462 114.629 26.1005C114.629 24.6587 114.157 23.8698 113.38 23.8658C112.599 23.8698 112.13 24.6587 112.13 26.1005ZM116.776 29.0561C116.463 29.0521 116.203 28.7998 116.207 28.4874C116.203 28.175 116.463 27.9187 116.776 27.9187C117.084 27.9187 117.34 28.175 117.344 28.4874C117.34 28.7998 117.084 29.0521 116.776 29.0561ZM120.196 29.0801C118.934 29.0801 118.057 28.3993 118.065 27.4541C118.057 26.7092 118.59 26.1005 119.275 25.9964V25.9643C118.678 25.8282 118.282 25.2995 118.282 24.6668C118.282 23.7737 119.087 23.1209 120.196 23.1209C121.289 23.1209 122.098 23.7737 122.102 24.6668C122.098 25.2995 121.694 25.8282 121.109 25.9643V25.9964C121.786 26.1005 122.323 26.7092 122.327 27.4541C122.323 28.3993 121.437 29.0801 120.196 29.0801ZM118.962 27.39C118.95 27.9587 119.431 28.3512 120.196 28.3512C120.949 28.3512 121.429 27.9587 121.429 27.39C121.429 26.7933 120.909 26.3568 120.196 26.3568C119.475 26.3568 118.95 26.7933 118.962 27.39ZM119.139 24.7468C119.143 25.2875 119.575 25.664 120.196 25.66C120.801 25.664 121.241 25.2915 121.237 24.7468C121.241 24.2062 120.817 23.8377 120.196 23.8418C119.559 23.8377 119.143 24.2062 119.139 24.7468ZM124.569 25.9563C123.776 25.9643 123.344 25.3756 123.352 24.5146C123.344 23.6655 123.796 23.0768 124.569 23.0808C125.366 23.0768 125.783 23.6655 125.787 24.5146C125.783 25.3796 125.35 25.9643 124.569 25.9563ZM124.009 29L127.989 23.201H128.718L124.737 29H124.009ZM124.009 24.5146C124.013 25.0472 124.197 25.3916 124.569 25.3956C124.946 25.3916 125.122 25.0472 125.122 24.5146C125.122 23.9939 124.958 23.6375 124.569 23.6415C124.197 23.6495 124.013 23.9979 124.009 24.5146ZM127.012 27.6784C127.008 26.8214 127.457 26.2326 128.23 26.2367C129.023 26.2326 129.443 26.8214 129.447 27.6784C129.443 28.5354 129.011 29.1201 128.23 29.1201C127.441 29.1201 127.008 28.5314 127.012 27.6784ZM127.669 27.6784C127.673 28.203 127.857 28.5515 128.23 28.5515C128.606 28.5515 128.782 28.203 128.782 27.6784C128.782 27.1498 128.618 26.7973 128.23 26.7973C127.861 26.8053 127.673 27.1538 127.669 27.6784Z" fill="white"/>
<path d="M23.7297 28.175V28.7998H17.1617V28.175H20.0613V26.6131H20.8142V28.175H23.7297ZM17.4821 26.2687C18.9559 26.0524 20.0172 25.2194 20.0532 24.2102H17.7545V23.5934H20.0613V22.6323H20.8142V23.5934H23.121V24.2102H20.8222C20.8582 25.2194 21.9195 26.0524 23.3933 26.2687L23.1049 26.8614C21.9035 26.6732 20.9023 26.1045 20.4337 25.2675C19.9691 26.1045 18.9719 26.6732 17.7705 26.8614L17.4821 26.2687ZM30.0574 23.193V23.8978C30.0534 24.7829 30.0534 25.7761 29.785 27.2459L29.0161 27.1658C29.2924 25.7761 29.2924 24.7589 29.2964 23.8978V23.8097H24.9392V23.193H30.0574ZM24.2503 28.7117V28.0789H26.7414V25.5478H27.4943V28.0789H30.7943V28.7117H24.2503ZM37.154 25.8121V26.4209H34.9833V28.175H37.9069V28.7998H31.3389V28.175H34.2304V26.4209H32.1559V23.0568H37.0899V23.6735H32.9168V25.8121H37.154ZM42.6967 29.0801C41.3551 29.0801 40.5661 27.9988 40.5661 26.1005C40.5661 24.2142 41.3631 23.1209 42.6967 23.1209C44.0263 23.1209 44.8233 24.2142 44.8273 26.1005C44.8233 27.9988 44.0383 29.0801 42.6967 29.0801ZM41.4472 26.1005C41.4432 27.5462 41.9117 28.3192 42.6967 28.3192C43.4776 28.3192 43.9462 27.5462 43.9462 26.1005C43.9462 24.6587 43.4736 23.8698 42.6967 23.8658C41.9157 23.8698 41.4472 24.6587 41.4472 26.1005ZM46.0928 29.0561C45.7804 29.0521 45.5201 28.7998 45.5241 28.4874C45.5201 28.175 45.7804 27.9187 46.0928 27.9187C46.4012 27.9187 46.6575 28.175 46.6615 28.4874C46.6575 28.7998 46.4012 29.0521 46.0928 29.0561ZM49.5129 29.0801C48.2514 29.0801 47.3743 28.3993 47.3824 27.4541C47.3743 26.7092 47.907 26.1005 48.5918 25.9964V25.9643C47.9951 25.8282 47.5986 25.2995 47.5986 24.6668C47.5986 23.7737 48.4036 23.1209 49.5129 23.1209C50.6063 23.1209 51.4152 23.7737 51.4192 24.6668C51.4152 25.2995 51.0108 25.8282 50.426 25.9643V25.9964C51.1029 26.1005 51.6395 26.7092 51.6435 27.4541C51.6395 28.3993 50.7544 29.0801 49.5129 29.0801ZM48.2794 27.39C48.2674 27.9587 48.748 28.3512 49.5129 28.3512C50.2658 28.3512 50.7464 27.9587 50.7464 27.39C50.7464 26.7933 50.2258 26.3568 49.5129 26.3568C48.7921 26.3568 48.2674 26.7933 48.2794 27.39ZM48.4557 24.7468C48.4597 25.2875 48.8922 25.664 49.5129 25.66C50.1177 25.664 50.5582 25.2915 50.5542 24.7468C50.5582 24.2062 50.1337 23.8377 49.5129 23.8418C48.8762 23.8377 48.4597 24.2062 48.4557 24.7468ZM53.8862 25.9563C53.0933 25.9643 52.6608 25.3756 52.6688 24.5146C52.6608 23.6655 53.1133 23.0768 53.8862 23.0808C54.6832 23.0768 55.0997 23.6655 55.1037 24.5146C55.0997 25.3796 54.6672 25.9643 53.8862 25.9563ZM53.3256 29L57.3064 23.201H58.0353L54.0544 29H53.3256ZM53.3256 24.5146C53.3296 25.0472 53.5138 25.3916 53.8862 25.3956C54.2627 25.3916 54.4389 25.0472 54.4389 24.5146C54.4389 23.9939 54.2747 23.6375 53.8862 23.6415C53.5138 23.6495 53.3296 23.9979 53.3256 24.5146ZM56.3292 27.6784C56.3252 26.8214 56.7737 26.2326 57.5467 26.2367C58.3396 26.2326 58.7601 26.8214 58.7641 27.6784C58.7601 28.5354 58.3276 29.1201 57.5467 29.1201C56.7577 29.1201 56.3252 28.5314 56.3292 27.6784ZM56.986 27.6784C56.99 28.203 57.1742 28.5515 57.5467 28.5515C57.9231 28.5515 58.0993 28.203 58.0993 27.6784C58.0993 27.1498 57.9351 26.7973 57.5467 26.7973C57.1782 26.8053 56.99 27.1538 56.986 27.6784Z" fill="white"/>
<path d="M469.828 23.193V23.8978C469.824 24.7829 469.824 25.7761 469.555 27.2459L468.786 27.1658C469.063 25.7761 469.063 24.7589 469.067 23.8978V23.8097H464.709V23.193H469.828ZM464.02 28.7117V28.0789H466.512V25.5478H467.264V28.0789H470.564V28.7117H464.02ZM476.924 25.8121V26.4209H474.753V28.175H477.677V28.7998H471.109V28.175H474.001V26.4209H471.926V23.0568H476.86V23.6735H472.687V25.8121H476.924ZM482.547 29.0801C481.474 29.0721 480.352 28.4353 480.352 26.2927C480.356 24.2743 481.229 23.1209 482.619 23.1209C483.688 23.1209 484.429 23.7857 484.565 24.7068H483.692C483.576 24.2342 483.204 23.8938 482.619 23.8898C481.722 23.8938 481.201 24.6708 481.201 25.9803H481.265C481.582 25.4877 482.126 25.1994 482.755 25.1954C483.788 25.1994 484.621 25.9924 484.621 27.1017C484.621 28.2271 483.792 29.0881 482.547 29.0801ZM481.305 27.1257C481.309 27.7705 481.826 28.3392 482.539 28.3432C483.24 28.3392 483.764 27.7945 483.764 27.1177C483.764 26.4529 483.26 25.9123 482.563 25.9163C481.854 25.9123 481.313 26.4809 481.305 27.1257ZM485.863 29.0561C485.551 29.0521 485.29 28.7998 485.294 28.4874C485.29 28.175 485.551 27.9187 485.863 27.9187C486.171 27.9187 486.428 28.175 486.432 28.4874C486.428 28.7998 486.171 29.0521 485.863 29.0561ZM489.283 29.0801C488.022 29.0801 487.145 28.3993 487.153 27.4541C487.145 26.7092 487.677 26.1005 488.362 25.9964V25.9643C487.765 25.8282 487.369 25.2995 487.369 24.6668C487.369 23.7737 488.174 23.1209 489.283 23.1209C490.376 23.1209 491.185 23.7737 491.189 24.6668C491.185 25.2995 490.781 25.8282 490.196 25.9643V25.9964C490.873 26.1005 491.41 26.7092 491.414 27.4541C491.41 28.3993 490.525 29.0801 489.283 29.0801ZM488.05 27.39C488.038 27.9587 488.518 28.3512 489.283 28.3512C490.036 28.3512 490.517 27.9587 490.517 27.39C490.517 26.7933 489.996 26.3568 489.283 26.3568C488.562 26.3568 488.038 26.7933 488.05 27.39ZM488.226 24.7468C488.23 25.2875 488.662 25.664 489.283 25.66C489.888 25.664 490.328 25.2915 490.324 24.7468C490.328 24.2062 489.904 23.8377 489.283 23.8418C488.646 23.8377 488.23 24.2062 488.226 24.7468ZM493.656 25.9563C492.863 25.9643 492.431 25.3756 492.439 24.5146C492.431 23.6655 492.883 23.0768 493.656 23.0808C494.453 23.0768 494.87 23.6655 494.874 24.5146C494.87 25.3796 494.437 25.9643 493.656 25.9563ZM493.096 29L497.077 23.201H497.805L493.825 29H493.096ZM493.096 24.5146C493.1 25.0472 493.284 25.3916 493.656 25.3956C494.033 25.3916 494.209 25.0472 494.209 24.5146C494.209 23.9939 494.045 23.6375 493.656 23.6415C493.284 23.6495 493.1 23.9979 493.096 24.5146ZM496.099 27.6784C496.095 26.8214 496.544 26.2326 497.317 26.2367C498.11 26.2326 498.53 26.8214 498.534 27.6784C498.53 28.5354 498.098 29.1201 497.317 29.1201C496.528 29.1201 496.095 28.5314 496.099 27.6784ZM496.756 27.6784C496.76 28.203 496.944 28.5515 497.317 28.5515C497.693 28.5515 497.87 28.203 497.87 27.6784C497.87 27.1498 497.705 26.7973 497.317 26.7973C496.948 26.8053 496.76 27.1538 496.756 27.6784Z" fill="white"/>
<path d="M394.949 25.8282V26.4449H392.049V27.1337C393.363 27.2058 394.144 27.6464 394.148 28.3993C394.144 29.2123 393.215 29.6688 391.673 29.6648C390.111 29.6688 389.182 29.2123 389.182 28.3993C389.182 27.6464 389.963 27.2018 391.296 27.1337V26.4449H388.405V25.8282H394.949ZM388.749 24.851C390.039 24.7188 391.056 24.1341 391.16 23.4413H389.006V22.8325H394.364V23.4413H392.186C392.29 24.1381 393.299 24.7188 394.612 24.851L394.34 25.4517C393.095 25.3075 392.065 24.7829 391.677 24.022C391.28 24.7829 390.259 25.3075 389.014 25.4517L388.749 24.851ZM389.951 28.3993C389.947 28.8358 390.576 29.0881 391.673 29.0801C392.754 29.0881 393.387 28.8358 393.387 28.3993C393.387 27.9547 392.754 27.7144 391.673 27.7104C390.576 27.7144 389.947 27.9547 389.951 28.3993ZM401.309 25.8121V26.4209H399.138V28.175H402.061V28.7998H395.494V28.175H398.385V26.4209H396.311V23.0568H401.244V23.6735H397.071V25.8121H401.309ZM406.891 29.0801C405.69 29.0801 404.837 28.4353 404.801 27.4862H405.698C405.73 27.9948 406.235 28.3192 406.883 28.3192C407.584 28.3192 408.093 27.9387 408.093 27.374C408.093 26.8013 407.616 26.3928 406.787 26.3888H406.291V25.668H406.787C407.448 25.672 407.909 25.3035 407.909 24.7468C407.909 24.2182 407.512 23.8578 406.899 23.8578C406.319 23.8578 405.798 24.1822 405.778 24.7068H404.929C404.953 23.7617 405.826 23.1209 406.907 23.1209C408.049 23.1209 408.766 23.8418 408.758 24.6988C408.766 25.3596 408.357 25.8322 407.732 25.9884V26.0284C408.525 26.1405 408.986 26.6732 408.982 27.4061C408.986 28.3712 408.093 29.0801 406.891 29.0801ZM412.154 23.201V29H411.265V24.082H411.233L409.847 24.9871V24.1461L411.289 23.201H412.154ZM413.868 29.0561C413.555 29.0521 413.295 28.7998 413.299 28.4874C413.295 28.175 413.555 27.9187 413.868 27.9187C414.176 27.9187 414.432 28.175 414.436 28.4874C414.432 28.7998 414.176 29.0521 413.868 29.0561ZM417.264 29.0801C415.922 29.0801 415.133 27.9988 415.133 26.1005C415.133 24.2142 415.93 23.1209 417.264 23.1209C418.594 23.1209 419.39 24.2142 419.394 26.1005C419.39 27.9988 418.606 29.0801 417.264 29.0801ZM416.014 26.1005C416.01 27.5462 416.479 28.3192 417.264 28.3192C418.045 28.3192 418.513 27.5462 418.513 26.1005C418.513 24.6587 418.041 23.8698 417.264 23.8658C416.483 23.8698 416.014 24.6587 416.014 26.1005ZM421.637 25.9563C420.844 25.9643 420.412 25.3756 420.42 24.5146C420.412 23.6655 420.864 23.0768 421.637 23.0808C422.434 23.0768 422.851 23.6655 422.855 24.5146C422.851 25.3796 422.418 25.9643 421.637 25.9563ZM421.077 29L425.057 23.201H425.786L421.805 29H421.077ZM421.077 24.5146C421.081 25.0472 421.265 25.3916 421.637 25.3956C422.014 25.3916 422.19 25.0472 422.19 24.5146C422.19 23.9939 422.026 23.6375 421.637 23.6415C421.265 23.6495 421.081 23.9979 421.077 24.5146ZM424.08 27.6784C424.076 26.8214 424.525 26.2326 425.298 26.2367C426.091 26.2326 426.511 26.8214 426.515 27.6784C426.511 28.5354 426.079 29.1201 425.298 29.1201C424.509 29.1201 424.076 28.5314 424.08 27.6784ZM424.737 27.6784C424.741 28.203 424.925 28.5515 425.298 28.5515C425.674 28.5515 425.85 28.203 425.85 27.6784C425.85 27.1498 425.686 26.7973 425.298 26.7973C424.929 26.8053 424.741 27.1538 424.737 27.6784Z" fill="white"/>
<path d="M320.551 22.5121V26.7573H319.79V25.8842H317.98V25.2595H319.79V24.3864H318.056C317.591 25.5398 316.514 26.3528 314.96 26.7973L314.656 26.2046C316.354 25.72 317.347 24.8069 317.483 23.6495H315.024V23.0248H318.308C318.308 23.2891 318.28 23.5454 318.232 23.7857H319.79V22.5121H320.551ZM315.769 28.2391C315.769 27.37 316.714 26.8414 318.188 26.8374C319.642 26.8414 320.595 27.37 320.599 28.2391C320.595 29.1121 319.642 29.6488 318.188 29.6488C316.714 29.6488 315.769 29.1121 315.769 28.2391ZM316.522 28.2391C316.522 28.7437 317.163 29.036 318.188 29.04C319.193 29.036 319.834 28.7437 319.838 28.2391C319.834 27.7265 319.193 27.4341 318.188 27.4381C317.163 27.4341 316.522 27.7265 316.522 28.2391ZM327.471 25.8121V26.4209H325.301V28.175H328.224V28.7998H321.656V28.175H324.548V26.4209H322.473V23.0568H327.407V23.6735H323.234V25.8121H327.471ZM333.094 29.0801C332.021 29.0721 330.899 28.4353 330.899 26.2927C330.903 24.2743 331.776 23.1209 333.166 23.1209C334.235 23.1209 334.976 23.7857 335.112 24.7068H334.239C334.123 24.2342 333.751 23.8938 333.166 23.8898C332.269 23.8938 331.748 24.6708 331.748 25.9803H331.812C332.129 25.4877 332.673 25.1994 333.302 25.1954C334.335 25.1994 335.168 25.9924 335.168 27.1017C335.168 28.2271 334.339 29.0881 333.094 29.0801ZM331.852 27.1257C331.856 27.7705 332.373 28.3392 333.086 28.3432C333.787 28.3392 334.311 27.7945 334.311 27.1177C334.311 26.4529 333.807 25.9123 333.11 25.9163C332.401 25.9123 331.86 26.4809 331.852 27.1257ZM338.308 23.201V29H337.419V24.082H337.387L336.001 24.9871V24.1461L337.443 23.201H338.308ZM340.022 29.0561C339.71 29.0521 339.45 28.7998 339.454 28.4874C339.45 28.175 339.71 27.9187 340.022 27.9187C340.331 27.9187 340.587 28.175 340.591 28.4874C340.587 28.7998 340.331 29.0521 340.022 29.0561ZM343.499 29.0801C342.425 29.0721 341.304 28.4353 341.304 26.2927C341.308 24.2743 342.181 23.1209 343.571 23.1209C344.64 23.1209 345.381 23.7857 345.517 24.7068H344.644C344.528 24.2342 344.155 23.8938 343.571 23.8898C342.674 23.8938 342.153 24.6708 342.153 25.9803H342.217C342.533 25.4877 343.078 25.1994 343.707 25.1954C344.74 25.1994 345.573 25.9924 345.573 27.1017C345.573 28.2271 344.744 29.0881 343.499 29.0801ZM342.257 27.1257C342.261 27.7705 342.778 28.3392 343.491 28.3432C344.191 28.3392 344.716 27.7945 344.716 27.1177C344.716 26.4529 344.211 25.9123 343.515 25.9163C342.806 25.9123 342.265 26.4809 342.257 27.1257ZM347.84 25.9563C347.047 25.9643 346.614 25.3756 346.622 24.5146C346.614 23.6655 347.067 23.0768 347.84 23.0808C348.637 23.0768 349.053 23.6655 349.057 24.5146C349.053 25.3796 348.621 25.9643 347.84 25.9563ZM347.279 29L351.26 23.201H351.989L348.008 29H347.279ZM347.279 24.5146C347.283 25.0472 347.467 25.3916 347.84 25.3956C348.216 25.3916 348.393 25.0472 348.393 24.5146C348.393 23.9939 348.228 23.6375 347.84 23.6415C347.467 23.6495 347.283 23.9979 347.279 24.5146ZM350.283 27.6784C350.279 26.8214 350.727 26.2326 351.5 26.2367C352.293 26.2326 352.714 26.8214 352.718 27.6784C352.714 28.5354 352.281 29.1201 351.5 29.1201C350.711 29.1201 350.279 28.5314 350.283 27.6784ZM350.94 27.6784C350.944 28.203 351.128 28.5515 351.5 28.5515C351.877 28.5515 352.053 28.203 352.053 27.6784C352.053 27.1498 351.889 26.7973 351.5 26.7973C351.132 26.8053 350.944 27.1538 350.94 27.6784Z" fill="#113287"/>
<path d="M540.85 28.2539V28.8786H534.282V28.2539H537.181V26.692H537.934V28.2539H540.85ZM534.602 26.3475C536.076 26.1313 537.137 25.2983 537.173 24.2891H534.874V23.6723H537.181V22.7111H537.934V23.6723H540.241V24.2891H537.942C537.978 25.2983 539.039 26.1313 540.513 26.3475L540.225 26.9403C539.023 26.752 538.022 26.1833 537.554 25.3463C537.089 26.1833 536.092 26.752 534.89 26.9403L534.602 26.3475ZM547.177 23.2718V23.9767C547.173 24.8617 547.173 25.855 546.905 27.3247L546.136 27.2446C546.412 25.855 546.412 24.8377 546.416 23.9767V23.8886H542.059V23.2718H547.177ZM541.37 28.7905V28.1577H543.861V25.6267H544.614V28.1577H547.914V28.7905H541.37ZM554.274 25.891V26.4997H552.103V28.2539H555.027V28.8786H548.459V28.2539H551.35V26.4997H549.276V23.1357H554.21V23.7524H550.037V25.891H554.274ZM559.817 29.159C558.475 29.159 557.686 28.0776 557.686 26.1793C557.686 24.2931 558.483 23.1997 559.817 23.1997C561.146 23.1997 561.943 24.2931 561.947 26.1793C561.943 28.0776 561.158 29.159 559.817 29.159ZM558.567 26.1793C558.563 27.6251 559.032 28.398 559.817 28.398C560.598 28.398 561.066 27.6251 561.066 26.1793C561.066 24.7376 560.594 23.9486 559.817 23.9446C559.036 23.9486 558.567 24.7376 558.567 26.1793ZM563.213 29.1349C562.9 29.1309 562.64 28.8786 562.644 28.5662C562.64 28.2539 562.9 27.9975 563.213 27.9975C563.521 27.9975 563.777 28.2539 563.781 28.5662C563.777 28.8786 563.521 29.1309 563.213 29.1349ZM566.689 29.159C565.616 29.1509 564.494 28.5142 564.494 26.3716C564.498 24.3531 565.371 23.1997 566.761 23.1997C567.83 23.1997 568.571 23.8645 568.707 24.7857H567.834C567.718 24.3131 567.346 23.9727 566.761 23.9687C565.864 23.9727 565.343 24.7496 565.343 26.0592H565.407C565.724 25.5666 566.268 25.2783 566.897 25.2742C567.93 25.2783 568.763 26.0712 568.763 27.1806C568.763 28.3059 567.934 29.167 566.689 29.159ZM565.447 27.2046C565.451 27.8494 565.968 28.4181 566.681 28.4221C567.382 28.4181 567.906 27.8734 567.906 27.1966C567.906 26.5318 567.402 25.9911 566.705 25.9951C565.996 25.9911 565.455 26.5598 565.447 27.2046ZM571.03 26.0352C570.237 26.0432 569.805 25.4545 569.813 24.5934C569.805 23.7444 570.257 23.1557 571.03 23.1597C571.827 23.1557 572.244 23.7444 572.248 24.5934C572.244 25.4585 571.811 26.0432 571.03 26.0352ZM570.469 29.0789L574.45 23.2798H575.179L571.198 29.0789H570.469ZM570.469 24.5934C570.473 25.1261 570.658 25.4705 571.03 25.4745C571.407 25.4705 571.583 25.1261 571.583 24.5934C571.583 24.0728 571.419 23.7164 571.03 23.7204C570.658 23.7284 570.473 24.0768 570.469 24.5934ZM573.473 27.7573C573.469 26.9002 573.918 26.3115 574.691 26.3155C575.484 26.3115 575.904 26.9002 575.908 27.7573C575.904 28.6143 575.472 29.199 574.691 29.199C573.902 29.199 573.469 28.6103 573.473 27.7573ZM574.13 27.7573C574.134 28.2819 574.318 28.6303 574.691 28.6303C575.067 28.6303 575.243 28.2819 575.243 27.7573C575.243 27.2286 575.079 26.8762 574.691 26.8762C574.322 26.8842 574.134 27.2326 574.13 27.7573Z" fill="white"/>
<path d="M-338 -587H2975V-589H-338V-587ZM2976 -586V1384H2978V-586H2976ZM2975 1385H-338V1387H2975V1385ZM-339 1384V-586H-341V1384H-339ZM-338 1385C-338.552 1385 -339 1384.55 -339 1384H-341C-341 1385.66 -339.657 1387 -338 1387V1385ZM2976 1384C2976 1384.55 2975.55 1385 2975 1385V1387C2976.66 1387 2978 1385.66 2978 1384H2976ZM2975 -587C2975.55 -587 2976 -586.552 2976 -586H2978C2978 -587.657 2976.66 -589 2975 -589V-587ZM-338 -589C-339.657 -589 -341 -587.657 -341 -586H-339C-339 -586.552 -338.552 -587 -338 -587V-589Z" fill="black" fill-opacity="0.1"/>
</svg>
