<svg width="593" height="74" viewBox="0 0 593 74" fill="none" xmlns="http://www.w3.org/2000/svg">
<rect width="593" height="74" fill="#727272"/>
<path d="M-340 -418C-340 -419.105 -339.105 -420 -338 -420H2975C2976.1 -420 2977 -419.105 2977 -418V1552C2977 1553.1 2976.1 1554 2975 1554H-338C-339.105 1554 -340 1553.1 -340 1552V-418Z" fill="white"/>
<path fill-rule="evenodd" clip-rule="evenodd" d="M111.957 40.0133V12.5232H112.777V40.0133H111.957Z" fill="#979797"/>
<path d="M6.18832 15.9041H29.8162V35.5887H6.18832L0 25.7464L6.18832 15.9041Z" fill="#001A5B"/>
<path d="M292.134 62.8017C293.255 62.8088 294.002 62.0339 294.002 61.021C294.002 60.0227 293.252 59.309 292.322 59.3054C291.756 59.309 291.266 59.5685 290.981 60.0119H290.924C290.924 58.8333 291.392 58.134 292.199 58.1304C292.726 58.134 293.061 58.4404 293.165 58.8657H293.951C293.829 58.0367 293.162 57.4384 292.199 57.4384C290.948 57.4384 290.162 58.4764 290.159 60.293C290.159 62.2213 291.169 62.7944 292.134 62.8017ZM291.017 61.0427C291.024 60.4624 291.511 59.9506 292.149 59.9542C292.776 59.9506 293.23 60.4371 293.23 61.0355C293.23 61.6446 292.758 62.1348 292.127 62.1384C291.485 62.1348 291.02 61.623 291.017 61.0427Z" fill="#001A5B"/>
<path d="M296.662 62.8016C297.869 62.8016 298.575 61.8284 298.579 60.12C298.575 58.4223 297.858 57.4384 296.662 57.4384C295.461 57.4384 294.744 58.4223 294.744 60.12C294.744 61.8284 295.454 62.8016 296.662 62.8016ZM295.537 60.12C295.537 58.8224 295.959 58.1124 296.662 58.1088C297.36 58.1124 297.786 58.8224 297.786 60.12C297.786 61.4211 297.364 62.1168 296.662 62.1168C295.955 62.1168 295.533 61.4211 295.537 60.12Z" fill="#001A5B"/>
<path d="M301.167 62.7296C302.756 62.7296 303.672 61.742 303.676 60.1128C303.672 58.4873 302.756 57.5105 301.217 57.5105H299.473V62.7296H301.167ZM300.265 62.0376V58.2025H301.167C302.306 58.2025 302.89 58.8837 302.89 60.1128C302.89 61.3455 302.306 62.0339 301.123 62.0376H300.265Z" fill="#001A5B"/>
<path d="M275.659 66.5807H275.153V69.9511H273.973V70.3163H275.153V70.9059H275.659V66.5807ZM270.93 69.2206L271 69.6307C271.478 69.6307 272.025 69.6307 272.602 69.6084V70.7072H273.108V69.5827C273.631 69.5507 274.166 69.4994 274.672 69.4193L274.64 69.0541C273.419 69.2046 271.99 69.2142 270.93 69.2206ZM271.391 67.8045C271.388 68.4132 271.958 68.7914 272.801 68.7914C273.637 68.7914 274.207 68.4132 274.21 67.8045C274.207 67.2054 273.637 66.8113 272.801 66.8113C271.958 66.8113 271.388 67.2054 271.391 67.8045ZM271.75 72.149H275.8V71.7261H272.256V70.483H271.75V72.149ZM271.872 67.8045C271.866 67.4393 272.244 67.1894 272.801 67.1958C273.343 67.1894 273.727 67.4393 273.73 67.8045C273.727 68.1762 273.343 68.4164 272.801 68.4196C272.244 68.4164 271.866 68.1762 271.872 67.8045Z" fill="#001A5B"/>
<path d="M280.304 68.1057V67.0676H279.805V68.1057C279.798 69.1854 279.096 70.2748 278.247 70.6624L278.568 71.0853C279.234 70.7489 279.795 70.028 280.057 69.1694C280.33 69.98 280.891 70.656 281.541 70.97L281.849 70.5727C281.009 70.1914 280.301 69.147 280.304 68.1057ZM282.47 72.2836H282.977V66.5742H282.47V72.2836Z" fill="#001A5B"/>
<path d="M314.862 67.7405H310.991V68.1506H314.361V68.1826C314.365 68.6664 314.365 69.2271 314.211 70.0153H310.331V70.4382H315.547V70.0153H314.711C314.862 69.2399 314.862 68.6632 314.862 68.1826V67.7405ZM311.023 72.9628H315.035V72.5399H311.523V71.0789H311.023V72.9628Z" fill="#001A5B"/>
<path d="M319.674 68.9259V67.8878H319.174V68.9259C319.168 70.0056 318.466 71.095 317.617 71.4826L317.937 71.9055C318.603 71.5691 319.164 70.8482 319.427 69.9896C319.699 70.8002 320.26 71.4762 320.911 71.7902L321.218 71.3929C320.378 71.0116 319.67 69.9672 319.674 68.9259ZM321.84 73.1038H322.346V67.3944H321.84V73.1038Z" fill="#001A5B"/>
<path d="M70.563 63.6218C71.6516 63.6218 72.4229 62.883 72.4229 61.8557C72.4229 60.8501 71.6984 60.122 70.7144 60.1185C70.3179 60.122 69.9503 60.2626 69.734 60.4716H69.6836L69.8566 59.0083H72.1561V58.3307H69.2006L68.8617 61.2358H69.6115C69.7881 60.915 70.1089 60.7745 70.527 60.7745C71.183 60.7816 71.6516 61.2429 71.6516 61.8774C71.6516 62.4973 71.1974 62.955 70.563 62.9586C70.0368 62.955 69.6115 62.6306 69.5682 62.1873H68.7969C68.833 63.0199 69.5754 63.6218 70.563 63.6218Z" fill="#001A5B"/>
<path d="M73.1511 62.5334H75.6886V63.5497H76.4383V62.5334H77.1519V61.8629H76.4383V58.3307H75.4579L73.1511 61.8918V62.5334ZM73.9873 61.8629V61.8197L75.6309 59.275H75.6886V61.8629H73.9873Z" fill="#001A5B"/>
<path d="M79.7182 63.5497C81.3077 63.5497 82.2236 62.5621 82.2269 60.933C82.2236 59.3075 81.3077 58.3307 79.7687 58.3307H78.0242V63.5497H79.7182ZM78.8171 62.8577V59.0227H79.7182C80.8572 59.0227 81.4411 59.7039 81.4411 60.933C81.4411 62.1657 80.8572 62.8541 79.675 62.8577H78.8171Z" fill="#001A5B"/>
<path d="M144.424 63.6218C145.512 63.6218 146.284 62.883 146.284 61.8557C146.284 60.8501 145.559 60.122 144.576 60.1185C144.179 60.122 143.811 60.2626 143.595 60.4716H143.545L143.718 59.0083H146.017V58.3307H143.062L142.723 61.2358H143.472C143.649 60.915 143.969 60.7745 144.388 60.7745C145.044 60.7816 145.512 61.2429 145.512 61.8774C145.512 62.4973 145.058 62.955 144.424 62.9586C143.897 62.955 143.472 62.6306 143.429 62.1873H142.658C142.694 63.0199 143.436 63.6218 144.424 63.6218Z" fill="#001A5B"/>
<path d="M149.016 63.6218C150.137 63.629 150.883 62.8541 150.883 61.8412C150.883 60.8429 150.133 60.1292 149.203 60.1256C148.637 60.1292 148.148 60.3887 147.862 60.8321H147.805C147.805 59.6535 148.273 58.9542 149.081 58.9505C149.607 58.9542 149.942 59.2606 150.046 59.6858H150.832C150.71 58.8569 150.043 58.2585 149.081 58.2585C147.83 58.2585 147.044 59.2966 147.04 61.1131C147.04 63.0415 148.05 63.6146 149.016 63.6218ZM147.898 61.8629C147.906 61.2826 148.392 60.7708 149.03 60.7744C149.658 60.7708 150.112 61.2573 150.112 61.8557C150.112 62.4648 149.639 62.955 149.009 62.9586C148.367 62.955 147.902 62.4432 147.898 61.8629Z" fill="#001A5B"/>
<path d="M153.493 63.5497C155.082 63.5497 155.997 62.5621 156.001 60.933C155.997 59.3075 155.082 58.3307 153.543 58.3307H151.798V63.5497H153.493ZM152.591 62.8577V59.0227H153.493C154.631 59.0227 155.215 59.7039 155.215 60.933C155.215 62.1657 154.631 62.8541 153.449 62.8577H152.591Z" fill="#001A5B"/>
<path d="M218.259 63.6218C219.348 63.6218 220.119 62.883 220.119 61.8557C220.119 60.8501 219.394 60.122 218.411 60.1185C218.014 60.122 217.647 60.2626 217.43 60.4716H217.38L217.553 59.0083H219.852V58.3307H216.897L216.558 61.2358H217.308C217.484 60.915 217.805 60.7745 218.223 60.7745C218.879 60.7816 219.348 61.2429 219.348 61.8774C219.348 62.4973 218.893 62.955 218.259 62.9586C217.733 62.955 217.308 62.6306 217.264 62.1873H216.493C216.529 63.0199 217.272 63.6218 218.259 63.6218Z" fill="#001A5B"/>
<path d="M222.786 63.6218C223.904 63.6218 224.7 63.0091 224.704 62.1585C224.7 61.4881 224.217 60.9402 223.608 60.8464V60.8176C224.134 60.6951 224.499 60.2193 224.502 59.6498C224.499 58.8461 223.77 58.2585 222.786 58.2585C221.788 58.2585 221.064 58.8461 221.064 59.6498C221.064 60.2193 221.42 60.6951 221.958 60.8176V60.8464C221.341 60.9402 220.862 61.4881 220.869 62.1585C220.862 63.0091 221.651 63.6218 222.786 63.6218ZM221.676 62.1007C221.666 61.5638 222.137 61.1709 222.786 61.1709C223.428 61.1709 223.897 61.5638 223.897 62.1007C223.897 62.6126 223.464 62.9658 222.786 62.9658C222.098 62.9658 221.666 62.6126 221.676 62.1007ZM221.835 59.7219C221.839 59.2353 222.214 58.9037 222.786 58.9073C223.345 58.9037 223.727 59.2353 223.724 59.7219C223.727 60.2121 223.331 60.5473 222.786 60.5437C222.227 60.5473 221.839 60.2085 221.835 59.7219Z" fill="#001A5B"/>
<path d="M227.292 63.5497C228.882 63.5497 229.797 62.5621 229.8 60.933C229.797 59.3075 228.882 58.3307 227.342 58.3307H225.598V63.5497H227.292ZM226.391 62.8577V59.0227H227.292C228.431 59.0227 229.015 59.7039 229.015 60.933C229.015 62.1657 228.431 62.8541 227.249 62.8577H226.391Z" fill="#001A5B"/>
<path d="M365.926 62.8017C367.047 62.8088 367.794 62.0339 367.794 61.021C367.794 60.0227 367.044 59.309 366.114 59.3054C365.548 59.309 365.058 59.5685 364.773 60.0119H364.716C364.716 58.8333 365.184 58.134 365.992 58.1304C366.518 58.134 366.853 58.4404 366.957 58.8657H367.743C367.621 58.0367 366.954 57.4384 365.992 57.4384C364.741 57.4384 363.955 58.4764 363.951 60.293C363.951 62.2213 364.961 62.7944 365.926 62.8017ZM364.809 61.0427C364.816 60.4624 365.303 59.9506 365.941 59.9542C366.568 59.9506 367.022 60.4371 367.022 61.0355C367.022 61.6446 366.55 62.1348 365.92 62.1384C365.277 62.1348 364.813 61.623 364.809 61.0427Z" fill="#001A5B"/>
<path d="M370.49 62.8016C371.571 62.8016 372.374 62.1637 372.371 61.295C372.374 60.6354 371.96 60.1561 371.247 60.0551V60.0191C371.809 59.8785 372.177 59.4532 372.169 58.8584C372.177 58.0871 371.531 57.4384 370.504 57.4384C369.531 57.4384 368.745 58.015 368.724 58.8657H369.487C369.505 58.3935 369.975 58.1016 370.497 58.1016C371.048 58.1016 371.405 58.4259 371.405 58.9017C371.405 59.4027 370.991 59.7343 370.396 59.7307H369.949V60.3795H370.396C371.142 60.3831 371.571 60.7507 371.571 61.2662C371.571 61.7744 371.113 62.1168 370.482 62.1168C369.898 62.1168 369.445 61.8248 369.415 61.3671H368.608C368.641 62.2213 369.409 62.8016 370.49 62.8016Z" fill="#001A5B"/>
<path d="M375.01 62.7296C376.599 62.7296 377.515 61.742 377.518 60.1128C377.515 58.4873 376.599 57.5105 375.06 57.5105H373.315V62.7296H375.01ZM374.108 62.0376V58.2025H375.01C376.148 58.2025 376.732 58.8837 376.732 60.1128C376.732 61.3455 376.148 62.0339 374.966 62.0376H374.108Z" fill="#001A5B"/>
<path d="M439.748 62.8017C440.869 62.8088 441.615 62.0339 441.615 61.021C441.615 60.0227 440.865 59.309 439.935 59.3054C439.369 59.309 438.879 59.5685 438.595 60.0119H438.536C438.536 58.8333 439.005 58.134 439.813 58.1304C440.339 58.134 440.674 58.4404 440.779 58.8657H441.564C441.441 58.0367 440.775 57.4384 439.813 57.4384C438.562 57.4384 437.776 58.4764 437.773 60.293C437.773 62.2213 438.782 62.7944 439.748 62.8017ZM438.631 61.0427C438.637 60.4624 439.124 59.9506 439.762 59.9542C440.389 59.9506 440.844 60.4371 440.844 61.0355C440.844 61.6446 440.371 62.1348 439.74 62.1384C439.099 62.1348 438.634 61.623 438.631 61.0427Z" fill="#001A5B"/>
<path d="M444.346 62.8017C445.468 62.8088 446.214 62.0339 446.214 61.021C446.214 60.0227 445.464 59.309 444.534 59.3054C443.968 59.309 443.478 59.5685 443.193 60.0119H443.136C443.136 58.8333 443.604 58.134 444.411 58.1304C444.938 58.134 445.273 58.4404 445.377 58.8657H446.163C446.041 58.0367 445.374 57.4384 444.411 57.4384C443.16 57.4384 442.375 58.4764 442.371 60.293C442.371 62.2213 443.381 62.7944 444.346 62.8017ZM443.229 61.0427C443.237 60.4624 443.723 59.9506 444.361 59.9542C444.989 59.9506 445.442 60.4371 445.442 61.0355C445.442 61.6446 444.971 62.1348 444.34 62.1384C443.698 62.1348 443.233 61.623 443.229 61.0427Z" fill="#001A5B"/>
<path d="M448.823 62.7296C450.413 62.7296 451.329 61.742 451.332 60.1128C451.329 58.4873 450.413 57.5105 448.874 57.5105H447.129V62.7296H448.823ZM447.923 62.0376V58.2025H448.823C449.962 58.2025 450.546 58.8837 450.546 60.1128C450.546 61.3455 449.962 62.0339 448.78 62.0376H447.923Z" fill="#001A5B"/>
<path d="M513.565 62.8017C514.686 62.8089 515.432 62.034 515.432 61.0211C515.432 60.0227 514.682 59.3091 513.752 59.3054C513.186 59.3091 512.697 59.5686 512.412 60.0119H512.354C512.354 58.8333 512.823 58.134 513.63 58.1304C514.157 58.134 514.491 58.4404 514.596 58.8657H515.382C515.259 58.0367 514.592 57.4384 513.63 57.4384C512.379 57.4384 511.593 58.4765 511.59 60.293C511.59 62.2214 512.599 62.7945 513.565 62.8017ZM512.448 61.0428C512.455 60.4624 512.942 59.9506 513.579 59.9542C514.206 59.9506 514.661 60.4372 514.661 61.0356C514.661 61.6447 514.188 62.1349 513.558 62.1385C512.916 62.1349 512.451 61.6231 512.448 61.0428Z" fill="#001A5B"/>
<path d="M518.07 57.4384C516.935 57.4312 516.196 58.2098 516.196 59.2047C516.196 60.203 516.946 60.9203 517.883 60.9203C518.445 60.9203 518.936 60.6536 519.217 60.2138H519.282C519.274 61.4069 518.802 62.1062 517.998 62.1097C517.473 62.1062 517.133 61.7997 517.026 61.36H516.24C516.365 62.2071 517.036 62.8018 517.998 62.8018C519.249 62.8018 520.038 61.7637 520.038 59.9327C520.035 58.0223 519.029 57.4457 518.07 57.4384ZM516.967 59.1902C516.964 58.5919 517.44 58.1017 518.07 58.1017C518.709 58.1017 519.174 58.6171 519.174 59.183C519.174 59.7597 518.687 60.2751 518.056 60.2715C517.422 60.2751 516.971 59.7958 516.967 59.1902Z" fill="#001A5B"/>
<path d="M522.64 62.7296C524.23 62.7296 525.146 61.742 525.149 60.1129C525.146 58.4873 524.23 57.5105 522.691 57.5105H520.947V62.7296H522.64ZM521.74 62.0376V58.2026H522.64C523.78 58.2026 524.364 58.8837 524.364 60.1129C524.364 61.3456 523.78 62.034 522.598 62.0376H521.74Z" fill="#001A5B"/>
<path fill-rule="evenodd" clip-rule="evenodd" d="M38.1389 40.0133V12.5232H38.9591V40.0133H38.1389Z" fill="#979797"/>
<path fill-rule="evenodd" clip-rule="evenodd" d="M185.774 40.0133V12.5232H186.594V40.0133H185.774Z" fill="#979797"/>
<path fill-rule="evenodd" clip-rule="evenodd" d="M259.591 40.0133V12.5232H260.411V40.0133H259.591Z" fill="#979797"/>
<path fill-rule="evenodd" clip-rule="evenodd" d="M321.106 40.0133V12.5232H321.926V40.0133H321.106Z" fill="#979797"/>
<path fill-rule="evenodd" clip-rule="evenodd" d="M345.712 40.0133V12.5232H346.532V40.0133H345.712Z" fill="#979797"/>
<path fill-rule="evenodd" clip-rule="evenodd" d="M394.923 40.0133V12.5232H395.744V40.0133H394.923Z" fill="#979797"/>
<path fill-rule="evenodd" clip-rule="evenodd" d="M419.529 40.0133V12.5232H420.349V40.0133H419.529Z" fill="#979797"/>
<path fill-rule="evenodd" clip-rule="evenodd" d="M468.741 40.0133V12.5232H469.561V40.0133H468.741Z" fill="#979797"/>
<path fill-rule="evenodd" clip-rule="evenodd" d="M493.346 40.0133V12.5232H494.167V40.0133H493.346Z" fill="#979797"/>
<path fill-rule="evenodd" clip-rule="evenodd" d="M542.558 40.0133V12.5232H543.378V40.0133H542.558Z" fill="#979797"/>
<path fill-rule="evenodd" clip-rule="evenodd" d="M567.164 40.0133V12.5232H567.984V40.0133H567.164Z" fill="#979797"/>
<path d="M296.91 15.9041H223.093V35.5887H296.91V15.9041Z" fill="#E2E6F6"/>
<path d="M223.093 15.9041H149.275V35.5887H223.093V15.9041Z" fill="#5B6EB4"/>
<path d="M149.275 15.9041H75.4578V35.5887H149.275V15.9041Z" fill="#113287"/>
<path d="M75.4579 15.9041H9.02222V35.5887H75.4579V15.9041Z" fill="#001A5B"/>
<path fill-rule="evenodd" clip-rule="evenodd" d="M148.865 52.4924V3.58518e-08L149.685 0V52.4924H148.865Z" fill="#979797"/>
<path fill-rule="evenodd" clip-rule="evenodd" d="M222.683 52.4924V3.58518e-08L223.503 0V52.4924H222.683Z" fill="#979797"/>
<path fill-rule="evenodd" clip-rule="evenodd" d="M75.0476 52.4924V3.58518e-08L75.8678 0V52.4924H75.0476Z" fill="#979797"/>
<path d="M518.362 15.9041H444.545V35.5887H518.362V15.9041Z" fill="#113287"/>
<path d="M444.545 15.9041H370.728V35.5887H444.545V15.9041Z" fill="#5B6EB4"/>
<path d="M370.728 15.9041H296.91V35.5887H370.728V15.9041Z" fill="#E2E6F6"/>
<path fill-rule="evenodd" clip-rule="evenodd" d="M295.68 52.4924V7.17035e-08L297.32 0V52.4924H295.68Z" fill="#113287"/>
<path fill-rule="evenodd" clip-rule="evenodd" d="M271.343 63.1689L268.733 60.559C268.573 60.3989 268.573 60.1393 268.733 59.9791L271.343 57.3692C271.504 57.2091 271.763 57.2091 271.924 57.3692C272.084 57.5294 272.084 57.7891 271.924 57.9492L270.014 59.859H284.607V60.6792H270.014L271.924 62.5889C272.084 62.7491 272.084 63.0087 271.924 63.1689C271.763 63.3291 271.504 63.3291 271.343 63.1689Z" fill="#113287"/>
<path fill-rule="evenodd" clip-rule="evenodd" d="M322.477 57.3692L325.087 59.979C325.247 60.1391 325.247 60.3988 325.087 60.559L322.477 63.1688C322.316 63.3289 322.057 63.3289 321.896 63.1688C321.736 63.0086 321.736 62.749 321.896 62.5888L323.807 60.6791H309.213V59.8589H323.807L321.896 57.9491C321.736 57.7889 321.736 57.5293 321.896 57.3692C322.057 57.209 322.316 57.209 322.477 57.3692Z" fill="#113287"/>
<path d="M586.812 15.9041H563.184V35.5887H586.812L593 25.7464L586.812 15.9041Z" fill="#001A5B"/>
<path d="M518.363 15.9041H583.978V35.5887H518.363V15.9041Z" fill="#001A5B"/>
<path fill-rule="evenodd" clip-rule="evenodd" d="M370.317 52.4924V3.58518e-08L371.138 0V52.4924H370.317Z" fill="#979797"/>
<path fill-rule="evenodd" clip-rule="evenodd" d="M444.135 52.4924V3.58518e-08L444.955 0V52.4924H444.135Z" fill="#979797"/>
<path fill-rule="evenodd" clip-rule="evenodd" d="M517.952 52.4924V3.58518e-08L518.772 0V52.4924H517.952Z" fill="#979797"/>
<path d="M245.928 22.5121V26.7573H245.167V25.8842H243.357V25.2595H245.167V24.3864H243.433C242.969 25.5398 241.892 26.3528 240.338 26.7973L240.033 26.2046C241.731 25.72 242.725 24.8069 242.861 23.6495H240.402V23.0248H243.686C243.686 23.2891 243.658 23.5454 243.61 23.7857H245.167V22.5121H245.928ZM241.147 28.2391C241.147 27.37 242.092 26.8414 243.566 26.8374C245.019 26.8414 245.972 27.37 245.976 28.2391C245.972 29.1121 245.019 29.6488 243.566 29.6488C242.092 29.6488 241.147 29.1121 241.147 28.2391ZM241.9 28.2391C241.9 28.7437 242.54 29.036 243.566 29.04C244.571 29.036 245.212 28.7437 245.216 28.2391C245.212 27.7265 244.571 27.4341 243.566 27.4381C242.54 27.4341 241.9 27.7265 241.9 28.2391ZM252.849 25.8121V26.4209H250.678V28.175H253.602V28.7998H247.034V28.175H249.925V26.4209H247.851V23.0568H252.785V23.6735H248.612V25.8121H252.849ZM258.367 23.1209C259.433 23.1289 260.55 23.7697 260.554 25.8922C260.554 27.9267 259.677 29.0801 258.287 29.0801C257.218 29.0801 256.473 28.4193 256.333 27.4782H257.206C257.326 27.9667 257.703 28.3072 258.287 28.3112C259.18 28.3072 259.705 27.5302 259.713 26.2046H259.641C259.329 26.6932 258.784 26.9896 258.159 26.9896C257.118 26.9896 256.285 26.1926 256.285 25.0833C256.285 23.9779 257.106 23.1129 258.367 23.1209ZM257.142 25.0672C257.146 25.7401 257.647 26.2727 258.351 26.2687C259.052 26.2727 259.593 25.7 259.593 25.0592C259.593 24.4305 259.076 23.8578 258.367 23.8578C257.667 23.8578 257.138 24.4024 257.142 25.0672ZM263.542 29.0801C262.34 29.0801 261.487 28.4353 261.451 27.4862H262.348C262.38 27.9948 262.885 28.3192 263.534 28.3192C264.235 28.3192 264.743 27.9387 264.743 27.374C264.743 26.8013 264.267 26.3928 263.438 26.3888H262.941V25.668H263.438C264.098 25.672 264.559 25.3035 264.559 24.7468C264.559 24.2182 264.163 23.8578 263.55 23.8578C262.969 23.8578 262.448 24.1822 262.428 24.7068H261.579C261.603 23.7617 262.476 23.1209 263.558 23.1209C264.699 23.1209 265.416 23.8418 265.408 24.6988C265.416 25.3596 265.008 25.8322 264.383 25.9884V26.0284C265.176 26.1405 265.636 26.6732 265.632 27.4061C265.636 28.3712 264.743 29.0801 263.542 29.0801ZM266.994 29.0561C266.682 29.0521 266.421 28.7998 266.425 28.4874C266.421 28.175 266.682 27.9187 266.994 27.9187C267.302 27.9187 267.559 28.175 267.563 28.4874C267.559 28.7998 267.302 29.0521 266.994 29.0561ZM270.438 29.0801C269.237 29.0801 268.384 28.4353 268.348 27.4862H269.245C269.277 27.9948 269.781 28.3192 270.43 28.3192C271.131 28.3192 271.64 27.9387 271.64 27.374C271.64 26.8013 271.163 26.3928 270.334 26.3888H269.837V25.668H270.334C270.995 25.672 271.455 25.3035 271.455 24.7468C271.455 24.2182 271.059 23.8578 270.446 23.8578C269.865 23.8578 269.345 24.1822 269.325 24.7068H268.476C268.5 23.7617 269.373 23.1209 270.454 23.1209C271.596 23.1209 272.312 23.8418 272.304 24.6988C272.312 25.3596 271.904 25.8322 271.279 25.9884V26.0284C272.072 26.1405 272.533 26.6732 272.529 27.4061C272.533 28.3712 271.64 29.0801 270.438 29.0801ZM274.827 25.9563C274.034 25.9643 273.602 25.3756 273.61 24.5146C273.602 23.6655 274.054 23.0768 274.827 23.0808C275.624 23.0768 276.041 23.6655 276.045 24.5146C276.041 25.3796 275.608 25.9643 274.827 25.9563ZM274.267 29L278.248 23.201H278.976L274.996 29H274.267ZM274.267 24.5146C274.271 25.0472 274.455 25.3916 274.827 25.3956C275.204 25.3916 275.38 25.0472 275.38 24.5146C275.38 23.9939 275.216 23.6375 274.827 23.6415C274.455 23.6495 274.271 23.9979 274.267 24.5146ZM277.27 27.6784C277.266 26.8214 277.715 26.2326 278.488 26.2367C279.281 26.2326 279.701 26.8214 279.705 27.6784C279.701 28.5354 279.269 29.1201 278.488 29.1201C277.699 29.1201 277.266 28.5314 277.27 27.6784ZM277.927 27.6784C277.931 28.203 278.115 28.5515 278.488 28.5515C278.864 28.5515 279.041 28.203 279.041 27.6784C279.041 27.1498 278.876 26.7973 278.488 26.7973C278.119 26.8053 277.931 27.1538 277.927 27.6784Z" fill="#113287"/>
<path d="M175.219 25.8282V26.4449H172.319V27.1337C173.633 27.2058 174.414 27.6464 174.418 28.3993C174.414 29.2123 173.484 29.6688 171.943 29.6648C170.381 29.6688 169.452 29.2123 169.452 28.3993C169.452 27.6464 170.233 27.2018 171.566 27.1337V26.4449H168.675V25.8282H175.219ZM169.019 24.851C170.309 24.7188 171.326 24.1341 171.43 23.4413H169.275V22.8325H174.634V23.4413H172.455C172.559 24.1381 173.569 24.7188 174.882 24.851L174.61 25.4517C173.364 25.3075 172.335 24.7829 171.947 24.022C171.55 24.7829 170.529 25.3075 169.283 25.4517L169.019 24.851ZM170.22 28.3993C170.216 28.8358 170.845 29.0881 171.943 29.0801C173.024 29.0881 173.657 28.8358 173.657 28.3993C173.657 27.9547 173.024 27.7144 171.943 27.7104C170.845 27.7144 170.216 27.9547 170.22 28.3993ZM181.578 25.8121V26.4209H179.408V28.175H182.331V28.7998H175.763V28.175H178.655V26.4209H176.58V23.0568H181.514V23.6735H177.341V25.8121H181.578ZM184.974 27.8706V27.1578L187.537 23.201H188.627V27.1257H189.42V27.8706H188.627V29H187.794V27.8706H184.974ZM185.903 27.1257H187.794V24.2502H187.73L185.903 27.0777V27.1257ZM190.661 29.0561C190.349 29.0521 190.089 28.7998 190.093 28.4874C190.089 28.175 190.349 27.9187 190.661 27.9187C190.97 27.9187 191.226 28.175 191.23 28.4874C191.226 28.7998 190.97 29.0521 190.661 29.0561ZM194.129 29.0801C193.032 29.0801 192.207 28.4113 192.167 27.4862H193.024C193.072 27.9788 193.545 28.3392 194.129 28.3432C194.834 28.3392 195.339 27.8306 195.339 27.1417C195.339 26.4369 194.818 25.9243 194.089 25.9163C193.625 25.9163 193.268 26.0725 193.072 26.4289H192.239L192.616 23.201H195.9V23.9539H193.345L193.152 25.5799H193.208C193.449 25.3476 193.857 25.1914 194.298 25.1874C195.391 25.1914 196.196 26.0004 196.196 27.1177C196.196 28.2591 195.339 29.0801 194.129 29.0801ZM198.463 25.9563C197.67 25.9643 197.237 25.3756 197.245 24.5146C197.237 23.6655 197.69 23.0768 198.463 23.0808C199.26 23.0768 199.676 23.6655 199.68 24.5146C199.676 25.3796 199.244 25.9643 198.463 25.9563ZM197.902 29L201.883 23.201H202.612L198.631 29H197.902ZM197.902 24.5146C197.906 25.0472 198.09 25.3916 198.463 25.3956C198.839 25.3916 199.015 25.0472 199.015 24.5146C199.015 23.9939 198.851 23.6375 198.463 23.6415C198.09 23.6495 197.906 23.9979 197.902 24.5146ZM200.906 27.6784C200.902 26.8214 201.35 26.2326 202.123 26.2367C202.916 26.2326 203.337 26.8214 203.341 27.6784C203.337 28.5354 202.904 29.1201 202.123 29.1201C201.334 29.1201 200.902 28.5314 200.906 27.6784ZM201.562 27.6784C201.566 28.203 201.751 28.5515 202.123 28.5515C202.5 28.5515 202.676 28.203 202.676 27.6784C202.676 27.1498 202.512 26.7973 202.123 26.7973C201.755 26.8053 201.566 27.1538 201.562 27.6784Z" fill="white"/>
<path d="M101.489 23.193V23.8978C101.485 24.7829 101.485 25.7761 101.217 27.2459L100.448 27.1658C100.724 25.7761 100.724 24.7589 100.728 23.8978V23.8097H96.3711V23.193H101.489ZM95.6822 28.7117V28.0789H98.1733V25.5478H98.9262V28.0789H102.226V28.7117H95.6822ZM108.586 25.8121V26.4209H106.415V28.175H109.339V28.7998H102.771V28.175H105.662V26.4209H103.588V23.0568H108.522V23.6735H104.349V25.8121H108.586ZM114.313 23.201V29H113.424V24.082H113.392L112.006 24.9871V24.1461L113.448 23.201H114.313ZM116.027 29.0561C115.715 29.0521 115.454 28.7998 115.458 28.4874C115.454 28.175 115.715 27.9187 116.027 27.9187C116.335 27.9187 116.592 28.175 116.596 28.4874C116.592 28.7998 116.335 29.0521 116.027 29.0561ZM119.447 29.0801C118.186 29.0801 117.308 28.3993 117.316 27.4541C117.308 26.7092 117.841 26.1005 118.526 25.9964V25.9643C117.929 25.8282 117.533 25.2995 117.533 24.6668C117.533 23.7737 118.338 23.1209 119.447 23.1209C120.54 23.1209 121.349 23.7737 121.353 24.6668C121.349 25.2995 120.945 25.8282 120.36 25.9643V25.9964C121.037 26.1005 121.574 26.7092 121.578 27.4541C121.574 28.3993 120.689 29.0801 119.447 29.0801ZM118.214 27.39C118.202 27.9587 118.682 28.3512 119.447 28.3512C120.2 28.3512 120.681 27.9587 120.681 27.39C120.681 26.7933 120.16 26.3568 119.447 26.3568C118.726 26.3568 118.202 26.7933 118.214 27.39ZM118.39 24.7468C118.394 25.2875 118.826 25.664 119.447 25.66C120.052 25.664 120.492 25.2915 120.488 24.7468C120.492 24.2062 120.068 23.8377 119.447 23.8418C118.81 23.8377 118.394 24.2062 118.39 24.7468ZM123.82 25.9563C123.027 25.9643 122.595 25.3756 122.603 24.5146C122.595 23.6655 123.047 23.0768 123.82 23.0808C124.617 23.0768 125.034 23.6655 125.038 24.5146C125.034 25.3796 124.601 25.9643 123.82 25.9563ZM123.26 29L127.24 23.201H127.969L123.989 29H123.26ZM123.26 24.5146C123.264 25.0472 123.448 25.3916 123.82 25.3956C124.197 25.3916 124.373 25.0472 124.373 24.5146C124.373 23.9939 124.209 23.6375 123.82 23.6415C123.448 23.6495 123.264 23.9979 123.26 24.5146ZM126.263 27.6784C126.259 26.8214 126.708 26.2326 127.481 26.2367C128.274 26.2326 128.694 26.8214 128.698 27.6784C128.694 28.5354 128.262 29.1201 127.481 29.1201C126.692 29.1201 126.259 28.5314 126.263 27.6784ZM126.92 27.6784C126.924 28.203 127.108 28.5515 127.481 28.5515C127.857 28.5515 128.033 28.203 128.033 27.6784C128.033 27.1498 127.869 26.7973 127.481 26.7973C127.112 26.8053 126.924 27.1538 126.92 27.6784Z" fill="white"/>
<path d="M23.5615 28.175V28.7998H16.9935V28.175H19.8931V26.6131H20.646V28.175H23.5615ZM17.3139 26.2687C18.7877 26.0524 19.849 25.2194 19.885 24.2102H17.5863V23.5934H19.8931V22.6323H20.646V23.5934H22.9528V24.2102H20.654C20.69 25.2194 21.7513 26.0524 23.2251 26.2687L22.9367 26.8614C21.7353 26.6732 20.7341 26.1045 20.2655 25.2675C19.8009 26.1045 18.8037 26.6732 17.6023 26.8614L17.3139 26.2687ZM29.8892 23.193V23.8978C29.8852 24.7829 29.8852 25.7761 29.6168 27.2459L28.8479 27.1658C29.1242 25.7761 29.1242 24.7589 29.1282 23.8978V23.8097H24.771V23.193H29.8892ZM24.0821 28.7117V28.0789H26.5731V25.5478H27.3261V28.0789H30.6261V28.7117H24.0821ZM36.9858 25.8121V26.4209H34.8151V28.175H37.7387V28.7998H31.1707V28.175H34.0622V26.4209H31.9877V23.0568H36.9217V23.6735H32.7486V25.8121H36.9858ZM42.5285 29.0801C41.1869 29.0801 40.3979 27.9988 40.3979 26.1005C40.3979 24.2142 41.1949 23.1209 42.5285 23.1209C43.8581 23.1209 44.6551 24.2142 44.6591 26.1005C44.6551 27.9988 43.8701 29.0801 42.5285 29.0801ZM41.279 26.1005C41.275 27.5462 41.7435 28.3192 42.5285 28.3192C43.3094 28.3192 43.778 27.5462 43.778 26.1005C43.778 24.6587 43.3054 23.8698 42.5285 23.8658C41.7475 23.8698 41.279 24.6587 41.279 26.1005ZM45.9246 29.0561C45.6122 29.0521 45.3519 28.7998 45.3559 28.4874C45.3519 28.175 45.6122 27.9187 45.9246 27.9187C46.233 27.9187 46.4893 28.175 46.4933 28.4874C46.4893 28.7998 46.233 29.0521 45.9246 29.0561ZM47.3904 27.8706V27.1578L49.9535 23.201H51.0428V27.1257H51.8358V27.8706H51.0428V29H50.2098V27.8706H47.3904ZM48.3195 27.1257H50.2098V24.2502H50.1457L48.3195 27.0777V27.1257ZM54.0544 25.9563C53.2615 25.9643 52.829 25.3756 52.837 24.5146C52.829 23.6655 53.2815 23.0768 54.0544 23.0808C54.8514 23.0768 55.2679 23.6655 55.2719 24.5146C55.2679 25.3796 54.8354 25.9643 54.0544 25.9563ZM53.4938 29L57.4746 23.201H58.2035L54.2226 29H53.4938ZM53.4938 24.5146C53.4978 25.0472 53.682 25.3916 54.0544 25.3956C54.4309 25.3916 54.6071 25.0472 54.6071 24.5146C54.6071 23.9939 54.4429 23.6375 54.0544 23.6415C53.682 23.6495 53.4978 23.9979 53.4938 24.5146ZM56.4974 27.6784C56.4934 26.8214 56.9419 26.2326 57.7149 26.2367C58.5078 26.2326 58.9283 26.8214 58.9323 27.6784C58.9283 28.5354 58.4958 29.1201 57.7149 29.1201C56.9259 29.1201 56.4934 28.5314 56.4974 27.6784ZM57.1542 27.6784C57.1582 28.203 57.3424 28.5515 57.7149 28.5515C58.0913 28.5515 58.2675 28.203 58.2675 27.6784C58.2675 27.1498 58.1033 26.7973 57.7149 26.7973C57.3464 26.8053 57.1582 27.1538 57.1542 27.6784Z" fill="white"/>
<path d="M470.576 23.193V23.8978C470.572 24.7829 470.572 25.7761 470.304 27.2459L469.535 27.1658C469.812 25.7761 469.812 24.7589 469.816 23.8978V23.8097H465.458V23.193H470.576ZM464.769 28.7117V28.0789H467.26V25.5478H468.013V28.0789H471.313V28.7117H464.769ZM477.673 25.8121V26.4209H475.502V28.175H478.426V28.7998H471.858V28.175H474.749V26.4209H472.675V23.0568H477.609V23.6735H473.436V25.8121H477.673ZM483.4 23.201V29H482.511V24.082H482.479L481.093 24.9871V24.1461L482.535 23.201H483.4ZM485.114 29.0561C484.802 29.0521 484.541 28.7998 484.545 28.4874C484.541 28.175 484.802 27.9187 485.114 27.9187C485.422 27.9187 485.679 28.175 485.683 28.4874C485.679 28.7998 485.422 29.0521 485.114 29.0561ZM488.534 29.0801C487.273 29.0801 486.396 28.3993 486.404 27.4541C486.396 26.7092 486.928 26.1005 487.613 25.9964V25.9643C487.016 25.8282 486.62 25.2995 486.62 24.6668C486.62 23.7737 487.425 23.1209 488.534 23.1209C489.628 23.1209 490.436 23.7737 490.441 24.6668C490.436 25.2995 490.032 25.8282 489.447 25.9643V25.9964C490.124 26.1005 490.661 26.7092 490.665 27.4541C490.661 28.3993 489.776 29.0801 488.534 29.0801ZM487.301 27.39C487.289 27.9587 487.769 28.3512 488.534 28.3512C489.287 28.3512 489.768 27.9587 489.768 27.39C489.768 26.7933 489.247 26.3568 488.534 26.3568C487.813 26.3568 487.289 26.7933 487.301 27.39ZM487.477 24.7468C487.481 25.2875 487.913 25.664 488.534 25.66C489.139 25.664 489.579 25.2915 489.575 24.7468C489.579 24.2062 489.155 23.8377 488.534 23.8418C487.897 23.8377 487.481 24.2062 487.477 24.7468ZM492.907 25.9563C492.115 25.9643 491.682 25.3756 491.69 24.5146C491.682 23.6655 492.135 23.0768 492.907 23.0808C493.704 23.0768 494.121 23.6655 494.125 24.5146C494.121 25.3796 493.688 25.9643 492.907 25.9563ZM492.347 29L496.328 23.201H497.057L493.076 29H492.347ZM492.347 24.5146C492.351 25.0472 492.535 25.3916 492.907 25.3956C493.284 25.3916 493.46 25.0472 493.46 24.5146C493.46 23.9939 493.296 23.6375 492.907 23.6415C492.535 23.6495 492.351 23.9979 492.347 24.5146ZM495.35 27.6784C495.346 26.8214 495.795 26.2326 496.568 26.2367C497.361 26.2326 497.781 26.8214 497.785 27.6784C497.781 28.5354 497.349 29.1201 496.568 29.1201C495.779 29.1201 495.346 28.5314 495.35 27.6784ZM496.007 27.6784C496.011 28.203 496.195 28.5515 496.568 28.5515C496.944 28.5515 497.121 28.203 497.121 27.6784C497.121 27.1498 496.956 26.7973 496.568 26.7973C496.199 26.8053 496.011 27.1538 496.007 27.6784Z" fill="white"/>
<path d="M394.881 25.8282V26.4449H391.981V27.1337C393.295 27.2058 394.076 27.6464 394.08 28.3993C394.076 29.2123 393.147 29.6688 391.605 29.6648C390.043 29.6688 389.114 29.2123 389.114 28.3993C389.114 27.6464 389.895 27.2018 391.228 27.1337V26.4449H388.337V25.8282H394.881ZM388.681 24.851C389.971 24.7188 390.988 24.1341 391.092 23.4413H388.938V22.8325H394.296V23.4413H392.117C392.222 24.1381 393.231 24.7188 394.544 24.851L394.272 25.4517C393.027 25.3075 391.997 24.7829 391.609 24.022C391.212 24.7829 390.191 25.3075 388.946 25.4517L388.681 24.851ZM389.883 28.3993C389.879 28.8358 390.507 29.0881 391.605 29.0801C392.686 29.0881 393.319 28.8358 393.319 28.3993C393.319 27.9547 392.686 27.7144 391.605 27.7104C390.507 27.7144 389.879 27.9547 389.883 28.3993ZM401.24 25.8121V26.4209H399.07V28.175H401.993V28.7998H395.425V28.175H398.317V26.4209H396.242V23.0568H401.176V23.6735H397.003V25.8121H401.24ZM406.967 23.201V29H406.078V24.082H406.046L404.661 24.9871V24.1461L406.102 23.201H406.967ZM410.468 29.0801C409.206 29.0801 408.329 28.3993 408.337 27.4541C408.329 26.7092 408.862 26.1005 409.547 25.9964V25.9643C408.95 25.8282 408.553 25.2995 408.553 24.6668C408.553 23.7737 409.358 23.1209 410.468 23.1209C411.561 23.1209 412.37 23.7737 412.374 24.6668C412.37 25.2995 411.965 25.8282 411.381 25.9643V25.9964C412.058 26.1005 412.594 26.7092 412.598 27.4541C412.594 28.3993 411.709 29.0801 410.468 29.0801ZM409.234 27.39C409.222 27.9587 409.703 28.3512 410.468 28.3512C411.221 28.3512 411.701 27.9587 411.701 27.39C411.701 26.7933 411.181 26.3568 410.468 26.3568C409.747 26.3568 409.222 26.7933 409.234 27.39ZM409.41 24.7468C409.414 25.2875 409.847 25.664 410.468 25.66C411.072 25.664 411.513 25.2915 411.509 24.7468C411.513 24.2062 411.088 23.8377 410.468 23.8418C409.831 23.8377 409.414 24.2062 409.41 24.7468ZM413.904 29.0561C413.591 29.0521 413.331 28.7998 413.335 28.4874C413.331 28.175 413.591 27.9187 413.904 27.9187C414.212 27.9187 414.469 28.175 414.473 28.4874C414.469 28.7998 414.212 29.0521 413.904 29.0561ZM415.498 29V28.3592L417.508 26.3328C418.145 25.672 418.461 25.3035 418.461 24.7949C418.461 24.2222 417.997 23.8578 417.388 23.8578C416.743 23.8578 416.335 24.2663 416.331 24.883H415.498C415.49 23.8217 416.299 23.1209 417.404 23.1209C418.521 23.1209 419.294 23.8297 419.302 24.7709C419.294 25.4197 418.99 25.9363 417.901 27.0056L416.723 28.199V28.2471H419.398V29H415.498ZM421.705 25.9563C420.912 25.9643 420.48 25.3756 420.488 24.5146C420.48 23.6655 420.932 23.0768 421.705 23.0808C422.502 23.0768 422.919 23.6655 422.923 24.5146C422.919 25.3796 422.486 25.9643 421.705 25.9563ZM421.145 29L425.125 23.201H425.854L421.873 29H421.145ZM421.145 24.5146C421.149 25.0472 421.333 25.3916 421.705 25.3956C422.082 25.3916 422.258 25.0472 422.258 24.5146C422.258 23.9939 422.094 23.6375 421.705 23.6415C421.333 23.6495 421.149 23.9979 421.145 24.5146ZM424.148 27.6784C424.144 26.8214 424.593 26.2326 425.366 26.2367C426.159 26.2326 426.579 26.8214 426.583 27.6784C426.579 28.5354 426.147 29.1201 425.366 29.1201C424.577 29.1201 424.144 28.5314 424.148 27.6784ZM424.805 27.6784C424.809 28.203 424.993 28.5515 425.366 28.5515C425.742 28.5515 425.918 28.203 425.918 27.6784C425.918 27.1498 425.754 26.7973 425.366 26.7973C424.997 26.8053 424.809 27.1538 424.805 27.6784Z" fill="white"/>
<path d="M320.006 22.5121V26.7573H319.245V25.8842H317.435V25.2595H319.245V24.3864H317.511C317.047 25.5398 315.969 26.3528 314.415 26.7973L314.111 26.2046C315.809 25.72 316.802 24.8069 316.938 23.6495H314.479V23.0248H317.763C317.763 23.2891 317.735 23.5454 317.687 23.7857H319.245V22.5121H320.006ZM315.224 28.2391C315.224 27.37 316.169 26.8414 317.643 26.8374C319.097 26.8414 320.05 27.37 320.054 28.2391C320.05 29.1121 319.097 29.6488 317.643 29.6488C316.169 29.6488 315.224 29.1121 315.224 28.2391ZM315.977 28.2391C315.977 28.7437 316.618 29.036 317.643 29.04C318.648 29.036 319.289 28.7437 319.293 28.2391C319.289 27.7265 318.648 27.4341 317.643 27.4381C316.618 27.4341 315.977 27.7265 315.977 28.2391ZM326.926 25.8121V26.4209H324.756V28.175H327.679V28.7998H321.111V28.175H324.003V26.4209H321.928V23.0568H326.862V23.6735H322.689V25.8121H326.926ZM330.651 29L333.238 24.0019V23.9539H330.251V23.201H334.151V23.9859L331.572 29H330.651ZM336.955 23.1209C338.02 23.1289 339.137 23.7697 339.141 25.8922C339.141 27.9267 338.264 29.0801 336.875 29.0801C335.805 29.0801 335.06 28.4193 334.92 27.4782H335.793C335.913 27.9667 336.29 28.3072 336.875 28.3112C337.768 28.3072 338.292 27.5302 338.3 26.2046H338.228C337.916 26.6932 337.371 26.9896 336.746 26.9896C335.705 26.9896 334.872 26.1926 334.872 25.0833C334.872 23.9779 335.693 23.1129 336.955 23.1209ZM335.729 25.0672C335.733 25.7401 336.234 26.2727 336.939 26.2687C337.639 26.2727 338.18 25.7 338.18 25.0592C338.18 24.4305 337.664 23.8578 336.955 23.8578C336.254 23.8578 335.725 24.4024 335.729 25.0672ZM340.423 29.0561C340.11 29.0521 339.85 28.7998 339.854 28.4874C339.85 28.175 340.11 27.9187 340.423 27.9187C340.731 27.9187 340.988 28.175 340.992 28.4874C340.988 28.7998 340.731 29.0521 340.423 29.0561ZM343.939 23.1209C345.004 23.1289 346.122 23.7697 346.126 25.8922C346.126 27.9267 345.249 29.0801 343.859 29.0801C342.79 29.0801 342.045 28.4193 341.905 27.4782H342.778C342.898 27.9667 343.274 28.3072 343.859 28.3112C344.752 28.3072 345.277 27.5302 345.285 26.2046H345.213C344.9 26.6932 344.356 26.9896 343.731 26.9896C342.69 26.9896 341.857 26.1926 341.857 25.0833C341.857 23.9779 342.678 23.1129 343.939 23.1209ZM342.714 25.0672C342.718 25.7401 343.218 26.2727 343.923 26.2687C344.624 26.2727 345.165 25.7 345.165 25.0592C345.165 24.4305 344.648 23.8578 343.939 23.8578C343.238 23.8578 342.71 24.4024 342.714 25.0672ZM348.384 25.9563C347.592 25.9643 347.159 25.3756 347.167 24.5146C347.159 23.6655 347.612 23.0768 348.384 23.0808C349.181 23.0768 349.598 23.6655 349.602 24.5146C349.598 25.3796 349.165 25.9643 348.384 25.9563ZM347.824 29L351.805 23.201H352.534L348.553 29H347.824ZM347.824 24.5146C347.828 25.0472 348.012 25.3916 348.384 25.3956C348.761 25.3916 348.937 25.0472 348.937 24.5146C348.937 23.9939 348.773 23.6375 348.384 23.6415C348.012 23.6495 347.828 23.9979 347.824 24.5146ZM350.827 27.6784C350.823 26.8214 351.272 26.2326 352.045 26.2367C352.838 26.2326 353.258 26.8214 353.262 27.6784C353.258 28.5354 352.826 29.1201 352.045 29.1201C351.256 29.1201 350.823 28.5314 350.827 27.6784ZM351.484 27.6784C351.488 28.203 351.672 28.5515 352.045 28.5515C352.421 28.5515 352.598 28.203 352.598 27.6784C352.598 27.1498 352.433 26.7973 352.045 26.7973C351.676 26.8053 351.488 27.1538 351.484 27.6784Z" fill="#113287"/>
<path d="M541.811 28.2538V28.8786H535.243V28.2538H538.142V26.6919H538.895V28.2538H541.811ZM535.563 26.3475C537.037 26.1312 538.098 25.2982 538.134 24.289H535.836V23.6722H538.142V22.7111H538.895V23.6722H541.202V24.289H538.903C538.939 25.2982 540.001 26.1312 541.474 26.3475L541.186 26.9402C539.985 26.752 538.983 26.1833 538.515 25.3463C538.05 26.1833 537.053 26.752 535.852 26.9402L535.563 26.3475ZM548.138 23.2718V23.9766C548.134 24.8617 548.134 25.8549 547.866 27.3247L547.097 27.2446C547.374 25.8549 547.374 24.8377 547.378 23.9766V23.8885H543.02V23.2718H548.138ZM542.331 28.7904V28.1577H544.822V25.6266H545.575V28.1577H548.875V28.7904H542.331ZM555.235 25.8909V26.4997H553.064V28.2538H555.988V28.8786H549.42V28.2538H552.311V26.4997H550.237V23.1356H555.171V23.7523H550.998V25.8909H555.235ZM560.778 29.1589C559.436 29.1589 558.647 28.0776 558.647 26.1793C558.647 24.293 559.444 23.1997 560.778 23.1997C562.107 23.1997 562.904 24.293 562.908 26.1793C562.904 28.0776 562.119 29.1589 560.778 29.1589ZM559.528 26.1793C559.524 27.625 559.993 28.398 560.778 28.398C561.559 28.398 562.027 27.625 562.027 26.1793C562.027 24.7375 561.555 23.9486 560.778 23.9446C559.997 23.9486 559.528 24.7375 559.528 26.1793ZM564.174 29.1349C563.861 29.1309 563.601 28.8786 563.605 28.5662C563.601 28.2538 563.861 27.9975 564.174 27.9975C564.482 27.9975 564.739 28.2538 564.743 28.5662C564.739 28.8786 564.482 29.1309 564.174 29.1349ZM567.266 23.2798V29.0788H566.377V24.1608H566.344L564.959 25.0659V24.2249L566.401 23.2798H567.266ZM570.069 26.0351C569.276 26.0431 568.844 25.4544 568.852 24.5934C568.844 23.7443 569.296 23.1556 570.069 23.1596C570.866 23.1556 571.282 23.7443 571.286 24.5934C571.282 25.4584 570.85 26.0431 570.069 26.0351ZM569.508 29.0788L573.489 23.2798H574.218L570.237 29.0788H569.508ZM569.508 24.5934C569.512 25.126 569.697 25.4704 570.069 25.4744C570.445 25.4704 570.622 25.126 570.622 24.5934C570.622 24.0727 570.457 23.7163 570.069 23.7203C569.697 23.7283 569.512 24.0767 569.508 24.5934ZM572.512 27.7572C572.508 26.9002 572.957 26.3114 573.729 26.3154C574.522 26.3114 574.943 26.9002 574.947 27.7572C574.943 28.6142 574.51 29.1989 573.729 29.1989C572.94 29.1989 572.508 28.6102 572.512 27.7572ZM573.169 27.7572C573.173 28.2818 573.357 28.6303 573.729 28.6303C574.106 28.6303 574.282 28.2818 574.282 27.7572C574.282 27.2286 574.118 26.8761 573.729 26.8761C573.361 26.8841 573.173 27.2326 573.169 27.7572Z" fill="white"/>
<path d="M-338 -419H2975V-421H-338V-419ZM2976 -418V1552H2978V-418H2976ZM2975 1553H-338V1555H2975V1553ZM-339 1552V-418H-341V1552H-339ZM-338 1553C-338.552 1553 -339 1552.55 -339 1552H-341C-341 1553.66 -339.657 1555 -338 1555V1553ZM2976 1552C2976 1552.55 2975.55 1553 2975 1553V1555C2976.66 1555 2978 1553.66 2978 1552H2976ZM2975 -419C2975.55 -419 2976 -418.552 2976 -418H2978C2978 -419.657 2976.66 -421 2975 -421V-419ZM-338 -421C-339.657 -421 -341 -419.657 -341 -418H-339C-339 -418.552 -338.552 -419 -338 -419V-421Z" fill="black" fill-opacity="0.1"/>
</svg>
