<svg width="593" height="74" viewBox="0 0 593 74" fill="none" xmlns="http://www.w3.org/2000/svg">
<rect width="593" height="74" fill="#727272"/>
<path d="M-340 -829C-340 -830.105 -339.105 -831 -338 -831H2975C2976.1 -831 2977 -830.105 2977 -829V1141C2977 1142.1 2976.1 1143 2975 1143H-338C-339.105 1143 -340 1142.1 -340 1141V-829Z" fill="white"/>
<path d="M-338 -830H2975V-832H-338V-830ZM2976 -829V1141H2978V-829H2976ZM2975 1142H-338V1144H2975V1142ZM-339 1141V-829H-341V1141H-339ZM-338 1142C-338.552 1142 -339 1141.55 -339 1141H-341C-341 1142.66 -339.657 1144 -338 1144V1142ZM2976 1141C2976 1141.55 2975.55 1142 2975 1142V1144C2976.66 1144 2978 1142.66 2978 1141H2976ZM2975 -830C2975.55 -830 2976 -829.552 2976 -829H2978C2978 -830.657 2976.66 -832 2975 -832V-830ZM-338 -832C-339.657 -832 -341 -830.657 -341 -829H-339C-339 -829.552 -338.552 -830 -338 -830V-832Z" fill="black" fill-opacity="0.1"/>
<path fill-rule="evenodd" clip-rule="evenodd" d="M111.957 40.0133V12.5232H112.777V40.0133H111.957Z" fill="#979797"/>
<path d="M6.18832 15.9041H29.8162V35.5887H6.18832L0 25.7464L6.18832 15.9041Z" fill="#001A5B"/>
<path d="M292.134 62.8017C293.255 62.8088 294.002 62.0339 294.002 61.021C294.002 60.0227 293.252 59.309 292.322 59.3054C291.756 59.309 291.266 59.5685 290.981 60.0119H290.924C290.924 58.8333 291.392 58.134 292.199 58.1304C292.726 58.134 293.061 58.4404 293.165 58.8657H293.951C293.829 58.0367 293.162 57.4384 292.199 57.4384C290.948 57.4384 290.162 58.4764 290.159 60.293C290.159 62.2213 291.169 62.7944 292.134 62.8017ZM291.017 61.0427C291.024 60.4624 291.511 59.9506 292.149 59.9542C292.776 59.9506 293.23 60.4371 293.23 61.0355C293.23 61.6446 292.758 62.1348 292.127 62.1384C291.485 62.1348 291.02 61.623 291.017 61.0427Z" fill="#001A5B"/>
<path d="M296.662 62.8016C297.869 62.8016 298.575 61.8284 298.579 60.12C298.575 58.4223 297.858 57.4384 296.662 57.4384C295.461 57.4384 294.744 58.4223 294.744 60.12C294.744 61.8284 295.454 62.8016 296.662 62.8016ZM295.537 60.12C295.537 58.8224 295.959 58.1124 296.662 58.1088C297.36 58.1124 297.786 58.8224 297.786 60.12C297.786 61.4211 297.364 62.1168 296.662 62.1168C295.955 62.1168 295.533 61.4211 295.537 60.12Z" fill="#001A5B"/>
<path d="M301.167 62.7296C302.756 62.7296 303.672 61.742 303.676 60.1128C303.672 58.4873 302.756 57.5105 301.217 57.5105H299.473V62.7296H301.167ZM300.265 62.0376V58.2025H301.167C302.306 58.2025 302.89 58.8837 302.89 60.1128C302.89 61.3455 302.306 62.0339 301.123 62.0376H300.265Z" fill="#001A5B"/>
<path d="M275.659 66.5807H275.153V69.9511H273.973V70.3163H275.153V70.9059H275.659V66.5807ZM270.93 69.2206L271 69.6307C271.478 69.6307 272.025 69.6307 272.602 69.6084V70.7072H273.108V69.5827C273.631 69.5507 274.166 69.4994 274.672 69.4193L274.64 69.0541C273.419 69.2046 271.99 69.2142 270.93 69.2206ZM271.391 67.8045C271.388 68.4132 271.958 68.7914 272.801 68.7914C273.637 68.7914 274.207 68.4132 274.21 67.8045C274.207 67.2054 273.637 66.8113 272.801 66.8113C271.958 66.8113 271.388 67.2054 271.391 67.8045ZM271.75 72.149H275.8V71.7261H272.256V70.483H271.75V72.149ZM271.872 67.8045C271.866 67.4393 272.244 67.1894 272.801 67.1958C273.343 67.1894 273.727 67.4393 273.73 67.8045C273.727 68.1762 273.343 68.4164 272.801 68.4196C272.244 68.4164 271.866 68.1762 271.872 67.8045Z" fill="#001A5B"/>
<path d="M280.304 68.1057V67.0676H279.805V68.1057C279.798 69.1854 279.096 70.2748 278.247 70.6624L278.568 71.0853C279.234 70.7489 279.795 70.028 280.057 69.1694C280.33 69.98 280.891 70.656 281.541 70.97L281.849 70.5727C281.009 70.1914 280.301 69.147 280.304 68.1057ZM282.47 72.2836H282.977V66.5742H282.47V72.2836Z" fill="#001A5B"/>
<path d="M314.862 67.7405H310.991V68.1506H314.361V68.1826C314.365 68.6664 314.365 69.2271 314.211 70.0153H310.331V70.4382H315.547V70.0153H314.711C314.862 69.2399 314.862 68.6632 314.862 68.1826V67.7405ZM311.023 72.9628H315.035V72.5399H311.523V71.0789H311.023V72.9628Z" fill="#001A5B"/>
<path d="M319.674 68.9259V67.8878H319.174V68.9259C319.168 70.0056 318.466 71.095 317.617 71.4826L317.937 71.9055C318.603 71.5691 319.164 70.8482 319.427 69.9896C319.699 70.8002 320.26 71.4762 320.911 71.7902L321.218 71.3929C320.378 71.0116 319.67 69.9672 319.674 68.9259ZM321.84 73.1038H322.346V67.3944H321.84V73.1038Z" fill="#001A5B"/>
<path d="M70.563 63.6218C71.6516 63.6218 72.4229 62.883 72.4229 61.8557C72.4229 60.8501 71.6984 60.122 70.7144 60.1185C70.3179 60.122 69.9503 60.2626 69.734 60.4716H69.6836L69.8566 59.0083H72.1561V58.3307H69.2006L68.8617 61.2358H69.6115C69.7881 60.915 70.1089 60.7745 70.527 60.7745C71.183 60.7816 71.6516 61.2429 71.6516 61.8774C71.6516 62.4973 71.1974 62.955 70.563 62.9586C70.0368 62.955 69.6115 62.6306 69.5682 62.1873H68.7969C68.833 63.0199 69.5754 63.6218 70.563 63.6218Z" fill="#001A5B"/>
<path d="M73.1511 62.5334H75.6886V63.5497H76.4383V62.5334H77.1519V61.8629H76.4383V58.3307H75.4579L73.1511 61.8918V62.5334ZM73.9873 61.8629V61.8197L75.6309 59.275H75.6886V61.8629H73.9873Z" fill="#001A5B"/>
<path d="M79.7182 63.5497C81.3077 63.5497 82.2236 62.5621 82.2269 60.933C82.2236 59.3075 81.3077 58.3307 79.7687 58.3307H78.0242V63.5497H79.7182ZM78.8171 62.8577V59.0227H79.7182C80.8572 59.0227 81.4411 59.7039 81.4411 60.933C81.4411 62.1657 80.8572 62.8541 79.675 62.8577H78.8171Z" fill="#001A5B"/>
<path d="M144.424 63.6218C145.512 63.6218 146.284 62.883 146.284 61.8557C146.284 60.8501 145.559 60.122 144.576 60.1185C144.179 60.122 143.811 60.2626 143.595 60.4716H143.545L143.718 59.0083H146.017V58.3307H143.062L142.723 61.2358H143.472C143.649 60.915 143.969 60.7745 144.388 60.7745C145.044 60.7816 145.512 61.2429 145.512 61.8774C145.512 62.4973 145.058 62.955 144.424 62.9586C143.897 62.955 143.472 62.6306 143.429 62.1873H142.658C142.694 63.0199 143.436 63.6218 144.424 63.6218Z" fill="#001A5B"/>
<path d="M149.016 63.6218C150.137 63.629 150.883 62.8541 150.883 61.8412C150.883 60.8429 150.133 60.1292 149.203 60.1256C148.637 60.1292 148.148 60.3887 147.862 60.8321H147.805C147.805 59.6535 148.273 58.9542 149.081 58.9505C149.607 58.9542 149.942 59.2606 150.046 59.6858H150.832C150.71 58.8569 150.043 58.2585 149.081 58.2585C147.83 58.2585 147.044 59.2966 147.04 61.1131C147.04 63.0415 148.05 63.6146 149.016 63.6218ZM147.898 61.8629C147.906 61.2826 148.392 60.7708 149.03 60.7744C149.658 60.7708 150.112 61.2573 150.112 61.8557C150.112 62.4648 149.639 62.955 149.009 62.9586C148.367 62.955 147.902 62.4432 147.898 61.8629Z" fill="#001A5B"/>
<path d="M153.493 63.5497C155.082 63.5497 155.997 62.5621 156.001 60.933C155.997 59.3075 155.082 58.3307 153.543 58.3307H151.798V63.5497H153.493ZM152.591 62.8577V59.0227H153.493C154.631 59.0227 155.215 59.7039 155.215 60.933C155.215 62.1657 154.631 62.8541 153.449 62.8577H152.591Z" fill="#001A5B"/>
<path d="M218.259 63.6218C219.348 63.6218 220.119 62.883 220.119 61.8557C220.119 60.8501 219.394 60.122 218.411 60.1185C218.014 60.122 217.647 60.2626 217.43 60.4716H217.38L217.553 59.0083H219.852V58.3307H216.897L216.558 61.2358H217.308C217.484 60.915 217.805 60.7745 218.223 60.7745C218.879 60.7816 219.348 61.2429 219.348 61.8774C219.348 62.4973 218.893 62.955 218.259 62.9586C217.733 62.955 217.308 62.6306 217.264 62.1873H216.493C216.529 63.0199 217.272 63.6218 218.259 63.6218Z" fill="#001A5B"/>
<path d="M222.786 63.6218C223.904 63.6218 224.7 63.0091 224.704 62.1585C224.7 61.4881 224.217 60.9402 223.608 60.8464V60.8176C224.134 60.6951 224.499 60.2193 224.502 59.6498C224.499 58.8461 223.77 58.2585 222.786 58.2585C221.788 58.2585 221.064 58.8461 221.064 59.6498C221.064 60.2193 221.42 60.6951 221.958 60.8176V60.8464C221.341 60.9402 220.862 61.4881 220.869 62.1585C220.862 63.0091 221.651 63.6218 222.786 63.6218ZM221.676 62.1007C221.666 61.5638 222.137 61.1709 222.786 61.1709C223.428 61.1709 223.897 61.5638 223.897 62.1007C223.897 62.6126 223.464 62.9658 222.786 62.9658C222.098 62.9658 221.666 62.6126 221.676 62.1007ZM221.835 59.7219C221.839 59.2353 222.214 58.9037 222.786 58.9073C223.345 58.9037 223.727 59.2353 223.724 59.7219C223.727 60.2121 223.331 60.5473 222.786 60.5437C222.227 60.5473 221.839 60.2085 221.835 59.7219Z" fill="#001A5B"/>
<path d="M227.292 63.5497C228.882 63.5497 229.797 62.5621 229.8 60.933C229.797 59.3075 228.882 58.3307 227.342 58.3307H225.598V63.5497H227.292ZM226.391 62.8577V59.0227H227.292C228.431 59.0227 229.015 59.7039 229.015 60.933C229.015 62.1657 228.431 62.8541 227.249 62.8577H226.391Z" fill="#001A5B"/>
<path d="M365.926 62.8017C367.047 62.8088 367.794 62.0339 367.794 61.021C367.794 60.0227 367.044 59.309 366.114 59.3054C365.548 59.309 365.058 59.5685 364.773 60.0119H364.716C364.716 58.8333 365.184 58.134 365.992 58.1304C366.518 58.134 366.853 58.4404 366.957 58.8657H367.743C367.621 58.0367 366.954 57.4384 365.992 57.4384C364.741 57.4384 363.955 58.4764 363.951 60.293C363.951 62.2213 364.961 62.7944 365.926 62.8017ZM364.809 61.0427C364.816 60.4624 365.303 59.9506 365.941 59.9542C366.568 59.9506 367.022 60.4371 367.022 61.0355C367.022 61.6446 366.55 62.1348 365.92 62.1384C365.277 62.1348 364.813 61.623 364.809 61.0427Z" fill="#001A5B"/>
<path d="M370.49 62.8016C371.571 62.8016 372.374 62.1637 372.371 61.295C372.374 60.6354 371.96 60.1561 371.247 60.0551V60.0191C371.809 59.8785 372.177 59.4532 372.169 58.8584C372.177 58.0871 371.531 57.4384 370.504 57.4384C369.531 57.4384 368.745 58.015 368.724 58.8657H369.487C369.505 58.3935 369.975 58.1016 370.497 58.1016C371.048 58.1016 371.405 58.4259 371.405 58.9017C371.405 59.4027 370.991 59.7343 370.396 59.7307H369.949V60.3795H370.396C371.142 60.3831 371.571 60.7507 371.571 61.2662C371.571 61.7744 371.113 62.1168 370.482 62.1168C369.898 62.1168 369.445 61.8248 369.415 61.3671H368.608C368.641 62.2213 369.409 62.8016 370.49 62.8016Z" fill="#001A5B"/>
<path d="M375.01 62.7296C376.599 62.7296 377.515 61.742 377.518 60.1128C377.515 58.4873 376.599 57.5105 375.06 57.5105H373.315V62.7296H375.01ZM374.108 62.0376V58.2025H375.01C376.148 58.2025 376.732 58.8837 376.732 60.1128C376.732 61.3455 376.148 62.0339 374.966 62.0376H374.108Z" fill="#001A5B"/>
<path d="M439.748 62.8017C440.869 62.8088 441.615 62.0339 441.615 61.021C441.615 60.0227 440.865 59.309 439.935 59.3054C439.369 59.309 438.879 59.5685 438.595 60.0119H438.536C438.536 58.8333 439.005 58.134 439.813 58.1304C440.339 58.134 440.674 58.4404 440.779 58.8657H441.564C441.441 58.0367 440.775 57.4384 439.813 57.4384C438.562 57.4384 437.776 58.4764 437.773 60.293C437.773 62.2213 438.782 62.7944 439.748 62.8017ZM438.631 61.0427C438.637 60.4624 439.124 59.9506 439.762 59.9542C440.389 59.9506 440.844 60.4371 440.844 61.0355C440.844 61.6446 440.371 62.1348 439.74 62.1384C439.099 62.1348 438.634 61.623 438.631 61.0427Z" fill="#001A5B"/>
<path d="M444.346 62.8017C445.468 62.8088 446.214 62.0339 446.214 61.021C446.214 60.0227 445.464 59.309 444.534 59.3054C443.968 59.309 443.478 59.5685 443.193 60.0119H443.136C443.136 58.8333 443.604 58.134 444.411 58.1304C444.938 58.134 445.273 58.4404 445.377 58.8657H446.163C446.041 58.0367 445.374 57.4384 444.411 57.4384C443.16 57.4384 442.375 58.4764 442.371 60.293C442.371 62.2213 443.381 62.7944 444.346 62.8017ZM443.229 61.0427C443.237 60.4624 443.723 59.9506 444.361 59.9542C444.989 59.9506 445.442 60.4371 445.442 61.0355C445.442 61.6446 444.971 62.1348 444.34 62.1384C443.698 62.1348 443.233 61.623 443.229 61.0427Z" fill="#001A5B"/>
<path d="M448.823 62.7296C450.413 62.7296 451.329 61.742 451.332 60.1128C451.329 58.4873 450.413 57.5105 448.874 57.5105H447.129V62.7296H448.823ZM447.923 62.0376V58.2025H448.823C449.962 58.2025 450.546 58.8837 450.546 60.1128C450.546 61.3455 449.962 62.0339 448.78 62.0376H447.923Z" fill="#001A5B"/>
<path d="M513.565 62.8017C514.686 62.8089 515.432 62.034 515.432 61.0211C515.432 60.0227 514.682 59.3091 513.752 59.3054C513.186 59.3091 512.697 59.5686 512.412 60.0119H512.354C512.354 58.8333 512.823 58.134 513.63 58.1304C514.157 58.134 514.491 58.4404 514.596 58.8657H515.382C515.259 58.0367 514.592 57.4384 513.63 57.4384C512.379 57.4384 511.593 58.4765 511.59 60.293C511.59 62.2214 512.599 62.7945 513.565 62.8017ZM512.448 61.0428C512.455 60.4624 512.942 59.9506 513.579 59.9542C514.206 59.9506 514.661 60.4372 514.661 61.0356C514.661 61.6447 514.188 62.1349 513.558 62.1385C512.916 62.1349 512.451 61.6231 512.448 61.0428Z" fill="#001A5B"/>
<path d="M518.07 57.4384C516.935 57.4312 516.196 58.2098 516.196 59.2047C516.196 60.203 516.946 60.9203 517.883 60.9203C518.445 60.9203 518.936 60.6536 519.217 60.2138H519.282C519.274 61.4069 518.802 62.1062 517.998 62.1097C517.473 62.1062 517.133 61.7997 517.026 61.36H516.24C516.365 62.2071 517.036 62.8018 517.998 62.8018C519.249 62.8018 520.038 61.7637 520.038 59.9327C520.035 58.0223 519.029 57.4457 518.07 57.4384ZM516.967 59.1902C516.964 58.5919 517.44 58.1017 518.07 58.1017C518.709 58.1017 519.174 58.6171 519.174 59.183C519.174 59.7597 518.687 60.2751 518.056 60.2715C517.422 60.2751 516.971 59.7958 516.967 59.1902Z" fill="#001A5B"/>
<path d="M522.64 62.7296C524.23 62.7296 525.146 61.742 525.149 60.1129C525.146 58.4873 524.23 57.5105 522.691 57.5105H520.947V62.7296H522.64ZM521.74 62.0376V58.2026H522.64C523.78 58.2026 524.364 58.8837 524.364 60.1129C524.364 61.3456 523.78 62.034 522.598 62.0376H521.74Z" fill="#001A5B"/>
<path fill-rule="evenodd" clip-rule="evenodd" d="M38.1389 40.0133V12.5232H38.9591V40.0133H38.1389Z" fill="#979797"/>
<path fill-rule="evenodd" clip-rule="evenodd" d="M185.774 40.0133V12.5232H186.594V40.0133H185.774Z" fill="#979797"/>
<path fill-rule="evenodd" clip-rule="evenodd" d="M259.591 40.0133V12.5232H260.411V40.0133H259.591Z" fill="#979797"/>
<path fill-rule="evenodd" clip-rule="evenodd" d="M321.106 40.0133V12.5232H321.926V40.0133H321.106Z" fill="#979797"/>
<path fill-rule="evenodd" clip-rule="evenodd" d="M345.712 40.0133V12.5232H346.532V40.0133H345.712Z" fill="#979797"/>
<path fill-rule="evenodd" clip-rule="evenodd" d="M394.923 40.0133V12.5232H395.744V40.0133H394.923Z" fill="#979797"/>
<path fill-rule="evenodd" clip-rule="evenodd" d="M419.529 40.0133V12.5232H420.349V40.0133H419.529Z" fill="#979797"/>
<path fill-rule="evenodd" clip-rule="evenodd" d="M468.741 40.0133V12.5232H469.561V40.0133H468.741Z" fill="#979797"/>
<path fill-rule="evenodd" clip-rule="evenodd" d="M493.346 40.0133V12.5232H494.167V40.0133H493.346Z" fill="#979797"/>
<path fill-rule="evenodd" clip-rule="evenodd" d="M542.558 40.0133V12.5232H543.378V40.0133H542.558Z" fill="#979797"/>
<path fill-rule="evenodd" clip-rule="evenodd" d="M567.164 40.0133V12.5232H567.984V40.0133H567.164Z" fill="#979797"/>
<path d="M296.91 15.9041H223.093V35.5887H296.91V15.9041Z" fill="#E2E6F6"/>
<path d="M223.093 15.9041H149.275V35.5887H223.093V15.9041Z" fill="#5B6EB4"/>
<path d="M149.275 15.9041H75.4578V35.5887H149.275V15.9041Z" fill="#113287"/>
<path d="M75.4579 15.9041H9.02222V35.5887H75.4579V15.9041Z" fill="#001A5B"/>
<path fill-rule="evenodd" clip-rule="evenodd" d="M148.865 52.4924V3.58518e-08L149.685 0V52.4924H148.865Z" fill="#979797"/>
<path fill-rule="evenodd" clip-rule="evenodd" d="M222.683 52.4924V3.58518e-08L223.503 0V52.4924H222.683Z" fill="#979797"/>
<path fill-rule="evenodd" clip-rule="evenodd" d="M75.0476 52.4924V3.58518e-08L75.8678 0V52.4924H75.0476Z" fill="#979797"/>
<path d="M518.362 15.9041H444.545V35.5887H518.362V15.9041Z" fill="#113287"/>
<path d="M444.545 15.9041H370.728V35.5887H444.545V15.9041Z" fill="#5B6EB4"/>
<path d="M370.728 15.9041H296.91V35.5887H370.728V15.9041Z" fill="#E2E6F6"/>
<path fill-rule="evenodd" clip-rule="evenodd" d="M295.68 52.4924V7.17035e-08L297.32 0V52.4924H295.68Z" fill="#113287"/>
<path fill-rule="evenodd" clip-rule="evenodd" d="M271.343 63.1689L268.733 60.559C268.573 60.3989 268.573 60.1393 268.733 59.9791L271.343 57.3692C271.504 57.2091 271.763 57.2091 271.924 57.3692C272.084 57.5294 272.084 57.7891 271.924 57.9492L270.014 59.859H284.607V60.6792H270.014L271.924 62.5889C272.084 62.7491 272.084 63.0087 271.924 63.1689C271.763 63.3291 271.504 63.3291 271.343 63.1689Z" fill="#113287"/>
<path fill-rule="evenodd" clip-rule="evenodd" d="M322.477 57.3692L325.087 59.979C325.247 60.1391 325.247 60.3988 325.087 60.559L322.477 63.1688C322.316 63.3289 322.057 63.3289 321.896 63.1688C321.736 63.0086 321.736 62.749 321.896 62.5888L323.807 60.6791H309.213V59.8589H323.807L321.896 57.9491C321.736 57.7889 321.736 57.5293 321.896 57.3692C322.057 57.209 322.316 57.209 322.477 57.3692Z" fill="#113287"/>
<path d="M586.812 15.9041H563.184V35.5887H586.812L593 25.7464L586.812 15.9041Z" fill="#001A5B"/>
<path d="M518.363 15.9041H583.978V35.5887H518.363V15.9041Z" fill="#001A5B"/>
<path fill-rule="evenodd" clip-rule="evenodd" d="M370.317 52.4924V3.58518e-08L371.138 0V52.4924H370.317Z" fill="#979797"/>
<path fill-rule="evenodd" clip-rule="evenodd" d="M444.135 52.4924V3.58518e-08L444.955 0V52.4924H444.135Z" fill="#979797"/>
<path fill-rule="evenodd" clip-rule="evenodd" d="M517.952 52.4924V3.58518e-08L518.772 0V52.4924H517.952Z" fill="#979797"/>
<path d="M245.996 22.5121V26.7573H245.236V25.8842H243.425V25.2595H245.236V24.3864H243.501C243.037 25.5398 241.96 26.3528 240.406 26.7973L240.101 26.2046C241.799 25.72 242.793 24.8069 242.929 23.6495H240.47V23.0248H243.754C243.754 23.2891 243.726 23.5454 243.678 23.7857H245.236V22.5121H245.996ZM241.215 28.2391C241.215 27.37 242.16 26.8414 243.634 26.8374C245.087 26.8414 246.041 27.37 246.045 28.2391C246.041 29.1121 245.087 29.6488 243.634 29.6488C242.16 29.6488 241.215 29.1121 241.215 28.2391ZM241.968 28.2391C241.968 28.7437 242.608 29.036 243.634 29.04C244.639 29.036 245.28 28.7437 245.284 28.2391C245.28 27.7265 244.639 27.4341 243.634 27.4381C242.608 27.4341 241.968 27.7265 241.968 28.2391ZM252.917 25.8121V26.4209H250.746V28.175H253.67V28.7998H247.102V28.175H249.993V26.4209H247.919V23.0568H252.853V23.6735H248.68V25.8121H252.917ZM258.436 23.1209C259.501 23.1289 260.618 23.7697 260.622 25.8922C260.622 27.9267 259.745 29.0801 258.355 29.0801C257.286 29.0801 256.541 28.4193 256.401 27.4782H257.274C257.394 27.9667 257.771 28.3072 258.355 28.3112C259.249 28.3072 259.773 27.5302 259.781 26.2046H259.709C259.397 26.6932 258.852 26.9896 258.227 26.9896C257.186 26.9896 256.353 26.1926 256.353 25.0833C256.353 23.9779 257.174 23.1129 258.436 23.1209ZM257.21 25.0672C257.214 25.7401 257.715 26.2727 258.42 26.2687C259.12 26.2727 259.661 25.7 259.661 25.0592C259.661 24.4305 259.144 23.8578 258.436 23.8578C257.735 23.8578 257.206 24.4024 257.21 25.0672ZM263.65 29.0801C262.577 29.0721 261.455 28.4353 261.455 26.2927C261.459 24.2743 262.332 23.1209 263.722 23.1209C264.791 23.1209 265.532 23.7857 265.668 24.7068H264.795C264.679 24.2342 264.307 23.8938 263.722 23.8898C262.825 23.8938 262.304 24.6708 262.304 25.9803H262.368C262.685 25.4877 263.229 25.1994 263.858 25.1954C264.891 25.1994 265.724 25.9924 265.724 27.1017C265.724 28.2271 264.895 29.0881 263.65 29.0801ZM262.408 27.1257C262.412 27.7705 262.929 28.3392 263.642 28.3432C264.343 28.3392 264.867 27.7945 264.867 27.1177C264.867 26.4529 264.363 25.9123 263.666 25.9163C262.957 25.9123 262.416 26.4809 262.408 27.1257ZM266.966 29.0561C266.654 29.0521 266.393 28.7998 266.397 28.4874C266.393 28.175 266.654 27.9187 266.966 27.9187C267.274 27.9187 267.531 28.175 267.535 28.4874C267.531 28.7998 267.274 29.0521 266.966 29.0561ZM270.386 29.0801C269.125 29.0801 268.247 28.3993 268.255 27.4541C268.247 26.7092 268.78 26.1005 269.465 25.9964V25.9643C268.868 25.8282 268.472 25.2995 268.472 24.6668C268.472 23.7737 269.277 23.1209 270.386 23.1209C271.479 23.1209 272.288 23.7737 272.292 24.6668C272.288 25.2995 271.884 25.8282 271.299 25.9643V25.9964C271.976 26.1005 272.513 26.7092 272.517 27.4541C272.513 28.3993 271.628 29.0801 270.386 29.0801ZM269.153 27.39C269.141 27.9587 269.621 28.3512 270.386 28.3512C271.139 28.3512 271.62 27.9587 271.62 27.39C271.62 26.7933 271.099 26.3568 270.386 26.3568C269.665 26.3568 269.141 26.7933 269.153 27.39ZM269.329 24.7468C269.333 25.2875 269.765 25.664 270.386 25.66C270.991 25.664 271.431 25.2915 271.427 24.7468C271.431 24.2062 271.007 23.8377 270.386 23.8418C269.749 23.8377 269.333 24.2062 269.329 24.7468ZM274.759 25.9563C273.966 25.9643 273.534 25.3756 273.542 24.5146C273.534 23.6655 273.986 23.0768 274.759 23.0808C275.556 23.0768 275.973 23.6655 275.977 24.5146C275.973 25.3796 275.54 25.9643 274.759 25.9563ZM274.199 29L278.179 23.201H278.908L274.928 29H274.199ZM274.199 24.5146C274.203 25.0472 274.387 25.3916 274.759 25.3956C275.136 25.3916 275.312 25.0472 275.312 24.5146C275.312 23.9939 275.148 23.6375 274.759 23.6415C274.387 23.6495 274.203 23.9979 274.199 24.5146ZM277.202 27.6784C277.198 26.8214 277.647 26.2326 278.42 26.2367C279.213 26.2326 279.633 26.8214 279.637 27.6784C279.633 28.5354 279.201 29.1201 278.42 29.1201C277.631 29.1201 277.198 28.5314 277.202 27.6784ZM277.859 27.6784C277.863 28.203 278.047 28.5515 278.42 28.5515C278.796 28.5515 278.972 28.203 278.972 27.6784C278.972 27.1498 278.808 26.7973 278.42 26.7973C278.051 26.8053 277.863 27.1538 277.859 27.6784Z" fill="#113287"/>
<path d="M175.275 25.8282V26.4449H172.375V27.1337C173.689 27.2058 174.47 27.6464 174.474 28.3993C174.47 29.2123 173.541 29.6688 171.999 29.6648C170.437 29.6688 169.508 29.2123 169.508 28.3993C169.508 27.6464 170.289 27.2018 171.622 27.1337V26.4449H168.731V25.8282H175.275ZM169.075 24.851C170.365 24.7188 171.382 24.1341 171.486 23.4413H169.331V22.8325H174.69V23.4413H172.511C172.615 24.1381 173.625 24.7188 174.938 24.851L174.666 25.4517C173.42 25.3075 172.391 24.7829 172.003 24.022C171.606 24.7829 170.585 25.3075 169.339 25.4517L169.075 24.851ZM170.277 28.3993C170.273 28.8358 170.901 29.0881 171.999 29.0801C173.08 29.0881 173.713 28.8358 173.713 28.3993C173.713 27.9547 173.08 27.7144 171.999 27.7104C170.901 27.7144 170.273 27.9547 170.277 28.3993ZM181.634 25.8121V26.4209H179.464V28.175H182.387V28.7998H175.819V28.175H178.711V26.4209H176.636V23.0568H181.57V23.6735H177.397V25.8121H181.634ZM185.159 29V28.3592L187.169 26.3328C187.806 25.672 188.122 25.3035 188.122 24.7949C188.122 24.2222 187.658 23.8578 187.049 23.8578C186.404 23.8578 185.996 24.2663 185.992 24.883H185.159C185.151 23.8217 185.96 23.1209 187.065 23.1209C188.182 23.1209 188.955 23.8297 188.963 24.7709C188.955 25.4197 188.651 25.9363 187.562 27.0056L186.384 28.199V28.2471H189.059V29H185.159ZM190.605 29.0561C190.293 29.0521 190.033 28.7998 190.037 28.4874C190.033 28.175 190.293 27.9187 190.605 27.9187C190.914 27.9187 191.17 28.175 191.174 28.4874C191.17 28.7998 190.914 29.0521 190.605 29.0561ZM194.073 29.0801C192.976 29.0801 192.151 28.4113 192.111 27.4862H192.968C193.016 27.9788 193.489 28.3392 194.073 28.3432C194.778 28.3392 195.283 27.8306 195.283 27.1417C195.283 26.4369 194.762 25.9243 194.033 25.9163C193.569 25.9163 193.212 26.0725 193.016 26.4289H192.183L192.56 23.201H195.844V23.9539H193.288L193.096 25.5799H193.152C193.393 25.3476 193.801 25.1914 194.242 25.1874C195.335 25.1914 196.14 26.0004 196.14 27.1177C196.14 28.2591 195.283 29.0801 194.073 29.0801ZM198.407 25.9563C197.614 25.9643 197.181 25.3756 197.189 24.5146C197.181 23.6655 197.634 23.0768 198.407 23.0808C199.204 23.0768 199.62 23.6655 199.624 24.5146C199.62 25.3796 199.188 25.9643 198.407 25.9563ZM197.846 29L201.827 23.201H202.556L198.575 29H197.846ZM197.846 24.5146C197.85 25.0472 198.034 25.3916 198.407 25.3956C198.783 25.3916 198.959 25.0472 198.959 24.5146C198.959 23.9939 198.795 23.6375 198.407 23.6415C198.034 23.6495 197.85 23.9979 197.846 24.5146ZM200.85 27.6784C200.846 26.8214 201.294 26.2326 202.067 26.2367C202.86 26.2326 203.281 26.8214 203.285 27.6784C203.281 28.5354 202.848 29.1201 202.067 29.1201C201.278 29.1201 200.846 28.5314 200.85 27.6784ZM201.506 27.6784C201.51 28.203 201.695 28.5515 202.067 28.5515C202.444 28.5515 202.62 28.203 202.62 27.6784C202.62 27.1498 202.456 26.7973 202.067 26.7973C201.699 26.8053 201.51 27.1538 201.506 27.6784Z" fill="white"/>
<path d="M100.728 23.193V23.8978C100.724 24.7829 100.724 25.7761 100.456 27.2459L99.6871 27.1658C99.9634 25.7761 99.9634 24.7589 99.9674 23.8978V23.8097H95.6102V23.193H100.728ZM94.9213 28.7117V28.0789H97.4123V25.5478H98.1652V28.0789H101.465V28.7117H94.9213ZM107.825 25.8121V26.4209H105.654V28.175H108.578V28.7998H102.01V28.175H104.901V26.4209H102.827V23.0568H107.761V23.6735H103.588V25.8121H107.825ZM113.368 29.0801C112.026 29.0801 111.237 27.9988 111.237 26.1005C111.237 24.2142 112.034 23.1209 113.368 23.1209C114.697 23.1209 115.494 24.2142 115.498 26.1005C115.494 27.9988 114.709 29.0801 113.368 29.0801ZM112.118 26.1005C112.114 27.5462 112.583 28.3192 113.368 28.3192C114.149 28.3192 114.617 27.5462 114.617 26.1005C114.617 24.6587 114.145 23.8698 113.368 23.8658C112.587 23.8698 112.118 24.6587 112.118 26.1005ZM116.764 29.0561C116.451 29.0521 116.191 28.7998 116.195 28.4874C116.191 28.175 116.451 27.9187 116.764 27.9187C117.072 27.9187 117.328 28.175 117.332 28.4874C117.328 28.7998 117.072 29.0521 116.764 29.0561ZM120.24 29.0801C119.167 29.0721 118.045 28.4353 118.045 26.2927C118.049 24.2743 118.922 23.1209 120.312 23.1209C121.381 23.1209 122.122 23.7857 122.258 24.7068H121.385C121.269 24.2342 120.897 23.8938 120.312 23.8898C119.415 23.8938 118.894 24.6708 118.894 25.9803H118.958C119.275 25.4877 119.819 25.1994 120.448 25.1954C121.481 25.1994 122.315 25.9924 122.315 27.1017C122.315 28.2271 121.486 29.0881 120.24 29.0801ZM118.998 27.1257C119.002 27.7705 119.519 28.3392 120.232 28.3432C120.933 28.3392 121.457 27.7945 121.457 27.1177C121.457 26.4529 120.953 25.9123 120.256 25.9163C119.547 25.9123 119.006 26.4809 118.998 27.1257ZM124.581 25.9563C123.788 25.9643 123.356 25.3756 123.364 24.5146C123.356 23.6655 123.808 23.0768 124.581 23.0808C125.378 23.0768 125.795 23.6655 125.799 24.5146C125.795 25.3796 125.362 25.9643 124.581 25.9563ZM124.021 29L128.001 23.201H128.73L124.749 29H124.021ZM124.021 24.5146C124.025 25.0472 124.209 25.3916 124.581 25.3956C124.958 25.3916 125.134 25.0472 125.134 24.5146C125.134 23.9939 124.97 23.6375 124.581 23.6415C124.209 23.6495 124.025 23.9979 124.021 24.5146ZM127.024 27.6784C127.02 26.8214 127.469 26.2326 128.242 26.2367C129.035 26.2326 129.455 26.8214 129.459 27.6784C129.455 28.5354 129.023 29.1201 128.242 29.1201C127.453 29.1201 127.02 28.5314 127.024 27.6784ZM127.681 27.6784C127.685 28.203 127.869 28.5515 128.242 28.5515C128.618 28.5515 128.794 28.203 128.794 27.6784C128.794 27.1498 128.63 26.7973 128.242 26.7973C127.873 26.8053 127.685 27.1538 127.681 27.6784Z" fill="white"/>
<path d="M17.5903 28.175V28.7998H11.0223V28.175H13.9218V26.6131H14.6747V28.175H17.5903ZM11.3427 26.2687C12.8165 26.0524 13.8778 25.2194 13.9138 24.2102H11.615V23.5934H13.9218V22.6323H14.6747V23.5934H16.9815V24.2102H14.6827C14.7188 25.2194 15.7801 26.0524 17.2539 26.2687L16.9655 26.8614C15.7641 26.6732 14.7628 26.1045 14.2943 25.2675C13.8297 26.1045 12.8325 26.6732 11.631 26.8614L11.3427 26.2687ZM23.9179 23.193V23.8978C23.9139 24.7829 23.9139 25.7761 23.6456 27.2459L22.8767 27.1658C23.153 25.7761 23.153 24.7589 23.157 23.8978V23.8097H18.7997V23.193H23.9179ZM18.1109 28.7117V28.0789H20.6019V25.5478H21.3548V28.0789H24.6548V28.7117H18.1109ZM31.0145 25.8121V26.4209H28.8439V28.175H31.7674V28.7998H25.1995V28.175H28.091V26.4209H26.0165V23.0568H30.9505V23.6735H26.7774V25.8121H31.0145ZM36.5572 29.0801C35.2156 29.0801 34.4267 27.9988 34.4267 26.1005C34.4267 24.2142 35.2236 23.1209 36.5572 23.1209C37.8869 23.1209 38.6838 24.2142 38.6878 26.1005C38.6838 27.9988 37.8989 29.0801 36.5572 29.0801ZM35.3077 26.1005C35.3037 27.5462 35.7723 28.3192 36.5572 28.3192C37.3382 28.3192 37.8068 27.5462 37.8068 26.1005C37.8068 24.6587 37.3342 23.8698 36.5572 23.8658C35.7763 23.8698 35.3077 24.6587 35.3077 26.1005ZM39.9534 29.0561C39.641 29.0521 39.3807 28.7998 39.3847 28.4874C39.3807 28.175 39.641 27.9187 39.9534 27.9187C40.2617 27.9187 40.518 28.175 40.522 28.4874C40.518 28.7998 40.2617 29.0521 39.9534 29.0561ZM43.0451 23.201V29H42.156V24.082H42.124L40.7383 24.9871V24.1461L42.1801 23.201H43.0451ZM45.8485 25.9563C45.0555 25.9643 44.623 25.3756 44.631 24.5146C44.623 23.6655 45.0756 23.0768 45.8485 23.0808C46.6455 23.0768 47.062 23.6655 47.066 24.5146C47.062 25.3796 46.6294 25.9643 45.8485 25.9563ZM45.2878 29L49.2686 23.201H49.9975L46.0167 29H45.2878ZM45.2878 24.5146C45.2918 25.0472 45.476 25.3916 45.8485 25.3956C46.225 25.3916 46.4012 25.0472 46.4012 24.5146C46.4012 23.9939 46.237 23.6375 45.8485 23.6415C45.476 23.6495 45.2918 23.9979 45.2878 24.5146ZM48.2915 27.6784C48.2875 26.8214 48.736 26.2326 49.5089 26.2367C50.3019 26.2326 50.7224 26.8214 50.7264 27.6784C50.7224 28.5354 50.2899 29.1201 49.5089 29.1201C48.72 29.1201 48.2875 28.5314 48.2915 27.6784ZM48.9483 27.6784C48.9523 28.203 49.1365 28.5515 49.5089 28.5515C49.8854 28.5515 50.0616 28.203 50.0616 27.6784C50.0616 27.1498 49.8974 26.7973 49.5089 26.7973C49.1405 26.8053 48.9523 27.1538 48.9483 27.6784ZM55.372 23.193V27.9107H52.008V23.193H55.372ZM52.7609 27.2939H54.6351V23.7937H52.7609V27.2939ZM56.7898 29.6968V22.5041H57.5507V29.6968H56.7898ZM62.3325 23.1369V26.485H58.9764V23.1369H62.3325ZM59.7213 25.8842H61.5876V23.7536H59.7213V25.8842ZM59.7854 29.5286V27.2539H60.5463V28.9119H64.6393V29.5286H59.7854ZM63.574 27.7585V22.4961H64.3349V24.6427H65.3762V25.2835H64.3349V27.7585H63.574Z" fill="white"/>
<path d="M469.767 23.193V23.8978C469.763 24.7829 469.763 25.7761 469.495 27.2459L468.726 27.1658C469.003 25.7761 469.003 24.7589 469.007 23.8978V23.8097H464.649V23.193H469.767ZM463.96 28.7117V28.0789H466.451V25.5478H467.204V28.0789H470.504V28.7117H463.96ZM476.864 25.8121V26.4209H474.693V28.175H477.617V28.7998H471.049V28.175H473.941V26.4209H471.866V23.0568H476.8V23.6735H472.627V25.8121H476.864ZM480.26 27.8706V27.1578L482.823 23.201H483.913V27.1257H484.706V27.8706H483.913V29H483.08V27.8706H480.26ZM481.189 27.1257H483.08V24.2502H483.016L481.189 27.0777V27.1257ZM485.947 29.0561C485.635 29.0521 485.374 28.7998 485.378 28.4874C485.374 28.175 485.635 27.9187 485.947 27.9187C486.255 27.9187 486.512 28.175 486.516 28.4874C486.512 28.7998 486.255 29.0521 485.947 29.0561ZM489.343 29.0801C488.002 29.0801 487.213 27.9988 487.213 26.1005C487.213 24.2142 488.01 23.1209 489.343 23.1209C490.673 23.1209 491.47 24.2142 491.474 26.1005C491.47 27.9988 490.685 29.0801 489.343 29.0801ZM488.094 26.1005C488.09 27.5462 488.558 28.3192 489.343 28.3192C490.124 28.3192 490.593 27.5462 490.593 26.1005C490.593 24.6587 490.12 23.8698 489.343 23.8658C488.562 23.8698 488.094 24.6587 488.094 26.1005ZM493.716 25.9563C492.924 25.9643 492.491 25.3756 492.499 24.5146C492.491 23.6655 492.944 23.0768 493.716 23.0808C494.513 23.0768 494.93 23.6655 494.934 24.5146C494.93 25.3796 494.497 25.9643 493.716 25.9563ZM493.156 29L497.137 23.201H497.865L493.885 29H493.156ZM493.156 24.5146C493.16 25.0472 493.344 25.3916 493.716 25.3956C494.093 25.3916 494.269 25.0472 494.269 24.5146C494.269 23.9939 494.105 23.6375 493.716 23.6415C493.344 23.6495 493.16 23.9979 493.156 24.5146ZM496.159 27.6784C496.155 26.8214 496.604 26.2326 497.377 26.2367C498.17 26.2326 498.59 26.8214 498.594 27.6784C498.59 28.5354 498.158 29.1201 497.377 29.1201C496.588 29.1201 496.155 28.5314 496.159 27.6784ZM496.816 27.6784C496.82 28.203 497.004 28.5515 497.377 28.5515C497.753 28.5515 497.93 28.203 497.93 27.6784C497.93 27.1498 497.765 26.7973 497.377 26.7973C497.008 26.8053 496.82 27.1538 496.816 27.6784Z" fill="white"/>
<path d="M394.885 25.8282V26.4449H391.985V27.1337C393.299 27.2058 394.08 27.6464 394.084 28.3993C394.08 29.2123 393.151 29.6688 391.609 29.6648C390.047 29.6688 389.118 29.2123 389.118 28.3993C389.118 27.6464 389.899 27.2018 391.232 27.1337V26.4449H388.341V25.8282H394.885ZM388.685 24.851C389.975 24.7188 390.992 24.1341 391.096 23.4413H388.942V22.8325H394.3V23.4413H392.121C392.226 24.1381 393.235 24.7188 394.548 24.851L394.276 25.4517C393.031 25.3075 392.001 24.7829 391.613 24.022C391.216 24.7829 390.195 25.3075 388.95 25.4517L388.685 24.851ZM389.887 28.3993C389.883 28.8358 390.511 29.0881 391.609 29.0801C392.69 29.0881 393.323 28.8358 393.323 28.3993C393.323 27.9547 392.69 27.7144 391.609 27.7104C390.511 27.7144 389.883 27.9547 389.887 28.3993ZM401.244 25.8121V26.4209H399.074V28.175H401.997V28.7998H395.429V28.175H398.321V26.4209H396.246V23.0568H401.18V23.6735H397.007V25.8121H401.244ZM406.971 23.201V29H406.082V24.082H406.05L404.665 24.9871V24.1461L406.106 23.201H406.971ZM410.44 23.1209C411.505 23.1289 412.622 23.7697 412.626 25.8922C412.626 27.9267 411.749 29.0801 410.36 29.0801C409.29 29.0801 408.545 28.4193 408.405 27.4782H409.278C409.398 27.9667 409.775 28.3072 410.36 28.3112C411.253 28.3072 411.777 27.5302 411.785 26.2046H411.713C411.401 26.6932 410.856 26.9896 410.231 26.9896C409.19 26.9896 408.357 26.1926 408.357 25.0833C408.357 23.9779 409.178 23.1129 410.44 23.1209ZM409.214 25.0672C409.218 25.7401 409.719 26.2727 410.424 26.2687C411.124 26.2727 411.665 25.7 411.665 25.0592C411.665 24.4305 411.148 23.8578 410.44 23.8578C409.739 23.8578 409.21 24.4024 409.214 25.0672ZM413.908 29.0561C413.595 29.0521 413.335 28.7998 413.339 28.4874C413.335 28.175 413.595 27.9187 413.908 27.9187C414.216 27.9187 414.473 28.175 414.477 28.4874C414.473 28.7998 414.216 29.0521 413.908 29.0561ZM417.328 29.0801C416.066 29.0801 415.189 28.3993 415.197 27.4541C415.189 26.7092 415.722 26.1005 416.407 25.9964V25.9643C415.81 25.8282 415.414 25.2995 415.414 24.6668C415.414 23.7737 416.219 23.1209 417.328 23.1209C418.421 23.1209 419.23 23.7737 419.234 24.6668C419.23 25.2995 418.826 25.8282 418.241 25.9643V25.9964C418.918 26.1005 419.455 26.7092 419.459 27.4541C419.455 28.3993 418.569 29.0801 417.328 29.0801ZM416.094 27.39C416.082 27.9587 416.563 28.3512 417.328 28.3512C418.081 28.3512 418.561 27.9587 418.561 27.39C418.561 26.7933 418.041 26.3568 417.328 26.3568C416.607 26.3568 416.082 26.7933 416.094 27.39ZM416.271 24.7468C416.275 25.2875 416.707 25.664 417.328 25.66C417.933 25.664 418.373 25.2915 418.369 24.7468C418.373 24.2062 417.949 23.8377 417.328 23.8418C416.691 23.8377 416.275 24.2062 416.271 24.7468ZM421.701 25.9563C420.908 25.9643 420.476 25.3756 420.484 24.5146C420.476 23.6655 420.928 23.0768 421.701 23.0808C422.498 23.0768 422.915 23.6655 422.919 24.5146C422.915 25.3796 422.482 25.9643 421.701 25.9563ZM421.141 29L425.121 23.201H425.85L421.869 29H421.141ZM421.141 24.5146C421.145 25.0472 421.329 25.3916 421.701 25.3956C422.078 25.3916 422.254 25.0472 422.254 24.5146C422.254 23.9939 422.09 23.6375 421.701 23.6415C421.329 23.6495 421.145 23.9979 421.141 24.5146ZM424.144 27.6784C424.14 26.8214 424.589 26.2326 425.362 26.2367C426.155 26.2326 426.575 26.8214 426.579 27.6784C426.575 28.5354 426.143 29.1201 425.362 29.1201C424.573 29.1201 424.14 28.5314 424.144 27.6784ZM424.801 27.6784C424.805 28.203 424.989 28.5515 425.362 28.5515C425.738 28.5515 425.914 28.203 425.914 27.6784C425.914 27.1498 425.75 26.7973 425.362 26.7973C424.993 26.8053 424.805 27.1538 424.801 27.6784Z" fill="white"/>
<path d="M320.134 22.5121V26.7573H319.373V25.8842H317.563V25.2595H319.373V24.3864H317.639C317.175 25.5398 316.097 26.3528 314.543 26.7973L314.239 26.2046C315.937 25.72 316.93 24.8069 317.067 23.6495H314.608V23.0248H317.892C317.892 23.2891 317.864 23.5454 317.815 23.7857H319.373V22.5121H320.134ZM315.352 28.2391C315.352 27.37 316.298 26.8414 317.771 26.8374C319.225 26.8414 320.178 27.37 320.182 28.2391C320.178 29.1121 319.225 29.6488 317.771 29.6488C316.298 29.6488 315.352 29.1121 315.352 28.2391ZM316.105 28.2391C316.105 28.7437 316.746 29.036 317.771 29.04C318.777 29.036 319.417 28.7437 319.421 28.2391C319.417 27.7265 318.777 27.4341 317.771 27.4381C316.746 27.4341 316.105 27.7265 316.105 28.2391ZM327.055 25.8121V26.4209H324.884V28.175H327.808V28.7998H321.24V28.175H324.131V26.4209H322.057V23.0568H326.991V23.6735H322.818V25.8121H327.055ZM330.779 29L333.366 24.0019V23.9539H330.379V23.201H334.279V23.9859L331.7 29H330.779ZM337.059 29.0801C335.961 29.0801 335.136 28.4113 335.096 27.4862H335.953C336.001 27.9788 336.474 28.3392 337.059 28.3432C337.764 28.3392 338.268 27.8306 338.268 27.1417C338.268 26.4369 337.748 25.9243 337.019 25.9163C336.554 25.9163 336.198 26.0725 336.001 26.4289H335.168L335.545 23.201H338.829V23.9539H336.274L336.082 25.5799H336.138C336.378 25.3476 336.786 25.1914 337.227 25.1874C338.32 25.1914 339.125 26.0004 339.125 27.1177C339.125 28.2591 338.268 29.0801 337.059 29.0801ZM340.423 29.0561C340.11 29.0521 339.85 28.7998 339.854 28.4874C339.85 28.175 340.11 27.9187 340.423 27.9187C340.731 27.9187 340.988 28.175 340.992 28.4874C340.988 28.7998 340.731 29.0521 340.423 29.0561ZM343.867 29.0801C342.666 29.0801 341.813 28.4353 341.776 27.4862H342.674C342.706 27.9948 343.21 28.3192 343.859 28.3192C344.56 28.3192 345.068 27.9387 345.068 27.374C345.068 26.8013 344.592 26.3928 343.763 26.3888H343.266V25.668H343.763C344.424 25.672 344.884 25.3035 344.884 24.7468C344.884 24.2182 344.488 23.8578 343.875 23.8578C343.294 23.8578 342.774 24.1822 342.754 24.7068H341.905C341.929 23.7617 342.802 23.1209 343.883 23.1209C345.024 23.1209 345.741 23.8418 345.733 24.6988C345.741 25.3596 345.333 25.8322 344.708 25.9884V26.0284C345.501 26.1405 345.962 26.6732 345.958 27.4061C345.962 28.3712 345.068 29.0801 343.867 29.0801ZM348.256 25.9563C347.463 25.9643 347.031 25.3756 347.039 24.5146C347.031 23.6655 347.483 23.0768 348.256 23.0808C349.053 23.0768 349.47 23.6655 349.474 24.5146C349.47 25.3796 349.037 25.9643 348.256 25.9563ZM347.696 29L351.676 23.201H352.405L348.425 29H347.696ZM347.696 24.5146C347.7 25.0472 347.884 25.3916 348.256 25.3956C348.633 25.3916 348.809 25.0472 348.809 24.5146C348.809 23.9939 348.645 23.6375 348.256 23.6415C347.884 23.6495 347.7 23.9979 347.696 24.5146ZM350.699 27.6784C350.695 26.8214 351.144 26.2326 351.917 26.2367C352.71 26.2326 353.13 26.8214 353.134 27.6784C353.13 28.5354 352.698 29.1201 351.917 29.1201C351.128 29.1201 350.695 28.5314 350.699 27.6784ZM351.356 27.6784C351.36 28.203 351.544 28.5515 351.917 28.5515C352.293 28.5515 352.469 28.203 352.469 27.6784C352.469 27.1498 352.305 26.7973 351.917 26.7973C351.548 26.8053 351.36 27.1538 351.356 27.6784Z" fill="#113287"/>
<path d="M540.777 28.2539V28.8786H534.209V28.2539H537.109V26.692H537.862V28.2539H540.777ZM534.53 26.3475C536.004 26.1313 537.065 25.2983 537.101 24.2891H534.802V23.6723H537.109V22.7111H537.862V23.6723H540.169V24.2891H537.87C537.906 25.2983 538.967 26.1313 540.441 26.3475L540.153 26.9403C538.951 26.752 537.95 26.1833 537.481 25.3463C537.017 26.1833 536.02 26.752 534.818 26.9403L534.53 26.3475ZM547.105 23.2718V23.9767C547.101 24.8617 547.101 25.855 546.833 27.3247L546.064 27.2446C546.34 25.855 546.34 24.8377 546.344 23.9767V23.8886H541.987V23.2718H547.105ZM541.298 28.7905V28.1577H543.789V25.6267H544.542V28.1577H547.842V28.7905H541.298ZM554.202 25.891V26.4997H552.031V28.2539H554.955V28.8786H548.387V28.2539H551.278V26.4997H549.204V23.1357H554.138V23.7524H549.965V25.891H554.202ZM559.744 29.159C558.403 29.159 557.614 28.0776 557.614 26.1793C557.614 24.2931 558.411 23.1997 559.744 23.1997C561.074 23.1997 561.871 24.2931 561.875 26.1793C561.871 28.0776 561.086 29.159 559.744 29.159ZM558.495 26.1793C558.491 27.6251 558.959 28.398 559.744 28.398C560.525 28.398 560.994 27.6251 560.994 26.1793C560.994 24.7376 560.521 23.9486 559.744 23.9446C558.963 23.9486 558.495 24.7376 558.495 26.1793ZM563.14 29.1349C562.828 29.1309 562.568 28.8786 562.572 28.5662C562.568 28.2539 562.828 27.9975 563.14 27.9975C563.449 27.9975 563.705 28.2539 563.709 28.5662C563.705 28.8786 563.449 29.1309 563.14 29.1349ZM566.657 23.1997C567.722 23.2077 568.839 23.8485 568.843 25.9711C568.843 28.0056 567.966 29.159 566.577 29.159C565.507 29.159 564.762 28.4982 564.622 27.557H565.495C565.615 28.0456 565.992 28.386 566.577 28.39C567.47 28.386 567.994 27.6091 568.002 26.2835H567.93C567.618 26.7721 567.073 27.0684 566.449 27.0684C565.407 27.0684 564.574 26.2715 564.574 25.1621C564.574 24.0568 565.395 23.1917 566.657 23.1997ZM565.431 25.1461C565.435 25.8189 565.936 26.3516 566.641 26.3475C567.342 26.3516 567.882 25.7789 567.882 25.1381C567.882 24.5093 567.366 23.9366 566.657 23.9366C565.956 23.9366 565.427 24.4813 565.431 25.1461ZM571.102 26.0352C570.309 26.0432 569.877 25.4545 569.885 24.5934C569.877 23.7444 570.329 23.1557 571.102 23.1597C571.899 23.1557 572.316 23.7444 572.32 24.5934C572.316 25.4585 571.883 26.0432 571.102 26.0352ZM570.541 29.0789L574.522 23.2798H575.251L571.27 29.0789H570.541ZM570.541 24.5934C570.545 25.1261 570.73 25.4705 571.102 25.4745C571.479 25.4705 571.655 25.1261 571.655 24.5934C571.655 24.0728 571.491 23.7164 571.102 23.7204C570.73 23.7284 570.545 24.0768 570.541 24.5934ZM573.545 27.7573C573.541 26.9002 573.99 26.3115 574.763 26.3155C575.556 26.3115 575.976 26.9002 575.98 27.7573C575.976 28.6143 575.544 29.199 574.763 29.199C573.974 29.199 573.541 28.6103 573.545 27.7573ZM574.202 27.7573C574.206 28.2819 574.39 28.6303 574.763 28.6303C575.139 28.6303 575.315 28.2819 575.315 27.7573C575.315 27.2286 575.151 26.8762 574.763 26.8762C574.394 26.8842 574.206 27.2326 574.202 27.7573Z" fill="white"/>
</svg>
