<?xml version="1.0" encoding="UTF-8"?>
<svg width="593px" height="88px" viewBox="0 0 593 88" version="1.1" xmlns="http://www.w3.org/2000/svg" xmlns:xlink="http://www.w3.org/1999/xlink">
    <title>Artboard</title>
    <g id="Artboard" stroke="none" stroke-width="1" fill="none" fill-rule="evenodd">
        <g id="totalSeverityKid" transform="translate(0.000000, 9.000000)">
            <polygon id="Path" fill="#979797" points="111.956432 40.0132737 111.956432 12.5231717 112.776625 12.5231717 112.776625 40.0132737"></polygon>
            <polygon id="Path" fill="#001A5B" fill-rule="nonzero" points="6.18831999 15.9040919 29.8161712 15.9040919 29.8161712 35.5887392 6.18831999 35.5887392 0 25.7464155"></polygon>
            <path d="M292.134109,62.8017478 C293.255314,62.8089155 294.00169,62.0339145 294.00169,61.0211394 C294.00169,60.0227177 293.252033,59.3090672 292.321934,59.3054584 C291.756,59.3090672 291.265524,59.5685765 290.980917,60.0118912 L290.923503,60.0118912 C290.923503,58.8332729 291.391834,58.1340578 292.198905,58.130449 C292.725469,58.1340578 293.060928,58.4404002 293.165093,58.8657526 L293.950838,58.8657526 C293.828629,58.0367009 293.161812,57.4383696 292.198905,57.4383696 C290.948109,57.4383696 290.162364,58.4764067 290.159083,60.2930535 C290.159083,62.2214108 291.168741,62.7944801 292.134109,62.8017478 Z M291.017006,61.0427105 C291.024387,60.4624235 291.510762,59.9506227 292.148873,59.9542116 C292.775501,59.9506227 293.229888,60.4372436 293.229888,61.0355748 C293.229888,61.6446506 292.758277,62.1348804 292.126728,62.1384892 C291.485336,62.1348804 291.020286,61.6230796 291.017006,61.0427105 Z" id="Shape" fill="#001A5B" fill-rule="nonzero"></path>
            <path d="M296.661578,62.8016978 C297.868903,62.8016978 298.57509,61.8285381 298.579191,60.1199927 C298.57509,58.4223559 297.858241,57.4383696 296.661578,57.4383696 C295.460815,57.4383696 294.743965,58.4223559 294.743965,60.1199927 C294.743965,61.8285381 295.454253,62.8016978 296.661578,62.8016978 Z M295.537093,60.1199927 C295.537093,58.8224464 295.958672,58.1124047 296.661578,58.1087959 C297.360383,58.1124047 297.786064,58.8224464 297.786064,60.1199927 C297.786064,61.4212299 297.364484,62.1168361 296.661578,62.1168361 C295.954571,62.1168361 295.532992,61.4212299 295.537093,60.1199927 Z" id="Shape" fill="#001A5B" fill-rule="nonzero"></path>
            <path d="M301.166902,62.7296028 C302.756437,62.7296028 303.671773,61.7420076 303.675874,60.112857 C303.671773,58.4872332 302.756437,57.5104646 301.216934,57.5104646 L299.473202,57.5104646 L299.473202,62.7296028 L301.166902,62.7296028 Z M300.265509,62.0375234 L300.265509,58.202544 L301.166902,58.202544 C302.306151,58.202544 302.890129,58.8837148 302.890129,60.112857 C302.890129,61.345526 302.306151,62.0339145 301.123432,62.0375234 L300.265509,62.0375234 Z" id="Shape" fill="#001A5B" fill-rule="nonzero"></path>
            <path d="M275.65888,66.580658 L275.15282,66.580658 L275.15282,69.9511617 L273.973382,69.9511617 L273.973382,70.3163939 L275.15282,70.3163939 L275.15282,70.9058671 L275.65888,70.9058671 L275.65888,66.580658 Z M270.929643,69.2206973 L271.00018,69.6307941 C271.477533,69.6307941 272.025422,69.6307941 272.602018,69.6083208 L272.602018,70.7072982 L273.108077,70.7072982 L273.108077,69.5827307 C273.630541,69.5506612 274.166127,69.4993991 274.672187,69.4192661 L274.640199,69.0540339 C273.418931,69.2046215 271.990154,69.2142177 270.929643,69.2206973 Z M271.391398,67.8045509 C271.388131,68.4132986 271.958166,68.7913259 272.800505,68.7913259 C273.637102,68.7913259 274.207137,68.4132986 274.210418,67.8045509 C274.207137,67.2053995 273.637102,66.8113784 272.800505,66.8113784 C271.958166,66.8113784 271.388131,67.2053995 271.391398,67.8045509 Z M271.749837,72.1490346 L275.799953,72.1490346 L275.799953,71.7260607 L272.255896,71.7260607 L272.255896,70.4829753 L271.749837,70.4829753 L271.749837,72.1490346 Z M271.872046,67.8045509 C271.865484,67.4393187 272.243593,67.1894057 272.800505,67.1958032 C273.342653,67.1894057 273.726503,67.4393187 273.729784,67.8045509 C273.726503,68.1761807 273.342653,68.4164974 272.800505,68.4196961 C272.243593,68.4164974 271.865484,68.1761807 271.872046,67.8045509 Z" id="Shape" fill="#001A5B" fill-rule="nonzero"></path>
            <path d="M280.304456,68.105726 L280.304456,67.067689 L279.804959,67.067689 L279.804959,68.105726 C279.798397,69.1854289 279.096311,70.2747281 278.247411,70.6624336 L278.568107,71.0853255 C279.234104,70.748882 279.795116,70.0280139 280.057578,69.1694352 C280.329882,69.9799505 280.890895,70.6560361 281.541308,70.9700062 L281.848881,70.5727044 C281.009003,70.1913964 280.301176,69.1469618 280.304456,68.105726 Z M282.470588,72.2835464 L282.976647,72.2835464 L282.976647,66.5742605 L282.470588,66.5742605 L282.470588,72.2835464 Z" id="Shape" fill="#001A5B" fill-rule="nonzero"></path>
            <path d="M314.861675,67.7404938 L310.991181,67.7404938 L310.991181,68.1505906 L314.361357,68.1505906 L314.361357,68.1825782 C314.364638,68.6664104 314.364638,69.2270948 314.211261,70.0152188 L310.330925,70.0152188 L310.330925,70.4381107 L315.547357,70.4381107 L315.547357,70.0152188 L314.710759,70.0152188 C314.861675,69.2398898 314.861675,68.6632116 314.861675,68.1825782 L314.861675,67.7404938 Z M311.023169,72.9628307 L315.034736,72.9628307 L315.034736,72.5398569 L311.522667,72.5398569 L311.522667,71.078928 L311.023169,71.078928 L311.023169,72.9628307 Z" id="Shape" fill="#001A5B" fill-rule="nonzero"></path>
            <path d="M319.673751,68.9259197 L319.673751,67.8878826 L319.174253,67.8878826 L319.174253,68.9259197 C319.167692,70.0056226 318.465606,71.0949217 317.616705,71.4826273 L317.937401,71.9055191 C318.603398,71.5690757 319.164411,70.8482075 319.426873,69.9896288 C319.699177,70.8001441 320.260189,71.4762298 320.910603,71.7901999 L321.218176,71.3928981 C320.378297,71.0115901 319.67047,69.9671555 319.673751,68.9259197 Z M321.839882,73.10374 L322.345942,73.10374 L322.345942,67.3944541 L321.839882,67.3944541 L321.839882,73.10374 Z" id="Shape" fill="#001A5B" fill-rule="nonzero"></path>
            <path d="M70.5630631,63.6218914 C71.6516241,63.6218914 72.4229342,62.882979 72.4229342,61.8557685 C72.4229342,60.8501291 71.6984571,60.1220432 70.7144708,60.1184343 C70.3179892,60.1220432 69.9503784,60.2626244 69.7340934,60.4716917 L69.6836515,60.4716917 L69.8566303,59.0083022 L72.1562072,59.0083022 L72.1562072,58.3306583 L69.2006394,58.3306583 L68.8618174,61.2357841 L69.6115564,61.2357841 C69.7881441,60.9150064 70.1089219,60.7744252 70.5270566,60.7744252 C71.1830474,60.7816429 71.6516241,61.2430018 71.6516241,61.8773396 C71.6516241,62.4973239 71.1974828,62.955074 70.5630631,62.9586829 C70.0368268,62.955074 69.6115564,62.6306874 69.5682502,62.1873728 L68.7969401,62.1873728 C68.8330286,63.0199513 69.5754679,63.6218914 70.5630631,63.6218914 Z" id="Path" fill="#001A5B" fill-rule="nonzero"></path>
            <path d="M73.1510201,62.5333304 L75.6884531,62.5333304 L75.6884531,63.5497964 L76.4381921,63.5497964 L76.4381921,62.5333304 L77.1518426,62.5333304 L77.1518426,61.8629042 L76.4381921,61.8629042 L76.4381921,58.3306583 L75.4578147,58.3306583 L73.1510201,61.891775 L73.1510201,62.5333304 Z M73.9872075,61.8629042 L73.9872075,61.81968 L75.6307935,59.2750292 L75.6884531,59.2750292 L75.6884531,61.8629042 L73.9872075,61.8629042 Z" id="Shape" fill="#001A5B" fill-rule="nonzero"></path>
            <path d="M79.7181465,63.5497964 C81.3076817,63.5497964 82.223592,62.5622013 82.2268728,60.9330506 C82.223592,59.3074269 81.3076817,58.3306583 79.7686704,58.3306583 L78.0241185,58.3306583 L78.0241185,63.5497964 L79.7181465,63.5497964 Z M78.8170817,62.857717 L78.8170817,59.0227376 L79.7181465,59.0227376 C80.8571494,59.0227376 81.4410452,59.7039085 81.4410452,60.9330506 C81.4410452,62.1657197 80.8571494,62.8541082 79.6749223,62.857717 L78.8170817,62.857717 Z" id="Shape" fill="#001A5B" fill-rule="nonzero"></path>
            <path d="M144.423797,63.6218914 C145.512194,63.6218914 146.283996,62.882979 146.283996,61.8557685 C146.283996,60.8501291 145.558945,60.1220432 144.575533,60.1184343 C144.178559,60.1220432 143.811112,60.2626244 143.594581,60.4716917 L143.544549,60.4716917 L143.71761,59.0083022 L146.016613,59.0083022 L146.016613,58.3306583 L143.061455,58.3306583 L142.722715,61.2357841 L143.472372,61.2357841 C143.648714,60.9150064 143.969409,60.7744252 144.387708,60.7744252 C145.043863,60.7816429 145.512194,61.2430018 145.512194,61.8773396 C145.512194,62.4973239 145.057806,62.955074 144.423797,62.9586829 C143.897232,62.955074 143.472372,62.6306874 143.428902,62.1873728 L142.65792,62.1873728 C142.694008,63.0199513 143.436284,63.6218914 144.423797,63.6218914 Z" id="Path" fill="#001A5B" fill-rule="nonzero"></path>
            <path d="M149.016061,63.6219414 C150.136445,63.6291091 150.882822,62.8541082 150.882822,61.8413331 C150.882822,60.8429114 150.133165,60.1292609 149.203065,60.125652 C148.637131,60.1292609 148.147476,60.3887701 147.862048,60.8320848 L147.804635,60.8320848 C147.804635,59.6534665 148.272965,58.9542515 149.080856,58.9506426 C149.6066,58.9542515 149.942059,59.2605938 150.046224,59.6859462 L150.83197,59.6859462 C150.709761,58.8568945 150.042943,58.2585632 149.080856,58.2585632 C147.830061,58.2585632 147.044315,59.2966003 147.040214,61.1132472 C147.040214,63.0416044 148.049873,63.6146737 149.016061,63.6219414 Z M147.898137,61.8629042 C147.905519,61.2826172 148.391893,60.7708163 149.030004,60.7744052 C149.657452,60.7708163 150.11184,61.2574372 150.11184,61.8557685 C150.11184,62.4648443 149.639408,62.955074 149.008679,62.9586829 C148.367288,62.955074 147.902238,62.4432732 147.898137,61.8629042 Z" id="Shape" fill="#001A5B" fill-rule="nonzero"></path>
            <path d="M153.492678,63.5497964 C155.082213,63.5497964 155.997549,62.5622013 156.00083,60.9330506 C155.997549,59.3074269 155.082213,58.3306583 153.54271,58.3306583 L151.798158,58.3306583 L151.798158,63.5497964 L153.492678,63.5497964 Z M152.591285,62.857717 L152.591285,59.0227376 L153.492678,59.0227376 C154.631107,59.0227376 155.215084,59.7039085 155.215084,60.9330506 C155.215084,62.1657197 154.631107,62.8541082 153.449207,62.857717 L152.591285,62.857717 Z" id="Shape" fill="#001A5B" fill-rule="nonzero"></path>
            <path d="M218.259268,63.6218914 C219.347665,63.6218914 220.119467,62.882979 220.119467,61.8557685 C220.119467,60.8501291 219.394416,60.1220432 218.411004,60.1184343 C218.01403,60.1220432 217.646584,60.2626244 217.430053,60.4716917 L217.380021,60.4716917 L217.553082,59.0083022 L219.852084,59.0083022 L219.852084,58.3306583 L216.896927,58.3306583 L216.558187,61.2357841 L217.307844,61.2357841 C217.484185,60.9150064 217.804881,60.7744252 218.22318,60.7744252 C218.879335,60.7816429 219.347665,61.2430018 219.347665,61.8773396 C219.347665,62.4973239 218.893278,62.955074 218.259268,62.9586829 C217.732704,62.955074 217.307844,62.6306874 217.264373,62.1873728 L216.493391,62.1873728 C216.52948,63.0199513 217.271755,63.6218914 218.259268,63.6218914 Z" id="Path" fill="#001A5B" fill-rule="nonzero"></path>
            <path d="M222.785917,63.6218914 C223.903841,63.6218914 224.700249,63.0091248 224.70353,62.158502 C224.700249,61.4880757 224.217155,60.9401863 223.607751,60.8465202 L223.607751,60.8176494 C224.134315,60.6951125 224.498481,60.2193181 224.501762,59.6498577 C224.498481,58.8460679 223.770149,58.2585632 222.785917,58.2585632 C221.787741,58.2585632 221.06351,58.8460679 221.06351,59.6498577 C221.06351,60.2193181 221.420295,60.6951125 221.957521,60.8176494 L221.957521,60.8465202 C221.340736,60.9401863 220.861743,61.4880757 220.869124,62.158502 C220.861743,63.0091248 221.650769,63.6218914 222.785917,63.6218914 Z M221.676195,62.1008423 C221.665533,61.5637796 222.137144,61.1709068 222.785917,61.1709068 C223.428129,61.1709068 223.896459,61.5637796 223.896459,62.1008423 C223.896459,62.6126432 223.464217,62.9659006 222.785917,62.9659006 C222.097775,62.9659006 221.665533,62.6126432 221.676195,62.1008423 Z M221.834492,59.7219527 C221.838593,59.2353318 222.213422,58.9037275 222.785917,58.9073364 C223.345289,58.9037275 223.726679,59.2353318 223.723398,59.7219527 C223.726679,60.2121825 223.330526,60.5473136 222.785917,60.5437867 C222.227365,60.5473136 221.838593,60.2085736 221.834492,59.7219527 Z" id="Shape" fill="#001A5B" fill-rule="nonzero"></path>
            <path d="M227.292061,63.5497964 C228.881596,63.5497964 229.796932,62.5622013 229.800213,60.9330506 C229.796932,59.3074269 228.881596,58.3306583 227.342093,58.3306583 L225.597541,58.3306583 L225.597541,63.5497964 L227.292061,63.5497964 Z M226.390668,62.857717 L226.390668,59.0227376 L227.292061,59.0227376 C228.43049,59.0227376 229.014467,59.7039085 229.014467,60.9330506 C229.014467,62.1657197 228.43049,62.8541082 227.248591,62.857717 L226.390668,62.857717 Z" id="Shape" fill="#001A5B" fill-rule="nonzero"></path>
            <path d="M365.926111,62.8017478 C367.047315,62.8089155 367.793692,62.0339145 367.793692,61.0211394 C367.793692,60.0227177 367.044035,59.3090672 366.113935,59.3054584 C365.548001,59.3090672 365.057526,59.5685765 364.772918,60.0118912 L364.715505,60.0118912 C364.715505,58.8332729 365.183835,58.1340578 365.991726,58.130449 C366.51747,58.1340578 366.852929,58.4404002 366.957094,58.8657526 L367.74284,58.8657526 C367.620631,58.0367009 366.953813,57.4383696 365.991726,57.4383696 C364.740931,57.4383696 363.955185,58.4764067 363.951084,60.2930535 C363.951084,62.2214108 364.960743,62.7944801 365.926111,62.8017478 Z M364.809007,61.0427105 C364.816389,60.4624235 365.302763,59.9506227 365.940874,59.9542116 C366.568322,59.9506227 367.021889,60.4372436 367.021889,61.0355748 C367.021889,61.6446506 366.550278,62.1348804 365.919549,62.1384892 C365.277337,62.1348804 364.813108,61.6230796 364.809007,61.0427105 Z" id="Shape" fill="#001A5B" fill-rule="nonzero"></path>
            <path d="M370.489668,62.8016978 C371.570683,62.8016978 372.374473,62.1636692 372.371212,61.2950841 C372.374473,60.6354844 371.960275,60.1560812 371.246707,60.0551154 L371.246707,60.0191089 C371.808539,59.8785277 372.176806,59.4532573 372.169425,58.8585349 C372.176806,58.0871428 371.531314,57.4383696 370.504432,57.4383696 C369.530862,57.4383696 368.745116,58.0150477 368.723791,58.8657526 L369.487391,58.8657526 C369.505436,58.3935671 369.974586,58.1015782 370.49705,58.1015782 C371.04822,58.1015782 371.405004,58.4259648 371.405004,58.9017591 C371.405004,59.4027334 370.990806,59.7343376 370.396166,59.7307288 L369.94916,59.7307288 L369.94916,60.379584 L370.396166,60.379584 C371.141722,60.3831928 371.570683,60.7508036 371.570683,61.2662133 C371.570683,61.7744053 371.113015,62.1168361 370.482286,62.1168361 C369.898308,62.1168361 369.444741,61.8249292 369.415214,61.3671791 L368.608144,61.3671791 C368.640952,62.2214108 369.408653,62.8016978 370.489668,62.8016978 Z" id="Path" fill="#001A5B" fill-rule="nonzero"></path>
            <path d="M375.009755,62.7296028 C376.59929,62.7296028 377.514627,61.7420076 377.517907,60.112857 C377.514627,58.4872332 376.59929,57.5104646 375.059787,57.5104646 L373.315235,57.5104646 L373.315235,62.7296028 L375.009755,62.7296028 Z M374.108362,62.0375234 L374.108362,58.202544 L375.009755,58.202544 C376.148184,58.202544 376.732162,58.8837148 376.732162,60.112857 C376.732162,61.345526 376.148184,62.0339145 374.966285,62.0375234 L374.108362,62.0375234 Z" id="Shape" fill="#001A5B" fill-rule="nonzero"></path>
            <path d="M439.747639,62.8017478 C440.868844,62.8089155 441.6144,62.0339145 441.6144,61.0211394 C441.6144,60.0227177 440.864743,59.3090672 439.934643,59.3054584 C439.36871,59.3090672 438.879054,59.5685765 438.594447,60.0118912 L438.536213,60.0118912 C438.536213,58.8332729 439.005364,58.1340578 439.812434,58.130449 C440.338999,58.1340578 440.673638,58.4404002 440.778622,58.8657526 L441.564368,58.8657526 C441.441339,58.0367009 440.774521,57.4383696 439.812434,57.4383696 C438.561639,57.4383696 437.775893,58.4764067 437.772613,60.2930535 C437.772613,62.2214108 438.781451,62.7944801 439.747639,62.8017478 Z M438.630535,61.0427105 C438.637097,60.4624235 439.124292,59.9506227 439.761582,59.9542116 C440.38903,59.9506227 440.843418,60.4372436 440.843418,61.0355748 C440.843418,61.6446506 440.370986,62.1348804 439.740257,62.1384892 C439.098866,62.1348804 438.633816,61.6230796 438.630535,61.0427105 Z" id="Shape" fill="#001A5B" fill-rule="nonzero"></path>
            <path d="M444.346465,62.8017478 C445.467669,62.8089155 446.214046,62.0339145 446.214046,61.0211394 C446.214046,60.0227177 445.464389,59.3090672 444.534289,59.3054584 C443.968355,59.3090672 443.47788,59.5685765 443.193272,60.0118912 L443.135859,60.0118912 C443.135859,58.8332729 443.604189,58.1340578 444.41126,58.130449 C444.937824,58.1340578 445.273284,58.4404002 445.377448,58.8657526 L446.163194,58.8657526 C446.040985,58.0367009 445.374167,57.4383696 444.41126,57.4383696 C443.160465,57.4383696 442.374719,58.4764067 442.371438,60.2930535 C442.371438,62.2214108 443.381097,62.7944801 444.346465,62.8017478 Z M443.229361,61.0427105 C443.236743,60.4624235 443.723118,59.9506227 444.361228,59.9542116 C444.988676,59.9506227 445.442243,60.4372436 445.442243,61.0355748 C445.442243,61.6446506 444.970632,62.1348804 444.339903,62.1384892 C443.697692,62.1348804 443.232642,61.6230796 443.229361,61.0427105 Z" id="Shape" fill="#001A5B" fill-rule="nonzero"></path>
            <path d="M448.823082,62.7296028 C450.412617,62.7296028 451.328773,61.7420076 451.332054,60.112857 C451.328773,58.4872332 450.412617,57.5104646 448.873934,57.5104646 L447.129382,57.5104646 L447.129382,62.7296028 L448.823082,62.7296028 Z M447.922509,62.0375234 L447.922509,58.202544 L448.823082,58.202544 C449.962331,58.202544 450.546308,58.8837148 450.546308,60.112857 C450.546308,61.345526 449.962331,62.0339145 448.780432,62.0375234 L447.922509,62.0375234 Z" id="Shape" fill="#001A5B" fill-rule="nonzero"></path>
            <path d="M513.565066,62.8017478 C514.686271,62.8089155 515.431827,62.0339966 515.431827,61.0211394 C515.431827,60.0227997 514.68217,59.3090672 513.752071,59.3054584 C513.186137,59.3090672 512.696481,59.5685765 512.411874,60.0119732 L512.35364,60.0119732 C512.35364,58.8333549 512.822791,58.1340578 513.629862,58.130449 C514.156426,58.1340578 514.491065,58.4404822 514.59605,58.8657526 L515.381795,58.8657526 C515.258766,58.0367829 514.591949,57.4384516 513.629862,57.4384516 C512.379066,57.4384516 511.593321,58.4764887 511.59004,60.2930535 C511.59004,62.2214108 512.598878,62.7945621 513.565066,62.8017478 Z M512.447963,61.0427926 C512.454524,60.4625056 512.941719,59.9507047 513.57901,59.9542936 C514.206458,59.9507047 514.660845,60.4372436 514.660845,61.0355748 C514.660845,61.6447327 514.188414,62.1349624 513.557685,62.1384892 C512.916293,62.1349624 512.451243,61.6230796 512.447963,61.0427926 Z" id="Shape" fill="#001A5B" fill-rule="nonzero"></path>
            <path d="M518.07039,57.4384018 C516.935242,57.4312339 516.196248,58.2097617 516.196248,59.2045746 C516.196248,60.2029963 516.945905,60.9202556 517.883386,60.9202556 C518.445219,60.9202556 518.935694,60.6535287 519.217021,60.2138228 L519.281816,60.2138228 C519.274434,61.4068765 518.802003,62.1060916 517.998213,62.1097004 C517.472469,62.1060916 517.132909,61.7997493 517.025463,61.3599614 L516.239718,61.3599614 C516.365207,62.2069754 517.036126,62.8016978 517.998213,62.8016978 C519.249008,62.8016978 520.038035,61.7636607 520.038035,59.9326605 C520.034754,58.0223475 519.029196,57.4456693 518.07039,57.4384018 Z M516.967213,59.1901392 C516.963949,58.5918079 517.439661,58.1016602 518.07039,58.1016602 C518.708501,58.1016602 519.17355,58.6170699 519.17355,59.1829215 C519.17355,59.7596816 518.687176,60.2750913 518.055627,60.2715027 C517.421617,60.2750913 516.971331,59.7956881 516.967213,59.1901392 Z" id="Shape" fill="#001A5B" fill-rule="nonzero"></path>
            <path d="M522.640509,62.7296848 C524.230044,62.7296848 525.146201,61.7420076 525.149481,60.112857 C525.146201,58.4873152 524.230044,57.5105466 522.691361,57.5105466 L520.946809,57.5105466 L520.946809,62.7296848 L522.640509,62.7296848 Z M521.739936,62.0376054 L521.739936,58.202544 L522.640509,58.202544 C523.779758,58.202544 524.363736,58.8837968 524.363736,60.112857 C524.363736,61.345608 523.779758,62.0339966 522.597859,62.0376054 L521.739936,62.0376054 Z" id="Shape" fill="#001A5B" fill-rule="nonzero"></path>
            <polygon id="Path" fill="#979797" points="38.1390041 40.0132737 38.1390041 12.5231717 38.9591978 12.5231717 38.9591978 40.0132737"></polygon>
            <polygon id="Path" fill="#979797" points="185.773859 40.0132737 185.773859 12.5231717 186.594053 12.5231717 186.594053 40.0132737"></polygon>
            <polygon id="Path" fill="#979797" points="259.591286 40.0132737 259.591286 12.5231717 260.41148 12.5231717 260.41148 40.0132737"></polygon>
            <polygon id="Path" fill="#979797" points="321.105809 40.0132737 321.105809 12.5231717 321.926003 12.5231717 321.926003 40.0132737"></polygon>
            <polygon id="Path" fill="#979797" points="345.711618 40.0132737 345.711618 12.5231717 346.531812 12.5231717 346.531812 40.0132737"></polygon>
            <polygon id="Path" fill="#979797" points="394.923237 40.0132737 394.923237 12.5231717 395.74343 12.5231717 395.74343 40.0132737"></polygon>
            <polygon id="Path" fill="#979797" points="419.529046 40.0132737 419.529046 12.5231717 420.349239 12.5231717 420.349239 40.0132737"></polygon>
            <polygon id="Path" fill="#979797" points="468.740664 40.0132737 468.740664 12.5231717 469.560858 12.5231717 469.560858 40.0132737"></polygon>
            <polygon id="Path" fill="#979797" points="493.346473 40.0132737 493.346473 12.5231717 494.166667 12.5231717 494.166667 40.0132737"></polygon>
            <polygon id="Path" fill="#979797" points="542.558091 40.0132737 542.558091 12.5231717 543.378285 12.5231717 543.378285 40.0132737"></polygon>
            <polygon id="Path" fill="#979797" points="567.1639 40.0132737 567.1639 12.5231717 567.984094 12.5231717 567.984094 40.0132737"></polygon>
            <rect id="Rectangle" fill="#E2E6F6" fill-rule="nonzero" x="223.092669" y="15.9040919" width="73.8174274" height="19.6846473"></rect>
            <path d="M246.245095,22.1780811 L245.483956,22.1780811 L245.483956,23.4515957 L243.925588,23.4515957 C243.973979,23.211279 244.001866,22.9550505 244.001866,22.6907021 L240.717811,22.6907021 L240.717811,23.3154436 L243.176751,23.3154436 C243.040599,24.4728188 242.047344,25.3859404 240.349544,25.8705108 L240.653835,26.4632648 C242.208102,26.0187198 243.285017,25.2057439 243.750066,24.0523056 L245.483956,24.0523056 L245.483956,24.9254017 L243.673788,24.9254017 L243.673788,25.5501432 L245.483956,25.5501432 L245.483956,26.4232393 L246.245095,26.4232393 L246.245095,22.1780811 Z M241.462546,27.9050011 C241.462546,28.7780973 242.40823,29.31475 243.882118,29.31475 C245.335501,29.31475 246.288566,28.7780973 246.292667,27.9050011 C246.288566,27.0359239 245.335501,26.5073091 243.882118,26.5032902 C242.40823,26.5073091 241.462546,27.0359239 241.462546,27.9050011 Z M242.215484,27.9050011 C242.215484,27.3923801 242.856876,27.1000631 243.882118,27.104 C244.886855,27.1000631 245.528246,27.3923801 245.531527,27.9050011 C245.528246,28.4095843 244.886855,28.7019833 243.882118,28.7060022 C242.856876,28.7019833 242.215484,28.4095843 242.215484,27.9050011 Z" id="Shape" fill="#113287" fill-rule="nonzero"></path>
            <polygon id="Path" fill="#113287" fill-rule="nonzero" points="253.165069 25.4780482 248.927949 25.4780482 248.927949 23.3394753 253.101094 23.3394753 253.101094 22.7226896 248.166809 22.7226896 248.166809 26.0867959 250.241899 26.0867959 250.241899 27.840944 247.349896 27.840944 247.349896 28.4656855 253.918007 28.4656855 253.918007 27.840944 250.994837 27.840944 250.994837 26.0867959 253.165069 26.0867959"></polygon>
            <path d="M256.689441,28.6658948 L260.590282,28.6658948 L260.590282,27.913039 L257.914811,27.913039 L257.914811,27.8649757 L259.092609,26.6715119 C260.181826,25.6022255 260.486118,25.0855855 260.49432,24.4368123 C260.486118,23.4956401 259.712675,22.7868288 258.595571,22.7868288 C257.48995,22.7868288 256.681239,23.4876843 256.689441,24.5489328 L257.522758,24.5489328 C257.526039,23.9322292 257.934495,23.5236908 258.579988,23.5236908 C259.188571,23.5236908 259.652801,23.8881028 259.652801,24.460844 C259.652801,24.9694461 259.336206,25.3378771 258.699736,25.9987071 L256.689441,28.0251595 L256.689441,28.6658948 Z" id="Path" fill="#113287" fill-rule="nonzero"></path>
            <path d="M263.585629,28.7460277 C264.927466,28.7460277 265.712391,27.6646844 265.716492,25.7664282 C265.712391,23.8801469 264.915163,22.7868288 263.585629,22.7868288 C262.251994,22.7868288 261.454766,23.8801469 261.454766,25.7664282 C261.454766,27.6646844 262.243793,28.7460277 263.585629,28.7460277 Z M262.336474,25.7664282 C262.336474,24.3246919 262.804805,23.5357476 263.585629,23.5317287 C264.362353,23.5357476 264.835604,24.3246919 264.835604,25.7664282 C264.835604,27.2121836 264.366454,27.985134 263.585629,27.985134 C262.800704,27.985134 262.332373,27.2121836 262.336474,25.7664282 Z" id="Shape" fill="#113287" fill-rule="nonzero"></path>
            <path d="M266.982051,28.721996 C267.290444,28.7179771 267.546344,28.4656855 267.550445,28.1532737 C267.546344,27.840944 267.290444,27.5846335 266.982051,27.5846335 C266.669557,27.5846335 266.408736,27.840944 266.412837,28.1532737 C266.408736,28.4656855 266.669557,28.7179771 266.982051,28.721996 Z" id="Path" fill="#113287" fill-rule="nonzero"></path>
            <path d="M270.402259,28.7460277 C271.643212,28.7460277 272.528201,28.0651849 272.532302,27.1200758 C272.528201,26.375176 271.991794,25.7664282 271.315134,25.6622636 L271.315134,25.6302761 C271.899932,25.4941239 272.304288,24.9654271 272.308389,24.3326477 C272.304288,23.4396209 271.495577,22.7868288 270.402259,22.7868288 C269.292537,22.7868288 268.487927,23.4396209 268.487927,24.3326477 C268.487927,24.9654271 268.88408,25.4941239 269.481181,25.6302761 L269.481181,25.6622636 C268.79632,25.7664282 268.263194,26.375176 268.271396,27.1200758 C268.263194,28.0651849 269.140801,28.7460277 270.402259,28.7460277 Z M269.168687,27.0560187 C269.156385,26.4592458 269.681308,26.0227387 270.402259,26.0227387 C271.115007,26.0227387 271.63583,26.4592458 271.63583,27.0560187 C271.63583,27.6246589 271.155196,28.0171216 270.402259,28.0171216 C269.637018,28.0171216 269.156385,27.6246589 269.168687,27.0560187 Z M269.345029,24.4127807 C269.34831,23.872109 269.764968,23.503678 270.402259,23.507697 C271.023145,23.503678 271.447185,23.872109 271.443084,24.4127807 C271.447185,24.9574713 271.006741,25.3299212 270.402259,25.3259022 C269.781372,25.3299212 269.34831,24.9534523 269.345029,24.4127807 Z" id="Shape" fill="#113287" fill-rule="nonzero"></path>
            <path d="M274.775531,25.6222382 C275.556355,25.6302761 275.988598,25.04556 275.992698,24.1805018 C275.988598,23.3314374 275.571939,22.7427844 274.775531,22.7467017 C274.002089,22.7427844 273.550162,23.3314374 273.557544,24.1805018 C273.550162,25.0415411 273.982404,25.6302761 274.775531,25.6222382 Z M274.214519,28.6658948 L274.943671,28.6658948 L278.924071,22.8668797 L278.195739,22.8668797 L274.214519,28.6658948 Z M274.214519,24.1805018 C274.21862,23.6638618 274.403163,23.3154436 274.775531,23.3074057 C275.163483,23.3034688 275.328342,23.6598429 275.328342,24.1805018 C275.328342,24.7131356 275.152,25.0575349 274.775531,25.0615538 C274.403163,25.0575349 274.21862,24.7131356 274.214519,24.1805018 Z M277.218068,27.3443168 C277.213967,28.1974002 277.647029,28.7860531 278.436055,28.7860531 C279.21688,28.7860531 279.649122,28.2013371 279.653223,27.3443168 C279.649122,26.4872964 279.228362,25.8985614 278.436055,25.9025599 C277.662613,25.8985614 277.213967,26.4872964 277.218068,27.3443168 Z M277.875043,27.3443168 C277.879144,26.8197209 278.066968,26.4713026 278.436055,26.4632648 C278.824007,26.4632648 278.988046,26.815702 278.988046,27.3443168 C278.988046,27.8689946 278.812524,28.2174129 278.436055,28.2174129 C278.062867,28.2174129 277.879144,27.8689946 277.875043,27.3443168 Z" id="Shape" fill="#113287" fill-rule="nonzero"></path>
            <rect id="Rectangle" fill="#5B6EB4" fill-rule="nonzero" x="149.275242" y="15.9040919" width="73.8174274" height="19.6846473"></rect>
            <path d="M176.231726,25.3259022 L169.688221,25.3259022 L169.688221,25.9426058 L172.579404,25.9426058 L172.579404,26.6314865 C171.245769,26.6995625 170.464945,27.1441075 170.464945,27.8969632 C170.464945,28.7100212 171.394224,29.166541 172.955873,29.1625483 C174.497837,29.166541 175.427116,28.7100212 175.431217,27.8969632 C175.427116,27.1441075 174.646292,26.7035815 173.332342,26.6314865 L173.332342,25.9426058 L176.231726,25.9426058 L176.231726,25.3259022 Z M170.032703,24.3487235 L170.296805,24.9494334 C171.541859,24.8052433 172.56382,24.2806475 172.959974,23.5196718 C173.348746,24.2806475 174.377268,24.8052433 175.623142,24.9494334 L175.895447,24.3487235 C174.581497,24.2165083 173.572658,23.6358112 173.468494,22.9389747 L175.646928,22.9389747 L175.646928,22.330227 L170.288603,22.330227 L170.288603,22.9389747 L172.443252,22.9389747 C172.339087,23.6317923 171.322047,24.2165083 170.032703,24.3487235 Z M171.233453,27.8969632 C171.230185,27.4524183 171.858454,27.2121836 172.955873,27.2081646 C174.036888,27.2121836 174.670077,27.4524183 174.670077,27.8969632 C174.670077,28.3335523 174.036888,28.5858439 172.955873,28.577806 C171.858454,28.5858439 171.230185,28.3335523 171.233453,27.8969632 Z" id="Shape" fill="#FFFFFF" fill-rule="nonzero"></path>
            <polygon id="Path" fill="#FFFFFF" fill-rule="nonzero" points="182.591508 25.3098264 178.354387 25.3098264 178.354387 23.1712535 182.527533 23.1712535 182.527533 22.55455 177.593248 22.55455 177.593248 25.9185742 179.668337 25.9185742 179.668337 27.6727223 176.776335 27.6727223 176.776335 28.2974638 183.344445 28.2974638 183.344445 27.6727223 180.421275 27.6727223 180.421275 25.9185742 182.591508 25.9185742"></polygon>
            <polygon id="Path" fill="#FFFFFF" fill-rule="nonzero" points="188.31892 22.698658 187.453615 22.698658 186.011715 23.6438491 186.011715 24.4848757 187.397022 23.579792 187.42983 23.579792 187.42983 28.4977551 188.31892 28.4977551"></polygon>
            <path d="M190.032304,28.5537743 C190.340697,28.5497553 190.597418,28.2974638 190.601519,27.985134 C190.597418,27.6727223 190.340697,27.4164118 190.032304,27.4164118 C189.720631,27.4164118 189.459809,27.6727223 189.46391,27.985134 C189.459809,28.2974638 189.720631,28.5497553 190.032304,28.5537743 Z" id="Path" fill="#FFFFFF" fill-rule="nonzero"></path>
            <path d="M193.428726,28.577806 C194.770563,28.577806 195.555488,27.4965447 195.559589,25.5982065 C195.555488,23.7119252 194.75826,22.6186071 193.428726,22.6186071 C192.095091,22.6186071 191.297863,23.7119252 191.297863,25.5982065 C191.297863,27.4965447 192.086889,28.577806 193.428726,28.577806 Z M192.179571,25.5982065 C192.179571,24.1564701 192.647902,23.3675259 193.428726,23.3635069 C194.20545,23.3675259 194.677881,24.1564701 194.677881,25.5982065 C194.677881,27.0439618 194.20955,27.8169123 193.428726,27.8169123 C192.643801,27.8169123 192.17547,27.0439618 192.179571,25.5982065 Z" id="Shape" fill="#FFFFFF" fill-rule="nonzero"></path>
            <path d="M197.801999,25.4540165 C198.582823,25.4620544 199.015885,24.8773383 199.019166,24.0122801 C199.015885,23.1632977 198.599227,22.5745627 197.801999,22.5785612 C197.029376,22.5745627 196.576629,23.1632977 196.584831,24.0122801 C196.576629,24.8733194 197.008871,25.4620544 197.801999,25.4540165 Z M197.240986,28.4977551 L197.970138,28.4977551 L201.951358,22.698658 L201.222206,22.698658 L197.240986,28.4977551 Z M197.240986,24.0122801 C197.245087,23.4956401 197.429631,23.1472219 197.801999,23.139266 C198.19077,23.135247 198.354809,23.4916212 198.354809,24.0122801 C198.354809,24.5449139 198.178467,24.8893132 197.801999,24.8933321 C197.429631,24.8893132 197.245087,24.5449139 197.240986,24.0122801 Z M200.245355,27.176095 C200.241254,28.0291784 200.673497,28.6178314 201.462523,28.6178314 C202.243347,28.6178314 202.675589,28.0331974 202.67969,27.176095 C202.675589,26.3190747 202.25565,25.7303397 201.462523,25.7343382 C200.6899,25.7303397 200.241254,26.3190747 200.245355,27.176095 Z M200.90151,27.176095 C200.905611,26.6514992 201.094256,26.3030809 201.462523,26.295043 C201.851295,26.295043 202.015333,26.6474802 202.015333,27.176095 C202.015333,27.7007729 201.838992,28.0491912 201.462523,28.0491912 C201.090155,28.0491912 200.905611,27.7007729 200.90151,27.176095 Z" id="Shape" fill="#FFFFFF" fill-rule="nonzero"></path>
            <rect id="Rectangle" fill="#113287" fill-rule="nonzero" x="75.4578147" y="15.9040919" width="73.8174274" height="19.6846473"></rect>
            <path d="M100.748485,22.8508859 L95.6304772,22.8508859 L95.6304772,23.4676715 L99.9873458,23.4676715 L99.9873458,23.5557603 C99.9832448,24.4167996 99.9832448,25.4340038 99.7068396,26.8236578 L100.476181,26.9037908 C100.744385,25.4340038 100.744385,24.4408313 100.748485,23.5557603 L100.748485,22.8508859 Z M94.9415145,28.3695588 L101.485019,28.3695588 L101.485019,27.7367794 L98.1853804,27.7367794 L98.1853804,25.2057439 L97.4324426,25.2057439 L97.4324426,27.7367794 L94.9415145,27.7367794 L94.9415145,28.3695588 Z" id="Shape" fill="#FFFFFF" fill-rule="nonzero"></path>
            <polygon id="Path" fill="#FFFFFF" fill-rule="nonzero" points="107.844801 25.4700923 103.60768 25.4700923 103.60768 23.3314374 107.780826 23.3314374 107.780826 22.7147338 102.847361 22.7147338 102.847361 26.078758 104.921631 26.078758 104.921631 27.8329061 102.029628 27.8329061 102.029628 28.4576476 108.597739 28.4576476 108.597739 27.8329061 105.674568 27.8329061 105.674568 26.078758 107.844801 26.078758"></polygon>
            <path d="M113.387669,28.7379898 C114.729506,28.7379898 115.514432,27.6567285 115.518533,25.7583903 C115.514432,23.872109 114.717203,22.7787909 113.387669,22.7787909 C112.054035,22.7787909 111.256806,23.872109 111.256806,25.7583903 C111.256806,27.6567285 112.045833,28.7379898 113.387669,28.7379898 Z M112.138515,25.7583903 C112.138515,24.316654 112.606845,23.5277097 113.387669,23.5236908 C114.164393,23.5277097 114.637645,24.316654 114.637645,25.7583903 C114.637645,27.2041457 114.168494,27.9770961 113.387669,27.9770961 C112.602744,27.9770961 112.134414,27.2041457 112.138515,25.7583903 Z" id="Shape" fill="#FFFFFF" fill-rule="nonzero"></path>
            <path d="M116.784091,28.7139581 C117.092484,28.7100212 117.348385,28.4576476 117.352485,28.1453179 C117.348385,27.8329061 117.092484,27.5765956 116.784091,27.5765956 C116.471598,27.5765956 116.211596,27.8329061 116.214877,28.1453179 C116.211596,28.4576476 116.471598,28.7100212 116.784091,28.7139581 Z" id="Path" fill="#FFFFFF" fill-rule="nonzero"></path>
            <path d="M118.249777,27.5285322 L121.068783,27.5285322 L121.068783,28.6579389 L121.9021,28.6579389 L121.9021,27.5285322 L122.695227,27.5285322 L122.695227,26.7836324 L121.9021,26.7836324 L121.9021,22.8589238 L120.812882,22.8589238 L118.249777,26.815702 L118.249777,27.5285322 Z M119.179057,26.7836324 L119.179057,26.735569 L121.004808,23.9081975 L121.068783,23.9081975 L121.068783,26.7836324 L119.179057,26.7836324 Z" id="Shape" fill="#FFFFFF" fill-rule="nonzero"></path>
            <path d="M124.913851,25.6142003 C125.694675,25.6222382 126.126917,25.0375222 126.131018,24.1724639 C126.126917,23.3234815 125.711079,22.7347465 124.913851,22.738745 C124.140408,22.7347465 123.688481,23.3234815 123.695863,24.1724639 C123.688481,25.0335032 124.120723,25.6222382 124.913851,25.6142003 Z M124.352838,28.6579389 L125.08199,28.6579389 L129.06239,22.8589238 L128.334058,22.8589238 L124.352838,28.6579389 Z M124.352838,24.1724639 C124.356939,23.6558239 124.541483,23.3074057 124.913851,23.2994498 C125.301802,23.2954309 125.466661,23.651887 125.466661,24.1724639 C125.466661,24.7050977 125.29032,25.049579 124.913851,25.0535159 C124.541483,25.049579 124.356939,24.7050977 124.352838,24.1724639 Z M127.356387,27.3362789 C127.352286,28.1893623 127.785349,28.7780973 128.574375,28.7780973 C129.355199,28.7780973 129.787441,28.1933812 129.791542,27.3362789 C129.787441,26.4792585 129.367502,25.8906056 128.574375,25.8945229 C127.800932,25.8906056 127.352286,26.4792585 127.356387,27.3362789 Z M128.013362,27.3362789 C128.017463,26.811683 128.206108,26.4632648 128.574375,26.4552269 C128.962326,26.4552269 129.127185,26.8076641 129.127185,27.3362789 C129.127185,27.8609567 128.950844,28.209375 128.574375,28.209375 C128.202007,28.209375 128.017463,27.8609567 128.013362,27.3362789 Z" id="Shape" fill="#FFFFFF" fill-rule="nonzero"></path>
            <rect id="Rectangle" fill="#001A5B" fill-rule="nonzero" x="9.02213001" y="15.9040919" width="66.4356846" height="19.6846473"></rect>
            <path d="M24.8549019,28.0451722 L21.9393596,28.0451722 L21.9393596,26.4832775 L21.1865039,26.4832775 L21.1865039,28.0451722 L18.2869553,28.0451722 L18.2869553,28.6699137 L24.8549019,28.6699137 L24.8549019,28.0451722 Z M18.607323,26.1388782 L18.895703,26.7315501 C20.0971227,26.5433977 21.0943961,25.9746754 21.5589538,25.1376678 C22.0274484,25.9746754 23.0286588,26.5433977 24.2301604,26.7315501 L24.5185405,26.1388782 C23.0447346,25.9225931 21.983404,25.0896044 21.9473975,24.0803562 L24.2461542,24.0803562 L24.2461542,23.4636526 L21.9393596,23.4636526 L21.9393596,22.5024677 L21.1865039,22.5024677 L21.1865039,23.4636526 L18.8797093,23.4636526 L18.8797093,24.0803562 L21.178466,24.0803562 C21.1423775,25.0896044 20.0811289,25.9225931 18.607323,26.1388782 Z" id="Shape" fill="#FFFFFF" fill-rule="nonzero"></path>
            <path d="M31.1826138,23.063152 L26.0643595,23.063152 L26.0643595,23.6798556 L30.4216382,23.6798556 L30.4216382,23.7680264 C30.4176192,24.6290657 30.4176192,25.6462699 30.141296,27.0359239 L30.9102275,27.1160569 C31.1785949,25.6462699 31.1785949,24.6530974 31.1826138,23.7680264 L31.1826138,23.063152 Z M25.3755609,28.5818249 L31.9194758,28.5818249 L31.9194758,27.9490455 L28.6195087,27.9490455 L28.6195087,25.41801 L27.866571,25.41801 L27.866571,27.9490455 L25.3755609,27.9490455 L25.3755609,28.5818249 Z" id="Shape" fill="#FFFFFF" fill-rule="nonzero"></path>
            <polygon id="Path" fill="#FFFFFF" fill-rule="nonzero" points="38.2791752 25.6822764 34.0420549 25.6822764 34.0420549 23.5437035 38.2151181 23.5437035 38.2151181 22.9269999 33.2810793 22.9269999 33.2810793 26.2910241 35.355595 26.2910241 35.355595 28.0451722 32.4641664 28.0451722 32.4641664 28.6699137 39.032113 28.6699137 39.032113 28.0451722 36.1085328 28.0451722 36.1085328 26.2910241 38.2791752 26.2910241"></polygon>
            <path d="M43.8218798,28.9502559 C45.1635526,28.9502559 45.9484779,27.8689946 45.9524968,25.9706565 C45.9484779,24.0843751 45.1514957,22.991057 43.8218798,22.991057 C42.488245,22.991057 41.6913448,24.0843751 41.6913448,25.9706565 C41.6913448,27.8689946 42.4802891,28.9502559 43.8218798,28.9502559 Z M42.5723968,25.9706565 C42.5723968,24.5289201 43.0409734,23.7399758 43.8218798,23.7359569 C44.5988492,23.7399758 45.0713628,24.5289201 45.0713628,25.9706565 C45.0713628,27.4164118 44.6028682,28.1893623 43.8218798,28.1893623 C43.0369545,28.1893623 42.5683779,27.4164118 42.5723968,25.9706565 Z" id="Shape" fill="#FFFFFF" fill-rule="nonzero"></path>
            <path d="M47.2179736,28.9262242 C47.5263664,28.9222053 47.7826769,28.6699137 47.7866959,28.357584 C47.7826769,28.0451722 47.5263664,27.7888617 47.2179736,27.7888617 C46.9056438,27.7888617 46.6453144,28.0451722 46.6493333,28.357584 C46.6453144,28.6699137 46.9056438,28.9222053 47.2179736,28.9262242 Z" id="Path" fill="#FFFFFF" fill-rule="nonzero"></path>
            <polygon id="Path" fill="#FFFFFF" fill-rule="nonzero" points="50.3097755 23.0711899 49.4447173 23.0711899 48.0029809 24.0162991 48.0029809 24.8573256 49.388616 23.9522419 49.4206856 23.9522419 49.4206856 28.870205 50.3097755 28.870205"></polygon>
            <path d="M53.1131154,25.8264664 C53.8941037,25.8345043 54.3265918,25.2497883 54.3306108,24.38473 C54.3265918,23.5357476 53.9100975,22.9470126 53.1131154,22.9510111 C52.3402469,22.9470126 51.887664,23.5357476 51.8957019,24.38473 C51.887664,25.2457693 52.3201521,25.8345043 53.1131154,25.8264664 Z M52.552431,28.870205 L53.2813371,28.870205 L57.2621469,23.0711899 L56.5333228,23.0711899 L52.552431,28.870205 Z M52.552431,24.38473 C52.5564499,23.8680901 52.7406654,23.5196718 53.1131154,23.5117159 C53.5016411,23.507697 53.6658438,23.8640711 53.6658438,24.38473 C53.6658438,24.9173638 53.4895842,25.2617631 53.1131154,25.265782 C52.7406654,25.2617631 52.5564499,24.9173638 52.552431,24.38473 Z M55.5561441,27.548545 C55.5521252,28.4016284 55.9846133,28.9902813 56.7735575,28.9902813 C57.5545459,28.9902813 57.987034,28.4056473 57.991053,27.548545 C57.987034,26.6915246 57.5665207,26.1027896 56.7735575,26.1067881 C56.0006071,26.1027896 55.5521252,26.6915246 55.5561441,27.548545 Z M56.2128732,27.548545 C56.2168921,27.0239491 56.4051266,26.6755309 56.7735575,26.667493 C57.1620833,26.667493 57.326286,27.0199302 57.326286,27.548545 C57.326286,28.0732228 57.1500264,28.4216411 56.7735575,28.4216411 C56.4011076,28.4216411 56.2168921,28.0732228 56.2128732,27.548545 Z" id="Shape" fill="#FFFFFF" fill-rule="nonzero"></path>
            <polygon id="Path" fill="#979797" points="148.865145 52.4923559 148.865145 0 149.685339 0 149.685339 52.4923559"></polygon>
            <polygon id="Path" fill="#979797" points="222.682573 52.4923559 222.682573 0 223.502766 0 223.502766 52.4923559"></polygon>
            <polygon id="Path" fill="#979797" points="75.0477178 52.4923559 75.0477178 0 75.8679115 0 75.8679115 52.4923559"></polygon>
            <rect id="Rectangle" fill="#113287" fill-rule="nonzero" x="444.544952" y="15.9040919" width="73.8174274" height="19.6846473"></rect>
            <path d="M470.748498,22.8508859 L465.63049,22.8508859 L465.63049,23.4676715 L469.988178,23.4676715 L469.988178,23.5557603 C469.984077,24.4167996 469.984077,25.4340038 469.707672,26.8236578 L470.476194,26.9037908 C470.744397,25.4340038 470.744397,24.4408313 470.748498,23.5557603 L470.748498,22.8508859 Z M464.941527,28.3695588 L471.485852,28.3695588 L471.485852,27.7367794 L468.185393,27.7367794 L468.185393,25.2057439 L467.432455,25.2057439 L467.432455,27.7367794 L464.941527,27.7367794 L464.941527,28.3695588 Z" id="Shape" fill="#FFFFFF" fill-rule="nonzero"></path>
            <polygon id="Path" fill="#FFFFFF" fill-rule="nonzero" points="477.845633 25.4700923 473.608513 25.4700923 473.608513 23.3314374 477.780838 23.3314374 477.780838 22.7147338 472.847373 22.7147338 472.847373 26.078758 474.921643 26.078758 474.921643 27.8329061 472.030461 27.8329061 472.030461 28.4576476 478.598571 28.4576476 478.598571 27.8329061 475.674581 27.8329061 475.674581 26.078758 477.845633 26.078758"></polygon>
            <polygon id="Path" fill="#FFFFFF" fill-rule="nonzero" points="483.572225 22.8589238 482.706921 22.8589238 481.265841 23.8040329 481.265841 24.6450595 482.651148 23.7399758 482.683136 23.7399758 482.683136 28.6579389 483.572225 28.6579389"></polygon>
            <path d="M485.28643,28.7139581 C485.594823,28.7100212 485.850723,28.4576476 485.854824,28.1453179 C485.850723,27.8329061 485.594823,27.5765956 485.28643,27.5765956 C484.973936,27.5765956 484.713935,27.8329061 484.717216,28.1453179 C484.713935,28.4576476 484.973936,28.7100212 485.28643,28.7139581 Z" id="Path" fill="#FFFFFF" fill-rule="nonzero"></path>
            <path d="M486.880066,28.6579389 L490.780907,28.6579389 L490.780907,27.9050011 L488.105436,27.9050011 L488.105436,27.8569378 L489.283234,26.663474 C490.372451,25.5941876 490.676743,25.0775476 490.684945,24.4287744 C490.676743,23.4876843 489.90412,22.7787909 488.786196,22.7787909 C487.681396,22.7787909 486.871864,23.4796464 486.880066,24.5408949 L487.713383,24.5408949 C487.717484,23.9241913 488.125941,23.5156529 488.770613,23.5156529 C489.379196,23.5156529 489.843426,23.8801469 489.843426,24.4528061 C489.843426,24.9614082 489.527651,25.3299212 488.890361,25.9906692 L486.880066,28.0171216 L486.880066,28.6579389 Z" id="Path" fill="#FFFFFF" fill-rule="nonzero"></path>
            <path d="M493.088112,25.6142003 C493.868936,25.6222382 494.301178,25.0375222 494.305279,24.1724639 C494.301178,23.3234815 493.88452,22.7347465 493.088112,22.738745 C492.314669,22.7347465 491.861923,23.3234815 491.870124,24.1724639 C491.861923,25.0335032 492.294985,25.6222382 493.088112,25.6142003 Z M492.5271,28.6579389 L493.256252,28.6579389 L497.236651,22.8589238 L496.507499,22.8589238 L492.5271,28.6579389 Z M492.5271,24.1724639 C492.531201,23.6558239 492.714924,23.3074057 493.088112,23.2994498 C493.476064,23.2954309 493.640102,23.651887 493.640102,24.1724639 C493.640102,24.7050977 493.464581,25.049579 493.088112,25.0535159 C492.714924,25.049579 492.531201,24.7050977 492.5271,24.1724639 Z M495.530649,27.3362789 C495.526548,28.1893623 495.95961,28.7780973 496.747816,28.7780973 C497.529461,28.7780973 497.961703,28.1933812 497.965804,27.3362789 C497.961703,26.4792585 497.540943,25.8906056 496.747816,25.8945229 C495.975194,25.8906056 495.526548,26.4792585 495.530649,27.3362789 Z M496.187624,27.3362789 C496.191725,26.811683 496.379549,26.4632648 496.747816,26.4552269 C497.136588,26.4552269 497.300627,26.8076641 497.300627,27.3362789 C497.300627,27.8609567 497.124285,28.209375 496.747816,28.209375 C496.375448,28.209375 496.191725,27.8609567 496.187624,27.3362789 Z" id="Shape" fill="#FFFFFF" fill-rule="nonzero"></path>
            <rect id="Rectangle" fill="#5B6EB4" fill-rule="nonzero" x="370.727524" y="15.9040919" width="73.8174274" height="19.6846473"></rect>
            <path d="M394.901091,25.3259022 L388.356766,25.3259022 L388.356766,25.9426058 L391.248769,25.9426058 L391.248769,26.6314865 C389.915134,26.6995625 389.13349,27.1441075 389.13349,27.8969632 C389.13349,28.7100212 390.062769,29.166541 391.625238,29.1625483 C393.166382,29.166541 394.095661,28.7100212 394.099762,27.8969632 C394.095661,27.1441075 393.314837,26.7035815 392.001707,26.6314865 L392.001707,25.9426058 L394.901091,25.9426058 L394.901091,25.3259022 Z M388.701248,24.3487235 L388.96535,24.9494334 C390.211224,24.8052433 391.232365,24.2806475 391.628519,23.5196718 C392.01729,24.2806475 393.046633,24.8052433 394.291687,24.9494334 L394.563992,24.3487235 C393.250862,24.2165083 392.241203,23.6358112 392.137859,22.9389747 L394.316293,22.9389747 L394.316293,22.330227 L388.957968,22.330227 L388.957968,22.9389747 L391.112617,22.9389747 C391.008452,23.6317923 389.990592,24.2165083 388.701248,24.3487235 Z M389.902811,27.8969632 C389.89873,27.4524183 390.527819,27.2121836 391.625238,27.2081646 C392.706253,27.2121836 393.338622,27.4524183 393.338622,27.8969632 C393.338622,28.3335523 392.706253,28.5858439 391.625238,28.577806 C390.527819,28.5858439 389.89873,28.3335523 389.902811,27.8969632 Z" id="Shape" fill="#FFFFFF" fill-rule="nonzero"></path>
            <polygon id="Path" fill="#FFFFFF" fill-rule="nonzero" points="401.260873 25.3098264 397.023752 25.3098264 397.023752 23.1712535 401.196077 23.1712535 401.196077 22.55455 396.262613 22.55455 396.262613 25.9185742 398.336882 25.9185742 398.336882 27.6727223 395.4457 27.6727223 395.4457 28.2974638 402.013811 28.2974638 402.013811 27.6727223 399.08982 27.6727223 399.08982 25.9185742 401.260873 25.9185742"></polygon>
            <polygon id="Path" fill="#FFFFFF" fill-rule="nonzero" points="406.987465 22.698658 406.12216 22.698658 404.68026 23.6438491 404.68026 24.4848757 406.066387 23.579792 406.098375 23.579792 406.098375 28.4977551 406.987465 28.4977551"></polygon>
            <path d="M408.461353,28.4977551 L412.362194,28.4977551 L412.362194,27.7448173 L409.686722,27.7448173 L409.686722,27.696754 L410.86452,26.5032902 C411.953737,25.4340038 412.258029,24.9173638 412.266231,24.2685906 C412.258029,23.3275004 411.484586,22.6186071 410.367483,22.6186071 C409.261862,22.6186071 408.453151,23.3194625 408.461353,24.3807111 L409.293849,24.3807111 C409.29795,23.7640075 409.706407,23.355469 410.351899,23.355469 C410.960483,23.355469 411.424712,23.7199631 411.424712,24.2926223 C411.424712,24.8012244 411.108118,25.1696553 410.471647,25.8304854 L408.461353,27.8569378 L408.461353,28.4977551 Z" id="Path" fill="#FFFFFF" fill-rule="nonzero"></path>
            <path d="M413.907438,28.5537743 C414.215831,28.5497553 414.472552,28.2974638 414.476653,27.985134 C414.472552,27.6727223 414.215831,27.4164118 413.907438,27.4164118 C413.595765,27.4164118 413.334943,27.6727223 413.339044,27.985134 C413.334943,28.2974638 413.595765,28.5497553 413.907438,28.5537743 Z" id="Path" fill="#FFFFFF" fill-rule="nonzero"></path>
            <path d="M415.373945,27.3683484 L418.19295,27.3683484 L418.19295,28.4977551 L419.026267,28.4977551 L419.026267,27.3683484 L419.819394,27.3683484 L419.819394,26.6234486 L419.026267,26.6234486 L419.026267,22.698658 L417.93705,22.698658 L415.373945,26.6555181 L415.373945,27.3683484 Z M416.302404,26.6234486 L416.302404,26.5753852 L418.128975,23.7479317 L418.19295,23.7479317 L418.19295,26.6234486 L416.302404,26.6234486 Z" id="Shape" fill="#FFFFFF" fill-rule="nonzero"></path>
            <path d="M422.038018,25.4540165 C422.818842,25.4620544 423.251084,24.8773383 423.255185,24.0122801 C423.251084,23.1632977 422.834426,22.5745627 422.038018,22.5785612 C421.264575,22.5745627 420.811828,23.1632977 420.82003,24.0122801 C420.811828,24.8733194 421.244891,25.4620544 422.038018,25.4540165 Z M421.477006,28.4977551 L422.206158,28.4977551 L426.186557,22.698658 L425.458225,22.698658 L421.477006,28.4977551 Z M421.477006,24.0122801 C421.481107,23.4956401 421.66483,23.1472219 422.038018,23.139266 C422.42597,23.135247 422.590008,23.4916212 422.590008,24.0122801 C422.590008,24.5449139 422.414487,24.8893132 422.038018,24.8933321 C421.66483,24.8893132 421.481107,24.5449139 421.477006,24.0122801 Z M424.480555,27.176095 C424.476454,28.0291784 424.909516,28.6178314 425.697722,28.6178314 C426.479367,28.6178314 426.911609,28.0331974 426.91571,27.176095 C426.911609,26.3190747 426.490849,25.7303397 425.697722,25.7343382 C424.9251,25.7303397 424.476454,26.3190747 424.480555,27.176095 Z M425.13753,27.176095 C425.141631,26.6514992 425.329455,26.3030809 425.697722,26.295043 C426.086494,26.295043 426.250533,26.6474802 426.250533,27.176095 C426.250533,27.7007729 426.074191,28.0491912 425.697722,28.0491912 C425.325354,28.0491912 425.141631,27.7007729 425.13753,27.176095 Z" id="Shape" fill="#FFFFFF" fill-rule="nonzero"></path>
            <rect id="Rectangle" fill="#E2E6F6" fill-rule="nonzero" x="296.910097" y="15.9040919" width="73.8174274" height="19.6846473"></rect>
            <path d="M319.929651,22.1780811 L319.169332,22.1780811 L319.169332,23.4515957 L317.610964,23.4515957 C317.659355,23.211279 317.687242,22.9550505 317.687242,22.6907021 L314.403187,22.6907021 L314.403187,23.3154436 L316.862127,23.3154436 C316.725975,24.4728188 315.732721,25.3859404 314.03492,25.8705108 L314.339212,26.4632648 C315.893479,26.0187198 316.970393,25.2057439 317.434622,24.0523056 L319.169332,24.0523056 L319.169332,24.9254017 L317.359165,24.9254017 L317.359165,25.5501432 L319.169332,25.5501432 L319.169332,26.4232393 L319.929651,26.4232393 L319.929651,22.1780811 Z M315.147923,27.9050011 C315.147923,28.7780973 316.093606,29.31475 317.567494,29.31475 C319.020877,29.31475 319.973942,28.7780973 319.978043,27.9050011 C319.973942,27.0359239 319.020877,26.5073091 317.567494,26.5032902 C316.093606,26.5073091 315.147923,27.0359239 315.147923,27.9050011 Z M315.90086,27.9050011 C315.90086,27.3923801 316.542252,27.1000631 317.567494,27.104 C318.572231,27.1000631 319.212802,27.3923801 319.216903,27.9050011 C319.212802,28.4095843 318.572231,28.7019833 317.567494,28.7060022 C316.542252,28.7019833 315.90086,28.4095843 315.90086,27.9050011 Z" id="Shape" fill="#113287" fill-rule="nonzero"></path>
            <polygon id="Path" fill="#113287" fill-rule="nonzero" points="326.850445 25.4780482 322.613325 25.4780482 322.613325 23.3394753 326.78647 23.3394753 326.78647 22.7226896 321.852185 22.7226896 321.852185 26.0867959 323.926455 26.0867959 323.926455 27.840944 321.035272 27.840944 321.035272 28.4656855 327.603383 28.4656855 327.603383 27.840944 324.679393 27.840944 324.679393 26.0867959 326.850445 26.0867959"></polygon>
            <path d="M332.344923,28.7460277 C333.554708,28.7460277 334.411811,27.9250139 334.411811,26.7836324 C334.411811,25.6662826 333.60638,24.8573256 332.513062,24.8533067 C332.072618,24.8573256 331.664162,25.0134905 331.423845,25.2457693 L331.368072,25.2457693 L331.559997,23.6198174 L334.1149,23.6198174 L334.1149,22.8668797 L330.830845,22.8668797 L330.454376,26.0948338 L331.287693,26.0948338 C331.483719,25.7383776 331.840503,25.5822127 332.304733,25.5822127 C333.033885,25.5901686 333.554708,26.1027896 333.554708,26.8076641 C333.554708,27.4965447 333.049469,28.0051468 332.344923,28.0091657 C331.760124,28.0051468 331.287693,27.6446717 331.239302,27.1520634 L330.383019,27.1520634 C330.422389,28.0772418 331.247503,28.7460277 332.344923,28.7460277 Z" id="Path" fill="#113287" fill-rule="nonzero"></path>
            <path d="M335.220521,27.5365701 L338.039527,27.5365701 L338.039527,28.6658948 L338.872844,28.6658948 L338.872844,27.5365701 L339.665971,27.5365701 L339.665971,26.7916703 L338.872844,26.7916703 L338.872844,22.8668797 L337.783627,22.8668797 L335.220521,26.8236578 L335.220521,27.5365701 Z M336.149801,26.7916703 L336.149801,26.7436069 L337.975552,23.9161534 L338.039527,23.9161534 L338.039527,26.7916703 L336.149801,26.7916703 Z" id="Shape" fill="#113287" fill-rule="nonzero"></path>
            <path d="M340.907744,28.721996 C341.216137,28.7179771 341.472037,28.4656855 341.476138,28.1532737 C341.472037,27.840944 341.216137,27.5846335 340.907744,27.5846335 C340.59525,27.5846335 340.334429,27.840944 340.33853,28.1532737 C340.334429,28.4656855 340.59525,28.7179771 340.907744,28.721996 Z" id="Path" fill="#113287" fill-rule="nonzero"></path>
            <path d="M344.383725,28.7460835 C345.628779,28.7540656 346.457994,27.8930263 346.457994,26.7676386 C346.457994,25.6582447 345.625498,24.8653635 344.592054,24.8613446 C343.962965,24.8653635 343.418357,25.1536616 343.101762,25.6462699 L343.037787,25.6462699 C343.037787,24.3366667 343.55861,23.5597793 344.455902,23.5557603 C345.0407,23.5597793 345.413068,23.9001596 345.528715,24.3727552 L346.402221,24.3727552 C346.266069,23.4515957 345.524614,22.7868288 344.455902,22.7868288 C343.065674,22.7868288 342.192988,23.9401851 342.188887,25.9586816 C342.188887,28.1012735 343.310091,28.7379898 344.383725,28.7460835 Z M343.141952,26.7916703 C343.150154,26.1469161 343.690661,25.5781938 344.399308,25.5821905 C345.096473,25.5781938 345.600892,26.1188654 345.600892,26.7836324 C345.600892,27.4604562 345.076788,28.0051468 344.375523,28.0091657 C343.662775,28.0051468 343.146053,27.4364245 343.141952,26.7916703 Z" id="Shape" fill="#113287" fill-rule="nonzero"></path>
            <path d="M348.72501,25.6222382 C349.505834,25.6302761 349.938076,25.04556 349.942177,24.1805018 C349.938076,23.3314374 349.522238,22.7427844 348.72501,22.7467017 C347.951567,22.7427844 347.49964,23.3314374 347.507022,24.1805018 C347.49964,25.0415411 347.931882,25.6302761 348.72501,25.6222382 Z M348.163997,28.6658948 L348.893149,28.6658948 L352.873549,22.8668797 L352.145217,22.8668797 L348.163997,28.6658948 Z M348.163997,24.1805018 C348.168098,23.6638618 348.352642,23.3154436 348.72501,23.3074057 C349.112961,23.3034688 349.27782,23.6598429 349.27782,24.1805018 C349.27782,24.7131356 349.101479,25.0575349 348.72501,25.0615538 C348.352642,25.0575349 348.168098,24.7131356 348.163997,24.1805018 Z M351.167546,27.3443168 C351.163445,28.1974002 351.596508,28.7860531 352.385534,28.7860531 C353.166358,28.7860531 353.5986,28.2013371 353.602701,27.3443168 C353.5986,26.4872964 353.178661,25.8985614 352.385534,25.9025599 C351.612091,25.8985614 351.163445,26.4872964 351.167546,27.3443168 Z M351.824521,27.3443168 C351.828622,26.8197209 352.017267,26.4713026 352.385534,26.4632648 C352.773485,26.4632648 352.938344,26.815702 352.938344,27.3443168 C352.938344,27.8689946 352.762003,28.2174129 352.385534,28.2174129 C352.013166,28.2174129 351.828622,27.8689946 351.824521,27.3443168 Z" id="Shape" fill="#113287" fill-rule="nonzero"></path>
            <polygon id="Path" fill="#113287" points="295.679806 52.4923559 295.679806 0 297.320194 0 297.320194 52.4923559"></polygon>
            <path d="M271.343021,63.1688165 L268.733165,60.5590423 C268.573227,60.3988585 268.573227,60.1391852 268.733165,59.9790834 L271.343021,57.3692273 C271.503779,57.2090435 271.76296,57.2090435 271.923718,57.3692273 C272.083656,57.5293291 272.083656,57.7890024 271.923718,57.9491862 L270.013487,59.8589251 L284.607192,59.8589251 L284.607192,60.6791187 L270.013487,60.6791187 L271.923718,62.5888576 C272.083656,62.7490414 272.083656,63.0087147 271.923718,63.1688165 C271.76296,63.3290003 271.503779,63.3290003 271.343021,63.1688165 Z" id="Path" fill="#113287"></path>
            <path d="M322.477173,57.3691452 L325.087029,59.9790014 C325.246967,60.1391852 325.246967,60.3988585 325.087029,60.5589603 L322.477173,63.1688165 C322.316415,63.3290003 322.057234,63.3290003 321.896476,63.1688165 C321.736538,63.0086327 321.736538,62.7490414 321.896476,62.5888576 L323.806707,60.6791187 L309.213001,60.6791187 L309.213001,59.8589251 L323.806707,59.8589251 L321.896476,57.9491042 C321.736538,57.7890024 321.736538,57.5293291 321.896476,57.3691452 C322.057234,57.2090435 322.316415,57.2090435 322.477173,57.3691452 Z" id="Path" fill="#113287"></path>
            <polygon id="Path" fill="#001A5B" fill-rule="nonzero" points="586.811639 15.9040919 563.183501 15.9040919 563.183501 35.5887392 586.811639 35.5887392 593 25.7464155"></polygon>
            <rect id="Rectangle" fill="#001A5B" fill-rule="nonzero" transform="translate(551.170124, 25.746416) scale(-1, 1) translate(-551.170124, -25.746416) " x="518.362379" y="15.9040919" width="65.615491" height="19.6846473"></rect>
            <path d="M541.987237,28.0451722 L539.071448,28.0451722 L539.071448,26.4832775 L538.31851,26.4832775 L538.31851,28.0451722 L535.419126,28.0451722 L535.419126,28.6699137 L541.987237,28.6699137 L541.987237,28.0451722 Z M535.739822,26.1388782 L536.02771,26.7315501 C537.229293,26.5433977 538.226649,25.9746754 538.690878,25.1376678 C539.159209,25.9746754 540.160665,26.5433977 541.362249,26.7315501 L541.650957,26.1388782 C540.177069,25.9225931 539.115739,25.0896044 539.07965,24.0803562 L541.378653,24.0803562 L541.378653,23.4636526 L539.071448,23.4636526 L539.071448,22.5024677 L538.31851,22.5024677 L538.31851,23.4636526 L536.012126,23.4636526 L536.012126,24.0803562 L538.310308,24.0803562 C538.27422,25.0896044 537.212889,25.9225931 535.739822,26.1388782 Z" id="Shape" fill="#FFFFFF" fill-rule="nonzero"></path>
            <path d="M548.31503,23.063152 L543.196202,23.063152 L543.196202,23.6798556 L547.553891,23.6798556 L547.553891,23.7680264 C547.54979,24.6290657 547.54979,25.6462699 547.273385,27.0359239 L548.042726,27.1160569 C548.310929,25.6462699 548.310929,24.6530974 548.31503,23.7680264 L548.31503,23.063152 Z M542.507239,28.5818249 L549.051564,28.5818249 L549.051564,27.9490455 L545.751925,27.9490455 L545.751925,25.41801 L544.998988,25.41801 L544.998988,27.9490455 L542.507239,27.9490455 L542.507239,28.5818249 Z" id="Shape" fill="#FFFFFF" fill-rule="nonzero"></path>
            <polygon id="Path" fill="#FFFFFF" fill-rule="nonzero" points="555.411346 25.6822764 551.174225 25.6822764 551.174225 23.5437035 555.347371 23.5437035 555.347371 22.9269999 550.413086 22.9269999 550.413086 26.2910241 552.487355 26.2910241 552.487355 28.0451722 549.596173 28.0451722 549.596173 28.6699137 556.164284 28.6699137 556.164284 28.0451722 553.240293 28.0451722 553.240293 26.2910241 555.411346 26.2910241"></polygon>
            <path d="M560.954214,28.9502559 C562.295231,28.9502559 563.080156,27.8689946 563.084257,25.9706565 C563.080156,24.0843751 562.283748,22.991057 560.954214,22.991057 C559.62058,22.991057 558.823351,24.0843751 558.823351,25.9706565 C558.823351,27.8689946 559.612378,28.9502559 560.954214,28.9502559 Z M559.704239,25.9706565 C559.704239,24.5289201 560.17339,23.7399758 560.954214,23.7359569 C561.730938,23.7399758 562.203369,24.5289201 562.203369,25.9706565 C562.203369,27.4164118 561.735039,28.1893623 560.954214,28.1893623 C560.169289,28.1893623 559.700138,27.4164118 559.704239,25.9706565 Z" id="Shape" fill="#FFFFFF" fill-rule="nonzero"></path>
            <path d="M564.349816,28.9262242 C564.658209,28.9222053 564.914929,28.6699137 564.91903,28.357584 C564.914929,28.0451722 564.658209,27.7888617 564.349816,27.7888617 C564.037322,27.7888617 563.777321,28.0451722 563.781422,28.357584 C563.777321,28.6699137 564.037322,28.9222053 564.349816,28.9262242 Z" id="Path" fill="#FFFFFF" fill-rule="nonzero"></path>
            <polygon id="Path" fill="#FFFFFF" fill-rule="nonzero" points="567.441946 23.0711899 566.576642 23.0711899 565.134741 24.0162991 565.134741 24.8573256 566.520869 23.9522419 566.552856 23.9522419 566.552856 28.870205 567.441946 28.870205"></polygon>
            <path d="M570.245368,25.8264664 C571.026192,25.8345043 571.458434,25.2497883 571.462535,24.38473 C571.458434,23.5357476 571.042596,22.9470126 570.245368,22.9510111 C569.471925,22.9470126 569.019999,23.5357476 569.02738,24.38473 C569.019999,25.2457693 569.452241,25.8345043 570.245368,25.8264664 Z M569.684355,28.870205 L570.413508,28.870205 L574.393907,23.0711899 L573.665575,23.0711899 L569.684355,28.870205 Z M569.684355,24.38473 C569.688456,23.8680901 569.873,23.5196718 570.245368,23.5117159 C570.63332,23.507697 570.798178,23.8640711 570.798178,24.38473 C570.798178,24.9173638 570.621837,25.2617631 570.245368,25.265782 C569.873,25.2617631 569.688456,24.9173638 569.684355,24.38473 Z M572.687905,27.548545 C572.683804,28.4016284 573.116866,28.9902813 573.905892,28.9902813 C574.686716,28.9902813 575.118959,28.4056473 575.123059,27.548545 C575.118959,26.6915246 574.699019,26.1027896 573.905892,26.1067881 C573.13245,26.1027896 572.683804,26.6915246 572.687905,27.548545 Z M573.34488,27.548545 C573.348981,27.0239491 573.537625,26.6755309 573.905892,26.667493 C574.293844,26.667493 574.458703,27.0199302 574.458703,27.548545 C574.458703,28.0732228 574.282361,28.4216411 573.905892,28.4216411 C573.533524,28.4216411 573.348981,28.0732228 573.34488,27.548545 Z" id="Shape" fill="#FFFFFF" fill-rule="nonzero"></path>
            <polygon id="Path" fill="#979797" points="370.317427 52.4923559 370.317427 0 371.137621 0 371.137621 52.4923559"></polygon>
            <polygon id="Path" fill="#979797" points="444.134855 52.4923559 444.134855 0 444.955048 0 444.955048 52.4923559"></polygon>
            <polygon id="Path" fill="#979797" points="517.952282 52.4923559 517.952282 0 518.772476 0 518.772476 52.4923559"></polygon>
        </g>
    </g>
</svg>