<?xml version="1.0" encoding="UTF-8"?>
<svg width="593px" height="88px" viewBox="0 0 593 88" version="1.1" xmlns="http://www.w3.org/2000/svg" xmlns:xlink="http://www.w3.org/1999/xlink">
    <title>Artboard</title>
    <g id="Artboard" stroke="none" stroke-width="1" fill="none" fill-rule="evenodd">
        <g id="totalSeverity50s" transform="translate(0.000000, 9.000000)">
            <polygon id="Path" fill="#979797" points="111.956432 40.0132516 111.956432 12.5231495 112.776625 12.5231495 112.776625 40.0132516"></polygon>
            <polygon id="Path" fill="#001A5B" fill-rule="nonzero" points="6.18831999 15.9040697 29.8161712 15.9040697 29.8161712 35.588717 6.18831999 35.588717 0 25.7463934"></polygon>
            <path d="M292.134109,62.8017257 C293.255314,62.8088934 294.00169,62.0339744 294.00169,61.0211173 C294.00169,60.0226956 293.252033,59.3090451 292.321934,59.3054362 C291.756,59.3090451 291.265524,59.5685544 290.980917,60.011869 L290.923503,60.011869 C290.923503,58.8332508 291.391834,58.1340357 292.198905,58.1304268 C292.725469,58.1340357 293.060928,58.440378 293.165093,58.8657304 L293.950838,58.8657304 C293.828629,58.0366787 293.161812,57.4383474 292.198905,57.4383474 C290.948109,57.4383474 290.162364,58.4764665 290.159083,60.2930314 C290.159083,62.2213887 291.168741,62.794458 292.134109,62.8017257 Z M291.017006,61.0427704 C291.024387,60.4624834 291.510762,59.9506006 292.148873,59.9541895 C292.775501,59.9506006 293.229888,60.4372214 293.229888,61.0355527 C293.229888,61.6447105 292.758277,62.1348582 292.126728,62.1384671 C291.485336,62.1348582 291.020286,61.6230574 291.017006,61.0427704 Z" id="Shape" fill="#001A5B" fill-rule="nonzero"></path>
            <path d="M296.661578,62.8016757 C297.868903,62.8016757 298.57509,61.8285159 298.579191,60.1200526 C298.57509,58.4224158 297.858241,57.4383474 296.661578,57.4383474 C295.460815,57.4383474 294.743965,58.4224158 294.743965,60.1200526 C294.743965,61.8285159 295.454253,62.8016757 296.661578,62.8016757 Z M295.537093,60.1200526 C295.537093,58.8224242 295.958672,58.1123826 296.661578,58.1087737 C297.360383,58.1123826 297.786064,58.8224242 297.786064,60.1200526 C297.786064,61.4212078 297.364484,62.116814 296.661578,62.116814 C295.954571,62.116814 295.532992,61.4212078 295.537093,60.1200526 Z" id="Shape" fill="#001A5B" fill-rule="nonzero"></path>
            <path d="M301.166902,62.7295806 C302.756437,62.7295806 303.671773,61.7419855 303.675874,60.1128349 C303.671773,58.4872931 302.756437,57.5104425 301.216934,57.5104425 L299.473202,57.5104425 L299.473202,62.7295806 L301.166902,62.7295806 Z M300.265509,62.0375833 L300.265509,58.2025219 L301.166902,58.2025219 C302.306151,58.2025219 302.890129,58.8837747 302.890129,60.1128349 C302.890129,61.3455039 302.306151,62.0339744 301.123432,62.0375833 L300.265509,62.0375833 Z" id="Shape" fill="#001A5B" fill-rule="nonzero"></path>
            <path d="M275.65888,66.5806358 L275.15282,66.5806358 L275.15282,69.9511396 L273.973382,69.9511396 L273.973382,70.3163718 L275.15282,70.3163718 L275.15282,70.905927 L275.65888,70.905927 L275.65888,66.5806358 Z M270.929643,69.2206751 L271.00018,69.6307719 C271.477533,69.6307719 272.025422,69.6307719 272.602018,69.6082986 L272.602018,70.7072761 L273.108077,70.7072761 L273.108077,69.5827086 C273.630541,69.550639 274.166127,69.4993769 274.672187,69.419326 L274.640199,69.0540938 C273.418931,69.2045993 271.990154,69.2142776 270.929643,69.2206751 Z M271.391398,67.8045288 C271.388131,68.4132765 271.958166,68.7913037 272.800505,68.7913037 C273.637102,68.7913037 274.207137,68.4132765 274.210418,67.8045288 C274.207137,67.2053773 273.637102,66.8113563 272.800505,66.8113563 C271.958166,66.8113563 271.388131,67.2053773 271.391398,67.8045288 Z M271.749837,72.1490125 L275.799953,72.1490125 L275.799953,71.7261206 L272.255896,71.7261206 L272.255896,70.4829531 L271.749837,70.4829531 L271.749837,72.1490125 Z M271.872046,67.8045288 C271.865484,67.4392965 272.243593,67.1893835 272.800505,67.1957811 C273.342653,67.1893835 273.726503,67.4392965 273.729784,67.8045288 C273.726503,68.1761585 273.342653,68.4164752 272.800505,68.419674 C272.243593,68.4164752 271.865484,68.1761585 271.872046,67.8045288 Z" id="Shape" fill="#001A5B" fill-rule="nonzero"></path>
            <path d="M280.304456,68.1057039 L280.304456,67.0676668 L279.804959,67.0676668 L279.804959,68.1057039 C279.798397,69.1854068 279.096311,70.274706 278.247411,70.6624115 L278.568107,71.0853033 C279.234104,70.7489419 279.795116,70.0280737 280.057578,69.169413 C280.329882,69.9800104 280.890895,70.656014 281.541308,70.9699841 L281.848881,70.5726823 C281.009003,70.1914563 280.301176,69.1469397 280.304456,68.1057039 Z M282.470588,72.2836062 L282.976647,72.2836062 L282.976647,66.5742383 L282.470588,66.5742383 L282.470588,72.2836062 Z" id="Shape" fill="#001A5B" fill-rule="nonzero"></path>
            <path d="M314.861675,67.7404717 L310.991181,67.7404717 L310.991181,68.1505685 L314.361357,68.1505685 L314.361357,68.182638 C314.364638,68.6663882 314.364638,69.2270726 314.211261,70.0151967 L310.330925,70.0151967 L310.330925,70.4381705 L315.547357,70.4381705 L315.547357,70.0151967 L314.710759,70.0151967 C314.861675,69.2398676 314.861675,68.6631895 314.861675,68.182638 L314.861675,67.7404717 Z M311.023169,72.9628086 L315.034736,72.9628086 L315.034736,72.5399167 L311.522667,72.5399167 L311.522667,71.0789058 L311.023169,71.0789058 L311.023169,72.9628086 Z" id="Shape" fill="#001A5B" fill-rule="nonzero"></path>
            <path d="M319.673751,68.9258975 L319.673751,67.8878604 L319.174253,67.8878604 L319.174253,68.9258975 C319.167692,70.0056004 318.465606,71.0948996 317.616705,71.4826051 L317.937401,71.905497 C318.603398,71.5691356 319.164411,70.8482674 319.426873,69.9896066 C319.699177,70.800204 320.260189,71.4762076 320.910603,71.7901777 L321.218176,71.3928759 C320.378297,71.0116499 319.67047,69.9671333 319.673751,68.9258975 Z M321.839882,73.1037999 L322.345942,73.1037999 L322.345942,67.394432 L321.839882,67.394432 L321.839882,73.1037999 Z" id="Shape" fill="#001A5B" fill-rule="nonzero"></path>
            <path d="M70.5630631,63.6218693 C71.6516241,63.6218693 72.4229342,62.8829569 72.4229342,61.8557463 C72.4229342,60.8501069 71.6984571,60.122021 70.7144708,60.1184122 C70.3179892,60.122021 69.9503784,60.2626022 69.7340934,60.4716696 L69.6836515,60.4716696 L69.8566303,59.0082801 L72.1562072,59.0082801 L72.1562072,58.3306361 L69.2006394,58.3306361 L68.8618174,61.235762 L69.6115564,61.235762 C69.7881441,60.9149842 70.1089219,60.774403 70.5270566,60.774403 C71.1830474,60.7816208 71.6516241,61.2429797 71.6516241,61.8773995 C71.6516241,62.4973018 71.1974828,62.9550519 70.5630631,62.9586607 C70.0368268,62.9550519 69.6115564,62.6306653 69.5682502,62.1873506 L68.7969401,62.1873506 C68.8330286,63.0199292 69.5754679,63.6218693 70.5630631,63.6218693 Z" id="Path" fill="#001A5B" fill-rule="nonzero"></path>
            <path d="M73.1510201,62.5333903 L75.6884531,62.5333903 L75.6884531,63.5497743 L76.4381921,63.5497743 L76.4381921,62.5333903 L77.1518426,62.5333903 L77.1518426,61.862964 L76.4381921,61.862964 L76.4381921,58.3306361 L75.4578147,58.3306361 L73.1510201,61.8917528 L73.1510201,62.5333903 Z M73.9872075,61.862964 L73.9872075,61.8196578 L75.6307935,59.2750071 L75.6884531,59.2750071 L75.6884531,61.862964 L73.9872075,61.862964 Z" id="Shape" fill="#001A5B" fill-rule="nonzero"></path>
            <path d="M79.7181465,63.5497743 C81.3076817,63.5497743 82.223592,62.5621791 82.2268728,60.9330285 C82.223592,59.3074867 81.3076817,58.3306361 79.7686704,58.3306361 L78.0241185,58.3306361 L78.0241185,63.5497743 L79.7181465,63.5497743 Z M78.8170817,62.8577769 L78.8170817,59.0227155 L79.7181465,59.0227155 C80.8571494,59.0227155 81.4410452,59.7039683 81.4410452,60.9330285 C81.4410452,62.1656975 80.8571494,62.8541681 79.6749223,62.8577769 L78.8170817,62.8577769 Z" id="Shape" fill="#001A5B" fill-rule="nonzero"></path>
            <path d="M144.423797,63.6218693 C145.512194,63.6218693 146.283996,62.8829569 146.283996,61.8557463 C146.283996,60.8501069 145.558945,60.122021 144.575533,60.1184122 C144.178559,60.122021 143.811112,60.2626022 143.594581,60.4716696 L143.544549,60.4716696 L143.71761,59.0082801 L146.016613,59.0082801 L146.016613,58.3306361 L143.061455,58.3306361 L142.722715,61.235762 L143.472372,61.235762 C143.648714,60.9149842 143.969409,60.774403 144.387708,60.774403 C145.043863,60.7816208 145.512194,61.2429797 145.512194,61.8773995 C145.512194,62.4973018 145.057806,62.9550519 144.423797,62.9586607 C143.897232,62.9550519 143.472372,62.6306653 143.428902,62.1873506 L142.65792,62.1873506 C142.694008,63.0199292 143.436284,63.6218693 144.423797,63.6218693 Z" id="Path" fill="#001A5B" fill-rule="nonzero"></path>
            <path d="M149.016061,63.6219193 C150.136445,63.629087 150.882822,62.8541681 150.882822,61.8413109 C150.882822,60.8428892 150.133165,60.1292387 149.203065,60.1256299 C148.637131,60.1292387 148.147476,60.388748 147.862048,60.8320627 L147.804635,60.8320627 C147.804635,59.6534444 148.272965,58.9542293 149.080856,58.9506205 C149.6066,58.9542293 149.942059,59.2605717 150.046224,59.6859241 L150.83197,59.6859241 C150.709761,58.8568723 150.042943,58.2585411 149.080856,58.2585411 C147.830061,58.2585411 147.044315,59.2966602 147.040214,61.113225 C147.040214,63.0415823 148.049873,63.6146516 149.016061,63.6219193 Z M147.898137,61.862964 C147.905519,61.282677 148.391893,60.7707942 149.030004,60.7743831 C149.657452,60.7707942 150.11184,61.2574151 150.11184,61.8557463 C150.11184,62.4649042 149.639408,62.9550519 149.008679,62.9586607 C148.367288,62.9550519 147.902238,62.443251 147.898137,61.862964 Z" id="Shape" fill="#001A5B" fill-rule="nonzero"></path>
            <path d="M153.492678,63.5497743 C155.082213,63.5497743 155.997549,62.5621791 156.00083,60.9330285 C155.997549,59.3074867 155.082213,58.3306361 153.54271,58.3306361 L151.798158,58.3306361 L151.798158,63.5497743 L153.492678,63.5497743 Z M152.591285,62.8577769 L152.591285,59.0227155 L153.492678,59.0227155 C154.631107,59.0227155 155.215084,59.7039683 155.215084,60.9330285 C155.215084,62.1656975 154.631107,62.8541681 153.449207,62.8577769 L152.591285,62.8577769 Z" id="Shape" fill="#001A5B" fill-rule="nonzero"></path>
            <path d="M218.259268,63.6218693 C219.347665,63.6218693 220.119467,62.8829569 220.119467,61.8557463 C220.119467,60.8501069 219.394416,60.122021 218.411004,60.1184122 C218.01403,60.122021 217.646584,60.2626022 217.430053,60.4716696 L217.380021,60.4716696 L217.553082,59.0082801 L219.852084,59.0082801 L219.852084,58.3306361 L216.896927,58.3306361 L216.558187,61.235762 L217.307844,61.235762 C217.484185,60.9149842 217.804881,60.774403 218.22318,60.774403 C218.879335,60.7816208 219.347665,61.2429797 219.347665,61.8773995 C219.347665,62.4973018 218.893278,62.9550519 218.259268,62.9586607 C217.732704,62.9550519 217.307844,62.6306653 217.264373,62.1873506 L216.493391,62.1873506 C216.52948,63.0199292 217.271755,63.6218693 218.259268,63.6218693 Z" id="Path" fill="#001A5B" fill-rule="nonzero"></path>
            <path d="M222.785917,63.6218693 C223.903841,63.6218693 224.700249,63.0091026 224.70353,62.1584798 C224.700249,61.4880535 224.217155,60.9402462 223.607751,60.8464981 L223.607751,60.8177093 C224.134315,60.6950903 224.498481,60.219378 224.501762,59.6498356 C224.498481,58.8461278 223.770149,58.2585411 222.785917,58.2585411 C221.787741,58.2585411 221.06351,58.8461278 221.06351,59.6498356 C221.06351,60.219378 221.420295,60.6950903 221.957521,60.8177093 L221.957521,60.8464981 C221.340736,60.9402462 220.861743,61.4880535 220.869124,62.1584798 C220.861743,63.0091026 221.650769,63.6218693 222.785917,63.6218693 Z M221.676195,62.1008202 C221.665533,61.5637574 222.137144,61.1708847 222.785917,61.1708847 C223.428129,61.1708847 223.896459,61.5637574 223.896459,62.1008202 C223.896459,62.612621 223.464217,62.9658784 222.785917,62.9658784 C222.097775,62.9658784 221.665533,62.612621 221.676195,62.1008202 Z M221.834492,59.7219306 C221.838593,59.2353917 222.213422,58.9037874 222.785917,58.9073963 C223.345289,58.9037874 223.726679,59.2353917 223.723398,59.7219306 C223.726679,60.2121603 223.330526,60.5473734 222.785917,60.5437646 C222.227365,60.5473734 221.838593,60.2085515 221.834492,59.7219306 Z" id="Shape" fill="#001A5B" fill-rule="nonzero"></path>
            <path d="M227.292061,63.5497743 C228.881596,63.5497743 229.796932,62.5621791 229.800213,60.9330285 C229.796932,59.3074867 228.881596,58.3306361 227.342093,58.3306361 L225.597541,58.3306361 L225.597541,63.5497743 L227.292061,63.5497743 Z M226.390668,62.8577769 L226.390668,59.0227155 L227.292061,59.0227155 C228.43049,59.0227155 229.014467,59.7039683 229.014467,60.9330285 C229.014467,62.1656975 228.43049,62.8541681 227.248591,62.8577769 L226.390668,62.8577769 Z" id="Shape" fill="#001A5B" fill-rule="nonzero"></path>
            <path d="M365.926111,62.8017257 C367.047315,62.8088934 367.793692,62.0339744 367.793692,61.0211173 C367.793692,60.0226956 367.044035,59.3090451 366.113935,59.3054362 C365.548001,59.3090451 365.057526,59.5685544 364.772918,60.011869 L364.715505,60.011869 C364.715505,58.8332508 365.183835,58.1340357 365.991726,58.1304268 C366.51747,58.1340357 366.852929,58.440378 366.957094,58.8657304 L367.74284,58.8657304 C367.620631,58.0366787 366.953813,57.4383474 365.991726,57.4383474 C364.740931,57.4383474 363.955185,58.4764665 363.951084,60.2930314 C363.951084,62.2213887 364.960743,62.794458 365.926111,62.8017257 Z M364.809007,61.0427704 C364.816389,60.4624834 365.302763,59.9506006 365.940874,59.9541895 C366.568322,59.9506006 367.021889,60.4372214 367.021889,61.0355527 C367.021889,61.6447105 366.550278,62.1348582 365.919549,62.1384671 C365.277337,62.1348582 364.813108,61.6230574 364.809007,61.0427704 Z" id="Shape" fill="#001A5B" fill-rule="nonzero"></path>
            <path d="M370.489668,62.8016757 C371.570683,62.8016757 372.374473,62.1637291 372.371212,61.295062 C372.374473,60.6354622 371.960275,60.1560591 371.246707,60.0551752 L371.246707,60.0190867 C371.808539,59.8785055 372.176806,59.4532351 372.169425,58.8585127 C372.176806,58.0872026 371.531314,57.4383474 370.504432,57.4383474 C369.530862,57.4383474 368.745116,58.0151076 368.723791,58.8657304 L369.487391,58.8657304 C369.505436,58.393545 369.974586,58.101556 370.49705,58.101556 C371.04822,58.101556 371.405004,58.4259426 371.405004,58.9017369 C371.405004,59.4027932 370.990806,59.7343975 370.396166,59.7307887 L369.94916,59.7307887 L369.94916,60.3795618 L370.396166,60.3795618 C371.141722,60.3831707 371.570683,60.7507815 371.570683,61.2661912 C371.570683,61.7744652 371.113015,62.116814 370.482286,62.116814 C369.898308,62.116814 369.444741,61.8249071 369.415214,61.367157 L368.608144,61.367157 C368.640952,62.2213887 369.408653,62.8016757 370.489668,62.8016757 Z" id="Path" fill="#001A5B" fill-rule="nonzero"></path>
            <path d="M375.009755,62.7295806 C376.59929,62.7295806 377.514627,61.7419855 377.517907,60.1128349 C377.514627,58.4872931 376.59929,57.5104425 375.059787,57.5104425 L373.315235,57.5104425 L373.315235,62.7295806 L375.009755,62.7295806 Z M374.108362,62.0375833 L374.108362,58.2025219 L375.009755,58.2025219 C376.148184,58.2025219 376.732162,58.8837747 376.732162,60.1128349 C376.732162,61.3455039 376.148184,62.0339744 374.966285,62.0375833 L374.108362,62.0375833 Z" id="Shape" fill="#001A5B" fill-rule="nonzero"></path>
            <path d="M439.747639,62.8017257 C440.868844,62.8088934 441.6144,62.0339744 441.6144,61.0211173 C441.6144,60.0226956 440.864743,59.3090451 439.934643,59.3054362 C439.36871,59.3090451 438.879054,59.5685544 438.594447,60.011869 L438.536213,60.011869 C438.536213,58.8332508 439.005364,58.1340357 439.812434,58.1304268 C440.338999,58.1340357 440.673638,58.440378 440.778622,58.8657304 L441.564368,58.8657304 C441.441339,58.0366787 440.774521,57.4383474 439.812434,57.4383474 C438.561639,57.4383474 437.775893,58.4764665 437.772613,60.2930314 C437.772613,62.2213887 438.781451,62.794458 439.747639,62.8017257 Z M438.630535,61.0427704 C438.637097,60.4624834 439.124292,59.9506006 439.761582,59.9541895 C440.38903,59.9506006 440.843418,60.4372214 440.843418,61.0355527 C440.843418,61.6447105 440.370986,62.1348582 439.740257,62.1384671 C439.098866,62.1348582 438.633816,61.6230574 438.630535,61.0427704 Z" id="Shape" fill="#001A5B" fill-rule="nonzero"></path>
            <path d="M444.346465,62.8017257 C445.467669,62.8088934 446.214046,62.0339744 446.214046,61.0211173 C446.214046,60.0226956 445.464389,59.3090451 444.534289,59.3054362 C443.968355,59.3090451 443.47788,59.5685544 443.193272,60.011869 L443.135859,60.011869 C443.135859,58.8332508 443.604189,58.1340357 444.41126,58.1304268 C444.937824,58.1340357 445.273284,58.440378 445.377448,58.8657304 L446.163194,58.8657304 C446.040985,58.0366787 445.374167,57.4383474 444.41126,57.4383474 C443.160465,57.4383474 442.374719,58.4764665 442.371438,60.2930314 C442.371438,62.2213887 443.381097,62.794458 444.346465,62.8017257 Z M443.229361,61.0427704 C443.236743,60.4624834 443.723118,59.9506006 444.361228,59.9541895 C444.988676,59.9506006 445.442243,60.4372214 445.442243,61.0355527 C445.442243,61.6447105 444.970632,62.1348582 444.339903,62.1384671 C443.697692,62.1348582 443.232642,61.6230574 443.229361,61.0427704 Z" id="Shape" fill="#001A5B" fill-rule="nonzero"></path>
            <path d="M448.823082,62.7295806 C450.412617,62.7295806 451.328773,61.7419855 451.332054,60.1128349 C451.328773,58.4872931 450.412617,57.5104425 448.873934,57.5104425 L447.129382,57.5104425 L447.129382,62.7295806 L448.823082,62.7295806 Z M447.922509,62.0375833 L447.922509,58.2025219 L448.823082,58.2025219 C449.962331,58.2025219 450.546308,58.8837747 450.546308,60.1128349 C450.546308,61.3455039 449.962331,62.0339744 448.780432,62.0375833 L447.922509,62.0375833 Z" id="Shape" fill="#001A5B" fill-rule="nonzero"></path>
            <path d="M513.565066,62.8018077 C514.686271,62.8089754 515.431827,62.0339744 515.431827,61.0211993 C515.431827,60.0227776 514.68217,59.3091271 513.752071,59.3055183 C513.186137,59.3091271 512.696481,59.5686364 512.411874,60.011951 L512.35364,60.011951 C512.35364,58.8333328 512.822791,58.1341177 513.629862,58.1305089 C514.156426,58.1341177 514.491065,58.44046 514.59605,58.8657304 L515.381795,58.8657304 C515.258766,58.0367607 514.591949,57.4384295 513.629862,57.4384295 C512.379066,57.4384295 511.593321,58.4764665 511.59004,60.2931134 C511.59004,62.2213887 512.598878,62.79454 513.565066,62.8018077 Z M512.447963,61.0427704 C512.454524,60.4624834 512.941719,59.9506826 513.57901,59.9542715 C514.206458,59.9506826 514.660845,60.4373035 514.660845,61.0355527 C514.660845,61.6447105 514.188414,62.1349403 513.557685,62.1385491 C512.916293,62.1349403 512.451243,61.6231394 512.447963,61.0427704 Z" id="Shape" fill="#001A5B" fill-rule="nonzero"></path>
            <path d="M518.07039,57.4383797 C516.935242,57.4312118 516.196248,58.2097396 516.196248,59.2045524 C516.196248,60.2029741 516.945905,60.9202335 517.883386,60.9202335 C518.445219,60.9202335 518.935694,60.6535065 519.217021,60.2138007 L519.281816,60.2138007 C519.274434,61.4068544 518.802003,62.1060694 517.998213,62.1096783 C517.472469,62.1060694 517.132909,61.7997271 517.025463,61.3600213 L516.239718,61.3600213 C516.365207,62.2070353 517.036126,62.8017577 517.998213,62.8017577 C519.249008,62.8017577 520.038035,61.7636386 520.038035,59.9326383 C520.034754,58.0223253 519.029196,57.4456472 518.07039,57.4383797 Z M516.967213,59.190117 C516.963949,58.5918678 517.439661,58.101638 518.07039,58.101638 C518.708501,58.101638 519.17355,58.6170477 519.17355,59.1829813 C519.17355,59.7596595 518.687176,60.2750692 518.055627,60.2714806 C517.421617,60.2750692 516.971331,59.795666 516.967213,59.190117 Z" id="Shape" fill="#001A5B" fill-rule="nonzero"></path>
            <path d="M522.640509,62.7296627 C524.230044,62.7296627 525.146201,61.7420675 525.149481,60.1128349 C525.146201,58.4872931 524.230044,57.5105245 522.691361,57.5105245 L520.946809,57.5105245 L520.946809,62.7296627 L522.640509,62.7296627 Z M521.739936,62.0375833 L521.739936,58.2025219 L522.640509,58.2025219 C523.779758,58.2025219 524.363736,58.8837747 524.363736,60.1128349 C524.363736,61.3455859 523.779758,62.0339744 522.597859,62.0375833 L521.739936,62.0375833 Z" id="Shape" fill="#001A5B" fill-rule="nonzero"></path>
            <polygon id="Path" fill="#979797" points="38.1390041 40.0132516 38.1390041 12.5231495 38.9591978 12.5231495 38.9591978 40.0132516"></polygon>
            <polygon id="Path" fill="#979797" points="185.773859 40.0132516 185.773859 12.5231495 186.594053 12.5231495 186.594053 40.0132516"></polygon>
            <polygon id="Path" fill="#979797" points="259.591286 40.0132516 259.591286 12.5231495 260.41148 12.5231495 260.41148 40.0132516"></polygon>
            <polygon id="Path" fill="#979797" points="321.105809 40.0132516 321.105809 12.5231495 321.926003 12.5231495 321.926003 40.0132516"></polygon>
            <polygon id="Path" fill="#979797" points="345.711618 40.0132516 345.711618 12.5231495 346.531812 12.5231495 346.531812 40.0132516"></polygon>
            <polygon id="Path" fill="#979797" points="394.923237 40.0132516 394.923237 12.5231495 395.74343 12.5231495 395.74343 40.0132516"></polygon>
            <polygon id="Path" fill="#979797" points="419.529046 40.0132516 419.529046 12.5231495 420.349239 12.5231495 420.349239 40.0132516"></polygon>
            <polygon id="Path" fill="#979797" points="468.740664 40.0132516 468.740664 12.5231495 469.560858 12.5231495 469.560858 40.0132516"></polygon>
            <polygon id="Path" fill="#979797" points="493.346473 40.0132516 493.346473 12.5231495 494.166667 12.5231495 494.166667 40.0132516"></polygon>
            <polygon id="Path" fill="#979797" points="542.558091 40.0132516 542.558091 12.5231495 543.378285 12.5231495 543.378285 40.0132516"></polygon>
            <polygon id="Path" fill="#979797" points="567.1639 40.0132516 567.1639 12.5231495 567.984094 12.5231495 567.984094 40.0132516"></polygon>
            <rect id="Rectangle" fill="#E2E6F6" fill-rule="nonzero" x="223.092669" y="15.9040697" width="73.8174274" height="19.6846473"></rect>
            <path d="M246.232793,22.1780589 L245.471653,22.1780589 L245.471653,23.4515736 L243.914105,23.4515736 C243.961676,23.2113389 243.990383,22.9550284 243.990383,22.69068 L240.706328,22.69068 L240.706328,23.3154214 L243.165268,23.3154214 C243.029116,24.4728787 242.035862,25.3859183 240.337241,25.8705707 L240.641533,26.4632426 C242.195799,26.0186977 243.272714,25.2057217 243.737763,24.0523654 L245.471653,24.0523654 L245.471653,24.9253795 L243.661485,24.9253795 L243.661485,25.550121 L245.471653,25.550121 L245.471653,26.4232172 L246.232793,26.4232172 L246.232793,22.1780589 Z M241.451064,27.904979 C241.451064,28.7780751 242.395927,29.3147278 243.869815,29.3147278 C245.323198,29.3147278 246.277083,28.7780751 246.280364,27.904979 C246.277083,27.0359838 245.323198,26.507287 243.869815,26.5032681 C242.395927,26.507287 241.451064,27.0359838 241.451064,27.904979 Z M242.204001,27.904979 C242.204001,27.392358 242.844573,27.1000409 243.869815,27.1040599 C244.875372,27.1000409 245.515943,27.392358 245.520044,27.904979 C245.515943,28.4096441 244.875372,28.7019611 243.869815,28.7059801 C242.844573,28.7019611 242.204001,28.4096441 242.204001,27.904979 Z" id="Shape" fill="#113287" fill-rule="nonzero"></path>
            <polygon id="Path" fill="#113287" fill-rule="nonzero" points="253.152766 25.478026 248.915646 25.478026 248.915646 23.3394531 253.088791 23.3394531 253.088791 22.7227495 248.155326 22.7227495 248.155326 26.0867737 250.229596 26.0867737 250.229596 27.8409219 247.338414 27.8409219 247.338414 28.4656634 253.905704 28.4656634 253.905704 27.8409219 250.982534 27.8409219 250.982534 26.0867737 253.152766 26.0867737"></polygon>
            <path d="M258.648064,28.7460055 C259.857029,28.7460055 260.714131,27.9249917 260.714131,26.7836102 C260.714131,25.6662604 259.909521,24.8573035 258.816203,24.8532845 C258.375759,24.8573035 257.967303,25.0134683 257.726986,25.2457472 L257.670393,25.2457472 L257.863138,23.6197953 L260.418041,23.6197953 L260.418041,22.8669396 L257.133986,22.8669396 L256.757517,26.0948116 L257.590834,26.0948116 C257.78686,25.7383555 258.142824,25.5821906 258.607874,25.5821906 C259.336206,25.5902285 259.857029,26.1028495 259.857029,26.8076419 C259.857029,27.4965226 259.35261,28.0051246 258.648064,28.0091436 C258.063266,28.0051246 257.590834,27.6447315 257.542443,27.1521232 L256.68534,27.1521232 C256.72553,28.0772196 257.550645,28.7460055 258.648064,28.7460055 Z" id="Path" fill="#113287" fill-rule="nonzero"></path>
            <path d="M263.621718,28.7460055 C264.831503,28.7460055 265.688606,27.9249917 265.688606,26.7836102 C265.688606,25.6662604 264.883176,24.8573035 263.789858,24.8532845 C263.349414,24.8573035 262.940957,25.0134683 262.70064,25.2457472 L262.644867,25.2457472 L262.836793,23.6197953 L265.391696,23.6197953 L265.391696,22.8669396 L262.10764,22.8669396 L261.731172,26.0948116 L262.564488,26.0948116 C262.760515,25.7383555 263.117299,25.5821906 263.581528,25.5821906 C264.31068,25.5902285 264.831503,26.1028495 264.831503,26.8076419 C264.831503,27.4965226 264.326264,28.0051246 263.621718,28.0091436 C263.03692,28.0051246 262.564488,27.6447315 262.516097,27.1521232 L261.658994,27.1521232 C261.699184,28.0772196 262.524299,28.7460055 263.621718,28.7460055 Z" id="Path" fill="#113287" fill-rule="nonzero"></path>
            <path d="M266.986152,28.7219739 C267.294545,28.7179549 267.550445,28.4656634 267.554546,28.1533336 C267.550445,27.8409219 267.294545,27.5846113 266.986152,27.5846113 C266.673658,27.5846113 266.412837,27.8409219 266.416938,28.1533336 C266.412837,28.4656634 266.673658,28.7179549 266.986152,28.7219739 Z" id="Path" fill="#113287" fill-rule="nonzero"></path>
            <path d="M268.579788,28.6659546 L272.480629,28.6659546 L272.480629,27.9130169 L269.805158,27.9130169 L269.805158,27.8649535 L270.982956,26.6714898 C272.072173,25.6022033 272.376465,25.0855634 272.384667,24.4367902 C272.376465,23.4957 271.603842,22.7868066 270.485918,22.7868066 C269.381118,22.7868066 268.571586,23.4876621 268.579788,24.5489107 L269.413105,24.5489107 C269.416386,23.9322071 269.825663,23.5236686 270.470335,23.5236686 C271.078918,23.5236686 271.543148,23.8881627 271.543148,24.4608219 C271.543148,24.9694239 271.227373,25.3378549 270.590083,25.9986849 L268.579788,28.0251373 L268.579788,28.6659546 Z" id="Path" fill="#113287" fill-rule="nonzero"></path>
            <path d="M274.787014,25.622216 C275.567838,25.6302539 276.0009,25.0455379 276.005001,24.1804797 C276.0009,23.3314972 275.584242,22.7427622 274.787014,22.7467607 C274.014391,22.7427622 273.561645,23.3314972 273.569846,24.1804797 C273.561645,25.041519 273.994707,25.6302539 274.787014,25.622216 Z M274.226822,28.6659546 L274.955154,28.6659546 L278.936373,22.8669396 L278.207221,22.8669396 L274.226822,28.6659546 Z M274.226822,24.1804797 C274.230923,23.6638397 274.414646,23.3154214 274.787014,23.3074656 C275.175786,23.3034466 275.339824,23.6599028 275.339824,24.1804797 C275.339824,24.7131134 275.163483,25.0575947 274.787014,25.0615317 C274.414646,25.0575947 274.230923,24.7131134 274.226822,24.1804797 Z M277.230371,27.3442946 C277.22627,28.197378 277.658512,28.786113 278.447538,28.786113 C279.228362,28.786113 279.661425,28.201397 279.665526,27.3442946 C279.661425,26.4872743 279.240665,25.8985393 278.447538,25.9025378 C277.674916,25.8985393 277.22627,26.4872743 277.230371,27.3442946 Z M277.887346,27.3442946 C277.891447,26.8196988 278.079271,26.4712805 278.447538,26.4632426 C278.83631,26.4632426 279.000349,26.8156798 279.000349,27.3442946 C279.000349,27.8689725 278.824007,28.2173907 278.447538,28.2173907 C278.07517,28.2173907 277.891447,27.8689725 277.887346,27.3442946 Z" id="Shape" fill="#113287" fill-rule="nonzero"></path>
            <rect id="Rectangle" fill="#5B6EB4" fill-rule="nonzero" x="149.275242" y="15.9040697" width="73.8174274" height="19.6846473"></rect>
            <path d="M175.455003,25.3258801 L168.910678,25.3258801 L168.910678,25.9426657 L171.80268,25.9426657 L171.80268,26.6314643 C170.469046,26.6995404 169.688221,27.1440853 169.688221,27.8970231 C169.688221,28.709999 170.617501,29.1665188 172.179149,29.1625262 C173.721113,29.1665188 174.650393,28.709999 174.653674,27.8970231 C174.650393,27.1440853 173.868748,26.7035593 172.555618,26.6314643 L172.555618,25.9426657 L175.455003,25.9426657 L175.455003,25.3258801 Z M169.255159,24.3487014 L169.520082,24.9494112 C170.765136,24.8052212 171.786277,24.2806253 172.18325,23.5197317 C172.571202,24.2806253 173.600545,24.8052212 174.846419,24.9494112 L175.118723,24.3487014 C173.804773,24.2165682 172.795935,23.6358711 172.69177,22.9389526 L174.870205,22.9389526 L174.870205,22.3302869 L169.51188,22.3302869 L169.51188,22.9389526 L171.666528,22.9389526 C171.562364,23.6318521 170.545324,24.2165682 169.255159,24.3487014 Z M170.456723,27.8970231 C170.452642,27.4524782 171.08173,27.2121614 172.179149,27.2081425 C173.260165,27.2121614 173.893354,27.4524782 173.893354,27.8970231 C173.893354,28.3335302 173.260165,28.5858217 172.179149,28.5777838 C171.08173,28.5858217 170.452642,28.3335302 170.456723,27.8970231 Z" id="Shape" fill="#FFFFFF" fill-rule="nonzero"></path>
            <polygon id="Path" fill="#FFFFFF" fill-rule="nonzero" points="181.814784 25.3098863 177.577664 25.3098863 177.577664 23.1712314 181.750809 23.1712314 181.750809 22.5545278 176.816524 22.5545278 176.816524 25.918634 178.890794 25.918634 178.890794 27.6727001 175.999611 27.6727001 175.999611 28.2974416 182.567722 28.2974416 182.567722 27.6727001 179.643732 27.6727001 179.643732 25.918634 181.814784 25.918634"></polygon>
            <path d="M185.339156,28.4977329 L189.239997,28.4977329 L189.239997,27.7447952 L186.564526,27.7447952 L186.564526,27.6967318 L187.741503,26.5032681 C188.831541,25.4339816 189.135833,24.9174237 189.143214,24.2685685 C189.135833,23.3274783 188.36239,22.6185849 187.245286,22.6185849 C186.139665,22.6185849 185.330954,23.3194404 185.339156,24.380771 L186.171653,24.380771 C186.175754,23.7639853 186.58421,23.3555289 187.228882,23.3555289 C187.838286,23.3555289 188.302516,23.7199409 188.302516,24.2926001 C188.302516,24.8012842 187.985921,25.1697152 187.349451,25.8304632 L185.339156,27.8569156 L185.339156,28.4977329 Z" id="Path" fill="#FFFFFF" fill-rule="nonzero"></path>
            <path d="M190.785242,28.5537521 C191.093635,28.5498152 191.350355,28.2974416 191.354456,27.9851119 C191.350355,27.6727001 191.093635,27.4163896 190.785242,27.4163896 C190.472748,27.4163896 190.212747,27.6727001 190.216848,27.9851119 C190.212747,28.2974416 190.472748,28.5498152 190.785242,28.5537521 Z" id="Path" fill="#FFFFFF" fill-rule="nonzero"></path>
            <path d="M194.20545,28.5777838 C195.447223,28.5777838 196.332212,27.8970231 196.336313,26.951832 C196.332212,26.2069321 195.795805,25.5981844 195.119145,25.4941018 L195.119145,25.4620322 C195.703123,25.3258801 196.108299,24.7972653 196.11158,24.1644859 C196.108299,23.271377 195.298768,22.6185849 194.20545,22.6185849 C193.096548,22.6185849 192.291118,23.271377 192.291118,24.1644859 C192.291118,24.7972653 192.688091,25.3258801 193.284372,25.4620322 L193.284372,25.4941018 C192.59951,25.5981844 192.067205,26.2069321 192.075407,26.951832 C192.067205,27.8970231 192.943992,28.5777838 194.20545,28.5777838 Z M192.971878,26.8877748 C192.960396,26.291084 193.484499,25.8544949 194.20545,25.8544949 C194.918198,25.8544949 195.439021,26.291084 195.439021,26.8877748 C195.439021,27.4564971 194.958387,27.8489598 194.20545,27.8489598 C193.441029,27.8489598 192.960396,27.4564971 192.971878,26.8877748 Z M193.14822,24.2445368 C193.152321,23.7039472 193.568979,23.3354342 194.20545,23.3394531 C194.826336,23.3354342 195.251196,23.7039472 195.247095,24.2445368 C195.251196,24.7892274 194.810752,25.1616773 194.20545,25.1576584 C193.584563,25.1616773 193.152321,24.7852084 193.14822,24.2445368 Z" id="Shape" fill="#FFFFFF" fill-rule="nonzero"></path>
            <path d="M198.578722,25.4540764 C199.359546,25.4620322 199.792609,24.8773162 199.79671,24.012258 C199.792609,23.1632755 199.37595,22.5745405 198.578722,22.578539 C197.8061,22.5745405 197.353353,23.1632755 197.361555,24.012258 C197.353353,24.8732972 197.786415,25.4620322 198.578722,25.4540764 Z M198.01853,28.4977329 L198.746862,28.4977329 L202.728082,22.6987178 L201.998929,22.6987178 L198.01853,28.4977329 Z M198.01853,24.012258 C198.022631,23.4957 198.206354,23.1472817 198.578722,23.1392439 C198.967494,23.1352249 199.131533,23.4916811 199.131533,24.012258 C199.131533,24.5449737 198.955191,24.889373 198.578722,24.893392 C198.206354,24.889373 198.022631,24.5449737 198.01853,24.012258 Z M201.022079,27.1761549 C201.017978,28.0291563 201.45022,28.6178913 202.239246,28.6178913 C203.020071,28.6178913 203.453133,28.0331752 203.457234,27.1761549 C203.453133,26.3190526 203.032373,25.7303996 202.239246,25.7343169 C201.466624,25.7303996 201.017978,26.3190526 201.022079,27.1761549 Z M201.679054,27.1761549 C201.682335,26.651477 201.870979,26.3030588 202.239246,26.2950209 C202.628018,26.2950209 202.792057,26.6474581 202.792057,27.1761549 C202.792057,27.7007508 202.615715,28.049169 202.239246,28.049169 C201.866878,28.049169 201.682335,27.7007508 201.679054,27.1761549 Z" id="Shape" fill="#FFFFFF" fill-rule="nonzero"></path>
            <rect id="Rectangle" fill="#113287" fill-rule="nonzero" x="75.4578147" y="15.9040697" width="73.8174274" height="19.6846473"></rect>
            <path d="M100.912524,22.8508638 L95.7945159,22.8508638 L95.7945159,23.4676494 L100.151385,23.4676494 L100.151385,23.5557382 C100.148104,24.4167775 100.148104,25.4339816 99.8716985,26.8237177 L100.64022,26.9037686 C100.908423,25.4339816 100.908423,24.4408091 100.912524,23.5557382 L100.912524,22.8508638 Z M95.1055533,28.3695367 L101.649878,28.3695367 L101.649878,27.7368393 L98.3494191,27.7368393 L98.3494191,25.2057217 L97.5964813,25.2057217 L97.5964813,27.7368393 L95.1055533,27.7368393 L95.1055533,28.3695367 Z" id="Shape" fill="#FFFFFF" fill-rule="nonzero"></path>
            <polygon id="Path" fill="#FFFFFF" fill-rule="nonzero" points="108.00966 25.4700701 103.771719 25.4700701 103.771719 23.3314972 107.944864 23.3314972 107.944864 22.7147116 103.0114 22.7147116 103.0114 26.0788178 105.085669 26.0788178 105.085669 27.832884 102.194487 27.832884 102.194487 28.4577075 108.761777 28.4577075 108.761777 27.832884 105.838607 27.832884 105.838607 26.0788178 108.00966 26.0788178"></polygon>
            <path d="M113.551708,28.7380497 C114.893545,28.7380497 115.67847,27.6567064 115.682571,25.7583682 C115.67847,23.8720869 114.881242,22.7787687 113.551708,22.7787687 C112.218073,22.7787687 111.421665,23.8720869 111.421665,25.7583682 C111.421665,27.6567064 112.210692,28.7380497 113.551708,28.7380497 Z M112.302553,25.7583682 C112.302553,24.3166318 112.770884,23.5276876 113.551708,23.5236686 C114.329252,23.5276876 114.801683,24.3166318 114.801683,25.7583682 C114.801683,27.2041235 114.332533,27.977074 113.551708,27.977074 C112.766783,27.977074 112.298452,27.2041235 112.302553,25.7583682 Z" id="Shape" fill="#FFFFFF" fill-rule="nonzero"></path>
            <path d="M116.94813,28.714018 C117.256523,28.709999 117.512423,28.4577075 117.516524,28.1452957 C117.512423,27.832884 117.256523,27.5765734 116.94813,27.5765734 C116.635636,27.5765734 116.375635,27.832884 116.379736,28.1452957 C116.375635,28.4577075 116.635636,28.709999 116.94813,28.714018 Z" id="Path" fill="#FFFFFF" fill-rule="nonzero"></path>
            <path d="M118.541766,28.6579167 L122.442607,28.6579167 L122.442607,27.904979 L119.767136,27.904979 L119.767136,27.8569156 L120.944934,26.6635339 C122.034151,25.5942474 122.338443,25.0776075 122.346645,24.4288343 C122.338443,23.4876621 121.56582,22.7787687 120.448716,22.7787687 C119.343095,22.7787687 118.534385,23.4796242 118.541766,24.5409548 L119.375083,24.5409548 C119.379184,23.9241692 119.78764,23.5157127 120.432313,23.5157127 C121.040896,23.5157127 121.505946,23.8801248 121.505946,24.452784 C121.505946,24.9614681 121.189351,25.329899 120.552061,25.990647 L118.541766,28.0171815 L118.541766,28.6579167 Z" id="Path" fill="#FFFFFF" fill-rule="nonzero"></path>
            <path d="M124.749812,25.6142602 C125.530636,25.622216 125.962878,25.0375 125.966979,24.1725238 C125.962878,23.3234593 125.54622,22.7347243 124.749812,22.7387228 C123.976369,22.7347243 123.524443,23.3234593 123.531824,24.1725238 C123.524443,25.0335631 123.956685,25.622216 124.749812,25.6142602 Z M124.188799,28.6579167 L124.917952,28.6579167 L128.898351,22.8589017 L128.170019,22.8589017 L124.188799,28.6579167 Z M124.188799,24.1725238 C124.1929,23.6558838 124.377444,23.3074656 124.749812,23.2994277 C125.137763,23.2954087 125.301802,23.6518649 125.301802,24.1725238 C125.301802,24.7051575 125.126281,25.0495569 124.749812,25.0535758 C124.377444,25.0495569 124.1929,24.7051575 124.188799,24.1725238 Z M127.192349,27.3363387 C127.188248,28.1893401 127.62131,28.7780751 128.410336,28.7780751 C129.19116,28.7780751 129.623402,28.1933591 129.627503,27.3363387 C129.623402,26.4793184 129.202643,25.8905834 128.410336,25.8945819 C127.636893,25.8905834 127.188248,26.4793184 127.192349,27.3363387 Z M127.849324,27.3363387 C127.853425,26.8116609 128.041249,26.4632426 128.410336,26.4552867 C128.798288,26.4552867 128.962326,26.8076419 128.962326,27.3363387 C128.962326,27.8609346 128.786805,28.2093528 128.410336,28.2093528 C128.037148,28.2093528 127.853425,27.8609346 127.849324,27.3363387 Z" id="Shape" fill="#FFFFFF" fill-rule="nonzero"></path>
            <rect id="Rectangle" fill="#001A5B" fill-rule="nonzero" x="9.02213001" y="15.9040697" width="66.4356846" height="19.6846473"></rect>
            <path d="M23.9177487,28.0451501 L21.0022064,28.0451501 L21.0022064,26.4832553 L20.2493506,26.4832553 L20.2493506,28.0451501 L17.3498021,28.0451501 L17.3498021,28.6699736 L23.9177487,28.6699736 L23.9177487,28.0451501 Z M17.6701697,26.138856 L17.9585498,26.73161 C19.1600515,26.5433755 20.1572429,25.9746533 20.6218006,25.1376456 C21.0903772,25.9746533 22.0915876,26.5433755 23.2930072,26.73161 L23.5813873,26.138856 C22.1075813,25.922571 21.0463328,25.0895823 21.0102443,24.080334 L23.309001,24.080334 L23.309001,23.4636304 L21.0022064,23.4636304 L21.0022064,22.5024455 L20.2493506,22.5024455 L20.2493506,23.4636304 L17.942556,23.4636304 L17.942556,24.080334 L20.2413127,24.080334 C20.2053062,25.0895823 19.1439757,25.922571 17.6701697,26.138856 Z" id="Shape" fill="#FFFFFF" fill-rule="nonzero"></path>
            <path d="M30.2454606,23.0631299 L25.1272062,23.0631299 L25.1272062,23.6799155 L29.4844849,23.6799155 L29.4844849,23.7680043 C29.480548,24.6290436 29.480548,25.6462477 29.2041427,27.0359838 L29.9730743,27.1160347 C30.2414416,25.6462477 30.2414416,24.6530752 30.2454606,23.7680043 L30.2454606,23.0631299 Z M24.4384076,28.5818028 L30.9823225,28.5818028 L30.9823225,27.9490234 L27.6823555,27.9490234 L27.6823555,25.4179878 L26.9294177,25.4179878 L26.9294177,27.9490234 L24.4384076,27.9490234 L24.4384076,28.5818028 Z" id="Shape" fill="#FFFFFF" fill-rule="nonzero"></path>
            <polygon id="Path" fill="#FFFFFF" fill-rule="nonzero" points="37.342022 25.6823362 33.1049017 25.6823362 33.1049017 23.5437634 37.2779649 23.5437634 37.2779649 22.9269777 32.344008 22.9269777 32.344008 26.291084 34.4185238 26.291084 34.4185238 28.0451501 31.5270131 28.0451501 31.5270131 28.6699736 38.0949598 28.6699736 38.0949598 28.0451501 35.1713795 28.0451501 35.1713795 26.291084 37.342022 26.291084"></polygon>
            <path d="M42.8847266,28.9502338 C44.2263993,28.9502338 45.0113246,27.8689725 45.0153436,25.9706343 C45.0113246,24.084353 44.2143425,22.9910349 42.8847266,22.9910349 C41.5511737,22.9910349 40.7541916,24.084353 40.7541916,25.9706343 C40.7541916,27.8689725 41.5431358,28.9502338 42.8847266,28.9502338 Z M41.6352436,25.9706343 C41.6352436,24.5288979 42.1038202,23.7399537 42.8847266,23.7359347 C43.661696,23.7399537 44.1342916,24.5288979 44.1342916,25.9706343 C44.1342916,27.4163896 43.6657149,28.1893401 42.8847266,28.1893401 C42.0998012,28.1893401 41.6312246,27.4163896 41.6352436,25.9706343 Z" id="Shape" fill="#FFFFFF" fill-rule="nonzero"></path>
            <path d="M46.2809024,28.9262021 C46.5892131,28.9222652 46.8455237,28.6699736 46.8495426,28.3575618 C46.8455237,28.0451501 46.5892131,27.7888396 46.2809024,27.7888396 C45.9684906,27.7888396 45.7081611,28.0451501 45.7121801,28.3575618 C45.7081611,28.6699736 45.9684906,28.9222652 46.2809024,28.9262021 Z" id="Path" fill="#FFFFFF" fill-rule="nonzero"></path>
            <path d="M49.6769961,28.9502338 C51.0185869,28.9502338 51.8035942,27.8689725 51.8075311,25.9706343 C51.8035942,24.084353 51.006612,22.9910349 49.6769961,22.9910349 C48.3433613,22.9910349 47.5463791,24.084353 47.5463791,25.9706343 C47.5463791,27.8689725 48.3353234,28.9502338 49.6769961,28.9502338 Z M48.4274065,25.9706343 C48.4274065,24.5288979 48.8960077,23.7399537 49.6769961,23.7359347 C50.4538835,23.7399537 50.9264791,24.5288979 50.9264791,25.9706343 C50.9264791,27.4163896 50.4579025,28.1893401 49.6769961,28.1893401 C48.8920708,28.1893401 48.4234942,27.4163896 48.4274065,25.9706343 Z" id="Shape" fill="#FFFFFF" fill-rule="nonzero"></path>
            <path d="M54.0502686,25.8265263 C54.831257,25.8344822 55.2637451,25.2497661 55.267764,24.3847079 C55.2637451,23.5357255 54.8472508,22.9469905 54.0502686,22.950989 C53.2773181,22.9469905 52.8248173,23.5357255 52.8327732,24.3847079 C52.8248173,25.2457472 53.2573054,25.8344822 54.0502686,25.8265263 Z M53.4895842,28.8701829 L54.2184903,28.8701829 L58.1993001,23.0711678 L57.4703941,23.0711678 L53.4895842,28.8701829 Z M53.4895842,24.3847079 C53.4936032,23.8681499 53.6778187,23.5197317 54.0502686,23.5116938 C54.4387123,23.5076748 54.6029151,23.864131 54.6029151,24.3847079 C54.6029151,24.9174237 54.4267375,25.261823 54.0502686,25.2658419 C53.6778187,25.261823 53.4936032,24.9174237 53.4895842,24.3847079 Z M56.4932154,27.5486048 C56.4891964,28.4016062 56.9217665,28.9903412 57.7107108,28.9903412 C58.4916992,28.9903412 58.9241873,28.4056252 58.9282062,27.5486048 C58.9241873,26.6915025 58.503674,26.1028495 57.7107108,26.106848 C56.9377603,26.1028495 56.4891964,26.6915025 56.4932154,27.5486048 Z M57.1500264,27.5486048 C57.1540454,27.023927 57.3422798,26.6755087 57.7107108,26.6674708 C58.0991545,26.6674708 58.2633573,27.019908 58.2633573,27.5486048 C58.2633573,28.0732007 58.0871797,28.421619 57.7107108,28.421619 C57.3382609,28.421619 57.1540454,28.0732007 57.1500264,27.5486048 Z" id="Shape" fill="#FFFFFF" fill-rule="nonzero"></path>
            <polygon id="Path" fill="#979797" points="148.865145 52.4924158 148.865145 0 149.685339 0 149.685339 52.4924158"></polygon>
            <polygon id="Path" fill="#979797" points="222.682573 52.4924158 222.682573 0 223.502766 0 223.502766 52.4924158"></polygon>
            <polygon id="Path" fill="#979797" points="75.0477178 52.4924158 75.0477178 0 75.8679115 0 75.8679115 52.4924158"></polygon>
            <rect id="Rectangle" fill="#113287" fill-rule="nonzero" x="444.544952" y="15.9040697" width="73.8174274" height="19.6846473"></rect>
            <path d="M470.220293,22.8508638 L465.101465,22.8508638 L465.101465,23.4676494 L469.459154,23.4676494 L469.459154,23.5557382 C469.455053,24.4167775 469.455053,25.4339816 469.178647,26.8237177 L469.947989,26.9037686 C470.216192,25.4339816 470.216192,24.4408091 470.220293,23.5557382 L470.220293,22.8508638 Z M464.413322,28.3695367 L470.956827,28.3695367 L470.956827,27.7368393 L467.657188,27.7368393 L467.657188,25.2057217 L466.90425,25.2057217 L466.90425,27.7368393 L464.413322,27.7368393 L464.413322,28.3695367 Z" id="Shape" fill="#FFFFFF" fill-rule="nonzero"></path>
            <polygon id="Path" fill="#FFFFFF" fill-rule="nonzero" points="477.316609 25.4700701 473.079488 25.4700701 473.079488 23.3314972 477.252633 23.3314972 477.252633 22.7147116 472.318349 22.7147116 472.318349 26.0788178 474.393438 26.0788178 474.393438 27.832884 471.501436 27.832884 471.501436 28.4577075 478.069546 28.4577075 478.069546 27.832884 475.146376 27.832884 475.146376 26.0788178 477.316609 26.0788178"></polygon>
            <path d="M482.859477,28.7380497 C484.201314,28.7380497 484.986239,27.6567064 484.99034,25.7583682 C484.986239,23.8720869 484.189011,22.7787687 482.859477,22.7787687 C481.525842,22.7787687 480.728614,23.8720869 480.728614,25.7583682 C480.728614,27.6567064 481.51764,28.7380497 482.859477,28.7380497 Z M481.609485,25.7583682 C481.609485,24.3166318 482.078653,23.5276876 482.859477,23.5236686 C483.636201,23.5276876 484.108632,24.3166318 484.108632,25.7583682 C484.108632,27.2041235 483.640302,27.977074 482.859477,27.977074 C482.074552,27.977074 481.606221,27.2041235 481.609485,25.7583682 Z" id="Shape" fill="#FFFFFF" fill-rule="nonzero"></path>
            <path d="M486.255079,28.714018 C486.563472,28.709999 486.820192,28.4577075 486.824293,28.1452957 C486.820192,27.832884 486.563472,27.5765734 486.255079,27.5765734 C485.943405,27.5765734 485.682584,27.832884 485.686685,28.1452957 C485.682584,28.4577075 485.943405,28.709999 486.255079,28.714018 Z" id="Path" fill="#FFFFFF" fill-rule="nonzero"></path>
            <polygon id="Path" fill="#FFFFFF" fill-rule="nonzero" points="487.897107 28.6579167 488.818184 28.6579167 491.397693 23.643827 491.397693 22.8589017 487.496852 22.8589017 487.496852 23.6118394 490.484817 23.6118394 490.484817 23.6599028"></polygon>
            <path d="M493.616317,25.6142602 C494.397141,25.622216 494.830203,25.0375 494.833484,24.1725238 C494.830203,23.3234593 494.413545,22.7347243 493.616317,22.7387228 C492.843694,22.7347243 492.390947,23.3234593 492.399149,24.1725238 C492.390947,25.0335631 492.823189,25.622216 493.616317,25.6142602 Z M493.056124,28.6579167 L493.784456,28.6579167 L497.765676,22.8589017 L497.036524,22.8589017 L493.056124,28.6579167 Z M493.056124,24.1725238 C493.059405,23.6558838 493.243949,23.3074656 493.616317,23.2994277 C494.005089,23.2954087 494.169127,23.6518649 494.169127,24.1725238 C494.169127,24.7051575 493.992786,25.0495569 493.616317,25.0535758 C493.243949,25.0495569 493.059405,24.7051575 493.056124,24.1725238 Z M496.059674,27.3363387 C496.055573,28.1893401 496.487815,28.7780751 497.276841,28.7780751 C498.057665,28.7780751 498.489907,28.1933591 498.494008,27.3363387 C498.489907,26.4793184 498.069968,25.8905834 497.276841,25.8945819 C496.504219,25.8905834 496.055573,26.4793184 496.059674,27.3363387 Z M496.715828,27.3363387 C496.719929,26.8116609 496.908574,26.4632426 497.276841,26.4552867 C497.665613,26.4552867 497.829651,26.8076419 497.829651,27.3363387 C497.829651,27.8609346 497.65331,28.2093528 497.276841,28.2093528 C496.904473,28.2093528 496.719929,27.8609346 496.715828,27.3363387 Z" id="Shape" fill="#FFFFFF" fill-rule="nonzero"></path>
            <rect id="Rectangle" fill="#5B6EB4" fill-rule="nonzero" x="370.727524" y="15.9040697" width="73.8174274" height="19.6846473"></rect>
            <path d="M396.707158,25.3258801 L390.162833,25.3258801 L390.162833,25.9426657 L393.054835,25.9426657 L393.054835,26.6314643 C391.721201,26.6995404 390.940376,27.1440853 390.940376,27.8970231 C390.940376,28.709999 391.868835,29.1665188 393.431304,29.1625262 C394.973268,29.1665188 395.901728,28.709999 395.905828,27.8970231 C395.901728,27.1440853 395.120903,26.7035593 393.807773,26.6314643 L393.807773,25.9426657 L396.707158,25.9426657 L396.707158,25.3258801 Z M390.507314,24.3487014 L390.771416,24.9494112 C392.01729,24.8052212 393.038432,24.2806253 393.435405,23.5197317 C393.823357,24.2806253 394.8527,24.8052212 396.098574,24.9494112 L396.370878,24.3487014 C395.056928,24.2165682 394.04809,23.6358711 393.943925,22.9389526 L396.12236,22.9389526 L396.12236,22.3302869 L390.764035,22.3302869 L390.764035,22.9389526 L392.918683,22.9389526 C392.814519,23.6318521 391.796658,24.2165682 390.507314,24.3487014 Z M391.708878,27.8970231 C391.704797,27.4524782 392.333885,27.2121614 393.431304,27.2081425 C394.51232,27.2121614 395.145509,27.4524782 395.145509,27.8970231 C395.145509,28.3335302 394.51232,28.5858217 393.431304,28.5777838 C392.333885,28.5858217 391.704797,28.3335302 391.708878,27.8970231 Z" id="Shape" fill="#FFFFFF" fill-rule="nonzero"></path>
            <polygon id="Path" fill="#FFFFFF" fill-rule="nonzero" points="403.066939 25.3098863 398.829819 25.3098863 398.829819 23.1712314 403.002964 23.1712314 403.002964 22.5545278 398.068679 22.5545278 398.068679 25.918634 400.142949 25.918634 400.142949 27.6727001 397.251766 27.6727001 397.251766 28.2974416 403.819877 28.2974416 403.819877 27.6727001 400.895887 27.6727001 400.895887 25.918634 403.066939 25.918634"></polygon>
            <path d="M408.649177,28.5777838 C409.850761,28.5777838 410.743952,27.8689725 410.739878,26.9037686 C410.743952,26.1709256 410.283823,25.6382918 409.490696,25.5260894 L409.490696,25.4860639 C410.114863,25.329899 410.52414,24.8573035 410.515938,24.1964734 C410.52414,23.3394531 409.80647,22.6185849 408.665581,22.6185849 C407.584566,22.6185849 406.711059,23.2594022 406.687274,24.2045113 L407.536174,24.2045113 C407.555859,23.6799155 408.076682,23.3555289 408.657379,23.3555289 C409.270064,23.3555289 409.667037,23.715922 409.667037,24.2445368 C409.667037,24.8012842 409.206089,25.1697152 408.545012,25.1656963 L408.048795,25.1656963 L408.048795,25.8865645 L408.545012,25.8865645 C409.374228,25.8905834 409.850761,26.2990398 409.850761,26.8717811 C409.850761,27.4364024 409.342241,27.8168902 408.641795,27.8168902 C407.993022,27.8168902 407.487783,27.4925036 407.455795,26.9839015 L406.559324,26.9839015 C406.594592,27.9330296 407.448414,28.5777838 408.649177,28.5777838 Z" id="Path" fill="#FFFFFF" fill-rule="nonzero"></path>
            <path d="M412.101372,28.5537521 C412.409765,28.5498152 412.666485,28.2974416 412.670586,27.9851119 C412.666485,27.6727001 412.409765,27.4163896 412.101372,27.4163896 C411.788878,27.4163896 411.528877,27.6727001 411.532978,27.9851119 C411.528877,28.2974416 411.788878,28.5498152 412.101372,28.5537521 Z" id="Path" fill="#FFFFFF" fill-rule="nonzero"></path>
            <path d="M413.567058,27.3683263 L416.386884,27.3683263 L416.386884,28.4977329 L417.220201,28.4977329 L417.220201,27.3683263 L418.012508,27.3683263 L418.012508,26.6234264 L417.220201,26.6234264 L417.220201,22.6987178 L416.130163,22.6987178 L413.567058,26.655496 L413.567058,27.3683263 Z M414.496337,26.6234264 L414.496337,26.5753631 L416.322909,23.7479916 L416.386884,23.7479916 L416.386884,26.6234264 L414.496337,26.6234264 Z" id="Shape" fill="#FFFFFF" fill-rule="nonzero"></path>
            <path d="M420.231131,25.4540764 C421.012776,25.4620322 421.445018,24.8773162 421.449119,24.012258 C421.445018,23.1632755 421.02836,22.5745405 420.231131,22.578539 C419.458509,22.5745405 419.005762,23.1632755 419.013964,24.012258 C419.005762,24.8732972 419.438824,25.4620322 420.231131,25.4540764 Z M419.670939,28.4977329 L420.400091,28.4977329 L424.380491,22.6987178 L423.651339,22.6987178 L419.670939,28.4977329 Z M419.670939,24.012258 C419.67504,23.4957 419.858763,23.1472817 420.231131,23.1392439 C420.619903,23.1352249 420.783942,23.4916811 420.783942,24.012258 C420.783942,24.5449737 420.6076,24.889373 420.231131,24.893392 C419.858763,24.889373 419.67504,24.5449737 419.670939,24.012258 Z M422.674488,27.1761549 C422.670387,28.0291563 423.102629,28.6178913 423.891656,28.6178913 C424.67248,28.6178913 425.105542,28.0331752 425.109643,27.1761549 C425.105542,26.3190526 424.684783,25.7303996 423.891656,25.7343169 C423.119033,25.7303996 422.670387,26.3190526 422.674488,27.1761549 Z M423.331463,27.1761549 C423.335564,26.651477 423.523389,26.3030588 423.891656,26.2950209 C424.280427,26.2950209 424.444466,26.6474581 424.444466,27.1761549 C424.444466,27.7007508 424.268124,28.049169 423.891656,28.049169 C423.519288,28.049169 423.335564,27.7007508 423.331463,27.1761549 Z" id="Shape" fill="#FFFFFF" fill-rule="nonzero"></path>
            <rect id="Rectangle" fill="#E2E6F6" fill-rule="nonzero" x="296.910097" y="15.9040697" width="73.8174274" height="19.6846473"></rect>
            <path d="M320.678488,22.1780589 L319.918169,22.1780589 L319.918169,23.4515736 L318.359801,23.4515736 C318.408192,23.2113389 318.436079,22.9550284 318.436079,22.69068 L315.152024,22.69068 L315.152024,23.3154214 L317.610964,23.3154214 C317.474812,24.4728787 316.481557,25.3859183 314.783757,25.8705707 L315.088048,26.4632426 C316.642315,26.0186977 317.71923,25.2057217 318.184279,24.0523654 L319.918169,24.0523654 L319.918169,24.9253795 L318.108001,24.9253795 L318.108001,25.550121 L319.918169,25.550121 L319.918169,26.4232172 L320.678488,26.4232172 L320.678488,22.1780589 Z M315.896759,27.904979 C315.896759,28.7780751 316.842443,29.3147278 318.316331,29.3147278 C319.769714,29.3147278 320.722779,28.7780751 320.72688,27.904979 C320.722779,27.0359838 319.769714,26.507287 318.316331,26.5032681 C316.842443,26.507287 315.896759,27.0359838 315.896759,27.904979 Z M316.649697,27.904979 C316.649697,27.392358 317.291089,27.1000409 318.316331,27.1040599 C319.321068,27.1000409 319.961639,27.392358 319.96574,27.904979 C319.961639,28.4096441 319.321068,28.7019611 318.316331,28.7059801 C317.291089,28.7019611 316.649697,28.4096441 316.649697,27.904979 Z" id="Shape" fill="#113287" fill-rule="nonzero"></path>
            <polygon id="Path" fill="#113287" fill-rule="nonzero" points="327.599282 25.478026 323.362162 25.478026 323.362162 23.3394531 327.535307 23.3394531 327.535307 22.7227495 322.601022 22.7227495 322.601022 26.0867737 324.676112 26.0867737 324.676112 27.8409219 321.784109 27.8409219 321.784109 28.4656634 328.35222 28.4656634 328.35222 27.8409219 325.42905 27.8409219 325.42905 26.0867737 327.599282 26.0867737"></polygon>
            <path d="M331.123654,28.6659546 L335.024495,28.6659546 L335.024495,27.9130169 L332.349024,27.9130169 L332.349024,27.8649535 L333.526822,26.6714898 C334.616039,25.6022033 334.920331,25.0855634 334.928533,24.4367902 C334.920331,23.4957 334.146888,22.7868066 333.029784,22.7868066 C331.924163,22.7868066 331.115452,23.4876621 331.123654,24.5489107 L331.956151,24.5489107 C331.960252,23.9322071 332.368708,23.5236686 333.014201,23.5236686 C333.622784,23.5236686 334.087014,23.8881627 334.087014,24.4608219 C334.087014,24.9694239 333.770419,25.3378549 333.133949,25.9986849 L331.123654,28.0251373 L331.123654,28.6659546 Z" id="Path" fill="#113287" fill-rule="nonzero"></path>
            <polygon id="Path" fill="#113287" fill-rule="nonzero" points="336.201473 28.6659546 337.12255 28.6659546 339.702059 23.6518649 339.702059 22.8669396 335.801219 22.8669396 335.801219 23.6197953 338.789184 23.6197953 338.789184 23.6678587"></polygon>
            <path d="M340.158087,28.7219739 C340.46648,28.7179549 340.723201,28.4656634 340.727302,28.1533336 C340.723201,27.8409219 340.46648,27.5846113 340.158087,27.5846113 C339.846414,27.5846113 339.585592,27.8409219 339.589693,28.1533336 C339.585592,28.4656634 339.846414,28.7179549 340.158087,28.7219739 Z" id="Path" fill="#113287" fill-rule="nonzero"></path>
            <path d="M343.634888,28.7460614 C344.879942,28.7540434 345.709158,27.8930042 345.709158,26.7676165 C345.709158,25.6583046 344.875841,24.8653414 343.843217,24.8613224 C343.214129,24.8653414 342.66952,25.1536394 342.352925,25.6462477 L342.28895,25.6462477 C342.28895,24.3366445 342.809773,23.5597571 343.707065,23.5557382 C344.291863,23.5597571 344.664231,23.9001375 344.779878,24.3727331 L345.653385,24.3727331 C345.517232,23.4515736 344.775777,22.7868066 343.707065,22.7868066 C342.316837,22.7868066 341.444151,23.9401629 341.44005,25.9586595 C341.44005,28.1012513 342.561254,28.7380497 343.634888,28.7460614 Z M342.393115,26.7916481 C342.401317,26.1468939 342.941824,25.5781717 343.650472,25.5821683 C344.347636,25.5781717 344.852055,26.1188433 344.852055,26.7836102 C344.852055,27.460434 344.327131,28.0051246 343.626686,28.0091436 C342.913938,28.0051246 342.397216,27.4364024 342.393115,26.7916481 Z" id="Shape" fill="#113287" fill-rule="nonzero"></path>
            <path d="M347.976173,25.622216 C348.756997,25.6302539 349.189239,25.0455379 349.19334,24.1804797 C349.189239,23.3314972 348.772581,22.7427622 347.976173,22.7467607 C347.20273,22.7427622 346.750804,23.3314972 346.758185,24.1804797 C346.750804,25.041519 347.183046,25.6302539 347.976173,25.622216 Z M347.41516,28.6659546 L348.144313,28.6659546 L352.124712,22.8669396 L351.39638,22.8669396 L347.41516,28.6659546 Z M347.41516,24.1804797 C347.419261,23.6638397 347.603805,23.3154214 347.976173,23.3074656 C348.364124,23.3034466 348.528983,23.6599028 348.528983,24.1804797 C348.528983,24.7131134 348.352642,25.0575947 347.976173,25.0615317 C347.603805,25.0575947 347.419261,24.7131134 347.41516,24.1804797 Z M350.41871,27.3442946 C350.414609,28.197378 350.847671,28.786113 351.636697,28.786113 C352.417521,28.786113 352.849763,28.201397 352.853864,27.3442946 C352.849763,26.4872743 352.429004,25.8985393 351.636697,25.9025378 C350.863254,25.8985393 350.414609,26.4872743 350.41871,27.3442946 Z M351.075685,27.3442946 C351.079786,26.8196988 351.26761,26.4712805 351.636697,26.4632426 C352.024649,26.4632426 352.188687,26.8156798 352.188687,27.3442946 C352.188687,27.8689725 352.013166,28.2173907 351.636697,28.2173907 C351.264329,28.2173907 351.079786,27.8689725 351.075685,27.3442946 Z" id="Shape" fill="#113287" fill-rule="nonzero"></path>
            <polygon id="Path" fill="#113287" points="295.679806 52.4924158 295.679806 0 297.320194 0 297.320194 52.4924158"></polygon>
            <path d="M271.343021,63.1688764 L268.733165,60.5590202 C268.573227,60.3988364 268.573227,60.1392451 268.733165,59.9790613 L271.343021,57.3692051 C271.503779,57.2090213 271.76296,57.2090213 271.923718,57.3692051 C272.083656,57.5293889 272.083656,57.7890622 271.923718,57.949164 L270.013487,59.8589029 L284.607192,59.8589029 L284.607192,60.6790965 L270.013487,60.6790965 L271.923718,62.5889174 C272.083656,62.7490192 272.083656,63.0086925 271.923718,63.1688764 C271.76296,63.3289782 271.503779,63.3289782 271.343021,63.1688764 Z" id="Path" fill="#113287"></path>
            <path d="M322.477173,57.3692051 L325.087029,59.9789793 C325.246967,60.1391631 325.246967,60.3988364 325.087029,60.5589382 L322.477173,63.1687943 C322.316415,63.3289782 322.057234,63.3289782 321.896476,63.1687943 C321.736538,63.0086925 321.736538,62.7490192 321.896476,62.5888354 L323.806707,60.6790965 L309.213001,60.6790965 L309.213001,59.8589029 L323.806707,59.8589029 L321.896476,57.949164 C321.736538,57.7889802 321.736538,57.5293069 321.896476,57.3692051 C322.057234,57.2090213 322.316415,57.2090213 322.477173,57.3692051 Z" id="Path" fill="#113287"></path>
            <polygon id="Path" fill="#001A5B" fill-rule="nonzero" points="586.811639 15.9040697 563.183501 15.9040697 563.183501 35.588717 586.811639 35.588717 593 25.7463934"></polygon>
            <rect id="Rectangle" fill="#001A5B" fill-rule="nonzero" transform="translate(551.170124, 25.746393) scale(-1, 1) translate(-551.170124, -25.746393) " x="518.362379" y="15.9040697" width="65.615491" height="19.6846473"></rect>
            <path d="M541.017768,28.0451501 L538.101979,28.0451501 L538.101979,26.4832553 L537.349041,26.4832553 L537.349041,28.0451501 L534.449657,28.0451501 L534.449657,28.6699736 L541.017768,28.6699736 L541.017768,28.0451501 Z M534.770353,26.138856 L535.058241,26.73161 C536.259824,26.5433755 537.25718,25.9746533 537.72223,25.1376456 C538.19056,25.9746533 539.192017,26.5433755 540.39278,26.73161 L540.681488,26.138856 C539.2076,25.922571 538.14627,25.0895823 538.110181,24.080334 L540.409184,24.080334 L540.409184,23.4636304 L538.101979,23.4636304 L538.101979,22.5024455 L537.349041,22.5024455 L537.349041,23.4636304 L535.042657,23.4636304 L535.042657,24.080334 L537.34166,24.080334 C537.305571,25.0895823 536.244241,25.922571 534.770353,26.138856 Z" id="Shape" fill="#FFFFFF" fill-rule="nonzero"></path>
            <path d="M547.345562,23.0631299 L542.227553,23.0631299 L542.227553,23.6799155 L546.584422,23.6799155 L546.584422,23.7680043 C546.580321,24.6290436 546.580321,25.6462477 546.303916,27.0359838 L547.073257,27.1160347 C547.341461,25.6462477 547.341461,24.6530752 547.345562,23.7680043 L547.345562,23.0631299 Z M541.538591,28.5818028 L548.082095,28.5818028 L548.082095,27.9490234 L544.782456,27.9490234 L544.782456,25.4179878 L544.029519,25.4179878 L544.029519,27.9490234 L541.538591,27.9490234 L541.538591,28.5818028 Z" id="Shape" fill="#FFFFFF" fill-rule="nonzero"></path>
            <polygon id="Path" fill="#FFFFFF" fill-rule="nonzero" points="554.441877 25.6823362 550.204757 25.6823362 550.204757 23.5437634 554.377902 23.5437634 554.377902 22.9269777 549.444437 22.9269777 549.444437 26.291084 551.518707 26.291084 551.518707 28.0451501 548.626704 28.0451501 548.626704 28.6699736 555.194815 28.6699736 555.194815 28.0451501 552.271645 28.0451501 552.271645 26.291084 554.441877 26.291084"></polygon>
            <path d="M559.984746,28.9502338 C561.326582,28.9502338 562.111508,27.8689725 562.115609,25.9706343 C562.111508,24.084353 561.314279,22.9910349 559.984746,22.9910349 C558.651111,22.9910349 557.853882,24.084353 557.853882,25.9706343 C557.853882,27.8689725 558.642909,28.9502338 559.984746,28.9502338 Z M558.735591,25.9706343 C558.735591,24.5288979 559.203921,23.7399537 559.984746,23.7359347 C560.761469,23.7399537 561.234721,24.5288979 561.234721,25.9706343 C561.234721,27.4163896 560.76557,28.1893401 559.984746,28.1893401 C559.19982,28.1893401 558.73149,27.4163896 558.735591,25.9706343 Z" id="Shape" fill="#FFFFFF" fill-rule="nonzero"></path>
            <path d="M563.381167,28.9262021 C563.68956,28.9222652 563.945461,28.6699736 563.949562,28.3575618 C563.945461,28.0451501 563.68956,27.7888396 563.381167,27.7888396 C563.068674,27.7888396 562.807852,28.0451501 562.811953,28.3575618 C562.807852,28.6699736 563.068674,28.9222652 563.381167,28.9262021 Z" id="Path" fill="#FFFFFF" fill-rule="nonzero"></path>
            <path d="M566.82516,28.9502338 C568.026744,28.9502338 568.919935,28.2414224 568.915861,27.2762185 C568.919935,26.5433755 568.458986,26.0107418 567.665859,25.8985393 L567.665859,25.8585138 C568.290846,25.702349 568.699303,25.2297534 568.691101,24.5690054 C568.699303,23.711903 567.982454,22.9910349 566.840744,22.9910349 C565.759729,22.9910349 564.887043,23.6318521 564.862437,24.5769613 L565.711337,24.5769613 C565.731842,24.0523654 566.252665,23.7279788 566.833362,23.7279788 C567.446047,23.7279788 567.842201,24.0883719 567.842201,24.6169867 C567.842201,25.1737342 567.382072,25.5421652 566.720996,25.5381462 L566.223959,25.5381462 L566.223959,26.2590144 L566.720996,26.2590144 C567.550212,26.2630333 568.026744,26.6714898 568.026744,27.244231 C568.026744,27.8088523 567.518224,28.1893401 566.816959,28.1893401 C566.168185,28.1893401 565.663766,27.8649535 565.631779,27.3563515 L564.734487,27.3563515 C564.770575,28.3054795 565.623577,28.9502338 566.82516,28.9502338 Z" id="Path" fill="#FFFFFF" fill-rule="nonzero"></path>
            <path d="M571.214017,25.8265263 C571.995661,25.8344822 572.427903,25.2497661 572.432004,24.3847079 C572.427903,23.5357255 572.011245,22.9469905 571.214017,22.950989 C570.441394,22.9469905 569.988647,23.5357255 569.996849,24.3847079 C569.988647,25.2457472 570.42171,25.8344822 571.214017,25.8265263 Z M570.653824,28.8701829 L571.382976,28.8701829 L575.363376,23.0711678 L574.634224,23.0711678 L570.653824,28.8701829 Z M570.653824,24.3847079 C570.657925,23.8681499 570.841649,23.5197317 571.214017,23.5116938 C571.602788,23.5076748 571.766827,23.864131 571.766827,24.3847079 C571.766827,24.9174237 571.590485,25.261823 571.214017,25.2658419 C570.841649,25.261823 570.657925,24.9174237 570.653824,24.3847079 Z M573.657373,27.5486048 C573.653272,28.4016062 574.085515,28.9903412 574.874541,28.9903412 C575.656185,28.9903412 576.088427,28.4056252 576.092528,27.5486048 C576.088427,26.6915025 575.667668,26.1028495 574.874541,26.106848 C574.101918,26.1028495 573.653272,26.6915025 573.657373,27.5486048 Z M574.314349,27.5486048 C574.31845,27.023927 574.506274,26.6755087 574.874541,26.6674708 C575.263313,26.6674708 575.427351,27.019908 575.427351,27.5486048 C575.427351,28.0732007 575.25101,28.421619 574.874541,28.421619 C574.502173,28.421619 574.31845,28.0732007 574.314349,27.5486048 Z" id="Shape" fill="#FFFFFF" fill-rule="nonzero"></path>
            <polygon id="Path" fill="#979797" points="370.317427 52.4924158 370.317427 0 371.137621 0 371.137621 52.4924158"></polygon>
            <polygon id="Path" fill="#979797" points="444.134855 52.4924158 444.134855 0 444.955048 0 444.955048 52.4924158"></polygon>
            <polygon id="Path" fill="#979797" points="517.952282 52.4924158 517.952282 0 518.772476 0 518.772476 52.4924158"></polygon>
        </g>
    </g>
</svg>