<svg width="324" height="49" viewBox="0 0 324 49" fill="none" xmlns="http://www.w3.org/2000/svg">
<path d="M55.0588 16.2402H49.5481V16.8115H54.3645V17.0225C54.3601 17.9585 54.3601 19.0527 54.0657 20.5469L54.7688 20.626C55.05 19.0527 55.05 17.9805 55.0588 17.0225V16.2402ZM48.7922 22.1553H55.9114V21.584H52.2639V18.7891H51.5872V21.584H48.7922V22.1553Z" fill="#113287"/>
<path d="M62.4311 19.1143H57.729V16.6533H62.352V16.0908H57.0346V19.6768H59.3374V21.6982H56.1206V22.2783H63.2749V21.6982H60.0141V19.6768H62.4311V19.1143Z" fill="#113287"/>
<path d="M71.4715 15.9238H66.1629V16.4863H70.786V16.5303C70.7904 17.1938 70.7904 17.9629 70.5794 19.0439H65.2577V19.624H72.412V19.0439H71.265C71.4715 17.9805 71.4715 17.1895 71.4715 16.5303V15.9238ZM66.2069 23.0869H71.7088V22.5068H66.8924V20.5029H66.2069V23.0869Z" fill="#113287"/>
<path d="M75.3633 17.5498V16.126H74.6778V17.5498C74.669 19.0308 73.7066 20.5249 72.542 21.0566L72.9815 21.6367C73.8956 21.1753 74.6646 20.1865 75.025 19.0088C75.3985 20.1206 76.1675 21.0479 77.0596 21.4785L77.4815 20.9336C76.3301 20.4106 75.3589 18.978 75.3633 17.5498ZM78.334 23.2803H79.0284V15.4492H78.334V23.2803Z" fill="#113287"/>
<path d="M88.1655 15.4492H87.4711V23.2803H88.1655V15.4492ZM82.0131 18.7803C82.0175 20.4458 82.8437 21.5005 84.0083 21.4961C85.1684 21.5005 86.0078 20.4458 86.0034 18.7803C86.0078 17.1191 85.1684 16.0601 84.0083 16.0557C82.8437 16.0601 82.0175 17.1191 82.0131 18.7803ZM82.6811 18.7803C82.6811 17.5103 83.226 16.6753 84.0083 16.6709C84.7949 16.6753 85.3354 17.5103 85.3354 18.7803C85.3354 20.0503 84.7949 20.8853 84.0083 20.8809C83.226 20.8853 82.6811 20.0503 82.6811 18.7803Z" fill="#113287"/>
<path d="M91.6618 16.7148V15.8535H90.985V16.6621C90.9806 17.8706 90.194 18.9165 89.025 19.3516L89.3942 19.9053C90.3083 19.5493 91.007 18.833 91.341 17.9058C91.6837 18.7231 92.3649 19.3691 93.2262 19.6855L93.6041 19.1406C92.4704 18.7539 91.6618 17.7783 91.6618 16.7148ZM90.0622 21.8213C90.0666 22.731 91.0465 23.2451 92.6549 23.2451C94.2589 23.2451 95.2301 22.731 95.2301 21.8213C95.2301 20.9292 94.2589 20.4062 92.6549 20.4062C91.0465 20.4062 90.0666 20.9292 90.0622 21.8213ZM90.7565 21.8213C90.7477 21.2896 91.4772 20.96 92.6549 20.96C93.8371 20.96 94.5578 21.2896 94.5622 21.8213C94.5578 22.375 93.8371 22.6958 92.6549 22.7002C91.4772 22.6958 90.7477 22.375 90.7565 21.8213ZM94.4743 20.2041H95.1598V18.0684H96.3375V17.4883H95.1598V15.4492H94.4743V20.2041Z" fill="#113287"/>
<path d="M98.5946 15.7393C97.4125 15.7437 96.5599 16.4556 96.5643 17.4707C96.5599 18.4902 97.4125 19.1934 98.5946 19.1934C99.7635 19.1934 100.612 18.4902 100.616 17.4707C100.612 16.4556 99.7635 15.7437 98.5946 15.7393ZM97.2411 17.4707C97.2323 16.7939 97.808 16.3149 98.5946 16.3193C99.368 16.3149 99.9481 16.7939 99.9481 17.4707C99.9481 18.1562 99.368 18.6309 98.5946 18.6309C97.808 18.6309 97.2323 18.1562 97.2411 17.4707ZM97.7508 20.3975H102.145V21.2061H97.7684V23.1572H103.112V22.6035H98.4452V21.7246H102.831V19.8438H97.7508V20.3975ZM102.145 19.4658H102.831V15.4492H102.145V19.4658Z" fill="#113287"/>
<path d="M111.994 15.458H111.3V16.917H109.476C109.542 16.6401 109.577 16.3457 109.577 16.0381H106.018V16.6182H108.826C108.69 17.9717 107.508 19.0308 105.622 19.5889L105.912 20.1338C107.587 19.6372 108.791 18.7275 109.305 17.4707H111.3V18.5254H109.226V19.0967H111.3V20.1514H111.994V15.458ZM106.826 21.7246C106.822 22.6606 107.837 23.2275 109.437 23.2275C111.019 23.2275 112.038 22.6606 112.038 21.7246C112.038 20.793 111.019 20.2305 109.437 20.2305C107.837 20.2305 106.822 20.793 106.826 21.7246ZM107.503 21.7246C107.508 21.1357 108.259 20.7798 109.437 20.7842C110.597 20.7798 111.348 21.1357 111.353 21.7246C111.348 22.3135 110.597 22.6694 109.437 22.665C108.259 22.6694 107.508 22.3135 107.503 21.7246Z" fill="#113287"/>
<path d="M119.991 19.9316H112.836V20.5117H116.053V23.2627H116.73V20.5117H119.991V19.9316ZM113.645 17.4883C113.649 18.5298 114.752 19.189 116.396 19.1846C118.035 19.189 119.147 18.5298 119.147 17.4883C119.147 16.4292 118.035 15.77 116.396 15.7656C114.752 15.77 113.649 16.4292 113.645 17.4883ZM114.357 17.4883C114.348 16.7808 115.179 16.3281 116.396 16.3281C117.613 16.3281 118.439 16.7808 118.444 17.4883C118.439 18.1826 117.613 18.6309 116.396 18.6309C115.179 18.6309 114.348 18.1826 114.357 17.4883Z" fill="#113287"/>
<path d="M121.457 21.9619H120.604L120.121 24.3525H120.771L121.457 21.9619Z" fill="#113287"/>
<path d="M129.943 15.4492H129.258V21.2148H129.943V18.4111H131.121V17.8311H129.943V15.4492ZM123.984 17.9277C123.98 19.0571 124.868 19.8525 126.032 19.8525C127.206 19.8525 128.08 19.0571 128.089 17.9277C128.08 16.7939 127.206 16.0073 126.032 16.0029C124.868 16.0073 123.98 16.7939 123.984 17.9277ZM124.661 17.9277C124.657 17.1543 125.259 16.6094 126.032 16.6094C126.819 16.6094 127.408 17.1543 127.412 17.9277C127.408 18.6968 126.819 19.2461 126.032 19.2461C125.259 19.2461 124.657 18.6968 124.661 17.9277ZM125.057 23.0957H130.304V22.5156H125.733V20.6172H125.057V23.0957Z" fill="#113287"/>
<path d="M137.606 15.4492H136.929V19.5098H137.606V15.4492ZM131.278 18.9736L131.603 19.5186C132.556 19.1978 133.303 18.5166 133.642 17.6421C133.989 18.4419 134.723 19.0615 135.646 19.3516L135.989 18.8154C134.811 18.4683 133.98 17.5718 133.976 16.5566V16.4688H135.778V15.8975H131.453V16.4688H133.281V16.5566C133.277 17.6289 132.442 18.5869 131.278 18.9736ZM132.534 20.4326H136.929V21.2324H132.552V23.1748H137.896V22.6211H133.229V21.751H137.615V19.8877H132.534V20.4326Z" fill="#113287"/>
<path d="M144.591 15.4492H143.897V21.5664H144.591V18.7715H145.76V18.1914H144.591V15.4492ZM138.456 20.0986L138.536 20.6611C139.902 20.6479 141.801 20.626 143.475 20.3096L143.414 19.8174C142.732 19.9229 141.99 19.9888 141.26 20.0327V19.4658C142.165 19.3779 142.737 18.9429 142.746 18.2881C142.737 17.5366 142.016 17.0796 140.909 17.084C139.81 17.0796 139.076 17.5366 139.081 18.2881C139.076 18.9473 139.665 19.3823 140.575 19.4658V20.0635C139.81 20.0898 139.076 20.0986 138.456 20.0986ZM138.65 16.7412H143.176V16.2227H141.26V15.4316H140.575V16.2227H138.65V16.7412ZM139.625 23.0957H144.873V22.5156H140.32V21.1533H139.625V23.0957ZM139.74 18.2881C139.735 17.8442 140.188 17.5718 140.909 17.5762C141.629 17.5718 142.086 17.8442 142.086 18.2881C142.086 18.7144 141.629 18.9912 140.909 18.9912C140.188 18.9912 139.735 18.7144 139.74 18.2881Z" fill="#113287"/>
<path d="M152.262 15.4492H151.568V23.2803H152.262V15.4492ZM146.11 18.7803C146.114 20.4458 146.941 21.5005 148.105 21.4961C149.265 21.5005 150.105 20.4458 150.1 18.7803C150.105 17.1191 149.265 16.0601 148.105 16.0557C146.941 16.0601 146.114 17.1191 146.11 18.7803ZM146.778 18.7803C146.778 17.5103 147.323 16.6753 148.105 16.6709C148.892 16.6753 149.432 17.5103 149.432 18.7803C149.432 20.0503 148.892 20.8853 148.105 20.8809C147.323 20.8853 146.778 20.0503 146.778 18.7803Z" fill="#113287"/>
<path d="M162.111 21.6982H158.859V19.9053H158.183V21.6982H154.957V22.2783H162.111V21.6982ZM155.353 19.6416L155.625 20.1865C156.882 19.9668 158.029 19.334 158.521 18.354C159.022 19.334 160.169 19.9668 161.417 20.1865L161.681 19.6416C160.182 19.3999 158.877 18.4902 158.877 17.2686H161.426V16.6973H158.859V15.6162H158.183V16.6973H155.625V17.2686H158.174C158.165 18.4902 156.86 19.3999 155.353 19.6416Z" fill="#113287"/>
<path d="M165.476 16.3018H162.531V16.8818H164.808V18.4639H162.549V21.3906H163.059C164.043 21.3906 164.927 21.3555 166.038 21.1621L165.977 20.5996C164.966 20.771 164.118 20.8062 163.217 20.8105V19.0352H165.476V16.3018ZM166.522 22.8584H167.155V19.1143H168.306V23.2627H168.965V15.4492H168.306V18.543H167.155V15.625H166.522V22.8584Z" fill="#113287"/>
<path d="M174.158 17.5146H171.09V16.3281H174.07V15.792H170.378V18.0596H171.89V18.8813C171.108 18.9121 170.343 18.9209 169.658 18.9209L169.754 19.4746C171.235 19.4746 173.121 19.4263 174.79 19.167L174.755 18.6836C174.065 18.7671 173.323 18.8198 172.584 18.855V18.0596H174.158V17.5146ZM170.879 20.5732H175.388V21.3027H170.897V23.1748H176.346V22.6123H171.582V21.8301H176.065V20.0195H170.879V20.5732ZM175.379 19.668H176.065V15.458H175.379V19.668Z" fill="#113287"/>
<path d="M182.671 16.1787V15.7305H181.959V16.1787C181.959 17.2993 180.531 18.231 179.12 18.4287L179.401 18.9912C180.618 18.7891 181.818 18.1255 182.319 17.1587C182.82 18.1167 184.024 18.7891 185.237 18.9912L185.518 18.4287C184.108 18.231 182.675 17.2817 182.671 16.1787ZM178.751 20.4326H181.959V23.2627H182.636V20.4326H185.87V19.8525H178.751V20.4326Z" fill="#113287"/>
<path d="M190.533 20.6963V20.2656H189.865V20.6963C189.857 21.4434 189.263 22.2783 188.275 22.6475L188.626 23.1572C189.373 22.876 189.909 22.3311 190.191 21.7026C190.424 22.3574 190.907 22.9287 191.667 23.2188C192.388 22.9155 192.867 22.3135 193.109 21.6807C193.381 22.3354 193.926 22.8804 194.708 23.1572L195.051 22.6475C194.049 22.3003 193.456 21.5005 193.46 20.6963V20.2656H192.783V20.6963C192.788 21.2983 192.392 22.0806 191.645 22.542C190.903 22.1201 190.529 21.3862 190.533 20.6963ZM188.073 17.7432C188.068 18.8154 188.934 19.5537 190.12 19.5537C191.307 19.5537 192.164 18.8154 192.168 17.7432C192.164 16.6533 191.307 15.9106 190.12 15.915C188.934 15.9106 188.068 16.6533 188.073 17.7432ZM188.749 17.7432C188.74 17.0137 189.316 16.4951 190.12 16.5039C190.916 16.4951 191.491 17.0137 191.491 17.7432C191.491 18.4683 190.916 18.978 190.12 18.9824C189.316 18.978 188.74 18.4683 188.749 17.7432ZM193.654 19.9229H194.339V15.458H193.654V19.9229Z" fill="#113287"/>
<path d="M198.776 15.959C197.145 15.9634 195.919 16.8159 195.919 18.1035C195.919 19.4043 197.145 20.2568 198.776 20.248C200.406 20.2568 201.632 19.4043 201.632 18.1035C201.632 16.8159 200.406 15.9634 198.776 15.959ZM195.216 22.2256H202.371V21.6455H195.216V22.2256ZM196.579 18.1035C196.57 17.1675 197.515 16.5171 198.776 16.5215C200.028 16.5171 200.964 17.1675 200.964 18.1035C200.964 19.0527 200.028 19.6855 198.776 19.6855C197.515 19.6855 196.57 19.0527 196.579 18.1035Z" fill="#113287"/>
<path d="M209.699 21.6455H202.545V22.2256H209.699V21.6455ZM203.388 19.8262H208.811V16.1348H203.388V19.8262ZM204.065 19.2812V16.7061H208.143V19.2812H204.065Z" fill="#113287"/>
<path d="M217.027 21.7158H213.766V20.2393H216.306V19.668H211.455V18.3936H216.122V16.0293H210.752V16.6006H215.445V17.8311H210.769V20.2393H213.09V21.7158H209.873V22.2959H217.027V21.7158Z" fill="#113287"/>
<path d="M225.488 15.4492H224.793V17.4883H223.22V18.0596H224.793V20.1074H225.488V15.4492ZM219.045 19.4834L219.406 20.0371C220.337 19.6812 221.062 18.9517 221.396 18.0376C221.735 18.8418 222.416 19.501 223.29 19.8174L223.651 19.2637C222.508 18.8726 221.726 17.9014 221.726 16.8818V16.6006H223.475V16.0205H219.265V16.6006H221.031V16.8906C221.031 18.0068 220.205 19.0659 219.045 19.4834ZM220.276 21.8037C220.271 22.7266 221.269 23.2539 222.895 23.2627C224.516 23.2539 225.514 22.7266 225.514 21.8037C225.514 20.8853 224.516 20.3491 222.895 20.3535C221.269 20.3491 220.271 20.8853 220.276 21.8037ZM220.961 21.8037C220.957 21.2324 221.695 20.8896 222.895 20.8896C224.09 20.8896 224.828 21.2324 224.828 21.8037C224.828 22.3706 224.09 22.7134 222.895 22.709C221.695 22.7134 220.957 22.3706 220.961 21.8037Z" fill="#113287"/>
<path d="M232.798 15.4492H232.104V23.2627H232.798V15.4492ZM226.435 21.2324L226.813 21.7949C229.432 20.5381 230.478 18.5474 230.487 16.3018H226.795V16.8643H229.784C229.63 18.7319 228.549 20.2305 226.435 21.2324Z" fill="#113287"/>
<path d="M236.382 16.8906V16.5566H238.132V15.9941H233.922V16.5566H235.688V16.8994C235.688 18.0024 234.853 19.0439 233.702 19.457L234.062 20.002C234.989 19.6592 235.715 18.9385 236.053 18.042C236.387 18.8462 237.068 19.501 237.947 19.8174L238.307 19.2725C237.165 18.877 236.382 17.9058 236.382 16.8906ZM234.888 21.1182H239.45V23.2627H240.144V20.5469H234.888V21.1182ZM237.885 18.0771H239.45V20.1338H240.144V15.4492H239.45V17.4971H237.885V18.0771Z" fill="#113287"/>
<path d="M247.446 15.458H246.761V21.1709H247.446V15.458ZM241.18 17.9189C241.175 19.0571 242.058 19.8481 243.227 19.8438C244.396 19.8481 245.271 19.0571 245.275 17.9189C245.271 16.7939 244.396 16.0073 243.227 16.0029C242.058 16.0073 241.175 16.7939 241.18 17.9189ZM241.856 17.9189C241.848 17.1543 242.436 16.6094 243.227 16.6094C244.005 16.6094 244.598 17.1543 244.598 17.9189C244.598 18.6968 244.005 19.2373 243.227 19.2373C242.436 19.2373 241.848 18.6968 241.856 17.9189ZM242.401 23.0957H247.692V22.5156H243.087V20.5908H242.401V23.0957Z" fill="#113287"/>
<path d="M256.24 15.4492H255.555V21.2148H256.24V18.4111H257.418V17.8311H256.24V15.4492ZM250.281 17.9277C250.277 19.0571 251.165 19.8525 252.329 19.8525C253.503 19.8525 254.377 19.0571 254.386 17.9277C254.377 16.7939 253.503 16.0073 252.329 16.0029C251.165 16.0073 250.277 16.7939 250.281 17.9277ZM250.958 17.9277C250.954 17.1543 251.556 16.6094 252.329 16.6094C253.116 16.6094 253.705 17.1543 253.709 17.9277C253.705 18.6968 253.116 19.2461 252.329 19.2461C251.556 19.2461 250.954 18.6968 250.958 17.9277ZM251.354 23.0957H256.601V22.5156H252.031V20.6172H251.354V23.0957Z" fill="#113287"/>
<path d="M261.793 16.3193H257.821V16.8818H261.099C261.103 17.5059 261.086 18.4551 260.871 19.7646L261.565 19.8262C261.789 18.376 261.789 17.3433 261.793 16.7236V16.3193ZM257.381 20.9688L257.469 21.54C258.867 21.5488 260.704 21.5137 262.347 21.2588L262.312 20.7402C261.499 20.8369 260.611 20.894 259.746 20.9248V18.5518H259.069V20.9468C258.467 20.96 257.895 20.9644 257.381 20.9688ZM262.804 23.2627H263.49V19.3164H264.755V18.7188H263.49V15.4492H262.804V23.2627Z" fill="#113287"/>
<path d="M270.632 15.959H267.09V16.5303H269.898C269.748 17.8574 268.553 18.8945 266.685 19.4219L266.975 19.9668C269.225 19.3252 270.627 17.9189 270.632 15.959ZM268.004 23.1572H273.075V20.248H268.004V23.1572ZM268.672 22.5947V20.8018H272.389V22.5947H268.672ZM270.649 18.0508H272.381V19.9141H273.075V15.458H272.381V17.4707H270.649V18.0508Z" fill="#113287"/>
<path d="M276.738 17.1279V16.6709H278.54V16.1084H274.216V16.6709H276.044V17.1279C276.04 18.2354 275.213 19.2505 274.04 19.6592L274.4 20.2129C275.332 19.8701 276.066 19.167 276.404 18.2793C276.76 19.1011 277.481 19.7427 278.391 20.0547L278.742 19.501C277.573 19.1318 276.743 18.1826 276.738 17.1279ZM275.332 23.0957H280.623V22.5156H276.018V20.6436H275.332V23.0957ZM279.691 21.1885H280.377V15.458H279.691V21.1885Z" fill="#113287"/>
<path d="M284.814 15.5898C283.069 15.5898 282.045 16.0688 282.045 16.9346C282.045 17.8223 283.069 18.3013 284.814 18.3057C286.55 18.3013 287.569 17.8223 287.573 16.9346C287.569 16.0688 286.55 15.5898 284.814 15.5898ZM281.254 19.3955H288.373V18.833H281.254V19.3955ZM282.115 20.5996H286.782V21.3115H282.133V23.1748H287.697V22.6299H282.819V21.8213H287.459V20.0723H282.115V20.5996ZM282.766 16.9346C282.757 16.4204 283.517 16.1128 284.814 16.1084C286.11 16.1128 286.866 16.4204 286.87 16.9346C286.866 17.4795 286.11 17.7783 284.814 17.7783C283.517 17.7783 282.757 17.4795 282.766 16.9346Z" fill="#113287"/>
<path d="M296.86 15.458H296.157V19.7031H294.434V20.2656H296.157V21.3643H296.86V15.458ZM290.339 18.5518L290.435 19.123C291.068 19.123 291.802 19.1143 292.571 19.0791V20.8457H293.257V19.0439C294.004 18.9956 294.768 18.9209 295.498 18.7979L295.445 18.2969C295.155 18.3364 294.856 18.3716 294.553 18.3979C294.72 17.4004 294.72 16.6709 294.715 16.2402V15.9326H291.042V16.4951H294.03C294.026 16.9434 293.999 17.5938 293.845 18.4551C292.606 18.5386 291.345 18.5474 290.339 18.5518ZM291.507 23.0957H297.053V22.5156H292.202V20.7051H291.507V23.0957Z" fill="#113287"/>
<path d="M301.622 16.8027H300.014V15.6865H299.328V16.8027H297.702V17.3652H301.622V16.8027ZM297.983 19.668C297.983 20.7183 298.691 21.4565 299.662 21.4609C300.646 21.4565 301.349 20.7183 301.358 19.668C301.349 18.6309 300.646 17.897 299.662 17.8926C298.691 17.897 297.983 18.6309 297.983 19.668ZM298.598 19.668C298.598 18.9824 299.042 18.4814 299.662 18.4727C300.286 18.4814 300.743 18.9824 300.743 19.668C300.743 20.3623 300.286 20.8589 299.662 20.8545C299.042 20.8589 298.598 20.3623 298.598 19.668ZM302.026 22.876H302.677V19.3164H303.714V23.2627H304.373V15.4492H303.714V18.7451H302.677V15.6426H302.026V22.876Z" fill="#113287"/>
<path d="M55.1028 30.2109H50.3918V27.75H55.0237V27.1787H49.7063V30.7822H55.1028V30.2109ZM48.7922 33.1992H55.9465V32.6191H48.7922V33.1992Z" fill="#113287"/>
<path d="M62.5717 26.458H61.8862V30.7471H62.5717V26.458ZM56.5161 27.4072H59.3989V28.4004H56.5336V30.5889H57.1665C58.6079 30.5801 59.6757 30.5405 60.9897 30.334L60.9106 29.7627C59.6406 29.9692 58.5991 30 57.2016 30.0088V28.9453H60.0844V26.8359H56.5161V27.4072ZM57.4917 34.1572H62.5717V31.1426H61.8862V32.0742H58.186V31.1426H57.4917V34.1572ZM58.186 33.5947V32.6279H61.8862V33.5947H58.186Z" fill="#113287"/>
<path d="M69.8913 26.4492H69.2057V34.2627H69.8913V26.4492ZM63.9586 32.25H64.5915C65.8439 32.25 67.0788 32.1533 68.4674 31.8633L68.3708 31.2744C67.0612 31.5513 65.8307 31.6436 64.6354 31.6523V27.2227H63.9586V32.25Z" fill="#113287"/>
<path d="M76.8241 26.4492H76.1385V34.2803H76.8241V30.123H78.1336V29.543H76.8241V26.4492ZM71.12 32.3203H71.7352C73.2206 32.3203 74.2445 32.2764 75.4706 32.0566L75.3827 31.459C74.2181 31.6743 73.2206 31.7358 71.8055 31.7402V27.7852H74.7674V27.2139H71.12V32.3203Z" fill="#113287"/>
<path d="M78.9317 33.6035C79.2437 33.5991 79.4986 33.3442 79.4942 33.0322C79.4986 32.7246 79.2437 32.4697 78.9317 32.4697C78.6241 32.4697 78.3604 32.7246 78.3692 33.0322C78.3604 33.3442 78.6241 33.5991 78.9317 33.6035Z" fill="#113287"/>
<rect x="0.33252" y="1.10547" width="322.5" height="47.5" rx="3.75" stroke="#113287" stroke-width="0.5"/>
<path d="M23.1513 28.3311C23.708 28.3311 24.1508 28.8168 24.1508 29.4135C24.1508 30.0241 23.708 30.5098 23.1513 30.5098C22.582 30.5098 22.1392 30.0102 22.1392 29.4135C22.1392 28.8168 22.582 28.3311 23.1513 28.3311Z" fill="#113287"/>
<path d="M24.0985 21.6148V26.2777C24.0985 26.8605 23.6683 27.3046 23.1496 27.3046C22.6182 27.3046 22.2007 26.8466 22.2007 26.2777V21.6148C22.2007 21.0459 22.6182 20.5879 23.1496 20.5879C23.6683 20.5879 24.0985 21.0597 24.0985 21.6148Z" fill="#113287"/>
<path d="M19.6086 16.6613C20.38 15.1901 21.7837 14.4267 23.1495 14.4406C24.5154 14.4267 25.9065 15.1901 26.6905 16.6613L33.0263 28.5974C33.4057 29.3191 33.5828 30.0825 33.5828 30.832C33.5828 31.9978 33.1528 33.1081 32.432 33.927C31.7111 34.732 30.6615 35.2872 29.4854 35.2733H16.8137C15.625 35.2872 14.588 34.732 13.8671 33.927C13.1336 33.1081 12.7163 31.9978 12.7163 30.832C12.7163 30.0825 12.8934 29.3191 13.2728 28.5974H13.2601L19.6086 16.6613ZM23.1495 16.5086C22.3908 16.5086 21.6826 16.8972 21.2526 17.6883L14.9041 29.6244V29.6383C14.7018 30.027 14.6133 30.4156 14.6133 30.8181C14.6133 31.4287 14.8409 32.0394 15.2329 32.4836C15.625 32.9277 16.1561 33.2053 16.8137 33.2053H29.4854C30.143 33.2053 30.6615 32.9277 31.0662 32.4836C31.4582 32.0394 31.6858 31.4287 31.6858 30.8181C31.6858 30.4156 31.5973 30.0269 31.3823 29.6244L25.0465 17.6883C24.6165 16.8834 23.8957 16.5086 23.1495 16.5086Z" fill="#113287"/>
</svg>
