<svg width="324" height="49" viewBox="0 0 324 49" fill="none" xmlns="http://www.w3.org/2000/svg">
<path d="M48.7146 16.6704V15.8882H48.0291V16.6968C48.0203 17.9097 47.2205 18.9468 46.0164 19.3687L46.3943 19.9312C47.3391 19.5752 48.051 18.8501 48.385 17.9141C48.7234 18.7358 49.4001 19.373 50.2615 19.6938L50.6482 19.1577C49.5012 18.7666 48.7058 17.7866 48.7146 16.6704ZM47.2908 21.7769C47.2864 22.7085 48.2839 23.2358 49.9099 23.2358C51.5315 23.2358 52.5291 22.7085 52.5291 21.7769C52.5291 20.8364 51.5315 20.2959 49.9099 20.3003C48.2839 20.2959 47.2864 20.8364 47.2908 21.7769ZM47.9763 21.7769C47.9719 21.1924 48.7102 20.8452 49.9099 20.8452C51.1052 20.8452 51.8435 21.1924 51.8435 21.7769C51.8435 22.3438 51.1052 22.6865 49.9099 22.6821C48.7102 22.6865 47.9719 22.3438 47.9763 21.7769ZM50.0681 17.6899H51.8083V20.0718H52.5027V15.4399H51.8083V17.1187H50.0681V17.6899Z" fill="#113287"/>
<path d="M55.819 16.9253V16.5913H57.5768V16.02H53.358V16.5913H55.1422V16.9253C55.1334 18.0547 54.316 19.061 53.1471 19.4565L53.4987 20.0103C54.4347 19.6719 55.1554 18.9731 55.4894 18.0767C55.8278 18.8633 56.5089 19.4829 57.4098 19.7817L57.735 19.2368C56.588 18.8633 55.8234 17.9492 55.819 16.9253ZM54.1842 21.7944C54.1886 22.7085 55.1686 23.2358 56.777 23.2358C58.381 23.2358 59.3522 22.7085 59.3522 21.7944C59.3522 20.8936 58.381 20.3706 56.777 20.3706C55.1686 20.3706 54.1886 20.8936 54.1842 21.7944ZM54.8785 21.7944C54.8698 21.2495 55.5992 20.9243 56.777 20.9243C57.9591 20.9243 58.6798 21.2495 58.6842 21.7944C58.6798 22.3569 57.9591 22.6865 56.777 22.6821C55.5992 22.6865 54.8698 22.3569 54.8785 21.7944ZM58.5963 20.1597H59.2819V18.0151H60.4596V17.4351H59.2819V15.4399H58.5963V20.1597Z" fill="#113287"/>
<path d="M66.7817 15.4399H66.0874V23.2534H66.7817V15.4399ZM60.4185 21.2231L60.7964 21.7856C63.4155 20.5288 64.4614 18.5381 64.4702 16.2925H60.7788V16.855H63.7671C63.6133 18.7227 62.5322 20.2212 60.4185 21.2231Z" fill="#113287"/>
<path d="M73.517 15.4399H72.8314V23.2534H73.517V19.2017H74.7826V18.6216H73.517V15.4399ZM67.5228 21.2231L67.9096 21.7681C70.454 20.5112 71.4911 18.4941 71.4955 16.2837H67.8832V16.8638H70.7968C70.6386 18.7139 69.5399 20.2212 67.5228 21.2231Z" fill="#113287"/>
<path d="M80.9054 18.8149H77.5656V16.7495H80.8703V16.187H76.8888V19.3862H78.506V20.9507C77.7282 20.9727 76.9723 20.9771 76.2912 20.9771L76.3878 21.5571C77.882 21.5615 79.7716 21.5264 81.5031 21.2759L81.4503 20.7573C80.7252 20.8408 79.9562 20.8936 79.1916 20.9243V19.3862H80.9054V18.8149ZM81.9689 23.271H82.6544V15.4399H81.9689V23.271Z" fill="#113287"/>
<path d="M87.3506 16.1255H83.7647V19.7729H87.3506V19.0698H89.1787V21.1528H89.8731V15.4487H89.1787V16.8198H87.3506V16.1255ZM84.4502 19.2192V16.6968H86.6739V19.2192H84.4502ZM84.8194 23.0864H90.0489V22.5063H85.5137V20.6431H84.8194V23.0864ZM87.3506 18.4985V17.3999H89.1787V18.4985H87.3506Z" fill="#113287"/>
<path d="M94.4578 17.8481V17.4614H95.9256V16.8901H94.4666V15.73H93.8074V16.8901H92.3221V17.4614H93.8074V17.8481C93.803 19.1401 93.1746 20.5112 92.1111 21.1265L92.5242 21.6538C93.3064 21.1836 93.8645 20.3047 94.1414 19.3027C94.427 20.2432 94.9895 21.0518 95.7674 21.478L96.1629 20.9595C95.0994 20.3926 94.4622 19.105 94.4578 17.8481ZM95.3894 19.1138H96.6199V22.8491H97.2703V15.6333H96.6199V18.5249H95.3894V19.1138ZM98.1932 23.2534H98.8523V15.4399H98.1932V23.2534Z" fill="#113287"/>
<path d="M105.5 15.9497H100.217V16.521H104.814V16.6353C104.814 17.3647 104.814 18.1821 104.577 19.3071H99.321V19.8784H102.52V23.271H103.215V19.8784H106.44V19.3071H105.276C105.5 18.1865 105.5 17.3735 105.5 16.6353V15.9497Z" fill="#113287"/>
<path d="M112.516 15.4399H111.831V23.2534H112.516V19.2017H113.782V18.6216H112.516V15.4399ZM106.522 21.2231L106.909 21.7681C109.453 20.5112 110.49 18.4941 110.495 16.2837H106.882V16.8638H109.796C109.638 18.7139 108.539 20.2212 106.522 21.2231Z" fill="#113287"/>
<path d="M119.219 16.2573H115.677V16.8286H118.538C118.503 17.312 118.424 17.7734 118.279 18.2129L115.282 18.4106L115.405 19.0083L118.068 18.7578C117.58 19.8125 116.692 20.7134 115.255 21.4341L115.651 21.9614C118.41 20.5771 119.21 18.5117 119.219 16.2573ZM119.193 19.1577H121.03V23.2534H121.715V15.4399H121.03V18.5864H119.193V19.1577Z" fill="#113287"/>
<path d="M125.19 17.8394V16.8198H127.053V16.2485H122.65V16.8198H124.495V17.8394C124.491 19.1929 123.515 20.6694 122.395 21.2056L122.808 21.7505C123.7 21.3022 124.491 20.3091 124.856 19.1621C125.22 20.2432 126.007 21.144 126.921 21.5571L127.308 21.0122C126.156 20.5156 125.194 19.1665 125.19 17.8394ZM128.143 23.2534H128.837V15.4399H128.143V23.2534Z" fill="#113287"/>
<path d="M133.498 16.1255H129.912V19.7729H133.498V19.0698H135.326V21.1528H136.021V15.4487H135.326V16.8198H133.498V16.1255ZM130.598 19.2192V16.6968H132.821V19.2192H130.598ZM130.967 23.0864H136.196V22.5063H131.661V20.6431H130.967V23.0864ZM133.498 18.4985V17.3999H135.326V18.4985H133.498Z" fill="#113287"/>
<path d="M139.442 17.5405V16.1167H138.739V17.5405C138.735 18.9819 137.83 20.4849 136.683 21.0474L137.131 21.6011C138.019 21.1309 138.752 20.1289 139.1 18.96C139.447 20.0718 140.181 21.0034 141.068 21.4604L141.481 20.8979C140.348 20.3794 139.438 18.9556 139.442 17.5405ZM140.629 18.6743H142.483V23.271H143.169V15.4399H142.483V18.1118H140.629V18.6743Z" fill="#113287"/>
<path d="M151.577 15.4399H150.891V21.2056H151.577V18.4019H152.755V17.8218H151.577V15.4399ZM145.618 17.9185C145.613 19.0479 146.501 19.8433 147.666 19.8433C148.839 19.8433 149.714 19.0479 149.722 17.9185C149.714 16.7847 148.839 15.998 147.666 15.9937C146.501 15.998 145.613 16.7847 145.618 17.9185ZM146.295 17.9185C146.29 17.145 146.892 16.6001 147.666 16.6001C148.452 16.6001 149.041 17.145 149.046 17.9185C149.041 18.6875 148.452 19.2368 147.666 19.2368C146.892 19.2368 146.29 18.6875 146.295 17.9185ZM146.69 23.0864H151.937V22.5063H147.367V20.6079H146.69V23.0864Z" fill="#113287"/>
<path d="M158.796 15.9497H153.513V16.521H158.11V16.6353C158.11 17.3647 158.11 18.1821 157.873 19.3071H152.617V19.8784H155.816V23.271H156.51V19.8784H159.736V19.3071H158.571C158.796 18.1865 158.796 17.3735 158.796 16.6353V15.9497Z" fill="#113287"/>
<path d="M162.323 16.0112C161.088 16.0156 160.209 16.7627 160.213 17.8481C160.209 18.938 161.088 19.6807 162.323 19.6851C163.549 19.6807 164.419 18.938 164.423 17.8481C164.419 16.7627 163.549 16.0156 162.323 16.0112ZM159.809 20.9595L159.906 21.5483C161.312 21.5483 163.232 21.5396 165.021 21.2056L164.968 20.6958C163.241 20.9507 161.25 20.9639 159.809 20.9595ZM160.89 17.8481C160.886 17.123 161.488 16.6177 162.323 16.6177C163.149 16.6177 163.751 17.123 163.747 17.8481C163.751 18.5776 163.149 19.0786 162.323 19.0786C161.488 19.0786 160.886 18.5776 160.89 17.8481ZM165.487 23.271H166.172V15.4399H165.487V23.271Z" fill="#113287"/>
<path d="M174.993 15.4399H174.308V19.439H174.993V15.4399ZM168.674 19.0259L168.929 19.606C171.24 19.0654 172.651 17.8218 172.655 15.8267H169.07V16.3979H171.9C171.777 17.6548 170.634 18.5908 168.674 19.0259ZM169.913 20.3618H174.308V21.1704H169.931V23.1831H175.275V22.6294H170.616V21.6978H174.993V19.8081H169.913V20.3618Z" fill="#113287"/>
<path d="M182.133 15.4399H181.439V23.271H182.133V15.4399ZM175.981 18.771C175.985 20.4365 176.811 21.4912 177.976 21.4868C179.136 21.4912 179.975 20.4365 179.971 18.771C179.975 17.1099 179.136 16.0508 177.976 16.0464C176.811 16.0508 175.985 17.1099 175.981 18.771ZM176.649 18.771C176.649 17.501 177.193 16.666 177.976 16.6616C178.762 16.666 179.303 17.501 179.303 18.771C179.303 20.041 178.762 20.876 177.976 20.8716C177.193 20.876 176.649 20.041 176.649 18.771Z" fill="#113287"/>
<path d="M189.149 19.105H184.447V16.644H189.07V16.0815H183.753V19.6675H186.056V21.689H182.839V22.269H189.993V21.689H186.732V19.6675H189.149V19.105Z" fill="#113287"/>
<path d="M198.067 15.4399H197.382V19.439H198.067V15.4399ZM191.748 19.0259L192.003 19.606C194.314 19.0654 195.725 17.8218 195.729 15.8267H192.143V16.3979H194.973C194.85 17.6548 193.708 18.5908 191.748 19.0259ZM192.987 20.3618H197.382V21.1704H193.005V23.1831H198.348V22.6294H193.69V21.6978H198.067V19.8081H192.987V20.3618Z" fill="#113287"/>
<path d="M200.865 16.0464C199.709 16.0508 198.901 17.1099 198.905 18.771C198.901 20.4365 199.709 21.4912 200.865 21.4868C201.955 21.4912 202.737 20.5332 202.812 18.9995H204.556V23.271H205.242V15.4399H204.556V18.4282H202.803C202.697 16.9648 201.928 16.0508 200.865 16.0464ZM199.564 18.771C199.568 17.501 200.096 16.666 200.865 16.6616C201.63 16.666 202.166 17.501 202.166 18.771C202.166 20.041 201.63 20.876 200.865 20.8716C200.096 20.876 199.568 20.041 199.564 18.771Z" fill="#113287"/>
<path d="M212.39 15.4399H211.696V17.646H210.096V18.2261H211.696V19.3071H210.096V19.8872H211.696V23.2534H212.39V15.4399ZM205.86 21.2144L206.317 21.7417C207.178 21.2583 207.943 20.2388 208.29 19.061C208.65 20.1333 209.397 21.1001 210.254 21.5483L210.667 21.021C209.556 20.4585 208.624 18.9863 208.62 17.7603V16.8198H210.404V16.2485H206.141V16.8198H207.925V17.7603C207.921 19.1533 206.976 20.6562 205.86 21.2144Z" fill="#113287"/>
<path d="M221.844 21.689H218.592V19.896H217.915V21.689H214.69V22.269H221.844V21.689ZM215.085 19.6323L215.358 20.1772C216.615 19.9575 217.761 19.3247 218.254 18.3447C218.755 19.3247 219.902 19.9575 221.15 20.1772L221.413 19.6323C219.915 19.3906 218.61 18.481 218.61 17.2593H221.158V16.688H218.592V15.6069H217.915V16.688H215.358V17.2593H217.907C217.898 18.481 216.593 19.3906 215.085 19.6323Z" fill="#113287"/>
<path d="M228.316 15.4399H227.621V17.3999H226.039V17.98H227.621V20.019H228.316V15.4399ZM221.873 19.395L222.234 19.9399C223.161 19.6016 223.882 18.8853 224.22 17.98C224.558 18.7886 225.239 19.4434 226.118 19.7642L226.479 19.2192C225.336 18.8105 224.554 17.835 224.554 16.8286V16.521H226.303V15.9497H222.093V16.521H223.86V16.8286C223.86 17.9404 223.025 18.9863 221.873 19.395ZM223.209 23.1479H228.316V20.4058H223.209V23.1479ZM223.895 22.5854V20.9595H227.639V22.5854H223.895Z" fill="#113287"/>
<path d="M235.429 15.4399H234.734V23.271H235.429V15.4399ZM229.276 18.771C229.281 20.4365 230.107 21.4912 231.272 21.4868C232.432 21.4912 233.271 20.4365 233.267 18.771C233.271 17.1099 232.432 16.0508 231.272 16.0464C230.107 16.0508 229.281 17.1099 229.276 18.771ZM229.944 18.771C229.944 17.501 230.489 16.666 231.272 16.6616C232.058 16.666 232.599 17.501 232.599 18.771C232.599 20.041 232.058 20.876 231.272 20.8716C230.489 20.876 229.944 20.041 229.944 18.771Z" fill="#113287"/>
<path d="M241.71 16.0376H238.097V19.3862H241.71V16.0376ZM238.774 21.7856C238.779 22.7085 239.772 23.2446 241.367 23.2534C242.962 23.2446 243.942 22.7085 243.942 21.7856C243.942 20.8716 242.962 20.3267 241.367 20.3267C239.772 20.3267 238.779 20.8716 238.774 21.7856ZM238.774 18.8325V16.6001H241.042V18.8325H238.774ZM239.469 21.7856C239.46 21.2231 240.189 20.8892 241.367 20.8892C242.549 20.8892 243.27 21.2231 243.274 21.7856C243.27 22.3569 242.549 22.6865 241.367 22.6909C240.189 22.6865 239.46 22.3569 239.469 21.7856ZM243.186 20.063H243.872V17.9712H245.05V17.3999H243.872V15.4399H243.186V20.063Z" fill="#113287"/>
<path d="M248.858 16.0288H245.246V19.4829H248.858V16.0288ZM245.905 21.0474H250.335V23.271H251.02V20.4937H245.905V21.0474ZM245.923 18.9204V16.5825H248.19V18.9204H245.923ZM250.335 20.0718H251.02V18.0591H252.198V17.479H251.02V15.4399H250.335V20.0718Z" fill="#113287"/>
<path d="M259.797 15.4487H259.112V19.8784H259.797V17.9272H260.975V17.3647H259.797V15.4487ZM253.838 17.7339C253.834 18.8105 254.704 19.5532 255.886 19.5532C257.077 19.5532 257.934 18.8105 257.943 17.7339C257.934 16.644 257.077 15.897 255.886 15.897C254.704 15.897 253.834 16.644 253.838 17.7339ZM254.515 17.7339C254.511 16.9912 255.095 16.4771 255.886 16.4771C256.686 16.4771 257.262 16.9912 257.266 17.7339C257.262 18.4634 256.686 18.9731 255.886 18.9819C255.095 18.9731 254.511 18.4634 254.515 17.7339ZM254.717 23.1304H260.105V22.5679H258.91V20.854H260.008V20.2915H254.788V20.854H255.895V22.5679H254.717V23.1304ZM256.563 22.5679V20.854H258.242V22.5679H256.563Z" fill="#113287"/>
<path d="M267.534 15.4399H266.867V23.2534H267.534V15.4399ZM260.934 18.8149C260.938 20.4761 261.597 21.5352 262.613 21.5308C263.575 21.5352 264.23 20.5815 264.296 19.061H265.302V22.8579H265.961V15.6069H265.302V18.4897H264.291C264.203 17.0176 263.562 16.1035 262.613 16.0991C261.597 16.1035 260.938 17.1538 260.934 18.8149ZM261.584 18.8149C261.576 17.5449 261.98 16.7495 262.613 16.7495C263.25 16.7495 263.654 17.5449 263.65 18.8149C263.654 20.0806 263.25 20.8804 262.613 20.8716C261.98 20.8804 261.576 20.0806 261.584 18.8149Z" fill="#113287"/>
<path d="M276.25 15.4487H275.591V17.4175H274.554V15.5981H273.903V19.9048H274.554V17.9888H275.591V19.9663H276.25V15.4487ZM269.975 19.4214H272.998V16.0376H269.975V19.4214ZM270.625 18.8853V16.5913H272.357V18.8853H270.625ZM270.731 22.6909L270.985 23.2183C272.168 23.0469 273.244 22.5107 273.692 21.7065C274.141 22.5107 275.222 23.0469 276.408 23.2183L276.654 22.6909C275.318 22.5151 274.114 21.8252 274.062 20.9331H276.338V20.3706H271.038V20.9331H273.323C273.275 21.8384 272.062 22.5151 270.731 22.6909Z" fill="#113287"/>
<path d="M281.386 16.6968H279.443V15.5278H278.74V16.6968H276.763V17.2681H281.386V16.6968ZM277.272 19.7114C277.268 20.7617 278.033 21.5044 279.092 21.5044C280.146 21.5044 280.915 20.7617 280.92 19.7114C280.915 18.6567 280.146 17.9185 279.092 17.9185C278.033 17.9185 277.268 18.6567 277.272 19.7114ZM277.896 19.7114C277.888 19.0171 278.397 18.5117 279.092 18.5073C279.786 18.5117 280.291 19.0171 280.296 19.7114C280.291 20.4146 279.786 20.9111 279.092 20.9067C278.397 20.9111 277.888 20.4146 277.896 19.7114ZM281.236 20.5552H282.555V23.2534H283.24V15.4399H282.555V18.0415H281.236V18.6128H282.555V19.9839H281.236V20.5552Z" fill="#113287"/>
<path d="M291.754 15.9146H286.445V16.4771H291.068V16.521C291.072 17.1846 291.072 17.9536 290.862 19.0347H285.54V19.6147H292.694V19.0347H291.547C291.754 17.9712 291.754 17.1802 291.754 16.521V15.9146ZM286.489 23.0776H291.991V22.4976H287.175V20.4937H286.489V23.0776Z" fill="#113287"/>
<path d="M295.465 17.5405V16.1167H294.78V17.5405C294.771 19.0215 293.809 20.5156 292.644 21.0474L293.084 21.6274C293.998 21.166 294.767 20.1772 295.127 18.9995C295.501 20.1113 296.27 21.0386 297.162 21.4692L297.584 20.9243C296.432 20.4014 295.461 18.9688 295.465 17.5405ZM298.436 23.271H299.13V15.4399H298.436V23.271Z" fill="#113287"/>
<path d="M305.883 15.4399H305.198V23.2534H305.883V19.2017H307.149V18.6216H305.883V15.4399ZM299.889 21.2231L300.276 21.7681C302.82 20.5112 303.857 18.4941 303.862 16.2837H300.249V16.8638H303.163C303.005 18.7139 301.906 20.2212 299.889 21.2231Z" fill="#113287"/>
<path d="M50.0066 27.187H46.4207V32.3374H47.0183C48.5168 32.3374 49.4705 32.2847 50.6218 32.0649L50.5339 31.4937C49.4529 31.7046 48.5256 31.7529 47.115 31.7485V27.7671H50.0066V27.187ZM49.5408 29.8589H51.8171V34.271H52.5115V26.4399H51.8171V29.2876H49.5408V29.8589Z" fill="#113287"/>
<path d="M57.6148 28.1187V27.6616H59.4165V27.0991H55.0923V27.6616H56.9204V28.1187C56.916 29.2261 56.0899 30.2412 54.9165 30.6499L55.2769 31.2036C56.2085 30.8608 56.9424 30.1577 57.2808 29.27C57.6367 30.0918 58.3574 30.7334 59.2671 31.0454L59.6187 30.4917C58.4497 30.1226 57.6192 29.1733 57.6148 28.1187ZM56.2085 34.0864H61.4995V33.5063H56.8941V31.6343H56.2085V34.0864ZM60.5679 32.1792H61.2534V26.4487H60.5679V32.1792Z" fill="#113287"/>
<path d="M68.5863 26.4399H67.9271V28.5757H66.8812V26.5981H66.2309V31.1069H66.8812V29.147H67.9271V31.3882H68.5863V26.4399ZM61.9066 27.9341H65.9144V27.3804H64.2621V26.5015H63.5766V27.3804H61.9066V27.9341ZM62.2494 29.6919C62.245 30.4961 62.935 31.019 63.9193 31.019C64.9081 31.019 65.5936 30.4961 65.598 29.6919C65.5936 28.8745 64.9081 28.3516 63.9193 28.356C62.935 28.3516 62.245 28.8745 62.2494 29.6919ZM62.8646 29.6919C62.8646 29.1953 63.2953 28.8657 63.9193 28.8657C64.5434 28.8657 64.974 29.1953 64.974 29.6919C64.974 30.1709 64.5434 30.5005 63.9193 30.5005C63.2953 30.5005 62.8646 30.1709 62.8646 29.6919ZM63.3832 32.8911C63.3744 33.748 64.3544 34.2358 66.0023 34.2358C67.6459 34.2358 68.6259 33.748 68.6303 32.8911C68.6259 32.0122 67.6459 31.52 66.0023 31.52C64.3544 31.52 63.3744 32.0122 63.3832 32.8911ZM64.0687 32.8911C64.06 32.355 64.785 32.0562 66.0023 32.0649C67.2152 32.0562 67.9359 32.355 67.9447 32.8911C67.9359 33.3965 67.2152 33.7041 66.0023 33.6997C64.785 33.7041 64.06 33.3965 64.0687 32.8911Z" fill="#113287"/>
<path d="M73.6428 28.5054H70.5755V27.3188H73.555V26.7827H69.8635V29.0503H71.3753V29.8721C70.593 29.9028 69.8284 29.9116 69.1428 29.9116L69.2395 30.4653C70.7205 30.4653 72.6057 30.417 74.2757 30.1577L74.2405 29.6743C73.5506 29.7578 72.8079 29.8105 72.0696 29.8457V29.0503H73.6428V28.5054ZM70.3645 31.564H74.8733V32.2935H70.3821V34.1655H75.8313V33.603H71.0676V32.8208H75.5501V31.0103H70.3645V31.564ZM74.8645 30.6587H75.5501V26.4487H74.8645V30.6587Z" fill="#113287"/>
<path d="M81.7959 27.1694V26.7212H81.084V27.1694C81.084 28.29 79.6558 29.2217 78.2451 29.4194L78.5264 29.9819C79.7437 29.7798 80.9434 29.1162 81.4444 28.1494C81.9453 29.1074 83.1494 29.7798 84.3623 29.9819L84.6436 29.4194C83.2329 29.2217 81.8003 28.2725 81.7959 27.1694ZM77.876 31.4233H81.084V34.2534H81.7608V31.4233H84.9951V30.8433H77.876V31.4233Z" fill="#113287"/>
<path d="M89.2986 31.687V31.2563H88.6307V31.687C88.6219 32.4341 88.0286 33.269 87.0398 33.6382L87.3914 34.1479C88.1385 33.8667 88.6746 33.3218 88.9558 32.6934C89.1888 33.3481 89.6722 33.9194 90.4324 34.2095C91.1531 33.9062 91.6321 33.3042 91.8738 32.6714C92.1463 33.3262 92.6912 33.8711 93.4734 34.1479L93.8162 33.6382C92.8142 33.291 92.221 32.4912 92.2254 31.687V31.2563H91.5486V31.687C91.553 32.2891 91.1575 33.0713 90.4104 33.5327C89.6678 33.1108 89.2942 32.377 89.2986 31.687ZM86.8377 28.7339C86.8333 29.8062 87.699 30.5444 88.8855 30.5444C90.0721 30.5444 90.929 29.8062 90.9334 28.7339C90.929 27.644 90.0721 26.9014 88.8855 26.9058C87.699 26.9014 86.8333 27.644 86.8377 28.7339ZM87.5144 28.7339C87.5057 28.0044 88.0813 27.4858 88.8855 27.4946C89.6809 27.4858 90.2566 28.0044 90.2566 28.7339C90.2566 29.459 89.6809 29.9688 88.8855 29.9731C88.0813 29.9688 87.5057 29.459 87.5144 28.7339ZM92.4187 30.9136H93.1043V26.4487H92.4187V30.9136Z" fill="#113287"/>
<path d="M95.3923 31.1333H94.7067V34.1479H99.9889V31.1333H99.2946V32.0474H95.3923V31.1333ZM93.8014 30.5796H100.921V30.0083H93.8014V30.5796ZM94.2057 28.9009L94.4694 29.4546C95.6735 29.2744 96.8688 28.6636 97.3654 27.7847C97.862 28.6592 99.0529 29.2744 100.261 29.4546L100.516 28.9009C99.1408 28.7251 97.717 27.8594 97.7214 26.897V26.5278H97.0094V26.897C97.0094 27.8901 95.5988 28.7119 94.2057 28.9009ZM95.3923 33.5942V32.5923H99.2946V33.5942H95.3923Z" fill="#113287"/>
<path d="M107.392 26.4399H106.707V34.2534H107.392V26.4399ZM101.46 32.2407H102.092C103.345 32.2407 104.58 32.144 105.968 31.854L105.872 31.2651C104.562 31.542 103.332 31.6343 102.136 31.6431V27.2134H101.46V32.2407Z" fill="#113287"/>
<path d="M114.145 26.4399H113.459V34.271H114.145V30.1138H115.455V29.5337H114.145V26.4399ZM108.441 32.311H109.056C110.541 32.311 111.565 32.2671 112.791 32.0474L112.704 31.4497C111.539 31.665 110.541 31.7266 109.126 31.731V27.7759H112.088V27.2046H108.441V32.311Z" fill="#113287"/>
<path d="M116.073 33.5942C116.385 33.5898 116.639 33.335 116.635 33.0229C116.639 32.7153 116.385 32.4604 116.073 32.4604C115.765 32.4604 115.501 32.7153 115.51 33.0229C115.501 33.335 115.765 33.5898 116.073 33.5942Z" fill="#113287"/>
<path d="M121.009 33.6294C122.349 33.6426 123.224 32.6846 123.224 31.4849C123.224 30.2544 122.279 29.3755 121.149 29.3755C120.464 29.3755 119.879 29.6875 119.515 30.2192H119.436C119.431 28.6855 120.06 27.7935 121.106 27.7935C121.813 27.7935 122.244 28.2153 122.389 28.7778H123.171C123.008 27.7803 122.226 27.0903 121.106 27.0903C119.611 27.0903 118.689 28.3516 118.689 30.606C118.689 32.9614 119.906 33.6162 121.009 33.6294ZM119.541 31.5024C119.55 30.751 120.191 30.0742 121.026 30.0698C121.857 30.0742 122.455 30.7114 122.459 31.4937C122.455 32.2847 121.831 32.9307 121.009 32.9351C120.156 32.9307 119.545 32.2495 119.541 31.5024Z" fill="#113287"/>
<path d="M130.073 26.4399H129.396V29.5952H128.315V26.6509H127.656V33.8667H128.315V30.1665H129.396V34.2534H130.073V26.4399ZM123.411 32.0913L123.815 32.5747C126.061 31.3223 126.76 29.4458 126.769 27.4595H123.71V28.0308H126.092C125.973 29.6479 125.226 31.0762 123.411 32.0913Z" fill="#113287"/>
<path d="M136.993 26.4487H136.299V30.1665H134.717V30.6235H136.299V31.0542H136.993V26.4487ZM130.524 29.3931L130.603 29.9116C131.236 29.9116 131.948 29.9116 132.686 29.8853V31.0806H133.363V29.8589C134.141 29.8237 134.936 29.7578 135.701 29.6479L135.657 29.1997C133.97 29.3843 132.036 29.4019 130.524 29.3931ZM131.131 27.7759C131.131 28.5054 131.895 28.9404 133.073 28.9448C134.238 28.9404 135.007 28.5054 135.015 27.7759C135.007 27.0508 134.238 26.5981 133.073 26.5981C131.895 26.5981 131.131 27.0508 131.131 27.7759ZM131.72 31.8364H136.307V32.4692H131.755V34.1655H137.248V33.6558H132.431V32.9526H136.993V31.3354H131.72V31.8364ZM131.781 27.7759C131.777 27.3584 132.286 27.0771 133.073 27.0815C133.851 27.0771 134.361 27.3584 134.365 27.7759C134.361 28.189 133.851 28.4702 133.073 28.4702C132.286 28.4702 131.777 28.189 131.781 27.7759Z" fill="#113287"/>
<path d="M141.628 27.231H138.024V32.2671H141.628V27.231ZM138.692 31.7046V27.7847H140.942V31.7046H138.692ZM143.06 34.2534H143.746V30.1577H145.055V29.5601H143.746V26.4399H143.06V34.2534Z" fill="#113287"/>
<path d="M150.894 26.4399H150.209V34.271H150.894V30.1138H152.204V29.5337H150.894V26.4399ZM145.19 32.311H145.805C147.291 32.311 148.315 32.2671 149.541 32.0474L149.453 31.4497C148.288 31.665 147.291 31.7266 145.876 31.731V27.7759H148.837V27.2046H145.19V32.311Z" fill="#113287"/>
<path d="M160.102 26.4399H159.408V28.479H157.834V29.0503H159.408V31.0981H160.102V26.4399ZM153.66 30.4741L154.02 31.0278C154.952 30.6719 155.677 29.9424 156.011 29.0283C156.349 29.8325 157.03 30.4917 157.905 30.8081L158.265 30.2544C157.122 29.8633 156.34 28.8921 156.34 27.8726V27.5913H158.089V27.0112H153.879V27.5913H155.646V27.8813C155.646 28.9976 154.82 30.0566 153.66 30.4741ZM154.89 32.7944C154.886 33.7173 155.883 34.2446 157.509 34.2534C159.131 34.2446 160.128 33.7173 160.128 32.7944C160.128 31.876 159.131 31.3398 157.509 31.3442C155.883 31.3398 154.886 31.876 154.89 32.7944ZM155.576 32.7944C155.571 32.2231 156.309 31.8804 157.509 31.8804C158.704 31.8804 159.443 32.2231 159.443 32.7944C159.443 33.3613 158.704 33.7041 157.509 33.6997C156.309 33.7041 155.571 33.3613 155.576 32.7944Z" fill="#113287"/>
<path d="M167.233 26.4399H166.538V34.2534H167.233V26.4399ZM160.869 32.2231L161.247 32.7856C163.866 31.5288 164.912 29.5381 164.921 27.2925H161.23V27.855H164.218C164.064 29.7227 162.983 31.2212 160.869 32.2231Z" fill="#113287"/>
<path d="M170.637 27.8813V27.5474H172.386V26.9849H168.176V27.5474H169.942V27.8901C169.942 28.9932 169.108 30.0347 167.956 30.4478L168.317 30.9927C169.244 30.6499 169.969 29.9292 170.307 29.0327C170.641 29.8369 171.322 30.4917 172.201 30.8081L172.562 30.2632C171.419 29.8677 170.637 28.8965 170.637 27.8813ZM169.143 32.1089H173.704V34.2534H174.399V31.5376H169.143V32.1089ZM172.14 29.0679H173.704V31.1245H174.399V26.4399H173.704V28.4878H172.14V29.0679Z" fill="#113287"/>
<path d="M181.52 26.4487H180.835V32.1616H181.52V26.4487ZM175.254 28.9097C175.249 30.0479 176.133 30.8389 177.302 30.8345C178.471 30.8389 179.345 30.0479 179.35 28.9097C179.345 27.7847 178.471 26.998 177.302 26.9937C176.133 26.998 175.249 27.7847 175.254 28.9097ZM175.931 28.9097C175.922 28.145 176.511 27.6001 177.302 27.6001C178.08 27.6001 178.673 28.145 178.673 28.9097C178.673 29.6875 178.08 30.228 177.302 30.228C176.511 30.228 175.922 29.6875 175.931 28.9097ZM176.476 34.0864H181.767V33.5063H177.161V31.5815H176.476V34.0864Z" fill="#113287"/>
<path d="M186.624 28.5405V27.1167H185.938V28.5405C185.929 30.0215 184.967 31.5156 183.802 32.0474L184.242 32.6274C185.156 32.166 185.925 31.1772 186.285 29.9995C186.659 31.1113 187.428 32.0386 188.32 32.4692L188.742 31.9243C187.591 31.4014 186.619 29.9688 186.624 28.5405ZM189.594 34.271H190.289V26.4399H189.594V34.271Z" fill="#113287"/>
<path d="M194.704 26.9233H191.311V27.4771H194.018V28.5845H191.329V30.8872H191.882C193.464 30.8872 194.26 30.8608 195.231 30.7026L195.161 30.1313C194.242 30.2983 193.482 30.3291 192.014 30.3247V29.1118H194.704V26.9233ZM192.208 32.2319H196.778V34.271H197.472V31.6694H192.208V32.2319ZM195.222 29.7974H196.778V31.2476H197.472V26.4487H196.778V27.6089H195.222V28.1714H196.778V29.2261H195.222V29.7974Z" fill="#113287"/>
<path d="M203.806 26.9497H200.264V27.521H203.072C202.923 28.8481 201.727 29.8853 199.86 30.4126L200.15 30.9575C202.4 30.3159 203.802 28.9097 203.806 26.9497ZM201.178 34.1479H206.249V31.2388H201.178V34.1479ZM201.846 33.5854V31.7925H205.564V33.5854H201.846ZM203.824 29.0415H205.555V30.9048H206.249V26.4487H205.555V28.4614H203.824V29.0415Z" fill="#113287"/>
<path d="M209.539 28.5405V27.1167H208.863V28.5405C208.854 29.9688 207.949 31.4673 206.806 32.0298L207.245 32.5835C208.124 32.1133 208.863 31.1245 209.21 29.9731C209.557 31.0586 210.278 31.9858 211.139 32.4341L211.561 31.8804C210.449 31.3354 209.539 29.916 209.539 28.5405ZM212.282 34.2534H212.967V30.2104H214.277V29.6128H212.967V26.4399H212.282V34.2534Z" fill="#113287"/>
<path d="M221.214 30.0698H214.06V30.6147H221.214V30.0698ZM214.921 31.7573H219.632V32.4253H214.93V34.1479H220.572V33.647H215.624V32.8999H220.318V31.2388H214.921V31.7573ZM214.965 27.1782H219.597V27.8198H214.991V29.481H220.432V28.98H215.677V28.2944H220.291V26.6772H214.965V27.1782Z" fill="#113287"/>
<path d="M229.314 26.4487H228.611V30.6938H226.889V31.2563H228.611V32.355H229.314V26.4487ZM222.793 29.5425L222.89 30.1138C223.522 30.1138 224.256 30.105 225.025 30.0698V31.8364H225.711V30.0347C226.458 29.9863 227.223 29.9116 227.952 29.7886L227.899 29.2876C227.609 29.3271 227.31 29.3623 227.007 29.3887C227.174 28.3911 227.174 27.6616 227.17 27.231V26.9233H223.496V27.4858H226.484C226.48 27.9341 226.454 28.5845 226.3 29.4458C225.06 29.5293 223.799 29.5381 222.793 29.5425ZM223.962 34.0864H229.508V33.5063H224.656V31.6958H223.962V34.0864Z" fill="#113287"/>
<path d="M233.896 27.7935H232.288V26.6772H231.602V27.7935H229.976V28.356H233.896V27.7935ZM230.258 30.6587C230.258 31.709 230.965 32.4473 231.936 32.4517C232.921 32.4473 233.624 31.709 233.633 30.6587C233.624 29.6216 232.921 28.8877 231.936 28.8833C230.965 28.8877 230.258 29.6216 230.258 30.6587ZM230.873 30.6587C230.873 29.9731 231.317 29.4722 231.936 29.4634C232.56 29.4722 233.017 29.9731 233.017 30.6587C233.017 31.353 232.56 31.8496 231.936 31.8452C231.317 31.8496 230.873 31.353 230.873 30.6587ZM234.301 33.8667H234.951V30.3071H235.988V34.2534H236.647V26.4399H235.988V29.7358H234.951V26.6333H234.301V33.8667Z" fill="#113287"/>
<path d="M243.453 30.2017H238.742V27.7407H243.374V27.1694H238.056V30.7729H243.453V30.2017ZM237.142 33.1899H244.297V32.6099H237.142V33.1899Z" fill="#113287"/>
<path d="M250.742 26.4487H250.056V30.7378H250.742V26.4487ZM244.686 27.3979H247.569V28.3911H244.704V30.5796H245.336C246.778 30.5708 247.846 30.5312 249.16 30.3247L249.081 29.7534C247.811 29.96 246.769 29.9907 245.372 29.9995V28.936H248.254V26.8267H244.686V27.3979ZM245.662 34.1479H250.742V31.1333H250.056V32.0649H246.356V31.1333H245.662V34.1479ZM246.356 33.5854V32.6187H250.056V33.5854H246.356Z" fill="#113287"/>
<path d="M257.881 26.4399H257.196V34.2534H257.881V26.4399ZM251.949 32.2407H252.581C253.834 32.2407 255.069 32.144 256.457 31.854L256.361 31.2651C255.051 31.542 253.821 31.6343 252.625 31.6431V27.2134H251.949V32.2407Z" fill="#113287"/>
<path d="M264.634 26.4399H263.949V34.271H264.634V30.1138H265.944V29.5337H264.634V26.4399ZM258.93 32.311H259.545C261.031 32.311 262.055 32.2671 263.281 32.0474L263.193 31.4497C262.028 31.665 261.031 31.7266 259.616 31.731V27.7759H262.577V27.2046H258.93V32.311Z" fill="#113287"/>
<path d="M266.562 33.5942C266.874 33.5898 267.129 33.335 267.124 33.0229C267.129 32.7153 266.874 32.4604 266.562 32.4604C266.254 32.4604 265.99 32.7153 265.999 33.0229C265.99 33.335 266.254 33.5898 266.562 33.5942Z" fill="#113287"/>
<rect x="0.33252" y="1.10547" width="322.5" height="47.5" rx="3.75" stroke="#113287" stroke-width="0.5"/>
<path d="M23.1513 28.3311C23.708 28.3311 24.1508 28.8168 24.1508 29.4135C24.1508 30.0241 23.708 30.5098 23.1513 30.5098C22.582 30.5098 22.1392 30.0102 22.1392 29.4135C22.1392 28.8168 22.582 28.3311 23.1513 28.3311Z" fill="#113287"/>
<path d="M24.0985 21.6148V26.2777C24.0985 26.8605 23.6683 27.3046 23.1496 27.3046C22.6182 27.3046 22.2007 26.8466 22.2007 26.2777V21.6148C22.2007 21.0459 22.6182 20.5879 23.1496 20.5879C23.6683 20.5879 24.0985 21.0597 24.0985 21.6148Z" fill="#113287"/>
<path d="M19.6086 16.6613C20.38 15.1901 21.7837 14.4267 23.1495 14.4406C24.5154 14.4267 25.9065 15.1901 26.6905 16.6613L33.0263 28.5974C33.4057 29.3191 33.5828 30.0825 33.5828 30.832C33.5828 31.9978 33.1528 33.1081 32.432 33.927C31.7111 34.732 30.6615 35.2872 29.4854 35.2733H16.8137C15.625 35.2872 14.588 34.732 13.8671 33.927C13.1336 33.1081 12.7163 31.9978 12.7163 30.832C12.7163 30.0825 12.8934 29.3191 13.2728 28.5974H13.2601L19.6086 16.6613ZM23.1495 16.5086C22.3908 16.5086 21.6826 16.8972 21.2526 17.6883L14.9041 29.6244V29.6383C14.7018 30.027 14.6133 30.4156 14.6133 30.8181C14.6133 31.4287 14.8409 32.0394 15.2329 32.4836C15.625 32.9277 16.1561 33.2053 16.8137 33.2053H29.4854C30.143 33.2053 30.6615 32.9277 31.0662 32.4836C31.4582 32.0394 31.6858 31.4287 31.6858 30.8181C31.6858 30.4156 31.5973 30.0269 31.3823 29.6244L25.0465 17.6883C24.6165 16.8834 23.8957 16.5086 23.1495 16.5086Z" fill="#113287"/>
</svg>
