<svg width="324" height="49" viewBox="0 0 324 49" fill="none" xmlns="http://www.w3.org/2000/svg">
<path d="M48.9434 16.1738V15.3916H48.2578V16.2002C48.249 17.4131 47.4492 18.4502 46.2451 18.8721L46.623 19.4346C47.5679 19.0786 48.2798 18.3535 48.6138 17.4175C48.9521 18.2393 49.6289 18.8765 50.4902 19.1973L50.877 18.6611C49.73 18.27 48.9346 17.29 48.9434 16.1738ZM47.5195 21.2803C47.5151 22.2119 48.5127 22.7393 50.1387 22.7393C51.7603 22.7393 52.7578 22.2119 52.7578 21.2803C52.7578 20.3398 51.7603 19.7993 50.1387 19.8037C48.5127 19.7993 47.5151 20.3398 47.5195 21.2803ZM48.2051 21.2803C48.2007 20.6958 48.939 20.3486 50.1387 20.3486C51.334 20.3486 52.0723 20.6958 52.0723 21.2803C52.0723 21.8472 51.334 22.1899 50.1387 22.1855C48.939 22.1899 48.2007 21.8472 48.2051 21.2803ZM50.2969 17.1934H52.0371V19.5752H52.7314V14.9434H52.0371V16.6221H50.2969V17.1934Z" fill="#113287"/>
<path d="M60.0334 14.9521H59.3479V20.665H60.0334V14.9521ZM53.7668 17.4131C53.7624 18.5513 54.6457 19.3423 55.8146 19.3379C56.9836 19.3423 57.8581 18.5513 57.8625 17.4131C57.8581 16.2881 56.9836 15.5015 55.8146 15.4971C54.6457 15.5015 53.7624 16.2881 53.7668 17.4131ZM54.4436 17.4131C54.4348 16.6484 55.0236 16.1035 55.8146 16.1035C56.5925 16.1035 57.1857 16.6484 57.1857 17.4131C57.1857 18.1909 56.5925 18.7314 55.8146 18.7314C55.0236 18.7314 54.4348 18.1909 54.4436 17.4131ZM54.9885 22.5898H60.2795V22.0098H55.674V20.085H54.9885V22.5898Z" fill="#113287"/>
<path d="M63.4682 15.5146C62.2333 15.519 61.3544 16.2661 61.3588 17.3516C61.3544 18.4414 62.2333 19.1841 63.4682 19.1885C64.6942 19.1841 65.5644 18.4414 65.5688 17.3516C65.5644 16.2661 64.6942 15.519 63.4682 15.5146ZM60.9545 20.4629L61.0512 21.0518C62.4574 21.0518 64.3778 21.043 66.1664 20.709L66.1137 20.1992C64.3866 20.4541 62.3959 20.4673 60.9545 20.4629ZM62.0355 17.3516C62.0312 16.6265 62.6332 16.1211 63.4682 16.1211C64.2943 16.1211 64.8964 16.6265 64.892 17.3516C64.8964 18.0811 64.2943 18.582 63.4682 18.582C62.6332 18.582 62.0312 18.0811 62.0355 17.3516ZM66.6322 22.7744H67.3178V14.9434H66.6322V22.7744Z" fill="#113287"/>
<path d="M76.5252 14.9521H75.8309V16.4111H74.0071C74.073 16.1343 74.1082 15.8398 74.1082 15.5322H70.5486V16.1123H73.3567C73.2205 17.4658 72.0384 18.5249 70.1531 19.083L70.4432 19.6279C72.1175 19.1313 73.3216 18.2217 73.8357 16.9648H75.8309V18.0195H73.7566V18.5908H75.8309V19.6455H76.5252V14.9521ZM71.3572 21.2188C71.3528 22.1548 72.368 22.7217 73.9676 22.7217C75.5496 22.7217 76.5691 22.1548 76.5691 21.2188C76.5691 20.2871 75.5496 19.7246 73.9676 19.7246C72.368 19.7246 71.3528 20.2871 71.3572 21.2188ZM72.034 21.2188C72.0384 20.6299 72.7898 20.2739 73.9676 20.2783C75.1277 20.2739 75.8792 20.6299 75.8836 21.2188C75.8792 21.8076 75.1277 22.1636 73.9676 22.1592C72.7898 22.1636 72.0384 21.8076 72.034 21.2188Z" fill="#113287"/>
<path d="M84.5215 19.4258H77.3672V20.0059H80.584V22.7568H81.2607V20.0059H84.5215V19.4258ZM78.1758 16.9824C78.1802 18.0239 79.2832 18.6831 80.9268 18.6787C82.5659 18.6831 83.6777 18.0239 83.6777 16.9824C83.6777 15.9233 82.5659 15.2642 80.9268 15.2598C79.2832 15.2642 78.1802 15.9233 78.1758 16.9824ZM78.8877 16.9824C78.8789 16.2749 79.7095 15.8223 80.9268 15.8223C82.144 15.8223 82.9702 16.2749 82.9746 16.9824C82.9702 17.6768 82.144 18.125 80.9268 18.125C79.7095 18.125 78.8789 17.6768 78.8877 16.9824Z" fill="#113287"/>
<path d="M86.5764 15.5586C85.5305 15.563 84.7878 16.332 84.7922 17.457C84.7878 18.5688 85.5305 19.3467 86.5764 19.3379C87.5124 19.3467 88.2199 18.7095 88.3474 17.7646H89.1955V20.5684H89.8459V15.1016H89.1955V17.1846H88.3518C88.2375 16.209 87.5256 15.563 86.5764 15.5586ZM85.4162 17.457C85.4074 16.7012 85.904 16.1519 86.5764 16.1562C87.2399 16.1519 87.7365 16.7012 87.7453 17.457C87.7365 18.2173 87.2399 18.749 86.5764 18.749C85.904 18.749 85.4074 18.2173 85.4162 17.457ZM86.216 22.5898H91.5773V22.0098H86.9016V20.041H86.216V22.5898ZM90.6809 20.7969H91.34V14.9434H90.6809V20.7969Z" fill="#113287"/>
<path d="M96.6188 17.0439V15.6201H95.9332V17.0439C95.9244 18.5249 94.962 20.019 93.7975 20.5508L94.2369 21.1309C95.151 20.6694 95.92 19.6807 96.2804 18.5029C96.6539 19.6147 97.423 20.542 98.315 20.9727L98.7369 20.4277C97.5855 19.9048 96.6144 18.4722 96.6188 17.0439ZM99.5895 22.7744H100.284V14.9434H99.5895V22.7744Z" fill="#113287"/>
<path d="M104.879 15.4268H101.486V15.9805H104.193V17.0879H101.504V19.3906H102.057C103.639 19.3906 104.435 19.3643 105.406 19.2061L105.336 18.6348C104.417 18.8018 103.657 18.8325 102.189 18.8281V17.6152H104.879V15.4268ZM102.383 20.7354H106.953V22.7744H107.647V20.1729H102.383V20.7354ZM105.397 18.3008H106.953V19.751H107.647V14.9521H106.953V16.1123H105.397V16.6748H106.953V17.7295H105.397V18.3008Z" fill="#113287"/>
<path d="M116.784 14.9521H116.09V16.3848H114.244V15.4707H113.568V16.8594H111.388V15.4707H110.702V19.3994H114.244V18.6348H116.09V20.7354H116.784V14.9521ZM111.388 18.8281V17.4043H113.568V18.8281H111.388ZM111.731 22.5898H116.96V22.0098H112.425V20.1641H111.731V22.5898ZM114.244 18.0635V16.9648H116.09V18.0635H114.244Z" fill="#113287"/>
<path d="M123.7 14.9434H123.005V22.7568H123.7V18.8545H124.948V18.2744H123.7V14.9434ZM117.538 20.6738L117.653 21.2627C119.024 21.2627 120.87 21.2451 122.575 20.9551L122.531 20.4277C121.85 20.5244 121.111 20.5859 120.386 20.6211V19.7861C121.291 19.6807 121.893 19.1489 121.898 18.3711C121.893 17.4878 121.133 16.9165 120.043 16.9209C118.936 16.9165 118.189 17.4878 118.198 18.3711C118.189 19.1445 118.782 19.6807 119.692 19.7861V20.6475C118.918 20.6694 118.176 20.6738 117.538 20.6738ZM117.679 16.4639H122.39V15.9014H120.386V14.9609H119.692V15.9014H117.679V16.4639ZM118.839 18.3711C118.844 17.8262 119.318 17.457 120.043 17.457C120.755 17.457 121.234 17.8262 121.239 18.3711C121.234 18.9116 120.755 19.2676 120.043 19.2588C119.318 19.2676 118.844 18.9116 118.839 18.3711Z" fill="#113287"/>
<path d="M131.01 14.9434H130.325V22.7568H131.01V18.7051H132.276V18.125H131.01V14.9434ZM125.016 20.7266L125.403 21.2715C127.947 20.0146 128.984 17.9976 128.989 15.7871H125.377V16.3672H128.29C128.132 18.2173 127.033 19.7246 125.016 20.7266Z" fill="#113287"/>
<path d="M140.332 15.7432H134.962V16.3232H139.664V16.71C139.664 17.1099 139.66 17.5098 139.646 17.9229L134.751 18.125L134.848 18.6963L139.616 18.437C139.572 19.0435 139.488 19.6938 139.312 20.4453L140.007 20.5068C140.336 18.9248 140.336 17.8613 140.332 16.71V15.7432ZM134.101 21.6582H141.22V21.0781H134.101V21.6582Z" fill="#113287"/>
<path d="M144.224 17.3428V16.3232H146.087V15.752H141.684V16.3232H143.529V17.3428C143.525 18.6963 142.55 20.1729 141.429 20.709L141.842 21.2539C142.734 20.8057 143.525 19.8125 143.89 18.6655C144.255 19.7466 145.041 20.6475 145.955 21.0605L146.342 20.5156C145.191 20.019 144.228 18.6699 144.224 17.3428ZM147.177 22.7568H147.871V14.9434H147.177V22.7568Z" fill="#113287"/>
<path d="M152.746 15.3916C151.581 15.396 150.711 16.1387 150.715 17.1934C150.711 18.2612 151.581 18.9995 152.746 19.0039C153.915 18.9995 154.776 18.2612 154.776 17.1934C154.776 16.1387 153.915 15.396 152.746 15.3916ZM151.392 17.1934C151.388 16.4902 151.977 15.9717 152.746 15.9717C153.519 15.9717 154.104 16.4902 154.099 17.1934C154.104 17.9097 153.519 18.4326 152.746 18.4326C151.977 18.4326 151.388 17.9097 151.392 17.1934ZM151.401 22.5459H151.77C152.28 22.5503 153.023 22.5151 153.783 22.2646L153.677 21.7109C153.124 21.8955 152.522 21.9614 152.069 21.979V19.6982H151.401V22.5459ZM153.51 20.2695H157.457V19.7334H155.831V19.0391H155.154V19.7334H153.51V20.2695ZM154.029 21.6406C154.025 22.3174 154.618 22.7393 155.479 22.7393C156.336 22.7393 156.938 22.3174 156.947 21.6406C156.938 20.9639 156.336 20.5332 155.479 20.5332C154.618 20.5332 154.025 20.9639 154.029 21.6406ZM154.644 21.6406C154.644 21.2803 154.991 21.0386 155.479 21.0342C155.967 21.0386 156.314 21.2803 156.314 21.6406C156.314 22.0098 155.967 22.2427 155.479 22.2471C154.991 22.2427 154.644 22.0098 154.644 21.6406ZM155.989 18.8545H156.674V17.2812H157.852V16.71H156.674V14.9434H155.989V18.8545Z" fill="#113287"/>
<path d="M160.689 17.3428V16.3232H162.553V15.752H158.149V16.3232H159.995V17.3428C159.991 18.6963 159.015 20.1729 157.894 20.709L158.307 21.2539C159.2 20.8057 159.991 19.8125 160.355 18.6655C160.72 19.7466 161.507 20.6475 162.421 21.0605L162.807 20.5156C161.656 20.019 160.694 18.6699 160.689 17.3428ZM163.642 22.7568H164.337V14.9434H163.642V22.7568Z" fill="#113287"/>
<path d="M169.169 15.6553H165.557V19.25H169.169V15.6553ZM166.233 18.6963V16.2178H168.501V18.6963H166.233ZM166.444 22.5898H171.691V22.0098H167.121V20.1289H166.444V22.5898ZM170.646 20.6738H171.331V17.9053H172.509V17.3252H171.331V14.9434H170.646V20.6738Z" fill="#113287"/>
<path d="M173.834 21.4561H172.982L172.498 23.8467H173.149L173.834 21.4561Z" fill="#113287"/>
<path d="M178.542 16.499V15.4355H177.882V16.499C177.878 17.3691 177.25 18.3799 176.221 18.8281L176.599 19.3643C177.368 19.0303 177.931 18.3667 178.216 17.624C178.498 18.2964 179.038 18.8545 179.79 19.1445L180.15 18.6172C179.148 18.2393 178.546 17.3647 178.542 16.499ZM177.645 21.3506C177.636 22.2251 178.638 22.7393 180.264 22.7393C181.881 22.7393 182.888 22.2251 182.892 21.3506C182.888 20.4673 181.881 19.9487 180.264 19.9531C178.638 19.9487 177.636 20.4673 177.645 21.3506ZM178.331 21.3506C178.322 20.8101 179.065 20.4849 180.264 20.4805C181.451 20.4849 182.198 20.8101 182.207 21.3506C182.198 21.8823 181.451 22.2075 180.264 22.2031C179.065 22.2075 178.322 21.8823 178.331 21.3506ZM180.502 19.5312H181.152V17.624H182.189V19.7773H182.848V14.9521H182.189V17.0527H181.152V15.1016H180.502V19.5312Z" fill="#113287"/>
<path d="M189.64 14.9434H188.946V19.5576H189.64V17.5361H190.809V16.9473H189.64V14.9434ZM183.506 18.8545L183.585 19.373C184.96 19.373 186.837 19.3599 188.524 19.083L188.463 18.6172C187.777 18.7139 187.039 18.771 186.309 18.8062V18.3491C187.219 18.27 187.786 17.9053 187.795 17.3164C187.786 16.6748 187.07 16.3013 185.958 16.3057C184.846 16.3013 184.125 16.6748 184.13 17.3164C184.125 17.9097 184.705 18.2744 185.624 18.3491V18.8325C184.859 18.8545 184.13 18.8545 183.506 18.8545ZM183.699 16.042H188.225V15.541H186.309V14.873H185.624V15.541H183.699V16.042ZM184.552 20.4014H188.955V21.0166H184.569V22.6689H189.939V22.1768H185.255V21.4824H189.64V19.9092H184.552V20.4014ZM184.789 17.3164C184.784 16.9736 185.237 16.7671 185.958 16.7627C186.679 16.7671 187.136 16.9736 187.136 17.3164C187.136 17.668 186.679 17.8921 185.958 17.8965C185.237 17.8921 184.784 17.668 184.789 17.3164Z" fill="#113287"/>
<path d="M194.269 19.6367H193.583V22.6514H198.865V19.6367H198.171V20.5508H194.269V19.6367ZM192.678 19.083H199.797V18.5117H192.678V19.083ZM193.082 17.4043L193.346 17.958C194.55 17.7778 195.745 17.167 196.242 16.2881C196.738 17.1626 197.929 17.7778 199.138 17.958L199.393 17.4043C198.017 17.2285 196.593 16.3628 196.598 15.4004V15.0312H195.886V15.4004C195.886 16.3936 194.475 17.2153 193.082 17.4043ZM194.269 22.0977V21.0957H198.171V22.0977H194.269Z" fill="#113287"/>
<path d="M204.339 15.5498H200.446V16.1299H203.658C203.649 16.6265 203.632 17.29 203.443 18.2217L204.137 18.2744C204.335 17.2549 204.335 16.4771 204.339 15.9629V15.5498ZM199.962 19.0039L200.033 19.5752C201.426 19.5708 203.307 19.54 204.946 19.2588L204.902 18.749C204.089 18.8633 203.192 18.9248 202.327 18.96V17.2812H201.641V18.9819C201.039 18.9995 200.468 19.0039 199.962 19.0039ZM201.166 22.5898H206.387V22.0098H201.861V20.2959H201.166V22.5898ZM205.429 20.8232H206.132V18.0811H207.275V17.4922H206.132V14.9434H205.429V20.8232Z" fill="#113287"/>
<path d="M214.032 14.9434H213.364V22.7568H214.032V14.9434ZM207.431 18.3184C207.436 19.9795 208.095 21.0386 209.11 21.0342C210.072 21.0386 210.727 20.085 210.793 18.5645H211.799V22.3613H212.459V15.1104H211.799V17.9932H210.789C210.701 16.521 210.059 15.6069 209.11 15.6025C208.095 15.6069 207.436 16.6572 207.431 18.3184ZM208.082 18.3184C208.073 17.0483 208.477 16.2529 209.11 16.2529C209.747 16.2529 210.151 17.0483 210.147 18.3184C210.151 19.584 209.747 20.3838 209.11 20.375C208.477 20.3838 208.073 19.584 208.082 18.3184Z" fill="#113287"/>
<path d="M222.65 14.9346H221.965V22.7568H222.65V18.6084H223.793V18.0195H222.65V14.9346ZM216.709 20.709H217.052C217.518 20.709 218.106 20.6958 218.845 20.542L218.774 19.9619C218.256 20.0762 217.781 20.1113 217.395 20.1245V16.3408H218.695V15.7695H216.709V20.709ZM219.144 20.709H219.521C220.312 20.709 220.866 20.6914 221.552 20.5244L221.481 19.9443C220.928 20.085 220.44 20.1201 219.829 20.1289V16.3408H221.227V15.7695H219.144V20.709Z" fill="#113287"/>
<path d="M229.847 14.9434H229.161V22.7744H229.847V18.6348H231.156V18.0547H229.847V14.9434ZM224.108 16.2441H226.973V17.8965H224.125V20.8848H224.749C226.257 20.876 227.298 20.8188 228.529 20.5947L228.458 20.0234C227.276 20.2432 226.261 20.3003 224.811 20.2959V18.4678H227.658V15.6729H224.108V16.2441Z" fill="#113287"/>
<path d="M235.714 17.0439V15.6201H235.029V17.0439C235.02 18.5249 234.058 20.019 232.893 20.5508L233.333 21.1309C234.247 20.6694 235.016 19.6807 235.376 18.5029C235.75 19.6147 236.519 20.542 237.411 20.9727L237.833 20.4277C236.681 19.9048 235.71 18.4722 235.714 17.0439ZM238.685 22.7744H239.379V14.9434H238.685V22.7744Z" fill="#113287"/>
<path d="M243.974 15.4268H240.582V15.9805H243.289V17.0879H240.599V19.3906H241.153C242.735 19.3906 243.531 19.3643 244.502 19.2061L244.431 18.6348C243.513 18.8018 242.753 18.8325 241.285 18.8281V17.6152H243.974V15.4268ZM241.478 20.7354H246.049V22.7744H246.743V20.1729H241.478V20.7354ZM244.493 18.3008H246.049V19.751H246.743V14.9521H246.049V16.1123H244.493V16.6748H246.049V17.7295H244.493V18.3008Z" fill="#113287"/>
<path d="M248.077 19.6191C248.086 21.2803 248.534 22.6602 249.343 23.8379H250.011C249.417 22.9634 248.864 21.188 248.859 19.6191C248.864 18.0547 249.417 16.2749 250.011 15.4092H249.343C248.534 16.5825 248.086 17.9624 248.077 19.6191Z" fill="#113287"/>
<path d="M256.425 15.2686H251.116V15.8311H255.739C255.744 16.3364 255.735 16.9429 255.568 17.7822H250.211V18.3271H253.428V19.3467H251.064V19.9004H255.766V20.7266H251.072V22.6689H256.654V22.1064H251.767V21.2275H256.451V19.3467H254.105V18.3271H257.365V17.7822H256.262C256.425 16.9473 256.425 16.2749 256.425 15.7695V15.2686Z" fill="#113287"/>
<path d="M260.246 16.1562V15.9277H261.996V15.3564H257.786V15.9277H259.552V16.1475C259.552 17.1582 258.713 18.1338 257.575 18.5293L257.917 19.0742C258.831 18.7578 259.557 18.0723 259.904 17.2329C260.242 17.9932 260.932 18.5996 261.82 18.8896L262.163 18.3447C261.033 17.9844 260.242 17.0835 260.246 16.1562ZM258.946 19.9355H263.323V20.7178H258.963V22.6689H264.307V22.1152H259.649V21.2451H264.008V19.373H258.946V19.9355ZM261.749 17.2637H263.323V18.9863H264.008V14.9434H263.323V16.6924H261.749V17.2637Z" fill="#113287"/>
<path d="M268.577 15.4268H265.184V15.9805H267.891V17.0879H265.202V19.3906H265.755C267.337 19.3906 268.133 19.3643 269.104 19.2061L269.034 18.6348C268.115 18.8018 267.355 18.8325 265.887 18.8281V17.6152H268.577V15.4268ZM266.081 20.7354H270.651V22.7744H271.345V20.1729H266.081V20.7354ZM269.095 18.3008H270.651V19.751H271.345V14.9521H270.651V16.1123H269.095V16.6748H270.651V17.7295H269.095V18.3008Z" fill="#113287"/>
<path d="M273.479 21.4561H272.627L272.143 23.8467H272.794L273.479 21.4561Z" fill="#113287"/>
<path d="M276.93 15.5146H276.236V19.1797H276.86C278.042 19.1797 279.228 19.105 280.551 18.8281L280.472 18.2568C279.197 18.5205 278.046 18.5908 276.93 18.5908V15.5146ZM277.106 22.5898H282.247V22.0098H277.791V20.041H277.106V22.5898ZM281.28 20.5947H281.966V17.8701H283.144V17.2725H281.966V14.9521H281.28V20.5947Z" fill="#113287"/>
<path d="M285.963 17.0439V15.6201H285.278V17.0439C285.269 18.5249 284.307 20.019 283.142 20.5508L283.581 21.1309C284.496 20.6694 285.265 19.6807 285.625 18.5029C285.998 19.6147 286.767 20.542 287.66 20.9727L288.081 20.4277C286.93 19.9048 285.959 18.4722 285.963 17.0439ZM288.934 22.7744H289.628V14.9434H288.934V22.7744Z" fill="#113287"/>
<path d="M295.927 19.8564C294.318 19.8564 293.338 20.3838 293.334 21.2979C293.338 22.2207 294.318 22.748 295.927 22.7568C297.531 22.748 298.502 22.2207 298.502 21.2979C298.502 20.3838 297.531 19.8564 295.927 19.8564ZM292.657 19.0391H296.296V15.4355H295.61V16.6309H293.334V15.4355H292.657V19.0391ZM293.334 18.4766V17.1758H295.61V18.4766H293.334ZM294.028 21.2979C294.019 20.7397 294.749 20.4102 295.927 20.4014C297.109 20.4102 297.829 20.7397 297.834 21.2979C297.829 21.8604 297.109 22.1943 295.927 22.1943C294.749 22.1943 294.019 21.8604 294.028 21.2979ZM297.746 19.6455H298.431V17.501H299.609V16.9121H298.431V14.9434H297.746V19.6455Z" fill="#113287"/>
<path d="M306.92 16.3145H305.76V14.9434H305.074V19.9883H305.76V18.5469H306.92V17.9668H305.76V16.8857H306.92V16.3145ZM299.669 16.3848H304.327V15.8398H302.341V14.8818H301.655V15.8398H299.669V16.3848ZM300.117 18.1689C300.113 19.0127 300.864 19.5532 301.998 19.5488C303.119 19.5532 303.87 19.0127 303.879 18.1689C303.87 17.334 303.119 16.7935 301.998 16.7891C300.864 16.7935 300.113 17.334 300.117 18.1689ZM300.732 21.3945C300.728 22.2427 301.695 22.7393 303.29 22.7393C304.881 22.7393 305.848 22.2427 305.848 21.3945C305.848 20.542 304.881 20.0454 303.29 20.041C301.695 20.0454 300.728 20.542 300.732 21.3945ZM300.776 18.1689C300.772 17.6548 301.26 17.3164 301.998 17.3076C302.728 17.3164 303.22 17.6548 303.229 18.1689C303.22 18.6831 302.728 19.0127 301.998 19.0127C301.26 19.0127 300.772 18.6831 300.776 18.1689ZM301.418 21.3945C301.409 20.876 302.121 20.5859 303.29 20.5859C304.455 20.5859 305.167 20.876 305.162 21.3945C305.167 21.8999 304.455 22.2075 303.29 22.2031C302.121 22.2075 301.409 21.8999 301.418 21.3945Z" fill="#113287"/>
<path d="M53.3818 29.6611H46.2539V30.2412H53.3818V29.6611ZM47.1152 32.333C47.1108 33.2383 48.126 33.7393 49.8135 33.7393C51.4878 33.7393 52.4941 33.2383 52.5029 32.333C52.4941 31.4365 51.4878 30.9268 49.8135 30.9268C48.126 30.9268 47.1108 31.4365 47.1152 32.333ZM47.1592 28.9141H52.5469V28.3516H47.8359V26.8398H52.4941V26.2598H47.1592V28.9141ZM47.8184 32.333C47.8096 31.7881 48.561 31.4717 49.8135 31.4629C51.0527 31.4717 51.8042 31.7881 51.8086 32.333C51.8042 32.8823 51.0527 33.1943 49.8135 33.1943C48.561 33.1943 47.8096 32.8823 47.8184 32.333Z" fill="#113287"/>
<path d="M55.5334 30.6191C55.5246 28.9624 55.0764 27.5825 54.2678 26.4092H53.5998C54.1931 27.2749 54.7468 29.0547 54.7512 30.6191C54.7468 32.188 54.1931 33.9634 53.5998 34.8379H54.2678C55.0764 33.6602 55.5246 32.2803 55.5334 30.6191Z" fill="#113287"/>
<path d="M64.4859 25.9521H63.7916V27.3848H61.9459V26.4707H61.2691V27.8594H59.0895V26.4707H58.4039V30.3994H61.9459V29.6348H63.7916V31.7354H64.4859V25.9521ZM59.0895 29.8281V28.4043H61.2691V29.8281H59.0895ZM59.4322 33.5898H64.6617V33.0098H60.1266V31.1641H59.4322V33.5898ZM61.9459 29.0635V27.9648H63.7916V29.0635H61.9459Z" fill="#113287"/>
<path d="M71.4012 25.9434H70.7068V33.7568H71.4012V29.8545H72.6492V29.2744H71.4012V25.9434ZM65.24 31.6738L65.3543 32.2627C66.7254 32.2627 68.5711 32.2451 70.2762 31.9551L70.2322 31.4277C69.5511 31.5244 68.8128 31.5859 68.0877 31.6211V30.7861C68.993 30.6807 69.595 30.1489 69.5994 29.3711C69.595 28.4878 68.8348 27.9165 67.7449 27.9209C66.6375 27.9165 65.8904 28.4878 65.8992 29.3711C65.8904 30.1445 66.4837 30.6807 67.3934 30.7861V31.6475C66.6199 31.6694 65.8772 31.6738 65.24 31.6738ZM65.3807 27.4639H70.0916V26.9014H68.0877V25.9609H67.3934V26.9014H65.3807V27.4639ZM66.5408 29.3711C66.5452 28.8262 67.0198 28.457 67.7449 28.457C68.4568 28.457 68.9358 28.8262 68.9402 29.3711C68.9358 29.9116 68.4568 30.2676 67.7449 30.2588C67.0198 30.2676 66.5452 29.9116 66.5408 29.3711Z" fill="#113287"/>
<path d="M78.7119 25.9434H78.0264V33.7568H78.7119V29.7051H79.9775V29.125H78.7119V25.9434ZM72.7178 31.7266L73.1045 32.2715C75.6489 31.0146 76.686 28.9976 76.6904 26.7871H73.0781V27.3672H75.9917C75.8335 29.2173 74.7349 30.7246 72.7178 31.7266Z" fill="#113287"/>
<path d="M89.1146 29.0635H87.849V25.9434H87.1635V33.7568H87.849V29.6436H89.1146V29.0635ZM82.1273 31.7705H82.7514C83.9335 31.7705 85.1464 31.6914 86.4955 31.4189L86.4076 30.8301C85.12 31.1025 83.9555 31.1904 82.8129 31.1904V26.7168H82.1273V31.7705Z" fill="#113287"/>
<path d="M93.1383 26.6553H89.4732V31.876H90.0885C91.5694 31.8716 92.5934 31.8276 93.815 31.6211L93.7359 31.0498C92.567 31.252 91.5782 31.3047 90.1676 31.3047V29.415H92.9625V28.8525H90.1676V27.2354H93.1383V26.6553ZM94.4918 33.7568H95.1773V29.6787H96.4869V29.0898H95.1773V25.9434H94.4918V33.7568Z" fill="#113287"/>
<path d="M102.567 25.9434H101.882V29.8896H102.567V28.1582H103.745V27.5781H102.567V25.9434ZM96.8367 29.5117H97.4607C98.6341 29.5073 99.8074 29.4326 101.143 29.1602L101.055 28.5801C99.7854 28.8394 98.6385 28.9185 97.5311 28.9141V26.2949H96.8367V29.5117ZM97.5838 30.8213H101.882V31.6299H97.6014V33.6514H102.857V33.0889H98.2869V32.1748H102.567V30.2676H97.5838V30.8213Z" fill="#113287"/>
<path d="M109.516 26.6729V26.2246H108.804V26.6729C108.804 27.7935 107.376 28.7251 105.965 28.9229L106.246 29.4854C107.464 29.2832 108.663 28.6196 109.164 27.6528C109.665 28.6108 110.869 29.2832 112.082 29.4854L112.363 28.9229C110.953 28.7251 109.52 27.7759 109.516 26.6729ZM105.596 30.9268H108.804V33.7568H109.481V30.9268H112.715V30.3467H105.596V30.9268Z" fill="#113287"/>
<path d="M117.379 31.1904V30.7598H116.711V31.1904C116.702 31.9375 116.108 32.7725 115.12 33.1416L115.471 33.6514C116.218 33.3701 116.754 32.8252 117.036 32.1968C117.269 32.8516 117.752 33.4229 118.512 33.7129C119.233 33.4097 119.712 32.8076 119.954 32.1748C120.226 32.8296 120.771 33.3745 121.553 33.6514L121.896 33.1416C120.894 32.7944 120.301 31.9946 120.305 31.1904V30.7598H119.629V31.1904C119.633 31.7925 119.237 32.5747 118.49 33.0361C117.748 32.6143 117.374 31.8804 117.379 31.1904ZM114.918 28.2373C114.913 29.3096 115.779 30.0479 116.965 30.0479C118.152 30.0479 119.009 29.3096 119.013 28.2373C119.009 27.1475 118.152 26.4048 116.965 26.4092C115.779 26.4048 114.913 27.1475 114.918 28.2373ZM115.594 28.2373C115.586 27.5078 116.161 26.9893 116.965 26.998C117.761 26.9893 118.337 27.5078 118.337 28.2373C118.337 28.9624 117.761 29.4722 116.965 29.4766C116.161 29.4722 115.586 28.9624 115.594 28.2373ZM120.499 30.417H121.184V25.9521H120.499V30.417Z" fill="#113287"/>
<path d="M125.621 26.4531C123.991 26.4575 122.764 27.3101 122.764 28.5977C122.764 29.8984 123.991 30.751 125.621 30.7422C127.251 30.751 128.477 29.8984 128.477 28.5977C128.477 27.3101 127.251 26.4575 125.621 26.4531ZM122.061 32.7197H129.216V32.1396H122.061V32.7197ZM123.424 28.5977C123.415 27.6616 124.36 27.0112 125.621 27.0156C126.873 27.0112 127.809 27.6616 127.809 28.5977C127.809 29.5469 126.873 30.1797 125.621 30.1797C124.36 30.1797 123.415 29.5469 123.424 28.5977Z" fill="#113287"/>
<path d="M136.544 32.1396H129.39V32.7197H136.544V32.1396ZM130.233 30.3203H135.656V26.6289H130.233V30.3203ZM130.91 29.7754V27.2002H134.988V29.7754H130.91Z" fill="#113287"/>
<path d="M143.872 32.21H140.612V30.7334H143.152V30.1621H138.3V28.8877H142.967V26.5234H137.597V27.0947H142.29V28.3252H137.614V30.7334H139.935V32.21H136.718V32.79H143.872V32.21Z" fill="#113287"/>
<path d="M148.386 26.6816H147.587L146.004 27.7363V28.5361L147.551 27.5078H147.587V33.0449H148.386V26.6816Z" fill="#113287"/>
<path d="M155.829 25.9521H155.135V26.9805H152.885V27.5342H155.135V28.4746H152.885V29.0283H155.135V31.7354H155.829V25.9521ZM149.817 30.5752H150.406C151.553 30.5664 152.617 30.5137 153.887 30.2764L153.816 29.7051C152.625 29.9204 151.588 29.9819 150.512 29.9863V26.5146H149.817V30.5752ZM150.793 33.5898H156.04V33.0098H151.487V31.2432H150.793V33.5898Z" fill="#113287"/>
<path d="M163.377 25.9434H162.709V33.7568H163.377V25.9434ZM156.776 29.3184C156.781 30.9795 157.44 32.0386 158.455 32.0342C159.417 32.0386 160.072 31.085 160.138 29.5645H161.145V33.3613H161.804V26.1104H161.145V28.9932H160.134C160.046 27.521 159.404 26.6069 158.455 26.6025C157.44 26.6069 156.781 27.6572 156.776 29.3184ZM157.427 29.3184C157.418 28.0483 157.822 27.2529 158.455 27.2529C159.092 27.2529 159.497 28.0483 159.492 29.3184C159.497 30.584 159.092 31.3838 158.455 31.375C157.822 31.3838 157.418 30.584 157.427 29.3184Z" fill="#113287"/>
<path d="M171.925 25.9521H171.24V31.8057H171.925V29.1074H173.103V28.5273H171.925V25.9521ZM165.834 27.4727H170.493V26.9102H168.506V25.9521H167.821V26.9102H165.834V27.4727ZM166.283 29.3623C166.278 30.2412 167.034 30.8081 168.163 30.8037C169.28 30.8081 170.036 30.2412 170.044 29.3623C170.036 28.4746 169.28 27.9033 168.163 27.9033C167.034 27.9033 166.278 28.4746 166.283 29.3623ZM166.942 29.3623C166.937 28.8042 167.425 28.4438 168.163 28.4482C168.893 28.4438 169.385 28.8042 169.394 29.3623C169.385 29.9116 168.893 30.2676 168.163 30.2588C167.425 30.2676 166.937 29.9116 166.942 29.3623ZM167.038 33.5898H172.286V33.0098H167.715V31.3398H167.038V33.5898Z" fill="#113287"/>
<path d="M181.431 25.9521H180.737V28.1494H178.891V26.4707H178.215V27.8594H176.035V26.4707H175.349V30.3994H178.891V28.7295H180.737V31.7354H181.431V25.9521ZM176.035 29.8281V28.4043H178.215V29.8281H176.035ZM176.378 33.5898H181.607V33.0098H177.072V31.1641H176.378V33.5898Z" fill="#113287"/>
<path d="M190.569 25.9434H189.874V27.9824H188.301V28.5537H189.874V30.6016H190.569V25.9434ZM184.126 29.9775L184.487 30.5312C185.418 30.1753 186.143 29.4458 186.477 28.5317C186.816 29.3359 187.497 29.9951 188.371 30.3115L188.732 29.7578C187.589 29.3667 186.807 28.3955 186.807 27.376V27.0947H188.556V26.5146H184.346V27.0947H186.113V27.3848C186.113 28.501 185.286 29.5601 184.126 29.9775ZM185.357 32.2979C185.352 33.2207 186.35 33.748 187.976 33.7568C189.597 33.748 190.595 33.2207 190.595 32.2979C190.595 31.3794 189.597 30.8433 187.976 30.8477C186.35 30.8433 185.352 31.3794 185.357 32.2979ZM186.042 32.2979C186.038 31.7266 186.776 31.3838 187.976 31.3838C189.171 31.3838 189.909 31.7266 189.909 32.2979C189.909 32.8647 189.171 33.2075 187.976 33.2031C186.776 33.2075 186.038 32.8647 186.042 32.2979Z" fill="#113287"/>
<path d="M197.879 25.9434H197.185V33.7568H197.879V25.9434ZM191.516 31.7266L191.894 32.2891C194.513 31.0322 195.559 29.0415 195.568 26.7959H191.876V27.3584H194.865C194.711 29.2261 193.63 30.7246 191.516 31.7266Z" fill="#113287"/>
<path d="M201.463 27.3848V27.0508H203.212V26.4883H199.003V27.0508H200.769V27.3936C200.769 28.4966 199.934 29.5381 198.783 29.9512L199.143 30.4961C200.07 30.1533 200.796 29.4326 201.134 28.5361C201.468 29.3403 202.149 29.9951 203.028 30.3115L203.388 29.7666C202.246 29.3711 201.463 28.3999 201.463 27.3848ZM199.969 31.6123H204.531V33.7568H205.225V31.041H199.969V31.6123ZM202.966 28.5713H204.531V30.6279H205.225V25.9434H204.531V27.9912H202.966V28.5713Z" fill="#113287"/>
<path d="M212.527 25.9521H211.842V31.665H212.527V25.9521ZM206.261 28.4131C206.256 29.5513 207.139 30.3423 208.308 30.3379C209.477 30.3423 210.352 29.5513 210.356 28.4131C210.352 27.2881 209.477 26.5015 208.308 26.4971C207.139 26.5015 206.256 27.2881 206.261 28.4131ZM206.937 28.4131C206.929 27.6484 207.517 27.1035 208.308 27.1035C209.086 27.1035 209.679 27.6484 209.679 28.4131C209.679 29.1909 209.086 29.7314 208.308 29.7314C207.517 29.7314 206.929 29.1909 206.937 28.4131ZM207.482 33.5898H212.773V33.0098H208.168V31.085H207.482V33.5898Z" fill="#113287"/>
<path d="M217.99 28.0439V26.6201H217.305V28.0439C217.296 29.5249 216.334 31.019 215.169 31.5508L215.609 32.1309C216.523 31.6694 217.292 30.6807 217.652 29.5029C218.026 30.6147 218.795 31.542 219.687 31.9727L220.109 31.4277C218.957 30.9048 217.986 29.4722 217.99 28.0439ZM220.961 33.7744H221.655V25.9434H220.961V33.7744Z" fill="#113287"/>
<path d="M226.25 26.4268H222.858V26.9805H225.565V28.0879H222.875V30.3906H223.429C225.011 30.3906 225.807 30.3643 226.778 30.2061L226.707 29.6348C225.789 29.8018 225.029 29.8325 223.561 29.8281V28.6152H226.25V26.4268ZM223.754 31.7354H228.325V33.7744H229.019V31.1729H223.754V31.7354ZM226.769 29.3008H228.325V30.751H229.019V25.9521H228.325V27.1123H226.769V27.6748H228.325V28.7295H226.769V29.3008Z" fill="#113287"/>
<path d="M233.904 26.4531H230.362V27.0244H233.17C233.021 28.3516 231.825 29.3887 229.958 29.916L230.248 30.4609C232.498 29.8193 233.9 28.4131 233.904 26.4531ZM231.276 33.6514H236.347V30.7422H231.276V33.6514ZM231.944 33.0889V31.2959H235.662V33.0889H231.944ZM233.921 28.5449H235.653V30.4082H236.347V25.9521H235.653V27.9648H233.921V28.5449Z" fill="#113287"/>
<path d="M239.817 28.0439V26.6201H239.14V28.0439C239.132 29.4722 238.226 30.9707 237.084 31.5332L237.523 32.0869C238.402 31.6167 239.14 30.6279 239.488 29.4766C239.835 30.562 240.555 31.4893 241.417 31.9375L241.839 31.3838C240.727 30.8389 239.817 29.4194 239.817 28.0439ZM242.559 33.7568H243.245V29.7139H244.554V29.1162H243.245V25.9434H242.559V33.7568Z" fill="#113287"/>
<path d="M251.672 29.5732H244.518V30.1182H251.672V29.5732ZM245.379 31.2607H250.09V31.9287H245.388V33.6514H251.03V33.1504H246.082V32.4033H250.775V30.7422H245.379V31.2607ZM245.423 26.6816H250.055V27.3232H245.449V28.9844H250.89V28.4834H246.135V27.7979H250.749V26.1807H245.423V26.6816Z" fill="#113287"/>
<path d="M260.132 25.9521H259.429V30.1973H257.706V30.7598H259.429V31.8584H260.132V25.9521ZM253.611 29.0459L253.707 29.6172C254.34 29.6172 255.074 29.6084 255.843 29.5732V31.3398H256.529V29.5381C257.276 29.4897 258.04 29.415 258.77 29.292L258.717 28.791C258.427 28.8306 258.128 28.8657 257.825 28.8921C257.992 27.8945 257.992 27.165 257.988 26.7344V26.4268H254.314V26.9893H257.302C257.298 27.4375 257.271 28.0879 257.118 28.9492C255.878 29.0327 254.617 29.0415 253.611 29.0459ZM254.78 33.5898H260.326V33.0098H255.474V31.1992H254.78V33.5898Z" fill="#113287"/>
<path d="M264.894 27.2969H263.286V26.1807H262.6V27.2969H260.974V27.8594H264.894V27.2969ZM261.255 30.1621C261.255 31.2124 261.963 31.9507 262.934 31.9551C263.919 31.9507 264.622 31.2124 264.63 30.1621C264.622 29.125 263.919 28.3911 262.934 28.3867C261.963 28.3911 261.255 29.125 261.255 30.1621ZM261.871 30.1621C261.871 29.4766 262.315 28.9756 262.934 28.9668C263.558 28.9756 264.015 29.4766 264.015 30.1621C264.015 30.8564 263.558 31.353 262.934 31.3486C262.315 31.353 261.871 30.8564 261.871 30.1621ZM265.298 33.3701H265.949V29.8105H266.986V33.7568H267.645V25.9434H266.986V29.2393H265.949V26.1367H265.298V33.3701Z" fill="#113287"/>
<path d="M274.631 29.7051H269.92V27.2441H274.552V26.6729H269.234V30.2764H274.631V29.7051ZM268.32 32.6934H275.474V32.1133H268.32V32.6934Z" fill="#113287"/>
<path d="M282.1 25.9521H281.414V30.2412H282.1V25.9521ZM276.044 26.9014H278.927V27.8945H276.062V30.083H276.694C278.136 30.0742 279.204 30.0347 280.518 29.8281L280.438 29.2568C279.168 29.4634 278.127 29.4941 276.729 29.5029V28.4395H279.612V26.3301H276.044V26.9014ZM277.02 33.6514H282.1V30.6367H281.414V31.5684H277.714V30.6367H277.02V33.6514ZM277.714 33.0889V32.1221H281.414V33.0889H277.714Z" fill="#113287"/>
<path d="M289.419 25.9434H288.734V33.7568H289.419V25.9434ZM283.487 31.7441H284.119C285.372 31.7441 286.607 31.6475 287.995 31.3574L287.899 30.7686C286.589 31.0454 285.359 31.1377 284.163 31.1465V26.7168H283.487V31.7441Z" fill="#113287"/>
<path d="M296.352 25.9434H295.666V33.7744H296.352V29.6172H297.662V29.0371H296.352V25.9434ZM290.648 31.8145H291.263C292.748 31.8145 293.772 31.7705 294.998 31.5508L294.911 30.9531C293.746 31.1685 292.748 31.23 291.333 31.2344V27.2793H294.295V26.708H290.648V31.8145Z" fill="#113287"/>
<path d="M298.46 33.0977C298.772 33.0933 299.026 32.8384 299.022 32.5264C299.026 32.2188 298.772 31.9639 298.46 31.9639C298.152 31.9639 297.888 32.2188 297.897 32.5264C297.888 32.8384 298.152 33.0933 298.46 33.0977Z" fill="#113287"/>
<rect x="0.33252" y="1.10547" width="322.5" height="47.5" rx="3.75" stroke="#113287" stroke-width="0.5"/>
<path d="M23.1513 28.3311C23.708 28.3311 24.1508 28.8168 24.1508 29.4135C24.1508 30.0241 23.708 30.5098 23.1513 30.5098C22.582 30.5098 22.1392 30.0102 22.1392 29.4135C22.1392 28.8168 22.582 28.3311 23.1513 28.3311Z" fill="#113287"/>
<path d="M24.0985 21.6148V26.2777C24.0985 26.8605 23.6683 27.3046 23.1496 27.3046C22.6182 27.3046 22.2007 26.8466 22.2007 26.2777V21.6148C22.2007 21.0459 22.6182 20.5879 23.1496 20.5879C23.6683 20.5879 24.0985 21.0597 24.0985 21.6148Z" fill="#113287"/>
<path d="M19.6086 16.6613C20.38 15.1901 21.7837 14.4267 23.1495 14.4406C24.5154 14.4267 25.9065 15.1901 26.6905 16.6613L33.0263 28.5974C33.4057 29.3191 33.5828 30.0825 33.5828 30.832C33.5828 31.9978 33.1528 33.1081 32.432 33.927C31.7111 34.732 30.6615 35.2872 29.4854 35.2733H16.8137C15.625 35.2872 14.588 34.732 13.8671 33.927C13.1336 33.1081 12.7163 31.9978 12.7163 30.832C12.7163 30.0825 12.8934 29.3191 13.2728 28.5974H13.2601L19.6086 16.6613ZM23.1495 16.5086C22.3908 16.5086 21.6826 16.8972 21.2526 17.6883L14.9041 29.6244V29.6383C14.7018 30.027 14.6133 30.4156 14.6133 30.8181C14.6133 31.4287 14.8409 32.0394 15.2329 32.4836C15.625 32.9277 16.1561 33.2053 16.8137 33.2053H29.4854C30.143 33.2053 30.6615 32.9277 31.0662 32.4836C31.4582 32.0394 31.6858 31.4287 31.6858 30.8181C31.6858 30.4156 31.5973 30.0269 31.3823 29.6244L25.0465 17.6883C24.6165 16.8834 23.8957 16.5086 23.1495 16.5086Z" fill="#113287"/>
</svg>
