<svg width="324" height="49" viewBox="0 0 324 49" fill="none" xmlns="http://www.w3.org/2000/svg">
<path d="M49.7581 16.6699V15.8877H49.0725V16.6963C49.0637 17.9092 48.2639 18.9463 47.0598 19.3682L47.4377 19.9307C48.3826 19.5747 49.0945 18.8496 49.4285 17.9136C49.7668 18.7354 50.4436 19.3726 51.3049 19.6934L51.6917 19.1572C50.5447 18.7661 49.7493 17.7861 49.7581 16.6699ZM48.3342 21.7764C48.3298 22.708 49.3274 23.2354 50.9534 23.2354C52.575 23.2354 53.5725 22.708 53.5725 21.7764C53.5725 20.8359 52.575 20.2954 50.9534 20.2998C49.3274 20.2954 48.3298 20.8359 48.3342 21.7764ZM49.0198 21.7764C49.0154 21.1919 49.7537 20.8447 50.9534 20.8447C52.1487 20.8447 52.887 21.1919 52.887 21.7764C52.887 22.3433 52.1487 22.686 50.9534 22.6816C49.7537 22.686 49.0154 22.3433 49.0198 21.7764ZM51.1116 17.6895H52.8518V20.0713H53.5461V15.4395H52.8518V17.1182H51.1116V17.6895Z" fill="#113287"/>
<path d="M57.0424 16.9248V16.5908H58.8002V16.0195H54.5815V16.5908H56.3657V16.9248C56.3569 18.0542 55.5395 19.0605 54.3706 19.4561L54.7221 20.0098C55.6582 19.6714 56.3789 18.9727 56.7128 18.0762C57.0512 18.8628 57.7324 19.4824 58.6333 19.7812L58.9584 19.2363C57.8115 18.8628 57.0468 17.9487 57.0424 16.9248ZM55.4077 21.7939C55.4121 22.708 56.392 23.2354 58.0004 23.2354C59.6044 23.2354 60.5756 22.708 60.5756 21.7939C60.5756 20.8931 59.6044 20.3701 58.0004 20.3701C56.392 20.3701 55.4121 20.8931 55.4077 21.7939ZM56.102 21.7939C56.0932 21.249 56.8227 20.9238 58.0004 20.9238C59.1826 20.9238 59.9033 21.249 59.9077 21.7939C59.9033 22.3564 59.1826 22.686 58.0004 22.6816C56.8227 22.686 56.0932 22.3564 56.102 21.7939ZM59.8198 20.1592H60.5053V18.0146H61.6831V17.4346H60.5053V15.4395H59.8198V20.1592Z" fill="#113287"/>
<path d="M68.1852 15.4395H67.4909V23.2529H68.1852V15.4395ZM61.8219 21.2227L62.1999 21.7852C64.819 20.5283 65.8649 18.5376 65.8737 16.292H62.1823V16.8545H65.1706C65.0167 18.7222 63.9357 20.2207 61.8219 21.2227Z" fill="#113287"/>
<path d="M75.1004 15.4395H74.4149V23.2529H75.1004V19.2012H76.3661V18.6211H75.1004V15.4395ZM69.1063 21.2227L69.493 21.7676C72.0375 20.5107 73.0746 18.4937 73.079 16.2832H69.4667V16.8633H72.3802C72.222 18.7134 71.1234 20.2207 69.1063 21.2227Z" fill="#113287"/>
<path d="M82.8489 18.8145H79.509V16.749H82.8137V16.1865H78.8323V19.3857H80.4495V20.9502C79.6716 20.9722 78.9158 20.9766 78.2346 20.9766L78.3313 21.5566C79.8254 21.561 81.7151 21.5259 83.4465 21.2754L83.3938 20.7568C82.6687 20.8403 81.8997 20.8931 81.135 20.9238V19.3857H82.8489V18.8145ZM83.9124 23.2705H84.5979V15.4395H83.9124V23.2705Z" fill="#113287"/>
<path d="M89.4741 16.125H85.8881V19.7725H89.4741V19.0693H91.3022V21.1523H91.9965V15.4482H91.3022V16.8193H89.4741V16.125ZM86.5737 19.2188V16.6963H88.7973V19.2188H86.5737ZM86.9428 23.0859H92.1723V22.5059H87.6372V20.6426H86.9428V23.0859ZM89.4741 18.498V17.3994H91.3022V18.498H89.4741Z" fill="#113287"/>
<path d="M96.9413 17.8477V17.4609H98.409V16.8896H96.9501V15.7295H96.2909V16.8896H94.8055V17.4609H96.2909V17.8477C96.2865 19.1396 95.6581 20.5107 94.5946 21.126L95.0077 21.6533C95.7899 21.1831 96.348 20.3042 96.6249 19.3022C96.9105 20.2427 97.473 21.0513 98.2508 21.4775L98.6463 20.959C97.5829 20.3921 96.9457 19.1045 96.9413 17.8477ZM97.8729 19.1133H99.1034V22.8486H99.7538V15.6328H99.1034V18.5244H97.8729V19.1133ZM100.677 23.2529H101.336V15.4395H100.677V23.2529Z" fill="#113287"/>
<path d="M108.163 15.9492H102.881V16.5205H107.478V16.6348C107.478 17.3643 107.478 18.1816 107.24 19.3066H101.984V19.8779H105.184V23.2705H105.878V19.8779H109.104V19.3066H107.939C108.163 18.186 108.163 17.373 108.163 16.6348V15.9492Z" fill="#113287"/>
<path d="M115.36 15.4395H114.674V23.2529H115.36V19.2012H116.625V18.6211H115.36V15.4395ZM109.365 21.2227L109.752 21.7676C112.297 20.5107 113.334 18.4937 113.338 16.2832H109.726V16.8633H112.639C112.481 18.7134 111.383 20.2207 109.365 21.2227Z" fill="#113287"/>
<path d="M122.423 16.2568H118.881V16.8281H121.741C121.706 17.3115 121.627 17.7729 121.482 18.2124L118.485 18.4102L118.608 19.0078L121.271 18.7573C120.783 19.812 119.896 20.7129 118.459 21.4336L118.854 21.9609C121.614 20.5767 122.414 18.5112 122.423 16.2568ZM122.396 19.1572H124.233V23.2529H124.919V15.4395H124.233V18.5859H122.396V19.1572Z" fill="#113287"/>
<path d="M128.573 17.8389V16.8193H130.436V16.248H126.033V16.8193H127.879V17.8389C127.874 19.1924 126.899 20.6689 125.778 21.2051L126.191 21.75C127.083 21.3018 127.874 20.3086 128.239 19.1616C128.604 20.2427 129.39 21.1436 130.305 21.5566L130.691 21.0117C129.54 20.5151 128.577 19.166 128.573 17.8389ZM131.526 23.2529H132.221V15.4395H131.526V23.2529Z" fill="#113287"/>
<path d="M137.062 16.125H133.476V19.7725H137.062V19.0693H138.89V21.1523H139.584V15.4482H138.89V16.8193H137.062V16.125ZM134.161 19.2188V16.6963H136.385V19.2188H134.161ZM134.53 23.0859H139.76V22.5059H135.225V20.6426H134.53V23.0859ZM137.062 18.498V17.3994H138.89V18.498H137.062Z" fill="#113287"/>
<path d="M143.186 17.54V16.1162H142.483V17.54C142.478 18.9814 141.573 20.4844 140.426 21.0469L140.874 21.6006C141.762 21.1304 142.496 20.1284 142.843 18.9595C143.19 20.0713 143.924 21.0029 144.812 21.46L145.225 20.8975C144.091 20.3789 143.181 18.9551 143.186 17.54ZM144.372 18.6738H146.227V23.2705H146.912V15.4395H146.227V18.1113H144.372V18.6738Z" fill="#113287"/>
<path d="M155.68 15.4395H154.995V21.2051H155.68V18.4014H156.858V17.8213H155.68V15.4395ZM149.721 17.918C149.717 19.0474 150.605 19.8428 151.769 19.8428C152.943 19.8428 153.817 19.0474 153.826 17.918C153.817 16.7842 152.943 15.9976 151.769 15.9932C150.605 15.9976 149.717 16.7842 149.721 17.918ZM150.398 17.918C150.394 17.1445 150.996 16.5996 151.769 16.5996C152.556 16.5996 153.145 17.1445 153.149 17.918C153.145 18.687 152.556 19.2363 151.769 19.2363C150.996 19.2363 150.394 18.687 150.398 17.918ZM150.794 23.0859H156.041V22.5059H151.47V20.6074H150.794V23.0859Z" fill="#113287"/>
<path d="M163.079 15.9492H157.797V16.5205H162.393V16.6348C162.393 17.3643 162.393 18.1816 162.156 19.3066H156.9V19.8779H160.099V23.2705H160.794V19.8779H164.019V19.3066H162.855C163.079 18.186 163.079 17.373 163.079 16.6348V15.9492Z" fill="#113287"/>
<path d="M166.786 16.0107C165.551 16.0151 164.672 16.7622 164.677 17.8477C164.672 18.9375 165.551 19.6802 166.786 19.6846C168.012 19.6802 168.882 18.9375 168.887 17.8477C168.882 16.7622 168.012 16.0151 166.786 16.0107ZM164.273 20.959L164.369 21.5479C165.775 21.5479 167.696 21.5391 169.484 21.2051L169.432 20.6953C167.705 20.9502 165.714 20.9634 164.273 20.959ZM165.354 17.8477C165.349 17.1226 165.951 16.6172 166.786 16.6172C167.612 16.6172 168.214 17.1226 168.21 17.8477C168.214 18.5771 167.612 19.0781 166.786 19.0781C165.951 19.0781 165.349 18.5771 165.354 17.8477ZM169.95 23.2705H170.636V15.4395H169.95V23.2705Z" fill="#113287"/>
<path d="M179.817 15.4395H179.131V19.4385H179.817V15.4395ZM173.498 19.0254L173.752 19.6055C176.064 19.0649 177.475 17.8213 177.479 15.8262H173.893V16.3975H176.723C176.6 17.6543 175.457 18.5903 173.498 19.0254ZM174.737 20.3613H179.131V21.1699H174.754V23.1826H180.098V22.6289H175.44V21.6973H179.817V19.8076H174.737V20.3613Z" fill="#113287"/>
<path d="M187.136 15.4395H186.442V23.2705H187.136V15.4395ZM180.984 18.7705C180.988 20.436 181.815 21.4907 182.979 21.4863C184.139 21.4907 184.979 20.436 184.974 18.7705C184.979 17.1094 184.139 16.0503 182.979 16.0459C181.815 16.0503 180.988 17.1094 180.984 18.7705ZM181.652 18.7705C181.652 17.5005 182.197 16.6655 182.979 16.6611C183.766 16.6655 184.306 17.5005 184.306 18.7705C184.306 20.0405 183.766 20.8755 182.979 20.8711C182.197 20.8755 181.652 20.0405 181.652 18.7705Z" fill="#113287"/>
<path d="M194.333 19.1045H189.631V16.6436H194.254V16.0811H188.936V19.667H191.239V21.6885H188.022V22.2686H195.177V21.6885H191.916V19.667H194.333V19.1045Z" fill="#113287"/>
<path d="M203.611 15.4395H202.925V19.4385H203.611V15.4395ZM197.291 19.0254L197.546 19.6055C199.858 19.0649 201.268 17.8213 201.273 15.8262H197.687V16.3975H200.517C200.394 17.6543 199.251 18.5903 197.291 19.0254ZM198.531 20.3613H202.925V21.1699H198.548V23.1826H203.892V22.6289H199.234V21.6973H203.611V19.8076H198.531V20.3613Z" fill="#113287"/>
<path d="M206.588 16.0459C205.433 16.0503 204.624 17.1094 204.628 18.7705C204.624 20.436 205.433 21.4907 206.588 21.4863C207.678 21.4907 208.46 20.5327 208.535 18.999H210.28V23.2705H210.965V15.4395H210.28V18.4277H208.526C208.421 16.9644 207.652 16.0503 206.588 16.0459ZM205.288 18.7705C205.292 17.5005 205.819 16.6655 206.588 16.6611C207.353 16.6655 207.889 17.5005 207.889 18.7705C207.889 20.0405 207.353 20.8755 206.588 20.8711C205.819 20.8755 205.292 20.0405 205.288 18.7705Z" fill="#113287"/>
<path d="M218.294 15.4395H217.599V17.6455H216V18.2256H217.599V19.3066H216V19.8867H217.599V23.2529H218.294V15.4395ZM211.763 21.2139L212.22 21.7412C213.082 21.2578 213.846 20.2383 214.194 19.0605C214.554 20.1328 215.301 21.0996 216.158 21.5479L216.571 21.0205C215.459 20.458 214.527 18.9858 214.523 17.7598V16.8193H216.307V16.248H212.045V16.8193H213.829V17.7598C213.824 19.1528 212.88 20.6558 211.763 21.2139Z" fill="#113287"/>
<path d="M228.107 21.6885H224.856V19.8955H224.179V21.6885H220.953V22.2686H228.107V21.6885ZM221.349 19.6318L221.621 20.1768C222.878 19.957 224.025 19.3242 224.517 18.3442C225.018 19.3242 226.165 19.957 227.413 20.1768L227.677 19.6318C226.178 19.3901 224.873 18.4805 224.873 17.2588H227.422V16.6875H224.856V15.6064H224.179V16.6875H221.621V17.2588H224.17C224.161 18.4805 222.856 19.3901 221.349 19.6318Z" fill="#113287"/>
<path d="M234.759 15.4395H234.065V17.3994H232.483V17.9795H234.065V20.0186H234.759V15.4395ZM228.317 19.3945L228.677 19.9395C229.604 19.6011 230.325 18.8848 230.663 17.9795C231.002 18.7881 231.683 19.4429 232.562 19.7637L232.922 19.2188C231.78 18.8101 230.997 17.8345 230.997 16.8281V16.5205H232.746V15.9492H228.536V16.5205H230.303V16.8281C230.303 17.9399 229.468 18.9858 228.317 19.3945ZM229.653 23.1475H234.759V20.4053H229.653V23.1475ZM230.338 22.585V20.959H234.082V22.585H230.338Z" fill="#113287"/>
<path d="M242.052 15.4395H241.358V23.2705H242.052V15.4395ZM235.9 18.7705C235.904 20.436 236.73 21.4907 237.895 21.4863C239.055 21.4907 239.894 20.436 239.89 18.7705C239.894 17.1094 239.055 16.0503 237.895 16.0459C236.73 16.0503 235.904 17.1094 235.9 18.7705ZM236.568 18.7705C236.568 17.5005 237.113 16.6655 237.895 16.6611C238.682 16.6655 239.222 17.5005 239.222 18.7705C239.222 20.0405 238.682 20.8755 237.895 20.8711C237.113 20.8755 236.568 20.0405 236.568 18.7705Z" fill="#113287"/>
<path d="M248.693 16.0371H245.081V19.3857H248.693V16.0371ZM245.758 21.7852C245.762 22.708 246.755 23.2441 248.35 23.2529C249.946 23.2441 250.926 22.708 250.926 21.7852C250.926 20.8711 249.946 20.3262 248.35 20.3262C246.755 20.3262 245.762 20.8711 245.758 21.7852ZM245.758 18.832V16.5996H248.025V18.832H245.758ZM246.452 21.7852C246.443 21.2227 247.173 20.8887 248.35 20.8887C249.533 20.8887 250.253 21.2227 250.258 21.7852C250.253 22.3564 249.533 22.686 248.35 22.6904C247.173 22.686 246.443 22.3564 246.452 21.7852ZM250.17 20.0625H250.855V17.9707H252.033V17.3994H250.855V15.4395H250.17V20.0625Z" fill="#113287"/>
<path d="M256.022 16.0283H252.409V19.4824H256.022V16.0283ZM253.068 21.0469H257.498V23.2705H258.184V20.4932H253.068V21.0469ZM253.086 18.9199V16.582H255.354V18.9199H253.086ZM257.498 20.0713H258.184V18.0586H259.361V17.4785H258.184V15.4395H257.498V20.0713Z" fill="#113287"/>
<path d="M266.101 15.4395H265.433V23.2529H266.101V15.4395ZM259.5 18.8145C259.505 20.4756 260.164 21.5347 261.179 21.5303C262.141 21.5347 262.796 20.5811 262.862 19.0605H263.868V22.8574H264.528V15.6064H263.868V18.4893H262.858C262.77 17.0171 262.128 16.103 261.179 16.0986C260.164 16.103 259.505 17.1533 259.5 18.8145ZM260.151 18.8145C260.142 17.5444 260.546 16.749 261.179 16.749C261.816 16.749 262.22 17.5444 262.216 18.8145C262.22 20.0801 261.816 20.8799 261.179 20.8711C260.546 20.8799 260.142 20.0801 260.151 18.8145Z" fill="#113287"/>
<path d="M274.588 15.4395H273.902V23.2529H274.588V19.2012H275.853V18.6211H274.588V15.4395ZM268.593 21.2227L268.98 21.7676C271.525 20.5107 272.562 18.4937 272.566 16.2832H268.954V16.8633H271.867C271.709 18.7134 270.611 20.2207 268.593 21.2227Z" fill="#113287"/>
<path d="M278.198 15.9316H276.115V16.5029H277.535C277.429 17.606 276.941 18.3354 275.922 18.9814L276.388 19.4297C277.684 18.5376 278.194 17.4741 278.198 15.9316ZM277.029 23.1475H281.977V20.0713H281.292V21.0469H277.715V20.0713H277.029V23.1475ZM277.715 22.5938V21.6006H281.292V22.5938H277.715ZM278.154 19.4033L278.664 19.7988C279.952 18.7661 280.395 17.5005 280.395 15.9316H278.506V16.5029H279.736C279.644 17.6982 279.191 18.6079 278.154 19.4033ZM281.292 19.6846H281.977V17.8125H283.155V17.2324H281.977V15.4395H281.292V19.6846Z" fill="#113287"/>
<path d="M289.886 15.4395H289.227V23.2529H289.886V15.4395ZM283.206 21.0645L283.61 21.5654C284.7 20.9238 285.456 20.1196 285.926 19.21H287.583V22.8574H288.242V15.6504H287.583V18.6475H286.181C286.449 17.9531 286.572 17.2104 286.572 16.4414H283.54V17.0127H285.887C285.755 18.6475 284.902 20.0581 283.206 21.0645Z" fill="#113287"/>
<path d="M298.97 15.4482H298.311V17.417H297.274V15.5977H296.623V19.9043H297.274V17.9883H298.311V19.9658H298.97V15.4482ZM292.695 19.4209H295.718V16.0371H292.695V19.4209ZM293.345 18.8848V16.5908H295.077V18.8848H293.345ZM293.451 22.6904L293.706 23.2178C294.888 23.0464 295.964 22.5103 296.413 21.7061C296.861 22.5103 297.942 23.0464 299.128 23.2178L299.374 22.6904C298.039 22.5146 296.834 21.8247 296.782 20.9326H299.058V20.3701H293.758V20.9326H296.043C295.995 21.8379 294.782 22.5146 293.451 22.6904Z" fill="#113287"/>
<path d="M304.286 16.6963H302.343V15.5273H301.64V16.6963H299.663V17.2676H304.286V16.6963ZM300.173 19.7109C300.168 20.7612 300.933 21.5039 301.992 21.5039C303.047 21.5039 303.816 20.7612 303.82 19.7109C303.816 18.6562 303.047 17.918 301.992 17.918C300.933 17.918 300.168 18.6562 300.173 19.7109ZM300.797 19.7109C300.788 19.0166 301.298 18.5112 301.992 18.5068C302.686 18.5112 303.192 19.0166 303.196 19.7109C303.192 20.4141 302.686 20.9106 301.992 20.9062C301.298 20.9106 300.788 20.4141 300.797 19.7109ZM304.136 20.5547H305.455V23.2529H306.14V15.4395H305.455V18.041H304.136V18.6123H305.455V19.9834H304.136V20.5547Z" fill="#113287"/>
<path d="M53.511 26.4482H52.8167V31.0713H51.1995V31.5723H52.8167V32.3809H53.511V26.4482ZM47.0247 30.0693L47.1213 30.6318C47.7761 30.6318 48.5276 30.6318 49.3186 30.6011V32.1084H50.0129V30.5659C50.7292 30.522 51.4631 30.4517 52.1575 30.3418L52.1135 29.8408C50.4392 30.0474 48.4792 30.0605 47.0247 30.0693ZM47.6575 28.127C47.6531 28.9619 48.4353 29.4805 49.5911 29.4805C50.738 29.4805 51.5203 28.9619 51.5247 28.127C51.5203 27.3052 50.738 26.7646 49.5911 26.7646C48.4353 26.7646 47.6531 27.3052 47.6575 28.127ZM48.1497 34.0859H53.7043V33.5059H48.844V31.8008H48.1497V34.0859ZM48.3167 28.127C48.3079 27.626 48.8264 27.2832 49.5911 27.292C50.3337 27.2832 50.8611 27.626 50.8655 28.127C50.8611 28.6367 50.3337 28.9663 49.5911 28.9707C48.8264 28.9663 48.3079 28.6367 48.3167 28.127Z" fill="#113287"/>
<path d="M57.1743 28.54V27.1162H56.4887V28.54C56.4799 30.021 55.5175 31.5151 54.353 32.0469L54.7924 32.627C55.7065 32.1655 56.4755 31.1768 56.8359 29.999C57.2094 31.1108 57.9785 32.0381 58.8706 32.4688L59.2924 31.9238C58.1411 31.4009 57.1699 29.9683 57.1743 28.54ZM60.145 34.2705H60.8393V26.4395H60.145V34.2705Z" fill="#113287"/>
<path d="M64.2829 27.0107C63.048 27.0151 62.1691 27.7622 62.1735 28.8477C62.1691 29.9375 63.048 30.6802 64.2829 30.6846C65.5089 30.6802 66.3791 29.9375 66.3834 28.8477C66.3791 27.7622 65.5089 27.0151 64.2829 27.0107ZM61.7692 31.959L61.8659 32.5479C63.2721 32.5479 65.1925 32.5391 66.9811 32.2051L66.9284 31.6953C65.2013 31.9502 63.2106 31.9634 61.7692 31.959ZM62.8502 28.8477C62.8458 28.1226 63.4479 27.6172 64.2829 27.6172C65.109 27.6172 65.7111 28.1226 65.7067 28.8477C65.7111 29.5771 65.109 30.0781 64.2829 30.0781C63.4479 30.0781 62.8458 29.5771 62.8502 28.8477ZM67.4469 34.2705H68.1325V26.4395H67.4469V34.2705Z" fill="#113287"/>
<path d="M78.1309 27.626H76.9708V26.4395H76.2852V31.0801H76.9708V29.8672H78.1309V29.2871H76.9708V28.1973H78.1309V27.626ZM71.0118 28.751C71.0074 29.8364 71.8775 30.5835 73.0596 30.5879C74.2505 30.5835 75.1075 29.8364 75.1163 28.751C75.1075 27.6611 74.2505 26.9097 73.0596 26.9141C71.8775 26.9097 71.0074 27.6611 71.0118 28.751ZM71.6885 28.751C71.6841 28.0171 72.2686 27.4941 73.0596 27.5029C73.8594 27.4941 74.4351 28.0171 74.4395 28.751C74.4351 29.4893 73.8594 29.999 73.0596 30.0078C72.2686 29.999 71.6841 29.4893 71.6885 28.751ZM71.8731 32.7852C71.8775 33.6948 72.8707 34.2354 74.4659 34.2354C76.0611 34.2354 77.0411 33.6948 77.0411 32.7852C77.0411 31.8579 76.0611 31.3218 74.4659 31.3174C72.8707 31.3218 71.8775 31.8579 71.8731 32.7852ZM72.5674 32.7852C72.5586 32.2183 73.2881 31.8799 74.4659 31.8799C75.648 31.8799 76.3687 32.2183 76.3731 32.7852C76.3687 33.3477 75.648 33.6772 74.4659 33.6816C73.2881 33.6772 72.5586 33.3477 72.5674 32.7852Z" fill="#113287"/>
<path d="M84.6331 26.4395H83.9387V34.2705H84.6331V26.4395ZM78.4807 29.7705C78.4851 31.436 79.3113 32.4907 80.4758 32.4863C81.636 32.4907 82.4753 31.436 82.4709 29.7705C82.4753 28.1094 81.636 27.0503 80.4758 27.0459C79.3113 27.0503 78.4851 28.1094 78.4807 29.7705ZM79.1487 29.7705C79.1487 28.5005 79.6936 27.6655 80.4758 27.6611C81.2625 27.6655 81.803 28.5005 81.803 29.7705C81.803 31.0405 81.2625 31.8755 80.4758 31.8711C79.6936 31.8755 79.1487 31.0405 79.1487 29.7705Z" fill="#113287"/>
<path d="M93.4362 26.4395H92.7506V30.8779H93.4362V28.9268H94.6139V28.3555H93.4362V26.4395ZM87.319 30.4033L87.6002 30.957C89.9162 30.3286 91.2916 28.918 91.3004 26.9492H87.6706V27.5205H90.5578C90.4127 28.8433 89.2394 29.8848 87.319 30.4033ZM88.4879 34.1475H93.4362V31.2383H88.4879V34.1475ZM89.1735 33.585V31.8096H92.7506V33.585H89.1735Z" fill="#113287"/>
<path d="M101.81 32.6621H98.5321V30.7461H97.8553V32.6621H94.6561V33.2334H101.81V32.6621ZM94.9374 30.2627L95.245 30.834C96.4403 30.5879 97.6839 29.7793 98.1981 28.6587C98.7035 29.7837 99.9603 30.5879 101.151 30.834L101.459 30.2627C100.097 30.0298 98.5541 28.8784 98.5497 27.5732V26.9756H97.829V27.5732C97.8246 28.8872 96.3041 30.0298 94.9374 30.2627Z" fill="#113287"/>
<path d="M108.093 26.4131H107.407V30.7373H108.093V28.8828H109.279V28.3115H108.093V26.4131ZM102.002 27.7051H106.66V27.1514H104.674V26.3604H103.988V27.1514H102.002V27.7051ZM102.45 29.3398C102.446 30.1353 103.193 30.6187 104.331 30.623C105.465 30.6187 106.203 30.1353 106.212 29.3398C106.203 28.5488 105.465 28.061 104.331 28.0566C103.193 28.061 102.446 28.5488 102.45 29.3398ZM103.109 31.6602H107.407V32.3633H103.127V34.165H108.383V33.6377H103.804V32.873H108.093V31.1416H103.109V31.6602ZM103.109 29.3398C103.105 28.874 103.588 28.5708 104.331 28.5664C105.069 28.5708 105.553 28.874 105.562 29.3398C105.553 29.8101 105.069 30.1045 104.331 30.1045C103.588 30.1045 103.105 29.8101 103.109 29.3398Z" fill="#113287"/>
<path d="M115.041 27.1689V26.7207H114.33V27.1689C114.33 28.2896 112.901 29.2212 111.491 29.4189L111.772 29.9814C112.989 29.7793 114.189 29.1157 114.69 28.1489C115.191 29.1069 116.395 29.7793 117.608 29.9814L117.889 29.4189C116.478 29.2212 115.046 28.272 115.041 27.1689ZM111.122 31.4229H114.33V34.2529H115.006V31.4229H118.241V30.8428H111.122V31.4229Z" fill="#113287"/>
<path d="M122.904 31.6865V31.2559H122.236V31.6865C122.227 32.4336 121.634 33.2686 120.645 33.6377L120.997 34.1475C121.744 33.8662 122.28 33.3213 122.561 32.6929C122.794 33.3477 123.278 33.9189 124.038 34.209C124.759 33.9058 125.238 33.3037 125.479 32.6709C125.752 33.3257 126.297 33.8706 127.079 34.1475L127.422 33.6377C126.42 33.2905 125.827 32.4907 125.831 31.6865V31.2559H125.154V31.6865C125.159 32.2886 124.763 33.0708 124.016 33.5322C123.273 33.1104 122.9 32.3765 122.904 31.6865ZM120.443 28.7334C120.439 29.8057 121.305 30.5439 122.491 30.5439C123.678 30.5439 124.535 29.8057 124.539 28.7334C124.535 27.6436 123.678 26.9009 122.491 26.9053C121.305 26.9009 120.439 27.6436 120.443 28.7334ZM121.12 28.7334C121.111 28.0039 121.687 27.4854 122.491 27.4941C123.286 27.4854 123.862 28.0039 123.862 28.7334C123.862 29.4585 123.286 29.9683 122.491 29.9727C121.687 29.9683 121.111 29.4585 121.12 28.7334ZM126.024 30.9131H126.71V26.4482H126.024V30.9131Z" fill="#113287"/>
<path d="M129.178 31.1328H128.492V34.1475H133.774V31.1328H133.08V32.0469H129.178V31.1328ZM127.587 30.5791H134.706V30.0078H127.587V30.5791ZM127.991 28.9004L128.255 29.4541C129.459 29.2739 130.654 28.6631 131.151 27.7842C131.648 28.6587 132.838 29.2739 134.047 29.4541L134.302 28.9004C132.926 28.7246 131.502 27.8589 131.507 26.8965V26.5273H130.795V26.8965C130.795 27.8896 129.384 28.7114 127.991 28.9004ZM129.178 33.5938V32.5918H133.08V33.5938H129.178Z" fill="#113287"/>
<path d="M141.358 26.4395H140.672V34.2529H141.358V26.4395ZM135.425 32.2402H136.058C137.31 32.2402 138.545 32.1436 139.934 31.8535L139.837 31.2646C138.528 31.5415 137.297 31.6338 136.102 31.6426V27.2129H135.425V32.2402Z" fill="#113287"/>
<path d="M148.29 26.4395H147.605V34.2705H148.29V30.1133H149.6V29.5332H148.29V26.4395ZM142.586 32.3105H143.202C144.687 32.3105 145.711 32.2666 146.937 32.0469L146.849 31.4492C145.685 31.6646 144.687 31.7261 143.272 31.7305V27.7754H146.234V27.2041H142.586V32.3105Z" fill="#113287"/>
<path d="M150.398 33.5938C150.71 33.5894 150.965 33.3345 150.961 33.0225C150.965 32.7148 150.71 32.46 150.398 32.46C150.09 32.46 149.827 32.7148 149.836 33.0225C149.827 33.3345 150.09 33.5894 150.398 33.5938Z" fill="#113287"/>
<path d="M155.694 33.6289C157.035 33.6421 157.909 32.6841 157.909 31.4844C157.909 30.2539 156.964 29.375 155.835 29.375C155.149 29.375 154.565 29.687 154.2 30.2188H154.121C154.117 28.6851 154.745 27.793 155.791 27.793C156.499 27.793 156.929 28.2148 157.074 28.7773H157.856C157.694 27.7798 156.912 27.0898 155.791 27.0898C154.297 27.0898 153.374 28.3511 153.374 30.6055C153.374 32.9609 154.591 33.6157 155.694 33.6289ZM154.227 31.502C154.235 30.7505 154.877 30.0737 155.712 30.0693C156.543 30.0737 157.14 30.7109 157.145 31.4932C157.14 32.2842 156.516 32.9302 155.694 32.9346C154.842 32.9302 154.231 32.249 154.227 31.502Z" fill="#113287"/>
<path d="M164.939 26.4395H164.262V29.5947H163.181V26.6504H162.522V33.8662H163.181V30.166H164.262V34.2529H164.939V26.4395ZM158.277 32.0908L158.681 32.5742C160.927 31.3218 161.625 29.4453 161.634 27.459H158.575V28.0303H160.957C160.839 29.6475 160.092 31.0757 158.277 32.0908Z" fill="#113287"/>
<path d="M172.039 26.4482H171.344V30.166H169.762V30.623H171.344V31.0537H172.039V26.4482ZM165.57 29.3926L165.649 29.9111C166.282 29.9111 166.994 29.9111 167.732 29.8848V31.0801H168.409V29.8584C169.186 29.8232 169.982 29.7573 170.747 29.6475L170.703 29.1992C169.015 29.3838 167.081 29.4014 165.57 29.3926ZM166.176 27.7754C166.176 28.5049 166.941 28.9399 168.119 28.9443C169.283 28.9399 170.052 28.5049 170.061 27.7754C170.052 27.0503 169.283 26.5977 168.119 26.5977C166.941 26.5977 166.176 27.0503 166.176 27.7754ZM166.765 31.8359H171.353V32.4688H166.8V34.165H172.293V33.6553H167.477V32.9521H172.039V31.335H166.765V31.8359ZM166.827 27.7754C166.822 27.3579 167.332 27.0767 168.119 27.0811C168.896 27.0767 169.406 27.3579 169.411 27.7754C169.406 28.1885 168.896 28.4697 168.119 28.4697C167.332 28.4697 166.822 28.1885 166.827 27.7754Z" fill="#113287"/>
<path d="M176.853 27.2305H173.25V32.2666H176.853V27.2305ZM173.918 31.7041V27.7842H176.168V31.7041H173.918ZM178.286 34.2529H178.971V30.1572H180.281V29.5596H178.971V26.4395H178.286V34.2529Z" fill="#113287"/>
<path d="M186.3 26.4395H185.614V34.2705H186.3V30.1133H187.609V29.5332H186.3V26.4395ZM180.596 32.3105H181.211C182.696 32.3105 183.72 32.2666 184.946 32.0469L184.858 31.4492C183.694 31.6646 182.696 31.7261 181.281 31.7305V27.7754H184.243V27.2041H180.596V32.3105Z" fill="#113287"/>
<path d="M195.867 26.4395H195.173V28.4785H193.6V29.0498H195.173V31.0977H195.867V26.4395ZM189.425 30.4736L189.785 31.0273C190.717 30.6714 191.442 29.9419 191.776 29.0278C192.115 29.832 192.796 30.4912 193.67 30.8076L194.031 30.2539C192.888 29.8628 192.106 28.8916 192.106 27.8721V27.5908H193.855V27.0107H189.645V27.5908H191.411V27.8809C191.411 28.9971 190.585 30.0562 189.425 30.4736ZM190.656 32.7939C190.651 33.7168 191.649 34.2441 193.275 34.2529C194.896 34.2441 195.894 33.7168 195.894 32.7939C195.894 31.8755 194.896 31.3394 193.275 31.3438C191.649 31.3394 190.651 31.8755 190.656 32.7939ZM191.341 32.7939C191.337 32.2227 192.075 31.8799 193.275 31.8799C194.47 31.8799 195.208 32.2227 195.208 32.7939C195.208 33.3608 194.47 33.7036 193.275 33.6992C192.075 33.7036 191.337 33.3608 191.341 32.7939Z" fill="#113287"/>
<path d="M203.178 26.4395H202.484V34.2529H203.178V26.4395ZM196.815 32.2227L197.193 32.7852C199.812 31.5283 200.858 29.5376 200.867 27.292H197.175V27.8545H200.164C200.01 29.7222 198.929 31.2207 196.815 32.2227Z" fill="#113287"/>
<path d="M206.762 27.8809V27.5469H208.511V26.9844H204.301V27.5469H206.068V27.8896C206.068 28.9927 205.233 30.0342 204.082 30.4473L204.442 30.9922C205.369 30.6494 206.094 29.9287 206.433 29.0322C206.767 29.8364 207.448 30.4912 208.327 30.8076L208.687 30.2627C207.545 29.8672 206.762 28.896 206.762 27.8809ZM205.268 32.1084H209.83V34.2529H210.524V31.5371H205.268V32.1084ZM208.265 29.0674H209.83V31.124H210.524V26.4395H209.83V28.4873H208.265V29.0674Z" fill="#113287"/>
<path d="M217.826 26.4482H217.14V32.1611H217.826V26.4482ZM211.559 28.9092C211.555 30.0474 212.438 30.8384 213.607 30.834C214.776 30.8384 215.651 30.0474 215.655 28.9092C215.651 27.7842 214.776 26.9976 213.607 26.9932C212.438 26.9976 211.555 27.7842 211.559 28.9092ZM212.236 28.9092C212.227 28.1445 212.816 27.5996 213.607 27.5996C214.385 27.5996 214.978 28.1445 214.978 28.9092C214.978 29.687 214.385 30.2275 213.607 30.2275C212.816 30.2275 212.227 29.687 212.236 28.9092ZM212.781 34.0859H218.072V33.5059H213.467V31.5811H212.781V34.0859Z" fill="#113287"/>
<path d="M223.289 28.54V27.1162H222.604V28.54C222.595 30.021 221.633 31.5151 220.468 32.0469L220.907 32.627C221.822 32.1655 222.591 31.1768 222.951 29.999C223.324 31.1108 224.094 32.0381 224.986 32.4688L225.407 31.9238C224.256 31.4009 223.285 29.9683 223.289 28.54ZM226.26 34.2705H226.954V26.4395H226.26V34.2705Z" fill="#113287"/>
<path d="M231.549 26.9229H228.157V27.4766H230.864V28.584H228.174V30.8867H228.728C230.31 30.8867 231.105 30.8604 232.077 30.7021L232.006 30.1309C231.088 30.2979 230.328 30.3286 228.86 30.3242V29.1113H231.549V26.9229ZM229.053 32.2314H233.623V34.2705H234.318V31.6689H229.053V32.2314ZM232.068 29.7969H233.623V31.2471H234.318V26.4482H233.623V27.6084H232.068V28.1709H233.623V29.2256H232.068V29.7969Z" fill="#113287"/>
<path d="M241.012 26.9492H237.47V27.5205H240.278C240.128 28.8477 238.933 29.8848 237.065 30.4121L237.355 30.957C239.605 30.3154 241.007 28.9092 241.012 26.9492ZM238.384 34.1475H243.455V31.2383H238.384V34.1475ZM239.052 33.585V31.792H242.769V33.585H239.052ZM241.029 29.041H242.761V30.9043H243.455V26.4482H242.761V28.4609H241.029V29.041Z" fill="#113287"/>
<path d="M246.925 28.54V27.1162H246.248V28.54C246.239 29.9683 245.334 31.4668 244.191 32.0293L244.631 32.583C245.51 32.1128 246.248 31.124 246.595 29.9727C246.942 31.0581 247.663 31.9854 248.524 32.4336L248.946 31.8799C247.835 31.335 246.925 29.9155 246.925 28.54ZM249.667 34.2529H250.353V30.21H251.662V29.6123H250.353V26.4395H249.667V34.2529Z" fill="#113287"/>
<path d="M258.78 30.0693H251.625V30.6143H258.78V30.0693ZM252.487 31.7568H257.198V32.4248H252.495V34.1475H258.138V33.6465H253.19V32.8994H257.883V31.2383H252.487V31.7568ZM252.531 27.1777H257.162V27.8193H252.557V29.4805H257.997V28.9795H253.242V28.2939H257.857V26.6768H252.531V27.1777Z" fill="#113287"/>
<path d="M267.24 26.4482H266.537V30.6934H264.814V31.2559H266.537V32.3545H267.24V26.4482ZM260.718 29.542L260.815 30.1133C261.448 30.1133 262.182 30.1045 262.951 30.0693V31.8359H263.636V30.0342C264.383 29.9858 265.148 29.9111 265.878 29.7881L265.825 29.2871C265.535 29.3267 265.236 29.3618 264.933 29.3882C265.1 28.3906 265.1 27.6611 265.095 27.2305V26.9229H261.422V27.4854H264.41C264.405 27.9336 264.379 28.584 264.225 29.4453C262.986 29.5288 261.725 29.5376 260.718 29.542ZM261.887 34.0859H267.433V33.5059H262.582V31.6953H261.887V34.0859Z" fill="#113287"/>
<path d="M272.002 27.793H270.393V26.6768H269.708V27.793H268.082V28.3555H272.002V27.793ZM268.363 30.6582C268.363 31.7085 269.071 32.4468 270.042 32.4512C271.026 32.4468 271.729 31.7085 271.738 30.6582C271.729 29.6211 271.026 28.8872 270.042 28.8828C269.071 28.8872 268.363 29.6211 268.363 30.6582ZM268.978 30.6582C268.978 29.9727 269.422 29.4717 270.042 29.4629C270.666 29.4717 271.123 29.9727 271.123 30.6582C271.123 31.3525 270.666 31.8491 270.042 31.8447C269.422 31.8491 268.978 31.3525 268.978 30.6582ZM272.406 33.8662H273.056V30.3066H274.094V34.2529H274.753V26.4395H274.094V29.7354H273.056V26.6328H272.406V33.8662Z" fill="#113287"/>
<path d="M281.738 30.2012H277.027V27.7402H281.659V27.1689H276.342V30.7725H281.738V30.2012ZM275.428 33.1895H282.582V32.6094H275.428V33.1895Z" fill="#113287"/>
<path d="M289.207 26.4482H288.522V30.7373H289.207V26.4482ZM283.152 27.3975H286.034V28.3906H283.169V30.5791H283.802C285.243 30.5703 286.311 30.5308 287.625 30.3242L287.546 29.7529C286.276 29.9595 285.235 29.9902 283.837 29.999V28.9355H286.72V26.8262H283.152V27.3975ZM284.127 34.1475H289.207V31.1328H288.522V32.0645H284.822V31.1328H284.127V34.1475ZM284.822 33.585V32.6182H288.522V33.585H284.822Z" fill="#113287"/>
<path d="M296.527 26.4395H295.841V34.2529H296.527V26.4395ZM290.594 32.2402H291.227C292.479 32.2402 293.714 32.1436 295.103 31.8535L295.006 31.2646C293.697 31.5415 292.466 31.6338 291.271 31.6426V27.2129H290.594V32.2402Z" fill="#113287"/>
<path d="M303.46 26.4395H302.774V34.2705H303.46V30.1133H304.769V29.5332H303.46V26.4395ZM297.756 32.3105H298.371C299.856 32.3105 300.88 32.2666 302.106 32.0469L302.018 31.4492C300.854 31.6646 299.856 31.7261 298.441 31.7305V27.7754H301.403V27.2041H297.756V32.3105Z" fill="#113287"/>
<path d="M305.567 33.5938C305.879 33.5894 306.134 33.3345 306.13 33.0225C306.134 32.7148 305.879 32.46 305.567 32.46C305.26 32.46 304.996 32.7148 305.005 33.0225C304.996 33.3345 305.26 33.5894 305.567 33.5938Z" fill="#113287"/>
<rect x="0.33252" y="1.10547" width="322.5" height="47.5" rx="3.75" stroke="#113287" stroke-width="0.5"/>
<path d="M23.1513 28.3311C23.708 28.3311 24.1508 28.8168 24.1508 29.4135C24.1508 30.0241 23.708 30.5098 23.1513 30.5098C22.582 30.5098 22.1392 30.0102 22.1392 29.4135C22.1392 28.8168 22.582 28.3311 23.1513 28.3311Z" fill="#113287"/>
<path d="M24.0985 21.6148V26.2777C24.0985 26.8605 23.6683 27.3046 23.1496 27.3046C22.6182 27.3046 22.2007 26.8466 22.2007 26.2777V21.6148C22.2007 21.0459 22.6182 20.5879 23.1496 20.5879C23.6683 20.5879 24.0985 21.0597 24.0985 21.6148Z" fill="#113287"/>
<path d="M19.6086 16.6613C20.38 15.1901 21.7837 14.4267 23.1495 14.4406C24.5154 14.4267 25.9065 15.1901 26.6905 16.6613L33.0263 28.5974C33.4057 29.3191 33.5828 30.0825 33.5828 30.832C33.5828 31.9978 33.1528 33.1081 32.432 33.927C31.7111 34.732 30.6615 35.2872 29.4854 35.2733H16.8137C15.625 35.2872 14.588 34.732 13.8671 33.927C13.1336 33.1081 12.7163 31.9978 12.7163 30.832C12.7163 30.0825 12.8934 29.3191 13.2728 28.5974H13.2601L19.6086 16.6613ZM23.1495 16.5086C22.3908 16.5086 21.6826 16.8972 21.2526 17.6883L14.9041 29.6244V29.6383C14.7018 30.027 14.6133 30.4156 14.6133 30.8181C14.6133 31.4287 14.8409 32.0394 15.2329 32.4836C15.625 32.9277 16.1561 33.2053 16.8137 33.2053H29.4854C30.143 33.2053 30.6615 32.9277 31.0662 32.4836C31.4582 32.0394 31.6858 31.4287 31.6858 30.8181C31.6858 30.4156 31.5973 30.0269 31.3823 29.6244L25.0465 17.6883C24.6165 16.8834 23.8957 16.5086 23.1495 16.5086Z" fill="#113287"/>
</svg>
