<svg width="324" height="49" viewBox="0 0 324 49" fill="none" xmlns="http://www.w3.org/2000/svg">
<path d="M55.9993 19.1357H48.8801V19.707H52.0969V20.542C50.6072 20.6079 49.7371 21.0869 49.7415 21.9131C49.7371 22.7876 50.7434 23.2754 52.4397 23.2754C54.114 23.2754 55.1204 22.7876 55.1292 21.9131C55.1204 21.0869 54.2458 20.6079 52.7737 20.542V19.707H55.9993V19.1357ZM49.2844 18.1162L49.5305 18.6611C50.8181 18.5073 52.009 17.9316 52.4397 17.0659C52.8704 17.9316 54.0701 18.5073 55.3489 18.6611L55.6038 18.1162C54.2283 17.9756 52.9363 17.2856 52.8879 16.4111H55.3665V15.8486H49.5305V16.4111H51.9915C51.9431 17.2856 50.6379 17.9756 49.2844 18.1162ZM50.4446 21.9131C50.4358 21.3813 51.1873 21.0781 52.4397 21.0693C53.679 21.0781 54.4304 21.3813 54.4348 21.9131C54.4304 22.4316 53.679 22.7437 52.4397 22.7393C51.1873 22.7437 50.4358 22.4316 50.4446 21.9131Z" fill="#113287"/>
<path d="M62.519 19.1445H57.8168V16.6836H62.4399V16.1211H57.1225V19.707H59.4252V21.7285H56.2084V22.3086H63.3627V21.7285H60.102V19.707H62.519V19.1445Z" fill="#113287"/>
<path d="M71.7879 15.4883H71.0936V20.1113H69.4764V20.6123H71.0936V21.4209H71.7879V15.4883ZM65.3016 19.1094L65.3983 19.6719C66.0531 19.6719 66.8045 19.6719 67.5956 19.6411V21.1484H68.2899V19.606C69.0062 19.562 69.7401 19.4917 70.4344 19.3818L70.3905 18.8809C68.7162 19.0874 66.7562 19.1006 65.3016 19.1094ZM65.9344 17.167C65.93 18.002 66.7123 18.5205 67.868 18.5205C69.015 18.5205 69.7972 18.002 69.8016 17.167C69.7972 16.3452 69.015 15.8047 67.868 15.8047C66.7123 15.8047 65.93 16.3452 65.9344 17.167ZM66.4266 23.126H71.9813V22.5459H67.1209V20.8408H66.4266V23.126ZM66.5936 17.167C66.5848 16.666 67.1034 16.3232 67.868 16.332C68.6107 16.3232 69.138 16.666 69.1424 17.167C69.138 17.6768 68.6107 18.0063 67.868 18.0107C67.1034 18.0063 66.5848 17.6768 66.5936 17.167Z" fill="#113287"/>
<path d="M75.4512 17.5801V16.1562H74.7657V17.5801C74.7569 19.061 73.7945 20.5552 72.6299 21.0869L73.0694 21.667C73.9834 21.2056 74.7525 20.2168 75.1128 19.0391C75.4864 20.1509 76.2554 21.0781 77.1475 21.5088L77.5694 20.9639C76.418 20.4409 75.4468 19.0083 75.4512 17.5801ZM78.4219 23.3105H79.1163V15.4795H78.4219V23.3105Z" fill="#113287"/>
<path d="M88.2534 15.4795H87.559V23.3105H88.2534V15.4795ZM82.101 18.8105C82.1054 20.4761 82.9316 21.5308 84.0961 21.5264C85.2563 21.5308 86.0957 20.4761 86.0913 18.8105C86.0957 17.1494 85.2563 16.0903 84.0961 16.0859C82.9316 16.0903 82.1054 17.1494 82.101 18.8105ZM82.769 18.8105C82.769 17.5405 83.3139 16.7056 84.0961 16.7012C84.8828 16.7056 85.4233 17.5405 85.4233 18.8105C85.4233 20.0806 84.8828 20.9155 84.0961 20.9111C83.3139 20.9155 82.769 20.0806 82.769 18.8105Z" fill="#113287"/>
<path d="M91.7497 16.7451V15.8838H91.0729V16.6924C91.0685 17.9009 90.2819 18.9468 89.1129 19.3818L89.4821 19.9355C90.3961 19.5796 91.0949 18.8633 91.4289 17.936C91.7716 18.7534 92.4528 19.3994 93.3141 19.7158L93.692 19.1709C92.5583 18.7842 91.7497 17.8086 91.7497 16.7451ZM90.15 21.8516C90.1544 22.7612 91.1344 23.2754 92.7428 23.2754C94.3468 23.2754 95.318 22.7612 95.318 21.8516C95.318 20.9595 94.3468 20.4365 92.7428 20.4365C91.1344 20.4365 90.1544 20.9595 90.15 21.8516ZM90.8444 21.8516C90.8356 21.3198 91.5651 20.9902 92.7428 20.9902C93.9249 20.9902 94.6457 21.3198 94.65 21.8516C94.6457 22.4053 93.9249 22.7261 92.7428 22.7305C91.5651 22.7261 90.8356 22.4053 90.8444 21.8516ZM94.5622 20.2344H95.2477V18.0986H96.4254V17.5186H95.2477V15.4795H94.5622V20.2344Z" fill="#113287"/>
<path d="M98.6825 15.7695C97.5003 15.7739 96.6478 16.4858 96.6522 17.501C96.6478 18.5205 97.5003 19.2236 98.6825 19.2236C99.8514 19.2236 100.7 18.5205 100.704 17.501C100.7 16.4858 99.8514 15.7739 98.6825 15.7695ZM97.329 17.501C97.3202 16.8242 97.8959 16.3452 98.6825 16.3496C99.4559 16.3452 100.036 16.8242 100.036 17.501C100.036 18.1865 99.4559 18.6611 98.6825 18.6611C97.8959 18.6611 97.3202 18.1865 97.329 17.501ZM97.8387 20.4277H102.233V21.2363H97.8563V23.1875H103.2V22.6338H98.5331V21.7549H102.919V19.874H97.8387V20.4277ZM102.233 19.4961H102.919V15.4795H102.233V19.4961Z" fill="#113287"/>
<path d="M112.082 15.4883H111.388V16.9473H109.564C109.63 16.6704 109.665 16.376 109.665 16.0684H106.106V16.6484H108.914C108.778 18.002 107.595 19.061 105.71 19.6191L106 20.1641C107.675 19.6675 108.879 18.7578 109.393 17.501H111.388V18.5557H109.314V19.127H111.388V20.1816H112.082V15.4883ZM106.914 21.7549C106.91 22.6909 107.925 23.2578 109.525 23.2578C111.107 23.2578 112.126 22.6909 112.126 21.7549C112.126 20.8232 111.107 20.2607 109.525 20.2607C107.925 20.2607 106.91 20.8232 106.914 21.7549ZM107.591 21.7549C107.595 21.166 108.347 20.8101 109.525 20.8145C110.685 20.8101 111.436 21.166 111.441 21.7549C111.436 22.3438 110.685 22.6997 109.525 22.6953C108.347 22.6997 107.595 22.3438 107.591 21.7549Z" fill="#113287"/>
<path d="M120.079 19.9619H112.924V20.542H116.141V23.293H116.818V20.542H120.079V19.9619ZM113.733 17.5186C113.737 18.5601 114.84 19.2192 116.484 19.2148C118.123 19.2192 119.235 18.5601 119.235 17.5186C119.235 16.4595 118.123 15.8003 116.484 15.7959C114.84 15.8003 113.737 16.4595 113.733 17.5186ZM114.445 17.5186C114.436 16.811 115.267 16.3584 116.484 16.3584C117.701 16.3584 118.527 16.811 118.532 17.5186C118.527 18.2129 117.701 18.6611 116.484 18.6611C115.267 18.6611 114.436 18.2129 114.445 17.5186Z" fill="#113287"/>
<path d="M121.545 21.9922H120.692L120.209 24.3828H120.859L121.545 21.9922Z" fill="#113287"/>
<path d="M126.639 16.9209V16.5869H128.388V16.0244H124.178V16.5869H125.944V16.9297C125.944 18.0327 125.109 19.0742 123.958 19.4873L124.318 20.0322C125.246 19.6895 125.971 18.9688 126.309 18.0723C126.643 18.8765 127.324 19.5312 128.203 19.8477L128.564 19.3027C127.421 18.9072 126.639 17.936 126.639 16.9209ZM125.145 21.1484H129.706V23.293H130.4V20.5771H125.145V21.1484ZM128.142 18.1074H129.706V20.1641H130.4V15.4795H129.706V17.5273H128.142V18.1074Z" fill="#113287"/>
<path d="M133.958 16.6924V16.4639H135.707V15.8926H131.497V16.4639H133.264V16.6836C133.264 17.6943 132.425 18.6699 131.286 19.0654L131.629 19.6104C132.543 19.2939 133.268 18.6084 133.615 17.769C133.954 18.5293 134.644 19.1357 135.531 19.4258L135.874 18.8809C134.745 18.5205 133.954 17.6196 133.958 16.6924ZM132.657 20.4717H137.034V21.2539H132.675V23.2051H138.019V22.6514H133.361V21.7812H137.72V19.9092H132.657V20.4717ZM135.461 17.7998H137.034V19.5225H137.72V15.4795H137.034V17.2285H135.461V17.7998Z" fill="#113287"/>
<path d="M144.626 15.4795H143.941V23.293H144.626V19.2764H145.936V18.7051H144.626V15.4795ZM138.536 17.3076H143.185V16.7363H141.234V15.5762H140.548V16.7363H138.536V17.3076ZM138.984 19.751C138.979 20.8101 139.788 21.5439 140.9 21.5439C142.003 21.5439 142.807 20.8101 142.816 19.751C142.807 18.6963 142.003 17.958 140.9 17.958C139.788 17.958 138.979 18.6963 138.984 19.751ZM139.643 19.751C139.639 19.0435 140.17 18.5337 140.9 18.5381C141.621 18.5337 142.148 19.0435 142.157 19.751C142.148 20.4629 141.621 20.9639 140.9 20.9551C140.17 20.9639 139.639 20.4629 139.643 19.751Z" fill="#113287"/>
<path d="M152.596 15.4795H151.937V23.293H152.596V15.4795ZM145.917 21.1045L146.321 21.6055C147.411 20.9639 148.167 20.1597 148.637 19.25H150.294V22.8975H150.953V15.6904H150.294V18.6875H148.892C149.16 17.9932 149.283 17.2505 149.283 16.4814H146.251V17.0527H148.597C148.465 18.6875 147.613 20.0981 145.917 21.1045Z" fill="#113287"/>
<path d="M161.32 16.2705H155.792V16.8418H160.644V17.1406C160.639 18.1162 160.639 19.1445 160.362 20.5244L161.039 20.6035C161.316 19.1489 161.316 18.1426 161.32 17.1406V16.2705ZM155.045 22.1855H162.164V21.6143H159.439V19.0391H158.763V21.6143H157.497V19.0391H156.812V21.6143H155.045V22.1855Z" fill="#113287"/>
<path d="M168.851 15.4795H168.156V17.5186H166.583V18.0898H168.156V20.1377H168.851V15.4795ZM162.408 19.5137L162.769 20.0674C163.7 19.7114 164.426 18.9819 164.76 18.0679C165.098 18.8721 165.779 19.5312 166.654 19.8477L167.014 19.2939C165.871 18.9028 165.089 17.9316 165.089 16.9121V16.6309H166.838V16.0508H162.628V16.6309H164.395V16.9209C164.395 18.0371 163.569 19.0962 162.408 19.5137ZM163.639 21.834C163.635 22.7568 164.632 23.2842 166.258 23.293C167.88 23.2842 168.877 22.7568 168.877 21.834C168.877 20.9155 167.88 20.3794 166.258 20.3838C164.632 20.3794 163.635 20.9155 163.639 21.834ZM164.324 21.834C164.32 21.2627 165.058 20.9199 166.258 20.9199C167.453 20.9199 168.192 21.2627 168.192 21.834C168.192 22.4009 167.453 22.7437 166.258 22.7393C165.058 22.7437 164.32 22.4009 164.324 21.834Z" fill="#113287"/>
<path d="M175.748 15.4795H175.063V23.293H175.748V19.2764H177.058V18.7051H175.748V15.4795ZM169.658 17.3076H174.307V16.7363H172.356V15.5762H171.67V16.7363H169.658V17.3076ZM170.106 19.751C170.102 20.8101 170.91 21.5439 172.022 21.5439C173.125 21.5439 173.929 20.8101 173.938 19.751C173.929 18.6963 173.125 17.958 172.022 17.958C170.91 17.958 170.102 18.6963 170.106 19.751ZM170.765 19.751C170.761 19.0435 171.292 18.5337 172.022 18.5381C172.743 18.5337 173.27 19.0435 173.279 19.751C173.27 20.4629 172.743 20.9639 172.022 20.9551C171.292 20.9639 170.761 20.4629 170.765 19.751Z" fill="#113287"/>
<path d="M179.825 17.8789V16.8594H181.688V16.2881H177.285V16.8594H179.131V17.8789C179.126 19.2324 178.151 20.709 177.03 21.2451L177.443 21.79C178.335 21.3418 179.126 20.3486 179.491 19.2017C179.856 20.2827 180.642 21.1836 181.556 21.5967L181.943 21.0518C180.792 20.5552 179.829 19.2061 179.825 17.8789ZM182.778 23.293H183.472V15.4795H182.778V23.293Z" fill="#113287"/>
<path d="M188.347 15.9277C187.182 15.9321 186.312 16.6748 186.316 17.7295C186.312 18.7974 187.182 19.5356 188.347 19.54C189.516 19.5356 190.377 18.7974 190.377 17.7295C190.377 16.6748 189.516 15.9321 188.347 15.9277ZM186.993 17.7295C186.989 17.0264 187.578 16.5078 188.347 16.5078C189.12 16.5078 189.705 17.0264 189.7 17.7295C189.705 18.4458 189.12 18.9688 188.347 18.9688C187.578 18.9688 186.989 18.4458 186.993 17.7295ZM187.002 23.082H187.371C187.881 23.0864 188.624 23.0513 189.384 22.8008L189.278 22.2471C188.725 22.4316 188.123 22.4976 187.67 22.5151V20.2344H187.002V23.082ZM189.111 20.8057H193.058V20.2695H191.432V19.5752H190.755V20.2695H189.111V20.8057ZM189.63 22.1768C189.626 22.8535 190.219 23.2754 191.08 23.2754C191.937 23.2754 192.539 22.8535 192.548 22.1768C192.539 21.5 191.937 21.0693 191.08 21.0693C190.219 21.0693 189.626 21.5 189.63 22.1768ZM190.245 22.1768C190.245 21.8164 190.592 21.5747 191.08 21.5703C191.568 21.5747 191.915 21.8164 191.915 22.1768C191.915 22.5459 191.568 22.7788 191.08 22.7832C190.592 22.7788 190.245 22.5459 190.245 22.1768ZM191.59 19.3906H192.275V17.8174H193.453V17.2461H192.275V15.4795H191.59V19.3906Z" fill="#113287"/>
<path d="M197.055 15.9893C195.425 15.9937 194.198 16.8462 194.198 18.1338C194.198 19.4346 195.425 20.2871 197.055 20.2783C198.685 20.2871 199.911 19.4346 199.911 18.1338C199.911 16.8462 198.685 15.9937 197.055 15.9893ZM193.495 22.2559H200.65V21.6758H193.495V22.2559ZM194.858 18.1338C194.849 17.1978 195.794 16.5474 197.055 16.5518C198.307 16.5474 199.243 17.1978 199.243 18.1338C199.243 19.083 198.307 19.7158 197.055 19.7158C195.794 19.7158 194.849 19.083 194.858 18.1338Z" fill="#113287"/>
<path d="M204.779 16.165H201.193V19.8125H204.779V19.1094H206.607V21.1924H207.301V15.4883H206.607V16.8594H204.779V16.165ZM201.878 19.2588V16.7363H204.102V19.2588H201.878ZM202.248 23.126H207.477V22.5459H202.942V20.6826H202.248V23.126ZM204.779 18.5381V17.4395H206.607V18.5381H204.779Z" fill="#113287"/>
<path d="M217.229 16.6924H216.069V15.4795H215.384V20.1289H216.069V18.9424H217.229V18.3535H216.069V17.2549H217.229V16.6924ZM210.11 17.791C210.106 18.8896 210.976 19.6411 212.158 19.6455C213.349 19.6411 214.206 18.8896 214.215 17.791C214.206 16.7056 213.349 15.9497 212.158 15.9541C210.976 15.9497 210.106 16.7056 210.11 17.791ZM210.787 17.791C210.783 17.0571 211.367 16.5474 212.158 16.543C212.958 16.5474 213.534 17.0571 213.538 17.791C213.534 18.5425 212.958 19.0566 212.158 19.0479C211.367 19.0566 210.783 18.5425 210.787 17.791ZM210.954 21.0605H215.384V23.293H216.069V20.4893H210.954V21.0605Z" fill="#113287"/>
<path d="M220.066 17.5801V16.1562H219.381V17.5801C219.372 19.061 218.41 20.5552 217.245 21.0869L217.685 21.667C218.599 21.2056 219.368 20.2168 219.728 19.0391C220.102 20.1509 220.871 21.0781 221.763 21.5088L222.185 20.9639C221.033 20.4409 220.062 19.0083 220.066 17.5801ZM223.037 23.3105H223.731V15.4795H223.037V23.3105Z" fill="#113287"/>
<path d="M231.93 18.5996H230.664V15.4795H229.979V23.293H230.664V19.1797H231.93V18.5996ZM224.943 21.3066H225.567C226.749 21.3066 227.962 21.2275 229.311 20.9551L229.223 20.3662C227.935 20.6387 226.771 20.7266 225.628 20.7266V16.2529H224.943V21.3066Z" fill="#113287"/>
<path d="M236.374 17.5801V16.1562H235.697V17.5801C235.688 19.0083 234.783 20.5068 233.64 21.0693L234.08 21.623C234.959 21.1528 235.697 20.1641 236.044 19.0127C236.391 20.0981 237.112 21.0254 237.973 21.4736L238.395 20.9199C237.283 20.375 236.374 18.9556 236.374 17.5801ZM239.116 23.293H239.801V19.25H241.111V18.6523H239.801V15.4795H239.116V23.293Z" fill="#113287"/>
<path d="M243.86 17.5801V16.1562H243.175V17.5801C243.166 19.061 242.203 20.5552 241.039 21.0869L241.478 21.667C242.392 21.2056 243.161 20.2168 243.522 19.0391C243.895 20.1509 244.664 21.0781 245.556 21.5088L245.978 20.9639C244.827 20.4409 243.856 19.0083 243.86 17.5801ZM246.831 23.3105H247.525V15.4795H246.831V23.3105Z" fill="#113287"/>
<path d="M255.565 21.7461H252.305V20.2695H254.845V19.6982H249.993V18.4238H254.66V16.0596H249.29V16.6309H253.983V17.8613H249.308V20.2695H251.628V21.7461H248.411V22.3262H255.565V21.7461Z" fill="#113287"/>
<path d="M258.559 15.8135H257.882V19.2148H261.521V15.8135H260.835V16.9385H258.559V15.8135ZM258.559 18.6523V17.4746H260.835V18.6523H258.559ZM258.673 20.4453H262.971V21.2539H258.691V23.2051H263.947V22.6426H259.368V21.7812H263.657V19.8916H258.673V20.4453ZM262.971 19.5225H263.657V17.7559H264.834V17.1758H263.657V15.4795H262.971V19.5225Z" fill="#113287"/>
<path d="M271.354 15.4883H270.66V17.6504H269.051V18.2217H270.66V21.2188H271.354V15.4883ZM264.912 19.6543L265.272 20.2168C266.199 19.8696 266.92 19.1533 267.258 18.248C267.597 19.0566 268.278 19.7114 269.157 20.0322L269.517 19.4785C268.375 19.0874 267.592 18.1074 267.592 17.0967V16.6924H269.341V16.1211H265.132V16.6924H266.898V17.0967C266.898 18.2173 266.063 19.25 264.912 19.6543ZM266.336 23.126H271.574V22.5459H267.03V20.7002H266.336V23.126Z" fill="#113287"/>
<path d="M278.313 15.4531H277.628V19.7773H278.313V17.9229H279.5V17.3516H278.313V15.4531ZM272.223 16.7451H276.881V16.1914H274.894V15.4004H274.209V16.1914H272.223V16.7451ZM272.671 18.3799C272.666 19.1753 273.413 19.6587 274.552 19.6631C275.685 19.6587 276.424 19.1753 276.432 18.3799C276.424 17.5889 275.685 17.1011 274.552 17.0967C273.413 17.1011 272.666 17.5889 272.671 18.3799ZM273.33 20.7002H277.628V21.4033H273.348V23.2051H278.603V22.6777H274.024V21.9131H278.313V20.1816H273.33V20.7002ZM273.33 18.3799C273.326 17.9141 273.809 17.6108 274.552 17.6064C275.29 17.6108 275.773 17.9141 275.782 18.3799C275.773 18.8501 275.29 19.1445 274.552 19.1445C273.809 19.1445 273.326 18.8501 273.33 18.3799Z" fill="#113287"/>
<path d="M285.262 16.209V15.7607H284.55V16.209C284.55 17.3296 283.122 18.2612 281.711 18.459L281.992 19.0215C283.21 18.8193 284.409 18.1558 284.91 17.189C285.411 18.147 286.615 18.8193 287.828 19.0215L288.11 18.459C286.699 18.2612 285.266 17.312 285.262 16.209ZM281.342 20.4629H284.55V23.293H285.227V20.4629H288.461V19.8828H281.342V20.4629Z" fill="#113287"/>
<path d="M293.125 20.7266V20.2959H292.457V20.7266C292.448 21.4736 291.855 22.3086 290.866 22.6777L291.217 23.1875C291.965 22.9062 292.501 22.3613 292.782 21.7329C293.015 22.3877 293.498 22.959 294.258 23.249C294.979 22.9458 295.458 22.3438 295.7 21.7109C295.972 22.3657 296.517 22.9106 297.299 23.1875L297.642 22.6777C296.64 22.3306 296.047 21.5308 296.051 20.7266V20.2959H295.375V20.7266C295.379 21.3286 294.984 22.1108 294.236 22.5723C293.494 22.1504 293.12 21.4165 293.125 20.7266ZM290.664 17.7734C290.659 18.8457 291.525 19.584 292.712 19.584C293.898 19.584 294.755 18.8457 294.759 17.7734C294.755 16.6836 293.898 15.9409 292.712 15.9453C291.525 15.9409 290.659 16.6836 290.664 17.7734ZM291.34 17.7734C291.332 17.0439 291.907 16.5254 292.712 16.5342C293.507 16.5254 294.083 17.0439 294.083 17.7734C294.083 18.4985 293.507 19.0083 292.712 19.0127C291.907 19.0083 291.332 18.4985 291.34 17.7734ZM296.245 19.9531H296.93V15.4883H296.245V19.9531Z" fill="#113287"/>
<path d="M299.908 16.0859C298.752 16.0903 297.944 17.1494 297.948 18.8105C297.944 20.4761 298.752 21.5308 299.908 21.5264C300.998 21.5308 301.78 20.5728 301.855 19.0391H303.599V23.3105H304.285V15.4795H303.599V18.4678H301.846C301.741 17.0044 300.972 16.0903 299.908 16.0859ZM298.607 18.8105C298.612 17.5405 299.139 16.7056 299.908 16.7012C300.673 16.7056 301.209 17.5405 301.209 18.8105C301.209 20.0806 300.673 20.9155 299.908 20.9111C299.139 20.9155 298.612 20.0806 298.607 18.8105Z" fill="#113287"/>
<path d="M55.3577 26.4795H54.6633V28.5186H53.0901V29.0898H54.6633V31.1377H55.3577V26.4795ZM48.9153 30.5137L49.2756 31.0674C50.2073 30.7114 50.9324 29.9819 51.2664 29.0679C51.6047 29.8721 52.2859 30.5312 53.1604 30.8477L53.5208 30.2939C52.3782 29.9028 51.5959 28.9316 51.5959 27.9121V27.6309H53.345V27.0508H49.135V27.6309H50.9016V27.9209C50.9016 29.0371 50.0754 30.0962 48.9153 30.5137ZM50.1458 32.834C50.1414 33.7568 51.1389 34.2842 52.7649 34.293C54.3865 34.2842 55.384 33.7568 55.384 32.834C55.384 31.9155 54.3865 31.3794 52.7649 31.3838C51.1389 31.3794 50.1414 31.9155 50.1458 32.834ZM50.8313 32.834C50.8269 32.2627 51.5652 31.9199 52.7649 31.9199C53.9602 31.9199 54.6985 32.2627 54.6985 32.834C54.6985 33.4009 53.9602 33.7437 52.7649 33.7393C51.5652 33.7437 50.8269 33.4009 50.8313 32.834Z" fill="#113287"/>
<path d="M62.6684 26.4795H61.9741V34.293H62.6684V26.4795ZM56.3051 32.2627L56.6831 32.8252C59.3022 31.5684 60.3481 29.5776 60.3569 27.332H56.6655V27.8945H59.6538C59.5 29.7622 58.4189 31.2607 56.3051 32.2627Z" fill="#113287"/>
<path d="M66.2526 27.9209V27.5869H68.0016V27.0244H63.7917V27.5869H65.5583V27.9297C65.5583 29.0327 64.7233 30.0742 63.5719 30.4873L63.9323 31.0322C64.8595 30.6895 65.5846 29.9688 65.923 29.0723C66.257 29.8765 66.9381 30.5312 67.817 30.8477L68.1774 30.3027C67.0348 29.9072 66.2526 28.936 66.2526 27.9209ZM64.7584 32.1484H69.32V34.293H70.0143V31.5771H64.7584V32.1484ZM67.7555 29.1074H69.32V31.1641H70.0143V26.4795H69.32V28.5273H67.7555V29.1074Z" fill="#113287"/>
<path d="M77.3163 26.4883H76.6307V32.2012H77.3163V26.4883ZM71.0497 28.9492C71.0453 30.0874 71.9286 30.8784 73.0975 30.874C74.2665 30.8784 75.141 30.0874 75.1454 28.9492C75.141 27.8242 74.2665 27.0376 73.0975 27.0332C71.9286 27.0376 71.0453 27.8242 71.0497 28.9492ZM71.7264 28.9492C71.7176 28.1846 72.3065 27.6396 73.0975 27.6396C73.8753 27.6396 74.4686 28.1846 74.4686 28.9492C74.4686 29.7271 73.8753 30.2676 73.0975 30.2676C72.3065 30.2676 71.7176 29.7271 71.7264 28.9492ZM72.2713 34.126H77.5624V33.5459H72.9569V31.6211H72.2713V34.126Z" fill="#113287"/>
<path d="M82.7795 28.5801V27.1562H82.094V28.5801C82.0852 30.061 81.1228 31.5552 79.9583 32.0869L80.3977 32.667C81.3118 32.2056 82.0808 31.2168 82.4412 30.0391C82.8147 31.1509 83.5837 32.0781 84.4758 32.5088L84.8977 31.9639C83.7463 31.4409 82.7751 30.0083 82.7795 28.5801ZM85.7502 34.3105H86.4446V26.4795H85.7502V34.3105Z" fill="#113287"/>
<path d="M91.0395 26.9629H87.6469V27.5166H90.354V28.624H87.6645V30.9268H88.2182C89.8002 30.9268 90.5957 30.9004 91.5668 30.7422L91.4965 30.1709C90.5781 30.3379 89.8178 30.3687 88.35 30.3643V29.1514H91.0395V26.9629ZM88.5434 32.2715H93.1137V34.3105H93.8081V31.709H88.5434V32.2715ZM91.5581 29.8369H93.1137V31.2871H93.8081V26.4883H93.1137V27.6484H91.5581V28.2109H93.1137V29.2656H91.5581V29.8369Z" fill="#113287"/>
<path d="M100.502 26.9893H96.9598V27.5605H99.7679C99.6185 28.8877 98.4232 29.9248 96.5555 30.4521L96.8456 30.9971C99.0956 30.3555 100.497 28.9492 100.502 26.9893ZM97.8739 34.1875H102.945V31.2783H97.8739V34.1875ZM98.5418 33.625V31.832H102.26V33.625H98.5418ZM100.519 29.0811H102.251V30.9443H102.945V26.4883H102.251V28.501H100.519V29.0811Z" fill="#113287"/>
<path d="M106.415 28.5801V27.1562H105.738V28.5801C105.73 30.0083 104.824 31.5068 103.682 32.0693L104.121 32.623C105 32.1528 105.738 31.1641 106.085 30.0127C106.433 31.0981 107.153 32.0254 108.015 32.4736L108.437 31.9199C107.325 31.375 106.415 29.9556 106.415 28.5801ZM109.157 34.293H109.843V30.25H111.152V29.6523H109.843V26.4795H109.157V34.293Z" fill="#113287"/>
<path d="M118.27 30.1094H111.115V30.6543H118.27V30.1094ZM111.977 31.7969H116.688V32.4648H111.986V34.1875H117.628V33.6865H112.68V32.9395H117.373V31.2783H111.977V31.7969ZM112.021 27.2178H116.653V27.8594H112.047V29.5205H117.488V29.0195H112.733V28.334H117.347V26.7168H112.021V27.2178Z" fill="#113287"/>
<path d="M126.73 26.4883H126.027V30.7334H124.304V31.2959H126.027V32.3945H126.73V26.4883ZM120.209 29.582L120.305 30.1533C120.938 30.1533 121.672 30.1445 122.441 30.1094V31.876H123.127V30.0742C123.874 30.0259 124.638 29.9512 125.368 29.8281L125.315 29.3271C125.025 29.3667 124.726 29.4019 124.423 29.4282C124.59 28.4307 124.59 27.7012 124.586 27.2705V26.9629H120.912V27.5254H123.9C123.896 27.9736 123.869 28.624 123.715 29.4854C122.476 29.5688 121.215 29.5776 120.209 29.582ZM121.378 34.126H126.923V33.5459H122.072V31.7354H121.378V34.126Z" fill="#113287"/>
<path d="M131.492 27.833H129.884V26.7168H129.198V27.833H127.572V28.3955H131.492V27.833ZM127.853 30.6982C127.853 31.7485 128.561 32.4868 129.532 32.4912C130.516 32.4868 131.22 31.7485 131.228 30.6982C131.22 29.6611 130.516 28.9272 129.532 28.9229C128.561 28.9272 127.853 29.6611 127.853 30.6982ZM128.469 30.6982C128.469 30.0127 128.912 29.5117 129.532 29.5029C130.156 29.5117 130.613 30.0127 130.613 30.6982C130.613 31.3926 130.156 31.8892 129.532 31.8848C128.912 31.8892 128.469 31.3926 128.469 30.6982ZM131.896 33.9062H132.547V30.3467H133.584V34.293H134.243V26.4795H133.584V29.7754H132.547V26.6729H131.896V33.9062Z" fill="#113287"/>
<path d="M141.229 30.2412H136.518V27.7803H141.149V27.209H135.832V30.8125H141.229V30.2412ZM134.918 33.2295H142.072V32.6494H134.918V33.2295Z" fill="#113287"/>
<path d="M148.698 26.4883H148.012V30.7773H148.698V26.4883ZM142.642 27.4375H145.525V28.4307H142.659V30.6191H143.292C144.734 30.6104 145.802 30.5708 147.115 30.3643L147.036 29.793C145.766 29.9995 144.725 30.0303 143.327 30.0391V28.9756H146.21V26.8662H142.642V27.4375ZM143.617 34.1875H148.698V31.1729H148.012V32.1045H144.312V31.1729H143.617V34.1875ZM144.312 33.625V32.6582H148.012V33.625H144.312Z" fill="#113287"/>
<path d="M156.017 26.4795H155.331V34.293H156.017V26.4795ZM150.084 32.2803H150.717C151.97 32.2803 153.205 32.1836 154.593 31.8936L154.497 31.3047C153.187 31.5815 151.956 31.6738 150.761 31.6826V27.2529H150.084V32.2803Z" fill="#113287"/>
<path d="M162.95 26.4795H162.264V34.3105H162.95V30.1533H164.259V29.5732H162.95V26.4795ZM157.246 32.3506H157.861C159.346 32.3506 160.37 32.3066 161.596 32.0869L161.508 31.4893C160.344 31.7046 159.346 31.7661 157.931 31.7705V27.8154H160.893V27.2441H157.246V32.3506Z" fill="#113287"/>
<path d="M165.057 33.6338C165.369 33.6294 165.624 33.3745 165.62 33.0625C165.624 32.7549 165.369 32.5 165.057 32.5C164.75 32.5 164.486 32.7549 164.495 33.0625C164.486 33.3745 164.75 33.6294 165.057 33.6338Z" fill="#113287"/>
<rect x="0.33252" y="1.10547" width="322.5" height="47.5" rx="3.75" stroke="#113287" stroke-width="0.5"/>
<path d="M23.1513 28.3311C23.708 28.3311 24.1508 28.8168 24.1508 29.4135C24.1508 30.0241 23.708 30.5098 23.1513 30.5098C22.582 30.5098 22.1392 30.0102 22.1392 29.4135C22.1392 28.8168 22.582 28.3311 23.1513 28.3311Z" fill="#113287"/>
<path d="M24.0985 21.6148V26.2777C24.0985 26.8605 23.6683 27.3046 23.1496 27.3046C22.6182 27.3046 22.2007 26.8466 22.2007 26.2777V21.6148C22.2007 21.0459 22.6182 20.5879 23.1496 20.5879C23.6683 20.5879 24.0985 21.0597 24.0985 21.6148Z" fill="#113287"/>
<path d="M19.6086 16.6613C20.38 15.1901 21.7837 14.4267 23.1495 14.4406C24.5154 14.4267 25.9065 15.1901 26.6905 16.6613L33.0263 28.5974C33.4057 29.3191 33.5828 30.0825 33.5828 30.832C33.5828 31.9978 33.1528 33.1081 32.432 33.927C31.7111 34.732 30.6615 35.2872 29.4854 35.2733H16.8137C15.625 35.2872 14.588 34.732 13.8671 33.927C13.1336 33.1081 12.7163 31.9978 12.7163 30.832C12.7163 30.0825 12.8934 29.3191 13.2728 28.5974H13.2601L19.6086 16.6613ZM23.1495 16.5086C22.3908 16.5086 21.6826 16.8972 21.2526 17.6883L14.9041 29.6244V29.6383C14.7018 30.027 14.6133 30.4156 14.6133 30.8181C14.6133 31.4287 14.8409 32.0394 15.2329 32.4836C15.625 32.9277 16.1561 33.2053 16.8137 33.2053H29.4854C30.143 33.2053 30.6615 32.9277 31.0662 32.4836C31.4582 32.0394 31.6858 31.4287 31.6858 30.8181C31.6858 30.4156 31.5973 30.0269 31.3823 29.6244L25.0465 17.6883C24.6165 16.8834 23.8957 16.5086 23.1495 16.5086Z" fill="#113287"/>
</svg>
