<svg width="357" height="60" viewBox="0 0 357 60" fill="none" xmlns="http://www.w3.org/2000/svg">
<path d="M60.476 19.3511H57.2416V17.4526H56.5472V19.3511H53.3217V19.9312H60.476V19.3511ZM53.6732 17.1714L53.9633 17.7251C55.1366 17.4834 56.3934 16.7056 56.8944 15.6113C57.3954 16.6924 58.6566 17.4526 59.8519 17.6899L60.1332 17.145C58.7841 16.9253 57.246 15.853 57.2416 14.605V14.4116H59.8607V13.8315H53.9105V14.4116H56.5297V14.605C56.5297 15.853 54.996 16.9473 53.6732 17.1714Z" fill="#113287"/>
<path d="M63.357 14.3325V14.104H65.106V13.5327H60.8961V14.104H62.6627V14.3237C62.6627 15.3345 61.8233 16.3101 60.6851 16.7056L61.0279 17.2505C61.942 16.9341 62.6671 16.2485 63.0142 15.4092C63.3526 16.1694 64.0426 16.7759 64.9302 17.0659L65.273 16.521C64.1436 16.1606 63.3526 15.2598 63.357 14.3325ZM62.0562 18.1118H66.4332V18.894H62.0738V20.8452H67.4176V20.2915H62.7594V19.4214H67.1187V17.5493H62.0562V18.1118ZM64.8599 15.4399H66.4332V17.1626H67.1187V13.1196H66.4332V14.8687H64.8599V15.4399Z" fill="#113287"/>
<path d="M74.0867 13.1284H73.4011V18.8677H74.0867V16.0728H75.2644V15.4927H74.0867V13.1284ZM68.3123 17.5493H71.951V13.6909H71.2654V15.0093H68.989V13.6909H68.3123V17.5493ZM68.989 16.9868V15.5542H71.2654V16.9868H68.989ZM69.2 20.7661H74.447V20.186H69.8767V18.3052H69.2V20.7661Z" fill="#113287"/>
<path d="M82.4258 16.9253H75.3066V17.4878H82.4258V16.9253ZM76.0976 14.8071C76.0976 15.7388 77.1655 16.2881 78.8662 16.2837C80.5581 16.2881 81.6216 15.7388 81.626 14.8071C81.6216 13.8799 80.5581 13.3218 78.8662 13.3218C77.1655 13.3218 76.0976 13.8799 76.0976 14.8071ZM76.1679 19.5356C76.1635 20.4409 77.1699 20.9375 78.8662 20.9331C80.5405 20.9375 81.5469 20.4409 81.5556 19.5356C81.5469 18.6436 80.5405 18.147 78.8662 18.1558C77.1699 18.147 76.1635 18.6436 76.1679 19.5356ZM76.8095 14.8071C76.8052 14.2227 77.6006 13.8755 78.8662 13.8843C80.1186 13.8755 80.9184 14.2227 80.9228 14.8071C80.9184 15.3916 80.1186 15.7388 78.8662 15.7388C77.6006 15.7388 76.8052 15.3916 76.8095 14.8071ZM76.8711 19.5356C76.8623 18.9907 77.6137 18.6787 78.8662 18.6831C80.1054 18.6787 80.8569 18.9907 80.8613 19.5356C80.8569 20.0762 80.1054 20.3882 78.8662 20.3794C77.6137 20.3882 76.8623 20.0762 76.8711 19.5356Z" fill="#113287"/>
<path d="M86.9679 13.9897H82.9953V14.5522H86.2736C86.278 15.1763 86.2604 16.1255 86.0451 17.4351L86.7394 17.4966C86.9636 16.0464 86.9636 15.0137 86.9679 14.394V13.9897ZM82.5558 18.6392L82.6437 19.2104C84.0412 19.2192 85.8781 19.1841 87.5217 18.9292L87.4865 18.4106C86.6735 18.5073 85.7858 18.5645 84.9201 18.5952V16.2222H84.2433V18.6172C83.6413 18.6304 83.07 18.6348 82.5558 18.6392ZM87.9787 20.9331H88.6642V16.9868H89.9299V16.3892H88.6642V13.1196H87.9787V20.9331Z" fill="#113287"/>
<path d="M97.8189 13.1196H97.1334V20.9331H97.8189V16.8813H99.0845V16.3013H97.8189V13.1196ZM91.8248 18.9028L92.2115 19.4478C94.7559 18.1909 95.793 16.1738 95.7974 13.9634H92.1851V14.5435H95.0987C94.9405 16.3936 93.8419 17.9009 91.8248 18.9028Z" fill="#113287"/>
<path d="M105.552 13.1196H104.866V17.312H105.552V13.1196ZM99.2849 15.2993C99.2805 16.3628 100.146 17.0967 101.333 17.0923C102.519 17.0967 103.376 16.3628 103.381 15.2993C103.376 14.2314 102.519 13.4976 101.333 13.5063C100.146 13.4976 99.2805 14.2314 99.2849 15.2993ZM99.9617 15.2993C99.9529 14.583 100.529 14.082 101.333 14.0864C102.128 14.082 102.704 14.583 102.704 15.2993C102.704 16.0112 102.128 16.5166 101.333 16.521C100.529 16.5166 99.9529 16.0112 99.9617 15.2993ZM100.489 20.8276H105.552V17.7075H104.866V18.6567H101.175V17.7075H100.489V20.8276ZM101.175 20.2651V19.2104H104.866V20.2651H101.175Z" fill="#113287"/>
<path d="M112.739 16.7847H108.037V14.3237H112.66V13.7612H107.343V17.3472H109.645V19.3687H106.429V19.9487H113.583V19.3687H110.322V17.3472H112.739V16.7847Z" fill="#113287"/>
<path d="M120.076 15.4927H115.409V13.4097H114.724V16.0464H120.076V15.4927ZM113.748 17.6724H120.903V17.1099H113.748V17.6724ZM114.68 20.7397H120.12V20.1685H115.365V18.4722H114.68V20.7397Z" fill="#113287"/>
<path d="M129.372 13.1284H128.677V14.3501H126.647C126.282 13.8975 125.711 13.625 125.047 13.6206C123.878 13.625 123.013 14.4336 123.017 15.5806C123.013 16.7231 123.878 17.5317 125.047 17.5317C125.715 17.5317 126.295 17.2549 126.656 16.7935H128.677V18.9028H129.372V13.1284ZM123.676 15.5806C123.676 14.8027 124.248 14.2402 125.047 14.2358C125.816 14.2402 126.401 14.8027 126.401 15.5806C126.401 16.3628 125.816 16.9209 125.047 16.9165C124.248 16.9209 123.676 16.3628 123.676 15.5806ZM124.353 20.7661H129.591V20.186H125.047V18.2964H124.353V20.7661ZM126.959 14.9214H128.677V16.2222H126.963C127.029 16.0244 127.069 15.8091 127.069 15.5806C127.069 15.3433 127.029 15.1235 126.959 14.9214Z" fill="#113287"/>
<path d="M133.931 13.5679H130.539V14.1392H133.246V15.2026H130.556V17.5142H131.11C132.692 17.5229 133.488 17.4922 134.459 17.3208L134.388 16.7495C133.47 16.9209 132.71 16.9517 131.242 16.9517V15.7563H133.931V13.5679ZM131.488 19.5444C131.484 20.4585 132.481 20.9814 134.116 20.9771C135.742 20.9814 136.731 20.4585 136.726 19.5444C136.731 18.6304 135.742 18.0942 134.116 18.0942C132.481 18.0942 131.484 18.6304 131.488 19.5444ZM132.191 19.5444C132.182 18.9731 132.907 18.6436 134.116 18.6392C135.307 18.6436 136.054 18.9731 136.05 19.5444C136.054 20.1113 135.307 20.4321 134.116 20.4321C132.907 20.4321 132.182 20.1113 132.191 19.5444ZM134.459 16.521H136.006V17.9624H136.7V13.1284H136.006V14.3589H134.459V14.9214H136.006V15.9409H134.459V16.521Z" fill="#113287"/>
<path d="M141.884 13.9897H137.911V14.5522H141.189C141.194 15.1763 141.176 16.1255 140.961 17.4351L141.655 17.4966C141.879 16.0464 141.879 15.0137 141.884 14.394V13.9897ZM137.472 18.6392L137.56 19.2104C138.957 19.2192 140.794 19.1841 142.437 18.9292L142.402 18.4106C141.589 18.5073 140.702 18.5645 139.836 18.5952V16.2222H139.159V18.6172C138.557 18.6304 137.986 18.6348 137.472 18.6392ZM142.895 20.9331H143.58V16.9868H144.846V16.3892H143.58V13.1196H142.895V20.9331Z" fill="#113287"/>
<path d="M149.017 14.6753V13.6118H148.358V14.6753C148.353 15.5454 147.725 16.5562 146.697 17.0044L147.075 17.5405C147.844 17.2065 148.406 16.543 148.692 15.8003C148.973 16.4727 149.514 17.0308 150.265 17.3208L150.625 16.7935C149.623 16.4155 149.021 15.541 149.017 14.6753ZM148.12 19.5269C148.112 20.4014 149.114 20.9155 150.74 20.9155C152.357 20.9155 153.363 20.4014 153.368 19.5269C153.363 18.6436 152.357 18.125 150.74 18.1294C149.114 18.125 148.112 18.6436 148.12 19.5269ZM148.806 19.5269C148.797 18.9863 149.54 18.6611 150.74 18.6567C151.926 18.6611 152.673 18.9863 152.682 19.5269C152.673 20.0586 151.926 20.3838 150.74 20.3794C149.54 20.3838 148.797 20.0586 148.806 19.5269ZM150.977 17.7075H151.627V15.8003H152.664V17.9536H153.324V13.1284H152.664V15.229H151.627V13.2778H150.977V17.7075Z" fill="#113287"/>
<path d="M160.116 13.1196H159.421V17.7339H160.116V15.7124H161.285V15.1235H160.116V13.1196ZM153.981 17.0308L154.06 17.5493C155.436 17.5493 157.312 17.5361 159 17.2593L158.938 16.7935C158.253 16.8901 157.514 16.9473 156.785 16.9824V16.5254C157.694 16.4463 158.261 16.0815 158.27 15.4927C158.261 14.8511 157.545 14.4775 156.433 14.4819C155.321 14.4775 154.601 14.8511 154.605 15.4927C154.601 16.0859 155.181 16.4507 156.099 16.5254V17.0088C155.335 17.0308 154.605 17.0308 153.981 17.0308ZM154.174 14.2183H158.701V13.7173H156.785V13.0493H156.099V13.7173H154.174V14.2183ZM155.027 18.5776H159.43V19.1929H155.045V20.8452H160.415V20.353H155.73V19.6587H160.116V18.0854H155.027V18.5776ZM155.264 15.4927C155.26 15.1499 155.712 14.9434 156.433 14.939C157.154 14.9434 157.611 15.1499 157.611 15.4927C157.611 15.8442 157.154 16.0684 156.433 16.0728C155.712 16.0684 155.26 15.8442 155.264 15.4927Z" fill="#113287"/>
<path d="M164.744 17.813H164.059V20.8276H169.341V17.813H168.646V18.7271H164.744V17.813ZM163.153 17.2593H170.272V16.688H163.153V17.2593ZM163.558 15.5806L163.821 16.1343C165.025 15.9541 166.221 15.3433 166.717 14.4644C167.214 15.3389 168.405 15.9541 169.613 16.1343L169.868 15.5806C168.493 15.4048 167.069 14.5391 167.073 13.5767V13.2075H166.361V13.5767C166.361 14.5698 164.951 15.3916 163.558 15.5806ZM164.744 20.2739V19.272H168.646V20.2739H164.744Z" fill="#113287"/>
<path d="M174.815 13.7261H170.921V14.3062H174.133C174.125 14.8027 174.107 15.4663 173.918 16.3979L174.612 16.4507C174.81 15.4312 174.81 14.6533 174.815 14.1392V13.7261ZM170.438 17.1802L170.508 17.7515C171.901 17.7471 173.782 17.7163 175.421 17.4351L175.377 16.9253C174.564 17.0396 173.668 17.1011 172.802 17.1362V15.4575H172.116V17.1582C171.514 17.1758 170.943 17.1802 170.438 17.1802ZM171.642 20.7661H176.862V20.186H172.336V18.4722H171.642V20.7661ZM175.904 18.9995H176.608V16.2573H177.75V15.6685H176.608V13.1196H175.904V18.9995Z" fill="#113287"/>
<path d="M186.747 16.8374H179.619V17.4175H186.747V16.8374ZM180.48 19.5093C180.476 20.4146 181.491 20.9155 183.178 20.9155C184.853 20.9155 185.859 20.4146 185.868 19.5093C185.859 18.6128 184.853 18.103 183.178 18.103C181.491 18.103 180.476 18.6128 180.48 19.5093ZM180.524 16.0903H185.912V15.5278H181.201V14.0161H185.859V13.436H180.524V16.0903ZM181.183 19.5093C181.174 18.9644 181.926 18.6479 183.178 18.6392C184.418 18.6479 185.169 18.9644 185.173 19.5093C185.169 20.0586 184.418 20.3706 183.178 20.3706C181.926 20.3706 181.174 20.0586 181.183 19.5093Z" fill="#113287"/>
<path d="M193.644 13.1196H192.976V20.9331H193.644V13.1196ZM187.044 16.4946C187.048 18.1558 187.707 19.2148 188.722 19.2104C189.685 19.2148 190.34 18.2612 190.406 16.7407H191.412V20.5376H192.071V13.2866H191.412V16.1694H190.401C190.313 14.6973 189.672 13.7832 188.722 13.7788C187.707 13.7832 187.048 14.8335 187.044 16.4946ZM187.694 16.4946C187.685 15.2246 188.09 14.4292 188.722 14.4292C189.36 14.4292 189.764 15.2246 189.76 16.4946C189.764 17.7603 189.36 18.5601 188.722 18.5513C188.09 18.5601 187.685 17.7603 187.694 16.4946Z" fill="#113287"/>
<path d="M202.263 13.1108H201.577V20.9331H202.263V16.7847H203.405V16.1958H202.263V13.1108ZM196.321 18.8853H196.664C197.13 18.8853 197.719 18.8721 198.457 18.7183L198.387 18.1382C197.868 18.2524 197.394 18.2876 197.007 18.3008V14.5171H198.308V13.9458H196.321V18.8853ZM198.756 18.8853H199.134C199.925 18.8853 200.479 18.8677 201.164 18.7007L201.094 18.1206C200.54 18.2612 200.052 18.2964 199.442 18.3052V14.5171H200.839V13.9458H198.756V18.8853Z" fill="#113287"/>
<path d="M209.459 13.1196H208.774V20.9507H209.459V16.811H210.769V16.231H209.459V13.1196ZM203.72 14.4204H206.585V16.0728H203.738V19.061H204.362C205.869 19.0522 206.911 18.9951 208.141 18.771L208.071 18.1997C206.889 18.4194 205.873 18.4766 204.423 18.4722V16.644H207.271V13.8491H203.72V14.4204Z" fill="#113287"/>
<path d="M215.345 15.519V14.4995H217.208V13.9282H212.804V14.4995H214.65V15.519C214.646 16.8726 213.67 18.3491 212.55 18.8853L212.963 19.4302C213.855 18.9819 214.646 17.9888 215.011 16.8418C215.375 17.9229 216.162 18.8237 217.076 19.2368L217.463 18.6919C216.311 18.1953 215.349 16.8462 215.345 15.519ZM218.298 20.9331H218.992V13.1196H218.298V20.9331Z" fill="#113287"/>
<path d="M227.023 17.0483H223.771V15.8442H223.095V17.0483H219.878V17.6196H227.023V17.0483ZM220.309 15.7124L220.572 16.2661C221.772 16.0596 222.945 15.4399 223.437 14.5303C223.925 15.4312 225.103 16.0596 226.285 16.2661L226.566 15.7124C225.186 15.5234 223.78 14.6533 223.78 13.6118V13.2427H223.086V13.6118C223.086 14.6533 221.688 15.5234 220.309 15.7124ZM220.669 18.938H225.424V20.9331H226.118V18.3843H220.669V18.938Z" fill="#113287"/>
<path d="M229.922 14.561V14.2271H231.671V13.6646H227.461V14.2271H229.228V14.5698C229.228 15.6729 228.393 16.7144 227.241 17.1274L227.602 17.6724C228.529 17.3296 229.254 16.6089 229.592 15.7124C229.926 16.5166 230.608 17.1714 231.486 17.4878L231.847 16.9429C230.704 16.5474 229.922 15.5762 229.922 14.561ZM228.428 18.7886H232.989V20.9331H233.684V18.2173H228.428V18.7886ZM231.425 15.7476H232.989V17.8042H233.684V13.1196H232.989V15.1675H231.425V15.7476Z" fill="#113287"/>
<path d="M238.094 13.6294C236.464 13.6338 235.238 14.4863 235.238 15.7739C235.238 17.0747 236.464 17.9272 238.094 17.9185C239.724 17.9272 240.951 17.0747 240.951 15.7739C240.951 14.4863 239.724 13.6338 238.094 13.6294ZM234.535 19.896H241.689V19.3159H234.535V19.896ZM235.897 15.7739C235.888 14.8379 236.833 14.1875 238.094 14.1919C239.347 14.1875 240.283 14.8379 240.283 15.7739C240.283 16.7231 239.347 17.356 238.094 17.356C236.833 17.356 235.888 16.7231 235.897 15.7739Z" fill="#113287"/>
<path d="M249.017 19.3862H245.756V17.9097H248.296V17.3384H243.445V16.064H248.112V13.6997H242.742V14.271H247.435V15.5015H242.759V17.9097H245.08V19.3862H241.863V19.9663H249.017V19.3862Z" fill="#113287"/>
<path d="M257.478 13.1284H256.783V14.561H254.937V13.647H254.261V15.0356H252.081V13.647H251.395V17.5757H254.937V16.811H256.783V18.9116H257.478V13.1284ZM252.081 17.0044V15.5806H254.261V17.0044H252.081ZM252.424 20.7661H257.653V20.186H253.118V18.3403H252.424V20.7661ZM254.937 16.2397V15.1411H256.783V16.2397H254.937Z" fill="#113287"/>
<path d="M264.393 13.1196H263.698V20.9331H264.393V17.0308H265.641V16.4507H264.393V13.1196ZM258.232 18.8501L258.346 19.439C259.717 19.439 261.563 19.4214 263.268 19.1313L263.224 18.604C262.543 18.7007 261.804 18.7622 261.079 18.7974V17.9624C261.985 17.8569 262.587 17.3252 262.591 16.5474C262.587 15.6641 261.826 15.0928 260.736 15.0972C259.629 15.0928 258.882 15.6641 258.891 16.5474C258.882 17.3208 259.475 17.8569 260.385 17.9624V18.8237C259.611 18.8457 258.869 18.8501 258.232 18.8501ZM258.372 14.6401H263.083V14.0776H261.079V13.1372H260.385V14.0776H258.372V14.6401ZM259.532 16.5474C259.537 16.0024 260.011 15.6333 260.736 15.6333C261.448 15.6333 261.927 16.0024 261.932 16.5474C261.927 17.0879 261.448 17.4438 260.736 17.4351C260.011 17.4438 259.537 17.0879 259.532 16.5474Z" fill="#113287"/>
<path d="M271.703 13.1196H271.018V20.9331H271.703V16.9165H273.013V16.3452H271.703V13.1196ZM265.613 14.9478H270.262V14.3765H268.311V13.2163H267.625V14.3765H265.613V14.9478ZM266.061 17.3911C266.057 18.4502 266.865 19.1841 267.977 19.1841C269.08 19.1841 269.884 18.4502 269.893 17.3911C269.884 16.3364 269.08 15.5981 267.977 15.5981C266.865 15.5981 266.057 16.3364 266.061 17.3911ZM266.72 17.3911C266.716 16.6836 267.247 16.1738 267.977 16.1782C268.698 16.1738 269.225 16.6836 269.234 17.3911C269.225 18.103 268.698 18.604 267.977 18.5952C267.247 18.604 266.716 18.103 266.72 17.3911Z" fill="#113287"/>
<path d="M279.445 13.1196H278.751V20.9331H279.445V13.1196ZM273.082 18.9028L273.46 19.4653C276.079 18.2085 277.125 16.2178 277.133 13.9722H273.442V14.5347H276.43C276.276 16.4023 275.195 17.9009 273.082 18.9028Z" fill="#113287"/>
<path d="M287.299 13.2954H286.657V20.5464H287.299V16.8901H288.248V20.9331H288.907V13.1196H288.248V16.3188H287.299V13.2954ZM282.359 18.894H282.667C283.001 18.8984 283.511 18.8896 284.17 18.7446L284.108 18.1558C283.682 18.2612 283.295 18.2964 283.001 18.3096V14.6841H284.056V14.1128H282.359V18.894ZM284.398 18.894H284.715C285.167 18.8984 285.708 18.8896 286.358 18.7183L286.297 18.1294C285.827 18.2656 285.392 18.3008 285.022 18.3096V14.6841H286.13V14.1128H284.398V18.894Z" fill="#113287"/>
<path d="M296.596 17.1187H289.442V17.6899H292.729V19.2896H293.414V17.6899H296.596V17.1187ZM290.356 20.7661H295.796V20.186H291.05V18.5161H290.356V20.7661ZM290.373 16.2222H295.664V13.5063H290.373V16.2222ZM291.05 15.6685V14.0513H294.979V15.6685H291.05Z" fill="#113287"/>
<path d="M303.476 13.1196H302.808V20.9331H303.476V13.1196ZM296.875 16.4946C296.88 18.1558 297.539 19.2148 298.554 19.2104C299.516 19.2148 300.171 18.2612 300.237 16.7407H301.244V20.5376H301.903V13.2866H301.244V16.1694H300.233C300.145 14.6973 299.503 13.7832 298.554 13.7788C297.539 13.7832 296.88 14.8335 296.875 16.4946ZM297.526 16.4946C297.517 15.2246 297.921 14.4292 298.554 14.4292C299.191 14.4292 299.596 15.2246 299.591 16.4946C299.596 17.7603 299.191 18.5601 298.554 18.5513C297.921 18.5601 297.517 17.7603 297.526 16.4946Z" fill="#113287"/>
<path d="M309.862 14.2271V14.1743H312.358V13.6118H306.584V14.1743H309.089V14.2271C309.084 15.2729 307.696 16.1606 306.338 16.3628L306.61 16.9077C307.81 16.7012 309.001 16.0508 309.475 15.1104C309.95 16.0508 311.141 16.7012 312.358 16.9077L312.613 16.3628C311.251 16.1606 309.858 15.2729 309.862 14.2271ZM305.916 18.147H309.124V20.9331H309.801V18.147H313.035V17.5757H305.916V18.147Z" fill="#113287"/>
<path d="M319.704 13.1196H319.01V20.9331H319.704V13.1196ZM313.341 18.9028L313.719 19.4653C316.338 18.2085 317.384 16.2178 317.393 13.9722H313.701V14.5347H316.689C316.536 16.4023 315.455 17.9009 313.341 18.9028Z" fill="#113287"/>
<path d="M323.288 14.561V14.2271H325.037V13.6646H320.827V14.2271H322.594V14.5698C322.594 15.6729 321.759 16.7144 320.608 17.1274L320.968 17.6724C321.895 17.3296 322.62 16.6089 322.959 15.7124C323.293 16.5166 323.974 17.1714 324.853 17.4878L325.213 16.9429C324.07 16.5474 323.288 15.5762 323.288 14.561ZM321.794 18.7886H326.356V20.9331H327.05V18.2173H321.794V18.7886ZM324.791 15.7476H326.356V17.8042H327.05V13.1196H326.356V15.1675H324.791V15.7476Z" fill="#113287"/>
<path d="M334.352 13.1284H333.666V18.8413H334.352V13.1284ZM328.085 15.5894C328.081 16.7275 328.964 17.5186 330.133 17.5142C331.302 17.5186 332.177 16.7275 332.181 15.5894C332.177 14.4644 331.302 13.6777 330.133 13.6733C328.964 13.6777 328.081 14.4644 328.085 15.5894ZM328.762 15.5894C328.753 14.8247 329.342 14.2798 330.133 14.2798C330.911 14.2798 331.504 14.8247 331.504 15.5894C331.504 16.3672 330.911 16.9077 330.133 16.9077C329.342 16.9077 328.753 16.3672 328.762 15.5894ZM329.307 20.7661H334.598V20.186H329.993V18.2612H329.307V20.7661Z" fill="#113287"/>
<path d="M57.3558 26.6294H53.8138V27.2007H56.6219C56.4725 28.5278 55.2772 29.5649 53.4095 30.0923L53.6996 30.6372C55.9496 29.9956 57.3514 28.5894 57.3558 26.6294ZM54.7279 33.8276H59.7992V30.9185H54.7279V33.8276ZM55.3959 33.2651V31.4722H59.1136V33.2651H55.3959ZM57.3734 28.7212H59.1049V30.5845H59.7992V26.1284H59.1049V28.1411H57.3734V28.7212Z" fill="#113287"/>
<path d="M66.7584 26.1196H66.0728V31.8853H66.7584V29.0815H67.9361V28.5015H66.7584V26.1196ZM60.7994 28.5981C60.795 29.7275 61.6827 30.5229 62.8472 30.5229C64.0206 30.5229 64.8951 29.7275 64.9039 28.5981C64.8951 27.4644 64.0206 26.6777 62.8472 26.6733C61.6827 26.6777 60.795 27.4644 60.7994 28.5981ZM61.4761 28.5981C61.4718 27.8247 62.0738 27.2798 62.8472 27.2798C63.6339 27.2798 64.2227 27.8247 64.2271 28.5981C64.2227 29.3672 63.6339 29.9165 62.8472 29.9165C62.0738 29.9165 61.4718 29.3672 61.4761 28.5981ZM61.8717 33.7661H67.1187V33.186H62.5484V31.2876H61.8717V33.7661Z" fill="#113287"/>
<path d="M72.3113 26.9897H68.3386V27.5522H71.617C71.6214 28.1763 71.6038 29.1255 71.3885 30.4351L72.0828 30.4966C72.3069 29.0464 72.3069 28.0137 72.3113 27.394V26.9897ZM67.8992 31.6392L67.9871 32.2104C69.3845 32.2192 71.2215 32.1841 72.865 31.9292L72.8299 31.4106C72.0169 31.5073 71.1292 31.5645 70.2635 31.5952V29.2222H69.5867V31.6172C68.9846 31.6304 68.4134 31.6348 67.8992 31.6392ZM73.322 33.9331H74.0076V29.9868H75.2732V29.3892H74.0076V26.1196H73.322V33.9331Z" fill="#113287"/>
<path d="M79.8312 27.561V27.2271H81.5802V26.6646H77.3703V27.2271H79.1369V27.5698C79.1369 28.6729 78.3019 29.7144 77.1506 30.1274L77.5109 30.6724C78.4382 30.3296 79.1633 29.6089 79.5016 28.7124C79.8356 29.5166 80.5168 30.1714 81.3957 30.4878L81.756 29.9429C80.6135 29.5474 79.8312 28.5762 79.8312 27.561ZM78.3371 31.7886H82.8986V33.9331H83.5929V31.2173H78.3371V31.7886ZM81.3342 28.7476H82.8986V30.8042H83.5929V26.1196H82.8986V28.1675H81.3342V28.7476Z" fill="#113287"/>
<path d="M87.1508 27.3325V27.104H88.8998V26.5327H84.6898V27.104H86.4564V27.3237C86.4564 28.3345 85.6171 29.3101 84.4789 29.7056L84.8217 30.2505C85.7357 29.9341 86.4608 29.2485 86.808 28.4092C87.1464 29.1694 87.8363 29.7759 88.724 30.0659L89.0668 29.521C87.9374 29.1606 87.1464 28.2598 87.1508 27.3325ZM85.85 31.1118H90.2269V31.894H85.8676V33.8452H91.2113V33.2915H86.5531V32.4214H90.9125V30.5493H85.85V31.1118ZM88.6537 28.4399H90.2269V30.1626H90.9125V26.1196H90.2269V27.8687H88.6537V28.4399Z" fill="#113287"/>
<path d="M97.8804 26.1284H97.1949V31.9819H97.8804V29.2837H99.0582V28.7036H97.8804V26.1284ZM91.7896 27.6489H96.4478V27.0864H94.4615V26.1284H93.776V27.0864H91.7896V27.6489ZM92.2379 29.5386C92.2335 30.4175 92.9893 30.9844 94.1187 30.98C95.2349 30.9844 95.9908 30.4175 95.9996 29.5386C95.9908 28.6509 95.2349 28.0796 94.1187 28.0796C92.9893 28.0796 92.2335 28.6509 92.2379 29.5386ZM92.897 29.5386C92.8927 28.9805 93.3804 28.6201 94.1187 28.6245C94.8482 28.6201 95.3404 28.9805 95.3492 29.5386C95.3404 30.0879 94.8482 30.4438 94.1187 30.4351C93.3804 30.4438 92.8927 30.0879 92.897 29.5386ZM92.9937 33.7661H98.2408V33.186H93.6705V31.5161H92.9937V33.7661Z" fill="#113287"/>
<path d="M107.185 26.9106H101.656V27.4819H106.508V27.7808C106.503 28.7563 106.503 29.7847 106.227 31.1646L106.903 31.2437C107.18 29.7891 107.18 28.7827 107.185 27.7808V26.9106ZM100.909 32.8257H108.028V32.2544H105.304V29.6792H104.627V32.2544H103.361V29.6792H102.676V32.2544H100.909V32.8257Z" fill="#113287"/>
<path d="M114.715 26.1196H114.021V28.1587H112.447V28.73H114.021V30.7778H114.715V26.1196ZM108.273 30.1538L108.633 30.7075C109.565 30.3516 110.29 29.6221 110.624 28.708C110.962 29.5122 111.643 30.1714 112.518 30.4878L112.878 29.9341C111.736 29.543 110.953 28.5718 110.953 27.5522V27.271H112.702V26.6909H108.492V27.271H110.259V27.561C110.259 28.6772 109.433 29.7363 108.273 30.1538ZM109.503 32.4741C109.499 33.397 110.496 33.9243 112.122 33.9331C113.744 33.9243 114.741 33.397 114.741 32.4741C114.741 31.5557 113.744 31.0195 112.122 31.0239C110.496 31.0195 109.499 31.5557 109.503 32.4741ZM110.189 32.4741C110.184 31.9028 110.923 31.5601 112.122 31.5601C113.318 31.5601 114.056 31.9028 114.056 32.4741C114.056 33.041 113.318 33.3838 112.122 33.3794C110.923 33.3838 110.184 33.041 110.189 32.4741Z" fill="#113287"/>
<path d="M119.125 26.6294C117.495 26.6338 116.269 27.4863 116.269 28.7739C116.269 30.0747 117.495 30.9272 119.125 30.9185C120.756 30.9272 121.982 30.0747 121.982 28.7739C121.982 27.4863 120.756 26.6338 119.125 26.6294ZM115.566 32.896H122.72V32.3159H115.566V32.896ZM116.928 28.7739C116.919 27.8379 117.864 27.1875 119.125 27.1919C120.378 27.1875 121.314 27.8379 121.314 28.7739C121.314 29.7231 120.378 30.356 119.125 30.356C117.864 30.356 116.919 29.7231 116.928 28.7739Z" fill="#113287"/>
<path d="M130.048 32.3862H126.788V30.9097H129.328V30.3384H124.476V29.064H129.143V26.6997H123.773V27.271H128.466V28.5015H123.791V30.9097H126.111V32.3862H122.894V32.9663H130.048V32.3862Z" fill="#113287"/>
<path d="M134.185 26.4888C132.994 26.4844 132.15 27.2314 132.154 28.2905C132.15 29.3628 132.994 30.1011 134.185 30.1011C135.244 30.1011 136.048 29.4858 136.184 28.563H137.814V30.312H138.509V26.1196H137.814V27.9917H136.18C136.03 27.0952 135.23 26.4844 134.185 26.4888ZM132.813 28.2905C132.813 27.5698 133.38 27.0688 134.185 27.0776C134.971 27.0688 135.538 27.5698 135.538 28.2905C135.538 29.0024 134.971 29.5166 134.185 29.521C133.38 29.5166 132.813 29.0024 132.813 28.2905ZM133.473 33.8276H138.509V30.7075H137.814V31.7007H134.167V30.7075H133.473V33.8276ZM134.167 33.2651V32.2544H137.814V33.2651H134.167Z" fill="#113287"/>
<path d="M146.505 30.6636H139.351V31.2349H142.568V33.9331H143.244V31.2349H146.505V30.6636ZM140.274 29.6001H145.573V26.5591H140.274V29.6001ZM140.95 29.0552V27.1216H144.888V29.0552H140.95Z" fill="#113287"/>
<path d="M147.971 32.6323H147.119L146.635 35.0229H147.286L147.971 32.6323Z" fill="#113287"/>
<path d="M152.995 27.5698V27.2358H154.753V26.6733H150.534V27.2358H152.318V27.5698C152.309 28.6904 151.492 29.6968 150.323 30.1099L150.692 30.646C151.611 30.312 152.327 29.6221 152.661 28.7344C152.995 29.543 153.676 30.1802 154.568 30.4966L154.92 29.9604C153.764 29.5605 152.999 28.6113 152.995 27.5698ZM151.343 31.8062H155.772V33.9331H156.458V31.2437H151.343V31.8062ZM155.772 30.8306H156.458V28.7739H157.636V28.1851H156.458V26.1196H155.772V30.8306Z" fill="#113287"/>
<path d="M159.831 26.4888C158.64 26.4844 157.796 27.2314 157.801 28.2905C157.796 29.3628 158.64 30.1011 159.831 30.1011C160.89 30.1011 161.694 29.4858 161.831 28.563H163.461V30.312H164.155V26.1196H163.461V27.9917H161.826C161.677 27.0952 160.877 26.4844 159.831 26.4888ZM158.46 28.2905C158.46 27.5698 159.027 27.0688 159.831 27.0776C160.618 27.0688 161.185 27.5698 161.185 28.2905C161.185 29.0024 160.618 29.5166 159.831 29.521C159.027 29.5166 158.46 29.0024 158.46 28.2905ZM159.119 33.8276H164.155V30.7075H163.461V31.7007H159.813V30.7075H159.119V33.8276ZM159.813 33.2651V32.2544H163.461V33.2651H159.813Z" fill="#113287"/>
<path d="M166.289 32.6323H165.437L164.953 35.0229H165.604L166.289 32.6323Z" fill="#113287"/>
<path d="M175.813 30.0923H168.659V30.6636H171.946V32.2632H172.64V30.6636H175.813V30.0923ZM169.467 27.895C169.463 28.8574 170.557 29.4551 172.227 29.4507C173.897 29.4551 174.978 28.8574 174.978 27.895C174.978 26.9238 173.897 26.3262 172.227 26.3218C170.557 26.3262 169.463 26.9238 169.467 27.895ZM169.582 33.7661H175.013V33.1772H170.276V31.481H169.582V33.7661ZM170.206 27.895C170.197 27.271 171.01 26.8887 172.227 26.8843C173.44 26.8887 174.249 27.271 174.249 27.895C174.249 28.5015 173.44 28.8882 172.227 28.8882C171.01 28.8882 170.197 28.5015 170.206 27.895Z" fill="#113287"/>
<path d="M182.473 26.1284H181.779V28.2905H180.171V28.8618H181.779V31.8589H182.473V26.1284ZM176.031 30.2944L176.391 30.8569C177.319 30.5098 178.039 29.7935 178.378 28.8882C178.716 29.6968 179.397 30.3516 180.276 30.6724L180.636 30.1187C179.494 29.7275 178.712 28.7476 178.712 27.7368V27.3325H180.461V26.7612H176.251V27.3325H178.017V27.7368C178.017 28.8574 177.182 29.8901 176.031 30.2944ZM177.455 33.7661H182.693V33.186H178.149V31.3403H177.455V33.7661Z" fill="#113287"/>
<path d="M184.607 32.6323H183.755L183.271 35.0229H183.922L184.607 32.6323Z" fill="#113287"/>
<path d="M190.036 26.9897H187.232V27.561H189.376V29.1167H187.249V32.0083H187.768C188.757 32.0039 189.653 31.9775 190.765 31.7798L190.712 31.2085C189.671 31.3931 188.818 31.4194 187.917 31.4282V29.688H190.036V26.9897ZM190.413 29.5034H191.415V33.52H192.066V26.313H191.415V28.9409H190.413V29.5034ZM193.006 33.9331H193.665V26.1196H193.006V33.9331Z" fill="#113287"/>
<path d="M200.792 26.1196H200.097V28.3257H198.498V28.9058H200.097V29.9868H198.498V30.5669H200.097V33.9331H200.792V26.1196ZM194.261 31.894L194.718 32.4214C195.58 31.938 196.344 30.9185 196.691 29.7407C197.052 30.813 197.799 31.7798 198.656 32.228L199.069 31.7007C197.957 31.1382 197.025 29.666 197.021 28.4399V27.4995H198.805V26.9282H194.543V27.4995H196.327V28.4399C196.322 29.833 195.378 31.3359 194.261 31.894Z" fill="#113287"/>
<path d="M204.2 26.5591H203.506L201.458 34.1792H202.143L204.2 26.5591Z" fill="#113287"/>
<path d="M208.092 27.271V26.6733H207.371V27.271C207.367 28.6157 205.851 29.7979 204.497 30.0571L204.813 30.6372C205.996 30.3604 207.23 29.5254 207.74 28.3784C208.246 29.5254 209.485 30.3647 210.667 30.6372L210.983 30.0571C209.625 29.8022 208.096 28.6113 208.092 27.271ZM204.198 32.8696H211.353V32.2983H204.198V32.8696Z" fill="#113287"/>
<path d="M218.681 32.3774H215.411V30.5757H217.978V30.022H216.756V27.4556H217.995V26.8843H212.159V27.4556H213.399V30.022H212.177V30.5757H214.735V32.3774H211.527V32.9663H218.681V32.3774ZM214.084 30.022V27.4556H216.079V30.022H214.084Z" fill="#113287"/>
<path d="M226.009 32.3511H218.855V32.9312H226.009V32.3511ZM219.294 30.479L219.567 31.0415C220.802 30.7866 221.931 30.1143 222.419 29.0947C222.911 30.1143 224.036 30.7866 225.271 31.0415L225.552 30.479C224.062 30.2109 222.77 29.2441 222.775 27.9478H225.324V27.3853H222.757V26.313H222.08V27.3853H219.523V27.9478H222.072C222.067 29.2441 220.771 30.2109 219.294 30.479Z" fill="#113287"/>
<path d="M227.466 32.6323H226.614L226.13 35.0229H226.781L227.466 32.6323Z" fill="#113287"/>
<path d="M236.964 30.022H233.747V29.0728H236.155V28.5015H231.436V27.0073H236.085V26.436H230.75V29.0728H233.061V30.022H229.845V30.5845H236.964V30.022ZM230.636 31.9116H235.408V33.9946H236.094V31.3491H230.636V31.9116Z" fill="#113287"/>
<path d="M239.924 28.2202V26.7964H239.221V28.2202C239.216 29.6616 238.311 31.1646 237.164 31.7271L237.612 32.2808C238.5 31.8105 239.234 30.8086 239.581 29.6396C239.928 30.7515 240.662 31.6831 241.55 32.1401L241.963 31.5776C240.829 31.0591 239.92 29.6353 239.924 28.2202ZM241.111 29.354H242.965V33.9507H243.651V26.1196H242.965V28.7915H241.111V29.354Z" fill="#113287"/>
<path d="M245.785 32.6323H244.932L244.449 35.0229H245.099L245.785 32.6323Z" fill="#113287"/>
<path d="M252.056 27.271V26.6733H251.336V27.271C251.331 28.6157 249.815 29.7979 248.462 30.0571L248.778 30.6372C249.96 30.3604 251.195 29.5254 251.705 28.3784C252.21 29.5254 253.449 30.3647 254.632 30.6372L254.948 30.0571C253.59 29.8022 252.061 28.6113 252.056 27.271ZM248.163 32.8696H255.317V32.2983H248.163V32.8696Z" fill="#113287"/>
<path d="M259.42 26.9106H255.816V31.9468H259.42V26.9106ZM256.484 31.3843V27.4644H258.734V31.3843H256.484ZM260.853 33.9331H261.538V29.8374H262.848V29.2397H261.538V26.1196H260.853V33.9331Z" fill="#113287"/>
<path d="M269.148 30.3472H264.445V29.0903H268.893V28.5366H264.445V27.3765H269.06V26.7964H263.742V30.9097H269.148V30.3472ZM262.82 32.9136H269.974V32.3423H262.82V32.9136Z" fill="#113287"/>
<path d="M276.59 26.48H270.816V27.0513H272.02V28.8442H270.842V29.3979H273.365V30.356H270.148V30.9185H277.267V30.356H274.05V29.3979H276.564V28.8442H275.386V27.0513H276.59V26.48ZM271.071 33.7661H276.476V33.186H271.765V31.604H271.071V33.7661ZM272.705 28.8442V27.0513H274.701V28.8442H272.705Z" fill="#113287"/>
<path d="M286.413 29.8374H279.285V30.4175H286.413V29.8374ZM280.146 32.5093C280.142 33.4146 281.157 33.9155 282.845 33.9155C284.519 33.9155 285.525 33.4146 285.534 32.5093C285.525 31.6128 284.519 31.103 282.845 31.103C281.157 31.103 280.142 31.6128 280.146 32.5093ZM280.19 29.0903H285.578V28.5278H280.867V27.0161H285.525V26.436H280.19V29.0903ZM280.849 32.5093C280.841 31.9644 281.592 31.6479 282.845 31.6392C284.084 31.6479 284.835 31.9644 284.84 32.5093C284.835 33.0586 284.084 33.3706 282.845 33.3706C281.592 33.3706 280.841 33.0586 280.849 32.5093Z" fill="#113287"/>
<path d="M294.469 26.1196H293.783V33.9507H294.469V29.7935H295.778V29.2134H294.469V26.1196ZM288.765 31.9907H289.38C290.865 31.9907 291.889 31.9468 293.115 31.7271L293.028 31.1294C291.863 31.3447 290.865 31.4062 289.45 31.4106V27.4556H292.412V26.8843H288.765V31.9907Z" fill="#113287"/>
<path d="M303.019 27.3062H301.859V26.1196H301.173V30.7603H301.859V29.5474H303.019V28.9673H301.859V27.8774H303.019V27.3062ZM295.9 28.4312C295.895 29.5166 296.766 30.2637 297.948 30.2681C299.139 30.2637 299.995 29.5166 300.004 28.4312C299.995 27.3413 299.139 26.5898 297.948 26.5942C296.766 26.5898 295.895 27.3413 295.9 28.4312ZM296.577 28.4312C296.572 27.6973 297.157 27.1743 297.948 27.1831C298.747 27.1743 299.323 27.6973 299.328 28.4312C299.323 29.1694 298.747 29.6792 297.948 29.688C297.157 29.6792 296.572 29.1694 296.577 28.4312ZM296.761 32.4653C296.766 33.375 297.759 33.9155 299.354 33.9155C300.949 33.9155 301.929 33.375 301.929 32.4653C301.929 31.5381 300.949 31.002 299.354 30.9976C297.759 31.002 296.766 31.5381 296.761 32.4653ZM297.455 32.4653C297.447 31.8984 298.176 31.5601 299.354 31.5601C300.536 31.5601 301.257 31.8984 301.261 32.4653C301.257 33.0278 300.536 33.3574 299.354 33.3618C298.176 33.3574 297.447 33.0278 297.455 32.4653Z" fill="#113287"/>
<path d="M309.187 26.1284H308.502V31.9819H309.187V29.2837H310.365V28.7036H309.187V26.1284ZM303.096 27.6489H307.754V27.0864H305.768V26.1284H305.083V27.0864H303.096V27.6489ZM303.545 29.5386C303.54 30.4175 304.296 30.9844 305.425 30.98C306.542 30.9844 307.297 30.4175 307.306 29.5386C307.297 28.6509 306.542 28.0796 305.425 28.0796C304.296 28.0796 303.54 28.6509 303.545 29.5386ZM304.204 29.5386C304.199 28.9805 304.687 28.6201 305.425 28.6245C306.155 28.6201 306.647 28.9805 306.656 29.5386C306.647 30.0879 306.155 30.4438 305.425 30.4351C304.687 30.4438 304.199 30.0879 304.204 29.5386ZM304.3 33.7661H309.547V33.186H304.977V31.5161H304.3V33.7661Z" fill="#113287"/>
<path d="M314.826 27.3853V26.5239H314.149V27.3325C314.145 28.541 313.358 29.5869 312.189 30.022L312.559 30.5757C313.473 30.2197 314.171 29.5034 314.505 28.5762C314.848 29.3936 315.529 30.0396 316.391 30.356L316.769 29.811C315.635 29.4243 314.826 28.4487 314.826 27.3853ZM313.227 32.4917C313.231 33.4014 314.211 33.9155 315.819 33.9155C317.423 33.9155 318.395 33.4014 318.395 32.4917C318.395 31.5996 317.423 31.0767 315.819 31.0767C314.211 31.0767 313.231 31.5996 313.227 32.4917ZM313.921 32.4917C313.912 31.96 314.642 31.6304 315.819 31.6304C317.001 31.6304 317.722 31.96 317.727 32.4917C317.722 33.0454 317.001 33.3662 315.819 33.3706C314.642 33.3662 313.912 33.0454 313.921 32.4917ZM317.639 30.8745H318.324V28.7388H319.502V28.1587H318.324V26.1196H317.639V30.8745Z" fill="#113287"/>
<path d="M325.644 26.1284H324.949V31.4282H325.644V29.064H326.813V28.4839H325.644V26.1284ZM319.509 30.5142L319.588 31.0679C320.972 31.0723 322.844 31.0459 324.528 30.7515L324.466 30.2681C323.78 30.3647 323.042 30.4263 322.313 30.4614V29.8638C323.222 29.7803 323.789 29.3804 323.798 28.7651C323.789 28.0664 323.073 27.6577 321.961 27.6577C320.849 27.6577 320.129 28.0664 320.133 28.7651C320.129 29.3848 320.709 29.7847 321.627 29.8682V30.4878C320.867 30.5142 320.133 30.5142 319.509 30.5142ZM319.702 27.3325H324.229V26.7964H322.313V26.0581H321.627V26.7964H319.702V27.3325ZM320.555 32.729C320.55 33.5068 321.491 33.9243 323.121 33.9331C324.747 33.9243 325.692 33.5068 325.696 32.729C325.692 31.9468 324.747 31.5161 323.121 31.5249C321.491 31.5161 320.55 31.9468 320.555 32.729ZM320.792 28.7651C320.788 28.3872 321.24 28.1367 321.961 28.1411C322.682 28.1367 323.139 28.3872 323.139 28.7651C323.139 29.1562 322.682 29.3979 321.961 29.3979C321.24 29.3979 320.788 29.1562 320.792 28.7651ZM321.249 32.729C321.24 32.2896 321.917 32.0347 323.121 32.0435C324.317 32.0347 324.989 32.2896 324.993 32.729C324.989 33.1509 324.317 33.4058 323.121 33.4058C321.917 33.4058 321.24 33.1509 321.249 32.729Z" fill="#113287"/>
<path d="M333.57 26.1196H332.902V33.9331H333.57V26.1196ZM326.969 29.4946C326.974 31.1558 327.633 32.2148 328.648 32.2104C329.61 32.2148 330.265 31.2612 330.331 29.7407H331.337V33.5376H331.996V26.2866H331.337V29.1694H330.327C330.239 27.6973 329.597 26.7832 328.648 26.7788C327.633 26.7832 326.974 27.8335 326.969 29.4946ZM327.62 29.4946C327.611 28.2246 328.015 27.4292 328.648 27.4292C329.285 27.4292 329.689 28.2246 329.685 29.4946C329.689 30.7603 329.285 31.5601 328.648 31.5513C328.015 31.5601 327.611 30.7603 327.62 29.4946Z" fill="#113287"/>
<path d="M336.952 28.2202V26.7964H336.249V28.2202C336.244 29.6616 335.339 31.1646 334.192 31.7271L334.64 32.2808C335.528 31.8105 336.262 30.8086 336.609 29.6396C336.956 30.7515 337.69 31.6831 338.578 32.1401L338.991 31.5776C337.857 31.0591 336.947 29.6353 336.952 28.2202ZM338.138 29.354H339.993V33.9507H340.678V26.1196H339.993V28.7915H338.138V29.354Z" fill="#113287"/>
<path d="M59.7992 39.1196H59.1049V40.6138H57.7689V41.1851H59.1049V42.0903H57.7689V42.6704H59.1049V44.938H59.7992V39.1196ZM53.3392 43.1626L53.4271 43.7515C54.6971 43.7471 56.4813 43.7207 57.9974 43.4878L57.9623 42.9692C57.6239 43.0088 57.2679 43.0396 56.9076 43.0615V40.3237H57.7074V39.7612H53.559V40.3237H54.35V43.1538C53.9896 43.1582 53.6512 43.1626 53.3392 43.1626ZM54.7631 46.7661H60.0101V46.186H55.4574V44.4546H54.7631V46.7661ZM55.0179 43.1406V40.3237H56.2396V43.1011C55.8309 43.1187 55.4178 43.1318 55.0179 43.1406Z" fill="#113287"/>
<path d="M66.7584 39.1196H66.0728V44.8853H66.7584V42.0815H67.9361V41.5015H66.7584V39.1196ZM60.7994 41.5981C60.795 42.7275 61.6827 43.5229 62.8472 43.5229C64.0206 43.5229 64.8951 42.7275 64.9039 41.5981C64.8951 40.4644 64.0206 39.6777 62.8472 39.6733C61.6827 39.6777 60.795 40.4644 60.7994 41.5981ZM61.4761 41.5981C61.4718 40.8247 62.0738 40.2798 62.8472 40.2798C63.6339 40.2798 64.2227 40.8247 64.2271 41.5981C64.2227 42.3672 63.6339 42.9165 62.8472 42.9165C62.0738 42.9165 61.4718 42.3672 61.4761 41.5981ZM61.8717 46.7661H67.1187V46.186H62.5484V44.2876H61.8717V46.7661Z" fill="#113287"/>
<path d="M74.0867 39.1284H73.4011V44.9819H74.0867V42.2837H75.2644V41.7036H74.0867V39.1284ZM67.9959 40.6489H72.6541V40.0864H70.6677V39.1284H69.9822V40.0864H67.9959V40.6489ZM68.4441 42.5386C68.4397 43.4175 69.1956 43.9844 70.325 43.98C71.4412 43.9844 72.197 43.4175 72.2058 42.5386C72.197 41.6509 71.4412 41.0796 70.325 41.0796C69.1956 41.0796 68.4397 41.6509 68.4441 42.5386ZM69.1033 42.5386C69.0989 41.9805 69.5867 41.6201 70.325 41.6245C71.0545 41.6201 71.5467 41.9805 71.5554 42.5386C71.5467 43.0879 71.0545 43.4438 70.325 43.4351C69.5867 43.4438 69.0989 43.0879 69.1033 42.5386ZM69.2 46.7661H74.447V46.186H69.8767V44.5161H69.2V46.7661Z" fill="#113287"/>
<path d="M79.8927 41.2202V39.7964H79.2072V41.2202C79.1984 42.7012 78.236 44.1953 77.0715 44.7271L77.5109 45.3071C78.425 44.8457 79.194 43.8569 79.5544 42.6792C79.9279 43.791 80.6969 44.7183 81.589 45.1489L82.0109 44.604C80.8595 44.0811 79.8884 42.6484 79.8927 41.2202ZM82.8635 46.9507H83.5578V39.1196H82.8635V46.9507Z" fill="#113287"/>
<path d="M90.5521 39.1196H89.8666V43.7075H90.5521V41.6948H91.7299V41.106H90.5521V39.1196ZM84.4349 43.0835L84.7162 43.6196C87.0233 43.0088 88.4032 41.5981 88.4076 39.6206H84.7865V40.1919H87.6737C87.5331 41.519 86.351 42.5649 84.4349 43.0835ZM85.4369 44.6304H89.8666V46.9331H90.5521V44.0679H85.4369V44.6304Z" fill="#113287"/>
<path d="M94.4879 40.561V40.2271H96.2369V39.6646H92.0269V40.2271H93.7935V40.5698C93.7935 41.6729 92.9586 42.7144 91.8072 43.1274L92.1676 43.6724C93.0948 43.3296 93.8199 42.6089 94.1583 41.7124C94.4923 42.5166 95.1734 43.1714 96.0523 43.4878L96.4127 42.9429C95.2701 42.5474 94.4879 41.5762 94.4879 40.561ZM92.9937 44.7886H97.5552V46.9331H98.2496V44.2173H92.9937V44.7886ZM95.9908 41.7476H97.5552V43.8042H98.2496V39.1196H97.5552V41.1675H95.9908V41.7476Z" fill="#113287"/>
<path d="M103.625 40.561V40.2271H105.374V39.6646H101.164V40.2271H102.931V40.5698C102.931 41.6729 102.096 42.7144 100.944 43.1274L101.305 43.6724C102.232 43.3296 102.957 42.6089 103.295 41.7124C103.629 42.5166 104.311 43.1714 105.189 43.4878L105.55 42.9429C104.407 42.5474 103.625 41.5762 103.625 40.561ZM102.131 44.7886H106.692V46.9331H107.387V44.2173H102.131V44.7886ZM105.128 41.7476H106.692V43.8042H107.387V39.1196H106.692V41.1675H105.128V41.7476Z" fill="#113287"/>
<path d="M115.357 42.9253H108.237V43.4878H115.357V42.9253ZM109.028 40.8071C109.028 41.7388 110.096 42.2881 111.797 42.2837C113.489 42.2881 114.552 41.7388 114.557 40.8071C114.552 39.8799 113.489 39.3218 111.797 39.3218C110.096 39.3218 109.028 39.8799 109.028 40.8071ZM109.099 45.5356C109.094 46.4409 110.101 46.9375 111.797 46.9331C113.471 46.9375 114.478 46.4409 114.486 45.5356C114.478 44.6436 113.471 44.147 111.797 44.1558C110.101 44.147 109.094 44.6436 109.099 45.5356ZM109.74 40.8071C109.736 40.2227 110.531 39.8755 111.797 39.8843C113.049 39.8755 113.849 40.2227 113.854 40.8071C113.849 41.3916 113.049 41.7388 111.797 41.7388C110.531 41.7388 109.736 41.3916 109.74 40.8071ZM109.802 45.5356C109.793 44.9907 110.545 44.6787 111.797 44.6831C113.036 44.6787 113.788 44.9907 113.792 45.5356C113.788 46.0762 113.036 46.3882 111.797 46.3794C110.545 46.3882 109.793 46.0762 109.802 45.5356Z" fill="#113287"/>
<path d="M122.008 39.1196H121.314V46.9507H122.008V39.1196ZM115.856 42.4507C115.86 44.1162 116.686 45.1709 117.851 45.1665C119.011 45.1709 119.85 44.1162 119.846 42.4507C119.85 40.7896 119.011 39.7305 117.851 39.7261C116.686 39.7305 115.86 40.7896 115.856 42.4507ZM116.524 42.4507C116.524 41.1807 117.069 40.3457 117.851 40.3413C118.638 40.3457 119.178 41.1807 119.178 42.4507C119.178 43.7207 118.638 44.5557 117.851 44.5513C117.069 44.5557 116.524 43.7207 116.524 42.4507Z" fill="#113287"/>
<path d="M129.361 42.4946H126.021V40.4292H129.326V39.8667H125.345V43.0659H126.962V44.6304C126.184 44.6523 125.428 44.6567 124.747 44.6567L124.844 45.2368C126.338 45.2412 128.227 45.2061 129.959 44.9556L129.906 44.437C129.181 44.5205 128.412 44.5732 127.647 44.604V43.0659H129.361V42.4946ZM130.425 46.9507H131.11V39.1196H130.425V46.9507Z" fill="#113287"/>
<path d="M138.342 42.7847H133.64V40.3237H138.263V39.7612H132.945V43.3472H135.248V45.3687H132.031V45.9487H139.186V45.3687H135.925V43.3472H138.342V42.7847Z" fill="#113287"/>
<path d="M146.505 43.4263H143.262V42.6001H145.749V42.0464H140.968V41.2114H145.582V39.3218H140.256V39.8843H144.888V40.6929H140.282V42.6001H142.585V43.4263H139.351V43.9976H146.505V43.4263ZM140.151 45.1577H144.932V46.8628H145.626V44.5952H140.151V45.1577Z" fill="#113287"/>
<path d="M154.544 39.1196H153.858V46.9331H154.544V42.9165H155.853V42.3452H154.544V39.1196ZM148.453 40.9478H153.102V40.3765H151.151V39.2163H150.465V40.3765H148.453V40.9478ZM148.901 43.3911C148.897 44.4502 149.705 45.1841 150.817 45.1841C151.92 45.1841 152.724 44.4502 152.733 43.3911C152.724 42.3364 151.92 41.5981 150.817 41.5981C149.705 41.5981 148.897 42.3364 148.901 43.3911ZM149.56 43.3911C149.556 42.6836 150.087 42.1738 150.817 42.1782C151.538 42.1738 152.065 42.6836 152.074 43.3911C152.065 44.103 151.538 44.604 150.817 44.5952C150.087 44.604 149.556 44.103 149.56 43.3911Z" fill="#113287"/>
<path d="M157.926 39.7261C156.77 39.7305 155.961 40.7896 155.966 42.4507C155.961 44.1162 156.77 45.1709 157.926 45.1665C158.681 45.1709 159.288 44.7095 159.613 43.9185H161.617V46.9507H162.303V39.1196H161.617V40.8687H159.565C159.226 40.1479 158.642 39.7305 157.926 39.7261ZM156.625 42.4507C156.629 41.1807 157.157 40.3457 157.926 40.3413C158.69 40.3457 159.226 41.1807 159.226 42.4507C159.226 43.7207 158.69 44.5557 157.926 44.5513C157.157 44.5557 156.629 43.7207 156.625 42.4507ZM159.762 41.4487H161.617V43.3472H159.789C159.846 43.0747 159.877 42.7715 159.877 42.4507C159.877 42.0859 159.837 41.752 159.762 41.4487Z" fill="#113287"/>
<path d="M167.581 40.0776V39.436H166.904V40.0864C166.9 41.2686 166.1 42.2749 164.909 42.688L165.27 43.2417C166.206 42.8945 166.926 42.1914 167.26 41.2729C167.599 42.0728 168.284 42.6836 169.154 42.9868L169.541 42.4507C168.368 42.0684 167.581 41.1543 167.581 40.0776ZM165.639 44.2261H167.458V44.9556H165.656V46.8716H166.07C167.076 46.8672 167.634 46.854 168.363 46.7222L168.293 46.1772C167.656 46.3091 167.151 46.3267 166.333 46.3267V45.4653H168.126V43.6987H165.639V44.2261ZM168.61 46.8716H171.07V43.6987H168.61V46.8716ZM169.225 46.3442V44.2173H170.464V46.3442H169.225ZM170.385 43.2944H171.07V41.4224H172.248V40.8423H171.07V39.1196H170.385V43.2944Z" fill="#113287"/>
<path d="M174.848 39.6909C173.613 39.6953 172.734 40.4424 172.739 41.5278C172.734 42.6177 173.613 43.3604 174.848 43.3647C176.074 43.3604 176.944 42.6177 176.949 41.5278C176.944 40.4424 176.074 39.6953 174.848 39.6909ZM172.334 44.6392L172.431 45.228C173.837 45.228 175.758 45.2192 177.546 44.8853L177.494 44.3755C175.766 44.6304 173.776 44.6436 172.334 44.6392ZM173.415 41.5278C173.411 40.8027 174.013 40.2974 174.848 40.2974C175.674 40.2974 176.276 40.8027 176.272 41.5278C176.276 42.2573 175.674 42.7583 174.848 42.7583C174.013 42.7583 173.411 42.2573 173.415 41.5278ZM178.012 46.9507H178.698V39.1196H178.012V46.9507Z" fill="#113287"/>
<path d="M187.87 39.1196H187.193V43.1802H187.87V39.1196ZM181.542 42.644L181.867 43.189C182.821 42.8682 183.568 42.187 183.906 41.3125C184.253 42.1123 184.987 42.7319 185.91 43.022L186.253 42.4858C185.075 42.1387 184.244 41.2422 184.24 40.2271V40.1392H186.042V39.5679H181.718V40.1392H183.546V40.2271C183.541 41.2993 182.706 42.2573 181.542 42.644ZM182.799 44.103H187.193V44.9028H182.816V46.8452H188.16V46.2915H183.493V45.4214H187.879V43.5581H182.799V44.103Z" fill="#113287"/>
<path d="M192.315 39.2603C190.571 39.2603 189.547 39.7393 189.547 40.605C189.547 41.4927 190.571 41.9717 192.315 41.9761C194.051 41.9717 195.071 41.4927 195.075 40.605C195.071 39.7393 194.051 39.2603 192.315 39.2603ZM188.756 43.0659H195.875V42.5034H188.756V43.0659ZM189.617 44.27H194.284V44.9819H189.635V46.8452H195.198V46.3003H190.32V45.4917H194.961V43.7427H189.617V44.27ZM190.268 40.605C190.259 40.0908 191.019 39.7832 192.315 39.7788C193.612 39.7832 194.368 40.0908 194.372 40.605C194.368 41.1499 193.612 41.4487 192.315 41.4487C191.019 41.4487 190.259 41.1499 190.268 40.605Z" fill="#113287"/>
<path d="M205.161 40.4907H204.001V39.1196H203.316V44.1646H204.001V42.7231H205.161V42.1431H204.001V41.062H205.161V40.4907ZM197.911 40.561H202.569V40.0161H200.582V39.0581H199.897V40.0161H197.911V40.561ZM198.359 42.3452C198.354 43.189 199.106 43.7295 200.24 43.7251C201.36 43.7295 202.112 43.189 202.12 42.3452C202.112 41.5103 201.36 40.9697 200.24 40.9653C199.106 40.9697 198.354 41.5103 198.359 42.3452ZM198.974 45.5708C198.97 46.4189 199.936 46.9155 201.532 46.9155C203.122 46.9155 204.089 46.4189 204.089 45.5708C204.089 44.7183 203.122 44.2217 201.532 44.2173C199.936 44.2217 198.97 44.7183 198.974 45.5708ZM199.018 42.3452C199.014 41.8311 199.501 41.4927 200.24 41.4839C200.969 41.4927 201.461 41.8311 201.47 42.3452C201.461 42.8594 200.969 43.189 200.24 43.189C199.501 43.189 199.014 42.8594 199.018 42.3452ZM199.66 45.5708C199.651 45.0522 200.363 44.7622 201.532 44.7622C202.696 44.7622 203.408 45.0522 203.404 45.5708C203.408 46.0762 202.696 46.3838 201.532 46.3794C200.363 46.3838 199.651 46.0762 199.66 45.5708Z" fill="#113287"/>
<path d="M207.832 40.3853V39.5239H207.155V40.3325C207.15 41.541 206.364 42.5869 205.195 43.022L205.564 43.5757C206.478 43.2197 207.177 42.5034 207.511 41.5762C207.854 42.3936 208.535 43.0396 209.396 43.356L209.774 42.811C208.64 42.4243 207.832 41.4487 207.832 40.3853ZM206.232 45.4917C206.236 46.4014 207.216 46.9155 208.825 46.9155C210.429 46.9155 211.4 46.4014 211.4 45.4917C211.4 44.5996 210.429 44.0767 208.825 44.0767C207.216 44.0767 206.236 44.5996 206.232 45.4917ZM206.926 45.4917C206.918 44.96 207.647 44.6304 208.825 44.6304C210.007 44.6304 210.728 44.96 210.732 45.4917C210.728 46.0454 210.007 46.3662 208.825 46.3706C207.647 46.3662 206.918 46.0454 206.926 45.4917ZM210.644 43.8745H211.33V41.7388H212.507V41.1587H211.33V39.1196H210.644V43.8745Z" fill="#113287"/>
<path d="M215.327 41.2202V39.7964H214.641V41.2202C214.633 42.7012 213.67 44.1953 212.506 44.7271L212.945 45.3071C213.859 44.8457 214.628 43.8569 214.989 42.6792C215.362 43.791 216.131 44.7183 217.023 45.1489L217.445 44.604C216.294 44.0811 215.323 42.6484 215.327 41.2202ZM218.298 46.9507H218.992V39.1196H218.298V46.9507Z" fill="#113287"/>
<path d="M223.851 39.937H220.309V40.5083H223.169C223.134 40.9917 223.055 41.4531 222.91 41.8926L219.913 42.0903L220.036 42.688L222.699 42.4375C222.211 43.4922 221.324 44.3931 219.887 45.1138L220.282 45.6411C222.22 44.6699 223.191 43.3604 223.6 41.8882H225.661V43.3999H223.499V43.9624H225.661V46.9331H226.347V39.1108H225.661V41.3169H223.732C223.811 40.8687 223.851 40.4072 223.851 39.937Z" fill="#113287"/>
<path d="M232.961 40.2271V40.1743H235.457V39.6118H229.683V40.1743H232.188V40.2271C232.183 41.2729 230.795 42.1606 229.437 42.3628L229.709 42.9077C230.909 42.7012 232.1 42.0508 232.575 41.1104C233.049 42.0508 234.24 42.7012 235.457 42.9077L235.712 42.3628C234.35 42.1606 232.957 41.2729 232.961 40.2271ZM229.015 44.147H232.223V46.9331H232.9V44.147H236.134V43.5757H229.015V44.147Z" fill="#113287"/>
<path d="M242.663 41.4927H237.996V39.4097H237.31V42.0464H242.663V41.4927ZM236.335 43.6724H243.489V43.1099H236.335V43.6724ZM237.266 46.7397H242.707V46.1685H237.952V44.4722H237.266V46.7397Z" fill="#113287"/>
<path d="M251.958 39.1284H251.264V41.3257H249.55V41.9058H251.264V44.4194H251.958V39.1284ZM245.612 43.356L245.92 43.9097C248.165 43.189 249.51 41.7476 249.515 39.7437H245.999V40.3062H248.781C248.636 41.6948 247.48 42.7803 245.612 43.356ZM246.43 46.3618L246.711 46.9067C247.875 46.6782 248.948 46.0674 249.422 45.1445C249.884 46.0586 250.947 46.6694 252.099 46.8892L252.389 46.3354C251.013 46.0894 249.765 45.2324 249.761 44.0942V43.7339H249.084V44.0942C249.075 45.2456 247.814 46.1201 246.43 46.3618Z" fill="#113287"/>
<path d="M259.251 39.1196H258.557V46.9507H259.251V39.1196ZM253.099 42.4507C253.103 44.1162 253.929 45.1709 255.094 45.1665C256.254 45.1709 257.093 44.1162 257.089 42.4507C257.093 40.7896 256.254 39.7305 255.094 39.7261C253.929 39.7305 253.103 40.7896 253.099 42.4507ZM253.767 42.4507C253.767 41.1807 254.312 40.3457 255.094 40.3413C255.881 40.3457 256.421 41.1807 256.421 42.4507C256.421 43.7207 255.881 44.5557 255.094 44.5513C254.312 44.5557 253.767 43.7207 253.767 42.4507Z" fill="#113287"/>
<path d="M268.643 39.1196H267.975V42.2222H266.885V39.2866H266.226V46.5376H266.885V42.7935H267.975V46.9331H268.643V39.1196ZM262.236 44.8325H265.224V40.0337H262.236V44.8325ZM262.886 44.2788V40.5874H264.574V44.2788H262.886Z" fill="#113287"/>
<path d="M276.42 43.6021H269.265V44.1821H272.482V46.9331H273.159V44.1821H276.42V43.6021ZM270.074 41.1587C270.078 42.2002 271.181 42.8594 272.825 42.855C274.464 42.8594 275.576 42.2002 275.576 41.1587C275.576 40.0996 274.464 39.4404 272.825 39.436C271.181 39.4404 270.078 40.0996 270.074 41.1587ZM270.786 41.1587C270.777 40.4512 271.608 39.9985 272.825 39.9985C274.042 39.9985 274.868 40.4512 274.873 41.1587C274.868 41.853 274.042 42.3013 272.825 42.3013C271.608 42.3013 270.777 41.853 270.786 41.1587Z" fill="#113287"/>
<path d="M285.53 42.7759H278.411V43.3472H281.628V44.1821C280.138 44.248 279.268 44.7271 279.273 45.5532C279.268 46.4277 280.275 46.9155 281.971 46.9155C283.645 46.9155 284.652 46.4277 284.66 45.5532C284.652 44.7271 283.777 44.248 282.305 44.1821V43.3472H285.53V42.7759ZM278.816 41.7563L279.062 42.3013C280.349 42.1475 281.54 41.5718 281.971 40.7061C282.402 41.5718 283.601 42.1475 284.88 42.3013L285.135 41.7563C283.759 41.6157 282.467 40.9258 282.419 40.0513H284.898V39.4888H279.062V40.0513H281.523C281.474 40.9258 280.169 41.6157 278.816 41.7563ZM279.976 45.5532C279.967 45.0215 280.718 44.7183 281.971 44.7095C283.21 44.7183 283.962 45.0215 283.966 45.5532C283.962 46.0718 283.21 46.3838 281.971 46.3794C280.718 46.3838 279.967 46.0718 279.976 45.5532Z" fill="#113287"/>
<path d="M292.894 45.3511H291.119V43.2241C291.765 42.877 292.156 42.3232 292.156 41.6245C292.156 40.416 290.969 39.6206 289.299 39.6118C287.629 39.6206 286.443 40.416 286.443 41.6245C286.443 42.3364 286.847 42.8989 287.515 43.2461V45.3511H285.74V45.9312H292.894V45.3511ZM287.111 41.6245C287.106 40.75 288.016 40.1743 289.299 40.1831C290.569 40.1743 291.488 40.75 291.488 41.6245C291.488 42.499 290.569 43.0835 289.299 43.0835C288.016 43.0835 287.106 42.499 287.111 41.6245ZM288.192 45.3511V43.4966C288.526 43.5845 288.899 43.6284 289.299 43.6284C289.708 43.6284 290.086 43.5801 290.424 43.4922V45.3511H288.192Z" fill="#113287"/>
<path d="M299.176 39.1196H298.491V43.6636H299.176V41.7124H300.354V41.1235H299.176V39.1196ZM293.086 40.4995H297.744V39.9282H295.757V39.0493H295.072V39.9282H293.086V40.4995ZM293.534 42.231C293.529 43.0659 294.281 43.6064 295.415 43.6021C296.535 43.6064 297.287 43.0659 297.295 42.231C297.287 41.396 296.535 40.8643 295.415 40.8599C294.281 40.8643 293.529 41.396 293.534 42.231ZM294.193 42.231C294.189 41.7256 294.676 41.3872 295.415 41.396C296.144 41.3872 296.636 41.7256 296.645 42.231C296.636 42.7407 296.144 43.0747 295.415 43.0747C294.676 43.0747 294.189 42.7407 294.193 42.231ZM294.237 46.8276H299.176V44.0063H298.491V44.8413H294.922V44.0063H294.237V46.8276ZM294.922 46.2739V45.3862H298.491V46.2739H294.922Z" fill="#113287"/>
<path d="M306.839 39.1196H306.153V46.9331H306.839V39.1196ZM300.906 44.9204H301.539C302.791 44.9204 304.026 44.8237 305.415 44.5337L305.318 43.9448C304.009 44.2217 302.778 44.314 301.583 44.3228V39.8931H300.906V44.9204Z" fill="#113287"/>
<path d="M313.771 39.1196H313.086V46.9507H313.771V42.7935H315.081V42.2134H313.771V39.1196ZM308.067 44.9907H308.683C310.168 44.9907 311.192 44.9468 312.418 44.7271L312.33 44.1294C311.165 44.3447 310.168 44.4062 308.753 44.4106V40.4556H311.715V39.8843H308.067V44.9907Z" fill="#113287"/>
<path d="M315.879 46.2739C316.191 46.2695 316.446 46.0146 316.442 45.7026C316.446 45.395 316.191 45.1401 315.879 45.1401C315.571 45.1401 315.308 45.395 315.317 45.7026C315.308 46.0146 315.571 46.2695 315.879 46.2739Z" fill="#113287"/>
<rect x="0.25" y="0.25" width="356.5" height="59.5" rx="3.75" stroke="#113287" stroke-width="0.5"/>
<path d="M25.935 33.8877C26.4917 33.8877 26.9345 34.35 26.9345 34.9179C26.9345 35.4991 26.4917 35.9614 25.935 35.9614C25.3657 35.9614 24.9229 35.4859 24.9229 34.9179C24.9229 34.35 25.3657 33.8877 25.935 33.8877Z" fill="#113287"/>
<path d="M26.8822 27.4942V31.9321C26.8822 32.4868 26.452 32.9095 25.9333 32.9095C25.4019 32.9095 24.9844 32.4736 24.9844 31.9321V27.4942C24.9844 26.9527 25.4019 26.5168 25.9333 26.5168C26.452 26.5168 26.8822 26.9659 26.8822 27.4942Z" fill="#113287"/>
<path d="M22.3923 22.7781C23.1637 21.3779 24.5674 20.6514 25.9332 20.6646C27.299 20.6514 28.6901 21.3779 29.4742 22.7781L35.81 34.1384C36.1894 34.8253 36.3665 35.5518 36.3665 36.2651C36.3665 37.3747 35.9365 38.4315 35.2157 39.2109C34.4948 39.977 33.4452 40.5054 32.2691 40.4922H19.5974C18.4087 40.5054 17.3717 39.977 16.6508 39.2109C15.9173 38.4315 15.5 37.3747 15.5 36.2651C15.5 35.5518 15.6771 34.8253 16.0564 34.1384H16.0438L22.3923 22.7781ZM25.9332 22.6328C25.1745 22.6328 24.4663 23.0027 24.0363 23.7556L17.6878 35.1159V35.1291C17.4855 35.499 17.397 35.8688 17.397 36.2519C17.397 36.8331 17.6246 37.4144 18.0166 37.8371C18.4087 38.2598 18.9398 38.5239 19.5974 38.5239H32.2691C32.9267 38.5239 33.4452 38.2598 33.8499 37.8371C34.2419 37.4144 34.4695 36.8331 34.4695 36.2519C34.4695 35.8688 34.381 35.4989 34.166 35.1159L27.8302 23.7556C27.4002 22.9895 26.6794 22.6328 25.9332 22.6328Z" fill="#113287"/>
</svg>
