<svg width="392" height="48" viewBox="0 0 392 48" fill="none" xmlns="http://www.w3.org/2000/svg">
<rect width="392" height="48" rx="4" fill="#F3F6FF"/>
<path d="M24.7585 9.42773H24.1492V12.2012H26.1648V12.9434H23.3054V13.4512H29.6335V12.9434H26.7742V12.2012H28.8054V9.42773H28.196V10.3105H24.7585V9.42773ZM24.1257 15.9434H28.9304V15.4277H24.7429V14.0059H24.1257V15.9434ZM24.7585 11.709V10.7949H28.196V11.709H24.7585Z" fill="#113287"/>
<path d="M37.1617 9.14648H36.5523V16.1074H37.1617V9.14648ZM31.8179 10.3027H34.4351V11.7637H31.8335V14.4199H32.4117C33.6109 14.4199 34.6656 14.3691 35.9429 14.1699L35.8804 13.6543C34.6382 13.8535 33.6109 13.9082 32.4585 13.9043V12.2637H35.0523V9.79492H31.8179V10.3027Z" fill="#113287"/>
<path d="M44.3007 14.709H41.3945V13.1074H43.6757V12.6152H42.5898V10.334H43.6914V9.82617H38.5039V10.334H39.6054V12.6152H38.5195V13.1074H40.7929V14.709H37.9414V15.2324H44.3007V14.709ZM40.2148 12.6152V10.334H41.9882V12.6152H40.2148Z" fill="#113287"/>
<path d="M50.0804 12.9043H45.9007V11.7871H49.8539V11.2949H45.9007V10.2637H50.0023V9.74805H45.2757V13.4043H50.0804V12.9043ZM44.4554 15.1855H50.8148V14.6777H44.4554V15.1855Z" fill="#113287"/>
<path d="M56.5867 11.2559H52.4382V9.4043H51.8289V11.748H56.5867V11.2559ZM50.9617 13.1934H57.321V12.6934H50.9617V13.1934ZM51.7898 15.9199H56.6257V15.4121H52.3992V13.9043H51.7898V15.9199Z" fill="#113287"/>
<path d="M61.5601 11.0137V9.74805H60.9507V11.0137C60.9429 12.3301 60.0875 13.6582 59.0523 14.1309L59.4429 14.6465C60.2554 14.2363 60.939 13.3574 61.2593 12.3105C61.5914 13.2988 62.275 14.123 63.0679 14.5059L63.4429 14.0215C62.4195 13.5566 61.5562 12.2832 61.5601 11.0137ZM64.2007 16.1074H64.8179V9.14648H64.2007V16.1074Z" fill="#113287"/>
<path d="M68.9023 9.57617H65.8867V10.0684H68.2929V11.0527H65.9023V13.0996H66.3945C67.8007 13.0996 68.5078 13.0762 69.371 12.9355L69.3085 12.4277C68.4921 12.5762 67.8164 12.6035 66.5117 12.5996V11.5215H68.9023V9.57617ZM66.6835 14.2949H70.746V16.1074H71.3632V13.7949H66.6835V14.2949ZM69.3632 12.1309H70.746V13.4199H71.3632V9.1543H70.746V10.1855H69.3632V10.6855H70.746V11.623H69.3632V12.1309Z" fill="#113287"/>
<path d="M77.3132 9.59961H74.1648V10.1074H76.6609C76.5281 11.2871 75.4656 12.209 73.8054 12.6777L74.0632 13.1621C76.0632 12.5918 77.3093 11.3418 77.3132 9.59961ZM74.9773 15.998H79.4851V13.4121H74.9773V15.998ZM75.571 15.498V13.9043H78.8757V15.498H75.571ZM77.3289 11.459H78.8679V13.1152H79.4851V9.1543H78.8679V10.9434H77.3289V11.459Z" fill="#113287"/>
<path d="M82.5695 11.0137V9.74805H81.9679V11.0137C81.9601 12.2832 81.1554 13.6152 80.1398 14.1152L80.5304 14.6074C81.3117 14.1895 81.9679 13.3105 82.2765 12.2871C82.5851 13.252 83.2257 14.0762 83.9914 14.4746L84.3664 13.9824C83.3781 13.498 82.5695 12.2363 82.5695 11.0137ZM85.007 16.0918H85.6164V12.498H86.7804V11.9668H85.6164V9.14648H85.007V16.0918Z" fill="#113287"/>
<path d="M93.107 12.373H86.7476V12.8574H93.107V12.373ZM87.5132 13.873H91.7007V14.4668H87.521V15.998H92.5367V15.5527H88.1382V14.8887H92.3101V13.4121H87.5132V13.873ZM87.5523 9.80273H91.6695V10.373H87.5757V11.8496H92.4117V11.4043H88.1851V10.7949H92.2867V9.35742H87.5523V9.80273Z" fill="#113287"/>
<path d="M101.205 12.834H98.3382V12.1465H100.455V11.6543H96.3304V10.9668H100.229V10.498H96.3304V9.84961H100.416V9.34961H95.7132V12.1465H97.7289V12.834H94.8695V13.334H101.205V12.834ZM95.6429 14.9668C95.639 15.6973 96.5023 16.0762 98.0414 16.0762C99.5648 16.0762 100.424 15.6973 100.432 14.9668C100.424 14.2441 99.5648 13.8496 98.0414 13.8574C96.5023 13.8496 95.639 14.2441 95.6429 14.9668ZM96.2601 14.9668C96.2523 14.5527 96.8929 14.3223 98.0414 14.3184C99.1781 14.3223 99.8109 14.5527 99.8148 14.9668C99.8109 15.3887 99.1781 15.6074 98.0414 15.5996C96.8929 15.6074 96.2523 15.3887 96.2601 14.9668Z" fill="#113287"/>
<path d="M104.86 10.3496H103.43V9.35742H102.821V10.3496H101.376V10.8496H104.86V10.3496ZM101.626 12.8965C101.626 13.8301 102.255 14.4863 103.118 14.4902C103.993 14.4863 104.618 13.8301 104.626 12.8965C104.618 11.9746 103.993 11.3223 103.118 11.3184C102.255 11.3223 101.626 11.9746 101.626 12.8965ZM102.173 12.8965C102.173 12.2871 102.567 11.8418 103.118 11.834C103.673 11.8418 104.079 12.2871 104.079 12.8965C104.079 13.5137 103.673 13.9551 103.118 13.9512C102.567 13.9551 102.173 13.5137 102.173 12.8965ZM105.219 15.748H105.798V12.584H106.719V16.0918H107.305V9.14648H106.719V12.0762H105.798V9.31836H105.219V15.748Z" fill="#113287"/>
<path d="M115.084 9.84961H110.185V10.3574H114.466V10.5449C114.462 11.377 114.462 12.3496 114.201 13.6777L114.826 13.748C115.076 12.3496 115.076 11.3965 115.084 10.5449V9.84961ZM109.513 15.1074H115.841V14.5996H112.599V12.1152H111.998V14.5996H109.513V15.1074Z" fill="#113287"/>
<path d="M121.926 9.1543H121.34V10.9043H120.394V9.28711H119.809V13.2012H120.394V11.4121H121.34V13.248H121.926V9.1543ZM116.066 12.8652L116.371 13.3262C118.133 12.5762 119.07 11.3223 119.074 9.66211H116.348V10.1699H118.441C118.324 11.3379 117.508 12.2793 116.066 12.8652ZM117.238 14.0684H121.324V16.0918H121.926V13.5684H117.238V14.0684Z" fill="#113287"/>
<path d="M128.268 9.14648H127.666V13.0918H128.268V9.14648ZM122.979 12.5605H123.541C124.741 12.5527 125.795 12.4707 126.971 12.2324L126.877 11.7168C125.772 11.9512 124.744 12.0293 123.596 12.0371V9.56055H122.979V12.5605ZM123.76 15.998H128.268V13.4121H123.76V15.998ZM124.362 15.498V13.9043H127.666V15.498H124.362Z" fill="#113287"/>
<path d="M136.28 11.2637H132.148V9.41211H131.538V11.7637H136.28V11.2637ZM130.663 13.0918H133.577V14.5293H134.187V13.0918H136.999V12.584H130.663V13.0918ZM131.476 15.9434H136.327V15.4277H132.085V13.9121H131.476V15.9434Z" fill="#113287"/>
<path d="M139.451 9.6543C138.353 9.6582 137.572 10.3223 137.576 11.2871C137.572 12.2559 138.353 12.916 139.451 12.9199C140.541 12.916 141.314 12.2559 141.318 11.2871C141.314 10.3223 140.541 9.6582 139.451 9.6543ZM137.216 14.0527L137.302 14.5762C138.552 14.5762 140.259 14.5684 141.849 14.2715L141.802 13.8184C140.267 14.0449 138.498 14.0566 137.216 14.0527ZM138.177 11.2871C138.173 10.6426 138.709 10.1934 139.451 10.1934C140.185 10.1934 140.72 10.6426 140.716 11.2871C140.72 11.9355 140.185 12.3809 139.451 12.3809C138.709 12.3809 138.173 11.9355 138.177 11.2871ZM142.263 16.1074H142.873V9.14648H142.263V16.1074Z" fill="#113287"/>
<path d="M150.823 9.43555H146.104V9.93555H150.213C150.217 10.3848 150.209 10.9238 150.061 11.6699H145.299V12.1543H148.159V13.0605H146.057V13.5527H150.237V14.2871H146.065V16.0137H151.026V15.5137H146.682V14.7324H150.846V13.0605H148.76V12.1543H151.659V11.6699H150.678C150.823 10.9277 150.823 10.3301 150.823 9.88086V9.43555Z" fill="#113287"/>
<path d="M154.219 10.2246V10.0215H155.774V9.51367H152.032V10.0215H153.602V10.2168C153.602 11.1152 152.856 11.9824 151.844 12.334L152.149 12.8184C152.962 12.5371 153.606 11.9277 153.915 11.1816C154.216 11.8574 154.829 12.3965 155.618 12.6543L155.923 12.1699C154.919 11.8496 154.216 11.0488 154.219 10.2246ZM153.063 13.584H156.954V14.2793H153.079V16.0137H157.829V15.5215H153.688V14.748H157.563V13.084H153.063V13.584ZM155.555 11.209H156.954V12.7402H157.563V9.14648H156.954V10.7012H155.555V11.209Z" fill="#113287"/>
<path d="M164.054 9.14648H163.437V16.1074H164.054V9.14648ZM158.585 12.1074C158.589 13.5879 159.323 14.5254 160.359 14.5215C161.39 14.5254 162.136 13.5879 162.132 12.1074C162.136 10.6309 161.39 9.68945 160.359 9.68555C159.323 9.68945 158.589 10.6309 158.585 12.1074ZM159.179 12.1074C159.179 10.9785 159.663 10.2363 160.359 10.2324C161.058 10.2363 161.538 10.9785 161.538 12.1074C161.538 13.2363 161.058 13.9785 160.359 13.9746C159.663 13.9785 159.179 13.2363 159.179 12.1074Z" fill="#113287"/>
<path d="M167.162 10.2715V9.50586H166.56V10.2246C166.556 11.2988 165.857 12.2285 164.818 12.6152L165.146 13.1074C165.959 12.791 166.58 12.1543 166.877 11.3301C167.181 12.0566 167.787 12.6309 168.552 12.9121L168.888 12.4277C167.88 12.084 167.162 11.2168 167.162 10.2715ZM165.74 14.8105C165.744 15.6191 166.615 16.0762 168.044 16.0762C169.47 16.0762 170.334 15.6191 170.334 14.8105C170.334 14.0176 169.47 13.5527 168.044 13.5527C166.615 13.5527 165.744 14.0176 165.74 14.8105ZM166.357 14.8105C166.349 14.3379 166.998 14.0449 168.044 14.0449C169.095 14.0449 169.736 14.3379 169.74 14.8105C169.736 15.3027 169.095 15.5879 168.044 15.5918C166.998 15.5879 166.349 15.3027 166.357 14.8105ZM169.662 13.373H170.271V11.4746H171.318V10.959H170.271V9.14648H169.662V13.373Z" fill="#113287"/>
<path d="M175.284 10.2715V9.50586H174.682V10.2246C174.678 11.2988 173.979 12.2285 172.94 12.6152L173.268 13.1074C174.08 12.791 174.702 12.1543 174.998 11.3301C175.303 12.0566 175.909 12.6309 176.674 12.9121L177.01 12.4277C176.002 12.084 175.284 11.2168 175.284 10.2715ZM173.862 14.8105C173.866 15.6191 174.737 16.0762 176.166 16.0762C177.592 16.0762 178.455 15.6191 178.455 14.8105C178.455 14.0176 177.592 13.5527 176.166 13.5527C174.737 13.5527 173.866 14.0176 173.862 14.8105ZM174.479 14.8105C174.471 14.3379 175.119 14.0449 176.166 14.0449C177.217 14.0449 177.858 14.3379 177.862 14.8105C177.858 15.3027 177.217 15.5879 176.166 15.5918C175.119 15.5879 174.471 15.3027 174.479 14.8105ZM177.784 13.373H178.393V11.4746H179.44V10.959H178.393V9.14648H177.784V13.373Z" fill="#113287"/>
<path d="M182.509 9.95117H179.759V14.373H180.204C181.344 14.377 182.012 14.3418 182.829 14.1855L182.774 13.6777C182.016 13.8145 181.376 13.8457 180.344 13.8496V12.2793H182.407V11.7871H180.344V10.4512H182.509V9.95117ZM183.29 15.7402H183.884V12.4512H184.837V16.0918H185.43V9.14648H184.837V11.9434H183.884V9.29492H183.29V15.7402Z" fill="#113287"/>
<path d="M192.343 12.373H185.984V12.8574H192.343V12.373ZM186.749 13.873H190.937V14.4668H186.757V15.998H191.773V15.5527H187.374V14.8887H191.546V13.4121H186.749V13.873ZM186.788 9.80273H190.905V10.373H186.812V11.8496H191.648V11.4043H187.421V10.7949H191.523V9.35742H186.788V9.80273Z" fill="#113287"/>
<path d="M200.473 14.7324H198.652V13.0762H199.848V12.5684H198.762V10.3027H199.863V9.79492H194.676V10.3027H195.777V12.5684H194.691V13.0762H195.887V14.7324H194.113V15.2402H200.473V14.7324ZM196.387 12.5684V10.3027H198.16V12.5684H196.387ZM196.504 14.7324V13.0762H198.043V14.7324H196.504Z" fill="#113287"/>
<path d="M206.385 9.1543H205.768V11.0059H204.565V11.5137H205.768V12.459H204.565V12.959H205.768V14.4512H206.385V9.1543ZM200.635 10.5059H204.565V10.0059H202.932V9.14648H202.323V10.0059H200.635V10.5059ZM201.049 12.2168C201.041 13.0059 201.69 13.541 202.619 13.5449C203.549 13.541 204.202 13.0059 204.205 12.2168C204.202 11.4199 203.549 10.8887 202.619 10.8887C201.69 10.8887 201.041 11.4199 201.049 12.2168ZM201.619 12.2168C201.616 11.7168 202.026 11.3809 202.619 11.373C203.213 11.3809 203.623 11.7168 203.627 12.2168C203.623 12.7168 203.213 13.0566 202.619 13.0527C202.026 13.0566 201.616 12.7168 201.619 12.2168ZM201.893 15.9434H206.541V15.4277H202.51V13.9824H201.893V15.9434Z" fill="#113287"/>
<path d="M212.571 9.1543H211.962V14.3574H212.571V11.959H213.618V11.4434H212.571V9.1543ZM207.157 10.5059H211.298V10.0059H209.532V9.1543H208.923V10.0059H207.157V10.5059ZM207.555 12.1855C207.552 12.9668 208.223 13.4707 209.227 13.4668C210.219 13.4707 210.891 12.9668 210.899 12.1855C210.891 11.3965 210.219 10.8887 209.227 10.8887C208.223 10.8887 207.552 11.3965 207.555 12.1855ZM208.141 12.1855C208.137 11.6895 208.571 11.3691 209.227 11.373C209.876 11.3691 210.313 11.6895 210.321 12.1855C210.313 12.6738 209.876 12.9902 209.227 12.9824C208.571 12.9902 208.137 12.6738 208.141 12.1855ZM208.227 15.9434H212.891V15.4277H208.829V13.9434H208.227V15.9434Z" fill="#113287"/>
<path d="M221.021 9.1543H220.404V11.1074H218.88V11.623H220.404V13.8574H221.021V9.1543ZM215.38 12.9121L215.654 13.4043C217.65 12.7637 218.845 11.4824 218.849 9.70117H215.724V10.2012H218.197C218.068 11.4355 217.041 12.4004 215.38 12.9121ZM216.107 15.584L216.357 16.0684C217.392 15.8652 218.345 15.3223 218.767 14.502C219.177 15.3145 220.123 15.8574 221.146 16.0527L221.404 15.5605C220.181 15.3418 219.072 14.5801 219.068 13.5684V13.248H218.466V13.5684C218.459 14.5918 217.337 15.3691 216.107 15.584Z" fill="#113287"/>
<path d="M224.941 9.59961C223.492 9.60352 222.402 10.3613 222.402 11.5059C222.402 12.6621 223.492 13.4199 224.941 13.4121C226.391 13.4199 227.48 12.6621 227.48 11.5059C227.48 10.3613 226.391 9.60352 224.941 9.59961ZM221.777 15.1699H228.137V14.6543H221.777V15.1699ZM222.988 11.5059C222.98 10.6738 223.82 10.0957 224.941 10.0996C226.055 10.0957 226.887 10.6738 226.887 11.5059C226.887 12.3496 226.055 12.9121 224.941 12.9121C223.82 12.9121 222.98 12.3496 222.988 11.5059Z" fill="#113287"/>
<path d="M234.651 14.7168H231.752V13.4043H234.01V12.8965H229.698V11.7637H233.846V9.66211H229.073V10.1699H233.244V11.2637H229.088V13.4043H231.151V14.7168H228.291V15.2324H234.651V14.7168Z" fill="#113287"/>
<path d="M239.194 9.7168H236.718V10.209H238.601V11.2324H236.734V13.2949H237.179C238.187 13.2949 238.921 13.2598 239.812 13.0918L239.741 12.5918C238.925 12.7559 238.237 12.791 237.335 12.7949V11.7012H239.194V9.7168ZM237.757 15.9434H242.523V15.4277H238.366V13.8496H237.757V15.9434ZM239.484 11.5996H240.351V14.1855H240.937V9.2793H240.351V11.084H239.484V11.5996ZM241.726 14.373H242.312V9.1543H241.726V14.373Z" fill="#113287"/>
<path d="M249.287 14.6543H242.927V15.1699H249.287V14.6543ZM243.24 12.9512L243.498 13.4434C244.541 13.2285 245.658 12.5332 246.103 11.5684C246.548 12.5293 247.669 13.209 248.732 13.4121L248.982 12.9277C247.783 12.7285 246.416 11.7832 246.412 10.6777V10.3574H248.74V9.84961H243.451V10.3574H245.779V10.6777C245.779 11.7832 244.416 12.752 243.24 12.9512Z" fill="#113287"/>
<path d="M255.394 9.14648H254.801V16.0918H255.394V9.14648ZM249.527 12.1465C249.531 13.623 250.117 14.5645 251.019 14.5605C251.875 14.5645 252.457 13.7168 252.516 12.3652H253.41V15.7402H253.996V9.29492H253.41V11.8574H252.512C252.434 10.5488 251.863 9.73633 251.019 9.73242C250.117 9.73633 249.531 10.6699 249.527 12.1465ZM250.105 12.1465C250.098 11.0176 250.457 10.3105 251.019 10.3105C251.586 10.3105 251.945 11.0176 251.941 12.1465C251.945 13.2715 251.586 13.9824 251.019 13.9746C250.457 13.9824 250.098 13.2715 250.105 12.1465Z" fill="#113287"/>
<path d="M259.977 10.4277V10.1309H261.532V9.63086H257.79V10.1309H259.36V10.4355C259.36 11.416 258.618 12.3418 257.594 12.709L257.915 13.1934C258.739 12.8887 259.384 12.248 259.684 11.4512C259.981 12.166 260.587 12.748 261.368 13.0293L261.688 12.5449C260.673 12.1934 259.977 11.3301 259.977 10.4277ZM258.649 14.1855H262.704V16.0918H263.321V13.6777H258.649V14.1855ZM261.313 11.4824H262.704V13.3105H263.321V9.14648H262.704V10.9668H261.313V11.4824Z" fill="#113287"/>
<path d="M270.405 12.584H268.835V11.6035C269.382 11.3848 269.691 11.0332 269.694 10.5684C269.691 9.75195 268.753 9.2832 267.241 9.2793C265.718 9.2832 264.78 9.75195 264.78 10.5684C264.78 11.0371 265.093 11.3887 265.648 11.6035V12.584H264.077V13.0918H270.405V12.584ZM264.843 14.8496C264.839 15.6426 265.734 16.0762 267.241 16.0762C268.73 16.0762 269.624 15.6426 269.632 14.8496C269.624 14.0566 268.73 13.6191 267.241 13.623C265.734 13.6191 264.839 14.0566 264.843 14.8496ZM265.413 10.5684C265.409 10.0684 266.105 9.76367 267.241 9.76367C268.366 9.76367 269.066 10.0684 269.069 10.5684C269.066 11.0762 268.366 11.3691 267.241 11.373C266.105 11.3691 265.409 11.0762 265.413 10.5684ZM265.468 14.8496C265.46 14.377 266.128 14.0996 267.241 14.0918C268.343 14.0996 269.011 14.377 269.015 14.8496C269.011 15.3223 268.343 15.6035 267.241 15.5996C266.128 15.6035 265.46 15.3223 265.468 14.8496ZM266.257 12.584V11.7715C266.55 11.8223 266.878 11.8496 267.241 11.8496C267.605 11.8496 267.933 11.8223 268.226 11.7676V12.584H266.257Z" fill="#113287"/>
<path d="M275.966 9.14648H275.357V16.0918H275.966V12.5215H277.13V12.0137H275.966V9.14648ZM270.552 10.7715H274.685V10.2637H272.951V9.23242H272.341V10.2637H270.552V10.7715ZM270.951 12.9434C270.947 13.8848 271.666 14.5371 272.654 14.5371C273.634 14.5371 274.349 13.8848 274.357 12.9434C274.349 12.0059 273.634 11.3496 272.654 11.3496C271.666 11.3496 270.947 12.0059 270.951 12.9434ZM271.537 12.9434C271.533 12.3145 272.005 11.8613 272.654 11.8652C273.294 11.8613 273.763 12.3145 273.771 12.9434C273.763 13.5762 273.294 14.0215 272.654 14.0137C272.005 14.0215 271.533 13.5762 271.537 12.9434Z" fill="#113287"/>
<path d="M282.848 9.14648H282.23V16.0918H282.848V9.14648ZM277.191 14.2871L277.527 14.7871C279.855 13.6699 280.785 11.9004 280.793 9.9043H277.512V10.4043H280.168C280.031 12.0645 279.07 13.3965 277.191 14.2871Z" fill="#113287"/>
<path d="M287.516 9.49023C286.477 9.48242 285.735 10.0566 285.735 10.9043C285.735 11.752 286.477 12.3301 287.516 12.3262C288.555 12.3301 289.302 11.752 289.298 10.9043C289.302 10.0566 288.555 9.48242 287.516 9.49023ZM285.212 12.9199L285.298 13.4434C285.876 13.4395 286.544 13.4355 287.251 13.4043V15.8809H287.86V13.3691C288.532 13.3262 289.219 13.252 289.884 13.1309L289.844 12.6699C288.302 12.8965 286.516 12.9238 285.212 12.9199ZM286.337 10.9043C286.329 10.3652 286.825 9.98242 287.516 9.99023C288.216 9.98242 288.716 10.3652 288.712 10.9043C288.716 11.4473 288.216 11.8223 287.516 11.8184C286.825 11.8223 286.329 11.4473 286.337 10.9043ZM290.352 16.0996H290.954V9.1543H290.352V16.0996Z" fill="#113287"/>
<path d="M297.171 9.1543H296.562V14.3574H297.171V11.959H298.218V11.4434H297.171V9.1543ZM291.757 10.5059H295.898V10.0059H294.132V9.1543H293.523V10.0059H291.757V10.5059ZM292.155 12.1855C292.152 12.9668 292.823 13.4707 293.827 13.4668C294.819 13.4707 295.491 12.9668 295.499 12.1855C295.491 11.3965 294.819 10.8887 293.827 10.8887C292.823 10.8887 292.152 11.3965 292.155 12.1855ZM292.741 12.1855C292.737 11.6895 293.171 11.3691 293.827 11.373C294.476 11.3691 294.913 11.6895 294.921 12.1855C294.913 12.6738 294.476 12.9902 293.827 12.9824C293.171 12.9902 292.737 12.6738 292.741 12.1855ZM292.827 15.9434H297.491V15.4277H293.429V13.9434H292.827V15.9434Z" fill="#113287"/>
<path d="M302.496 12.8105H301.894V14.1152C301.172 14.1387 300.484 14.1426 299.902 14.1465L299.988 14.6543C301.238 14.6582 302.945 14.6465 304.535 14.3574L304.488 13.9043C303.848 14.002 303.168 14.0566 302.496 14.0918V12.8105ZM300.113 12.5684L300.41 13.0371C301.246 12.7832 301.894 12.2285 302.195 11.4863C302.508 12.1895 303.164 12.7246 303.996 12.9746L304.285 12.4902C303.258 12.1973 302.516 11.4629 302.496 10.5684H304.129V10.0605H302.496V9.20117H301.894V10.0605H300.285V10.5684H301.879C301.863 11.502 301.141 12.2637 300.113 12.5684ZM304.949 16.1074H305.559V9.14648H304.949V16.1074Z" fill="#113287"/>
<path d="M308.791 10.4277V10.1309H310.346V9.63086H306.604V10.1309H308.174V10.4355C308.174 11.416 307.432 12.3418 306.409 12.709L306.729 13.1934C307.553 12.8887 308.198 12.248 308.498 11.4512C308.795 12.166 309.401 12.748 310.182 13.0293L310.502 12.5449C309.487 12.1934 308.791 11.3301 308.791 10.4277ZM307.463 14.1855H311.518V16.0918H312.135V13.6777H307.463V14.1855ZM310.127 11.4824H311.518V13.3105H312.135V9.14648H311.518V10.9668H310.127V11.4824Z" fill="#113287"/>
<path d="M320.077 9.84961H315.163V10.3574H319.476V10.623C319.472 11.4902 319.472 12.4043 319.226 13.6309L319.827 13.7012C320.073 12.4082 320.073 11.5137 320.077 10.623V9.84961ZM314.499 15.1074H320.827V14.5996H318.405V12.3105H317.804V14.5996H316.679V12.3105H316.069V14.5996H314.499V15.1074Z" fill="#113287"/>
<path d="M326.771 9.14648H326.154V10.959H324.755V11.4668H326.154V13.2871H326.771V9.14648ZM321.044 12.7324L321.365 13.2246C322.193 12.9082 322.837 12.2598 323.134 11.4473C323.435 12.1621 324.041 12.748 324.818 13.0293L325.138 12.5371C324.123 12.1895 323.427 11.3262 323.427 10.4199V10.1699H324.982V9.6543H321.24V10.1699H322.81V10.4277C322.81 11.4199 322.076 12.3613 321.044 12.7324ZM322.138 14.7949C322.134 15.6152 323.021 16.084 324.466 16.0918C325.908 16.084 326.794 15.6152 326.794 14.7949C326.794 13.9785 325.908 13.502 324.466 13.5059C323.021 13.502 322.134 13.9785 322.138 14.7949ZM322.748 14.7949C322.744 14.2871 323.4 13.9824 324.466 13.9824C325.529 13.9824 326.185 14.2871 326.185 14.7949C326.185 15.2988 325.529 15.6035 324.466 15.5996C323.4 15.6035 322.744 15.2988 322.748 14.7949Z" fill="#113287"/>
<path d="M332.957 9.14648H332.348V12.9199H332.957V11.2715H334.004V10.748H332.957V9.14648ZM327.543 12.4902L327.777 12.998C329.828 12.4902 331.062 11.3105 331.066 9.56836H327.855V10.0762H330.394C330.285 11.2012 329.262 12.0801 327.543 12.4902ZM328.301 15.998H330.691V13.2793H330.121V14.123H328.871V13.2793H328.301V15.998ZM328.871 15.5059V14.5996H330.121V15.5059H328.871ZM330.73 15.5918L331.066 16.0605C331.652 15.7988 332.047 15.3184 332.258 14.7754C332.465 15.3184 332.852 15.7988 333.434 16.0605L333.762 15.5918C332.953 15.2363 332.551 14.459 332.551 13.7715V13.209H331.965V13.7949C331.957 14.459 331.551 15.2324 330.73 15.5918Z" fill="#113287"/>
<path d="M337.893 9.91992H334.362V10.4199H337.276C337.28 10.9746 337.264 11.8184 337.073 12.9824L337.69 13.0371C337.889 11.748 337.889 10.8301 337.893 10.2793V9.91992ZM333.971 14.0527L334.049 14.5605C335.291 14.5684 336.924 14.5371 338.385 14.3105L338.354 13.8496C337.631 13.9355 336.842 13.9863 336.073 14.0137V11.9043H335.471V14.0332C334.936 14.0449 334.428 14.0488 333.971 14.0527ZM338.791 16.0918H339.401V12.584H340.526V12.0527H339.401V9.14648H338.791V16.0918Z" fill="#113287"/>
<path d="M346.173 11.2559H342.024V9.4043H341.415V11.748H346.173V11.2559ZM340.548 13.1934H346.907V12.6934H340.548V13.1934ZM341.376 15.9199H346.212V15.4121H341.985V13.9043H341.376V15.9199Z" fill="#113287"/>
<path d="M350.99 11.4121V10.8574H352.568V10.3574H351.005V9.2793H350.388V10.3574H348.802V10.8574H350.396V11.4121C350.392 12.6074 349.634 13.7949 348.615 14.2715L348.966 14.748C349.755 14.3652 350.4 13.5605 350.705 12.5918C350.994 13.4863 351.599 14.248 352.365 14.623L352.724 14.1465C351.716 13.6621 350.994 12.5254 350.99 11.4121ZM353.443 16.0918H354.052V12.5215H355.216V11.998H354.052V9.14648H353.443V16.0918Z" fill="#113287"/>
<path d="M360.918 9.14648H360.301V16.1074H360.918V9.14648ZM355.449 12.1074C355.453 13.5879 356.187 14.5254 357.223 14.5215C358.254 14.5254 359 13.5879 358.996 12.1074C359 10.6309 358.254 9.68945 357.223 9.68555C356.187 9.68945 355.453 10.6309 355.449 12.1074ZM356.043 12.1074C356.043 10.9785 356.527 10.2363 357.223 10.2324C357.922 10.2363 358.402 10.9785 358.402 12.1074C358.402 13.2363 357.922 13.9785 357.223 13.9746C356.527 13.9785 356.043 13.2363 356.043 12.1074Z" fill="#113287"/>
<path d="M367.08 9.14648H366.471V16.0918H367.08V12.4902H368.205V11.9746H367.08V9.14648ZM361.752 14.2871L362.096 14.7715C364.358 13.6543 365.28 11.8613 365.284 9.89648H362.073V10.4121H364.662C364.522 12.0566 363.545 13.3965 361.752 14.2871Z" fill="#113287"/>
<path d="M25.657 24.8105V24.4277H25.0632V24.8105C25.0554 25.4746 24.5281 26.2168 23.6492 26.5449L23.9617 26.998C24.6257 26.748 25.1023 26.2637 25.3523 25.7051C25.5593 26.2871 25.989 26.7949 26.6648 27.0527C27.3054 26.7832 27.7312 26.248 27.946 25.6855C28.1882 26.2676 28.6726 26.752 29.3679 26.998L29.6726 26.5449C28.782 26.2363 28.2546 25.5254 28.2585 24.8105V24.4277H27.657V24.8105C27.6609 25.3457 27.3093 26.041 26.6453 26.4512C25.9851 26.0762 25.6531 25.4238 25.657 24.8105ZM23.4695 22.1855C23.4656 23.1387 24.2351 23.7949 25.2898 23.7949C26.3445 23.7949 27.1062 23.1387 27.1101 22.1855C27.1062 21.2168 26.3445 20.5566 25.2898 20.5605C24.2351 20.5566 23.4656 21.2168 23.4695 22.1855ZM24.071 22.1855C24.0632 21.5371 24.575 21.0762 25.2898 21.084C25.9968 21.0762 26.5085 21.5371 26.5085 22.1855C26.5085 22.8301 25.9968 23.2832 25.2898 23.2871C24.575 23.2832 24.0632 22.8301 24.071 22.1855ZM28.4304 24.123H29.0398V20.1543H28.4304V24.123Z" fill="#113287"/>
<path d="M32.9835 20.5996C31.5343 20.6035 30.4445 21.3613 30.4445 22.5059C30.4445 23.6621 31.5343 24.4199 32.9835 24.4121C34.4328 24.4199 35.5226 23.6621 35.5226 22.5059C35.5226 21.3613 34.4328 20.6035 32.9835 20.5996ZM29.8195 26.1699H36.1789V25.6543H29.8195V26.1699ZM31.0304 22.5059C31.0226 21.6738 31.8625 21.0957 32.9835 21.0996C34.0968 21.0957 34.9289 21.6738 34.9289 22.5059C34.9289 23.3496 34.0968 23.9121 32.9835 23.9121C31.8625 23.9121 31.0226 23.3496 31.0304 22.5059Z" fill="#113287"/>
<path d="M39.7789 20.8418H36.6148V25.334H39.7789V24.2402H41.482V27.1074H42.0914V20.1465H41.482V21.8184H39.7789V20.8418ZM37.2242 24.8418V21.3262H39.1851V24.8418H37.2242ZM39.7789 23.7324V22.3262H41.482V23.7324H39.7789Z" fill="#113287"/>
<path d="M43.9882 25.9355H43.2304L42.8007 28.0605H43.3789L43.9882 25.9355Z" fill="#113287"/>
<path d="M49.6882 20.5996H46.5398V21.1074H49.0359C48.9031 22.2871 47.8406 23.209 46.1804 23.6777L46.4382 24.1621C48.4382 23.5918 49.6843 22.3418 49.6882 20.5996ZM47.3523 26.998H51.8601V24.4121H47.3523V26.998ZM47.946 26.498V24.9043H51.2507V26.498H47.946ZM49.7039 22.459H51.2429V24.1152H51.8601V20.1543H51.2429V21.9434H49.7039V22.459Z" fill="#113287"/>
<path d="M54.9445 22.0137V20.748H54.3429V22.0137C54.3351 23.2832 53.5304 24.6152 52.5148 25.1152L52.9054 25.6074C53.6867 25.1895 54.3429 24.3105 54.6515 23.2871C54.9601 24.252 55.6007 25.0762 56.3664 25.4746L56.7414 24.9824C55.7531 24.498 54.9445 23.2363 54.9445 22.0137ZM57.382 27.0918H57.9914V23.498H59.1554V22.9668H57.9914V20.1465H57.382V27.0918Z" fill="#113287"/>
<path d="M66.496 20.1543H65.8789V22.0762H64.4492V22.584H65.8789V25.248H66.496V20.1543ZM60.7695 23.8574L61.0898 24.3574C61.914 24.0488 62.5546 23.4121 62.8554 22.6074C63.1562 23.3262 63.7617 23.9082 64.5429 24.1934L64.8632 23.7012C63.8476 23.3535 63.1523 22.4824 63.1523 21.584V21.2246H64.707V20.7168H60.9648V21.2246H62.5351V21.584C62.5351 22.5801 61.7929 23.498 60.7695 23.8574ZM62.0351 26.9434H66.6914V26.4277H62.6523V24.7871H62.0351V26.9434Z" fill="#113287"/>
<path d="M72.4695 20.709H69.3601V21.2168H71.825C71.8015 21.5059 71.739 21.7832 71.6375 22.0449L69.0085 22.1699L69.1179 22.6777L71.4187 22.4824C70.9968 23.1621 70.239 23.7129 69.0476 24.1074L69.2976 24.5996C71.5359 23.8496 72.4617 22.502 72.4695 20.709ZM70.2273 26.9434H74.8132V26.4277H70.8523V24.7949H70.2273V26.9434ZM72.4539 22.8809H74.0007V25.3105H74.6179V20.1543H74.0007V22.3652H72.4539V22.8809Z" fill="#113287"/>
<path d="M81.1007 20.1465H80.4835V27.1074H81.1007V20.1465ZM75.8273 25.3809H76.3898C77.796 25.377 78.7101 25.3301 79.7882 25.1387L79.7257 24.623C78.6828 24.8105 77.796 24.8496 76.4445 24.8496V21.3262H79.132V20.8105H75.8273V25.3809Z" fill="#113287"/>
<path d="M84.2632 21.4355V20.5449H83.6617V21.4355C83.6578 22.5254 82.939 23.5215 81.9039 23.9199L82.2398 24.4121C83.0484 24.0762 83.6734 23.4004 83.9703 22.5488C84.2632 23.3379 84.8609 23.9707 85.6226 24.2871L85.9664 23.8105C84.9625 23.416 84.2632 22.4551 84.2632 21.4355ZM83.1539 26.9434H87.8023V26.4277H83.771V24.8027H83.1539V26.9434ZM85.5992 23.1152H87.0289V25.3418H87.646V20.1543H87.0289V21.1855H85.5992V21.6934H87.0289V22.6152H85.5992V23.1152Z" fill="#113287"/>
<path d="M89.5429 25.9355H88.7851L88.3554 28.0605H88.9335L89.5429 25.9355Z" fill="#113287"/>
<path d="M98.1179 21.2246H97.0867V20.1465H96.4773V24.2793H97.0867V23.2246H98.1179V22.7012H97.0867V21.7246H98.1179V21.2246ZM91.7898 22.2012C91.7859 23.1777 92.5593 23.8457 93.6101 23.8496C94.6687 23.8457 95.4304 23.1777 95.4382 22.2012C95.4304 21.2363 94.6687 20.5645 93.6101 20.5684C92.5593 20.5645 91.7859 21.2363 91.7898 22.2012ZM92.3914 22.2012C92.3875 21.5488 92.907 21.0957 93.6101 21.0918C94.321 21.0957 94.8328 21.5488 94.8367 22.2012C94.8328 22.8691 94.321 23.3262 93.6101 23.3184C92.907 23.3262 92.3875 22.8691 92.3914 22.2012ZM92.5398 25.1074H96.4773V27.0918H97.0867V24.5996H92.5398V25.1074Z" fill="#113287"/>
<path d="M104.499 23.084H98.171V23.584H101.023V24.2715H98.9367V24.748H103.085V25.3652H98.9523V27.0137H103.898V26.5293H99.5617V25.8262H103.687V24.2715H101.632V23.584H104.499V23.084ZM98.9914 22.498H103.679V20.3809H98.9914V22.498ZM99.6007 22.0059V20.873H103.069V22.0059H99.6007Z" fill="#113287"/>
<path d="M112.621 23.7402H109.762V22.9043H111.793V20.3105H111.184V21.1152H107.746V20.3105H107.137V22.9043H109.152V23.7402H106.293V24.248H112.621V23.7402ZM106.996 25.4277H111.223V27.0918H111.84V24.9355H106.996V25.4277ZM107.746 22.4121V21.584H111.184V22.4121H107.746Z" fill="#113287"/>
<path d="M119.135 23.584H117.565V22.6035C118.112 22.3848 118.42 22.0332 118.424 21.5684C118.42 20.752 117.483 20.2832 115.971 20.2793C114.448 20.2832 113.51 20.752 113.51 21.5684C113.51 22.0371 113.823 22.3887 114.377 22.6035V23.584H112.807V24.0918H119.135V23.584ZM113.573 25.8496C113.569 26.6426 114.463 27.0762 115.971 27.0762C117.459 27.0762 118.354 26.6426 118.362 25.8496C118.354 25.0566 117.459 24.6191 115.971 24.623C114.463 24.6191 113.569 25.0566 113.573 25.8496ZM114.143 21.5684C114.139 21.0684 114.834 20.7637 115.971 20.7637C117.096 20.7637 117.795 21.0684 117.799 21.5684C117.795 22.0762 117.096 22.3691 115.971 22.373C114.834 22.3691 114.139 22.0762 114.143 21.5684ZM114.198 25.8496C114.19 25.377 114.858 25.0996 115.971 25.0918C117.073 25.0996 117.741 25.377 117.744 25.8496C117.741 26.3223 117.073 26.6035 115.971 26.5996C114.858 26.6035 114.19 26.3223 114.198 25.8496ZM114.987 23.584V22.7715C115.28 22.8223 115.608 22.8496 115.971 22.8496C116.334 22.8496 116.662 22.8223 116.955 22.7676V23.584H114.987Z" fill="#113287"/>
<path d="M120.462 25.9355H119.704L119.274 28.0605H119.852L120.462 25.9355Z" fill="#113287"/>
<path d="M125.74 20.3027C124.228 20.3027 123.279 20.791 123.279 21.623C123.279 22.4434 124.228 22.9238 125.74 22.9199C127.252 22.9238 128.189 22.4434 128.193 21.623C128.189 20.791 127.252 20.3027 125.74 20.3027ZM122.576 24.0293H128.904V23.5215H122.576V24.0293ZM123.349 26.998H128.13V24.7168H123.349V26.998ZM123.912 21.623C123.908 21.1035 124.615 20.7949 125.74 20.7949C126.853 20.7949 127.564 21.1035 127.568 21.623C127.564 22.127 126.853 22.4316 125.74 22.4355C124.615 22.4316 123.908 22.127 123.912 21.623ZM123.959 26.498V25.209H127.529V26.498H123.959Z" fill="#113287"/>
<path d="M132.598 21.1309V21.084H134.816V20.584H129.684V21.084H131.91V21.1309C131.906 22.0605 130.672 22.8496 129.465 23.0293L129.707 23.5137C130.773 23.3301 131.832 22.752 132.254 21.916C132.676 22.752 133.734 23.3301 134.816 23.5137L135.043 23.0293C133.832 22.8496 132.594 22.0605 132.598 21.1309ZM129.09 24.6152H131.941V27.0918H132.543V24.6152H135.418V24.1074H129.09V24.6152Z" fill="#113287"/>
<path d="M139.079 20.6855C138.052 20.6895 137.333 21.6309 137.337 23.1074C137.333 24.5879 138.052 25.5254 139.079 25.5215C139.751 25.5254 140.29 25.1152 140.579 24.4121H142.36V27.1074H142.969V20.1465H142.36V21.7012H140.536C140.235 21.0605 139.716 20.6895 139.079 20.6855ZM137.923 23.1074C137.927 21.9785 138.395 21.2363 139.079 21.2324C139.759 21.2363 140.235 21.9785 140.235 23.1074C140.235 24.2363 139.759 24.9785 139.079 24.9746C138.395 24.9785 137.927 24.2363 137.923 23.1074ZM140.712 22.2168H142.36V23.9043H140.735C140.786 23.6621 140.813 23.3926 140.813 23.1074C140.813 22.7832 140.778 22.4863 140.712 22.2168Z" fill="#113287"/>
<path d="M150.077 24.2715H143.718V24.7715H146.577V27.0918H147.179V24.7715H150.077V24.2715ZM144.53 23.4277H149.257V20.4355H148.64V21.3965H145.14V20.4355H144.53V23.4277ZM145.14 22.9277V21.8965H148.64V22.9277H145.14Z" fill="#113287"/>
<path d="M156.193 20.1465H155.599V27.0918H156.193V20.1465ZM150.326 23.1465C150.33 24.623 150.916 25.5645 151.818 25.5605C152.673 25.5645 153.255 24.7168 153.314 23.3652H154.209V26.7402H154.794V20.2949H154.209V22.8574H153.31C153.232 21.5488 152.662 20.7363 151.818 20.7324C150.916 20.7363 150.33 21.6699 150.326 23.1465ZM150.904 23.1465C150.896 22.0176 151.255 21.3105 151.818 21.3105C152.384 21.3105 152.744 22.0176 152.74 23.1465C152.744 24.2715 152.384 24.9824 151.818 24.9746C151.255 24.9824 150.896 24.2715 150.904 23.1465Z" fill="#113287"/>
<path d="M163.854 20.1387H163.244V27.0918H163.854V23.4043H164.869V22.8809H163.854V20.1387ZM158.573 25.2715H158.877C159.291 25.2715 159.815 25.2598 160.471 25.123L160.409 24.6074C159.948 24.709 159.526 24.7402 159.182 24.752V21.3887H160.338V20.8809H158.573V25.2715ZM160.737 25.2715H161.073C161.776 25.2715 162.268 25.2559 162.877 25.1074L162.815 24.5918C162.323 24.7168 161.889 24.748 161.346 24.7559V21.3887H162.588V20.8809H160.737V25.2715Z" fill="#113287"/>
<path d="M170.251 20.1465H169.641V27.1074H170.251V23.4277H171.415V22.9121H170.251V20.1465ZM165.149 21.3027H167.696V22.7715H165.165V25.4277H165.719C167.059 25.4199 167.985 25.3691 169.079 25.1699L169.016 24.6621C167.966 24.8574 167.063 24.9082 165.774 24.9043V23.2793H168.305V20.7949H165.149V21.3027Z" fill="#113287"/>
<path d="M178.373 20.1465H177.763V27.1074H178.373V23.4121H179.537V22.8965H178.373V20.1465ZM173.302 25.3652H173.849C175.169 25.3652 176.08 25.3262 177.169 25.1309L177.091 24.5996C176.056 24.791 175.169 24.8457 173.912 24.8496V21.334H176.544V20.8262H173.302V25.3652Z" fill="#113287"/>
<path d="M185.871 25.7012H179.512V26.2168H185.871V25.7012ZM180.293 21.1855H184.465V22.2793H180.309V24.4121H185.23V23.9199H180.918V22.7793H185.066V20.6777H180.293V21.1855Z" fill="#113287"/>
<path d="M191.971 20.1465H191.385V27.0918H191.971V20.1465ZM186.034 25.1465L186.393 25.5918C187.362 25.0215 188.034 24.3066 188.452 23.498H189.924V26.7402H190.51V20.334H189.924V22.998H188.678C188.916 22.3809 189.026 21.7207 189.026 21.0371H186.33V21.5449H188.416C188.299 22.998 187.541 24.252 186.034 25.1465Z" fill="#113287"/>
<path d="M200.476 23.6543H194.148V24.1543H200.476V23.6543ZM194.523 22.7871L194.726 23.2715C195.862 23.1426 196.886 22.7246 197.312 22.0215C197.73 22.7246 198.753 23.1426 199.898 23.2715L200.101 22.7871C198.788 22.6738 197.691 22.1348 197.648 21.3418H199.835V20.8496H197.609V20.1309H197.007V20.8496H194.804V21.3418H196.976C196.925 22.1348 195.823 22.6738 194.523 22.7871ZM194.851 25.4043H199.077V27.0918H199.694V24.9043H194.851V25.4043Z" fill="#113287"/>
<path d="M206.419 20.1465H205.802V21.959H204.404V22.4668H205.802V24.2871H206.419V20.1465ZM200.693 23.7324L201.013 24.2246C201.841 23.9082 202.486 23.2598 202.783 22.4473C203.084 23.1621 203.689 23.748 204.466 24.0293L204.787 23.5371C203.771 23.1895 203.076 22.3262 203.076 21.4199V21.1699H204.63V20.6543H200.888V21.1699H202.459V21.4277C202.459 22.4199 201.724 23.3613 200.693 23.7324ZM201.787 25.7949C201.783 26.6152 202.669 27.084 204.115 27.0918C205.556 27.084 206.443 26.6152 206.443 25.7949C206.443 24.9785 205.556 24.502 204.115 24.5059C202.669 24.502 201.783 24.9785 201.787 25.7949ZM202.396 25.7949C202.392 25.2871 203.048 24.9824 204.115 24.9824C205.177 24.9824 205.834 25.2871 205.834 25.7949C205.834 26.2988 205.177 26.6035 204.115 26.5996C203.048 26.6035 202.392 26.2988 202.396 25.7949Z" fill="#113287"/>
<path d="M212.823 21.9824H210.096V20.9277H212.744V20.4512H209.463V22.4668H210.807V23.1973C210.112 23.2246 209.432 23.2324 208.823 23.2324L208.909 23.7246C210.225 23.7246 211.901 23.6816 213.385 23.4512L213.354 23.0215C212.741 23.0957 212.08 23.1426 211.424 23.1738V22.4668H212.823V21.9824ZM209.909 24.7012H213.916V25.3496H209.924V27.0137H214.768V26.5137H210.534V25.8184H214.518V24.209H209.909V24.7012ZM213.909 23.8965H214.518V20.1543H213.909V23.8965Z" fill="#113287"/>
<path d="M220.39 20.7949V20.3965H219.757V20.7949C219.757 21.791 218.487 22.6191 217.234 22.7949L217.484 23.2949C218.566 23.1152 219.632 22.5254 220.077 21.666C220.523 22.5176 221.593 23.1152 222.671 23.2949L222.921 22.7949C221.667 22.6191 220.394 21.7754 220.39 20.7949ZM216.905 24.5762H219.757V27.0918H220.359V24.5762H223.234V24.0605H216.905V24.5762Z" fill="#113287"/>
<path d="M227.379 24.8105V24.4277H226.785V24.8105C226.777 25.4746 226.25 26.2168 225.371 26.5449L225.684 26.998C226.348 26.748 226.824 26.2637 227.074 25.7051C227.281 26.2871 227.711 26.7949 228.387 27.0527C229.027 26.7832 229.453 26.248 229.668 25.6855C229.91 26.2676 230.394 26.752 231.09 26.998L231.394 26.5449C230.504 26.2363 229.977 25.5254 229.98 24.8105V24.4277H229.379V24.8105C229.383 25.3457 229.031 26.041 228.367 26.4512C227.707 26.0762 227.375 25.4238 227.379 24.8105ZM225.191 22.1855C225.187 23.1387 225.957 23.7949 227.012 23.7949C228.066 23.7949 228.828 23.1387 228.832 22.1855C228.828 21.2168 228.066 20.5566 227.012 20.5605C225.957 20.5566 225.187 21.2168 225.191 22.1855ZM225.793 22.1855C225.785 21.5371 226.297 21.0762 227.012 21.084C227.719 21.0762 228.23 21.5371 228.23 22.1855C228.23 22.8301 227.719 23.2832 227.012 23.2871C226.297 23.2832 225.785 22.8301 225.793 22.1855ZM230.152 24.123H230.762V20.1543H230.152V24.123Z" fill="#113287"/>
<path d="M232.955 24.3184H232.346V26.998H237.041V24.3184H236.424V25.1309H232.955V24.3184ZM231.541 23.8262H237.869V23.3184H231.541V23.8262ZM231.901 22.334L232.135 22.8262C233.205 22.666 234.268 22.123 234.709 21.3418C235.151 22.1191 236.209 22.666 237.284 22.8262L237.51 22.334C236.287 22.1777 235.022 21.4082 235.026 20.5527V20.2246H234.393V20.5527C234.393 21.4355 233.139 22.166 231.901 22.334ZM232.955 26.5059V25.6152H236.424V26.5059H232.955Z" fill="#113287"/>
<path d="M243.782 20.1465H243.173V27.0918H243.782V20.1465ZM238.509 25.3027H239.071C240.184 25.3027 241.282 25.2168 242.516 24.959L242.43 24.4355C241.266 24.6816 240.173 24.7637 239.11 24.7715V20.834H238.509V25.3027Z" fill="#113287"/>
<path d="M249.944 20.1465H249.335V27.1074H249.944V23.4121H251.109V22.8965H249.944V20.1465ZM244.874 25.3652H245.421C246.741 25.3652 247.652 25.3262 248.741 25.1309L248.663 24.5996C247.628 24.791 246.741 24.8457 245.484 24.8496V21.334H248.116V20.8262H244.874V25.3652Z" fill="#113287"/>
<path d="M251.818 26.5059C252.095 26.502 252.322 26.2754 252.318 25.998C252.322 25.7246 252.095 25.498 251.818 25.498C251.544 25.498 251.31 25.7246 251.318 25.998C251.31 26.2754 251.544 26.502 251.818 26.5059Z" fill="#113287"/>
<path d="M256.596 20.4902C255.557 20.4824 254.815 21.0566 254.815 21.9043C254.815 22.752 255.557 23.3301 256.596 23.3262C257.635 23.3301 258.381 22.752 258.377 21.9043C258.381 21.0566 257.635 20.4824 256.596 20.4902ZM254.291 23.9199L254.377 24.4434C254.955 24.4395 255.623 24.4355 256.33 24.4043V26.8809H256.94V24.3691C257.612 24.3262 258.299 24.252 258.963 24.1309L258.924 23.6699C257.381 23.8965 255.596 23.9238 254.291 23.9199ZM255.416 21.9043C255.409 21.3652 255.905 20.9824 256.596 20.9902C257.295 20.9824 257.795 21.3652 257.791 21.9043C257.795 22.4473 257.295 22.8223 256.596 22.8184C255.905 22.8223 255.409 22.4473 255.416 21.9043ZM259.432 27.0996H260.034V20.1543H259.432V27.0996Z" fill="#113287"/>
<path d="M268.359 20.1465H267.757V22.9746H266.757V20.3027H266.179V26.7324H266.757V23.498H267.757V27.0918H268.359V20.1465ZM262.78 25.2949H263.21C263.976 25.2949 264.773 25.2441 265.741 25.0684L265.663 24.5215C264.819 24.6934 264.077 24.7441 263.39 24.748V20.998H262.78V25.2949Z" fill="#113287"/>
<path d="M275.271 23.584H273.701V22.6035C274.248 22.3848 274.556 22.0332 274.56 21.5684C274.556 20.752 273.619 20.2832 272.107 20.2793C270.584 20.2832 269.646 20.752 269.646 21.5684C269.646 22.0371 269.959 22.3887 270.513 22.6035V23.584H268.943V24.0918H275.271V23.584ZM269.709 25.8496C269.705 26.6426 270.599 27.0762 272.107 27.0762C273.595 27.0762 274.49 26.6426 274.498 25.8496C274.49 25.0566 273.595 24.6191 272.107 24.623C270.599 24.6191 269.705 25.0566 269.709 25.8496ZM270.279 21.5684C270.275 21.0684 270.97 20.7637 272.107 20.7637C273.232 20.7637 273.931 21.0684 273.935 21.5684C273.931 22.0762 273.232 22.3691 272.107 22.373C270.97 22.3691 270.275 22.0762 270.279 21.5684ZM270.334 25.8496C270.326 25.377 270.994 25.0996 272.107 25.0918C273.209 25.0996 273.877 25.377 273.88 25.8496C273.877 26.3223 273.209 26.6035 272.107 26.5996C270.994 26.6035 270.326 26.3223 270.334 25.8496ZM271.123 23.584V22.7715C271.416 22.8223 271.744 22.8496 272.107 22.8496C272.47 22.8496 272.798 22.8223 273.091 22.7676V23.584H271.123Z" fill="#113287"/>
<path d="M281.785 23.8105H275.457V24.3105H281.785V23.8105ZM276.16 21.7715C276.16 22.6348 277.113 23.1543 278.621 23.1543C280.113 23.1543 281.07 22.6348 281.074 21.7715C281.07 20.9004 280.113 20.3887 278.621 20.3965C277.113 20.3887 276.16 20.9004 276.16 21.7715ZM276.277 26.9434H281.082V26.4277H276.894V24.9199H276.277V26.9434ZM276.793 21.7715C276.789 21.2285 277.5 20.8887 278.621 20.8887C279.734 20.8887 280.445 21.2285 280.449 21.7715C280.445 22.3223 279.734 22.6543 278.621 22.6543C277.5 22.6543 276.789 22.3223 276.793 21.7715Z" fill="#113287"/>
<path d="M289.305 20.1465H288.688V27.1074H289.305V20.1465ZM283.837 23.1074C283.841 24.5879 284.575 25.5254 285.61 25.5215C286.641 25.5254 287.387 24.5879 287.384 23.1074C287.387 21.6309 286.641 20.6895 285.61 20.6855C284.575 20.6895 283.841 21.6309 283.837 23.1074ZM284.43 23.1074C284.43 21.9785 284.915 21.2363 285.61 21.2324C286.309 21.2363 286.79 21.9785 286.79 23.1074C286.79 24.2363 286.309 24.9785 285.61 24.9746C284.915 24.9785 284.43 24.2363 284.43 23.1074Z" fill="#113287"/>
<path d="M293.562 21.3496H292.132V20.3574H291.523V21.3496H290.077V21.8496H293.562V21.3496ZM290.327 23.8965C290.327 24.8301 290.956 25.4863 291.819 25.4902C292.694 25.4863 293.319 24.8301 293.327 23.8965C293.319 22.9746 292.694 22.3223 291.819 22.3184C290.956 22.3223 290.327 22.9746 290.327 23.8965ZM290.874 23.8965C290.874 23.2871 291.269 22.8418 291.819 22.834C292.374 22.8418 292.78 23.2871 292.78 23.8965C292.78 24.5137 292.374 24.9551 291.819 24.9512C291.269 24.9551 290.874 24.5137 290.874 23.8965ZM293.921 26.748H294.499V23.584H295.421V27.0918H296.007V20.1465H295.421V23.0762H294.499V20.3184H293.921V26.748Z" fill="#113287"/>
<path d="M302.959 23.373H296.599V23.8574H302.959V23.373ZM297.365 24.873H301.552V25.4668H297.373V26.998H302.388V26.5527H297.99V25.8887H302.162V24.4121H297.365V24.873ZM297.404 20.8027H301.521V21.373H297.427V22.8496H302.263V22.4043H298.037V21.7949H302.138V20.3574H297.404V20.8027Z" fill="#113287"/>
<path d="M311.065 23.4121H308.19V22.623H310.338V22.1152H306.143V20.9121H310.276V20.4043H305.534V22.623H307.588V23.4121H304.729V23.9199H311.065V23.4121ZM305.557 26.998H310.252V24.3574H309.627V25.1309H306.166V24.3574H305.557V26.998ZM306.166 26.498V25.623H309.627V26.498H306.166Z" fill="#113287"/>
<path d="M316.985 20.1465H316.368V27.0918H316.985V20.1465ZM311.329 25.2871L311.665 25.7871C313.993 24.6699 314.923 22.9004 314.93 20.9043H311.649V21.4043H314.305C314.169 23.0645 313.208 24.3965 311.329 25.2871Z" fill="#113287"/>
<path d="M320.046 20.4902C319.007 20.4824 318.265 21.0566 318.265 21.9043C318.265 22.752 319.007 23.3301 320.046 23.3262C321.085 23.3301 321.831 22.752 321.827 21.9043C321.831 21.0566 321.085 20.4824 320.046 20.4902ZM317.741 23.9199L317.827 24.4434C318.405 24.4395 319.073 24.4355 319.78 24.4043V26.8809H320.39V24.3691C321.062 24.3262 321.749 24.252 322.413 24.1309L322.374 23.6699C320.831 23.8965 319.046 23.9238 317.741 23.9199ZM318.866 21.9043C318.859 21.3652 319.355 20.9824 320.046 20.9902C320.745 20.9824 321.245 21.3652 321.241 21.9043C321.245 22.4473 320.745 22.8223 320.046 22.8184C319.355 22.8223 318.859 22.4473 318.866 21.9043ZM322.882 27.0996H323.484V20.1543H322.882V27.0996Z" fill="#113287"/>
<path d="M327.74 21.3496H326.31V20.3574H325.701V21.3496H324.255V21.8496H327.74V21.3496ZM324.505 23.8965C324.505 24.8301 325.134 25.4863 325.998 25.4902C326.873 25.4863 327.498 24.8301 327.505 23.8965C327.498 22.9746 326.873 22.3223 325.998 22.3184C325.134 22.3223 324.505 22.9746 324.505 23.8965ZM325.052 23.8965C325.052 23.2871 325.447 22.8418 325.998 22.834C326.552 22.8418 326.959 23.2871 326.959 23.8965C326.959 24.5137 326.552 24.9551 325.998 24.9512C325.447 24.9551 325.052 24.5137 325.052 23.8965ZM328.099 26.748H328.677V23.584H329.599V27.0918H330.185V20.1465H329.599V23.0762H328.677V20.3184H328.099V26.748Z" fill="#113287"/>
<path d="M338.323 20.1465H337.721V22.9512H336.76V20.334H336.174V26.748H336.76V23.459H337.721V27.0918H338.323V20.1465ZM332.401 25.1699L332.76 25.5996C334.756 24.4863 335.377 22.8184 335.385 21.0527H332.666V21.5605H334.784C334.678 22.998 334.014 24.2676 332.401 25.1699Z" fill="#113287"/>
<path d="M339.946 20.498H339.321V23.9199H339.844C341.012 23.916 341.884 23.8691 342.899 23.6777L342.821 23.1699C341.872 23.3574 341.032 23.4004 339.946 23.4043V20.498ZM340.173 26.998H344.665V24.5449H340.173V26.998ZM340.774 26.498V25.0371H344.055V26.498H340.774ZM342.055 22.6465H344.048V24.2402H344.665V20.1465H344.048V20.9434H342.055V21.4199H344.048V22.1699H342.055V22.6465Z" fill="#113287"/>
<path d="M347.835 21.4277V21.1309H349.39V20.6309H345.648V21.1309H347.218V21.4355C347.218 22.416 346.476 23.3418 345.452 23.709L345.773 24.1934C346.597 23.8887 347.241 23.248 347.542 22.4512C347.839 23.166 348.444 23.748 349.226 24.0293L349.546 23.5449C348.53 23.1934 347.835 22.3301 347.835 21.4277ZM346.507 25.1855H350.562V27.0918H351.179V24.6777H346.507V25.1855ZM349.171 22.4824H350.562V24.3105H351.179V20.1465H350.562V21.9668H349.171V22.4824Z" fill="#113287"/>
<path d="M355.099 20.5996C353.65 20.6035 352.56 21.3613 352.56 22.5059C352.56 23.6621 353.65 24.4199 355.099 24.4121C356.548 24.4199 357.638 23.6621 357.638 22.5059C357.638 21.3613 356.548 20.6035 355.099 20.5996ZM351.935 26.1699H358.294V25.6543H351.935V26.1699ZM353.146 22.5059C353.138 21.6738 353.978 21.0957 355.099 21.0996C356.212 21.0957 357.044 21.6738 357.044 22.5059C357.044 23.3496 356.212 23.9121 355.099 23.9121C353.978 23.9121 353.138 23.3496 353.146 22.5059Z" fill="#113287"/>
<path d="M364.809 25.7168H361.91V24.4043H364.168V23.8965H359.855V22.7637H364.004V20.6621H359.23V21.1699H363.402V22.2637H359.246V24.4043H361.309V25.7168H358.449V26.2324H364.809V25.7168Z" fill="#113287"/>
<path d="M28.9148 34.4043H24.7351V32.2168H28.8445V31.7168H24.1179V34.9043H26.1648V36.7012H23.3054V37.2168H29.6648V36.7012H26.7664V34.9043H28.9148V34.4043Z" fill="#113287"/>
<path d="M32.2804 32.1543V31.4902H31.6554V32.1543C31.6554 33.2051 30.9289 34.166 29.8898 34.5527L30.2101 35.0371C31.0265 34.7207 31.6671 34.0723 31.9718 33.248C32.2843 34.0176 32.921 34.6152 33.7257 34.9121L34.0382 34.4277C33.007 34.0684 32.2726 33.166 32.2804 32.1543ZM30.882 36.1855H34.9445V38.0918H35.5539V35.6777H30.882V36.1855ZM34.9445 35.334H35.5539V31.1465H34.9445V35.334Z" fill="#113287"/>
<path d="M41.7242 31.1465H41.107V38.0918H41.7242V34.623H42.8335V34.1074H41.7242V31.1465ZM36.2476 36.2402L36.3492 36.7637C37.5679 36.7637 39.2085 36.748 40.7242 36.4902L40.6851 36.0215C40.0796 36.1074 39.4234 36.1621 38.7789 36.1934V35.4512C39.5835 35.3574 40.1187 34.8848 40.1226 34.1934C40.1187 33.4082 39.4429 32.9004 38.4742 32.9043C37.4898 32.9004 36.8257 33.4082 36.8335 34.1934C36.8257 34.8809 37.3531 35.3574 38.1617 35.4512V36.2168C37.4742 36.2363 36.814 36.2402 36.2476 36.2402ZM36.3726 32.498H40.5601V31.998H38.7789V31.1621H38.1617V31.998H36.3726V32.498ZM37.4039 34.1934C37.4078 33.709 37.8296 33.3809 38.4742 33.3809C39.107 33.3809 39.5328 33.709 39.5367 34.1934C39.5328 34.6738 39.107 34.9902 38.4742 34.9824C37.8296 34.9902 37.4078 34.6738 37.4039 34.1934Z" fill="#113287"/>
<path d="M49.8851 31.1543H49.2757V36.3574H49.8851V33.959H50.932V33.4434H49.8851V31.1543ZM44.471 32.5059H48.6117V32.0059H46.846V31.1543H46.2367V32.0059H44.471V32.5059ZM44.8695 34.1855C44.8656 34.9668 45.5375 35.4707 46.5414 35.4668C47.5335 35.4707 48.2054 34.9668 48.2132 34.1855C48.2054 33.3965 47.5335 32.8887 46.5414 32.8887C45.5375 32.8887 44.8656 33.3965 44.8695 34.1855ZM45.4554 34.1855C45.4515 33.6895 45.8851 33.3691 46.5414 33.373C47.1898 33.3691 47.6273 33.6895 47.6351 34.1855C47.6273 34.6738 47.1898 34.9902 46.5414 34.9824C45.8851 34.9902 45.4515 34.6738 45.4554 34.1855ZM45.5414 37.9434H50.2054V37.4277H46.1429V35.9434H45.5414V37.9434Z" fill="#113287"/>
<path d="M58.3351 31.1543H57.7179V33.1074H56.1945V33.623H57.7179V35.8574H58.3351V31.1543ZM52.6945 34.9121L52.9679 35.4043C54.964 34.7637 56.1593 33.4824 56.1632 31.7012H53.0382V32.2012H55.5109C55.382 33.4355 54.3546 34.4004 52.6945 34.9121ZM53.421 37.584L53.671 38.0684C54.7062 37.8652 55.6593 37.3223 56.0812 36.502C56.4914 37.3145 57.4367 37.8574 58.4601 38.0527L58.7179 37.5605C57.4953 37.3418 56.3859 36.5801 56.382 35.5684V35.248H55.7804V35.5684C55.7726 36.5918 54.6515 37.3691 53.421 37.584Z" fill="#113287"/>
<path d="M62.2554 31.5996C60.8062 31.6035 59.7164 32.3613 59.7164 33.5059C59.7164 34.6621 60.8062 35.4199 62.2554 35.4121C63.7046 35.4199 64.7945 34.6621 64.7945 33.5059C64.7945 32.3613 63.7046 31.6035 62.2554 31.5996ZM59.0914 37.1699H65.4507V36.6543H59.0914V37.1699ZM60.3023 33.5059C60.2945 32.6738 61.1343 32.0957 62.2554 32.0996C63.3687 32.0957 64.2007 32.6738 64.2007 33.5059C64.2007 34.3496 63.3687 34.9121 62.2554 34.9121C61.1343 34.9121 60.2945 34.3496 60.3023 33.5059Z" fill="#113287"/>
<path d="M71.9648 36.7168H69.0664V35.4043H71.3242V34.8965H67.0117V33.7637H71.1601V31.6621H66.3867V32.1699H70.5585V33.2637H66.4023V35.4043H68.4648V36.7168H65.6054V37.2324H71.9648V36.7168Z" fill="#113287"/>
<path d="M79.4539 31.1465H78.8523V34.748H79.4539V31.1465ZM73.7742 34.1934L74.0945 34.6777C74.9187 34.3809 75.571 33.7441 75.8835 32.9355C76.196 33.6855 76.8406 34.2676 77.657 34.5449L77.9617 34.0684C76.9304 33.7285 76.1804 32.8613 76.1882 31.8809V31.3496H75.5632V31.8809C75.5632 32.9004 74.821 33.8301 73.7742 34.1934ZM74.946 35.5918H78.8523V36.2871H74.9617V38.0137H79.7117V37.5137H75.5632V36.7637H79.4617V35.0996H74.946V35.5918Z" fill="#113287"/>
<path d="M86.1789 31.1465H85.5929V38.0918H86.1789V31.1465ZM80.1554 36.2402L80.546 36.7012C81.2414 36.2676 81.7453 35.4512 81.9953 34.4941C82.2374 35.377 82.7218 36.127 83.4054 36.5371L83.7804 36.084C82.8234 35.5293 82.2804 34.3301 82.2804 33.1309V32.4746H83.5539V31.9668H80.3507V32.4746H81.6867V33.1309C81.6906 34.3926 81.1242 35.6621 80.1554 36.2402ZM83.0226 34.1543H84.1945V37.7324H84.7726V31.3184H84.1945V33.6543H83.0226V34.1543Z" fill="#113287"/>
<path d="M93.7929 31.1465H93.1835V36.2715H93.7929V33.7793H94.8398V33.2637H93.7929V31.1465ZM88.496 33.3496C88.4921 34.3535 89.2812 35.0605 90.3164 35.0605C91.3593 35.0605 92.1367 34.3535 92.1445 33.3496C92.1367 32.3418 91.3593 31.6426 90.3164 31.6387C89.2812 31.6426 88.4921 32.3418 88.496 33.3496ZM89.0976 33.3496C89.0937 32.6621 89.6289 32.1777 90.3164 32.1777C91.0156 32.1777 91.539 32.6621 91.5429 33.3496C91.539 34.0332 91.0156 34.5215 90.3164 34.5215C89.6289 34.5215 89.0937 34.0332 89.0976 33.3496ZM89.4492 37.9434H94.1132V37.4277H90.0507V35.7402H89.4492V37.9434Z" fill="#113287"/>
<path d="M100.369 31.5996H95.6742V32.1074H99.7601V32.209C99.7601 32.8574 99.7601 33.584 99.5492 34.584H94.8773V35.0918H97.721V38.1074H98.3382V35.0918H101.205V34.584H100.17C100.369 33.5879 100.369 32.8652 100.369 32.209V31.5996Z" fill="#113287"/>
<path d="M107.321 31.1465H106.719V33.9746H105.719V31.3027H105.141V37.7324H105.719V34.498H106.719V38.0918H107.321V31.1465ZM101.743 36.2949H102.173C102.938 36.2949 103.735 36.2441 104.704 36.0684L104.626 35.5215C103.782 35.6934 103.04 35.7441 102.352 35.748V31.998H101.743V36.2949Z" fill="#113287"/>
<path d="M115.873 36.7012H112.982V35.1074H112.38V36.7012H109.513V37.2168H115.873V36.7012ZM109.865 34.873L110.107 35.3574C111.224 35.1621 112.244 34.5996 112.681 33.7285C113.127 34.5996 114.146 35.1621 115.255 35.3574L115.49 34.873C114.158 34.6582 112.998 33.8496 112.998 32.7637H115.263V32.2559H112.982V31.2949H112.38V32.2559H110.107V32.7637H112.373C112.365 33.8496 111.205 34.6582 109.865 34.873Z" fill="#113287"/>
<path d="M121.785 31.1465H121.168V32.8887H119.762V33.4043H121.168V35.2168H121.785V31.1465ZM116.059 34.6621L116.379 35.1465C117.203 34.8457 117.844 34.209 118.144 33.4043C118.445 34.123 119.051 34.7051 119.832 34.9902L120.152 34.5059C119.137 34.1426 118.441 33.2754 118.441 32.3809V32.1074H119.996V31.5996H116.254V32.1074H117.824V32.3809C117.824 33.3691 117.082 34.2988 116.059 34.6621ZM117.246 37.998H121.785V35.5605H117.246V37.998ZM117.855 37.498V36.0527H121.184V37.498H117.855Z" fill="#113287"/>
<path d="M126.438 31.4902C125.399 31.4824 124.657 32.0566 124.657 32.9043C124.657 33.752 125.399 34.3301 126.438 34.3262C127.477 34.3301 128.223 33.752 128.219 32.9043C128.223 32.0566 127.477 31.4824 126.438 31.4902ZM124.134 34.9199L124.219 35.4434C124.798 35.4395 125.466 35.4355 126.173 35.4043V37.8809H126.782V35.3691C127.454 35.3262 128.141 35.252 128.805 35.1309L128.766 34.6699C127.223 34.8965 125.438 34.9238 124.134 34.9199ZM125.259 32.9043C125.251 32.3652 125.747 31.9824 126.438 31.9902C127.137 31.9824 127.637 32.3652 127.634 32.9043C127.637 33.4473 127.137 33.8223 126.438 33.8184C125.747 33.8223 125.251 33.4473 125.259 32.9043ZM129.274 38.0996H129.876V31.1543H129.274V38.0996Z" fill="#113287"/>
<path d="M136.39 31.1465H135.773V38.0918H136.39V31.1465ZM130.804 36.2715L131.148 36.748C131.952 36.3691 132.624 35.5684 132.937 34.5996C133.261 35.5176 133.937 36.2676 134.741 36.623L135.085 36.1465C134.038 35.7012 133.226 34.5762 133.226 33.4121V32.8574H134.843V32.3574H133.226V31.2793H132.616V32.3574H130.991V32.8574H132.624V33.4121C132.624 34.6309 131.835 35.8027 130.804 36.2715Z" fill="#113287"/>
<path d="M142.552 31.1465H141.943V38.0918H142.552V34.4902H143.677V33.9746H142.552V31.1465ZM137.224 36.2871L137.568 36.7715C139.83 35.6543 140.752 33.8613 140.755 31.8965H137.544V32.4121H140.134C139.994 34.0566 139.017 35.3965 137.224 36.2871Z" fill="#113287"/>
<path d="M147.159 31.6855C146.127 31.6895 145.405 32.6309 145.409 34.1074C145.405 35.5879 146.127 36.5254 147.159 36.5215C148.182 36.5254 148.909 35.5879 148.916 34.1074C148.909 32.6309 148.182 31.6895 147.159 31.6855ZM145.987 34.1074C145.991 32.9785 146.471 32.2363 147.159 32.2324C147.854 32.2363 148.323 32.9785 148.323 34.1074C148.323 35.2363 147.854 35.9785 147.159 35.9746C146.471 35.9785 145.991 35.2363 145.987 34.1074ZM150.065 38.0918H150.674V34.4512H151.838V33.9199H150.674V31.1465H150.065V38.0918Z" fill="#113287"/>
<path d="M157.548 31.1543H156.938V34.8105H157.548V31.1543ZM152.251 34.4668H152.813C154.012 34.4629 155.063 34.377 156.243 34.1465L156.149 33.6387C155.04 33.8652 154.001 33.9395 152.86 33.9434V31.498H152.251V34.4668ZM153.055 37.998H157.548V35.123H156.938V36.0684H153.673V35.123H153.055V37.998ZM153.673 37.498V36.5527H156.938V37.498H153.673Z" fill="#113287"/>
<path d="M164.054 31.1465H163.444V38.0918H164.054V31.1465ZM158.78 36.3027H159.343C160.456 36.3027 161.554 36.2168 162.788 35.959L162.702 35.4355C161.538 35.6816 160.444 35.7637 159.382 35.7715V31.834H158.78V36.3027Z" fill="#113287"/>
<path d="M170.216 31.1465H169.607V38.1074H170.216V34.4121H171.38V33.8965H170.216V31.1465ZM165.146 36.3652H165.693C167.013 36.3652 167.923 36.3262 169.013 36.1309L168.935 35.5996C167.9 35.791 167.013 35.8457 165.755 35.8496V32.334H168.388V31.8262H165.146V36.3652Z" fill="#113287"/>
<path d="M172.09 37.5059C172.367 37.502 172.594 37.2754 172.59 36.998C172.594 36.7246 172.367 36.498 172.09 36.498C171.816 36.498 171.582 36.7246 171.59 36.998C171.582 37.2754 171.816 37.502 172.09 37.5059Z" fill="#113287"/>
<path d="M174.734 35.5723C174.741 36.8643 175.09 37.9375 175.719 38.8535H176.238C175.777 38.1733 175.346 36.7925 175.343 35.5723C175.346 34.3555 175.777 32.9712 176.238 32.2979H175.719C175.09 33.2104 174.741 34.2837 174.734 35.5723Z" fill="#113287"/>
<path d="M181.432 31.9424H180.892V32.8926H179.313C179.029 32.5405 178.585 32.3286 178.069 32.3252C177.16 32.3286 176.486 32.9575 176.49 33.8496C176.486 34.7383 177.16 35.3672 178.069 35.3672C178.588 35.3672 179.04 35.1519 179.32 34.793H180.892V36.4336H181.432V31.9424ZM177.002 33.8496C177.002 33.2446 177.447 32.8071 178.069 32.8037C178.667 32.8071 179.122 33.2446 179.122 33.8496C179.122 34.458 178.667 34.8921 178.069 34.8887C177.447 34.8921 177.002 34.458 177.002 33.8496ZM177.529 37.8828H181.603V37.4316H178.069V35.9619H177.529V37.8828ZM179.556 33.3369H180.892V34.3486H179.559C179.61 34.1948 179.641 34.0273 179.641 33.8496C179.641 33.665 179.61 33.4941 179.556 33.3369Z" fill="#113287"/>
<path d="M184.979 32.2842H182.34V32.7285H184.445V33.5557H182.354V35.3535H182.784C184.015 35.3604 184.633 35.3364 185.389 35.2031L185.334 34.7588C184.62 34.8921 184.028 34.916 182.887 34.916V33.9863H184.979V32.2842ZM183.078 36.9326C183.075 37.6436 183.851 38.0503 185.122 38.0469C186.387 38.0503 187.156 37.6436 187.152 36.9326C187.156 36.2217 186.387 35.8047 185.122 35.8047C183.851 35.8047 183.075 36.2217 183.078 36.9326ZM183.625 36.9326C183.618 36.4883 184.182 36.2319 185.122 36.2285C186.048 36.2319 186.63 36.4883 186.626 36.9326C186.63 37.3735 186.048 37.623 185.122 37.623C184.182 37.623 183.618 37.3735 183.625 36.9326ZM185.389 34.5811H186.592V35.7021H187.132V31.9424H186.592V32.8994H185.389V33.3369H186.592V34.1299H185.389V34.5811Z" fill="#113287"/>
<path d="M192.825 31.9355H192.292V32.8105H190.856V32.2227H190.33V33.0977H188.635V32.2227H188.101V34.8682H190.856V34.335H192.292V35.1143H192.825V31.9355ZM188.635 34.4307V33.5215H190.33V34.4307H188.635ZM188.887 35.8389H192.292V36.4268H188.901V37.9307H193.057V37.5H189.434V36.8369H192.825V35.4082H188.887V35.8389ZM190.856 33.9111V33.2275H192.292V33.9111H190.856Z" fill="#113287"/>
<path d="M199.733 32.1885H195.604V32.626H199.2C199.204 33.019 199.197 33.4907 199.067 34.1436H194.9V34.5674H197.402V35.3604H195.563V35.791H199.221V36.4336H195.57V37.9443H199.911V37.5068H196.11V36.8232H199.754V35.3604H197.929V34.5674H200.465V34.1436H199.607C199.733 33.4941 199.733 32.9712 199.733 32.5781V32.1885Z" fill="#113287"/>
<path d="M202.706 32.8789V32.7012H204.066V32.2568H200.792V32.7012H202.166V32.8721C202.166 33.6582 201.513 34.417 200.627 34.7246L200.894 35.1484C201.605 34.9023 202.169 34.3691 202.439 33.7163C202.702 34.3076 203.239 34.7793 203.929 35.0049L204.196 34.5811C203.317 34.3008 202.702 33.6001 202.706 32.8789ZM201.694 35.8184H205.098V36.4268H201.708V37.9443H205.864V37.5137H202.241V36.8369H205.631V35.3809H201.694V35.8184ZM203.875 33.7402H205.098V35.0801H205.631V31.9355H205.098V33.2959H203.875V33.7402Z" fill="#113287"/>
<path d="M211.311 31.9355H210.771V38.0264H211.311V31.9355ZM206.526 34.5264C206.529 35.8218 207.172 36.6421 208.077 36.6387C208.98 36.6421 209.632 35.8218 209.629 34.5264C209.632 33.2344 208.98 32.4106 208.077 32.4072C207.172 32.4106 206.529 33.2344 206.526 34.5264ZM207.045 34.5264C207.045 33.5386 207.469 32.8892 208.077 32.8857C208.689 32.8892 209.11 33.5386 209.11 34.5264C209.11 35.5142 208.689 36.1636 208.077 36.1602C207.469 36.1636 207.045 35.5142 207.045 34.5264Z" fill="#113287"/>
<path d="M214.03 32.9199V32.25H213.504V32.8789C213.5 33.8188 212.888 34.6323 211.979 34.9707L212.266 35.4014C212.977 35.1245 213.521 34.5674 213.781 33.8462C214.047 34.4819 214.577 34.9844 215.247 35.2305L215.541 34.8066C214.659 34.5059 214.03 33.7471 214.03 32.9199ZM212.786 36.8916C212.789 37.5991 213.552 37.999 214.802 37.999C216.05 37.999 216.805 37.5991 216.805 36.8916C216.805 36.1978 216.05 35.791 214.802 35.791C213.552 35.791 212.789 36.1978 212.786 36.8916ZM213.326 36.8916C213.319 36.478 213.886 36.2217 214.802 36.2217C215.722 36.2217 216.282 36.478 216.286 36.8916C216.282 37.3223 215.722 37.5718 214.802 37.5752C213.886 37.5718 213.319 37.3223 213.326 36.8916ZM216.218 35.6338H216.751V33.9727H217.667V33.5215H216.751V31.9355H216.218V35.6338Z" fill="#113287"/>
<path d="M224.124 31.9424H223.591V35.3945H224.124V31.9424ZM219.154 34.8135L219.428 35.2373C220.152 34.9673 220.72 34.4067 220.99 33.7026C221.263 34.3657 221.827 34.8784 222.531 35.1211L222.805 34.7109C221.909 34.3931 221.253 33.6343 221.26 32.7764V32.1816H220.713V32.7764C220.713 33.6685 220.074 34.4922 219.154 34.8135ZM220.173 37.9307H224.124V35.7432H220.173V37.9307ZM220.699 37.4932V36.1807H223.598V37.4932H220.699Z" fill="#113287"/>
<path d="M229.557 31.9355H229.024V35.5039H229.557V33.9385H230.473V33.4805H229.557V31.9355ZM224.799 35.0186L225.018 35.4355C226.813 34.9604 227.886 33.8633 227.889 32.3252H225.073V32.7695H227.318C227.209 33.8018 226.29 34.6152 224.799 35.0186ZM225.579 36.2217H229.024V38.0127H229.557V35.7842H225.579V36.2217Z" fill="#113287"/>
<path d="M235.414 34.7861H231.757V32.8721H235.353V32.4346H231.217V35.2236H233.008V36.7959H230.506V37.2471H236.07V36.7959H233.534V35.2236H235.414V34.7861Z" fill="#113287"/>
<path d="M242.623 31.9355H242.083V38.0264H242.623V31.9355ZM237.968 36.5566H240.839V32.4551H240.313V34.0615H238.501V32.4551H237.968V36.5566ZM238.501 36.1055V34.4922H240.313V36.1055H238.501Z" fill="#113287"/>
<path d="M246.081 32.0107C244.724 32.0107 243.928 32.3867 243.928 33.0635C243.928 33.7471 244.724 34.1196 246.081 34.123C247.431 34.1196 248.224 33.7471 248.227 33.0635C248.224 32.3867 247.431 32.0107 246.081 32.0107ZM243.312 34.9297H244.823V35.5312H243.982V35.9414H247.612V36.4951H243.996V37.9443H248.323V37.5205H244.529V36.8916H248.139V35.5312H247.305V34.9297H248.85V34.4922H243.312V34.9297ZM244.488 33.0635C244.481 32.6636 245.073 32.4277 246.081 32.4209C247.089 32.4277 247.677 32.6636 247.681 33.0635C247.677 33.4805 247.089 33.7061 246.081 33.7129C245.073 33.7061 244.481 33.4805 244.488 33.0635ZM245.35 35.5312V34.9297H246.771V35.5312H245.35Z" fill="#113287"/>
<path d="M255.956 35.1621H253.447V34.5605H255.3V34.1299H251.691V33.5283H255.102V33.1182H251.691V32.5508H255.266V32.1133H251.151V34.5605H252.914V35.1621H250.412V35.5996H255.956V35.1621ZM251.089 37.0283C251.086 37.6675 251.841 37.999 253.188 37.999C254.521 37.999 255.273 37.6675 255.279 37.0283C255.273 36.396 254.521 36.0508 253.188 36.0576C251.841 36.0508 251.086 36.396 251.089 37.0283ZM251.629 37.0283C251.622 36.666 252.183 36.4644 253.188 36.4609C254.182 36.4644 254.736 36.666 254.739 37.0283C254.736 37.3975 254.182 37.5889 253.188 37.582C252.183 37.5889 251.622 37.3975 251.629 37.0283Z" fill="#113287"/>
<path d="M261.321 31.9355H260.808V38.0127H261.321V31.9355ZM256.112 36.3105L256.44 36.7002C257.589 36.0132 258.255 35.104 258.549 34.0752H259.578V35.1553H258.45V35.5996H259.578V37.7051H260.091V32.0996H259.578V33.6309H258.655C258.71 33.3335 258.737 33.0259 258.737 32.7148H256.385V33.1592H258.204C258.098 34.4307 257.435 35.5278 256.112 36.3105Z" fill="#113287"/>
<path d="M265.283 33.8018V33.0088H266.65V32.5645H263.342V33.0088H264.757V33.8018C264.75 34.8374 263.998 35.9927 263.123 36.4199L263.451 36.8438C264.131 36.4951 264.74 35.709 265.02 34.8169C265.293 35.6406 265.871 36.3584 266.555 36.6934L266.862 36.2695C265.98 35.8491 265.276 34.7759 265.283 33.8018ZM267.395 38.0127H267.929V34.8545H268.947V34.3965H267.929V31.9355H267.395V38.0127Z" fill="#113287"/>
<path d="M274.49 36.8096H272.979V35.6543H273.929V35.21H270.156V34.2256H273.786V32.3867H269.609V32.8311H273.259V33.7812H269.623V35.6543H270.491V36.8096H268.925V37.2607H274.49V36.8096ZM271.017 36.8096V35.6543H272.453V36.8096H271.017Z" fill="#113287"/>
<path d="M281.569 34.6426H276.039V35.0596H278.534V35.627H276.702V36.0303H280.332V36.5566H276.716V37.9443H281.043V37.5342H277.249V36.9395H280.858V35.627H279.06V35.0596H281.569V34.6426ZM276.333 33.9521L276.49 34.3623C277.509 34.2769 278.425 33.9624 278.801 33.3848C279.173 33.9624 280.089 34.2769 281.104 34.3623L281.268 33.9521C280.147 33.8804 279.197 33.501 279.101 32.8926H281.009V32.4688H279.06V31.9014H278.534V32.4688H276.606V32.8926H278.496C278.397 33.501 277.447 33.8804 276.333 33.9521Z" fill="#113287"/>
<path d="M286.77 31.9355H286.23V34.3828H284.897V34.8271H286.23V38.0264H286.77V31.9355ZM281.745 36.4199L282.053 36.8369C282.747 36.502 283.311 35.7944 283.574 34.9468C283.844 35.7466 284.415 36.4131 285.109 36.7275L285.416 36.3105C284.517 35.9072 283.83 34.9194 283.83 33.918V33.4326H285.211V32.9951H283.837V32.0518H283.304V32.9951H281.91V33.4326H283.304V33.918C283.304 34.9639 282.638 36.0029 281.745 36.4199Z" fill="#113287"/>
<path d="M289.481 37.5C289.724 37.4966 289.922 37.2983 289.919 37.0557C289.922 36.8164 289.724 36.6182 289.481 36.6182C289.242 36.6182 289.037 36.8164 289.044 37.0557C289.037 37.2983 289.242 37.4966 289.481 37.5ZM289.044 34.3076C289.037 34.5503 289.242 34.7485 289.481 34.752C289.724 34.7485 289.922 34.5503 289.919 34.3076C289.922 34.0684 289.724 33.8701 289.481 33.8701C289.242 33.8701 289.037 34.0684 289.044 34.3076Z" fill="#113287"/>
<path d="M297.237 36.7891H294.701V35.4766H296.553V32.3662H296.027V33.4668H292.869V32.3662H292.329V35.4766H294.175V36.7891H291.673V37.2334H297.237V36.7891ZM292.869 35.0391V33.9043H296.027V35.0391H292.869Z" fill="#113287"/>
<path d="M302.41 31.9424H301.87V33.8154H300.524V34.2666H301.87V36.4336H302.41V31.9424ZM297.468 35.292L297.701 35.7227C299.427 35.1587 300.544 33.9692 300.551 32.4072H297.776V32.8584H299.963C299.84 33.9556 298.866 34.8306 297.468 35.292ZM298.541 37.8828H302.568V37.4316H299.088V35.9756H298.541V37.8828Z" fill="#113287"/>
<path d="M308.609 35.0801H306.107V34.3486H307.885V32.0791H307.352V32.7832H304.344V32.0791H303.81V34.3486H305.574V35.0801H303.072V35.5244H308.609V35.0801ZM303.687 36.5566H307.386V38.0127H307.926V36.126H303.687V36.5566ZM304.344 33.918V33.1934H307.352V33.918H304.344Z" fill="#113287"/>
<path d="M310.946 33.8018V33.0088H312.395V32.5645H308.97V33.0088H310.406V33.8018C310.402 34.8545 309.644 36.0029 308.772 36.4199L309.093 36.8438C309.787 36.4951 310.402 35.7227 310.686 34.8306C310.97 35.6714 311.582 36.3721 312.293 36.6934L312.593 36.2695C311.698 35.8833 310.949 34.834 310.946 33.8018ZM313.243 38.0127H313.783V31.9355H313.243V38.0127Z" fill="#113287"/>
<path d="M320.029 35.5449H314.465V35.9824H316.967V38.0127H317.493V35.9824H320.029V35.5449ZM315.176 34.8066H319.312V32.1885H318.772V33.0293H315.709V32.1885H315.176V34.8066ZM315.709 34.3691V33.4668H318.772V34.3691H315.709Z" fill="#113287"/>
<path d="M326.411 32.2363H322.283V32.6738H325.878C325.882 33.125 325.882 33.6616 325.721 34.4033H321.578V34.8408H324.08V35.9619H322.153V36.4062H325.912V38.0127H326.452V35.9619H324.614V34.8408H327.143V34.4033H326.261C326.411 33.6719 326.411 33.125 326.411 32.6738V32.2363Z" fill="#113287"/>
<path d="M330.45 32.4688H327.6V35.2852H330.45V32.4688ZM328.126 34.8545V32.9131H329.924V34.8545H328.126ZM328.372 37.8076H332.487V37.3633H328.905V35.8867H328.372V37.8076ZM331.763 36.3105H332.296V31.9424H331.763V36.3105Z" fill="#113287"/>
<path d="M338.016 31.9424H337.476V33.8154H336.129V34.2666H337.476V36.4336H338.016V31.9424ZM333.074 35.292L333.306 35.7227C335.032 35.1587 336.15 33.9692 336.157 32.4072H333.381V32.8584H335.569C335.446 33.9556 334.472 34.8306 333.074 35.292ZM334.147 37.8828H338.173V37.4316H334.694V35.9756H334.147V37.8828Z" fill="#113287"/>
<path d="M343.429 31.9355H342.896V35.5859H343.429V33.9658H344.345V33.5215H343.429V31.9355ZM338.685 35.1553L338.91 35.5928C340.681 35.0698 341.771 33.9351 341.775 32.3867H338.951V32.8311H341.197C341.088 33.8872 340.151 34.7314 338.685 35.1553ZM339.519 36.8232C339.515 37.5615 340.298 37.999 341.508 37.999C342.728 37.999 343.497 37.5615 343.497 36.8232C343.497 36.0952 342.728 35.6509 341.508 35.6543C340.298 35.6509 339.515 36.0952 339.519 36.8232ZM340.052 36.8232C340.045 36.3652 340.616 36.0815 341.508 36.085C342.4 36.0815 342.978 36.3652 342.978 36.8232C342.978 37.2812 342.4 37.5718 341.508 37.5684C340.616 37.5718 340.045 37.2812 340.052 36.8232Z" fill="#113287"/>
<path d="M346.052 32.3047C345.143 32.3013 344.47 32.896 344.473 33.7471C344.47 34.5913 345.143 35.186 346.052 35.1826C346.565 35.186 347.003 34.9912 347.283 34.6699H348.876V35.5381H349.416V31.9355H348.876V32.8174H347.283C346.999 32.4961 346.565 32.3013 346.052 32.3047ZM344.986 33.7471C344.986 33.1694 345.43 32.7661 346.052 32.7695C346.654 32.7661 347.105 33.1694 347.105 33.7471C347.105 34.311 346.654 34.728 346.052 34.7246C345.43 34.728 344.986 34.311 344.986 33.7471ZM345.362 36.8369C345.359 37.5752 346.138 37.999 347.399 37.999C348.657 37.999 349.436 37.5752 349.436 36.8369C349.436 36.1055 348.657 35.6816 347.399 35.6816C346.138 35.6816 345.359 36.1055 345.362 36.8369ZM345.888 36.8369C345.885 36.3755 346.466 36.1021 347.399 36.0986C348.332 36.1021 348.913 36.3755 348.91 36.8369C348.913 37.2949 348.332 37.5718 347.399 37.5684C346.466 37.5718 345.885 37.2949 345.888 36.8369ZM347.539 33.2549H348.876V34.2256H347.543C347.594 34.0786 347.625 33.918 347.625 33.7471C347.625 33.5693 347.594 33.4053 347.539 33.2549Z" fill="#113287"/>
<path d="M355.731 32.8584H354.828V31.9355H354.295V35.5449H354.828V34.6016H355.731V34.1504H354.828V33.3027H355.731V32.8584ZM350.194 33.7334C350.19 34.5776 350.867 35.1587 351.786 35.1621C352.713 35.1587 353.379 34.5776 353.386 33.7334C353.379 32.8857 352.713 32.3013 351.786 32.3047C350.867 32.3013 350.19 32.8857 350.194 33.7334ZM350.72 33.7334C350.717 33.1626 351.171 32.7559 351.786 32.7627C352.409 32.7559 352.856 33.1626 352.86 33.7334C352.856 34.3076 352.409 34.7041 351.786 34.7109C351.171 34.7041 350.717 34.3076 350.72 33.7334ZM350.864 36.8711C350.867 37.5786 351.639 37.999 352.88 37.999C354.121 37.999 354.883 37.5786 354.883 36.8711C354.883 36.1499 354.121 35.7329 352.88 35.7295C351.639 35.7329 350.867 36.1499 350.864 36.8711ZM351.404 36.8711C351.397 36.4302 351.964 36.167 352.88 36.167C353.8 36.167 354.36 36.4302 354.364 36.8711C354.36 37.3086 353.8 37.5649 352.88 37.5684C351.964 37.5649 351.397 37.3086 351.404 36.8711Z" fill="#113287"/>
<path d="M361.342 36.7822H358.826V35.3057H358.286V36.7822H355.777V37.2334H361.342V36.7822ZM356.051 35.0869L356.276 35.5176C357.189 35.3296 358.166 34.7246 358.556 33.8735C358.946 34.7144 359.927 35.3057 360.856 35.4902L361.075 35.0664C360.026 34.8955 358.83 34.0615 358.826 33.0908V32.9404H360.863V32.4893H356.235V32.9404H358.272V33.0908C358.272 34.0615 357.08 34.9126 356.051 35.0869Z" fill="#113287"/>
<path d="M363.514 33.5693V32.4619H362.988V33.5693C362.981 34.6802 362.277 35.8457 361.388 36.2832L361.73 36.7139C362.414 36.3481 362.988 35.5791 363.258 34.6836C363.528 35.5278 364.088 36.249 364.758 36.5977L365.086 36.167C364.222 35.7432 363.514 34.6392 363.514 33.5693ZM365.647 38.0127H366.18V34.8682H367.199V34.4033H366.18V31.9355H365.647V38.0127Z" fill="#113287"/>
<path d="M368.694 35.5723C368.688 34.2837 368.339 33.2104 367.71 32.2979H367.191C367.652 32.9712 368.083 34.3555 368.086 35.5723C368.083 36.7925 367.652 38.1733 367.191 38.8535H367.71C368.339 37.9375 368.688 36.8643 368.694 35.5723Z" fill="#113287"/>
</svg>
