<svg width="279" height="445" viewBox="0 0 279 445" fill="none" xmlns="http://www.w3.org/2000/svg">
<circle cx="4" cy="4" r="4" transform="matrix(-1 0 0 1 246.239 23.167)" fill="#FFB341"/>
<circle cx="4" cy="4" r="3.5" transform="matrix(-1 0 0 1 267.665 23.167)" fill="white" stroke="#FFB341"/>
<path d="M248.934 27.2656C248.739 27.4608 248.739 27.7774 248.934 27.9727L252.116 31.1547C252.312 31.3499 252.628 31.3499 252.823 31.1547C253.019 30.9594 253.019 30.6428 252.823 30.4476L249.995 27.6191L252.823 24.7907C253.019 24.5955 253.019 24.2789 252.823 24.0836C252.628 23.8883 252.312 23.8883 252.116 24.0836L248.934 27.2656ZM256.959 27.1191H249.288V28.1191H256.959V27.1191Z" fill="#9FABDB"/>
<path d="M94.8115 222.741H91.5381V225.788H94.8115V222.741ZM92.1553 227.874C92.1553 228.722 93.0615 229.214 94.5068 229.218C95.9365 229.214 96.8271 228.722 96.8271 227.874C96.8271 227.046 95.9365 226.546 94.5068 226.546C93.0615 226.546 92.1553 227.046 92.1553 227.874ZM92.2646 225.187V223.335H94.085V225.187H92.2646ZM92.8975 227.874C92.8936 227.409 93.4951 227.144 94.5068 227.14C95.5107 227.144 96.1045 227.409 96.1006 227.874C96.1045 228.358 95.5107 228.616 94.5068 228.624C93.4951 228.616 92.8936 228.358 92.8975 227.874ZM96.0225 226.327H96.7646V224.522H97.7803V223.913H96.7646V222.218H96.0225V226.327ZM101.726 222.733H98.4521V225.882H101.726V222.733ZM99.0537 227.312H102.937V229.226H103.679V226.718H99.0537V227.312ZM99.1787 225.288V223.319H100.999V225.288H99.1787ZM102.937 226.366H103.679V224.608H104.694V223.991H103.679V222.218H102.937V226.366Z" fill="#979797"/>
<path d="M77.3643 256.411H97.9209V232.104" stroke="#979797" stroke-dasharray="2 2"/>
<line x1="83.0947" y1="309.3" x2="236.047" y2="309.3" stroke="#113287" stroke-width="2"/>
<mask id="mask0_11_9478" style="mask-type:alpha" maskUnits="userSpaceOnUse" x="2" y="175" width="268" height="269">
<circle cx="135.607" cy="309.531" r="133.607" fill="#FFBE5E"/>
</mask>
<g mask="url(#mask0_11_9478)">
<path d="M-373.854 187.504C-346.837 140.97 -305.243 104.635 -255.402 84.0236C-205.561 63.4125 -150.317 59.8003 -98.2008 73.7535C-46.0847 87.6358 -0.0832138 118.304 32.7649 160.943C65.6129 203.582 83.3879 255.782 83.3879 309.541C83.3879 363.3 65.6129 415.5 32.7649 458.139C-0.0832138 500.777 -46.0847 531.375 -98.2008 545.329C-150.317 559.211 -205.561 555.669 -255.402 535.058C-305.243 514.447 -346.837 478.183 -373.854 431.578" stroke="#113287" stroke-width="1.5" stroke-linecap="round" stroke-linejoin="round"/>
<path d="M-398.229 177.824C-369.15 127.597 -324.384 88.378 -270.742 66.1311C-217.1 43.8843 -157.641 39.9854 -101.55 55.046C-45.4594 70.0301 4.05074 103.133 39.4042 149.155C74.7576 195.178 93.8883 251.521 93.8883 309.547C93.8883 367.572 74.7576 423.915 39.4042 469.938C4.05074 515.961 -45.4594 548.987 -101.55 564.048C-157.641 579.032 -217.1 575.209 -270.742 552.962C-324.384 530.716 -369.15 491.573 -398.229 441.269" stroke="#113287" stroke-width="0.75" stroke-linecap="round" stroke-linejoin="round"/>
</g>
<circle cx="135.129" cy="309.393" r="133.607" stroke="#E2E6F6" stroke-width="3"/>
<line x1="72.9873" y1="308.818" x2="57.8879" y2="308.818" stroke="#113287" stroke-width="1.5" stroke-dasharray="2 2"/>
<line x1="221.916" y1="19.7376" x2="58.8363" y2="191.406" stroke="#E2E6F6" stroke-width="2" stroke-dasharray="2 2"/>
<line x1="277.406" y1="37.4668" x2="272.717" y2="277.101" stroke="#E2E6F6" stroke-width="2" stroke-dasharray="2 2"/>
<circle cx="249.754" cy="27.6191" r="25.6523" stroke="#E2E6F6" stroke-width="2" stroke-dasharray="2 2"/>
<path d="M17.0029 297.404H13.6592V300.514H17.0029V297.404ZM14.2998 302.568C14.2998 303.436 15.2295 303.939 16.6904 303.943C18.1396 303.939 19.0537 303.436 19.0576 302.568C19.0537 301.717 18.1396 301.201 16.6904 301.201C15.2295 301.201 14.2998 301.717 14.2998 302.568ZM14.5107 299.811V298.092H16.1514V299.811H14.5107ZM15.167 302.568C15.167 302.135 15.7217 301.896 16.6904 301.896C17.6553 301.896 18.1982 302.135 18.1982 302.568C18.1982 303.021 17.6553 303.248 16.6904 303.248C15.7217 303.248 15.167 303.021 15.167 302.568ZM18.1201 300.998H18.9873V299.24H19.9717V298.537H18.9873V296.881H18.1201V300.998ZM23.917 297.396H20.5732V300.623H23.917V297.396ZM21.1982 302.092H25.0342V303.951H25.9014V301.396H21.1982V302.092ZM21.4248 299.936V298.084H23.0654V299.936H21.4248ZM25.0342 301.068H25.9014V299.334H26.8857V298.623H25.9014V296.881H25.0342V301.068ZM33.3389 296.881H32.5029V303.943H33.3389V296.881ZM27.3154 299.936C27.3154 301.494 27.917 302.463 28.8389 302.459C29.7139 302.463 30.3037 301.619 30.3857 300.24H31.0576V303.6H31.8857V297.006H31.0576V299.537H30.3779C30.2764 298.217 29.6943 297.416 28.8389 297.42C27.917 297.416 27.3154 298.381 27.3154 299.936ZM28.1201 299.936C28.1162 298.834 28.3896 298.236 28.8389 298.24C29.3076 298.236 29.585 298.834 29.5889 299.936C29.585 301.041 29.3076 301.635 28.8389 301.631C28.3896 301.635 28.1162 301.041 28.1201 299.936ZM42.0967 296.889H41.2686V298.561H40.5654V297.021H39.7529V300.873H40.5654V299.264H41.2686V300.928H42.0967V296.889ZM36.3311 300.514H39.1123V297.396H36.3311V300.514ZM37.0342 303.256L37.3311 303.904C38.4756 303.775 39.3389 303.334 39.749 302.701C40.1592 303.33 41.0225 303.779 42.167 303.904L42.4639 303.256C41.1475 303.111 40.3154 302.553 40.2295 301.936H42.1748V301.24H37.3232V301.936H39.2764C39.1826 302.568 38.3545 303.111 37.0342 303.256ZM37.1514 299.857V298.068H38.3076V299.857H37.1514ZM48.8467 296.881H47.9717V303.943H48.8467V296.881ZM43.1201 298.67H47.3545V297.975H45.6826V296.967H44.7998V297.975H43.1201V298.67ZM43.4561 300.787C43.4561 301.76 44.2139 302.443 45.2529 302.443C46.2881 302.443 47.0498 301.76 47.0498 300.787C47.0498 299.811 46.2881 299.119 45.2529 299.123C44.2139 299.119 43.4561 299.811 43.4561 300.787ZM44.2842 300.787C44.2842 300.213 44.6865 299.834 45.2529 299.834C45.8154 299.834 46.2178 300.213 46.2139 300.787C46.2178 301.361 45.8154 301.729 45.2529 301.725C44.6865 301.729 44.2842 301.361 44.2842 300.787ZM55.6045 298.881H51.5732V297.139H50.7139V299.568H55.6045V298.881ZM49.8779 301.076H56.3311V300.389H49.8779V301.076ZM50.6514 303.779H55.6514V303.076H51.5186V301.701H50.6514V303.779ZM34.6475 314.396H31.8428V312.936H30.9834V314.396H28.1943V315.107H34.6475V314.396ZM28.46 312.498L28.7881 313.178C30.0107 313.006 30.9482 312.463 31.4131 311.693C31.8818 312.463 32.8271 313.006 34.0459 313.178L34.3662 312.498C32.8389 312.299 31.9209 311.486 31.8623 310.607H34.0693V309.904H31.8428V308.99H30.9834V309.904H28.7646V310.607H30.9717C30.9092 311.486 29.9912 312.299 28.46 312.498ZM41.0225 308.881H40.1553V310.561H38.9365V311.271H40.1553V312.982H41.0225V308.881ZM35.0928 312.279L35.5381 312.959C36.374 312.682 36.96 312.092 37.2725 311.35C37.5811 312.018 38.1396 312.557 38.9287 312.826L39.3662 312.139C38.2725 311.768 37.7021 310.893 37.7021 310.045V309.982H39.1631V309.279H35.3506V309.982H36.8193V310.037C36.8193 310.971 36.2178 311.908 35.0928 312.279ZM36.3271 315.857H41.0225V313.287H36.3271V315.857ZM37.1943 315.154V313.975H40.1709V315.154H37.1943Z" fill="#113287"/>
<path d="M116.44 344.56C117.694 344.56 118.417 343.505 118.417 341.653C118.417 339.817 117.683 338.747 116.44 338.747C115.194 338.747 114.46 339.817 114.464 341.653C114.46 343.505 115.187 344.56 116.44 344.56ZM115.144 341.653C115.147 340.188 115.628 339.36 116.44 339.356C117.253 339.36 117.733 340.188 117.73 341.653C117.733 343.118 117.257 343.935 116.44 343.935C115.62 343.935 115.147 343.118 115.144 341.653ZM119.636 344.528C119.913 344.524 120.14 344.298 120.136 344.021C120.14 343.747 119.913 343.521 119.636 343.521C119.362 343.521 119.128 343.747 119.136 344.021C119.128 344.298 119.362 344.524 119.636 344.528ZM122.917 344.56C124.046 344.56 124.866 343.771 124.87 342.677C124.866 341.575 124.073 340.778 122.995 340.778C122.597 340.778 122.218 340.911 121.964 341.106H121.909L122.12 339.45H124.597V338.825H121.534L121.136 341.919H121.815C122.022 341.552 122.394 341.403 122.87 341.411C123.632 341.415 124.183 341.958 124.183 342.692C124.183 343.403 123.651 343.938 122.917 343.942C122.304 343.938 121.812 343.563 121.761 343.06H121.081C121.124 343.931 121.897 344.56 122.917 344.56ZM127.698 344.481C129.421 344.481 130.394 343.411 130.394 341.646C130.394 339.884 129.421 338.825 127.769 338.825H125.94V344.481H127.698ZM126.644 343.856V339.45H127.722C129.038 339.45 129.706 340.278 129.706 341.646C129.706 343.017 129.038 343.856 127.651 343.856H126.644Z" fill="#113287"/>
<path d="M145.744 338.825H145.033L143.627 339.763V340.474L145.002 339.56H145.033V344.481H145.744V338.825ZM147.401 344.528C147.678 344.524 147.905 344.298 147.901 344.021C147.905 343.747 147.678 343.521 147.401 343.521C147.127 343.521 146.893 343.747 146.901 344.021C146.893 344.298 147.127 344.524 147.401 344.528ZM150.596 344.56C151.85 344.56 152.573 343.505 152.573 341.653C152.573 339.817 151.838 338.747 150.596 338.747C149.35 338.747 148.615 339.817 148.619 341.653C148.615 343.505 149.342 344.56 150.596 344.56ZM149.299 341.653C149.303 340.188 149.783 339.36 150.596 339.356C151.408 339.36 151.889 340.188 151.885 341.653C151.889 343.118 151.412 343.935 150.596 343.935C149.776 343.935 149.303 343.118 149.299 341.653ZM155.362 344.481C157.084 344.481 158.057 343.411 158.057 341.646C158.057 339.884 157.084 338.825 155.432 338.825H153.604V344.481H155.362ZM154.307 343.856V339.45H155.385C156.701 339.45 157.369 340.278 157.369 341.646C157.369 343.017 156.701 343.856 155.315 343.856H154.307Z" fill="#113287"/>
<path d="M173.528 338.825H172.817L171.41 339.763V340.474L172.785 339.56H172.817V344.481H173.528V338.825ZM175.184 344.528C175.461 344.524 175.688 344.298 175.684 344.021C175.688 343.747 175.461 343.521 175.184 343.521C174.91 343.521 174.676 343.747 174.684 344.021C174.676 344.298 174.91 344.524 175.184 344.528ZM178.465 344.56C179.594 344.56 180.414 343.771 180.418 342.677C180.414 341.575 179.621 340.778 178.543 340.778C178.145 340.778 177.766 340.911 177.512 341.106H177.457L177.668 339.45H180.145V338.825H177.082L176.684 341.919H177.364C177.571 341.552 177.942 341.403 178.418 341.411C179.18 341.415 179.731 341.958 179.731 342.692C179.731 343.403 179.199 343.938 178.465 343.942C177.852 343.938 177.36 343.563 177.309 343.06H176.629C176.672 343.931 177.446 344.56 178.465 344.56ZM183.246 344.481C184.969 344.481 185.942 343.411 185.942 341.646C185.942 339.884 184.969 338.825 183.317 338.825H181.489V344.481H183.246ZM182.192 343.856V339.45H183.27C184.586 339.45 185.254 340.278 185.254 341.646C185.254 343.017 184.586 343.856 183.199 343.856H182.192Z" fill="#113287"/>
<path d="M199.227 344.481H202.898V343.856H200.203V343.81L201.5 342.474C202.5 341.442 202.793 340.95 202.797 340.317C202.793 339.438 202.066 338.747 201.039 338.747C200.016 338.747 199.242 339.419 199.25 340.419H199.914C199.918 339.786 200.34 339.36 201.016 339.356C201.652 339.36 202.137 339.735 202.141 340.317C202.137 340.841 201.816 341.224 201.148 341.935L199.219 343.966L199.227 344.481ZM204.406 344.528C204.684 344.524 204.91 344.298 204.906 344.021C204.91 343.747 204.684 343.521 204.406 343.521C204.133 343.521 203.898 343.747 203.906 344.021C203.898 344.298 204.133 344.524 204.406 344.528ZM207.602 344.56C208.855 344.56 209.578 343.505 209.578 341.653C209.578 339.817 208.844 338.747 207.602 338.747C206.355 338.747 205.621 339.817 205.625 341.653C205.621 343.505 206.348 344.56 207.602 344.56ZM206.305 341.653C206.309 340.188 206.789 339.36 207.602 339.356C208.414 339.36 208.895 340.188 208.891 341.653C208.895 343.118 208.418 343.935 207.602 343.935C206.781 343.935 206.309 343.118 206.305 341.653ZM212.367 344.481C214.09 344.481 215.063 343.411 215.063 341.646C215.063 339.884 214.09 338.825 212.438 338.825H210.609V344.481H212.367ZM211.313 343.856V339.45H212.391C213.707 339.45 214.375 340.278 214.375 341.646C214.375 343.017 213.707 343.856 212.32 343.856H211.313Z" fill="#113287"/>
<path d="M228.161 344.481H231.833V343.856H229.138V343.81L230.435 342.474C231.435 341.442 231.728 340.95 231.731 340.317C231.728 339.438 231.001 338.747 229.974 338.747C228.95 338.747 228.177 339.419 228.185 340.419H228.849C228.853 339.786 229.274 339.36 229.95 339.356C230.587 339.36 231.071 339.735 231.075 340.317C231.071 340.841 230.751 341.224 230.083 341.935L228.153 343.966L228.161 344.481ZM233.341 344.528C233.618 344.524 233.845 344.298 233.841 344.021C233.845 343.747 233.618 343.521 233.341 343.521C233.067 343.521 232.833 343.747 232.841 344.021C232.833 344.298 233.067 344.524 233.341 344.528ZM236.622 344.56C237.751 344.56 238.571 343.771 238.575 342.677C238.571 341.575 237.778 340.778 236.7 340.778C236.302 340.778 235.923 340.911 235.669 341.106H235.614L235.825 339.45H238.302V338.825H235.239L234.841 341.919H235.521C235.728 341.552 236.099 341.403 236.575 341.411C237.337 341.415 237.888 341.958 237.888 342.692C237.888 343.403 237.356 343.938 236.622 343.942C236.009 343.938 235.517 343.563 235.466 343.06H234.786C234.829 343.931 235.603 344.56 236.622 344.56ZM241.403 344.481C243.126 344.481 244.099 343.411 244.099 341.646C244.099 339.884 243.126 338.825 241.474 338.825H239.646V344.481H241.403ZM240.349 343.856V339.45H241.427C242.743 339.45 243.411 340.278 243.411 341.646C243.411 343.017 242.743 343.856 241.356 343.856H240.349Z" fill="#113287"/>
<circle cx="10.5" cy="10.5" r="9.75" transform="matrix(-1 0 0 1 93.8828 298.676)" stroke="#113287" stroke-width="1.5" stroke-dasharray="2 2"/>
<line x1="122.292" y1="293.248" x2="122.292" y2="325.248" stroke="#113287"/>
<line x1="150.717" y1="293.248" x2="150.717" y2="325.248" stroke="#113287"/>
<line x1="179.142" y1="293.248" x2="179.142" y2="325.248" stroke="#113287"/>
<line x1="207.566" y1="293.248" x2="207.566" y2="325.248" stroke="#113287"/>
<line x1="235.991" y1="293.248" x2="235.991" y2="325.248" stroke="#113287"/>
<circle cx="6" cy="6" r="5.25" transform="matrix(-1 0 0 1 242.067 303.248)" fill="white" stroke="#FFB341" stroke-width="1.5"/>
</svg>
