<svg width="364" height="44" viewBox="0 0 364 44" fill="none" xmlns="http://www.w3.org/2000/svg">
<path d="M59.8887 24.1309H54.501V24.8076H59.0625C59.0625 25.4712 59.0581 26.2183 58.8516 27.2422H53.5957V27.9277H60.8027V27.2422H59.6909C59.8931 26.2007 59.8931 25.4229 59.8887 24.7549V24.1309ZM54.5361 31.373H60.126V30.6875H55.3623V28.7451H54.5361V31.373Z" fill="#113287"/>
<path d="M67.9307 23.665H67.1045V26.7852H65.3379V27.4707H67.1045V31.54H67.9307V23.665ZM61.3564 29.4219L61.7959 30.0811C64.4678 28.7583 65.3555 26.7896 65.3643 24.5088H61.708V25.1768H64.5161C64.3711 26.9829 63.4438 28.4023 61.3564 29.4219Z" fill="#113287"/>
<path d="M75.6914 23.665H74.8564V31.5576H75.6914V23.665ZM69.5918 25.0537H72.4307V26.583H69.6006V29.668H70.2686C71.6616 29.6636 72.8481 29.6108 74.2412 29.3779L74.1621 28.6924C72.8438 28.9077 71.7319 28.9692 70.4531 28.9736V27.251H73.2832V24.377H69.5918V25.0537Z" fill="#113287"/>
<path d="M85.6758 23.665H84.832V31.54H85.6758V23.665ZM79.1104 28.9385L79.207 29.6328C80.6572 29.6284 82.5293 29.6021 84.2344 29.3252L84.1904 28.71C83.7993 28.7539 83.395 28.7935 82.9863 28.8242V25.1592H83.8037V24.4736H79.3213V25.1592H80.1475V28.9297C79.7827 28.9341 79.4355 28.9385 79.1104 28.9385ZM80.9561 28.9165V25.1592H82.1689V28.8726C81.7603 28.8901 81.3516 28.9077 80.9561 28.9165Z" fill="#113287"/>
<path d="M94.1133 29.8965H90.9053V28.5166H93.4189V27.8311H88.6113V26.6797H93.2344V24.2188H87.7676V24.9043H92.4082V26.0117H87.7852V28.5166H90.0791V29.8965H86.9062V30.5996H94.1133V29.8965Z" fill="#113287"/>
<path d="M100.872 23.6562H100.037V29.4482H100.872V26.7148H102.015V26.0117H100.872V23.6562ZM94.8076 26.1611C94.7988 27.3081 95.7129 28.1255 96.8994 28.1211C98.0903 28.1255 98.9912 27.3081 99 26.1611C98.9912 25.0142 98.0903 24.2056 96.8994 24.2012C95.7129 24.2056 94.7988 25.0142 94.8076 26.1611ZM95.625 26.1611C95.6162 25.4272 96.1787 24.9307 96.8994 24.9307C97.6289 24.9307 98.1782 25.4272 98.1826 26.1611C98.1782 26.895 97.6289 27.3916 96.8994 27.3916C96.1787 27.3916 95.6162 26.895 95.625 26.1611ZM95.8799 31.373H101.206V30.6963H96.7148V28.8418H95.8799V31.373Z" fill="#113287"/>
<path d="M62.9385 39.6367C62.9463 41.1133 63.3447 42.3398 64.0635 43.3867H64.6572C64.1299 42.6094 63.6377 41.0312 63.6338 39.6367C63.6377 38.2461 64.1299 36.6641 64.6572 35.8945H64.0635C63.3447 36.9375 62.9463 38.1641 62.9385 39.6367Z" fill="#113287"/>
<path d="M67.4854 36.1367H66.7744L65.3682 37.0742V37.7852L66.7432 36.8711H66.7744V41.793H67.4854V36.1367Z" fill="#113287"/>
<path d="M71.4307 39.0664H68.9541V39.6836H71.4307V39.0664Z" fill="#113287"/>
<path d="M74.2979 41.8711C75.4268 41.8711 76.2471 41.082 76.251 39.9883C76.2471 38.8867 75.4541 38.0898 74.376 38.0898C73.9775 38.0898 73.5986 38.2227 73.3447 38.418H73.29L73.501 36.7617H75.9775V36.1367H72.915L72.5166 39.2305H73.1963C73.4033 38.8633 73.7744 38.7148 74.251 38.7227C75.0127 38.7266 75.5635 39.2695 75.5635 40.0039C75.5635 40.7148 75.0322 41.25 74.2979 41.2539C73.6846 41.25 73.1924 40.875 73.1416 40.3711H72.4619C72.5049 41.2422 73.2783 41.8711 74.2979 41.8711Z" fill="#113287"/>
<path d="M82.4072 35.4805H81.7979V40.5117H82.4072V38.0664H83.4619V37.5508H82.4072V35.4805ZM77.3057 39.2773H77.8447C79.3057 39.2773 80.1338 39.2305 81.1104 39.043L81.0322 38.5352C80.1025 38.7227 79.3096 38.7656 77.915 38.7617V36.5977H80.3994V36.082H77.3057V39.2773ZM78.0635 42.2773H82.7275V41.7617H78.665V40.0039H78.0635V42.2773Z" fill="#113287"/>
<path d="M89.8369 35.4805H89.251V42.4258H89.8369V35.4805ZM83.8838 40.4805L84.2588 40.9258C85.5713 40.1406 86.333 39.1016 86.6689 37.9258H87.8447V39.1602H86.5557V39.668H87.8447V42.0742H88.4307V35.668H87.8447V37.418H86.79C86.8525 37.0781 86.8838 36.7266 86.8838 36.3711H84.1963V36.8789H86.2744C86.1533 38.332 85.3955 39.5859 83.8838 40.4805Z" fill="#113287"/>
<path d="M92.54 39.6367C92.5322 38.1641 92.1338 36.9375 91.415 35.8945H90.8213C91.3486 36.6641 91.8408 38.2461 91.8447 39.6367C91.8408 41.0312 91.3486 42.6094 90.8213 43.3867H91.415C92.1338 42.3398 92.5322 41.1133 92.54 39.6367Z" fill="#113287"/>
<path d="M238.305 24.1309H232.917V24.8076H237.479C237.479 25.4712 237.474 26.2183 237.268 27.2422H232.012V27.9277H239.219V27.2422H238.107C238.309 26.2007 238.309 25.4229 238.305 24.7549V24.1309ZM232.952 31.373H238.542V30.6875H233.778V28.7451H232.952V31.373Z" fill="#113287"/>
<path d="M246.347 23.665H245.521V26.7852H243.754V27.4707H245.521V31.54H246.347V23.665ZM239.772 29.4219L240.212 30.0811C242.884 28.7583 243.771 26.7896 243.78 24.5088H240.124V25.1768H242.932C242.787 26.9829 241.86 28.4023 239.772 29.4219Z" fill="#113287"/>
<path d="M254.107 23.665H253.272V31.5576H254.107V23.665ZM248.008 25.0537H250.847V26.583H248.017V29.668H248.685C250.078 29.6636 251.264 29.6108 252.657 29.3779L252.578 28.6924C251.26 28.9077 250.148 28.9692 248.869 28.9736V27.251H251.699V24.377H248.008V25.0537Z" fill="#113287"/>
<path d="M259.311 23.7881H258.484V26.3984H263.793V23.7881H262.958V24.4736H259.311V23.7881ZM257.544 27.6465H260.708V28.3232H258.405V28.9473H262.993V29.5625H258.414V31.4609H264.039V30.8193H259.231V30.1602H263.819V28.3232H261.543V27.6465H264.725V26.9697H257.544V27.6465ZM259.311 25.7656V25.0889H262.958V25.7656H259.311Z" fill="#113287"/>
<path d="M271.888 23.665H271.053V25.124H269.822V25.8096H271.053V26.6357H269.822V27.3389H271.053V29.5098H271.888V23.665ZM265.331 27.6904L265.437 28.3936C266.698 28.3892 268.473 28.3584 269.98 28.1211L269.945 27.5059C269.633 27.541 269.312 27.5674 268.979 27.5938V24.957H269.734V24.2803H265.551V24.957H266.289V27.686C265.951 27.686 265.625 27.6904 265.331 27.6904ZM266.755 31.373H272.09V30.6963H267.599V29.0352H266.755V31.373ZM267.098 27.6729V24.957H268.179V27.6377C267.814 27.6509 267.454 27.6641 267.098 27.6729Z" fill="#113287"/>
<path d="M279.288 23.6562H278.453V29.4482H279.288V26.7148H280.431V26.0117H279.288V23.6562ZM273.224 26.1611C273.215 27.3081 274.129 28.1255 275.315 28.1211C276.506 28.1255 277.407 27.3081 277.416 26.1611C277.407 25.0142 276.506 24.2056 275.315 24.2012C274.129 24.2056 273.215 25.0142 273.224 26.1611ZM274.041 26.1611C274.032 25.4272 274.595 24.9307 275.315 24.9307C276.045 24.9307 276.594 25.4272 276.599 26.1611C276.594 26.895 276.045 27.3916 275.315 27.3916C274.595 27.3916 274.032 26.895 274.041 26.1611ZM274.296 31.373H279.622V30.6963H275.131V28.8418H274.296V31.373Z" fill="#113287"/>
<path d="M238.94 39.6367C238.948 41.1133 239.347 42.3398 240.065 43.3867H240.659C240.132 42.6094 239.64 41.0312 239.636 39.6367C239.64 38.2461 240.132 36.6641 240.659 35.8945H240.065C239.347 36.9375 238.948 38.1641 238.94 39.6367Z" fill="#113287"/>
<path d="M243.456 41.8711C244.647 41.8828 245.425 41.0312 245.425 39.9648C245.425 38.8711 244.585 38.0898 243.581 38.0898C242.972 38.0898 242.452 38.3672 242.128 38.8398H242.058C242.054 37.4766 242.612 36.6836 243.542 36.6836C244.171 36.6836 244.554 37.0586 244.683 37.5586H245.378C245.233 36.6719 244.538 36.0586 243.542 36.0586C242.214 36.0586 241.394 37.1797 241.394 39.1836C241.394 41.2773 242.476 41.8594 243.456 41.8711ZM242.151 39.9805C242.159 39.3125 242.729 38.7109 243.472 38.707C244.21 38.7109 244.741 39.2773 244.745 39.9727C244.741 40.6758 244.187 41.25 243.456 41.2539C242.698 41.25 242.155 40.6445 242.151 39.9805Z" fill="#113287"/>
<path d="M248.831 39.0664H246.354V39.6836H248.831V39.0664Z" fill="#113287"/>
<path d="M251.854 36.1367H251.144L249.737 37.0742V37.7852L251.112 36.8711H251.144V41.793H251.854V36.1367Z" fill="#113287"/>
<path d="M253.362 41.793H257.034V41.168H254.339V41.1211L255.636 39.7852C256.636 38.7539 256.929 38.2617 256.933 37.6289C256.929 36.75 256.202 36.0586 255.175 36.0586C254.151 36.0586 253.378 36.7305 253.386 37.7305H254.05C254.054 37.0977 254.476 36.6719 255.151 36.668C255.788 36.6719 256.272 37.0469 256.276 37.6289C256.272 38.1523 255.952 38.5352 255.284 39.2461L253.354 41.2773L253.362 41.793Z" fill="#113287"/>
<path d="M263.237 35.4805H262.628V40.5117H263.237V38.0664H264.292V37.5508H263.237V35.4805ZM258.136 39.2773H258.675C260.136 39.2773 260.964 39.2305 261.94 39.043L261.862 38.5352C260.933 38.7227 260.14 38.7656 258.745 38.7617V36.5977H261.229V36.082H258.136V39.2773ZM258.894 42.2773H263.558V41.7617H259.495V40.0039H258.894V42.2773Z" fill="#113287"/>
<path d="M270.667 35.4805H270.081V42.4258H270.667V35.4805ZM264.714 40.4805L265.089 40.9258C266.401 40.1406 267.163 39.1016 267.499 37.9258H268.675V39.1602H267.386V39.668H268.675V42.0742H269.261V35.668H268.675V37.418H267.62C267.683 37.0781 267.714 36.7266 267.714 36.3711H265.026V36.8789H267.104C266.983 38.332 266.226 39.5859 264.714 40.4805Z" fill="#113287"/>
<path d="M273.37 39.6367C273.362 38.1641 272.964 36.9375 272.245 35.8945H271.651C272.179 36.6641 272.671 38.2461 272.675 39.6367C272.671 41.0312 272.179 42.6094 271.651 43.3867H272.245C272.964 42.3398 273.362 41.1133 273.37 39.6367Z" fill="#113287"/>
<path fill-rule="evenodd" clip-rule="evenodd" d="M0.424805 5.33984L3.31156 0.339844L6.19831 5.33984H0.424805ZM149.28 5.33984L152.167 0.339844L155.054 5.33984H149.28ZM2.81156 8.38733V6.599H3.81156V8.38733H2.81156ZM152.667 6.599V8.38733H151.667V6.599H152.667ZM2.81156 11.964V10.1757H3.81156V11.964H2.81156ZM152.667 10.1757V11.964H151.667V10.1757H152.667ZM2.81156 13.7523H3.81156V14.1465H4.31734V15.1465H2.81156V13.7523ZM152.667 13.7523V15.1465H151.161V14.1465H151.667V13.7523H152.667ZM8.34046 15.1465H6.3289V14.1465H8.34046V15.1465ZM12.3636 15.1465H10.352V14.1465H12.3636V15.1465ZM16.3867 15.1465H14.3751V14.1465H16.3867V15.1465ZM20.4098 15.1465H18.3983V14.1465H20.4098V15.1465ZM24.4329 15.1465H22.4214V14.1465H24.4329V15.1465ZM28.4561 15.1465H26.4445V14.1465H28.4561V15.1465ZM32.4792 15.1465H30.4676V14.1465H32.4792V15.1465ZM36.5023 15.1465H34.4907V14.1465H36.5023V15.1465ZM40.5254 15.1465H38.5139V14.1465H40.5254V15.1465ZM44.5485 15.1465H42.537V14.1465H44.5485V15.1465ZM48.5717 15.1465H46.5601V14.1465H48.5717V15.1465ZM52.5948 15.1465H50.5832V14.1465H52.5948V15.1465ZM56.6179 15.1465H54.6063V14.1465H56.6179V15.1465ZM60.641 15.1465H58.6295V14.1465H60.641V15.1465ZM64.6641 15.1465H62.6526V14.1465H64.6641V15.1465ZM68.6872 15.1465H66.6757V14.1465H68.6872V15.1465ZM72.7104 15.1465H70.6988V14.1465H72.7104V15.1465ZM76.7335 15.1465H74.7219V14.1465H76.7335V15.1465ZM80.7566 15.1465H78.745V14.1465H80.7566V15.1465ZM84.7797 15.1465H82.7682V14.1465H84.7797V15.1465ZM88.8028 15.1465H86.7913V14.1465H88.8028V15.1465ZM92.8259 15.1465H90.8144V14.1465H92.8259V15.1465ZM96.8491 15.1465H94.8375V14.1465H96.8491V15.1465ZM100.872 15.1465H98.8606V14.1465H100.872V15.1465ZM104.895 15.1465H102.884V14.1465H104.895V15.1465ZM108.918 15.1465H106.907V14.1465H108.918V15.1465ZM112.942 15.1465H110.93V14.1465H112.942V15.1465ZM116.965 15.1465H114.953V14.1465H116.965V15.1465ZM120.988 15.1465H118.976V14.1465H120.988V15.1465ZM125.011 15.1465H122.999V14.1465H125.011V15.1465ZM129.034 15.1465H127.022V14.1465H129.034V15.1465ZM133.057 15.1465H131.046V14.1465H133.057V15.1465ZM137.08 15.1465H135.069V14.1465H137.08V15.1465ZM141.103 15.1465H139.092V14.1465H141.103V15.1465ZM145.127 15.1465H143.115V14.1465H145.127V15.1465ZM149.15 15.1465H147.138V14.1465H149.15V15.1465Z" fill="#5B6EB4"/>
<path fill-rule="evenodd" clip-rule="evenodd" d="M149.28 5.33984L152.167 0.339844L155.054 5.33984H149.28ZM357.257 5.33984L360.144 0.339844L363.03 5.33984H357.257ZM151.667 8.38733V6.599H152.667V8.38733H151.667ZM360.644 6.599V8.38733H359.644V6.599H360.644ZM151.667 11.964V10.1757H152.667V11.964H151.667ZM360.644 10.1757V11.964H359.644V10.1757H360.644ZM151.667 13.7523H152.667V14.1465H153.167V15.1465H151.667V13.7523ZM360.644 13.7523V15.1465H359.143V14.1465H359.644V13.7523H360.644ZM157.166 15.1465H155.167V14.1465H157.166V15.1465ZM161.166 15.1465H159.166V14.1465H161.166V15.1465ZM165.166 15.1465H163.166V14.1465H165.166V15.1465ZM169.165 15.1465H167.165V14.1465H169.165V15.1465ZM173.165 15.1465H171.165V14.1465H173.165V15.1465ZM177.164 15.1465H175.164V14.1465H177.164V15.1465ZM181.164 15.1465H179.164V14.1465H181.164V15.1465ZM185.163 15.1465H183.164V14.1465H185.163V15.1465ZM189.163 15.1465H187.163V14.1465H189.163V15.1465ZM193.162 15.1465H191.163V14.1465H193.162V15.1465ZM197.162 15.1465H195.162V14.1465H197.162V15.1465ZM201.162 15.1465H199.162V14.1465H201.162V15.1465ZM205.161 15.1465H203.161V14.1465H205.161V15.1465ZM209.161 15.1465H207.161V14.1465H209.161V15.1465ZM213.16 15.1465H211.16V14.1465H213.16V15.1465ZM217.16 15.1465H215.16V14.1465H217.16V15.1465ZM221.159 15.1465H219.159V14.1465H221.159V15.1465ZM225.159 15.1465H223.159V14.1465H225.159V15.1465ZM229.158 15.1465H227.159V14.1465H229.158V15.1465ZM233.158 15.1465H231.158V14.1465H233.158V15.1465ZM237.157 15.1465H235.158V14.1465H237.157V15.1465ZM241.157 15.1465H239.157V14.1465H241.157V15.1465ZM245.157 15.1465H243.157V14.1465H245.157V15.1465ZM249.156 15.1465H247.156V14.1465H249.156V15.1465ZM253.156 15.1465H251.156V14.1465H253.156V15.1465ZM257.155 15.1465H255.155V14.1465H257.155V15.1465ZM261.155 15.1465H259.155V14.1465H261.155V15.1465ZM265.154 15.1465H263.154V14.1465H265.154V15.1465ZM269.154 15.1465H267.154V14.1465H269.154V15.1465ZM273.153 15.1465H271.154V14.1465H273.153V15.1465ZM277.153 15.1465H275.153V14.1465H277.153V15.1465ZM281.152 15.1465H279.153V14.1465H281.152V15.1465ZM285.152 15.1465H283.152V14.1465H285.152V15.1465ZM289.151 15.1465H287.152V14.1465H289.151V15.1465ZM293.151 15.1465H291.151V14.1465H293.151V15.1465ZM297.151 15.1465H295.151V14.1465H297.151V15.1465ZM301.15 15.1465H299.15V14.1465H301.15V15.1465ZM305.15 15.1465H303.15V14.1465H305.15V15.1465ZM309.149 15.1465H307.149V14.1465H309.149V15.1465ZM313.149 15.1465H311.149V14.1465H313.149V15.1465ZM317.148 15.1465H315.148V14.1465H317.148V15.1465ZM321.148 15.1465H319.148V14.1465H321.148V15.1465ZM325.147 15.1465H323.148V14.1465H325.147V15.1465ZM329.147 15.1465H327.147V14.1465H329.147V15.1465ZM333.146 15.1465H331.147V14.1465H333.146V15.1465ZM337.146 15.1465H335.146V14.1465H337.146V15.1465ZM341.146 15.1465H339.146V14.1465H341.146V15.1465ZM345.145 15.1465H343.145V14.1465H345.145V15.1465ZM349.145 15.1465H347.145V14.1465H349.145V15.1465ZM353.144 15.1465H351.144V14.1465H353.144V15.1465ZM357.144 15.1465H355.144V14.1465H357.144V15.1465Z" fill="#5B6EB4"/>
</svg>
