<svg width="357" height="30" viewBox="0 0 357 30" fill="none" xmlns="http://www.w3.org/2000/svg">
<rect width="357" height="30" rx="4" fill="#F3F6FF"/>
<path d="M95.4961 10.3066H88.1953V11.3613H94.1953C94.1953 12.2227 94.1777 13.166 93.9316 14.4434H87V15.5098H96.6797V14.4434H95.2559C95.502 13.1016 95.502 12.0762 95.4961 11.1855V10.3066ZM88.2539 20.0684H95.8008V19.0137H89.543V16.5176H88.2539V20.0684Z" fill="#113287"/>
<path d="M105.762 9.69727H104.461V13.834H102.223V14.9004H104.461V20.291H105.762V9.69727ZM96.8208 17.3613L97.5005 18.3809C101.151 16.582 102.258 13.9512 102.27 10.8223H97.313V11.8535H100.958C100.741 14.2266 99.563 16.0137 96.8208 17.3613Z" fill="#113287"/>
<path d="M115.606 9.69727H114.317V20.3027H115.606V9.69727ZM107.356 11.6777H111.024V13.5645H107.368V17.7949H108.294C110.198 17.8008 111.78 17.7305 113.579 17.4199L113.462 16.3535C111.81 16.6289 110.374 16.7168 108.704 16.7285V14.5957H112.349V10.623H107.356V11.6777Z" fill="#113287"/>
<path d="M121.584 9.86133H120.295V13.3887H127.443V9.86133H126.154V10.6934H121.584V9.86133ZM119.041 15.1113H123.201V15.8965H120.178V16.8574H126.213V17.5488H120.189V20.1973H127.783V19.2012H121.467V18.4629H127.49V15.8965H124.502V15.1113H128.697V14.0449H119.041V15.1113ZM121.584 12.416V11.6426H126.154V12.416H121.584Z" fill="#113287"/>
<path d="M137.803 9.69727H136.502V11.6191H135.002V12.6738H136.502V13.6816H135.002V14.7598H136.502V17.5254H137.803V9.69727ZM128.944 15.0527L129.084 16.1309C130.772 16.1309 133.121 16.0898 135.131 15.7676L135.073 14.8184C134.698 14.8594 134.311 14.8945 133.912 14.9238V11.5371H134.85V10.4941H129.213V11.5371H130.139V15.0469C129.717 15.0527 129.313 15.0527 128.944 15.0527ZM130.842 20.0801H138.073V19.0254H132.155V16.916H130.842V20.0801ZM131.405 15.0293V11.5371H132.659V14.9883C132.237 15.0059 131.815 15.0234 131.405 15.0293Z" fill="#113287"/>
<path d="M147.425 14.5137H141.296V11.5254H147.343V10.4824H139.995V15.5449H142.995V17.9707H138.823V19.0371H148.503V17.9707H144.284V15.5449H147.425V14.5137Z" fill="#113287"/>
</svg>
