<svg width="727" height="90" viewBox="0 0 727 90" fill="none" xmlns="http://www.w3.org/2000/svg">
<rect width="727" height="90" fill="#727272"/>
<path d="M-1401 -687C-1401 -688.105 -1400.1 -689 -1399 -689H1914C1915.1 -689 1916 -688.105 1916 -687V1283C1916 1284.1 1915.1 1285 1914 1285H-1399C-1400.1 1285 -1401 1284.1 -1401 1283V-687Z" fill="white"/>
<g clip-path="url(#clip0_1814_2379)">
<path d="M21.7091 83.1142H21.0911V86.3765H21.6465C22.6988 86.3765 23.7548 86.31 24.9322 86.0636L24.8618 85.5551C23.7275 85.7898 22.7027 85.8524 21.7091 85.8524V83.1142ZM21.8655 89.412H26.4421V88.8957H22.4758V87.1432H21.8655V89.412ZM25.5816 87.6361H26.1918V85.2109H27.2401V84.6789H26.1918V82.6135H25.5816V87.6361Z" fill="#001A5B"/>
<path d="M32.1609 84.4755V83.2081H31.5507V84.4755C31.5429 85.7937 30.6862 87.1236 29.6497 87.597L30.0408 88.1133C30.8544 87.7026 31.539 86.8225 31.8597 85.7742C32.1922 86.7638 32.8767 87.5892 33.6708 87.9725L34.0463 87.4874C33.0214 87.022 32.157 85.7467 32.1609 84.4755ZM34.8051 89.5763H35.4232V82.6057H34.8051V89.5763Z" fill="#001A5B"/>
<path d="M2.34111 76.8508C3.8153 76.8508 4.67781 75.6626 4.68222 73.5767C4.67781 71.5041 3.8021 70.3027 2.34111 70.3027C0.875718 70.3027 0 71.5041 0 73.5767C0 75.6626 0.866916 76.8508 2.34111 76.8508ZM0.968125 73.5767C0.968125 71.9926 1.48299 71.1257 2.34111 71.1213C3.19483 71.1257 3.71409 71.9926 3.71409 73.5767C3.71409 75.1653 3.19922 76.0147 2.34111 76.0147C1.4786 76.0147 0.963729 75.1653 0.968125 73.5767Z" fill="#001A5B"/>
<path d="M7.84183 76.7628C9.78247 76.7628 10.9002 75.5571 10.9046 73.5679C10.9002 71.5833 9.78247 70.3907 7.90344 70.3907H5.77356V76.7628H7.84183ZM6.74169 75.9178V71.2356H7.84183C9.23241 71.2356 9.94529 72.0674 9.94529 73.5679C9.94529 75.073 9.23241 75.9134 7.78903 75.9178H6.74169Z" fill="#001A5B"/>
<path d="M183.552 70.3907H182.602L181.018 71.4293V72.3533L182.541 71.3589H182.576V76.7628H183.552V70.3907Z" fill="#001A5B"/>
<path d="M187.328 76.7628C189.269 76.7628 190.387 75.5571 190.392 73.5679C190.387 71.5833 189.269 70.3907 187.39 70.3907H185.26V76.7628H187.328ZM186.228 75.9178V71.2356H187.328C188.719 71.2356 189.432 72.0674 189.432 73.5679C189.432 75.073 188.719 75.9134 187.275 75.9178H186.228Z" fill="#001A5B"/>
<path d="M360.72 76.7628H365.007V75.9355H362.067V75.8827L363.36 74.5713C364.557 73.3963 364.891 72.8286 364.9 72.1157C364.891 71.0816 364.042 70.3027 362.815 70.3027C361.6 70.3027 360.712 71.0728 360.72 72.239H361.635C361.64 71.5613 362.089 71.1124 362.798 71.1124C363.466 71.1124 363.976 71.5129 363.976 72.1422C363.976 72.701 363.629 73.1059 362.929 73.832L360.72 76.0586V76.7628Z" fill="#001A5B"/>
<path d="M368.236 76.7628C370.177 76.7628 371.294 75.5571 371.299 73.5679C371.294 71.5833 370.177 70.3907 368.298 70.3907H366.168V76.7628H368.236ZM367.137 75.9178V71.2356H368.236C369.627 71.2356 370.34 72.0674 370.34 73.5679C370.34 75.073 369.627 75.9134 368.183 75.9178H367.137Z" fill="#001A5B"/>
<path d="M543.097 76.8508C544.418 76.8508 545.4 76.0719 545.395 75.0113C545.4 74.206 544.893 73.6208 544.022 73.4975V73.4536C544.709 73.2819 545.157 72.7626 545.148 72.0365C545.157 71.0948 544.369 70.3027 543.115 70.3027C541.927 70.3027 540.968 71.0068 540.942 72.0453H541.875C541.897 71.4688 542.469 71.1124 543.107 71.1124C543.779 71.1124 544.215 71.5085 544.215 72.0894C544.215 72.701 543.709 73.1059 542.983 73.1015H542.438V73.8936H542.983C543.895 73.898 544.418 74.3469 544.418 74.9762C544.418 75.5966 543.859 76.0147 543.088 76.0147C542.376 76.0147 541.822 75.6582 541.787 75.0993H540.8C540.84 76.1423 541.778 76.8508 543.097 76.8508Z" fill="#001A5B"/>
<path d="M548.616 76.7628C550.557 76.7628 551.674 75.5571 551.679 73.5679C551.674 71.5833 550.557 70.3907 548.678 70.3907H546.548V76.7628H548.616ZM547.515 75.9178V71.2356H548.616C550.007 71.2356 550.72 72.0674 550.72 73.5679C550.72 75.073 550.007 75.9134 548.563 75.9178H547.515Z" fill="#001A5B"/>
<path fill-rule="evenodd" clip-rule="evenodd" d="M95.0756 49.2318V15.6691H96.0769V49.2318H95.0756Z" fill="#979797"/>
<path fill-rule="evenodd" clip-rule="evenodd" d="M275.323 49.2318V15.6691H276.325V49.2318H275.323Z" fill="#979797"/>
<path fill-rule="evenodd" clip-rule="evenodd" d="M455.571 49.2318V15.6691H456.572V49.2318H455.571Z" fill="#979797"/>
<path fill-rule="evenodd" clip-rule="evenodd" d="M635.819 49.2318V15.6691H636.82V49.2318H635.819Z" fill="#979797"/>
<path fill-rule="evenodd" clip-rule="evenodd" d="M456.572 37.7092V16.6803H455.571V37.7092H456.572Z" fill="#979797"/>
<path fill-rule="evenodd" clip-rule="evenodd" d="M636.82 37.7092V16.6803H635.819V37.7092H636.82Z" fill="#979797"/>
<path d="M719.434 20.6858H546.196V44.7188H719.434V20.6858Z" fill="#001A5B"/>
<path d="M546.196 20.6858H365.948V44.7188H546.196V20.6858Z" fill="#113287"/>
<path d="M365.948 20.6858H185.7V44.7188H365.948V20.6858Z" fill="#5B6EB4"/>
<path d="M185.7 20.6858H5.45227V44.7188H185.7V20.6858Z" fill="#E2E6F6"/>
<path fill-rule="evenodd" clip-rule="evenodd" d="M4.45093 64.7463V0.658203H6.45368V64.7463H4.45093Z" fill="#113287"/>
<path fill-rule="evenodd" clip-rule="evenodd" d="M185.199 64.494V0.405884H186.201V64.494H185.199Z" fill="#979797"/>
<path fill-rule="evenodd" clip-rule="evenodd" d="M365.447 64.494V0.405884H366.449V64.494H365.447Z" fill="#979797"/>
<path fill-rule="evenodd" clip-rule="evenodd" d="M545.695 64.494V0.405884H546.696V64.494H545.695Z" fill="#979797"/>
<path fill-rule="evenodd" clip-rule="evenodd" d="M36.6669 70.719L39.8533 73.9054C40.0487 74.1009 40.0487 74.4179 39.8533 74.6134L36.6669 77.7998C36.4713 77.9953 36.1543 77.9953 35.9588 77.7998C35.7632 77.6043 35.7632 77.2872 35.9588 77.0918L38.2904 74.7601H20.473V73.7588H38.2904L35.9588 71.4271C35.7632 71.2316 35.7632 70.9146 35.9588 70.719C36.1543 70.5235 36.4713 70.5235 36.6669 70.719Z" fill="#113287"/>
<path d="M719.889 20.6858H691.042V44.7188H719.889L727.445 32.7023L719.889 20.6858Z" fill="#001A5B"/>
<path d="M614.849 34.9941V35.7559H606.841V34.9941H610.376V33.0898H611.294V34.9941H614.849ZM607.231 32.6699C609.028 32.4062 610.322 31.3906 610.366 30.1602H607.563V29.4082H610.376V28.2363H611.294V29.4082H614.106V30.1602H611.304C611.348 31.3906 612.642 32.4062 614.438 32.6699L614.087 33.3926C612.622 33.1631 611.401 32.4697 610.83 31.4492C610.264 32.4697 609.048 33.1631 607.583 33.3926L607.231 32.6699ZM622.563 28.9199V29.7793C622.559 30.8584 622.559 32.0693 622.231 33.8613L621.294 33.7637C621.631 32.0693 621.631 30.8291 621.636 29.7793V29.6719H616.323V28.9199H622.563ZM615.483 35.6484V34.877H618.521V31.791H619.438V34.877H623.462V35.6484H615.483ZM631.216 32.1133V32.8555H628.569V34.9941H632.134V35.7559H624.126V34.9941H627.651V32.8555H625.122V28.7539H631.138V29.5059H626.05V32.1133H631.216ZM638.022 36.0977C636.558 36.0977 635.518 35.3115 635.474 34.1543H636.567C636.606 34.7744 637.222 35.1699 638.013 35.1699C638.867 35.1699 639.487 34.7061 639.487 34.0176C639.487 33.3193 638.906 32.8213 637.896 32.8164H637.29V31.9375H637.896C638.701 31.9424 639.263 31.4932 639.263 30.8145C639.263 30.1699 638.779 29.7305 638.032 29.7305C637.324 29.7305 636.689 30.126 636.665 30.7656H635.63C635.659 29.6133 636.724 28.832 638.042 28.832C639.434 28.832 640.308 29.7109 640.298 30.7559C640.308 31.5615 639.81 32.1377 639.048 32.3281V32.377C640.015 32.5137 640.576 33.1631 640.571 34.0566C640.576 35.2334 639.487 36.0977 638.022 36.0977ZM642.231 36.0684C641.851 36.0635 641.533 35.7559 641.538 35.375C641.533 34.9941 641.851 34.6816 642.231 34.6816C642.607 34.6816 642.92 34.9941 642.925 35.375C642.92 35.7559 642.607 36.0635 642.231 36.0684ZM646.431 36.0977C644.966 36.0977 643.926 35.3115 643.882 34.1543H644.976C645.015 34.7744 645.63 35.1699 646.421 35.1699C647.275 35.1699 647.896 34.7061 647.896 34.0176C647.896 33.3193 647.314 32.8213 646.304 32.8164H645.698V31.9375H646.304C647.109 31.9424 647.671 31.4932 647.671 30.8145C647.671 30.1699 647.188 29.7305 646.44 29.7305C645.732 29.7305 645.098 30.126 645.073 30.7656H644.038C644.067 29.6133 645.132 28.832 646.45 28.832C647.842 28.832 648.716 29.7109 648.706 30.7559C648.716 31.5615 648.218 32.1377 647.456 32.3281V32.377C648.423 32.5137 648.984 33.1631 648.979 34.0566C648.984 35.2334 647.896 36.0977 646.431 36.0977ZM651.782 32.2891C650.815 32.2988 650.288 31.5811 650.298 30.5312C650.288 29.4961 650.84 28.7783 651.782 28.7832C652.754 28.7783 653.262 29.4961 653.267 30.5312C653.262 31.5859 652.734 32.2988 651.782 32.2891ZM651.099 36L655.952 28.9297H656.841L651.987 36H651.099ZM651.099 30.5312C651.104 31.1807 651.328 31.6006 651.782 31.6055C652.241 31.6006 652.456 31.1807 652.456 30.5312C652.456 29.8965 652.256 29.4619 651.782 29.4668C651.328 29.4766 651.104 29.9014 651.099 30.5312ZM654.761 34.3887C654.756 33.3438 655.303 32.626 656.245 32.6309C657.212 32.626 657.725 33.3438 657.729 34.3887C657.725 35.4336 657.197 36.1465 656.245 36.1465C655.283 36.1465 654.756 35.4287 654.761 34.3887ZM655.562 34.3887C655.566 35.0283 655.791 35.4531 656.245 35.4531C656.704 35.4531 656.919 35.0283 656.919 34.3887C656.919 33.7441 656.719 33.3145 656.245 33.3145C655.796 33.3242 655.566 33.749 655.562 34.3887Z" fill="white"/>
<path d="M442.138 28.9199V29.7793C442.133 30.8584 442.133 32.0693 441.806 33.8613L440.868 33.7637C441.205 32.0693 441.205 30.8291 441.21 29.7793V29.6719H435.897V28.9199H442.138ZM435.058 35.6484V34.877H438.095V31.791H439.013V34.877H443.036V35.6484H435.058ZM450.79 32.1133V32.8555H448.144V34.9941H451.708V35.7559H443.7V34.9941H447.226V32.8555H444.696V28.7539H450.712V29.5059H445.624V32.1133H450.79ZM457.489 36.0977C456.151 36.0977 455.146 35.2822 455.097 34.1543H456.142C456.2 34.7549 456.776 35.1943 457.489 35.1992C458.349 35.1943 458.964 34.5742 458.964 33.7344C458.964 32.875 458.329 32.25 457.44 32.2402C456.874 32.2402 456.439 32.4307 456.2 32.8652H455.185L455.644 28.9297H459.647V29.8477H456.532L456.298 31.8301H456.366C456.659 31.5469 457.157 31.3564 457.694 31.3516C459.027 31.3564 460.009 32.3428 460.009 33.7051C460.009 35.0967 458.964 36.0977 457.489 36.0977ZM461.591 36.0684C461.21 36.0635 460.893 35.7559 460.897 35.375C460.893 34.9941 461.21 34.6816 461.591 34.6816C461.967 34.6816 462.279 34.9941 462.284 35.375C462.279 35.7559 461.967 36.0635 461.591 36.0684ZM463.593 36L466.747 29.9062V29.8477H463.104V28.9297H467.86V29.8867L464.716 36H463.593ZM470.565 32.2891C469.599 32.2988 469.071 31.5811 469.081 30.5312C469.071 29.4961 469.623 28.7783 470.565 28.7832C471.537 28.7783 472.045 29.4961 472.05 30.5312C472.045 31.5859 471.518 32.2988 470.565 32.2891ZM469.882 36L474.735 28.9297H475.624L470.771 36H469.882ZM469.882 30.5312C469.887 31.1807 470.111 31.6006 470.565 31.6055C471.024 31.6006 471.239 31.1807 471.239 30.5312C471.239 29.8965 471.039 29.4619 470.565 29.4668C470.111 29.4766 469.887 29.9014 469.882 30.5312ZM473.544 34.3887C473.539 33.3438 474.086 32.626 475.028 32.6309C475.995 32.626 476.508 33.3438 476.513 34.3887C476.508 35.4336 475.98 36.1465 475.028 36.1465C474.066 36.1465 473.539 35.4287 473.544 34.3887ZM474.345 34.3887C474.35 35.0283 474.574 35.4531 475.028 35.4531C475.487 35.4531 475.702 35.0283 475.702 34.3887C475.702 33.7441 475.502 33.3145 475.028 33.3145C474.579 33.3242 474.35 33.749 474.345 34.3887Z" fill="white"/>
<path d="M260.438 32.1328V32.8848H256.903V33.7246C258.505 33.8125 259.457 34.3496 259.462 35.2676C259.457 36.2588 258.324 36.8154 256.444 36.8105C254.54 36.8154 253.407 36.2588 253.407 35.2676C253.407 34.3496 254.359 33.8076 255.985 33.7246V32.8848H252.46V32.1328H260.438ZM252.88 30.9414C254.452 30.7803 255.692 30.0674 255.819 29.2227H253.192V28.4805H259.726V29.2227H257.069C257.196 30.0723 258.427 30.7803 260.028 30.9414L259.696 31.6738C258.178 31.498 256.923 30.8584 256.449 29.9307C255.966 30.8584 254.721 31.498 253.202 31.6738L252.88 30.9414ZM254.345 35.2676C254.34 35.7998 255.106 36.1074 256.444 36.0977C257.763 36.1074 258.534 35.7998 258.534 35.2676C258.534 34.7256 257.763 34.4326 256.444 34.4277C255.106 34.4326 254.34 34.7256 254.345 35.2676ZM268.192 32.1133V32.8555H265.546V34.9941H269.11V35.7559H261.103V34.9941H264.628V32.8555H262.099V28.7539H268.114V29.5059H263.026V32.1133H268.192ZM275.175 28.9297V36H274.091V30.0039H274.052L272.362 31.1074V30.082L274.12 28.9297H275.175ZM279.403 28.832C280.702 28.8418 282.064 29.623 282.069 32.2109C282.069 34.6914 281 36.0977 279.306 36.0977C278.002 36.0977 277.094 35.292 276.923 34.1445H277.987C278.134 34.7402 278.593 35.1553 279.306 35.1602C280.395 35.1553 281.034 34.208 281.044 32.5918H280.956C280.575 33.1875 279.911 33.5488 279.149 33.5488C277.88 33.5488 276.864 32.5771 276.864 31.2246C276.864 29.877 277.865 28.8223 279.403 28.832ZM277.909 31.2051C277.914 32.0254 278.524 32.6748 279.384 32.6699C280.238 32.6748 280.897 31.9766 280.897 31.1953C280.897 30.4287 280.268 29.7305 279.403 29.7305C278.549 29.7305 277.904 30.3945 277.909 31.2051ZM283.632 36.0684C283.251 36.0635 282.934 35.7559 282.938 35.375C282.934 34.9941 283.251 34.6816 283.632 34.6816C284.008 34.6816 284.32 34.9941 284.325 35.375C284.32 35.7559 284.008 36.0635 283.632 36.0684ZM287.87 36.0977C286.562 36.0879 285.194 35.3115 285.194 32.6992C285.199 30.2383 286.264 28.832 287.958 28.832C289.262 28.832 290.165 29.6426 290.331 30.7656H289.267C289.125 30.1895 288.671 29.7744 287.958 29.7695C286.864 29.7744 286.229 30.7217 286.229 32.3184H286.308C286.693 31.7178 287.357 31.3662 288.124 31.3613C289.384 31.3662 290.399 32.333 290.399 33.6855C290.399 35.0576 289.389 36.1074 287.87 36.0977ZM286.356 33.7148C286.361 34.501 286.991 35.1943 287.86 35.1992C288.715 35.1943 289.354 34.5303 289.354 33.7051C289.354 32.8945 288.739 32.2354 287.89 32.2402C287.025 32.2354 286.366 32.9287 286.356 33.7148ZM293.163 32.2891C292.196 32.2988 291.669 31.5811 291.679 30.5312C291.669 29.4961 292.221 28.7783 293.163 28.7832C294.135 28.7783 294.643 29.4961 294.647 30.5312C294.643 31.5859 294.115 32.2988 293.163 32.2891ZM292.479 36L297.333 28.9297H298.222L293.368 36H292.479ZM292.479 30.5312C292.484 31.1807 292.709 31.6006 293.163 31.6055C293.622 31.6006 293.837 31.1807 293.837 30.5312C293.837 29.8965 293.637 29.4619 293.163 29.4668C292.709 29.4766 292.484 29.9014 292.479 30.5312ZM296.142 34.3887C296.137 33.3438 296.684 32.626 297.626 32.6309C298.593 32.626 299.105 33.3438 299.11 34.3887C299.105 35.4336 298.578 36.1465 297.626 36.1465C296.664 36.1465 296.137 35.4287 296.142 34.3887ZM296.942 34.3887C296.947 35.0283 297.172 35.4531 297.626 35.4531C298.085 35.4531 298.3 35.0283 298.3 34.3887C298.3 33.7441 298.1 33.3145 297.626 33.3145C297.177 33.3242 296.947 33.749 296.942 34.3887Z" fill="white"/>
<path d="M79.9502 28.0898V33.2656H79.0225V32.2012H76.8154V31.4395H79.0225V30.375H76.9082C76.3418 31.7812 75.0283 32.7725 73.1338 33.3145L72.7627 32.5918C74.833 32.001 76.0439 30.8877 76.21 29.4766H73.2119V28.7148H77.2158C77.2158 29.0371 77.1816 29.3496 77.123 29.6426H79.0225V28.0898H79.9502ZM74.1201 35.0723C74.1201 34.0127 75.2725 33.3682 77.0693 33.3633C78.8418 33.3682 80.0039 34.0127 80.0088 35.0723C80.0039 36.1367 78.8418 36.791 77.0693 36.791C75.2725 36.791 74.1201 36.1367 74.1201 35.0723ZM75.0381 35.0723C75.0381 35.6875 75.8193 36.0439 77.0693 36.0488C78.2949 36.0439 79.0762 35.6875 79.0811 35.0723C79.0762 34.4473 78.2949 34.0908 77.0693 34.0957C75.8193 34.0908 75.0381 34.4473 75.0381 35.0723ZM88.3877 32.1133V32.8555H85.7412V34.9941H89.3057V35.7559H81.2979V34.9941H84.8232V32.8555H82.2939V28.7539H88.3096V29.5059H83.2217V32.1133H88.3877ZM92.9287 36L96.083 29.9062V29.8477H92.4404V28.9297H97.1963V29.8867L94.0518 36H92.9287ZM100.966 28.9297V36H99.8818V30.0039H99.8428L98.1533 31.1074V30.082L99.9111 28.9297H100.966ZM103.056 36.0684C102.675 36.0635 102.357 35.7559 102.362 35.375C102.357 34.9941 102.675 34.6816 103.056 34.6816C103.432 34.6816 103.744 34.9941 103.749 35.375C103.744 35.7559 103.432 36.0635 103.056 36.0684ZM104.843 34.623V33.7539L107.968 28.9297H109.296V33.7148H110.263V34.623H109.296V36H108.28V34.623H104.843ZM105.976 33.7148H108.28V30.209H108.202L105.976 33.6562V33.7148ZM112.968 32.2891C112.001 32.2988 111.474 31.5811 111.483 30.5312C111.474 29.4961 112.025 28.7783 112.968 28.7832C113.939 28.7783 114.447 29.4961 114.452 30.5312C114.447 31.5859 113.92 32.2988 112.968 32.2891ZM112.284 36L117.138 28.9297H118.026L113.173 36H112.284ZM112.284 30.5312C112.289 31.1807 112.514 31.6006 112.968 31.6055C113.427 31.6006 113.642 31.1807 113.642 30.5312C113.642 29.8965 113.441 29.4619 112.968 29.4668C112.514 29.4766 112.289 29.9014 112.284 30.5312ZM115.946 34.3887C115.941 33.3438 116.488 32.626 117.431 32.6309C118.397 32.626 118.91 33.3438 118.915 34.3887C118.91 35.4336 118.383 36.1465 117.431 36.1465C116.469 36.1465 115.941 35.4287 115.946 34.3887ZM116.747 34.3887C116.752 35.0283 116.977 35.4531 117.431 35.4531C117.89 35.4531 118.104 35.0283 118.104 34.3887C118.104 33.7441 117.904 33.3145 117.431 33.3145C116.981 33.3242 116.752 33.749 116.747 34.3887Z" fill="#113287"/>
</g>
<path d="M-1399 -688H1914V-690H-1399V-688ZM1915 -687V1283H1917V-687H1915ZM1914 1284H-1399V1286H1914V1284ZM-1400 1283V-687H-1402V1283H-1400ZM-1399 1284C-1399.55 1284 -1400 1283.55 -1400 1283H-1402C-1402 1284.66 -1400.66 1286 -1399 1286V1284ZM1915 1283C1915 1283.55 1914.55 1284 1914 1284V1286C1915.66 1286 1917 1284.66 1917 1283H1915ZM1914 -688C1914.55 -688 1915 -687.552 1915 -687H1917C1917 -688.657 1915.66 -690 1914 -690V-688ZM-1399 -690C-1400.66 -690 -1402 -688.657 -1402 -687H-1400C-1400 -687.552 -1399.55 -688 -1399 -688V-690Z" fill="black" fill-opacity="0.1"/>
<defs>
<clipPath id="clip0_1814_2379">
<rect width="727" height="90" fill="white"/>
</clipPath>
</defs>
</svg>
