<?xml version="1.0" encoding="UTF-8"?>
<svg width="727px" height="90px" viewBox="0 0 727 90" version="1.1" xmlns="http://www.w3.org/2000/svg" xmlns:xlink="http://www.w3.org/1999/xlink">
    <title>astigmatism</title>
    <g id="astigmatism" stroke="none" stroke-width="1" fill="none" fill-rule="evenodd">
        <g id="Group" transform="translate(0.000000, -0.000000)">
            <g id="AGE_00_06" transform="translate(0.000000, 0.405831)">
                <path d="M21.7090669,82.7083911 L21.0910173,82.7083911 L21.0910173,85.9706757 L21.6464809,85.9706757 C22.6987274,85.9706757 23.7547791,85.9041843 24.9321977,85.6577455 L24.8618009,85.1492465 C23.7274415,85.3839692 22.7026327,85.4465552 21.7090669,85.4465552 L21.7090669,82.7083911 Z M21.8654819,89.0061485 L26.4420732,89.0061485 L26.4420732,88.4898387 L22.4757208,88.4898387 L22.4757208,86.7374298 L21.8654819,86.7374298 L21.8654819,89.0061485 Z M25.5815904,87.2303073 L26.1917291,87.2303073 L26.1917291,84.8050734 L27.2400702,84.8050734 L27.2400702,84.273042 L26.1917291,84.273042 L26.1917291,82.2077028 L25.5815904,82.2077028 L25.5815904,87.2303073 Z" id="Shape" fill="#001A5B" fill-rule="nonzero"></path>
                <path d="M32.1609348,84.0696624 L32.1609348,82.8023203 L31.5506959,82.8023203 L31.5506959,84.0696624 C31.5428852,85.3878746 30.6862076,86.7178028 29.6496827,87.1911535 L30.0408204,87.7074632 C30.8544388,87.2967987 31.5389798,86.4166888 31.8597208,85.3683477 C32.1921778,86.3580082 32.8767188,87.1833427 33.6708104,87.5666697 L34.0463266,87.0816029 C33.0214177,86.616163 32.1570295,85.34091 32.1609348,84.0696624 Z M34.8051698,89.1704744 L35.4232194,89.1704744 L35.4232194,82.1998921 L34.8051698,82.1998921 L34.8051698,89.1704744 Z" id="Shape" fill="#001A5B" fill-rule="nonzero"></path>
                <path d="M2.34111227,76.444981 C3.81529879,76.444981 4.67781447,75.2567475 4.68222053,73.1708802 C4.67781447,71.0982309 3.80210065,69.8968795 2.34111227,69.8968795 C0.875717827,69.8968795 -1.73433206e-14,71.0982309 -1.73433206e-14,73.1708802 C-1.73433206e-14,75.2567475 0.866915727,76.444981 2.34111227,76.444981 Z M0.968124857,73.1708802 C0.968124857,71.5867024 1.48299263,70.7198107 2.34111227,70.7154047 C3.19482585,70.7198107 3.71408967,71.5867024 3.71408967,73.1708802 C3.71408967,74.7594639 3.19922189,75.6088315 2.34111227,75.6088315 C1.47859659,75.6088315 0.963728814,74.7594639 0.968124857,73.1708802 Z" id="Shape" fill="#001A5B" fill-rule="nonzero"></path>
                <path d="M7.84183397,76.35696 C9.78247172,76.35696 10.9002082,75.1512025 10.9046143,73.162068 C10.9002082,71.1774398 9.78247172,69.9849005 7.90343866,69.9849005 L5.77356077,69.9849005 L5.77356077,76.35696 L7.84183397,76.35696 Z M6.74169163,75.5119984 L6.74169163,70.8297619 L7.84183397,70.8297619 C9.23241557,70.8297619 9.94529555,71.6615053 9.94529555,73.162068 C9.94529555,74.667137 9.23241557,75.5075924 7.78903138,75.5119984 L6.74169163,75.5119984 Z" id="Shape" fill="#001A5B" fill-rule="nonzero"></path>
                <polygon id="Path" fill="#001A5B" fill-rule="nonzero" points="183.552148 69.9849005 182.601842 69.9849005 181.017664 71.0234281 181.017664 71.9474984 182.540758 70.9530313 182.575806 70.9530313 182.575806 76.35696 183.552148 76.35696"></polygon>
                <path d="M187.32834,76.35696 C189.269007,76.35696 190.386544,75.1512025 190.39155,73.162068 C190.386544,71.1774398 189.269007,69.9849005 187.390425,69.9849005 L185.260497,69.9849005 L185.260497,76.35696 L187.32834,76.35696 Z M186.227827,75.5119984 L186.227827,70.8297619 L187.32834,70.8297619 C188.719252,70.8297619 189.432232,71.6615053 189.432232,73.162068 C189.432232,74.667137 188.719252,75.5075924 187.275267,75.5119984 L186.227827,75.5119984 Z" id="Shape" fill="#001A5B" fill-rule="nonzero"></path>
                <path d="M360.719696,76.35696 L365.006589,76.35696 L365.006589,75.5296227 L362.066548,75.5296227 L362.066548,75.4768501 L363.360326,74.1654474 C364.556971,72.9904321 364.891431,72.4227517 364.900443,71.7098717 C364.891431,70.6757502 364.042264,69.8968795 362.814576,69.8968795 C361.599906,69.8968795 360.711685,70.6669381 360.719696,71.8331412 L361.634954,71.8331412 C361.639961,71.1554095 362.088578,70.7065926 362.797553,70.7065926 C363.466472,70.7065926 363.976173,71.1070431 363.976173,71.7363081 C363.976173,72.2951764 363.628695,72.7000329 362.928733,73.426131 L360.719696,75.652792 L360.719696,76.35696 Z" id="Path" fill="#001A5B" fill-rule="nonzero"></path>
                <path d="M368.236029,76.35696 C370.176697,76.35696 371.294233,75.1512025 371.29924,73.162068 C371.294233,71.1774398 370.176697,69.9849005 368.298114,69.9849005 L366.168186,69.9849005 L366.168186,76.35696 L368.236029,76.35696 Z M367.136517,75.5119984 L367.136517,70.8297619 L368.236029,70.8297619 C369.626941,70.8297619 370.339921,71.6615053 370.339921,73.162068 C370.339921,74.667137 369.626941,75.5075924 368.182956,75.5119984 L367.136517,75.5119984 Z" id="Shape" fill="#001A5B" fill-rule="nonzero"></path>
                <path d="M543.097406,76.444981 C544.418222,76.444981 545.399571,75.6660102 545.394601,74.6054522 C545.399571,73.8001452 544.892874,73.2149407 544.021677,73.0916713 L544.021677,73.0477108 C544.708621,72.8760749 545.157238,72.356761 545.148225,71.6306629 C545.157238,70.6889683 544.369155,69.8968795 543.115431,69.8968795 C541.926797,69.8968795 540.967478,70.6009473 540.941443,71.639475 L541.874725,71.639475 C541.896756,71.0629825 542.468542,70.7065926 543.106419,70.7065926 C543.779344,70.7065926 544.214943,71.102637 544.214943,71.6835355 C544.214943,72.2951764 543.709247,72.7000329 542.983249,72.6956268 L542.437499,72.6956268 L542.437499,73.4877157 L542.983249,73.4877157 C543.894502,73.4921218 544.418222,73.9410389 544.418222,74.5703039 C544.418222,75.1907568 543.859454,75.6088315 543.088394,75.6088315 C542.376415,75.6088315 541.821653,75.2523415 541.786604,74.6934732 L540.800248,74.6934732 C540.840303,75.7364069 541.777592,76.444981 543.097406,76.444981 Z" id="Path" fill="#001A5B" fill-rule="nonzero"></path>
                <path d="M548.615993,76.35696 C550.55666,76.35696 551.674197,75.1512025 551.679203,73.162068 C551.674197,71.1774398 550.55666,69.9849005 548.678078,69.9849005 L546.54815,69.9849005 L546.54815,76.35696 L548.615993,76.35696 Z M547.51548,75.5119984 L547.51548,70.8297619 L548.615993,70.8297619 C550.006905,70.8297619 550.719885,71.6615053 550.719885,73.162068 C550.719885,74.667137 550.006905,75.5075924 548.56292,75.5119984 L547.51548,75.5119984 Z" id="Shape" fill="#001A5B" fill-rule="nonzero"></path>
                <polygon id="Path" fill="#979797" points="95.0755219 48.8259137 95.0755219 15.2631759 96.0768985 15.2631759 96.0768985 48.8259137"></polygon>
                <polygon id="Path" fill="#979797" points="275.323304 48.8259137 275.323304 15.2631759 276.324681 15.2631759 276.324681 48.8259137"></polygon>
                <polygon id="Path" fill="#979797" points="455.571086 48.8259137 455.571086 15.2631759 456.572463 15.2631759 456.572463 48.8259137"></polygon>
                <polygon id="Path" fill="#979797" points="635.818868 48.8259137 635.818868 15.2631759 636.820245 15.2631759 636.820245 48.8259137"></polygon>
                <polygon id="Path" fill="#979797" points="456.572463 37.3032739 456.572463 16.274366 455.571086 16.274366 455.571086 37.3032739"></polygon>
                <polygon id="Path" fill="#979797" points="636.820245 37.3032739 636.820245 16.274366 635.818868 16.274366 635.818868 37.3032739"></polygon>
                <rect id="Rectangle" fill="#001A5B" fill-rule="nonzero" x="546.195665" y="20.2798722" width="173.238146" height="24.0330376"></rect>
                <path d="M615.45187,35.1029491 L611.891976,35.1029491 L611.891976,33.1960277 L610.972713,33.1960277 L610.972713,35.1029491 L607.432847,35.1029491 L607.432847,35.8656977 L615.45187,35.8656977 L615.45187,35.1029491 Z M607.824385,32.7755497 L608.176869,33.4991444 C609.642885,33.2693285 610.860559,32.5750741 611.428339,31.5531693 C612.000125,32.5750741 613.222806,33.2693285 614.688821,33.4991444 L615.041306,32.7755497 C613.241832,32.5114867 611.946051,31.4944887 611.90199,30.2622948 L614.708849,30.2622948 L614.708849,29.5093598 L611.891976,29.5093598 L611.891976,28.3358466 L610.972713,28.3358466 L610.972713,29.5093598 L608.156842,29.5093598 L608.156842,30.2622948 L610.9637,30.2622948 C610.91964,31.4944887 609.623858,32.5114867 607.824385,32.7755497 Z" id="Shape" fill="#FFFFFF" fill-rule="nonzero"></path>
                <path d="M623.17749,29.0203876 L616.928901,29.0203876 L616.928901,29.7733226 L622.248213,29.7733226 L622.248213,29.8809706 C622.243206,30.9322157 622.243206,32.174123 621.905742,33.8707553 L622.845033,33.9685898 C623.172483,32.174123 623.172483,30.9615561 623.17749,29.8809706 L623.17749,29.0203876 Z M616.087744,35.7581498 L624.076726,35.7581498 L624.076726,34.9855878 L620.048189,34.9855878 L620.048189,31.8954399 L619.128925,31.8954399 L619.128925,34.9855878 L616.087744,34.9855878 L616.087744,35.7581498 Z" id="Shape" fill="#FFFFFF" fill-rule="nonzero"></path>
                <polygon id="Path" fill="#FFFFFF" fill-rule="nonzero" points="631.8414 32.2180834 626.668289 32.2180834 626.668289 29.6070941 631.763293 29.6070941 631.763293 28.8541591 625.740013 28.8541591 625.740013 32.9613051 628.272494 32.9613051 628.272494 35.1029491 624.741641 35.1029491 624.741641 35.8656977 632.760664 35.8656977 632.760664 35.1029491 629.191758 35.1029491 629.191758 32.9613051 631.8414 32.9613051"></polygon>
                <path d="M638.608703,36.2079682 C640.246955,36.2079682 641.205273,34.8878534 641.21028,32.5701674 C641.205273,30.2672016 640.231935,28.9323666 638.608703,28.9323666 C636.980465,28.9323666 636.007127,30.2672016 636.007127,32.5701674 C636.007127,34.8878534 636.970451,36.2079682 638.608703,36.2079682 Z M637.083607,32.5701674 C637.083607,30.8099477 637.655393,29.8467235 638.608703,29.8418168 C639.557007,29.8467235 640.134801,30.8099477 640.134801,32.5701674 C640.134801,34.3352939 639.562014,35.2789911 638.608703,35.2789911 C637.650386,35.2789911 637.0786,34.3352939 637.083607,32.5701674 Z" id="Shape" fill="#FFFFFF" fill-rule="nonzero"></path>
                <path d="M642.755404,36.1786278 C643.131921,36.1737211 643.444351,35.8656977 643.449358,35.4843735 C643.444351,35.1029491 643.131921,34.790019 642.755404,34.790019 C642.373879,34.790019 642.056443,35.1029491 642.060448,35.4843735 C642.056443,35.8656977 642.373879,36.1737211 642.755404,36.1786278 Z" id="Path" fill="#FFFFFF" fill-rule="nonzero"></path>
                <path d="M646.901103,36.2079682 C648.539355,36.2079682 649.497672,34.8878534 649.502679,32.5701674 C649.497672,30.2672016 648.524334,28.9323666 646.901103,28.9323666 C645.272864,28.9323666 644.300528,30.2672016 644.300528,32.5701674 C644.300528,34.8878534 645.263852,36.2079682 646.901103,36.2079682 Z M645.376006,32.5701674 C645.376006,30.8099477 645.947792,29.8467235 646.901103,29.8418168 C647.850408,29.8467235 648.4272,30.8099477 648.4272,32.5701674 C648.4272,34.3352939 647.855414,35.2789911 646.901103,35.2789911 C645.942785,35.2789911 645.370999,34.3352939 645.376006,32.5701674 Z" id="Shape" fill="#FFFFFF" fill-rule="nonzero"></path>
                <path d="M652.240442,32.3941254 C653.194754,32.4039389 653.72248,31.6900575 653.727487,30.6339057 C653.72248,29.5972806 653.21378,28.8785927 652.240442,28.8834744 C651.297146,28.8785927 650.744386,29.5972806 650.7544,30.6339057 C650.744386,31.6851508 651.273113,32.4039389 652.240442,32.3941254 Z M651.556502,36.1102338 L652.445725,36.1102338 L657.306406,29.0301009 L656.416183,29.0301009 L651.556502,36.1102338 Z M651.556502,30.6339057 C651.561509,30.0031386 651.785817,29.5777538 652.240442,29.5679403 C652.715095,29.5631337 652.91537,29.9982318 652.91537,30.6339057 C652.91537,31.2841996 652.700074,31.7046776 652.240442,31.7095844 C651.785817,31.7046776 651.561509,31.2841996 651.556502,30.6339057 Z M655.223543,34.4966156 C655.218536,35.5381474 655.746262,36.2568354 656.709586,36.2568354 C657.662897,36.2568354 658.191623,35.542954 658.19663,34.4966156 C658.191623,33.4502773 657.677917,32.7314892 656.709586,32.7363709 C655.766289,32.7314892 655.218536,33.4502773 655.223543,34.4966156 Z M656.025646,34.4966156 C656.030653,33.8561352 656.259968,33.4307504 656.709586,33.4209369 C657.184239,33.4209369 657.384514,33.8512284 657.384514,34.4966156 C657.384514,35.1371962 657.169218,35.562581 656.709586,35.562581 C656.254961,35.562581 656.030653,35.1371962 656.025646,34.4966156 Z" id="Shape" fill="#FFFFFF" fill-rule="nonzero"></path>
                <rect id="Rectangle" fill="#113287" fill-rule="nonzero" x="365.947883" y="20.2798722" width="180.247782" height="24.0330376"></rect>
                <path d="M443.021835,28.7612313 L436.773245,28.7612313 L436.773245,29.5141664 L442.092557,29.5141664 L442.092557,29.6218144 C442.087551,30.6730595 442.087551,31.9149667 441.750087,33.611599 L442.689378,33.7094335 C443.016828,31.9149667 443.016828,30.7023998 443.021835,29.6218144 L443.021835,28.7612313 Z M435.932089,35.4989936 L443.921071,35.4989936 L443.921071,34.7264315 L439.892533,34.7264315 L439.892533,31.6362836 L438.973269,31.6362836 L438.973269,34.7264315 L435.932089,34.7264315 L435.932089,35.4989936 Z" id="Shape" fill="#FFFFFF" fill-rule="nonzero"></path>
                <polygon id="Path" fill="#FFFFFF" fill-rule="nonzero" points="451.685745 31.9589271 446.512634 31.9589271 446.512634 29.3479379 451.607638 29.3479379 451.607638 28.5950028 445.583356 28.5950028 445.583356 32.7021488 448.116839 32.7021488 448.116839 34.8437929 444.585985 34.8437929 444.585985 35.6065414 452.605009 35.6065414 452.605009 34.8437929 449.036103 34.8437929 449.036103 32.7021488 451.685745 32.7021488"></polygon>
                <polygon id="Path" fill="#FFFFFF" fill-rule="nonzero" points="458.678358 28.7710448 457.621905 28.7710448 455.861485 29.924931 455.861485 30.9517426 457.55281 29.8467235 457.592865 29.8467235 457.592865 35.8510776 458.678358 35.8510776"></polygon>
                <path d="M460.770233,35.9194716 C461.146751,35.9145648 461.460182,35.6065414 461.465189,35.2252172 C461.460182,34.8437929 461.146751,34.5308627 460.770233,34.5308627 C460.38971,34.5308627 460.071272,34.8437929 460.076279,35.2252172 C460.071272,35.6065414 460.38971,35.9145648 460.770233,35.9194716 Z" id="Path" fill="#FFFFFF" fill-rule="nonzero"></path>
                <path d="M464.916934,35.9488119 C466.555186,35.9488119 467.513503,34.6286972 467.51851,32.3110111 C467.513503,30.0080453 466.540165,28.6732103 464.916934,28.6732103 C463.288695,28.6732103 462.315357,30.0080453 462.315357,32.3110111 C462.315357,34.6286972 463.278681,35.9488119 464.916934,35.9488119 Z M463.391837,32.3110111 C463.391837,30.5507914 463.963623,29.5875673 464.916934,29.5826605 C465.865237,29.5875673 466.44203,30.5507914 466.44203,32.3110111 C466.44203,34.0761376 465.870244,35.0198349 464.916934,35.0198349 C463.958616,35.0198349 463.38683,34.0761376 463.391837,32.3110111 Z" id="Shape" fill="#FFFFFF" fill-rule="nonzero"></path>
                <path d="M470.256273,32.1349691 C471.209584,32.1447826 471.738311,31.4309013 471.742316,30.3747494 C471.738311,29.3382245 471.229611,28.6194364 470.256273,28.6243182 C469.312977,28.6194364 468.760217,29.3382245 468.770231,30.3747494 C468.760217,31.4259945 469.287942,32.1447826 470.256273,32.1349691 Z M469.571332,35.8510776 L470.461556,35.8510776 L475.322237,28.7710448 L474.432014,28.7710448 L469.571332,35.8510776 Z M469.571332,30.3747494 C469.576339,29.7439823 469.801648,29.3185975 470.256273,29.3088842 C470.730926,29.3039774 470.931201,29.7390756 470.931201,30.3747494 C470.931201,31.0250433 470.715905,31.4455214 470.256273,31.4504281 C469.801648,31.4455214 469.576339,31.0250433 469.571332,30.3747494 Z M473.239374,34.2374594 C473.234367,35.2789911 473.762093,35.9976791 474.725417,35.9976791 C475.678728,35.9976791 476.206453,35.2838979 476.21146,34.2374594 C476.206453,33.191121 475.693748,32.4723329 474.725417,32.4772147 C473.78212,32.4723329 473.234367,33.191121 473.239374,34.2374594 Z M474.040475,34.2374594 C474.045482,33.5969789 474.275799,33.1715942 474.725417,33.1617807 C475.20007,33.1617807 475.400345,33.5920722 475.400345,34.2374594 C475.400345,34.87804 475.185049,35.3034247 474.725417,35.3034247 C474.270792,35.3034247 474.045482,34.87804 474.040475,34.2374594 Z" id="Shape" fill="#FFFFFF" fill-rule="nonzero"></path>
                <rect id="Rectangle" fill="#5B6EB4" fill-rule="nonzero" x="185.700101" y="20.2798722" width="180.247782" height="24.0330376"></rect>
                <path d="M262.587797,31.7829853 L254.598815,31.7829853 L254.598815,32.5359203 L258.128667,32.5359203 L258.128667,33.3769765 C256.500429,33.4600907 255.547118,34.0028368 255.547118,34.9220004 C255.547118,35.9145648 256.681678,36.4720312 258.588299,36.4671566 C260.470887,36.4720312 261.605446,35.9145648 261.610453,34.9220004 C261.605446,34.0028368 260.652136,33.4649975 259.047931,33.3769765 L259.047931,32.5359203 L262.587797,32.5359203 L262.587797,31.7829853 Z M255.019393,30.5899452 L255.341836,31.3233534 C256.861926,31.1473114 258.109641,30.506831 258.593306,29.5777538 C259.067958,30.506831 260.323684,31.1473114 261.844775,31.3233534 L262.177232,30.5899452 C260.574029,30.4285233 259.341334,29.7195487 259.214159,28.8687792 L261.873815,28.8687792 L261.873815,28.1255575 L255.331822,28.1255575 L255.331822,28.8687792 L257.962438,28.8687792 C257.835264,29.714642 256.593557,30.4285233 255.019393,30.5899452 Z M256.485392,34.9220004 C256.481402,34.3792543 257.248457,34.0859511 258.588299,34.0810443 C259.908113,34.0859511 260.681176,34.3792543 260.681176,34.9220004 C260.681176,35.4550331 259.908113,35.7630566 258.588299,35.7532431 C257.248457,35.7630566 256.481402,35.4550331 256.485392,34.9220004 Z" id="Shape" fill="#FFFFFF" fill-rule="nonzero"></path>
                <polygon id="Path" fill="#FFFFFF" fill-rule="nonzero" points="270.352471 31.7633583 265.179359 31.7633583 265.179359 29.152369 270.274363 29.152369 270.274363 28.399434 264.250082 28.399434 264.250082 32.50658 266.783565 32.50658 266.783565 34.648224 263.252711 34.648224 263.252711 35.4109726 271.271734 35.4109726 271.271734 34.648224 267.702828 34.648224 267.702828 32.50658 270.352471 32.50658"></polygon>
                <path d="M277.060692,35.7532431 C278.537723,35.7532431 279.584161,34.7508651 279.584161,33.3573495 C279.584161,31.9931742 278.600809,31.0055165 277.265975,31.0006098 C276.728235,31.0055165 276.22955,31.1961786 275.936146,31.4797684 L275.868053,31.4797684 L276.102375,29.4946395 L279.222664,29.4946395 L279.222664,28.5753758 L275.213153,28.5753758 L274.753521,32.5163935 L275.769918,32.5163935 C276.010248,32.0811952 276.444846,31.8905331 277.012626,31.8905331 C277.901849,31.9003466 278.537723,32.526207 278.537723,33.3866898 C278.537723,34.227746 277.921876,34.8486996 277.060692,34.8536064 C276.346711,34.8486996 275.769918,34.4085946 275.711838,33.8071679 L274.6654,33.8071679 C274.714467,34.9367206 275.72085,35.7532431 277.060692,35.7532431 Z" id="Path" fill="#FFFFFF" fill-rule="nonzero"></path>
                <path d="M281.168339,35.7239027 C281.544857,35.718996 281.857286,35.4109726 281.862293,35.0296484 C281.857286,34.648224 281.544857,34.3352939 281.168339,34.3352939 C280.786815,34.3352939 280.469378,34.648224 280.474385,35.0296484 C280.469378,35.4109726 280.786815,35.718996 281.168339,35.7239027 Z" id="Path" fill="#FFFFFF" fill-rule="nonzero"></path>
                <path d="M282.957799,34.2766132 L286.400532,34.2766132 L286.400532,35.6555087 L287.416929,35.6555087 L287.416929,34.2766132 L288.38526,34.2766132 L288.38526,33.367163 L287.416929,33.367163 L287.416929,28.5753758 L286.087101,28.5753758 L282.957799,33.4063168 L282.957799,34.2766132 Z M284.092359,33.367163 L284.092359,33.3084823 L286.321423,29.8564369 L286.400532,29.8564369 L286.400532,33.367163 L284.092359,33.367163 Z" id="Shape" fill="#FFFFFF" fill-rule="nonzero"></path>
                <path d="M291.093984,31.9394003 C292.047294,31.9492138 292.576021,31.2353324 292.580026,30.1791806 C292.576021,29.1425555 292.067322,28.4238676 291.093984,28.4287493 C290.150687,28.4238676 289.597927,29.1425555 289.607941,30.1791806 C289.597927,31.2304257 290.125652,31.9492138 291.093984,31.9394003 Z M290.409042,35.6555087 L291.299266,35.6555087 L296.159948,28.5753758 L295.269724,28.5753758 L290.409042,35.6555087 Z M290.409042,30.1791806 C290.414049,29.5484135 290.639359,29.1230287 291.093984,29.1132152 C291.568636,29.1084086 291.768911,29.5435067 291.768911,30.1791806 C291.768911,30.8294745 291.553615,31.2499525 291.093984,31.2548593 C290.639359,31.2499525 290.414049,30.8294745 290.409042,30.1791806 Z M294.077084,34.0418905 C294.072077,35.0834223 294.599803,35.8021103 295.563127,35.8021103 C296.516438,35.8021103 297.044163,35.0882289 297.04917,34.0418905 C297.044163,32.9955522 296.531458,32.2767641 295.563127,32.2816458 C294.61983,32.2767641 294.072077,32.9955522 294.077084,34.0418905 Z M294.878186,34.0418905 C294.883192,33.4014101 295.113509,32.9760253 295.563127,32.9662118 C296.03778,32.9662118 296.238055,33.3965033 296.238055,34.0418905 C296.238055,34.6824711 296.022759,35.1078559 295.563127,35.1078559 C295.108502,35.1078559 294.883192,34.6824711 294.878186,34.0418905 Z" id="Shape" fill="#FFFFFF" fill-rule="nonzero"></path>
                <rect id="Rectangle" fill="#E2E6F6" fill-rule="nonzero" x="5.45231917" y="20.2798722" width="180.247782" height="24.0330376"></rect>
                <path d="M78.8784562,27.9398021 L77.9494792,27.9398021 L77.9494792,29.4946395 L76.0473644,29.4946395 C76.1060451,29.2012362 76.1402921,28.888306 76.1402921,28.5656625 L72.1308805,28.5656625 L72.1308805,29.328411 L75.1331076,29.328411 C74.9667789,30.7414535 73.754212,31.856286 71.6810621,32.4478993 L72.052673,33.1715942 C73.9497809,32.6288481 75.265089,31.6362836 75.8322687,30.2280477 L77.9494792,30.2280477 L77.9494792,31.2940131 L75.739341,31.2940131 L75.739341,32.0567616 L77.9494792,32.0567616 L77.9494792,33.122727 L78.8784562,33.122727 L78.8784562,27.9398021 Z M73.0403307,34.9318139 C73.0403307,35.9976791 74.1943171,36.6528798 75.9935905,36.6528798 C77.7685304,36.6528798 78.9322301,35.9976791 78.9371369,34.9318139 C78.9322301,33.8707553 77.7685304,33.2253681 75.9935905,33.2204613 C74.1943171,33.2253681 73.0403307,33.8707553 73.0403307,34.9318139 Z M73.9595944,34.9318139 C73.9595944,34.3059535 74.7418698,33.9489628 75.9935905,33.9538695 C77.2208776,33.9489628 78.0032531,34.3059535 78.0081598,34.9318139 C78.0032531,35.5478607 77.2208776,35.9048515 75.9935905,35.9097582 C74.7418698,35.9048515 73.9595944,35.5478607 73.9595944,34.9318139 Z" id="Shape" fill="#113287" fill-rule="nonzero"></path>
                <polygon id="Path" fill="#113287" fill-rule="nonzero" points="87.327571 31.9687406 82.1544597 31.9687406 82.1544597 29.3577514 87.2493635 29.3577514 87.2493635 28.6047162 81.2253825 28.6047162 81.2253825 32.7119623 83.7581642 32.7119623 83.7581642 34.8536064 80.2280114 34.8536064 80.2280114 35.6163549 88.2468347 35.6163549 88.2468347 34.8536064 84.6774279 34.8536064 84.6774279 32.7119623 87.327571 32.7119623"></polygon>
                <polygon id="Path" fill="#113287" fill-rule="nonzero" points="91.874822 35.8607909 92.999468 35.8607909 96.1482966 29.7390756 96.1482966 28.7807582 91.3858498 28.7807582 91.3858498 29.7000219 95.0334641 29.7000219 95.0334641 29.7587025"></polygon>
                <path d="M99.5807151,35.9586254 C101.047732,35.9586254 102.138231,35.0931356 102.133257,33.9148158 C102.138231,33.0199857 101.575457,32.3696918 100.607126,32.2328036 L100.607126,32.1839364 C101.370175,31.9931742 101.868861,31.4162812 101.858847,30.6094721 C101.868861,29.5631337 100.993657,28.6830238 99.6007426,28.6830238 C98.2801272,28.6830238 97.2141618,29.4652992 97.1848215,30.6192856 L98.2214465,30.6192856 C98.2458801,29.978705 98.881554,29.5826605 99.5907289,29.5826605 C100.338757,29.5826605 100.822422,30.0227655 100.822422,30.6681527 C100.822422,31.347787 100.26065,31.7976054 99.4536404,31.7926986 L98.8473069,31.7926986 L98.8473069,32.6728085 L99.4536404,32.6728085 C100.465932,32.6777152 101.047732,33.1765009 101.047732,33.875662 C101.047732,34.5651098 100.426878,35.0296484 99.5710017,35.0296484 C98.7788127,35.0296484 98.1627659,34.6335038 98.123612,34.0125502 L97.0284065,34.0125502 C97.0723669,35.1714433 98.1138987,35.9586254 99.5807151,35.9586254 Z" id="Path" fill="#113287" fill-rule="nonzero"></path>
                <path d="M103.795509,35.9292851 C104.172027,35.9243783 104.484456,35.6163549 104.489463,35.2349306 C104.484456,34.8536064 104.172027,34.5406762 103.795509,34.5406762 C103.413985,34.5406762 103.096548,34.8536064 103.101555,35.2349306 C103.096548,35.6163549 103.413985,35.9243783 103.795509,35.9292851 Z" id="Path" fill="#113287" fill-rule="nonzero"></path>
                <path d="M108.08841,28.682956 C106.548293,28.6732103 105.545915,29.7293622 105.545915,31.0788173 C105.545915,32.4332792 106.563314,33.4063168 107.834061,33.4063168 C108.59711,33.4063168 109.262024,33.0444193 109.643548,32.4478993 L109.731669,32.4478993 C109.721656,34.0663241 109.080775,35.0149281 107.990276,35.0198349 C107.277295,35.0149281 106.817664,34.5993569 106.670461,34.0028368 L105.604997,34.0028368 C105.776232,35.1518163 106.685482,35.9586254 107.990276,35.9586254 C109.687609,35.9586254 110.75808,34.5503895 110.75808,32.0665751 C110.753073,29.4751127 109.389199,28.6927372 108.08841,28.682956 Z M106.592325,31.0592904 C106.587347,30.2476747 107.233235,29.5826605 108.08841,29.5826605 C108.9536,29.5826605 109.584467,30.2818217 109.584467,31.0494769 C109.584467,31.8318524 108.92456,32.5310136 108.069384,32.5262334 C107.2082,32.5310136 106.597361,31.8807196 106.592325,31.0592904 Z" id="Shape" fill="#113287" fill-rule="nonzero"></path>
                <path d="M113.515871,32.1447826 C114.469182,32.1545961 114.997909,31.4407148 115.001914,30.3845629 C114.997909,29.3479379 114.489209,28.6292499 113.515871,28.6340325 C112.572575,28.6292499 112.019815,29.3479379 112.029829,30.3845629 C112.019815,31.435808 112.54754,32.1545961 113.515871,32.1447826 Z M112.83093,35.8607909 L113.721154,35.8607909 L118.581835,28.7807582 L117.691612,28.7807582 L112.83093,35.8607909 Z M112.83093,30.3845629 C112.835937,29.7537958 113.061246,29.328411 113.515871,29.3185975 C113.990524,29.3136908 114.190799,29.748889 114.190799,30.3845629 C114.190799,31.0348568 113.975503,31.4553349 113.515871,31.4602416 C113.061246,31.4553349 112.835937,31.0348568 112.83093,30.3845629 Z M116.498972,34.2472729 C116.493965,35.2887045 117.021691,36.0074926 117.985015,36.0074926 C118.938326,36.0074926 119.466051,35.2936112 119.471058,34.2472729 C119.466051,33.2009345 118.953346,32.4821464 117.985015,32.4870282 C117.041718,32.4821464 116.493965,33.2009345 116.498972,34.2472729 Z M117.300073,34.2472729 C117.30508,33.6067924 117.535397,33.1813075 117.985015,33.1715942 C118.459668,33.1715942 118.659943,33.6018857 118.659943,34.2472729 C118.659943,34.8878534 118.444647,35.3132382 117.985015,35.3132382 C117.53039,35.3132382 117.30508,34.8878534 117.300073,34.2472729 Z" id="Shape" fill="#113287" fill-rule="nonzero"></path>
                <polygon id="Path" fill="#113287" points="4.4509426 64.3404412 4.4509426 0.25229983 6.45369573 0.25229983 6.45369573 64.3404412"></polygon>
                <polygon id="Path" fill="#979797" points="185.199413 64.0880943 185.199413 0 186.20079 0 186.20079 64.0880943"></polygon>
                <polygon id="Path" fill="#979797" points="365.447195 64.0880943 365.447195 0 366.448572 0 366.448572 64.0880943"></polygon>
                <polygon id="Path" fill="#979797" points="545.694977 64.0880943 545.694977 0 546.696354 0 546.696354 64.0880943"></polygon>
                <path d="M36.666829,70.3131517 L39.8532092,73.4995319 C40.0486779,73.6951008 40.0486779,74.0120365 39.8532092,74.2076053 L36.666829,77.3939856 C36.4712601,77.5894543 36.1542243,77.5894543 35.9587556,77.3939856 C35.7631867,77.1984167 35.7631867,76.8813809 35.9587556,76.6859122 L38.2903608,74.354307 L20.4729677,74.354307 L20.4729677,73.3529304 L38.2903608,73.3529304 L35.9587556,71.0212251 C35.7631867,70.8257564 35.7631867,70.5087206 35.9587556,70.3131517 C36.1542243,70.117683 36.4712601,70.117683 36.666829,70.3131517 Z" id="Path" fill="#113287"></path>
                <polygon id="Path" fill="#001A5B" fill-rule="nonzero" points="719.889438 20.2798722 691.041782 20.2798722 691.041782 44.3129098 719.889438 44.3129098 727.444824 32.296391"></polygon>
            </g>
        </g>
    </g>
</svg>