<svg width="727" height="90" viewBox="0 0 727 90" fill="none" xmlns="http://www.w3.org/2000/svg">
<rect width="727" height="90" fill="#727272"/>
<path d="M-1401 -1219C-1401 -1220.1 -1400.1 -1221 -1399 -1221H1914C1915.1 -1221 1916 -1220.1 1916 -1219V751C1916 752.105 1915.1 753 1914 753H-1399C-1400.1 753 -1401 752.105 -1401 751V-1219Z" fill="white"/>
<g clip-path="url(#clip0_1814_2379)">
<path d="M21.7091 83.1142H21.0911V86.3765H21.6465C22.6988 86.3765 23.7548 86.31 24.9322 86.0636L24.8618 85.5551C23.7275 85.7898 22.7027 85.8524 21.7091 85.8524V83.1142ZM21.8655 89.412H26.4421V88.8957H22.4758V87.1432H21.8655V89.412ZM25.5816 87.6361H26.1918V85.2109H27.2401V84.6789H26.1918V82.6135H25.5816V87.6361Z" fill="#001A5B"/>
<path d="M32.1609 84.4755V83.2081H31.5507V84.4755C31.5429 85.7937 30.6862 87.1236 29.6497 87.597L30.0408 88.1133C30.8544 87.7026 31.539 86.8225 31.8597 85.7742C32.1922 86.7638 32.8767 87.5892 33.6708 87.9725L34.0463 87.4874C33.0214 87.022 32.157 85.7467 32.1609 84.4755ZM34.8051 89.5763H35.4232V82.6057H34.8051V89.5763Z" fill="#001A5B"/>
<path d="M2.34111 76.8508C3.8153 76.8508 4.67781 75.6626 4.68222 73.5767C4.67781 71.5041 3.8021 70.3027 2.34111 70.3027C0.875718 70.3027 0 71.5041 0 73.5767C0 75.6626 0.866916 76.8508 2.34111 76.8508ZM0.968125 73.5767C0.968125 71.9926 1.48299 71.1257 2.34111 71.1213C3.19483 71.1257 3.71409 71.9926 3.71409 73.5767C3.71409 75.1653 3.19922 76.0147 2.34111 76.0147C1.4786 76.0147 0.963729 75.1653 0.968125 73.5767Z" fill="#001A5B"/>
<path d="M7.84183 76.7628C9.78247 76.7628 10.9002 75.5571 10.9046 73.5679C10.9002 71.5833 9.78247 70.3907 7.90344 70.3907H5.77356V76.7628H7.84183ZM6.74169 75.9178V71.2356H7.84183C9.23241 71.2356 9.94529 72.0674 9.94529 73.5679C9.94529 75.073 9.23241 75.9134 7.78903 75.9178H6.74169Z" fill="#001A5B"/>
<path d="M183.552 70.3907H182.602L181.018 71.4293V72.3533L182.541 71.3589H182.576V76.7628H183.552V70.3907Z" fill="#001A5B"/>
<path d="M187.328 76.7628C189.269 76.7628 190.387 75.5571 190.392 73.5679C190.387 71.5833 189.269 70.3907 187.39 70.3907H185.26V76.7628H187.328ZM186.228 75.9178V71.2356H187.328C188.719 71.2356 189.432 72.0674 189.432 73.5679C189.432 75.073 188.719 75.9134 187.275 75.9178H186.228Z" fill="#001A5B"/>
<path d="M360.72 76.7628H365.007V75.9355H362.067V75.8827L363.36 74.5713C364.557 73.3963 364.891 72.8286 364.9 72.1157C364.891 71.0816 364.042 70.3027 362.815 70.3027C361.6 70.3027 360.712 71.0728 360.72 72.239H361.635C361.64 71.5613 362.089 71.1124 362.798 71.1124C363.466 71.1124 363.976 71.5129 363.976 72.1422C363.976 72.701 363.629 73.1059 362.929 73.832L360.72 76.0586V76.7628Z" fill="#001A5B"/>
<path d="M368.236 76.7628C370.177 76.7628 371.294 75.5571 371.299 73.5679C371.294 71.5833 370.177 70.3907 368.298 70.3907H366.168V76.7628H368.236ZM367.137 75.9178V71.2356H368.236C369.627 71.2356 370.34 72.0674 370.34 73.5679C370.34 75.073 369.627 75.9134 368.183 75.9178H367.137Z" fill="#001A5B"/>
<path d="M543.097 76.8508C544.418 76.8508 545.4 76.0719 545.395 75.0113C545.4 74.206 544.893 73.6208 544.022 73.4975V73.4536C544.709 73.2819 545.157 72.7626 545.148 72.0365C545.157 71.0948 544.369 70.3027 543.115 70.3027C541.927 70.3027 540.968 71.0068 540.942 72.0453H541.875C541.897 71.4688 542.469 71.1124 543.107 71.1124C543.779 71.1124 544.215 71.5085 544.215 72.0894C544.215 72.701 543.709 73.1059 542.983 73.1015H542.438V73.8936H542.983C543.895 73.898 544.418 74.3469 544.418 74.9762C544.418 75.5966 543.859 76.0147 543.088 76.0147C542.376 76.0147 541.822 75.6582 541.787 75.0993H540.8C540.84 76.1423 541.778 76.8508 543.097 76.8508Z" fill="#001A5B"/>
<path d="M548.616 76.7628C550.557 76.7628 551.674 75.5571 551.679 73.5679C551.674 71.5833 550.557 70.3907 548.678 70.3907H546.548V76.7628H548.616ZM547.515 75.9178V71.2356H548.616C550.007 71.2356 550.72 72.0674 550.72 73.5679C550.72 75.073 550.007 75.9134 548.563 75.9178H547.515Z" fill="#001A5B"/>
<path fill-rule="evenodd" clip-rule="evenodd" d="M95.0756 49.2318V15.6691H96.0769V49.2318H95.0756Z" fill="#979797"/>
<path fill-rule="evenodd" clip-rule="evenodd" d="M275.323 49.2318V15.6691H276.325V49.2318H275.323Z" fill="#979797"/>
<path fill-rule="evenodd" clip-rule="evenodd" d="M455.571 49.2318V15.6691H456.572V49.2318H455.571Z" fill="#979797"/>
<path fill-rule="evenodd" clip-rule="evenodd" d="M635.819 49.2318V15.6691H636.82V49.2318H635.819Z" fill="#979797"/>
<path fill-rule="evenodd" clip-rule="evenodd" d="M456.572 37.7092V16.6803H455.571V37.7092H456.572Z" fill="#979797"/>
<path fill-rule="evenodd" clip-rule="evenodd" d="M636.82 37.7092V16.6803H635.819V37.7092H636.82Z" fill="#979797"/>
<path d="M719.434 20.6858H546.196V44.7188H719.434V20.6858Z" fill="#001A5B"/>
<path d="M546.196 20.6858H365.948V44.7188H546.196V20.6858Z" fill="#113287"/>
<path d="M365.948 20.6858H185.7V44.7188H365.948V20.6858Z" fill="#5B6EB4"/>
<path d="M185.7 20.6858H5.45227V44.7188H185.7V20.6858Z" fill="#E2E6F6"/>
<path fill-rule="evenodd" clip-rule="evenodd" d="M4.45093 64.7463V0.658203H6.45368V64.7463H4.45093Z" fill="#113287"/>
<path fill-rule="evenodd" clip-rule="evenodd" d="M185.199 64.494V0.405884H186.201V64.494H185.199Z" fill="#979797"/>
<path fill-rule="evenodd" clip-rule="evenodd" d="M365.447 64.494V0.405884H366.449V64.494H365.447Z" fill="#979797"/>
<path fill-rule="evenodd" clip-rule="evenodd" d="M545.695 64.494V0.405884H546.696V64.494H545.695Z" fill="#979797"/>
<path fill-rule="evenodd" clip-rule="evenodd" d="M36.6669 70.719L39.8533 73.9054C40.0487 74.1009 40.0487 74.4179 39.8533 74.6134L36.6669 77.7998C36.4713 77.9953 36.1543 77.9953 35.9588 77.7998C35.7632 77.6043 35.7632 77.2872 35.9588 77.0918L38.2904 74.7601H20.473V73.7588H38.2904L35.9588 71.4271C35.7632 71.2316 35.7632 70.9146 35.9588 70.719C36.1543 70.5235 36.4713 70.5235 36.6669 70.719Z" fill="#113287"/>
<path d="M719.889 20.6858H691.042V44.7188H719.889L727.445 32.7023L719.889 20.6858Z" fill="#001A5B"/>
<path d="M615.195 35.9941V36.7559H607.188V35.9941H610.723V34.0898H611.641V35.9941H615.195ZM607.578 33.6699C609.375 33.4062 610.669 32.3906 610.713 31.1602H607.91V30.4082H610.723V29.2363H611.641V30.4082H614.453V31.1602H611.65C611.694 32.3906 612.988 33.4062 614.785 33.6699L614.434 34.3926C612.969 34.1631 611.748 33.4697 611.177 32.4492C610.61 33.4697 609.395 34.1631 607.93 34.3926L607.578 33.6699ZM622.91 29.9199V30.7793C622.905 31.8584 622.905 33.0693 622.578 34.8613L621.641 34.7637C621.978 33.0693 621.978 31.8291 621.982 30.7793V30.6719H616.67V29.9199H622.91ZM615.83 36.6484V35.877H618.867V32.791H619.785V35.877H623.809V36.6484H615.83ZM631.562 33.1133V33.8555H628.916V35.9941H632.48V36.7559H624.473V35.9941H627.998V33.8555H625.469V29.7539H631.484V30.5059H626.396V33.1133H631.562ZM638.32 37.0977C636.685 37.0977 635.723 35.7793 635.723 33.4648C635.723 31.165 636.694 29.832 638.32 29.832C639.941 29.832 640.913 31.165 640.918 33.4648C640.913 35.7793 639.956 37.0977 638.32 37.0977ZM636.797 33.4648C636.792 35.2275 637.363 36.1699 638.32 36.1699C639.272 36.1699 639.844 35.2275 639.844 33.4648C639.844 31.707 639.268 30.7451 638.32 30.7402C637.368 30.7451 636.797 31.707 636.797 33.4648ZM642.461 37.0684C642.08 37.0635 641.763 36.7559 641.768 36.375C641.763 35.9941 642.08 35.6816 642.461 35.6816C642.837 35.6816 643.149 35.9941 643.154 36.375C643.149 36.7559 642.837 37.0635 642.461 37.0684ZM644.463 37L647.617 30.9062V30.8477H643.975V29.9297H648.73V30.8867L645.586 37H644.463ZM651.436 33.2891C650.469 33.2988 649.941 32.5811 649.951 31.5312C649.941 30.4961 650.493 29.7783 651.436 29.7832C652.407 29.7783 652.915 30.4961 652.92 31.5312C652.915 32.5859 652.388 33.2988 651.436 33.2891ZM650.752 37L655.605 29.9297H656.494L651.641 37H650.752ZM650.752 31.5312C650.757 32.1807 650.981 32.6006 651.436 32.6055C651.895 32.6006 652.109 32.1807 652.109 31.5312C652.109 30.8965 651.909 30.4619 651.436 30.4668C650.981 30.4766 650.757 30.9014 650.752 31.5312ZM654.414 35.3887C654.409 34.3438 654.956 33.626 655.898 33.6309C656.865 33.626 657.378 34.3438 657.383 35.3887C657.378 36.4336 656.851 37.1465 655.898 37.1465C654.937 37.1465 654.409 36.4287 654.414 35.3887ZM655.215 35.3887C655.22 36.0283 655.444 36.4531 655.898 36.4531C656.357 36.4531 656.572 36.0283 656.572 35.3887C656.572 34.7441 656.372 34.3145 655.898 34.3145C655.449 34.3242 655.22 34.749 655.215 35.3887Z" fill="white"/>
<path d="M441.562 29.9199V30.7793C441.557 31.8584 441.557 33.0693 441.229 34.8613L440.292 34.7637C440.629 33.0693 440.629 31.8291 440.634 30.7793V30.6719H435.321V29.9199H441.562ZM434.481 36.6484V35.877H437.519V32.791H438.437V35.877H442.46V36.6484H434.481ZM450.214 33.1133V33.8555H447.567V35.9941H451.132V36.7559H443.124V35.9941H446.649V33.8555H444.12V29.7539H450.136V30.5059H445.048V33.1133H450.214ZM457.021 37.0977C455.556 37.0977 454.516 36.3115 454.472 35.1543H455.565C455.604 35.7744 456.22 36.1699 457.011 36.1699C457.865 36.1699 458.485 35.7061 458.485 35.0176C458.485 34.3193 457.904 33.8213 456.894 33.8164H456.288V32.9375H456.894C457.699 32.9424 458.261 32.4932 458.261 31.8145C458.261 31.1699 457.777 30.7305 457.03 30.7305C456.322 30.7305 455.688 31.126 455.663 31.7656H454.628C454.657 30.6133 455.722 29.832 457.04 29.832C458.432 29.832 459.306 30.7109 459.296 31.7559C459.306 32.5615 458.808 33.1377 458.046 33.3281V33.377C459.013 33.5137 459.574 34.1631 459.569 35.0566C459.574 36.2334 458.485 37.0977 457.021 37.0977ZM461.229 37.0684C460.849 37.0635 460.531 36.7559 460.536 36.375C460.531 35.9941 460.849 35.6816 461.229 35.6816C461.605 35.6816 461.918 35.9941 461.923 36.375C461.918 36.7559 461.605 37.0635 461.229 37.0684ZM463.017 35.623V34.7539L466.142 29.9297H467.47V34.7148H468.437V35.623H467.47V37H466.454V35.623H463.017ZM464.149 34.7148H466.454V31.209H466.376L464.149 34.6562V34.7148ZM471.142 33.2891C470.175 33.2988 469.647 32.5811 469.657 31.5312C469.647 30.4961 470.199 29.7783 471.142 29.7832C472.113 29.7783 472.621 30.4961 472.626 31.5312C472.621 32.5859 472.094 33.2988 471.142 33.2891ZM470.458 37L475.312 29.9297H476.2L471.347 37H470.458ZM470.458 31.5312C470.463 32.1807 470.688 32.6006 471.142 32.6055C471.601 32.6006 471.815 32.1807 471.815 31.5312C471.815 30.8965 471.615 30.4619 471.142 30.4668C470.688 30.4766 470.463 30.9014 470.458 31.5312ZM474.12 35.3887C474.115 34.3438 474.662 33.626 475.604 33.6309C476.571 33.626 477.084 34.3438 477.089 35.3887C477.084 36.4336 476.557 37.1465 475.604 37.1465C474.643 37.1465 474.115 36.4287 474.12 35.3887ZM474.921 35.3887C474.926 36.0283 475.15 36.4531 475.604 36.4531C476.063 36.4531 476.278 36.0283 476.278 35.3887C476.278 34.7441 476.078 34.3145 475.604 34.3145C475.155 34.3242 474.926 34.749 474.921 35.3887Z" fill="white"/>
<path d="M259.765 33.1328V33.8848H256.229V34.7246C257.831 34.8125 258.783 35.3496 258.788 36.2676C258.783 37.2588 257.65 37.8154 255.771 37.8105C253.866 37.8154 252.733 37.2588 252.733 36.2676C252.733 35.3496 253.686 34.8076 255.312 34.7246V33.8848H251.786V33.1328H259.765ZM252.206 31.9414C253.778 31.7803 255.019 31.0674 255.146 30.2227H252.519V29.4805H259.052V30.2227H256.396C256.522 31.0723 257.753 31.7803 259.354 31.9414L259.022 32.6738C257.504 32.498 256.249 31.8584 255.775 30.9307C255.292 31.8584 254.047 32.498 252.528 32.6738L252.206 31.9414ZM253.671 36.2676C253.666 36.7998 254.433 37.1074 255.771 37.0977C257.089 37.1074 257.86 36.7998 257.86 36.2676C257.86 35.7256 257.089 35.4326 255.771 35.4277C254.433 35.4326 253.666 35.7256 253.671 36.2676ZM267.519 33.1133V33.8555H264.872V35.9941H268.437V36.7559H260.429V35.9941H263.954V33.8555H261.425V29.7539H267.44V30.5059H262.353V33.1133H267.519ZM271.815 37V36.2188L274.267 33.748C275.043 32.9424 275.429 32.4932 275.429 31.873C275.429 31.1748 274.862 30.7305 274.12 30.7305C273.334 30.7305 272.836 31.2285 272.831 31.9805H271.815C271.806 30.6865 272.792 29.832 274.14 29.832C275.502 29.832 276.444 30.6963 276.454 31.8438C276.444 32.6348 276.073 33.2646 274.745 34.5684L273.31 36.0234V36.082H276.571V37H271.815ZM280.224 37.0977C278.588 37.0977 277.626 35.7793 277.626 33.4648C277.626 31.165 278.598 29.832 280.224 29.832C281.845 29.832 282.816 31.165 282.821 33.4648C282.816 35.7793 281.859 37.0977 280.224 37.0977ZM278.7 33.4648C278.695 35.2275 279.267 36.1699 280.224 36.1699C281.176 36.1699 281.747 35.2275 281.747 33.4648C281.747 31.707 281.171 30.7451 280.224 30.7402C279.271 30.7451 278.7 31.707 278.7 33.4648ZM284.364 37.0684C283.983 37.0635 283.666 36.7559 283.671 36.375C283.666 35.9941 283.983 35.6816 284.364 35.6816C284.74 35.6816 285.053 35.9941 285.058 36.375C285.053 36.7559 284.74 37.0635 284.364 37.0684ZM288.505 37.0977C286.869 37.0977 285.907 35.7793 285.907 33.4648C285.907 31.165 286.879 29.832 288.505 29.832C290.126 29.832 291.098 31.165 291.103 33.4648C291.098 35.7793 290.141 37.0977 288.505 37.0977ZM286.981 33.4648C286.977 35.2275 287.548 36.1699 288.505 36.1699C289.457 36.1699 290.028 35.2275 290.028 33.4648C290.028 31.707 289.452 30.7451 288.505 30.7402C287.553 30.7451 286.981 31.707 286.981 33.4648ZM293.837 33.2891C292.87 33.2988 292.343 32.5811 292.353 31.5312C292.343 30.4961 292.895 29.7783 293.837 29.7832C294.809 29.7783 295.316 30.4961 295.321 31.5312C295.316 32.5859 294.789 33.2988 293.837 33.2891ZM293.153 37L298.007 29.9297H298.896L294.042 37H293.153ZM293.153 31.5312C293.158 32.1807 293.383 32.6006 293.837 32.6055C294.296 32.6006 294.511 32.1807 294.511 31.5312C294.511 30.8965 294.311 30.4619 293.837 30.4668C293.383 30.4766 293.158 30.9014 293.153 31.5312ZM296.815 35.3887C296.811 34.3438 297.357 33.626 298.3 33.6309C299.267 33.626 299.779 34.3438 299.784 35.3887C299.779 36.4336 299.252 37.1465 298.3 37.1465C297.338 37.1465 296.811 36.4287 296.815 35.3887ZM297.616 35.3887C297.621 36.0283 297.846 36.4531 298.3 36.4531C298.759 36.4531 298.974 36.0283 298.974 35.3887C298.974 34.7441 298.773 34.3145 298.3 34.3145C297.851 34.3242 297.621 34.749 297.616 35.3887Z" fill="white"/>
<path d="M79.2373 29.0898V34.2656H78.3096V33.2012H76.1025V32.4395H78.3096V31.375H76.1953C75.6289 32.7812 74.3154 33.7725 72.4209 34.3145L72.0498 33.5918C74.1201 33.001 75.3311 31.8877 75.4971 30.4766H72.499V29.7148H76.5029C76.5029 30.0371 76.4688 30.3496 76.4102 30.6426H78.3096V29.0898H79.2373ZM73.4072 36.0723C73.4072 35.0127 74.5596 34.3682 76.3564 34.3633C78.1289 34.3682 79.291 35.0127 79.2959 36.0723C79.291 37.1367 78.1289 37.791 76.3564 37.791C74.5596 37.791 73.4072 37.1367 73.4072 36.0723ZM74.3252 36.0723C74.3252 36.6875 75.1064 37.0439 76.3564 37.0488C77.582 37.0439 78.3633 36.6875 78.3682 36.0723C78.3633 35.4473 77.582 35.0908 76.3564 35.0957C75.1064 35.0908 74.3252 35.4473 74.3252 36.0723ZM87.6748 33.1133V33.8555H85.0283V35.9941H88.5928V36.7559H80.585V35.9941H84.1104V33.8555H81.5811V29.7539H87.5967V30.5059H82.5088V33.1133H87.6748ZM92.2158 37L95.3701 30.9062V30.8477H91.7275V29.9297H96.4834V30.8867L93.3389 37H92.2158ZM99.8721 37.0977C98.5342 37.0977 97.5283 36.2822 97.4795 35.1543H98.5244C98.583 35.7549 99.1592 36.1943 99.8721 36.1992C100.731 36.1943 101.347 35.5742 101.347 34.7344C101.347 33.875 100.712 33.25 99.8232 33.2402C99.2568 33.2402 98.8223 33.4307 98.583 33.8652H97.5674L98.0264 29.9297H102.03V30.8477H98.915L98.6807 32.8301H98.749C99.042 32.5469 99.54 32.3564 100.077 32.3516C101.41 32.3564 102.392 33.3428 102.392 34.7051C102.392 36.0967 101.347 37.0977 99.8721 37.0977ZM103.974 37.0684C103.593 37.0635 103.275 36.7559 103.28 36.375C103.275 35.9941 103.593 35.6816 103.974 35.6816C104.35 35.6816 104.662 35.9941 104.667 36.375C104.662 36.7559 104.35 37.0635 103.974 37.0684ZM108.261 29.832C109.56 29.8418 110.922 30.623 110.927 33.2109C110.927 35.6914 109.857 37.0977 108.163 37.0977C106.859 37.0977 105.951 36.292 105.78 35.1445H106.845C106.991 35.7402 107.45 36.1553 108.163 36.1602C109.252 36.1553 109.892 35.208 109.901 33.5918H109.813C109.433 34.1875 108.769 34.5488 108.007 34.5488C106.737 34.5488 105.722 33.5771 105.722 32.2246C105.722 30.877 106.723 29.8223 108.261 29.832ZM106.767 32.2051C106.771 33.0254 107.382 33.6748 108.241 33.6699C109.096 33.6748 109.755 32.9766 109.755 32.1953C109.755 31.4287 109.125 30.7305 108.261 30.7305C107.406 30.7305 106.762 31.3945 106.767 32.2051ZM113.681 33.2891C112.714 33.2988 112.187 32.5811 112.196 31.5312C112.187 30.4961 112.738 29.7783 113.681 29.7832C114.652 29.7783 115.16 30.4961 115.165 31.5312C115.16 32.5859 114.633 33.2988 113.681 33.2891ZM112.997 37L117.851 29.9297H118.739L113.886 37H112.997ZM112.997 31.5312C113.002 32.1807 113.227 32.6006 113.681 32.6055C114.14 32.6006 114.354 32.1807 114.354 31.5312C114.354 30.8965 114.154 30.4619 113.681 30.4668C113.227 30.4766 113.002 30.9014 112.997 31.5312ZM116.659 35.3887C116.654 34.3438 117.201 33.626 118.144 33.6309C119.11 33.626 119.623 34.3438 119.628 35.3887C119.623 36.4336 119.096 37.1465 118.144 37.1465C117.182 37.1465 116.654 36.4287 116.659 35.3887ZM117.46 35.3887C117.465 36.0283 117.689 36.4531 118.144 36.4531C118.603 36.4531 118.817 36.0283 118.817 35.3887C118.817 34.7441 118.617 34.3145 118.144 34.3145C117.694 34.3242 117.465 34.749 117.46 35.3887Z" fill="#113287"/>
</g>
<path d="M-1399 -1220H1914V-1222H-1399V-1220ZM1915 -1219V751H1917V-1219H1915ZM1914 752H-1399V754H1914V752ZM-1400 751V-1219H-1402V751H-1400ZM-1399 752C-1399.55 752 -1400 751.552 -1400 751H-1402C-1402 752.657 -1400.66 754 -1399 754V752ZM1915 751C1915 751.552 1914.55 752 1914 752V754C1915.66 754 1917 752.657 1917 751H1915ZM1914 -1220C1914.55 -1220 1915 -1219.55 1915 -1219H1917C1917 -1220.66 1915.66 -1222 1914 -1222V-1220ZM-1399 -1222C-1400.66 -1222 -1402 -1220.66 -1402 -1219H-1400C-1400 -1219.55 -1399.55 -1220 -1399 -1220V-1222Z" fill="black" fill-opacity="0.1"/>
<defs>
<clipPath id="clip0_1814_2379">
<rect width="727" height="90" fill="white"/>
</clipPath>
</defs>
</svg>
