<?xml version="1.0" encoding="UTF-8"?>
<svg width="727px" height="90px" viewBox="0 0 727 90" version="1.1" xmlns="http://www.w3.org/2000/svg" xmlns:xlink="http://www.w3.org/1999/xlink">
    <title>astigmatism</title>
    <g id="astigmatism" stroke="none" stroke-width="1" fill="none" fill-rule="evenodd">
        <g id="Group" transform="translate(0.000000, -0.000000)">
            <g id="AGE_70_79" transform="translate(0.000000, 0.601413)">
                <path d="M21.7090669,82.7083781 L21.0910173,82.7083781 L21.0910173,85.9707628 L21.6464809,85.9707628 C22.6987274,85.9707628 23.7547791,85.9042714 24.9321977,85.6578327 L24.8618009,85.1492335 C23.7274415,85.3839562 22.7026327,85.4465422 21.7090669,85.4465422 L21.7090669,82.7083781 Z M21.8654819,89.0061355 L26.4420732,89.0061355 L26.4420732,88.4898257 L22.4757208,88.4898257 L22.4757208,86.7374167 L21.8654819,86.7374167 L21.8654819,89.0061355 Z M25.5815904,87.2302943 L26.1917291,87.2302943 L26.1917291,84.8050604 L27.2400702,84.8050604 L27.2400702,84.273029 L26.1917291,84.273029 L26.1917291,82.2076898 L25.5815904,82.2076898 L25.5815904,87.2302943 Z" id="Shape" fill="#001A5B" fill-rule="nonzero"></path>
                <path d="M32.1609348,84.0696494 L32.1609348,82.8023072 L31.5506959,82.8023072 L31.5506959,84.0696494 C31.5428852,85.3878615 30.6862076,86.7178899 29.6496827,87.1911405 L30.0408204,87.7074502 C30.8544388,87.2967857 31.5389798,86.4166758 31.8597208,85.3683347 C32.1921778,86.3579952 32.8767188,87.1833297 33.6708104,87.5666567 L34.0463266,87.0815899 C33.0214177,86.61615 32.1570295,85.3409971 32.1609348,84.0696494 Z M34.8051698,89.1704614 L35.4232194,89.1704614 L35.4232194,82.1998791 L34.8051698,82.1998791 L34.8051698,89.1704614 Z" id="Shape" fill="#001A5B" fill-rule="nonzero"></path>
                <path d="M2.34111227,76.444968 C3.81529879,76.444968 4.67781447,75.2567345 4.68222053,73.1708671 C4.67781447,71.0982179 3.80210065,69.8968665 2.34111227,69.8968665 C0.875717827,69.8968665 -1.73433206e-14,71.0982179 -1.73433206e-14,73.1708671 C-1.73433206e-14,75.2567345 0.866915727,76.444968 2.34111227,76.444968 Z M0.968124857,73.1708671 C0.968124857,71.5866894 1.48299263,70.7197977 2.34111227,70.7153917 C3.19482585,70.7197977 3.71408967,71.5866894 3.71408967,73.1708671 C3.71408967,74.7595511 3.19922189,75.6088185 2.34111227,75.6088185 C1.47859659,75.6088185 0.963728814,74.7595511 0.968124857,73.1708671 Z" id="Shape" fill="#001A5B" fill-rule="nonzero"></path>
                <path d="M7.84183397,76.356947 C9.78247172,76.356947 10.9002082,75.1511894 10.9046143,73.162055 C10.9002082,71.1774268 9.78247172,69.9848875 7.90343866,69.9848875 L5.77356077,69.9848875 L5.77356077,76.356947 L7.84183397,76.356947 Z M6.74169163,75.5119854 L6.74169163,70.8297489 L7.84183397,70.8297489 C9.23241557,70.8297489 9.94529555,71.6614922 9.94529555,73.162055 C9.94529555,74.667124 9.23241557,75.5075794 7.78903138,75.5119854 L6.74169163,75.5119854 Z" id="Shape" fill="#001A5B" fill-rule="nonzero"></path>
                <polygon id="Path" fill="#001A5B" fill-rule="nonzero" points="183.552148 69.9848875 182.601842 69.9848875 181.017664 71.0234151 181.017664 71.9475855 182.540758 70.9530183 182.575806 70.9530183 182.575806 76.356947 183.552148 76.356947"></polygon>
                <path d="M187.32834,76.356947 C189.269007,76.356947 190.386544,75.1511894 190.39155,73.162055 C190.386544,71.1774268 189.269007,69.9848875 187.390425,69.9848875 L185.260497,69.9848875 L185.260497,76.356947 L187.32834,76.356947 Z M186.227827,75.5119854 L186.227827,70.8297489 L187.32834,70.8297489 C188.719252,70.8297489 189.432232,71.6614922 189.432232,73.162055 C189.432232,74.667124 188.719252,75.5075794 187.275267,75.5119854 L186.227827,75.5119854 Z" id="Shape" fill="#001A5B" fill-rule="nonzero"></path>
                <path d="M360.719696,76.356947 L365.006589,76.356947 L365.006589,75.5296096 L362.066548,75.5296096 L362.066548,75.4768371 L363.360326,74.1654343 C364.556971,72.9905192 364.891431,72.4228388 364.900443,71.7098587 C364.891431,70.6757371 364.042264,69.8968665 362.814576,69.8968665 C361.599906,69.8968665 360.711685,70.666925 360.719696,71.8331282 L361.634954,71.8331282 C361.639961,71.1553965 362.088578,70.7065795 362.797553,70.7065795 C363.466472,70.7065795 363.976173,71.10703 363.976173,71.7362951 C363.976173,72.2951633 363.628695,72.7000199 362.928733,73.426118 L360.719696,75.652779 L360.719696,76.356947 Z" id="Path" fill="#001A5B" fill-rule="nonzero"></path>
                <path d="M368.236029,76.356947 C370.176697,76.356947 371.294233,75.1511894 371.29924,73.162055 C371.294233,71.1774268 370.176697,69.9848875 368.298114,69.9848875 L366.168186,69.9848875 L366.168186,76.356947 L368.236029,76.356947 Z M367.136517,75.5119854 L367.136517,70.8297489 L368.236029,70.8297489 C369.626941,70.8297489 370.339921,71.6614922 370.339921,73.162055 C370.339921,74.667124 369.626941,75.5075794 368.182956,75.5119854 L367.136517,75.5119854 Z" id="Shape" fill="#001A5B" fill-rule="nonzero"></path>
                <path d="M543.097406,76.444968 C544.418222,76.444968 545.399571,75.6659971 545.394601,74.6054392 C545.399571,73.8001322 544.892874,73.2149277 544.021677,73.0916583 L544.021677,73.0476978 C544.708621,72.8760619 545.157238,72.356748 545.148225,71.6306498 C545.157238,70.6889553 544.369155,69.8968665 543.115431,69.8968665 C541.926797,69.8968665 540.967478,70.6009343 540.941443,71.639462 L541.874725,71.639462 C541.896756,71.0630696 542.468542,70.7065795 543.106419,70.7065795 C543.779344,70.7065795 544.214943,71.102624 544.214943,71.6835225 C544.214943,72.2951633 543.709247,72.7000199 542.983249,72.6956138 L542.437499,72.6956138 L542.437499,73.4877027 L542.983249,73.4877027 C543.894502,73.4921087 544.418222,73.9410259 544.418222,74.5702909 C544.418222,75.1907438 543.859454,75.6088185 543.088394,75.6088185 C542.376415,75.6088185 541.821653,75.2523285 541.786604,74.6934602 L540.800248,74.6934602 C540.840303,75.7363939 541.777592,76.444968 543.097406,76.444968 Z" id="Path" fill="#001A5B" fill-rule="nonzero"></path>
                <path d="M548.615993,76.356947 C550.55666,76.356947 551.674197,75.1511894 551.679203,73.162055 C551.674197,71.1774268 550.55666,69.9848875 548.678078,69.9848875 L546.54815,69.9848875 L546.54815,76.356947 L548.615993,76.356947 Z M547.51548,75.5119854 L547.51548,70.8297489 L548.615993,70.8297489 C550.006905,70.8297489 550.719885,71.6614922 550.719885,73.162055 C550.719885,74.667124 550.006905,75.5075794 548.56292,75.5119854 L547.51548,75.5119854 Z" id="Shape" fill="#001A5B" fill-rule="nonzero"></path>
                <polygon id="Path" fill="#979797" points="95.0755219 48.8259007 95.0755219 15.2631629 96.0768985 15.2631629 96.0768985 48.8259007"></polygon>
                <polygon id="Path" fill="#979797" points="275.323304 48.8259007 275.323304 15.2631629 276.324681 15.2631629 276.324681 48.8259007"></polygon>
                <polygon id="Path" fill="#979797" points="455.571086 48.8259007 455.571086 15.2631629 456.572463 15.2631629 456.572463 48.8259007"></polygon>
                <polygon id="Path" fill="#979797" points="635.818868 48.8259007 635.818868 15.2631629 636.820245 15.2631629 636.820245 48.8259007"></polygon>
                <polygon id="Path" fill="#979797" points="456.572463 37.3032608 456.572463 16.2743529 455.571086 16.2743529 455.571086 37.3032608"></polygon>
                <polygon id="Path" fill="#979797" points="636.820245 37.3032608 636.820245 16.2743529 635.818868 16.2743529 635.818868 37.3032608"></polygon>
                <rect id="Rectangle" fill="#001A5B" fill-rule="nonzero" x="546.195665" y="20.2798592" width="173.238146" height="24.0330376"></rect>
                <path d="M615.643133,35.1029361 L612.083239,35.1029361 L612.083239,33.1960147 L611.163976,33.1960147 L611.163976,35.1029361 L607.624109,35.1029361 L607.624109,35.8656846 L615.643133,35.8656846 L615.643133,35.1029361 Z M608.014646,32.7755367 L608.367131,33.4991314 C609.834148,33.2694156 611.051821,32.5750611 611.618601,31.5531563 C612.190387,32.5750611 613.413067,33.2694156 614.880084,33.4991314 L615.231567,32.7755367 C613.433095,32.5114737 612.137314,31.4944757 612.093253,30.2622818 L614.89911,30.2622818 L614.89911,29.5093468 L612.083239,29.5093468 L612.083239,28.3358336 L611.163976,28.3358336 L611.163976,29.5093468 L608.347103,29.5093468 L608.347103,30.2622818 L611.153962,30.2622818 C611.109901,31.4944757 609.81412,32.5114737 608.014646,32.7755367 Z" id="Shape" fill="#FFFFFF" fill-rule="nonzero"></path>
                <path d="M623.367752,29.0203746 L617.119162,29.0203746 L617.119162,29.7733096 L622.439476,29.7733096 L622.439476,29.8809576 C622.434469,30.9322027 622.434469,32.1741099 622.097005,33.8707423 L623.035295,33.9685767 C623.363746,32.1741099 623.363746,30.9615431 623.367752,29.8809576 L623.367752,29.0203746 Z M616.278006,35.7581368 L624.267989,35.7581368 L624.267989,34.9855748 L620.23845,34.9855748 L620.23845,31.8954268 L619.319186,31.8954268 L619.319186,34.9855748 L616.278006,34.9855748 L616.278006,35.7581368 Z" id="Shape" fill="#FFFFFF" fill-rule="nonzero"></path>
                <polygon id="Path" fill="#FFFFFF" fill-rule="nonzero" points="632.032663 32.2180704 626.859552 32.2180704 626.859552 29.6070811 631.954556 29.6070811 631.954556 28.8541461 625.930275 28.8541461 625.930275 32.9612921 628.462756 32.9612921 628.462756 35.1029361 624.932903 35.1029361 624.932903 35.8656846 632.951927 35.8656846 632.951927 35.1029361 629.38202 35.1029361 629.38202 32.9612921 632.032663 32.9612921"></polygon>
                <path d="M638.848032,36.2079552 C640.315049,36.2079552 641.405548,35.3425655 641.400574,34.1641456 C641.405548,33.2694156 640.843776,32.6190215 639.875445,32.4821334 L639.875445,32.4332662 C640.637492,32.2426041 641.137179,31.6656109 641.127165,30.8588018 C641.137179,29.8124634 640.261976,28.9323536 638.86806,28.9323536 C637.548245,28.9323536 636.481779,29.7146289 636.452739,30.8686153 L637.489164,30.8686153 C637.513197,30.2280347 638.149071,29.8319903 638.858046,29.8319903 C639.606074,29.8319903 640.090741,30.2720953 640.090741,30.9174825 C640.090741,31.5971168 639.527967,32.0469351 638.720857,32.0421285 L638.115025,32.0421285 L638.115025,32.9222384 L638.720857,32.9222384 C639.733249,32.9271451 640.315049,33.4258306 640.315049,34.1249918 C640.315049,34.8144395 639.694195,35.2789781 638.83902,35.2789781 C638.046931,35.2789781 637.430083,34.8829337 637.391029,34.2619801 L636.296525,34.2619801 C636.340585,35.420773 637.382017,36.2079552 638.848032,36.2079552 Z" id="Path" fill="#FFFFFF" fill-rule="nonzero"></path>
                <path d="M643.062826,36.1786148 C643.439344,36.1737081 643.752775,35.8656846 643.757782,35.4843605 C643.752775,35.1029361 643.439344,34.7900059 643.062826,34.7900059 C642.682303,34.7900059 642.363865,35.1029361 642.368872,35.4843605 C642.363865,35.8656846 642.682303,36.1737081 643.062826,36.1786148 Z" id="Path" fill="#FFFFFF" fill-rule="nonzero"></path>
                <polygon id="Path" fill="#FFFFFF" fill-rule="nonzero" points="645.067582 36.1102208 646.192128 36.1102208 649.341457 29.9885054 649.341457 29.0301881 644.57891 29.0301881 644.57891 29.9493516 648.226925 29.9493516 648.226925 30.0080323"></polygon>
                <path d="M652.050181,32.3941124 C653.003491,32.4039259 653.531217,31.6900445 653.536224,30.6338926 C653.531217,29.5973678 653.023519,28.8785797 652.050181,28.8834614 C651.106884,28.8785797 650.554124,29.5973678 650.564138,30.6338926 C650.554124,31.6851378 651.08185,32.4039259 652.050181,32.3941124 Z M651.365239,36.1102208 L652.255463,36.1102208 L657.116145,29.0301881 L656.225921,29.0301881 L651.365239,36.1102208 Z M651.365239,30.6338926 C651.370246,30.0031255 651.595556,29.5777408 652.050181,29.5680274 C652.524833,29.5631207 652.725109,29.9982188 652.725109,30.6338926 C652.725109,31.2841866 652.509813,31.7047647 652.050181,31.7095713 C651.595556,31.7047647 651.370246,31.2841866 651.365239,30.6338926 Z M655.033282,34.4966026 C655.028275,35.5381344 655.556,36.2568223 656.519325,36.2568223 C657.472635,36.2568223 658.00036,35.5430411 658.005367,34.4966026 C658.00036,33.4502642 657.487656,32.7314761 656.519325,32.7363579 C655.575026,32.7314761 655.028275,33.4502642 655.033282,34.4966026 Z M655.834383,34.4966026 C655.83939,33.8561222 656.069706,33.4307374 656.519325,33.4209239 C656.993977,33.4209239 657.194252,33.8512154 657.194252,34.4966026 C657.194252,35.1371832 656.978956,35.562568 656.519325,35.562568 C656.0647,35.562568 655.83939,35.1371832 655.834383,34.4966026 Z" id="Shape" fill="#FFFFFF" fill-rule="nonzero"></path>
                <rect id="Rectangle" fill="#113287" fill-rule="nonzero" x="365.947883" y="20.2798592" width="180.247782" height="24.0330376"></rect>
                <path d="M441.007065,28.7612183 L434.758475,28.7612183 L434.758475,29.5142535 L440.077788,29.5142535 L440.077788,29.6218013 C440.072781,30.6730465 440.072781,31.9149537 439.736318,33.611586 L440.674608,33.7094205 C441.002058,31.9149537 441.002058,30.7023868 441.007065,29.6218013 L441.007065,28.7612183 Z M433.917319,35.4989806 L441.906301,35.4989806 L441.906301,34.7264185 L437.877763,34.7264185 L437.877763,31.6362706 L436.9585,31.6362706 L436.9585,34.7264185 L433.917319,34.7264185 L433.917319,35.4989806 Z" id="Shape" fill="#FFFFFF" fill-rule="nonzero"></path>
                <polygon id="Path" fill="#FFFFFF" fill-rule="nonzero" points="449.670975 31.9590142 444.497864 31.9590142 444.497864 29.3479248 449.592868 29.3479248 449.592868 28.5949898 443.569588 28.5949898 443.569588 32.7021358 446.102069 32.7021358 446.102069 34.8437799 442.572217 34.8437799 442.572217 35.6065284 450.590239 35.6065284 450.590239 34.8437799 447.021333 34.8437799 447.021333 32.7021358 449.670975 32.7021358"></polygon>
                <polygon id="Path" fill="#FFFFFF" fill-rule="nonzero" points="456.663588 28.7710318 455.607136 28.7710318 453.846716 29.924918 453.846716 30.9517296 455.539042 29.8467105 455.578096 29.8467105 455.578096 35.8510646 456.663588 35.8510646"></polygon>
                <path d="M460.927449,35.9487989 C462.5647,35.9487989 463.523017,34.6286842 463.528024,32.3109981 C463.523017,30.0080323 462.550681,28.6731973 460.927449,28.6731973 C459.299211,28.6731973 458.325873,30.0080323 458.325873,32.3109981 C458.325873,34.6286842 459.289197,35.9487989 460.927449,35.9487989 Z M459.401351,32.3109981 C459.401351,30.5507784 459.973137,29.5875543 460.927449,29.5826475 C461.875753,29.5875543 462.452546,30.5507784 462.452546,32.3109981 C462.452546,34.0761246 461.88076,35.0198219 460.927449,35.0198219 C459.969132,35.0198219 459.396345,34.0761246 459.401351,32.3109981 Z" id="Shape" fill="#FFFFFF" fill-rule="nonzero"></path>
                <path d="M465.073148,35.9194586 C465.449666,35.914652 465.763097,35.6065284 465.768104,35.2252042 C465.763097,34.8437799 465.449666,34.5308497 465.073148,34.5308497 C464.691624,34.5308497 464.374187,34.8437799 464.379194,35.2252042 C464.374187,35.6065284 464.691624,35.914652 465.073148,35.9194586 Z" id="Path" fill="#FFFFFF" fill-rule="nonzero"></path>
                <polygon id="Path" fill="#FFFFFF" fill-rule="nonzero" points="468.848338 28.7710318 467.791886 28.7710318 466.031466 29.924918 466.031466 30.9517296 467.723792 29.8467105 467.762846 29.8467105 467.762846 35.8510646 468.848338 35.8510646"></polygon>
                <path d="M472.271043,32.1349561 C473.224354,32.1447696 473.752079,31.4308882 473.757086,30.3747364 C473.752079,29.3382115 473.24338,28.6194234 472.271043,28.6243052 C471.326745,28.6194234 470.774986,29.3382115 470.783999,30.3747364 C470.774986,31.4259815 471.302712,32.1447696 472.271043,32.1349561 Z M471.586101,35.8510646 L472.476325,35.8510646 L477.336006,28.7710318 L476.446783,28.7710318 L471.586101,35.8510646 Z M471.586101,30.3747364 C471.591108,29.7439693 471.816418,29.3185845 472.271043,29.3088712 C472.744694,29.3039644 472.945971,29.7391627 472.945971,30.3747364 C472.945971,31.0250303 472.730675,31.4456085 472.271043,31.4504151 C471.816418,31.4456085 471.591108,31.0250303 471.586101,30.3747364 Z M475.253142,34.2374464 C475.248136,35.2789781 475.776862,35.9977662 476.740187,35.9977662 C477.693497,35.9977662 478.221223,35.2838849 478.22623,34.2374464 C478.221223,33.191108 477.707516,32.47242 476.740187,32.4772027 C475.795889,32.47242 475.248136,33.191108 475.253142,34.2374464 Z M476.055245,34.2374464 C476.060252,33.5969659 476.289567,33.1715811 476.740187,33.1617676 C477.213838,33.1617676 477.414113,33.5920592 477.414113,34.2374464 C477.414113,34.8780269 477.199819,35.3034117 476.740187,35.3034117 C476.285562,35.3034117 476.060252,34.8780269 476.055245,34.2374464 Z" id="Shape" fill="#FFFFFF" fill-rule="nonzero"></path>
                <rect id="Rectangle" fill="#5B6EB4" fill-rule="nonzero" x="185.700101" y="20.2798592" width="180.247782" height="24.0330376"></rect>
                <path d="M259.55663,31.7829722 L251.566646,31.7829722 L251.566646,32.5359073 L255.0975,32.5359073 L255.0975,33.3769635 C253.469262,33.4600777 252.515951,34.0028238 252.515951,34.9219874 C252.515951,35.914652 253.64951,36.4720182 255.557132,36.4671435 C257.43972,36.4720182 258.573278,35.914652 258.578285,34.9219874 C258.573278,34.0028238 257.619968,33.4649845 256.016764,33.3769635 L256.016764,32.5359073 L259.55663,32.5359073 L259.55663,31.7829722 Z M251.987224,30.5899322 L252.310669,31.3233404 C253.830759,31.1472984 255.077473,30.506818 255.562139,29.5777408 C256.03579,30.506818 257.292518,31.1472984 258.813609,31.3233404 L259.146066,30.5899322 C257.54186,30.4285103 256.310167,29.7195357 256.182992,28.8687662 L258.842648,28.8687662 L258.842648,28.1255445 L252.300655,28.1255445 L252.300655,28.8687662 L254.931272,28.8687662 C254.804097,29.7146289 253.56239,30.4285103 251.987224,30.5899322 Z M253.454217,34.9219874 C253.449234,34.3792413 254.21729,34.0859381 255.557132,34.0810313 C256.876946,34.0859381 257.650009,34.3792413 257.650009,34.9219874 C257.650009,35.4550201 256.876946,35.7630436 255.557132,35.7532301 C254.21729,35.7630436 253.449234,35.4550201 253.454217,34.9219874 Z" id="Shape" fill="#FFFFFF" fill-rule="nonzero"></path>
                <polygon id="Path" fill="#FFFFFF" fill-rule="nonzero" points="267.321304 31.7633453 262.148192 31.7633453 262.148192 29.152356 267.243196 29.152356 267.243196 28.399421 261.218915 28.399421 261.218915 32.506567 263.751396 32.506567 263.751396 34.648211 260.221544 34.648211 260.221544 35.4109596 268.240568 35.4109596 268.240568 34.648211 264.67066 34.648211 264.67066 32.506567 267.321304 32.506567"></polygon>
                <path d="M274.136673,35.7532301 C275.603689,35.7532301 276.694189,34.8878404 276.689215,33.7094205 C276.694189,32.8146905 276.132416,32.1642964 275.164085,32.0274083 L275.164085,31.9785411 C275.927134,31.787879 276.42582,31.2108858 276.415806,30.4040767 C276.42582,29.3577383 275.550616,28.4776285 274.1567,28.4776285 C272.836886,28.4776285 271.77042,29.2599038 271.74138,30.4138902 L272.777805,30.4138902 C272.801838,29.7733096 273.437712,29.3772652 274.146687,29.3772652 C274.894715,29.3772652 275.379381,29.8173702 275.379381,30.4627574 C275.379381,31.1423917 274.816607,31.59221 274.009498,31.5874034 L273.403665,31.5874034 L273.403665,32.4675133 L274.009498,32.4675133 C275.02189,32.47242 275.603689,32.9711055 275.603689,33.6702667 C275.603689,34.3597144 274.982836,34.824253 274.12766,34.824253 C273.335571,34.824253 272.718724,34.4282086 272.67967,33.807255 L271.585165,33.807255 C271.629226,34.9660479 272.670657,35.7532301 274.136673,35.7532301 Z" id="Path" fill="#FFFFFF" fill-rule="nonzero"></path>
                <path d="M280.386264,35.7532301 C281.853281,35.7532301 282.942778,34.8878404 282.937805,33.7094205 C282.942778,32.8146905 282.381006,32.1642964 281.412675,32.0274083 L281.412675,31.9785411 C282.175724,31.787879 282.674409,31.2108858 282.664396,30.4040767 C282.674409,29.3577383 281.799206,28.4776285 280.40529,28.4776285 C279.085476,28.4776285 278.01901,29.2599038 277.98997,30.4138902 L279.026395,30.4138902 C279.051429,29.7733096 279.686302,29.3772652 280.395276,29.3772652 C281.143305,29.3772652 281.627971,29.8173702 281.627971,30.4627574 C281.627971,31.1423917 281.065197,31.59221 280.259089,31.5874034 L279.652255,31.5874034 L279.652255,32.4675133 L280.259089,32.4675133 C281.270479,32.47242 281.853281,32.9711055 281.853281,33.6702667 C281.853281,34.3597144 281.231426,34.824253 280.37625,34.824253 C279.584161,34.824253 278.968315,34.4282086 278.929261,33.807255 L277.833755,33.807255 C277.877816,34.9660479 278.919247,35.7532301 280.386264,35.7532301 Z" id="Path" fill="#FFFFFF" fill-rule="nonzero"></path>
                <path d="M284.601058,35.7238897 C284.977575,35.718983 285.290005,35.4109596 285.295012,35.0296354 C285.290005,34.648211 284.977575,34.3352808 284.601058,34.3352808 C284.219533,34.3352808 283.901096,34.648211 283.906103,35.0296354 C283.901096,35.4109596 284.219533,35.718983 284.601058,35.7238897 Z" id="Path" fill="#FFFFFF" fill-rule="nonzero"></path>
                <path d="M288.834878,35.7532301 C290.311908,35.7532301 291.358347,34.7508521 291.358347,33.3573365 C291.358347,31.9931612 290.374995,31.0055035 289.04016,31.0005967 C288.502421,31.0055035 288.003735,31.1961656 287.710332,31.4797554 L287.642239,31.4797554 L287.876561,29.4946265 L290.995849,29.4946265 L290.995849,28.575463 L286.986337,28.575463 L286.526705,32.5163804 L287.544104,32.5163804 C287.783433,32.0811822 288.219031,31.8905201 288.785811,31.8905201 C289.676034,31.9003336 290.311908,32.5261939 290.311908,33.3866768 C290.311908,34.227733 289.696062,34.8486866 288.834878,34.8535934 C288.120897,34.8486866 287.544104,34.4085816 287.486024,33.807255 L286.439585,33.807255 C286.487651,34.9367076 287.495036,35.7532301 288.834878,35.7532301 Z" id="Path" fill="#FFFFFF" fill-rule="nonzero"></path>
                <path d="M294.12515,31.9393873 C295.079462,31.9492008 295.607188,31.2353194 295.612195,30.1791675 C295.607188,29.1426427 295.098488,28.4238546 294.12515,28.4287363 C293.181854,28.4238546 292.629094,29.1426427 292.639108,30.1791675 C292.629094,31.2304127 293.157821,31.9492008 294.12515,31.9393873 Z M293.44121,35.6554957 L294.330433,35.6554957 L299.191114,28.575463 L298.300891,28.575463 L293.44121,35.6554957 Z M293.44121,30.1791675 C293.446217,29.5484004 293.670525,29.1230157 294.12515,29.1133023 C294.599803,29.1083956 294.800078,29.5434937 294.800078,30.1791675 C294.800078,30.8294615 294.584782,31.2499395 294.12515,31.2548462 C293.670525,31.2499395 293.446217,30.8294615 293.44121,30.1791675 Z M297.108251,34.0418775 C297.103244,35.0834093 297.63097,35.8020972 298.594294,35.8020972 C299.547605,35.8020972 300.076331,35.088316 300.081338,34.0418775 C300.076331,32.9955391 299.562625,32.276751 298.594294,32.2816328 C297.650997,32.276751 297.103244,32.9955391 297.108251,34.0418775 Z M297.910354,34.0418775 C297.915361,33.4013971 298.144676,32.9760123 298.594294,32.9661988 C299.068947,32.9661988 299.269222,33.3964903 299.269222,34.0418775 C299.269222,34.6824581 299.053926,35.1078429 298.594294,35.1078429 C298.139669,35.1078429 297.915361,34.6824581 297.910354,34.0418775 Z" id="Shape" fill="#FFFFFF" fill-rule="nonzero"></path>
                <rect id="Rectangle" fill="#E2E6F6" fill-rule="nonzero" x="5.45231917" y="20.2798592" width="180.247782" height="24.0330376"></rect>
                <path d="M79.8808342,27.9397891 L78.951757,27.9397891 L78.951757,29.4946265 L77.0497423,29.4946265 C77.108423,29.2013233 77.1426701,28.8883931 77.1426701,28.5656495 L73.1332584,28.5656495 L73.1332584,29.328398 L76.1353854,29.328398 C75.9691569,30.7414405 74.75659,31.856273 72.6834401,32.4478863 L73.0550509,33.1715811 C74.9521588,32.628835 76.267467,31.6362706 76.8346466,30.2280347 L78.951757,30.2280347 L78.951757,31.2940001 L76.7417189,31.2940001 L76.7417189,32.0567486 L78.951757,32.0567486 L78.951757,33.122714 L79.8808342,33.122714 L79.8808342,27.9397891 Z M74.0427086,34.9318009 C74.0427086,35.9977662 75.1965949,36.6529669 76.9959684,36.6529669 C78.7709084,36.6529669 79.9346081,35.9977662 79.9395148,34.9318009 C79.9346081,33.8707423 78.7709084,33.2253551 76.9959684,33.2204483 C75.1965949,33.2253551 74.0427086,33.8707423 74.0427086,34.9318009 Z M74.9619723,34.9318009 C74.9619723,34.3059405 75.7442477,33.9490499 76.9959684,33.9538565 C78.2232555,33.9490499 79.0055309,34.3059405 79.0104377,34.9318009 C79.0055309,35.5478477 78.2232555,35.9048385 76.9959684,35.9097452 C75.7442477,35.9048385 74.9619723,35.5478477 74.9619723,34.9318009 Z" id="Shape" fill="#113287" fill-rule="nonzero"></path>
                <polygon id="Path" fill="#113287" fill-rule="nonzero" points="88.3299489 31.9687276 83.1568376 31.9687276 83.1568376 29.3577383 88.2516413 29.3577383 88.2516413 28.6047032 82.2277604 28.6047032 82.2277604 32.7119493 84.7605422 32.7119493 84.7605422 34.8535934 81.2302892 34.8535934 81.2302892 35.6163419 89.2491125 35.6163419 89.2491125 34.8535934 85.6798059 34.8535934 85.6798059 32.7119493 88.3299489 32.7119493"></polygon>
                <path d="M95.0383708,35.9586124 C96.5150007,35.9586124 97.5613391,34.9562345 97.5613391,33.5627188 C97.5613391,32.1985435 96.5785881,31.2108858 95.2437532,31.2059791 C94.7059138,31.2108858 94.2071282,31.4015479 93.9137248,31.6851378 L93.8453308,31.6851378 L94.0800535,29.7000089 L97.1995418,29.7000089 L97.1995418,28.7807452 L93.1901301,28.7807452 L92.7304983,32.7217628 L93.7474963,32.7217628 C93.9871257,32.2865645 94.422324,32.0959024 94.9895037,32.0959024 C95.8793269,32.1056158 96.5150007,32.7314761 96.5150007,33.5920592 C96.5150007,34.4331153 95.8989539,35.0540689 95.0383708,35.0589757 C94.3244895,35.0540689 93.7474963,34.6139639 93.6888156,34.0125372 L92.6424773,34.0125372 C92.6913444,35.1420899 93.6986291,35.9586124 95.0383708,35.9586124 Z" id="Path" fill="#113287" fill-rule="nonzero"></path>
                <path d="M101.1699,35.9586124 C102.808152,35.9586124 103.766469,34.6383975 103.771476,32.3208116 C103.766469,30.0178458 102.793131,28.6830108 101.1699,28.6830108 C99.5416614,28.6830108 98.5686238,30.0178458 98.5686238,32.3208116 C98.5686238,34.6383975 99.5318479,35.9586124 101.1699,35.9586124 Z M99.6437809,32.3208116 C99.6437809,30.5605919 100.216589,29.5973678 101.1699,29.592461 C102.118203,29.5973678 102.694996,30.5605919 102.694996,32.3208116 C102.694996,34.0859381 102.12321,35.0296354 101.1699,35.0296354 C100.211582,35.0296354 99.6397963,34.0859381 99.6437809,32.3208116 Z" id="Shape" fill="#113287" fill-rule="nonzero"></path>
                <path d="M105.3166,35.9292721 C105.693118,35.9243653 106.005547,35.6163419 106.010554,35.2349175 C106.005547,34.8535934 105.693118,34.5406632 105.3166,34.5406632 C104.935076,34.5406632 104.616638,34.8535934 104.621645,35.2349175 C104.616638,35.6163419 104.935076,35.9243653 105.3166,35.9292721 Z" id="Path" fill="#113287" fill-rule="nonzero"></path>
                <polygon id="Path" fill="#113287" fill-rule="nonzero" points="109.090788 28.7807452 108.034336 28.7807452 106.274917 29.9347315 106.274917 30.9615431 107.966242 29.8564239 108.005296 29.8564239 108.005296 35.8607779 109.090788 35.8607779"></polygon>
                <path d="M112.513493,32.1447696 C113.466804,32.1545831 113.995531,31.4407017 113.999536,30.3845499 C113.995531,29.3479248 113.486831,28.6292369 112.513493,28.6340195 C111.570197,28.6292369 111.017437,29.3479248 111.027451,30.3845499 C111.017437,31.435795 111.545162,32.1545831 112.513493,32.1447696 Z M111.828552,35.8607779 L112.718776,35.8607779 L117.579458,28.7807452 L116.689234,28.7807452 L111.828552,35.8607779 Z M111.828552,30.3845499 C111.833559,29.7537828 112.058868,29.328398 112.513493,29.3185845 C112.988146,29.3137779 113.188421,29.748876 113.188421,30.3845499 C113.188421,31.0348438 112.973125,31.4553218 112.513493,31.4602286 C112.058868,31.4553218 111.833559,31.0348438 111.828552,30.3845499 Z M115.496594,34.2472598 C115.491587,35.2887916 116.019313,36.0074796 116.982637,36.0074796 C117.935948,36.0074796 118.463673,35.2935982 118.46868,34.2472598 C118.463673,33.2009215 117.950968,32.4821334 116.982637,32.4870151 C116.03934,32.4821334 115.491587,33.2009215 115.496594,34.2472598 Z M116.297696,34.2472598 C116.302702,33.6067794 116.533019,33.1813946 116.982637,33.1715811 C117.45729,33.1715811 117.657565,33.6018726 117.657565,34.2472598 C117.657565,34.8878404 117.442269,35.3132252 116.982637,35.3132252 C116.528012,35.3132252 116.302702,34.8878404 116.297696,34.2472598 Z" id="Shape" fill="#113287" fill-rule="nonzero"></path>
                <polygon id="Path" fill="#113287" points="4.4509426 64.3404282 4.4509426 0.25229983 6.45369573 0.25229983 6.45369573 64.3404282"></polygon>
                <polygon id="Path" fill="#979797" points="185.199413 64.0880813 185.199413 0 186.20079 0 186.20079 64.0880813"></polygon>
                <polygon id="Path" fill="#979797" points="365.447195 64.0880813 365.447195 0 366.448572 0 366.448572 64.0880813"></polygon>
                <polygon id="Path" fill="#979797" points="545.694977 64.0880813 545.694977 0 546.696354 0 546.696354 64.0880813"></polygon>
                <path d="M36.666829,70.3129384 L39.8532092,73.4993187 C40.0486779,73.6947874 40.0486779,74.0118232 39.8532092,74.207392 L36.666829,77.3937723 C36.4712601,77.589241 36.1542243,77.589241 35.9587556,77.3937723 C35.7631867,77.1982034 35.7631867,76.8811676 35.9587556,76.6855988 L38.2903608,74.3539936 L20.4729677,74.3539936 L20.4729677,73.352617 L38.2903608,73.352617 L35.9587556,71.0210118 C35.7631867,70.8254429 35.7631867,70.5084071 35.9587556,70.3129384 C36.1542243,70.1173696 36.4712601,70.1173696 36.666829,70.3129384 Z" id="Path" fill="#113287"></path>
                <polygon id="Path" fill="#001A5B" fill-rule="nonzero" points="719.889438 20.2798592 691.041782 20.2798592 691.041782 44.3128968 719.889438 44.3128968 727.444824 32.296378"></polygon>
            </g>
        </g>
    </g>
</svg>