<svg width="727" height="90" viewBox="0 0 727 90" fill="none" xmlns="http://www.w3.org/2000/svg">
<rect width="727" height="90" fill="#727272"/>
<path d="M-1401 -152C-1401 -153.105 -1400.1 -154 -1399 -154H1914C1915.1 -154 1916 -153.105 1916 -152V1818C1916 1819.1 1915.1 1820 1914 1820H-1399C-1400.1 1820 -1401 1819.1 -1401 1818V-152Z" fill="white"/>
<path d="M-1399 -153H1914V-155H-1399V-153ZM1915 -152V1818H1917V-152H1915ZM1914 1819H-1399V1821H1914V1819ZM-1400 1818V-152H-1402V1818H-1400ZM-1399 1819C-1399.55 1819 -1400 1818.55 -1400 1818H-1402C-1402 1819.66 -1400.66 1821 -1399 1821V1819ZM1915 1818C1915 1818.55 1914.55 1819 1914 1819V1821C1915.66 1821 1917 1819.66 1917 1818H1915ZM1914 -153C1914.55 -153 1915 -152.552 1915 -152H1917C1917 -153.657 1915.66 -155 1914 -155V-153ZM-1399 -155C-1400.66 -155 -1402 -153.657 -1402 -152H-1400C-1400 -152.552 -1399.55 -153 -1399 -153V-155Z" fill="black" fill-opacity="0.1"/>
<g clip-path="url(#clip0_1814_2379)">
<path d="M21.7091 83.1142H21.0911V86.3765H21.6465C22.6988 86.3765 23.7548 86.31 24.9322 86.0636L24.8618 85.5551C23.7275 85.7898 22.7027 85.8524 21.7091 85.8524V83.1142ZM21.8655 89.412H26.4421V88.8957H22.4758V87.1432H21.8655V89.412ZM25.5816 87.6361H26.1918V85.2109H27.2401V84.6789H26.1918V82.6135H25.5816V87.6361Z" fill="#001A5B"/>
<path d="M32.1609 84.4755V83.2081H31.5507V84.4755C31.5429 85.7937 30.6862 87.1236 29.6497 87.597L30.0408 88.1133C30.8544 87.7026 31.539 86.8225 31.8597 85.7742C32.1922 86.7638 32.8767 87.5892 33.6708 87.9725L34.0463 87.4874C33.0214 87.022 32.157 85.7467 32.1609 84.4755ZM34.8051 89.5763H35.4232V82.6057H34.8051V89.5763Z" fill="#001A5B"/>
<path d="M2.34111 76.8508C3.8153 76.8508 4.67781 75.6626 4.68222 73.5767C4.67781 71.5041 3.8021 70.3027 2.34111 70.3027C0.875718 70.3027 0 71.5041 0 73.5767C0 75.6626 0.866916 76.8508 2.34111 76.8508ZM0.968125 73.5767C0.968125 71.9926 1.48299 71.1257 2.34111 71.1213C3.19483 71.1257 3.71409 71.9926 3.71409 73.5767C3.71409 75.1653 3.19922 76.0147 2.34111 76.0147C1.4786 76.0147 0.963729 75.1653 0.968125 73.5767Z" fill="#001A5B"/>
<path d="M7.84183 76.7628C9.78247 76.7628 10.9002 75.5571 10.9046 73.5679C10.9002 71.5833 9.78247 70.3907 7.90344 70.3907H5.77356V76.7628H7.84183ZM6.74169 75.9178V71.2356H7.84183C9.23241 71.2356 9.94529 72.0674 9.94529 73.5679C9.94529 75.073 9.23241 75.9134 7.78903 75.9178H6.74169Z" fill="#001A5B"/>
<path d="M183.552 70.3907H182.602L181.018 71.4293V72.3533L182.541 71.3589H182.576V76.7628H183.552V70.3907Z" fill="#001A5B"/>
<path d="M187.328 76.7628C189.269 76.7628 190.387 75.5571 190.392 73.5679C190.387 71.5833 189.269 70.3907 187.39 70.3907H185.26V76.7628H187.328ZM186.228 75.9178V71.2356H187.328C188.719 71.2356 189.432 72.0674 189.432 73.5679C189.432 75.073 188.719 75.9134 187.275 75.9178H186.228Z" fill="#001A5B"/>
<path d="M360.72 76.7628H365.007V75.9355H362.067V75.8827L363.36 74.5713C364.557 73.3963 364.891 72.8286 364.9 72.1157C364.891 71.0816 364.042 70.3027 362.815 70.3027C361.6 70.3027 360.712 71.0728 360.72 72.239H361.635C361.64 71.5613 362.089 71.1124 362.798 71.1124C363.466 71.1124 363.976 71.5129 363.976 72.1422C363.976 72.701 363.629 73.1059 362.929 73.832L360.72 76.0586V76.7628Z" fill="#001A5B"/>
<path d="M368.236 76.7628C370.177 76.7628 371.294 75.5571 371.299 73.5679C371.294 71.5833 370.177 70.3907 368.298 70.3907H366.168V76.7628H368.236ZM367.137 75.9178V71.2356H368.236C369.627 71.2356 370.34 72.0674 370.34 73.5679C370.34 75.073 369.627 75.9134 368.183 75.9178H367.137Z" fill="#001A5B"/>
<path d="M543.097 76.8508C544.418 76.8508 545.4 76.0719 545.395 75.0113C545.4 74.206 544.893 73.6208 544.022 73.4975V73.4536C544.709 73.2819 545.157 72.7626 545.148 72.0365C545.157 71.0948 544.369 70.3027 543.115 70.3027C541.927 70.3027 540.968 71.0068 540.942 72.0453H541.875C541.897 71.4688 542.469 71.1124 543.107 71.1124C543.779 71.1124 544.215 71.5085 544.215 72.0894C544.215 72.701 543.709 73.1059 542.983 73.1015H542.438V73.8936H542.983C543.895 73.898 544.418 74.3469 544.418 74.9762C544.418 75.5966 543.859 76.0147 543.088 76.0147C542.376 76.0147 541.822 75.6582 541.787 75.0993H540.8C540.84 76.1423 541.778 76.8508 543.097 76.8508Z" fill="#001A5B"/>
<path d="M548.616 76.7628C550.557 76.7628 551.674 75.5571 551.679 73.5679C551.674 71.5833 550.557 70.3907 548.678 70.3907H546.548V76.7628H548.616ZM547.515 75.9178V71.2356H548.616C550.007 71.2356 550.72 72.0674 550.72 73.5679C550.72 75.073 550.007 75.9134 548.563 75.9178H547.515Z" fill="#001A5B"/>
<path fill-rule="evenodd" clip-rule="evenodd" d="M95.0756 49.2317V15.669H96.0769V49.2317H95.0756Z" fill="#979797"/>
<path fill-rule="evenodd" clip-rule="evenodd" d="M275.323 49.2317V15.669H276.325V49.2317H275.323Z" fill="#979797"/>
<path fill-rule="evenodd" clip-rule="evenodd" d="M455.571 49.2317V15.669H456.572V49.2317H455.571Z" fill="#979797"/>
<path fill-rule="evenodd" clip-rule="evenodd" d="M635.819 49.2317V15.669H636.82V49.2317H635.819Z" fill="#979797"/>
<path fill-rule="evenodd" clip-rule="evenodd" d="M456.572 37.7091V16.6802H455.571V37.7091H456.572Z" fill="#979797"/>
<path fill-rule="evenodd" clip-rule="evenodd" d="M636.82 37.7091V16.6802H635.819V37.7091H636.82Z" fill="#979797"/>
<path d="M719.434 20.6857H546.196V44.7187H719.434V20.6857Z" fill="#001A5B"/>
<path d="M546.196 20.6857H365.948V44.7187H546.196V20.6857Z" fill="#113287"/>
<path d="M365.948 20.6857H185.7V44.7187H365.948V20.6857Z" fill="#5B6EB4"/>
<path d="M185.7 20.6857H5.45227V44.7187H185.7V20.6857Z" fill="#E2E6F6"/>
<path fill-rule="evenodd" clip-rule="evenodd" d="M4.45093 64.7463V0.658142H6.45368V64.7463H4.45093Z" fill="#113287"/>
<path fill-rule="evenodd" clip-rule="evenodd" d="M185.199 64.4939V0.405823H186.201V64.4939H185.199Z" fill="#979797"/>
<path fill-rule="evenodd" clip-rule="evenodd" d="M365.447 64.4939V0.405823H366.449V64.4939H365.447Z" fill="#979797"/>
<path fill-rule="evenodd" clip-rule="evenodd" d="M545.695 64.4939V0.405823H546.696V64.4939H545.695Z" fill="#979797"/>
<path fill-rule="evenodd" clip-rule="evenodd" d="M36.6669 70.719L39.8533 73.9054C40.0487 74.1009 40.0487 74.4179 39.8533 74.6134L36.6669 77.7998C36.4713 77.9953 36.1543 77.9953 35.9588 77.7998C35.7632 77.6043 35.7632 77.2872 35.9588 77.0918L38.2904 74.7601H20.473V73.7588H38.2904L35.9588 71.4271C35.7632 71.2316 35.7632 70.9146 35.9588 70.719C36.1543 70.5235 36.4713 70.5235 36.6669 70.719Z" fill="#113287"/>
<path d="M719.889 20.6857H691.042V44.7187H719.889L727.445 32.7022L719.889 20.6857Z" fill="#001A5B"/>
<path d="M606.226 35.9941V36.7559H598.218V35.9941H601.753V34.0898H602.671V35.9941H606.226ZM598.608 33.6699C600.405 33.4062 601.699 32.3906 601.743 31.1602H598.94V30.4082H601.753V29.2363H602.671V30.4082H605.483V31.1602H602.681C602.725 32.3906 604.019 33.4062 605.815 33.6699L605.464 34.3926C603.999 34.1631 602.778 33.4697 602.207 32.4492C601.641 33.4697 600.425 34.1631 598.96 34.3926L598.608 33.6699ZM613.94 29.9199V30.7793C613.936 31.8584 613.936 33.0693 613.608 34.8613L612.671 34.7637C613.008 33.0693 613.008 31.8291 613.013 30.7793V30.6719H607.7V29.9199H613.94ZM606.86 36.6484V35.877H609.897V32.791H610.815V35.877H614.839V36.6484H606.86ZM622.593 33.1133V33.8555H619.946V35.9941H623.511V36.7559H615.503V35.9941H619.028V33.8555H616.499V29.7539H622.515V30.5059H617.427V33.1133H622.593ZM629.351 37.0977C627.715 37.0977 626.753 35.7793 626.753 33.4648C626.753 31.165 627.725 29.832 629.351 29.832C630.972 29.832 631.943 31.165 631.948 33.4648C631.943 35.7793 630.986 37.0977 629.351 37.0977ZM627.827 33.4648C627.822 35.2275 628.394 36.1699 629.351 36.1699C630.303 36.1699 630.874 35.2275 630.874 33.4648C630.874 31.707 630.298 30.7451 629.351 30.7402C628.398 30.7451 627.827 31.707 627.827 33.4648ZM633.491 37.0684C633.11 37.0635 632.793 36.7559 632.798 36.375C632.793 35.9941 633.11 35.6816 633.491 35.6816C633.867 35.6816 634.18 35.9941 634.185 36.375C634.18 36.7559 633.867 37.0635 633.491 37.0684ZM637.261 29.9297V37H636.177V31.0039H636.138L634.448 32.1074V31.082L636.206 29.9297H637.261ZM640.679 33.2891C639.712 33.2988 639.185 32.5811 639.194 31.5312C639.185 30.4961 639.736 29.7783 640.679 29.7832C641.65 29.7783 642.158 30.4961 642.163 31.5312C642.158 32.5859 641.631 33.2988 640.679 33.2891ZM639.995 37L644.849 29.9297H645.737L640.884 37H639.995ZM639.995 31.5312C640 32.1807 640.225 32.6006 640.679 32.6055C641.138 32.6006 641.353 32.1807 641.353 31.5312C641.353 30.8965 641.152 30.4619 640.679 30.4668C640.225 30.4766 640 30.9014 639.995 31.5312ZM643.657 35.3887C643.652 34.3438 644.199 33.626 645.142 33.6309C646.108 33.626 646.621 34.3438 646.626 35.3887C646.621 36.4336 646.094 37.1465 645.142 37.1465C644.18 37.1465 643.652 36.4287 643.657 35.3887ZM644.458 35.3887C644.463 36.0283 644.688 36.4531 645.142 36.4531C645.601 36.4531 645.815 36.0283 645.815 35.3887C645.815 34.7441 645.615 34.3145 645.142 34.3145C644.692 34.3242 644.463 34.749 644.458 35.3887ZM654.731 29.9199V35.6719H650.63V29.9199H654.731ZM651.548 34.9199H653.833V30.6523H651.548V34.9199ZM656.46 37.8496V29.0801H657.388V37.8496H656.46ZM663.218 29.8516V33.9336H659.126V29.8516H663.218ZM660.034 33.2012H662.31V30.6035H660.034V33.2012ZM660.112 37.6445V34.8711H661.04V36.8926H666.03V37.6445H660.112ZM664.731 35.4863V29.0703H665.659V31.6875H666.929V32.4688H665.659V35.4863H664.731Z" fill="white"/>
<path d="M442.733 29.9199V30.7793C442.729 31.8584 442.729 33.0693 442.401 34.8613L441.464 34.7637C441.801 33.0693 441.801 31.8291 441.806 30.7793V30.6719H436.493V29.9199H442.733ZM435.653 36.6484V35.877H438.69V32.791H439.608V35.877H443.632V36.6484H435.653ZM451.386 33.1133V33.8555H448.739V35.9941H452.304V36.7559H444.296V35.9941H447.821V33.8555H445.292V29.7539H451.308V30.5059H446.22V33.1133H451.386ZM458.368 29.9297V37H457.284V31.0039H457.245L455.556 32.1074V31.082L457.313 29.9297H458.368ZM460.458 37.0684C460.077 37.0635 459.76 36.7559 459.765 36.375C459.76 35.9941 460.077 35.6816 460.458 35.6816C460.834 35.6816 461.146 35.9941 461.151 36.375C461.146 36.7559 460.834 37.0635 460.458 37.0684ZM462.401 37V36.2188L464.853 33.748C465.629 32.9424 466.015 32.4932 466.015 31.873C466.015 31.1748 465.448 30.7305 464.706 30.7305C463.92 30.7305 463.422 31.2285 463.417 31.9805H462.401C462.392 30.6865 463.378 29.832 464.726 29.832C466.088 29.832 467.03 30.6963 467.04 31.8438C467.03 32.6348 466.659 33.2646 465.331 34.5684L463.896 36.0234V36.082H467.157V37H462.401ZM469.97 33.2891C469.003 33.2988 468.476 32.5811 468.485 31.5312C468.476 30.4961 469.027 29.7783 469.97 29.7832C470.941 29.7783 471.449 30.4961 471.454 31.5312C471.449 32.5859 470.922 33.2988 469.97 33.2891ZM469.286 37L474.14 29.9297H475.028L470.175 37H469.286ZM469.286 31.5312C469.291 32.1807 469.516 32.6006 469.97 32.6055C470.429 32.6006 470.644 32.1807 470.644 31.5312C470.644 30.8965 470.443 30.4619 469.97 30.4668C469.516 30.4766 469.291 30.9014 469.286 31.5312ZM472.948 35.3887C472.943 34.3438 473.49 33.626 474.433 33.6309C475.399 33.626 475.912 34.3438 475.917 35.3887C475.912 36.4336 475.385 37.1465 474.433 37.1465C473.471 37.1465 472.943 36.4287 472.948 35.3887ZM473.749 35.3887C473.754 36.0283 473.979 36.4531 474.433 36.4531C474.892 36.4531 475.106 36.0283 475.106 35.3887C475.106 34.7441 474.906 34.3145 474.433 34.3145C473.983 34.3242 473.754 34.749 473.749 35.3887Z" fill="white"/>
<path d="M262.987 33.1328V33.8848H259.452V34.7246C261.054 34.8125 262.006 35.3496 262.011 36.2676C262.006 37.2588 260.873 37.8154 258.993 37.8105C257.089 37.8154 255.956 37.2588 255.956 36.2676C255.956 35.3496 256.908 34.8076 258.534 34.7246V33.8848H255.009V33.1328H262.987ZM255.429 31.9414C257.001 31.7803 258.241 31.0674 258.368 30.2227H255.741V29.4805H262.274V30.2227H259.618C259.745 31.0723 260.976 31.7803 262.577 31.9414L262.245 32.6738C260.727 32.498 259.472 31.8584 258.998 30.9307C258.515 31.8584 257.27 32.498 255.751 32.6738L255.429 31.9414ZM256.894 36.2676C256.889 36.7998 257.655 37.1074 258.993 37.0977C260.312 37.1074 261.083 36.7998 261.083 36.2676C261.083 35.7256 260.312 35.4326 258.993 35.4277C257.655 35.4326 256.889 35.7256 256.894 36.2676ZM270.741 33.1133V33.8555H268.095V35.9941H271.659V36.7559H263.651V35.9941H267.177V33.8555H264.647V29.7539H270.663V30.5059H265.575V33.1133H270.741ZM277.597 37.0977C276.288 37.0879 274.921 36.3115 274.921 33.6992C274.926 31.2383 275.99 29.832 277.685 29.832C278.988 29.832 279.892 30.6426 280.058 31.7656H278.993C278.852 31.1895 278.397 30.7744 277.685 30.7695C276.591 30.7744 275.956 31.7217 275.956 33.3184H276.034C276.42 32.7178 277.084 32.3662 277.851 32.3613C279.11 32.3662 280.126 33.333 280.126 34.6855C280.126 36.0576 279.115 37.1074 277.597 37.0977ZM276.083 34.7148C276.088 35.501 276.718 36.1943 277.587 36.1992C278.441 36.1943 279.081 35.5303 279.081 34.7051C279.081 33.8945 278.466 33.2354 277.616 33.2402C276.752 33.2354 276.093 33.9287 276.083 34.7148ZM281.64 37.0684C281.259 37.0635 280.941 36.7559 280.946 36.375C280.941 35.9941 281.259 35.6816 281.64 35.6816C282.016 35.6816 282.328 35.9941 282.333 36.375C282.328 36.7559 282.016 37.0635 281.64 37.0684ZM283.642 37L286.796 30.9062V30.8477H283.153V29.9297H287.909V30.8867L284.765 37H283.642ZM290.614 33.2891C289.647 33.2988 289.12 32.5811 289.13 31.5312C289.12 30.4961 289.672 29.7783 290.614 29.7832C291.586 29.7783 292.094 30.4961 292.099 31.5312C292.094 32.5859 291.566 33.2988 290.614 33.2891ZM289.931 37L294.784 29.9297H295.673L290.819 37H289.931ZM289.931 31.5312C289.936 32.1807 290.16 32.6006 290.614 32.6055C291.073 32.6006 291.288 32.1807 291.288 31.5312C291.288 30.8965 291.088 30.4619 290.614 30.4668C290.16 30.4766 289.936 30.9014 289.931 31.5312ZM293.593 35.3887C293.588 34.3438 294.135 33.626 295.077 33.6309C296.044 33.626 296.557 34.3438 296.562 35.3887C296.557 36.4336 296.029 37.1465 295.077 37.1465C294.115 37.1465 293.588 36.4287 293.593 35.3887ZM294.394 35.3887C294.398 36.0283 294.623 36.4531 295.077 36.4531C295.536 36.4531 295.751 36.0283 295.751 35.3887C295.751 34.7441 295.551 34.3145 295.077 34.3145C294.628 34.3242 294.398 34.749 294.394 35.3887Z" fill="white"/>
<path d="M78.9199 29.0898V34.2656H77.9922V33.2012H75.7852V32.4395H77.9922V31.375H75.8779C75.3115 32.7812 73.998 33.7725 72.1035 34.3145L71.7324 33.5918C73.8027 33.001 75.0137 31.8877 75.1797 30.4766H72.1816V29.7148H76.1855C76.1855 30.0371 76.1514 30.3496 76.0928 30.6426H77.9922V29.0898H78.9199ZM73.0898 36.0723C73.0898 35.0127 74.2422 34.3682 76.0391 34.3633C77.8115 34.3682 78.9736 35.0127 78.9785 36.0723C78.9736 37.1367 77.8115 37.791 76.0391 37.791C74.2422 37.791 73.0898 37.1367 73.0898 36.0723ZM74.0078 36.0723C74.0078 36.6875 74.7891 37.0439 76.0391 37.0488C77.2646 37.0439 78.0459 36.6875 78.0508 36.0723C78.0459 35.4473 77.2646 35.0908 76.0391 35.0957C74.7891 35.0908 74.0078 35.4473 74.0078 36.0723ZM87.3574 33.1133V33.8555H84.7109V35.9941H88.2754V36.7559H80.2676V35.9941H83.793V33.8555H81.2637V29.7539H87.2793V30.5059H82.1914V33.1133H87.3574ZM94.0859 29.832C95.3848 29.8418 96.7471 30.623 96.752 33.2109C96.752 35.6914 95.6826 37.0977 93.9883 37.0977C92.6846 37.0977 91.7764 36.292 91.6055 35.1445H92.6699C92.8164 35.7402 93.2754 36.1553 93.9883 36.1602C95.0771 36.1553 95.7168 35.208 95.7266 33.5918H95.6387C95.2578 34.1875 94.5938 34.5488 93.832 34.5488C92.5625 34.5488 91.5469 33.5771 91.5469 32.2246C91.5469 30.877 92.5479 29.8223 94.0859 29.832ZM92.5918 32.2051C92.5967 33.0254 93.207 33.6748 94.0664 33.6699C94.9209 33.6748 95.5801 32.9766 95.5801 32.1953C95.5801 31.4287 94.9502 30.7305 94.0859 30.7305C93.2314 30.7305 92.5869 31.3945 92.5918 32.2051ZM97.8848 37V36.2188L100.336 33.748C101.112 32.9424 101.498 32.4932 101.498 31.873C101.498 31.1748 100.932 30.7305 100.189 30.7305C99.4033 30.7305 98.9053 31.2285 98.9004 31.9805H97.8848C97.875 30.6865 98.8613 29.832 100.209 29.832C101.571 29.832 102.514 30.6963 102.523 31.8438C102.514 32.6348 102.143 33.2646 100.814 34.5684L99.3789 36.0234V36.082H102.641V37H97.8848ZM104.525 37.0684C104.145 37.0635 103.827 36.7559 103.832 36.375C103.827 35.9941 104.145 35.6816 104.525 35.6816C104.901 35.6816 105.214 35.9941 105.219 36.375C105.214 36.7559 104.901 37.0635 104.525 37.0684ZM108.666 37.0977C107.03 37.0977 106.068 35.7793 106.068 33.4648C106.068 31.165 107.04 29.832 108.666 29.832C110.287 29.832 111.259 31.165 111.264 33.4648C111.259 35.7793 110.302 37.0977 108.666 37.0977ZM107.143 33.4648C107.138 35.2275 107.709 36.1699 108.666 36.1699C109.618 36.1699 110.189 35.2275 110.189 33.4648C110.189 31.707 109.613 30.7451 108.666 30.7402C107.714 30.7451 107.143 31.707 107.143 33.4648ZM113.998 33.2891C113.031 33.2988 112.504 32.5811 112.514 31.5312C112.504 30.4961 113.056 29.7783 113.998 29.7832C114.97 29.7783 115.478 30.4961 115.482 31.5312C115.478 32.5859 114.95 33.2988 113.998 33.2891ZM113.314 37L118.168 29.9297H119.057L114.203 37H113.314ZM113.314 31.5312C113.319 32.1807 113.544 32.6006 113.998 32.6055C114.457 32.6006 114.672 32.1807 114.672 31.5312C114.672 30.8965 114.472 30.4619 113.998 30.4668C113.544 30.4766 113.319 30.9014 113.314 31.5312ZM116.977 35.3887C116.972 34.3438 117.519 33.626 118.461 33.6309C119.428 33.626 119.94 34.3438 119.945 35.3887C119.94 36.4336 119.413 37.1465 118.461 37.1465C117.499 37.1465 116.972 36.4287 116.977 35.3887ZM117.777 35.3887C117.782 36.0283 118.007 36.4531 118.461 36.4531C118.92 36.4531 119.135 36.0283 119.135 35.3887C119.135 34.7441 118.935 34.3145 118.461 34.3145C118.012 34.3242 117.782 34.749 117.777 35.3887Z" fill="#113287"/>
</g>
<defs>
<clipPath id="clip0_1814_2379">
<rect width="727" height="90" fill="white"/>
</clipPath>
</defs>
</svg>
