<?xml version="1.0" encoding="UTF-8"?>
<svg width="727px" height="90px" viewBox="0 0 727 90" version="1.1" xmlns="http://www.w3.org/2000/svg" xmlns:xlink="http://www.w3.org/1999/xlink">
    <title>astigmatism</title>
    <g id="astigmatism" stroke="none" stroke-width="1" fill="none" fill-rule="evenodd">
        <g id="Group" transform="translate(0.000000, -0.000000)">
            <g id="AGE_07_12" transform="translate(0.000000, 0.805795)">
                <path d="M21.7090669,82.7083771 L21.0910173,82.7083771 L21.0910173,85.9707618 L21.6464809,85.9707618 C22.6987274,85.9707618 23.7547791,85.9042704 24.9321977,85.6578317 L24.8618009,85.1492325 C23.7274415,85.3839552 22.7026327,85.4465412 21.7090669,85.4465412 L21.7090669,82.7083771 Z M21.8654819,89.0061345 L26.4420732,89.0061345 L26.4420732,88.4898247 L22.4757208,88.4898247 L22.4757208,86.7374157 L21.8654819,86.7374157 L21.8654819,89.0061345 Z M25.5815904,87.2302933 L26.1917291,87.2302933 L26.1917291,84.8050594 L27.2400702,84.8050594 L27.2400702,84.273028 L26.1917291,84.273028 L26.1917291,82.2076888 L25.5815904,82.2076888 L25.5815904,87.2302933 Z" id="Shape" fill="#001A5B" fill-rule="nonzero"></path>
                <path d="M32.1609348,84.0696484 L32.1609348,82.8023062 L31.5506959,82.8023062 L31.5506959,84.0696484 C31.5428852,85.3878605 30.6862076,86.7178889 29.6496827,87.1911395 L30.0408204,87.7074492 C30.8544388,87.2967847 31.5389798,86.4166748 31.8597208,85.3683337 C32.1921778,86.3579942 32.8767188,87.1833287 33.6708104,87.5666557 L34.0463266,87.0815889 C33.0214177,86.616149 32.1570295,85.3409961 32.1609348,84.0696484 Z M34.8051698,89.1704604 L35.4232194,89.1704604 L35.4232194,82.1998781 L34.8051698,82.1998781 L34.8051698,89.1704604 Z" id="Shape" fill="#001A5B" fill-rule="nonzero"></path>
                <path d="M2.34111227,76.444967 C3.81529879,76.444967 4.67781447,75.2567335 4.68222053,73.1708661 C4.67781447,71.0982169 3.80210065,69.8968655 2.34111227,69.8968655 C0.875717827,69.8968655 -1.73433206e-14,71.0982169 -1.73433206e-14,73.1708661 C-1.73433206e-14,75.2567335 0.866915727,76.444967 2.34111227,76.444967 Z M0.968124857,73.1708661 C0.968124857,71.5866884 1.48299263,70.7197967 2.34111227,70.7153907 C3.19482585,70.7197967 3.71408967,71.5866884 3.71408967,73.1708661 C3.71408967,74.7595501 3.19922189,75.6088175 2.34111227,75.6088175 C1.47859659,75.6088175 0.963728814,74.7595501 0.968124857,73.1708661 Z" id="Shape" fill="#001A5B" fill-rule="nonzero"></path>
                <path d="M7.84183397,76.356946 C9.78247172,76.356946 10.9002082,75.1511884 10.9046143,73.162054 C10.9002082,71.1774258 9.78247172,69.9848865 7.90343866,69.9848865 L5.77356077,69.9848865 L5.77356077,76.356946 L7.84183397,76.356946 Z M6.74169163,75.5119844 L6.74169163,70.8297479 L7.84183397,70.8297479 C9.23241557,70.8297479 9.94529555,71.6614912 9.94529555,73.162054 C9.94529555,74.667123 9.23241557,75.5075784 7.78903138,75.5119844 L6.74169163,75.5119844 Z" id="Shape" fill="#001A5B" fill-rule="nonzero"></path>
                <polygon id="Path" fill="#001A5B" fill-rule="nonzero" points="183.552148 69.9848865 182.601842 69.9848865 181.017664 71.0234141 181.017664 71.9475845 182.540758 70.9530173 182.575806 70.9530173 182.575806 76.356946 183.552148 76.356946"></polygon>
                <path d="M187.32834,76.356946 C189.269007,76.356946 190.386544,75.1511884 190.39155,73.162054 C190.386544,71.1774258 189.269007,69.9848865 187.390425,69.9848865 L185.260497,69.9848865 L185.260497,76.356946 L187.32834,76.356946 Z M186.227827,75.5119844 L186.227827,70.8297479 L187.32834,70.8297479 C188.719252,70.8297479 189.432232,71.6614912 189.432232,73.162054 C189.432232,74.667123 188.719252,75.5075784 187.275267,75.5119844 L186.227827,75.5119844 Z" id="Shape" fill="#001A5B" fill-rule="nonzero"></path>
                <path d="M360.719696,76.356946 L365.006589,76.356946 L365.006589,75.5296086 L362.066548,75.5296086 L362.066548,75.4768361 L363.360326,74.1654333 C364.556971,72.9905182 364.891431,72.4228378 364.900443,71.7098577 C364.891431,70.6757361 364.042264,69.8968655 362.814576,69.8968655 C361.599906,69.8968655 360.711685,70.666924 360.719696,71.8331272 L361.634954,71.8331272 C361.639961,71.1553955 362.088578,70.7065785 362.797553,70.7065785 C363.466472,70.7065785 363.976173,71.107029 363.976173,71.7362941 C363.976173,72.2951623 363.628695,72.7000189 362.928733,73.426117 L360.719696,75.652778 L360.719696,76.356946 Z" id="Path" fill="#001A5B" fill-rule="nonzero"></path>
                <path d="M368.236029,76.356946 C370.176697,76.356946 371.294233,75.1511884 371.29924,73.162054 C371.294233,71.1774258 370.176697,69.9848865 368.298114,69.9848865 L366.168186,69.9848865 L366.168186,76.356946 L368.236029,76.356946 Z M367.136517,75.5119844 L367.136517,70.8297479 L368.236029,70.8297479 C369.626941,70.8297479 370.339921,71.6614912 370.339921,73.162054 C370.339921,74.667123 369.626941,75.5075784 368.182956,75.5119844 L367.136517,75.5119844 Z" id="Shape" fill="#001A5B" fill-rule="nonzero"></path>
                <path d="M543.097406,76.444967 C544.418222,76.444967 545.399571,75.6659961 545.394601,74.6054382 C545.399571,73.8002313 544.892874,73.2149267 544.021677,73.0916573 L544.021677,73.0476968 C544.708621,72.8760609 545.157238,72.356747 545.148225,71.6306488 C545.157238,70.6889543 544.369155,69.8968655 543.115431,69.8968655 C541.926797,69.8968655 540.967478,70.6009333 540.941443,71.639461 L541.874725,71.639461 C541.896756,71.0630686 542.468542,70.7065785 543.106419,70.7065785 C543.779344,70.7065785 544.214943,71.102623 544.214943,71.6835215 C544.214943,72.2951623 543.709247,72.7000189 542.983249,72.6956128 L542.437499,72.6956128 L542.437499,73.4877017 L542.983249,73.4877017 C543.894502,73.4921077 544.418222,73.9410249 544.418222,74.5702899 C544.418222,75.1907428 543.859454,75.6088175 543.088394,75.6088175 C542.376415,75.6088175 541.821653,75.2523275 541.786604,74.6934592 L540.800248,74.6934592 C540.840303,75.7363929 541.777592,76.444967 543.097406,76.444967 Z" id="Path" fill="#001A5B" fill-rule="nonzero"></path>
                <path d="M548.615993,76.356946 C550.55666,76.356946 551.674197,75.1511884 551.679203,73.162054 C551.674197,71.1774258 550.55666,69.9848865 548.678078,69.9848865 L546.54815,69.9848865 L546.54815,76.356946 L548.615993,76.356946 Z M547.51548,75.5119844 L547.51548,70.8297479 L548.615993,70.8297479 C550.006905,70.8297479 550.719885,71.6614912 550.719885,73.162054 C550.719885,74.667123 550.006905,75.5075784 548.56292,75.5119844 L547.51548,75.5119844 Z" id="Shape" fill="#001A5B" fill-rule="nonzero"></path>
                <polygon id="Path" fill="#979797" points="95.0755219 48.8258997 95.0755219 15.2631619 96.0768985 15.2631619 96.0768985 48.8258997"></polygon>
                <polygon id="Path" fill="#979797" points="275.323304 48.8258997 275.323304 15.2631619 276.324681 15.2631619 276.324681 48.8258997"></polygon>
                <polygon id="Path" fill="#979797" points="455.571086 48.8258997 455.571086 15.2631619 456.572463 15.2631619 456.572463 48.8258997"></polygon>
                <polygon id="Path" fill="#979797" points="635.818868 48.8258997 635.818868 15.2631619 636.820245 15.2631619 636.820245 48.8258997"></polygon>
                <polygon id="Path" fill="#979797" points="456.572463 37.3032598 456.572463 16.2743519 455.571086 16.2743519 455.571086 37.3032598"></polygon>
                <polygon id="Path" fill="#979797" points="636.820245 37.3032598 636.820245 16.2743519 635.818868 16.2743519 635.818868 37.3032598"></polygon>
                <rect id="Rectangle" fill="#001A5B" fill-rule="nonzero" x="546.195665" y="20.2798582" width="173.238146" height="24.0330376"></rect>
                <path d="M616.327073,35.1029351 L612.76718,35.1029351 L612.76718,33.1960137 L611.847916,33.1960137 L611.847916,35.1029351 L608.30805,35.1029351 L608.30805,35.8656836 L616.327073,35.8656836 L616.327073,35.1029351 Z M608.699588,32.7755357 L609.052072,33.4991304 C610.518088,33.2694146 611.735762,32.5750601 612.303542,31.5531553 C612.875328,32.5750601 614.098009,33.2694146 615.564024,33.4991304 L615.916509,32.7755357 C614.117035,32.5114727 612.821254,31.4944747 612.777193,30.2622808 L615.584052,30.2622808 L615.584052,29.5093458 L612.76718,29.5093458 L612.76718,28.3358326 L611.847916,28.3358326 L611.847916,29.5093458 L609.032045,29.5093458 L609.032045,30.2622808 L611.838903,30.2622808 C611.794843,31.4944747 610.499062,32.5114727 608.699588,32.7755357 Z" id="Shape" fill="#FFFFFF" fill-rule="nonzero"></path>
                <path d="M624.052693,29.0203736 L617.804104,29.0203736 L617.804104,29.7733086 L623.123416,29.7733086 L623.123416,29.8809566 C623.118409,30.9322017 623.118409,32.1741089 622.780945,33.8707413 L623.720236,33.9685757 C624.047687,32.1741089 624.047687,30.961542 624.052693,29.8809566 L624.052693,29.0203736 Z M616.962947,35.7581358 L624.95193,35.7581358 L624.95193,34.9855738 L620.923392,34.9855738 L620.923392,31.8954258 L620.004128,31.8954258 L620.004128,34.9855738 L616.962947,34.9855738 L616.962947,35.7581358 Z" id="Shape" fill="#FFFFFF" fill-rule="nonzero"></path>
                <polygon id="Path" fill="#FFFFFF" fill-rule="nonzero" points="632.716604 32.2180694 627.543492 32.2180694 627.543492 29.6070801 632.638496 29.6070801 632.638496 28.8541451 626.615216 28.8541451 626.615216 32.9612911 629.147697 32.9612911 629.147697 35.1029351 625.616844 35.1029351 625.616844 35.8656836 633.635867 35.8656836 633.635867 35.1029351 630.066961 35.1029351 630.066961 32.9612911 632.716604 32.9612911"></polygon>
                <polygon id="Path" fill="#FFFFFF" fill-rule="nonzero" points="639.709216 29.0301871 638.652764 29.0301871 636.892344 30.1840733 636.892344 31.2108848 638.58467 30.1058658 638.623724 30.1058658 638.623724 36.1102198 639.709216 36.1102198"></polygon>
                <path d="M641.802093,36.1786138 C642.178611,36.1737071 642.49104,35.8656836 642.496047,35.4843595 C642.49104,35.1029351 642.178611,34.7900049 641.802093,34.7900049 C641.420569,34.7900049 641.102131,35.1029351 641.107138,35.4843595 C641.102131,35.8656836 641.420569,36.1737071 641.802093,36.1786138 Z" id="Path" fill="#FFFFFF" fill-rule="nonzero"></path>
                <path d="M646.006873,36.2079542 C647.47389,36.2079542 648.564389,35.3425645 648.559415,34.1641446 C648.564389,33.2694146 648.001615,32.6190205 647.033284,32.4821324 L647.033284,32.4332652 C647.796333,32.2426031 648.295019,31.6656099 648.285005,30.8588008 C648.295019,29.8124624 647.419816,28.9323526 646.025899,28.9323526 C644.706085,28.9323526 643.64062,29.7146279 643.610579,30.8686143 L644.647004,30.8686143 C644.672038,30.2280337 645.307912,29.8319893 646.016887,29.8319893 C646.764915,29.8319893 647.24858,30.2720943 647.24858,30.9174815 C647.24858,31.5971158 646.686808,32.0469341 645.879698,32.0421275 L645.272864,32.0421275 L645.272864,32.9222374 L645.879698,32.9222374 C646.89209,32.9271441 647.47389,33.4258296 647.47389,34.1249908 C647.47389,34.8144385 646.853037,35.2789771 645.99686,35.2789771 C645.204771,35.2789771 644.588924,34.8829327 644.54987,34.2619791 L643.454364,34.2619791 C643.498425,35.420772 644.539857,36.2079542 646.006873,36.2079542 Z" id="Path" fill="#FFFFFF" fill-rule="nonzero"></path>
                <path d="M651.365239,32.3941114 C652.319551,32.4039249 652.847277,31.6900435 652.852284,30.6338916 C652.847277,29.5973668 652.338577,28.8785787 651.365239,28.8834604 C650.421943,28.8785787 649.869183,29.5973668 649.879196,30.6338916 C649.869183,31.6851368 650.39791,32.4039249 651.365239,32.3941114 Z M650.681299,36.1102198 L651.570522,36.1102198 L656.431203,29.0301871 L655.54098,29.0301871 L650.681299,36.1102198 Z M650.681299,30.6338916 C650.686306,30.0031245 650.910614,29.5777398 651.365239,29.5680264 C651.839892,29.5631197 652.040167,29.9983179 652.040167,30.6338916 C652.040167,31.2841856 651.824871,31.7047637 651.365239,31.7095703 C650.910614,31.7047637 650.686306,31.2841856 650.681299,30.6338916 Z M654.34834,34.4966016 C654.343333,35.5381334 654.871059,36.2569215 655.834383,36.2569215 C656.787693,36.2569215 657.31642,35.5430401 657.321427,34.4966016 C657.31642,33.4502632 656.802714,32.7314751 655.834383,32.7363569 C654.891086,32.7314751 654.343333,33.4502632 654.34834,34.4966016 Z M655.150443,34.4966016 C655.15545,33.8561212 655.384765,33.4307364 655.834383,33.4209229 C656.309035,33.4209229 656.509311,33.8512144 656.509311,34.4966016 C656.509311,35.1371822 656.294015,35.562567 655.834383,35.562567 C655.379758,35.562567 655.15545,35.1371822 655.150443,34.4966016 Z" id="Shape" fill="#FFFFFF" fill-rule="nonzero"></path>
                <rect id="Rectangle" fill="#113287" fill-rule="nonzero" x="365.947883" y="20.2798582" width="180.247782" height="24.0330376"></rect>
                <path d="M442.801532,28.7612173 L436.552942,28.7612173 L436.552942,29.5142525 L441.872255,29.5142525 L441.872255,29.6218003 C441.867248,30.6730455 441.867248,31.9149527 441.530785,33.6116851 L442.469075,33.7094195 C442.796525,31.9149527 442.796525,30.7023858 442.801532,29.6218003 L442.801532,28.7612173 Z M435.711786,35.4989795 L443.700768,35.4989795 L443.700768,34.7264175 L439.67223,34.7264175 L439.67223,31.6362696 L438.752967,31.6362696 L438.752967,34.7264175 L435.711786,34.7264175 L435.711786,35.4989795 Z" id="Shape" fill="#FFFFFF" fill-rule="nonzero"></path>
                <polygon id="Path" fill="#FFFFFF" fill-rule="nonzero" points="451.465442 31.9590132 446.292331 31.9590132 446.292331 29.3479238 451.387335 29.3479238 451.387335 28.5949888 445.364055 28.5949888 445.364055 32.7021348 447.896536 32.7021348 447.896536 34.8437789 444.366684 34.8437789 444.366684 35.6065274 452.384706 35.6065274 452.384706 34.8437789 448.8158 34.8437789 448.8158 32.7021348 451.465442 32.7021348"></polygon>
                <polygon id="Path" fill="#FFFFFF" fill-rule="nonzero" points="458.458055 28.7710308 457.401602 28.7710308 455.641182 29.924917 455.641182 30.9517286 457.333509 29.8467095 457.372562 29.8467095 457.372562 35.8510636 458.458055 35.8510636"></polygon>
                <path d="M460.550932,35.9194576 C460.927449,35.914651 461.239879,35.6065274 461.244886,35.2252032 C461.239879,34.8437789 460.927449,34.5308487 460.550932,34.5308487 C460.169407,34.5308487 459.850969,34.8437789 459.855976,35.2252032 C459.850969,35.6065274 460.169407,35.914651 460.550932,35.9194576 Z" id="Path" fill="#FFFFFF" fill-rule="nonzero"></path>
                <path d="M462.340392,34.472168 L465.782123,34.472168 L465.782123,35.8510636 L466.799521,35.8510636 L466.799521,34.472168 L467.767853,34.472168 L467.767853,33.5627178 L466.799521,33.5627178 L466.799521,28.7710308 L465.469693,28.7710308 L462.340392,33.6018716 L462.340392,34.472168 Z M463.474951,33.5627178 L463.474951,33.5040372 L465.704016,30.0520919 L465.782123,30.0520919 L465.782123,33.5627178 L463.474951,33.5627178 Z" id="Shape" fill="#FFFFFF" fill-rule="nonzero"></path>
                <path d="M470.476576,32.1349551 C471.429887,32.1447686 471.957612,31.4308872 471.962619,30.3747354 C471.957612,29.3382105 471.448913,28.6194224 470.476576,28.6243042 C469.532278,28.6194224 468.98052,29.3382105 468.989532,30.3747354 C468.98052,31.4259805 469.508245,32.1447686 470.476576,32.1349551 Z M469.791635,35.8510636 L470.681858,35.8510636 L475.541539,28.7710308 L474.652317,28.7710308 L469.791635,35.8510636 Z M469.791635,30.3747354 C469.796642,29.7439683 470.021951,29.3185835 470.476576,29.3088702 C470.950227,29.3039634 471.151504,29.7391617 471.151504,30.3747354 C471.151504,31.0250293 470.936208,31.4456075 470.476576,31.4504141 C470.021951,31.4456075 469.796642,31.0250293 469.791635,30.3747354 Z M473.458676,34.2375455 C473.453669,35.2789771 473.982396,35.9977652 474.94572,35.9977652 C475.89903,35.9977652 476.426756,35.2838839 476.431763,34.2375455 C476.426756,33.191107 475.91305,32.472419 474.94572,32.4772017 C474.001422,32.472419 473.453669,33.191107 473.458676,34.2375455 Z M474.260778,34.2375455 C474.265785,33.5969649 474.4951,33.1715801 474.94572,33.1617666 C475.419371,33.1617666 475.619646,33.5920582 475.619646,34.2375455 C475.619646,34.8780259 475.405352,35.3034107 474.94572,35.3034107 C474.491095,35.3034107 474.265785,34.8780259 474.260778,34.2375455 Z" id="Shape" fill="#FFFFFF" fill-rule="nonzero"></path>
                <rect id="Rectangle" fill="#5B6EB4" fill-rule="nonzero" x="185.700101" y="20.2798582" width="180.247782" height="24.0330376"></rect>
                <path d="M261.409177,31.7829712 L253.420194,31.7829712 L253.420194,32.5359063 L256.950047,32.5359063 L256.950047,33.3769625 C255.321808,33.4600767 254.368498,34.0028228 254.368498,34.9219864 C254.368498,35.914651 255.503058,36.4720172 257.409679,36.4671425 C259.292267,36.4720172 260.426826,35.914651 260.431833,34.9219864 C260.426826,34.0028228 259.473516,33.4649835 257.86931,33.3769625 L257.86931,32.5359063 L261.409177,32.5359063 L261.409177,31.7829712 Z M253.840772,30.5899312 L254.163216,31.3233394 C255.684307,31.1472974 256.931021,30.5068169 257.414685,29.5777398 C257.889338,30.5068169 259.146066,31.1472974 260.666155,31.3233394 L260.998612,30.5899312 C259.395408,30.4285093 258.162714,29.7195347 258.035539,28.8687652 L260.696196,28.8687652 L260.696196,28.1255435 L254.153202,28.1255435 L254.153202,28.8687652 L256.783818,28.8687652 C256.656643,29.7146279 255.414936,30.4285093 253.840772,30.5899312 Z M255.307765,34.9219864 C255.302782,34.3793404 256.069837,34.0859371 257.409679,34.0810303 C258.730494,34.0859371 259.502556,34.3793404 259.502556,34.9219864 C259.502556,35.4550191 258.730494,35.7630426 257.409679,35.7532291 C256.069837,35.7630426 255.302782,35.4550191 255.307765,34.9219864 Z" id="Shape" fill="#FFFFFF" fill-rule="nonzero"></path>
                <polygon id="Path" fill="#FFFFFF" fill-rule="nonzero" points="269.17385 31.7633443 264.000739 31.7633443 264.000739 29.152355 269.095743 29.152355 269.095743 28.39942 263.072463 28.39942 263.072463 32.506566 265.604944 32.506566 265.604944 34.64821 262.075092 34.64821 262.075092 35.4109585 270.093114 35.4109585 270.093114 34.64821 266.524208 34.64821 266.524208 32.506566 269.17385 32.506566"></polygon>
                <polygon id="Path" fill="#FFFFFF" fill-rule="nonzero" points="276.166463 28.575462 275.110011 28.575462 273.349591 29.7293482 273.349591 30.7561597 275.041917 29.6511407 275.080971 29.6511407 275.080971 35.6554947 276.166463 35.6554947"></polygon>
                <polygon id="Path" fill="#FFFFFF" fill-rule="nonzero" points="280.654633 28.575462 279.599182 28.575462 277.838762 29.7293482 277.838762 30.7561597 279.530087 29.6511407 279.569141 29.6511407 279.569141 35.6554947 280.654633 35.6554947"></polygon>
                <path d="M282.74751,35.7238887 C283.124027,35.718982 283.437458,35.4109585 283.441464,35.0296344 C283.437458,34.64821 283.124027,34.3352798 282.74751,34.3352798 C282.365985,34.3352798 282.048549,34.64821 282.053556,35.0296344 C282.048549,35.4109585 282.365985,35.718982 282.74751,35.7238887 Z" id="Path" fill="#FFFFFF" fill-rule="nonzero"></path>
                <path d="M284.693185,35.6554947 L289.455731,35.6554947 L289.455731,34.736231 L286.190242,34.736231 L286.190242,34.6775504 L287.627218,33.2204473 C288.957046,31.9149527 289.328557,31.2841856 289.33857,30.4920967 C289.328557,29.3431172 288.38526,28.4776275 287.021385,28.4776275 C285.671529,28.4776275 284.684172,29.3333038 284.693185,30.6289849 L285.710583,30.6289849 C285.71559,29.8760499 286.214276,29.3772642 287.001358,29.3772642 C287.744379,29.3772642 288.312159,29.8222759 288.312159,30.521437 C288.312159,31.1423907 287.925628,31.592209 287.14856,32.3990181 L284.693185,34.8731192 L284.693185,35.6554947 Z" id="Path" fill="#FFFFFF" fill-rule="nonzero"></path>
                <path d="M292.272604,31.9393863 C293.225914,31.9491998 293.75364,31.2353184 293.758647,30.1791665 C293.75364,29.1426417 293.24494,28.4238536 292.272604,28.4287353 C291.328306,28.4238536 290.776547,29.1426417 290.78556,30.1791665 C290.776547,31.2304117 291.304273,31.9491998 292.272604,31.9393863 Z M291.587662,35.6554947 L292.477886,35.6554947 L297.337566,28.575462 L296.448344,28.575462 L291.587662,35.6554947 Z M291.587662,30.1791665 C291.592669,29.5483994 291.817979,29.1230147 292.272604,29.1133013 C292.746255,29.1083946 292.947532,29.5434927 292.947532,30.1791665 C292.947532,30.8294605 292.732236,31.2500386 292.272604,31.2548452 C291.817979,31.2500386 291.592669,30.8294605 291.587662,30.1791665 Z M295.254703,34.0418765 C295.249696,35.0834083 295.778423,35.8020962 296.741747,35.8020962 C297.695058,35.8020962 298.222783,35.088315 298.22779,34.0418765 C298.222783,32.9955381 297.709077,32.27675 296.741747,32.2816318 C295.797449,32.27675 295.249696,32.9955381 295.254703,34.0418765 Z M296.056806,34.0418765 C296.061813,33.4013961 296.291128,32.9760113 296.741747,32.9661978 C297.215398,32.9661978 297.415674,33.3964893 297.415674,34.0418765 C297.415674,34.6824571 297.201379,35.1078419 296.741747,35.1078419 C296.287122,35.1078419 296.061813,34.6824571 296.056806,34.0418765 Z" id="Shape" fill="#FFFFFF" fill-rule="nonzero"></path>
                <rect id="Rectangle" fill="#E2E6F6" fill-rule="nonzero" x="5.45231917" y="20.2798582" width="180.247782" height="24.0330376"></rect>
                <path d="M80.5653752,27.9397881 L79.636298,27.9397881 L79.636298,29.4946255 L77.7342834,29.4946255 C77.792964,29.2013223 77.8272111,28.8883921 77.8272111,28.5656485 L73.8177995,28.5656485 L73.8177995,29.328397 L76.8199264,29.328397 C76.6536979,30.7414395 75.441131,31.856272 73.3679811,32.4478853 L73.739592,33.1715801 C75.6366999,32.628834 76.952008,31.6362696 77.5191877,30.2280337 L79.636298,30.2280337 L79.636298,31.2939991 L77.4262599,31.2939991 L77.4262599,32.0567476 L79.636298,32.0567476 L79.636298,33.122713 L80.5653752,33.122713 L80.5653752,27.9397881 Z M74.7272497,34.9317999 C74.7272497,35.9977652 75.8811359,36.6529659 77.6805094,36.6529659 C79.4554494,36.6529659 80.6191491,35.9977652 80.6240559,34.9317999 C80.6191491,33.8707413 79.4554494,33.2253541 77.6805094,33.2204473 C75.8811359,33.2253541 74.7272497,33.8707413 74.7272497,34.9317999 Z M75.6465133,34.9317999 C75.6465133,34.3059395 76.4287887,33.9490489 77.6805094,33.9538555 C78.9077966,33.9490489 79.6900719,34.3059395 79.6949787,34.9317999 C79.6900719,35.5478467 78.9077966,35.9048375 77.6805094,35.9097442 C76.4287887,35.9048375 75.6465133,35.5478467 75.6465133,34.9317999 Z" id="Shape" fill="#113287" fill-rule="nonzero"></path>
                <polygon id="Path" fill="#113287" fill-rule="nonzero" points="89.01449 31.9687266 83.8412785 31.9687266 83.8412785 29.3577373 88.9361823 29.3577373 88.9361823 28.6048023 82.9123014 28.6048023 82.9123014 32.7119483 85.4450832 32.7119483 85.4450832 34.8535924 81.9148302 34.8535924 81.9148302 35.6163409 89.9336535 35.6163409 89.9336535 34.8535924 86.3643469 34.8535924 86.3643469 32.7119483 89.01449 32.7119483"></polygon>
                <path d="M95.8793269,35.9586795 C97.4000173,35.9684249 98.4121086,34.9171798 98.4121086,33.543191 C98.4121086,32.1888292 97.3951106,31.2206983 96.1335764,31.2157916 C95.3659211,31.2206983 94.7010071,31.5726822 94.314676,32.1741089 L94.2364685,32.1741089 C94.2364685,30.575211 94.8721423,29.6267071 95.9673479,29.6218003 C96.6812292,29.6267071 97.1359543,30.0422784 97.2777493,30.6192715 L98.3437146,30.6192715 C98.1774861,29.4946255 97.2728425,28.6830098 95.9673479,28.6830098 C94.2707156,28.6830098 93.2047502,30.0911455 93.1999436,32.5555333 C93.1999436,35.1714293 94.5689255,35.9487979 95.8793269,35.9586795 Z M94.3636433,33.5725313 C94.3733567,32.7853492 95.0334641,32.0909947 95.8989539,32.0958742 C96.7497234,32.0909947 97.3657703,32.7511021 97.3657703,33.5627178 C97.3657703,34.3890538 96.7252898,35.0540679 95.8696135,35.0589747 C94.999217,35.0540679 94.3684499,34.3597134 94.3636433,33.5725313 Z" id="Shape" fill="#113287" fill-rule="nonzero"></path>
                <polygon id="Path" fill="#113287" fill-rule="nonzero" points="99.8010179 35.8607769 100.925564 35.8607769 104.073892 29.7391617 104.073892 28.7807442 99.3118455 28.7807442 99.3118455 29.7000078 102.95936 29.7000078 102.95936 29.7586885"></polygon>
                <path d="M104.631658,35.9292711 C105.008176,35.9243643 105.320606,35.6163409 105.325612,35.2349165 C105.320606,34.8535924 105.008176,34.5406622 104.631658,34.5406622 C104.250134,34.5406622 103.932698,34.8535924 103.937705,35.2349165 C103.932698,35.6163409 104.250134,35.9243643 104.631658,35.9292711 Z" id="Path" fill="#113287" fill-rule="nonzero"></path>
                <polygon id="Path" fill="#113287" fill-rule="nonzero" points="108.405847 28.7807442 107.350396 28.7807442 105.589976 29.9347305 105.589976 30.961542 107.281301 29.856523 107.321356 29.856523 107.321356 35.8607769 108.405847 35.8607769"></polygon>
                <path d="M111.828552,32.1447686 C112.782864,32.1545821 113.310589,31.4407007 113.315596,30.3845489 C113.310589,29.3479238 112.80189,28.6292359 111.828552,28.6340185 C110.885255,28.6292359 110.332495,29.3479238 110.342509,30.3845489 C110.332495,31.435794 110.861222,32.1545821 111.828552,32.1447686 Z M111.144612,35.8607769 L112.034835,35.8607769 L116.894516,28.7807442 L116.004292,28.7807442 L111.144612,35.8607769 Z M111.144612,30.3845489 C111.149619,29.7537818 111.373927,29.328397 111.828552,29.3185835 C112.303204,29.3137769 112.50348,29.748875 112.50348,30.3845489 C112.50348,31.0348428 112.288184,31.4553208 111.828552,31.4602276 C111.373927,31.4553208 111.149619,31.0348428 111.144612,30.3845489 Z M114.811653,34.2472588 C114.806646,35.2887906 115.334371,36.0074786 116.297696,36.0074786 C117.252007,36.0074786 117.779733,35.2935972 117.78474,34.2472588 C117.779733,33.2009205 117.266027,32.4821324 116.297696,32.4870141 C115.354399,32.4821324 114.806646,33.2009205 114.811653,34.2472588 Z M115.613755,34.2472588 C115.618762,33.6067784 115.848077,33.1813936 116.297696,33.1715801 C116.772348,33.1715801 116.972623,33.6018716 116.972623,34.2472588 C116.972623,34.8878394 116.757327,35.3132242 116.297696,35.3132242 C115.843071,35.3132242 115.618762,34.8878394 115.613755,34.2472588 Z" id="Shape" fill="#113287" fill-rule="nonzero"></path>
                <polygon id="Path" fill="#113287" points="4.4509426 64.3404272 4.4509426 0.252296826 6.45369573 0.252296826 6.45369573 64.3404272"></polygon>
                <polygon id="Path" fill="#979797" points="185.199413 64.0880803 185.199413 0 186.20079 0 186.20079 64.0880803"></polygon>
                <polygon id="Path" fill="#979797" points="365.447195 64.0880803 365.447195 0 366.448572 0 366.448572 64.0880803"></polygon>
                <polygon id="Path" fill="#979797" points="545.694977 64.0880803 545.694977 0 546.696354 0 546.696354 64.0880803"></polygon>
                <path d="M36.666829,70.3131377 L39.8532092,73.4995179 C40.0486779,73.6950868 40.0486779,74.0121226 39.8532092,74.2075913 L36.666829,77.3939715 C36.4712601,77.5895404 36.1542243,77.5895404 35.9587556,77.3939715 C35.7631867,77.1984027 35.7631867,76.881467 35.9587556,76.6858982 L38.2903608,74.354293 L20.4729677,74.354293 L20.4729677,73.3529164 L38.2903608,73.3529164 L35.9587556,71.0212111 C35.7631867,70.8257424 35.7631867,70.5087065 35.9587556,70.3131377 C36.1542243,70.117669 36.4712601,70.117669 36.666829,70.3131377 Z" id="Path" fill="#113287"></path>
                <polygon id="Path" fill="#001A5B" fill-rule="nonzero" points="719.889438 20.2798582 691.041782 20.2798582 691.041782 44.3128958 719.889438 44.3128958 727.444824 32.296377"></polygon>
            </g>
        </g>
    </g>
</svg>