<?xml version="1.0" encoding="UTF-8"?>
<svg width="727px" height="90px" viewBox="0 0 727 90" version="1.1" xmlns="http://www.w3.org/2000/svg" xmlns:xlink="http://www.w3.org/1999/xlink">
    <title>astigmatism</title>
    <g id="astigmatism" stroke="none" stroke-width="1" fill="none" fill-rule="evenodd">
        <g id="Group" transform="translate(0.000000, -0.000000)">
            <g id="AGE_19_29" transform="translate(0.000000, 0.604346)">
                <path d="M21.7090669,82.7084492 L21.0910173,82.7084492 L21.0910173,85.9707338 L21.6464809,85.9707338 C22.6987274,85.9707338 23.7547791,85.9042424 24.9321977,85.6578036 L24.8618009,85.1493046 C23.7274415,85.3840273 22.7026327,85.4465132 21.7090669,85.4465132 L21.7090669,82.7084492 Z M21.8654819,89.0061064 L26.4420732,89.0061064 L26.4420732,88.4897967 L22.4757208,88.4897967 L22.4757208,86.7373877 L21.8654819,86.7373877 L21.8654819,89.0061064 Z M25.5815904,87.2302652 L26.1917291,87.2302652 L26.1917291,84.8050313 L27.2400702,84.8050313 L27.2400702,84.2731001 L26.1917291,84.2731001 L26.1917291,82.2077609 L25.5815904,82.2077609 L25.5815904,87.2302652 Z" id="Shape" fill="#001A5B" fill-rule="nonzero"></path>
                <path d="M32.1609348,84.0696204 L32.1609348,82.8022782 L31.5506959,82.8022782 L31.5506959,84.0696204 C31.5428852,85.3879326 30.6862076,86.7178608 29.6496827,87.1911114 L30.0408204,87.7075213 C30.8544388,87.2967566 31.5389798,86.4166468 31.8597208,85.3683057 C32.1921778,86.3579661 32.8767188,87.1833007 33.6708104,87.5666276 L34.0463266,87.081661 C33.0214177,86.616121 32.1570295,85.3409681 32.1609348,84.0696204 Z M34.8051698,89.1704323 L35.4232194,89.1704323 L35.4232194,82.1999502 L34.8051698,82.1999502 L34.8051698,89.1704323 Z" id="Shape" fill="#001A5B" fill-rule="nonzero"></path>
                <path d="M2.34111227,76.4449389 C3.81529879,76.4449389 4.67781447,75.2568056 4.68222053,73.1709382 C4.67781447,71.0981889 3.80210065,69.8968374 2.34111227,69.8968374 C0.875717827,69.8968374 -1.73433206e-14,71.0981889 -1.73433206e-14,73.1709382 C-1.73433206e-14,75.2568056 0.866915727,76.4449389 2.34111227,76.4449389 Z M0.968124857,73.1709382 C0.968124857,71.5866604 1.48299263,70.7197687 2.34111227,70.7153626 C3.19482585,70.7197687 3.71408967,71.5866604 3.71408967,73.1709382 C3.71408967,74.759522 3.19922189,75.6087895 2.34111227,75.6087895 C1.47859659,75.6087895 0.963728814,74.759522 0.968124857,73.1709382 Z" id="Shape" fill="#001A5B" fill-rule="nonzero"></path>
                <path d="M7.84183397,76.3569179 C9.78247172,76.3569179 10.9002082,75.1511604 10.9046143,73.1621261 C10.9002082,71.1773978 9.78247172,69.9848584 7.90343866,69.9848584 L5.77356077,69.9848584 L5.77356077,76.3569179 L7.84183397,76.3569179 Z M6.74169163,75.5120565 L6.74169163,70.82982 L7.84183397,70.82982 C9.23241557,70.82982 9.94529555,71.6614632 9.94529555,73.1621261 C9.94529555,74.667095 9.23241557,75.5076505 7.78903138,75.5120565 L6.74169163,75.5120565 Z" id="Shape" fill="#001A5B" fill-rule="nonzero"></path>
                <polygon id="Path" fill="#001A5B" fill-rule="nonzero" points="183.552148 69.9848584 182.601842 69.9848584 181.017664 71.0233861 181.017664 71.9475565 182.540758 70.9529893 182.575806 70.9529893 182.575806 76.3569179 183.552148 76.3569179"></polygon>
                <path d="M187.32834,76.3569179 C189.269007,76.3569179 190.386544,75.1511604 190.39155,73.1621261 C190.386544,71.1773978 189.269007,69.9848584 187.390425,69.9848584 L185.260497,69.9848584 L185.260497,76.3569179 L187.32834,76.3569179 Z M186.227827,75.5120565 L186.227827,70.82982 L187.32834,70.82982 C188.719252,70.82982 189.432232,71.6614632 189.432232,73.1621261 C189.432232,74.667095 188.719252,75.5076505 187.275267,75.5120565 L186.227827,75.5120565 Z" id="Shape" fill="#001A5B" fill-rule="nonzero"></path>
                <path d="M360.719696,76.3569179 L365.006589,76.3569179 L365.006589,75.5295806 L362.066548,75.5295806 L362.066548,75.4768081 L363.360326,74.1654053 C364.556971,72.9904902 364.891431,72.4228098 364.900443,71.7099298 C364.891431,70.6758082 364.042264,69.8968374 362.814576,69.8968374 C361.599906,69.8968374 360.711685,70.6669961 360.719696,71.8330991 L361.634954,71.8330991 C361.639961,71.1554676 362.088578,70.7065505 362.797553,70.7065505 C363.466472,70.7065505 363.976173,71.107001 363.976173,71.736266 C363.976173,72.2951343 363.628695,72.6999908 362.928733,73.426089 L360.719696,75.6528501 L360.719696,76.3569179 Z" id="Path" fill="#001A5B" fill-rule="nonzero"></path>
                <path d="M368.236029,76.3569179 C370.176697,76.3569179 371.294233,75.1511604 371.29924,73.1621261 C371.294233,71.1773978 370.176697,69.9848584 368.298114,69.9848584 L366.168186,69.9848584 L366.168186,76.3569179 L368.236029,76.3569179 Z M367.136517,75.5120565 L367.136517,70.82982 L368.236029,70.82982 C369.626941,70.82982 370.339921,71.6614632 370.339921,73.1621261 C370.339921,74.667095 369.626941,75.5076505 368.182956,75.5120565 L367.136517,75.5120565 Z" id="Shape" fill="#001A5B" fill-rule="nonzero"></path>
                <path d="M543.097406,76.4449389 C544.418222,76.4449389 545.399571,75.6660682 545.394601,74.6055103 C545.399571,73.8002033 544.892874,73.2148987 544.021677,73.0917294 L544.021677,73.0476688 C544.708621,72.8760328 545.157238,72.3568191 545.148225,71.6307209 C545.157238,70.6889263 544.369155,69.8968374 543.115431,69.8968374 C541.926797,69.8968374 540.967478,70.6010054 540.941443,71.6395331 L541.874725,71.6395331 C541.896756,71.0630406 542.468542,70.7065505 543.106419,70.7065505 C543.779344,70.7065505 544.214943,71.1025949 544.214943,71.6834935 C544.214943,72.2951343 543.709247,72.6999908 542.983249,72.6956849 L542.437499,72.6956849 L542.437499,73.4877738 L542.983249,73.4877738 C543.894502,73.4921798 544.418222,73.9409968 544.418222,74.5702619 C544.418222,75.1908149 543.859454,75.6087895 543.088394,75.6087895 C542.376415,75.6087895 541.821653,75.2523996 541.786604,74.6935313 L540.800248,74.6935313 C540.840303,75.736465 541.777592,76.4449389 543.097406,76.4449389 Z" id="Path" fill="#001A5B" fill-rule="nonzero"></path>
                <path d="M548.615993,76.3569179 C550.55666,76.3569179 551.674197,75.1511604 551.679203,73.1621261 C551.674197,71.1773978 550.55666,69.9848584 548.678078,69.9848584 L546.54815,69.9848584 L546.54815,76.3569179 L548.615993,76.3569179 Z M547.51548,75.5120565 L547.51548,70.82982 L548.615993,70.82982 C550.006905,70.82982 550.719885,71.6614632 550.719885,73.1621261 C550.719885,74.667095 550.006905,75.5076505 548.56292,75.5120565 L547.51548,75.5120565 Z" id="Shape" fill="#001A5B" fill-rule="nonzero"></path>
                <polygon id="Path" fill="#979797" points="95.0755219 48.8258717 95.0755219 15.2631338 96.0768985 15.2631338 96.0768985 48.8258717"></polygon>
                <polygon id="Path" fill="#979797" points="275.323304 48.8258717 275.323304 15.2631338 276.324681 15.2631338 276.324681 48.8258717"></polygon>
                <polygon id="Path" fill="#979797" points="455.571086 48.8258717 455.571086 15.2631338 456.572463 15.2631338 456.572463 48.8258717"></polygon>
                <polygon id="Path" fill="#979797" points="635.818868 48.8258717 635.818868 15.2631338 636.820245 15.2631338 636.820245 48.8258717"></polygon>
                <polygon id="Path" fill="#979797" points="456.572463 37.3032318 456.572463 16.2743239 455.571086 16.2743239 455.571086 37.3032318"></polygon>
                <polygon id="Path" fill="#979797" points="636.820245 37.3032318 636.820245 16.2743239 635.818868 16.2743239 635.818868 37.3032318"></polygon>
                <rect id="Rectangle" fill="#001A5B" fill-rule="nonzero" x="546.195665" y="20.2798302" width="173.238146" height="24.0330376"></rect>
                <path d="M615.417823,35.1029071 L611.85793,35.1029071 L611.85793,33.1959857 L610.938666,33.1959857 L610.938666,35.1029071 L607.3988,35.1029071 L607.3988,35.8657557 L615.417823,35.8657557 L615.417823,35.1029071 Z M607.790338,32.7755077 L608.141821,33.4992025 C609.608838,33.2693866 610.826512,32.5750321 611.393291,31.5531273 C611.966078,32.5750321 613.187758,33.2693866 614.654774,33.4992025 L615.007259,32.7755077 C613.207785,32.5114447 611.912004,31.4944466 611.867943,30.2623529 L614.674802,30.2623529 L614.674802,29.5093177 L611.85793,29.5093177 L611.85793,28.3358045 L610.938666,28.3358045 L610.938666,29.5093177 L608.122795,29.5093177 L608.122795,30.2623529 L610.929654,30.2623529 C610.885593,31.4944466 609.589812,32.5114447 607.790338,32.7755077 Z" id="Shape" fill="#FFFFFF" fill-rule="nonzero"></path>
                <path d="M623.143444,29.0203455 L616.894854,29.0203455 L616.894854,29.7733807 L622.214166,29.7733807 L622.214166,29.8809286 C622.209159,30.9321737 622.209159,32.1740809 621.871695,33.8708134 L622.810987,33.9685477 C623.138437,32.1740809 623.138437,30.961514 623.143444,29.8809286 L623.143444,29.0203455 Z M616.053697,35.7581078 L624.04268,35.7581078 L624.04268,34.9855457 L620.014142,34.9855457 L620.014142,31.8953978 L619.094878,31.8953978 L619.094878,34.9855457 L616.053697,34.9855457 L616.053697,35.7581078 Z" id="Shape" fill="#FFFFFF" fill-rule="nonzero"></path>
                <polygon id="Path" fill="#FFFFFF" fill-rule="nonzero" points="631.807354 32.2181415 626.634242 32.2181415 626.634242 29.6071522 631.729246 29.6071522 631.729246 28.854117 625.704965 28.854117 625.704965 32.9613632 628.238448 32.9613632 628.238448 35.1029071 624.707594 35.1029071 624.707594 35.8657557 632.726617 35.8657557 632.726617 35.1029071 629.157711 35.1029071 629.157711 32.9613632 631.807354 32.9613632"></polygon>
                <path d="M636.110269,36.1101918 L640.872816,36.1101918 L640.872816,35.1909281 L637.606325,35.1909281 L637.606325,35.1322474 L639.044302,33.6752445 C640.37413,32.3696497 640.745641,31.7389828 640.755655,30.9467938 C640.745641,29.7978143 639.802344,28.9323245 638.437468,28.9323245 C637.088614,28.9323245 636.100255,29.7880008 636.110269,31.0837821 L637.127667,31.0837821 C637.132674,30.3307469 637.63136,29.8320614 638.418442,29.8320614 C639.161463,29.8320614 639.728242,30.276973 639.728242,30.9761341 C639.728242,31.5971879 639.342712,32.0470062 638.564643,32.8537152 L636.110269,35.3278163 L636.110269,36.1101918 Z" id="Path" fill="#FFFFFF" fill-rule="nonzero"></path>
                <path d="M642.76041,36.1786859 C643.136928,36.1737792 643.449358,35.8657557 643.454364,35.4843314 C643.449358,35.1029071 643.136928,34.7899769 642.76041,34.7899769 C642.378886,34.7899769 642.060448,35.1029071 642.065455,35.4843314 C642.060448,35.8657557 642.378886,36.1737792 642.76041,36.1786859 Z" id="Path" fill="#FFFFFF" fill-rule="nonzero"></path>
                <path d="M646.936151,36.2080263 C648.451234,36.2080263 649.531719,35.3767836 649.536726,34.2227972 C649.531719,33.313347 648.876819,32.5701253 648.050683,32.4430506 L648.050683,32.4038968 C648.764664,32.2376683 649.258343,31.5922811 649.26335,30.8197191 C649.258343,29.7293201 648.270986,28.9323245 646.936151,28.9323245 C645.581288,28.9323245 644.598938,29.7293201 644.598938,30.8197191 C644.598938,31.5922811 645.082603,32.2376683 645.811605,32.4038968 L645.811605,32.4430506 C644.975455,32.5701253 644.324561,33.313347 644.334574,34.2227972 C644.324561,35.3767836 645.395032,36.2080263 646.936151,36.2080263 Z M645.43008,34.1445897 C645.41506,33.4160883 646.055941,32.8830555 646.936151,32.8830555 C647.806347,32.8830555 648.44122,33.4160883 648.44122,34.1445897 C648.44122,34.8389442 647.855414,35.3181029 646.936151,35.3181029 C646.001866,35.3181029 645.41506,34.8389442 645.43008,34.1445897 Z M645.644375,30.9174534 C645.649382,30.2574461 646.158081,29.8076278 646.936151,29.8124344 C647.693191,29.8076278 648.211905,30.2574461 648.206898,30.9174534 C648.211905,31.5824676 647.674165,32.0371927 646.936151,32.032286 C646.178109,32.0371927 645.649382,31.5775609 645.644375,30.9174534 Z" id="Shape" fill="#FFFFFF" fill-rule="nonzero"></path>
                <path d="M652.275491,32.3941835 C653.228801,32.4038968 653.756527,31.6900155 653.761533,30.6338636 C653.756527,29.5973387 653.247827,28.8785506 652.275491,28.8834324 C651.331193,28.8785506 650.778433,29.5973387 650.788446,30.6338636 C650.778433,31.6852089 651.307159,32.4038968 652.275491,32.3941835 Z M651.590549,36.1101918 L652.480773,36.1101918 L657.340453,29.030159 L656.451231,29.030159 L651.590549,36.1101918 Z M651.590549,30.6338636 C651.595556,30.0031966 651.819864,29.5778119 652.275491,29.5679984 C652.749142,29.5630916 652.949417,29.9982899 652.949417,30.6338636 C652.949417,31.2842577 652.735122,31.7047357 652.275491,31.7096424 C651.819864,31.7047357 651.595556,31.2842577 651.590549,30.6338636 Z M655.25759,34.4966737 C655.252583,35.5381053 655.78131,36.2568934 656.743633,36.2568934 C657.697945,36.2568934 658.22567,35.5430121 658.230677,34.4966737 C658.22567,33.4502352 657.711964,32.7315472 656.743633,32.736429 C655.800336,32.7315472 655.252583,33.4502352 655.25759,34.4966737 Z M656.059693,34.4966737 C656.0647,33.8560931 656.294015,33.4307083 656.743633,33.4208949 C657.218285,33.4208949 657.418561,33.8511864 657.418561,34.4966737 C657.418561,35.1371542 657.203265,35.5625389 656.743633,35.5625389 C656.289008,35.5625389 656.0647,35.1371542 656.059693,34.4966737 Z" id="Shape" fill="#FFFFFF" fill-rule="nonzero"></path>
                <rect id="Rectangle" fill="#113287" fill-rule="nonzero" x="365.947883" y="20.2798302" width="180.247782" height="24.0330376"></rect>
                <path d="M442.004436,28.7611893 L435.755847,28.7611893 L435.755847,29.5142245 L441.075159,29.5142245 L441.075159,29.6217723 C441.071153,30.6730174 441.071153,31.9149246 440.733689,33.6116571 L441.671979,33.7093914 C441.999429,31.9149246 441.999429,30.7023578 442.004436,29.6217723 L442.004436,28.7611893 Z M434.91469,35.4989515 L442.904674,35.4989515 L442.904674,34.7264896 L438.875135,34.7264896 L438.875135,31.6362415 L437.955871,31.6362415 L437.955871,34.7264896 L434.91469,34.7264896 L434.91469,35.4989515 Z" id="Shape" fill="#FFFFFF" fill-rule="nonzero"></path>
                <polygon id="Path" fill="#FFFFFF" fill-rule="nonzero" points="450.668346 31.9589852 445.495235 31.9589852 445.495235 29.3479959 450.590239 29.3479959 450.590239 28.5949608 444.566959 28.5949608 444.566959 32.7022069 447.09944 32.7022069 447.09944 34.8437508 443.569588 34.8437508 443.569588 35.6065995 451.58761 35.6065995 451.58761 34.8437508 448.018704 34.8437508 448.018704 32.7022069 450.668346 32.7022069"></polygon>
                <path d="M454.815047,34.4722401 L458.257779,34.4722401 L458.257779,35.8510355 L459.274177,35.8510355 L459.274177,34.4722401 L460.242508,34.4722401 L460.242508,33.5627899 L459.274177,33.5627899 L459.274177,28.7710028 L457.944349,28.7710028 L454.815047,33.6018436 L454.815047,34.4722401 Z M455.949606,33.5627899 L455.949606,33.5041093 L458.178671,30.0520638 L458.257779,30.0520638 L458.257779,33.5627899 L455.949606,33.5627899 Z" id="Shape" fill="#FFFFFF" fill-rule="nonzero"></path>
                <path d="M461.758592,35.9195297 C462.135109,35.9146229 462.447539,35.6065995 462.452546,35.2251752 C462.447539,34.8437508 462.135109,34.5308206 461.758592,34.5308206 C461.377067,34.5308206 461.05863,34.8437508 461.063637,35.2251752 C461.05863,35.6065995 461.377067,35.9146229 461.758592,35.9195297 Z" id="Path" fill="#FFFFFF" fill-rule="nonzero"></path>
                <path d="M465.934332,35.94887 C467.449415,35.94887 468.5299,35.1176273 468.534907,33.963641 C468.5299,33.0541908 467.875,32.3110692 467.048864,32.1838944 L467.048864,32.1447406 C467.762846,31.9785121 468.256524,31.3331249 468.261531,30.5605628 C468.256524,29.4701639 467.269167,28.6731683 465.934332,28.6731683 C464.57947,28.6731683 463.597119,29.4701639 463.597119,30.5605628 C463.597119,31.3331249 464.080784,31.9785121 464.809786,32.1447406 L464.809786,32.1838944 C463.973637,32.3110692 463.322742,33.0541908 463.332756,33.963641 C463.322742,35.1176273 464.394215,35.94887 465.934332,35.94887 Z M464.428262,33.8854334 C464.413241,33.156932 465.054122,32.6238992 465.934332,32.6238992 C466.804528,32.6238992 467.440402,33.156932 467.440402,33.8854334 C467.440402,34.579788 466.853596,35.0589466 465.934332,35.0589466 C465.000048,35.0589466 464.413241,34.579788 464.428262,33.8854334 Z M464.643558,30.6583973 C464.647563,29.9982899 465.156263,29.5484715 465.934332,29.5532781 C466.691373,29.5484715 467.210086,29.9982899 467.205079,30.6583973 C467.210086,31.3233114 466.672347,31.7780365 465.934332,31.7731297 C465.17629,31.7780365 464.647563,31.3184046 464.643558,30.6583973 Z" id="Shape" fill="#FFFFFF" fill-rule="nonzero"></path>
                <path d="M471.273672,32.1350272 C472.226982,32.1447406 472.754708,31.4308592 472.759715,30.3748075 C472.754708,29.3381825 472.246009,28.6193944 471.273672,28.6242761 C470.329374,28.6193944 469.777615,29.3381825 469.786628,30.3748075 C469.777615,31.4260526 470.305341,32.1447406 471.273672,32.1350272 Z M470.58873,35.8510355 L471.478954,35.8510355 L476.338635,28.7710028 L475.449412,28.7710028 L470.58873,35.8510355 Z M470.58873,30.3748075 C470.593737,29.7440404 470.819047,29.3186556 471.273672,29.3088421 C471.747323,29.3039354 471.947598,29.7391336 471.947598,30.3748075 C471.947598,31.0251014 471.733304,31.4455794 471.273672,31.4504862 C470.819047,31.4455794 470.593737,31.0251014 470.58873,30.3748075 Z M474.255771,34.2375174 C474.250765,35.2789491 474.779491,35.9977372 475.742816,35.9977372 C476.696126,35.9977372 477.223852,35.2838558 477.228858,34.2375174 C477.223852,33.1911791 476.710145,32.472391 475.742816,32.4772728 C474.798518,32.472391 474.250765,33.1911791 474.255771,34.2375174 Z M475.057874,34.2375174 C475.062881,33.5969369 475.292196,33.1715521 475.742816,33.1618387 C476.216467,33.1618387 476.416742,33.5920301 476.416742,34.2375174 C476.416742,34.8779979 476.202447,35.3033827 475.742816,35.3033827 C475.287189,35.3033827 475.062881,34.8779979 475.057874,34.2375174 Z" id="Shape" fill="#FFFFFF" fill-rule="nonzero"></path>
                <rect id="Rectangle" fill="#5B6EB4" fill-rule="nonzero" x="185.700101" y="20.2798302" width="180.247782" height="24.0330376"></rect>
                <path d="M260.294644,31.7829432 L252.305662,31.7829432 L252.305662,32.5359784 L255.835515,32.5359784 L255.835515,33.3769344 C254.207276,33.4600487 253.253966,34.0027948 253.253966,34.9220585 C253.253966,35.9146229 254.388525,36.4719891 256.295146,36.4671145 C258.177734,36.4719891 259.312294,35.9146229 259.317301,34.9220585 C259.312294,34.0027948 258.358984,33.4649554 256.754778,33.3769344 L256.754778,32.5359784 L260.294644,32.5359784 L260.294644,31.7829432 Z M252.72624,30.5899032 L253.048684,31.3233114 C254.568773,31.1472694 255.816488,30.5067889 256.300153,29.5778119 C256.774806,30.5067889 258.030532,31.1472694 259.551623,31.3233114 L259.88408,30.5899032 C258.279875,30.4285814 257.048182,29.7196068 256.921007,28.8687371 L259.580663,28.8687371 L259.580663,28.1256156 L253.03867,28.1256156 L253.03867,28.8687371 L255.669286,28.8687371 C255.542111,29.7147 254.300404,30.4285814 252.72624,30.5899032 Z M254.19224,34.9220585 C254.18825,34.3793124 254.955305,34.085909 256.295146,34.0810023 C257.614961,34.085909 258.388023,34.3793124 258.388023,34.9220585 C258.388023,35.4549911 257.614961,35.7630145 256.295146,35.753201 C254.955305,35.7630145 254.18825,35.4549911 254.19224,34.9220585 Z" id="Shape" fill="#FFFFFF" fill-rule="nonzero"></path>
                <polygon id="Path" fill="#FFFFFF" fill-rule="nonzero" points="268.059318 31.7634164 262.886207 31.7634164 262.886207 29.1524271 267.981211 29.1524271 267.981211 28.3993919 261.95693 28.3993919 261.95693 32.5066381 264.490412 32.5066381 264.490412 34.648182 260.959559 34.648182 260.959559 35.4110306 268.978582 35.4110306 268.978582 34.648182 265.409676 34.648182 265.409676 32.5066381 268.059318 32.5066381"></polygon>
                <polygon id="Path" fill="#FFFFFF" fill-rule="nonzero" points="275.051931 28.5754339 273.995479 28.5754339 272.235059 29.7293201 272.235059 30.7561317 273.926384 29.6511126 273.966439 29.6511126 273.966439 35.6554667 275.051931 35.6554667"></polygon>
                <path d="M279.412926,35.7532692 C280.934017,35.7630145 281.945407,34.7117694 281.945407,33.3377806 C281.945407,31.9834188 280.92901,31.0152879 279.667276,31.0103812 C278.89922,31.0152879 278.234306,31.3673719 277.847774,31.9687987 L277.769667,31.9687987 C277.769667,30.3699007 278.405541,29.4212967 279.501047,29.41639 C280.215029,29.4212967 280.669653,29.836868 280.810848,30.4138612 L281.877314,30.4138612 C281.711085,29.2893153 280.806842,28.4775994 279.501047,28.4775994 C277.804715,28.4775994 276.738249,29.8858353 276.733242,32.3501229 C276.733242,34.9660189 278.102124,35.7434877 279.412926,35.7532692 Z M277.896842,33.3671209 C277.906856,32.5799388 278.566763,31.8855843 279.432953,31.8904639 C280.283122,31.8855843 280.898969,32.5456917 280.898969,33.3574076 C280.898969,34.1837435 280.259089,34.8486576 279.402912,34.8535643 C278.532716,34.8486576 277.901849,34.1544032 277.896842,33.3671209 Z" id="Shape" fill="#FFFFFF" fill-rule="nonzero"></path>
                <path d="M283.461491,35.7239608 C283.838009,35.7190541 284.150438,35.4110306 284.155445,35.0296063 C284.150438,34.648182 283.838009,34.3352518 283.461491,34.3352518 C283.079967,34.3352518 282.76253,34.648182 282.767537,35.0296063 C282.76253,35.4110306 283.079967,35.7190541 283.461491,35.7239608 Z" id="Path" fill="#FFFFFF" fill-rule="nonzero"></path>
                <path d="M285.250951,34.2765711 L288.693684,34.2765711 L288.693684,35.6554667 L289.710081,35.6554667 L289.710081,34.2765711 L290.678412,34.2765711 L290.678412,33.3671209 L289.710081,33.3671209 L289.710081,28.5754339 L288.380253,28.5754339 L285.250951,33.4062748 L285.250951,34.2765711 Z M286.385511,33.3671209 L286.385511,33.3084403 L288.614575,29.856495 L288.693684,29.856495 L288.693684,33.3671209 L286.385511,33.3671209 Z" id="Shape" fill="#FFFFFF" fill-rule="nonzero"></path>
                <path d="M293.387136,31.9394584 C294.340446,31.9491717 294.869173,31.2352904 294.873179,30.1791385 C294.869173,29.1426136 294.360474,28.4238255 293.387136,28.4287073 C292.443839,28.4238255 291.891079,29.1426136 291.901093,30.1791385 C291.891079,31.2303836 292.418805,31.9491717 293.387136,31.9394584 Z M292.702194,35.6554667 L293.592418,35.6554667 L298.4531,28.5754339 L297.562876,28.5754339 L292.702194,35.6554667 Z M292.702194,30.1791385 C292.707201,29.5484715 292.932511,29.1230868 293.387136,29.1132733 C293.861788,29.1083665 294.062064,29.5435648 294.062064,30.1791385 C294.062064,30.8295326 293.846768,31.2500106 293.387136,31.2549173 C292.932511,31.2500106 292.707201,30.8295326 292.702194,30.1791385 Z M296.370237,34.0419486 C296.36523,35.0833802 296.892955,35.8021683 297.856279,35.8021683 C298.80959,35.8021683 299.337315,35.088287 299.342322,34.0419486 C299.337315,32.9955101 298.824611,32.2768221 297.856279,32.2817039 C296.912983,32.2768221 296.36523,32.9955101 296.370237,34.0419486 Z M297.171338,34.0419486 C297.176345,33.401368 297.406661,32.9759833 297.856279,32.9661698 C298.330932,32.9661698 298.531207,33.3964613 298.531207,34.0419486 C298.531207,34.6824291 298.315911,35.1078138 297.856279,35.1078138 C297.401655,35.1078138 297.176345,34.6824291 297.171338,34.0419486 Z" id="Shape" fill="#FFFFFF" fill-rule="nonzero"></path>
                <rect id="Rectangle" fill="#E2E6F6" fill-rule="nonzero" x="5.45231917" y="20.2798302" width="180.247782" height="24.0330376"></rect>
                <path d="M78.6926007,27.9397601 L77.7636237,27.9397601 L77.7636237,29.4945975 L75.861609,29.4945975 C75.9202897,29.2012943 75.9545368,28.8883641 75.9545368,28.5656204 L71.9451251,28.5656204 L71.9451251,29.328369 L74.9472521,29.328369 C74.7810236,30.7415116 73.5684567,31.856244 71.4952067,32.4479574 L71.8668175,33.1715521 C73.7640255,32.628806 75.0792335,31.6362415 75.6465133,30.2281058 L77.7636237,30.2281058 L77.7636237,31.293971 L75.5535856,31.293971 L75.5535856,32.0567196 L77.7636237,32.0567196 L77.7636237,33.1226849 L78.6926007,33.1226849 L78.6926007,27.9397601 Z M72.8545753,34.9317718 C72.8545753,35.9977372 74.0084616,36.6529379 75.8078351,36.6529379 C77.5826749,36.6529379 78.7464748,35.9977372 78.7512814,34.9317718 C78.7464748,33.8708134 77.5826749,33.225326 75.8078351,33.2205194 C74.0084616,33.225326 72.8545753,33.8708134 72.8545753,34.9317718 Z M73.7737389,34.9317718 C73.7737389,34.3059115 74.5561144,33.9490209 75.8078351,33.9539276 C77.0351222,33.9490209 77.8173976,34.3059115 77.8223044,34.9317718 C77.8173976,35.5479188 77.0351222,35.9048094 75.8078351,35.9097162 C74.5561144,35.9048094 73.7737389,35.5479188 73.7737389,34.9317718 Z" id="Shape" fill="#113287" fill-rule="nonzero"></path>
                <polygon id="Path" fill="#113287" fill-rule="nonzero" points="87.1417155 31.9687987 81.9686042 31.9687987 81.9686042 29.3577093 87.063508 29.3577093 87.063508 28.6047743 81.0396271 28.6047743 81.0396271 32.7119202 83.5724089 32.7119202 83.5724089 34.8535643 80.0421559 34.8535643 80.0421559 35.6163128 88.0609792 35.6163128 88.0609792 34.8535643 84.4916726 34.8535643 84.4916726 32.7119202 87.1417155 32.7119202"></polygon>
                <path d="M93.8502375,35.9585834 C95.3268674,35.9585834 96.3732058,34.9563055 96.3732058,33.5627899 C96.3732058,32.1985145 95.3904548,31.2108568 94.0555197,31.20595 C93.5176804,31.2108568 93.0189949,31.4015189 92.7255915,31.6852089 L92.6571975,31.6852089 L92.89182,29.6999798 L96.0114085,29.6999798 L96.0114085,28.7808163 L92.0019968,28.7808163 L91.542365,32.7217337 L92.559363,32.7217337 C92.7989924,32.2865355 93.2340905,32.0958734 93.8012702,32.0958734 C94.6911936,32.1056869 95.3268674,32.7315472 95.3268674,33.5920301 C95.3268674,34.4330863 94.7107204,35.0540399 93.8502375,35.0589466 C93.1363562,35.0540399 92.559363,34.614035 92.5006823,34.0126083 L91.454344,34.0126083 C91.5032111,35.1420609 92.5104958,35.9585834 93.8502375,35.9585834 Z" id="Path" fill="#113287" fill-rule="nonzero"></path>
                <path d="M99.9522258,28.6829139 C98.4121086,28.6731683 97.4098308,29.7293201 97.4098308,31.0788753 C97.4098308,32.4332372 98.4268289,33.4062748 99.6978761,33.4062748 C100.460925,33.4062748 101.125839,33.0444774 101.507364,32.4479574 L101.595485,32.4479574 C101.585471,34.0663822 100.94459,35.0148861 99.8540909,35.0197928 C99.1407102,35.0148861 98.6810784,34.5993148 98.5343767,34.0027948 L97.4684114,34.0027948 C97.6395466,35.1518744 98.549097,35.9585834 99.8540909,35.9585834 C101.551424,35.9585834 102.621896,34.5504476 102.621896,32.0665331 C102.616889,29.4750706 101.253014,28.6927953 99.9522258,28.6829139 Z M98.4561414,31.0593485 C98.4512625,30.2476327 99.0966497,29.5826185 99.9522258,29.5826185 C100.817415,29.5826185 101.448282,30.2818797 101.448282,31.049535 C101.448282,31.8318104 100.788375,32.5310716 99.9331996,32.5261925 C99.0722161,32.5310716 98.461076,31.8807777 98.4561414,31.0593485 Z" id="Shape" fill="#113287" fill-rule="nonzero"></path>
                <path d="M104.187047,35.929243 C104.563565,35.9243363 104.875994,35.6163128 104.881001,35.2349886 C104.875994,34.8535643 104.563565,34.5406341 104.187047,34.5406341 C103.805523,34.5406341 103.487085,34.8535643 103.492092,35.2349886 C103.487085,35.6163128 103.805523,35.9243363 104.187047,35.929243 Z" id="Path" fill="#113287" fill-rule="nonzero"></path>
                <path d="M108.362788,35.9585834 C109.87787,35.9585834 110.958356,35.1273407 110.963363,33.9734544 C110.958356,33.0640043 110.303455,32.3207826 109.47732,32.1937079 L109.47732,32.1545541 C110.191301,31.9883255 110.68498,31.3429383 110.689987,30.5703763 C110.68498,29.4799774 109.697623,28.6829818 108.362788,28.6829818 C107.007925,28.6829818 106.025575,29.4799774 106.025575,30.5703763 C106.025575,31.3429383 106.50924,31.9883255 107.238242,32.1545541 L107.238242,32.1937079 C106.402092,32.3207826 105.751197,33.0640043 105.761211,33.9734544 C105.751197,35.1273407 106.821669,35.9585834 108.362788,35.9585834 Z M106.856717,33.8952469 C106.841697,33.1666453 107.482578,32.6337127 108.362788,32.6337127 C109.232984,32.6337127 109.867857,33.1666453 109.867857,33.8952469 C109.867857,34.5895013 109.282051,35.0687601 108.362788,35.0687601 C107.428503,35.0687601 106.841697,34.5895013 106.856717,33.8952469 Z M107.071012,30.6681107 C107.076019,30.0080032 107.584718,29.5581849 108.362788,29.5630916 C109.119828,29.5581849 109.638541,30.0080032 109.633534,30.6681107 C109.638541,31.3331249 109.100802,31.78785 108.362788,31.7829432 C107.604746,31.78785 107.076019,31.3282181 107.071012,30.6681107 Z" id="Shape" fill="#113287" fill-rule="nonzero"></path>
                <path d="M113.702127,32.1447406 C114.655438,32.1545541 115.183163,31.4406727 115.18817,30.3845208 C115.183163,29.3479959 114.674464,28.6292078 113.702127,28.6340896 C112.757829,28.6292078 112.205069,29.3479959 112.215083,30.3845208 C112.205069,31.435766 112.733796,32.1545541 113.702127,32.1447406 Z M113.017186,35.860849 L113.90741,35.860849 L118.76709,28.7808163 L117.877868,28.7808163 L113.017186,35.860849 Z M113.017186,30.3845208 C113.022193,29.7537537 113.246501,29.328369 113.702127,29.3186556 C114.175779,29.3137489 114.376054,29.7489471 114.376054,30.3845208 C114.376054,31.0348148 114.161759,31.4553929 113.702127,31.4601995 C113.246501,31.4553929 113.022193,31.0348148 113.017186,30.3845208 Z M116.684227,34.2472308 C116.67922,35.2887626 117.207947,36.0075507 118.17027,36.0075507 C119.124582,36.0075507 119.652307,35.2936693 119.657314,34.2472308 C119.652307,33.2008924 119.138601,32.4821043 118.17027,32.4869861 C117.226973,32.4821043 116.67922,33.2008924 116.684227,34.2472308 Z M117.486329,34.2472308 C117.491336,33.6067503 117.720652,33.1813656 118.17027,33.1715521 C118.644922,33.1715521 118.845197,33.6018436 118.845197,34.2472308 C118.845197,34.8878114 118.629902,35.3131962 118.17027,35.3131962 C117.715645,35.3131962 117.491336,34.8878114 117.486329,34.2472308 Z" id="Shape" fill="#113287" fill-rule="nonzero"></path>
                <polygon id="Path" fill="#113287" points="4.4509426 64.3403991 4.4509426 0.252300832 6.45369573 0.252300832 6.45369573 64.3403991"></polygon>
                <polygon id="Path" fill="#979797" points="185.199413 64.0880522 185.199413 0 186.20079 0 186.20079 64.0880522"></polygon>
                <polygon id="Path" fill="#979797" points="365.447195 64.0880522 365.447195 0 366.448572 0 366.448572 64.0880522"></polygon>
                <polygon id="Path" fill="#979797" points="545.694977 64.0880522 545.694977 0 546.696354 0 546.696354 64.0880522"></polygon>
                <path d="M36.666829,70.3132098 L39.8532092,73.4994899 C40.0486779,73.6950587 40.0486779,74.0120946 39.8532092,74.2075633 L36.666829,77.3939435 C36.4712601,77.5895123 36.1542243,77.5895123 35.9587556,77.3939435 C35.7631867,77.1984748 35.7631867,76.881439 35.9587556,76.6858701 L38.2903608,74.3542649 L20.4729677,74.3542649 L20.4729677,73.3528884 L38.2903608,73.3528884 L35.9587556,71.0212832 C35.7631867,70.8257143 35.7631867,70.5086785 35.9587556,70.3132098 C36.1542243,70.1176409 36.4712601,70.1176409 36.666829,70.3132098 Z" id="Path" fill="#113287"></path>
                <polygon id="Path" fill="#001A5B" fill-rule="nonzero" points="719.889438 20.2798302 691.041782 20.2798302 691.041782 44.3128678 719.889438 44.3128678 727.444824 32.296349"></polygon>
            </g>
        </g>
    </g>
</svg>