<?xml version="1.0" encoding="UTF-8"?>
<svg width="727px" height="90px" viewBox="0 0 727 90" version="1.1" xmlns="http://www.w3.org/2000/svg" xmlns:xlink="http://www.w3.org/1999/xlink">
    <title>astigmatism</title>
    <g id="astigmatism" stroke="none" stroke-width="1" fill="none" fill-rule="evenodd">
        <g id="Group" transform="translate(0.000000, -0.000000)">
            <g id="AGE_30_39" transform="translate(0.000000, 0.002933)">
                <path d="M21.7090669,82.7084352 L21.0910173,82.7084352 L21.0910173,85.9707198 L21.6464809,85.9707198 C22.6987274,85.9707198 23.7547791,85.9042284 24.9321977,85.6577896 L24.8618009,85.1492906 C23.7274415,85.3840132 22.7026327,85.4465993 21.7090669,85.4465993 L21.7090669,82.7084352 Z M21.8654819,89.0061926 L26.4420732,89.0061926 L26.4420732,88.4897827 L22.4757208,88.4897827 L22.4757208,86.7373737 L21.8654819,86.7373737 L21.8654819,89.0061926 Z M25.5815904,87.2302512 L26.1917291,87.2302512 L26.1917291,84.8050173 L27.2400702,84.8050173 L27.2400702,84.2730861 L26.1917291,84.2730861 L26.1917291,82.2077469 L25.5815904,82.2077469 L25.5815904,87.2302512 Z" id="Shape" fill="#001A5B" fill-rule="nonzero"></path>
                <path d="M32.1609348,84.0697065 L32.1609348,82.8022642 L31.5506959,82.8022642 L31.5506959,84.0697065 C31.5428852,85.3879186 30.6862076,86.7178468 29.6496827,87.1911975 L30.0408204,87.7075073 C30.8544388,87.2967426 31.5389798,86.4166328 31.8597208,85.3682916 C32.1921778,86.3579521 32.8767188,87.1832867 33.6708104,87.5667137 L34.0463266,87.0816469 C33.0214177,86.616107 32.1570295,85.3409541 32.1609348,84.0697065 Z M34.8051698,89.1704183 L35.4232194,89.1704183 L35.4232194,82.1999362 L34.8051698,82.1999362 L34.8051698,89.1704183 Z" id="Shape" fill="#001A5B" fill-rule="nonzero"></path>
                <path d="M2.34111227,76.4449249 C3.81529879,76.4449249 4.67781447,75.2567916 4.68222053,73.1709242 C4.67781447,71.098275 3.80210065,69.8968234 2.34111227,69.8968234 C0.875717827,69.8968234 -1.73433206e-14,71.098275 -1.73433206e-14,73.1709242 C-1.73433206e-14,75.2567916 0.866915727,76.4449249 2.34111227,76.4449249 Z M0.968124857,73.1709242 C0.968124857,71.5866464 1.48299263,70.7197547 2.34111227,70.7153486 C3.19482585,70.7197547 3.71408967,71.5866464 3.71408967,73.1709242 C3.71408967,74.759508 3.19922189,75.6087755 2.34111227,75.6087755 C1.47859659,75.6087755 0.963728814,74.759508 0.968124857,73.1709242 Z" id="Shape" fill="#001A5B" fill-rule="nonzero"></path>
                <path d="M7.84183397,76.3569039 C9.78247172,76.3569039 10.9002082,75.1511464 10.9046143,73.1621121 C10.9002082,71.1774839 9.78247172,69.9848444 7.90343866,69.9848444 L5.77356077,69.9848444 L5.77356077,76.3569039 L7.84183397,76.3569039 Z M6.74169163,75.5120425 L6.74169163,70.8298059 L7.84183397,70.8298059 C9.23241557,70.8298059 9.94529555,71.6615493 9.94529555,73.1621121 C9.94529555,74.6670809 9.23241557,75.5076364 7.78903138,75.5120425 L6.74169163,75.5120425 Z" id="Shape" fill="#001A5B" fill-rule="nonzero"></path>
                <polygon id="Path" fill="#001A5B" fill-rule="nonzero" points="183.552148 69.9848444 182.601842 69.9848444 181.017664 71.023372 181.017664 71.9475425 182.540758 70.9529753 182.575806 70.9529753 182.575806 76.3569039 183.552148 76.3569039"></polygon>
                <path d="M187.32834,76.3569039 C189.269007,76.3569039 190.386544,75.1511464 190.39155,73.1621121 C190.386544,71.1774839 189.269007,69.9848444 187.390425,69.9848444 L185.260497,69.9848444 L185.260497,76.3569039 L187.32834,76.3569039 Z M186.227827,75.5120425 L186.227827,70.8298059 L187.32834,70.8298059 C188.719252,70.8298059 189.432232,71.6615493 189.432232,73.1621121 C189.432232,74.6670809 188.719252,75.5076364 187.275267,75.5120425 L186.227827,75.5120425 Z" id="Shape" fill="#001A5B" fill-rule="nonzero"></path>
                <path d="M360.719696,76.3569039 L365.006589,76.3569039 L365.006589,75.5295666 L362.066548,75.5295666 L362.066548,75.476794 L363.360326,74.1653913 C364.556971,72.9904762 364.891431,72.4227958 364.900443,71.7099158 C364.891431,70.6757942 364.042264,69.8968234 362.814576,69.8968234 C361.599906,69.8968234 360.711685,70.6669821 360.719696,71.8330851 L361.634954,71.8330851 C361.639961,71.1554536 362.088578,70.7065365 362.797553,70.7065365 C363.466472,70.7065365 363.976173,71.106987 363.976173,71.7363521 C363.976173,72.2952204 363.628695,72.700077 362.928733,73.4261751 L360.719696,75.652836 L360.719696,76.3569039 Z" id="Path" fill="#001A5B" fill-rule="nonzero"></path>
                <path d="M368.236029,76.3569039 C370.176697,76.3569039 371.294233,75.1511464 371.29924,73.1621121 C371.294233,71.1774839 370.176697,69.9848444 368.298114,69.9848444 L366.168186,69.9848444 L366.168186,76.3569039 L368.236029,76.3569039 Z M367.136517,75.5120425 L367.136517,70.8298059 L368.236029,70.8298059 C369.626941,70.8298059 370.339921,71.6615493 370.339921,73.1621121 C370.339921,74.6670809 369.626941,75.5076364 368.182956,75.5120425 L367.136517,75.5120425 Z" id="Shape" fill="#001A5B" fill-rule="nonzero"></path>
                <path d="M543.097406,76.4449249 C544.418222,76.4449249 545.399571,75.6660542 545.394601,74.6054963 C545.399571,73.8001893 544.892874,73.2148847 544.021677,73.0917153 L544.021677,73.0476548 C544.708621,72.8760188 545.157238,72.3568051 545.148225,71.6307069 C545.157238,70.6890124 544.369155,69.8968234 543.115431,69.8968234 C541.926797,69.8968234 540.967478,70.6009914 540.941443,71.639519 L541.874725,71.639519 C541.896756,71.0630265 542.468542,70.7065365 543.106419,70.7065365 C543.779344,70.7065365 544.214943,71.1025809 544.214943,71.6834795 C544.214943,72.2952204 543.709247,72.700077 542.983249,72.6956709 L542.437499,72.6956709 L542.437499,73.4877598 L542.983249,73.4877598 C543.894502,73.4921658 544.418222,73.9409828 544.418222,74.5702478 C544.418222,75.1908009 543.859454,75.6087755 543.088394,75.6087755 C542.376415,75.6087755 541.821653,75.2523856 541.786604,74.6935173 L540.800248,74.6935173 C540.840303,75.736451 541.777592,76.4449249 543.097406,76.4449249 Z" id="Path" fill="#001A5B" fill-rule="nonzero"></path>
                <path d="M548.615993,76.3569039 C550.55666,76.3569039 551.674197,75.1511464 551.679203,73.1621121 C551.674197,71.1774839 550.55666,69.9848444 548.678078,69.9848444 L546.54815,69.9848444 L546.54815,76.3569039 L548.615993,76.3569039 Z M547.51548,75.5120425 L547.51548,70.8298059 L548.615993,70.8298059 C550.006905,70.8298059 550.719885,71.6615493 550.719885,73.1621121 C550.719885,74.6670809 550.006905,75.5076364 548.56292,75.5120425 L547.51548,75.5120425 Z" id="Shape" fill="#001A5B" fill-rule="nonzero"></path>
                <polygon id="Path" fill="#979797" points="95.0755219 48.8259578 95.0755219 15.2631198 96.0768985 15.26322 96.0768985 48.8259578"></polygon>
                <polygon id="Path" fill="#979797" points="275.323304 48.8259578 275.323304 15.2631198 276.324681 15.26322 276.324681 48.8259578"></polygon>
                <polygon id="Path" fill="#979797" points="455.571086 48.8259578 455.571086 15.2631198 456.572463 15.26322 456.572463 48.8259578"></polygon>
                <polygon id="Path" fill="#979797" points="635.818868 48.8259578 635.818868 15.2631198 636.820245 15.26322 636.820245 48.8259578"></polygon>
                <polygon id="Path" fill="#979797" points="456.572463 37.3032178 456.572463 16.2743099 455.571086 16.2743099 455.571086 37.3032178"></polygon>
                <polygon id="Path" fill="#979797" points="636.820245 37.3032178 636.820245 16.2743099 635.818868 16.2743099 635.818868 37.3032178"></polygon>
                <rect id="Rectangle" fill="#001A5B" fill-rule="nonzero" x="546.195665" y="20.2798162" width="173.238146" height="24.0330376"></rect>
                <path d="M616.337087,35.1028931 L612.777193,35.1028931 L612.777193,33.1960718 L611.85793,33.1960718 L611.85793,35.1028931 L608.318063,35.1028931 L608.318063,35.8657417 L616.337087,35.8657417 L616.337087,35.1028931 Z M608.709602,32.7754936 L609.061085,33.4991885 C610.528102,33.2693726 611.745775,32.5750181 612.312555,31.5531133 C612.885342,32.5750181 614.107021,33.2693726 615.574038,33.4991885 L615.926523,32.7754936 C614.127049,32.5115308 612.831268,31.4944326 612.787207,30.2623389 L615.594066,30.2623389 L615.594066,29.5093037 L612.777193,29.5093037 L612.777193,28.3357905 L611.85793,28.3357905 L611.85793,29.5093037 L609.042059,29.5093037 L609.042059,30.2623389 L611.847916,30.2623389 C611.804857,31.4944326 610.509075,32.5115308 608.709602,32.7754936 Z" id="Shape" fill="#FFFFFF" fill-rule="nonzero"></path>
                <path d="M624.062707,29.0203315 L617.814117,29.0203315 L617.814117,29.7733667 L623.13343,29.7733667 L623.13343,29.8809145 C623.128423,30.9321597 623.128423,32.1740669 622.790959,33.8707993 L623.73025,33.9685337 C624.0577,32.1740669 624.0577,30.9615 624.062707,29.8809145 L624.062707,29.0203315 Z M616.972961,35.7580937 L624.961943,35.7580937 L624.961943,34.9856319 L620.933405,34.9856319 L620.933405,31.8953838 L620.014142,31.8953838 L620.014142,34.9856319 L616.972961,34.9856319 L616.972961,35.7580937 Z" id="Shape" fill="#FFFFFF" fill-rule="nonzero"></path>
                <polygon id="Path" fill="#FFFFFF" fill-rule="nonzero" points="632.726617 32.2181274 627.553506 32.2181274 627.553506 29.6071382 632.64851 29.6071382 632.64851 28.854103 626.624228 28.854103 626.624228 32.9613491 629.157711 32.9613491 629.157711 35.1028931 625.626857 35.1028931 625.626857 35.8657417 633.645881 35.8657417 633.645881 35.1028931 630.076975 35.1028931 630.076975 32.9613491 632.726617 32.9613491"></polygon>
                <polygon id="Path" fill="#FFFFFF" fill-rule="nonzero" points="639.71923 29.030145 638.662778 29.030145 636.902358 30.1840312 636.902358 31.2108428 638.593683 30.1058237 638.633738 30.1058237 638.633738 36.1101777 639.71923 36.1101777"></polygon>
                <path d="M641.811105,36.1786719 C642.187623,36.1737652 642.501054,35.8657417 642.506061,35.4843174 C642.501054,35.1028931 642.187623,34.790063 641.811105,34.790063 C641.430582,34.790063 641.112145,35.1028931 641.117152,35.4843174 C641.112145,35.8657417 641.430582,36.1737652 641.811105,36.1786719 Z" id="Path" fill="#FFFFFF" fill-rule="nonzero"></path>
                <path d="M646.055941,36.208079 C647.57603,36.2177256 648.588422,35.1664805 648.588422,33.7925918 C648.588422,32.4381299 647.571024,31.469999 646.31029,31.4650923 C645.542235,31.469999 644.877321,31.822083 644.490789,32.4235098 L644.412682,32.4235098 C644.412682,30.8246118 645.048556,29.8760078 646.144062,29.871101 C646.857042,29.8760078 647.312668,30.2916792 647.453862,30.8685722 L648.520328,30.8685722 C648.3541,29.7440264 647.448856,28.9323105 646.144062,28.9323105 C644.446729,28.9323105 643.381264,30.3405464 643.376257,32.804834 C643.376257,35.42073 644.745139,36.1981987 646.055941,36.208079 Z M644.539857,33.8219322 C644.54987,33.0346499 645.209778,32.3403955 646.074967,32.345176 C646.926137,32.3403955 647.541984,33.0004028 647.541984,33.8121187 C647.541984,34.6384546 646.901103,35.3033686 646.045927,35.3082754 C645.175731,35.3033686 644.544864,34.6091143 644.539857,33.8219322 Z" id="Shape" fill="#FFFFFF" fill-rule="nonzero"></path>
                <path d="M651.356227,32.3941694 C652.309537,32.4038828 652.837263,31.6900014 652.84227,30.6339497 C652.837263,29.5973247 652.328564,28.8785366 651.356227,28.8834184 C650.411929,28.8785366 649.859169,29.5973247 649.869183,30.6339497 C649.859169,31.6851948 650.387896,32.4038828 651.356227,32.3941694 Z M650.671285,36.1101777 L651.561509,36.1101777 L656.42119,29.030145 L655.531967,29.030145 L650.671285,36.1101777 Z M650.671285,30.6339497 C650.676292,30.0031826 650.901602,29.5777979 651.356227,29.5679844 C651.829878,29.5630776 652.030153,29.9982759 652.030153,30.6339497 C652.030153,31.2842437 651.815859,31.7047217 651.356227,31.7096284 C650.901602,31.7047217 650.676292,31.2842437 650.671285,30.6339497 Z M654.338326,34.4966597 C654.333319,35.5380913 654.862046,36.2568794 655.825371,36.2568794 C656.778681,36.2568794 657.306406,35.5429981 657.311413,34.4966597 C657.306406,33.4503213 656.7927,32.7315332 655.825371,32.736415 C654.881072,32.7315332 654.333319,33.4503213 654.338326,34.4966597 Z M655.140429,34.4966597 C655.145436,33.8560791 655.374751,33.4306943 655.825371,33.420981 C656.299022,33.420981 656.499297,33.8511724 656.499297,34.4966597 C656.499297,35.1371401 656.285002,35.5625249 655.825371,35.5625249 C655.369744,35.5625249 655.145436,35.1371401 655.140429,34.4966597 Z" id="Shape" fill="#FFFFFF" fill-rule="nonzero"></path>
                <rect id="Rectangle" fill="#113287" fill-rule="nonzero" x="365.947883" y="20.2798162" width="180.247782" height="24.0330376"></rect>
                <path d="M442.29784,28.7611753 L436.04925,28.7611753 L436.04925,29.5142104 L441.368562,29.5142104 L441.368562,29.6217583 C441.363555,30.6730034 441.363555,31.9150108 441.027093,33.6116431 L441.965383,33.7093774 C442.292833,31.9150108 442.292833,30.7023437 442.29784,29.6217583 L442.29784,28.7611753 Z M435.208094,35.4990376 L443.198077,35.4990376 L443.198077,34.7264756 L439.168538,34.7264756 L439.168538,31.6362275 L438.249274,31.6362275 L438.249274,34.7264756 L435.208094,34.7264756 L435.208094,35.4990376 Z" id="Shape" fill="#FFFFFF" fill-rule="nonzero"></path>
                <polygon id="Path" fill="#FFFFFF" fill-rule="nonzero" points="450.96175 31.9589712 445.788638 31.9589712 445.788638 29.3479819 450.883642 29.3479819 450.883642 28.5949468 444.860362 28.5949468 444.860362 32.7021929 447.392844 32.7021929 447.392844 34.8438369 443.862991 34.8438369 443.862991 35.6065855 451.881013 35.6065855 451.881013 34.8438369 448.312107 34.8438369 448.312107 32.7021929 450.96175 32.7021929"></polygon>
                <path d="M457.77812,35.948856 C459.245137,35.948856 460.335636,35.0833662 460.330662,33.9050464 C460.335636,33.0102163 459.772862,32.3599224 458.804531,32.2230342 L458.804531,32.1740669 C459.56758,31.9834048 460.066265,31.4064116 460.056252,30.5997026 C460.066265,29.5533643 459.191062,28.6732544 457.798148,28.6732544 C456.477332,28.6732544 455.411867,29.4555298 455.382827,30.609416 L456.419252,30.609416 C456.443285,29.9689355 457.079159,29.5728911 457.788134,29.5728911 C458.536162,29.5728911 459.019827,30.012896 459.019827,30.6583833 C459.019827,31.3380176 458.458055,31.7878359 457.650945,31.7829292 L457.045112,31.7829292 L457.045112,32.6630391 L457.650945,32.6630391 C458.663337,32.6679458 459.245137,33.1667315 459.245137,33.8658926 C459.245137,34.5553404 458.624283,35.0197788 457.768106,35.0197788 C456.976017,35.0197788 456.360171,34.6237344 456.321117,34.0027808 L455.225611,34.0027808 C455.269672,35.1615737 456.311103,35.948856 457.77812,35.948856 Z" id="Path" fill="#FFFFFF" fill-rule="nonzero"></path>
                <path d="M461.992914,35.9195156 C462.369432,35.9146089 462.682862,35.6065855 462.686868,35.2251611 C462.682862,34.8438369 462.369432,34.5309068 461.992914,34.5309068 C461.61139,34.5309068 461.293953,34.8438369 461.29896,35.2251611 C461.293953,35.6065855 461.61139,35.9146089 461.992914,35.9195156 Z" id="Path" fill="#FFFFFF" fill-rule="nonzero"></path>
                <polygon id="Path" fill="#FFFFFF" fill-rule="nonzero" points="463.99767 35.8510215 465.122216 35.8510215 468.271545 29.7293061 468.271545 28.7709888 463.508998 28.7709888 463.508998 29.6902524 467.156012 29.6902524 467.156012 29.7489331"></polygon>
                <path d="M470.980269,32.1350132 C471.933579,32.1447265 472.461305,31.4309453 472.466311,30.3747935 C472.461305,29.3381684 471.952605,28.6193803 470.980269,28.6242621 C470.035971,28.6193803 469.484212,29.3381684 469.493224,30.3747935 C469.484212,31.4260386 470.011938,32.1447265 470.980269,32.1350132 Z M470.295327,35.8510215 L471.185551,35.8510215 L476.045231,28.7709888 L475.156009,28.7709888 L470.295327,35.8510215 Z M470.295327,30.3747935 C470.300334,29.7440264 470.525644,29.3186416 470.980269,29.3088281 C471.45392,29.3039214 471.655196,29.7391196 471.655196,30.3747935 C471.655196,31.0250874 471.439901,31.4455654 470.980269,31.4504722 C470.525644,31.4455654 470.300334,31.0250874 470.295327,30.3747935 Z M473.962368,34.2375034 C473.957361,35.2789351 474.486088,35.9977232 475.449412,35.9977232 C476.402723,35.9977232 476.930448,35.2838418 476.935455,34.2375034 C476.930448,33.1911651 476.416742,32.472377 475.449412,32.4772587 C474.505114,32.472377 473.957361,33.1911651 473.962368,34.2375034 Z M474.764471,34.2375034 C474.769478,33.5969228 474.998793,33.1715381 475.449412,33.1618247 C475.923063,33.1618247 476.123339,33.5921162 476.123339,34.2375034 C476.123339,34.8779839 475.909044,35.3033686 475.449412,35.3033686 C474.993786,35.3033686 474.769478,34.8779839 474.764471,34.2375034 Z" id="Shape" fill="#FFFFFF" fill-rule="nonzero"></path>
                <rect id="Rectangle" fill="#5B6EB4" fill-rule="nonzero" x="185.700101" y="20.2798162" width="180.247782" height="24.0330376"></rect>
                <path d="M261.409177,31.7829292 L253.420194,31.7829292 L253.420194,32.5359644 L256.950047,32.5359644 L256.950047,33.3769204 C255.321808,33.4600347 254.368498,34.0027808 254.368498,34.9220445 C254.368498,35.9146089 255.503058,36.4719751 257.409679,36.4671993 C259.292267,36.4719751 260.426826,35.9146089 260.431833,34.9220445 C260.426826,34.0027808 259.473516,33.4649414 257.86931,33.3769204 L257.86931,32.5359644 L261.409177,32.5359644 L261.409177,31.7829292 Z M253.840772,30.5898891 L254.163216,31.3232973 C255.684307,31.1473555 256.931021,30.5067749 257.414685,29.5777979 C257.889338,30.5067749 259.146066,31.1473555 260.666155,31.3232973 L260.998612,30.5898891 C259.395408,30.4285674 258.162714,29.7195928 258.035539,28.8688232 L260.696196,28.8688232 L260.696196,28.1256016 L254.153202,28.1256016 L254.153202,28.8688232 L256.783818,28.8688232 C256.656643,29.714686 255.414936,30.4285674 253.840772,30.5898891 Z M255.307765,34.9220445 C255.302782,34.3792984 256.069837,34.085895 257.409679,34.0809883 C258.730494,34.085895 259.502556,34.3792984 259.502556,34.9220445 C259.502556,35.4549771 258.730494,35.7630005 257.409679,35.7532871 C256.069837,35.7630005 255.302782,35.4549771 255.307765,34.9220445 Z" id="Shape" fill="#FFFFFF" fill-rule="nonzero"></path>
                <polygon id="Path" fill="#FFFFFF" fill-rule="nonzero" points="269.17385 31.7634023 264.000739 31.7634023 264.000739 29.1524131 269.095743 29.1524131 269.095743 28.3993779 263.072463 28.3993779 263.072463 32.506624 265.604944 32.506624 265.604944 34.648168 262.075092 34.648168 262.075092 35.4110166 270.093114 35.4110166 270.093114 34.648168 266.524208 34.648168 266.524208 32.506624 269.17385 32.506624"></polygon>
                <polygon id="Path" fill="#FFFFFF" fill-rule="nonzero" points="276.166463 28.5754199 275.110011 28.5754199 273.349591 29.7293061 273.349591 30.7561177 275.041917 29.6510986 275.080971 29.6510986 275.080971 35.6554526 276.166463 35.6554526"></polygon>
                <polygon id="Path" fill="#FFFFFF" fill-rule="nonzero" points="280.654633 28.5754199 279.599182 28.5754199 277.838762 29.7293061 277.838762 30.7561177 279.530087 29.6510986 279.569141 29.6510986 279.569141 35.6554526 280.654633 35.6554526"></polygon>
                <path d="M282.74751,35.7239468 C283.124027,35.7190401 283.437458,35.4110166 283.441464,35.0295923 C283.437458,34.648168 283.124027,34.3352378 282.74751,34.3352378 C282.365985,34.3352378 282.048549,34.648168 282.053556,35.0295923 C282.048549,35.4110166 282.365985,35.7190401 282.74751,35.7239468 Z" id="Path" fill="#FFFFFF" fill-rule="nonzero"></path>
                <path d="M284.693185,35.6554526 L289.455731,35.6554526 L289.455731,34.736189 L286.190242,34.736189 L286.190242,34.6775083 L287.627218,33.2205054 C288.957046,31.9150108 289.328557,31.2842437 289.33857,30.4921548 C289.328557,29.3430752 288.38526,28.4775854 287.021385,28.4775854 C285.671529,28.4775854 284.684172,29.3332617 284.693185,30.629043 L285.710583,30.629043 C285.71559,29.8760078 286.214276,29.3773223 287.001358,29.3773223 C287.744379,29.3773223 288.312159,29.8222339 288.312159,30.5214951 C288.312159,31.1424487 287.925628,31.5922671 287.14856,32.3990762 L284.693185,34.8731773 L284.693185,35.6554526 Z" id="Path" fill="#FFFFFF" fill-rule="nonzero"></path>
                <path d="M292.272604,31.9394443 C293.225914,31.9491577 293.75364,31.2352763 293.758647,30.1792246 C293.75364,29.1425996 293.24494,28.4238115 292.272604,28.4286933 C291.328306,28.4238115 290.776547,29.1425996 290.78556,30.1792246 C290.776547,31.2304697 291.304273,31.9491577 292.272604,31.9394443 Z M291.587662,35.6554526 L292.477886,35.6554526 L297.337566,28.5754199 L296.448344,28.5754199 L291.587662,35.6554526 Z M291.587662,30.1792246 C291.592669,29.5484575 291.817979,29.1230728 292.272604,29.1132593 C292.746255,29.1083525 292.947532,29.5435508 292.947532,30.1792246 C292.947532,30.8295186 292.732236,31.2499966 292.272604,31.2549033 C291.817979,31.2499966 291.592669,30.8295186 291.587662,30.1792246 Z M295.254703,34.0419346 C295.249696,35.0833662 295.778423,35.8021543 296.741747,35.8021543 C297.695058,35.8021543 298.222783,35.088273 298.22779,34.0419346 C298.222783,32.9955962 297.709077,32.2768081 296.741747,32.2816899 C295.797449,32.2768081 295.249696,32.9955962 295.254703,34.0419346 Z M296.056806,34.0419346 C296.061813,33.401354 296.291128,32.9759692 296.741747,32.9662559 C297.215398,32.9662559 297.415674,33.3964473 297.415674,34.0419346 C297.415674,34.682415 297.201379,35.1077998 296.741747,35.1077998 C296.287122,35.1077998 296.061813,34.682415 296.056806,34.0419346 Z" id="Shape" fill="#FFFFFF" fill-rule="nonzero"></path>
                <rect id="Rectangle" fill="#E2E6F6" fill-rule="nonzero" x="5.45231917" y="20.2798162" width="180.247782" height="24.0330376"></rect>
                <path d="M78.3455236,27.9397461 L77.4164464,27.9397461 L77.4164464,29.4946836 L75.5144318,29.4946836 C75.5731124,29.2012803 75.6073595,28.8883501 75.6073595,28.5656064 L71.5979479,28.5656064 L71.5979479,29.3283549 L74.6000748,29.3283549 C74.4338463,30.7414976 73.2212794,31.8563301 71.1481295,32.4479434 L71.5197404,33.1715381 C73.4168483,32.628792 74.7321564,31.6362275 75.2993361,30.2280918 L77.4164464,30.2280918 L77.4164464,31.293957 L75.2064083,31.293957 L75.2064083,32.0568057 L77.4164464,32.0568057 L77.4164464,33.1226709 L78.3455236,33.1226709 L78.3455236,27.9397461 Z M72.5073981,34.9318579 C72.5073981,35.9977232 73.6612843,36.6529238 75.4606579,36.6529238 C77.2355978,36.6529238 78.3992975,35.9977232 78.4042043,34.9318579 C78.3992975,33.8707993 77.2355978,33.225312 75.4606579,33.2205054 C73.6612843,33.225312 72.5073981,33.8707993 72.5073981,34.9318579 Z M73.4266618,34.9318579 C73.4266618,34.3059976 74.2089371,33.9490068 75.4606579,33.9539136 C76.687945,33.9490068 77.4702204,34.3059976 77.4751271,34.9318579 C77.4702204,35.5479048 76.687945,35.9047954 75.4606579,35.9097022 C74.2089371,35.9047954 73.4266618,35.5479048 73.4266618,34.9318579 Z" id="Shape" fill="#113287" fill-rule="nonzero"></path>
                <polygon id="Path" fill="#113287" fill-rule="nonzero" points="86.7946384 31.9687847 81.621527 31.9687847 81.621527 29.3576953 86.7163307 29.3576953 86.7163307 28.6047602 80.6924499 28.6047602 80.6924499 32.7120064 83.2252316 32.7120064 83.2252316 34.8535503 79.6949787 34.8535503 79.6949787 35.6162988 87.7138019 35.6162988 87.7138019 34.8535503 84.1444953 34.8535503 84.1444953 32.7120064 86.7946384 32.7120064"></polygon>
                <path d="M93.6594753,35.9586375 C95.1801658,35.9683828 96.1922571,34.9171377 96.1922571,33.5431489 C96.1922571,32.1887871 95.175259,31.2206562 93.9137248,31.2157495 C93.1460695,31.2206562 92.4811555,31.5727402 92.0948244,32.1740669 L92.0166169,32.1740669 C92.0166169,30.575269 92.6522908,29.626665 93.7474963,29.6217583 C94.4613777,29.626665 94.9161028,30.0422363 95.0578977,30.6192295 L96.123863,30.6192295 C95.9576345,29.4946836 95.0529909,28.6829678 93.7474963,28.6829678 C92.050864,28.6829678 90.9848986,30.0912036 90.980092,32.5554912 C90.980092,35.1713872 92.3490739,35.948856 93.6594753,35.9586375 Z M92.1437917,33.5724893 C92.1535051,32.7853071 92.8136125,32.0909526 93.6791023,32.0958322 C94.5298718,32.0909526 95.1459187,32.7510601 95.1459187,33.5627759 C95.1459187,34.3891118 94.5054382,35.0540259 93.649762,35.0589326 C92.7793654,35.0540259 92.1485983,34.3597715 92.1437917,33.5724893 Z" id="Shape" fill="#113287" fill-rule="nonzero"></path>
                <path d="M97.1800149,34.4819394 L100.622147,34.4819394 L100.622147,35.860835 L101.639545,35.860835 L101.639545,34.4819394 L102.606875,34.4819394 L102.606875,33.5724893 L101.639545,33.5724893 L101.639545,28.7808022 L100.309717,28.7808022 L97.1800149,33.6116431 L97.1800149,34.4819394 Z M98.3143743,33.5724893 L98.3143743,33.5138086 L100.544039,30.0618633 L100.622147,30.0618633 L100.622147,33.5724893 L98.3143743,33.5724893 Z" id="Shape" fill="#113287" fill-rule="nonzero"></path>
                <path d="M104.122959,35.929229 C104.499477,35.9244224 104.812908,35.6162988 104.817915,35.2349746 C104.812908,34.8535503 104.499477,34.5406201 104.122959,34.5406201 C103.741435,34.5406201 103.423998,34.8535503 103.429005,35.2349746 C103.423998,35.6162988 103.741435,35.9244224 104.122959,35.929229 Z" id="Path" fill="#113287" fill-rule="nonzero"></path>
                <path d="M105.912419,34.4819394 L109.355152,34.4819394 L109.355152,35.860835 L110.371549,35.860835 L110.371549,34.4819394 L111.33988,34.4819394 L111.33988,33.5724893 L110.371549,33.5724893 L110.371549,28.7808022 L109.041721,28.7808022 L105.912419,33.6116431 L105.912419,34.4819394 Z M107.046979,33.5724893 L107.046979,33.5138086 L109.277044,30.0618633 L109.355152,30.0618633 L109.355152,33.5724893 L107.046979,33.5724893 Z" id="Shape" fill="#113287" fill-rule="nonzero"></path>
                <path d="M114.048604,32.1447265 C115.001914,32.15454 115.530641,31.4406587 115.535648,30.3845068 C115.530641,29.3479819 115.021942,28.6291938 114.048604,28.6340756 C113.105307,28.6291938 112.552547,29.3479819 112.562561,30.3845068 C112.552547,31.4357519 113.080273,32.15454 114.048604,32.1447265 Z M113.364664,35.860835 L114.253886,35.860835 L119.114568,28.7808022 L118.224344,28.7808022 L113.364664,35.860835 Z M113.364664,30.3845068 C113.36967,29.7538399 113.593979,29.3283549 114.048604,29.3186416 C114.523256,29.3137348 114.723532,29.7489331 114.723532,30.3845068 C114.723532,31.0349009 114.508236,31.4553789 114.048604,31.4602857 C113.593979,31.4553789 113.36967,31.0349009 113.364664,30.3845068 Z M117.031705,34.2473169 C117.026698,35.2887486 117.554423,36.0075366 118.517747,36.0075366 C119.471058,36.0075366 119.999785,35.2936553 120.004792,34.2473169 C119.999785,33.2008784 119.486078,32.4821904 118.517747,32.4869731 C117.574451,32.4821904 117.026698,33.2008784 117.031705,34.2473169 Z M117.833807,34.2473169 C117.837813,33.6067363 118.068129,33.1813516 118.517747,33.1715381 C118.9924,33.1715381 119.192675,33.6018296 119.192675,34.2473169 C119.192675,34.8877974 118.977379,35.3131821 118.517747,35.3131821 C118.063122,35.3131821 117.837813,34.8877974 117.833807,34.2473169 Z" id="Shape" fill="#113287" fill-rule="nonzero"></path>
                <polygon id="Path" fill="#113287" points="4.4509426 64.3403851 4.4509426 0.252300832 6.45369573 0.252300832 6.45369573 64.3403851"></polygon>
                <polygon id="Path" fill="#979797" points="185.199413 64.0881383 185.199413 1.00137657e-06 186.20079 0 186.20079 64.0881383"></polygon>
                <polygon id="Path" fill="#979797" points="365.447195 64.0881383 365.447195 1.00137657e-06 366.448572 0 366.448572 64.0881383"></polygon>
                <polygon id="Path" fill="#979797" points="545.694977 64.0881383 545.694977 1.00137657e-06 546.696354 0 546.696354 64.0881383"></polygon>
                <path d="M36.666829,70.3128954 L39.8532092,73.4992756 C40.0486779,73.6948444 40.0486779,74.0118803 39.8532092,74.207349 L36.666829,77.3937292 C36.4712601,77.589298 36.1542243,77.589298 35.9587556,77.3937292 C35.7631867,77.1981604 35.7631867,76.8812247 35.9587556,76.6856558 L38.2903608,74.3540506 L20.4729677,74.3540506 L20.4729677,73.3526741 L38.2903608,73.3526741 L35.9587556,71.0209687 C35.7631867,70.8255 35.7631867,70.5084642 35.9587556,70.3128954 C36.1542243,70.1174267 36.4712601,70.1174267 36.666829,70.3128954 Z" id="Path" fill="#113287"></path>
                <polygon id="Path" fill="#001A5B" fill-rule="nonzero" points="719.889438 20.2798162 691.041782 20.2798162 691.041782 44.3128538 719.889438 44.3128538 727.444824 32.296335"></polygon>
            </g>
        </g>
    </g>
</svg>