<svg width="727" height="90" viewBox="0 0 727 90" fill="none" xmlns="http://www.w3.org/2000/svg">
<rect width="727" height="90" fill="#727272"/>
<path d="M-1401 -1753C-1401 -1754.1 -1400.1 -1755 -1399 -1755H1914C1915.1 -1755 1916 -1754.1 1916 -1753V217C1916 218.105 1915.1 219 1914 219H-1399C-1400.1 219 -1401 218.105 -1401 217V-1753Z" fill="white"/>
<g clip-path="url(#clip0_1814_2379)">
<path d="M21.7091 83.1142H21.0911V86.3765H21.6465C22.6988 86.3765 23.7548 86.31 24.9322 86.0636L24.8618 85.5551C23.7275 85.7898 22.7027 85.8524 21.7091 85.8524V83.1142ZM21.8655 89.412H26.4421V88.8957H22.4758V87.1432H21.8655V89.412ZM25.5816 87.6361H26.1918V85.2109H27.2401V84.6789H26.1918V82.6135H25.5816V87.6361Z" fill="#001A5B"/>
<path d="M32.1609 84.4755V83.2081H31.5507V84.4755C31.5429 85.7937 30.6862 87.1236 29.6497 87.597L30.0408 88.1133C30.8544 87.7026 31.539 86.8225 31.8597 85.7742C32.1922 86.7638 32.8767 87.5892 33.6708 87.9725L34.0463 87.4874C33.0214 87.022 32.157 85.7467 32.1609 84.4755ZM34.8051 89.5763H35.4232V82.6057H34.8051V89.5763Z" fill="#001A5B"/>
<path d="M2.34111 76.8508C3.8153 76.8508 4.67781 75.6626 4.68222 73.5767C4.67781 71.5041 3.8021 70.3027 2.34111 70.3027C0.875718 70.3027 0 71.5041 0 73.5767C0 75.6626 0.866916 76.8508 2.34111 76.8508ZM0.968125 73.5767C0.968125 71.9926 1.48299 71.1257 2.34111 71.1213C3.19483 71.1257 3.71409 71.9926 3.71409 73.5767C3.71409 75.1653 3.19922 76.0147 2.34111 76.0147C1.4786 76.0147 0.963729 75.1653 0.968125 73.5767Z" fill="#001A5B"/>
<path d="M7.84183 76.7627C9.78247 76.7627 10.9002 75.5569 10.9046 73.5678C10.9002 71.5832 9.78247 70.3906 7.90344 70.3906H5.77356V76.7627H7.84183ZM6.74169 75.9177V71.2355H7.84183C9.23241 71.2355 9.94529 72.0672 9.94529 73.5678C9.94529 75.0729 9.23241 75.9133 7.78903 75.9177H6.74169Z" fill="#001A5B"/>
<path d="M183.552 70.3906H182.602L181.018 71.4292V72.3532L182.541 71.3588H182.576V76.7627H183.552V70.3906Z" fill="#001A5B"/>
<path d="M187.328 76.7627C189.269 76.7627 190.387 75.5569 190.392 73.5678C190.387 71.5832 189.269 70.3906 187.39 70.3906H185.26V76.7627H187.328ZM186.228 75.9177V71.2355H187.328C188.719 71.2355 189.432 72.0672 189.432 73.5678C189.432 75.0729 188.719 75.9133 187.275 75.9177H186.228Z" fill="#001A5B"/>
<path d="M360.72 76.7628H365.007V75.9355H362.067V75.8827L363.36 74.5713C364.557 73.3963 364.891 72.8286 364.9 72.1157C364.891 71.0816 364.042 70.3027 362.815 70.3027C361.6 70.3027 360.712 71.0728 360.72 72.239H361.635C361.64 71.5613 362.089 71.1124 362.798 71.1124C363.466 71.1124 363.976 71.5129 363.976 72.1422C363.976 72.701 363.629 73.1059 362.929 73.832L360.72 76.0586V76.7628Z" fill="#001A5B"/>
<path d="M368.236 76.7627C370.177 76.7627 371.294 75.5569 371.299 73.5678C371.294 71.5832 370.177 70.3906 368.298 70.3906H366.168V76.7627H368.236ZM367.137 75.9177V71.2355H368.236C369.627 71.2355 370.34 72.0672 370.34 73.5678C370.34 75.0729 369.627 75.9133 368.183 75.9177H367.137Z" fill="#001A5B"/>
<path d="M543.097 76.8508C544.418 76.8508 545.4 76.0719 545.395 75.0113C545.4 74.206 544.893 73.6208 544.022 73.4975V73.4536C544.709 73.2819 545.157 72.7626 545.148 72.0365C545.157 71.0948 544.369 70.3027 543.115 70.3027C541.927 70.3027 540.968 71.0068 540.942 72.0453H541.875C541.897 71.4688 542.469 71.1124 543.107 71.1124C543.779 71.1124 544.215 71.5085 544.215 72.0894C544.215 72.701 543.709 73.1059 542.983 73.1015H542.438V73.8936H542.983C543.895 73.898 544.418 74.3469 544.418 74.9762C544.418 75.5966 543.859 76.0147 543.088 76.0147C542.376 76.0147 541.822 75.6582 541.787 75.0993H540.8C540.84 76.1423 541.778 76.8508 543.097 76.8508Z" fill="#001A5B"/>
<path d="M548.616 76.7627C550.557 76.7627 551.674 75.5569 551.679 73.5678C551.674 71.5832 550.557 70.3906 548.678 70.3906H546.548V76.7627H548.616ZM547.515 75.9177V71.2355H548.616C550.007 71.2355 550.72 72.0672 550.72 73.5678C550.72 75.0729 550.007 75.9133 548.563 75.9177H547.515Z" fill="#001A5B"/>
<path fill-rule="evenodd" clip-rule="evenodd" d="M95.0756 49.2317V15.6689H96.0769V49.2317H95.0756Z" fill="#979797"/>
<path fill-rule="evenodd" clip-rule="evenodd" d="M275.323 49.2317V15.6689H276.325V49.2317H275.323Z" fill="#979797"/>
<path fill-rule="evenodd" clip-rule="evenodd" d="M455.571 49.2317V15.6689H456.572V49.2317H455.571Z" fill="#979797"/>
<path fill-rule="evenodd" clip-rule="evenodd" d="M635.819 49.2317V15.6689H636.82V49.2317H635.819Z" fill="#979797"/>
<path fill-rule="evenodd" clip-rule="evenodd" d="M456.572 37.7091V16.6802H455.571V37.7091H456.572Z" fill="#979797"/>
<path fill-rule="evenodd" clip-rule="evenodd" d="M636.82 37.7091V16.6802H635.819V37.7091H636.82Z" fill="#979797"/>
<path d="M719.434 20.6855H546.196V44.7186H719.434V20.6855Z" fill="#001A5B"/>
<path d="M546.196 20.6855H365.948V44.7186H546.196V20.6855Z" fill="#113287"/>
<path d="M365.948 20.6855H185.7V44.7186H365.948V20.6855Z" fill="#5B6EB4"/>
<path d="M185.7 20.6855H5.45227V44.7186H185.7V20.6855Z" fill="#E2E6F6"/>
<path fill-rule="evenodd" clip-rule="evenodd" d="M4.45093 64.7461V0.657959H6.45368V64.7461H4.45093Z" fill="#113287"/>
<path fill-rule="evenodd" clip-rule="evenodd" d="M185.199 64.4939V0.405762H186.201V64.4939H185.199Z" fill="#979797"/>
<path fill-rule="evenodd" clip-rule="evenodd" d="M365.447 64.4939V0.405762H366.449V64.4939H365.447Z" fill="#979797"/>
<path fill-rule="evenodd" clip-rule="evenodd" d="M545.695 64.4939V0.405762H546.696V64.4939H545.695Z" fill="#979797"/>
<path fill-rule="evenodd" clip-rule="evenodd" d="M36.6669 70.7189L39.8533 73.9053C40.0487 74.1008 40.0487 74.4178 39.8533 74.6133L36.6669 77.7997C36.4713 77.9952 36.1543 77.9952 35.9588 77.7997C35.7632 77.6041 35.7632 77.2871 35.9588 77.0916L38.2904 74.76H20.473V73.7586H38.2904L35.9588 71.4269C35.7632 71.2315 35.7632 70.9144 35.9588 70.7189C36.1543 70.5234 36.4713 70.5234 36.6669 70.7189Z" fill="#113287"/>
<path d="M719.889 20.6855H691.042V44.7186H719.889L727.445 32.7021L719.889 20.6855Z" fill="#001A5B"/>
<path d="M614.697 35.9941V36.7559H606.689V35.9941H610.225V34.0898H611.143V35.9941H614.697ZM607.08 33.6699C608.877 33.4062 610.171 32.3906 610.215 31.1602H607.412V30.4082H610.225V29.2363H611.143V30.4082H613.955V31.1602H611.152C611.196 32.3906 612.49 33.4062 614.287 33.6699L613.936 34.3926C612.471 34.1631 611.25 33.4697 610.679 32.4492C610.112 33.4697 608.896 34.1631 607.432 34.3926L607.08 33.6699ZM622.412 29.9199V30.7793C622.407 31.8584 622.407 33.0693 622.08 34.8613L621.143 34.7637C621.479 33.0693 621.479 31.8291 621.484 30.7793V30.6719H616.172V29.9199H622.412ZM615.332 36.6484V35.877H618.369V32.791H619.287V35.877H623.311V36.6484H615.332ZM631.064 33.1133V33.8555H628.418V35.9941H631.982V36.7559H623.975V35.9941H627.5V33.8555H624.971V29.7539H630.986V30.5059H625.898V33.1133H631.064ZM637.793 29.832C639.092 29.8418 640.454 30.623 640.459 33.2109C640.459 35.6914 639.39 37.0977 637.695 37.0977C636.392 37.0977 635.483 36.292 635.312 35.1445H636.377C636.523 35.7402 636.982 36.1553 637.695 36.1602C638.784 36.1553 639.424 35.208 639.434 33.5918H639.346C638.965 34.1875 638.301 34.5488 637.539 34.5488C636.27 34.5488 635.254 33.5771 635.254 32.2246C635.254 30.877 636.255 29.8223 637.793 29.832ZM636.299 32.2051C636.304 33.0254 636.914 33.6748 637.773 33.6699C638.628 33.6748 639.287 32.9766 639.287 32.1953C639.287 31.4287 638.657 30.7305 637.793 30.7305C636.938 30.7305 636.294 31.3945 636.299 32.2051ZM642.021 37.0684C641.641 37.0635 641.323 36.7559 641.328 36.375C641.323 35.9941 641.641 35.6816 642.021 35.6816C642.397 35.6816 642.71 35.9941 642.715 36.375C642.71 36.7559 642.397 37.0635 642.021 37.0684ZM643.809 35.623V34.7539L646.934 29.9297H648.262V34.7148H649.229V35.623H648.262V37H647.246V35.623H643.809ZM644.941 34.7148H647.246V31.209H647.168L644.941 34.6562V34.7148ZM651.934 33.2891C650.967 33.2988 650.439 32.5811 650.449 31.5312C650.439 30.4961 650.991 29.7783 651.934 29.7832C652.905 29.7783 653.413 30.4961 653.418 31.5312C653.413 32.5859 652.886 33.2988 651.934 33.2891ZM651.25 37L656.104 29.9297H656.992L652.139 37H651.25ZM651.25 31.5312C651.255 32.1807 651.479 32.6006 651.934 32.6055C652.393 32.6006 652.607 32.1807 652.607 31.5312C652.607 30.8965 652.407 30.4619 651.934 30.4668C651.479 30.4766 651.255 30.9014 651.25 31.5312ZM654.912 35.3887C654.907 34.3438 655.454 33.626 656.396 33.6309C657.363 33.626 657.876 34.3438 657.881 35.3887C657.876 36.4336 657.349 37.1465 656.396 37.1465C655.435 37.1465 654.907 36.4287 654.912 35.3887ZM655.713 35.3887C655.718 36.0283 655.942 36.4531 656.396 36.4531C656.855 36.4531 657.07 36.0283 657.07 35.3887C657.07 34.7441 656.87 34.3145 656.396 34.3145C655.947 34.3242 655.718 34.749 655.713 35.3887Z" fill="white"/>
<path d="M439.618 29.9199V30.7793C439.613 31.8584 439.613 33.0693 439.286 34.8613L438.349 34.7637C438.686 33.0693 438.686 31.8291 438.69 30.7793V30.6719H433.378V29.9199H439.618ZM432.538 36.6484V35.877H435.575V32.791H436.493V35.877H440.517V36.6484H432.538ZM448.271 33.1133V33.8555H445.624V35.9941H449.188V36.7559H441.181V35.9941H444.706V33.8555H442.177V29.7539H448.192V30.5059H443.104V33.1133H448.271ZM455.253 29.9297V37H454.169V31.0039H454.13L452.44 32.1074V31.082L454.198 29.9297H455.253ZM459.452 37.0977C458.114 37.0977 457.108 36.2822 457.06 35.1543H458.104C458.163 35.7549 458.739 36.1943 459.452 36.1992C460.312 36.1943 460.927 35.5742 460.927 34.7344C460.927 33.875 460.292 33.25 459.403 33.2402C458.837 33.2402 458.402 33.4307 458.163 33.8652H457.147L457.606 29.9297H461.61V30.8477H458.495L458.261 32.8301H458.329C458.622 32.5469 459.12 32.3564 459.657 32.3516C460.99 32.3564 461.972 33.3428 461.972 34.7051C461.972 36.0967 460.927 37.0977 459.452 37.0977ZM463.554 37.0684C463.173 37.0635 462.855 36.7559 462.86 36.375C462.855 35.9941 463.173 35.6816 463.554 35.6816C463.93 35.6816 464.242 35.9941 464.247 36.375C464.242 36.7559 463.93 37.0635 463.554 37.0684ZM467.792 37.0977C466.483 37.0879 465.116 36.3115 465.116 33.6992C465.121 31.2383 466.186 29.832 467.88 29.832C469.184 29.832 470.087 30.6426 470.253 31.7656H469.188C469.047 31.1895 468.593 30.7744 467.88 30.7695C466.786 30.7744 466.151 31.7217 466.151 33.3184H466.229C466.615 32.7178 467.279 32.3662 468.046 32.3613C469.306 32.3662 470.321 33.333 470.321 34.6855C470.321 36.0576 469.311 37.1074 467.792 37.0977ZM466.278 34.7148C466.283 35.501 466.913 36.1943 467.782 36.1992C468.637 36.1943 469.276 35.5303 469.276 34.7051C469.276 33.8945 468.661 33.2354 467.812 33.2402C466.947 33.2354 466.288 33.9287 466.278 34.7148ZM473.085 33.2891C472.118 33.2988 471.591 32.5811 471.601 31.5312C471.591 30.4961 472.143 29.7783 473.085 29.7832C474.057 29.7783 474.564 30.4961 474.569 31.5312C474.564 32.5859 474.037 33.2988 473.085 33.2891ZM472.401 37L477.255 29.9297H478.144L473.29 37H472.401ZM472.401 31.5312C472.406 32.1807 472.631 32.6006 473.085 32.6055C473.544 32.6006 473.759 32.1807 473.759 31.5312C473.759 30.8965 473.559 30.4619 473.085 30.4668C472.631 30.4766 472.406 30.9014 472.401 31.5312ZM476.063 35.3887C476.059 34.3438 476.605 33.626 477.548 33.6309C478.515 33.626 479.027 34.3438 479.032 35.3887C479.027 36.4336 478.5 37.1465 477.548 37.1465C476.586 37.1465 476.059 36.4287 476.063 35.3887ZM476.864 35.3887C476.869 36.0283 477.094 36.4531 477.548 36.4531C478.007 36.4531 478.222 36.0283 478.222 35.3887C478.222 34.7441 478.021 34.3145 477.548 34.3145C477.099 34.3242 476.869 34.749 476.864 35.3887Z" fill="white"/>
<path d="M259.501 33.1328V33.8848H255.966V34.7246C257.567 34.8125 258.52 35.3496 258.524 36.2676C258.52 37.2588 257.387 37.8154 255.507 37.8105C253.603 37.8154 252.47 37.2588 252.47 36.2676C252.47 35.3496 253.422 34.8076 255.048 34.7246V33.8848H251.522V33.1328H259.501ZM251.942 31.9414C253.515 31.7803 254.755 31.0674 254.882 30.2227H252.255V29.4805H258.788V30.2227H256.132C256.259 31.0723 257.489 31.7803 259.091 31.9414L258.759 32.6738C257.24 32.498 255.985 31.8584 255.512 30.9307C255.028 31.8584 253.783 32.498 252.265 32.6738L251.942 31.9414ZM253.407 36.2676C253.402 36.7998 254.169 37.1074 255.507 37.0977C256.825 37.1074 257.597 36.7998 257.597 36.2676C257.597 35.7256 256.825 35.4326 255.507 35.4277C254.169 35.4326 253.402 35.7256 253.407 36.2676ZM267.255 33.1133V33.8555H264.608V35.9941H268.173V36.7559H260.165V35.9941H263.69V33.8555H261.161V29.7539H267.177V30.5059H262.089V33.1133H267.255ZM274.062 37.0977C272.597 37.0977 271.557 36.3115 271.513 35.1543H272.606C272.646 35.7744 273.261 36.1699 274.052 36.1699C274.906 36.1699 275.526 35.7061 275.526 35.0176C275.526 34.3193 274.945 33.8213 273.935 33.8164H273.329V32.9375H273.935C274.74 32.9424 275.302 32.4932 275.302 31.8145C275.302 31.1699 274.818 30.7305 274.071 30.7305C273.363 30.7305 272.729 31.126 272.704 31.7656H271.669C271.698 30.6133 272.763 29.832 274.081 29.832C275.473 29.832 276.347 30.7109 276.337 31.7559C276.347 32.5615 275.849 33.1377 275.087 33.3281V33.377C276.054 33.5137 276.615 34.1631 276.61 35.0566C276.615 36.2334 275.526 37.0977 274.062 37.0977ZM277.636 35.623V34.7539L280.761 29.9297H282.089V34.7148H283.056V35.623H282.089V37H281.073V35.623H277.636ZM278.769 34.7148H281.073V31.209H280.995L278.769 34.6562V34.7148ZM284.569 37.0684C284.188 37.0635 283.871 36.7559 283.876 36.375C283.871 35.9941 284.188 35.6816 284.569 35.6816C284.945 35.6816 285.258 35.9941 285.263 36.375C285.258 36.7559 284.945 37.0635 284.569 37.0684ZM288.808 37.0977C287.499 37.0879 286.132 36.3115 286.132 33.6992C286.137 31.2383 287.201 29.832 288.896 29.832C290.199 29.832 291.103 30.6426 291.269 31.7656H290.204C290.062 31.1895 289.608 30.7744 288.896 30.7695C287.802 30.7744 287.167 31.7217 287.167 33.3184H287.245C287.631 32.7178 288.295 32.3662 289.062 32.3613C290.321 32.3662 291.337 33.333 291.337 34.6855C291.337 36.0576 290.326 37.1074 288.808 37.0977ZM287.294 34.7148C287.299 35.501 287.929 36.1943 288.798 36.1992C289.652 36.1943 290.292 35.5303 290.292 34.7051C290.292 33.8945 289.677 33.2354 288.827 33.2402C287.963 33.2354 287.304 33.9287 287.294 34.7148ZM294.101 33.2891C293.134 33.2988 292.606 32.5811 292.616 31.5312C292.606 30.4961 293.158 29.7783 294.101 29.7832C295.072 29.7783 295.58 30.4961 295.585 31.5312C295.58 32.5859 295.053 33.2988 294.101 33.2891ZM293.417 37L298.271 29.9297H299.159L294.306 37H293.417ZM293.417 31.5312C293.422 32.1807 293.646 32.6006 294.101 32.6055C294.56 32.6006 294.774 32.1807 294.774 31.5312C294.774 30.8965 294.574 30.4619 294.101 30.4668C293.646 30.4766 293.422 30.9014 293.417 31.5312ZM297.079 35.3887C297.074 34.3438 297.621 33.626 298.563 33.6309C299.53 33.626 300.043 34.3438 300.048 35.3887C300.043 36.4336 299.516 37.1465 298.563 37.1465C297.602 37.1465 297.074 36.4287 297.079 35.3887ZM297.88 35.3887C297.885 36.0283 298.109 36.4531 298.563 36.4531C299.022 36.4531 299.237 36.0283 299.237 35.3887C299.237 34.7441 299.037 34.3145 298.563 34.3145C298.114 34.3242 297.885 34.749 297.88 35.3887Z" fill="white"/>
<path d="M78.6611 29.0898V34.2656H77.7334V33.2012H75.5264V32.4395H77.7334V31.375H75.6191C75.0527 32.7812 73.7393 33.7725 71.8447 34.3145L71.4736 33.5918C73.5439 33.001 74.7549 31.8877 74.9209 30.4766H71.9229V29.7148H75.9268C75.9268 30.0371 75.8926 30.3496 75.834 30.6426H77.7334V29.0898H78.6611ZM72.8311 36.0723C72.8311 35.0127 73.9834 34.3682 75.7803 34.3633C77.5527 34.3682 78.7148 35.0127 78.7197 36.0723C78.7148 37.1367 77.5527 37.791 75.7803 37.791C73.9834 37.791 72.8311 37.1367 72.8311 36.0723ZM73.749 36.0723C73.749 36.6875 74.5303 37.0439 75.7803 37.0488C77.0059 37.0439 77.7871 36.6875 77.792 36.0723C77.7871 35.4473 77.0059 35.0908 75.7803 35.0957C74.5303 35.0908 73.749 35.4473 73.749 36.0723ZM87.0986 33.1133V33.8555H84.4521V35.9941H88.0166V36.7559H80.0088V35.9941H83.5342V33.8555H81.0049V29.7539H87.0205V30.5059H81.9326V33.1133H87.0986ZM91.2393 35.623V34.7539L94.3643 29.9297H95.6924V34.7148H96.6592V35.623H95.6924V37H94.6768V35.623H91.2393ZM92.3721 34.7148H94.6768V31.209H94.5986L92.3721 34.6562V34.7148ZM100.204 37.0977C98.5684 37.0977 97.6064 35.7793 97.6064 33.4648C97.6064 31.165 98.5781 29.832 100.204 29.832C101.825 29.832 102.797 31.165 102.802 33.4648C102.797 35.7793 101.84 37.0977 100.204 37.0977ZM98.6807 33.4648C98.6758 35.2275 99.2471 36.1699 100.204 36.1699C101.156 36.1699 101.728 35.2275 101.728 33.4648C101.728 31.707 101.151 30.7451 100.204 30.7402C99.252 30.7451 98.6807 31.707 98.6807 33.4648ZM104.345 37.0684C103.964 37.0635 103.646 36.7559 103.651 36.375C103.646 35.9941 103.964 35.6816 104.345 35.6816C104.721 35.6816 105.033 35.9941 105.038 36.375C105.033 36.7559 104.721 37.0635 104.345 37.0684ZM106.132 35.623V34.7539L109.257 29.9297H110.585V34.7148H111.552V35.623H110.585V37H109.569V35.623H106.132ZM107.265 34.7148H109.569V31.209H109.491L107.265 34.6562V34.7148ZM114.257 33.2891C113.29 33.2988 112.763 32.5811 112.772 31.5312C112.763 30.4961 113.314 29.7783 114.257 29.7832C115.229 29.7783 115.736 30.4961 115.741 31.5312C115.736 32.5859 115.209 33.2988 114.257 33.2891ZM113.573 37L118.427 29.9297H119.315L114.462 37H113.573ZM113.573 31.5312C113.578 32.1807 113.803 32.6006 114.257 32.6055C114.716 32.6006 114.931 32.1807 114.931 31.5312C114.931 30.8965 114.73 30.4619 114.257 30.4668C113.803 30.4766 113.578 30.9014 113.573 31.5312ZM117.235 35.3887C117.23 34.3438 117.777 33.626 118.72 33.6309C119.687 33.626 120.199 34.3438 120.204 35.3887C120.199 36.4336 119.672 37.1465 118.72 37.1465C117.758 37.1465 117.23 36.4287 117.235 35.3887ZM118.036 35.3887C118.041 36.0283 118.266 36.4531 118.72 36.4531C119.179 36.4531 119.394 36.0283 119.394 35.3887C119.394 34.7441 119.193 34.3145 118.72 34.3145C118.271 34.3242 118.041 34.749 118.036 35.3887Z" fill="#113287"/>
</g>
<path d="M-1399 -1754H1914V-1756H-1399V-1754ZM1915 -1753V217H1917V-1753H1915ZM1914 218H-1399V220H1914V218ZM-1400 217V-1753H-1402V217H-1400ZM-1399 218C-1399.55 218 -1400 217.552 -1400 217H-1402C-1402 218.657 -1400.66 220 -1399 220V218ZM1915 217C1915 217.552 1914.55 218 1914 218V220C1915.66 220 1917 218.657 1917 217H1915ZM1914 -1754C1914.55 -1754 1915 -1753.55 1915 -1753H1917C1917 -1754.66 1915.66 -1756 1914 -1756V-1754ZM-1399 -1756C-1400.66 -1756 -1402 -1754.66 -1402 -1753H-1400C-1400 -1753.55 -1399.55 -1754 -1399 -1754V-1756Z" fill="black" fill-opacity="0.1"/>
<defs>
<clipPath id="clip0_1814_2379">
<rect width="727" height="90" fill="white"/>
</clipPath>
</defs>
</svg>
