<?xml version="1.0" encoding="UTF-8"?>
<svg width="727px" height="90px" viewBox="0 0 727 90" version="1.1" xmlns="http://www.w3.org/2000/svg" xmlns:xlink="http://www.w3.org/1999/xlink">
    <title>astigmatism</title>
    <g id="astigmatism" stroke="none" stroke-width="1" fill="none" fill-rule="evenodd">
        <g id="AGE_80_89" transform="translate(0.000000, -0.000000)">
            <path d="M21.7090669,82.7084644 L21.0910173,82.7084644 L21.0910173,85.970749 L21.6464809,85.970749 C22.6987274,85.970749 23.7547791,85.9042576 24.9321977,85.6578188 L24.8618009,85.1493198 C23.7274415,85.3839423 22.7026327,85.4465284 21.7090669,85.4465284 L21.7090669,82.7084644 Z M21.8654819,89.0061217 L26.4420732,89.0061217 L26.4420732,88.4898119 L22.4757208,88.4898119 L22.4757208,86.7374029 L21.8654819,86.7374029 L21.8654819,89.0061217 Z M25.5815904,87.2302805 L26.1917291,87.2302805 L26.1917291,84.8050466 L27.2400702,84.8050466 L27.2400702,84.2731153 L26.1917291,84.2731153 L26.1917291,82.2077762 L25.5815904,82.2077762 L25.5815904,87.2302805 Z" id="Shape" fill="#001A5B" fill-rule="nonzero"></path>
            <path d="M32.1609348,84.0696356 L32.1609348,82.8022934 L31.5506959,82.8022934 L31.5506959,84.0696356 C31.5428852,85.3878477 30.6862076,86.7178761 29.6496827,87.1911266 L30.0408204,87.7074364 C30.8544388,87.2967719 31.5389798,86.416662 31.8597208,85.3683209 C32.1921778,86.3579813 32.8767188,87.1833159 33.6708104,87.5666428 L34.0463266,87.081576 C33.0214177,86.6161362 32.1570295,85.3409833 32.1609348,84.0696356 Z M34.8051698,89.1704476 L35.4232194,89.1704476 L35.4232194,82.1998653 L34.8051698,82.1998653 L34.8051698,89.1704476 Z" id="Shape" fill="#001A5B" fill-rule="nonzero"></path>
            <path d="M2.34111227,76.4449541 C3.81529879,76.4449541 4.67781447,75.2568208 4.68222053,73.1708533 C4.67781447,71.0982041 3.80210065,69.8968526 2.34111227,69.8968526 C0.875717827,69.8968526 -1.73433206e-14,71.0982041 -1.73433206e-14,73.1708533 C-1.73433206e-14,75.2568208 0.866915727,76.4449541 2.34111227,76.4449541 Z M0.968124857,73.1708533 C0.968124857,71.5866756 1.48299263,70.7197839 2.34111227,70.7153778 C3.19482585,70.7197839 3.71408967,71.5866756 3.71408967,73.1708533 C3.71408967,74.7595372 3.19922189,75.6088047 2.34111227,75.6088047 C1.47859659,75.6088047 0.963728814,74.7595372 0.968124857,73.1708533 Z" id="Shape" fill="#001A5B" fill-rule="nonzero"></path>
            <path d="M7.84183397,76.3569331 C9.78247172,76.3569331 10.9002082,75.1511756 10.9046143,73.1621413 C10.9002082,71.177413 9.78247172,69.9848736 7.90343866,69.9848736 L5.77356077,69.9848736 L5.77356077,76.3569331 L7.84183397,76.3569331 Z M6.74169163,75.5119716 L6.74169163,70.8298352 L7.84183397,70.8298352 C9.23241557,70.8298352 9.94529555,71.6614784 9.94529555,73.1621413 C9.94529555,74.6671102 9.23241557,75.5075655 7.78903138,75.5119716 L6.74169163,75.5119716 Z" id="Shape" fill="#001A5B" fill-rule="nonzero"></path>
            <polygon id="Path" fill="#001A5B" fill-rule="nonzero" points="183.552148 69.9848736 182.601842 69.9848736 181.017664 71.0234013 181.017664 71.9475717 182.540758 70.9530045 182.575806 70.9530045 182.575806 76.3569331 183.552148 76.3569331"></polygon>
            <path d="M187.32834,76.3569331 C189.269007,76.3569331 190.386544,75.1511756 190.39155,73.1621413 C190.386544,71.177413 189.269007,69.9848736 187.390425,69.9848736 L185.260497,69.9848736 L185.260497,76.3569331 L187.32834,76.3569331 Z M186.227827,75.5119716 L186.227827,70.8298352 L187.32834,70.8298352 C188.719252,70.8298352 189.432232,71.6614784 189.432232,73.1621413 C189.432232,74.6671102 188.719252,75.5075655 187.275267,75.5119716 L186.227827,75.5119716 Z" id="Shape" fill="#001A5B" fill-rule="nonzero"></path>
            <path d="M360.719696,76.3569331 L365.006589,76.3569331 L365.006589,75.5295958 L362.066548,75.5295958 L362.066548,75.4768233 L363.360326,74.1654205 C364.556971,72.9905054 364.891431,72.422825 364.900443,71.709945 C364.891431,70.6757233 364.042264,69.8968526 362.814576,69.8968526 C361.599906,69.8968526 360.711685,70.6670114 360.719696,71.8331144 L361.634954,71.8331144 C361.639961,71.1553827 362.088578,70.7065657 362.797553,70.7065657 C363.466472,70.7065657 363.976173,71.1070162 363.976173,71.7362813 C363.976173,72.2951495 363.628695,72.7000061 362.928733,73.4261042 L360.719696,75.6528653 L360.719696,76.3569331 Z" id="Path" fill="#001A5B" fill-rule="nonzero"></path>
            <path d="M368.236029,76.3569331 C370.176697,76.3569331 371.294233,75.1511756 371.29924,73.1621413 C371.294233,71.177413 370.176697,69.9848736 368.298114,69.9848736 L366.168186,69.9848736 L366.168186,76.3569331 L368.236029,76.3569331 Z M367.136517,75.5119716 L367.136517,70.8298352 L368.236029,70.8298352 C369.626941,70.8298352 370.339921,71.6614784 370.339921,73.1621413 C370.339921,74.6671102 369.626941,75.5075655 368.182956,75.5119716 L367.136517,75.5119716 Z" id="Shape" fill="#001A5B" fill-rule="nonzero"></path>
            <path d="M543.097406,76.4449541 C544.418222,76.4449541 545.399571,75.6659833 545.394601,74.6055255 C545.399571,73.8002185 544.892874,73.2149139 544.021677,73.0916444 L544.021677,73.047684 C544.708621,72.8760481 545.157238,72.3568343 545.148225,71.6307362 C545.157238,70.6889415 544.369155,69.8968526 543.115431,69.8968526 C541.926797,69.8968526 540.967478,70.6009205 540.941443,71.6394481 L541.874725,71.6394481 C541.896756,71.0630558 542.468542,70.7065657 543.106419,70.7065657 C543.779344,70.7065657 544.214943,71.1026102 544.214943,71.6835087 C544.214943,72.2951495 543.709247,72.7000061 542.983249,72.6956 L542.437499,72.6956 L542.437499,73.487789 L542.983249,73.487789 C543.894502,73.4920949 544.418222,73.941012 544.418222,74.5702771 C544.418222,75.19073 543.859454,75.6088047 543.088394,75.6088047 C542.376415,75.6088047 541.821653,75.2524148 541.786604,74.6935465 L540.800248,74.6935465 C540.840303,75.7364802 541.777592,76.4449541 543.097406,76.4449541 Z" id="Path" fill="#001A5B" fill-rule="nonzero"></path>
            <path d="M548.615993,76.3569331 C550.55666,76.3569331 551.674197,75.1511756 551.679203,73.1621413 C551.674197,71.177413 550.55666,69.9848736 548.678078,69.9848736 L546.54815,69.9848736 L546.54815,76.3569331 L548.615993,76.3569331 Z M547.51548,75.5119716 L547.51548,70.8298352 L548.615993,70.8298352 C550.006905,70.8298352 550.719885,71.6614784 550.719885,73.1621413 C550.719885,74.6671102 550.006905,75.5075655 548.56292,75.5119716 L547.51548,75.5119716 Z" id="Shape" fill="#001A5B" fill-rule="nonzero"></path>
            <polygon id="Path" fill="#979797" points="95.0755219 48.8258869 95.0755219 15.2631491 96.0768985 15.2631491 96.0768985 48.8258869"></polygon>
            <polygon id="Path" fill="#979797" points="275.323304 48.8258869 275.323304 15.2631491 276.324681 15.2631491 276.324681 48.8258869"></polygon>
            <polygon id="Path" fill="#979797" points="455.571086 48.8258869 455.571086 15.2631491 456.572463 15.2631491 456.572463 48.8258869"></polygon>
            <polygon id="Path" fill="#979797" points="635.818868 48.8258869 635.818868 15.2631491 636.820245 15.2631491 636.820245 48.8258869"></polygon>
            <polygon id="Path" fill="#979797" points="456.572463 37.303247 456.572463 16.2743391 455.571086 16.2743391 455.571086 37.303247"></polygon>
            <polygon id="Path" fill="#979797" points="636.820245 37.303247 636.820245 16.2743391 635.818868 16.2743391 635.818868 37.303247"></polygon>
            <rect id="Rectangle" fill="#001A5B" fill-rule="nonzero" x="546.195665" y="20.2798454" width="173.238146" height="24.0330376"></rect>
            <path d="M616.566402,35.1029223 L613.00751,35.1029223 L613.00751,33.1960009 L612.088246,33.1960009 L612.088246,35.1029223 L608.54838,35.1029223 L608.54838,35.8656708 L616.566402,35.8656708 L616.566402,35.1029223 Z M608.938917,32.7755229 L609.291401,33.4992177 C610.758418,33.2694018 611.975091,32.5750473 612.542871,31.5531425 C613.114657,32.5750473 614.337338,33.2694018 615.804355,33.4992177 L616.155838,32.7755229 C614.356364,32.5114599 613.060583,31.4944618 613.016522,30.262268 L615.823381,30.262268 L615.823381,29.5093329 L613.00751,29.5093329 L613.00751,28.3358197 L612.088246,28.3358197 L612.088246,29.5093329 L609.271374,29.5093329 L609.271374,30.262268 L612.078232,30.262268 C612.034172,31.4944618 610.738391,32.5114599 608.938917,32.7755229 Z" id="Shape" fill="#FFFFFF" fill-rule="nonzero"></path>
            <path d="M624.292022,29.0203608 L618.043433,29.0203608 L618.043433,29.7733959 L623.363746,29.7733959 L623.363746,29.8809438 C623.358739,30.9321889 623.358739,32.1740961 623.021276,33.8708286 L623.959565,33.9685629 C624.287016,32.1740961 624.287016,30.9615292 624.292022,29.8809438 L624.292022,29.0203608 Z M617.202276,35.758123 L625.19226,35.758123 L625.19226,34.985561 L621.162721,34.985561 L621.162721,31.895413 L620.243457,31.895413 L620.243457,34.985561 L617.202276,34.985561 L617.202276,35.758123 Z" id="Shape" fill="#FFFFFF" fill-rule="nonzero"></path>
            <polygon id="Path" fill="#FFFFFF" fill-rule="nonzero" points="632.956934 32.2181567 627.783823 32.2181567 627.783823 29.6070673 632.877825 29.6070673 632.877825 28.8541322 626.854545 28.8541322 626.854545 32.9612782 629.387026 32.9612782 629.387026 35.1029223 625.857174 35.1029223 625.857174 35.8656708 633.876198 35.8656708 633.876198 35.1029223 630.30629 35.1029223 630.30629 32.9612782 632.956934 32.9612782"></polygon>
            <path d="M639.694195,28.9322719 C638.154078,28.9225263 637.1517,29.9786781 637.1517,31.3282333 C637.1517,32.6825951 638.169099,33.6556327 639.439846,33.6556327 C640.202895,33.6556327 640.867809,33.2938354 641.249333,32.6973154 L641.337454,32.6973154 C641.327441,34.3157402 640.68656,35.2643442 639.596061,35.2691508 C638.88308,35.2643442 638.423449,34.8486728 638.276246,34.2521528 L637.210782,34.2521528 C637.382017,35.4012324 638.291267,36.2079413 639.596061,36.2079413 C641.293394,36.2079413 642.363865,34.7998056 642.363865,32.315891 C642.358858,29.7244286 640.994984,28.9421532 639.694195,28.9322719 Z M638.19811,31.3087065 C638.193132,30.4969906 638.83902,29.8319765 639.694195,29.8319765 C640.559385,29.8319765 641.190252,30.5312377 641.190252,31.298893 C641.190252,32.0811684 640.530345,32.7804296 639.675169,32.7755505 C638.813985,32.7804296 638.203146,32.1301357 638.19811,31.3087065 Z" id="Shape" fill="#FFFFFF" fill-rule="nonzero"></path>
            <path d="M643.929017,36.178601 C644.305535,36.1737944 644.617964,35.8656708 644.622971,35.4843466 C644.617964,35.1029223 644.305535,34.7899921 643.929017,34.7899921 C643.547492,34.7899921 643.229055,35.1029223 643.234062,35.4843466 C643.229055,35.8656708 643.547492,36.1737944 643.929017,36.178601 Z" id="Path" fill="#FFFFFF" fill-rule="nonzero"></path>
            <polygon id="Path" fill="#FFFFFF" fill-rule="nonzero" points="647.703205 29.0301742 646.646753 29.0301742 644.887334 30.1840605 644.887334 31.210872 646.578659 30.105853 646.617713 30.105853 646.617713 36.110207 647.703205 36.110207"></polygon>
            <path d="M651.12591,32.3940985 C652.079221,32.403912 652.607948,31.6900307 652.612955,30.6338788 C652.607948,29.5973539 652.099248,28.8785658 651.12591,28.8834476 C650.182614,28.8785658 649.629854,29.5973539 649.639867,30.6338788 C649.629854,31.6851239 650.157579,32.403912 651.12591,32.3940985 Z M650.44197,36.110207 L651.331193,36.110207 L656.191874,29.0301742 L655.301651,29.0301742 L650.44197,36.110207 Z M650.44197,30.6338788 C650.445976,30.0031117 650.671285,29.577727 651.12591,29.5680136 C651.600563,29.5631069 651.800838,29.9983051 651.800838,30.6338788 C651.800838,31.2841728 651.585542,31.7047509 651.12591,31.7095575 C650.671285,31.7047509 650.445976,31.2841728 650.44197,30.6338788 Z M654.109011,34.4966889 C654.104004,35.5381206 654.63173,36.2569087 655.595054,36.2569087 C656.548364,36.2569087 657.077091,35.5430273 657.081097,34.4966889 C657.077091,33.4502504 656.563385,32.7315625 655.595054,32.7363451 C654.651757,32.7315625 654.104004,33.4502504 654.109011,34.4966889 Z M654.910112,34.4966889 C654.915119,33.8561083 655.145436,33.4307236 655.595054,33.4209101 C656.069706,33.4209101 656.269982,33.8512016 656.269982,34.4966889 C656.269982,35.1371694 656.054686,35.5625541 655.595054,35.5625541 C655.140429,35.5625541 654.915119,35.1371694 654.910112,34.4966889 Z" id="Shape" fill="#FFFFFF" fill-rule="nonzero"></path>
            <rect id="Rectangle" fill="#113287" fill-rule="nonzero" x="365.947883" y="20.2798454" width="180.247782" height="24.0330376"></rect>
            <path d="M439.892533,28.7612045 L433.643943,28.7612045 L433.643943,29.5142397 L438.963256,29.5142397 L438.963256,29.6217875 C438.958249,30.6730326 438.958249,31.9149399 438.620785,33.6116723 L439.560076,33.7094067 C439.887526,31.9149399 439.887526,30.702373 439.892533,29.6217875 L439.892533,28.7612045 Z M432.802787,35.4989667 L440.791769,35.4989667 L440.791769,34.7264047 L436.763231,34.7264047 L436.763231,31.6362568 L435.843968,31.6362568 L435.843968,34.7264047 L432.802787,34.7264047 L432.802787,35.4989667 Z" id="Shape" fill="#FFFFFF" fill-rule="nonzero"></path>
            <polygon id="Path" fill="#FFFFFF" fill-rule="nonzero" points="448.556443 31.9590004 443.383332 31.9590004 443.383332 29.347911 448.478336 29.347911 448.478336 28.594976 442.454054 28.594976 442.454054 32.7022221 444.987537 32.7022221 444.987537 34.843766 441.456683 34.843766 441.456683 35.6065146 449.475707 35.6065146 449.475707 34.843766 445.906801 34.843766 445.906801 32.7022221 448.556443 32.7022221"></polygon>
            <polygon id="Path" fill="#FFFFFF" fill-rule="nonzero" points="455.549056 28.771018 454.492603 28.771018 452.732183 29.9249042 452.732183 30.9517157 454.423509 29.8466967 454.463564 29.8466967 454.463564 35.8510507 455.549056 35.8510507"></polygon>
            <path d="M459.753836,35.9487851 C461.229865,35.9487851 462.276304,34.9465073 462.276304,33.5529916 C462.276304,32.1888164 461.293953,31.2010585 459.959118,31.1962519 C459.421379,31.2010585 458.922693,31.3918207 458.62929,31.6754106 L458.560195,31.6754106 L458.795519,29.6901815 L461.914807,29.6901815 L461.914807,28.771018 L457.905295,28.771018 L457.445663,32.7119355 L458.463062,32.7119355 C458.702391,32.2768374 459.137989,32.0860751 459.704769,32.0860751 C460.594992,32.0958886 461.229865,32.721749 461.229865,33.582332 C461.229865,34.423288 460.614018,35.0442416 459.753836,35.0491484 C459.039854,35.0442416 458.463062,34.6042368 458.40398,34.00281 L457.357542,34.00281 C457.406609,35.1322626 458.413994,35.9487851 459.753836,35.9487851 Z" id="Path" fill="#FFFFFF" fill-rule="nonzero"></path>
            <path d="M463.860481,35.9195449 C464.236999,35.9146381 464.55043,35.6065146 464.555437,35.2251904 C464.55043,34.843766 464.236999,34.5308359 463.860481,34.5308359 C463.478957,34.5308359 463.16152,34.843766 463.166527,35.2251904 C463.16152,35.6065146 463.478957,35.9146381 463.860481,35.9195449 Z" id="Path" fill="#FFFFFF" fill-rule="nonzero"></path>
            <path d="M465.807157,35.8510507 L470.569704,35.8510507 L470.569704,34.931787 L467.303214,34.931787 L467.303214,34.8731064 L468.740189,33.4161035 C470.070017,32.1105087 470.442529,31.4798417 470.451542,30.6876527 C470.442529,29.5386733 469.498231,28.6731835 468.134356,28.6731835 C466.784501,28.6731835 465.797144,29.5288598 465.807157,30.8246411 L466.823555,30.8246411 C466.828561,30.0716059 467.327247,29.5729203 468.114329,29.5729203 C468.858352,29.5729203 469.425131,30.017832 469.425131,30.7169931 C469.425131,31.3380468 469.038599,31.7878652 468.261531,32.5945741 L465.807157,35.0686752 L465.807157,35.8510507 Z" id="Path" fill="#FFFFFF" fill-rule="nonzero"></path>
            <path d="M473.385575,32.1350424 C474.338886,32.1447558 474.867612,31.4308744 474.871618,30.3747226 C474.867612,29.3381977 474.358913,28.6194096 473.385575,28.6242914 C472.442278,28.6194096 471.889519,29.3381977 471.899532,30.3747226 C471.889519,31.4259677 472.417244,32.1447558 473.385575,32.1350424 Z M472.700634,35.8510507 L473.590857,35.8510507 L478.451539,28.771018 L477.561315,28.771018 L472.700634,35.8510507 Z M472.700634,30.3747226 C472.70564,29.7440556 472.93095,29.3186708 473.385575,29.3088573 C473.860228,29.3039506 474.060503,29.7391489 474.060503,30.3747226 C474.060503,31.0251166 473.845207,31.4455947 473.385575,31.4505014 C472.93095,31.4455947 472.70564,31.0251166 472.700634,30.3747226 Z M476.368676,34.2375327 C476.363669,35.2789643 476.891395,35.9977524 477.854719,35.9977524 C478.808029,35.9977524 479.335755,35.283871 479.340762,34.2375327 C479.335755,33.1910942 478.82305,32.4724062 477.854719,32.4771888 C476.911422,32.4724062 476.363669,33.1910942 476.368676,34.2375327 Z M477.169777,34.2375327 C477.174784,33.5969521 477.405101,33.1715673 477.854719,33.1617538 C478.329371,33.1617538 478.529647,33.5920453 478.529647,34.2375327 C478.529647,34.8780131 478.314351,35.3033979 477.854719,35.3033979 C477.400094,35.3033979 477.174784,34.8780131 477.169777,34.2375327 Z" id="Shape" fill="#FFFFFF" fill-rule="nonzero"></path>
            <rect id="Rectangle" fill="#5B6EB4" fill-rule="nonzero" x="185.700101" y="20.2798454" width="180.247782" height="24.0330376"></rect>
            <path d="M259.824999,31.7829584 L251.836017,31.7829584 L251.836017,32.5358935 L255.365869,32.5358935 L255.365869,33.3769496 C253.737631,33.4600639 252.78432,34.00281 252.78432,34.9220737 C252.78432,35.9146381 253.91888,36.4720043 255.825501,36.4671297 C257.708089,36.4720043 258.842648,35.9146381 258.847655,34.9220737 C258.842648,34.00281 257.889338,33.4649706 256.285133,33.3769496 L256.285133,32.5358935 L259.824999,32.5358935 L259.824999,31.7829584 Z M252.256595,30.5899184 L252.579038,31.3233266 C254.100129,31.1472846 255.346843,30.5068041 255.830508,29.577727 C256.30516,30.5068041 257.561888,31.1472846 259.081977,31.3233266 L259.414434,30.5899184 C257.811231,30.4285966 256.578536,29.7195219 256.451361,28.8687523 L259.112019,28.8687523 L259.112019,28.1255307 L252.569024,28.1255307 L252.569024,28.8687523 L255.19964,28.8687523 C255.072466,29.7147153 253.830759,30.4285966 252.256595,30.5899184 Z M253.723587,34.9220737 C253.718605,34.3793276 254.485659,34.0859243 255.825501,34.0810175 C257.146317,34.0859243 257.918378,34.3793276 257.918378,34.9220737 C257.918378,35.4550063 257.146317,35.7630297 255.825501,35.7532162 C254.485659,35.7630297 253.718605,35.4550063 253.723587,34.9220737 Z" id="Shape" fill="#FFFFFF" fill-rule="nonzero"></path>
            <polygon id="Path" fill="#FFFFFF" fill-rule="nonzero" points="267.589673 31.7634316 262.416561 31.7634316 262.416561 29.1523422 267.511565 29.1523422 267.511565 28.3994071 261.488285 28.3994071 261.488285 32.5065531 264.020767 32.5065531 264.020767 34.6481972 260.490914 34.6481972 260.490914 35.4109457 268.508936 35.4109457 268.508936 34.6481972 264.94003 34.6481972 264.94003 32.5065531 267.589673 32.5065531"></polygon>
            <path d="M274.406043,35.7532162 C275.87306,35.7532162 276.963559,34.8878266 276.958585,33.7094067 C276.963559,32.8146767 276.400785,32.1643828 275.432454,32.0273944 L275.432454,31.9785273 C276.195503,31.7878652 276.694189,31.210872 276.684175,30.4040629 C276.694189,29.3577245 275.818985,28.4776147 274.426071,28.4776147 C273.105255,28.4776147 272.03979,29.2599902 272.009749,30.4138764 L273.047175,30.4138764 C273.071208,29.7733959 273.707082,29.3772514 274.416057,29.3772514 C275.164085,29.3772514 275.64775,29.8173564 275.64775,30.4627436 C275.64775,31.1423778 275.085978,31.5922963 274.278868,31.5873896 L273.673035,31.5873896 L273.673035,32.4674995 L274.278868,32.4674995 C275.29126,32.4724062 275.87306,32.9710917 275.87306,33.670353 C275.87306,34.3597006 275.252206,34.8242392 274.396029,34.8242392 C273.60394,34.8242392 272.988094,34.4281948 272.94904,33.8072412 L271.853534,33.8072412 C271.897595,34.9660341 272.939026,35.7532162 274.406043,35.7532162 Z" id="Path" fill="#FFFFFF" fill-rule="nonzero"></path>
            <path d="M280.654633,35.7532162 C282.121649,35.7532162 283.212149,34.8878266 283.207175,33.7094067 C283.212149,32.8146767 282.649375,32.1643828 281.682045,32.0273944 L281.682045,31.9785273 C282.444093,31.7878652 282.942778,31.210872 282.933766,30.4040629 C282.942778,29.3577245 282.067575,28.4776147 280.67466,28.4776147 C279.353845,28.4776147 278.28838,29.2599902 278.25934,30.4138764 L279.295765,30.4138764 C279.319798,29.7733959 279.955672,29.3772514 280.664647,29.3772514 C281.412675,29.3772514 281.89634,29.8173564 281.89634,30.4627436 C281.89634,31.1423778 281.334568,31.5922963 280.527458,31.5873896 L279.921625,31.5873896 L279.921625,32.4674995 L280.527458,32.4674995 C281.53985,32.4724062 282.121649,32.9710917 282.121649,33.670353 C282.121649,34.3597006 281.500796,34.8242392 280.644619,34.8242392 C279.85253,34.8242392 279.236684,34.4281948 279.19763,33.8072412 L278.102124,33.8072412 C278.146185,34.9660341 279.187616,35.7532162 280.654633,35.7532162 Z" id="Path" fill="#FFFFFF" fill-rule="nonzero"></path>
            <path d="M284.869427,35.7238759 C285.245944,35.7190693 285.559375,35.4109457 285.564382,35.0296215 C285.559375,34.6481972 285.245944,34.335267 284.869427,34.335267 C284.487902,34.335267 284.170466,34.6481972 284.175473,35.0296215 C284.170466,35.4109457 284.487902,35.7190693 284.869427,35.7238759 Z" id="Path" fill="#FFFFFF" fill-rule="nonzero"></path>
            <polygon id="Path" fill="#FFFFFF" fill-rule="nonzero" points="286.874183 35.6554819 287.998729 35.6554819 291.148058 29.5337665 291.148058 28.5754491 286.385511 28.5754491 286.385511 29.4946127 290.032524 29.4946127 290.032524 29.5532934"></polygon>
            <path d="M293.856781,31.9393734 C294.810092,31.9491869 295.337817,31.2353056 295.342824,30.1791537 C295.337817,29.1426288 294.829118,28.4238407 293.856781,28.4287225 C292.912483,28.4238407 292.360725,29.1426288 292.369737,30.1791537 C292.360725,31.2303988 292.88845,31.9491869 293.856781,31.9393734 Z M293.17184,35.6554819 L294.062064,35.6554819 L298.921744,28.5754491 L298.032522,28.5754491 L293.17184,35.6554819 Z M293.17184,30.1791537 C293.176847,29.5483866 293.402157,29.1230019 293.856781,29.1132885 C294.330433,29.1083818 294.531709,29.54358 294.531709,30.1791537 C294.531709,30.8294477 294.316413,31.2500258 293.856781,31.2548324 C293.402157,31.2500258 293.176847,30.8294477 293.17184,30.1791537 Z M296.838881,34.0419638 C296.833874,35.0833955 297.362601,35.8021836 298.325925,35.8021836 C299.279236,35.8021836 299.806961,35.0883022 299.811968,34.0419638 C299.806961,32.9955253 299.294256,32.2768374 298.325925,32.28162 C297.381627,32.2768374 296.833874,32.9955253 296.838881,34.0419638 Z M297.640984,34.0419638 C297.64599,33.4013832 297.875306,32.9759985 298.325925,32.966185 C298.799576,32.966185 299.000853,33.3964765 299.000853,34.0419638 C299.000853,34.6824443 298.785557,35.107829 298.325925,35.107829 C297.8713,35.107829 297.64599,34.6824443 297.640984,34.0419638 Z" id="Shape" fill="#FFFFFF" fill-rule="nonzero"></path>
            <rect id="Rectangle" fill="#E2E6F6" fill-rule="nonzero" x="5.45231917" y="20.2798454" width="180.247782" height="24.0330376"></rect>
            <path d="M78.5801461,27.9397753 L77.6511691,27.9397753 L77.6511691,29.4946127 L75.7491544,29.4946127 C75.8078351,29.2013095 75.8420822,28.8883793 75.8420822,28.5656357 L71.8326706,28.5656357 L71.8326706,29.3283842 L74.8347975,29.3283842 C74.668569,30.7415268 73.4560021,31.8562592 71.3827521,32.4479726 L71.7543629,33.1715673 C73.651571,32.6288212 74.9667789,31.6362568 75.5340588,30.228121 L77.6511691,30.228121 L77.6511691,31.2939863 L75.441131,31.2939863 L75.441131,32.0567348 L77.6511691,32.0567348 L77.6511691,33.1227001 L78.5801461,33.1227001 L78.5801461,27.9397753 Z M72.7421208,34.931787 C72.7421208,35.9977524 73.896007,36.6529531 75.6953805,36.6529531 C77.4702204,36.6529531 78.6340202,35.9977524 78.6388268,34.931787 C78.6340202,33.8708286 77.4702204,33.2253412 75.6953805,33.2204345 C73.896007,33.2253412 72.7421208,33.8708286 72.7421208,34.931787 Z M73.6612843,34.931787 C73.6612843,34.3059267 74.4436598,33.9490361 75.6953805,33.9539428 C76.9226676,33.9490361 77.704943,34.3059267 77.7098498,34.931787 C77.704943,35.547934 76.9226676,35.9048247 75.6953805,35.9097314 C74.4436598,35.9048247 73.6612843,35.547934 73.6612843,34.931787 Z" id="Shape" fill="#113287" fill-rule="nonzero"></path>
            <polygon id="Path" fill="#113287" fill-rule="nonzero" points="87.0292609 31.9687138 81.8561496 31.9687138 81.8561496 29.3577245 86.9510534 29.3577245 86.9510534 28.6047895 80.9271725 28.6047895 80.9271725 32.7119355 83.4599543 32.7119355 83.4599543 34.8535795 79.9297013 34.8535795 79.9297013 35.6163281 87.9485246 35.6163281 87.9485246 34.8535795 84.379218 34.8535795 84.379218 32.7119355 87.0292609 32.7119355"></polygon>
            <path d="M93.8453308,35.9585986 C95.3121472,35.9585986 96.4025461,35.0932089 96.3976712,33.914789 C96.4025461,33.0199589 95.8402732,32.369665 94.8721423,32.2327768 L94.8721423,32.1839096 C95.6348909,31.9932475 96.1335764,31.4162543 96.123863,30.6094452 C96.1335764,29.5631069 95.2583733,28.682997 93.8648576,28.682997 C92.5447429,28.682997 91.4787776,29.4652724 91.4494372,30.6192587 L92.4860623,30.6192587 C92.5104958,29.9786781 93.1460695,29.5826337 93.8550442,29.5826337 C94.6031726,29.5826337 95.087238,30.0227387 95.087238,30.6681259 C95.087238,31.3477602 94.5249651,31.7975785 93.718156,31.7927719 L93.1119226,31.7927719 L93.1119226,32.6728818 L93.718156,32.6728818 C94.7303474,32.6776884 95.3121472,33.1764741 95.3121472,33.8756352 C95.3121472,34.5650829 94.6911936,35.0296215 93.8355173,35.0296215 C93.0434284,35.0296215 92.4273816,34.6335771 92.3882278,34.0126235 L91.2930222,34.0126235 C91.3369826,35.1714165 92.3784143,35.9585986 93.8453308,35.9585986 Z" id="Path" fill="#113287" fill-rule="nonzero"></path>
            <path d="M100.016314,28.6829292 C98.475696,28.6731835 97.4733181,29.7293354 97.4733181,31.0788906 C97.4733181,32.4332524 98.4904163,33.40629 99.7619642,33.40629 C100.524012,33.40629 101.188926,33.0444926 101.57045,32.4479726 L101.658571,32.4479726 C101.648558,34.0663974 101.008678,35.0149013 99.918179,35.019808 C99.2041975,35.0149013 98.7446658,34.59933 98.5979641,34.00281 L97.5319988,34.00281 C97.703134,35.1517895 98.6125842,35.9585986 99.918179,35.9585986 C101.614511,35.9585986 102.685984,34.5504628 102.685984,32.0665483 C102.680977,29.4750859 101.316101,28.6928105 100.016314,28.6829292 Z M98.5197288,31.0592636 C98.5148499,30.2476479 99.1602371,29.5826337 100.016314,29.5826337 C100.881503,29.5826337 101.51237,30.281895 101.51237,31.0495502 C101.51237,31.8318256 100.852463,32.5310869 99.9962864,32.5262077 C99.1358035,32.5310869 98.5245632,31.8806928 98.5197288,31.0592636 Z" id="Shape" fill="#113287" fill-rule="nonzero"></path>
            <path d="M104.250134,35.9292582 C104.626652,35.9243515 104.940082,35.6163281 104.944088,35.2350039 C104.940082,34.8535795 104.626652,34.5406494 104.250134,34.5406494 C103.86861,34.5406494 103.551173,34.8535795 103.55618,35.2350039 C103.551173,35.6163281 103.86861,35.9243515 104.250134,35.9292582 Z" id="Path" fill="#113287" fill-rule="nonzero"></path>
            <path d="M108.454914,35.9585986 C109.921931,35.9585986 111.01243,35.0932089 111.007456,33.914789 C111.01243,33.0199589 110.450658,32.369665 109.482327,32.2327768 L109.482327,32.1839096 C110.244374,31.9932475 110.74306,31.4162543 110.734047,30.6094452 C110.74306,29.5631069 109.867857,28.682997 108.474942,28.682997 C107.154126,28.682997 106.088661,29.4652724 106.059621,30.6192587 L107.096046,30.6192587 C107.120079,29.9786781 107.755953,29.5826337 108.464928,29.5826337 C109.212956,29.5826337 109.697623,30.0227387 109.697623,30.6681259 C109.697623,31.3477602 109.134849,31.7975785 108.327739,31.7927719 L107.721907,31.7927719 L107.721907,32.6728818 L108.327739,32.6728818 C109.340131,32.6776884 109.921931,33.1764741 109.921931,33.8756352 C109.921931,34.5650829 109.301077,35.0296215 108.445902,35.0296215 C107.653813,35.0296215 107.036965,34.6335771 106.997911,34.0126235 L105.902405,34.0126235 C105.946466,35.1714165 106.987898,35.9585986 108.454914,35.9585986 Z" id="Path" fill="#113287" fill-rule="nonzero"></path>
            <path d="M113.814282,32.1447558 C114.767592,32.1545693 115.295318,31.4406879 115.300324,30.3845361 C115.295318,29.347911 114.78762,28.6292231 113.814282,28.6341048 C112.870985,28.6292231 112.318225,29.347911 112.328239,30.3845361 C112.318225,31.4357812 112.84595,32.1545693 113.814282,32.1447558 Z M113.12934,35.8608642 L114.019564,35.8608642 L118.879244,28.7807313 L117.990022,28.7807313 L113.12934,35.8608642 Z M113.12934,30.3845361 C113.134347,29.753769 113.359657,29.3283842 113.814282,29.3186708 C114.288934,29.3137641 114.489209,29.7488622 114.489209,30.3845361 C114.489209,31.03483 114.273913,31.455308 113.814282,31.4602148 C113.359657,31.455308 113.134347,31.03483 113.12934,30.3845361 Z M116.796358,34.247246 C116.792376,35.2887778 117.320101,36.0074658 118.283425,36.0074658 C119.236736,36.0074658 119.764461,35.2936845 119.769468,34.247246 C119.764461,33.2009076 119.251756,32.4821195 118.283425,32.4870013 C117.339127,32.4821195 116.792376,33.2009076 116.796358,34.247246 Z M117.598484,34.247246 C117.603491,33.6067656 117.833807,33.1813808 118.283425,33.1715673 C118.757076,33.1715673 118.958353,33.6018588 118.958353,34.247246 C118.958353,34.8878266 118.743057,35.3132114 118.283425,35.3132114 C117.8288,35.3132114 117.603491,34.8878266 117.598484,34.247246 Z" id="Shape" fill="#113287" fill-rule="nonzero"></path>
            <polygon id="Path" fill="#113287" points="4.4509426 64.3404143 4.4509426 0.25230003 6.45369573 0.25230003 6.45369573 64.3404143"></polygon>
            <polygon id="Path" fill="#979797" points="185.199413 64.0880674 185.199413 1.0013766e-07 186.20079 3.55760423e-15 186.20079 64.0880674"></polygon>
            <polygon id="Path" fill="#979797" points="365.447195 64.0880674 365.447195 1.0013766e-07 366.448572 3.55760423e-15 366.448572 64.0880674"></polygon>
            <polygon id="Path" fill="#979797" points="545.694977 64.0880674 545.694977 1.0013766e-07 546.696354 3.55760423e-15 546.696354 64.0880674"></polygon>
            <path d="M36.666829,70.3129246 L39.8532092,73.4993048 C40.0486779,73.6947735 40.0486779,74.0118094 39.8532092,74.2073782 L36.666829,77.3937584 C36.4712601,77.5892271 36.1542243,77.5892271 35.9587556,77.3937584 C35.7631867,77.1981896 35.7631867,76.8811538 35.9587556,76.6856851 L38.2903608,74.3539797 L20.4729677,74.3539797 L20.4729677,73.3526032 L38.2903608,73.3526032 L35.9587556,71.020998 C35.7631867,70.8254291 35.7631867,70.5084934 35.9587556,70.3129246 C36.1542243,70.1173558 36.4712601,70.1173558 36.666829,70.3129246 Z" id="Path" fill="#113287"></path>
            <polygon id="Path" fill="#001A5B" fill-rule="nonzero" points="719.889438 20.2798454 691.041782 20.2798454 691.041782 44.312883 719.889438 44.312883 727.444824 32.2963642"></polygon>
        </g>
    </g>
</svg>