<?xml version="1.0" encoding="UTF-8"?>
<svg width="727px" height="90px" viewBox="0 0 727 90" version="1.1" xmlns="http://www.w3.org/2000/svg" xmlns:xlink="http://www.w3.org/1999/xlink">
    <title>astigmatism</title>
    <g id="astigmatism" stroke="none" stroke-width="1" fill="none" fill-rule="evenodd">
        <g id="Group" transform="translate(0.000000, -0.000000)">
            <g id="AGE_13_18" transform="translate(0.000000, 0.204382)">
                <path d="M21.7090669,82.7084632 L21.0910173,82.7084632 L21.0910173,85.9707478 L21.6464809,85.9707478 C22.6987274,85.9707478 23.7547791,85.9042564 24.9321977,85.6578176 L24.8618009,85.1493186 C23.7274415,85.3839411 22.7026327,85.4465272 21.7090669,85.4465272 L21.7090669,82.7084632 Z M21.8654819,89.0061205 L26.4420732,89.0061205 L26.4420732,88.4898107 L22.4757208,88.4898107 L22.4757208,86.7374017 L21.8654819,86.7374017 L21.8654819,89.0061205 Z M25.5815904,87.2302793 L26.1917291,87.2302793 L26.1917291,84.8050454 L27.2400702,84.8050454 L27.2400702,84.2731141 L26.1917291,84.2731141 L26.1917291,82.2077749 L25.5815904,82.2077749 L25.5815904,87.2302793 Z" id="Shape" fill="#001A5B" fill-rule="nonzero"></path>
                <path d="M32.1609348,84.0696344 L32.1609348,82.8022922 L31.5506959,82.8022922 L31.5506959,84.0696344 C31.5428852,85.3878465 30.6862076,86.7178749 29.6496827,87.1911254 L30.0408204,87.7074352 C30.8544388,87.2967707 31.5389798,86.4166608 31.8597208,85.3683197 C32.1921778,86.3579801 32.8767188,87.1833147 33.6708104,87.5666416 L34.0463266,87.0815748 C33.0214177,86.616135 32.1570295,85.3409821 32.1609348,84.0696344 Z M34.8051698,89.1704464 L35.4232194,89.1704464 L35.4232194,82.1998641 L34.8051698,82.1998641 L34.8051698,89.1704464 Z" id="Shape" fill="#001A5B" fill-rule="nonzero"></path>
                <path d="M2.34111227,76.4449529 C3.81529879,76.4449529 4.67781447,75.2568196 4.68222053,73.1708521 C4.67781447,71.0982029 3.80210065,69.8968514 2.34111227,69.8968514 C0.875717827,69.8968514 -1.73433206e-14,71.0982029 -1.73433206e-14,73.1708521 C-1.73433206e-14,75.2568196 0.866915727,76.4449529 2.34111227,76.4449529 Z M0.968124857,73.1708521 C0.968124857,71.5866744 1.48299263,70.7197827 2.34111227,70.7153766 C3.19482585,70.7197827 3.71408967,71.5866744 3.71408967,73.1708521 C3.71408967,74.759536 3.19922189,75.6088035 2.34111227,75.6088035 C1.47859659,75.6088035 0.963728814,74.759536 0.968124857,73.1708521 Z" id="Shape" fill="#001A5B" fill-rule="nonzero"></path>
                <path d="M7.84183397,76.3569319 C9.78247172,76.3569319 10.9002082,75.1511744 10.9046143,73.1621401 C10.9002082,71.1774118 9.78247172,69.9848724 7.90343866,69.9848724 L5.77356077,69.9848724 L5.77356077,76.3569319 L7.84183397,76.3569319 Z M6.74169163,75.5119704 L6.74169163,70.829834 L7.84183397,70.829834 C9.23241557,70.829834 9.94529555,71.6614772 9.94529555,73.1621401 C9.94529555,74.667109 9.23241557,75.5075643 7.78903138,75.5119704 L6.74169163,75.5119704 Z" id="Shape" fill="#001A5B" fill-rule="nonzero"></path>
                <polygon id="Path" fill="#001A5B" fill-rule="nonzero" points="183.552148 69.9848724 182.601842 69.9848724 181.017664 71.0234001 181.017664 71.9475705 182.540758 70.9530033 182.575806 70.9530033 182.575806 76.3569319 183.552148 76.3569319"></polygon>
                <path d="M187.32834,76.3569319 C189.269007,76.3569319 190.386544,75.1511744 190.39155,73.1621401 C190.386544,71.1774118 189.269007,69.9848724 187.390425,69.9848724 L185.260497,69.9848724 L185.260497,76.3569319 L187.32834,76.3569319 Z M186.227827,75.5119704 L186.227827,70.829834 L187.32834,70.829834 C188.719252,70.829834 189.432232,71.6614772 189.432232,73.1621401 C189.432232,74.667109 188.719252,75.5075643 187.275267,75.5119704 L186.227827,75.5119704 Z" id="Shape" fill="#001A5B" fill-rule="nonzero"></path>
                <path d="M360.719696,76.3569319 L365.006589,76.3569319 L365.006589,75.5295946 L362.066548,75.5295946 L362.066548,75.4768221 L363.360326,74.1654193 C364.556971,72.9905042 364.891431,72.4228238 364.900443,71.7099438 C364.891431,70.6757221 364.042264,69.8968514 362.814576,69.8968514 C361.599906,69.8968514 360.711685,70.6670102 360.719696,71.8331132 L361.634954,71.8331132 C361.639961,71.1554816 362.088578,70.7065645 362.797553,70.7065645 C363.466472,70.7065645 363.976173,71.107015 363.976173,71.73628 C363.976173,72.2951483 363.628695,72.7000049 362.928733,73.426103 L360.719696,75.6528641 L360.719696,76.3569319 Z" id="Path" fill="#001A5B" fill-rule="nonzero"></path>
                <path d="M368.236029,76.3569319 C370.176697,76.3569319 371.294233,75.1511744 371.29924,73.1621401 C371.294233,71.1774118 370.176697,69.9848724 368.298114,69.9848724 L366.168186,69.9848724 L366.168186,76.3569319 L368.236029,76.3569319 Z M367.136517,75.5119704 L367.136517,70.829834 L368.236029,70.829834 C369.626941,70.829834 370.339921,71.6614772 370.339921,73.1621401 C370.339921,74.667109 369.626941,75.5075643 368.182956,75.5119704 L367.136517,75.5119704 Z" id="Shape" fill="#001A5B" fill-rule="nonzero"></path>
                <path d="M543.097406,76.4449529 C544.418222,76.4449529 545.399571,75.6659821 545.394601,74.6055243 C545.399571,73.8002173 544.892874,73.2149127 544.021677,73.0916432 L544.021677,73.0476828 C544.708621,72.8760469 545.157238,72.3568331 545.148225,71.630735 C545.157238,70.6889403 544.369155,69.8968514 543.115431,69.8968514 C541.926797,69.8968514 540.967478,70.6009193 540.941443,71.6395471 L541.874725,71.6395471 C541.896756,71.0630546 542.468542,70.7065645 543.106419,70.7065645 C543.779344,70.7065645 544.214943,71.102609 544.214943,71.6835075 C544.214943,72.2951483 543.709247,72.7000049 542.983249,72.6955988 L542.437499,72.6955988 L542.437499,73.4877878 L542.983249,73.4877878 C543.894502,73.4920937 544.418222,73.9410108 544.418222,74.5702759 C544.418222,75.1907288 543.859454,75.6088035 543.088394,75.6088035 C542.376415,75.6088035 541.821653,75.2524136 541.786604,74.6935453 L540.800248,74.6935453 C540.840303,75.736479 541.777592,76.4449529 543.097406,76.4449529 Z" id="Path" fill="#001A5B" fill-rule="nonzero"></path>
                <path d="M548.615993,76.3569319 C550.55666,76.3569319 551.674197,75.1511744 551.679203,73.1621401 C551.674197,71.1774118 550.55666,69.9848724 548.678078,69.9848724 L546.54815,69.9848724 L546.54815,76.3569319 L548.615993,76.3569319 Z M547.51548,75.5119704 L547.51548,70.829834 L548.615993,70.829834 C550.006905,70.829834 550.719885,71.6614772 550.719885,73.1621401 C550.719885,74.667109 550.006905,75.5075643 548.56292,75.5119704 L547.51548,75.5119704 Z" id="Shape" fill="#001A5B" fill-rule="nonzero"></path>
                <polygon id="Path" fill="#979797" points="95.0755219 48.8258857 95.0755219 15.2631479 96.0768985 15.2631479 96.0768985 48.8258857"></polygon>
                <polygon id="Path" fill="#979797" points="275.323304 48.8258857 275.323304 15.2631479 276.324681 15.2631479 276.324681 48.8258857"></polygon>
                <polygon id="Path" fill="#979797" points="455.571086 48.8258857 455.571086 15.2631479 456.572463 15.2631479 456.572463 48.8258857"></polygon>
                <polygon id="Path" fill="#979797" points="635.818868 48.8258857 635.818868 15.2631479 636.820245 15.2631479 636.820245 48.8258857"></polygon>
                <polygon id="Path" fill="#979797" points="456.572463 37.3032458 456.572463 16.2743379 455.571086 16.2743379 455.571086 37.3032458"></polygon>
                <polygon id="Path" fill="#979797" points="636.820245 37.3032458 636.820245 16.2743379 635.818868 16.2743379 635.818868 37.3032458"></polygon>
                <rect id="Rectangle" fill="#001A5B" fill-rule="nonzero" x="546.195665" y="20.2798442" width="173.238146" height="24.0330376"></rect>
                <path d="M615.314682,35.1029211 L611.755789,35.1029211 L611.755789,33.1959997 L610.836526,33.1959997 L610.836526,35.1029211 L607.296659,35.1029211 L607.296659,35.8656696 L615.314682,35.8656696 L615.314682,35.1029211 Z M607.687196,32.7755217 L608.039681,33.4992165 C609.506697,33.2694006 610.72337,32.5750461 611.29115,31.5531413 C611.862937,32.5750461 613.085617,33.2694006 614.552634,33.4992165 L614.904117,32.7755217 C613.104643,32.5114587 611.808862,31.4944606 611.764802,30.2622668 L614.57166,30.2622668 L614.57166,29.5093317 L611.755789,29.5093317 L611.755789,28.3358185 L610.836526,28.3358185 L610.836526,29.5093317 L608.019653,29.5093317 L608.019653,30.2622668 L610.826512,30.2622668 C610.782451,31.4944606 609.48667,32.5114587 607.687196,32.7755217 Z" id="Shape" fill="#FFFFFF" fill-rule="nonzero"></path>
                <path d="M623.040302,29.0203596 L616.791712,29.0203596 L616.791712,29.7733947 L622.112026,29.7733947 L622.112026,29.8809426 C622.107019,30.9321877 622.107019,32.1740949 621.769555,33.8708274 L622.707845,33.9685617 C623.035295,32.1740949 623.035295,30.961528 623.040302,29.8809426 L623.040302,29.0203596 Z M615.950556,35.7581218 L623.940539,35.7581218 L623.940539,34.9855598 L619.911,34.9855598 L619.911,31.8954118 L618.991736,31.8954118 L618.991736,34.9855598 L615.950556,34.9855598 L615.950556,35.7581218 Z" id="Shape" fill="#FFFFFF" fill-rule="nonzero"></path>
                <polygon id="Path" fill="#FFFFFF" fill-rule="nonzero" points="631.705213 32.2181555 626.532102 32.2181555 626.532102 29.6070661 631.626104 29.6070661 631.626104 28.854131 625.602824 28.854131 625.602824 32.9613772 628.135306 32.9613772 628.135306 35.1029211 624.605453 35.1029211 624.605453 35.8656696 632.624477 35.8656696 632.624477 35.1029211 629.054569 35.1029211 629.054569 32.9613772 631.705213 32.9613772"></polygon>
                <path d="M636.007127,36.1102058 L640.769674,36.1102058 L640.769674,35.1909421 L637.504185,35.1909421 L637.504185,35.1322614 L638.94116,33.6751584 C640.270988,32.3696638 640.642499,31.7388967 640.652513,30.9468078 C640.642499,29.7978283 639.699202,28.9323386 638.335327,28.9323386 C636.985472,28.9323386 635.998115,29.7880148 636.007127,31.0837961 L637.024526,31.0837961 C637.029532,30.3307609 637.528218,29.8320754 638.3153,29.8320754 C639.058321,29.8320754 639.626102,30.276987 639.626102,30.9761481 C639.626102,31.5971017 639.23957,32.0470202 638.462502,32.8537292 L636.007127,35.3278303 L636.007127,36.1102058 Z" id="Path" fill="#FFFFFF" fill-rule="nonzero"></path>
                <path d="M642.657269,36.1785998 C643.033786,36.1737932 643.347217,35.8656696 643.351223,35.4843454 C643.347217,35.1029211 643.033786,34.7899909 642.657269,34.7899909 C642.275744,34.7899909 641.958308,35.1029211 641.963315,35.4843454 C641.958308,35.8656696 642.275744,36.1737932 642.657269,36.1785998 Z" id="Path" fill="#FFFFFF" fill-rule="nonzero"></path>
                <path d="M646.95017,28.9322707 C645.410053,28.9225251 644.407675,29.9786769 644.407675,31.3282321 C644.407675,32.6825939 645.425074,33.6556315 646.69582,33.6556315 C647.458869,33.6556315 648.123783,33.2938342 648.505308,32.6973142 L648.593429,32.6973142 C648.583415,34.315739 647.942534,35.264343 646.853037,35.2691496 C646.139055,35.264343 645.679423,34.8486716 645.532221,34.2521516 L644.466756,34.2521516 C644.637992,35.4012312 645.547241,36.2079401 646.853037,36.2079401 C648.549368,36.2079401 649.61984,34.7998044 649.61984,32.3158898 C649.614833,29.7244274 648.250958,28.942152 646.95017,28.9322707 Z M645.454085,31.3087053 C645.449107,30.4969894 646.094994,29.8320754 646.95017,29.8320754 C647.815359,29.8320754 648.446227,30.5312365 648.446227,31.2988918 C648.446227,32.0811672 647.786319,32.7804284 646.931144,32.7755493 C646.06996,32.7804284 645.45912,32.1301345 645.454085,31.3087053 Z" id="Shape" fill="#FFFFFF" fill-rule="nonzero"></path>
                <path d="M652.377631,32.3940973 C653.330942,32.4039108 653.859668,31.6900295 653.864675,30.6338776 C653.859668,29.5973527 653.350969,28.8785646 652.377631,28.8834464 C651.434334,28.8785646 650.881574,29.5973527 650.891588,30.6338776 C650.881574,31.6851227 651.4093,32.4039108 652.377631,32.3940973 Z M651.693691,36.1102058 L652.582913,36.1102058 L657.443595,29.030173 L656.553371,29.030173 L651.693691,36.1102058 Z M651.693691,30.6338776 C651.697696,30.0031105 651.923006,29.5777258 652.377631,29.5680124 C652.852284,29.5631057 653.052559,29.9983039 653.052559,30.6338776 C653.052559,31.2841716 652.837263,31.7047497 652.377631,31.7096565 C651.923006,31.7047497 651.697696,31.2841716 651.693691,30.6338776 Z M655.360732,34.4966877 C655.355725,35.5381194 655.88345,36.2569075 656.846775,36.2569075 C657.800085,36.2569075 658.328812,35.5430261 658.332817,34.4966877 C658.328812,33.4502492 657.815106,32.7315612 656.846775,32.7363439 C655.903478,32.7315612 655.355725,33.4502492 655.360732,34.4966877 Z M656.161833,34.4966877 C656.16684,33.8561071 656.397157,33.4307224 656.846775,33.4209089 C657.321427,33.4209089 657.521702,33.8512004 657.521702,34.4966877 C657.521702,35.1371682 657.306406,35.5625529 656.846775,35.5625529 C656.39215,35.5625529 656.16684,35.1371682 656.161833,34.4966877 Z" id="Shape" fill="#FFFFFF" fill-rule="nonzero"></path>
                <rect id="Rectangle" fill="#113287" fill-rule="nonzero" x="365.947883" y="20.2798442" width="180.247782" height="24.0330376"></rect>
                <path d="M443.123975,28.7612033 L436.875386,28.7612033 L436.875386,29.5142385 L442.195699,29.5142385 L442.195699,29.6217863 C442.190692,30.6730314 442.190692,31.9149387 441.853228,33.6116711 L442.791518,33.7094055 C443.118968,31.9149387 443.118968,30.7023718 443.123975,29.6217863 L443.123975,28.7612033 Z M436.034229,35.4989655 L444.024213,35.4989655 L444.024213,34.7264035 L439.994674,34.7264035 L439.994674,31.6362556 L439.07541,31.6362556 L439.07541,34.7264035 L436.034229,34.7264035 L436.034229,35.4989655 Z" id="Shape" fill="#FFFFFF" fill-rule="nonzero"></path>
                <polygon id="Path" fill="#FFFFFF" fill-rule="nonzero" points="451.788887 31.9589992 446.615775 31.9589992 446.615775 29.34801 451.710779 29.34801 451.710779 28.5949748 445.686498 28.5949748 445.686498 32.7022209 448.218979 32.7022209 448.218979 34.8437648 444.689127 34.8437648 444.689127 35.6066135 452.70815 35.6066135 452.70815 34.8437648 449.138243 34.8437648 449.138243 32.7022209 451.788887 32.7022209"></polygon>
                <polygon id="Path" fill="#FFFFFF" fill-rule="nonzero" points="456.336138 35.8510495 457.460684 35.8510495 460.609012 29.7293342 460.609012 28.7710168 455.846465 28.7710168 455.846465 29.6901803 459.494479 29.6901803 459.494479 29.748861"></polygon>
                <path d="M461.166778,35.9195437 C461.543296,35.9146369 461.855725,35.6066135 461.860732,35.2251892 C461.855725,34.8437648 461.543296,34.5308347 461.166778,34.5308347 C460.785254,34.5308347 460.467817,34.8437648 460.472824,35.2251892 C460.467817,35.6066135 460.785254,35.9146369 461.166778,35.9195437 Z" id="Path" fill="#FFFFFF" fill-rule="nonzero"></path>
                <polygon id="Path" fill="#FFFFFF" fill-rule="nonzero" points="463.171534 35.8510495 464.29608 35.8510495 467.444408 29.7293342 467.444408 28.7710168 462.682862 28.7710168 462.682862 29.6901803 466.329876 29.6901803 466.329876 29.748861"></polygon>
                <path d="M470.153132,32.1350412 C471.107443,32.1447546 471.635169,31.4308732 471.640176,30.3747214 C471.635169,29.3381965 471.12647,28.6194084 470.153132,28.6242902 C469.209835,28.6194084 468.657075,29.3381965 468.667089,30.3747214 C468.657075,31.4259665 469.185802,32.1447546 470.153132,32.1350412 Z M469.469191,35.8510495 L470.359415,35.8510495 L475.219096,28.7710168 L474.328872,28.7710168 L469.469191,35.8510495 Z M469.469191,30.3747214 C469.474198,29.7440544 469.698507,29.3186696 470.153132,29.3088561 C470.627784,29.3039494 470.828059,29.7391477 470.828059,30.3747214 C470.828059,31.0251154 470.612763,31.4455935 470.153132,31.4505002 C469.698507,31.4455935 469.474198,31.0251154 469.469191,30.3747214 Z M473.136232,34.2375315 C473.131226,35.2789631 473.658951,35.9977512 474.622275,35.9977512 C475.576587,35.9977512 476.104313,35.2838698 476.109319,34.2375315 C476.104313,33.191093 475.590606,32.472405 474.622275,32.4772868 C473.678979,32.472405 473.131226,33.191093 473.136232,34.2375315 Z M473.938335,34.2375315 C473.943342,33.5969509 474.172657,33.1715661 474.622275,33.1617526 C475.096928,33.1617526 475.297203,33.5920441 475.297203,34.2375315 C475.297203,34.8780119 475.081907,35.3033967 474.622275,35.3033967 C474.16765,35.3033967 473.943342,34.8780119 473.938335,34.2375315 Z" id="Shape" fill="#FFFFFF" fill-rule="nonzero"></path>
                <rect id="Rectangle" fill="#5B6EB4" fill-rule="nonzero" x="185.700101" y="20.2798442" width="180.247782" height="24.0330376"></rect>
                <path d="M260.446854,31.7829572 L252.45687,31.7829572 L252.45687,32.5358923 L255.986722,32.5358923 L255.986722,33.3769484 C254.358484,33.4600627 253.405174,34.0028088 253.405174,34.9220725 C253.405174,35.9146369 254.539733,36.4720031 256.446354,36.4671285 C258.328942,36.4720031 259.463502,35.9146369 259.468509,34.9220725 C259.463502,34.0028088 258.510191,33.4649694 256.905986,33.3769484 L256.905986,32.5358923 L260.446854,32.5358923 L260.446854,31.7829572 Z M252.877448,30.5899172 L253.199891,31.3233254 C254.720982,31.1472834 255.967696,30.5068029 256.451361,29.5777258 C256.926014,30.5068029 258.182741,31.1472834 259.702831,31.3233254 L260.035288,30.5899172 C258.432084,30.4285954 257.199389,29.7195207 257.072215,28.8687511 L259.732872,28.8687511 L259.732872,28.1255295 L253.189878,28.1255295 L253.189878,28.8687511 L255.820494,28.8687511 C255.693319,29.7147141 254.451612,30.4285954 252.877448,30.5899172 Z M254.344441,34.9220725 C254.339458,34.3793264 255.107514,34.0859231 256.446354,34.0810163 C257.76717,34.0859231 258.539231,34.3793264 258.539231,34.9220725 C258.539231,35.4550051 257.76717,35.7630285 256.446354,35.753215 C255.107514,35.7630285 254.339458,35.4550051 254.344441,34.9220725 Z" id="Shape" fill="#FFFFFF" fill-rule="nonzero"></path>
                <polygon id="Path" fill="#FFFFFF" fill-rule="nonzero" points="268.210526 31.7634304 263.037415 31.7634304 263.037415 29.152341 268.132419 29.152341 268.132419 28.3994059 262.109139 28.3994059 262.109139 32.5065519 264.64162 32.5065519 264.64162 34.648196 261.111768 34.648196 261.111768 35.4109445 269.12979 35.4109445 269.12979 34.648196 265.560884 34.648196 265.560884 32.5065519 268.210526 32.5065519"></polygon>
                <polygon id="Path" fill="#FFFFFF" fill-rule="nonzero" points="275.203139 28.5754479 274.146687 28.5754479 272.386267 29.7293342 272.386267 30.7561457 274.078593 29.6511267 274.117647 29.6511267 274.117647 35.6554807 275.203139 35.6554807"></polygon>
                <path d="M279.436959,28.4775456 C277.896842,28.4678 276.894464,29.5239518 276.894464,30.873507 C276.894464,32.2278688 277.911862,33.2009064 279.182609,33.2009064 C279.945658,33.2009064 280.610572,32.8391091 280.992097,32.2425891 L281.080218,32.2425891 C281.070204,33.8610139 280.430324,34.8096179 279.339825,34.8144245 C278.625844,34.8096179 278.166212,34.3939465 278.01901,33.7974265 L276.953545,33.7974265 C277.12478,34.9465061 278.03403,35.753215 279.339825,35.753215 C281.036157,35.753215 282.106629,34.3450793 282.106629,31.8611647 C282.102623,29.2697023 280.737747,28.4874269 279.436959,28.4775456 Z M277.940873,30.8539802 C277.935895,30.0422643 278.581783,29.3772502 279.436959,29.3772502 C280.30315,29.3772502 280.934017,30.0765114 280.934017,30.8441667 C280.934017,31.6264421 280.273108,32.3257033 279.417933,32.3208242 C278.556749,32.3257033 277.945909,31.6754094 277.940873,30.8539802 Z" id="Shape" fill="#FFFFFF" fill-rule="nonzero"></path>
                <path d="M283.67178,35.7238747 C284.048298,35.7190681 284.360727,35.4109445 284.365734,35.0296203 C284.360727,34.648196 284.048298,34.3352658 283.67178,34.3352658 C283.290256,34.3352658 282.97282,34.648196 282.977826,35.0296203 C282.97282,35.4109445 283.290256,35.7190681 283.67178,35.7238747 Z" id="Path" fill="#FFFFFF" fill-rule="nonzero"></path>
                <path d="M287.876561,35.753215 C289.343577,35.753215 290.434076,34.8878254 290.429103,33.7094055 C290.434076,32.8146755 289.871303,32.1643816 288.903973,32.0273932 L288.903973,31.9785261 C289.666021,31.787864 290.164706,31.2108708 290.155694,30.4040617 C290.164706,29.3577233 289.289503,28.4776135 287.896588,28.4776135 C286.575772,28.4776135 285.510308,29.259989 285.481268,30.4138752 L286.517693,30.4138752 C286.541726,29.7733947 287.1776,29.3772502 287.886574,29.3772502 C288.634603,29.3772502 289.118268,29.8173552 289.118268,30.4627424 C289.118268,31.1423766 288.556495,31.5922951 287.749386,31.5873884 L287.143553,31.5873884 L287.143553,32.4674982 L287.749386,32.4674982 C288.761778,32.472405 289.343577,32.9710905 289.343577,33.6703518 C289.343577,34.3596994 288.722724,34.824238 287.866547,34.824238 C287.074458,34.824238 286.458611,34.4281936 286.419558,33.80724 L285.324052,33.80724 C285.368112,34.9660329 286.409544,35.753215 287.876561,35.753215 Z" id="Path" fill="#FFFFFF" fill-rule="nonzero"></path>
                <path d="M293.235928,31.9393722 C294.189239,31.9491857 294.716964,31.2353044 294.721971,30.1791525 C294.716964,29.1426276 294.208265,28.4238395 293.235928,28.4287213 C292.29163,28.4238395 291.739871,29.1426276 291.748884,30.1791525 C291.739871,31.2303976 292.267597,31.9491857 293.235928,31.9393722 Z M292.550986,35.6554807 L293.44121,35.6554807 L298.300891,28.5754479 L297.411668,28.5754479 L292.550986,35.6554807 Z M292.550986,30.1791525 C292.555993,29.5483854 292.781303,29.1230007 293.235928,29.1132873 C293.709579,29.1083806 293.910856,29.5435788 293.910856,30.1791525 C293.910856,30.8294465 293.69556,31.2500246 293.235928,31.2548312 C292.781303,31.2500246 292.555993,30.8294465 292.550986,30.1791525 Z M296.218027,34.0419626 C296.213021,35.0833943 296.741747,35.8021824 297.705072,35.8021824 C298.658382,35.8021824 299.186108,35.088301 299.191114,34.0419626 C299.186108,32.9955241 298.672401,32.2768362 297.705072,32.2816188 C296.760774,32.2768362 296.213021,32.9955241 296.218027,34.0419626 Z M297.02013,34.0419626 C297.025137,33.401382 297.254452,32.9759973 297.705072,32.9661838 C298.178723,32.9661838 298.378998,33.3964753 298.378998,34.0419626 C298.378998,34.6824431 298.164703,35.1078278 297.705072,35.1078278 C297.249445,35.1078278 297.025137,34.6824431 297.02013,34.0419626 Z" id="Shape" fill="#FFFFFF" fill-rule="nonzero"></path>
                <rect id="Rectangle" fill="#E2E6F6" fill-rule="nonzero" x="5.45231917" y="20.2798442" width="180.247782" height="24.0330376"></rect>
                <path d="M78.7171345,27.9397741 L77.7880573,27.9397741 L77.7880573,29.4946115 L75.8860426,29.4946115 C75.9447233,29.2013083 75.9789704,28.8883781 75.9789704,28.5656345 L71.9695587,28.5656345 L71.9695587,29.328383 L74.9716857,29.328383 C74.8054572,30.7415256 73.5928903,31.856258 71.5197404,32.4479714 L71.8913512,33.1715661 C73.7884591,32.62882 75.1037672,31.6362556 75.6709469,30.2281198 L77.7880573,30.2281198 L77.7880573,31.293985 L75.5780192,31.293985 L75.5780192,32.0567336 L77.7880573,32.0567336 L77.7880573,33.1226989 L78.7171345,33.1226989 L78.7171345,27.9397741 Z M72.8790089,34.9317858 C72.8790089,35.9977512 74.0328951,36.6529519 75.8322687,36.6529519 C77.6072087,36.6529519 78.7709084,35.9977512 78.7758151,34.9317858 C78.7709084,33.8708274 77.6072087,33.22534 75.8322687,33.2204333 C74.0328951,33.22534 72.8790089,33.8708274 72.8790089,34.9317858 Z M73.7982726,34.9317858 C73.7982726,34.3059255 74.580548,33.9490349 75.8322687,33.9539416 C77.0595558,33.9490349 77.8418312,34.3059255 77.8467379,34.9317858 C77.8418312,35.5479328 77.0595558,35.9048235 75.8322687,35.9097302 C74.580548,35.9048235 73.7982726,35.5479328 73.7982726,34.9317858 Z" id="Shape" fill="#113287" fill-rule="nonzero"></path>
                <polygon id="Path" fill="#113287" fill-rule="nonzero" points="87.1662492 31.9687126 81.9930378 31.9687126 81.9930378 29.3577233 87.0879416 29.3577233 87.0879416 28.6047883 81.0640607 28.6047883 81.0640607 32.7119343 83.5968425 32.7119343 83.5968425 34.8535783 80.0665895 34.8535783 80.0665895 35.6163269 88.0854128 35.6163269 88.0854128 34.8535783 84.5161062 34.8535783 84.5161062 32.7119343 87.1662492 32.7119343"></polygon>
                <path d="M93.8746711,35.9585974 C95.351301,35.9585974 96.3976394,34.9562194 96.3976394,33.5627038 C96.3976394,32.1985285 95.4148884,31.2108708 94.0800535,31.205964 C93.5422141,31.2108708 93.0434284,31.4015329 92.7500251,31.6851227 L92.6816311,31.6851227 L92.9163538,29.6999938 L96.035842,29.6999938 L96.035842,28.7807301 L92.0264304,28.7807301 L91.5667986,32.7217478 L92.5837966,32.7217478 C92.823426,32.2865495 93.2585241,32.0958874 93.825804,32.0958874 C94.7156272,32.1057009 95.351301,32.7315612 95.351301,33.5920441 C95.351301,34.4331003 94.7352542,35.0540539 93.8746711,35.0589607 C93.1607898,35.0540539 92.5837966,34.6139489 92.5251159,34.0126223 L91.4787776,34.0126223 C91.5276447,35.1420749 92.5349294,35.9585974 93.8746711,35.9585974 Z" id="Path" fill="#113287" fill-rule="nonzero"></path>
                <path d="M100.103434,35.9586655 C101.624525,35.9684109 102.636916,34.9171657 102.636916,33.543177 C102.636916,32.1888152 101.619518,31.2206843 100.357783,31.2157775 C99.5907289,31.2206843 98.9255144,31.5726681 98.5392835,32.1740949 L98.461076,32.1740949 C98.461076,30.5751969 99.0966497,29.6266931 100.191555,29.6217863 C100.905536,29.6266931 101.360161,30.0422643 101.502357,30.6192575 L102.567821,30.6192575 C102.401593,29.4946115 101.49735,28.6829958 100.191555,28.6829958 C98.4952229,28.6829958 97.4293577,30.0911315 97.4244509,32.5555192 C97.4244509,35.1714153 98.793533,35.9487839 100.103434,35.9586655 Z M98.5881506,33.5725173 C98.5979641,32.7853352 99.2580716,32.0909807 100.123461,32.0958602 C100.974631,32.0909807 101.590478,32.7510881 101.590478,33.5627038 C101.590478,34.3890397 100.949597,35.0540539 100.094421,35.0589607 C99.2238245,35.0540539 98.5930574,34.3596994 98.5881506,33.5725173 Z" id="Shape" fill="#113287" fill-rule="nonzero"></path>
                <path d="M104.151999,35.929257 C104.528517,35.9243503 104.841948,35.6163269 104.846954,35.2350027 C104.841948,34.8535783 104.528517,34.5406482 104.151999,34.5406482 C103.771476,34.5406482 103.453038,34.8535783 103.458045,35.2350027 C103.453038,35.6163269 103.771476,35.9243503 104.151999,35.929257 Z" id="Path" fill="#113287" fill-rule="nonzero"></path>
                <path d="M108.386821,35.9585974 C109.863851,35.9585974 110.909288,34.9562194 110.909288,33.5627038 C110.909288,32.1985285 109.926938,31.2108708 108.592103,31.205964 C108.054364,31.2108708 107.555678,31.4015329 107.262275,31.6851227 L107.194181,31.6851227 L107.428503,29.6999938 L110.547791,29.6999938 L110.547791,28.7807301 L106.538279,28.7807301 L106.078648,32.7217478 L107.096046,32.7217478 C107.335375,32.2865495 107.770974,32.0958874 108.337753,32.0958874 C109.227977,32.1057009 109.863851,32.7315612 109.863851,33.5920441 C109.863851,34.4331003 109.247003,35.0540539 108.386821,35.0589607 C107.672839,35.0540539 107.096046,34.6139489 107.036965,34.0126223 L105.990526,34.0126223 C106.039594,35.1420749 107.046979,35.9585974 108.386821,35.9585974 Z" id="Path" fill="#113287" fill-rule="nonzero"></path>
                <path d="M113.677093,32.1447546 C114.630404,32.1545681 115.15913,31.4406867 115.164137,30.3845349 C115.15913,29.34801 114.650431,28.6292219 113.677093,28.6341036 C112.733796,28.6292219 112.181036,29.34801 112.19105,30.3845349 C112.181036,31.43578 112.708762,32.1545681 113.677093,32.1447546 Z M112.993153,35.860863 L113.882375,35.860863 L118.743057,28.7807301 L117.852833,28.7807301 L112.993153,35.860863 Z M112.993153,30.3845349 C112.997158,29.7537678 113.222468,29.328383 113.677093,29.3186696 C114.151746,29.3137629 114.352021,29.748861 114.352021,30.3845349 C114.352021,31.0348288 114.136725,31.4553068 113.677093,31.4602136 C113.222468,31.4553068 112.997158,31.0348288 112.993153,30.3845349 Z M116.660194,34.2472448 C116.655187,35.2887766 117.182912,36.0074646 118.146237,36.0074646 C119.099547,36.0074646 119.628274,35.2936833 119.632279,34.2472448 C119.628274,33.2009064 119.114568,32.4821183 118.146237,32.4870001 C117.20294,32.4821183 116.655187,33.2009064 116.660194,34.2472448 Z M117.461295,34.2472448 C117.466302,33.6067644 117.696619,33.1813796 118.146237,33.1715661 C118.620889,33.1715661 118.821164,33.6018576 118.821164,34.2472448 C118.821164,34.8878254 118.605868,35.3132102 118.146237,35.3132102 C117.691612,35.3132102 117.466302,34.8878254 117.461295,34.2472448 Z" id="Shape" fill="#113287" fill-rule="nonzero"></path>
                <polygon id="Path" fill="#113287" points="4.4509426 64.3404131 4.4509426 0.252300832 6.45369573 0.252300832 6.45369573 64.3404131"></polygon>
                <polygon id="Path" fill="#979797" points="185.199413 64.0880662 185.199413 0 186.20079 0 186.20079 64.0880662"></polygon>
                <polygon id="Path" fill="#979797" points="365.447195 64.0880662 365.447195 0 366.448572 0 366.448572 64.0880662"></polygon>
                <polygon id="Path" fill="#979797" points="545.694977 64.0880662 545.694977 0 546.696354 0 546.696354 64.0880662"></polygon>
                <path d="M36.666829,70.3131237 L39.8532092,73.4995039 C40.0486779,73.6950728 40.0486779,74.0121086 39.8532092,74.2075773 L36.666829,77.3939575 C36.4712601,77.5895264 36.1542243,77.5895264 35.9587556,77.3939575 C35.7631867,77.1984888 35.7631867,76.881453 35.9587556,76.6858841 L38.2903608,74.3542789 L20.4729677,74.3542789 L20.4729677,73.3529024 L38.2903608,73.3529024 L35.9587556,71.0212972 C35.7631867,70.8257283 35.7631867,70.5086925 35.9587556,70.3131237 C36.1542243,70.117655 36.4712601,70.117655 36.666829,70.3131237 Z" id="Path" fill="#113287"></path>
                <polygon id="Path" fill="#001A5B" fill-rule="nonzero" points="719.889438 20.2798442 691.041782 20.2798442 691.041782 44.3128818 719.889438 44.3128818 727.444824 32.296363"></polygon>
            </g>
        </g>
    </g>
</svg>