<svg width="727" height="90" viewBox="0 0 727 90" fill="none" xmlns="http://www.w3.org/2000/svg">
<rect width="727" height="90" fill="#727272"/>
<path d="M-1401 -1397C-1401 -1398.1 -1400.1 -1399 -1399 -1399H1914C1915.1 -1399 1916 -1398.1 1916 -1397V573C1916 574.105 1915.1 575 1914 575H-1399C-1400.1 575 -1401 574.105 -1401 573V-1397Z" fill="white"/>
<g clip-path="url(#clip0_1814_2379)">
<path d="M21.7091 83.1142H21.0911V86.3765H21.6465C22.6988 86.3765 23.7548 86.31 24.9322 86.0636L24.8618 85.5551C23.7275 85.7898 22.7027 85.8524 21.7091 85.8524V83.1142ZM21.8655 89.412H26.4421V88.8957H22.4758V87.1432H21.8655V89.412ZM25.5816 87.6361H26.1918V85.2109H27.2401V84.6789H26.1918V82.6135H25.5816V87.6361Z" fill="#001A5B"/>
<path d="M32.1609 84.4755V83.2081H31.5507V84.4755C31.5429 85.7937 30.6862 87.1236 29.6497 87.597L30.0408 88.1133C30.8544 87.7026 31.539 86.8225 31.8597 85.7742C32.1922 86.7638 32.8767 87.5892 33.6708 87.9725L34.0463 87.4874C33.0214 87.022 32.157 85.7467 32.1609 84.4755ZM34.8051 89.5763H35.4232V82.6057H34.8051V89.5763Z" fill="#001A5B"/>
<path d="M2.34111 76.8508C3.8153 76.8508 4.67781 75.6626 4.68222 73.5767C4.67781 71.5041 3.8021 70.3027 2.34111 70.3027C0.875718 70.3027 0 71.5041 0 73.5767C0 75.6626 0.866916 76.8508 2.34111 76.8508ZM0.968125 73.5767C0.968125 71.9926 1.48299 71.1257 2.34111 71.1213C3.19483 71.1257 3.71409 71.9926 3.71409 73.5767C3.71409 75.1653 3.19922 76.0147 2.34111 76.0147C1.4786 76.0147 0.963729 75.1653 0.968125 73.5767Z" fill="#001A5B"/>
<path d="M7.84183 76.7629C9.78247 76.7629 10.9002 75.5572 10.9046 73.568C10.9002 71.5834 9.78247 70.3909 7.90344 70.3909H5.77356V76.7629H7.84183ZM6.74169 75.918V71.2357H7.84183C9.23241 71.2357 9.94529 72.0675 9.94529 73.568C9.94529 75.0731 9.23241 75.9136 7.78903 75.918H6.74169Z" fill="#001A5B"/>
<path d="M183.552 70.3909H182.602L181.018 71.4294V72.3535L182.541 71.359H182.576V76.7629H183.552V70.3909Z" fill="#001A5B"/>
<path d="M187.328 76.7629C189.269 76.7629 190.387 75.5572 190.392 73.568C190.387 71.5834 189.269 70.3909 187.39 70.3909H185.26V76.7629H187.328ZM186.228 75.918V71.2357H187.328C188.719 71.2357 189.432 72.0675 189.432 73.568C189.432 75.0731 188.719 75.9136 187.275 75.918H186.228Z" fill="#001A5B"/>
<path d="M360.72 76.7628H365.007V75.9355H362.067V75.8827L363.36 74.5713C364.557 73.3963 364.891 72.8286 364.9 72.1157C364.891 71.0816 364.042 70.3027 362.815 70.3027C361.6 70.3027 360.712 71.0728 360.72 72.239H361.635C361.64 71.5613 362.089 71.1124 362.798 71.1124C363.466 71.1124 363.976 71.5129 363.976 72.1422C363.976 72.701 363.629 73.1059 362.929 73.832L360.72 76.0586V76.7628Z" fill="#001A5B"/>
<path d="M368.236 76.7629C370.177 76.7629 371.294 75.5572 371.299 73.568C371.294 71.5834 370.177 70.3909 368.298 70.3909H366.168V76.7629H368.236ZM367.137 75.918V71.2357H368.236C369.627 71.2357 370.34 72.0675 370.34 73.568C370.34 75.0731 369.627 75.9136 368.183 75.918H367.137Z" fill="#001A5B"/>
<path d="M543.097 76.8508C544.418 76.8508 545.4 76.0719 545.395 75.0113C545.4 74.206 544.893 73.6208 544.022 73.4975V73.4536C544.709 73.2819 545.157 72.7626 545.148 72.0365C545.157 71.0948 544.369 70.3027 543.115 70.3027C541.927 70.3027 540.968 71.0068 540.942 72.0453H541.875C541.897 71.4688 542.469 71.1124 543.107 71.1124C543.779 71.1124 544.215 71.5085 544.215 72.0894C544.215 72.701 543.709 73.1059 542.983 73.1015H542.438V73.8936H542.983C543.895 73.898 544.418 74.3469 544.418 74.9762C544.418 75.5966 543.859 76.0147 543.088 76.0147C542.376 76.0147 541.822 75.6582 541.787 75.0993H540.8C540.84 76.1423 541.778 76.8508 543.097 76.8508Z" fill="#001A5B"/>
<path d="M548.616 76.7629C550.557 76.7629 551.674 75.5572 551.679 73.568C551.674 71.5834 550.557 70.3909 548.678 70.3909H546.548V76.7629H548.616ZM547.515 75.918V71.2357H548.616C550.007 71.2357 550.72 72.0675 550.72 73.568C550.72 75.0731 550.007 75.9136 548.563 75.918H547.515Z" fill="#001A5B"/>
<path fill-rule="evenodd" clip-rule="evenodd" d="M95.0756 49.2318V15.6691H96.0769V49.2318H95.0756Z" fill="#979797"/>
<path fill-rule="evenodd" clip-rule="evenodd" d="M275.323 49.2318V15.6691H276.325V49.2318H275.323Z" fill="#979797"/>
<path fill-rule="evenodd" clip-rule="evenodd" d="M455.571 49.2318V15.6691H456.572V49.2318H455.571Z" fill="#979797"/>
<path fill-rule="evenodd" clip-rule="evenodd" d="M635.819 49.2318V15.6691H636.82V49.2318H635.819Z" fill="#979797"/>
<path fill-rule="evenodd" clip-rule="evenodd" d="M456.572 37.7092V16.6803H455.571V37.7092H456.572Z" fill="#979797"/>
<path fill-rule="evenodd" clip-rule="evenodd" d="M636.82 37.7092V16.6803H635.819V37.7092H636.82Z" fill="#979797"/>
<path d="M719.434 20.6858H546.196V44.7188H719.434V20.6858Z" fill="#001A5B"/>
<path d="M546.196 20.6858H365.948V44.7188H546.196V20.6858Z" fill="#113287"/>
<path d="M365.948 20.6858H185.7V44.7188H365.948V20.6858Z" fill="#5B6EB4"/>
<path d="M185.7 20.6858H5.45227V44.7188H185.7V20.6858Z" fill="#E2E6F6"/>
<path fill-rule="evenodd" clip-rule="evenodd" d="M4.45093 64.7463V0.658203H6.45368V64.7463H4.45093Z" fill="#113287"/>
<path fill-rule="evenodd" clip-rule="evenodd" d="M185.199 64.494V0.405884H186.201V64.494H185.199Z" fill="#979797"/>
<path fill-rule="evenodd" clip-rule="evenodd" d="M365.447 64.494V0.405884H366.449V64.494H365.447Z" fill="#979797"/>
<path fill-rule="evenodd" clip-rule="evenodd" d="M545.695 64.494V0.405884H546.696V64.494H545.695Z" fill="#979797"/>
<path fill-rule="evenodd" clip-rule="evenodd" d="M36.6669 70.7191L39.8533 73.9055C40.0487 74.1011 40.0487 74.418 39.8533 74.6136L36.6669 77.7999C36.4713 77.9954 36.1543 77.9954 35.9588 77.7999C35.7632 77.6044 35.7632 77.2873 35.9588 77.0919L38.2904 74.7603H20.473V73.7589H38.2904L35.9588 71.4272C35.7632 71.2317 35.7632 70.9147 35.9588 70.7191C36.1543 70.5236 36.4713 70.5236 36.6669 70.7191Z" fill="#113287"/>
<path d="M719.889 20.6858H691.042V44.7188H719.889L727.445 32.7023L719.889 20.6858Z" fill="#001A5B"/>
<path d="M615.845 35.9941V36.7559H607.837V35.9941H611.372V34.0898H612.29V35.9941H615.845ZM608.228 33.6699C610.024 33.4062 611.318 32.3906 611.362 31.1602H608.56V30.4082H611.372V29.2363H612.29V30.4082H615.103V31.1602H612.3C612.344 32.3906 613.638 33.4062 615.435 33.6699L615.083 34.3926C613.618 34.1631 612.397 33.4697 611.826 32.4492C611.26 33.4697 610.044 34.1631 608.579 34.3926L608.228 33.6699ZM623.56 29.9199V30.7793C623.555 31.8584 623.555 33.0693 623.228 34.8613L622.29 34.7637C622.627 33.0693 622.627 31.8291 622.632 30.7793V30.6719H617.319V29.9199H623.56ZM616.479 36.6484V35.877H619.517V32.791H620.435V35.877H624.458V36.6484H616.479ZM632.212 33.1133V33.8555H629.565V35.9941H633.13V36.7559H625.122V35.9941H628.647V33.8555H626.118V29.7539H632.134V30.5059H627.046V33.1133H632.212ZM639.194 29.9297V37H638.11V31.0039H638.071L636.382 32.1074V31.082L638.14 29.9297H639.194ZM641.284 37.0684C640.903 37.0635 640.586 36.7559 640.591 36.375C640.586 35.9941 640.903 35.6816 641.284 35.6816C641.66 35.6816 641.973 35.9941 641.978 36.375C641.973 36.7559 641.66 37.0635 641.284 37.0684ZM645.454 37.0977C643.916 37.0977 642.847 36.2676 642.856 35.1152C642.847 34.207 643.496 33.4648 644.331 33.3379V33.2988C643.604 33.1328 643.12 32.4883 643.12 31.7168C643.12 30.6279 644.102 29.832 645.454 29.832C646.787 29.832 647.773 30.6279 647.778 31.7168C647.773 32.4883 647.28 33.1328 646.567 33.2988V33.3379C647.393 33.4648 648.047 34.207 648.052 35.1152C648.047 36.2676 646.968 37.0977 645.454 37.0977ZM643.95 35.0371C643.936 35.7305 644.521 36.209 645.454 36.209C646.372 36.209 646.958 35.7305 646.958 35.0371C646.958 34.3096 646.323 33.7773 645.454 33.7773C644.575 33.7773 643.936 34.3096 643.95 35.0371ZM644.165 31.8145C644.17 32.4736 644.697 32.9326 645.454 32.9277C646.191 32.9326 646.729 32.4785 646.724 31.8145C646.729 31.1553 646.211 30.7061 645.454 30.7109C644.678 30.7061 644.17 31.1553 644.165 31.8145ZM650.786 33.2891C649.819 33.2988 649.292 32.5811 649.302 31.5312C649.292 30.4961 649.844 29.7783 650.786 29.7832C651.758 29.7783 652.266 30.4961 652.271 31.5312C652.266 32.5859 651.738 33.2988 650.786 33.2891ZM650.103 37L654.956 29.9297H655.845L650.991 37H650.103ZM650.103 31.5312C650.107 32.1807 650.332 32.6006 650.786 32.6055C651.245 32.6006 651.46 32.1807 651.46 31.5312C651.46 30.8965 651.26 30.4619 650.786 30.4668C650.332 30.4766 650.107 30.9014 650.103 31.5312ZM653.765 35.3887C653.76 34.3438 654.307 33.626 655.249 33.6309C656.216 33.626 656.729 34.3438 656.733 35.3887C656.729 36.4336 656.201 37.1465 655.249 37.1465C654.287 37.1465 653.76 36.4287 653.765 35.3887ZM654.565 35.3887C654.57 36.0283 654.795 36.4531 655.249 36.4531C655.708 36.4531 655.923 36.0283 655.923 35.3887C655.923 34.7441 655.723 34.3145 655.249 34.3145C654.8 34.3242 654.57 34.749 654.565 35.3887Z" fill="white"/>
<path d="M441.889 29.9199V30.7793C441.884 31.8584 441.884 33.0693 441.557 34.8613L440.619 34.7637C440.956 33.0693 440.956 31.8291 440.961 30.7793V30.6719H435.648V29.9199H441.889ZM434.809 36.6484V35.877H437.846V32.791H438.764V35.877H442.787V36.6484H434.809ZM450.541 33.1133V33.8555H447.895V35.9941H451.459V36.7559H443.451V35.9941H446.977V33.8555H444.447V29.7539H450.463V30.5059H445.375V33.1133H450.541ZM457.24 37.0977C455.902 37.0977 454.896 36.2822 454.848 35.1543H455.893C455.951 35.7549 456.527 36.1943 457.24 36.1992C458.1 36.1943 458.715 35.5742 458.715 34.7344C458.715 33.875 458.08 33.25 457.191 33.2402C456.625 33.2402 456.19 33.4307 455.951 33.8652H454.936L455.395 29.9297H459.398V30.8477H456.283L456.049 32.8301H456.117C456.41 32.5469 456.908 32.3564 457.445 32.3516C458.778 32.3564 459.76 33.3428 459.76 34.7051C459.76 36.0967 458.715 37.0977 457.24 37.0977ZM461.342 37.0684C460.961 37.0635 460.644 36.7559 460.648 36.375C460.644 35.9941 460.961 35.6816 461.342 35.6816C461.718 35.6816 462.03 35.9941 462.035 36.375C462.03 36.7559 461.718 37.0635 461.342 37.0684ZM465.482 37.0977C463.847 37.0977 462.885 35.7793 462.885 33.4648C462.885 31.165 463.856 29.832 465.482 29.832C467.104 29.832 468.075 31.165 468.08 33.4648C468.075 35.7793 467.118 37.0977 465.482 37.0977ZM463.959 33.4648C463.954 35.2275 464.525 36.1699 465.482 36.1699C466.435 36.1699 467.006 35.2275 467.006 33.4648C467.006 31.707 466.43 30.7451 465.482 30.7402C464.53 30.7451 463.959 31.707 463.959 33.4648ZM470.814 33.2891C469.848 33.2988 469.32 32.5811 469.33 31.5312C469.32 30.4961 469.872 29.7783 470.814 29.7832C471.786 29.7783 472.294 30.4961 472.299 31.5312C472.294 32.5859 471.767 33.2988 470.814 33.2891ZM470.131 37L474.984 29.9297H475.873L471.02 37H470.131ZM470.131 31.5312C470.136 32.1807 470.36 32.6006 470.814 32.6055C471.273 32.6006 471.488 32.1807 471.488 31.5312C471.488 30.8965 471.288 30.4619 470.814 30.4668C470.36 30.4766 470.136 30.9014 470.131 31.5312ZM473.793 35.3887C473.788 34.3438 474.335 33.626 475.277 33.6309C476.244 33.626 476.757 34.3438 476.762 35.3887C476.757 36.4336 476.229 37.1465 475.277 37.1465C474.315 37.1465 473.788 36.4287 473.793 35.3887ZM474.594 35.3887C474.599 36.0283 474.823 36.4531 475.277 36.4531C475.736 36.4531 475.951 36.0283 475.951 35.3887C475.951 34.7441 475.751 34.3145 475.277 34.3145C474.828 34.3242 474.599 34.749 474.594 35.3887Z" fill="white"/>
<path d="M259.604 33.1328V33.8848H256.068V34.7246C257.67 34.8125 258.622 35.3496 258.627 36.2676C258.622 37.2588 257.489 37.8154 255.609 37.8105C253.705 37.8154 252.572 37.2588 252.572 36.2676C252.572 35.3496 253.524 34.8076 255.15 34.7246V33.8848H251.625V33.1328H259.604ZM252.045 31.9414C253.617 31.7803 254.857 31.0674 254.984 30.2227H252.357V29.4805H258.891V30.2227H256.234C256.361 31.0723 257.592 31.7803 259.193 31.9414L258.861 32.6738C257.343 32.498 256.088 31.8584 255.614 30.9307C255.131 31.8584 253.886 32.498 252.367 32.6738L252.045 31.9414ZM253.51 36.2676C253.505 36.7998 254.271 37.1074 255.609 37.0977C256.928 37.1074 257.699 36.7998 257.699 36.2676C257.699 35.7256 256.928 35.4326 255.609 35.4277C254.271 35.4326 253.505 35.7256 253.51 36.2676ZM267.357 33.1133V33.8555H264.711V35.9941H268.275V36.7559H260.268V35.9941H263.793V33.8555H261.264V29.7539H267.279V30.5059H262.191V33.1133H267.357ZM274.164 37.0977C272.699 37.0977 271.659 36.3115 271.615 35.1543H272.709C272.748 35.7744 273.363 36.1699 274.154 36.1699C275.009 36.1699 275.629 35.7061 275.629 35.0176C275.629 34.3193 275.048 33.8213 274.037 33.8164H273.432V32.9375H274.037C274.843 32.9424 275.404 32.4932 275.404 31.8145C275.404 31.1699 274.921 30.7305 274.174 30.7305C273.466 30.7305 272.831 31.126 272.807 31.7656H271.771C271.801 30.6133 272.865 29.832 274.184 29.832C275.575 29.832 276.449 30.7109 276.439 31.7559C276.449 32.5615 275.951 33.1377 275.189 33.3281V33.377C276.156 33.5137 276.718 34.1631 276.713 35.0566C276.718 36.2334 275.629 37.0977 274.164 37.0977ZM280.355 37.0977C278.72 37.0977 277.758 35.7793 277.758 33.4648C277.758 31.165 278.729 29.832 280.355 29.832C281.977 29.832 282.948 31.165 282.953 33.4648C282.948 35.7793 281.991 37.0977 280.355 37.0977ZM278.832 33.4648C278.827 35.2275 279.398 36.1699 280.355 36.1699C281.308 36.1699 281.879 35.2275 281.879 33.4648C281.879 31.707 281.303 30.7451 280.355 30.7402C279.403 30.7451 278.832 31.707 278.832 33.4648ZM284.496 37.0684C284.115 37.0635 283.798 36.7559 283.803 36.375C283.798 35.9941 284.115 35.6816 284.496 35.6816C284.872 35.6816 285.185 35.9941 285.189 36.375C285.185 36.7559 284.872 37.0635 284.496 37.0684ZM288.666 37.0977C287.128 37.0977 286.059 36.2676 286.068 35.1152C286.059 34.207 286.708 33.4648 287.543 33.3379V33.2988C286.815 33.1328 286.332 32.4883 286.332 31.7168C286.332 30.6279 287.313 29.832 288.666 29.832C289.999 29.832 290.985 30.6279 290.99 31.7168C290.985 32.4883 290.492 33.1328 289.779 33.2988V33.3379C290.604 33.4648 291.259 34.207 291.264 35.1152C291.259 36.2676 290.18 37.0977 288.666 37.0977ZM287.162 35.0371C287.147 35.7305 287.733 36.209 288.666 36.209C289.584 36.209 290.17 35.7305 290.17 35.0371C290.17 34.3096 289.535 33.7773 288.666 33.7773C287.787 33.7773 287.147 34.3096 287.162 35.0371ZM287.377 31.8145C287.382 32.4736 287.909 32.9326 288.666 32.9277C289.403 32.9326 289.94 32.4785 289.936 31.8145C289.94 31.1553 289.423 30.7061 288.666 30.7109C287.89 30.7061 287.382 31.1553 287.377 31.8145ZM293.998 33.2891C293.031 33.2988 292.504 32.5811 292.514 31.5312C292.504 30.4961 293.056 29.7783 293.998 29.7832C294.97 29.7783 295.478 30.4961 295.482 31.5312C295.478 32.5859 294.95 33.2988 293.998 33.2891ZM293.314 37L298.168 29.9297H299.057L294.203 37H293.314ZM293.314 31.5312C293.319 32.1807 293.544 32.6006 293.998 32.6055C294.457 32.6006 294.672 32.1807 294.672 31.5312C294.672 30.8965 294.472 30.4619 293.998 30.4668C293.544 30.4766 293.319 30.9014 293.314 31.5312ZM296.977 35.3887C296.972 34.3438 297.519 33.626 298.461 33.6309C299.428 33.626 299.94 34.3438 299.945 35.3887C299.94 36.4336 299.413 37.1465 298.461 37.1465C297.499 37.1465 296.972 36.4287 296.977 35.3887ZM297.777 35.3887C297.782 36.0283 298.007 36.4531 298.461 36.4531C298.92 36.4531 299.135 36.0283 299.135 35.3887C299.135 34.7441 298.935 34.3145 298.461 34.3145C298.012 34.3242 297.782 34.749 297.777 35.3887Z" fill="white"/>
<path d="M78.7002 29.0898V34.2656H77.7725V33.2012H75.5654V32.4395H77.7725V31.375H75.6582C75.0918 32.7812 73.7783 33.7725 71.8838 34.3145L71.5127 33.5918C73.583 33.001 74.7939 31.8877 74.96 30.4766H71.9619V29.7148H75.9658C75.9658 30.0371 75.9316 30.3496 75.873 30.6426H77.7725V29.0898H78.7002ZM72.8701 36.0723C72.8701 35.0127 74.0225 34.3682 75.8193 34.3633C77.5918 34.3682 78.7539 35.0127 78.7588 36.0723C78.7539 37.1367 77.5918 37.791 75.8193 37.791C74.0225 37.791 72.8701 37.1367 72.8701 36.0723ZM73.7881 36.0723C73.7881 36.6875 74.5693 37.0439 75.8193 37.0488C77.0449 37.0439 77.8262 36.6875 77.8311 36.0723C77.8262 35.4473 77.0449 35.0908 75.8193 35.0957C74.5693 35.0908 73.7881 35.4473 73.7881 36.0723ZM87.1377 33.1133V33.8555H84.4912V35.9941H88.0557V36.7559H80.0479V35.9941H83.5732V33.8555H81.0439V29.7539H87.0596V30.5059H81.9717V33.1133H87.1377ZM93.9932 37.0977C92.6846 37.0879 91.3174 36.3115 91.3174 33.6992C91.3223 31.2383 92.3867 29.832 94.0811 29.832C95.3848 29.832 96.2881 30.6426 96.4541 31.7656H95.3896C95.248 31.1895 94.7939 30.7744 94.0811 30.7695C92.9873 30.7744 92.3525 31.7217 92.3525 33.3184H92.4307C92.8164 32.7178 93.4805 32.3662 94.2471 32.3613C95.5068 32.3662 96.5225 33.333 96.5225 34.6855C96.5225 36.0576 95.5117 37.1074 93.9932 37.0977ZM92.4795 34.7148C92.4844 35.501 93.1143 36.1943 93.9834 36.1992C94.8379 36.1943 95.4775 35.5303 95.4775 34.7051C95.4775 33.8945 94.8623 33.2354 94.0127 33.2402C93.1484 33.2354 92.4893 33.9287 92.4795 34.7148ZM97.665 37V36.2188L100.116 33.748C100.893 32.9424 101.278 32.4932 101.278 31.873C101.278 31.1748 100.712 30.7305 99.9697 30.7305C99.1836 30.7305 98.6855 31.2285 98.6807 31.9805H97.665C97.6553 30.6865 98.6416 29.832 99.9893 29.832C101.352 29.832 102.294 30.6963 102.304 31.8438C102.294 32.6348 101.923 33.2646 100.595 34.5684L99.1592 36.0234V36.082H102.421V37H97.665ZM104.306 37.0684C103.925 37.0635 103.607 36.7559 103.612 36.375C103.607 35.9941 103.925 35.6816 104.306 35.6816C104.682 35.6816 104.994 35.9941 104.999 36.375C104.994 36.7559 104.682 37.0635 104.306 37.0684ZM106.093 35.623V34.7539L109.218 29.9297H110.546V34.7148H111.513V35.623H110.546V37H109.53V35.623H106.093ZM107.226 34.7148H109.53V31.209H109.452L107.226 34.6562V34.7148ZM114.218 33.2891C113.251 33.2988 112.724 32.5811 112.733 31.5312C112.724 30.4961 113.275 29.7783 114.218 29.7832C115.189 29.7783 115.697 30.4961 115.702 31.5312C115.697 32.5859 115.17 33.2988 114.218 33.2891ZM113.534 37L118.388 29.9297H119.276L114.423 37H113.534ZM113.534 31.5312C113.539 32.1807 113.764 32.6006 114.218 32.6055C114.677 32.6006 114.892 32.1807 114.892 31.5312C114.892 30.8965 114.691 30.4619 114.218 30.4668C113.764 30.4766 113.539 30.9014 113.534 31.5312ZM117.196 35.3887C117.191 34.3438 117.738 33.626 118.681 33.6309C119.647 33.626 120.16 34.3438 120.165 35.3887C120.16 36.4336 119.633 37.1465 118.681 37.1465C117.719 37.1465 117.191 36.4287 117.196 35.3887ZM117.997 35.3887C118.002 36.0283 118.227 36.4531 118.681 36.4531C119.14 36.4531 119.354 36.0283 119.354 35.3887C119.354 34.7441 119.154 34.3145 118.681 34.3145C118.231 34.3242 118.002 34.749 117.997 35.3887Z" fill="#113287"/>
</g>
<path d="M-1399 -1398H1914V-1400H-1399V-1398ZM1915 -1397V573H1917V-1397H1915ZM1914 574H-1399V576H1914V574ZM-1400 573V-1397H-1402V573H-1400ZM-1399 574C-1399.55 574 -1400 573.552 -1400 573H-1402C-1402 574.657 -1400.66 576 -1399 576V574ZM1915 573C1915 573.552 1914.55 574 1914 574V576C1915.66 576 1917 574.657 1917 573H1915ZM1914 -1398C1914.55 -1398 1915 -1397.55 1915 -1397H1917C1917 -1398.66 1915.66 -1400 1914 -1400V-1398ZM-1399 -1400C-1400.66 -1400 -1402 -1398.66 -1402 -1397H-1400C-1400 -1397.55 -1399.55 -1398 -1399 -1398V-1400Z" fill="black" fill-opacity="0.1"/>
<defs>
<clipPath id="clip0_1814_2379">
<rect width="727" height="90" fill="white"/>
</clipPath>
</defs>
</svg>
