<svg width="727" height="90" viewBox="0 0 727 90" fill="none" xmlns="http://www.w3.org/2000/svg">
<rect width="727" height="90" fill="#727272"/>
<path d="M-1401 -864C-1401 -865.105 -1400.1 -866 -1399 -866H1914C1915.1 -866 1916 -865.105 1916 -864V1106C1916 1107.1 1915.1 1108 1914 1108H-1399C-1400.1 1108 -1401 1107.1 -1401 1106V-864Z" fill="white"/>
<g clip-path="url(#clip0_1814_2379)">
<path d="M21.7091 83.1142H21.0911V86.3765H21.6465C22.6988 86.3765 23.7548 86.31 24.9322 86.0636L24.8618 85.5551C23.7275 85.7898 22.7027 85.8524 21.7091 85.8524V83.1142ZM21.8655 89.412H26.4421V88.8957H22.4758V87.1432H21.8655V89.412ZM25.5816 87.6361H26.1918V85.2109H27.2401V84.6789H26.1918V82.6135H25.5816V87.6361Z" fill="#001A5B"/>
<path d="M32.1609 84.4755V83.2081H31.5507V84.4755C31.5429 85.7937 30.6862 87.1236 29.6497 87.597L30.0408 88.1133C30.8544 87.7026 31.539 86.8225 31.8597 85.7742C32.1922 86.7638 32.8767 87.5892 33.6708 87.9725L34.0463 87.4874C33.0214 87.022 32.157 85.7467 32.1609 84.4755ZM34.8051 89.5763H35.4232V82.6057H34.8051V89.5763Z" fill="#001A5B"/>
<path d="M2.34111 76.8508C3.8153 76.8508 4.67781 75.6626 4.68222 73.5767C4.67781 71.5041 3.8021 70.3027 2.34111 70.3027C0.875718 70.3027 0 71.5041 0 73.5767C0 75.6626 0.866916 76.8508 2.34111 76.8508ZM0.968125 73.5767C0.968125 71.9926 1.48299 71.1257 2.34111 71.1213C3.19483 71.1257 3.71409 71.9926 3.71409 73.5767C3.71409 75.1653 3.19922 76.0147 2.34111 76.0147C1.4786 76.0147 0.963729 75.1653 0.968125 73.5767Z" fill="#001A5B"/>
<path d="M7.84183 76.7628C9.78247 76.7628 10.9002 75.5571 10.9046 73.5679C10.9002 71.5833 9.78247 70.3907 7.90344 70.3907H5.77356V76.7628H7.84183ZM6.74169 75.9178V71.2356H7.84183C9.23241 71.2356 9.94529 72.0674 9.94529 73.5679C9.94529 75.073 9.23241 75.9134 7.78903 75.9178H6.74169Z" fill="#001A5B"/>
<path d="M183.552 70.3907H182.602L181.018 71.4293V72.3533L182.541 71.3589H182.576V76.7628H183.552V70.3907Z" fill="#001A5B"/>
<path d="M187.328 76.7628C189.269 76.7628 190.387 75.5571 190.392 73.5679C190.387 71.5833 189.269 70.3907 187.39 70.3907H185.26V76.7628H187.328ZM186.228 75.9178V71.2356H187.328C188.719 71.2356 189.432 72.0674 189.432 73.5679C189.432 75.073 188.719 75.9134 187.275 75.9178H186.228Z" fill="#001A5B"/>
<path d="M360.72 76.7628H365.007V75.9355H362.067V75.8827L363.36 74.5713C364.557 73.3963 364.891 72.8286 364.9 72.1157C364.891 71.0816 364.042 70.3027 362.815 70.3027C361.6 70.3027 360.712 71.0728 360.72 72.239H361.635C361.64 71.5613 362.089 71.1124 362.798 71.1124C363.466 71.1124 363.976 71.5129 363.976 72.1422C363.976 72.701 363.629 73.1059 362.929 73.832L360.72 76.0586V76.7628Z" fill="#001A5B"/>
<path d="M368.236 76.7628C370.177 76.7628 371.294 75.5571 371.299 73.5679C371.294 71.5833 370.177 70.3907 368.298 70.3907H366.168V76.7628H368.236ZM367.137 75.9178V71.2356H368.236C369.627 71.2356 370.34 72.0674 370.34 73.5679C370.34 75.073 369.627 75.9134 368.183 75.9178H367.137Z" fill="#001A5B"/>
<path d="M543.097 76.8508C544.418 76.8508 545.4 76.0719 545.395 75.0113C545.4 74.206 544.893 73.6208 544.022 73.4975V73.4536C544.709 73.2819 545.157 72.7626 545.148 72.0365C545.157 71.0948 544.369 70.3027 543.115 70.3027C541.927 70.3027 540.968 71.0068 540.942 72.0453H541.875C541.897 71.4688 542.469 71.1124 543.107 71.1124C543.779 71.1124 544.215 71.5085 544.215 72.0894C544.215 72.701 543.709 73.1059 542.983 73.1015H542.438V73.8936H542.983C543.895 73.898 544.418 74.3469 544.418 74.9762C544.418 75.5966 543.859 76.0147 543.088 76.0147C542.376 76.0147 541.822 75.6582 541.787 75.0993H540.8C540.84 76.1423 541.778 76.8508 543.097 76.8508Z" fill="#001A5B"/>
<path d="M548.616 76.7628C550.557 76.7628 551.674 75.5571 551.679 73.5679C551.674 71.5833 550.557 70.3907 548.678 70.3907H546.548V76.7628H548.616ZM547.515 75.9178V71.2356H548.616C550.007 71.2356 550.72 72.0674 550.72 73.5679C550.72 75.073 550.007 75.9134 548.563 75.9178H547.515Z" fill="#001A5B"/>
<path fill-rule="evenodd" clip-rule="evenodd" d="M95.0756 49.2318V15.6691H96.0769V49.2318H95.0756Z" fill="#979797"/>
<path fill-rule="evenodd" clip-rule="evenodd" d="M275.323 49.2318V15.6691H276.325V49.2318H275.323Z" fill="#979797"/>
<path fill-rule="evenodd" clip-rule="evenodd" d="M455.571 49.2318V15.6691H456.572V49.2318H455.571Z" fill="#979797"/>
<path fill-rule="evenodd" clip-rule="evenodd" d="M635.819 49.2318V15.6691H636.82V49.2318H635.819Z" fill="#979797"/>
<path fill-rule="evenodd" clip-rule="evenodd" d="M456.572 37.7092V16.6803H455.571V37.7092H456.572Z" fill="#979797"/>
<path fill-rule="evenodd" clip-rule="evenodd" d="M636.82 37.7092V16.6803H635.819V37.7092H636.82Z" fill="#979797"/>
<path d="M719.434 20.6858H546.196V44.7188H719.434V20.6858Z" fill="#001A5B"/>
<path d="M546.196 20.6858H365.948V44.7188H546.196V20.6858Z" fill="#113287"/>
<path d="M365.948 20.6858H185.7V44.7188H365.948V20.6858Z" fill="#5B6EB4"/>
<path d="M185.7 20.6858H5.45227V44.7188H185.7V20.6858Z" fill="#E2E6F6"/>
<path fill-rule="evenodd" clip-rule="evenodd" d="M4.45093 64.7463V0.658203H6.45368V64.7463H4.45093Z" fill="#113287"/>
<path fill-rule="evenodd" clip-rule="evenodd" d="M185.199 64.494V0.405884H186.201V64.494H185.199Z" fill="#979797"/>
<path fill-rule="evenodd" clip-rule="evenodd" d="M365.447 64.494V0.405884H366.449V64.494H365.447Z" fill="#979797"/>
<path fill-rule="evenodd" clip-rule="evenodd" d="M545.695 64.494V0.405884H546.696V64.494H545.695Z" fill="#979797"/>
<path fill-rule="evenodd" clip-rule="evenodd" d="M36.6669 70.719L39.8533 73.9054C40.0487 74.1009 40.0487 74.4179 39.8533 74.6134L36.6669 77.7998C36.4713 77.9953 36.1543 77.9953 35.9588 77.7998C35.7632 77.6043 35.7632 77.2872 35.9588 77.0918L38.2904 74.7601H20.473V73.7588H38.2904L35.9588 71.4271C35.7632 71.2316 35.7632 70.9146 35.9588 70.719C36.1543 70.5235 36.4713 70.5235 36.6669 70.719Z" fill="#113287"/>
<path d="M719.889 20.6858H691.042V44.7188H719.889L727.445 32.7023L719.889 20.6858Z" fill="#001A5B"/>
<path d="M614.927 35.9941V36.7559H606.919V35.9941H610.454V34.0898H611.372V35.9941H614.927ZM607.31 33.6699C609.106 33.4062 610.4 32.3906 610.444 31.1602H607.642V30.4082H610.454V29.2363H611.372V30.4082H614.185V31.1602H611.382C611.426 32.3906 612.72 33.4062 614.517 33.6699L614.165 34.3926C612.7 34.1631 611.479 33.4697 610.908 32.4492C610.342 33.4697 609.126 34.1631 607.661 34.3926L607.31 33.6699ZM622.642 29.9199V30.7793C622.637 31.8584 622.637 33.0693 622.31 34.8613L621.372 34.7637C621.709 33.0693 621.709 31.8291 621.714 30.7793V30.6719H616.401V29.9199H622.642ZM615.562 36.6484V35.877H618.599V32.791H619.517V35.877H623.54V36.6484H615.562ZM631.294 33.1133V33.8555H628.647V35.9941H632.212V36.7559H624.204V35.9941H627.729V33.8555H625.2V29.7539H631.216V30.5059H626.128V33.1133H631.294ZM635.591 37V36.2188L638.042 33.748C638.818 32.9424 639.204 32.4932 639.204 31.873C639.204 31.1748 638.638 30.7305 637.896 30.7305C637.109 30.7305 636.611 31.2285 636.606 31.9805H635.591C635.581 30.6865 636.567 29.832 637.915 29.832C639.277 29.832 640.22 30.6963 640.229 31.8438C640.22 32.6348 639.849 33.2646 638.521 34.5684L637.085 36.0234V36.082H640.347V37H635.591ZM642.231 37.0684C641.851 37.0635 641.533 36.7559 641.538 36.375C641.533 35.9941 641.851 35.6816 642.231 35.6816C642.607 35.6816 642.92 35.9941 642.925 36.375C642.92 36.7559 642.607 37.0635 642.231 37.0684ZM646.372 37.0977C644.736 37.0977 643.774 35.7793 643.774 33.4648C643.774 31.165 644.746 29.832 646.372 29.832C647.993 29.832 648.965 31.165 648.97 33.4648C648.965 35.7793 648.008 37.0977 646.372 37.0977ZM644.849 33.4648C644.844 35.2275 645.415 36.1699 646.372 36.1699C647.324 36.1699 647.896 35.2275 647.896 33.4648C647.896 31.707 647.319 30.7451 646.372 30.7402C645.42 30.7451 644.849 31.707 644.849 33.4648ZM651.704 33.2891C650.737 33.2988 650.21 32.5811 650.22 31.5312C650.21 30.4961 650.762 29.7783 651.704 29.7832C652.676 29.7783 653.184 30.4961 653.188 31.5312C653.184 32.5859 652.656 33.2988 651.704 33.2891ZM651.021 37L655.874 29.9297H656.763L651.909 37H651.021ZM651.021 31.5312C651.025 32.1807 651.25 32.6006 651.704 32.6055C652.163 32.6006 652.378 32.1807 652.378 31.5312C652.378 30.8965 652.178 30.4619 651.704 30.4668C651.25 30.4766 651.025 30.9014 651.021 31.5312ZM654.683 35.3887C654.678 34.3438 655.225 33.626 656.167 33.6309C657.134 33.626 657.646 34.3438 657.651 35.3887C657.646 36.4336 657.119 37.1465 656.167 37.1465C655.205 37.1465 654.678 36.4287 654.683 35.3887ZM655.483 35.3887C655.488 36.0283 655.713 36.4531 656.167 36.4531C656.626 36.4531 656.841 36.0283 656.841 35.3887C656.841 34.7441 656.641 34.3145 656.167 34.3145C655.718 34.3242 655.488 34.749 655.483 35.3887Z" fill="white"/>
<path d="M441.723 29.9199V30.7793C441.718 31.8584 441.718 33.0693 441.391 34.8613L440.453 34.7637C440.79 33.0693 440.79 31.8291 440.795 30.7793V30.6719H435.482V29.9199H441.723ZM434.643 36.6484V35.877H437.68V32.791H438.598V35.877H442.621V36.6484H434.643ZM450.375 33.1133V33.8555H447.729V35.9941H451.293V36.7559H443.285V35.9941H446.811V33.8555H444.281V29.7539H450.297V30.5059H445.209V33.1133H450.375ZM454.516 35.623V34.7539L457.641 29.9297H458.969V34.7148H459.936V35.623H458.969V37H457.953V35.623H454.516ZM455.648 34.7148H457.953V31.209H457.875L455.648 34.6562V34.7148ZM461.449 37.0684C461.068 37.0635 460.751 36.7559 460.756 36.375C460.751 35.9941 461.068 35.6816 461.449 35.6816C461.825 35.6816 462.138 35.9941 462.143 36.375C462.138 36.7559 461.825 37.0635 461.449 37.0684ZM465.688 37.0977C464.379 37.0879 463.012 36.3115 463.012 33.6992C463.017 31.2383 464.081 29.832 465.775 29.832C467.079 29.832 467.982 30.6426 468.148 31.7656H467.084C466.942 31.1895 466.488 30.7744 465.775 30.7695C464.682 30.7744 464.047 31.7217 464.047 33.3184H464.125C464.511 32.7178 465.175 32.3662 465.941 32.3613C467.201 32.3662 468.217 33.333 468.217 34.6855C468.217 36.0576 467.206 37.1074 465.688 37.0977ZM464.174 34.7148C464.179 35.501 464.809 36.1943 465.678 36.1992C466.532 36.1943 467.172 35.5303 467.172 34.7051C467.172 33.8945 466.557 33.2354 465.707 33.2402C464.843 33.2354 464.184 33.9287 464.174 34.7148ZM470.98 33.2891C470.014 33.2988 469.486 32.5811 469.496 31.5312C469.486 30.4961 470.038 29.7783 470.98 29.7832C471.952 29.7783 472.46 30.4961 472.465 31.5312C472.46 32.5859 471.933 33.2988 470.98 33.2891ZM470.297 37L475.15 29.9297H476.039L471.186 37H470.297ZM470.297 31.5312C470.302 32.1807 470.526 32.6006 470.98 32.6055C471.439 32.6006 471.654 32.1807 471.654 31.5312C471.654 30.8965 471.454 30.4619 470.98 30.4668C470.526 30.4766 470.302 30.9014 470.297 31.5312ZM473.959 35.3887C473.954 34.3438 474.501 33.626 475.443 33.6309C476.41 33.626 476.923 34.3438 476.928 35.3887C476.923 36.4336 476.396 37.1465 475.443 37.1465C474.481 37.1465 473.954 36.4287 473.959 35.3887ZM474.76 35.3887C474.765 36.0283 474.989 36.4531 475.443 36.4531C475.902 36.4531 476.117 36.0283 476.117 35.3887C476.117 34.7441 475.917 34.3145 475.443 34.3145C474.994 34.3242 474.765 34.749 474.76 35.3887Z" fill="white"/>
<path d="M260.424 33.1328V33.8848H256.889V34.7246C258.49 34.8125 259.442 35.3496 259.447 36.2676C259.442 37.2588 258.31 37.8154 256.43 37.8105C254.525 37.8154 253.393 37.2588 253.393 36.2676C253.393 35.3496 254.345 34.8076 255.971 34.7246V33.8848H252.445V33.1328H260.424ZM252.865 31.9414C254.438 31.7803 255.678 31.0674 255.805 30.2227H253.178V29.4805H259.711V30.2227H257.055C257.182 31.0723 258.412 31.7803 260.014 31.9414L259.682 32.6738C258.163 32.498 256.908 31.8584 256.435 30.9307C255.951 31.8584 254.706 32.498 253.188 32.6738L252.865 31.9414ZM254.33 36.2676C254.325 36.7998 255.092 37.1074 256.43 37.0977C257.748 37.1074 258.52 36.7998 258.52 36.2676C258.52 35.7256 257.748 35.4326 256.43 35.4277C255.092 35.4326 254.325 35.7256 254.33 36.2676ZM268.178 33.1133V33.8555H265.531V35.9941H269.096V36.7559H261.088V35.9941H264.613V33.8555H262.084V29.7539H268.1V30.5059H263.012V33.1133H268.178ZM275.16 29.9297V37H274.076V31.0039H274.037L272.348 32.1074V31.082L274.105 29.9297H275.16ZM279.467 37.0977C278.002 37.0977 276.962 36.3115 276.918 35.1543H278.012C278.051 35.7744 278.666 36.1699 279.457 36.1699C280.312 36.1699 280.932 35.7061 280.932 35.0176C280.932 34.3193 280.351 33.8213 279.34 33.8164H278.734V32.9375H279.34C280.146 32.9424 280.707 32.4932 280.707 31.8145C280.707 31.1699 280.224 30.7305 279.477 30.7305C278.769 30.7305 278.134 31.126 278.109 31.7656H277.074C277.104 30.6133 278.168 29.832 279.486 29.832C280.878 29.832 281.752 30.7109 281.742 31.7559C281.752 32.5615 281.254 33.1377 280.492 33.3281V33.377C281.459 33.5137 282.021 34.1631 282.016 35.0566C282.021 36.2334 280.932 37.0977 279.467 37.0977ZM283.676 37.0684C283.295 37.0635 282.978 36.7559 282.982 36.375C282.978 35.9941 283.295 35.6816 283.676 35.6816C284.052 35.6816 284.364 35.9941 284.369 36.375C284.364 36.7559 284.052 37.0635 283.676 37.0684ZM287.846 37.0977C286.308 37.0977 285.238 36.2676 285.248 35.1152C285.238 34.207 285.888 33.4648 286.723 33.3379V33.2988C285.995 33.1328 285.512 32.4883 285.512 31.7168C285.512 30.6279 286.493 29.832 287.846 29.832C289.179 29.832 290.165 30.6279 290.17 31.7168C290.165 32.4883 289.672 33.1328 288.959 33.2988V33.3379C289.784 33.4648 290.438 34.207 290.443 35.1152C290.438 36.2676 289.359 37.0977 287.846 37.0977ZM286.342 35.0371C286.327 35.7305 286.913 36.209 287.846 36.209C288.764 36.209 289.35 35.7305 289.35 35.0371C289.35 34.3096 288.715 33.7773 287.846 33.7773C286.967 33.7773 286.327 34.3096 286.342 35.0371ZM286.557 31.8145C286.562 32.4736 287.089 32.9326 287.846 32.9277C288.583 32.9326 289.12 32.4785 289.115 31.8145C289.12 31.1553 288.603 30.7061 287.846 30.7109C287.069 30.7061 286.562 31.1553 286.557 31.8145ZM293.178 33.2891C292.211 33.2988 291.684 32.5811 291.693 31.5312C291.684 30.4961 292.235 29.7783 293.178 29.7832C294.149 29.7783 294.657 30.4961 294.662 31.5312C294.657 32.5859 294.13 33.2988 293.178 33.2891ZM292.494 37L297.348 29.9297H298.236L293.383 37H292.494ZM292.494 31.5312C292.499 32.1807 292.724 32.6006 293.178 32.6055C293.637 32.6006 293.852 32.1807 293.852 31.5312C293.852 30.8965 293.651 30.4619 293.178 30.4668C292.724 30.4766 292.499 30.9014 292.494 31.5312ZM296.156 35.3887C296.151 34.3438 296.698 33.626 297.641 33.6309C298.607 33.626 299.12 34.3438 299.125 35.3887C299.12 36.4336 298.593 37.1465 297.641 37.1465C296.679 37.1465 296.151 36.4287 296.156 35.3887ZM296.957 35.3887C296.962 36.0283 297.187 36.4531 297.641 36.4531C298.1 36.4531 298.314 36.0283 298.314 35.3887C298.314 34.7441 298.114 34.3145 297.641 34.3145C297.191 34.3242 296.962 34.749 296.957 35.3887Z" fill="white"/>
<path d="M79.2471 29.0898V34.2656H78.3193V33.2012H76.1123V32.4395H78.3193V31.375H76.2051C75.6387 32.7812 74.3252 33.7725 72.4307 34.3145L72.0596 33.5918C74.1299 33.001 75.3408 31.8877 75.5068 30.4766H72.5088V29.7148H76.5127C76.5127 30.0371 76.4785 30.3496 76.4199 30.6426H78.3193V29.0898H79.2471ZM73.417 36.0723C73.417 35.0127 74.5693 34.3682 76.3662 34.3633C78.1387 34.3682 79.3008 35.0127 79.3057 36.0723C79.3008 37.1367 78.1387 37.791 76.3662 37.791C74.5693 37.791 73.417 37.1367 73.417 36.0723ZM74.335 36.0723C74.335 36.6875 75.1162 37.0439 76.3662 37.0488C77.5918 37.0439 78.373 36.6875 78.3779 36.0723C78.373 35.4473 77.5918 35.0908 76.3662 35.0957C75.1162 35.0908 74.335 35.4473 74.335 36.0723ZM87.6846 33.1133V33.8555H85.0381V35.9941H88.6025V36.7559H80.5947V35.9941H84.1201V33.8555H81.5908V29.7539H87.6064V30.5059H82.5186V33.1133H87.6846ZM92.2256 37L95.3799 30.9062V30.8477H91.7373V29.9297H96.4932V30.8867L93.3486 37H92.2256ZM99.9111 29.832C101.21 29.8418 102.572 30.623 102.577 33.2109C102.577 35.6914 101.508 37.0977 99.8135 37.0977C98.5098 37.0977 97.6016 36.292 97.4307 35.1445H98.4951C98.6416 35.7402 99.1006 36.1553 99.8135 36.1602C100.902 36.1553 101.542 35.208 101.552 33.5918H101.464C101.083 34.1875 100.419 34.5488 99.6572 34.5488C98.3877 34.5488 97.3721 33.5771 97.3721 32.2246C97.3721 30.877 98.373 29.8223 99.9111 29.832ZM98.417 32.2051C98.4219 33.0254 99.0322 33.6748 99.8916 33.6699C100.746 33.6748 101.405 32.9766 101.405 32.1953C101.405 31.4287 100.775 30.7305 99.9111 30.7305C99.0566 30.7305 98.4121 31.3945 98.417 32.2051ZM104.14 37.0684C103.759 37.0635 103.441 36.7559 103.446 36.375C103.441 35.9941 103.759 35.6816 104.14 35.6816C104.516 35.6816 104.828 35.9941 104.833 36.375C104.828 36.7559 104.516 37.0635 104.14 37.0684ZM108.378 37.0977C107.069 37.0879 105.702 36.3115 105.702 33.6992C105.707 31.2383 106.771 29.832 108.466 29.832C109.77 29.832 110.673 30.6426 110.839 31.7656H109.774C109.633 31.1895 109.179 30.7744 108.466 30.7695C107.372 30.7744 106.737 31.7217 106.737 33.3184H106.815C107.201 32.7178 107.865 32.3662 108.632 32.3613C109.892 32.3662 110.907 33.333 110.907 34.6855C110.907 36.0576 109.896 37.1074 108.378 37.0977ZM106.864 34.7148C106.869 35.501 107.499 36.1943 108.368 36.1992C109.223 36.1943 109.862 35.5303 109.862 34.7051C109.862 33.8945 109.247 33.2354 108.397 33.2402C107.533 33.2354 106.874 33.9287 106.864 34.7148ZM113.671 33.2891C112.704 33.2988 112.177 32.5811 112.187 31.5312C112.177 30.4961 112.729 29.7783 113.671 29.7832C114.643 29.7783 115.15 30.4961 115.155 31.5312C115.15 32.5859 114.623 33.2988 113.671 33.2891ZM112.987 37L117.841 29.9297H118.729L113.876 37H112.987ZM112.987 31.5312C112.992 32.1807 113.217 32.6006 113.671 32.6055C114.13 32.6006 114.345 32.1807 114.345 31.5312C114.345 30.8965 114.145 30.4619 113.671 30.4668C113.217 30.4766 112.992 30.9014 112.987 31.5312ZM116.649 35.3887C116.645 34.3438 117.191 33.626 118.134 33.6309C119.101 33.626 119.613 34.3438 119.618 35.3887C119.613 36.4336 119.086 37.1465 118.134 37.1465C117.172 37.1465 116.645 36.4287 116.649 35.3887ZM117.45 35.3887C117.455 36.0283 117.68 36.4531 118.134 36.4531C118.593 36.4531 118.808 36.0283 118.808 35.3887C118.808 34.7441 118.607 34.3145 118.134 34.3145C117.685 34.3242 117.455 34.749 117.45 35.3887Z" fill="#113287"/>
</g>
<path d="M-1399 -865H1914V-867H-1399V-865ZM1915 -864V1106H1917V-864H1915ZM1914 1107H-1399V1109H1914V1107ZM-1400 1106V-864H-1402V1106H-1400ZM-1399 1107C-1399.55 1107 -1400 1106.55 -1400 1106H-1402C-1402 1107.66 -1400.66 1109 -1399 1109V1107ZM1915 1106C1915 1106.55 1914.55 1107 1914 1107V1109C1915.66 1109 1917 1107.66 1917 1106H1915ZM1914 -865C1914.55 -865 1915 -864.552 1915 -864H1917C1917 -865.657 1915.66 -867 1914 -867V-865ZM-1399 -867C-1400.66 -867 -1402 -865.657 -1402 -864H-1400C-1400 -864.552 -1399.55 -865 -1399 -865V-867Z" fill="black" fill-opacity="0.1"/>
<defs>
<clipPath id="clip0_1814_2379">
<rect width="727" height="90" fill="white"/>
</clipPath>
</defs>
</svg>
