<svg width="727" height="90" viewBox="0 0 727 90" fill="none" xmlns="http://www.w3.org/2000/svg">
<rect width="727" height="90" fill="#727272"/>
<path d="M-1401 -1574C-1401 -1575.1 -1400.1 -1576 -1399 -1576H1914C1915.1 -1576 1916 -1575.1 1916 -1574V396C1916 397.105 1915.1 398 1914 398H-1399C-1400.1 398 -1401 397.105 -1401 396V-1574Z" fill="white"/>
<g clip-path="url(#clip0_1814_2379)">
<path d="M21.7091 83.1142H21.0911V86.3765H21.6465C22.6988 86.3765 23.7548 86.31 24.9322 86.0636L24.8618 85.5551C23.7275 85.7898 22.7027 85.8524 21.7091 85.8524V83.1142ZM21.8655 89.412H26.4421V88.8957H22.4758V87.1432H21.8655V89.412ZM25.5816 87.6361H26.1918V85.2109H27.2401V84.6789H26.1918V82.6135H25.5816V87.6361Z" fill="#001A5B"/>
<path d="M32.1609 84.4755V83.2081H31.5507V84.4755C31.5429 85.7937 30.6862 87.1236 29.6497 87.597L30.0408 88.1133C30.8544 87.7026 31.539 86.8225 31.8597 85.7742C32.1922 86.7638 32.8767 87.5892 33.6708 87.9725L34.0463 87.4874C33.0214 87.022 32.157 85.7467 32.1609 84.4755ZM34.8051 89.5763H35.4232V82.6057H34.8051V89.5763Z" fill="#001A5B"/>
<path d="M2.34111 76.8508C3.8153 76.8508 4.67781 75.6626 4.68222 73.5767C4.67781 71.5041 3.8021 70.3027 2.34111 70.3027C0.875718 70.3027 0 71.5041 0 73.5767C0 75.6626 0.866916 76.8508 2.34111 76.8508ZM0.968125 73.5767C0.968125 71.9926 1.48299 71.1257 2.34111 71.1213C3.19483 71.1257 3.71409 71.9926 3.71409 73.5767C3.71409 75.1653 3.19922 76.0147 2.34111 76.0147C1.4786 76.0147 0.963729 75.1653 0.968125 73.5767Z" fill="#001A5B"/>
<path d="M7.84183 76.7627C9.78247 76.7627 10.9002 75.5569 10.9046 73.5678C10.9002 71.5832 9.78247 70.3906 7.90344 70.3906H5.77356V76.7627H7.84183ZM6.74169 75.9177V71.2355H7.84183C9.23241 71.2355 9.94529 72.0672 9.94529 73.5678C9.94529 75.0729 9.23241 75.9133 7.78903 75.9177H6.74169Z" fill="#001A5B"/>
<path d="M183.552 70.3906H182.602L181.018 71.4292V72.3532L182.541 71.3588H182.576V76.7627H183.552V70.3906Z" fill="#001A5B"/>
<path d="M187.328 76.7627C189.269 76.7627 190.387 75.5569 190.392 73.5678C190.387 71.5832 189.269 70.3906 187.39 70.3906H185.26V76.7627H187.328ZM186.228 75.9177V71.2355H187.328C188.719 71.2355 189.432 72.0672 189.432 73.5678C189.432 75.0729 188.719 75.9133 187.275 75.9177H186.228Z" fill="#001A5B"/>
<path d="M360.72 76.7628H365.007V75.9355H362.067V75.8827L363.36 74.5713C364.557 73.3963 364.891 72.8286 364.9 72.1157C364.891 71.0816 364.042 70.3027 362.815 70.3027C361.6 70.3027 360.712 71.0728 360.72 72.239H361.635C361.64 71.5613 362.089 71.1124 362.798 71.1124C363.466 71.1124 363.976 71.5129 363.976 72.1422C363.976 72.701 363.629 73.1059 362.929 73.832L360.72 76.0586V76.7628Z" fill="#001A5B"/>
<path d="M368.236 76.7627C370.177 76.7627 371.294 75.5569 371.299 73.5678C371.294 71.5832 370.177 70.3906 368.298 70.3906H366.168V76.7627H368.236ZM367.137 75.9177V71.2355H368.236C369.627 71.2355 370.34 72.0672 370.34 73.5678C370.34 75.0729 369.627 75.9133 368.183 75.9177H367.137Z" fill="#001A5B"/>
<path d="M543.097 76.8508C544.418 76.8508 545.4 76.0719 545.395 75.0113C545.4 74.206 544.893 73.6208 544.022 73.4975V73.4536C544.709 73.2819 545.157 72.7626 545.148 72.0365C545.157 71.0948 544.369 70.3027 543.115 70.3027C541.927 70.3027 540.968 71.0068 540.942 72.0453H541.875C541.897 71.4688 542.469 71.1124 543.107 71.1124C543.779 71.1124 544.215 71.5085 544.215 72.0894C544.215 72.701 543.709 73.1059 542.983 73.1015H542.438V73.8936H542.983C543.895 73.898 544.418 74.3469 544.418 74.9762C544.418 75.5966 543.859 76.0147 543.088 76.0147C542.376 76.0147 541.822 75.6582 541.787 75.0993H540.8C540.84 76.1423 541.778 76.8508 543.097 76.8508Z" fill="#001A5B"/>
<path d="M548.616 76.7627C550.557 76.7627 551.674 75.5569 551.679 73.5678C551.674 71.5832 550.557 70.3906 548.678 70.3906H546.548V76.7627H548.616ZM547.515 75.9177V71.2355H548.616C550.007 71.2355 550.72 72.0672 550.72 73.5678C550.72 75.0729 550.007 75.9133 548.563 75.9177H547.515Z" fill="#001A5B"/>
<path fill-rule="evenodd" clip-rule="evenodd" d="M95.0756 49.2317V15.6689H96.0769V49.2317H95.0756Z" fill="#979797"/>
<path fill-rule="evenodd" clip-rule="evenodd" d="M275.323 49.2317V15.6689H276.325V49.2317H275.323Z" fill="#979797"/>
<path fill-rule="evenodd" clip-rule="evenodd" d="M455.571 49.2317V15.6689H456.572V49.2317H455.571Z" fill="#979797"/>
<path fill-rule="evenodd" clip-rule="evenodd" d="M635.819 49.2317V15.6689H636.82V49.2317H635.819Z" fill="#979797"/>
<path fill-rule="evenodd" clip-rule="evenodd" d="M456.572 37.7091V16.6802H455.571V37.7091H456.572Z" fill="#979797"/>
<path fill-rule="evenodd" clip-rule="evenodd" d="M636.82 37.7091V16.6802H635.819V37.7091H636.82Z" fill="#979797"/>
<path d="M719.434 20.6855H546.196V44.7186H719.434V20.6855Z" fill="#001A5B"/>
<path d="M546.196 20.6855H365.948V44.7186H546.196V20.6855Z" fill="#113287"/>
<path d="M365.948 20.6855H185.7V44.7186H365.948V20.6855Z" fill="#5B6EB4"/>
<path d="M185.7 20.6855H5.45227V44.7186H185.7V20.6855Z" fill="#E2E6F6"/>
<path fill-rule="evenodd" clip-rule="evenodd" d="M4.45093 64.7461V0.657959H6.45368V64.7461H4.45093Z" fill="#113287"/>
<path fill-rule="evenodd" clip-rule="evenodd" d="M185.199 64.4939V0.405762H186.201V64.4939H185.199Z" fill="#979797"/>
<path fill-rule="evenodd" clip-rule="evenodd" d="M365.447 64.4939V0.405762H366.449V64.4939H365.447Z" fill="#979797"/>
<path fill-rule="evenodd" clip-rule="evenodd" d="M545.695 64.4939V0.405762H546.696V64.4939H545.695Z" fill="#979797"/>
<path fill-rule="evenodd" clip-rule="evenodd" d="M36.6669 70.7189L39.8533 73.9053C40.0487 74.1008 40.0487 74.4178 39.8533 74.6133L36.6669 77.7997C36.4713 77.9952 36.1543 77.9952 35.9588 77.7997C35.7632 77.6041 35.7632 77.2871 35.9588 77.0916L38.2904 74.76H20.473V73.7586H38.2904L35.9588 71.4269C35.7632 71.2315 35.7632 70.9144 35.9588 70.7189C36.1543 70.5234 36.4713 70.5234 36.6669 70.7189Z" fill="#113287"/>
<path d="M719.889 20.6855H691.042V44.7186H719.889L727.445 32.7021L719.889 20.6855Z" fill="#001A5B"/>
<path d="M614.873 35.9941V36.7559H606.865V35.9941H610.4V34.0898H611.318V35.9941H614.873ZM607.256 33.6699C609.053 33.4062 610.347 32.3906 610.391 31.1602H607.588V30.4082H610.4V29.2363H611.318V30.4082H614.131V31.1602H611.328C611.372 32.3906 612.666 33.4062 614.463 33.6699L614.111 34.3926C612.646 34.1631 611.426 33.4697 610.854 32.4492C610.288 33.4697 609.072 34.1631 607.607 34.3926L607.256 33.6699ZM622.588 29.9199V30.7793C622.583 31.8584 622.583 33.0693 622.256 34.8613L621.318 34.7637C621.655 33.0693 621.655 31.8291 621.66 30.7793V30.6719H616.348V29.9199H622.588ZM615.508 36.6484V35.877H618.545V32.791H619.463V35.877H623.486V36.6484H615.508ZM631.24 33.1133V33.8555H628.594V35.9941H632.158V36.7559H624.15V35.9941H627.676V33.8555H625.146V29.7539H631.162V30.5059H626.074V33.1133H631.24ZM638.047 37.0977C636.582 37.0977 635.542 36.3115 635.498 35.1543H636.592C636.631 35.7744 637.246 36.1699 638.037 36.1699C638.892 36.1699 639.512 35.7061 639.512 35.0176C639.512 34.3193 638.931 33.8213 637.92 33.8164H637.314V32.9375H637.92C638.726 32.9424 639.287 32.4932 639.287 31.8145C639.287 31.1699 638.804 30.7305 638.057 30.7305C637.349 30.7305 636.714 31.126 636.689 31.7656H635.654C635.684 30.6133 636.748 29.832 638.066 29.832C639.458 29.832 640.332 30.7109 640.322 31.7559C640.332 32.5615 639.834 33.1377 639.072 33.3281V33.377C640.039 33.5137 640.601 34.1631 640.596 35.0566C640.601 36.2334 639.512 37.0977 638.047 37.0977ZM642.256 37.0684C641.875 37.0635 641.558 36.7559 641.562 36.375C641.558 35.9941 641.875 35.6816 642.256 35.6816C642.632 35.6816 642.944 35.9941 642.949 36.375C642.944 36.7559 642.632 37.0635 642.256 37.0684ZM646.426 37.0977C644.888 37.0977 643.818 36.2676 643.828 35.1152C643.818 34.207 644.468 33.4648 645.303 33.3379V33.2988C644.575 33.1328 644.092 32.4883 644.092 31.7168C644.092 30.6279 645.073 29.832 646.426 29.832C647.759 29.832 648.745 30.6279 648.75 31.7168C648.745 32.4883 648.252 33.1328 647.539 33.2988V33.3379C648.364 33.4648 649.019 34.207 649.023 35.1152C649.019 36.2676 647.939 37.0977 646.426 37.0977ZM644.922 35.0371C644.907 35.7305 645.493 36.209 646.426 36.209C647.344 36.209 647.93 35.7305 647.93 35.0371C647.93 34.3096 647.295 33.7773 646.426 33.7773C645.547 33.7773 644.907 34.3096 644.922 35.0371ZM645.137 31.8145C645.142 32.4736 645.669 32.9326 646.426 32.9277C647.163 32.9326 647.7 32.4785 647.695 31.8145C647.7 31.1553 647.183 30.7061 646.426 30.7109C645.649 30.7061 645.142 31.1553 645.137 31.8145ZM651.758 33.2891C650.791 33.2988 650.264 32.5811 650.273 31.5312C650.264 30.4961 650.815 29.7783 651.758 29.7832C652.729 29.7783 653.237 30.4961 653.242 31.5312C653.237 32.5859 652.71 33.2988 651.758 33.2891ZM651.074 37L655.928 29.9297H656.816L651.963 37H651.074ZM651.074 31.5312C651.079 32.1807 651.304 32.6006 651.758 32.6055C652.217 32.6006 652.432 32.1807 652.432 31.5312C652.432 30.8965 652.231 30.4619 651.758 30.4668C651.304 30.4766 651.079 30.9014 651.074 31.5312ZM654.736 35.3887C654.731 34.3438 655.278 33.626 656.221 33.6309C657.188 33.626 657.7 34.3438 657.705 35.3887C657.7 36.4336 657.173 37.1465 656.221 37.1465C655.259 37.1465 654.731 36.4287 654.736 35.3887ZM655.537 35.3887C655.542 36.0283 655.767 36.4531 656.221 36.4531C656.68 36.4531 656.895 36.0283 656.895 35.3887C656.895 34.7441 656.694 34.3145 656.221 34.3145C655.771 34.3242 655.542 34.749 655.537 35.3887Z" fill="white"/>
<path d="M439.379 29.9199V30.7793C439.374 31.8584 439.374 33.0693 439.047 34.8613L438.109 34.7637C438.446 33.0693 438.446 31.8291 438.451 30.7793V30.6719H433.139V29.9199H439.379ZM432.299 36.6484V35.877H435.336V32.791H436.254V35.877H440.277V36.6484H432.299ZM448.031 33.1133V33.8555H445.385V35.9941H448.949V36.7559H440.941V35.9941H444.467V33.8555H441.938V29.7539H447.953V30.5059H442.865V33.1133H448.031ZM455.014 29.9297V37H453.93V31.0039H453.891L452.201 32.1074V31.082L453.959 29.9297H455.014ZM459.271 37.0977C457.636 37.0977 456.674 35.7793 456.674 33.4648C456.674 31.165 457.646 29.832 459.271 29.832C460.893 29.832 461.864 31.165 461.869 33.4648C461.864 35.7793 460.907 37.0977 459.271 37.0977ZM457.748 33.4648C457.743 35.2275 458.314 36.1699 459.271 36.1699C460.224 36.1699 460.795 35.2275 460.795 33.4648C460.795 31.707 460.219 30.7451 459.271 30.7402C458.319 30.7451 457.748 31.707 457.748 33.4648ZM463.412 37.0684C463.031 37.0635 462.714 36.7559 462.719 36.375C462.714 35.9941 463.031 35.6816 463.412 35.6816C463.788 35.6816 464.101 35.9941 464.105 36.375C464.101 36.7559 463.788 37.0635 463.412 37.0684ZM465.199 35.623V34.7539L468.324 29.9297H469.652V34.7148H470.619V35.623H469.652V37H468.637V35.623H465.199ZM466.332 34.7148H468.637V31.209H468.559L466.332 34.6562V34.7148ZM473.324 33.2891C472.357 33.2988 471.83 32.5811 471.84 31.5312C471.83 30.4961 472.382 29.7783 473.324 29.7832C474.296 29.7783 474.804 30.4961 474.809 31.5312C474.804 32.5859 474.276 33.2988 473.324 33.2891ZM472.641 37L477.494 29.9297H478.383L473.529 37H472.641ZM472.641 31.5312C472.646 32.1807 472.87 32.6006 473.324 32.6055C473.783 32.6006 473.998 32.1807 473.998 31.5312C473.998 30.8965 473.798 30.4619 473.324 30.4668C472.87 30.4766 472.646 30.9014 472.641 31.5312ZM476.303 35.3887C476.298 34.3438 476.845 33.626 477.787 33.6309C478.754 33.626 479.267 34.3438 479.271 35.3887C479.267 36.4336 478.739 37.1465 477.787 37.1465C476.825 37.1465 476.298 36.4287 476.303 35.3887ZM477.104 35.3887C477.108 36.0283 477.333 36.4531 477.787 36.4531C478.246 36.4531 478.461 36.0283 478.461 35.3887C478.461 34.7441 478.261 34.3145 477.787 34.3145C477.338 34.3242 477.108 34.749 477.104 35.3887Z" fill="white"/>
<path d="M259.311 33.1328V33.8848H255.775V34.7246C257.377 34.8125 258.329 35.3496 258.334 36.2676C258.329 37.2588 257.196 37.8154 255.316 37.8105C253.412 37.8154 252.279 37.2588 252.279 36.2676C252.279 35.3496 253.231 34.8076 254.857 34.7246V33.8848H251.332V33.1328H259.311ZM251.752 31.9414C253.324 31.7803 254.564 31.0674 254.691 30.2227H252.064V29.4805H258.598V30.2227H255.941C256.068 31.0723 257.299 31.7803 258.9 31.9414L258.568 32.6738C257.05 32.498 255.795 31.8584 255.321 30.9307C254.838 31.8584 253.593 32.498 252.074 32.6738L251.752 31.9414ZM253.217 36.2676C253.212 36.7998 253.979 37.1074 255.316 37.0977C256.635 37.1074 257.406 36.7998 257.406 36.2676C257.406 35.7256 256.635 35.4326 255.316 35.4277C253.979 35.4326 253.212 35.7256 253.217 36.2676ZM267.064 33.1133V33.8555H264.418V35.9941H267.982V36.7559H259.975V35.9941H263.5V33.8555H260.971V29.7539H266.986V30.5059H261.898V33.1133H267.064ZM273.871 37.0977C272.406 37.0977 271.366 36.3115 271.322 35.1543H272.416C272.455 35.7744 273.07 36.1699 273.861 36.1699C274.716 36.1699 275.336 35.7061 275.336 35.0176C275.336 34.3193 274.755 33.8213 273.744 33.8164H273.139V32.9375H273.744C274.55 32.9424 275.111 32.4932 275.111 31.8145C275.111 31.1699 274.628 30.7305 273.881 30.7305C273.173 30.7305 272.538 31.126 272.514 31.7656H271.479C271.508 30.6133 272.572 29.832 273.891 29.832C275.282 29.832 276.156 30.7109 276.146 31.7559C276.156 32.5615 275.658 33.1377 274.896 33.3281V33.377C275.863 33.5137 276.425 34.1631 276.42 35.0566C276.425 36.2334 275.336 37.0977 273.871 37.0977ZM277.445 35.623V34.7539L280.57 29.9297H281.898V34.7148H282.865V35.623H281.898V37H280.883V35.623H277.445ZM278.578 34.7148H280.883V31.209H280.805L278.578 34.6562V34.7148ZM284.379 37.0684C283.998 37.0635 283.681 36.7559 283.686 36.375C283.681 35.9941 283.998 35.6816 284.379 35.6816C284.755 35.6816 285.067 35.9941 285.072 36.375C285.067 36.7559 284.755 37.0635 284.379 37.0684ZM286.166 35.623V34.7539L289.291 29.9297H290.619V34.7148H291.586V35.623H290.619V37H289.604V35.623H286.166ZM287.299 34.7148H289.604V31.209H289.525L287.299 34.6562V34.7148ZM294.291 33.2891C293.324 33.2988 292.797 32.5811 292.807 31.5312C292.797 30.4961 293.349 29.7783 294.291 29.7832C295.263 29.7783 295.771 30.4961 295.775 31.5312C295.771 32.5859 295.243 33.2988 294.291 33.2891ZM293.607 37L298.461 29.9297H299.35L294.496 37H293.607ZM293.607 31.5312C293.612 32.1807 293.837 32.6006 294.291 32.6055C294.75 32.6006 294.965 32.1807 294.965 31.5312C294.965 30.8965 294.765 30.4619 294.291 30.4668C293.837 30.4766 293.612 30.9014 293.607 31.5312ZM297.27 35.3887C297.265 34.3438 297.812 33.626 298.754 33.6309C299.721 33.626 300.233 34.3438 300.238 35.3887C300.233 36.4336 299.706 37.1465 298.754 37.1465C297.792 37.1465 297.265 36.4287 297.27 35.3887ZM298.07 35.3887C298.075 36.0283 298.3 36.4531 298.754 36.4531C299.213 36.4531 299.428 36.0283 299.428 35.3887C299.428 34.7441 299.228 34.3145 298.754 34.3145C298.305 34.3242 298.075 34.749 298.07 35.3887Z" fill="white"/>
<path d="M79.7158 29.0898V34.2656H78.7881V33.2012H76.5811V32.4395H78.7881V31.375H76.6738C76.1074 32.7812 74.7939 33.7725 72.8994 34.3145L72.5283 33.5918C74.5986 33.001 75.8096 31.8877 75.9756 30.4766H72.9775V29.7148H76.9814C76.9814 30.0371 76.9473 30.3496 76.8887 30.6426H78.7881V29.0898H79.7158ZM73.8857 36.0723C73.8857 35.0127 75.0381 34.3682 76.835 34.3633C78.6074 34.3682 79.7695 35.0127 79.7744 36.0723C79.7695 37.1367 78.6074 37.791 76.835 37.791C75.0381 37.791 73.8857 37.1367 73.8857 36.0723ZM74.8037 36.0723C74.8037 36.6875 75.585 37.0439 76.835 37.0488C78.0605 37.0439 78.8418 36.6875 78.8467 36.0723C78.8418 35.4473 78.0605 35.0908 76.835 35.0957C75.585 35.0908 74.8037 35.4473 74.8037 36.0723ZM88.1533 33.1133V33.8555H85.5068V35.9941H89.0713V36.7559H81.0635V35.9941H84.5889V33.8555H82.0596V29.7539H88.0752V30.5059H82.9873V33.1133H88.1533ZM94.8525 37.0977C93.5146 37.0977 92.5088 36.2822 92.46 35.1543H93.5049C93.5635 35.7549 94.1396 36.1943 94.8525 36.1992C95.7119 36.1943 96.3271 35.5742 96.3271 34.7344C96.3271 33.875 95.6924 33.25 94.8037 33.2402C94.2373 33.2402 93.8027 33.4307 93.5635 33.8652H92.5479L93.0068 29.9297H97.0107V30.8477H93.8955L93.6611 32.8301H93.7295C94.0225 32.5469 94.5205 32.3564 95.0576 32.3516C96.3906 32.3564 97.3721 33.3428 97.3721 34.7051C97.3721 36.0967 96.3271 37.0977 94.8525 37.0977ZM101.2 29.9297V37H100.116V31.0039H100.077L98.3877 32.1074V31.082L100.146 29.9297H101.2ZM103.29 37.0684C102.909 37.0635 102.592 36.7559 102.597 36.375C102.592 35.9941 102.909 35.6816 103.29 35.6816C103.666 35.6816 103.979 35.9941 103.983 36.375C103.979 36.7559 103.666 37.0635 103.29 37.0684ZM105.077 35.623V34.7539L108.202 29.9297H109.53V34.7148H110.497V35.623H109.53V37H108.515V35.623H105.077ZM106.21 34.7148H108.515V31.209H108.437L106.21 34.6562V34.7148ZM113.202 33.2891C112.235 33.2988 111.708 32.5811 111.718 31.5312C111.708 30.4961 112.26 29.7783 113.202 29.7832C114.174 29.7783 114.682 30.4961 114.687 31.5312C114.682 32.5859 114.154 33.2988 113.202 33.2891ZM112.519 37L117.372 29.9297H118.261L113.407 37H112.519ZM112.519 31.5312C112.523 32.1807 112.748 32.6006 113.202 32.6055C113.661 32.6006 113.876 32.1807 113.876 31.5312C113.876 30.8965 113.676 30.4619 113.202 30.4668C112.748 30.4766 112.523 30.9014 112.519 31.5312ZM116.181 35.3887C116.176 34.3438 116.723 33.626 117.665 33.6309C118.632 33.626 119.145 34.3438 119.149 35.3887C119.145 36.4336 118.617 37.1465 117.665 37.1465C116.703 37.1465 116.176 36.4287 116.181 35.3887ZM116.981 35.3887C116.986 36.0283 117.211 36.4531 117.665 36.4531C118.124 36.4531 118.339 36.0283 118.339 35.3887C118.339 34.7441 118.139 34.3145 117.665 34.3145C117.216 34.3242 116.986 34.749 116.981 35.3887Z" fill="#113287"/>
</g>
<path d="M-1399 -1575H1914V-1577H-1399V-1575ZM1915 -1574V396H1917V-1574H1915ZM1914 397H-1399V399H1914V397ZM-1400 396V-1574H-1402V396H-1400ZM-1399 397C-1399.55 397 -1400 396.552 -1400 396H-1402C-1402 397.657 -1400.66 399 -1399 399V397ZM1915 396C1915 396.552 1914.55 397 1914 397V399C1915.66 399 1917 397.657 1917 396H1915ZM1914 -1575C1914.55 -1575 1915 -1574.55 1915 -1574H1917C1917 -1575.66 1915.66 -1577 1914 -1577V-1575ZM-1399 -1577C-1400.66 -1577 -1402 -1575.66 -1402 -1574H-1400C-1400 -1574.55 -1399.55 -1575 -1399 -1575V-1577Z" fill="black" fill-opacity="0.1"/>
<defs>
<clipPath id="clip0_1814_2379">
<rect width="727" height="90" fill="white"/>
</clipPath>
</defs>
</svg>
