<svg width="727" height="90" viewBox="0 0 727 90" fill="none" xmlns="http://www.w3.org/2000/svg">
<rect width="727" height="90" fill="#727272"/>
<path d="M-1401 -1042C-1401 -1043.1 -1400.1 -1044 -1399 -1044H1914C1915.1 -1044 1916 -1043.1 1916 -1042V928C1916 929.105 1915.1 930 1914 930H-1399C-1400.1 930 -1401 929.105 -1401 928V-1042Z" fill="white"/>
<g clip-path="url(#clip0_1814_2379)">
<path d="M21.7091 83.1142H21.0911V86.3765H21.6465C22.6988 86.3765 23.7548 86.31 24.9322 86.0636L24.8618 85.5551C23.7275 85.7898 22.7027 85.8524 21.7091 85.8524V83.1142ZM21.8655 89.412H26.4421V88.8957H22.4758V87.1432H21.8655V89.412ZM25.5816 87.6361H26.1918V85.2109H27.2401V84.6789H26.1918V82.6135H25.5816V87.6361Z" fill="#001A5B"/>
<path d="M32.1609 84.4755V83.2081H31.5507V84.4755C31.5429 85.7937 30.6862 87.1236 29.6497 87.597L30.0408 88.1133C30.8544 87.7026 31.539 86.8225 31.8597 85.7742C32.1922 86.7638 32.8767 87.5892 33.6708 87.9725L34.0463 87.4874C33.0214 87.022 32.157 85.7467 32.1609 84.4755ZM34.8051 89.5763H35.4232V82.6057H34.8051V89.5763Z" fill="#001A5B"/>
<path d="M2.34111 76.8508C3.8153 76.8508 4.67781 75.6626 4.68222 73.5767C4.67781 71.5041 3.8021 70.3027 2.34111 70.3027C0.875718 70.3027 0 71.5041 0 73.5767C0 75.6626 0.866916 76.8508 2.34111 76.8508ZM0.968125 73.5767C0.968125 71.9926 1.48299 71.1257 2.34111 71.1213C3.19483 71.1257 3.71409 71.9926 3.71409 73.5767C3.71409 75.1653 3.19922 76.0147 2.34111 76.0147C1.4786 76.0147 0.963729 75.1653 0.968125 73.5767Z" fill="#001A5B"/>
<path d="M7.84183 76.7628C9.78247 76.7628 10.9002 75.5571 10.9046 73.5679C10.9002 71.5833 9.78247 70.3907 7.90344 70.3907H5.77356V76.7628H7.84183ZM6.74169 75.9178V71.2356H7.84183C9.23241 71.2356 9.94529 72.0674 9.94529 73.5679C9.94529 75.073 9.23241 75.9134 7.78903 75.9178H6.74169Z" fill="#001A5B"/>
<path d="M183.552 70.3907H182.602L181.018 71.4293V72.3533L182.541 71.3589H182.576V76.7628H183.552V70.3907Z" fill="#001A5B"/>
<path d="M187.328 76.7628C189.269 76.7628 190.387 75.5571 190.392 73.5679C190.387 71.5833 189.269 70.3907 187.39 70.3907H185.26V76.7628H187.328ZM186.228 75.9178V71.2356H187.328C188.719 71.2356 189.432 72.0674 189.432 73.5679C189.432 75.073 188.719 75.9134 187.275 75.9178H186.228Z" fill="#001A5B"/>
<path d="M360.72 76.7628H365.007V75.9355H362.067V75.8827L363.36 74.5713C364.557 73.3963 364.891 72.8286 364.9 72.1157C364.891 71.0816 364.042 70.3027 362.815 70.3027C361.6 70.3027 360.712 71.0728 360.72 72.239H361.635C361.64 71.5613 362.089 71.1124 362.798 71.1124C363.466 71.1124 363.976 71.5129 363.976 72.1422C363.976 72.701 363.629 73.1059 362.929 73.832L360.72 76.0586V76.7628Z" fill="#001A5B"/>
<path d="M368.236 76.7628C370.177 76.7628 371.294 75.5571 371.299 73.5679C371.294 71.5833 370.177 70.3907 368.298 70.3907H366.168V76.7628H368.236ZM367.137 75.9178V71.2356H368.236C369.627 71.2356 370.34 72.0674 370.34 73.5679C370.34 75.073 369.627 75.9134 368.183 75.9178H367.137Z" fill="#001A5B"/>
<path d="M543.097 76.8508C544.418 76.8508 545.4 76.0719 545.395 75.0113C545.4 74.206 544.893 73.6208 544.022 73.4975V73.4536C544.709 73.2819 545.157 72.7626 545.148 72.0365C545.157 71.0948 544.369 70.3027 543.115 70.3027C541.927 70.3027 540.968 71.0068 540.942 72.0453H541.875C541.897 71.4688 542.469 71.1124 543.107 71.1124C543.779 71.1124 544.215 71.5085 544.215 72.0894C544.215 72.701 543.709 73.1059 542.983 73.1015H542.438V73.8936H542.983C543.895 73.898 544.418 74.3469 544.418 74.9762C544.418 75.5966 543.859 76.0147 543.088 76.0147C542.376 76.0147 541.822 75.6582 541.787 75.0993H540.8C540.84 76.1423 541.778 76.8508 543.097 76.8508Z" fill="#001A5B"/>
<path d="M548.616 76.7628C550.557 76.7628 551.674 75.5571 551.679 73.5679C551.674 71.5833 550.557 70.3907 548.678 70.3907H546.548V76.7628H548.616ZM547.515 75.9178V71.2356H548.616C550.007 71.2356 550.72 72.0674 550.72 73.5679C550.72 75.073 550.007 75.9134 548.563 75.9178H547.515Z" fill="#001A5B"/>
<path fill-rule="evenodd" clip-rule="evenodd" d="M95.0756 49.2318V15.6691H96.0769V49.2318H95.0756Z" fill="#979797"/>
<path fill-rule="evenodd" clip-rule="evenodd" d="M275.323 49.2318V15.6691H276.325V49.2318H275.323Z" fill="#979797"/>
<path fill-rule="evenodd" clip-rule="evenodd" d="M455.571 49.2318V15.6691H456.572V49.2318H455.571Z" fill="#979797"/>
<path fill-rule="evenodd" clip-rule="evenodd" d="M635.819 49.2318V15.6691H636.82V49.2318H635.819Z" fill="#979797"/>
<path fill-rule="evenodd" clip-rule="evenodd" d="M456.572 37.7092V16.6803H455.571V37.7092H456.572Z" fill="#979797"/>
<path fill-rule="evenodd" clip-rule="evenodd" d="M636.82 37.7092V16.6803H635.819V37.7092H636.82Z" fill="#979797"/>
<path d="M719.434 20.6858H546.196V44.7188H719.434V20.6858Z" fill="#001A5B"/>
<path d="M546.196 20.6858H365.948V44.7188H546.196V20.6858Z" fill="#113287"/>
<path d="M365.948 20.6858H185.7V44.7188H365.948V20.6858Z" fill="#5B6EB4"/>
<path d="M185.7 20.6858H5.45227V44.7188H185.7V20.6858Z" fill="#E2E6F6"/>
<path fill-rule="evenodd" clip-rule="evenodd" d="M4.45093 64.7463V0.658203H6.45368V64.7463H4.45093Z" fill="#113287"/>
<path fill-rule="evenodd" clip-rule="evenodd" d="M185.199 64.494V0.405884H186.201V64.494H185.199Z" fill="#979797"/>
<path fill-rule="evenodd" clip-rule="evenodd" d="M365.447 64.494V0.405884H366.449V64.494H365.447Z" fill="#979797"/>
<path fill-rule="evenodd" clip-rule="evenodd" d="M545.695 64.494V0.405884H546.696V64.494H545.695Z" fill="#979797"/>
<path fill-rule="evenodd" clip-rule="evenodd" d="M36.6669 70.719L39.8533 73.9054C40.0487 74.1009 40.0487 74.4179 39.8533 74.6134L36.6669 77.7998C36.4713 77.9953 36.1543 77.9953 35.9588 77.7998C35.7632 77.6043 35.7632 77.2872 35.9588 77.0918L38.2904 74.7601H20.473V73.7588H38.2904L35.9588 71.4271C35.7632 71.2316 35.7632 70.9146 35.9588 70.719C36.1543 70.5235 36.4713 70.5235 36.6669 70.719Z" fill="#113287"/>
<path d="M719.889 20.6858H691.042V44.7188H719.889L727.445 32.7023L719.889 20.6858Z" fill="#001A5B"/>
<path d="M615.84 34.9941V35.7559H607.832V34.9941H611.367V33.0898H612.285V34.9941H615.84ZM608.223 32.6699C610.02 32.4062 611.313 31.3906 611.357 30.1602H608.555V29.4082H611.367V28.2363H612.285V29.4082H615.098V30.1602H612.295C612.339 31.3906 613.633 32.4062 615.43 32.6699L615.078 33.3926C613.613 33.1631 612.393 32.4697 611.821 31.4492C611.255 32.4697 610.039 33.1631 608.574 33.3926L608.223 32.6699ZM623.555 28.9199V29.7793C623.55 30.8584 623.55 32.0693 623.223 33.8613L622.285 33.7637C622.622 32.0693 622.622 30.8291 622.627 29.7793V29.6719H617.314V28.9199H623.555ZM616.475 35.6484V34.877H619.512V31.791H620.43V34.877H624.453V35.6484H616.475ZM632.207 32.1133V32.8555H629.561V34.9941H633.125V35.7559H625.117V34.9941H628.643V32.8555H626.113V28.7539H632.129V29.5059H627.041V32.1133H632.207ZM639.189 28.9297V36H638.105V30.0039H638.066L636.377 31.1074V30.082L638.135 28.9297H639.189ZM641.279 36.0684C640.898 36.0635 640.581 35.7559 640.586 35.375C640.581 34.9941 640.898 34.6816 641.279 34.6816C641.655 34.6816 641.968 34.9941 641.973 35.375C641.968 35.7559 641.655 36.0635 641.279 36.0684ZM645.508 36.0977C644.17 36.0977 643.164 35.2822 643.115 34.1543H644.16C644.219 34.7549 644.795 35.1943 645.508 35.1992C646.367 35.1943 646.982 34.5742 646.982 33.7344C646.982 32.875 646.348 32.25 645.459 32.2402C644.893 32.2402 644.458 32.4307 644.219 32.8652H643.203L643.662 28.9297H647.666V29.8477H644.551L644.316 31.8301H644.385C644.678 31.5469 645.176 31.3564 645.713 31.3516C647.046 31.3564 648.027 32.3428 648.027 33.7051C648.027 35.0967 646.982 36.0977 645.508 36.0977ZM650.791 32.2891C649.824 32.2988 649.297 31.5811 649.307 30.5312C649.297 29.4961 649.849 28.7783 650.791 28.7832C651.763 28.7783 652.271 29.4961 652.275 30.5312C652.271 31.5859 651.743 32.2988 650.791 32.2891ZM650.107 36L654.961 28.9297H655.85L650.996 36H650.107ZM650.107 30.5312C650.112 31.1807 650.337 31.6006 650.791 31.6055C651.25 31.6006 651.465 31.1807 651.465 30.5312C651.465 29.8965 651.265 29.4619 650.791 29.4668C650.337 29.4766 650.112 29.9014 650.107 30.5312ZM653.77 34.3887C653.765 33.3438 654.312 32.626 655.254 32.6309C656.221 32.626 656.733 33.3438 656.738 34.3887C656.733 35.4336 656.206 36.1465 655.254 36.1465C654.292 36.1465 653.765 35.4287 653.77 34.3887ZM654.57 34.3887C654.575 35.0283 654.8 35.4531 655.254 35.4531C655.713 35.4531 655.928 35.0283 655.928 34.3887C655.928 33.7441 655.728 33.3145 655.254 33.3145C654.805 33.3242 654.575 33.749 654.57 34.3887Z" fill="white"/>
<path d="M441.703 28.9199V29.7793C441.698 30.8584 441.698 32.0693 441.371 33.8613L440.434 33.7637C440.771 32.0693 440.771 30.8291 440.775 29.7793V29.6719H435.463V28.9199H441.703ZM434.623 35.6484V34.877H437.66V31.791H438.578V34.877H442.602V35.6484H434.623ZM450.355 32.1133V32.8555H447.709V34.9941H451.273V35.7559H443.266V34.9941H446.791V32.8555H444.262V28.7539H450.277V29.5059H445.189V32.1133H450.355ZM454.652 36V35.2188L457.104 32.748C457.88 31.9424 458.266 31.4932 458.266 30.873C458.266 30.1748 457.699 29.7305 456.957 29.7305C456.171 29.7305 455.673 30.2285 455.668 30.9805H454.652C454.643 29.6865 455.629 28.832 456.977 28.832C458.339 28.832 459.281 29.6963 459.291 30.8438C459.281 31.6348 458.91 32.2646 457.582 33.5684L456.146 35.0234V35.082H459.408V36H454.652ZM461.293 36.0684C460.912 36.0635 460.595 35.7559 460.6 35.375C460.595 34.9941 460.912 34.6816 461.293 34.6816C461.669 34.6816 461.981 34.9941 461.986 35.375C461.981 35.7559 461.669 36.0635 461.293 36.0684ZM465.58 28.832C466.879 28.8418 468.241 29.623 468.246 32.2109C468.246 34.6914 467.177 36.0977 465.482 36.0977C464.179 36.0977 463.271 35.292 463.1 34.1445H464.164C464.311 34.7402 464.77 35.1553 465.482 35.1602C466.571 35.1553 467.211 34.208 467.221 32.5918H467.133C466.752 33.1875 466.088 33.5488 465.326 33.5488C464.057 33.5488 463.041 32.5771 463.041 31.2246C463.041 29.877 464.042 28.8223 465.58 28.832ZM464.086 31.2051C464.091 32.0254 464.701 32.6748 465.561 32.6699C466.415 32.6748 467.074 31.9766 467.074 31.1953C467.074 30.4287 466.444 29.7305 465.58 29.7305C464.726 29.7305 464.081 30.3945 464.086 31.2051ZM471 32.2891C470.033 32.2988 469.506 31.5811 469.516 30.5312C469.506 29.4961 470.058 28.7783 471 28.7832C471.972 28.7783 472.479 29.4961 472.484 30.5312C472.479 31.5859 471.952 32.2988 471 32.2891ZM470.316 36L475.17 28.9297H476.059L471.205 36H470.316ZM470.316 30.5312C470.321 31.1807 470.546 31.6006 471 31.6055C471.459 31.6006 471.674 31.1807 471.674 30.5312C471.674 29.8965 471.474 29.4619 471 29.4668C470.546 29.4766 470.321 29.9014 470.316 30.5312ZM473.979 34.3887C473.974 33.3438 474.521 32.626 475.463 32.6309C476.43 32.626 476.942 33.3438 476.947 34.3887C476.942 35.4336 476.415 36.1465 475.463 36.1465C474.501 36.1465 473.974 35.4287 473.979 34.3887ZM474.779 34.3887C474.784 35.0283 475.009 35.4531 475.463 35.4531C475.922 35.4531 476.137 35.0283 476.137 34.3887C476.137 33.7441 475.937 33.3145 475.463 33.3145C475.014 33.3242 474.784 33.749 474.779 34.3887Z" fill="white"/>
<path d="M260.448 32.1328V32.8848H256.913V33.7246C258.515 33.8125 259.467 34.3496 259.472 35.2676C259.467 36.2588 258.334 36.8154 256.454 36.8105C254.55 36.8154 253.417 36.2588 253.417 35.2676C253.417 34.3496 254.369 33.8076 255.995 33.7246V32.8848H252.47V32.1328H260.448ZM252.89 30.9414C254.462 30.7803 255.702 30.0674 255.829 29.2227H253.202V28.4805H259.735V29.2227H257.079C257.206 30.0723 258.437 30.7803 260.038 30.9414L259.706 31.6738C258.188 31.498 256.933 30.8584 256.459 29.9307C255.976 30.8584 254.73 31.498 253.212 31.6738L252.89 30.9414ZM254.354 35.2676C254.35 35.7998 255.116 36.1074 256.454 36.0977C257.772 36.1074 258.544 35.7998 258.544 35.2676C258.544 34.7256 257.772 34.4326 256.454 34.4277C255.116 34.4326 254.35 34.7256 254.354 35.2676ZM268.202 32.1133V32.8555H265.556V34.9941H269.12V35.7559H261.112V34.9941H264.638V32.8555H262.108V28.7539H268.124V29.5059H263.036V32.1133H268.202ZM275.185 28.9297V36H274.101V30.0039H274.062L272.372 31.1074V30.082L274.13 28.9297H275.185ZM279.452 36.0977C277.914 36.0977 276.845 35.2676 276.854 34.1152C276.845 33.207 277.494 32.4648 278.329 32.3379V32.2988C277.602 32.1328 277.118 31.4883 277.118 30.7168C277.118 29.6279 278.1 28.832 279.452 28.832C280.785 28.832 281.771 29.6279 281.776 30.7168C281.771 31.4883 281.278 32.1328 280.565 32.2988V32.3379C281.391 32.4648 282.045 33.207 282.05 34.1152C282.045 35.2676 280.966 36.0977 279.452 36.0977ZM277.948 34.0371C277.934 34.7305 278.52 35.209 279.452 35.209C280.37 35.209 280.956 34.7305 280.956 34.0371C280.956 33.3096 280.321 32.7773 279.452 32.7773C278.573 32.7773 277.934 33.3096 277.948 34.0371ZM278.163 30.8145C278.168 31.4736 278.695 31.9326 279.452 31.9277C280.189 31.9326 280.727 31.4785 280.722 30.8145C280.727 30.1553 280.209 29.7061 279.452 29.7109C278.676 29.7061 278.168 30.1553 278.163 30.8145ZM283.642 36.0684C283.261 36.0635 282.943 35.7559 282.948 35.375C282.943 34.9941 283.261 34.6816 283.642 34.6816C284.018 34.6816 284.33 34.9941 284.335 35.375C284.33 35.7559 284.018 36.0635 283.642 36.0684ZM287.87 36.0977C286.532 36.0977 285.526 35.2822 285.478 34.1543H286.522C286.581 34.7549 287.157 35.1943 287.87 35.1992C288.729 35.1943 289.345 34.5742 289.345 33.7344C289.345 32.875 288.71 32.25 287.821 32.2402C287.255 32.2402 286.82 32.4307 286.581 32.8652H285.565L286.024 28.9297H290.028V29.8477H286.913L286.679 31.8301H286.747C287.04 31.5469 287.538 31.3564 288.075 31.3516C289.408 31.3564 290.39 32.3428 290.39 33.7051C290.39 35.0967 289.345 36.0977 287.87 36.0977ZM293.153 32.2891C292.187 32.2988 291.659 31.5811 291.669 30.5312C291.659 29.4961 292.211 28.7783 293.153 28.7832C294.125 28.7783 294.633 29.4961 294.638 30.5312C294.633 31.5859 294.105 32.2988 293.153 32.2891ZM292.47 36L297.323 28.9297H298.212L293.358 36H292.47ZM292.47 30.5312C292.475 31.1807 292.699 31.6006 293.153 31.6055C293.612 31.6006 293.827 31.1807 293.827 30.5312C293.827 29.8965 293.627 29.4619 293.153 29.4668C292.699 29.4766 292.475 29.9014 292.47 30.5312ZM296.132 34.3887C296.127 33.3438 296.674 32.626 297.616 32.6309C298.583 32.626 299.096 33.3438 299.101 34.3887C299.096 35.4336 298.568 36.1465 297.616 36.1465C296.654 36.1465 296.127 35.4287 296.132 34.3887ZM296.933 34.3887C296.938 35.0283 297.162 35.4531 297.616 35.4531C298.075 35.4531 298.29 35.0283 298.29 34.3887C298.29 33.7441 298.09 33.3145 297.616 33.3145C297.167 33.3242 296.938 33.749 296.933 34.3887Z" fill="white"/>
<path d="M81.0684 28.0898V33.2656H80.1406V32.2012H77.9336V31.4395H80.1406V30.375H78.0264C77.46 31.7812 76.1465 32.7725 74.252 33.3145L73.8809 32.5918C75.9512 32.001 77.1621 30.8877 77.3281 29.4766H74.3301V28.7148H78.334C78.334 29.0371 78.2998 29.3496 78.2412 29.6426H80.1406V28.0898H81.0684ZM75.2383 35.0723C75.2383 34.0127 76.3906 33.3682 78.1875 33.3633C79.96 33.3682 81.1221 34.0127 81.127 35.0723C81.1221 36.1367 79.96 36.791 78.1875 36.791C76.3906 36.791 75.2383 36.1367 75.2383 35.0723ZM76.1562 35.0723C76.1562 35.6875 76.9375 36.0439 78.1875 36.0488C79.4131 36.0439 80.1943 35.6875 80.1992 35.0723C80.1943 34.4473 79.4131 34.0908 78.1875 34.0957C76.9375 34.0908 76.1562 34.4473 76.1562 35.0723ZM89.5059 32.1133V32.8555H86.8594V34.9941H90.4238V35.7559H82.416V34.9941H85.9414V32.8555H83.4121V28.7539H89.4277V29.5059H84.3398V32.1133H89.5059ZM94.0469 36L97.2012 29.9062V29.8477H93.5586V28.9297H98.3145V29.8867L95.1699 36H94.0469ZM99.8379 36L102.992 29.9062V29.8477H99.3496V28.9297H104.105V29.8867L100.961 36H99.8379ZM104.662 36.0684C104.281 36.0635 103.964 35.7559 103.969 35.375C103.964 34.9941 104.281 34.6816 104.662 34.6816C105.038 34.6816 105.351 34.9941 105.355 35.375C105.351 35.7559 105.038 36.0635 104.662 36.0684ZM108.432 28.9297V36H107.348V30.0039H107.309L105.619 31.1074V30.082L107.377 28.9297H108.432ZM111.85 32.2891C110.883 32.2988 110.355 31.5811 110.365 30.5312C110.355 29.4961 110.907 28.7783 111.85 28.7832C112.821 28.7783 113.329 29.4961 113.334 30.5312C113.329 31.5859 112.802 32.2988 111.85 32.2891ZM111.166 36L116.02 28.9297H116.908L112.055 36H111.166ZM111.166 30.5312C111.171 31.1807 111.396 31.6006 111.85 31.6055C112.309 31.6006 112.523 31.1807 112.523 30.5312C112.523 29.8965 112.323 29.4619 111.85 29.4668C111.396 29.4766 111.171 29.9014 111.166 30.5312ZM114.828 34.3887C114.823 33.3438 115.37 32.626 116.312 32.6309C117.279 32.626 117.792 33.3438 117.797 34.3887C117.792 35.4336 117.265 36.1465 116.312 36.1465C115.351 36.1465 114.823 35.4287 114.828 34.3887ZM115.629 34.3887C115.634 35.0283 115.858 35.4531 116.312 35.4531C116.771 35.4531 116.986 35.0283 116.986 34.3887C116.986 33.7441 116.786 33.3145 116.312 33.3145C115.863 33.3242 115.634 33.749 115.629 34.3887Z" fill="#113287"/>
</g>
<path d="M-1399 -1043H1914V-1045H-1399V-1043ZM1915 -1042V928H1917V-1042H1915ZM1914 929H-1399V931H1914V929ZM-1400 928V-1042H-1402V928H-1400ZM-1399 929C-1399.55 929 -1400 928.552 -1400 928H-1402C-1402 929.657 -1400.66 931 -1399 931V929ZM1915 928C1915 928.552 1914.55 929 1914 929V931C1915.66 931 1917 929.657 1917 928H1915ZM1914 -1043C1914.55 -1043 1915 -1042.55 1915 -1042H1917C1917 -1043.66 1915.66 -1045 1914 -1045V-1043ZM-1399 -1045C-1400.66 -1045 -1402 -1043.66 -1402 -1042H-1400C-1400 -1042.55 -1399.55 -1043 -1399 -1043V-1045Z" fill="black" fill-opacity="0.1"/>
<defs>
<clipPath id="clip0_1814_2379">
<rect width="727" height="90" fill="white"/>
</clipPath>
</defs>
</svg>
