<svg width="727" height="90" viewBox="0 0 727 90" fill="none" xmlns="http://www.w3.org/2000/svg">
<rect width="727" height="90" fill="#727272"/>
<path d="M-1401 -509C-1401 -510.105 -1400.1 -511 -1399 -511H1914C1915.1 -511 1916 -510.105 1916 -509V1461C1916 1462.1 1915.1 1463 1914 1463H-1399C-1400.1 1463 -1401 1462.1 -1401 1461V-509Z" fill="white"/>
<g clip-path="url(#clip0_1814_2379)">
<path d="M21.7091 83.1142H21.0911V86.3765H21.6465C22.6988 86.3765 23.7548 86.31 24.9322 86.0636L24.8618 85.5551C23.7275 85.7898 22.7027 85.8524 21.7091 85.8524V83.1142ZM21.8655 89.412H26.4421V88.8957H22.4758V87.1432H21.8655V89.412ZM25.5816 87.6361H26.1918V85.2109H27.2401V84.6789H26.1918V82.6135H25.5816V87.6361Z" fill="#001A5B"/>
<path d="M32.1609 84.4755V83.2081H31.5507V84.4755C31.5429 85.7937 30.6862 87.1236 29.6497 87.597L30.0408 88.1133C30.8544 87.7026 31.539 86.8225 31.8597 85.7742C32.1922 86.7638 32.8767 87.5892 33.6708 87.9725L34.0463 87.4874C33.0214 87.022 32.157 85.7467 32.1609 84.4755ZM34.8051 89.5763H35.4232V82.6057H34.8051V89.5763Z" fill="#001A5B"/>
<path d="M2.34111 76.8508C3.8153 76.8508 4.67781 75.6626 4.68222 73.5767C4.67781 71.5041 3.8021 70.3027 2.34111 70.3027C0.875718 70.3027 0 71.5041 0 73.5767C0 75.6626 0.866916 76.8508 2.34111 76.8508ZM0.968125 73.5767C0.968125 71.9926 1.48299 71.1257 2.34111 71.1213C3.19483 71.1257 3.71409 71.9926 3.71409 73.5767C3.71409 75.1653 3.19922 76.0147 2.34111 76.0147C1.4786 76.0147 0.963729 75.1653 0.968125 73.5767Z" fill="#001A5B"/>
<path d="M7.84183 76.7628C9.78247 76.7628 10.9002 75.5571 10.9046 73.5679C10.9002 71.5833 9.78247 70.3907 7.90344 70.3907H5.77356V76.7628H7.84183ZM6.74169 75.9178V71.2356H7.84183C9.23241 71.2356 9.94529 72.0674 9.94529 73.5679C9.94529 75.073 9.23241 75.9134 7.78903 75.9178H6.74169Z" fill="#001A5B"/>
<path d="M183.552 70.3907H182.602L181.018 71.4293V72.3533L182.541 71.3589H182.576V76.7628H183.552V70.3907Z" fill="#001A5B"/>
<path d="M187.328 76.7628C189.269 76.7628 190.387 75.5571 190.392 73.5679C190.387 71.5833 189.269 70.3907 187.39 70.3907H185.26V76.7628H187.328ZM186.228 75.9178V71.2356H187.328C188.719 71.2356 189.432 72.0674 189.432 73.5679C189.432 75.073 188.719 75.9134 187.275 75.9178H186.228Z" fill="#001A5B"/>
<path d="M360.72 76.7628H365.007V75.9355H362.067V75.8827L363.36 74.5713C364.557 73.3963 364.891 72.8286 364.9 72.1157C364.891 71.0816 364.042 70.3027 362.815 70.3027C361.6 70.3027 360.712 71.0728 360.72 72.239H361.635C361.64 71.5613 362.089 71.1124 362.798 71.1124C363.466 71.1124 363.976 71.5129 363.976 72.1422C363.976 72.701 363.629 73.1059 362.929 73.832L360.72 76.0586V76.7628Z" fill="#001A5B"/>
<path d="M368.236 76.7628C370.177 76.7628 371.294 75.5571 371.299 73.5679C371.294 71.5833 370.177 70.3907 368.298 70.3907H366.168V76.7628H368.236ZM367.137 75.9178V71.2356H368.236C369.627 71.2356 370.34 72.0674 370.34 73.5679C370.34 75.073 369.627 75.9134 368.183 75.9178H367.137Z" fill="#001A5B"/>
<path d="M543.097 76.8508C544.418 76.8508 545.4 76.0719 545.395 75.0113C545.4 74.206 544.893 73.6208 544.022 73.4975V73.4536C544.709 73.2819 545.157 72.7626 545.148 72.0365C545.157 71.0948 544.369 70.3027 543.115 70.3027C541.927 70.3027 540.968 71.0068 540.942 72.0453H541.875C541.897 71.4688 542.469 71.1124 543.107 71.1124C543.779 71.1124 544.215 71.5085 544.215 72.0894C544.215 72.701 543.709 73.1059 542.983 73.1015H542.438V73.8936H542.983C543.895 73.898 544.418 74.3469 544.418 74.9762C544.418 75.5966 543.859 76.0147 543.088 76.0147C542.376 76.0147 541.822 75.6582 541.787 75.0993H540.8C540.84 76.1423 541.778 76.8508 543.097 76.8508Z" fill="#001A5B"/>
<path d="M548.616 76.7628C550.557 76.7628 551.674 75.5571 551.679 73.5679C551.674 71.5833 550.557 70.3907 548.678 70.3907H546.548V76.7628H548.616ZM547.515 75.9178V71.2356H548.616C550.007 71.2356 550.72 72.0674 550.72 73.5679C550.72 75.073 550.007 75.9134 548.563 75.9178H547.515Z" fill="#001A5B"/>
<path fill-rule="evenodd" clip-rule="evenodd" d="M95.0756 49.2318V15.6691H96.0769V49.2318H95.0756Z" fill="#979797"/>
<path fill-rule="evenodd" clip-rule="evenodd" d="M275.323 49.2318V15.6691H276.325V49.2318H275.323Z" fill="#979797"/>
<path fill-rule="evenodd" clip-rule="evenodd" d="M455.571 49.2318V15.6691H456.572V49.2318H455.571Z" fill="#979797"/>
<path fill-rule="evenodd" clip-rule="evenodd" d="M635.819 49.2318V15.6691H636.82V49.2318H635.819Z" fill="#979797"/>
<path fill-rule="evenodd" clip-rule="evenodd" d="M456.572 37.7092V16.6803H455.571V37.7092H456.572Z" fill="#979797"/>
<path fill-rule="evenodd" clip-rule="evenodd" d="M636.82 37.7092V16.6803H635.819V37.7092H636.82Z" fill="#979797"/>
<path d="M719.434 20.6858H546.196V44.7188H719.434V20.6858Z" fill="#001A5B"/>
<path d="M546.196 20.6858H365.948V44.7188H546.196V20.6858Z" fill="#113287"/>
<path d="M365.948 20.6858H185.7V44.7188H365.948V20.6858Z" fill="#5B6EB4"/>
<path d="M185.7 20.6858H5.45227V44.7188H185.7V20.6858Z" fill="#E2E6F6"/>
<path fill-rule="evenodd" clip-rule="evenodd" d="M4.45093 64.7463V0.658203H6.45368V64.7463H4.45093Z" fill="#113287"/>
<path fill-rule="evenodd" clip-rule="evenodd" d="M185.199 64.494V0.405884H186.201V64.494H185.199Z" fill="#979797"/>
<path fill-rule="evenodd" clip-rule="evenodd" d="M365.447 64.494V0.405884H366.449V64.494H365.447Z" fill="#979797"/>
<path fill-rule="evenodd" clip-rule="evenodd" d="M545.695 64.494V0.405884H546.696V64.494H545.695Z" fill="#979797"/>
<path fill-rule="evenodd" clip-rule="evenodd" d="M36.6669 70.719L39.8533 73.9054C40.0487 74.1009 40.0487 74.4179 39.8533 74.6134L36.6669 77.7998C36.4713 77.9953 36.1543 77.9953 35.9588 77.7998C35.7632 77.6043 35.7632 77.2872 35.9588 77.0918L38.2904 74.7601H20.473V73.7588H38.2904L35.9588 71.4271C35.7632 71.2316 35.7632 70.9146 35.9588 70.719C36.1543 70.5235 36.4713 70.5235 36.6669 70.719Z" fill="#113287"/>
<path d="M719.889 20.6858H691.042V44.7188H719.889L727.445 32.7023L719.889 20.6858Z" fill="#001A5B"/>
<path d="M614.668 35.9941V36.7559H606.66V35.9941H610.195V34.0898H611.113V35.9941H614.668ZM607.051 33.6699C608.848 33.4062 610.142 32.3906 610.186 31.1602H607.383V30.4082H610.195V29.2363H611.113V30.4082H613.926V31.1602H611.123C611.167 32.3906 612.461 33.4062 614.258 33.6699L613.906 34.3926C612.441 34.1631 611.221 33.4697 610.649 32.4492C610.083 33.4697 608.867 34.1631 607.402 34.3926L607.051 33.6699ZM622.383 29.9199V30.7793C622.378 31.8584 622.378 33.0693 622.051 34.8613L621.113 34.7637C621.45 33.0693 621.45 31.8291 621.455 30.7793V30.6719H616.143V29.9199H622.383ZM615.303 36.6484V35.877H618.34V32.791H619.258V35.877H623.281V36.6484H615.303ZM631.035 33.1133V33.8555H628.389V35.9941H631.953V36.7559H623.945V35.9941H627.471V33.8555H624.941V29.7539H630.957V30.5059H625.869V33.1133H631.035ZM637.842 37.0977C636.377 37.0977 635.337 36.3115 635.293 35.1543H636.387C636.426 35.7744 637.041 36.1699 637.832 36.1699C638.687 36.1699 639.307 35.7061 639.307 35.0176C639.307 34.3193 638.726 33.8213 637.715 33.8164H637.109V32.9375H637.715C638.521 32.9424 639.082 32.4932 639.082 31.8145C639.082 31.1699 638.599 30.7305 637.852 30.7305C637.144 30.7305 636.509 31.126 636.484 31.7656H635.449C635.479 30.6133 636.543 29.832 637.861 29.832C639.253 29.832 640.127 30.7109 640.117 31.7559C640.127 32.5615 639.629 33.1377 638.867 33.3281V33.377C639.834 33.5137 640.396 34.1631 640.391 35.0566C640.396 36.2334 639.307 37.0977 637.842 37.0977ZM642.051 37.0684C641.67 37.0635 641.353 36.7559 641.357 36.375C641.353 35.9941 641.67 35.6816 642.051 35.6816C642.427 35.6816 642.739 35.9941 642.744 36.375C642.739 36.7559 642.427 37.0635 642.051 37.0684ZM643.838 35.623V34.7539L646.963 29.9297H648.291V34.7148H649.258V35.623H648.291V37H647.275V35.623H643.838ZM644.971 34.7148H647.275V31.209H647.197L644.971 34.6562V34.7148ZM651.963 33.2891C650.996 33.2988 650.469 32.5811 650.479 31.5312C650.469 30.4961 651.021 29.7783 651.963 29.7832C652.935 29.7783 653.442 30.4961 653.447 31.5312C653.442 32.5859 652.915 33.2988 651.963 33.2891ZM651.279 37L656.133 29.9297H657.021L652.168 37H651.279ZM651.279 31.5312C651.284 32.1807 651.509 32.6006 651.963 32.6055C652.422 32.6006 652.637 32.1807 652.637 31.5312C652.637 30.8965 652.437 30.4619 651.963 30.4668C651.509 30.4766 651.284 30.9014 651.279 31.5312ZM654.941 35.3887C654.937 34.3438 655.483 33.626 656.426 33.6309C657.393 33.626 657.905 34.3438 657.91 35.3887C657.905 36.4336 657.378 37.1465 656.426 37.1465C655.464 37.1465 654.937 36.4287 654.941 35.3887ZM655.742 35.3887C655.747 36.0283 655.972 36.4531 656.426 36.4531C656.885 36.4531 657.1 36.0283 657.1 35.3887C657.1 34.7441 656.899 34.3145 656.426 34.3145C655.977 34.3242 655.747 34.749 655.742 35.3887Z" fill="white"/>
<path d="M441.693 29.9199V30.7793C441.688 31.8584 441.688 33.0693 441.361 34.8613L440.424 34.7637C440.761 33.0693 440.761 31.8291 440.766 30.7793V30.6719H435.453V29.9199H441.693ZM434.613 36.6484V35.877H437.65V32.791H438.568V35.877H442.592V36.6484H434.613ZM450.346 33.1133V33.8555H447.699V35.9941H451.264V36.7559H443.256V35.9941H446.781V33.8555H444.252V29.7539H450.268V30.5059H445.18V33.1133H450.346ZM457.113 37.0977C455.575 37.0977 454.506 36.2676 454.516 35.1152C454.506 34.207 455.155 33.4648 455.99 33.3379V33.2988C455.263 33.1328 454.779 32.4883 454.779 31.7168C454.779 30.6279 455.761 29.832 457.113 29.832C458.446 29.832 459.433 30.6279 459.438 31.7168C459.433 32.4883 458.939 33.1328 458.227 33.2988V33.3379C459.052 33.4648 459.706 34.207 459.711 35.1152C459.706 36.2676 458.627 37.0977 457.113 37.0977ZM455.609 35.0371C455.595 35.7305 456.181 36.209 457.113 36.209C458.031 36.209 458.617 35.7305 458.617 35.0371C458.617 34.3096 457.982 33.7773 457.113 33.7773C456.234 33.7773 455.595 34.3096 455.609 35.0371ZM455.824 31.8145C455.829 32.4736 456.356 32.9326 457.113 32.9277C457.851 32.9326 458.388 32.4785 458.383 31.8145C458.388 31.1553 457.87 30.7061 457.113 30.7109C456.337 30.7061 455.829 31.1553 455.824 31.8145ZM461.303 37.0684C460.922 37.0635 460.604 36.7559 460.609 36.375C460.604 35.9941 460.922 35.6816 461.303 35.6816C461.679 35.6816 461.991 35.9941 461.996 36.375C461.991 36.7559 461.679 37.0635 461.303 37.0684ZM465.59 29.832C466.889 29.8418 468.251 30.623 468.256 33.2109C468.256 35.6914 467.187 37.0977 465.492 37.0977C464.188 37.0977 463.28 36.292 463.109 35.1445H464.174C464.32 35.7402 464.779 36.1553 465.492 36.1602C466.581 36.1553 467.221 35.208 467.23 33.5918H467.143C466.762 34.1875 466.098 34.5488 465.336 34.5488C464.066 34.5488 463.051 33.5771 463.051 32.2246C463.051 30.877 464.052 29.8223 465.59 29.832ZM464.096 32.2051C464.101 33.0254 464.711 33.6748 465.57 33.6699C466.425 33.6748 467.084 32.9766 467.084 32.1953C467.084 31.4287 466.454 30.7305 465.59 30.7305C464.735 30.7305 464.091 31.3945 464.096 32.2051ZM471.01 33.2891C470.043 33.2988 469.516 32.5811 469.525 31.5312C469.516 30.4961 470.067 29.7783 471.01 29.7832C471.981 29.7783 472.489 30.4961 472.494 31.5312C472.489 32.5859 471.962 33.2988 471.01 33.2891ZM470.326 37L475.18 29.9297H476.068L471.215 37H470.326ZM470.326 31.5312C470.331 32.1807 470.556 32.6006 471.01 32.6055C471.469 32.6006 471.684 32.1807 471.684 31.5312C471.684 30.8965 471.483 30.4619 471.01 30.4668C470.556 30.4766 470.331 30.9014 470.326 31.5312ZM473.988 35.3887C473.983 34.3438 474.53 33.626 475.473 33.6309C476.439 33.626 476.952 34.3438 476.957 35.3887C476.952 36.4336 476.425 37.1465 475.473 37.1465C474.511 37.1465 473.983 36.4287 473.988 35.3887ZM474.789 35.3887C474.794 36.0283 475.019 36.4531 475.473 36.4531C475.932 36.4531 476.146 36.0283 476.146 35.3887C476.146 34.7441 475.946 34.3145 475.473 34.3145C475.023 34.3242 474.794 34.749 474.789 35.3887Z" fill="white"/>
<path d="M259.706 33.1328V33.8848H256.171V34.7246C257.772 34.8125 258.725 35.3496 258.729 36.2676C258.725 37.2588 257.592 37.8154 255.712 37.8105C253.808 37.8154 252.675 37.2588 252.675 36.2676C252.675 35.3496 253.627 34.8076 255.253 34.7246V33.8848H251.728V33.1328H259.706ZM252.147 31.9414C253.72 31.7803 254.96 31.0674 255.087 30.2227H252.46V29.4805H258.993V30.2227H256.337C256.464 31.0723 257.694 31.7803 259.296 31.9414L258.964 32.6738C257.445 32.498 256.19 31.8584 255.717 30.9307C255.233 31.8584 253.988 32.498 252.47 32.6738L252.147 31.9414ZM253.612 36.2676C253.607 36.7998 254.374 37.1074 255.712 37.0977C257.03 37.1074 257.802 36.7998 257.802 36.2676C257.802 35.7256 257.03 35.4326 255.712 35.4277C254.374 35.4326 253.607 35.7256 253.612 36.2676ZM267.46 33.1133V33.8555H264.813V35.9941H268.378V36.7559H260.37V35.9941H263.896V33.8555H261.366V29.7539H267.382V30.5059H262.294V33.1133H267.46ZM271.757 37V36.2188L274.208 33.748C274.984 32.9424 275.37 32.4932 275.37 31.873C275.37 31.1748 274.804 30.7305 274.062 30.7305C273.275 30.7305 272.777 31.2285 272.772 31.9805H271.757C271.747 30.6865 272.733 29.832 274.081 29.832C275.443 29.832 276.386 30.6963 276.396 31.8438C276.386 32.6348 276.015 33.2646 274.687 34.5684L273.251 36.0234V36.082H276.513V37H271.757ZM277.704 37V36.2188L280.155 33.748C280.932 32.9424 281.317 32.4932 281.317 31.873C281.317 31.1748 280.751 30.7305 280.009 30.7305C279.223 30.7305 278.725 31.2285 278.72 31.9805H277.704C277.694 30.6865 278.681 29.832 280.028 29.832C281.391 29.832 282.333 30.6963 282.343 31.8438C282.333 32.6348 281.962 33.2646 280.634 34.5684L279.198 36.0234V36.082H282.46V37H277.704ZM284.345 37.0684C283.964 37.0635 283.646 36.7559 283.651 36.375C283.646 35.9941 283.964 35.6816 284.345 35.6816C284.721 35.6816 285.033 35.9941 285.038 36.375C285.033 36.7559 284.721 37.0635 284.345 37.0684ZM288.544 37.0977C287.079 37.0977 286.039 36.3115 285.995 35.1543H287.089C287.128 35.7744 287.743 36.1699 288.534 36.1699C289.389 36.1699 290.009 35.7061 290.009 35.0176C290.009 34.3193 289.428 33.8213 288.417 33.8164H287.812V32.9375H288.417C289.223 32.9424 289.784 32.4932 289.784 31.8145C289.784 31.1699 289.301 30.7305 288.554 30.7305C287.846 30.7305 287.211 31.126 287.187 31.7656H286.151C286.181 30.6133 287.245 29.832 288.563 29.832C289.955 29.832 290.829 30.7109 290.819 31.7559C290.829 32.5615 290.331 33.1377 289.569 33.3281V33.377C290.536 33.5137 291.098 34.1631 291.093 35.0566C291.098 36.2334 290.009 37.0977 288.544 37.0977ZM293.896 33.2891C292.929 33.2988 292.401 32.5811 292.411 31.5312C292.401 30.4961 292.953 29.7783 293.896 29.7832C294.867 29.7783 295.375 30.4961 295.38 31.5312C295.375 32.5859 294.848 33.2988 293.896 33.2891ZM293.212 37L298.065 29.9297H298.954L294.101 37H293.212ZM293.212 31.5312C293.217 32.1807 293.441 32.6006 293.896 32.6055C294.354 32.6006 294.569 32.1807 294.569 31.5312C294.569 30.8965 294.369 30.4619 293.896 30.4668C293.441 30.4766 293.217 30.9014 293.212 31.5312ZM296.874 35.3887C296.869 34.3438 297.416 33.626 298.358 33.6309C299.325 33.626 299.838 34.3438 299.843 35.3887C299.838 36.4336 299.311 37.1465 298.358 37.1465C297.396 37.1465 296.869 36.4287 296.874 35.3887ZM297.675 35.3887C297.68 36.0283 297.904 36.4531 298.358 36.4531C298.817 36.4531 299.032 36.0283 299.032 35.3887C299.032 34.7441 298.832 34.3145 298.358 34.3145C297.909 34.3242 297.68 34.749 297.675 35.3887Z" fill="white"/>
<path d="M78.7686 29.0898V34.2656H77.8408V33.2012H75.6338V32.4395H77.8408V31.375H75.7266C75.1602 32.7812 73.8467 33.7725 71.9521 34.3145L71.5811 33.5918C73.6514 33.001 74.8623 31.8877 75.0283 30.4766H72.0303V29.7148H76.0342C76.0342 30.0371 76 30.3496 75.9414 30.6426H77.8408V29.0898H78.7686ZM72.9385 36.0723C72.9385 35.0127 74.0908 34.3682 75.8877 34.3633C77.6602 34.3682 78.8223 35.0127 78.8271 36.0723C78.8223 37.1367 77.6602 37.791 75.8877 37.791C74.0908 37.791 72.9385 37.1367 72.9385 36.0723ZM73.8564 36.0723C73.8564 36.6875 74.6377 37.0439 75.8877 37.0488C77.1133 37.0439 77.8945 36.6875 77.8994 36.0723C77.8945 35.4473 77.1133 35.0908 75.8877 35.0957C74.6377 35.0908 73.8564 35.4473 73.8564 36.0723ZM87.2061 33.1133V33.8555H84.5596V35.9941H88.124V36.7559H80.1162V35.9941H83.6416V33.8555H81.1123V29.7539H87.1279V30.5059H82.04V33.1133H87.2061ZM94.0615 37.0977C92.7529 37.0879 91.3857 36.3115 91.3857 33.6992C91.3906 31.2383 92.4551 29.832 94.1494 29.832C95.4531 29.832 96.3564 30.6426 96.5225 31.7656H95.458C95.3164 31.1895 94.8623 30.7744 94.1494 30.7695C93.0557 30.7744 92.4209 31.7217 92.4209 33.3184H92.499C92.8848 32.7178 93.5488 32.3662 94.3154 32.3613C95.5752 32.3662 96.5908 33.333 96.5908 34.6855C96.5908 36.0576 95.5801 37.1074 94.0615 37.0977ZM92.5479 34.7148C92.5527 35.501 93.1826 36.1943 94.0518 36.1992C94.9062 36.1943 95.5459 35.5303 95.5459 34.7051C95.5459 33.8945 94.9307 33.2354 94.0811 33.2402C93.2168 33.2354 92.5576 33.9287 92.5479 34.7148ZM100.136 37.0977C98.7979 37.0977 97.792 36.2822 97.7432 35.1543H98.7881C98.8467 35.7549 99.4229 36.1943 100.136 36.1992C100.995 36.1943 101.61 35.5742 101.61 34.7344C101.61 33.875 100.976 33.25 100.087 33.2402C99.5205 33.2402 99.0859 33.4307 98.8467 33.8652H97.8311L98.29 29.9297H102.294V30.8477H99.1787L98.9443 32.8301H99.0127C99.3057 32.5469 99.8037 32.3564 100.341 32.3516C101.674 32.3564 102.655 33.3428 102.655 34.7051C102.655 36.0967 101.61 37.0977 100.136 37.0977ZM104.237 37.0684C103.856 37.0635 103.539 36.7559 103.544 36.375C103.539 35.9941 103.856 35.6816 104.237 35.6816C104.613 35.6816 104.926 35.9941 104.931 36.375C104.926 36.7559 104.613 37.0635 104.237 37.0684ZM106.024 35.623V34.7539L109.149 29.9297H110.478V34.7148H111.444V35.623H110.478V37H109.462V35.623H106.024ZM107.157 34.7148H109.462V31.209H109.384L107.157 34.6562V34.7148ZM114.149 33.2891C113.183 33.2988 112.655 32.5811 112.665 31.5312C112.655 30.4961 113.207 29.7783 114.149 29.7832C115.121 29.7783 115.629 30.4961 115.634 31.5312C115.629 32.5859 115.102 33.2988 114.149 33.2891ZM113.466 37L118.319 29.9297H119.208L114.354 37H113.466ZM113.466 31.5312C113.471 32.1807 113.695 32.6006 114.149 32.6055C114.608 32.6006 114.823 32.1807 114.823 31.5312C114.823 30.8965 114.623 30.4619 114.149 30.4668C113.695 30.4766 113.471 30.9014 113.466 31.5312ZM117.128 35.3887C117.123 34.3438 117.67 33.626 118.612 33.6309C119.579 33.626 120.092 34.3438 120.097 35.3887C120.092 36.4336 119.564 37.1465 118.612 37.1465C117.65 37.1465 117.123 36.4287 117.128 35.3887ZM117.929 35.3887C117.934 36.0283 118.158 36.4531 118.612 36.4531C119.071 36.4531 119.286 36.0283 119.286 35.3887C119.286 34.7441 119.086 34.3145 118.612 34.3145C118.163 34.3242 117.934 34.749 117.929 35.3887Z" fill="#113287"/>
</g>
<path d="M-1399 -510H1914V-512H-1399V-510ZM1915 -509V1461H1917V-509H1915ZM1914 1462H-1399V1464H1914V1462ZM-1400 1461V-509H-1402V1461H-1400ZM-1399 1462C-1399.55 1462 -1400 1461.55 -1400 1461H-1402C-1402 1462.66 -1400.66 1464 -1399 1464V1462ZM1915 1461C1915 1461.55 1914.55 1462 1914 1462V1464C1915.66 1464 1917 1462.66 1917 1461H1915ZM1914 -510C1914.55 -510 1915 -509.552 1915 -509H1917C1917 -510.657 1915.66 -512 1914 -512V-510ZM-1399 -512C-1400.66 -512 -1402 -510.657 -1402 -509H-1400C-1400 -509.552 -1399.55 -510 -1399 -510V-512Z" fill="black" fill-opacity="0.1"/>
<defs>
<clipPath id="clip0_1814_2379">
<rect width="727" height="90" fill="white"/>
</clipPath>
</defs>
</svg>
