<svg width="727" height="90" viewBox="0 0 727 90" fill="none" xmlns="http://www.w3.org/2000/svg">
<rect width="727" height="90" fill="#727272"/>
<path d="M-1401 -331C-1401 -332.105 -1400.1 -333 -1399 -333H1914C1915.1 -333 1916 -332.105 1916 -331V1639C1916 1640.1 1915.1 1641 1914 1641H-1399C-1400.1 1641 -1401 1640.1 -1401 1639V-331Z" fill="white"/>
<g clip-path="url(#clip0_1814_2379)">
<path d="M21.7091 83.1142H21.0911V86.3765H21.6465C22.6988 86.3765 23.7548 86.31 24.9322 86.0636L24.8618 85.5551C23.7275 85.7898 22.7027 85.8524 21.7091 85.8524V83.1142ZM21.8655 89.412H26.4421V88.8957H22.4758V87.1432H21.8655V89.412ZM25.5816 87.6361H26.1918V85.2109H27.2401V84.6789H26.1918V82.6135H25.5816V87.6361Z" fill="#001A5B"/>
<path d="M32.1609 84.4755V83.2081H31.5507V84.4755C31.5429 85.7937 30.6862 87.1236 29.6497 87.597L30.0408 88.1133C30.8544 87.7026 31.539 86.8225 31.8597 85.7742C32.1922 86.7638 32.8767 87.5892 33.6708 87.9725L34.0463 87.4874C33.0214 87.022 32.157 85.7467 32.1609 84.4755ZM34.8051 89.5763H35.4232V82.6057H34.8051V89.5763Z" fill="#001A5B"/>
<path d="M2.34111 76.8508C3.8153 76.8508 4.67781 75.6626 4.68222 73.5767C4.67781 71.5041 3.8021 70.3027 2.34111 70.3027C0.875718 70.3027 0 71.5041 0 73.5767C0 75.6626 0.866916 76.8508 2.34111 76.8508ZM0.968125 73.5767C0.968125 71.9926 1.48299 71.1257 2.34111 71.1213C3.19483 71.1257 3.71409 71.9926 3.71409 73.5767C3.71409 75.1653 3.19922 76.0147 2.34111 76.0147C1.4786 76.0147 0.963729 75.1653 0.968125 73.5767Z" fill="#001A5B"/>
<path d="M7.84183 76.7628C9.78247 76.7628 10.9002 75.5571 10.9046 73.5679C10.9002 71.5833 9.78247 70.3907 7.90344 70.3907H5.77356V76.7628H7.84183ZM6.74169 75.9178V71.2356H7.84183C9.23241 71.2356 9.94529 72.0674 9.94529 73.5679C9.94529 75.073 9.23241 75.9134 7.78903 75.9178H6.74169Z" fill="#001A5B"/>
<path d="M183.552 70.3907H182.602L181.018 71.4293V72.3533L182.541 71.3589H182.576V76.7628H183.552V70.3907Z" fill="#001A5B"/>
<path d="M187.328 76.7628C189.269 76.7628 190.387 75.5571 190.392 73.5679C190.387 71.5833 189.269 70.3907 187.39 70.3907H185.26V76.7628H187.328ZM186.228 75.9178V71.2356H187.328C188.719 71.2356 189.432 72.0674 189.432 73.5679C189.432 75.073 188.719 75.9134 187.275 75.9178H186.228Z" fill="#001A5B"/>
<path d="M360.72 76.7628H365.007V75.9355H362.067V75.8827L363.36 74.5713C364.557 73.3963 364.891 72.8286 364.9 72.1157C364.891 71.0816 364.042 70.3027 362.815 70.3027C361.6 70.3027 360.712 71.0728 360.72 72.239H361.635C361.64 71.5613 362.089 71.1124 362.798 71.1124C363.466 71.1124 363.976 71.5129 363.976 72.1422C363.976 72.701 363.629 73.1059 362.929 73.832L360.72 76.0586V76.7628Z" fill="#001A5B"/>
<path d="M368.236 76.7628C370.177 76.7628 371.294 75.5571 371.299 73.5679C371.294 71.5833 370.177 70.3907 368.298 70.3907H366.168V76.7628H368.236ZM367.137 75.9178V71.2356H368.236C369.627 71.2356 370.34 72.0674 370.34 73.5679C370.34 75.073 369.627 75.9134 368.183 75.9178H367.137Z" fill="#001A5B"/>
<path d="M543.097 76.8508C544.418 76.8508 545.4 76.0719 545.395 75.0113C545.4 74.206 544.893 73.6208 544.022 73.4975V73.4536C544.709 73.2819 545.157 72.7626 545.148 72.0365C545.157 71.0948 544.369 70.3027 543.115 70.3027C541.927 70.3027 540.968 71.0068 540.942 72.0453H541.875C541.897 71.4688 542.469 71.1124 543.107 71.1124C543.779 71.1124 544.215 71.5085 544.215 72.0894C544.215 72.701 543.709 73.1059 542.983 73.1015H542.438V73.8936H542.983C543.895 73.898 544.418 74.3469 544.418 74.9762C544.418 75.5966 543.859 76.0147 543.088 76.0147C542.376 76.0147 541.822 75.6582 541.787 75.0993H540.8C540.84 76.1423 541.778 76.8508 543.097 76.8508Z" fill="#001A5B"/>
<path d="M548.616 76.7628C550.557 76.7628 551.674 75.5571 551.679 73.5679C551.674 71.5833 550.557 70.3907 548.678 70.3907H546.548V76.7628H548.616ZM547.515 75.9178V71.2356H548.616C550.007 71.2356 550.72 72.0674 550.72 73.5679C550.72 75.073 550.007 75.9134 548.563 75.9178H547.515Z" fill="#001A5B"/>
<path fill-rule="evenodd" clip-rule="evenodd" d="M95.0756 49.2317V15.669H96.0769V49.2317H95.0756Z" fill="#979797"/>
<path fill-rule="evenodd" clip-rule="evenodd" d="M275.323 49.2317V15.669H276.325V49.2317H275.323Z" fill="#979797"/>
<path fill-rule="evenodd" clip-rule="evenodd" d="M455.571 49.2317V15.669H456.572V49.2317H455.571Z" fill="#979797"/>
<path fill-rule="evenodd" clip-rule="evenodd" d="M635.819 49.2317V15.669H636.82V49.2317H635.819Z" fill="#979797"/>
<path fill-rule="evenodd" clip-rule="evenodd" d="M456.572 37.7091V16.6802H455.571V37.7091H456.572Z" fill="#979797"/>
<path fill-rule="evenodd" clip-rule="evenodd" d="M636.82 37.7091V16.6802H635.819V37.7091H636.82Z" fill="#979797"/>
<path d="M719.434 20.6857H546.196V44.7187H719.434V20.6857Z" fill="#001A5B"/>
<path d="M546.196 20.6857H365.948V44.7187H546.196V20.6857Z" fill="#113287"/>
<path d="M365.948 20.6857H185.7V44.7187H365.948V20.6857Z" fill="#5B6EB4"/>
<path d="M185.7 20.6857H5.45227V44.7187H185.7V20.6857Z" fill="#E2E6F6"/>
<path fill-rule="evenodd" clip-rule="evenodd" d="M4.45093 64.7463V0.658142H6.45368V64.7463H4.45093Z" fill="#113287"/>
<path fill-rule="evenodd" clip-rule="evenodd" d="M185.199 64.4939V0.405823H186.201V64.4939H185.199Z" fill="#979797"/>
<path fill-rule="evenodd" clip-rule="evenodd" d="M365.447 64.4939V0.405823H366.449V64.4939H365.447Z" fill="#979797"/>
<path fill-rule="evenodd" clip-rule="evenodd" d="M545.695 64.4939V0.405823H546.696V64.4939H545.695Z" fill="#979797"/>
<path fill-rule="evenodd" clip-rule="evenodd" d="M36.6669 70.719L39.8533 73.9054C40.0487 74.1009 40.0487 74.4179 39.8533 74.6134L36.6669 77.7998C36.4713 77.9953 36.1543 77.9953 35.9588 77.7998C35.7632 77.6043 35.7632 77.2872 35.9588 77.0918L38.2904 74.7601H20.473V73.7588H38.2904L35.9588 71.4271C35.7632 71.2316 35.7632 70.9146 35.9588 70.719C36.1543 70.5235 36.4713 70.5235 36.6669 70.719Z" fill="#113287"/>
<path d="M719.889 20.6857H691.042V44.7187H719.889L727.445 32.7022L719.889 20.6857Z" fill="#001A5B"/>
<path d="M615.83 35.9941V36.7559H607.822V35.9941H611.357V34.0898H612.275V35.9941H615.83ZM608.213 33.6699C610.01 33.4062 611.304 32.3906 611.348 31.1602H608.545V30.4082H611.357V29.2363H612.275V30.4082H615.088V31.1602H612.285C612.329 32.3906 613.623 33.4062 615.42 33.6699L615.068 34.3926C613.604 34.1631 612.383 33.4697 611.812 32.4492C611.245 33.4697 610.029 34.1631 608.564 34.3926L608.213 33.6699ZM623.545 29.9199V30.7793C623.54 31.8584 623.54 33.0693 623.213 34.8613L622.275 34.7637C622.612 33.0693 622.612 31.8291 622.617 30.7793V30.6719H617.305V29.9199H623.545ZM616.465 36.6484V35.877H619.502V32.791H620.42V35.877H624.443V36.6484H616.465ZM632.197 33.1133V33.8555H629.551V35.9941H633.115V36.7559H625.107V35.9941H628.633V33.8555H626.104V29.7539H632.119V30.5059H627.031V33.1133H632.197ZM639.18 29.9297V37H638.096V31.0039H638.057L636.367 32.1074V31.082L638.125 29.9297H639.18ZM641.27 37.0684C640.889 37.0635 640.571 36.7559 640.576 36.375C640.571 35.9941 640.889 35.6816 641.27 35.6816C641.646 35.6816 641.958 35.9941 641.963 36.375C641.958 36.7559 641.646 37.0635 641.27 37.0684ZM645.508 37.0977C644.199 37.0879 642.832 36.3115 642.832 33.6992C642.837 31.2383 643.901 29.832 645.596 29.832C646.899 29.832 647.803 30.6426 647.969 31.7656H646.904C646.763 31.1895 646.309 30.7744 645.596 30.7695C644.502 30.7744 643.867 31.7217 643.867 33.3184H643.945C644.331 32.7178 644.995 32.3662 645.762 32.3613C647.021 32.3662 648.037 33.333 648.037 34.6855C648.037 36.0576 647.026 37.1074 645.508 37.0977ZM643.994 34.7148C643.999 35.501 644.629 36.1943 645.498 36.1992C646.353 36.1943 646.992 35.5303 646.992 34.7051C646.992 33.8945 646.377 33.2354 645.527 33.2402C644.663 33.2354 644.004 33.9287 643.994 34.7148ZM650.801 33.2891C649.834 33.2988 649.307 32.5811 649.316 31.5312C649.307 30.4961 649.858 29.7783 650.801 29.7832C651.772 29.7783 652.28 30.4961 652.285 31.5312C652.28 32.5859 651.753 33.2988 650.801 33.2891ZM650.117 37L654.971 29.9297H655.859L651.006 37H650.117ZM650.117 31.5312C650.122 32.1807 650.347 32.6006 650.801 32.6055C651.26 32.6006 651.475 32.1807 651.475 31.5312C651.475 30.8965 651.274 30.4619 650.801 30.4668C650.347 30.4766 650.122 30.9014 650.117 31.5312ZM653.779 35.3887C653.774 34.3438 654.321 33.626 655.264 33.6309C656.23 33.626 656.743 34.3438 656.748 35.3887C656.743 36.4336 656.216 37.1465 655.264 37.1465C654.302 37.1465 653.774 36.4287 653.779 35.3887ZM654.58 35.3887C654.585 36.0283 654.81 36.4531 655.264 36.4531C655.723 36.4531 655.938 36.0283 655.938 35.3887C655.938 34.7441 655.737 34.3145 655.264 34.3145C654.814 34.3242 654.585 34.749 654.58 35.3887Z" fill="white"/>
<path d="M443.002 29.9199V30.7793C442.997 31.8584 442.997 33.0693 442.67 34.8613L441.732 34.7637C442.069 33.0693 442.069 31.8291 442.074 30.7793V30.6719H436.762V29.9199H443.002ZM435.922 36.6484V35.877H438.959V32.791H439.877V35.877H443.9V36.6484H435.922ZM451.654 33.1133V33.8555H449.008V35.9941H452.572V36.7559H444.564V35.9941H448.09V33.8555H445.561V29.7539H451.576V30.5059H446.488V33.1133H451.654ZM458.637 29.9297V37H457.553V31.0039H457.514L455.824 32.1074V31.082L457.582 29.9297H458.637ZM460.727 37.0684C460.346 37.0635 460.028 36.7559 460.033 36.375C460.028 35.9941 460.346 35.6816 460.727 35.6816C461.103 35.6816 461.415 35.9941 461.42 36.375C461.415 36.7559 461.103 37.0635 460.727 37.0684ZM462.729 37L465.883 30.9062V30.8477H462.24V29.9297H466.996V30.8867L463.852 37H462.729ZM469.701 33.2891C468.734 33.2988 468.207 32.5811 468.217 31.5312C468.207 30.4961 468.759 29.7783 469.701 29.7832C470.673 29.7783 471.181 30.4961 471.186 31.5312C471.181 32.5859 470.653 33.2988 469.701 33.2891ZM469.018 37L473.871 29.9297H474.76L469.906 37H469.018ZM469.018 31.5312C469.022 32.1807 469.247 32.6006 469.701 32.6055C470.16 32.6006 470.375 32.1807 470.375 31.5312C470.375 30.8965 470.175 30.4619 469.701 30.4668C469.247 30.4766 469.022 30.9014 469.018 31.5312ZM472.68 35.3887C472.675 34.3438 473.222 33.626 474.164 33.6309C475.131 33.626 475.644 34.3438 475.648 35.3887C475.644 36.4336 475.116 37.1465 474.164 37.1465C473.202 37.1465 472.675 36.4287 472.68 35.3887ZM473.48 35.3887C473.485 36.0283 473.71 36.4531 474.164 36.4531C474.623 36.4531 474.838 36.0283 474.838 35.3887C474.838 34.7441 474.638 34.3145 474.164 34.3145C473.715 34.3242 473.485 34.749 473.48 35.3887Z" fill="white"/>
<path d="M260.424 33.1328V33.8848H256.889V34.7246C258.49 34.8125 259.442 35.3496 259.447 36.2676C259.442 37.2588 258.31 37.8154 256.43 37.8105C254.525 37.8154 253.393 37.2588 253.393 36.2676C253.393 35.3496 254.345 34.8076 255.971 34.7246V33.8848H252.445V33.1328H260.424ZM252.865 31.9414C254.438 31.7803 255.678 31.0674 255.805 30.2227H253.178V29.4805H259.711V30.2227H257.055C257.182 31.0723 258.412 31.7803 260.014 31.9414L259.682 32.6738C258.163 32.498 256.908 31.8584 256.435 30.9307C255.951 31.8584 254.706 32.498 253.188 32.6738L252.865 31.9414ZM254.33 36.2676C254.325 36.7998 255.092 37.1074 256.43 37.0977C257.748 37.1074 258.52 36.7998 258.52 36.2676C258.52 35.7256 257.748 35.4326 256.43 35.4277C255.092 35.4326 254.325 35.7256 254.33 36.2676ZM268.178 33.1133V33.8555H265.531V35.9941H269.096V36.7559H261.088V35.9941H264.613V33.8555H262.084V29.7539H268.1V30.5059H263.012V33.1133H268.178ZM275.16 29.9297V37H274.076V31.0039H274.037L272.348 32.1074V31.082L274.105 29.9297H275.16ZM279.467 37.0977C278.002 37.0977 276.962 36.3115 276.918 35.1543H278.012C278.051 35.7744 278.666 36.1699 279.457 36.1699C280.312 36.1699 280.932 35.7061 280.932 35.0176C280.932 34.3193 280.351 33.8213 279.34 33.8164H278.734V32.9375H279.34C280.146 32.9424 280.707 32.4932 280.707 31.8145C280.707 31.1699 280.224 30.7305 279.477 30.7305C278.769 30.7305 278.134 31.126 278.109 31.7656H277.074C277.104 30.6133 278.168 29.832 279.486 29.832C280.878 29.832 281.752 30.7109 281.742 31.7559C281.752 32.5615 281.254 33.1377 280.492 33.3281V33.377C281.459 33.5137 282.021 34.1631 282.016 35.0566C282.021 36.2334 280.932 37.0977 279.467 37.0977ZM283.676 37.0684C283.295 37.0635 282.978 36.7559 282.982 36.375C282.978 35.9941 283.295 35.6816 283.676 35.6816C284.052 35.6816 284.364 35.9941 284.369 36.375C284.364 36.7559 284.052 37.0635 283.676 37.0684ZM287.846 37.0977C286.308 37.0977 285.238 36.2676 285.248 35.1152C285.238 34.207 285.888 33.4648 286.723 33.3379V33.2988C285.995 33.1328 285.512 32.4883 285.512 31.7168C285.512 30.6279 286.493 29.832 287.846 29.832C289.179 29.832 290.165 30.6279 290.17 31.7168C290.165 32.4883 289.672 33.1328 288.959 33.2988V33.3379C289.784 33.4648 290.438 34.207 290.443 35.1152C290.438 36.2676 289.359 37.0977 287.846 37.0977ZM286.342 35.0371C286.327 35.7305 286.913 36.209 287.846 36.209C288.764 36.209 289.35 35.7305 289.35 35.0371C289.35 34.3096 288.715 33.7773 287.846 33.7773C286.967 33.7773 286.327 34.3096 286.342 35.0371ZM286.557 31.8145C286.562 32.4736 287.089 32.9326 287.846 32.9277C288.583 32.9326 289.12 32.4785 289.115 31.8145C289.12 31.1553 288.603 30.7061 287.846 30.7109C287.069 30.7061 286.562 31.1553 286.557 31.8145ZM293.178 33.2891C292.211 33.2988 291.684 32.5811 291.693 31.5312C291.684 30.4961 292.235 29.7783 293.178 29.7832C294.149 29.7783 294.657 30.4961 294.662 31.5312C294.657 32.5859 294.13 33.2988 293.178 33.2891ZM292.494 37L297.348 29.9297H298.236L293.383 37H292.494ZM292.494 31.5312C292.499 32.1807 292.724 32.6006 293.178 32.6055C293.637 32.6006 293.852 32.1807 293.852 31.5312C293.852 30.8965 293.651 30.4619 293.178 30.4668C292.724 30.4766 292.499 30.9014 292.494 31.5312ZM296.156 35.3887C296.151 34.3438 296.698 33.626 297.641 33.6309C298.607 33.626 299.12 34.3438 299.125 35.3887C299.12 36.4336 298.593 37.1465 297.641 37.1465C296.679 37.1465 296.151 36.4287 296.156 35.3887ZM296.957 35.3887C296.962 36.0283 297.187 36.4531 297.641 36.4531C298.1 36.4531 298.314 36.0283 298.314 35.3887C298.314 34.7441 298.114 34.3145 297.641 34.3145C297.191 34.3242 296.962 34.749 296.957 35.3887Z" fill="white"/>
<path d="M78.9297 29.0898V34.2656H78.002V33.2012H75.7949V32.4395H78.002V31.375H75.8877C75.3213 32.7812 74.0078 33.7725 72.1133 34.3145L71.7422 33.5918C73.8125 33.001 75.0234 31.8877 75.1895 30.4766H72.1914V29.7148H76.1953C76.1953 30.0371 76.1611 30.3496 76.1025 30.6426H78.002V29.0898H78.9297ZM73.0996 36.0723C73.0996 35.0127 74.252 34.3682 76.0488 34.3633C77.8213 34.3682 78.9834 35.0127 78.9883 36.0723C78.9834 37.1367 77.8213 37.791 76.0488 37.791C74.252 37.791 73.0996 37.1367 73.0996 36.0723ZM74.0176 36.0723C74.0176 36.6875 74.7988 37.0439 76.0488 37.0488C77.2744 37.0439 78.0557 36.6875 78.0605 36.0723C78.0557 35.4473 77.2744 35.0908 76.0488 35.0957C74.7988 35.0908 74.0176 35.4473 74.0176 36.0723ZM87.3672 33.1133V33.8555H84.7207V35.9941H88.2852V36.7559H80.2773V35.9941H83.8027V33.8555H81.2734V29.7539H87.2891V30.5059H82.2012V33.1133H87.3672ZM94.1348 37.0977C92.5967 37.0977 91.5273 36.2676 91.5371 35.1152C91.5273 34.207 92.1768 33.4648 93.0117 33.3379V33.2988C92.2842 33.1328 91.8008 32.4883 91.8008 31.7168C91.8008 30.6279 92.7822 29.832 94.1348 29.832C95.4678 29.832 96.4541 30.6279 96.459 31.7168C96.4541 32.4883 95.9609 33.1328 95.248 33.2988V33.3379C96.0732 33.4648 96.7275 34.207 96.7324 35.1152C96.7275 36.2676 95.6484 37.0977 94.1348 37.0977ZM92.6309 35.0371C92.6162 35.7305 93.2021 36.209 94.1348 36.209C95.0527 36.209 95.6387 35.7305 95.6387 35.0371C95.6387 34.3096 95.0039 33.7773 94.1348 33.7773C93.2559 33.7773 92.6162 34.3096 92.6309 35.0371ZM92.8457 31.8145C92.8506 32.4736 93.3779 32.9326 94.1348 32.9277C94.8721 32.9326 95.4092 32.4785 95.4043 31.8145C95.4092 31.1553 94.8916 30.7061 94.1348 30.7109C93.3584 30.7061 92.8506 31.1553 92.8457 31.8145ZM97.8457 37V36.2188L100.297 33.748C101.073 32.9424 101.459 32.4932 101.459 31.873C101.459 31.1748 100.893 30.7305 100.15 30.7305C99.3643 30.7305 98.8662 31.2285 98.8613 31.9805H97.8457C97.8359 30.6865 98.8223 29.832 100.17 29.832C101.532 29.832 102.475 30.6963 102.484 31.8438C102.475 32.6348 102.104 33.2646 100.775 34.5684L99.3398 36.0234V36.082H102.602V37H97.8457ZM104.486 37.0684C104.105 37.0635 103.788 36.7559 103.793 36.375C103.788 35.9941 104.105 35.6816 104.486 35.6816C104.862 35.6816 105.175 35.9941 105.18 36.375C105.175 36.7559 104.862 37.0635 104.486 37.0684ZM108.656 37.0977C107.118 37.0977 106.049 36.2676 106.059 35.1152C106.049 34.207 106.698 33.4648 107.533 33.3379V33.2988C106.806 33.1328 106.322 32.4883 106.322 31.7168C106.322 30.6279 107.304 29.832 108.656 29.832C109.989 29.832 110.976 30.6279 110.98 31.7168C110.976 32.4883 110.482 33.1328 109.77 33.2988V33.3379C110.595 33.4648 111.249 34.207 111.254 35.1152C111.249 36.2676 110.17 37.0977 108.656 37.0977ZM107.152 35.0371C107.138 35.7305 107.724 36.209 108.656 36.209C109.574 36.209 110.16 35.7305 110.16 35.0371C110.16 34.3096 109.525 33.7773 108.656 33.7773C107.777 33.7773 107.138 34.3096 107.152 35.0371ZM107.367 31.8145C107.372 32.4736 107.899 32.9326 108.656 32.9277C109.394 32.9326 109.931 32.4785 109.926 31.8145C109.931 31.1553 109.413 30.7061 108.656 30.7109C107.88 30.7061 107.372 31.1553 107.367 31.8145ZM113.988 33.2891C113.021 33.2988 112.494 32.5811 112.504 31.5312C112.494 30.4961 113.046 29.7783 113.988 29.7832C114.96 29.7783 115.468 30.4961 115.473 31.5312C115.468 32.5859 114.94 33.2988 113.988 33.2891ZM113.305 37L118.158 29.9297H119.047L114.193 37H113.305ZM113.305 31.5312C113.31 32.1807 113.534 32.6006 113.988 32.6055C114.447 32.6006 114.662 32.1807 114.662 31.5312C114.662 30.8965 114.462 30.4619 113.988 30.4668C113.534 30.4766 113.31 30.9014 113.305 31.5312ZM116.967 35.3887C116.962 34.3438 117.509 33.626 118.451 33.6309C119.418 33.626 119.931 34.3438 119.936 35.3887C119.931 36.4336 119.403 37.1465 118.451 37.1465C117.489 37.1465 116.962 36.4287 116.967 35.3887ZM117.768 35.3887C117.772 36.0283 117.997 36.4531 118.451 36.4531C118.91 36.4531 119.125 36.0283 119.125 35.3887C119.125 34.7441 118.925 34.3145 118.451 34.3145C118.002 34.3242 117.772 34.749 117.768 35.3887Z" fill="#113287"/>
</g>
<path d="M-1399 -332H1914V-334H-1399V-332ZM1915 -331V1639H1917V-331H1915ZM1914 1640H-1399V1642H1914V1640ZM-1400 1639V-331H-1402V1639H-1400ZM-1399 1640C-1399.55 1640 -1400 1639.55 -1400 1639H-1402C-1402 1640.66 -1400.66 1642 -1399 1642V1640ZM1915 1639C1915 1639.55 1914.55 1640 1914 1640V1642C1915.66 1642 1917 1640.66 1917 1639H1915ZM1914 -332C1914.55 -332 1915 -331.552 1915 -331H1917C1917 -332.657 1915.66 -334 1914 -334V-332ZM-1399 -334C-1400.66 -334 -1402 -332.657 -1402 -331H-1400C-1400 -331.552 -1399.55 -332 -1399 -332V-334Z" fill="black" fill-opacity="0.1"/>
<defs>
<clipPath id="clip0_1814_2379">
<rect width="727" height="90" fill="white"/>
</clipPath>
</defs>
</svg>
