<?xml version="1.0" encoding="UTF-8"?>
<svg width="727px" height="90px" viewBox="0 0 727 90" version="1.1" xmlns="http://www.w3.org/2000/svg" xmlns:xlink="http://www.w3.org/1999/xlink">
    <title>astigmatism</title>
    <g id="astigmatism" stroke="none" stroke-width="1" fill="none" fill-rule="evenodd">
        <g id="Group" transform="translate(0.000000, -0.000000)">
            <g id="AGE_40_49" transform="translate(0.000000, 0.402898)">
                <path d="M21.7090669,82.7084202 L21.0910173,82.7084202 L21.0910173,85.9707048 L21.6464809,85.9707048 C22.6987274,85.9707048 23.7547791,85.9042133 24.9321977,85.6577746 L24.8618009,85.1492756 C23.7274415,85.3839982 22.7026327,85.4465843 21.7090669,85.4465843 L21.7090669,82.7084202 Z M21.8654819,89.0061775 L26.4420732,89.0061775 L26.4420732,88.4897676 L22.4757208,88.4897676 L22.4757208,86.7373587 L21.8654819,86.7373587 L21.8654819,89.0061775 Z M25.5815904,87.2302362 L26.1917291,87.2302362 L26.1917291,84.8051024 L27.2400702,84.8051024 L27.2400702,84.2730711 L26.1917291,84.2730711 L26.1917291,82.2077319 L25.5815904,82.2077319 L25.5815904,87.2302362 Z" id="Shape" fill="#001A5B" fill-rule="nonzero"></path>
                <path d="M32.1609348,84.0696915 L32.1609348,82.8023493 L31.5506959,82.8023493 L31.5506959,84.0696915 C31.5428852,85.3879036 30.6862076,86.7178318 29.6496827,87.1911825 L30.0408204,87.7074923 C30.8544388,87.2967276 31.5389798,86.4166177 31.8597208,85.3683767 C32.1921778,86.3579371 32.8767188,87.1833718 33.6708104,87.5666987 L34.0463266,87.0816319 C33.0214177,86.616092 32.1570295,85.340939 32.1609348,84.0696915 Z M34.8051698,89.1704033 L35.4232194,89.1704033 L35.4232194,82.1999212 L34.8051698,82.1999212 L34.8051698,89.1704033 Z" id="Shape" fill="#001A5B" fill-rule="nonzero"></path>
                <path d="M2.34111227,76.4449099 C3.81529879,76.4449099 4.67781447,75.2567766 4.68222053,73.1709092 C4.67781447,71.09826 3.80210065,69.8969085 2.34111227,69.8969085 C0.875717827,69.8969085 -1.73433206e-14,71.09826 -1.73433206e-14,73.1709092 C-1.73433206e-14,75.2567766 0.866915727,76.4449099 2.34111227,76.4449099 Z M0.968124857,73.1709092 C0.968124857,71.5867315 1.48299263,70.7197396 2.34111227,70.7153336 C3.19482585,70.7197396 3.71408967,71.5867315 3.71408967,73.1709092 C3.71408967,74.759493 3.19922189,75.6088606 2.34111227,75.6088606 C1.47859659,75.6088606 0.963728814,74.759493 0.968124857,73.1709092 Z" id="Shape" fill="#001A5B" fill-rule="nonzero"></path>
                <path d="M7.84183397,76.3568889 C9.78247172,76.3568889 10.9002082,75.1511314 10.9046143,73.1620971 C10.9002082,71.1774689 9.78247172,69.9848294 7.90343866,69.9848294 L5.77356077,69.9848294 L5.77356077,76.3568889 L7.84183397,76.3568889 Z M6.74169163,75.5120275 L6.74169163,70.8297909 L7.84183397,70.8297909 C9.23241557,70.8297909 9.94529555,71.6615343 9.94529555,73.1620971 C9.94529555,74.6670659 9.23241557,75.5076214 7.78903138,75.5120275 L6.74169163,75.5120275 Z" id="Shape" fill="#001A5B" fill-rule="nonzero"></path>
                <polygon id="Path" fill="#001A5B" fill-rule="nonzero" points="183.552148 69.9848294 182.601842 69.9848294 181.017664 71.0234572 181.017664 71.9475274 182.540758 70.9529602 182.575806 70.9529602 182.575806 76.3568889 183.552148 76.3568889"></polygon>
                <path d="M187.32834,76.3568889 C189.269007,76.3568889 190.386544,75.1511314 190.39155,73.1620971 C190.386544,71.1774689 189.269007,69.9848294 187.390425,69.9848294 L185.260497,69.9848294 L185.260497,76.3568889 L187.32834,76.3568889 Z M186.227827,75.5120275 L186.227827,70.8297909 L187.32834,70.8297909 C188.719252,70.8297909 189.432232,71.6615343 189.432232,73.1620971 C189.432232,74.6670659 188.719252,75.5076214 187.275267,75.5120275 L186.227827,75.5120275 Z" id="Shape" fill="#001A5B" fill-rule="nonzero"></path>
                <path d="M360.719696,76.3568889 L365.006589,76.3568889 L365.006589,75.5296517 L362.066548,75.5296517 L362.066548,75.476779 L363.360326,74.1654764 C364.556971,72.9904611 364.891431,72.4227808 364.900443,71.7099008 C364.891431,70.6757792 364.042264,69.8969085 362.814576,69.8969085 C361.599906,69.8969085 360.711685,70.6669671 360.719696,71.8331702 L361.634954,71.8331702 C361.639961,71.1554386 362.088578,70.7066216 362.797553,70.7066216 C363.466472,70.7066216 363.976173,71.1070721 363.976173,71.7363371 C363.976173,72.2952054 363.628695,72.7000619 362.928733,73.4261601 L360.719696,75.652821 L360.719696,76.3568889 Z" id="Path" fill="#001A5B" fill-rule="nonzero"></path>
                <path d="M368.236029,76.3568889 C370.176697,76.3568889 371.294233,75.1511314 371.29924,73.1620971 C371.294233,71.1774689 370.176697,69.9848294 368.298114,69.9848294 L366.168186,69.9848294 L366.168186,76.3568889 L368.236029,76.3568889 Z M367.136517,75.5120275 L367.136517,70.8297909 L368.236029,70.8297909 C369.626941,70.8297909 370.339921,71.6615343 370.339921,73.1620971 C370.339921,74.6670659 369.626941,75.5076214 368.182956,75.5120275 L367.136517,75.5120275 Z" id="Shape" fill="#001A5B" fill-rule="nonzero"></path>
                <path d="M543.097406,76.4449099 C544.418222,76.4449099 545.399571,75.6660392 545.394601,74.6054813 C545.399571,73.8001742 544.892874,73.2148696 544.021677,73.0917003 L544.021677,73.0476397 C544.708621,72.8761039 545.157238,72.35679 545.148225,71.6306919 C545.157238,70.6889974 544.369155,69.8969085 543.115431,69.8969085 C541.926797,69.8969085 540.967478,70.6009764 540.941443,71.639504 L541.874725,71.639504 C541.896756,71.0630115 542.468542,70.7066216 543.106419,70.7066216 C543.779344,70.7066216 544.214943,71.102666 544.214943,71.6834644 C544.214943,72.2952054 543.709247,72.7000619 542.983249,72.6956559 L542.437499,72.6956559 L542.437499,73.4877447 L542.983249,73.4877447 C543.894502,73.4921508 544.418222,73.9409678 544.418222,74.570333 C544.418222,75.1907859 543.859454,75.6088606 543.088394,75.6088606 C542.376415,75.6088606 541.821653,75.2523705 541.786604,74.6935023 L540.800248,74.6935023 C540.840303,75.736436 541.777592,76.4449099 543.097406,76.4449099 Z" id="Path" fill="#001A5B" fill-rule="nonzero"></path>
                <path d="M548.615993,76.3568889 C550.55666,76.3568889 551.674197,75.1511314 551.679203,73.1620971 C551.674197,71.1774689 550.55666,69.9848294 548.678078,69.9848294 L546.54815,69.9848294 L546.54815,76.3568889 L548.615993,76.3568889 Z M547.51548,75.5120275 L547.51548,70.8297909 L548.615993,70.8297909 C550.006905,70.8297909 550.719885,71.6615343 550.719885,73.1620971 C550.719885,74.6670659 550.006905,75.5076214 548.56292,75.5120275 L547.51548,75.5120275 Z" id="Shape" fill="#001A5B" fill-rule="nonzero"></path>
                <polygon id="Path" fill="#979797" points="95.0755219 48.8259428 95.0755219 15.2632049 96.0768985 15.2632049 96.0768985 48.8259428"></polygon>
                <polygon id="Path" fill="#979797" points="275.323304 48.8259428 275.323304 15.2632049 276.324681 15.2632049 276.324681 48.8259428"></polygon>
                <polygon id="Path" fill="#979797" points="455.571086 48.8259428 455.571086 15.2632049 456.572463 15.2632049 456.572463 48.8259428"></polygon>
                <polygon id="Path" fill="#979797" points="635.818868 48.8259428 635.818868 15.2632049 636.820245 15.2632049 636.820245 48.8259428"></polygon>
                <polygon id="Path" fill="#979797" points="456.572463 37.3032028 456.572463 16.2742949 455.571086 16.2742949 455.571086 37.3032028"></polygon>
                <polygon id="Path" fill="#979797" points="636.820245 37.3032028 636.820245 16.2742949 635.818868 16.2742949 635.818868 37.3032028"></polygon>
                <rect id="Rectangle" fill="#001A5B" fill-rule="nonzero" x="546.195665" y="20.2798011" width="173.238146" height="24.0330376"></rect>
                <path d="M616.347101,35.1029782 L612.787207,35.1029782 L612.787207,33.1960568 L611.867943,33.1960568 L611.867943,35.1029782 L608.328077,35.1029782 L608.328077,35.8657267 L616.347101,35.8657267 L616.347101,35.1029782 Z M608.719615,32.7754786 L609.071099,33.4991735 C610.538115,33.2693575 611.755789,32.575003 612.322568,31.5530982 C612.894354,32.575003 614.117035,33.2693575 615.584052,33.4991735 L615.936536,32.7754786 C614.137063,32.5115158 612.841281,31.4944176 612.797221,30.2623239 L615.603078,30.2623239 L615.603078,29.5092887 L612.787207,29.5092887 L612.787207,28.3358756 L611.867943,28.3358756 L611.867943,29.5092887 L609.052072,29.5092887 L609.052072,30.2623239 L611.85793,30.2623239 C611.813869,31.4944176 610.518088,32.5115158 608.719615,32.7754786 Z" id="Shape" fill="#FFFFFF" fill-rule="nonzero"></path>
                <path d="M624.072721,29.0203165 L617.82313,29.0203165 L617.82313,29.7733517 L623.143444,29.7733517 L623.143444,29.8808995 C623.138437,30.9321446 623.138437,32.174152 622.800973,33.8707843 L623.740264,33.9686188 C624.067714,32.174152 624.067714,30.961485 624.072721,29.8808995 L624.072721,29.0203165 Z M616.981974,35.7581789 L624.971957,35.7581789 L624.971957,34.9856168 L620.943419,34.9856168 L620.943419,31.8953688 L620.024156,31.8953688 L620.024156,34.9856168 L616.981974,34.9856168 L616.981974,35.7581789 Z" id="Shape" fill="#FFFFFF" fill-rule="nonzero"></path>
                <polygon id="Path" fill="#FFFFFF" fill-rule="nonzero" points="632.736631 32.2181124 627.56352 32.2181124 627.56352 29.6071232 632.658524 29.6071232 632.658524 28.854088 626.634242 28.854088 626.634242 32.9613341 629.166724 32.9613341 629.166724 35.1029782 625.636871 35.1029782 625.636871 35.8657267 633.655895 35.8657267 633.655895 35.1029782 630.085987 35.1029782 630.085987 32.9613341 632.736631 32.9613341"></polygon>
                <polygon id="Path" fill="#FFFFFF" fill-rule="nonzero" points="639.728242 29.03013 638.672791 29.03013 636.912371 30.1841163 636.912371 31.2108277 638.603696 30.1058087 638.64275 30.1058087 638.64275 36.1101627 639.728242 36.1101627"></polygon>
                <path d="M641.821119,36.1786569 C642.197637,36.1737501 642.511068,35.8657267 642.516075,35.4843024 C642.511068,35.1029782 642.197637,34.790048 641.821119,34.790048 C641.439595,34.790048 641.122158,35.1029782 641.127165,35.4843024 C641.122158,35.8657267 641.439595,36.1737501 641.821119,36.1786569 Z" id="Path" fill="#FFFFFF" fill-rule="nonzero"></path>
                <path d="M643.767795,36.1101627 L648.529341,36.1101627 L648.529341,35.1909992 L645.263852,35.1909992 L645.263852,35.1323185 L646.700827,33.6752155 C648.030655,32.3697208 648.402166,31.7389537 648.41218,30.9468649 C648.402166,29.7977853 647.458869,28.9323956 646.094994,28.9323956 C644.745139,28.9323956 643.757782,29.7879718 643.767795,31.083753 L644.784193,31.083753 C644.789199,30.3307179 645.287885,29.8320323 646.074967,29.8320323 C646.817988,29.8320323 647.385769,30.2769439 647.385769,30.9762052 C647.385769,31.5971588 646.999237,32.0469772 646.222169,32.8537863 L643.767795,35.3278874 L643.767795,36.1101627 Z" id="Path" fill="#FFFFFF" fill-rule="nonzero"></path>
                <path d="M651.346213,32.3941544 C652.299524,32.4039679 652.827249,31.6900866 652.832256,30.6339347 C652.827249,29.5973097 652.319551,28.8785216 651.346213,28.8834034 C650.401915,28.8785216 649.850157,29.5973097 649.859169,30.6339347 C649.850157,31.6851798 650.377882,32.4039679 651.346213,32.3941544 Z M650.661272,36.1101627 L651.551495,36.1101627 L656.411176,29.03013 L655.521953,29.03013 L650.661272,36.1101627 Z M650.661272,30.6339347 C650.666278,30.0031676 650.891588,29.5777828 651.346213,29.5679693 C651.819864,29.5630626 652.021141,29.9982609 652.021141,30.6339347 C652.021141,31.2842286 651.805845,31.7047067 651.346213,31.7096134 C650.891588,31.7047067 650.666278,31.2842286 650.661272,30.6339347 Z M654.328313,34.4966447 C654.323306,35.5380763 654.852033,36.2568644 655.815357,36.2568644 C656.768667,36.2568644 657.296393,35.542983 657.3014,34.4966447 C657.296393,33.4503063 656.783688,32.7315182 655.815357,32.7364 C654.871059,32.7315182 654.323306,33.4503063 654.328313,34.4966447 Z M655.130415,34.4966447 C655.135422,33.8560641 655.365739,33.4306793 655.815357,33.420966 C656.289008,33.420966 656.490285,33.8512575 656.490285,34.4966447 C656.490285,35.1371251 656.274989,35.5625099 655.815357,35.5625099 C655.360732,35.5625099 655.135422,35.1371251 655.130415,34.4966447 Z" id="Shape" fill="#FFFFFF" fill-rule="nonzero"></path>
                <rect id="Rectangle" fill="#113287" fill-rule="nonzero" x="365.947883" y="20.2798011" width="180.247782" height="24.0330376"></rect>
                <path d="M441.867248,28.7612604 L435.618658,28.7612604 L435.618658,29.5141954 L440.938972,29.5141954 L440.938972,29.6217433 C440.933965,30.6729884 440.933965,31.9149957 440.596501,33.6116281 L441.534791,33.7094625 C441.863242,31.9149957 441.863242,30.7023287 441.867248,29.6217433 L441.867248,28.7612604 Z M434.777502,35.4990226 L442.767485,35.4990226 L442.767485,34.7264606 L438.737946,34.7264606 L438.737946,31.6363126 L437.818682,31.6363126 L437.818682,34.7264606 L434.777502,34.7264606 L434.777502,35.4990226 Z" id="Shape" fill="#FFFFFF" fill-rule="nonzero"></path>
                <polygon id="Path" fill="#FFFFFF" fill-rule="nonzero" points="450.532159 31.9589562 445.359048 31.9589562 445.359048 29.3479669 450.454052 29.3479669 450.454052 28.5949317 444.42977 28.5949317 444.42977 32.7021779 446.962252 32.7021779 446.962252 34.8438219 443.432399 34.8438219 443.432399 35.6065705 451.451423 35.6065705 451.451423 34.8438219 447.881515 34.8438219 447.881515 32.7021779 450.532159 32.7021779"></polygon>
                <path d="M454.835074,35.8510065 L459.597621,35.8510065 L459.597621,34.9318429 L456.331131,34.9318429 L456.331131,34.8731623 L457.768106,33.4160592 C459.097934,32.1105646 459.470446,31.4797975 459.479459,30.6877086 C459.470446,29.538629 458.526148,28.6732394 457.162273,28.6732394 C455.812418,28.6732394 454.825061,29.5289157 454.835074,30.8245968 L455.851471,30.8245968 C455.856478,30.0715616 456.355164,29.5728761 457.142246,29.5728761 C457.886269,29.5728761 458.453048,30.0177877 458.453048,30.717049 C458.453048,31.3380026 458.066516,31.7878209 457.289448,32.59463 L454.835074,35.0687311 L454.835074,35.8510065 Z" id="Path" fill="#FFFFFF" fill-rule="nonzero"></path>
                <path d="M461.484215,35.9195006 C461.860732,35.9145939 462.174163,35.6065705 462.17917,35.2251461 C462.174163,34.8438219 461.860732,34.5308917 461.484215,34.5308917 C461.10269,34.5308917 460.785254,34.8438219 460.790261,35.2251461 C460.785254,35.6065705 461.10269,35.9145939 461.484215,35.9195006 Z" id="Path" fill="#FFFFFF" fill-rule="nonzero"></path>
                <path d="M463.273675,34.4722111 L466.716407,34.4722111 L466.716407,35.8510065 L467.733806,35.8510065 L467.733806,34.4722111 L468.701136,34.4722111 L468.701136,33.5627609 L467.733806,33.5627609 L467.733806,28.7709737 L466.402976,28.7709737 L463.273675,33.6018146 L463.273675,34.4722111 Z M464.408234,33.5627609 L464.408234,33.5040802 L466.6383,30.0520348 L466.716407,30.0520348 L466.716407,33.5627609 L464.408234,33.5627609 Z" id="Shape" fill="#FFFFFF" fill-rule="nonzero"></path>
                <path d="M471.409859,32.1349982 C472.364171,32.1448117 472.891897,31.4309303 472.896903,30.3747784 C472.891897,29.3381534 472.383197,28.6194655 471.409859,28.6242481 C470.466562,28.6194655 469.913803,29.3381534 469.923816,30.3747784 C469.913803,31.4260236 470.442529,32.1448117 471.409859,32.1349982 Z M470.725919,35.8510065 L471.615141,35.8510065 L476.475823,28.7709737 L475.585599,28.7709737 L470.725919,35.8510065 Z M470.725919,30.3747784 C470.730926,29.7440113 470.955234,29.3186266 471.409859,29.3088131 C471.884512,29.3039063 472.084787,29.7391046 472.084787,30.3747784 C472.084787,31.0250724 471.869491,31.4455504 471.409859,31.4504571 C470.955234,31.4455504 470.730926,31.0250724 470.725919,30.3747784 Z M474.39296,34.2374884 C474.387953,35.27892 474.915679,35.9977081 475.879003,35.9977081 C476.832313,35.9977081 477.36104,35.2838268 477.366047,34.2374884 C477.36104,33.19115 476.847334,32.4723619 475.879003,32.4772437 C474.935706,32.4723619 474.387953,33.19115 474.39296,34.2374884 Z M475.195063,34.2374884 C475.20007,33.597008 475.429385,33.1716232 475.879003,33.1618097 C476.353655,33.1618097 476.553931,33.5921012 476.553931,34.2374884 C476.553931,34.878069 476.338635,35.3034538 475.879003,35.3034538 C475.424378,35.3034538 475.20007,34.878069 475.195063,34.2374884 Z" id="Shape" fill="#FFFFFF" fill-rule="nonzero"></path>
                <rect id="Rectangle" fill="#5B6EB4" fill-rule="nonzero" x="185.700101" y="20.2798011" width="180.247782" height="24.0330376"></rect>
                <path d="M260.524961,31.7829142 L252.534977,31.7829142 L252.534977,32.5359493 L256.065831,32.5359493 L256.065831,33.3769054 C254.437593,33.4600196 253.483281,34.0027657 253.483281,34.9220294 C253.483281,35.9145939 254.617841,36.4720602 256.525463,36.4671856 C258.40705,36.4720602 259.541609,35.9145939 259.546616,34.9220294 C259.541609,34.0027657 258.588299,33.4649264 256.985095,33.3769054 L256.985095,32.5359493 L260.524961,32.5359493 L260.524961,31.7829142 Z M252.955556,30.5898741 L253.277999,31.3232823 C254.79909,31.1473405 256.045804,30.5067599 256.529469,29.5777828 C257.004121,30.5067599 258.260849,31.1473405 259.780938,31.3232823 L260.114397,30.5898741 C258.510191,30.4285524 257.277497,29.7195778 257.151323,28.8688082 L259.81098,28.8688082 L259.81098,28.1255865 L253.268986,28.1255865 L253.268986,28.8688082 L255.899603,28.8688082 C255.772428,29.714671 254.52972,30.4285524 252.955556,30.5898741 Z M254.422548,34.9220294 C254.417565,34.3792833 255.185621,34.08588 256.525463,34.0810734 C257.845277,34.08588 258.617339,34.3792833 258.617339,34.9220294 C258.617339,35.454962 257.845277,35.7629855 256.525463,35.7532721 C255.185621,35.7629855 254.417565,35.454962 254.422548,34.9220294 Z" id="Shape" fill="#FFFFFF" fill-rule="nonzero"></path>
                <polygon id="Path" fill="#FFFFFF" fill-rule="nonzero" points="268.289635 31.7633873 263.116524 31.7633873 263.116524 29.1523981 268.210526 29.1523981 268.210526 28.3993629 262.187246 28.3993629 262.187246 32.506609 264.719728 32.506609 264.719728 34.6482531 261.189875 34.6482531 261.189875 35.4110016 269.208899 35.4110016 269.208899 34.6482531 265.638991 34.6482531 265.638991 32.506609 268.289635 32.506609"></polygon>
                <polygon id="Path" fill="#FFFFFF" fill-rule="nonzero" points="275.281246 28.5754049 274.224794 28.5754049 272.465375 29.7293912 272.465375 30.7561026 274.1567 29.6510836 274.195754 29.6510836 274.195754 35.6554376 275.281246 35.6554376"></polygon>
                <path d="M279.486026,35.7532721 C280.963057,35.7532721 282.009495,34.7508942 282.009495,33.3573785 C282.009495,31.9932032 281.026144,31.0055455 279.691309,31.0006388 C279.153569,31.0055455 278.654884,31.1962076 278.36148,31.4797975 L278.293387,31.4797975 L278.527709,29.4946686 L281.646997,29.4946686 L281.646997,28.5754049 L277.638487,28.5754049 L277.178855,32.5164225 L278.195252,32.5164225 C278.434581,32.0812242 278.87018,31.8905621 279.436959,31.8905621 C280.327183,31.9002755 280.963057,32.5261359 280.963057,33.3867189 C280.963057,34.2276749 280.34721,34.8487287 279.486026,34.8535353 C278.772045,34.8487287 278.195252,34.4086237 278.137172,33.8071969 L277.090734,33.8071969 C277.1388,34.9366495 278.146185,35.7532721 279.486026,35.7532721 Z" id="Path" fill="#FFFFFF" fill-rule="nonzero"></path>
                <path d="M283.593673,35.7239318 C283.970191,35.719025 284.28262,35.4110016 284.287627,35.0295773 C284.28262,34.6482531 283.970191,34.3353229 283.593673,34.3353229 C283.212149,34.3353229 282.894712,34.6482531 282.898718,35.0295773 C282.894712,35.4110016 283.212149,35.719025 283.593673,35.7239318 Z" id="Path" fill="#FFFFFF" fill-rule="nonzero"></path>
                <path d="M287.798453,35.7532721 C289.26547,35.7532721 290.355969,34.8877824 290.350995,33.7094625 C290.355969,32.8146324 289.793195,32.1643385 288.824864,32.0274503 L288.824864,31.978483 C289.587913,31.7878209 290.086599,31.2108277 290.076585,30.4041188 C290.086599,29.3577804 289.211396,28.4776705 287.818481,28.4776705 C286.497665,28.4776705 285.4322,29.2599459 285.402159,30.4138321 L286.439585,30.4138321 C286.463618,29.7733517 287.099492,29.3773072 287.808467,29.3773072 C288.556495,29.3773072 289.04016,29.8173121 289.04016,30.4627994 C289.04016,31.1424337 288.478388,31.5922521 287.671278,31.5873453 L287.065446,31.5873453 L287.065446,32.4674552 L287.671278,32.4674552 C288.68367,32.4723619 289.26547,32.9711476 289.26547,33.6703087 C289.26547,34.3597565 288.644616,34.8241949 287.788439,34.8241949 C286.996351,34.8241949 286.380504,34.4281505 286.34145,33.8071969 L285.245944,33.8071969 C285.290005,34.9659899 286.331437,35.7532721 287.798453,35.7532721 Z" id="Path" fill="#FFFFFF" fill-rule="nonzero"></path>
                <path d="M293.157821,31.9394293 C294.111131,31.9491427 294.638857,31.2353615 294.643863,30.1792096 C294.638857,29.1425846 294.130157,28.4237965 293.157821,28.4286783 C292.213523,28.4237965 291.660763,29.1425846 291.670776,30.1792096 C291.660763,31.2304547 292.18949,31.9491427 293.157821,31.9394293 Z M292.472879,35.6554376 L293.363103,35.6554376 L298.222783,28.5754049 L297.33256,28.5754049 L292.472879,35.6554376 Z M292.472879,30.1792096 C292.477886,29.5484425 292.702194,29.1230577 293.157821,29.1132442 C293.631472,29.1083375 293.831747,29.5435358 293.831747,30.1792096 C293.831747,30.8295035 293.617452,31.2499816 293.157821,31.2548883 C292.702194,31.2499816 292.477886,30.8295035 292.472879,30.1792096 Z M296.13992,34.0419196 C296.134913,35.0833512 296.66364,35.8021393 297.625963,35.8021393 C298.580275,35.8021393 299.108,35.0882579 299.113007,34.0419196 C299.108,32.9955812 298.594294,32.2767931 297.625963,32.2816749 C296.682666,32.2767931 296.134913,32.9955812 296.13992,34.0419196 Z M296.942023,34.0419196 C296.94703,33.401339 297.176345,32.9759542 297.625963,32.9662409 C298.100615,32.9662409 298.300891,33.3965324 298.300891,34.0419196 C298.300891,34.6824 298.085595,35.1077848 297.625963,35.1077848 C297.171338,35.1077848 296.94703,34.6824 296.942023,34.0419196 Z" id="Shape" fill="#FFFFFF" fill-rule="nonzero"></path>
                <rect id="Rectangle" fill="#E2E6F6" fill-rule="nonzero" x="5.45231917" y="20.2798011" width="180.247782" height="24.0330376"></rect>
                <path d="M78.5801461,27.939731 L77.6511691,27.939731 L77.6511691,29.4946686 L75.7491544,29.4946686 C75.8078351,29.2012652 75.8420822,28.8883351 75.8420822,28.5655914 L71.8326706,28.5655914 L71.8326706,29.3284401 L74.8347975,29.3284401 C74.668569,30.7414825 73.4560021,31.8563151 71.3827521,32.4479283 L71.7543629,33.1716232 C73.651571,32.6288771 74.9667789,31.6363126 75.5340588,30.2280768 L77.6511691,30.2280768 L77.6511691,31.2940421 L75.441131,31.2940421 L75.441131,32.0567907 L77.6511691,32.0567907 L77.6511691,33.1226559 L78.5801461,33.1226559 L78.5801461,27.939731 Z M72.7421208,34.9318429 C72.7421208,35.9977081 73.896007,36.6529088 75.6953805,36.6529088 C77.4702204,36.6529088 78.6340202,35.9977081 78.6388268,34.9318429 C78.6340202,33.8707843 77.4702204,33.2253971 75.6953805,33.2204904 C73.896007,33.2253971 72.7421208,33.8707843 72.7421208,34.9318429 Z M73.6612843,34.9318429 C73.6612843,34.3059826 74.4436598,33.9489918 75.6953805,33.9538986 C76.9226676,33.9489918 77.704943,34.3059826 77.7098498,34.9318429 C77.704943,35.5478898 76.9226676,35.9047804 75.6953805,35.9096871 C74.4436598,35.9047804 73.6612843,35.5478898 73.6612843,34.9318429 Z" id="Shape" fill="#113287" fill-rule="nonzero"></path>
                <polygon id="Path" fill="#113287" fill-rule="nonzero" points="87.0292609 31.9687697 81.8561496 31.9687697 81.8561496 29.3577804 86.9510534 29.3577804 86.9510534 28.6047452 80.9271725 28.6047452 80.9271725 32.7119913 83.4599543 32.7119913 83.4599543 34.8535353 79.9297013 34.8535353 79.9297013 35.6163839 87.9485246 35.6163839 87.9485246 34.8535353 84.379218 34.8535353 84.379218 32.7119913 87.0292609 32.7119913"></polygon>
                <path d="M93.894198,35.9587212 C95.4148884,35.9683678 96.4269797,34.9171227 96.4269797,33.5431339 C96.4269797,32.1887721 95.4099817,31.2206412 94.1484475,31.2157345 C93.3807922,31.2206412 92.7158782,31.5727252 92.3295471,32.174152 L92.2513396,32.174152 C92.2513396,30.575254 92.8870134,29.62665 93.982219,29.6217433 C94.6961003,29.62665 95.1508254,30.0423214 95.2926204,30.6192145 L96.3584856,30.6192145 C96.1922571,29.4946686 95.2877136,28.6829527 93.982219,28.6829527 C92.2855867,28.6829527 91.2196213,30.0911886 91.2147146,32.5554762 C91.2147146,35.1713722 92.5837966,35.948841 93.894198,35.9587212 Z M92.3784143,33.5724742 C92.3882278,32.7852921 93.0483352,32.0910377 93.9137248,32.0958183 C94.7645945,32.0910377 95.3806414,32.751045 95.3806414,33.5627609 C95.3806414,34.3890968 94.7400608,35.0540109 93.8843845,35.0589176 C93.0140881,35.0540109 92.383321,34.3597565 92.3784143,33.5724742 Z" id="Shape" fill="#113287" fill-rule="nonzero"></path>
                <path d="M100.084408,35.9586545 C101.551424,35.9586545 102.641923,35.0931647 102.63695,33.9147447 C102.641923,33.0200148 102.07915,32.3697208 101.110818,32.2328327 L101.110818,32.1838653 C101.873867,31.9932032 102.372553,31.4162101 102.362539,30.6095011 C102.372553,29.5630626 101.49735,28.6829527 100.103434,28.6829527 C98.7837195,28.6829527 97.7178543,29.4653282 97.6885139,30.6192145 L98.7250388,30.6192145 C98.7494724,29.978734 99.3851462,29.5826896 100.094421,29.5826896 C100.84245,29.5826896 101.326114,30.0226944 101.326114,30.6681818 C101.326114,31.347816 100.764342,31.7976344 99.9572327,31.7927277 L99.3508992,31.7927277 L99.3508992,32.6728375 L99.9572327,32.6728375 C100.969624,32.6777443 101.551424,33.1764298 101.551424,33.8756911 C101.551424,34.5651388 100.930571,35.0295773 100.074394,35.0295773 C99.2825051,35.0295773 98.6663581,34.6335328 98.6273045,34.0125792 L97.5319988,34.0125792 C97.5760593,35.1713722 98.617491,35.9586545 100.084408,35.9586545 Z" id="Path" fill="#113287" fill-rule="nonzero"></path>
                <path d="M104.299201,35.9293141 C104.675719,35.9244074 104.988149,35.6163839 104.993155,35.2349596 C104.988149,34.8535353 104.675719,34.5406051 104.299201,34.5406051 C103.917677,34.5406051 103.600241,34.8535353 103.605248,35.2349596 C103.600241,35.6163839 103.917677,35.9244074 104.299201,35.9293141 Z" id="Path" fill="#113287" fill-rule="nonzero"></path>
                <path d="M108.474942,35.9586545 C109.991026,35.9586545 111.071511,35.1274118 111.076518,33.9734254 C111.071511,33.0639752 110.41561,32.3207535 109.589474,32.1936788 L109.589474,32.154525 C110.303455,31.9882965 110.797134,31.3429093 110.802141,30.5703473 C110.797134,29.4799483 109.809777,28.6829527 108.474942,28.6829527 C107.120079,28.6829527 106.137729,29.4799483 106.137729,30.5703473 C106.137729,31.3429093 106.621394,31.9882965 107.350396,32.154525 L107.350396,32.1936788 C106.514246,32.3207535 105.863352,33.0639752 105.873365,33.9734254 C105.863352,35.1274118 106.934825,35.9586545 108.474942,35.9586545 Z M106.968871,33.8952179 C106.953851,33.1667164 107.594732,32.6336837 108.474942,32.6336837 C109.345138,32.6336837 109.981012,33.1667164 109.981012,33.8952179 C109.981012,34.5895724 109.394205,35.0687311 108.474942,35.0687311 C107.540657,35.0687311 106.953851,34.5895724 106.968871,33.8952179 Z M107.184167,30.6681818 C107.189174,30.0080743 107.696872,29.558256 108.474942,29.5630626 C109.232984,29.558256 109.750696,30.0080743 109.745689,30.6681818 C109.750696,31.3330958 109.212956,31.7878209 108.474942,31.7829142 C107.7169,31.7878209 107.189174,31.3281891 107.184167,30.6681818 Z" id="Shape" fill="#113287" fill-rule="nonzero"></path>
                <path d="M113.814282,32.1448117 C114.767592,32.154525 115.295318,31.4406437 115.300324,30.3845919 C115.295318,29.3479669 114.78762,28.6291788 113.814282,28.6340606 C112.870985,28.6291788 112.318225,29.3479669 112.328239,30.3845919 C112.318225,31.4358371 112.84595,32.154525 113.814282,32.1448117 Z M113.12934,35.86082 L114.019564,35.86082 L118.879244,28.7807872 L117.990022,28.7807872 L113.12934,35.86082 Z M113.12934,30.3845919 C113.134347,29.7538248 113.359657,29.3284401 113.814282,29.3186266 C114.288934,29.3137198 114.489209,29.7489181 114.489209,30.3845919 C114.489209,31.0348859 114.273913,31.4553639 113.814282,31.4602706 C113.359657,31.4553639 113.134347,31.0348859 113.12934,30.3845919 Z M116.796358,34.2473019 C116.792376,35.2887335 117.320101,36.0075216 118.283425,36.0075216 C119.236736,36.0075216 119.764461,35.2936403 119.769468,34.2473019 C119.764461,33.2008634 119.251756,32.4821754 118.283425,32.4870572 C117.339127,32.4821754 116.792376,33.2008634 116.796358,34.2473019 Z M117.598484,34.2473019 C117.603491,33.6067213 117.833807,33.1813365 118.283425,33.1716232 C118.757076,33.1716232 118.958353,33.6018146 118.958353,34.2473019 C118.958353,34.8877824 118.743057,35.3131671 118.283425,35.3131671 C117.8288,35.3131671 117.603491,34.8877824 117.598484,34.2473019 Z" id="Shape" fill="#113287" fill-rule="nonzero"></path>
                <polygon id="Path" fill="#113287" points="4.4509426 64.3403701 4.4509426 0.25229983 6.45369573 0.25229983 6.45369573 64.3403701"></polygon>
                <polygon id="Path" fill="#979797" points="185.199413 64.0881233 185.199413 0 186.20079 0 186.20079 64.0881233"></polygon>
                <polygon id="Path" fill="#979797" points="365.447195 64.0881233 365.447195 0 366.448572 0 366.448572 64.0881233"></polygon>
                <polygon id="Path" fill="#979797" points="545.694977 64.0881233 545.694977 0 546.696354 0 546.696354 64.0881233"></polygon>
                <path d="M36.666829,70.3128803 L39.8532092,73.4992606 C40.0486779,73.6948294 40.0486779,74.0118652 39.8532092,74.2073339 L36.666829,77.3937142 C36.4712601,77.589283 36.1542243,77.589283 35.9587556,77.3937142 C35.7631867,77.1982455 35.7631867,76.8812097 35.9587556,76.6856408 L38.2903608,74.3540356 L20.4729677,74.3540356 L20.4729677,73.352659 L38.2903608,73.352659 L35.9587556,71.0210538 C35.7631867,70.825485 35.7631867,70.5084492 35.9587556,70.3128803 C36.1542243,70.1174116 36.4712601,70.1174116 36.666829,70.3128803 Z" id="Path" fill="#113287"></path>
                <polygon id="Path" fill="#001A5B" fill-rule="nonzero" points="719.889438 20.2798011 691.041782 20.2798011 691.041782 44.3128387 719.889438 44.3128387 727.444824 32.2963199"></polygon>
            </g>
        </g>
    </g>
</svg>