<?xml version="1.0" encoding="UTF-8"?>
<svg width="727px" height="90px" viewBox="0 0 727 90" version="1.1" xmlns="http://www.w3.org/2000/svg" xmlns:xlink="http://www.w3.org/1999/xlink">
    <title>astigmatism</title>
    <g id="astigmatism" stroke="none" stroke-width="1" fill="none" fill-rule="evenodd">
        <g id="Group" transform="translate(0.000000, -0.000000)">
            <g id="AGE_60_69" transform="translate(0.000000, 0.201449)">
                <path d="M21.7090669,82.7083921 L21.0910173,82.7083921 L21.0910173,85.9706767 L21.6464809,85.9706767 C22.6987274,85.9706767 23.7547791,85.9041853 24.9321977,85.6577465 L24.8618009,85.1492475 C23.7274415,85.3839702 22.7026327,85.4465562 21.7090669,85.4465562 L21.7090669,82.7083921 Z M21.8654819,89.0061495 L26.4420732,89.0061495 L26.4420732,88.4898397 L22.4757208,88.4898397 L22.4757208,86.7374308 L21.8654819,86.7374308 L21.8654819,89.0061495 Z M25.5815904,87.2303083 L26.1917291,87.2303083 L26.1917291,84.8050744 L27.2400702,84.8050744 L27.2400702,84.273043 L26.1917291,84.273043 L26.1917291,82.2077039 L25.5815904,82.2077039 L25.5815904,87.2303083 Z" id="Shape" fill="#001A5B" fill-rule="nonzero"></path>
                <path d="M32.1609348,84.0696634 L32.1609348,82.8023213 L31.5506959,82.8023213 L31.5506959,84.0696634 C31.5428852,85.3878756 30.6862076,86.7178038 29.6496827,87.1911545 L30.0408204,87.7074642 C30.8544388,87.2967997 31.5389798,86.4166898 31.8597208,85.3683487 C32.1921778,86.3580092 32.8767188,87.1833437 33.6708104,87.5666707 L34.0463266,87.0816039 C33.0214177,86.616164 32.1570295,85.340911 32.1609348,84.0696634 Z M34.8051698,89.1704754 L35.4232194,89.1704754 L35.4232194,82.1998931 L34.8051698,82.1998931 L34.8051698,89.1704754 Z" id="Shape" fill="#001A5B" fill-rule="nonzero"></path>
                <path d="M2.34111227,76.4448818 C3.81529879,76.4448818 4.67781447,75.2567485 4.68222053,73.1708812 C4.67781447,71.0982319 3.80210065,69.8968805 2.34111227,69.8968805 C0.875717827,69.8968805 -1.73433206e-14,71.0982319 -1.73433206e-14,73.1708812 C-1.73433206e-14,75.2567485 0.866915727,76.4448818 2.34111227,76.4448818 Z M0.968124857,73.1708812 C0.968124857,71.5867034 1.48299263,70.7198117 2.34111227,70.7154057 C3.19482585,70.7198117 3.71408967,71.5867034 3.71408967,73.1708812 C3.71408967,74.7594649 3.19922189,75.6088325 2.34111227,75.6088325 C1.47859659,75.6088325 0.963728814,74.7594649 0.968124857,73.1708812 Z" id="Shape" fill="#001A5B" fill-rule="nonzero"></path>
                <path d="M7.84183397,76.356961 C9.78247172,76.356961 10.9002082,75.1512035 10.9046143,73.162069 C10.9002082,71.1774408 9.78247172,69.9849015 7.90343866,69.9849015 L5.77356077,69.9849015 L5.77356077,76.356961 L7.84183397,76.356961 Z M6.74169163,75.5119994 L6.74169163,70.8297629 L7.84183397,70.8297629 C9.23241557,70.8297629 9.94529555,71.6615063 9.94529555,73.162069 C9.94529555,74.667138 9.23241557,75.5075934 7.78903138,75.5119994 L6.74169163,75.5119994 Z" id="Shape" fill="#001A5B" fill-rule="nonzero"></path>
                <polygon id="Path" fill="#001A5B" fill-rule="nonzero" points="183.552148 69.9849015 182.601842 69.9849015 181.017664 71.0234291 181.017664 71.9474994 182.540758 70.9530323 182.575806 70.9530323 182.575806 76.356961 183.552148 76.356961"></polygon>
                <path d="M187.32834,76.356961 C189.269007,76.356961 190.386544,75.1512035 190.39155,73.162069 C190.386544,71.1774408 189.269007,69.9849015 187.390425,69.9849015 L185.260497,69.9849015 L185.260497,76.356961 L187.32834,76.356961 Z M186.227827,75.5119994 L186.227827,70.8297629 L187.32834,70.8297629 C188.719252,70.8297629 189.432232,71.6615063 189.432232,73.162069 C189.432232,74.667138 188.719252,75.5075934 187.275267,75.5119994 L186.227827,75.5119994 Z" id="Shape" fill="#001A5B" fill-rule="nonzero"></path>
                <path d="M360.719696,76.356961 L365.006589,76.356961 L365.006589,75.5296237 L362.066548,75.5296237 L362.066548,75.4768511 L363.360326,74.1654484 C364.556971,72.9904331 364.891431,72.4227527 364.900443,71.7098727 C364.891431,70.6757512 364.042264,69.8968805 362.814576,69.8968805 C361.599906,69.8968805 360.711685,70.6669391 360.719696,71.8331422 L361.634954,71.8331422 C361.639961,71.1554105 362.088578,70.7065936 362.797553,70.7065936 C363.466472,70.7065936 363.976173,71.1070441 363.976173,71.7363091 C363.976173,72.2951774 363.628695,72.7000339 362.928733,73.426132 L360.719696,75.652793 L360.719696,76.356961 Z" id="Path" fill="#001A5B" fill-rule="nonzero"></path>
                <path d="M368.236029,76.356961 C370.176697,76.356961 371.294233,75.1512035 371.29924,73.162069 C371.294233,71.1774408 370.176697,69.9849015 368.298114,69.9849015 L366.168186,69.9849015 L366.168186,76.356961 L368.236029,76.356961 Z M367.136517,75.5119994 L367.136517,70.8297629 L368.236029,70.8297629 C369.626941,70.8297629 370.339921,71.6615063 370.339921,73.162069 C370.339921,74.667138 369.626941,75.5075934 368.182956,75.5119994 L367.136517,75.5119994 Z" id="Shape" fill="#001A5B" fill-rule="nonzero"></path>
                <path d="M543.097406,76.4448818 C544.418222,76.4448818 545.399571,75.6660112 545.394601,74.6054532 C545.399571,73.8001462 544.892874,73.2149417 544.021677,73.0916723 L544.021677,73.0477118 C544.708621,72.8760759 545.157238,72.356762 545.148225,71.6306639 C545.157238,70.6889693 544.369155,69.8968805 543.115431,69.8968805 C541.926797,69.8968805 540.967478,70.6009483 540.941443,71.639476 L541.874725,71.639476 C541.896756,71.0629835 542.468542,70.7065936 543.106419,70.7065936 C543.779344,70.7065936 544.214943,71.102638 544.214943,71.6835365 C544.214943,72.2951774 543.709247,72.7000339 542.983249,72.6956278 L542.437499,72.6956278 L542.437499,73.4877167 L542.983249,73.4877167 C543.894502,73.4921228 544.418222,73.9410399 544.418222,74.5703049 C544.418222,75.1907578 543.859454,75.6088325 543.088394,75.6088325 C542.376415,75.6088325 541.821653,75.2523425 541.786604,74.6934742 L540.800248,74.6934742 C540.840303,75.7364079 541.777592,76.4448818 543.097406,76.4448818 Z" id="Path" fill="#001A5B" fill-rule="nonzero"></path>
                <path d="M548.615993,76.356961 C550.55666,76.356961 551.674197,75.1512035 551.679203,73.162069 C551.674197,71.1774408 550.55666,69.9849015 548.678078,69.9849015 L546.54815,69.9849015 L546.54815,76.356961 L548.615993,76.356961 Z M547.51548,75.5119994 L547.51548,70.8297629 L548.615993,70.8297629 C550.006905,70.8297629 550.719885,71.6615063 550.719885,73.162069 C550.719885,74.667138 550.006905,75.5075934 548.56292,75.5119994 L547.51548,75.5119994 Z" id="Shape" fill="#001A5B" fill-rule="nonzero"></path>
                <polygon id="Path" fill="#979797" points="95.0755219 48.8259148 95.0755219 15.2631769 96.0768985 15.2631769 96.0768985 48.8259148"></polygon>
                <polygon id="Path" fill="#979797" points="275.323304 48.8259148 275.323304 15.2631769 276.324681 15.2631769 276.324681 48.8259148"></polygon>
                <polygon id="Path" fill="#979797" points="455.571086 48.8259148 455.571086 15.2631769 456.572463 15.2631769 456.572463 48.8259148"></polygon>
                <polygon id="Path" fill="#979797" points="635.818868 48.8259148 635.818868 15.2631769 636.820245 15.2631769 636.820245 48.8259148"></polygon>
                <polygon id="Path" fill="#979797" points="456.572463 37.3032749 456.572463 16.274367 455.571086 16.274367 455.571086 37.3032749"></polygon>
                <polygon id="Path" fill="#979797" points="636.820245 37.3032749 636.820245 16.274367 635.818868 16.274367 635.818868 37.3032749"></polygon>
                <rect id="Rectangle" fill="#001A5B" fill-rule="nonzero" x="546.195665" y="20.2798732" width="173.238146" height="24.0330376"></rect>
                <path d="M616.61547,35.1029501 L613.056577,35.1029501 L613.056577,33.1960287 L612.137314,33.1960287 L612.137314,35.1029501 L608.596446,35.1029501 L608.596446,35.8656987 L616.61547,35.8656987 L616.61547,35.1029501 Z M608.987984,32.7755507 L609.340469,33.4991454 C610.806484,33.2693295 612.024158,32.5750751 612.591939,31.5531703 C613.163725,32.5750751 614.386405,33.2693295 615.853422,33.4991454 L616.204905,32.7755507 C614.405432,32.5114877 613.10965,31.4944897 613.06559,30.2622958 L615.872448,30.2622958 L615.872448,29.5093608 L613.056577,29.5093608 L613.056577,28.3358476 L612.137314,28.3358476 L612.137314,29.5093608 L609.320441,29.5093608 L609.320441,30.2622958 L612.1273,30.2622958 C612.083239,31.4944897 610.787458,32.5114877 608.987984,32.7755507 Z" id="Shape" fill="#FFFFFF" fill-rule="nonzero"></path>
                <path d="M624.34109,29.0203886 L618.0925,29.0203886 L618.0925,29.7733236 L623.411812,29.7733236 L623.411812,29.8808715 C623.406806,30.9322167 623.406806,32.174124 623.070343,33.8707563 L624.008633,33.9685908 C624.336083,32.174124 624.336083,30.9615571 624.34109,29.8808715 L624.34109,29.0203886 Z M617.251344,35.7581508 L625.241327,35.7581508 L625.241327,34.9855888 L621.211788,34.9855888 L621.211788,31.8954409 L620.292524,31.8954409 L620.292524,34.9855888 L617.251344,34.9855888 L617.251344,35.7581508 Z" id="Shape" fill="#FFFFFF" fill-rule="nonzero"></path>
                <polygon id="Path" fill="#FFFFFF" fill-rule="nonzero" points="633.005 32.2180844 627.831889 32.2180844 627.831889 29.6070951 632.926893 29.6070951 632.926893 28.8541601 626.903613 28.8541601 626.903613 32.9613061 629.436094 32.9613061 629.436094 35.1029501 625.906241 35.1029501 625.906241 35.8656987 633.924264 35.8656987 633.924264 35.1029501 630.355358 35.1029501 630.355358 32.9613061 633.005 32.9613061"></polygon>
                <polygon id="Path" fill="#FFFFFF" fill-rule="nonzero" points="639.997613 29.0301019 638.94116 29.0301019 637.18074 30.1840883 637.18074 31.2108998 638.873067 30.1058808 638.91212 30.1058808 638.91212 36.1102348 639.997613 36.1102348"></polygon>
                <path d="M642.09049,36.1786288 C642.467007,36.1737221 642.779437,35.8656987 642.784444,35.4843745 C642.779437,35.1029501 642.467007,34.79002 642.09049,34.79002 C641.708965,34.79002 641.390527,35.1029501 641.395534,35.4843745 C641.390527,35.8656987 641.708965,36.1737221 642.09049,36.1786288 Z" id="Path" fill="#FFFFFF" fill-rule="nonzero"></path>
                <polygon id="Path" fill="#FFFFFF" fill-rule="nonzero" points="644.095245 36.1102348 645.219791 36.1102348 648.368119 29.9885195 648.368119 29.0301019 643.605572 29.0301019 643.605572 29.9493656 647.253587 29.9493656 647.253587 30.0080463"></polygon>
                <path d="M651.076843,32.3941264 C652.030153,32.4039399 652.55888,31.6900585 652.563887,30.6339067 C652.55888,29.5972816 652.050181,28.8785937 651.076843,28.8834754 C650.133546,28.8785937 649.580786,29.5972816 649.5908,30.6339067 C649.580786,31.6851518 650.109513,32.4039399 651.076843,32.3941264 Z M650.392903,36.1102348 L651.282125,36.1102348 L656.142807,29.0301019 L655.252583,29.0301019 L650.392903,36.1102348 Z M650.392903,30.6339067 C650.39791,30.0031396 650.622218,29.5777548 651.076843,29.5679413 C651.551495,29.5631347 651.751771,29.9982328 651.751771,30.6339067 C651.751771,31.2842006 651.536475,31.7046786 651.076843,31.7095854 C650.622218,31.7046786 650.39791,31.2842006 650.392903,30.6339067 Z M654.059944,34.4966166 C654.054937,35.5381484 654.582662,36.2568364 655.545986,36.2568364 C656.499297,36.2568364 657.028024,35.542955 657.033031,34.4966166 C657.028024,33.4502783 656.514318,32.7314902 655.545986,32.7363719 C654.60269,32.7314902 654.054937,33.4502783 654.059944,34.4966166 Z M654.862046,34.4966166 C654.866052,33.8561362 655.096368,33.4307514 655.545986,33.4209379 C656.020639,33.4209379 656.220914,33.8512294 656.220914,34.4966166 C656.220914,35.1371972 656.005618,35.562582 655.545986,35.562582 C655.091362,35.562582 654.866052,35.1371972 654.862046,34.4966166 Z" id="Shape" fill="#FFFFFF" fill-rule="nonzero"></path>
                <rect id="Rectangle" fill="#113287" fill-rule="nonzero" x="365.947883" y="20.2798732" width="180.247782" height="24.0330376"></rect>
                <path d="M442.2688,28.7612323 L436.02021,28.7612323 L436.02021,29.5141674 L441.339522,29.5141674 L441.339522,29.6218154 C441.334515,30.6730605 441.334515,31.9149677 440.997051,33.6116 L441.936343,33.7094345 C442.263793,31.9149677 442.263793,30.7024008 442.2688,29.6218154 L442.2688,28.7612323 Z M435.179054,35.4989946 L443.168036,35.4989946 L443.168036,34.7264325 L439.139498,34.7264325 L439.139498,31.6362846 L438.220234,31.6362846 L438.220234,34.7264325 L435.179054,34.7264325 L435.179054,35.4989946 Z" id="Shape" fill="#FFFFFF" fill-rule="nonzero"></path>
                <polygon id="Path" fill="#FFFFFF" fill-rule="nonzero" points="450.93271 31.9589281 445.759598 31.9589281 445.759598 29.3479389 450.854602 29.3479389 450.854602 28.5950038 444.830321 28.5950038 444.830321 32.7021498 447.363804 32.7021498 447.363804 34.8437939 443.83295 34.8437939 443.83295 35.6065424 451.851973 35.6065424 451.851973 34.8437939 448.283067 34.8437939 448.283067 32.7021498 450.93271 32.7021498"></polygon>
                <path d="M455.07941,34.472183 L458.521141,34.472183 L458.521141,35.8510786 L459.53854,35.8510786 L459.53854,34.472183 L460.506871,34.472183 L460.506871,33.5627328 L459.53854,33.5627328 L459.53854,28.7709457 L458.208712,28.7709457 L455.07941,33.6018867 L455.07941,34.472183 Z M456.21397,33.5627328 L456.21397,33.5040522 L458.443034,30.0520067 L458.521141,30.0520067 L458.521141,33.5627328 L456.21397,33.5627328 Z" id="Shape" fill="#FFFFFF" fill-rule="nonzero"></path>
                <path d="M462.021954,35.9194726 C462.398471,35.9145658 462.711902,35.6065424 462.716909,35.2252182 C462.711902,34.8437939 462.398471,34.5308637 462.021954,34.5308637 C461.641431,34.5308637 461.322993,34.8437939 461.328,35.2252182 C461.322993,35.6065424 461.641431,35.9145658 462.021954,35.9194726 Z" id="Path" fill="#FFFFFF" fill-rule="nonzero"></path>
                <polygon id="Path" fill="#FFFFFF" fill-rule="nonzero" points="464.02671 35.8510786 465.151256 35.8510786 468.300585 29.7293632 468.300585 28.7709457 463.538038 28.7709457 463.538038 29.6902094 467.186053 29.6902094 467.186053 29.74889"></polygon>
                <path d="M471.009309,32.1349701 C471.962619,32.1447836 472.490345,31.4309023 472.495351,30.3747504 C472.490345,29.3382255 471.982647,28.6194374 471.009309,28.6243192 C470.066012,28.6194374 469.513252,29.3382255 469.523266,30.3747504 C469.513252,31.4259955 470.040977,32.1447836 471.009309,32.1349701 Z M470.324367,35.8510786 L471.214591,35.8510786 L476.075273,28.7709457 L475.185049,28.7709457 L470.324367,35.8510786 Z M470.324367,30.3747504 C470.329374,29.7439833 470.554684,29.3185985 471.009309,29.3088852 C471.483961,29.3039784 471.684236,29.7390766 471.684236,30.3747504 C471.684236,31.0250443 471.46894,31.4455224 471.009309,31.4504291 C470.554684,31.4455224 470.329374,31.0250443 470.324367,30.3747504 Z M473.992409,34.2374604 C473.987402,35.2789921 474.515128,35.9976801 475.478452,35.9976801 C476.431763,35.9976801 476.959488,35.2838989 476.964495,34.2374604 C476.959488,33.191122 476.446783,32.4723339 475.478452,32.4772157 C474.535155,32.4723339 473.987402,33.191122 473.992409,34.2374604 Z M474.793511,34.2374604 C474.798518,33.5969799 475.028834,33.1715952 475.478452,33.1617817 C475.953105,33.1617817 476.15338,33.5920732 476.15338,34.2374604 C476.15338,34.878041 475.938084,35.3034257 475.478452,35.3034257 C475.023827,35.3034257 474.798518,34.878041 474.793511,34.2374604 Z" id="Shape" fill="#FFFFFF" fill-rule="nonzero"></path>
                <rect id="Rectangle" fill="#5B6EB4" fill-rule="nonzero" x="185.700101" y="20.2798732" width="180.247782" height="24.0330376"></rect>
                <path d="M259.737879,31.7829863 L251.747895,31.7829863 L251.747895,32.5359213 L255.277748,32.5359213 L255.277748,33.3769775 C253.64951,33.4600917 252.696199,34.0028378 252.696199,34.9220014 C252.696199,35.9145658 253.830759,36.4720322 255.73738,36.4671576 C257.619968,36.4720322 258.754527,35.9145658 258.759534,34.9220014 C258.754527,34.0028378 257.801217,33.4649985 256.197012,33.3769775 L256.197012,32.5359213 L259.737879,32.5359213 L259.737879,31.7829863 Z M252.168474,30.5899462 L252.490917,31.3233544 C254.012008,31.1473124 255.258722,30.5067318 255.742387,29.5777548 C256.217039,30.5067318 257.473767,31.1473124 258.993856,31.3233544 L259.326313,30.5899462 C257.723109,30.4285243 256.490415,29.7195497 256.36324,28.8687802 L259.023898,28.8687802 L259.023898,28.1255585 L252.480903,28.1255585 L252.480903,28.8687802 L255.111519,28.8687802 C254.984345,29.714643 253.742638,30.4285243 252.168474,30.5899462 Z M253.635466,34.9220014 C253.630483,34.3792553 254.398539,34.0859521 255.73738,34.0810454 C257.058195,34.0859521 257.830257,34.3792553 257.830257,34.9220014 C257.830257,35.4550341 257.058195,35.7630576 255.73738,35.7532441 C254.398539,35.7630576 253.630483,35.4550341 253.635466,34.9220014 Z" id="Shape" fill="#FFFFFF" fill-rule="nonzero"></path>
                <polygon id="Path" fill="#FFFFFF" fill-rule="nonzero" points="267.501552 31.7633593 262.32844 31.7633593 262.32844 29.15237 267.423444 29.15237 267.423444 28.399435 261.400164 28.399435 261.400164 32.506581 263.932646 32.506581 263.932646 34.648225 260.402793 34.648225 260.402793 35.4109736 268.420815 35.4109736 268.420815 34.648225 264.851909 34.648225 264.851909 32.506581 267.501552 32.506581"></polygon>
                <path d="M271.804467,35.6554096 L276.567014,35.6554096 L276.567014,34.736246 L273.300523,34.736246 L273.300523,34.6775654 L274.7385,33.2204623 C276.068328,31.9149677 276.439839,31.2842006 276.449853,30.4921117 C276.439839,29.3430321 275.496542,28.4776425 274.132667,28.4776425 C272.782812,28.4776425 271.795454,29.3333188 271.804467,30.6289999 L272.821865,30.6289999 C272.826872,29.8760649 273.325558,29.3772792 274.11264,29.3772792 C274.855661,29.3772792 275.423442,29.8222909 275.423442,30.5214521 C275.423442,31.1424057 275.03691,31.592224 274.259842,32.3990331 L271.804467,34.8731342 L271.804467,35.6554096 Z" id="Path" fill="#FFFFFF" fill-rule="nonzero"></path>
                <path d="M280.234055,35.7532441 C281.750139,35.7532441 282.830624,34.9220014 282.835631,33.7681152 C282.830624,32.858665 282.175724,32.1154433 281.349588,31.9882685 L281.349588,31.9492148 C282.062568,31.7829863 282.557248,31.1374989 282.562255,30.3649369 C282.557248,29.2746381 281.56889,28.4776425 280.234055,28.4776425 C278.880194,28.4776425 277.896842,29.2746381 277.896842,30.3649369 C277.896842,31.1374989 278.381508,31.7829863 279.109509,31.9492148 L279.109509,31.9882685 C278.273359,32.1154433 277.623466,32.858665 277.63348,33.7681152 C277.623466,34.9220014 278.693938,35.7532441 280.234055,35.7532441 Z M278.727984,33.6899077 C278.713965,32.9613061 279.353845,32.4283735 280.234055,32.4283735 C281.104251,32.4283735 281.740125,32.9613061 281.740125,33.6899077 C281.740125,34.384162 281.153318,34.8633207 280.234055,34.8633207 C279.300772,34.8633207 278.713965,34.384162 278.727984,33.6899077 Z M278.94328,30.4627714 C278.948287,29.802664 279.456986,29.3528456 280.234055,29.3577524 C280.992097,29.3528456 281.51081,29.802664 281.505803,30.4627714 C281.51081,31.1277856 280.973071,31.5825107 280.234055,31.5776039 C279.476013,31.5825107 278.948287,31.1228788 278.94328,30.4627714 Z" id="Shape" fill="#FFFFFF" fill-rule="nonzero"></path>
                <path d="M284.429822,35.7239037 C284.80634,35.718997 285.11877,35.4109736 285.123776,35.0295492 C285.11877,34.648225 284.80634,34.3352949 284.429822,34.3352949 C284.048298,34.3352949 283.730862,34.648225 283.734867,35.0295492 C283.730862,35.4109736 284.048298,35.718997 284.429822,35.7239037 Z" id="Path" fill="#FFFFFF" fill-rule="nonzero"></path>
                <path d="M288.605563,35.7532441 C290.120646,35.7532441 291.201131,34.9220014 291.206138,33.7681152 C291.201131,32.858665 290.546231,32.1154433 289.720095,31.9882685 L289.720095,31.9492148 C290.434076,31.7829863 290.927755,31.1374989 290.932762,30.3649369 C290.927755,29.2746381 289.940398,28.4776425 288.605563,28.4776425 C287.2507,28.4776425 286.26835,29.2746381 286.26835,30.3649369 C286.26835,31.1374989 286.752015,31.7829863 287.481017,31.9492148 L287.481017,31.9882685 C286.644867,32.1154433 285.993973,32.858665 286.003986,33.7681152 C285.993973,34.9220014 287.065446,35.7532441 288.605563,35.7532441 Z M287.099492,33.6899077 C287.084472,32.9613061 287.725353,32.4283735 288.605563,32.4283735 C289.475759,32.4283735 290.111633,32.9613061 290.111633,33.6899077 C290.111633,34.384162 289.524826,34.8633207 288.605563,34.8633207 C287.671278,34.8633207 287.084472,34.384162 287.099492,33.6899077 Z M287.314788,30.4627714 C287.318794,29.802664 287.827493,29.3528456 288.605563,29.3577524 C289.363605,29.3528456 289.881317,29.802664 289.87631,30.4627714 C289.881317,31.1277856 289.343577,31.5825107 288.605563,31.5776039 C287.847521,31.5825107 287.318794,31.1228788 287.314788,30.4627714 Z" id="Shape" fill="#FFFFFF" fill-rule="nonzero"></path>
                <path d="M293.944903,31.9394013 C294.898213,31.9492148 295.425939,31.2353334 295.430945,30.1791816 C295.425939,29.1425565 294.917239,28.4238686 293.944903,28.4287503 C293.000605,28.4238686 292.448846,29.1425565 292.457858,30.1791816 C292.448846,31.2304267 292.976571,31.9492148 293.944903,31.9394013 Z M293.259961,35.6554096 L294.150185,35.6554096 L299.009865,28.5753768 L298.120643,28.5753768 L293.259961,35.6554096 Z M293.259961,30.1791816 C293.264968,29.5484145 293.490278,29.1230297 293.944903,29.1132162 C294.418554,29.1084096 294.61983,29.5435077 294.61983,30.1791816 C294.61983,30.8294755 294.404534,31.2499535 293.944903,31.2548603 C293.490278,31.2499535 293.264968,30.8294755 293.259961,30.1791816 Z M296.927002,34.0418915 C296.921995,35.0834233 297.450722,35.8021113 298.414046,35.8021113 C299.367357,35.8021113 299.895082,35.0882299 299.900089,34.0418915 C299.895082,32.9955532 299.381376,32.2767651 298.414046,32.2816468 C297.469748,32.2767651 296.921995,32.9955532 296.927002,34.0418915 Z M297.729105,34.0418915 C297.734112,33.4014111 297.963427,32.9760263 298.414046,32.9662128 C298.887697,32.9662128 299.087973,33.3965043 299.087973,34.0418915 C299.087973,34.6824721 298.873678,35.1078569 298.414046,35.1078569 C297.95842,35.1078569 297.734112,34.6824721 297.729105,34.0418915 Z" id="Shape" fill="#FFFFFF" fill-rule="nonzero"></path>
                <rect id="Rectangle" fill="#E2E6F6" fill-rule="nonzero" x="5.45231917" y="20.2798732" width="180.247782" height="24.0330376"></rect>
                <path d="M78.6681671,27.9398031 L77.7391901,27.9398031 L77.7391901,29.4946405 L75.8371754,29.4946405 C75.8958561,29.2012372 75.9301032,28.888307 75.9301032,28.5656635 L71.9206916,28.5656635 L71.9206916,29.328412 L74.9228185,29.328412 C74.75659,30.7414545 73.543923,31.856287 71.4707731,32.4479003 L71.8423839,33.1715952 C73.739592,32.6288491 75.0547999,31.6362846 75.6219796,30.2280487 L77.7391901,30.2280487 L77.7391901,31.2940141 L75.529152,31.2940141 L75.529152,32.0567626 L77.7391901,32.0567626 L77.7391901,33.122728 L78.6681671,33.122728 L78.6681671,27.9398031 Z M72.8301418,34.9318149 C72.8301418,35.9976801 73.984028,36.6528808 75.7834015,36.6528808 C77.5582414,36.6528808 78.7219411,35.9976801 78.7268478,34.9318149 C78.7219411,33.8707563 77.5582414,33.2253691 75.7834015,33.2204623 C73.984028,33.2253691 72.8301418,33.8707563 72.8301418,34.9318149 Z M73.7493053,34.9318149 C73.7493053,34.3059545 74.5316808,33.9489638 75.7834015,33.9538705 C77.0106886,33.9489638 77.792964,34.3059545 77.7978708,34.9318149 C77.792964,35.5478617 77.0106886,35.9048525 75.7834015,35.9097592 C74.5316808,35.9048525 73.7493053,35.5478617 73.7493053,34.9318149 Z" id="Shape" fill="#113287" fill-rule="nonzero"></path>
                <polygon id="Path" fill="#113287" fill-rule="nonzero" points="87.1172819 31.9687416 81.9441706 31.9687416 81.9441706 29.3577524 87.0390744 29.3577524 87.0390744 28.6047172 81.0151935 28.6047172 81.0151935 32.7119633 83.5479753 32.7119633 83.5479753 34.8536074 80.0177223 34.8536074 80.0177223 35.6163559 88.0365456 35.6163559 88.0365456 34.8536074 84.4671388 34.8536074 84.4671388 32.7119633 87.1172819 32.7119633"></polygon>
                <path d="M93.825804,35.9586264 C95.3024338,35.9586264 96.3487722,34.9562485 96.3487722,33.5627328 C96.3487722,32.1985575 95.3659211,31.2108998 94.0310862,31.2059931 C93.4932468,31.2108998 92.9945613,31.4015619 92.7011579,31.6851518 L92.6326638,31.6851518 L92.8673864,29.7000229 L95.9869749,29.7000229 L95.9869749,28.7807592 L91.9774631,28.7807592 L91.5179314,32.7217768 L92.5349294,32.7217768 C92.7744587,32.2865785 93.209657,32.0959164 93.7768366,32.0959164 C94.66676,32.1056298 95.3024338,32.7314902 95.3024338,33.5920732 C95.3024338,34.4330292 94.6862868,35.054083 93.825804,35.0588896 C93.1119226,35.054083 92.5349294,34.613978 92.4762488,34.0125512 L91.4299104,34.0125512 C91.4787776,35.142104 92.4860623,35.9586264 93.825804,35.9586264 Z" id="Path" fill="#113287" fill-rule="nonzero"></path>
                <path d="M99.9672464,35.9586264 C101.482329,35.9586264 102.563816,35.1273837 102.567821,33.9734975 C102.563816,33.0640473 101.907914,32.3208256 101.081779,32.1936508 L101.081779,32.1545971 C101.79576,31.9882685 102.289439,31.3428813 102.294446,30.5703192 C102.289439,29.4800204 101.302081,28.6830248 99.9672464,28.6830248 C98.6125842,28.6830248 97.6298333,29.4800204 97.6298333,30.5703192 C97.6298333,31.3428813 98.1138987,31.9882685 98.8424001,32.1545971 L98.8424001,32.1936508 C98.0063509,32.3208256 97.3559568,33.0640473 97.3657703,33.9734975 C97.3559568,35.1273837 98.4268289,35.9586264 99.9672464,35.9586264 Z M98.461076,33.8951899 C98.4463557,33.1666884 99.0869363,32.6337558 99.9672464,32.6337558 C100.837443,32.6337558 101.473317,33.1666884 101.473317,33.8951899 C101.473317,34.5895444 100.88651,35.0687031 99.9672464,35.0687031 C99.0330622,35.0687031 98.4463557,34.5895444 98.461076,33.8951899 Z M98.6761716,30.6681537 C98.6810784,30.0080463 99.1895774,29.5582279 99.9672464,29.5631347 C100.725289,29.5582279 101.243,30.0080463 101.237993,30.6681537 C101.243,31.3330678 100.705261,31.7877929 99.9672464,31.7829863 C99.2091042,31.7877929 98.6810784,31.3282612 98.6761716,30.6681537 Z" id="Shape" fill="#113287" fill-rule="nonzero"></path>
                <path d="M104.162013,35.9292861 C104.53853,35.9243793 104.851961,35.6163559 104.856968,35.2349316 C104.851961,34.8536074 104.53853,34.5406772 104.162013,34.5406772 C103.780488,34.5406772 103.463052,34.8536074 103.468059,35.2349316 C103.463052,35.6163559 103.780488,35.9243793 104.162013,35.9292861 Z" id="Path" fill="#113287" fill-rule="nonzero"></path>
                <path d="M108.366793,35.9586264 C109.83381,35.9586264 110.924309,35.0931366 110.919335,33.9148168 C110.924309,33.0199867 110.362537,32.3696928 109.394205,32.2328046 L109.394205,32.1839374 C110.157254,31.9931752 110.65594,31.4162822 110.645926,30.6094731 C110.65594,29.5631347 109.780737,28.6830248 108.386821,28.6830248 C107.067006,28.6830248 106.00054,29.4653002 105.9715,30.6192866 L107.007925,30.6192866 C107.031958,29.978706 107.667832,29.5826615 108.376807,29.5826615 C109.124835,29.5826615 109.609501,30.0226664 109.609501,30.6681537 C109.609501,31.347788 109.046728,31.7976064 108.239618,31.7926996 L107.633785,31.7926996 L107.633785,32.6728095 L108.239618,32.6728095 C109.25201,32.6777162 109.83381,33.1765019 109.83381,33.875663 C109.83381,34.5651108 109.212956,35.0295492 108.357781,35.0295492 C107.565692,35.0295492 106.948844,34.6335048 106.90979,34.0125512 L105.815286,34.0125512 C105.859346,35.1714443 106.900778,35.9586264 108.366793,35.9586264 Z" id="Path" fill="#113287" fill-rule="nonzero"></path>
                <path d="M113.72616,32.1447836 C114.679471,32.1545971 115.207196,31.4407158 115.212203,30.3845639 C115.207196,29.3479389 114.699498,28.6291508 113.72616,28.6340325 C112.782864,28.6291508 112.230104,29.3479389 112.240118,30.3845639 C112.230104,31.435809 112.757829,32.1545971 113.72616,32.1447836 Z M113.041219,35.8607919 L113.931443,35.8607919 L118.792125,28.7807592 L117.901901,28.7807592 L113.041219,35.8607919 Z M113.041219,30.3845639 C113.046226,29.7537968 113.271536,29.328412 113.72616,29.3185985 C114.200813,29.3136918 114.401088,29.74889 114.401088,30.3845639 C114.401088,31.0348578 114.185792,31.4553359 113.72616,31.4602426 C113.271536,31.4553359 113.046226,31.0348578 113.041219,30.3845639 Z M116.709261,34.2472739 C116.704254,35.2887055 117.23198,36.0074936 118.195304,36.0074936 C119.148615,36.0074936 119.67634,35.2936122 119.681347,34.2472739 C119.67634,33.2009355 119.163635,32.4821474 118.195304,32.4870292 C117.252007,32.4821474 116.704254,33.2009355 116.709261,34.2472739 Z M117.510363,34.2472739 C117.515369,33.6067934 117.745686,33.1813085 118.195304,33.1715952 C118.669957,33.1715952 118.870232,33.6018867 118.870232,34.2472739 C118.870232,34.8877543 118.654936,35.3132392 118.195304,35.3132392 C117.740679,35.3132392 117.515369,34.8877543 117.510363,34.2472739 Z" id="Shape" fill="#113287" fill-rule="nonzero"></path>
                <polygon id="Path" fill="#113287" points="4.4509426 64.3404422 4.4509426 0.25229983 6.45369573 0.25229983 6.45369573 64.3404422"></polygon>
                <polygon id="Path" fill="#979797" points="185.199413 64.0880953 185.199413 0 186.20079 0 186.20079 64.0880953"></polygon>
                <polygon id="Path" fill="#979797" points="365.447195 64.0880953 365.447195 0 366.448572 0 366.448572 64.0880953"></polygon>
                <polygon id="Path" fill="#979797" points="545.694977 64.0880953 545.694977 0 546.696354 0 546.696354 64.0880953"></polygon>
                <path d="M36.666829,70.3129524 L39.8532092,73.4993327 C40.0486779,73.6948014 40.0486779,74.0118372 39.8532092,74.207406 L36.666829,77.3936861 C36.4712601,77.589255 36.1542243,77.589255 35.9587556,77.3936861 C35.7631867,77.1982174 35.7631867,76.8811816 35.9587556,76.6856128 L38.2903608,74.3540076 L20.4729677,74.3540076 L20.4729677,73.352631 L38.2903608,73.352631 L35.9587556,71.0210258 C35.7631867,70.825457 35.7631867,70.5084211 35.9587556,70.3129524 C36.1542243,70.1173836 36.4712601,70.1173836 36.666829,70.3129524 Z" id="Path" fill="#113287"></path>
                <polygon id="Path" fill="#001A5B" fill-rule="nonzero" points="719.889438 20.2798732 691.041782 20.2798732 691.041782 44.3129108 719.889438 44.3129108 727.444824 32.296392"></polygon>
            </g>
        </g>
    </g>
</svg>