<?xml version="1.0" encoding="UTF-8"?>
<svg width="727px" height="90px" viewBox="0 0 727 90" version="1.1" xmlns="http://www.w3.org/2000/svg" xmlns:xlink="http://www.w3.org/1999/xlink">
    <title>astigmatism</title>
    <g id="astigmatism" stroke="none" stroke-width="1" fill="none" fill-rule="evenodd">
        <g id="Group" transform="translate(0.000000, -0.000000)">
            <g id="AGE_50_59" transform="translate(0.000000, 0.802862)">
                <path d="M21.7090669,82.7084062 L21.0910173,82.7084062 L21.0910173,85.9706907 L21.6464809,85.9706907 C22.6987274,85.9706907 23.7547791,85.9041993 24.9321977,85.6577606 L24.8618009,85.1492615 C23.7274415,85.3839842 22.7026327,85.4465702 21.7090669,85.4465702 L21.7090669,82.7084062 Z M21.8654819,89.0061635 L26.4420732,89.0061635 L26.4420732,88.4898538 L22.4757208,88.4898538 L22.4757208,86.7374448 L21.8654819,86.7374448 L21.8654819,89.0061635 Z M25.5815904,87.2302222 L26.1917291,87.2302222 L26.1917291,84.8050884 L27.2400702,84.8050884 L27.2400702,84.273057 L26.1917291,84.273057 L26.1917291,82.2077179 L25.5815904,82.2077179 L25.5815904,87.2302222 Z" id="Shape" fill="#001A5B" fill-rule="nonzero"></path>
                <path d="M32.1609348,84.0696775 L32.1609348,82.8023353 L31.5506959,82.8023353 L31.5506959,84.0696775 C31.5428852,85.3878896 30.6862076,86.7178178 29.6496827,87.1911685 L30.0408204,87.7074783 C30.8544388,87.2967136 31.5389798,86.4166037 31.8597208,85.3683627 C32.1921778,86.3579231 32.8767188,87.1833578 33.6708104,87.5666847 L34.0463266,87.0816179 C33.0214177,86.6161781 32.1570295,85.340925 32.1609348,84.0696775 Z M34.8051698,89.1703893 L35.4232194,89.1703893 L35.4232194,82.1999071 L34.8051698,82.1999071 L34.8051698,89.1703893 Z" id="Shape" fill="#001A5B" fill-rule="nonzero"></path>
                <path d="M2.34111227,76.4448959 C3.81529879,76.4448959 4.67781447,75.2567626 4.68222053,73.1708952 C4.67781447,71.098246 3.80210065,69.8968945 2.34111227,69.8968945 C0.875717827,69.8968945 -1.73433206e-14,71.098246 -1.73433206e-14,73.1708952 C-1.73433206e-14,75.2567626 0.866915727,76.4448959 2.34111227,76.4448959 Z M0.968124857,73.1708952 C0.968124857,71.5867174 1.48299263,70.7197256 2.34111227,70.7154197 C3.19482585,70.7197256 3.71408967,71.5867174 3.71408967,73.1708952 C3.71408967,74.759479 3.19922189,75.6088466 2.34111227,75.6088466 C1.47859659,75.6088466 0.963728814,74.759479 0.968124857,73.1708952 Z" id="Shape" fill="#001A5B" fill-rule="nonzero"></path>
                <path d="M7.84183397,76.3568749 C9.78247172,76.3568749 10.9002082,75.1511173 10.9046143,73.1620831 C10.9002082,71.1774548 9.78247172,69.9849155 7.90343866,69.9849155 L5.77356077,69.9849155 L5.77356077,76.3568749 L7.84183397,76.3568749 Z M6.74169163,75.5120135 L6.74169163,70.8297769 L7.84183397,70.8297769 C9.23241557,70.8297769 9.94529555,71.6615203 9.94529555,73.1620831 C9.94529555,74.6670519 9.23241557,75.5076074 7.78903138,75.5120135 L6.74169163,75.5120135 Z" id="Shape" fill="#001A5B" fill-rule="nonzero"></path>
                <polygon id="Path" fill="#001A5B" fill-rule="nonzero" points="183.552148 69.9849155 182.601842 69.9849155 181.017664 71.0234431 181.017664 71.9475134 182.540758 70.9530464 182.575806 70.9530464 182.575806 76.3568749 183.552148 76.3568749"></polygon>
                <path d="M187.32834,76.3568749 C189.269007,76.3568749 190.386544,75.1511173 190.39155,73.1620831 C190.386544,71.1774548 189.269007,69.9849155 187.390425,69.9849155 L185.260497,69.9849155 L185.260497,76.3568749 L187.32834,76.3568749 Z M186.227827,75.5120135 L186.227827,70.8297769 L187.32834,70.8297769 C188.719252,70.8297769 189.432232,71.6615203 189.432232,73.1620831 C189.432232,74.6670519 188.719252,75.5076074 187.275267,75.5120135 L186.227827,75.5120135 Z" id="Shape" fill="#001A5B" fill-rule="nonzero"></path>
                <path d="M360.719696,76.3568749 L365.006589,76.3568749 L365.006589,75.5296377 L362.066548,75.5296377 L362.066548,75.476765 L363.360326,74.1654624 C364.556971,72.9904471 364.891431,72.4227667 364.900443,71.7098868 C364.891431,70.6757652 364.042264,69.8968945 362.814576,69.8968945 C361.599906,69.8968945 360.711685,70.6669531 360.719696,71.8331562 L361.634954,71.8331562 C361.639961,71.1554246 362.088578,70.7066076 362.797553,70.7066076 C363.466472,70.7066076 363.976173,71.1070581 363.976173,71.7363231 C363.976173,72.2951914 363.628695,72.7000479 362.928733,73.4261461 L360.719696,75.652807 L360.719696,76.3568749 Z" id="Path" fill="#001A5B" fill-rule="nonzero"></path>
                <path d="M368.236029,76.3568749 C370.176697,76.3568749 371.294233,75.1511173 371.29924,73.1620831 C371.294233,71.1774548 370.176697,69.9849155 368.298114,69.9849155 L366.168186,69.9849155 L366.168186,76.3568749 L368.236029,76.3568749 Z M367.136517,75.5120135 L367.136517,70.8297769 L368.236029,70.8297769 C369.626941,70.8297769 370.339921,71.6615203 370.339921,73.1620831 C370.339921,74.6670519 369.626941,75.5076074 368.182956,75.5120135 L367.136517,75.5120135 Z" id="Shape" fill="#001A5B" fill-rule="nonzero"></path>
                <path d="M543.097406,76.4448959 C544.418222,76.4448959 545.399571,75.6660252 545.394601,74.6054672 C545.399571,73.8001602 544.892874,73.2148556 544.021677,73.0916863 L544.021677,73.0477259 C544.708621,72.8760899 545.157238,72.356776 545.148225,71.6306779 C545.157238,70.6889834 544.369155,69.8968945 543.115431,69.8968945 C541.926797,69.8968945 540.967478,70.6009624 540.941443,71.63949 L541.874725,71.63949 C541.896756,71.0629975 542.468542,70.7066076 543.106419,70.7066076 C543.779344,70.7066076 544.214943,71.102652 544.214943,71.6835506 C544.214943,72.2951914 543.709247,72.7000479 542.983249,72.6956419 L542.437499,72.6956419 L542.437499,73.4877307 L542.983249,73.4877307 C543.894502,73.4921368 544.418222,73.9409538 544.418222,74.5703189 C544.418222,75.1907719 543.859454,75.6088466 543.088394,75.6088466 C542.376415,75.6088466 541.821653,75.2523565 541.786604,74.6934882 L540.800248,74.6934882 C540.840303,75.7364219 541.777592,76.4448959 543.097406,76.4448959 Z" id="Path" fill="#001A5B" fill-rule="nonzero"></path>
                <path d="M548.615993,76.3568749 C550.55666,76.3568749 551.674197,75.1511173 551.679203,73.1620831 C551.674197,71.1774548 550.55666,69.9849155 548.678078,69.9849155 L546.54815,69.9849155 L546.54815,76.3568749 L548.615993,76.3568749 Z M547.51548,75.5120135 L547.51548,70.8297769 L548.615993,70.8297769 C550.006905,70.8297769 550.719885,71.6615203 550.719885,73.1620831 C550.719885,74.6670519 550.006905,75.5076074 548.56292,75.5120135 L547.51548,75.5120135 Z" id="Shape" fill="#001A5B" fill-rule="nonzero"></path>
                <polygon id="Path" fill="#979797" points="95.0755219 48.8259288 95.0755219 15.2631909 96.0768985 15.2631909 96.0768985 48.8259288"></polygon>
                <polygon id="Path" fill="#979797" points="275.323304 48.8259288 275.323304 15.2631909 276.324681 15.2631909 276.324681 48.8259288"></polygon>
                <polygon id="Path" fill="#979797" points="455.571086 48.8259288 455.571086 15.2631909 456.572463 15.2631909 456.572463 48.8259288"></polygon>
                <polygon id="Path" fill="#979797" points="635.818868 48.8259288 635.818868 15.2631909 636.820245 15.2631909 636.820245 48.8259288"></polygon>
                <polygon id="Path" fill="#979797" points="456.572463 37.3031888 456.572463 16.2742808 455.571086 16.2742808 455.571086 37.3031888"></polygon>
                <polygon id="Path" fill="#979797" points="636.820245 37.3031888 636.820245 16.2742808 635.818868 16.2742808 635.818868 37.3031888"></polygon>
                <rect id="Rectangle" fill="#001A5B" fill-rule="nonzero" x="546.195665" y="20.2797871" width="173.238146" height="24.0330376"></rect>
                <path d="M615.42283,35.1029642 L611.862937,35.1029642 L611.862937,33.1960428 L610.943673,33.1960428 L610.943673,35.1029642 L607.403807,35.1029642 L607.403807,35.8657127 L615.42283,35.8657127 L615.42283,35.1029642 Z M607.795345,32.7755647 L608.146828,33.4991594 C609.613845,33.2693435 610.831519,32.5750892 611.398298,31.5531844 C611.971085,32.5750892 613.192765,33.2693435 614.659781,33.4991594 L615.012266,32.7755647 C613.212792,32.5115017 611.917011,31.4945037 611.87295,30.2623098 L614.679809,30.2623098 L614.679809,29.5092747 L611.862937,29.5092747 L611.862937,28.3358616 L610.943673,28.3358616 L610.943673,29.5092747 L608.127802,29.5092747 L608.127802,30.2623098 L610.933659,30.2623098 C610.889598,31.4945037 609.594819,32.5115017 607.795345,32.7755647 Z" id="Shape" fill="#FFFFFF" fill-rule="nonzero"></path>
                <path d="M623.14845,29.0204026 L616.898859,29.0204026 L616.898859,29.7733377 L622.219173,29.7733377 L622.219173,29.8808855 C622.214166,30.9321306 622.214166,32.174138 621.876702,33.8707703 L622.815993,33.9686048 C623.143444,32.174138 623.143444,30.961471 623.14845,29.8808855 L623.14845,29.0204026 Z M616.058704,35.7581648 L624.047687,35.7581648 L624.047687,34.9856028 L620.019149,34.9856028 L620.019149,31.8954549 L619.099885,31.8954549 L619.099885,34.9856028 L616.058704,34.9856028 L616.058704,35.7581648 Z" id="Shape" fill="#FFFFFF" fill-rule="nonzero"></path>
                <polygon id="Path" fill="#FFFFFF" fill-rule="nonzero" points="631.81236 32.2180984 626.639249 32.2180984 626.639249 29.6071091 631.734253 29.6071091 631.734253 28.854074 625.709972 28.854074 625.709972 32.9613201 628.243454 32.9613201 628.243454 35.1029642 624.712601 35.1029642 624.712601 35.8657127 632.731624 35.8657127 632.731624 35.1029642 629.162718 35.1029642 629.162718 32.9613201 631.81236 32.9613201"></polygon>
                <path d="M638.579663,36.2079832 C640.217915,36.2079832 641.176233,34.8877683 641.180238,32.5701824 C641.176233,30.2672166 640.202895,28.9323816 638.579663,28.9323816 C636.951425,28.9323816 635.978087,30.2672166 635.978087,32.5701824 C635.978087,34.8877683 636.941411,36.2079832 638.579663,36.2079832 Z M637.053545,32.5701824 C637.053545,30.8099627 637.626353,29.8467386 638.579663,29.8418318 C639.527967,29.8467386 640.10476,30.8099627 640.10476,32.5701824 C640.10476,34.3353089 639.532974,35.2790062 638.579663,35.2790062 C637.621346,35.2790062 637.04956,34.3353089 637.053545,32.5701824 Z" id="Shape" fill="#FFFFFF" fill-rule="nonzero"></path>
                <path d="M642.725362,36.1786429 C643.10188,36.1737361 643.415311,35.8657127 643.420318,35.4842884 C643.415311,35.1029642 643.10188,34.790034 642.725362,34.790034 C642.344839,34.790034 642.026401,35.1029642 642.031408,35.4842884 C642.026401,35.8657127 642.344839,36.1737361 642.725362,36.1786429 Z" id="Path" fill="#FFFFFF" fill-rule="nonzero"></path>
                <path d="M646.970198,36.2080513 C648.490287,36.2177967 649.502679,35.1665516 649.502679,33.7925628 C649.502679,32.4381008 648.48528,31.46997 647.224547,31.4651634 C646.456491,31.46997 645.791577,31.822054 645.405046,32.4234807 L645.326939,32.4234807 C645.326939,30.8245828 645.962813,29.8760789 647.058319,29.8711721 C647.7723,29.8760789 648.226925,30.2916502 648.368119,30.8686433 L649.434585,30.8686433 C649.268357,29.7439973 648.363112,28.9323816 647.058319,28.9323816 C645.360985,28.9323816 644.295521,30.3405173 644.290514,32.8049051 C644.290514,35.4208011 645.659396,36.1981697 646.970198,36.2080513 Z M645.454113,33.8219031 C645.464127,33.0346209 646.124034,32.3403665 646.989224,32.3452461 C647.840394,32.3403665 648.45624,33.0004739 648.45624,33.8120896 C648.45624,34.6384256 647.815359,35.3034397 646.960184,35.3083465 C646.089988,35.3034397 645.45912,34.6090852 645.454113,33.8219031 Z" id="Shape" fill="#FFFFFF" fill-rule="nonzero"></path>
                <path d="M652.270484,32.3941404 C653.223794,32.4039539 653.75152,31.6900725 653.756527,30.6339207 C653.75152,29.5972957 653.24282,28.8786077 652.270484,28.8833903 C651.326186,28.8786077 650.774427,29.5972957 650.78344,30.6339207 C650.774427,31.6851658 651.302153,32.4039539 652.270484,32.3941404 Z M651.585542,36.1101487 L652.475766,36.1101487 L657.335446,29.030116 L656.446224,29.030116 L651.585542,36.1101487 Z M651.585542,30.6339207 C651.590549,30.0031536 651.815859,29.5777688 652.270484,29.5679553 C652.744135,29.5631487 652.945412,29.9982468 652.945412,30.6339207 C652.945412,31.2842146 652.730116,31.7046926 652.270484,31.7095994 C651.815859,31.7046926 651.590549,31.2842146 651.585542,30.6339207 Z M655.252583,34.4966306 C655.247576,35.5380623 655.776303,36.2568504 656.739627,36.2568504 C657.692938,36.2568504 658.220663,35.542969 658.22567,34.4966306 C658.220663,33.4502923 657.706957,32.7315042 656.739627,32.7363859 C655.795329,32.7315042 655.247576,33.4502923 655.252583,34.4966306 Z M656.054686,34.4966306 C656.059693,33.8561502 656.289008,33.4307654 656.739627,33.4209519 C657.213278,33.4209519 657.413554,33.8512434 657.413554,34.4966306 C657.413554,35.1372112 657.199259,35.562596 656.739627,35.562596 C656.285002,35.562596 656.059693,35.1372112 656.054686,34.4966306 Z" id="Shape" fill="#FFFFFF" fill-rule="nonzero"></path>
                <rect id="Rectangle" fill="#113287" fill-rule="nonzero" x="365.947883" y="20.2797871" width="180.247782" height="24.0330376"></rect>
                <path d="M442.048497,28.7612464 L435.799907,28.7612464 L435.799907,29.5141814 L441.119219,29.5141814 L441.119219,29.6217292 C441.114213,30.6729744 441.114213,31.9149817 440.77775,33.611614 L441.71604,33.7094485 C442.04349,31.9149817 442.04349,30.7023147 442.048497,29.6217292 L442.048497,28.7612464 Z M434.958751,35.4990086 L442.948734,35.4990086 L442.948734,34.7264466 L438.919195,34.7264466 L438.919195,31.6362986 L437.999931,31.6362986 L437.999931,34.7264466 L434.958751,34.7264466 L434.958751,35.4990086 Z" id="Shape" fill="#FFFFFF" fill-rule="nonzero"></path>
                <polygon id="Path" fill="#FFFFFF" fill-rule="nonzero" points="450.712407 31.9589421 445.539296 31.9589421 445.539296 29.3479529 450.6343 29.3479529 450.6343 28.5950178 444.61102 28.5950178 444.61102 32.7021638 447.143501 32.7021638 447.143501 34.8438079 443.613648 34.8438079 443.613648 35.6065564 451.631671 35.6065564 451.631671 34.8438079 448.062765 34.8438079 448.062765 32.7021638 450.712407 32.7021638"></polygon>
                <path d="M457.528777,35.9488269 C458.995794,35.9488269 460.086293,35.0833372 460.081319,33.9050174 C460.086293,33.0101873 459.523519,32.3598933 458.555188,32.2230052 L458.555188,32.174138 C459.318237,31.9833757 459.816923,31.4064827 459.806909,30.5996736 C459.816923,29.5533352 458.94172,28.6732254 457.548805,28.6732254 C456.227989,28.6732254 455.162524,29.4555007 455.132483,30.6094871 L456.169909,30.6094871 C456.193942,29.9689065 456.829816,29.5728621 457.538791,29.5728621 C458.286819,29.5728621 458.770484,30.0129671 458.770484,30.6583543 C458.770484,31.3379885 458.208712,31.7878069 457.401602,31.7829001 L456.79577,31.7829001 L456.79577,32.6631102 L457.401602,32.6631102 C458.413994,32.6679168 458.995794,33.1667024 458.995794,33.8658635 C458.995794,34.5553113 458.37494,35.0198499 457.518763,35.0198499 C456.726675,35.0198499 456.110828,34.6238055 456.071774,34.0027517 L454.976268,34.0027517 C455.020329,35.1616448 456.061761,35.9488269 457.528777,35.9488269 Z" id="Path" fill="#FFFFFF" fill-rule="nonzero"></path>
                <path d="M461.743571,35.9194866 C462.120089,35.9145799 462.43352,35.6065564 462.437525,35.2251321 C462.43352,34.8438079 462.120089,34.5308777 461.743571,34.5308777 C461.362047,34.5308777 461.04461,34.8438079 461.049617,35.2251321 C461.04461,35.6065564 461.362047,35.9145799 461.743571,35.9194866 Z" id="Path" fill="#FFFFFF" fill-rule="nonzero"></path>
                <path d="M465.890272,35.9488269 C467.527522,35.9488269 468.48584,34.6286121 468.490847,32.3110262 C468.48584,30.0080603 467.513503,28.6732254 465.890272,28.6732254 C464.262033,28.6732254 463.288695,30.0080603 463.288695,32.3110262 C463.288695,34.6286121 464.25202,35.9488269 465.890272,35.9488269 Z M464.364174,32.3110262 C464.364174,30.5508064 464.936961,29.5875823 465.890272,29.5826756 C466.838575,29.5875823 467.415368,30.5508064 467.415368,32.3110262 C467.415368,34.0761526 466.843582,35.0198499 465.890272,35.0198499 C464.931954,35.0198499 464.359167,34.0761526 464.364174,32.3110262 Z" id="Shape" fill="#FFFFFF" fill-rule="nonzero"></path>
                <path d="M471.229611,32.1349841 C472.182922,32.1447976 472.710647,31.4309163 472.715654,30.3747644 C472.710647,29.3381394 472.201948,28.6194514 471.229611,28.6243332 C470.285313,28.6194514 469.733555,29.3381394 469.742567,30.3747644 C469.733555,31.4260095 470.26128,32.1447976 471.229611,32.1349841 Z M470.54467,35.8509925 L471.434894,35.8509925 L476.294574,28.7709597 L475.405352,28.7709597 L470.54467,35.8509925 Z M470.54467,30.3747644 C470.549677,29.7439973 470.774986,29.3186126 471.229611,29.3087991 C471.703263,29.3039925 471.904539,29.7390906 471.904539,30.3747644 C471.904539,31.0250584 471.689243,31.4455364 471.229611,31.4504431 C470.774986,31.4455364 470.549677,31.0250584 470.54467,30.3747644 Z M474.211711,34.2374744 C474.206704,35.2790062 474.735431,35.9976941 475.698755,35.9976941 C476.652066,35.9976941 477.179791,35.2838128 477.184798,34.2374744 C477.179791,33.191136 476.666085,32.4723479 475.698755,32.4772297 C474.754457,32.4723479 474.206704,33.191136 474.211711,34.2374744 Z M475.013813,34.2374744 C475.01882,33.5969939 475.248136,33.1716092 475.698755,33.1617957 C476.172406,33.1617957 476.372681,33.5920872 476.372681,34.2374744 C476.372681,34.878055 476.158387,35.3034397 475.698755,35.3034397 C475.24413,35.3034397 475.01882,34.878055 475.013813,34.2374744 Z" id="Shape" fill="#FFFFFF" fill-rule="nonzero"></path>
                <rect id="Rectangle" fill="#5B6EB4" fill-rule="nonzero" x="185.700101" y="20.2797871" width="180.247782" height="24.0330376"></rect>
                <path d="M261.267982,31.7829001 L253.277999,31.7829001 L253.277999,32.5359353 L256.808853,32.5359353 L256.808853,33.3768914 C255.180614,33.4601058 254.227304,34.0027517 254.227304,34.9220154 C254.227304,35.9145799 255.360862,36.4720462 257.268484,36.4671716 C259.151072,36.4720462 260.284631,35.9145799 260.289638,34.9220154 C260.284631,34.0027517 259.33132,33.4649124 257.728116,33.3768914 L257.728116,32.5359353 L261.267982,32.5359353 L261.267982,31.7829001 Z M253.698577,30.5898601 L254.022022,31.3233684 C255.542111,31.1473264 256.788825,30.5067459 257.273491,29.5777688 C257.747142,30.5067459 259.00387,31.1473264 260.524961,31.3233684 L260.857418,30.5898601 C259.253213,30.4285383 258.02152,29.7195637 257.894345,28.8687942 L260.554001,28.8687942 L260.554001,28.1255725 L254.012008,28.1255725 L254.012008,28.8687942 L256.642624,28.8687942 C256.515449,29.714657 255.273742,30.4285383 253.698577,30.5898601 Z M255.165569,34.9220154 C255.160587,34.3792693 255.928643,34.0859661 257.268484,34.0810594 C258.588299,34.0859661 259.361362,34.3792693 259.361362,34.9220154 C259.361362,35.454948 258.588299,35.7630716 257.268484,35.7532581 C255.928643,35.7630716 255.160587,35.454948 255.165569,34.9220154 Z" id="Shape" fill="#FFFFFF" fill-rule="nonzero"></path>
                <polygon id="Path" fill="#FFFFFF" fill-rule="nonzero" points="269.032656 31.7633733 263.859545 31.7633733 263.859545 29.152384 268.954549 29.152384 268.954549 28.3993489 262.930268 28.3993489 262.930268 32.506595 265.462749 32.506595 265.462749 34.6482391 261.932897 34.6482391 261.932897 35.4109876 269.95192 35.4109876 269.95192 34.6482391 266.382013 34.6482391 266.382013 32.506595 269.032656 32.506595"></polygon>
                <polygon id="Path" fill="#FFFFFF" fill-rule="nonzero" points="276.024268 28.5753909 274.968817 28.5753909 273.208397 29.7293772 273.208397 30.7561888 274.899722 29.6510696 274.938775 29.6510696 274.938775 35.6554236 276.024268 35.6554236"></polygon>
                <polygon id="Path" fill="#FFFFFF" fill-rule="nonzero" points="278.068077 35.6554236 279.192623 35.6554236 282.341952 29.5338084 282.341952 28.5753909 277.579405 28.5753909 277.579405 29.4946546 281.22742 29.4946546 281.22742 29.5533352"></polygon>
                <path d="M282.898718,35.7239178 C283.275235,35.719011 283.588666,35.4109876 283.593673,35.0295633 C283.588666,34.6482391 283.275235,34.3353089 282.898718,34.3353089 C282.518195,34.3353089 282.199757,34.6482391 282.204764,35.0295633 C282.199757,35.4109876 282.518195,35.719011 282.898718,35.7239178 Z" id="Path" fill="#FFFFFF" fill-rule="nonzero"></path>
                <path d="M287.074458,35.7532581 C288.590542,35.7532581 289.671027,34.9220154 289.676034,33.7681292 C289.671027,32.858679 289.016127,32.1154573 288.189991,31.9882825 L288.189991,31.9492288 C288.903973,31.7829001 289.397652,31.137513 289.402659,30.3649509 C289.397652,29.2746521 288.409293,28.4776565 287.074458,28.4776565 C285.720597,28.4776565 284.737245,29.2746521 284.737245,30.3649509 C284.737245,31.137513 285.221911,31.7829001 285.949912,31.9492288 L285.949912,31.9882825 C285.113763,32.1154573 284.463869,32.858679 284.473883,33.7681292 C284.463869,34.9220154 285.534341,35.7532581 287.074458,35.7532581 Z M285.568388,33.6898215 C285.554368,32.9613201 286.194248,32.4283875 287.074458,32.4283875 C287.944654,32.4283875 288.580528,32.9613201 288.580528,33.6898215 C288.580528,34.3841761 287.993722,34.8633347 287.074458,34.8633347 C286.141175,34.8633347 285.554368,34.3841761 285.568388,33.6898215 Z M285.783684,30.4627854 C285.78869,29.802678 286.29739,29.3528596 287.074458,29.3577664 C287.8325,29.3528596 288.351213,29.802678 288.346206,30.4627854 C288.351213,31.1277996 287.813474,31.5825247 287.074458,31.577618 C286.317417,31.5825247 285.78869,31.1228929 285.783684,30.4627854 Z" id="Shape" fill="#FFFFFF" fill-rule="nonzero"></path>
                <path d="M292.413798,31.9394153 C293.36811,31.9492288 293.895835,31.2353474 293.900842,30.1791956 C293.895835,29.1425706 293.387136,28.4238826 292.413798,28.4286652 C291.470501,28.4238826 290.917741,29.1425706 290.927755,30.1791956 C290.917741,31.2304407 291.446468,31.9492288 292.413798,31.9394153 Z M291.729858,35.6554236 L292.61908,35.6554236 L297.479762,28.5753909 L296.589538,28.5753909 L291.729858,35.6554236 Z M291.729858,30.1791956 C291.734865,29.5484285 291.959173,29.1230437 292.413798,29.1132302 C292.88845,29.1084236 293.088726,29.5435217 293.088726,30.1791956 C293.088726,30.8294895 292.87343,31.2499675 292.413798,31.2548743 C291.959173,31.2499675 291.734865,30.8294895 291.729858,30.1791956 Z M295.396899,34.0419055 C295.391892,35.0833372 295.919617,35.8021253 296.882941,35.8021253 C297.836252,35.8021253 298.364979,35.0882439 298.369986,34.0419055 C298.364979,32.9955672 297.851273,32.2767791 296.882941,32.2816609 C295.939645,32.2767791 295.391892,32.9955672 295.396899,34.0419055 Z M296.199001,34.0419055 C296.204008,33.4014251 296.433323,32.9760403 296.882941,32.9662268 C297.357594,32.9662268 297.557869,33.3965183 297.557869,34.0419055 C297.557869,34.6824861 297.342573,35.1078709 296.882941,35.1078709 C296.428317,35.1078709 296.204008,34.6824861 296.199001,34.0419055 Z" id="Shape" fill="#FFFFFF" fill-rule="nonzero"></path>
                <rect id="Rectangle" fill="#E2E6F6" fill-rule="nonzero" x="5.45231917" y="20.2797871" width="180.247782" height="24.0330376"></rect>
                <path d="M79.2011999,27.9398172 L78.2721227,27.9398172 L78.2721227,29.4946546 L76.3701081,29.4946546 C76.4287887,29.2012512 76.4630358,28.888321 76.4630358,28.5656775 L72.4536242,28.5656775 L72.4536242,29.328426 L75.4557511,29.328426 C75.2895226,30.7414685 74.0769557,31.8563011 72.0038058,32.4479143 L72.3754167,33.1716092 C74.2725246,32.6288631 75.5878327,31.6362986 76.1550124,30.2280628 L78.2721227,30.2280628 L78.2721227,31.2940281 L76.0620846,31.2940281 L76.0620846,32.0567766 L78.2721227,32.0567766 L78.2721227,33.1226419 L79.2011999,33.1226419 L79.2011999,27.9398172 Z M73.3630744,34.9318289 C73.3630744,35.9976941 74.5169606,36.6528948 76.3163341,36.6528948 C78.0912741,36.6528948 79.2549738,35.9976941 79.2598806,34.9318289 C79.2549738,33.8707703 78.0912741,33.2253831 76.3163341,33.2204763 C74.5169606,33.2253831 73.3630744,33.8707703 73.3630744,34.9318289 Z M74.2823381,34.9318289 C74.2823381,34.3059685 75.0646134,33.9489778 76.3163341,33.9538845 C77.5436213,33.9489778 78.3258966,34.3059685 78.3308034,34.9318289 C78.3258966,35.5478758 77.5436213,35.9048665 76.3163341,35.9096731 C75.0646134,35.9048665 74.2823381,35.5478758 74.2823381,34.9318289 Z" id="Shape" fill="#113287" fill-rule="nonzero"></path>
                <polygon id="Path" fill="#113287" fill-rule="nonzero" points="87.6503147 31.9687556 82.4771032 31.9687556 82.4771032 29.3577664 87.572007 29.3577664 87.572007 28.6047312 81.5481261 28.6047312 81.5481261 32.7119773 84.0809079 32.7119773 84.0809079 34.8536214 80.5506549 34.8536214 80.5506549 35.6163699 88.5694782 35.6163699 88.5694782 34.8536214 85.0001716 34.8536214 85.0001716 32.7119773 87.6503147 32.7119773"></polygon>
                <path d="M94.5151516,35.9587072 C96.035842,35.9683538 97.0479333,34.9171087 97.0479333,33.54322 C97.0479333,32.1887581 96.0309353,31.2206272 94.7694011,31.2157205 C94.0017458,31.2206272 93.3368318,31.5727112 92.9505007,32.174138 L92.8722932,32.174138 C92.8722932,30.57524 93.507967,29.626636 94.6031726,29.6217292 C95.3170539,29.626636 95.771779,30.0423074 95.913574,30.6192004 L96.9795393,30.6192004 C96.8133108,29.4946546 95.9086672,28.6829387 94.6031726,28.6829387 C92.9065403,28.6829387 91.8405749,30.0911746 91.8356682,32.5554622 C91.8356682,35.1713582 93.2047502,35.9488269 94.5151516,35.9587072 Z M92.999468,33.5725603 C93.0091814,32.7852781 93.6692888,32.0910237 94.5347786,32.0958042 C95.3855481,32.0910237 96.001595,32.751031 96.001595,33.5627469 C96.001595,34.3890828 95.3611145,35.0539968 94.5054382,35.0589036 C93.6350417,35.0539968 93.0042746,34.3597425 92.999468,33.5725603 Z" id="Shape" fill="#113287" fill-rule="nonzero"></path>
                <polygon id="Path" fill="#113287" fill-rule="nonzero" points="98.4365422 35.8608059 99.5611882 35.8608059 102.710017 29.7390906 102.710017 28.7807732 97.9476702 28.7807732 97.9476702 29.7000369 101.595485 29.7000369 101.595485 29.7587176"></polygon>
                <path d="M103.267784,35.9293001 C103.644301,35.9243934 103.956731,35.6163699 103.961738,35.2349456 C103.956731,34.8536214 103.644301,34.5406912 103.267784,34.5406912 C102.886259,34.5406912 102.567821,34.8536214 102.572828,35.2349456 C102.567821,35.6163699 102.886259,35.9243934 103.267784,35.9293001 Z" id="Path" fill="#113287" fill-rule="nonzero"></path>
                <path d="M105.057244,34.4820105 L108.498975,34.4820105 L108.498975,35.8608059 L109.516373,35.8608059 L109.516373,34.4820105 L110.484705,34.4820105 L110.484705,33.5725603 L109.516373,33.5725603 L109.516373,28.7807732 L108.186545,28.7807732 L105.057244,33.611614 L105.057244,34.4820105 Z M106.191803,33.5725603 L106.191803,33.5138797 L108.420867,30.0618342 L108.498975,30.0618342 L108.498975,33.5725603 L106.191803,33.5725603 Z" id="Shape" fill="#113287" fill-rule="nonzero"></path>
                <path d="M113.193428,32.1447976 C114.146739,32.154511 114.674464,31.4407298 114.679471,30.3845779 C114.674464,29.3479529 114.165765,28.6291648 113.193428,28.6340466 C112.24913,28.6291648 111.697372,29.3479529 111.706384,30.3845779 C111.697372,31.435823 112.225097,32.154511 113.193428,32.1447976 Z M112.508487,35.8608059 L113.39871,35.8608059 L118.258391,28.7807732 L117.369168,28.7807732 L112.508487,35.8608059 Z M112.508487,30.3845779 C112.513493,29.7538108 112.738803,29.328426 113.193428,29.3186126 C113.667079,29.3137058 113.868356,29.7489041 113.868356,30.3845779 C113.868356,31.0348719 113.65306,31.4553499 113.193428,31.4602566 C112.738803,31.4553499 112.513493,31.0348719 112.508487,30.3845779 Z M116.175528,34.2472879 C116.170521,35.2887195 116.699248,36.0075076 117.662572,36.0075076 C118.615882,36.0075076 119.143608,35.2936263 119.148615,34.2472879 C119.143608,33.2009495 118.629902,32.4821614 117.662572,32.4870432 C116.718274,32.4821614 116.170521,33.2009495 116.175528,34.2472879 Z M116.97763,34.2472879 C116.982637,33.6067073 117.211952,33.1813225 117.662572,33.1716092 C118.136223,33.1716092 118.336498,33.6019007 118.336498,34.2472879 C118.336498,34.8877683 118.122204,35.3131531 117.662572,35.3131531 C117.207947,35.3131531 116.982637,34.8877683 116.97763,34.2472879 Z" id="Shape" fill="#113287" fill-rule="nonzero"></path>
                <polygon id="Path" fill="#113287" points="4.4509426 64.3403561 4.4509426 0.252295825 6.45369573 0.252295825 6.45369573 64.3403561"></polygon>
                <polygon id="Path" fill="#979797" points="185.199413 64.0881093 185.199413 0 186.20079 0 186.20079 64.0881093"></polygon>
                <polygon id="Path" fill="#979797" points="365.447195 64.0881093 365.447195 0 366.448572 0 366.448572 64.0881093"></polygon>
                <polygon id="Path" fill="#979797" points="545.694977 64.0881093 545.694977 0 546.696354 0 546.696354 64.0881093"></polygon>
                <path d="M36.666829,70.3129665 L39.8532092,73.4992466 C40.0486779,73.6948154 40.0486779,74.0118512 39.8532092,74.2073199 L36.666829,77.3937002 C36.4712601,77.589269 36.1542243,77.589269 35.9587556,77.3937002 C35.7631867,77.1982315 35.7631867,76.8811956 35.9587556,76.6856268 L38.2903608,74.3540216 L20.4729677,74.3540216 L20.4729677,73.352645 L38.2903608,73.352645 L35.9587556,71.0210398 C35.7631867,70.825471 35.7631867,70.5084352 35.9587556,70.3129665 C36.1542243,70.1173976 36.4712601,70.1173976 36.666829,70.3129665 Z" id="Path" fill="#113287"></path>
                <polygon id="Path" fill="#001A5B" fill-rule="nonzero" points="719.889438 20.2797871 691.041782 20.2797871 691.041782 44.3128247 719.889438 44.3128247 727.444824 32.2963059"></polygon>
            </g>
        </g>
    </g>
</svg>