<?xml version="1.0" encoding="UTF-8"?>
<svg width="744px" height="78px" viewBox="0 0 744 78" version="1.1" xmlns="http://www.w3.org/2000/svg" xmlns:xlink="http://www.w3.org/1999/xlink">
    <title>astigmatismAxis</title>
    <g id="astigmatismAxis" stroke="none" stroke-width="1" fill="none" fill-rule="evenodd">
        <g id="AGE_13_18" transform="translate(0.000000, 0.000000)">
            <path d="M2.33981271,76.3870768 C3.81319534,76.3870768 4.67523481,75.1998427 4.67962843,73.1155539 C4.67523481,71.0443731 3.80000448,69.8439309 2.33981271,69.8439309 C0.875237338,69.8439309 0,71.0443731 0,73.1155539 C0,75.1998427 0.866440097,76.3870768 2.33981271,76.3870768 Z M0.967593348,73.1155539 C0.967593348,71.532475 1.48217686,70.6662393 2.33981271,70.6618366 C3.19305495,70.6662393 3.71204208,71.532475 3.71204208,73.1155539 C3.71204208,74.7029354 3.19745857,75.5515602 2.33981271,75.5515602 C1.47778324,75.5515602 0.963199732,74.7029354 0.967593348,73.1155539 Z" id="Shape" fill="#113287" fill-rule="nonzero"></path>
            <path d="M7.06343034,72.8077846 C7.87268638,72.8120662 8.52801573,72.1569611 8.52363417,71.3478608 C8.52801573,70.5387605 7.87268638,69.8835554 7.06343034,69.8791526 C6.25417431,69.8835554 5.59884496,70.5387605 5.60322652,71.3478608 C5.59884496,72.1569611 6.25417431,72.8120662 7.06343034,72.8077846 Z M6.30694774,71.3478608 C6.31135137,70.9301025 6.64560647,70.5958958 7.06343034,70.6002986 C7.48125422,70.5958958 7.81551933,70.9301025 7.8111157,71.3478608 C7.81551933,71.7612164 7.48125422,72.0997257 7.06343034,72.1041284 C6.64560647,72.0997257 6.31135137,71.7612164 6.30694774,71.3478608 Z" id="Shape" fill="#113287" fill-rule="nonzero"></path>
            <polygon id="Path" fill="#113287" fill-rule="nonzero" points="12.0069189 69.6329004 11.1713312 69.6329004 9.12176439 77.2577152 9.95743216 77.2577152"></polygon>
            <polygon id="Path" fill="#113287" fill-rule="nonzero" points="15.1120745 69.9318852 14.1620927 69.9318852 12.5786895 70.9696269 12.5786895 71.893098 14.1004419 70.8992834 14.1356709 70.8992834 14.1356709 76.2991224 15.1120745 76.2991224"></polygon>
            <path d="M18.9560382,76.3870768 C20.3194603,76.3870768 21.2914603,75.6395145 21.2958639,74.6017729 C21.2914603,73.7838671 20.7020752,73.1155539 19.9587635,73.0011831 L19.9587635,72.9660614 C20.6008919,72.8164689 21.0451576,72.2361101 21.0495612,71.5412804 C21.0451576,70.560674 20.1567264,69.8439309 18.9560382,69.8439309 C17.7377355,69.8439309 16.8537079,70.560674 16.8537079,71.5412804 C16.8537079,72.2361101 17.2891663,72.8164689 17.9445057,72.9660614 L17.9445057,73.0011831 C17.1923867,73.1155539 16.6074052,73.7838671 16.6162125,74.6017729 C16.6074052,75.6395145 17.5705979,76.3870768 18.9560382,76.3870768 Z M17.6014233,74.5314294 C17.5882124,73.8762242 18.1643866,73.3969278 18.9560382,73.3969278 C19.7388825,73.3969278 20.3106531,73.8762242 20.3106531,74.5314294 C20.3106531,75.1558154 19.7829187,75.5867819 18.9560382,75.5867819 C18.1159468,75.5867819 17.5882124,75.1558154 17.6014233,74.5314294 Z M17.7948825,71.6292348 C17.7992862,71.0356678 18.2567627,70.6311176 18.9560382,70.6355203 C19.6376992,70.6311176 20.103983,71.0356678 20.0995794,71.6292348 C20.103983,72.2273046 19.6201848,72.6362575 18.9560382,72.6318548 C18.2742771,72.6362575 17.7992862,72.2229019 17.7948825,71.6292348 Z" id="Shape" fill="#113287" fill-rule="nonzero"></path>
            <path d="M24.5153136,76.3870768 C25.9886262,76.3870768 26.8507357,75.1998427 26.8551393,73.1155539 C26.8507357,71.0443731 25.9755154,69.8439309 24.5153136,69.8439309 C23.0507082,69.8439309 22.1754879,71.0443731 22.1754879,73.1155539 C22.1754879,75.1998427 23.0419009,76.3870768 24.5153136,76.3870768 Z M23.1430842,73.1155539 C23.1430842,71.532475 23.6576077,70.6662393 24.5153136,70.6618366 C25.3685158,70.6662393 25.887543,71.532475 25.887543,73.1155539 C25.887543,74.7029354 25.3729194,75.5515602 24.5153136,75.5515602 C23.6533041,75.5515602 23.1386806,74.7029354 23.1430842,73.1155539 Z" id="Shape" fill="#113287" fill-rule="nonzero"></path>
            <path d="M29.2389012,72.8077846 C30.0481672,72.8120662 30.7035066,72.1569611 30.699125,71.3478608 C30.7035066,70.5387605 30.0481672,69.8835554 29.2389012,69.8791526 C28.4296352,69.8835554 27.7742958,70.5387605 27.7786774,71.3478608 C27.7742958,72.1569611 28.4296352,72.8120662 29.2389012,72.8077846 Z M28.4823786,71.3478608 C28.4867822,70.9301025 28.8210573,70.5958958 29.2389012,70.6002986 C29.6567451,70.5958958 29.9910202,70.9301025 29.9866166,71.3478608 C29.9910202,71.7612164 29.6567451,72.0997257 29.2389012,72.1041284 C28.8210573,72.0997257 28.4867822,71.7612164 28.4823786,71.3478608 Z" id="Shape" fill="#113287" fill-rule="nonzero"></path>
            <path d="M239.604837,76.4809348 C240.923922,76.4809348 241.904729,75.7025535 241.90075,74.6427982 C241.904729,73.8381006 241.399313,73.2533391 240.528597,73.1301629 L240.528597,73.0862357 C241.214161,72.9147297 241.663531,72.3958088 241.654523,71.6702602 C241.663531,70.7292783 240.875883,69.9377889 239.622851,69.9377889 C238.434874,69.9377889 237.476085,70.6413239 237.450063,71.6790656 L238.38183,71.6790656 C238.403848,71.1030094 238.976319,70.7468892 239.613844,70.7468892 C240.286397,70.7468892 240.721756,71.1426339 240.721756,71.7230928 C240.721756,72.3342707 240.21634,72.7388209 239.490743,72.7344182 L238.945294,72.7344182 L238.945294,73.5259076 L239.490743,73.5259076 C240.400491,73.5303103 240.923922,73.9788877 240.923922,74.6076765 C240.923922,75.2276599 240.365463,75.6454182 239.595829,75.6454182 C238.883243,75.6454182 238.329787,75.2891979 238.294758,74.7307526 L237.308947,74.7307526 C237.34898,75.772897 238.285751,76.4809348 239.604837,76.4809348 Z" id="Path" fill="#113287" fill-rule="nonzero"></path>
            <path d="M245.181426,76.4809348 C246.655639,76.4809348 247.517349,75.2936006 247.521352,73.2093118 C247.517349,71.1382312 246.641628,69.9377889 245.181426,69.9377889 C243.717221,69.9377889 242.8415,71.1382312 242.8415,73.2093118 C242.8415,75.2936006 243.708214,76.4809348 245.181426,76.4809348 Z M243.809274,73.2093118 C243.809274,71.626333 244.32372,70.7600974 245.181426,70.7556946 C246.035129,70.7600974 246.553555,71.626333 246.553555,73.2093118 C246.553555,74.7966934 246.039132,75.6454182 245.181426,75.6454182 C244.319717,75.6454182 243.805294,74.7966934 243.809274,73.2093118 Z" id="Shape" fill="#113287" fill-rule="nonzero"></path>
            <path d="M249.905314,72.9015436 C250.71498,72.9059242 251.369519,72.2507191 251.365534,71.4416188 C251.369519,70.6325185 250.71498,69.9773133 249.905314,69.9729106 C249.095648,69.9773133 248.441109,70.6325185 248.445094,71.4416188 C248.441109,72.2507191 249.095648,72.9059242 249.905314,72.9015436 Z M249.148691,71.4416188 C249.153695,71.0238605 249.487971,70.6897539 249.905314,70.6940565 C250.323658,70.6897539 250.657933,71.0238605 250.652929,71.4416188 C250.657933,71.8549744 250.323658,72.1935838 249.905314,72.1979865 C249.487971,72.1935838 249.153695,71.8549744 249.148691,71.4416188 Z" id="Shape" fill="#113287" fill-rule="nonzero"></path>
            <polygon id="Path" fill="#113287" fill-rule="nonzero" points="254.849383 69.7267584 254.013695 69.7267584 251.964008 77.3515732 252.799696 77.3515732"></polygon>
            <polygon id="Path" fill="#113287" fill-rule="nonzero" points="257.953938 70.0257433 257.004157 70.0257433 255.420853 71.063485 255.420853 71.9868559 256.942105 70.9931415 256.977134 70.9931415 256.977134 76.3929804 257.953938 76.3929804"></polygon>
            <path d="M261.736051,76.4809348 C263.065145,76.4809348 264.005919,75.5794774 264.005919,74.3262025 C264.005919,73.0994439 263.122192,72.2111946 261.921203,72.2067919 C261.437805,72.2111946 260.988436,72.3826006 260.725219,72.6376583 L260.663168,72.6376583 L260.874342,70.8524545 L263.680651,70.8524545 L263.680651,70.0257433 L260.073683,70.0257433 L259.660343,73.5699348 L260.575095,73.5699348 C260.791273,73.1785928 261.182595,73.0070868 261.692015,73.0070868 C262.492674,73.0158922 263.065145,73.5787403 263.065145,74.3526188 C263.065145,75.1089865 262.510688,75.6674318 261.736051,75.6718345 C261.094523,75.6674318 260.575095,75.2716871 260.522052,74.7307526 L259.581278,74.7307526 C259.625314,75.7465807 260.531059,76.4809348 261.736051,76.4809348 Z" id="Path" fill="#113287" fill-rule="nonzero"></path>
            <path d="M267.25159,76.4809348 C268.724803,76.4809348 269.587513,75.2936006 269.591516,73.2093118 C269.587513,71.1382312 268.711792,69.9377889 267.25159,69.9377889 C265.787385,69.9377889 264.911665,71.1382312 264.911665,73.2093118 C264.911665,75.2936006 265.778378,76.4809348 267.25159,76.4809348 Z M265.879438,73.2093118 C265.879438,71.626333 266.393884,70.7600974 267.25159,70.7556946 C268.105293,70.7600974 268.62372,71.626333 268.62372,73.2093118 C268.62372,74.7966934 268.109296,75.6454182 267.25159,75.6454182 C266.389881,75.6454182 265.875458,74.7966934 265.879438,73.2093118 Z" id="Shape" fill="#113287" fill-rule="nonzero"></path>
            <path d="M271.975478,72.9015436 C272.784144,72.9059242 273.439683,72.2507191 273.435698,71.4416188 C273.439683,70.6325185 272.784144,69.9773133 271.975478,69.9729106 C271.165812,69.9773133 270.510272,70.6325185 270.515248,71.4416188 C270.510272,72.2507191 271.165812,72.9059242 271.975478,72.9015436 Z M271.218855,71.4416188 C271.222859,71.0238605 271.557134,70.6897539 271.975478,70.6940565 C272.392822,70.6897539 272.727097,71.0238605 272.723094,71.4416188 C272.727097,71.8549744 272.392822,72.1935838 271.975478,72.1979865 C271.557134,72.1935838 271.222859,71.8549744 271.218855,71.4416188 Z" id="Shape" fill="#113287" fill-rule="nonzero"></path>
            <path d="M480.623199,76.3871378 C481.991325,76.3958822 482.901074,75.4504977 482.901074,74.2148336 C482.901074,72.9967804 481.986321,72.1261421 480.851387,72.1217393 C480.160819,72.1261421 479.563327,72.4427378 479.216041,72.9835722 L479.144983,72.9835722 C479.144983,71.5456831 479.717454,70.6926557 480.702264,70.6882529 C481.344793,70.6926557 481.753129,71.0663868 481.881235,71.5853076 L482.840024,71.5853076 C482.6899,70.5738822 481.876231,69.8439309 480.702264,69.8439309 C479.176008,69.8439309 478.217219,71.110414 478.213216,73.3265843 C478.213216,75.679139 479.444229,76.3782713 480.623199,76.3871378 Z M479.260078,74.2412499 C479.268084,73.5332121 479.862573,72.908826 480.640213,72.9132044 C481.405844,72.908826 481.9603,73.5024931 481.9603,74.2324445 C481.9603,74.975604 481.383825,75.5735738 480.614192,75.5779765 C479.831548,75.5735738 479.264081,74.9491877 479.260078,74.2412499 Z" id="Shape" fill="#113287" fill-rule="nonzero"></path>
            <path d="M486.146745,76.3870768 C487.620959,76.3870768 488.482668,75.1998427 488.486671,73.1155539 C488.482668,71.0443731 487.606947,69.8439309 486.146745,69.8439309 C484.68254,69.8439309 483.80782,71.0443731 483.80782,73.1155539 C483.80782,75.1998427 484.673533,76.3870768 486.146745,76.3870768 Z M484.774593,73.1155539 C484.774593,71.532475 485.289039,70.6662393 486.146745,70.6618366 C487.000448,70.6662393 487.519876,71.532475 487.519876,73.1155539 C487.519876,74.7029354 487.004451,75.5515602 486.146745,75.5515602 C485.285036,75.5515602 484.770613,74.7029354 484.774593,73.1155539 Z" id="Shape" fill="#113287" fill-rule="nonzero"></path>
            <path d="M490.870633,72.8077846 C491.6803,72.8120662 492.335839,72.1569611 492.330863,71.3478608 C492.335839,70.5387605 491.6803,69.8835554 490.870633,69.8791526 C490.061968,69.8835554 489.406428,70.5387605 489.410413,71.3478608 C489.406428,72.1569611 490.061968,72.8120662 490.870633,72.8077846 Z M490.114011,71.3478608 C490.119015,70.9301025 490.45329,70.5958958 490.870633,70.6002986 C491.288978,70.5958958 491.623253,70.9301025 491.618249,71.3478608 C491.623253,71.7612164 491.288978,72.0997257 490.870633,72.1041284 C490.45329,72.0997257 490.119015,71.7612164 490.114011,71.3478608 Z" id="Shape" fill="#113287" fill-rule="nonzero"></path>
            <polygon id="Path" fill="#113287" fill-rule="nonzero" points="495.814702 69.6329004 494.979015 69.6329004 492.929328 77.2577152 493.765015 77.2577152"></polygon>
            <polygon id="Path" fill="#113287" fill-rule="nonzero" points="498.919257 69.9318852 497.969476 69.9318852 496.386173 70.9696269 496.386173 71.893098 497.907425 70.8992834 497.943454 70.8992834 497.943454 76.2991224 498.919257 76.2991224"></polygon>
            <path d="M500.537589,76.2991224 L504.822116,76.2991224 L504.822116,75.4724112 L501.883697,75.4724112 L501.883697,75.4196786 L503.176761,74.1092683 C504.372746,72.9352424 504.707021,72.3679916 504.716028,71.6556511 C504.707021,70.6223122 503.858322,69.8439309 502.631313,69.8439309 C501.417313,69.8439309 500.529583,70.6135067 500.537589,71.7787272 L501.452342,71.7787272 C501.457346,71.1016085 501.905715,70.6530312 502.614299,70.6530312 C503.282849,70.6530312 503.792268,71.0531786 503.792268,71.6820675 C503.792268,72.2405128 503.444982,72.6450629 502.745406,73.3706116 L500.537589,75.5955874 L500.537589,76.2991224 Z" id="Path" fill="#113287" fill-rule="nonzero"></path>
            <path d="M508.111823,76.3870768 C509.585036,76.3870768 510.446745,75.1998427 510.451749,73.1155539 C510.446745,71.0443731 509.572025,69.8439309 508.111823,69.8439309 C506.646617,69.8439309 505.771897,71.0443731 505.771897,73.1155539 C505.771897,75.1998427 506.638611,76.3870768 508.111823,76.3870768 Z M506.739694,73.1155539 C506.739694,71.532475 507.254117,70.6662393 508.111823,70.6618366 C508.964525,70.6662393 509.483952,71.532475 509.483952,73.1155539 C509.483952,74.7029354 508.969529,75.5515602 508.111823,75.5515602 C507.249113,75.5515602 506.73469,74.7029354 506.739694,73.1155539 Z" id="Shape" fill="#113287" fill-rule="nonzero"></path>
            <path d="M512.83471,72.8077846 C513.644376,72.8120662 514.299916,72.1569611 514.29494,71.3478608 C514.299916,70.5387605 513.644376,69.8835554 512.83471,69.8791526 C512.026045,69.8835554 511.370505,70.5387605 511.37449,71.3478608 C511.370505,72.1569611 512.026045,72.8120662 512.83471,72.8077846 Z M512.079088,71.3478608 C512.083092,70.9301025 512.417367,70.5958958 512.83471,70.6002986 C513.253054,70.5958958 513.58733,70.9301025 513.583326,71.3478608 C513.58733,71.7612164 513.253054,72.0997257 512.83471,72.1041284 C512.417367,72.0997257 512.083092,71.7612164 512.079088,71.3478608 Z" id="Shape" fill="#113287" fill-rule="nonzero"></path>
            <path d="M732.177233,69.8439702 C730.792093,69.8352255 729.890351,70.7850128 729.890351,71.9986632 C729.890351,73.2167164 730.805104,74.0917575 731.949046,74.0917575 C732.63461,74.0917575 733.233102,73.7663563 733.576385,73.2299246 L733.65545,73.2299246 C733.646443,74.6854246 733.069968,75.538452 732.089161,75.5428548 C731.447633,75.538452 731.033292,75.164721 730.902184,74.6281892 L729.943395,74.6281892 C730.096521,75.6616282 730.915195,76.3871769 732.089161,76.3871769 C733.615417,76.3871769 734.578209,75.1206937 734.578209,72.8869125 C734.574206,70.5563714 733.347196,69.8528364 732.177233,69.8439702 Z M730.831105,71.9810523 C730.827122,71.251101 731.4076,70.6531312 732.177233,70.6531312 C732.955874,70.6531312 733.523341,71.28192 733.523341,71.972347 C733.523341,72.675882 732.929853,73.3046708 732.159219,73.3002928 C731.385582,73.3046708 730.83613,72.7198091 730.831105,71.9810523 Z" id="Shape" fill="#113287" fill-rule="nonzero"></path>
            <path d="M737.815874,76.3871769 C739.289087,76.3871769 740.150796,75.1998427 740.1558,73.1155539 C740.150796,71.0444732 739.276076,69.8440309 737.815874,69.8440309 C736.350668,69.8440309 735.475948,71.0444732 735.475948,73.1155539 C735.475948,75.1998427 736.342662,76.3871769 737.815874,76.3871769 Z M736.443745,73.1155539 C736.443745,71.532575 736.958168,70.6663394 737.815874,70.6619367 C738.668576,70.6663394 739.188003,71.532575 739.188003,73.1155539 C739.188003,74.7030355 738.67358,75.5516602 737.815874,75.5516602 C736.954165,75.5516602 736.438741,74.7030355 736.443745,73.1155539 Z" id="Shape" fill="#113287" fill-rule="nonzero"></path>
            <path d="M742.539762,72.8077856 C743.348427,72.8121663 744.003967,72.1569611 743.999982,71.3478608 C744.003967,70.5387605 743.348427,69.8835554 742.539762,69.8792527 C741.730096,69.8835554 741.074556,70.5387605 741.079532,71.3478608 C741.074556,72.1569611 741.730096,72.8121663 742.539762,72.8077856 Z M741.783139,71.3478608 C741.787142,70.9301025 742.121418,70.5959959 742.539762,70.6003986 C742.957105,70.5959959 743.291381,70.9301025 743.287377,71.3478608 C743.291381,71.7612164 742.957105,72.0998258 742.539762,72.1042285 C742.121418,72.0998258 741.787142,71.7612164 741.783139,71.3478608 Z" id="Shape" fill="#113287" fill-rule="nonzero"></path>
            <rect id="Rectangle" fill="#5B6EB4" fill-rule="nonzero" x="496.767486" y="20.2644735" width="240.197687" height="24.0148495"></rect>
            <polygon id="Path" fill="#FFFFFF" fill-rule="nonzero" points="598.55526 31.9200807 593.385005 31.9200807 593.385005 29.3110674 598.477196 29.3110674 598.477196 28.5587022 592.457241 28.5587022 592.457241 32.6627399 594.988324 32.6627399 594.988324 34.8027632 591.460421 34.8027632 591.460421 35.5649345 599.474016 35.5649345 599.474016 34.8027632 595.90708 34.8027632 595.90708 32.6627399 598.55526 32.6627399"></polygon>
            <path d="M601.438633,28.509772 L600.509869,28.509772 L600.509869,32.6627399 L601.223456,32.6627399 C602.52853,32.667643 603.872636,32.5845916 605.338843,32.2817043 L605.230754,31.519533 C603.872636,31.8029083 602.626611,31.8810566 601.438633,31.8810566 L601.438633,28.509772 Z M601.458649,36.4541844 L607.293452,36.4541844 L607.293452,35.7017191 L602.396421,35.7017191 L602.396421,33.591114 L601.458649,33.591114 L601.458649,36.4541844 Z M606.061438,34.2066946 L606.990202,34.2066946 L606.990202,31.2361578 L608.261248,31.2361578 L608.261248,30.4445683 L606.990202,30.4445683 L606.990202,27.8941913 L606.061438,27.8941913 L606.061438,34.2066946 Z" id="Shape" fill="#FFFFFF" fill-rule="nonzero"></path>
            <path d="M611.975305,30.1123629 L611.975305,28.6173385 L611.036532,28.6173385 L611.036532,30.1123629 C611.036532,31.7832961 610.068736,33.4591324 608.690601,34.0699101 L609.258068,34.8515934 C610.308933,34.3385762 611.114596,33.2833237 611.51993,31.9983291 C611.931269,33.1953693 612.727924,34.1773765 613.733752,34.6561726 L614.291211,33.9233194 C612.933093,33.3223478 611.965297,31.7100508 611.975305,30.1123629 Z M615.082862,36.6594113 L616.011627,36.6594113 L616.011627,27.8843853 L615.082862,27.8843853 L615.082862,36.6594113 Z" id="Shape" fill="#FFFFFF" fill-rule="nonzero"></path>
            <path d="M622.716145,35.9070141 C624.236396,35.9167521 625.247228,34.8663025 625.247228,33.4933535 C625.247228,32.1400167 624.231392,31.1726185 622.970354,31.1677155 C622.202722,31.1726185 621.538175,31.524336 621.151857,32.1253076 L621.073793,32.1253076 C621.073793,30.5276197 621.709316,29.5798336 622.804217,29.5749306 C623.517804,29.5798336 623.972178,29.9950904 624.113295,30.5716469 L625.179172,30.5716469 C625.013035,29.447852 624.109291,28.6368505 622.804217,28.6368505 C621.108822,28.6368505 620.042945,30.0439206 620.03794,32.5064433 C620.03794,35.1203596 621.406066,35.89724 622.716145,35.9070141 Z M621.200898,33.5226717 C621.210906,32.7360853 621.870449,32.0422563 622.736161,32.0471321 C623.58586,32.0422563 624.201367,32.7018641 624.201367,33.5128656 C624.201367,34.3385762 623.561841,35.0030871 622.706136,35.0079901 C621.836421,35.0030871 621.205902,34.3092581 621.200898,33.5226717 Z" id="Shape" fill="#FFFFFF" fill-rule="nonzero"></path>
            <path d="M626.762475,35.8776279 C627.138785,35.8727248 627.451042,35.5649345 627.456046,35.1838989 C627.451042,34.8027632 627.138785,34.4900699 626.762475,34.4900699 C626.381161,34.4900699 626.0639,34.8027632 626.068904,35.1838989 C626.0639,35.5649345 626.381161,35.8727248 626.762475,35.8776279 Z" id="Path" fill="#FFFFFF" fill-rule="nonzero"></path>
            <path d="M630.964934,35.906946 C632.43114,35.906946 633.521037,35.0422113 633.516066,33.8646832 C633.521037,32.9706303 632.958574,32.3207285 631.991779,32.1839439 L631.991779,32.1351137 C632.753406,31.9445959 633.251816,31.3680394 633.242808,30.5618409 C633.251816,29.5162943 632.377096,28.6368505 630.98495,28.6368505 C629.664864,28.6368505 628.599987,29.4185339 628.570963,30.5716469 L629.606816,30.5716469 C629.630836,29.9315511 630.266359,29.5358064 630.974942,29.5358064 C631.722557,29.5358064 632.205955,29.9755783 632.205955,30.6204771 C632.205955,31.299597 631.644493,31.749075 630.837829,31.744272 L630.232331,31.744272 L630.232331,32.6237158 L630.837829,32.6237158 C631.849662,32.6286188 632.43114,33.126927 632.43114,33.825559 C632.43114,34.514485 631.81063,34.978672 630.954925,34.978672 C630.163274,34.978672 629.547767,34.5829273 629.508735,33.9624436 L628.413834,33.9624436 C628.45787,35.1203596 629.498727,35.906946 630.964934,35.906946 Z" id="Path" fill="#FFFFFF" fill-rule="nonzero"></path>
            <path d="M636.321342,32.0959895 C637.274126,32.1057956 637.80156,31.3924545 637.806564,30.3371019 C637.80156,29.3013614 637.293142,28.5831173 636.321342,28.5879954 C635.377565,28.5831173 634.826111,29.3013614 634.835119,30.3371019 C634.826111,31.3875514 635.353546,32.1057956 636.321342,32.0959895 Z M635.636779,35.8092856 L636.526511,35.8092856 L641.383508,28.734611 L640.494777,28.734611 L635.636779,35.8092856 Z M635.636779,30.3371019 C635.641783,29.7068121 635.866968,29.2817493 636.321342,29.2720433 C636.794732,29.2671403 636.995897,29.7020092 636.995897,30.3371019 C636.995897,30.9869037 636.78072,31.4071636 636.321342,31.4119665 C635.866968,31.4071636 635.641783,30.9869037 635.636779,30.3371019 Z M639.301795,34.1968886 C639.296791,35.2376321 639.825226,35.9558762 640.788018,35.9558762 C641.740802,35.9558762 642.268236,35.2425351 642.273241,34.1968886 C642.268236,33.1513421 641.754814,32.4330979 640.788018,32.437976 C639.844241,32.4330979 639.296791,33.1513421 639.301795,34.1968886 Z M640.103455,34.1968886 C640.108459,33.5568928 640.337648,33.13183 640.788018,33.1220239 C641.261408,33.1220239 641.461573,33.5519898 641.461573,34.1968886 C641.461573,34.8369844 641.247396,35.2620472 640.788018,35.2620472 C640.333644,35.2620472 640.108459,34.8369844 640.103455,34.1968886 Z" id="Shape" fill="#FFFFFF" fill-rule="nonzero"></path>
            <rect id="Rectangle" fill="#113287" fill-rule="nonzero" x="255.568975" y="20.2644735" width="241.198511" height="24.0148495"></rect>
            <path d="M353.884891,30.1123629 L353.884891,28.6173385 L352.956127,28.6173385 L352.956127,30.1123629 C352.951123,31.7149539 352.042375,33.3956932 350.698269,34.0405919 L351.274743,34.7929572 C352.271563,34.275137 353.039195,33.2246874 353.430517,31.98362 C353.815834,33.1513421 354.554442,34.1285463 355.507226,34.6268544 L356.083701,33.8841952 C354.778627,33.2491025 353.874883,31.6612207 353.884891,30.1123629 Z M356.73824,36.6397991 L357.667004,36.6397991 L357.667004,32.1644318 L359.074162,32.1644318 L359.074162,31.3729424 L357.667004,31.3729424 L357.667004,27.8843853 L356.73824,27.8843853 L356.73824,36.6397991 Z" id="Shape" fill="#FFFFFF" fill-rule="nonzero"></path>
            <path d="M360.823602,28.509772 L359.894838,28.509772 L359.894838,32.6627399 L360.608425,32.6627399 C361.913499,32.667643 363.257605,32.5845916 364.723812,32.2817043 L364.615723,31.519533 C363.257605,31.8029083 362.01158,31.8810566 360.823602,31.8810566 L360.823602,28.509772 Z M360.843618,36.4541844 L366.678421,36.4541844 L366.678421,35.7017191 L361.78139,35.7017191 L361.78139,33.591114 L360.843618,33.591114 L360.843618,36.4541844 Z M365.446407,34.2066946 L366.375171,34.2066946 L366.375171,31.2361578 L367.646217,31.2361578 L367.646217,30.4445683 L366.375171,30.4445683 L366.375171,27.8941913 L365.446407,27.8941913 L365.446407,34.2066946 Z" id="Shape" fill="#FFFFFF" fill-rule="nonzero"></path>
            <path d="M371.360274,30.1123629 L371.360274,28.6173385 L370.421501,28.6173385 L370.421501,30.1123629 C370.421501,31.7832961 369.453705,33.4591324 368.07557,34.0699101 L368.643038,34.8515934 C369.693902,34.3385762 370.499565,33.2833237 370.904899,31.9983291 C371.316238,33.1953693 372.112893,34.1773765 373.118721,34.6561726 L373.67618,33.9233194 C372.318062,33.3223478 371.350266,31.7100508 371.360274,30.1123629 Z M374.467831,36.6594113 L375.396596,36.6594113 L375.396596,27.8843853 L374.467831,27.8843853 L374.467831,36.6594113 Z" id="Shape" fill="#FFFFFF" fill-rule="nonzero"></path>
            <path d="M381.974009,28.6367828 C380.434742,28.6270445 379.432918,29.682397 379.432918,31.0309309 C379.432918,32.3842677 380.449755,33.356569 381.7198,33.356569 C382.482428,33.356569 383.146975,32.9950454 383.528288,32.3989768 L383.616361,32.3989768 C383.606353,34.0161768 382.965825,34.9639629 381.875928,34.9688659 C381.162341,34.9639629 380.702963,34.5487061 380.556843,33.9526375 L379.491966,33.9526375 C379.662106,35.1008475 380.571855,35.906946 381.875928,35.906946 C383.572325,35.906946 384.642205,34.4998759 384.642205,32.0178412 C384.637201,29.42834 383.274079,28.6466566 381.974009,28.6367828 Z M380.47875,31.0113188 C380.473774,30.2003173 381.119306,29.5358064 381.974009,29.5358064 C382.838721,29.5358064 383.46924,30.2345385 383.46924,31.0016128 C383.46924,31.7832961 382.809697,32.4820282 381.953993,32.4771527 C381.094285,32.4820282 380.483783,31.8322264 380.47875,31.0113188 Z" id="Shape" fill="#FFFFFF" fill-rule="nonzero"></path>
            <path d="M386.206493,35.8776279 C386.582802,35.8727248 386.895059,35.5649345 386.900063,35.1838989 C386.895059,34.8027632 386.582802,34.4900699 386.206493,34.4900699 C385.825179,34.4900699 385.506917,34.8027632 385.511921,35.1838989 C385.506917,35.5649345 385.825179,35.8727248 386.206493,35.8776279 Z" id="Path" fill="#FFFFFF" fill-rule="nonzero"></path>
            <path d="M390.349903,35.906946 C391.98725,35.906946 392.945039,34.5878303 392.950043,32.2718983 C392.945039,29.9706753 391.972238,28.6368505 390.349903,28.6368505 C388.722563,28.6368505 387.750764,29.9706753 387.750764,32.2718983 C387.750764,34.5878303 388.712555,35.906946 390.349903,35.906946 Z M388.825648,32.2718983 C388.825648,30.5130107 389.397119,29.5505155 390.349903,29.5456125 C391.297683,29.5505155 391.875158,30.5130107 391.875158,32.2718983 C391.875158,34.0356889 391.302687,34.978672 390.349903,34.978672 C389.392114,34.978672 388.820644,34.0356889 388.825648,32.2718983 Z" id="Shape" fill="#FFFFFF" fill-rule="nonzero"></path>
            <path d="M395.686295,32.0959895 C396.639079,32.1057956 397.167514,31.3924545 397.172518,30.3371019 C397.167514,29.3013614 396.659095,28.5831173 395.686295,28.5879954 C394.743519,28.5831173 394.191064,29.3013614 394.201072,30.3371019 C394.191064,31.3875514 394.718498,32.1057956 395.686295,32.0959895 Z M395.002732,35.8092856 L395.891464,35.8092856 L400.749462,28.734611 L399.859729,28.734611 L395.002732,35.8092856 Z M395.002732,30.3371019 C395.006735,29.7068121 395.231921,29.2817493 395.686295,29.2720433 C396.160685,29.2671403 396.36085,29.7020092 396.36085,30.3371019 C396.36085,30.9869037 396.145673,31.4071636 395.686295,31.4119665 C395.231921,31.4071636 395.006735,30.9869037 395.002732,30.3371019 Z M398.667748,34.1968886 C398.662744,35.2376321 399.190178,35.9558762 400.152971,35.9558762 C401.105755,35.9558762 401.63419,35.2425351 401.638193,34.1968886 C401.63419,33.1513421 401.120767,32.4330979 400.152971,32.437976 C399.210195,32.4330979 398.662744,33.1513421 398.667748,34.1968886 Z M399.468407,34.1968886 C399.473412,33.5568928 399.703601,33.13183 400.152971,33.1220239 C400.627361,33.1220239 400.827526,33.5519898 400.827526,34.1968886 C400.827526,34.8369844 400.612349,35.2620472 400.152971,35.2620472 C399.698597,35.2620472 399.473412,34.8369844 399.468407,34.1968886 Z" id="Shape" fill="#FFFFFF" fill-rule="nonzero"></path>
            <rect id="Rectangle" fill="#E2E6F6" fill-rule="nonzero" x="15.371488" y="20.2644735" width="240.197687" height="24.0148495"></rect>
            <path d="M112.556273,29.4576581 L112.556273,29.2134071 L114.481858,29.2134071 L114.481858,28.4609418 L109.652883,28.4609418 L109.652883,29.2134071 L111.6175,29.2134071 L111.6175,29.4576581 C111.612496,30.6448922 110.772805,31.7881992 109.408683,32.2620922 L109.888077,32.9754333 C110.928934,32.6090067 111.705573,31.8566415 112.101899,30.9087554 C112.497224,31.7881992 113.259852,32.4771252 114.266681,32.8093306 L114.745074,32.0862835 C113.391961,31.6612207 112.556273,30.581453 112.556273,29.4576581 Z M110.640696,34.3630913 L115.644815,34.3630913 L115.644815,36.6397991 L116.572579,36.6397991 L116.572579,33.6106261 L110.640696,33.6106261 L110.640696,34.3630913 Z M115.644815,33.1708541 L116.572579,33.1708541 L116.572579,27.8843853 L115.644815,27.8843853 L115.644815,33.1708541 Z" id="Shape" fill="#113287" fill-rule="nonzero"></path>
            <path d="M119.289815,28.509772 L118.362051,28.509772 L118.362051,32.6627399 L119.074638,32.6627399 C120.379712,32.667643 121.723818,32.5845916 123.190025,32.2817043 L123.081936,31.519533 C121.723818,31.8029083 120.477793,31.8810566 119.289815,31.8810566 L119.289815,28.509772 Z M119.309831,36.4541844 L125.144634,36.4541844 L125.144634,35.7017191 L120.247603,35.7017191 L120.247603,33.591114 L119.309831,33.591114 L119.309831,36.4541844 Z M123.91262,34.2066946 L124.841384,34.2066946 L124.841384,31.2361578 L126.11243,31.2361578 L126.11243,30.4445683 L124.841384,30.4445683 L124.841384,27.8941913 L123.91262,27.8941913 L123.91262,34.2066946 Z" id="Shape" fill="#113287" fill-rule="nonzero"></path>
            <path d="M129.826487,30.1123629 L129.826487,28.6173385 L128.887714,28.6173385 L128.887714,30.1123629 C128.887714,31.7832961 127.919918,33.4591324 126.541783,34.0699101 L127.10925,34.8515934 C128.160115,34.3385762 128.965778,33.2833237 129.372113,31.9983291 C129.782451,33.1953693 130.579106,34.1773765 131.584934,34.6561726 L132.142393,33.9233194 C130.784275,33.3223478 129.816479,31.7100508 129.826487,30.1123629 Z M132.934044,36.6594113 L133.862809,36.6594113 L133.862809,27.8843853 L132.934044,27.8843853 L132.934044,36.6594113 Z" id="Shape" fill="#113287" fill-rule="nonzero"></path>
            <polygon id="Path" fill="#113287" fill-rule="nonzero" points="138.251421 35.8092856 139.375346 35.8092856 142.521935 29.6922031 142.521935 28.734611 137.762018 28.734611 137.762018 29.6530789 141.408019 29.6530789 141.408019 29.7117152"></polygon>
            <polygon id="Path" fill="#113287" fill-rule="nonzero" points="146.295041 28.734611 145.239172 28.734611 143.479724 29.887624 143.479724 30.9136584 145.171116 29.8094756 145.210148 29.8094756 145.210148 35.8092856 146.295041 35.8092856"></polygon>
            <path d="M148.386762,35.8776279 C148.762071,35.8727248 149.075329,35.5649345 149.080333,35.1838989 C149.075329,34.8027632 148.762071,34.4900699 148.386762,34.4900699 C148.005448,34.4900699 147.687186,34.8027632 147.692191,35.1838989 C147.687186,35.5649345 148.005448,35.8727248 148.386762,35.8776279 Z" id="Path" fill="#113287" fill-rule="nonzero"></path>
            <polygon id="Path" fill="#113287" fill-rule="nonzero" points="152.158867 28.734611 151.102998 28.734611 149.344551 29.887624 149.344551 30.9136584 151.034942 29.8094756 151.073974 29.8094756 151.073974 35.8092856 152.158867 35.8092856"></polygon>
            <path d="M155.579682,32.0959895 C156.532466,32.1057956 157.060901,31.3924545 157.064905,30.3371019 C157.060901,29.3013614 156.552483,28.5831173 155.579682,28.5879954 C154.636906,28.5831173 154.084452,29.3013614 154.09446,30.3371019 C154.084452,31.3875514 154.611886,32.1057956 155.579682,32.0959895 Z M154.895119,35.8092856 L155.784851,35.8092856 L160.642849,28.734611 L159.753117,28.734611 L154.895119,35.8092856 Z M154.895119,30.3371019 C154.900123,29.7068121 155.125308,29.2817493 155.579682,29.2720433 C156.054073,29.2671403 156.254237,29.7020092 156.254237,30.3371019 C156.254237,30.9869037 156.03906,31.4071636 155.579682,31.4119665 C155.125308,31.4071636 154.900123,30.9869037 154.895119,30.3371019 Z M158.561136,34.1968886 C158.556132,35.2376321 159.083566,35.9558762 160.046358,35.9558762 C160.999142,35.9558762 161.526577,35.2425351 161.531581,34.1968886 C161.526577,33.1513421 161.014155,32.4330979 160.046358,32.437976 C159.103582,32.4330979 158.556132,33.1513421 158.561136,34.1968886 Z M159.361795,34.1968886 C159.366799,33.5568928 159.596988,33.13183 160.046358,33.1220239 C160.520749,33.1220239 160.720913,33.5519898 160.720913,34.1968886 C160.720913,34.8369844 160.505736,35.2620472 160.046358,35.2620472 C159.591984,35.2620472 159.366799,34.8369844 159.361795,34.1968886 Z" id="Shape" fill="#113287" fill-rule="nonzero"></path>
            <polygon id="Path" fill="#113287" points="14.3707644 64.2916976 14.3706643 0.252108891 16.3723117 0.252108891 16.3724118 64.2916976"></polygon>
            <polygon id="Path" fill="#113287" points="735.953341 64.2916976 735.953341 0.252108891 737.954989 0.252108891 737.954989 64.2916976"></polygon>
            <polygon id="Path" fill="#979797" points="255.068563 64.0396418 255.068563 0 256.069387 0 256.069387 64.0396418"></polygon>
            <polygon id="Path" fill="#979797" points="496.267075 64.0396418 496.267075 0 497.267898 0 497.267898 64.0396418"></polygon>
        </g>
    </g>
</svg>