<svg width="744" height="78" viewBox="0 0 744 78" fill="none" xmlns="http://www.w3.org/2000/svg">
<rect width="744" height="78" fill="#727272"/>
<path d="M-2431 -1525C-2431 -1526.1 -2430.1 -1527 -2429 -1527H884C885.104 -1527 886 -1526.1 886 -1525V445C886 446.105 885.104 447 884 447H-2429C-2430.1 447 -2431 446.105 -2431 445V-1525Z" fill="white"/>
<g clip-path="url(#clip0_1814_2379)">
<path d="M2.33981 76.3871C3.8132 76.3871 4.67523 75.1999 4.67963 73.1156C4.67523 71.0444 3.8 69.844 2.33981 69.844C0.875237 69.844 0 71.0444 0 73.1156C0 75.1999 0.86644 76.3871 2.33981 76.3871ZM0.967593 73.1156C0.967593 71.5325 1.48218 70.6663 2.33981 70.6619C3.19305 70.6663 3.71204 71.5325 3.71204 73.1156C3.71204 74.703 3.19746 75.5516 2.33981 75.5516C1.47778 75.5516 0.9632 74.703 0.967593 73.1156Z" fill="#113287"/>
<path d="M7.06344 72.8077C7.87269 72.8121 8.52802 72.157 8.52364 71.3479C8.52802 70.5388 7.87269 69.8836 7.06344 69.8792C6.25418 69.8836 5.59885 70.5388 5.60323 71.3479C5.59885 72.157 6.25418 72.8121 7.06344 72.8077ZM6.30695 71.3479C6.31136 70.9301 6.64561 70.5959 7.06344 70.6003C7.48126 70.5959 7.81553 70.9301 7.81112 71.3479C7.81553 71.7611 7.48126 72.0997 7.06344 72.1041C6.64561 72.0997 6.31136 71.7611 6.30695 71.3479Z" fill="#113287"/>
<path d="M12.0069 69.6328H11.1713L9.12177 77.2576H9.95743L12.0069 69.6328Z" fill="#113287"/>
<path d="M15.1121 69.9319H14.1621L12.5787 70.9696V71.8931L14.1004 70.8993H14.1357V76.2991H15.1121V69.9319Z" fill="#113287"/>
<path d="M18.956 76.3871C20.3194 76.3871 21.2914 75.6396 21.2958 74.6018C21.2914 73.7839 20.702 73.1156 19.9587 73.0012V72.966C20.6009 72.8165 21.0451 72.2362 21.0495 71.5413C21.0451 70.5607 20.1567 69.844 18.956 69.844C17.7377 69.844 16.8537 70.5607 16.8537 71.5413C16.8537 72.2362 17.2891 72.8165 17.9445 72.966V73.0012C17.1924 73.1156 16.6074 73.7839 16.6162 74.6018C16.6074 75.6396 17.5706 76.3871 18.956 76.3871ZM17.6014 74.5315C17.5882 73.8763 18.1644 73.397 18.956 73.397C19.7389 73.397 20.3106 73.8763 20.3106 74.5315C20.3106 75.1559 19.7829 75.5868 18.956 75.5868C18.1159 75.5868 17.5882 75.1559 17.6014 74.5315ZM17.7949 71.6293C17.7993 71.0357 18.2567 70.6312 18.956 70.6355C19.6377 70.6312 20.104 71.0357 20.0996 71.6293C20.104 72.2274 19.6202 72.6363 18.956 72.6319C18.2743 72.6363 17.7993 72.223 17.7949 71.6293Z" fill="#113287"/>
<path d="M24.5153 76.3871C25.9886 76.3871 26.8507 75.1999 26.8551 73.1156C26.8507 71.0444 25.9755 69.844 24.5153 69.844C23.0507 69.844 22.1755 71.0444 22.1755 73.1156C22.1755 75.1999 23.0419 76.3871 24.5153 76.3871ZM23.1431 73.1156C23.1431 71.5325 23.6576 70.6663 24.5153 70.6619C25.3685 70.6663 25.8875 71.5325 25.8875 73.1156C25.8875 74.703 25.3729 75.5516 24.5153 75.5516C23.6533 75.5516 23.1387 74.703 23.1431 73.1156Z" fill="#113287"/>
<path d="M29.2389 72.8077C30.0482 72.8121 30.7035 72.157 30.6992 71.3479C30.7035 70.5388 30.0482 69.8836 29.2389 69.8792C28.4297 69.8836 27.7743 70.5388 27.7787 71.3479C27.7743 72.157 28.4297 72.8121 29.2389 72.8077ZM28.4824 71.3479C28.4868 70.9301 28.8211 70.5959 29.2389 70.6003C29.6568 70.5959 29.9911 70.9301 29.9866 71.3479C29.9911 71.7611 29.6568 72.0997 29.2389 72.1041C28.8211 72.0997 28.4868 71.7611 28.4824 71.3479Z" fill="#113287"/>
<path d="M239.605 76.4808C240.924 76.4808 241.905 75.7025 241.901 74.6428C241.905 73.8381 241.399 73.2533 240.529 73.1301V73.0862C241.214 72.9147 241.664 72.3958 241.655 71.6702C241.664 70.7292 240.876 69.9377 239.623 69.9377C238.435 69.9377 237.476 70.6413 237.45 71.679H238.382C238.404 71.103 238.976 70.7468 239.614 70.7468C240.286 70.7468 240.722 71.1426 240.722 71.723C240.722 72.3342 240.216 72.7388 239.491 72.7344H238.945V73.5259H239.491C240.401 73.5303 240.924 73.9788 240.924 74.6076C240.924 75.2276 240.365 75.6454 239.596 75.6454C238.883 75.6454 238.33 75.2892 238.295 74.7307H237.309C237.349 75.7728 238.286 76.4808 239.605 76.4808Z" fill="#113287"/>
<path d="M245.181 76.4808C246.656 76.4808 247.517 75.2936 247.521 73.2093C247.517 71.1382 246.642 69.9377 245.181 69.9377C243.717 69.9377 242.841 71.1382 242.841 73.2093C242.841 75.2936 243.708 76.4808 245.181 76.4808ZM243.809 73.2093C243.809 71.6263 244.324 70.76 245.181 70.7556C246.035 70.76 246.554 71.6263 246.554 73.2093C246.554 74.7966 246.039 75.6454 245.181 75.6454C244.32 75.6454 243.805 74.7966 243.809 73.2093Z" fill="#113287"/>
<path d="M249.905 72.9015C250.715 72.9059 251.37 72.2507 251.366 71.4416C251.37 70.6325 250.715 69.9773 249.905 69.9729C249.096 69.9773 248.441 70.6325 248.445 71.4416C248.441 72.2507 249.096 72.9059 249.905 72.9015ZM249.149 71.4416C249.154 71.0239 249.488 70.6896 249.905 70.694C250.324 70.6896 250.658 71.0239 250.653 71.4416C250.658 71.855 250.324 72.1936 249.905 72.198C249.488 72.1936 249.154 71.855 249.149 71.4416Z" fill="#113287"/>
<path d="M254.849 69.7266H254.014L251.964 77.3515H252.8L254.849 69.7266Z" fill="#113287"/>
<path d="M257.954 70.0256H257.004L255.421 71.0634V71.9867L256.942 70.993H256.977V76.3929H257.954V70.0256Z" fill="#113287"/>
<path d="M261.736 76.4807C263.065 76.4807 264.006 75.5794 264.006 74.3261C264.006 73.0992 263.122 72.2111 261.921 72.2067C261.438 72.2111 260.988 72.3825 260.725 72.6376H260.663L260.874 70.8522H263.681V70.0256H260.074L259.66 73.5698H260.575C260.791 73.1785 261.183 73.007 261.692 73.007C262.493 73.0158 263.065 73.5786 263.065 74.3525C263.065 75.1089 262.511 75.6673 261.736 75.6717C261.095 75.6673 260.575 75.2715 260.522 74.7306H259.581C259.625 75.7465 260.531 76.4807 261.736 76.4807Z" fill="#113287"/>
<path d="M267.252 76.4808C268.725 76.4808 269.587 75.2936 269.591 73.2093C269.587 71.1382 268.712 69.9377 267.252 69.9377C265.787 69.9377 264.912 71.1382 264.912 73.2093C264.912 75.2936 265.778 76.4808 267.252 76.4808ZM265.879 73.2093C265.879 71.6263 266.394 70.76 267.252 70.7556C268.105 70.76 268.624 71.6263 268.624 73.2093C268.624 74.7966 268.109 75.6454 267.252 75.6454C266.39 75.6454 265.875 74.7966 265.879 73.2093Z" fill="#113287"/>
<path d="M271.975 72.9015C272.784 72.9059 273.44 72.2507 273.436 71.4416C273.44 70.6325 272.784 69.9773 271.975 69.9729C271.166 69.9773 270.51 70.6325 270.515 71.4416C270.51 72.2507 271.166 72.9059 271.975 72.9015ZM271.219 71.4416C271.223 71.0239 271.557 70.6896 271.975 70.694C272.393 70.6896 272.727 71.0239 272.723 71.4416C272.727 71.855 272.393 72.1936 271.975 72.198C271.557 72.1936 271.223 71.855 271.219 71.4416Z" fill="#113287"/>
<path d="M480.623 76.3872C481.991 76.3959 482.901 75.4506 482.901 74.2149C482.901 72.9968 481.986 72.1262 480.851 72.1218C480.161 72.1262 479.563 72.4428 479.216 72.9836H479.145C479.145 71.5457 479.717 70.6927 480.702 70.6883C481.345 70.6927 481.753 71.0665 481.881 71.5854H482.84C482.69 70.5739 481.876 69.844 480.702 69.844C479.176 69.844 478.217 71.1105 478.213 73.3266C478.213 75.6792 479.444 76.3783 480.623 76.3872ZM479.26 74.2413C479.268 73.5333 479.863 72.9089 480.64 72.9133C481.406 72.9089 481.96 73.5026 481.96 74.2325C481.96 74.9756 481.384 75.5736 480.614 75.578C479.832 75.5736 479.264 74.9492 479.26 74.2413Z" fill="#113287"/>
<path d="M486.147 76.3871C487.621 76.3871 488.483 75.1999 488.487 73.1156C488.483 71.0444 487.607 69.844 486.147 69.844C484.683 69.844 483.808 71.0444 483.808 73.1156C483.808 75.1999 484.674 76.3871 486.147 76.3871ZM484.775 73.1156C484.775 71.5325 485.289 70.6663 486.147 70.6619C487 70.6663 487.52 71.5325 487.52 73.1156C487.52 74.703 487.004 75.5516 486.147 75.5516C485.285 75.5516 484.771 74.703 484.775 73.1156Z" fill="#113287"/>
<path d="M490.871 72.8077C491.68 72.8121 492.336 72.157 492.331 71.3479C492.336 70.5388 491.68 69.8836 490.871 69.8792C490.062 69.8836 489.406 70.5388 489.41 71.3479C489.406 72.157 490.062 72.8121 490.871 72.8077ZM490.114 71.3479C490.119 70.9301 490.453 70.5959 490.871 70.6003C491.289 70.5959 491.623 70.9301 491.618 71.3479C491.623 71.7611 491.289 72.0997 490.871 72.1041C490.453 72.0997 490.119 71.7611 490.114 71.3479Z" fill="#113287"/>
<path d="M495.815 69.6328H494.979L492.929 77.2576H493.765L495.815 69.6328Z" fill="#113287"/>
<path d="M498.919 69.9319H497.969L496.386 70.9696V71.8931L497.907 70.8993H497.943V76.2991H498.919V69.9319Z" fill="#113287"/>
<path d="M500.538 76.2992H504.822V75.4725H501.884V75.4197L503.177 74.1093C504.373 72.9353 504.707 72.3681 504.716 71.6557C504.707 70.6224 503.858 69.844 502.631 69.844C501.417 69.844 500.53 70.6136 500.538 71.7788H501.452C501.457 71.1017 501.906 70.6531 502.614 70.6531C503.283 70.6531 503.792 71.0532 503.792 71.682C503.792 72.2406 503.445 72.645 502.745 73.3706L500.538 75.5956V76.2992Z" fill="#113287"/>
<path d="M508.112 76.3871C509.585 76.3871 510.447 75.1999 510.452 73.1156C510.447 71.0444 509.572 69.844 508.112 69.844C506.647 69.844 505.772 71.0444 505.772 73.1156C505.772 75.1999 506.639 76.3871 508.112 76.3871ZM506.74 73.1156C506.74 71.5325 507.254 70.6663 508.112 70.6619C508.965 70.6663 509.484 71.5325 509.484 73.1156C509.484 74.703 508.97 75.5516 508.112 75.5516C507.249 75.5516 506.735 74.703 506.74 73.1156Z" fill="#113287"/>
<path d="M512.835 72.8077C513.644 72.8121 514.3 72.157 514.295 71.3479C514.3 70.5388 513.644 69.8836 512.835 69.8792C512.026 69.8836 511.37 70.5388 511.374 71.3479C511.37 72.157 512.026 72.8121 512.835 72.8077ZM512.079 71.3479C512.083 70.9301 512.417 70.5959 512.835 70.6003C513.253 70.5959 513.587 70.9301 513.583 71.3479C513.587 71.7611 513.253 72.0997 512.835 72.1041C512.417 72.0997 512.083 71.7611 512.079 71.3479Z" fill="#113287"/>
<path d="M732.177 69.8441C730.792 69.8353 729.89 70.7851 729.89 71.9987C729.89 73.2168 730.805 74.0918 731.949 74.0918C732.635 74.0918 733.233 73.7664 733.576 73.23H733.655C733.646 74.6855 733.07 75.5385 732.089 75.5429C731.448 75.5385 731.033 75.1648 730.902 74.6283H729.943C730.097 75.6617 730.915 76.3873 732.089 76.3873C733.615 76.3873 734.578 75.1208 734.578 72.887C734.574 70.5565 733.347 69.8529 732.177 69.8441ZM730.831 71.9811C730.827 71.2512 731.408 70.6532 732.177 70.6532C732.956 70.6532 733.523 71.282 733.523 71.9723C733.523 72.676 732.93 73.3048 732.159 73.3004C731.386 73.3048 730.836 72.7199 730.831 71.9811Z" fill="#113287"/>
<path d="M737.816 76.3871C739.289 76.3871 740.151 75.1998 740.156 73.1155C740.151 71.0444 739.276 69.844 737.816 69.844C736.351 69.844 735.476 71.0444 735.476 73.1155C735.476 75.1998 736.343 76.3871 737.816 76.3871ZM736.444 73.1155C736.444 71.5325 736.958 70.6663 737.816 70.6619C738.669 70.6663 739.188 71.5325 739.188 73.1155C739.188 74.7029 738.674 75.5516 737.816 75.5516C736.954 75.5516 736.439 74.7029 736.444 73.1155Z" fill="#113287"/>
<path d="M742.54 72.8078C743.348 72.8122 744.004 72.157 744 71.3479C744.004 70.5388 743.348 69.8836 742.54 69.8792C741.73 69.8836 741.075 70.5388 741.08 71.3479C741.075 72.157 741.73 72.8122 742.54 72.8078ZM741.783 71.3479C741.787 70.9301 742.121 70.596 742.54 70.6004C742.957 70.596 743.291 70.9301 743.287 71.3479C743.291 71.7612 742.957 72.0998 742.54 72.1042C742.121 72.0998 741.787 71.7612 741.783 71.3479Z" fill="#113287"/>
<path d="M736.965 20.2644H496.767V44.2793H736.965V20.2644Z" fill="#5B6EB4"/>
<path d="M496.767 20.2644H255.569V44.2793H496.767V20.2644Z" fill="#113287"/>
<path d="M255.569 20.2644H15.3715V44.2793H255.569V20.2644Z" fill="#E2E6F6"/>
<path fill-rule="evenodd" clip-rule="evenodd" d="M14.3708 64.2918L14.3707 0.252197H16.3723L16.3724 64.2918H14.3708Z" fill="#113287"/>
<path fill-rule="evenodd" clip-rule="evenodd" d="M735.953 64.2918V0.252197H737.955V64.2918H735.953Z" fill="#113287"/>
<path fill-rule="evenodd" clip-rule="evenodd" d="M255.069 64.0396V0H256.069V64.0396H255.069Z" fill="#979797"/>
<path fill-rule="evenodd" clip-rule="evenodd" d="M496.267 64.0396V0H497.268V64.0396H496.267Z" fill="#979797"/>
<path d="M595.229 32.1133V32.8555H592.582V34.9941H596.146V35.7559H588.139V34.9941H591.664V32.8555H589.135V28.7539H595.15V29.5059H590.062V32.1133H595.229ZM598.109 28.7051V32.0742C599.296 32.0742 600.541 31.9961 601.898 31.7129L602.006 32.4746C600.541 32.7773 599.198 32.8604 597.895 32.8555H597.182V28.7051H598.109ZM598.129 36.6445V33.7832H599.066V35.8926H603.959V36.6445H598.129ZM602.729 34.3984V28.0898H603.656V30.6387H604.926V31.4297H603.656V34.3984H602.729ZM608.637 30.3066C608.627 31.9033 609.594 33.5146 610.951 34.1152L610.395 34.8477C609.389 34.3691 608.593 33.3877 608.183 32.1914C607.777 33.4756 606.972 34.5303 605.922 35.043L605.355 34.2617C606.732 33.6514 607.699 31.9766 607.699 30.3066V28.8125H608.637V30.3066ZM611.742 36.8496V28.0801H612.67V36.8496H611.742ZM619.369 36.0977C618.061 36.0879 616.693 35.3115 616.693 32.6992C616.698 30.2383 617.763 28.832 619.457 28.832C620.761 28.832 621.664 29.6426 621.83 30.7656H620.766C620.624 30.1895 620.17 29.7744 619.457 29.7695C618.363 29.7744 617.729 30.7217 617.729 32.3184H617.807C618.192 31.7178 618.856 31.3662 619.623 31.3613C620.883 31.3662 621.898 32.333 621.898 33.6855C621.898 35.0576 620.888 36.1074 619.369 36.0977ZM617.855 33.7148C617.86 34.501 618.49 35.1943 619.359 35.1992C620.214 35.1943 620.854 34.5303 620.854 33.7051C620.854 32.8945 620.238 32.2354 619.389 32.2402C618.524 32.2354 617.865 32.9287 617.855 33.7148ZM625.443 36.0977C624.105 36.0977 623.1 35.2822 623.051 34.1543H624.096C624.154 34.7549 624.73 35.1943 625.443 35.1992C626.303 35.1943 626.918 34.5742 626.918 33.7344C626.918 32.875 626.283 32.25 625.395 32.2402C624.828 32.2402 624.394 32.4307 624.154 32.8652H623.139L623.598 28.9297H627.602V29.8477H624.486L624.252 31.8301H624.32C624.613 31.5469 625.111 31.3564 625.648 31.3516C626.981 31.3564 627.963 32.3428 627.963 33.7051C627.963 35.0967 626.918 36.0977 625.443 36.0977ZM629.545 36.0684C629.164 36.0635 628.847 35.7559 628.852 35.375C628.847 34.9941 629.164 34.6816 629.545 34.6816C629.921 34.6816 630.233 34.9941 630.238 35.375C630.233 35.7559 629.921 36.0635 629.545 36.0684ZM633.715 36.0977C632.177 36.0977 631.107 35.2676 631.117 34.1152C631.107 33.207 631.757 32.4648 632.592 32.3379V32.2988C631.864 32.1328 631.381 31.4883 631.381 30.7168C631.381 29.6279 632.362 28.832 633.715 28.832C635.048 28.832 636.034 29.6279 636.039 30.7168C636.034 31.4883 635.541 32.1328 634.828 32.2988V32.3379C635.653 32.4648 636.308 33.207 636.312 34.1152C636.308 35.2676 635.229 36.0977 633.715 36.0977ZM632.211 34.0371C632.196 34.7305 632.782 35.209 633.715 35.209C634.633 35.209 635.219 34.7305 635.219 34.0371C635.219 33.3096 634.584 32.7773 633.715 32.7773C632.836 32.7773 632.196 33.3096 632.211 34.0371ZM632.426 30.8145C632.431 31.4736 632.958 31.9326 633.715 31.9277C634.452 31.9326 634.989 31.4785 634.984 30.8145C634.989 30.1553 634.472 29.7061 633.715 29.7109C632.938 29.7061 632.431 30.1553 632.426 30.8145ZM639.047 32.2891C638.08 32.2988 637.553 31.5811 637.562 30.5312C637.553 29.4961 638.104 28.7783 639.047 28.7832C640.019 28.7783 640.526 29.4961 640.531 30.5312C640.526 31.5859 639.999 32.2988 639.047 32.2891ZM638.363 36L643.217 28.9297H644.105L639.252 36H638.363ZM638.363 30.5312C638.368 31.1807 638.593 31.6006 639.047 31.6055C639.506 31.6006 639.721 31.1807 639.721 30.5312C639.721 29.8965 639.521 29.4619 639.047 29.4668C638.593 29.4766 638.368 29.9014 638.363 30.5312ZM642.025 34.3887C642.021 33.3438 642.567 32.626 643.51 32.6309C644.477 32.626 644.989 33.3438 644.994 34.3887C644.989 35.4336 644.462 36.1465 643.51 36.1465C642.548 36.1465 642.021 35.4287 642.025 34.3887ZM642.826 34.3887C642.831 35.0283 643.056 35.4531 643.51 35.4531C643.969 35.4531 644.184 35.0283 644.184 34.3887C644.184 33.7441 643.983 33.3145 643.51 33.3145C643.061 33.3242 642.831 33.749 642.826 34.3887Z" fill="white"/>
<path d="M351.735 30.3066C351.726 31.8545 352.629 33.4414 353.933 34.0762L353.356 34.8184C352.404 34.3203 351.667 33.3438 351.281 32.1768C350.891 33.417 350.124 34.4668 349.128 34.9844L348.552 34.2324C349.895 33.5879 350.803 31.9082 350.808 30.3066V28.8125H351.735V30.3066ZM354.587 36.8301V28.0801H355.515V31.5664H356.921V32.3574H355.515V36.8301H354.587ZM358.669 28.7051V32.0742C359.855 32.0742 361.101 31.9961 362.458 31.7129L362.565 32.4746C361.101 32.7773 359.758 32.8604 358.454 32.8555H357.741V28.7051H358.669ZM358.688 36.6445V33.7832H359.626V35.8926H364.519V36.6445H358.688ZM363.288 34.3984V28.0898H364.216V30.6387H365.485V31.4297H364.216V34.3984H363.288ZM369.196 30.3066C369.187 31.9033 370.153 33.5146 371.511 34.1152L370.954 34.8477C369.948 34.3691 369.152 33.3877 368.742 32.1914C368.337 33.4756 367.531 34.5303 366.481 35.043L365.915 34.2617C367.292 33.6514 368.259 31.9766 368.259 30.3066V28.8125H369.196V30.3066ZM372.302 36.8496V28.0801H373.229V36.8496H372.302ZM380.056 28.9297V36H378.972V30.0039H378.933L377.243 31.1074V30.082L379.001 28.9297H380.056ZM384.284 28.832C385.583 28.8418 386.945 29.623 386.95 32.2109C386.95 34.6914 385.881 36.0977 384.187 36.0977C382.883 36.0977 381.975 35.292 381.804 34.1445H382.868C383.015 34.7402 383.474 35.1553 384.187 35.1602C385.275 35.1553 385.915 34.208 385.925 32.5918H385.837C385.456 33.1875 384.792 33.5488 384.03 33.5488C382.761 33.5488 381.745 32.5771 381.745 31.2246C381.745 29.877 382.746 28.8223 384.284 28.832ZM382.79 31.2051C382.795 32.0254 383.405 32.6748 384.265 32.6699C385.119 32.6748 385.778 31.9766 385.778 31.1953C385.778 30.4287 385.148 29.7305 384.284 29.7305C383.43 29.7305 382.785 30.3945 382.79 31.2051ZM388.513 36.0684C388.132 36.0635 387.814 35.7559 387.819 35.375C387.814 34.9941 388.132 34.6816 388.513 34.6816C388.889 34.6816 389.201 34.9941 389.206 35.375C389.201 35.7559 388.889 36.0635 388.513 36.0684ZM390.515 36L393.669 29.9062V29.8477H390.026V28.9297H394.782V29.8867L391.638 36H390.515ZM397.487 32.2891C396.521 32.2988 395.993 31.5811 396.003 30.5312C395.993 29.4961 396.545 28.7783 397.487 28.7832C398.459 28.7783 398.967 29.4961 398.972 30.5312C398.967 31.5859 398.439 32.2988 397.487 32.2891ZM396.804 36L401.657 28.9297H402.546L397.692 36H396.804ZM396.804 30.5312C396.809 31.1807 397.033 31.6006 397.487 31.6055C397.946 31.6006 398.161 31.1807 398.161 30.5312C398.161 29.8965 397.961 29.4619 397.487 29.4668C397.033 29.4766 396.809 29.9014 396.804 30.5312ZM400.466 34.3887C400.461 33.3438 401.008 32.626 401.95 32.6309C402.917 32.626 403.43 33.3438 403.435 34.3887C403.43 35.4336 402.902 36.1465 401.95 36.1465C400.988 36.1465 400.461 35.4287 400.466 34.3887ZM401.267 34.3887C401.271 35.0283 401.496 35.4531 401.95 35.4531C402.409 35.4531 402.624 35.0283 402.624 34.3887C402.624 33.7441 402.424 33.3145 401.95 33.3145C401.501 33.3242 401.271 33.749 401.267 34.3887Z" fill="white"/>
<path d="M111.113 29.6523C111.113 30.7754 111.948 31.8545 113.301 32.2793L112.822 33.002C111.816 32.6699 111.055 31.9814 110.659 31.1025C110.264 32.0498 109.487 32.8018 108.447 33.168L107.969 32.4551C109.331 31.9814 110.171 30.8389 110.176 29.6523V29.4082H108.213V28.6562H113.037V29.4082H111.113V29.6523ZM109.199 34.5547V33.8027H115.127V36.8301H114.199V34.5547H109.199ZM114.199 33.3633V28.0801H115.127V33.3633H114.199ZM117.842 28.7051V32.0742C119.028 32.0742 120.273 31.9961 121.631 31.7129L121.738 32.4746C120.273 32.7773 118.931 32.8604 117.627 32.8555H116.914V28.7051H117.842ZM117.861 36.6445V33.7832H118.799V35.8926H123.691V36.6445H117.861ZM122.461 34.3984V28.0898H123.389V30.6387H124.658V31.4297H123.389V34.3984H122.461ZM128.369 30.3066C128.359 31.9033 129.326 33.5146 130.684 34.1152L130.127 34.8477C129.121 34.3691 128.325 33.3877 127.915 32.1914C127.51 33.4756 126.704 34.5303 125.654 35.043L125.088 34.2617C126.465 33.6514 127.432 31.9766 127.432 30.3066V28.8125H128.369V30.3066ZM131.475 36.8496V28.0801H132.402V36.8496H131.475ZM139.229 28.9297V36H138.145V30.0039H138.105L136.416 31.1074V30.082L138.174 28.9297H139.229ZM140.869 34.623V33.7539L143.994 28.9297H145.322V33.7148H146.289V34.623H145.322V36H144.307V34.623H140.869ZM142.002 33.7148H144.307V30.209H144.229L142.002 33.6562V33.7148ZM147.803 36.0684C147.422 36.0635 147.104 35.7559 147.109 35.375C147.104 34.9941 147.422 34.6816 147.803 34.6816C148.179 34.6816 148.491 34.9941 148.496 35.375C148.491 35.7559 148.179 36.0635 147.803 36.0684ZM152.031 36.0977C150.693 36.0977 149.688 35.2822 149.639 34.1543H150.684C150.742 34.7549 151.318 35.1943 152.031 35.1992C152.891 35.1943 153.506 34.5742 153.506 33.7344C153.506 32.875 152.871 32.25 151.982 32.2402C151.416 32.2402 150.981 32.4307 150.742 32.8652H149.727L150.186 28.9297H154.189V29.8477H151.074L150.84 31.8301H150.908C151.201 31.5469 151.699 31.3564 152.236 31.3516C153.569 31.3564 154.551 32.3428 154.551 33.7051C154.551 35.0967 153.506 36.0977 152.031 36.0977ZM157.314 32.2891C156.348 32.2988 155.82 31.5811 155.83 30.5312C155.82 29.4961 156.372 28.7783 157.314 28.7832C158.286 28.7783 158.794 29.4961 158.799 30.5312C158.794 31.5859 158.267 32.2988 157.314 32.2891ZM156.631 36L161.484 28.9297H162.373L157.52 36H156.631ZM156.631 30.5312C156.636 31.1807 156.86 31.6006 157.314 31.6055C157.773 31.6006 157.988 31.1807 157.988 30.5312C157.988 29.8965 157.788 29.4619 157.314 29.4668C156.86 29.4766 156.636 29.9014 156.631 30.5312ZM160.293 34.3887C160.288 33.3438 160.835 32.626 161.777 32.6309C162.744 32.626 163.257 33.3438 163.262 34.3887C163.257 35.4336 162.729 36.1465 161.777 36.1465C160.815 36.1465 160.288 35.4287 160.293 34.3887ZM161.094 34.3887C161.099 35.0283 161.323 35.4531 161.777 35.4531C162.236 35.4531 162.451 35.0283 162.451 34.3887C162.451 33.7441 162.251 33.3145 161.777 33.3145C161.328 33.3242 161.099 33.749 161.094 34.3887Z" fill="#113287"/>
</g>
<path d="M-2429 -1526H884V-1528H-2429V-1526ZM885 -1525V445H887V-1525H885ZM884 446H-2429V448H884V446ZM-2430 445V-1525H-2432V445H-2430ZM-2429 446C-2429.55 446 -2430 445.552 -2430 445H-2432C-2432 446.657 -2430.66 448 -2429 448V446ZM885 445C885 445.552 884.552 446 884 446V448C885.657 448 887 446.657 887 445H885ZM884 -1526C884.552 -1526 885 -1525.55 885 -1525H887C887 -1526.66 885.657 -1528 884 -1528V-1526ZM-2429 -1528C-2430.66 -1528 -2432 -1526.66 -2432 -1525H-2430C-2430 -1525.55 -2429.55 -1526 -2429 -1526V-1528Z" fill="black" fill-opacity="0.1"/>
<defs>
<clipPath id="clip0_1814_2379">
<rect width="744" height="78" fill="white"/>
</clipPath>
</defs>
</svg>
