<?xml version="1.0" encoding="UTF-8"?>
<svg width="744px" height="78px" viewBox="0 0 744 78" version="1.1" xmlns="http://www.w3.org/2000/svg" xmlns:xlink="http://www.w3.org/1999/xlink">
    <title>astigmatismAxis</title>
    <g id="astigmatismAxis" stroke="none" stroke-width="1" fill="none" fill-rule="evenodd">
        <g id="AGE_30_39" transform="translate(0.000000, 0.000000)">
            <path d="M2.33981271,76.3870767 C3.81319534,76.3870767 4.67523481,75.1998425 4.67962843,73.1155535 C4.67523481,71.0444727 3.80000448,69.8439303 2.33981271,69.8439303 C0.875237338,69.8439303 0,71.0444727 0,73.1155535 C0,75.1998425 0.866440097,76.3870767 2.33981271,76.3870767 Z M0.967593348,73.1155535 C0.967593348,71.5324745 1.48217686,70.6662388 2.33981271,70.6618361 C3.19305495,70.6662388 3.71204208,71.5324745 3.71204208,73.1155535 C3.71204208,74.7029352 3.19745857,75.55156 2.33981271,75.55156 C1.47778324,75.55156 0.963199732,74.7029352 0.967593348,73.1155535 Z" id="Shape" fill="#113287" fill-rule="nonzero"></path>
            <path d="M7.06343034,72.8077852 C7.87268638,72.8121659 8.52801573,72.1569607 8.52363417,71.3478603 C8.52801573,70.53876 7.87268638,69.8835548 7.06343034,69.8791521 C6.25417431,69.8835548 5.59884496,70.53876 5.60322652,71.3478603 C5.59884496,72.1569607 6.25417431,72.8121659 7.06343034,72.8077852 Z M6.30694774,71.3478603 C6.31135137,70.930102 6.64560647,70.5958953 7.06343034,70.600298 C7.48125422,70.5958953 7.81551933,70.930102 7.8111157,71.3478603 C7.81551933,71.761216 7.48125422,72.0997253 7.06343034,72.104128 C6.64560647,72.0997253 6.31135137,71.761216 6.30694774,71.3478603 Z" id="Shape" fill="#113287" fill-rule="nonzero"></path>
            <polygon id="Path" fill="#113287" fill-rule="nonzero" points="12.0069189 69.6328998 11.1713312 69.6328998 9.12176439 77.2577151 9.95743216 77.2577151"></polygon>
            <polygon id="Path" fill="#113287" fill-rule="nonzero" points="15.1120745 69.9318847 14.1620927 69.9318847 12.5786895 70.9696264 12.5786895 71.8930975 14.1004419 70.8992829 14.1356709 70.8992829 14.1356709 76.2991223 15.1120745 76.2991223"></polygon>
            <path d="M18.9560382,76.3870767 C20.3194603,76.3870767 21.2914603,75.6395144 21.2958639,74.6017726 C21.2914603,73.7838668 20.7020752,73.1155535 19.9587635,73.0011828 L19.9587635,72.9660611 C20.6008919,72.8164686 21.0451576,72.2361097 21.0495612,71.54128 C21.0451576,70.5607736 20.1567264,69.8439303 18.9560382,69.8439303 C17.7377355,69.8439303 16.8537079,70.5607736 16.8537079,71.54128 C16.8537079,72.2361097 17.2891663,72.8164686 17.9445057,72.9660611 L17.9445057,73.0011828 C17.1923867,73.1155535 16.6074052,73.7838668 16.6162125,74.6017726 C16.6074052,75.6395144 17.5705979,76.3870767 18.9560382,76.3870767 Z M17.6014233,74.5314291 C17.5882124,73.8762239 18.1643866,73.3969275 18.9560382,73.3969275 C19.7388825,73.3969275 20.3106531,73.8762239 20.3106531,74.5314291 C20.3106531,75.1558153 19.7829187,75.5867818 18.9560382,75.5867818 C18.1159468,75.5867818 17.5882124,75.1558153 17.6014233,74.5314291 Z M17.7948825,71.6292343 C17.7992862,71.0356673 18.2567627,70.6311171 18.9560382,70.6355198 C19.6376992,70.6311171 20.103983,71.0356673 20.0995794,71.6292343 C20.103983,72.2273042 19.6201848,72.6362571 18.9560382,72.6318544 C18.2742771,72.6362571 17.7992862,72.2229015 17.7948825,71.6292343 Z" id="Shape" fill="#113287" fill-rule="nonzero"></path>
            <path d="M24.5153136,76.3870767 C25.9886262,76.3870767 26.8507357,75.1998425 26.8551393,73.1155535 C26.8507357,71.0444727 25.9755154,69.8439303 24.5153136,69.8439303 C23.0507082,69.8439303 22.1754879,71.0444727 22.1754879,73.1155535 C22.1754879,75.1998425 23.0419009,76.3870767 24.5153136,76.3870767 Z M23.1430842,73.1155535 C23.1430842,71.5324745 23.6576077,70.6662388 24.5153136,70.6618361 C25.3685158,70.6662388 25.887543,71.5324745 25.887543,73.1155535 C25.887543,74.7029352 25.3729194,75.55156 24.5153136,75.55156 C23.6533041,75.55156 23.1386806,74.7029352 23.1430842,73.1155535 Z" id="Shape" fill="#113287" fill-rule="nonzero"></path>
            <path d="M29.2389012,72.8077852 C30.0481672,72.8121659 30.7035066,72.1569607 30.699125,71.3478603 C30.7035066,70.53876 30.0481672,69.8835548 29.2389012,69.8791521 C28.4296352,69.8835548 27.7742958,70.53876 27.7786774,71.3478603 C27.7742958,72.1569607 28.4296352,72.8121659 29.2389012,72.8077852 Z M28.4823786,71.3478603 C28.4867822,70.930102 28.8210573,70.5958953 29.2389012,70.600298 C29.6567451,70.5958953 29.9910202,70.930102 29.9866166,71.3478603 C29.9910202,71.761216 29.6567451,72.0997253 29.2389012,72.104128 C28.8210573,72.0997253 28.4867822,71.761216 28.4823786,71.3478603 Z" id="Shape" fill="#113287" fill-rule="nonzero"></path>
            <path d="M239.604837,76.4809348 C240.923922,76.4809348 241.904729,75.7025534 241.90075,74.642798 C241.904729,73.8381004 241.399313,73.2533387 240.528597,73.1301626 L240.528597,73.0862354 C241.214161,72.9147293 241.663531,72.3958084 241.654523,71.6702597 C241.663531,70.7292778 240.875883,69.9377883 239.622851,69.9377883 C238.434874,69.9377883 237.476085,70.6413234 237.450063,71.6790652 L238.38183,71.6790652 C238.403848,71.1030089 238.976319,70.7468887 239.613844,70.7468887 C240.286397,70.7468887 240.721756,71.1426334 240.721756,71.7230924 C240.721756,72.3342704 240.21634,72.7388205 239.490743,72.7344178 L238.945294,72.7344178 L238.945294,73.5259073 L239.490743,73.5259073 C240.400491,73.53031 240.923922,73.9788874 240.923922,74.6076763 C240.923922,75.2276597 240.365463,75.6454181 239.595829,75.6454181 C238.883243,75.6454181 238.329787,75.2891978 238.294758,74.7307524 L237.308947,74.7307524 C237.34898,75.7728969 238.285751,76.4809348 239.604837,76.4809348 Z" id="Path" fill="#113287" fill-rule="nonzero"></path>
            <path d="M245.181426,76.4809348 C246.655639,76.4809348 247.517349,75.2936005 247.521352,73.2093115 C247.517349,71.1382307 246.641628,69.9377883 245.181426,69.9377883 C243.717221,69.9377883 242.8415,71.1382307 242.8415,73.2093115 C242.8415,75.2936005 243.708214,76.4809348 245.181426,76.4809348 Z M243.809274,73.2093115 C243.809274,71.6263326 244.32372,70.7600969 245.181426,70.7556941 C246.035129,70.7600969 246.553555,71.6263326 246.553555,73.2093115 C246.553555,74.7967932 246.039132,75.6454181 245.181426,75.6454181 C244.319717,75.6454181 243.805294,74.7967932 243.809274,73.2093115 Z" id="Shape" fill="#113287" fill-rule="nonzero"></path>
            <path d="M249.905314,72.9015432 C250.71498,72.9059239 251.369519,72.2507187 251.365534,71.4416183 C251.369519,70.632518 250.71498,69.9773128 249.905314,69.9730101 C249.095648,69.9773128 248.441109,70.632518 248.445094,71.4416183 C248.441109,72.2507187 249.095648,72.9059239 249.905314,72.9015432 Z M249.148691,71.4416183 C249.153695,71.02386 249.487971,70.6897533 249.905314,70.6941561 C250.323658,70.6897533 250.657933,71.02386 250.652929,71.4416183 C250.657933,71.854974 250.323658,72.1935834 249.905314,72.1979861 C249.487971,72.1935834 249.153695,71.854974 249.148691,71.4416183 Z" id="Shape" fill="#113287" fill-rule="nonzero"></path>
            <polygon id="Path" fill="#113287" fill-rule="nonzero" points="254.849383 69.7267578 254.013695 69.7267578 251.964008 77.3515732 252.799696 77.3515732"></polygon>
            <polygon id="Path" fill="#113287" fill-rule="nonzero" points="257.953938 70.0257427 257.004157 70.0257427 255.420853 71.0634845 255.420853 71.9868555 256.942105 70.993141 256.977134 70.993141 256.977134 76.3929804 257.953938 76.3929804"></polygon>
            <path d="M261.736051,76.4809348 C263.065145,76.4809348 264.005919,75.5794773 264.005919,74.3262022 C264.005919,73.0994436 263.122192,72.2111942 261.921203,72.2067915 C261.437805,72.2111942 260.988436,72.3827003 260.725219,72.637658 L260.663168,72.637658 L260.874342,70.852454 L263.680651,70.852454 L263.680651,70.0257427 L260.073683,70.0257427 L259.660343,73.5699345 L260.575095,73.5699345 C260.791273,73.1785925 261.182595,73.0070864 261.692015,73.0070864 C262.492674,73.0158919 263.065145,73.57874 263.065145,74.3526186 C263.065145,75.1089863 262.510688,75.6674317 261.736051,75.6718344 C261.094523,75.6674317 260.575095,75.2716869 260.522052,74.7307524 L259.581278,74.7307524 C259.625314,75.7465806 260.531059,76.4809348 261.736051,76.4809348 Z" id="Path" fill="#113287" fill-rule="nonzero"></path>
            <path d="M267.25159,76.4809348 C268.724803,76.4809348 269.587513,75.2936005 269.591516,73.2093115 C269.587513,71.1382307 268.711792,69.9377883 267.25159,69.9377883 C265.787385,69.9377883 264.911665,71.1382307 264.911665,73.2093115 C264.911665,75.2936005 265.778378,76.4809348 267.25159,76.4809348 Z M265.879438,73.2093115 C265.879438,71.6263326 266.393884,70.7600969 267.25159,70.7556941 C268.105293,70.7600969 268.62372,71.6263326 268.62372,73.2093115 C268.62372,74.7967932 268.109296,75.6454181 267.25159,75.6454181 C266.389881,75.6454181 265.875458,74.7967932 265.879438,73.2093115 Z" id="Shape" fill="#113287" fill-rule="nonzero"></path>
            <path d="M271.975478,72.9015432 C272.784144,72.9059239 273.439683,72.2507187 273.435698,71.4416183 C273.439683,70.632518 272.784144,69.9773128 271.975478,69.9730101 C271.165812,69.9773128 270.510272,70.632518 270.515248,71.4416183 C270.510272,72.2507187 271.165812,72.9059239 271.975478,72.9015432 Z M271.218855,71.4416183 C271.222859,71.02386 271.557134,70.6897533 271.975478,70.6941561 C272.392822,70.6897533 272.727097,71.02386 272.723094,71.4416183 C272.727097,71.854974 272.392822,72.1935834 271.975478,72.1979861 C271.557134,72.1935834 271.222859,71.854974 271.218855,71.4416183 Z" id="Shape" fill="#113287" fill-rule="nonzero"></path>
            <path d="M480.623199,76.3871377 C481.991325,76.3958822 482.901074,75.4504975 482.901074,74.2148333 C482.901074,72.9967801 481.986321,72.1261416 480.851387,72.1217389 C480.160819,72.1261416 479.563327,72.4427374 479.216041,72.9835719 L479.144983,72.9835719 C479.144983,71.5456827 479.717454,70.6926551 480.702264,70.6882524 C481.344793,70.6926551 481.753129,71.0663863 481.881235,71.5853072 L482.840024,71.5853072 C482.6899,70.5738817 481.876231,69.8439303 480.702264,69.8439303 C479.176008,69.8439303 478.217219,71.1104135 478.213216,73.326584 C478.213216,75.6791389 479.444229,76.3782713 480.623199,76.3871377 Z M479.260078,74.2412497 C479.268084,73.5333119 479.862573,72.9088257 480.640213,72.9132041 C481.405844,72.9088257 481.9603,73.5024928 481.9603,74.2324442 C481.9603,74.9756038 481.383825,75.5735736 480.614192,75.5779763 C479.831548,75.5735736 479.264081,74.9491875 479.260078,74.2412497 Z" id="Shape" fill="#113287" fill-rule="nonzero"></path>
            <path d="M486.146745,76.3870767 C487.620959,76.3870767 488.482668,75.1998425 488.486671,73.1155535 C488.482668,71.0444727 487.606947,69.8439303 486.146745,69.8439303 C484.68254,69.8439303 483.80782,71.0444727 483.80782,73.1155535 C483.80782,75.1998425 484.673533,76.3870767 486.146745,76.3870767 Z M484.774593,73.1155535 C484.774593,71.5324745 485.289039,70.6662388 486.146745,70.6618361 C487.000448,70.6662388 487.519876,71.5324745 487.519876,73.1155535 C487.519876,74.7029352 487.004451,75.55156 486.146745,75.55156 C485.285036,75.55156 484.770613,74.7029352 484.774593,73.1155535 Z" id="Shape" fill="#113287" fill-rule="nonzero"></path>
            <path d="M490.870633,72.8077852 C491.6803,72.8121659 492.335839,72.1569607 492.330863,71.3478603 C492.335839,70.53876 491.6803,69.8835548 490.870633,69.8791521 C490.061968,69.8835548 489.406428,70.53876 489.410413,71.3478603 C489.406428,72.1569607 490.061968,72.8121659 490.870633,72.8077852 Z M490.114011,71.3478603 C490.119015,70.930102 490.45329,70.5958953 490.870633,70.600298 C491.288978,70.5958953 491.623253,70.930102 491.618249,71.3478603 C491.623253,71.761216 491.288978,72.0997253 490.870633,72.104128 C490.45329,72.0997253 490.119015,71.761216 490.114011,71.3478603 Z" id="Shape" fill="#113287" fill-rule="nonzero"></path>
            <polygon id="Path" fill="#113287" fill-rule="nonzero" points="495.814702 69.6328998 494.979015 69.6328998 492.929328 77.2577151 493.765015 77.2577151"></polygon>
            <polygon id="Path" fill="#113287" fill-rule="nonzero" points="498.919257 69.9318847 497.969476 69.9318847 496.386173 70.9696264 496.386173 71.8930975 497.907425 70.8992829 497.943454 70.8992829 497.943454 76.2991223 498.919257 76.2991223"></polygon>
            <path d="M500.537589,76.2991223 L504.822116,76.2991223 L504.822116,75.4724111 L501.883697,75.4724111 L501.883697,75.4196785 L503.176761,74.1092681 C504.372746,72.935242 504.707021,72.3679912 504.716028,71.6556507 C504.707021,70.6223116 503.858322,69.8439303 502.631313,69.8439303 C501.417313,69.8439303 500.529583,70.6135062 500.537589,71.7787268 L501.452342,71.7787268 C501.457346,71.101608 501.905715,70.6530306 502.614299,70.6530306 C503.282849,70.6530306 503.792268,71.0531781 503.792268,71.682067 C503.792268,72.2405124 503.444982,72.6450626 502.745406,73.3706113 L500.537589,75.5955872 L500.537589,76.2991223 Z" id="Path" fill="#113287" fill-rule="nonzero"></path>
            <path d="M508.111823,76.3870767 C509.585036,76.3870767 510.446745,75.1998425 510.451749,73.1155535 C510.446745,71.0444727 509.572025,69.8439303 508.111823,69.8439303 C506.646617,69.8439303 505.771897,71.0444727 505.771897,73.1155535 C505.771897,75.1998425 506.638611,76.3870767 508.111823,76.3870767 Z M506.739694,73.1155535 C506.739694,71.5324745 507.254117,70.6662388 508.111823,70.6618361 C508.964525,70.6662388 509.483952,71.5324745 509.483952,73.1155535 C509.483952,74.7029352 508.969529,75.55156 508.111823,75.55156 C507.249113,75.55156 506.73469,74.7029352 506.739694,73.1155535 Z" id="Shape" fill="#113287" fill-rule="nonzero"></path>
            <path d="M512.83471,72.8077852 C513.644376,72.8121659 514.299916,72.1569607 514.29494,71.3478603 C514.299916,70.53876 513.644376,69.8835548 512.83471,69.8791521 C512.026045,69.8835548 511.370505,70.53876 511.37449,71.3478603 C511.370505,72.1569607 512.026045,72.8121659 512.83471,72.8077852 Z M512.079088,71.3478603 C512.083092,70.930102 512.417367,70.5958953 512.83471,70.600298 C513.253054,70.5958953 513.58733,70.930102 513.583326,71.3478603 C513.58733,71.761216 513.253054,72.0997253 512.83471,72.104128 C512.417367,72.0997253 512.083092,71.761216 512.079088,71.3478603 Z" id="Shape" fill="#113287" fill-rule="nonzero"></path>
            <path d="M732.177233,69.8439696 C730.792093,69.8352249 729.890351,70.7850123 729.890351,71.9986628 C729.890351,73.2167161 730.805104,74.0917572 731.949046,74.0917572 C732.63461,74.0917572 733.233102,73.766356 733.576385,73.2299243 L733.65545,73.2299243 C733.646443,74.6854244 733.069968,75.5384519 732.089161,75.5428546 C731.447633,75.5384519 731.033292,75.1647208 730.902184,74.628289 L729.943395,74.628289 C730.096521,75.6616281 730.915195,76.3871768 732.089161,76.3871768 C733.615417,76.3871768 734.578209,75.1206936 734.578209,72.8869121 C734.574206,70.5563709 733.347196,69.8528358 732.177233,69.8439696 Z M730.831105,71.9810519 C730.827122,71.2512006 731.4076,70.6531307 732.177233,70.6531307 C732.955874,70.6531307 733.523341,71.2819196 733.523341,71.9723465 C733.523341,72.6758816 732.929853,73.3046705 732.159219,73.3002925 C731.385582,73.3046705 730.83613,72.7198088 730.831105,71.9810519 Z" id="Shape" fill="#113287" fill-rule="nonzero"></path>
            <path d="M737.815874,76.3871768 C739.289087,76.3871768 740.150796,75.1998425 740.1558,73.1155535 C740.150796,71.0444727 739.276076,69.8440303 737.815874,69.8440303 C736.350668,69.8440303 735.475948,71.0444727 735.475948,73.1155535 C735.475948,75.1998425 736.342662,76.3871768 737.815874,76.3871768 Z M736.443745,73.1155535 C736.443745,71.5325746 736.958168,70.6663389 737.815874,70.6619361 C738.668576,70.6663389 739.188003,71.5325746 739.188003,73.1155535 C739.188003,74.7030353 738.67358,75.5516601 737.815874,75.5516601 C736.954165,75.5516601 736.438741,74.7030353 736.443745,73.1155535 Z" id="Shape" fill="#113287" fill-rule="nonzero"></path>
            <path d="M742.539762,72.8077852 C743.348427,72.8121659 744.003967,72.1569607 743.999982,71.3478603 C744.003967,70.53876 743.348427,69.8836548 742.539762,69.8792521 C741.730096,69.8836548 741.074556,70.53876 741.079532,71.3478603 C741.074556,72.1569607 741.730096,72.8121659 742.539762,72.8077852 Z M741.783139,71.3478603 C741.787142,70.930202 742.121418,70.5959954 742.539762,70.6003981 C742.957105,70.5959954 743.291381,70.930202 743.287377,71.3478603 C743.291381,71.761216 742.957105,72.0998254 742.539762,72.1042281 C742.121418,72.0998254 741.787142,71.761216 741.783139,71.3478603 Z" id="Shape" fill="#113287" fill-rule="nonzero"></path>
            <rect id="Rectangle" fill="#5B6EB4" fill-rule="nonzero" x="496.767486" y="20.2644691" width="240.197687" height="24.0148514"></rect>
            <polygon id="Path" fill="#FFFFFF" fill-rule="nonzero" points="595.471722 31.9201773 590.301467 31.9201773 590.301467 29.3110637 595.393658 29.3110637 595.393658 28.5586984 589.373703 28.5586984 589.373703 32.6627365 591.904786 32.6627365 591.904786 34.8027599 588.375882 34.8027599 588.375882 35.5649313 596.390478 35.5649313 596.390478 34.8027599 592.823543 34.8027599 592.823543 32.6627365 595.471722 32.6627365"></polygon>
            <path d="M598.355095,28.5098682 L597.426331,28.5098682 L597.426331,32.6627365 L598.139918,32.6627365 C599.444992,32.6676395 600.789098,32.5845881 602.255305,32.2817008 L602.147216,31.5195295 C600.789098,31.8029047 599.543073,31.8810531 598.355095,31.8810531 L598.355095,28.5098682 Z M598.375112,36.4541812 L604.209914,36.4541812 L604.209914,35.7018159 L599.312883,35.7018159 L599.312883,33.5911106 L598.375112,33.5911106 L598.375112,36.4541812 Z M602.9779,34.2066913 L603.906664,34.2066913 L603.906664,31.2361542 L605.17771,31.2361542 L605.17771,30.4445647 L603.906664,30.4445647 L603.906664,27.8941875 L602.9779,27.8941875 L602.9779,34.2066913 Z" id="Shape" fill="#FFFFFF" fill-rule="nonzero"></path>
            <path d="M608.890766,30.1123593 L608.890766,28.6173347 L607.952994,28.6173347 L607.952994,30.1123593 C607.952994,31.7832926 606.985198,33.459129 605.607064,34.0699067 L606.174531,34.8515901 C607.224395,34.3385729 608.031059,33.2833203 608.436392,31.9983256 C608.847731,33.1953659 609.643386,34.1773732 610.650214,34.6561693 L611.207673,33.923316 C609.849555,33.3223444 608.881759,31.7100473 608.890766,30.1123593 Z M611.999325,36.6594081 L612.928089,36.6594081 L612.928089,27.8844815 L611.999325,27.8844815 L611.999325,36.6594081 Z" id="Shape" fill="#FFFFFF" fill-rule="nonzero"></path>
            <path d="M617.071499,35.8092824 L621.831417,35.8092824 L621.831417,34.8907143 L618.56673,34.8907143 L618.56673,34.832078 L620.003912,33.3760776 C621.333006,32.0715709 621.704312,31.4412811 621.71432,30.6497916 C621.704312,29.5016816 620.761536,28.6368468 619.398414,28.6368468 C618.049304,28.6368468 617.062492,29.4918755 617.071499,30.7865762 L618.088336,30.7865762 C618.09334,30.0342109 618.59175,29.5358027 619.378398,29.5358027 C620.121009,29.5358027 620.688476,29.9804777 620.688476,30.6791097 C620.688476,31.2995935 620.302158,31.7491715 619.525519,32.55527 L617.071499,35.0274989 L617.071499,35.8092824 Z" id="Path" fill="#FFFFFF" fill-rule="nonzero"></path>
            <path d="M625.457401,28.636779 C623.918134,28.6270407 622.916309,29.6823933 622.916309,31.0309273 C622.916309,32.3842643 623.933146,33.3565656 625.203192,33.3565656 C625.965819,33.3565656 626.630366,32.995042 627.01168,32.3989734 L627.099753,32.3989734 C627.089744,34.0161735 626.449217,34.9639596 625.360321,34.9688626 C624.646734,34.9639596 624.187356,34.5487028 624.040234,33.9526342 L622.975358,33.9526342 C623.146499,35.1008443 624.055247,35.9069428 625.360321,35.9069428 C627.055716,35.9069428 628.125597,34.4998726 628.125597,32.0178376 C628.120593,29.4283362 626.757471,28.6466528 625.457401,28.636779 Z M623.962141,31.0114153 C623.957166,30.2003136 624.602697,29.5358027 625.457401,29.5358027 C626.322112,29.5358027 626.952631,30.2345348 626.952631,31.0016092 C626.952631,31.7832926 626.293089,32.4820247 625.438385,32.4771492 C624.577677,32.4820247 623.967174,31.8322229 623.962141,31.0114153 Z" id="Shape" fill="#FFFFFF" fill-rule="nonzero"></path>
            <path d="M629.689884,35.8776246 C630.066194,35.8727216 630.378451,35.5649313 630.383455,35.1838956 C630.378451,34.8027599 630.066194,34.4900665 629.689884,34.4900665 C629.30857,34.4900665 628.991309,34.8027599 628.995313,35.1838956 C628.991309,35.5649313 629.30857,35.8727216 629.689884,35.8776246 Z" id="Path" fill="#FFFFFF" fill-rule="nonzero"></path>
            <path d="M633.980415,28.636779 C632.441149,28.6270407 631.439324,29.6823933 631.439324,31.0309273 C631.439324,32.3842643 632.45516,33.3565656 633.726206,33.3565656 C634.488834,33.3565656 635.153381,32.995042 635.534695,32.3989734 L635.621766,32.3989734 C635.612759,34.0161735 634.972232,34.9639596 633.882335,34.9688626 C633.168747,34.9639596 632.709369,34.5487028 632.563249,33.9526342 L631.497372,33.9526342 C631.668513,35.1008443 632.577261,35.9069428 633.882335,35.9069428 C635.578731,35.9069428 636.648611,34.4998726 636.648611,32.0178376 C636.643607,29.4283362 635.280485,28.6466528 633.980415,28.636779 Z M632.485156,31.0114153 C632.480181,30.2003136 633.124711,29.5358027 633.980415,29.5358027 C634.845127,29.5358027 635.475646,30.2345348 635.475646,31.0016092 C635.475646,31.7832926 634.816103,32.4820247 633.960399,32.4771492 C633.100691,32.4820247 632.490189,31.8322229 632.485156,31.0114153 Z" id="Shape" fill="#FFFFFF" fill-rule="nonzero"></path>
            <path d="M639.40488,32.095986 C640.357664,32.105792 640.885098,31.3924509 640.890102,30.3370982 C640.885098,29.3013577 640.37668,28.5831135 639.40488,28.5879916 C638.461103,28.5831135 637.909649,29.3013577 637.918657,30.3370982 C637.909649,31.3875479 638.437083,32.105792 639.40488,32.095986 Z M638.720316,35.8092824 L639.610049,35.8092824 L644.467046,28.7346072 L643.578315,28.7346072 L638.720316,35.8092824 Z M638.720316,30.3370982 C638.725321,29.7068084 638.950506,29.2817456 639.40488,29.2720396 C639.878269,29.2671365 640.079435,29.7020055 640.079435,30.3370982 C640.079435,30.9869001 639.864258,31.40716 639.40488,31.411963 C638.950506,31.40716 638.725321,30.9869001 638.720316,30.3370982 Z M642.385333,34.1968852 C642.380329,35.2376288 642.908764,35.955873 643.871556,35.955873 C644.82434,35.955873 645.351774,35.2425319 645.356778,34.1968852 C645.351774,33.1513386 644.838352,32.4330945 643.871556,32.4379725 C642.927779,32.4330945 642.380329,33.1513386 642.385333,34.1968852 Z M643.186993,34.1968852 C643.191997,33.5568894 643.421185,33.1318266 643.871556,33.1220205 C644.344946,33.1220205 644.546111,33.5519864 644.546111,34.1968852 C644.546111,34.8369811 644.330934,35.2620439 643.871556,35.2620439 C643.417182,35.2620439 643.191997,34.8369811 643.186993,34.1968852 Z" id="Shape" fill="#FFFFFF" fill-rule="nonzero"></path>
            <rect id="Rectangle" fill="#113287" fill-rule="nonzero" x="255.568975" y="20.2644691" width="241.198511" height="24.0148514"></rect>
            <path d="M351.612021,30.1123593 L351.612021,28.6173347 L350.683256,28.6173347 L350.683256,30.1123593 C350.678252,31.7149503 349.769504,33.3956897 348.426399,34.0405886 L349.002873,34.7929539 C349.999694,34.2751336 350.766325,33.224684 351.157647,31.9836165 C351.543965,33.1513386 352.281572,34.128543 353.234356,34.6268511 L353.81083,33.8841918 C352.506757,33.2490991 351.602012,31.6612171 351.612021,30.1123593 Z M354.46637,36.639896 L355.394133,36.639896 L355.394133,32.1644283 L356.802292,32.1644283 L356.802292,31.3729388 L355.394133,31.3729388 L355.394133,27.8844815 L354.46637,27.8844815 L354.46637,36.639896 Z" id="Shape" fill="#FFFFFF" fill-rule="nonzero"></path>
            <path d="M358.551732,28.5098682 L357.622968,28.5098682 L357.622968,32.6627365 L358.336555,32.6627365 C359.641629,32.6676395 360.984735,32.5845881 362.450941,32.2817008 L362.343853,31.5195295 C360.984735,31.8029047 359.738709,31.8810531 358.551732,31.8810531 L358.551732,28.5098682 Z M358.570748,36.4541812 L364.40555,36.4541812 L364.40555,35.7018159 L359.50952,35.7018159 L359.50952,33.5911106 L358.570748,33.5911106 L358.570748,36.4541812 Z M363.174537,34.2066913 L364.103301,34.2066913 L364.103301,31.2361542 L365.373346,31.2361542 L365.373346,30.4445647 L364.103301,30.4445647 L364.103301,27.8941875 L363.174537,27.8941875 L363.174537,34.2066913 Z" id="Shape" fill="#FFFFFF" fill-rule="nonzero"></path>
            <path d="M369.087403,30.1123593 L369.087403,28.6173347 L368.149631,28.6173347 L368.149631,30.1123593 C368.149631,31.7832926 367.181835,33.459129 365.803701,34.0699067 L366.370167,34.8515901 C367.421032,34.3385729 368.227696,33.2833203 368.633029,31.9983256 C369.043367,33.1953659 369.840023,34.1773732 370.846851,34.6561693 L371.40431,33.923316 C370.045192,33.3223444 369.077395,31.7100473 369.087403,30.1123593 Z M372.195962,36.6594081 L373.123725,36.6594081 L373.123725,27.8844815 L372.195962,27.8844815 L372.195962,36.6594081 Z" id="Shape" fill="#FFFFFF" fill-rule="nonzero"></path>
            <polygon id="Path" fill="#FFFFFF" fill-rule="nonzero" points="379.955348 28.7346072 378.90048 28.7346072 377.141032 29.8876203 377.141032 30.9136548 378.831423 29.8094719 378.870455 29.8094719 378.870455 35.8092824 379.955348 35.8092824"></polygon>
            <path d="M381.753828,35.8092824 L386.513745,35.8092824 L386.513745,34.8907143 L383.249059,34.8907143 L383.249059,34.832078 L384.686241,33.3760776 C386.015335,32.0715709 386.386641,31.4412811 386.396649,30.6497916 C386.386641,29.5016816 385.443865,28.6368468 384.080743,28.6368468 C382.731633,28.6368468 381.744821,29.4918755 381.753828,30.7865762 L382.770665,30.7865762 C382.775669,30.0342109 383.274079,29.5358027 384.060727,29.5358027 C384.803338,29.5358027 385.370805,29.9804777 385.370805,30.6791097 C385.370805,31.2995935 384.984487,31.7491715 384.206847,32.55527 L381.753828,35.0274989 L381.753828,35.8092824 Z" id="Path" fill="#FFFFFF" fill-rule="nonzero"></path>
            <path d="M388.400298,35.8776246 C388.776608,35.8727216 389.088865,35.5649313 389.093869,35.1838956 C389.088865,34.8027599 388.776608,34.4900665 388.400298,34.4900665 C388.018984,34.4900665 387.701723,34.8027599 387.706727,35.1838956 C387.701723,35.5649313 388.018984,35.8727216 388.400298,35.8776246 Z" id="Path" fill="#FFFFFF" fill-rule="nonzero"></path>
            <path d="M392.602757,35.9069428 C394.068964,35.9069428 395.158861,35.042208 395.15389,33.8646798 C395.158861,32.9706269 394.596398,32.320725 393.629602,32.1839404 L393.629602,32.1351102 C394.391229,31.9445924 394.889639,31.3680358 394.880632,30.5618372 C394.889639,29.5162906 394.014919,28.6368468 392.622773,28.6368468 C391.302687,28.6368468 390.23781,29.4186302 390.208787,30.5716433 L391.244639,30.5716433 C391.268659,29.9315474 391.904182,29.5358027 392.612765,29.5358027 C393.36038,29.5358027 393.843778,29.9755747 393.843778,30.6204735 C393.843778,31.2995935 393.282316,31.7491715 392.475652,31.7442685 L391.870154,31.7442685 L391.870154,32.6237123 L392.475652,32.6237123 C393.487485,32.6286154 394.068964,33.1269235 394.068964,33.8256556 C394.068964,34.5144816 393.448453,34.9786687 392.592749,34.9786687 C391.801097,34.9786687 391.18559,34.582924 391.146558,33.9624402 L390.051657,33.9624402 C390.095693,35.1203563 391.13655,35.9069428 392.602757,35.9069428 Z" id="Path" fill="#FFFFFF" fill-rule="nonzero"></path>
            <path d="M397.959165,32.095986 C398.911949,32.105792 399.439384,31.3924509 399.444388,30.3370982 C399.439384,29.3013577 398.930965,28.5831135 397.959165,28.5879916 C397.015389,28.5831135 396.463935,29.3013577 396.472942,30.3370982 C396.463935,31.3875479 396.991369,32.105792 397.959165,32.095986 Z M397.274602,35.8092824 L398.164334,35.8092824 L403.021332,28.7346072 L402.1326,28.7346072 L397.274602,35.8092824 Z M397.274602,30.3370982 C397.279606,29.7068084 397.504791,29.2817456 397.959165,29.2720396 C398.432555,29.2671365 398.63372,29.7020055 398.63372,30.3370982 C398.63372,30.9869001 398.418543,31.40716 397.959165,31.411963 C397.504791,31.40716 397.279606,30.9869001 397.274602,30.3370982 Z M400.939618,34.1968852 C400.934614,35.2376288 401.463049,35.955873 402.425841,35.955873 C403.378626,35.955873 403.90606,35.2425319 403.911064,34.1968852 C403.90606,33.1513386 403.392637,32.4330945 402.425841,32.4379725 C401.482065,32.4330945 400.934614,33.1513386 400.939618,34.1968852 Z M401.741278,34.1968852 C401.746282,33.5568894 401.975471,33.1318266 402.425841,33.1220205 C402.899231,33.1220205 403.099396,33.5519864 403.099396,34.1968852 C403.099396,34.8369811 402.88522,35.2620439 402.425841,35.2620439 C401.970467,35.2620439 401.746282,34.8369811 401.741278,34.1968852 Z" id="Shape" fill="#FFFFFF" fill-rule="nonzero"></path>
            <rect id="Rectangle" fill="#E2E6F6" fill-rule="nonzero" x="15.371488" y="20.2644691" width="240.197687" height="24.0148514"></rect>
            <path d="M110.396495,29.4576544 L110.396495,29.2134033 L112.321079,29.2134033 L112.321079,28.460938 L107.493106,28.460938 L107.493106,29.2134033 L109.457723,29.2134033 L109.457723,29.4576544 C109.452719,30.6448886 108.612027,31.7881956 107.248905,32.2621888 L107.7283,32.9754298 C108.769156,32.6090032 109.545795,31.856638 109.941121,30.9087518 C110.337447,31.7881956 111.100075,32.4771217 112.106903,32.8093271 L112.585297,32.08628 C111.231182,31.6612171 110.396495,30.5814493 110.396495,29.4576544 Z M108.479918,34.363088 L113.484037,34.363088 L113.484037,36.639896 L114.412801,36.639896 L114.412801,33.6106227 L108.479918,33.6106227 L108.479918,34.363088 Z M113.484037,33.1709508 L114.412801,33.1709508 L114.412801,27.8844815 L113.484037,27.8844815 L113.484037,33.1709508 Z" id="Shape" fill="#113287" fill-rule="nonzero"></path>
            <path d="M117.130037,28.5098682 L116.201273,28.5098682 L116.201273,32.6627365 L116.91486,32.6627365 C118.219934,32.6676395 119.564041,32.5845881 121.030247,32.2817008 L120.922158,31.5195295 C119.564041,31.8029047 118.318015,31.8810531 117.130037,31.8810531 L117.130037,28.5098682 Z M117.150054,36.4541812 L122.984856,36.4541812 L122.984856,35.7018159 L118.087826,35.7018159 L118.087826,33.5911106 L117.150054,33.5911106 L117.150054,36.4541812 Z M121.752842,34.2066913 L122.681606,34.2066913 L122.681606,31.2361542 L123.951652,31.2361542 L123.951652,30.4445647 L122.681606,30.4445647 L122.681606,27.8941875 L121.752842,27.8941875 L121.752842,34.2066913 Z" id="Shape" fill="#113287" fill-rule="nonzero"></path>
            <path d="M127.665708,30.1123593 L127.665708,28.6173347 L126.727937,28.6173347 L126.727937,30.1123593 C126.727937,31.7832926 125.76014,33.459129 124.382006,34.0699067 L124.949473,34.8515901 C125.999337,34.3385729 126.806001,33.2833203 127.211334,31.9983256 C127.621672,33.1953659 128.418328,34.1773732 129.425156,34.6561693 L129.982615,33.923316 C128.623497,33.3223444 127.656701,31.7100473 127.665708,30.1123593 Z M130.774267,36.6594081 L131.703031,36.6594081 L131.703031,27.8844815 L130.774267,27.8844815 L130.774267,36.6594081 Z" id="Shape" fill="#113287" fill-rule="nonzero"></path>
            <path d="M138.358509,35.9069428 C139.824716,35.9069428 140.914613,35.042208 140.909642,33.8646798 C140.914613,32.9706269 140.35215,32.320725 139.384353,32.1839404 L139.384353,32.1351102 C140.146981,31.9445924 140.645391,31.3680358 140.635383,30.5618372 C140.645391,29.5162906 139.770671,28.6368468 138.378525,28.6368468 C137.058439,28.6368468 135.993562,29.4186302 135.963538,30.5716433 L137.000391,30.5716433 C137.024411,29.9315474 137.659934,29.5358027 138.368517,29.5358027 C139.116132,29.5358027 139.59953,29.9755747 139.59953,30.6204735 C139.59953,31.2995935 139.038068,31.7491715 138.231404,31.7442685 L137.625906,31.7442685 L137.625906,32.6237123 L138.231404,32.6237123 C139.243237,32.6286154 139.824716,33.1269235 139.824716,33.8256556 C139.824716,34.5144816 139.204205,34.9786687 138.348501,34.9786687 C137.556849,34.9786687 136.941342,34.582924 136.90231,33.9624402 L135.807409,33.9624402 C135.851445,35.1203563 136.892302,35.9069428 138.358509,35.9069428 Z" id="Path" fill="#113287" fill-rule="nonzero"></path>
            <path d="M144.564617,35.9069428 C146.079864,35.9069428 147.159752,35.0764292 147.164757,33.923316 C147.159752,33.014554 146.505214,32.2718948 145.678533,32.1449162 L145.678533,32.105792 C146.392121,31.9396893 146.886528,31.2947905 146.890531,30.5228131 C146.886528,29.4332393 145.898715,28.6368468 144.564617,28.6368468 C143.211503,28.6368468 142.228694,29.4332393 142.228694,30.5228131 C142.228694,31.2947905 142.713093,31.9396893 143.440692,32.105792 L143.440692,32.1449162 C142.605004,32.2718948 141.955469,33.014554 141.965477,33.923316 C141.955469,35.0764292 143.02535,35.9069428 144.564617,35.9069428 Z M143.059378,33.8451677 C143.045366,33.1171175 143.684893,32.5845881 144.564617,32.5845881 C145.434332,32.5845881 146.069855,33.1171175 146.069855,33.8451677 C146.069855,34.5388967 145.483373,35.0177929 144.564617,35.0177929 C143.631849,35.0177929 143.045366,34.5388967 143.059378,33.8451677 Z M143.274555,30.6204735 C143.279559,29.9608656 143.787977,29.5113876 144.564617,29.5162906 C145.32224,29.5113876 145.840667,29.9608656 145.835663,30.6204735 C145.840667,31.2849844 145.302224,31.7393654 144.564617,31.7344624 C143.806993,31.7393654 143.279559,31.2800814 143.274555,30.6204735 Z" id="Shape" fill="#113287" fill-rule="nonzero"></path>
            <path d="M148.758068,35.8776246 C149.134378,35.8727216 149.446635,35.5649313 149.451639,35.1838956 C149.446635,34.8027599 149.134378,34.4900665 148.758068,34.4900665 C148.376754,34.4900665 148.058492,34.8027599 148.063496,35.1838956 C148.058492,35.5649313 148.376754,35.8727216 148.758068,35.8776246 Z" id="Path" fill="#113287" fill-rule="nonzero"></path>
            <polygon id="Path" fill="#113287" fill-rule="nonzero" points="150.761717 35.8092824 151.885642 35.8092824 155.032232 29.6921994 155.032232 28.7346072 150.272314 28.7346072 150.272314 29.6530752 153.918315 29.6530752 153.918315 29.7117115"></polygon>
            <path d="M157.73946,32.095986 C158.692244,32.105792 159.220679,31.3924509 159.225683,30.3370982 C159.220679,29.3013577 158.71226,28.5831135 157.73946,28.5879916 C156.796684,28.5831135 156.244229,29.3013577 156.254237,30.3370982 C156.244229,31.3875479 156.771663,32.105792 157.73946,32.095986 Z M157.055897,35.8092824 L157.944629,35.8092824 L162.802627,28.7346072 L161.912895,28.7346072 L157.055897,35.8092824 Z M157.055897,30.3370982 C157.060901,29.7068084 157.285086,29.2817456 157.73946,29.2720396 C158.21385,29.2671365 158.414015,29.7020055 158.414015,30.3370982 C158.414015,30.9869001 158.198838,31.40716 157.73946,31.411963 C157.285086,31.40716 157.060901,30.9869001 157.055897,30.3370982 Z M160.720913,34.1968852 C160.715909,35.2376288 161.243343,35.955873 162.206136,35.955873 C163.15892,35.955873 163.687355,35.2425319 163.691358,34.1968852 C163.687355,33.1513386 163.173932,32.4330945 162.206136,32.4379725 C161.26336,32.4330945 160.715909,33.1513386 160.720913,34.1968852 Z M161.522573,34.1968852 C161.526577,33.5568894 161.756766,33.1318266 162.206136,33.1220205 C162.680526,33.1220205 162.880691,33.5519864 162.880691,34.1968852 C162.880691,34.8369811 162.665514,35.2620439 162.206136,35.2620439 C161.751762,35.2620439 161.526577,34.8369811 161.522573,34.1968852 Z" id="Shape" fill="#113287" fill-rule="nonzero"></path>
            <polygon id="Path" fill="#113287" points="14.3707644 64.2916966 14.3706643 0.252112913 16.3723117 0.252112913 16.3724118 64.2916966"></polygon>
            <polygon id="Path" fill="#113287" points="735.953341 64.2916966 735.953341 0.252112913 737.954989 0.252112913 737.954989 64.2916966"></polygon>
            <polygon id="Path" fill="#979797" points="255.068563 64.0396407 255.068563 0 256.069387 0 256.069387 64.0396407"></polygon>
            <polygon id="Path" fill="#979797" points="496.267075 64.0396407 496.267075 0 497.267898 0 497.267898 64.0396407"></polygon>
        </g>
    </g>
</svg>