<?xml version="1.0" encoding="UTF-8"?>
<svg width="744px" height="78px" viewBox="0 0 744 78" version="1.1" xmlns="http://www.w3.org/2000/svg" xmlns:xlink="http://www.w3.org/1999/xlink">
    <title>astigmatismAxis</title>
    <g id="astigmatismAxis" stroke="none" stroke-width="1" fill="none" fill-rule="evenodd">
        <g id="AGE_07_12" transform="translate(0.000000, 0.000000)">
            <path d="M2.33981271,76.3870768 C3.81319534,76.3870768 4.67523481,75.1998428 4.67962843,73.115554 C4.67523481,71.0443734 3.80000448,69.8439311 2.33981271,69.8439311 C0.875237338,69.8439311 0,71.0443734 0,73.115554 C0,75.1998428 0.866440097,76.3870768 2.33981271,76.3870768 Z M0.967593348,73.115554 C0.967593348,71.5324752 1.48217686,70.6662396 2.33981271,70.6618369 C3.19305495,70.6662396 3.71204208,71.5324752 3.71204208,73.115554 C3.71204208,74.7029355 3.19745857,75.5515602 2.33981271,75.5515602 C1.47778324,75.5515602 0.963199732,74.7029355 0.967593348,73.115554 Z" id="Shape" fill="#113287" fill-rule="nonzero"></path>
            <path d="M7.06343034,72.8076857 C7.87268638,72.8120664 8.52801573,72.1569613 8.52363417,71.347861 C8.52801573,70.5387608 7.87268638,69.8835556 7.06343034,69.8791529 C6.25417431,69.8835556 5.59884496,70.5387608 5.60322652,71.347861 C5.59884496,72.1569613 6.25417431,72.8120664 7.06343034,72.8076857 Z M6.30694774,71.347861 C6.31135137,70.9301027 6.64560647,70.5958961 7.06343034,70.6002988 C7.48125422,70.5958961 7.81551933,70.9301027 7.8111157,71.347861 C7.81551933,71.7612166 7.48125422,72.0997259 7.06343034,72.1041286 C6.64560647,72.0997259 6.31135137,71.7612166 6.30694774,71.347861 Z" id="Shape" fill="#113287" fill-rule="nonzero"></path>
            <polygon id="Path" fill="#113287" fill-rule="nonzero" points="12.0069189 69.6329007 11.1713312 69.6329007 9.12176439 77.2577152 9.95743216 77.2577152"></polygon>
            <polygon id="Path" fill="#113287" fill-rule="nonzero" points="15.1120745 69.9318855 14.1620927 69.9318855 12.5786895 70.9696272 12.5786895 71.8930982 14.1004419 70.8992837 14.1356709 70.8992837 14.1356709 76.2991224 15.1120745 76.2991224"></polygon>
            <path d="M18.9560382,76.3870768 C20.3194603,76.3870768 21.2914603,75.6395146 21.2958639,74.601773 C21.2914603,73.7838672 20.7020752,73.115554 19.9587635,73.0011833 L19.9587635,72.9660616 C20.6008919,72.8164691 21.0451576,72.2361102 21.0495612,71.5412806 C21.0451576,70.5606743 20.1567264,69.8439311 18.9560382,69.8439311 C17.7377355,69.8439311 16.8537079,70.5606743 16.8537079,71.5412806 C16.8537079,72.2361102 17.2891663,72.8164691 17.9445057,72.9660616 L17.9445057,73.0011833 C17.1923867,73.115554 16.6074052,73.7838672 16.6162125,74.601773 C16.6074052,75.6395146 17.5705979,76.3870768 18.9560382,76.3870768 Z M17.6014233,74.5314295 C17.5882124,73.8762243 18.1643866,73.396928 18.9560382,73.396928 C19.7388825,73.396928 20.3106531,73.8762243 20.3106531,74.5314295 C20.3106531,75.1558155 19.7829187,75.586782 18.9560382,75.586782 C18.1159468,75.586782 17.5882124,75.1558155 17.6014233,74.5314295 Z M17.7948825,71.629235 C17.7992862,71.035668 18.2567627,70.6311179 18.9560382,70.6355206 C19.6376992,70.6311179 20.103983,71.035668 20.0995794,71.629235 C20.103983,72.2273048 19.6201848,72.6362577 18.9560382,72.6318549 C18.2742771,72.6362577 17.7992862,72.2229021 17.7948825,71.629235 Z" id="Shape" fill="#113287" fill-rule="nonzero"></path>
            <path d="M24.5153136,76.3870768 C25.9886262,76.3870768 26.8507357,75.1998428 26.8551393,73.115554 C26.8507357,71.0443734 25.9755154,69.8439311 24.5153136,69.8439311 C23.0507082,69.8439311 22.1754879,71.0443734 22.1754879,73.115554 C22.1754879,75.1998428 23.0419009,76.3870768 24.5153136,76.3870768 Z M23.1430842,73.115554 C23.1430842,71.5324752 23.6576077,70.6662396 24.5153136,70.6618369 C25.3685158,70.6662396 25.887543,71.5324752 25.887543,73.115554 C25.887543,74.7029355 25.3729194,75.5515602 24.5153136,75.5515602 C23.6533041,75.5515602 23.1386806,74.7029355 23.1430842,73.115554 Z" id="Shape" fill="#113287" fill-rule="nonzero"></path>
            <path d="M29.2389012,72.8076857 C30.0481672,72.8120664 30.7035066,72.1569613 30.699125,71.347861 C30.7035066,70.5387608 30.0481672,69.8835556 29.2389012,69.8791529 C28.4296352,69.8835556 27.7742958,70.5387608 27.7786774,71.347861 C27.7742958,72.1569613 28.4296352,72.8120664 29.2389012,72.8076857 Z M28.4823786,71.347861 C28.4867822,70.9301027 28.8210573,70.5958961 29.2389012,70.6002988 C29.6567451,70.5958961 29.9910202,70.9301027 29.9866166,71.347861 C29.9910202,71.7612166 29.6567451,72.0997259 29.2389012,72.1041286 C28.8210573,72.0997259 28.4867822,71.7612166 28.4823786,71.347861 Z" id="Shape" fill="#113287" fill-rule="nonzero"></path>
            <path d="M239.604837,76.4808348 C240.923922,76.4808348 241.904729,75.7025536 241.90075,74.6427983 C241.904729,73.8381008 241.399313,73.2533392 240.528597,73.1301631 L240.528597,73.0862359 C241.214161,72.9147298 241.663531,72.395809 241.654523,71.6702604 C241.663531,70.7292786 240.875883,69.9377892 239.622851,69.9377892 C238.434874,69.9377892 237.476085,70.6413242 237.450063,71.6790658 L238.38183,71.6790658 C238.403848,71.1030096 238.976319,70.7468895 239.613844,70.7468895 C240.286397,70.7468895 240.721756,71.1426341 240.721756,71.723093 C240.721756,72.3342709 240.21634,72.7388211 239.490743,72.7344184 L238.945294,72.7344184 L238.945294,73.5259077 L239.490743,73.5259077 C240.400491,73.5303105 240.923922,73.9788878 240.923922,74.6076766 C240.923922,75.22766 240.365463,75.6454183 239.595829,75.6454183 C238.883243,75.6454183 238.329787,75.289198 238.294758,74.7307527 L237.308947,74.7307527 C237.34898,75.7728971 238.285751,76.4808348 239.604837,76.4808348 Z" id="Path" fill="#113287" fill-rule="nonzero"></path>
            <path d="M245.181426,76.4808348 C246.655639,76.4808348 247.517349,75.2936007 247.521352,73.209312 C247.517349,71.1382314 246.641628,69.9377892 245.181426,69.9377892 C243.717221,69.9377892 242.8415,71.1382314 242.8415,73.209312 C242.8415,75.2936007 243.708214,76.4808348 245.181426,76.4808348 Z M243.809274,73.209312 C243.809274,71.6263332 244.32372,70.7600976 245.181426,70.7556949 C246.035129,70.7600976 246.553555,71.6263332 246.553555,73.209312 C246.553555,74.7966935 246.039132,75.6454183 245.181426,75.6454183 C244.319717,75.6454183 243.805294,74.7966935 243.809274,73.209312 Z" id="Shape" fill="#113287" fill-rule="nonzero"></path>
            <path d="M249.905314,72.9015437 C250.71498,72.9059244 251.369519,72.2507193 251.365534,71.441619 C251.369519,70.6325187 250.71498,69.9773136 249.905314,69.9729109 C249.095648,69.9773136 248.441109,70.6325187 248.445094,71.441619 C248.441109,72.2507193 249.095648,72.9059244 249.905314,72.9015437 Z M249.148691,71.441619 C249.153695,71.0238607 249.487971,70.6897541 249.905314,70.6940568 C250.323658,70.6897541 250.657933,71.0238607 250.652929,71.441619 C250.657933,71.8549746 250.323658,72.193584 249.905314,72.1979867 C249.487971,72.193584 249.153695,71.8549746 249.148691,71.441619 Z" id="Shape" fill="#113287" fill-rule="nonzero"></path>
            <polygon id="Path" fill="#113287" fill-rule="nonzero" points="254.849383 69.7266586 254.013695 69.7266586 251.964008 77.3515732 252.799696 77.3515732"></polygon>
            <polygon id="Path" fill="#113287" fill-rule="nonzero" points="257.953938 70.0257436 257.004157 70.0257436 255.420853 71.0634852 255.420853 71.9868561 256.942105 70.9931417 256.977134 70.9931417 256.977134 76.3929805 257.953938 76.3929805"></polygon>
            <path d="M261.736051,76.4808348 C263.065145,76.4808348 264.005919,75.5794775 264.005919,74.3262026 C264.005919,73.0994441 263.122192,72.2111948 261.921203,72.2067921 C261.437805,72.2111948 260.988436,72.3826008 260.725219,72.6376585 L260.663168,72.6376585 L260.874342,70.8523547 L263.680651,70.8523547 L263.680651,70.0257436 L260.073683,70.0257436 L259.660343,73.569935 L260.575095,73.569935 C260.791273,73.178593 261.182595,73.007087 261.692015,73.007087 C262.492674,73.0158924 263.065145,73.5787404 263.065145,74.3526189 C263.065145,75.1089866 262.510688,75.6674319 261.736051,75.6718346 C261.094523,75.6674319 260.575095,75.2716872 260.522052,74.7307527 L259.581278,74.7307527 C259.625314,75.7465808 260.531059,76.4808348 261.736051,76.4808348 Z" id="Path" fill="#113287" fill-rule="nonzero"></path>
            <path d="M267.25159,76.4808348 C268.724803,76.4808348 269.587513,75.2936007 269.591516,73.209312 C269.587513,71.1382314 268.711792,69.9377892 267.25159,69.9377892 C265.787385,69.9377892 264.911665,71.1382314 264.911665,73.209312 C264.911665,75.2936007 265.778378,76.4808348 267.25159,76.4808348 Z M265.879438,73.209312 C265.879438,71.6263332 266.393884,70.7600976 267.25159,70.7556949 C268.105293,70.7600976 268.62372,71.6263332 268.62372,73.209312 C268.62372,74.7966935 268.109296,75.6454183 267.25159,75.6454183 C266.389881,75.6454183 265.875458,74.7966935 265.879438,73.209312 Z" id="Shape" fill="#113287" fill-rule="nonzero"></path>
            <path d="M271.975478,72.9015437 C272.784144,72.9059244 273.439683,72.2507193 273.435698,71.441619 C273.439683,70.6325187 272.784144,69.9773136 271.975478,69.9729109 C271.165812,69.9773136 270.510272,70.6325187 270.515248,71.441619 C270.510272,72.2507193 271.165812,72.9059244 271.975478,72.9015437 Z M271.218855,71.441619 C271.222859,71.0238607 271.557134,70.6897541 271.975478,70.6940568 C272.392822,70.6897541 272.727097,71.0238607 272.723094,71.441619 C272.727097,71.8549746 272.392822,72.193584 271.975478,72.1979867 C271.557134,72.193584 271.222859,71.8549746 271.218855,71.441619 Z" id="Shape" fill="#113287" fill-rule="nonzero"></path>
            <path d="M480.623199,76.3871378 C481.991325,76.3958823 482.901074,75.4504977 482.901074,74.2148337 C482.901074,72.9967806 481.986321,72.1261423 480.851387,72.1217395 C480.160819,72.1261423 479.563327,72.442738 479.216041,72.9835724 L479.144983,72.9835724 C479.144983,71.5456834 479.717454,70.6926559 480.702264,70.6882532 C481.344793,70.6926559 481.753129,71.066387 481.881235,71.5853079 L482.840024,71.5853079 C482.6899,70.5738825 481.876231,69.8439311 480.702264,69.8439311 C479.176008,69.8439311 478.217219,71.1104142 478.213216,73.3265845 C478.213216,75.6791391 479.444229,76.3782714 480.623199,76.3871378 Z M479.260078,74.24125 C479.268084,73.5332123 479.862573,72.9088262 480.640213,72.9132046 C481.405844,72.9088262 481.9603,73.5024933 481.9603,74.2324446 C481.9603,74.9756041 481.383825,75.5735738 480.614192,75.5779766 C479.831548,75.5735738 479.264081,74.9491878 479.260078,74.24125 Z" id="Shape" fill="#113287" fill-rule="nonzero"></path>
            <path d="M486.146745,76.3870768 C487.620959,76.3870768 488.482668,75.1998428 488.486671,73.115554 C488.482668,71.0443734 487.606947,69.8439311 486.146745,69.8439311 C484.68254,69.8439311 483.80782,71.0443734 483.80782,73.115554 C483.80782,75.1998428 484.673533,76.3870768 486.146745,76.3870768 Z M484.774593,73.115554 C484.774593,71.5324752 485.289039,70.6662396 486.146745,70.6618369 C487.000448,70.6662396 487.519876,71.5324752 487.519876,73.115554 C487.519876,74.7029355 487.004451,75.5515602 486.146745,75.5515602 C485.285036,75.5515602 484.770613,74.7029355 484.774593,73.115554 Z" id="Shape" fill="#113287" fill-rule="nonzero"></path>
            <path d="M490.870633,72.8076857 C491.6803,72.8120664 492.335839,72.1569613 492.330863,71.347861 C492.335839,70.5387608 491.6803,69.8835556 490.870633,69.8791529 C490.061968,69.8835556 489.406428,70.5387608 489.410413,71.347861 C489.406428,72.1569613 490.061968,72.8120664 490.870633,72.8076857 Z M490.114011,71.347861 C490.119015,70.9301027 490.45329,70.5958961 490.870633,70.6002988 C491.288978,70.5958961 491.623253,70.9301027 491.618249,71.347861 C491.623253,71.7612166 491.288978,72.0997259 490.870633,72.1041286 C490.45329,72.0997259 490.119015,71.7612166 490.114011,71.347861 Z" id="Shape" fill="#113287" fill-rule="nonzero"></path>
            <polygon id="Path" fill="#113287" fill-rule="nonzero" points="495.814702 69.6329007 494.979015 69.6329007 492.929328 77.2577152 493.765015 77.2577152"></polygon>
            <polygon id="Path" fill="#113287" fill-rule="nonzero" points="498.919257 69.9318855 497.969476 69.9318855 496.386173 70.9696272 496.386173 71.8930982 497.907425 70.8992837 497.943454 70.8992837 497.943454 76.2991224 498.919257 76.2991224"></polygon>
            <path d="M500.537589,76.2991224 L504.822116,76.2991224 L504.822116,75.4724113 L501.883697,75.4724113 L501.883697,75.4196787 L503.176761,74.1092684 C504.372746,72.9352425 504.707021,72.3679918 504.716028,71.6556513 C504.707021,70.6223124 503.858322,69.8439311 502.631313,69.8439311 C501.417313,69.8439311 500.529583,70.613507 500.537589,71.7787274 L501.452342,71.7787274 C501.457346,71.1016088 501.905715,70.6530314 502.614299,70.6530314 C503.282849,70.6530314 503.792268,71.0531788 503.792268,71.6819676 C503.792268,72.240513 503.444982,72.6450631 502.745406,73.3705117 L500.537589,75.5955874 L500.537589,76.2991224 Z" id="Path" fill="#113287" fill-rule="nonzero"></path>
            <path d="M508.111823,76.3870768 C509.585036,76.3870768 510.446745,75.1998428 510.451749,73.115554 C510.446745,71.0443734 509.572025,69.8439311 508.111823,69.8439311 C506.646617,69.8439311 505.771897,71.0443734 505.771897,73.115554 C505.771897,75.1998428 506.638611,76.3870768 508.111823,76.3870768 Z M506.739694,73.115554 C506.739694,71.5324752 507.254117,70.6662396 508.111823,70.6618369 C508.964525,70.6662396 509.483952,71.5324752 509.483952,73.115554 C509.483952,74.7029355 508.969529,75.5515602 508.111823,75.5515602 C507.249113,75.5515602 506.73469,74.7029355 506.739694,73.115554 Z" id="Shape" fill="#113287" fill-rule="nonzero"></path>
            <path d="M512.83471,72.8076857 C513.644376,72.8120664 514.299916,72.1569613 514.29494,71.347861 C514.299916,70.5387608 513.644376,69.8835556 512.83471,69.8791529 C512.026045,69.8835556 511.370505,70.5387608 511.37449,71.347861 C511.370505,72.1569613 512.026045,72.8120664 512.83471,72.8076857 Z M512.079088,71.347861 C512.083092,70.9301027 512.417367,70.5958961 512.83471,70.6002988 C513.253054,70.5958961 513.58733,70.9301027 513.583326,71.347861 C513.58733,71.7612166 513.253054,72.0997259 512.83471,72.1041286 C512.417367,72.0997259 512.083092,71.7612166 512.079088,71.347861 Z" id="Shape" fill="#113287" fill-rule="nonzero"></path>
            <path d="M732.177233,69.8439705 C730.792093,69.8352258 729.890351,70.785013 729.890351,71.9986634 C729.890351,73.2167166 730.805104,74.0917576 731.949046,74.0917576 C732.63461,74.0917576 733.233102,73.7663564 733.576385,73.2299247 L733.65545,73.2299247 C733.646443,74.6854247 733.069968,75.5384521 732.089161,75.5428548 C731.447633,75.5384521 731.033292,75.164721 730.902184,74.6281893 L729.943395,74.6281893 C730.096521,75.6616283 730.915195,76.3871769 732.089161,76.3871769 C733.615417,76.3871769 734.578209,75.1206938 734.578209,72.8869126 C734.574206,70.5563717 733.347196,69.8528366 732.177233,69.8439705 Z M730.831105,71.9810525 C730.827122,71.2511012 731.4076,70.6531315 732.177233,70.6531315 C732.955874,70.6531315 733.523341,71.2819203 733.523341,71.9722471 C733.523341,72.6758822 732.929853,73.304671 732.159219,73.3002929 C731.385582,73.304671 730.83613,72.7198093 730.831105,71.9810525 Z" id="Shape" fill="#113287" fill-rule="nonzero"></path>
            <path d="M737.815874,76.3871769 C739.289087,76.3871769 740.150796,75.1998428 740.1558,73.115554 C740.150796,71.0444734 739.276076,69.8440312 737.815874,69.8440312 C736.350668,69.8440312 735.475948,71.0444734 735.475948,73.115554 C735.475948,75.1998428 736.342662,76.3871769 737.815874,76.3871769 Z M736.443745,73.115554 C736.443745,71.5325752 736.958168,70.6663396 737.815874,70.6619369 C738.668576,70.6663396 739.188003,71.5325752 739.188003,73.115554 C739.188003,74.7030356 738.67358,75.5516603 737.815874,75.5516603 C736.954165,75.5516603 736.438741,74.7030356 736.443745,73.115554 Z" id="Shape" fill="#113287" fill-rule="nonzero"></path>
            <path d="M742.539762,72.8077858 C743.348427,72.8121664 744.003967,72.1569613 743.999982,71.347861 C744.003967,70.5387608 743.348427,69.8835556 742.539762,69.879253 C741.730096,69.8835556 741.074556,70.5387608 741.079532,71.347861 C741.074556,72.1569613 741.730096,72.8121664 742.539762,72.8077858 Z M741.783139,71.347861 C741.787142,70.9301027 742.121418,70.5959962 742.539762,70.6003989 C742.957105,70.5959962 743.291381,70.9301027 743.287377,71.347861 C743.291381,71.7612166 742.957105,72.099826 742.539762,72.1042287 C742.121418,72.099826 741.787142,71.7612166 741.783139,71.347861 Z" id="Shape" fill="#113287" fill-rule="nonzero"></path>
            <rect id="Rectangle" fill="#5B6EB4" fill-rule="nonzero" x="496.767486" y="20.2644757" width="240.197687" height="24.0148486"></rect>
            <polygon id="Path" fill="#FFFFFF" fill-rule="nonzero" points="597.251187 31.9200825 592.080931 31.9200825 592.080931 29.3110693 597.173122 29.3110693 597.173122 28.5587041 591.152167 28.5587041 591.152167 32.6627417 593.68325 32.6627417 593.68325 34.8027649 590.155347 34.8027649 590.155347 35.5649361 598.169943 35.5649361 598.169943 34.8027649 594.602006 34.8027649 594.602006 32.6627417 597.251187 32.6627417"></polygon>
            <path d="M600.133559,28.5097739 L599.205795,28.5097739 L599.205795,32.6627417 L599.919383,32.6627417 C601.223456,32.6676447 602.567562,32.5845934 604.033769,32.2817061 L603.926681,31.5195348 C602.567562,31.80291 601.321537,31.8810584 600.133559,31.8810584 L600.133559,28.5097739 Z M600.153575,36.454186 L605.988377,36.454186 L605.988377,35.7017207 L601.092348,35.7017207 L601.092348,33.5911157 L600.153575,33.5911157 L600.153575,36.454186 Z M604.757364,34.2066963 L605.685128,34.2066963 L605.685128,31.2361596 L606.956174,31.2361596 L606.956174,30.4445702 L605.685128,30.4445702 L605.685128,27.8941932 L604.757364,27.8941932 L604.757364,34.2066963 Z" id="Shape" fill="#FFFFFF" fill-rule="nonzero"></path>
            <path d="M610.670231,30.1123648 L610.670231,28.6173404 L609.731458,28.6173404 L609.731458,30.1123648 C609.731458,31.7832979 608.764662,33.4591341 607.386528,34.0699117 L607.952994,34.8515951 C609.003859,34.3385779 609.809522,33.2832253 610.215857,31.9983309 C610.626194,33.195371 611.42285,34.1773782 612.429679,34.6561742 L612.986137,33.9233211 C611.628019,33.3223495 610.660222,31.7100526 610.670231,30.1123648 Z M613.777788,36.6594129 L614.706553,36.6594129 L614.706553,27.8843872 L613.777788,27.8843872 L613.777788,36.6594129 Z" id="Shape" fill="#FFFFFF" fill-rule="nonzero"></path>
            <polygon id="Path" fill="#FFFFFF" fill-rule="nonzero" points="621.538175 28.7346129 620.483307 28.7346129 618.723859 29.8876258 618.723859 30.9136602 620.41425 29.8094775 620.453282 29.8094775 620.453282 35.8092872 621.538175 35.8092872"></polygon>
            <polygon id="Path" fill="#FFFFFF" fill-rule="nonzero" points="626.024868 28.7346129 624.968999 28.7346129 623.209551 29.8876258 623.209551 30.9136602 624.900943 29.8094775 624.939975 29.8094775 624.939975 35.8092872 626.024868 35.8092872"></polygon>
            <path d="M628.115589,35.8776295 C628.491898,35.8727264 628.805156,35.5649361 628.81016,35.1839005 C628.805156,34.8027649 628.491898,34.4900715 628.115589,34.4900715 C627.735276,34.4900715 627.417014,34.8027649 627.422018,35.1839005 C627.417014,35.5649361 627.735276,35.8727264 628.115589,35.8776295 Z" id="Path" fill="#FFFFFF" fill-rule="nonzero"></path>
            <path d="M632.289023,35.9069476 C633.80427,35.9069476 634.884159,35.076334 634.889163,33.9233211 C634.884159,33.0145592 634.229621,32.2719 633.403941,32.1449215 L633.403941,32.1057973 C634.117528,31.9396946 634.610934,31.2946958 634.615938,30.5228185 C634.610934,29.4332448 633.623121,28.6368524 632.289023,28.6368524 C630.93591,28.6368524 629.953101,29.4332448 629.953101,30.5228185 C629.953101,31.2946958 630.4375,31.9396946 631.165098,32.1057973 L631.165098,32.1449215 C630.329411,32.2719 629.679876,33.0145592 629.689884,33.9233211 C629.679876,35.076334 630.749757,35.9069476 632.289023,35.9069476 Z M630.784785,33.8451728 C630.769773,33.1171226 631.409299,32.5845934 632.289023,32.5845934 C633.15974,32.5845934 633.794262,33.1171226 633.794262,33.8451728 C633.794262,34.5389017 633.20778,35.0176978 632.289023,35.0176978 C631.356256,35.0176978 630.769773,34.5389017 630.784785,33.8451728 Z M630.998962,30.6204789 C631.003966,29.9608711 631.512384,29.5113932 632.289023,29.5162962 C633.046647,29.5113932 633.565074,29.9608711 633.560069,30.6204789 C633.565074,31.2849898 633.027631,31.7393707 632.289023,31.7344677 C631.532401,31.7393707 631.003966,31.2800868 630.998962,30.6204789 Z" id="Shape" fill="#FFFFFF" fill-rule="nonzero"></path>
            <path d="M637.625415,32.0959912 C638.5792,32.1057973 639.106634,31.3924562 639.111639,30.3371037 C639.106634,29.3013633 638.598216,28.5831192 637.625415,28.5879973 C636.682639,28.5831192 636.130185,29.3013633 636.140193,30.3371037 C636.130185,31.3875532 636.65862,32.1057973 637.625415,32.0959912 Z M636.941853,35.8092872 L637.831585,35.8092872 L642.688582,28.7346129 L641.79885,28.7346129 L636.941853,35.8092872 Z M636.941853,30.3371037 C636.946857,29.706814 637.171041,29.2817512 637.625415,29.2720452 C638.099806,29.2671421 638.299971,29.701911 638.299971,30.3371037 C638.299971,30.9869055 638.084793,31.4070653 637.625415,31.4119683 C637.171041,31.4070653 636.946857,30.9869055 636.941853,30.3371037 Z M640.606869,34.1968903 C640.601865,35.2376338 641.129299,35.9557778 642.092091,35.9557778 C643.044876,35.9557778 643.573311,35.2425368 643.578315,34.1968903 C643.573311,33.1513438 643.059888,32.4330997 642.092091,32.4379778 C641.149316,32.4330997 640.601865,33.1513438 640.606869,34.1968903 Z M641.408529,34.1968903 C641.413533,33.5568945 641.642722,33.1318317 642.092091,33.1220257 C642.566482,33.1220257 642.766647,33.5519915 642.766647,34.1968903 C642.766647,34.836986 642.55147,35.2620488 642.092091,35.2620488 C641.637718,35.2620488 641.413533,34.836986 641.408529,34.1968903 Z" id="Shape" fill="#FFFFFF" fill-rule="nonzero"></path>
            <rect id="Rectangle" fill="#113287" fill-rule="nonzero" x="255.568975" y="20.2644757" width="241.198511" height="24.0148486"></rect>
            <path d="M351.656057,30.1123648 L351.656057,28.6173404 L350.727292,28.6173404 L350.727292,30.1123648 C350.722288,31.7149556 349.81354,33.3956949 348.469434,34.0405936 L349.04691,34.7929588 C350.04373,34.2751386 350.810361,33.2246891 351.201683,31.9836218 C351.588001,33.1513438 352.325608,34.128548 353.278392,34.6268561 L353.854867,33.8841969 C352.550793,33.2491042 351.646049,31.6612224 351.656057,30.1123648 Z M354.510406,36.6398007 L355.43817,36.6398007 L355.43817,32.1644336 L356.846329,32.1644336 L356.846329,31.3729442 L355.43817,31.3729442 L355.43817,27.8843872 L354.510406,27.8843872 L354.510406,36.6398007 Z" id="Shape" fill="#FFFFFF" fill-rule="nonzero"></path>
            <path d="M358.595768,28.5097739 L357.667004,28.5097739 L357.667004,32.6627417 L358.380591,32.6627417 C359.685665,32.6676447 361.028771,32.5845934 362.494978,32.2817061 L362.387889,31.5195348 C361.028771,31.80291 359.782745,31.8810584 358.595768,31.8810584 L358.595768,28.5097739 Z M358.614784,36.454186 L364.449586,36.454186 L364.449586,35.7017207 L359.553557,35.7017207 L359.553557,33.5911157 L358.614784,33.5911157 L358.614784,36.454186 Z M363.218573,34.2066963 L364.147337,34.2066963 L364.147337,31.2361596 L365.417383,31.2361596 L365.417383,30.4445702 L364.147337,30.4445702 L364.147337,27.8941932 L363.218573,27.8941932 L363.218573,34.2066963 Z" id="Shape" fill="#FFFFFF" fill-rule="nonzero"></path>
            <path d="M369.131439,30.1123648 L369.131439,28.6173404 L368.192667,28.6173404 L368.192667,30.1123648 C368.192667,31.7832979 367.225871,33.4591341 365.847737,34.0699117 L366.414203,34.8515951 C367.465068,34.3385779 368.271732,33.2832253 368.677066,31.9983309 C369.087403,33.195371 369.884059,34.1773782 370.890888,34.6561742 L371.447346,33.9233211 C370.089228,33.3223495 369.121431,31.7100526 369.131439,30.1123648 Z M372.238997,36.6594129 L373.167761,36.6594129 L373.167761,27.8843872 L372.238997,27.8843872 L372.238997,36.6594129 Z" id="Shape" fill="#FFFFFF" fill-rule="nonzero"></path>
            <polygon id="Path" fill="#FFFFFF" fill-rule="nonzero" points="379.999384 28.7346129 378.944516 28.7346129 377.185068 29.8876258 377.185068 30.9136602 378.875459 29.8094775 378.914491 29.8094775 378.914491 35.8092872 379.999384 35.8092872"></polygon>
            <path d="M384.260891,35.9069476 C385.898239,35.9069476 386.856027,34.587832 386.861031,32.2719 C386.856027,29.9706771 385.883227,28.6368524 384.260891,28.6368524 C382.633552,28.6368524 381.661752,29.9706771 381.661752,32.2719 C381.661752,34.587832 382.623544,35.9069476 384.260891,35.9069476 Z M382.736637,32.2719 C382.736637,30.5130125 383.308107,29.5505174 384.260891,29.5456143 C385.208671,29.5505174 385.786147,30.5130125 385.786147,32.2719 C385.786147,34.0356906 385.213675,34.9786736 384.260891,34.9786736 C383.303103,34.9786736 382.731633,34.0356906 382.736637,32.2719 Z" id="Shape" fill="#FFFFFF" fill-rule="nonzero"></path>
            <path d="M388.405302,35.8776295 C388.781612,35.8727264 389.093869,35.5649361 389.098873,35.1839005 C389.093869,34.8027649 388.781612,34.4900715 388.405302,34.4900715 C388.023988,34.4900715 387.706727,34.8027649 387.710731,35.1839005 C387.706727,35.5649361 388.023988,35.8727264 388.405302,35.8776295 Z" id="Path" fill="#FFFFFF" fill-rule="nonzero"></path>
            <path d="M392.578737,35.9069476 C394.092983,35.9069476 395.173873,35.076334 395.177876,33.9233211 C395.173873,33.0145592 394.518333,32.2719 393.692654,32.1449215 L393.692654,32.1057973 C394.406241,31.9396946 394.899647,31.2946958 394.904651,30.5228185 C394.899647,29.4332448 393.912835,28.6368524 392.578737,28.6368524 C391.224623,28.6368524 390.242815,29.4332448 390.242815,30.5228185 C390.242815,31.2946958 390.726212,31.9396946 391.454812,32.1057973 L391.454812,32.1449215 C390.619124,32.2719 389.968589,33.0145592 389.978597,33.9233211 C389.968589,35.076334 391.03947,35.9069476 392.578737,35.9069476 Z M391.073498,33.8451728 C391.058486,33.1171226 391.699013,32.5845934 392.578737,32.5845934 C393.448453,32.5845934 394.083976,33.1171226 394.083976,33.8451728 C394.083976,34.5389017 393.497493,35.0176978 392.578737,35.0176978 C391.644969,35.0176978 391.058486,34.5389017 391.073498,33.8451728 Z M391.288675,30.6204789 C391.293679,29.9608711 391.801097,29.5113932 392.578737,29.5162962 C393.336361,29.5113932 393.853786,29.9608711 393.848782,30.6204789 C393.853786,31.2849898 393.316344,31.7393707 392.578737,31.7344677 C391.821114,31.7393707 391.293679,31.2800868 391.288675,30.6204789 Z" id="Shape" fill="#FFFFFF" fill-rule="nonzero"></path>
            <path d="M397.915129,32.0959912 C398.867913,32.1057973 399.395347,31.3924562 399.400351,30.3371037 C399.395347,29.3013633 398.886929,28.5831192 397.915129,28.5879973 C396.971352,28.5831192 396.419898,29.3013633 396.428906,30.3371037 C396.419898,31.3875532 396.947333,32.1057973 397.915129,32.0959912 Z M397.230566,35.8092872 L398.120298,35.8092872 L402.977295,28.7346129 L402.088564,28.7346129 L397.230566,35.8092872 Z M397.230566,30.3371037 C397.23557,29.706814 397.460755,29.2817512 397.915129,29.2720452 C398.388519,29.2671421 398.589684,29.701911 398.589684,30.3371037 C398.589684,30.9869055 398.374507,31.4070653 397.915129,31.4119683 C397.460755,31.4070653 397.23557,30.9869055 397.230566,30.3371037 Z M400.895582,34.1968903 C400.890578,35.2376338 401.419013,35.9557778 402.381805,35.9557778 C403.334589,35.9557778 403.862023,35.2425368 403.867028,34.1968903 C403.862023,33.1513438 403.348601,32.4330997 402.381805,32.4379778 C401.438028,32.4330997 400.890578,33.1513438 400.895582,34.1968903 Z M401.697242,34.1968903 C401.702246,33.5568945 401.931435,33.1318317 402.381805,33.1220257 C402.855195,33.1220257 403.05536,33.5519915 403.05536,34.1968903 C403.05536,34.836986 402.841183,35.2620488 402.381805,35.2620488 C401.927431,35.2620488 401.702246,34.836986 401.697242,34.1968903 Z" id="Shape" fill="#FFFFFF" fill-rule="nonzero"></path>
            <rect id="Rectangle" fill="#E2E6F6" fill-rule="nonzero" x="15.371488" y="20.2644757" width="240.197687" height="24.0148486"></rect>
            <path d="M110.015182,29.4576599 L110.015182,29.2134089 L111.940766,29.2134089 L111.940766,28.4609437 L107.111792,28.4609437 L107.111792,29.2134089 L109.076409,29.2134089 L109.076409,29.4576599 C109.071405,30.644894 108.230713,31.7882009 106.867591,32.2620939 L107.346986,32.975435 C108.387842,32.6090084 109.164482,31.8566433 109.560808,30.9087572 C109.956133,31.7882009 110.718761,32.4771269 111.725589,32.8093323 L112.203983,32.0862852 C110.850869,31.6612224 110.015182,30.5814548 110.015182,29.4576599 Z M108.099605,34.363093 L113.103724,34.363093 L113.103724,36.6398007 L114.031487,36.6398007 L114.031487,33.6106278 L108.099605,33.6106278 L108.099605,34.363093 Z M113.103724,33.1708558 L114.031487,33.1708558 L114.031487,27.8843872 L113.103724,27.8843872 L113.103724,33.1708558 Z" id="Shape" fill="#113287" fill-rule="nonzero"></path>
            <path d="M116.748724,28.5097739 L115.819959,28.5097739 L115.819959,32.6627417 L116.533546,32.6627417 C117.838621,32.6676447 119.182727,32.5845934 120.648933,32.2817061 L120.540844,31.5195348 C119.182727,31.80291 117.936701,31.8810584 116.748724,31.8810584 L116.748724,28.5097739 Z M116.76874,36.454186 L122.603542,36.454186 L122.603542,35.7017207 L117.706512,35.7017207 L117.706512,33.5911157 L116.76874,33.5911157 L116.76874,36.454186 Z M121.371528,34.2066963 L122.300293,34.2066963 L122.300293,31.2361596 L123.571339,31.2361596 L123.571339,30.4445702 L122.300293,30.4445702 L122.300293,27.8941932 L121.371528,27.8941932 L121.371528,34.2066963 Z" id="Shape" fill="#113287" fill-rule="nonzero"></path>
            <path d="M127.285395,30.1123648 L127.285395,28.6173404 L126.346623,28.6173404 L126.346623,30.1123648 C126.346623,31.7832979 125.378826,33.4591341 124.000692,34.0699117 L124.568159,34.8515951 C125.619024,34.3385779 126.424687,33.2832253 126.830021,31.9983309 C127.241359,33.195371 128.037014,34.1773782 129.043843,34.6561742 L129.601301,33.9233211 C128.243184,33.3223495 127.275387,31.7100526 127.285395,30.1123648 Z M130.392953,36.6594129 L131.321717,36.6594129 L131.321717,27.8843872 L130.392953,27.8843872 L130.392953,36.6594129 Z" id="Shape" fill="#113287" fill-rule="nonzero"></path>
            <path d="M137.870107,35.9069476 C139.345321,35.9069476 140.391182,34.9053283 140.391182,33.5128673 C140.391182,32.1497245 139.409374,31.1628143 138.075276,31.1579112 C137.537833,31.1628143 137.039423,31.3533321 136.746182,31.6367073 L136.677125,31.6367073 L136.912319,29.6530808 L140.029884,29.6530808 L140.029884,28.7346129 L136.022586,28.7346129 L135.563208,32.6725477 L136.580045,32.6725477 C136.819242,32.2376789 137.253599,32.0471611 137.821066,32.0471611 C138.710799,32.0569671 139.345321,32.6823538 139.345321,33.5421854 C139.345321,34.3826051 138.729814,35.0030887 137.870107,35.0079918 C137.15652,35.0030887 136.580045,34.5633168 136.520996,33.9624453 L135.475136,33.9624453 C135.524176,35.0910431 136.531005,35.9069476 137.870107,35.9069476 Z" id="Path" fill="#113287" fill-rule="nonzero"></path>
            <path d="M144.008159,35.9069476 C145.522405,35.9069476 146.602294,35.076334 146.607298,33.9233211 C146.602294,33.0145592 145.947755,32.2719 145.122075,32.1449215 L145.122075,32.1057973 C145.835663,31.9396946 146.329069,31.2946958 146.334073,30.5228185 C146.329069,29.4332448 145.342257,28.6368524 144.008159,28.6368524 C142.654044,28.6368524 141.672236,29.4332448 141.672236,30.5228185 C141.672236,31.2946958 142.155634,31.9396946 142.883233,32.1057973 L142.883233,32.1449215 C142.048546,32.2719 141.39801,33.0145592 141.408019,33.9233211 C141.39801,35.076334 142.467891,35.9069476 144.008159,35.9069476 Z M142.50292,33.8451728 C142.487907,33.1171226 143.128435,32.5845934 144.008159,32.5845934 C144.877874,32.5845934 145.512397,33.1171226 145.512397,33.8451728 C145.512397,34.5389017 144.925914,35.0176978 144.008159,35.0176978 C143.07439,35.0176978 142.487907,34.5389017 142.50292,33.8451728 Z M142.717096,30.6204789 C142.7221,29.9608711 143.230519,29.5113932 144.008159,29.5162962 C144.764781,29.5113932 145.283208,29.9608711 145.278204,30.6204789 C145.283208,31.2849898 144.745766,31.7393707 144.008159,31.7344677 C143.250535,31.7393707 142.7221,31.2800868 142.717096,30.6204789 Z" id="Shape" fill="#113287" fill-rule="nonzero"></path>
            <path d="M148.200609,35.8776295 C148.576919,35.8727264 148.889176,35.5649361 148.89418,35.1839005 C148.889176,34.8027649 148.576919,34.4900715 148.200609,34.4900715 C147.819295,34.4900715 147.502034,34.8027649 147.507038,35.1839005 C147.502034,35.5649361 147.819295,35.8727264 148.200609,35.8776295 Z" id="Path" fill="#113287" fill-rule="nonzero"></path>
            <path d="M149.989081,34.4314353 L153.429913,34.4314353 L153.429913,35.8092872 L154.445749,35.8092872 L154.445749,34.4314353 L155.413545,34.4314353 L155.413545,33.5226734 L154.445749,33.5226734 L154.445749,28.7346129 L153.116655,28.7346129 L149.989081,33.5617976 L149.989081,34.4314353 Z M151.123014,33.5226734 L151.123014,33.4640371 L153.350848,30.0146043 L153.429913,30.0146043 L153.429913,33.5226734 L151.123014,33.5226734 Z" id="Shape" fill="#113287" fill-rule="nonzero"></path>
            <path d="M158.120774,32.0959912 C159.073558,32.1057973 159.601993,31.3924562 159.605996,30.3371037 C159.601993,29.3013633 159.093574,28.5831192 158.120774,28.5879973 C157.177998,28.5831192 156.625543,29.3013633 156.635551,30.3371037 C156.625543,31.3875532 157.152977,32.1057973 158.120774,32.0959912 Z M157.43621,35.8092872 L158.325942,35.8092872 L163.183941,28.7346129 L162.294208,28.7346129 L157.43621,35.8092872 Z M157.43621,30.3371037 C157.441214,29.706814 157.6664,29.2817512 158.120774,29.2720452 C158.595164,29.2671421 158.795329,29.701911 158.795329,30.3371037 C158.795329,30.9869055 158.580152,31.4070653 158.120774,31.4119683 C157.6664,31.4070653 157.441214,30.9869055 157.43621,30.3371037 Z M161.102227,34.1968903 C161.097223,35.2376338 161.624657,35.9557778 162.58745,35.9557778 C163.540234,35.9557778 164.067668,35.2425368 164.072672,34.1968903 C164.067668,33.1513438 163.555246,32.4330997 162.58745,32.4379778 C161.644674,32.4330997 161.097223,33.1513438 161.102227,34.1968903 Z M161.902886,34.1968903 C161.90789,33.5568945 162.13808,33.1318317 162.58745,33.1220257 C163.06184,33.1220257 163.262005,33.5519915 163.262005,34.1968903 C163.262005,34.836986 163.046828,35.2620488 162.58745,35.2620488 C162.133076,35.2620488 161.90789,34.836986 161.902886,34.1968903 Z" id="Shape" fill="#113287" fill-rule="nonzero"></path>
            <polygon id="Path" fill="#113287" points="14.3707644 64.2916981 14.3706643 0.252111883 16.3723117 0.252111883 16.3724118 64.2916981"></polygon>
            <polygon id="Path" fill="#113287" points="735.953341 64.2916981 735.953341 0.252111883 737.954989 0.252111883 737.954989 64.2916981"></polygon>
            <polygon id="Path" fill="#979797" points="255.068563 64.0396423 255.068563 0 256.069387 0 256.069387 64.0396423"></polygon>
            <polygon id="Path" fill="#979797" points="496.267075 64.0396423 496.267075 0 497.267898 0 497.267898 64.0396423"></polygon>
        </g>
    </g>
</svg>