<svg width="744" height="78" viewBox="0 0 744 78" fill="none" xmlns="http://www.w3.org/2000/svg">
<rect width="744" height="78" fill="#727272"/>
<path d="M-2431 -1011C-2431 -1012.1 -2430.1 -1013 -2429 -1013H884C885.104 -1013 886 -1012.1 886 -1011V959C886 960.105 885.104 961 884 961H-2429C-2430.1 961 -2431 960.105 -2431 959V-1011Z" fill="white"/>
<g clip-path="url(#clip0_1814_2379)">
<path d="M2.33981 76.3871C3.8132 76.3871 4.67523 75.1999 4.67963 73.1156C4.67523 71.0444 3.8 69.844 2.33981 69.844C0.875237 69.844 0 71.0444 0 73.1156C0 75.1999 0.86644 76.3871 2.33981 76.3871ZM0.967593 73.1156C0.967593 71.5325 1.48218 70.6663 2.33981 70.6619C3.19305 70.6663 3.71204 71.5325 3.71204 73.1156C3.71204 74.703 3.19746 75.5516 2.33981 75.5516C1.47778 75.5516 0.9632 74.703 0.967593 73.1156Z" fill="#113287"/>
<path d="M7.06344 72.8077C7.87269 72.8121 8.52802 72.157 8.52364 71.3479C8.52802 70.5388 7.87269 69.8836 7.06344 69.8792C6.25418 69.8836 5.59885 70.5388 5.60323 71.3479C5.59885 72.157 6.25418 72.8121 7.06344 72.8077ZM6.30695 71.3479C6.31136 70.9301 6.64561 70.5959 7.06344 70.6003C7.48126 70.5959 7.81553 70.9301 7.81112 71.3479C7.81553 71.7611 7.48126 72.0997 7.06344 72.1041C6.64561 72.0997 6.31136 71.7611 6.30695 71.3479Z" fill="#113287"/>
<path d="M12.0069 69.6329H11.1713L9.12177 77.2577H9.95743L12.0069 69.6329Z" fill="#113287"/>
<path d="M15.1121 69.9319H14.1621L12.5787 70.9696V71.8931L14.1004 70.8993H14.1357V76.2991H15.1121V69.9319Z" fill="#113287"/>
<path d="M18.956 76.3871C20.3194 76.3871 21.2914 75.6396 21.2958 74.6018C21.2914 73.7839 20.702 73.1156 19.9587 73.0012V72.966C20.6009 72.8165 21.0451 72.2362 21.0495 71.5413C21.0451 70.5607 20.1567 69.844 18.956 69.844C17.7377 69.844 16.8537 70.5607 16.8537 71.5413C16.8537 72.2362 17.2891 72.8165 17.9445 72.966V73.0012C17.1924 73.1156 16.6074 73.7839 16.6162 74.6018C16.6074 75.6396 17.5706 76.3871 18.956 76.3871ZM17.6014 74.5315C17.5882 73.8763 18.1644 73.397 18.956 73.397C19.7389 73.397 20.3106 73.8763 20.3106 74.5315C20.3106 75.1559 19.7829 75.5868 18.956 75.5868C18.1159 75.5868 17.5882 75.1559 17.6014 74.5315ZM17.7949 71.6293C17.7993 71.0357 18.2567 70.6312 18.956 70.6355C19.6377 70.6312 20.104 71.0357 20.0996 71.6293C20.104 72.2274 19.6202 72.6363 18.956 72.6319C18.2743 72.6363 17.7993 72.223 17.7949 71.6293Z" fill="#113287"/>
<path d="M24.5153 76.3871C25.9886 76.3871 26.8507 75.1999 26.8551 73.1156C26.8507 71.0444 25.9755 69.844 24.5153 69.844C23.0507 69.844 22.1755 71.0444 22.1755 73.1156C22.1755 75.1999 23.0419 76.3871 24.5153 76.3871ZM23.1431 73.1156C23.1431 71.5325 23.6576 70.6663 24.5153 70.6619C25.3685 70.6663 25.8875 71.5325 25.8875 73.1156C25.8875 74.703 25.3729 75.5516 24.5153 75.5516C23.6533 75.5516 23.1387 74.703 23.1431 73.1156Z" fill="#113287"/>
<path d="M29.2389 72.8077C30.0482 72.8121 30.7035 72.157 30.6992 71.3479C30.7035 70.5388 30.0482 69.8836 29.2389 69.8792C28.4297 69.8836 27.7743 70.5388 27.7787 71.3479C27.7743 72.157 28.4297 72.8121 29.2389 72.8077ZM28.4824 71.3479C28.4868 70.9301 28.8211 70.5959 29.2389 70.6003C29.6568 70.5959 29.9911 70.9301 29.9866 71.3479C29.9911 71.7611 29.6568 72.0997 29.2389 72.1041C28.8211 72.0997 28.4868 71.7611 28.4824 71.3479Z" fill="#113287"/>
<path d="M239.605 76.4808C240.924 76.4808 241.905 75.7025 241.901 74.6428C241.905 73.8381 241.399 73.2533 240.529 73.1301V73.0862C241.214 72.9147 241.664 72.3958 241.655 71.6702C241.664 70.7292 240.876 69.9377 239.623 69.9377C238.435 69.9377 237.476 70.6413 237.45 71.679H238.382C238.404 71.103 238.976 70.7468 239.614 70.7468C240.286 70.7468 240.722 71.1426 240.722 71.723C240.722 72.3342 240.216 72.7388 239.491 72.7344H238.945V73.5259H239.491C240.401 73.5303 240.924 73.9788 240.924 74.6076C240.924 75.2276 240.365 75.6454 239.596 75.6454C238.883 75.6454 238.33 75.2892 238.295 74.7307H237.309C237.349 75.7728 238.286 76.4808 239.605 76.4808Z" fill="#113287"/>
<path d="M245.181 76.4808C246.656 76.4808 247.517 75.2936 247.521 73.2093C247.517 71.1382 246.642 69.9377 245.181 69.9377C243.717 69.9377 242.841 71.1382 242.841 73.2093C242.841 75.2936 243.708 76.4808 245.181 76.4808ZM243.809 73.2093C243.809 71.6263 244.324 70.76 245.181 70.7556C246.035 70.76 246.554 71.6263 246.554 73.2093C246.554 74.7966 246.039 75.6454 245.181 75.6454C244.32 75.6454 243.805 74.7966 243.809 73.2093Z" fill="#113287"/>
<path d="M249.905 72.9015C250.715 72.9059 251.37 72.2507 251.366 71.4416C251.37 70.6325 250.715 69.9773 249.905 69.9729C249.096 69.9773 248.441 70.6325 248.445 71.4416C248.441 72.2507 249.096 72.9059 249.905 72.9015ZM249.149 71.4416C249.154 71.0239 249.488 70.6896 249.905 70.694C250.324 70.6896 250.658 71.0239 250.653 71.4416C250.658 71.855 250.324 72.1936 249.905 72.198C249.488 72.1936 249.154 71.855 249.149 71.4416Z" fill="#113287"/>
<path d="M254.849 69.7267H254.014L251.964 77.3516H252.8L254.849 69.7267Z" fill="#113287"/>
<path d="M257.954 70.0258H257.004L255.421 71.0635V71.9869L256.942 70.9932H256.977V76.393H257.954V70.0258Z" fill="#113287"/>
<path d="M261.736 76.4809C263.065 76.4809 264.006 75.5795 264.006 74.3262C264.006 73.0994 263.122 72.2112 261.921 72.2068C261.438 72.2112 260.988 72.3826 260.725 72.6377H260.663L260.874 70.8524H263.681V70.0258H260.074L259.66 73.57H260.575C260.791 73.1786 261.183 73.0071 261.692 73.0071C262.493 73.0159 263.065 73.5788 263.065 74.3526C263.065 75.109 262.511 75.6674 261.736 75.6719C261.095 75.6674 260.575 75.2716 260.522 74.7308H259.581C259.625 75.7466 260.531 76.4809 261.736 76.4809Z" fill="#113287"/>
<path d="M267.252 76.4808C268.725 76.4808 269.587 75.2936 269.591 73.2093C269.587 71.1382 268.712 69.9377 267.252 69.9377C265.787 69.9377 264.912 71.1382 264.912 73.2093C264.912 75.2936 265.778 76.4808 267.252 76.4808ZM265.879 73.2093C265.879 71.6263 266.394 70.76 267.252 70.7556C268.105 70.76 268.624 71.6263 268.624 73.2093C268.624 74.7966 268.109 75.6454 267.252 75.6454C266.39 75.6454 265.875 74.7966 265.879 73.2093Z" fill="#113287"/>
<path d="M271.975 72.9015C272.784 72.9059 273.44 72.2507 273.436 71.4416C273.44 70.6325 272.784 69.9773 271.975 69.9729C271.166 69.9773 270.51 70.6325 270.515 71.4416C270.51 72.2507 271.166 72.9059 271.975 72.9015ZM271.219 71.4416C271.223 71.0239 271.557 70.6896 271.975 70.694C272.393 70.6896 272.727 71.0239 272.723 71.4416C272.727 71.855 272.393 72.1936 271.975 72.198C271.557 72.1936 271.223 71.855 271.219 71.4416Z" fill="#113287"/>
<path d="M480.623 76.3872C481.991 76.3959 482.901 75.4506 482.901 74.2149C482.901 72.9968 481.986 72.1262 480.851 72.1218C480.161 72.1262 479.563 72.4428 479.216 72.9836H479.145C479.145 71.5457 479.717 70.6927 480.702 70.6883C481.345 70.6927 481.753 71.0665 481.881 71.5854H482.84C482.69 70.5739 481.876 69.844 480.702 69.844C479.176 69.844 478.217 71.1105 478.213 73.3266C478.213 75.6792 479.444 76.3783 480.623 76.3872ZM479.26 74.2413C479.268 73.5333 479.863 72.9089 480.64 72.9133C481.406 72.9089 481.96 73.5026 481.96 74.2325C481.96 74.9756 481.384 75.5736 480.614 75.578C479.832 75.5736 479.264 74.9492 479.26 74.2413Z" fill="#113287"/>
<path d="M486.147 76.3871C487.621 76.3871 488.483 75.1999 488.487 73.1156C488.483 71.0444 487.607 69.844 486.147 69.844C484.683 69.844 483.808 71.0444 483.808 73.1156C483.808 75.1999 484.674 76.3871 486.147 76.3871ZM484.775 73.1156C484.775 71.5325 485.289 70.6663 486.147 70.6619C487 70.6663 487.52 71.5325 487.52 73.1156C487.52 74.703 487.004 75.5516 486.147 75.5516C485.285 75.5516 484.771 74.703 484.775 73.1156Z" fill="#113287"/>
<path d="M490.871 72.8077C491.68 72.8121 492.336 72.157 492.331 71.3479C492.336 70.5388 491.68 69.8836 490.871 69.8792C490.062 69.8836 489.406 70.5388 489.41 71.3479C489.406 72.157 490.062 72.8121 490.871 72.8077ZM490.114 71.3479C490.119 70.9301 490.453 70.5959 490.871 70.6003C491.289 70.5959 491.623 70.9301 491.618 71.3479C491.623 71.7611 491.289 72.0997 490.871 72.1041C490.453 72.0997 490.119 71.7611 490.114 71.3479Z" fill="#113287"/>
<path d="M495.815 69.6329H494.979L492.929 77.2577H493.765L495.815 69.6329Z" fill="#113287"/>
<path d="M498.919 69.9319H497.969L496.386 70.9696V71.8931L497.907 70.8993H497.943V76.2991H498.919V69.9319Z" fill="#113287"/>
<path d="M500.538 76.2992H504.822V75.4725H501.884V75.4197L503.177 74.1093C504.373 72.9353 504.707 72.3681 504.716 71.6557C504.707 70.6224 503.858 69.844 502.631 69.844C501.417 69.844 500.53 70.6136 500.538 71.7788H501.452C501.457 71.1017 501.906 70.6531 502.614 70.6531C503.283 70.6531 503.792 71.0532 503.792 71.682C503.792 72.2406 503.445 72.645 502.745 73.3706L500.538 75.5956V76.2992Z" fill="#113287"/>
<path d="M508.112 76.3871C509.585 76.3871 510.447 75.1999 510.452 73.1156C510.447 71.0444 509.572 69.844 508.112 69.844C506.647 69.844 505.772 71.0444 505.772 73.1156C505.772 75.1999 506.639 76.3871 508.112 76.3871ZM506.74 73.1156C506.74 71.5325 507.254 70.6663 508.112 70.6619C508.965 70.6663 509.484 71.5325 509.484 73.1156C509.484 74.703 508.97 75.5516 508.112 75.5516C507.249 75.5516 506.735 74.703 506.74 73.1156Z" fill="#113287"/>
<path d="M512.835 72.8077C513.644 72.8121 514.3 72.157 514.295 71.3479C514.3 70.5388 513.644 69.8836 512.835 69.8792C512.026 69.8836 511.37 70.5388 511.374 71.3479C511.37 72.157 512.026 72.8121 512.835 72.8077ZM512.079 71.3479C512.083 70.9301 512.417 70.5959 512.835 70.6003C513.253 70.5959 513.587 70.9301 513.583 71.3479C513.587 71.7611 513.253 72.0997 512.835 72.1041C512.417 72.0997 512.083 71.7611 512.079 71.3479Z" fill="#113287"/>
<path d="M732.177 69.8439C730.792 69.8352 729.89 70.785 729.89 71.9986C729.89 73.2167 730.805 74.0917 731.949 74.0917C732.635 74.0917 733.233 73.7663 733.576 73.2299H733.655C733.646 74.6854 733.07 75.5384 732.089 75.5428C731.448 75.5384 731.033 75.1647 730.902 74.6281H729.943C730.097 75.6616 730.915 76.3871 732.089 76.3871C733.615 76.3871 734.578 75.1207 734.578 72.8869C734.574 70.5563 733.347 69.8528 732.177 69.8439ZM730.831 71.981C730.827 71.2511 731.408 70.6531 732.177 70.6531C732.956 70.6531 733.523 71.2819 733.523 71.9722C733.523 72.6758 732.93 73.3046 732.159 73.3003C731.386 73.3046 730.836 72.7198 730.831 71.981Z" fill="#113287"/>
<path d="M737.816 76.3871C739.289 76.3871 740.151 75.1998 740.156 73.1155C740.151 71.0444 739.276 69.844 737.816 69.844C736.351 69.844 735.476 71.0444 735.476 73.1155C735.476 75.1998 736.343 76.3871 737.816 76.3871ZM736.444 73.1155C736.444 71.5325 736.958 70.6663 737.816 70.6619C738.669 70.6663 739.188 71.5325 739.188 73.1155C739.188 74.7029 738.674 75.5516 737.816 75.5516C736.954 75.5516 736.439 74.7029 736.444 73.1155Z" fill="#113287"/>
<path d="M742.54 72.8078C743.348 72.8122 744.004 72.157 744 71.3479C744.004 70.5388 743.348 69.8836 742.54 69.8792C741.73 69.8836 741.075 70.5388 741.08 71.3479C741.075 72.157 741.73 72.8122 742.54 72.8078ZM741.783 71.3479C741.787 70.9301 742.121 70.596 742.54 70.6004C742.957 70.596 743.291 70.9301 743.287 71.3479C743.291 71.7612 742.957 72.0998 742.54 72.1042C742.121 72.0998 741.787 71.7612 741.783 71.3479Z" fill="#113287"/>
<path d="M736.965 20.2645H496.767V44.2794H736.965V20.2645Z" fill="#5B6EB4"/>
<path d="M496.767 20.2645H255.569V44.2794H496.767V20.2645Z" fill="#113287"/>
<path d="M255.569 20.2645H15.3715V44.2794H255.569V20.2645Z" fill="#E2E6F6"/>
<path fill-rule="evenodd" clip-rule="evenodd" d="M14.3708 64.2917L14.3707 0.252075H16.3723L16.3724 64.2917H14.3708Z" fill="#113287"/>
<path fill-rule="evenodd" clip-rule="evenodd" d="M735.953 64.2917V0.252075H737.955V64.2917H735.953Z" fill="#113287"/>
<path fill-rule="evenodd" clip-rule="evenodd" d="M255.069 64.0396V0H256.069V64.0396H255.069Z" fill="#979797"/>
<path fill-rule="evenodd" clip-rule="evenodd" d="M496.267 64.0396V0H497.268V64.0396H496.267Z" fill="#979797"/>
<path d="M595.189 32.1133V32.8555H592.543V34.9941H596.107V35.7559H588.1V34.9941H591.625V32.8555H589.096V28.7539H595.111V29.5059H590.023V32.1133H595.189ZM598.07 28.7051V32.0742C599.257 32.0742 600.502 31.9961 601.859 31.7129L601.967 32.4746C600.502 32.7773 599.159 32.8604 597.855 32.8555H597.143V28.7051H598.07ZM598.09 36.6445V33.7832H599.027V35.8926H603.92V36.6445H598.09ZM602.689 34.3984V28.0898H603.617V30.6387H604.887V31.4297H603.617V34.3984H602.689ZM608.598 30.3066C608.588 31.9033 609.555 33.5146 610.912 34.1152L610.355 34.8477C609.35 34.3691 608.554 33.3877 608.144 32.1914C607.738 33.4756 606.933 34.5303 605.883 35.043L605.316 34.2617C606.693 33.6514 607.66 31.9766 607.66 30.3066V28.8125H608.598V30.3066ZM611.703 36.8496V28.0801H612.631V36.8496H611.703ZM619.174 36.0977C617.836 36.0977 616.83 35.2822 616.781 34.1543H617.826C617.885 34.7549 618.461 35.1943 619.174 35.1992C620.033 35.1943 620.648 34.5742 620.648 33.7344C620.648 32.875 620.014 32.25 619.125 32.2402C618.559 32.2402 618.124 32.4307 617.885 32.8652H616.869L617.328 28.9297H621.332V29.8477H618.217L617.982 31.8301H618.051C618.344 31.5469 618.842 31.3564 619.379 31.3516C620.712 31.3564 621.693 32.3428 621.693 33.7051C621.693 35.0967 620.648 36.0977 619.174 36.0977ZM622.68 34.623V33.7539L625.805 28.9297H627.133V33.7148H628.1V34.623H627.133V36H626.117V34.623H622.68ZM623.812 33.7148H626.117V30.209H626.039L623.812 33.6562V33.7148ZM629.613 36.0684C629.232 36.0635 628.915 35.7559 628.92 35.375C628.915 34.9941 629.232 34.6816 629.613 34.6816C629.989 34.6816 630.302 34.9941 630.307 35.375C630.302 35.7559 629.989 36.0635 629.613 36.0684ZM633.754 36.0977C632.118 36.0977 631.156 34.7793 631.156 32.4648C631.156 30.165 632.128 28.832 633.754 28.832C635.375 28.832 636.347 30.165 636.352 32.4648C636.347 34.7793 635.39 36.0977 633.754 36.0977ZM632.23 32.4648C632.226 34.2275 632.797 35.1699 633.754 35.1699C634.706 35.1699 635.277 34.2275 635.277 32.4648C635.277 30.707 634.701 29.7451 633.754 29.7402C632.802 29.7451 632.23 30.707 632.23 32.4648ZM639.086 32.2891C638.119 32.2988 637.592 31.5811 637.602 30.5312C637.592 29.4961 638.144 28.7783 639.086 28.7832C640.058 28.7783 640.565 29.4961 640.57 30.5312C640.565 31.5859 640.038 32.2988 639.086 32.2891ZM638.402 36L643.256 28.9297H644.145L639.291 36H638.402ZM638.402 30.5312C638.407 31.1807 638.632 31.6006 639.086 31.6055C639.545 31.6006 639.76 31.1807 639.76 30.5312C639.76 29.8965 639.56 29.4619 639.086 29.4668C638.632 29.4766 638.407 29.9014 638.402 30.5312ZM642.064 34.3887C642.06 33.3438 642.606 32.626 643.549 32.6309C644.516 32.626 645.028 33.3438 645.033 34.3887C645.028 35.4336 644.501 36.1465 643.549 36.1465C642.587 36.1465 642.06 35.4287 642.064 34.3887ZM642.865 34.3887C642.87 35.0283 643.095 35.4531 643.549 35.4531C644.008 35.4531 644.223 35.0283 644.223 34.3887C644.223 33.7441 644.022 33.3145 643.549 33.3145C643.1 33.3242 642.87 33.749 642.865 34.3887Z" fill="white"/>
<path d="M351.311 30.3066C351.301 31.8545 352.204 33.4414 353.508 34.0762L352.932 34.8184C351.979 34.3203 351.242 33.3438 350.856 32.1768C350.466 33.417 349.699 34.4668 348.703 34.9844L348.127 34.2324C349.47 33.5879 350.378 31.9082 350.383 30.3066V28.8125H351.311V30.3066ZM354.162 36.8301V28.0801H355.09V31.5664H356.496V32.3574H355.09V36.8301H354.162ZM358.244 28.7051V32.0742C359.431 32.0742 360.676 31.9961 362.033 31.7129L362.141 32.4746C360.676 32.7773 359.333 32.8604 358.029 32.8555H357.316V28.7051H358.244ZM358.264 36.6445V33.7832H359.201V35.8926H364.094V36.6445H358.264ZM362.863 34.3984V28.0898H363.791V30.6387H365.061V31.4297H363.791V34.3984H362.863ZM368.771 30.3066C368.762 31.9033 369.729 33.5146 371.086 34.1152L370.529 34.8477C369.523 34.3691 368.728 33.3877 368.317 32.1914C367.912 33.4756 367.106 34.5303 366.057 35.043L365.49 34.2617C366.867 33.6514 367.834 31.9766 367.834 30.3066V28.8125H368.771V30.3066ZM371.877 36.8496V28.0801H372.805V36.8496H371.877ZM379.631 28.9297V36H378.547V30.0039H378.508L376.818 31.1074V30.082L378.576 28.9297H379.631ZM381.271 34.623V33.7539L384.396 28.9297H385.725V33.7148H386.691V34.623H385.725V36H384.709V34.623H381.271ZM382.404 33.7148H384.709V30.209H384.631L382.404 33.6562V33.7148ZM388.205 36.0684C387.824 36.0635 387.507 35.7559 387.512 35.375C387.507 34.9941 387.824 34.6816 388.205 34.6816C388.581 34.6816 388.894 34.9941 388.898 35.375C388.894 35.7559 388.581 36.0635 388.205 36.0684ZM392.492 28.832C393.791 28.8418 395.153 29.623 395.158 32.2109C395.158 34.6914 394.089 36.0977 392.395 36.0977C391.091 36.0977 390.183 35.292 390.012 34.1445H391.076C391.223 34.7402 391.682 35.1553 392.395 35.1602C393.483 35.1553 394.123 34.208 394.133 32.5918H394.045C393.664 33.1875 393 33.5488 392.238 33.5488C390.969 33.5488 389.953 32.5771 389.953 31.2246C389.953 29.877 390.954 28.8223 392.492 28.832ZM390.998 31.2051C391.003 32.0254 391.613 32.6748 392.473 32.6699C393.327 32.6748 393.986 31.9766 393.986 31.1953C393.986 30.4287 393.356 29.7305 392.492 29.7305C391.638 29.7305 390.993 30.3945 390.998 31.2051ZM397.912 32.2891C396.945 32.2988 396.418 31.5811 396.428 30.5312C396.418 29.4961 396.97 28.7783 397.912 28.7832C398.884 28.7783 399.392 29.4961 399.396 30.5312C399.392 31.5859 398.864 32.2988 397.912 32.2891ZM397.229 36L402.082 28.9297H402.971L398.117 36H397.229ZM397.229 30.5312C397.233 31.1807 397.458 31.6006 397.912 31.6055C398.371 31.6006 398.586 31.1807 398.586 30.5312C398.586 29.8965 398.386 29.4619 397.912 29.4668C397.458 29.4766 397.233 29.9014 397.229 30.5312ZM400.891 34.3887C400.886 33.3438 401.433 32.626 402.375 32.6309C403.342 32.626 403.854 33.3438 403.859 34.3887C403.854 35.4336 403.327 36.1465 402.375 36.1465C401.413 36.1465 400.886 35.4287 400.891 34.3887ZM401.691 34.3887C401.696 35.0283 401.921 35.4531 402.375 35.4531C402.834 35.4531 403.049 35.0283 403.049 34.3887C403.049 33.7441 402.849 33.3145 402.375 33.3145C401.926 33.3242 401.696 33.749 401.691 34.3887Z" fill="white"/>
<path d="M112.397 29.6523C112.397 30.7754 113.232 31.8545 114.585 32.2793L114.106 33.002C113.101 32.6699 112.339 31.9814 111.943 31.1025C111.548 32.0498 110.771 32.8018 109.731 33.168L109.253 32.4551C110.615 31.9814 111.455 30.8389 111.46 29.6523V29.4082H109.497V28.6562H114.321V29.4082H112.397V29.6523ZM110.483 34.5547V33.8027H116.411V36.8301H115.483V34.5547H110.483ZM115.483 33.3633V28.0801H116.411V33.3633H115.483ZM119.126 28.7051V32.0742C120.312 32.0742 121.558 31.9961 122.915 31.7129L123.022 32.4746C121.558 32.7773 120.215 32.8604 118.911 32.8555H118.198V28.7051H119.126ZM119.146 36.6445V33.7832H120.083V35.8926H124.976V36.6445H119.146ZM123.745 34.3984V28.0898H124.673V30.6387H125.942V31.4297H124.673V34.3984H123.745ZM129.653 30.3066C129.644 31.9033 130.61 33.5146 131.968 34.1152L131.411 34.8477C130.405 34.3691 129.609 33.3877 129.199 32.1914C128.794 33.4756 127.988 34.5303 126.938 35.043L126.372 34.2617C127.749 33.6514 128.716 31.9766 128.716 30.3066V28.8125H129.653V30.3066ZM132.759 36.8496V28.0801H133.687V36.8496H132.759ZM140.337 36.0977C138.872 36.0977 137.832 35.3115 137.788 34.1543H138.882C138.921 34.7744 139.536 35.1699 140.327 35.1699C141.182 35.1699 141.802 34.7061 141.802 34.0176C141.802 33.3193 141.221 32.8213 140.21 32.8164H139.604V31.9375H140.21C141.016 31.9424 141.577 31.4932 141.577 30.8145C141.577 30.1699 141.094 29.7305 140.347 29.7305C139.639 29.7305 139.004 30.126 138.979 30.7656H137.944C137.974 29.6133 139.038 28.832 140.356 28.832C141.748 28.832 142.622 29.7109 142.612 30.7559C142.622 31.5615 142.124 32.1377 141.362 32.3281V32.377C142.329 32.5137 142.891 33.1631 142.886 34.0566C142.891 35.2334 141.802 36.0977 140.337 36.0977ZM146.753 28.9297V36H145.669V30.0039H145.63L143.94 31.1074V30.082L145.698 28.9297H146.753ZM148.843 36.0684C148.462 36.0635 148.145 35.7559 148.149 35.375C148.145 34.9941 148.462 34.6816 148.843 34.6816C149.219 34.6816 149.531 34.9941 149.536 35.375C149.531 35.7559 149.219 36.0635 148.843 36.0684ZM152.612 28.9297V36H151.528V30.0039H151.489L149.8 31.1074V30.082L151.558 28.9297H152.612ZM156.03 32.2891C155.063 32.2988 154.536 31.5811 154.546 30.5312C154.536 29.4961 155.088 28.7783 156.03 28.7832C157.002 28.7783 157.51 29.4961 157.515 30.5312C157.51 31.5859 156.982 32.2988 156.03 32.2891ZM155.347 36L160.2 28.9297H161.089L156.235 36H155.347ZM155.347 30.5312C155.352 31.1807 155.576 31.6006 156.03 31.6055C156.489 31.6006 156.704 31.1807 156.704 30.5312C156.704 29.8965 156.504 29.4619 156.03 29.4668C155.576 29.4766 155.352 29.9014 155.347 30.5312ZM159.009 34.3887C159.004 33.3438 159.551 32.626 160.493 32.6309C161.46 32.626 161.973 33.3438 161.978 34.3887C161.973 35.4336 161.445 36.1465 160.493 36.1465C159.531 36.1465 159.004 35.4287 159.009 34.3887ZM159.81 34.3887C159.814 35.0283 160.039 35.4531 160.493 35.4531C160.952 35.4531 161.167 35.0283 161.167 34.3887C161.167 33.7441 160.967 33.3145 160.493 33.3145C160.044 33.3242 159.814 33.749 159.81 34.3887Z" fill="#113287"/>
</g>
<path d="M-2429 -1012H884V-1014H-2429V-1012ZM885 -1011V959H887V-1011H885ZM884 960H-2429V962H884V960ZM-2430 959V-1011H-2432V959H-2430ZM-2429 960C-2429.55 960 -2430 959.552 -2430 959H-2432C-2432 960.657 -2430.66 962 -2429 962V960ZM885 959C885 959.552 884.552 960 884 960V962C885.657 962 887 960.657 887 959H885ZM884 -1012C884.552 -1012 885 -1011.55 885 -1011H887C887 -1012.66 885.657 -1014 884 -1014V-1012ZM-2429 -1014C-2430.66 -1014 -2432 -1012.66 -2432 -1011H-2430C-2430 -1011.55 -2429.55 -1012 -2429 -1012V-1014Z" fill="black" fill-opacity="0.1"/>
<defs>
<clipPath id="clip0_1814_2379">
<rect width="744" height="78" fill="white"/>
</clipPath>
</defs>
</svg>
