<svg width="744" height="78" viewBox="0 0 744 78" fill="none" xmlns="http://www.w3.org/2000/svg">
<rect width="744" height="78" fill="#727272"/>
<path d="M-2431 -1353C-2431 -1354.1 -2430.1 -1355 -2429 -1355H884C885.104 -1355 886 -1354.1 886 -1353V617C886 618.105 885.104 619 884 619H-2429C-2430.1 619 -2431 618.105 -2431 617V-1353Z" fill="white"/>
<g clip-path="url(#clip0_1814_2379)">
<path d="M2.33981 76.3871C3.8132 76.3871 4.67523 75.1999 4.67963 73.1156C4.67523 71.0444 3.8 69.844 2.33981 69.844C0.875237 69.844 0 71.0444 0 73.1156C0 75.1999 0.86644 76.3871 2.33981 76.3871ZM0.967593 73.1156C0.967593 71.5325 1.48218 70.6663 2.33981 70.6619C3.19305 70.6663 3.71204 71.5325 3.71204 73.1156C3.71204 74.703 3.19746 75.5516 2.33981 75.5516C1.47778 75.5516 0.9632 74.703 0.967593 73.1156Z" fill="#113287"/>
<path d="M7.06344 72.8077C7.87269 72.8121 8.52802 72.157 8.52364 71.3479C8.52802 70.5388 7.87269 69.8836 7.06344 69.8792C6.25418 69.8836 5.59885 70.5388 5.60323 71.3479C5.59885 72.157 6.25418 72.8121 7.06344 72.8077ZM6.30695 71.3479C6.31136 70.9301 6.64561 70.5959 7.06344 70.6003C7.48126 70.5959 7.81553 70.9301 7.81112 71.3479C7.81553 71.7611 7.48126 72.0997 7.06344 72.1041C6.64561 72.0997 6.31136 71.7611 6.30695 71.3479Z" fill="#113287"/>
<path d="M12.0069 69.6329H11.1713L9.12177 77.2577H9.95743L12.0069 69.6329Z" fill="#113287"/>
<path d="M15.1121 69.9319H14.1621L12.5787 70.9696V71.8931L14.1004 70.8993H14.1357V76.2991H15.1121V69.9319Z" fill="#113287"/>
<path d="M18.956 76.3871C20.3194 76.3871 21.2914 75.6396 21.2958 74.6018C21.2914 73.7839 20.702 73.1156 19.9587 73.0012V72.966C20.6009 72.8165 21.0451 72.2362 21.0495 71.5413C21.0451 70.5607 20.1567 69.844 18.956 69.844C17.7377 69.844 16.8537 70.5607 16.8537 71.5413C16.8537 72.2362 17.2891 72.8165 17.9445 72.966V73.0012C17.1924 73.1156 16.6074 73.7839 16.6162 74.6018C16.6074 75.6396 17.5706 76.3871 18.956 76.3871ZM17.6014 74.5315C17.5882 73.8763 18.1644 73.397 18.956 73.397C19.7389 73.397 20.3106 73.8763 20.3106 74.5315C20.3106 75.1559 19.7829 75.5868 18.956 75.5868C18.1159 75.5868 17.5882 75.1559 17.6014 74.5315ZM17.7949 71.6293C17.7993 71.0357 18.2567 70.6312 18.956 70.6355C19.6377 70.6312 20.104 71.0357 20.0996 71.6293C20.104 72.2274 19.6202 72.6363 18.956 72.6319C18.2743 72.6363 17.7993 72.223 17.7949 71.6293Z" fill="#113287"/>
<path d="M24.5153 76.3871C25.9886 76.3871 26.8507 75.1999 26.8551 73.1156C26.8507 71.0444 25.9755 69.844 24.5153 69.844C23.0507 69.844 22.1755 71.0444 22.1755 73.1156C22.1755 75.1999 23.0419 76.3871 24.5153 76.3871ZM23.1431 73.1156C23.1431 71.5325 23.6576 70.6663 24.5153 70.6619C25.3685 70.6663 25.8875 71.5325 25.8875 73.1156C25.8875 74.703 25.3729 75.5516 24.5153 75.5516C23.6533 75.5516 23.1387 74.703 23.1431 73.1156Z" fill="#113287"/>
<path d="M29.2389 72.8077C30.0482 72.8121 30.7035 72.157 30.6992 71.3479C30.7035 70.5388 30.0482 69.8836 29.2389 69.8792C28.4297 69.8836 27.7743 70.5388 27.7787 71.3479C27.7743 72.157 28.4297 72.8121 29.2389 72.8077ZM28.4824 71.3479C28.4868 70.9301 28.8211 70.5959 29.2389 70.6003C29.6568 70.5959 29.9911 70.9301 29.9866 71.3479C29.9911 71.7611 29.6568 72.0997 29.2389 72.1041C28.8211 72.0997 28.4868 71.7611 28.4824 71.3479Z" fill="#113287"/>
<path d="M239.605 76.4808C240.924 76.4808 241.905 75.7025 241.901 74.6428C241.905 73.8381 241.399 73.2533 240.529 73.1301V73.0862C241.214 72.9147 241.664 72.3958 241.655 71.6702C241.664 70.7292 240.876 69.9377 239.623 69.9377C238.435 69.9377 237.476 70.6413 237.45 71.679H238.382C238.404 71.103 238.976 70.7468 239.614 70.7468C240.286 70.7468 240.722 71.1426 240.722 71.723C240.722 72.3342 240.216 72.7388 239.491 72.7344H238.945V73.5259H239.491C240.401 73.5303 240.924 73.9788 240.924 74.6076C240.924 75.2276 240.365 75.6454 239.596 75.6454C238.883 75.6454 238.33 75.2892 238.295 74.7307H237.309C237.349 75.7728 238.286 76.4808 239.605 76.4808Z" fill="#113287"/>
<path d="M245.181 76.4808C246.656 76.4808 247.517 75.2936 247.521 73.2093C247.517 71.1382 246.642 69.9377 245.181 69.9377C243.717 69.9377 242.841 71.1382 242.841 73.2093C242.841 75.2936 243.708 76.4808 245.181 76.4808ZM243.809 73.2093C243.809 71.6263 244.324 70.76 245.181 70.7556C246.035 70.76 246.554 71.6263 246.554 73.2093C246.554 74.7966 246.039 75.6454 245.181 75.6454C244.32 75.6454 243.805 74.7966 243.809 73.2093Z" fill="#113287"/>
<path d="M249.905 72.9015C250.715 72.9059 251.37 72.2507 251.366 71.4416C251.37 70.6325 250.715 69.9773 249.905 69.9729C249.096 69.9773 248.441 70.6325 248.445 71.4416C248.441 72.2507 249.096 72.9059 249.905 72.9015ZM249.149 71.4416C249.154 71.0239 249.488 70.6896 249.905 70.694C250.324 70.6896 250.658 71.0239 250.653 71.4416C250.658 71.855 250.324 72.1936 249.905 72.198C249.488 72.1936 249.154 71.855 249.149 71.4416Z" fill="#113287"/>
<path d="M254.849 69.7267H254.014L251.964 77.3516H252.8L254.849 69.7267Z" fill="#113287"/>
<path d="M257.954 70.0258H257.004L255.421 71.0635V71.9869L256.942 70.9932H256.977V76.393H257.954V70.0258Z" fill="#113287"/>
<path d="M261.736 76.4809C263.065 76.4809 264.006 75.5795 264.006 74.3262C264.006 73.0994 263.122 72.2112 261.921 72.2068C261.438 72.2112 260.988 72.3826 260.725 72.6377H260.663L260.874 70.8524H263.681V70.0258H260.074L259.66 73.57H260.575C260.791 73.1786 261.183 73.0071 261.692 73.0071C262.493 73.0159 263.065 73.5788 263.065 74.3526C263.065 75.109 262.511 75.6674 261.736 75.6719C261.095 75.6674 260.575 75.2716 260.522 74.7308H259.581C259.625 75.7466 260.531 76.4809 261.736 76.4809Z" fill="#113287"/>
<path d="M267.252 76.4808C268.725 76.4808 269.587 75.2936 269.591 73.2093C269.587 71.1382 268.712 69.9377 267.252 69.9377C265.787 69.9377 264.912 71.1382 264.912 73.2093C264.912 75.2936 265.778 76.4808 267.252 76.4808ZM265.879 73.2093C265.879 71.6263 266.394 70.76 267.252 70.7556C268.105 70.76 268.624 71.6263 268.624 73.2093C268.624 74.7966 268.109 75.6454 267.252 75.6454C266.39 75.6454 265.875 74.7966 265.879 73.2093Z" fill="#113287"/>
<path d="M271.975 72.9015C272.784 72.9059 273.44 72.2507 273.436 71.4416C273.44 70.6325 272.784 69.9773 271.975 69.9729C271.166 69.9773 270.51 70.6325 270.515 71.4416C270.51 72.2507 271.166 72.9059 271.975 72.9015ZM271.219 71.4416C271.223 71.0239 271.557 70.6896 271.975 70.694C272.393 70.6896 272.727 71.0239 272.723 71.4416C272.727 71.855 272.393 72.1936 271.975 72.198C271.557 72.1936 271.223 71.855 271.219 71.4416Z" fill="#113287"/>
<path d="M480.623 76.3872C481.991 76.3959 482.901 75.4506 482.901 74.2149C482.901 72.9968 481.986 72.1262 480.851 72.1218C480.161 72.1262 479.563 72.4428 479.216 72.9836H479.145C479.145 71.5457 479.717 70.6927 480.702 70.6883C481.345 70.6927 481.753 71.0665 481.881 71.5854H482.84C482.69 70.5739 481.876 69.844 480.702 69.844C479.176 69.844 478.217 71.1105 478.213 73.3266C478.213 75.6792 479.444 76.3783 480.623 76.3872ZM479.26 74.2413C479.268 73.5333 479.863 72.9089 480.64 72.9133C481.406 72.9089 481.96 73.5026 481.96 74.2325C481.96 74.9756 481.384 75.5736 480.614 75.578C479.832 75.5736 479.264 74.9492 479.26 74.2413Z" fill="#113287"/>
<path d="M486.147 76.3871C487.621 76.3871 488.483 75.1999 488.487 73.1156C488.483 71.0444 487.607 69.844 486.147 69.844C484.683 69.844 483.808 71.0444 483.808 73.1156C483.808 75.1999 484.674 76.3871 486.147 76.3871ZM484.775 73.1156C484.775 71.5325 485.289 70.6663 486.147 70.6619C487 70.6663 487.52 71.5325 487.52 73.1156C487.52 74.703 487.004 75.5516 486.147 75.5516C485.285 75.5516 484.771 74.703 484.775 73.1156Z" fill="#113287"/>
<path d="M490.871 72.8077C491.68 72.8121 492.336 72.157 492.331 71.3479C492.336 70.5388 491.68 69.8836 490.871 69.8792C490.062 69.8836 489.406 70.5388 489.41 71.3479C489.406 72.157 490.062 72.8121 490.871 72.8077ZM490.114 71.3479C490.119 70.9301 490.453 70.5959 490.871 70.6003C491.289 70.5959 491.623 70.9301 491.618 71.3479C491.623 71.7611 491.289 72.0997 490.871 72.1041C490.453 72.0997 490.119 71.7611 490.114 71.3479Z" fill="#113287"/>
<path d="M495.815 69.6329H494.979L492.929 77.2577H493.765L495.815 69.6329Z" fill="#113287"/>
<path d="M498.919 69.9319H497.969L496.386 70.9696V71.8931L497.907 70.8993H497.943V76.2991H498.919V69.9319Z" fill="#113287"/>
<path d="M500.538 76.2992H504.822V75.4725H501.884V75.4197L503.177 74.1093C504.373 72.9353 504.707 72.3681 504.716 71.6557C504.707 70.6224 503.858 69.844 502.631 69.844C501.417 69.844 500.53 70.6136 500.538 71.7788H501.452C501.457 71.1017 501.906 70.6531 502.614 70.6531C503.283 70.6531 503.792 71.0532 503.792 71.682C503.792 72.2406 503.445 72.645 502.745 73.3706L500.538 75.5956V76.2992Z" fill="#113287"/>
<path d="M508.112 76.3871C509.585 76.3871 510.447 75.1999 510.452 73.1156C510.447 71.0444 509.572 69.844 508.112 69.844C506.647 69.844 505.772 71.0444 505.772 73.1156C505.772 75.1999 506.639 76.3871 508.112 76.3871ZM506.74 73.1156C506.74 71.5325 507.254 70.6663 508.112 70.6619C508.965 70.6663 509.484 71.5325 509.484 73.1156C509.484 74.703 508.97 75.5516 508.112 75.5516C507.249 75.5516 506.735 74.703 506.74 73.1156Z" fill="#113287"/>
<path d="M512.835 72.8077C513.644 72.8121 514.3 72.157 514.295 71.3479C514.3 70.5388 513.644 69.8836 512.835 69.8792C512.026 69.8836 511.37 70.5388 511.374 71.3479C511.37 72.157 512.026 72.8121 512.835 72.8077ZM512.079 71.3479C512.083 70.9301 512.417 70.5959 512.835 70.6003C513.253 70.5959 513.587 70.9301 513.583 71.3479C513.587 71.7611 513.253 72.0997 512.835 72.1041C512.417 72.0997 512.083 71.7611 512.079 71.3479Z" fill="#113287"/>
<path d="M732.177 69.8439C730.792 69.8352 729.89 70.785 729.89 71.9986C729.89 73.2167 730.805 74.0917 731.949 74.0917C732.635 74.0917 733.233 73.7663 733.576 73.2299H733.655C733.646 74.6854 733.07 75.5384 732.089 75.5428C731.448 75.5384 731.033 75.1647 730.902 74.6281H729.943C730.097 75.6616 730.915 76.3871 732.089 76.3871C733.615 76.3871 734.578 75.1207 734.578 72.8869C734.574 70.5563 733.347 69.8528 732.177 69.8439ZM730.831 71.981C730.827 71.2511 731.408 70.6531 732.177 70.6531C732.956 70.6531 733.523 71.2819 733.523 71.9722C733.523 72.6758 732.93 73.3046 732.159 73.3003C731.386 73.3046 730.836 72.7198 730.831 71.981Z" fill="#113287"/>
<path d="M737.816 76.3871C739.289 76.3871 740.151 75.1998 740.156 73.1155C740.151 71.0444 739.276 69.844 737.816 69.844C736.351 69.844 735.476 71.0444 735.476 73.1155C735.476 75.1998 736.343 76.3871 737.816 76.3871ZM736.444 73.1155C736.444 71.5325 736.958 70.6663 737.816 70.6619C738.669 70.6663 739.188 71.5325 739.188 73.1155C739.188 74.7029 738.674 75.5516 737.816 75.5516C736.954 75.5516 736.439 74.7029 736.444 73.1155Z" fill="#113287"/>
<path d="M742.54 72.8078C743.348 72.8122 744.004 72.157 744 71.3479C744.004 70.5388 743.348 69.8836 742.54 69.8792C741.73 69.8836 741.075 70.5388 741.08 71.3479C741.075 72.157 741.73 72.8122 742.54 72.8078ZM741.783 71.3479C741.787 70.9301 742.121 70.596 742.54 70.6004C742.957 70.596 743.291 70.9301 743.287 71.3479C743.291 71.7612 742.957 72.0998 742.54 72.1042C742.121 72.0998 741.787 71.7612 741.783 71.3479Z" fill="#113287"/>
<path d="M736.965 20.2645H496.767V44.2794H736.965V20.2645Z" fill="#5B6EB4"/>
<path d="M496.767 20.2645H255.569V44.2794H496.767V20.2645Z" fill="#113287"/>
<path d="M255.569 20.2645H15.3715V44.2794H255.569V20.2645Z" fill="#E2E6F6"/>
<path fill-rule="evenodd" clip-rule="evenodd" d="M14.3708 64.2917L14.3707 0.252075H16.3723L16.3724 64.2917H14.3708Z" fill="#113287"/>
<path fill-rule="evenodd" clip-rule="evenodd" d="M735.953 64.2917V0.252075H737.955V64.2917H735.953Z" fill="#113287"/>
<path fill-rule="evenodd" clip-rule="evenodd" d="M255.069 64.0396V0H256.069V64.0396H255.069Z" fill="#979797"/>
<path fill-rule="evenodd" clip-rule="evenodd" d="M496.267 64.0396V0H497.268V64.0396H496.267Z" fill="#979797"/>
<path d="M597.567 32.1133V32.8555H594.921V34.9941H598.485V35.7559H590.478V34.9941H594.003V32.8555H591.474V28.7539H597.489V29.5059H592.401V32.1133H597.567ZM600.448 28.7051V32.0742C601.635 32.0742 602.88 31.9961 604.237 31.7129L604.345 32.4746C602.88 32.7773 601.537 32.8604 600.233 32.8555H599.521V28.7051H600.448ZM600.468 36.6445V33.7832H601.405V35.8926H606.298V36.6445H600.468ZM605.067 34.3984V28.0898H605.995V30.6387H607.265V31.4297H605.995V34.3984H605.067ZM610.976 30.3066C610.966 31.9033 611.933 33.5146 613.29 34.1152L612.733 34.8477C611.728 34.3691 610.932 33.3877 610.521 32.1914C610.116 33.4756 609.311 34.5303 608.261 35.043L607.694 34.2617C609.071 33.6514 610.038 31.9766 610.038 30.3066V28.8125H610.976V30.3066ZM614.081 36.8496V28.0801H615.009V36.8496H614.081ZM619.394 36L622.548 29.9062V29.8477H618.905V28.9297H623.661V29.8867L620.517 36H619.394ZM627.431 28.9297V36H626.347V30.0039H626.308L624.618 31.1074V30.082L626.376 28.9297H627.431ZM629.521 36.0684C629.14 36.0635 628.822 35.7559 628.827 35.375C628.822 34.9941 629.14 34.6816 629.521 34.6816C629.896 34.6816 630.209 34.9941 630.214 35.375C630.209 35.7559 629.896 36.0635 629.521 36.0684ZM633.29 28.9297V36H632.206V30.0039H632.167L630.478 31.1074V30.082L632.235 28.9297H633.29ZM636.708 32.2891C635.741 32.2988 635.214 31.5811 635.224 30.5312C635.214 29.4961 635.766 28.7783 636.708 28.7832C637.68 28.7783 638.188 29.4961 638.192 30.5312C638.188 31.5859 637.66 32.2988 636.708 32.2891ZM636.024 36L640.878 28.9297H641.767L636.913 36H636.024ZM636.024 30.5312C636.029 31.1807 636.254 31.6006 636.708 31.6055C637.167 31.6006 637.382 31.1807 637.382 30.5312C637.382 29.8965 637.182 29.4619 636.708 29.4668C636.254 29.4766 636.029 29.9014 636.024 30.5312ZM639.687 34.3887C639.682 33.3438 640.229 32.626 641.171 32.6309C642.138 32.626 642.65 33.3438 642.655 34.3887C642.65 35.4336 642.123 36.1465 641.171 36.1465C640.209 36.1465 639.682 35.4287 639.687 34.3887ZM640.487 34.3887C640.492 35.0283 640.717 35.4531 641.171 35.4531C641.63 35.4531 641.845 35.0283 641.845 34.3887C641.845 33.7441 641.645 33.3145 641.171 33.3145C640.722 33.3242 640.492 33.749 640.487 34.3887Z" fill="white"/>
<path d="M351.447 30.3066C351.438 31.8545 352.341 33.4414 353.645 34.0762L353.068 34.8184C352.116 34.3203 351.379 33.3438 350.993 32.1768C350.603 33.417 349.836 34.4668 348.84 34.9844L348.264 34.2324C349.606 33.5879 350.515 31.9082 350.52 30.3066V28.8125H351.447V30.3066ZM354.299 36.8301V28.0801H355.227V31.5664H356.633V32.3574H355.227V36.8301H354.299ZM358.381 28.7051V32.0742C359.567 32.0742 360.812 31.9961 362.17 31.7129L362.277 32.4746C360.812 32.7773 359.47 32.8604 358.166 32.8555H357.453V28.7051H358.381ZM358.4 36.6445V33.7832H359.338V35.8926H364.23V36.6445H358.4ZM363 34.3984V28.0898H363.928V30.6387H365.197V31.4297H363.928V34.3984H363ZM368.908 30.3066C368.898 31.9033 369.865 33.5146 371.223 34.1152L370.666 34.8477C369.66 34.3691 368.864 33.3877 368.454 32.1914C368.049 33.4756 367.243 34.5303 366.193 35.043L365.627 34.2617C367.004 33.6514 367.971 31.9766 367.971 30.3066V28.8125H368.908V30.3066ZM372.014 36.8496V28.0801H372.941V36.8496H372.014ZM379.768 28.9297V36H378.684V30.0039H378.645L376.955 31.1074V30.082L378.713 28.9297H379.768ZM383.967 36.0977C382.629 36.0977 381.623 35.2822 381.574 34.1543H382.619C382.678 34.7549 383.254 35.1943 383.967 35.1992C384.826 35.1943 385.441 34.5742 385.441 33.7344C385.441 32.875 384.807 32.25 383.918 32.2402C383.352 32.2402 382.917 32.4307 382.678 32.8652H381.662L382.121 28.9297H386.125V29.8477H383.01L382.775 31.8301H382.844C383.137 31.5469 383.635 31.3564 384.172 31.3516C385.505 31.3564 386.486 32.3428 386.486 33.7051C386.486 35.0967 385.441 36.0977 383.967 36.0977ZM388.068 36.0684C387.688 36.0635 387.37 35.7559 387.375 35.375C387.37 34.9941 387.688 34.6816 388.068 34.6816C388.444 34.6816 388.757 34.9941 388.762 35.375C388.757 35.7559 388.444 36.0635 388.068 36.0684ZM392.355 28.832C393.654 28.8418 395.017 29.623 395.021 32.2109C395.021 34.6914 393.952 36.0977 392.258 36.0977C390.954 36.0977 390.046 35.292 389.875 34.1445H390.939C391.086 34.7402 391.545 35.1553 392.258 35.1602C393.347 35.1553 393.986 34.208 393.996 32.5918H393.908C393.527 33.1875 392.863 33.5488 392.102 33.5488C390.832 33.5488 389.816 32.5771 389.816 31.2246C389.816 29.877 390.817 28.8223 392.355 28.832ZM390.861 31.2051C390.866 32.0254 391.477 32.6748 392.336 32.6699C393.19 32.6748 393.85 31.9766 393.85 31.1953C393.85 30.4287 393.22 29.7305 392.355 29.7305C391.501 29.7305 390.856 30.3945 390.861 31.2051ZM397.775 32.2891C396.809 32.2988 396.281 31.5811 396.291 30.5312C396.281 29.4961 396.833 28.7783 397.775 28.7832C398.747 28.7783 399.255 29.4961 399.26 30.5312C399.255 31.5859 398.728 32.2988 397.775 32.2891ZM397.092 36L401.945 28.9297H402.834L397.98 36H397.092ZM397.092 30.5312C397.097 31.1807 397.321 31.6006 397.775 31.6055C398.234 31.6006 398.449 31.1807 398.449 30.5312C398.449 29.8965 398.249 29.4619 397.775 29.4668C397.321 29.4766 397.097 29.9014 397.092 30.5312ZM400.754 34.3887C400.749 33.3438 401.296 32.626 402.238 32.6309C403.205 32.626 403.718 33.3438 403.723 34.3887C403.718 35.4336 403.19 36.1465 402.238 36.1465C401.276 36.1465 400.749 35.4287 400.754 34.3887ZM401.555 34.3887C401.56 35.0283 401.784 35.4531 402.238 35.4531C402.697 35.4531 402.912 35.0283 402.912 34.3887C402.912 33.7441 402.712 33.3145 402.238 33.3145C401.789 33.3242 401.56 33.749 401.555 34.3887Z" fill="white"/>
<path d="M111.084 29.6523C111.084 30.7754 111.919 31.8545 113.271 32.2793L112.793 33.002C111.787 32.6699 111.025 31.9814 110.63 31.1025C110.234 32.0498 109.458 32.8018 108.418 33.168L107.939 32.4551C109.302 31.9814 110.142 30.8389 110.146 29.6523V29.4082H108.184V28.6562H113.008V29.4082H111.084V29.6523ZM109.17 34.5547V33.8027H115.098V36.8301H114.17V34.5547H109.17ZM114.17 33.3633V28.0801H115.098V33.3633H114.17ZM117.812 28.7051V32.0742C118.999 32.0742 120.244 31.9961 121.602 31.7129L121.709 32.4746C120.244 32.7773 118.901 32.8604 117.598 32.8555H116.885V28.7051H117.812ZM117.832 36.6445V33.7832H118.77V35.8926H123.662V36.6445H117.832ZM122.432 34.3984V28.0898H123.359V30.6387H124.629V31.4297H123.359V34.3984H122.432ZM128.34 30.3066C128.33 31.9033 129.297 33.5146 130.654 34.1152L130.098 34.8477C129.092 34.3691 128.296 33.3877 127.886 32.1914C127.48 33.4756 126.675 34.5303 125.625 35.043L125.059 34.2617C126.436 33.6514 127.402 31.9766 127.402 30.3066V28.8125H128.34V30.3066ZM131.445 36.8496V28.0801H132.373V36.8496H131.445ZM139.199 28.9297V36H138.115V30.0039H138.076L136.387 31.1074V30.082L138.145 28.9297H139.199ZM140.996 36V35.2188L143.447 32.748C144.224 31.9424 144.609 31.4932 144.609 30.873C144.609 30.1748 144.043 29.7305 143.301 29.7305C142.515 29.7305 142.017 30.2285 142.012 30.9805H140.996C140.986 29.6865 141.973 28.832 143.32 28.832C144.683 28.832 145.625 29.6963 145.635 30.8438C145.625 31.6348 145.254 32.2646 143.926 33.5684L142.49 35.0234V35.082H145.752V36H140.996ZM147.637 36.0684C147.256 36.0635 146.938 35.7559 146.943 35.375C146.938 34.9941 147.256 34.6816 147.637 34.6816C148.013 34.6816 148.325 34.9941 148.33 35.375C148.325 35.7559 148.013 36.0635 147.637 36.0684ZM151.924 28.832C153.223 28.8418 154.585 29.623 154.59 32.2109C154.59 34.6914 153.521 36.0977 151.826 36.0977C150.522 36.0977 149.614 35.292 149.443 34.1445H150.508C150.654 34.7402 151.113 35.1553 151.826 35.1602C152.915 35.1553 153.555 34.208 153.564 32.5918H153.477C153.096 33.1875 152.432 33.5488 151.67 33.5488C150.4 33.5488 149.385 32.5771 149.385 31.2246C149.385 29.877 150.386 28.8223 151.924 28.832ZM150.43 31.2051C150.435 32.0254 151.045 32.6748 151.904 32.6699C152.759 32.6748 153.418 31.9766 153.418 31.1953C153.418 30.4287 152.788 29.7305 151.924 29.7305C151.069 29.7305 150.425 30.3945 150.43 31.2051ZM157.344 32.2891C156.377 32.2988 155.85 31.5811 155.859 30.5312C155.85 29.4961 156.401 28.7783 157.344 28.7832C158.315 28.7783 158.823 29.4961 158.828 30.5312C158.823 31.5859 158.296 32.2988 157.344 32.2891ZM156.66 36L161.514 28.9297H162.402L157.549 36H156.66ZM156.66 30.5312C156.665 31.1807 156.89 31.6006 157.344 31.6055C157.803 31.6006 158.018 31.1807 158.018 30.5312C158.018 29.8965 157.817 29.4619 157.344 29.4668C156.89 29.4766 156.665 29.9014 156.66 30.5312ZM160.322 34.3887C160.317 33.3438 160.864 32.626 161.807 32.6309C162.773 32.626 163.286 33.3438 163.291 34.3887C163.286 35.4336 162.759 36.1465 161.807 36.1465C160.845 36.1465 160.317 35.4287 160.322 34.3887ZM161.123 34.3887C161.128 35.0283 161.353 35.4531 161.807 35.4531C162.266 35.4531 162.48 35.0283 162.48 34.3887C162.48 33.7441 162.28 33.3145 161.807 33.3145C161.357 33.3242 161.128 33.749 161.123 34.3887Z" fill="#113287"/>
</g>
<path d="M-2429 -1354H884V-1356H-2429V-1354ZM885 -1353V617H887V-1353H885ZM884 618H-2429V620H884V618ZM-2430 617V-1353H-2432V617H-2430ZM-2429 618C-2429.55 618 -2430 617.552 -2430 617H-2432C-2432 618.657 -2430.66 620 -2429 620V618ZM885 617C885 617.552 884.552 618 884 618V620C885.657 620 887 618.657 887 617H885ZM884 -1354C884.552 -1354 885 -1353.55 885 -1353H887C887 -1354.66 885.657 -1356 884 -1356V-1354ZM-2429 -1356C-2430.66 -1356 -2432 -1354.66 -2432 -1353H-2430C-2430 -1353.55 -2429.55 -1354 -2429 -1354V-1356Z" fill="black" fill-opacity="0.1"/>
<defs>
<clipPath id="clip0_1814_2379">
<rect width="744" height="78" fill="white"/>
</clipPath>
</defs>
</svg>
