<svg width="744" height="78" viewBox="0 0 744 78" fill="none" xmlns="http://www.w3.org/2000/svg">
<rect width="744" height="78" fill="#727272"/>
<path d="M-2431 -498C-2431 -499.105 -2430.1 -500 -2429 -500H884C885.104 -500 886 -499.105 886 -498V1472C886 1473.1 885.104 1474 884 1474H-2429C-2430.1 1474 -2431 1473.1 -2431 1472V-498Z" fill="white"/>
<g clip-path="url(#clip0_1814_2379)">
<path d="M2.33981 76.3871C3.8132 76.3871 4.67523 75.1999 4.67963 73.1156C4.67523 71.0444 3.8 69.844 2.33981 69.844C0.875237 69.844 0 71.0444 0 73.1156C0 75.1999 0.86644 76.3871 2.33981 76.3871ZM0.967593 73.1156C0.967593 71.5325 1.48218 70.6663 2.33981 70.6619C3.19305 70.6663 3.71204 71.5325 3.71204 73.1156C3.71204 74.703 3.19746 75.5516 2.33981 75.5516C1.47778 75.5516 0.9632 74.703 0.967593 73.1156Z" fill="#113287"/>
<path d="M7.06344 72.8077C7.87269 72.8121 8.52802 72.157 8.52364 71.3479C8.52802 70.5388 7.87269 69.8836 7.06344 69.8792C6.25418 69.8836 5.59885 70.5388 5.60323 71.3479C5.59885 72.157 6.25418 72.8121 7.06344 72.8077ZM6.30695 71.3479C6.31136 70.9301 6.64561 70.5959 7.06344 70.6003C7.48126 70.5959 7.81553 70.9301 7.81112 71.3479C7.81553 71.7611 7.48126 72.0997 7.06344 72.1041C6.64561 72.0997 6.31136 71.7611 6.30695 71.3479Z" fill="#113287"/>
<path d="M12.0069 69.6329H11.1713L9.12177 77.2577H9.95743L12.0069 69.6329Z" fill="#113287"/>
<path d="M15.1121 69.9319H14.1621L12.5787 70.9696V71.8931L14.1004 70.8993H14.1357V76.2991H15.1121V69.9319Z" fill="#113287"/>
<path d="M18.956 76.3871C20.3194 76.3871 21.2914 75.6396 21.2958 74.6018C21.2914 73.7839 20.702 73.1156 19.9587 73.0012V72.966C20.6009 72.8165 21.0451 72.2362 21.0495 71.5413C21.0451 70.5607 20.1567 69.844 18.956 69.844C17.7377 69.844 16.8537 70.5607 16.8537 71.5413C16.8537 72.2362 17.2891 72.8165 17.9445 72.966V73.0012C17.1924 73.1156 16.6074 73.7839 16.6162 74.6018C16.6074 75.6396 17.5706 76.3871 18.956 76.3871ZM17.6014 74.5315C17.5882 73.8763 18.1644 73.397 18.956 73.397C19.7389 73.397 20.3106 73.8763 20.3106 74.5315C20.3106 75.1559 19.7829 75.5868 18.956 75.5868C18.1159 75.5868 17.5882 75.1559 17.6014 74.5315ZM17.7949 71.6293C17.7993 71.0357 18.2567 70.6312 18.956 70.6355C19.6377 70.6312 20.104 71.0357 20.0996 71.6293C20.104 72.2274 19.6202 72.6363 18.956 72.6319C18.2743 72.6363 17.7993 72.223 17.7949 71.6293Z" fill="#113287"/>
<path d="M24.5153 76.3871C25.9886 76.3871 26.8507 75.1999 26.8551 73.1156C26.8507 71.0444 25.9755 69.844 24.5153 69.844C23.0507 69.844 22.1755 71.0444 22.1755 73.1156C22.1755 75.1999 23.0419 76.3871 24.5153 76.3871ZM23.1431 73.1156C23.1431 71.5325 23.6576 70.6663 24.5153 70.6619C25.3685 70.6663 25.8875 71.5325 25.8875 73.1156C25.8875 74.703 25.3729 75.5516 24.5153 75.5516C23.6533 75.5516 23.1387 74.703 23.1431 73.1156Z" fill="#113287"/>
<path d="M29.2389 72.8077C30.0482 72.8121 30.7035 72.157 30.6992 71.3479C30.7035 70.5388 30.0482 69.8836 29.2389 69.8792C28.4297 69.8836 27.7743 70.5388 27.7787 71.3479C27.7743 72.157 28.4297 72.8121 29.2389 72.8077ZM28.4824 71.3479C28.4868 70.9301 28.8211 70.5959 29.2389 70.6003C29.6568 70.5959 29.9911 70.9301 29.9866 71.3479C29.9911 71.7611 29.6568 72.0997 29.2389 72.1041C28.8211 72.0997 28.4868 71.7611 28.4824 71.3479Z" fill="#113287"/>
<path d="M239.605 76.4808C240.924 76.4808 241.905 75.7025 241.901 74.6428C241.905 73.8381 241.399 73.2533 240.529 73.1301V73.0862C241.214 72.9147 241.664 72.3958 241.655 71.6702C241.664 70.7292 240.876 69.9377 239.623 69.9377C238.435 69.9377 237.476 70.6413 237.45 71.679H238.382C238.404 71.103 238.976 70.7468 239.614 70.7468C240.286 70.7468 240.722 71.1426 240.722 71.723C240.722 72.3342 240.216 72.7388 239.491 72.7344H238.945V73.5259H239.491C240.401 73.5303 240.924 73.9788 240.924 74.6076C240.924 75.2276 240.365 75.6454 239.596 75.6454C238.883 75.6454 238.33 75.2892 238.295 74.7307H237.309C237.349 75.7728 238.286 76.4808 239.605 76.4808Z" fill="#113287"/>
<path d="M245.181 76.4808C246.656 76.4808 247.517 75.2936 247.521 73.2093C247.517 71.1382 246.642 69.9377 245.181 69.9377C243.717 69.9377 242.841 71.1382 242.841 73.2093C242.841 75.2936 243.708 76.4808 245.181 76.4808ZM243.809 73.2093C243.809 71.6263 244.324 70.76 245.181 70.7556C246.035 70.76 246.554 71.6263 246.554 73.2093C246.554 74.7966 246.039 75.6454 245.181 75.6454C244.32 75.6454 243.805 74.7966 243.809 73.2093Z" fill="#113287"/>
<path d="M249.905 72.9015C250.715 72.9059 251.37 72.2507 251.366 71.4416C251.37 70.6325 250.715 69.9773 249.905 69.9729C249.096 69.9773 248.441 70.6325 248.445 71.4416C248.441 72.2507 249.096 72.9059 249.905 72.9015ZM249.149 71.4416C249.154 71.0239 249.488 70.6896 249.905 70.694C250.324 70.6896 250.658 71.0239 250.653 71.4416C250.658 71.855 250.324 72.1936 249.905 72.198C249.488 72.1936 249.154 71.855 249.149 71.4416Z" fill="#113287"/>
<path d="M254.849 69.7267H254.014L251.964 77.3516H252.8L254.849 69.7267Z" fill="#113287"/>
<path d="M257.954 70.0258H257.004L255.421 71.0635V71.9869L256.942 70.9932H256.977V76.393H257.954V70.0258Z" fill="#113287"/>
<path d="M261.736 76.4809C263.065 76.4809 264.006 75.5795 264.006 74.3262C264.006 73.0994 263.122 72.2112 261.921 72.2068C261.438 72.2112 260.988 72.3826 260.725 72.6377H260.663L260.874 70.8524H263.681V70.0258H260.074L259.66 73.57H260.575C260.791 73.1786 261.183 73.0071 261.692 73.0071C262.493 73.0159 263.065 73.5788 263.065 74.3526C263.065 75.109 262.511 75.6674 261.736 75.6719C261.095 75.6674 260.575 75.2716 260.522 74.7308H259.581C259.625 75.7466 260.531 76.4809 261.736 76.4809Z" fill="#113287"/>
<path d="M267.252 76.4808C268.725 76.4808 269.587 75.2936 269.591 73.2093C269.587 71.1382 268.712 69.9377 267.252 69.9377C265.787 69.9377 264.912 71.1382 264.912 73.2093C264.912 75.2936 265.778 76.4808 267.252 76.4808ZM265.879 73.2093C265.879 71.6263 266.394 70.76 267.252 70.7556C268.105 70.76 268.624 71.6263 268.624 73.2093C268.624 74.7966 268.109 75.6454 267.252 75.6454C266.39 75.6454 265.875 74.7966 265.879 73.2093Z" fill="#113287"/>
<path d="M271.975 72.9015C272.784 72.9059 273.44 72.2507 273.436 71.4416C273.44 70.6325 272.784 69.9773 271.975 69.9729C271.166 69.9773 270.51 70.6325 270.515 71.4416C270.51 72.2507 271.166 72.9059 271.975 72.9015ZM271.219 71.4416C271.223 71.0239 271.557 70.6896 271.975 70.694C272.393 70.6896 272.727 71.0239 272.723 71.4416C272.727 71.855 272.393 72.1936 271.975 72.198C271.557 72.1936 271.223 71.855 271.219 71.4416Z" fill="#113287"/>
<path d="M480.623 76.3872C481.991 76.3959 482.901 75.4506 482.901 74.2149C482.901 72.9968 481.986 72.1262 480.851 72.1218C480.161 72.1262 479.563 72.4428 479.216 72.9836H479.145C479.145 71.5457 479.717 70.6927 480.702 70.6883C481.345 70.6927 481.753 71.0665 481.881 71.5854H482.84C482.69 70.5739 481.876 69.844 480.702 69.844C479.176 69.844 478.217 71.1105 478.213 73.3266C478.213 75.6792 479.444 76.3783 480.623 76.3872ZM479.26 74.2413C479.268 73.5333 479.863 72.9089 480.64 72.9133C481.406 72.9089 481.96 73.5026 481.96 74.2325C481.96 74.9756 481.384 75.5736 480.614 75.578C479.832 75.5736 479.264 74.9492 479.26 74.2413Z" fill="#113287"/>
<path d="M486.147 76.3871C487.621 76.3871 488.483 75.1999 488.487 73.1156C488.483 71.0444 487.607 69.844 486.147 69.844C484.683 69.844 483.808 71.0444 483.808 73.1156C483.808 75.1999 484.674 76.3871 486.147 76.3871ZM484.775 73.1156C484.775 71.5325 485.289 70.6663 486.147 70.6619C487 70.6663 487.52 71.5325 487.52 73.1156C487.52 74.703 487.004 75.5516 486.147 75.5516C485.285 75.5516 484.771 74.703 484.775 73.1156Z" fill="#113287"/>
<path d="M490.871 72.8077C491.68 72.8121 492.336 72.157 492.331 71.3479C492.336 70.5388 491.68 69.8836 490.871 69.8792C490.062 69.8836 489.406 70.5388 489.41 71.3479C489.406 72.157 490.062 72.8121 490.871 72.8077ZM490.114 71.3479C490.119 70.9301 490.453 70.5959 490.871 70.6003C491.289 70.5959 491.623 70.9301 491.618 71.3479C491.623 71.7611 491.289 72.0997 490.871 72.1041C490.453 72.0997 490.119 71.7611 490.114 71.3479Z" fill="#113287"/>
<path d="M495.815 69.6329H494.979L492.929 77.2577H493.765L495.815 69.6329Z" fill="#113287"/>
<path d="M498.919 69.9319H497.969L496.386 70.9696V71.8931L497.907 70.8993H497.943V76.2991H498.919V69.9319Z" fill="#113287"/>
<path d="M500.538 76.2992H504.822V75.4725H501.884V75.4197L503.177 74.1093C504.373 72.9353 504.707 72.3681 504.716 71.6557C504.707 70.6224 503.858 69.844 502.631 69.844C501.417 69.844 500.53 70.6136 500.538 71.7788H501.452C501.457 71.1017 501.906 70.6531 502.614 70.6531C503.283 70.6531 503.792 71.0532 503.792 71.682C503.792 72.2406 503.445 72.645 502.745 73.3706L500.538 75.5956V76.2992Z" fill="#113287"/>
<path d="M508.112 76.3871C509.585 76.3871 510.447 75.1999 510.452 73.1156C510.447 71.0444 509.572 69.844 508.112 69.844C506.647 69.844 505.772 71.0444 505.772 73.1156C505.772 75.1999 506.639 76.3871 508.112 76.3871ZM506.74 73.1156C506.74 71.5325 507.254 70.6663 508.112 70.6619C508.965 70.6663 509.484 71.5325 509.484 73.1156C509.484 74.703 508.97 75.5516 508.112 75.5516C507.249 75.5516 506.735 74.703 506.74 73.1156Z" fill="#113287"/>
<path d="M512.835 72.8077C513.644 72.8121 514.3 72.157 514.295 71.3479C514.3 70.5388 513.644 69.8836 512.835 69.8792C512.026 69.8836 511.37 70.5388 511.374 71.3479C511.37 72.157 512.026 72.8121 512.835 72.8077ZM512.079 71.3479C512.083 70.9301 512.417 70.5959 512.835 70.6003C513.253 70.5959 513.587 70.9301 513.583 71.3479C513.587 71.7611 513.253 72.0997 512.835 72.1041C512.417 72.0997 512.083 71.7611 512.079 71.3479Z" fill="#113287"/>
<path d="M732.177 69.8439C730.792 69.8352 729.89 70.785 729.89 71.9986C729.89 73.2167 730.805 74.0917 731.949 74.0917C732.635 74.0917 733.233 73.7663 733.576 73.2299H733.655C733.646 74.6854 733.07 75.5384 732.089 75.5428C731.448 75.5384 731.033 75.1647 730.902 74.6281H729.943C730.097 75.6616 730.915 76.3871 732.089 76.3871C733.615 76.3871 734.578 75.1207 734.578 72.8869C734.574 70.5563 733.347 69.8528 732.177 69.8439ZM730.831 71.981C730.827 71.2511 731.408 70.6531 732.177 70.6531C732.956 70.6531 733.523 71.2819 733.523 71.9722C733.523 72.6758 732.93 73.3046 732.159 73.3003C731.386 73.3046 730.836 72.7198 730.831 71.981Z" fill="#113287"/>
<path d="M737.816 76.3871C739.289 76.3871 740.151 75.1998 740.156 73.1155C740.151 71.0444 739.276 69.844 737.816 69.844C736.351 69.844 735.476 71.0444 735.476 73.1155C735.476 75.1998 736.343 76.3871 737.816 76.3871ZM736.444 73.1155C736.444 71.5325 736.958 70.6663 737.816 70.6619C738.669 70.6663 739.188 71.5325 739.188 73.1155C739.188 74.7029 738.674 75.5516 737.816 75.5516C736.954 75.5516 736.439 74.7029 736.444 73.1155Z" fill="#113287"/>
<path d="M742.54 72.8078C743.348 72.8122 744.004 72.157 744 71.3479C744.004 70.5388 743.348 69.8836 742.54 69.8792C741.73 69.8836 741.075 70.5388 741.08 71.3479C741.075 72.157 741.73 72.8122 742.54 72.8078ZM741.783 71.3479C741.787 70.9301 742.121 70.596 742.54 70.6004C742.957 70.596 743.291 70.9301 743.287 71.3479C743.291 71.7612 742.957 72.0998 742.54 72.1042C742.121 72.0998 741.787 71.7612 741.783 71.3479Z" fill="#113287"/>
<path d="M736.965 20.2645H496.767V44.2794H736.965V20.2645Z" fill="#5B6EB4"/>
<path d="M496.767 20.2645H255.569V44.2794H496.767V20.2645Z" fill="#113287"/>
<path d="M255.569 20.2645H15.3715V44.2794H255.569V20.2645Z" fill="#E2E6F6"/>
<path fill-rule="evenodd" clip-rule="evenodd" d="M14.3708 64.2917L14.3707 0.252075H16.3723L16.3724 64.2917H14.3708Z" fill="#113287"/>
<path fill-rule="evenodd" clip-rule="evenodd" d="M735.953 64.2917V0.252075H737.955V64.2917H735.953Z" fill="#113287"/>
<path fill-rule="evenodd" clip-rule="evenodd" d="M255.069 64.0396V0H256.069V64.0396H255.069Z" fill="#979797"/>
<path fill-rule="evenodd" clip-rule="evenodd" d="M496.267 64.0396V0H497.268V64.0396H496.267Z" fill="#979797"/>
<path d="M599.037 32.1133V32.8555H596.391V34.9941H599.955V35.7559H591.947V34.9941H595.473V32.8555H592.943V28.7539H598.959V29.5059H593.871V32.1133H599.037ZM601.918 28.7051V32.0742C603.104 32.0742 604.35 31.9961 605.707 31.7129L605.814 32.4746C604.35 32.7773 603.007 32.8604 601.703 32.8555H600.99V28.7051H601.918ZM601.938 36.6445V33.7832H602.875V35.8926H607.768V36.6445H601.938ZM606.537 34.3984V28.0898H607.465V30.6387H608.734V31.4297H607.465V34.3984H606.537ZM612.445 30.3066C612.436 31.9033 613.402 33.5146 614.76 34.1152L614.203 34.8477C613.197 34.3691 612.401 33.3877 611.991 32.1914C611.586 33.4756 610.78 34.5303 609.73 35.043L609.164 34.2617C610.541 33.6514 611.508 31.9766 611.508 30.3066V28.8125H612.445V30.3066ZM615.551 36.8496V28.0801H616.479V36.8496H615.551ZM620.863 36L624.018 29.9062V29.8477H620.375V28.9297H625.131V29.8867L621.986 36H620.863ZM625.688 36.0684C625.307 36.0635 624.989 35.7559 624.994 35.375C624.989 34.9941 625.307 34.6816 625.688 34.6816C626.063 34.6816 626.376 34.9941 626.381 35.375C626.376 35.7559 626.063 36.0635 625.688 36.0684ZM629.887 36.0977C628.422 36.0977 627.382 35.3115 627.338 34.1543H628.432C628.471 34.7744 629.086 35.1699 629.877 35.1699C630.731 35.1699 631.352 34.7061 631.352 34.0176C631.352 33.3193 630.771 32.8213 629.76 32.8164H629.154V31.9375H629.76C630.565 31.9424 631.127 31.4932 631.127 30.8145C631.127 30.1699 630.644 29.7305 629.896 29.7305C629.188 29.7305 628.554 30.126 628.529 30.7656H627.494C627.523 29.6133 628.588 28.832 629.906 28.832C631.298 28.832 632.172 29.7109 632.162 30.7559C632.172 31.5615 631.674 32.1377 630.912 32.3281V32.377C631.879 32.5137 632.44 33.1631 632.436 34.0566C632.44 35.2334 631.352 36.0977 629.887 36.0977ZM635.238 32.2891C634.271 32.2988 633.744 31.5811 633.754 30.5312C633.744 29.4961 634.296 28.7783 635.238 28.7832C636.21 28.7783 636.718 29.4961 636.723 30.5312C636.718 31.5859 636.19 32.2988 635.238 32.2891ZM634.555 36L639.408 28.9297H640.297L635.443 36H634.555ZM634.555 30.5312C634.56 31.1807 634.784 31.6006 635.238 31.6055C635.697 31.6006 635.912 31.1807 635.912 30.5312C635.912 29.8965 635.712 29.4619 635.238 29.4668C634.784 29.4766 634.56 29.9014 634.555 30.5312ZM638.217 34.3887C638.212 33.3438 638.759 32.626 639.701 32.6309C640.668 32.626 641.181 33.3438 641.186 34.3887C641.181 35.4336 640.653 36.1465 639.701 36.1465C638.739 36.1465 638.212 35.4287 638.217 34.3887ZM639.018 34.3887C639.022 35.0283 639.247 35.4531 639.701 35.4531C640.16 35.4531 640.375 35.0283 640.375 34.3887C640.375 33.7441 640.175 33.3145 639.701 33.3145C639.252 33.3242 639.022 33.749 639.018 34.3887Z" fill="white"/>
<path d="M351.296 30.3066C351.286 31.8545 352.189 33.4414 353.493 34.0762L352.917 34.8184C351.965 34.3203 351.228 33.3438 350.842 32.1768C350.451 33.417 349.685 34.4668 348.688 34.9844L348.112 34.2324C349.455 33.5879 350.363 31.9082 350.368 30.3066V28.8125H351.296V30.3066ZM354.147 36.8301V28.0801H355.075V31.5664H356.481V32.3574H355.075V36.8301H354.147ZM358.229 28.7051V32.0742C359.416 32.0742 360.661 31.9961 362.019 31.7129L362.126 32.4746C360.661 32.7773 359.318 32.8604 358.015 32.8555H357.302V28.7051H358.229ZM358.249 36.6445V33.7832H359.187V35.8926H364.079V36.6445H358.249ZM362.849 34.3984V28.0898H363.776V30.6387H365.046V31.4297H363.776V34.3984H362.849ZM368.757 30.3066C368.747 31.9033 369.714 33.5146 371.071 34.1152L370.515 34.8477C369.509 34.3691 368.713 33.3877 368.303 32.1914C367.897 33.4756 367.092 34.5303 366.042 35.043L365.476 34.2617C366.853 33.6514 367.819 31.9766 367.819 30.3066V28.8125H368.757V30.3066ZM371.862 36.8496V28.0801H372.79V36.8496H371.862ZM379.616 28.9297V36H378.532V30.0039H378.493L376.804 31.1074V30.082L378.562 28.9297H379.616ZM383.874 36.0977C382.238 36.0977 381.276 34.7793 381.276 32.4648C381.276 30.165 382.248 28.832 383.874 28.832C385.495 28.832 386.467 30.165 386.472 32.4648C386.467 34.7793 385.51 36.0977 383.874 36.0977ZM382.351 32.4648C382.346 34.2275 382.917 35.1699 383.874 35.1699C384.826 35.1699 385.397 34.2275 385.397 32.4648C385.397 30.707 384.821 29.7451 383.874 29.7402C382.922 29.7451 382.351 30.707 382.351 32.4648ZM388.015 36.0684C387.634 36.0635 387.316 35.7559 387.321 35.375C387.316 34.9941 387.634 34.6816 388.015 34.6816C388.391 34.6816 388.703 34.9941 388.708 35.375C388.703 35.7559 388.391 36.0635 388.015 36.0684ZM389.802 34.623V33.7539L392.927 28.9297H394.255V33.7148H395.222V34.623H394.255V36H393.239V34.623H389.802ZM390.935 33.7148H393.239V30.209H393.161L390.935 33.6562V33.7148ZM397.927 32.2891C396.96 32.2988 396.433 31.5811 396.442 30.5312C396.433 29.4961 396.984 28.7783 397.927 28.7832C398.898 28.7783 399.406 29.4961 399.411 30.5312C399.406 31.5859 398.879 32.2988 397.927 32.2891ZM397.243 36L402.097 28.9297H402.985L398.132 36H397.243ZM397.243 30.5312C397.248 31.1807 397.473 31.6006 397.927 31.6055C398.386 31.6006 398.601 31.1807 398.601 30.5312C398.601 29.8965 398.4 29.4619 397.927 29.4668C397.473 29.4766 397.248 29.9014 397.243 30.5312ZM400.905 34.3887C400.9 33.3438 401.447 32.626 402.39 32.6309C403.356 32.626 403.869 33.3438 403.874 34.3887C403.869 35.4336 403.342 36.1465 402.39 36.1465C401.428 36.1465 400.9 35.4287 400.905 34.3887ZM401.706 34.3887C401.711 35.0283 401.936 35.4531 402.39 35.4531C402.849 35.4531 403.063 35.0283 403.063 34.3887C403.063 33.7441 402.863 33.3145 402.39 33.3145C401.94 33.3242 401.711 33.749 401.706 34.3887Z" fill="white"/>
<path d="M110.312 29.6523C110.312 30.7754 111.147 31.8545 112.5 32.2793L112.021 33.002C111.016 32.6699 110.254 31.9814 109.858 31.1025C109.463 32.0498 108.687 32.8018 107.646 33.168L107.168 32.4551C108.53 31.9814 109.37 30.8389 109.375 29.6523V29.4082H107.412V28.6562H112.236V29.4082H110.312V29.6523ZM108.398 34.5547V33.8027H114.326V36.8301H113.398V34.5547H108.398ZM113.398 33.3633V28.0801H114.326V33.3633H113.398ZM117.041 28.7051V32.0742C118.228 32.0742 119.473 31.9961 120.83 31.7129L120.938 32.4746C119.473 32.7773 118.13 32.8604 116.826 32.8555H116.113V28.7051H117.041ZM117.061 36.6445V33.7832H117.998V35.8926H122.891V36.6445H117.061ZM121.66 34.3984V28.0898H122.588V30.6387H123.857V31.4297H122.588V34.3984H121.66ZM127.568 30.3066C127.559 31.9033 128.525 33.5146 129.883 34.1152L129.326 34.8477C128.32 34.3691 127.524 33.3877 127.114 32.1914C126.709 33.4756 125.903 34.5303 124.854 35.043L124.287 34.2617C125.664 33.6514 126.631 31.9766 126.631 30.3066V28.8125H127.568V30.3066ZM130.674 36.8496V28.0801H131.602V36.8496H130.674ZM138.213 36.0977C136.675 36.0977 135.605 35.2676 135.615 34.1152C135.605 33.207 136.255 32.4648 137.09 32.3379V32.2988C136.362 32.1328 135.879 31.4883 135.879 30.7168C135.879 29.6279 136.86 28.832 138.213 28.832C139.546 28.832 140.532 29.6279 140.537 30.7168C140.532 31.4883 140.039 32.1328 139.326 32.2988V32.3379C140.151 32.4648 140.806 33.207 140.811 34.1152C140.806 35.2676 139.727 36.0977 138.213 36.0977ZM136.709 34.0371C136.694 34.7305 137.28 35.209 138.213 35.209C139.131 35.209 139.717 34.7305 139.717 34.0371C139.717 33.3096 139.082 32.7773 138.213 32.7773C137.334 32.7773 136.694 33.3096 136.709 34.0371ZM136.924 30.8145C136.929 31.4736 137.456 31.9326 138.213 31.9277C138.95 31.9326 139.487 31.4785 139.482 30.8145C139.487 30.1553 138.97 29.7061 138.213 29.7109C137.437 29.7061 136.929 30.1553 136.924 30.8145ZM141.924 36V35.2188L144.375 32.748C145.151 31.9424 145.537 31.4932 145.537 30.873C145.537 30.1748 144.971 29.7305 144.229 29.7305C143.442 29.7305 142.944 30.2285 142.939 30.9805H141.924C141.914 29.6865 142.9 28.832 144.248 28.832C145.61 28.832 146.553 29.6963 146.562 30.8438C146.553 31.6348 146.182 32.2646 144.854 33.5684L143.418 35.0234V35.082H146.68V36H141.924ZM148.564 36.0684C148.184 36.0635 147.866 35.7559 147.871 35.375C147.866 34.9941 148.184 34.6816 148.564 34.6816C148.94 34.6816 149.253 34.9941 149.258 35.375C149.253 35.7559 148.94 36.0635 148.564 36.0684ZM152.764 36.0977C151.299 36.0977 150.259 35.3115 150.215 34.1543H151.309C151.348 34.7744 151.963 35.1699 152.754 35.1699C153.608 35.1699 154.229 34.7061 154.229 34.0176C154.229 33.3193 153.647 32.8213 152.637 32.8164H152.031V31.9375H152.637C153.442 31.9424 154.004 31.4932 154.004 30.8145C154.004 30.1699 153.521 29.7305 152.773 29.7305C152.065 29.7305 151.431 30.126 151.406 30.7656H150.371C150.4 29.6133 151.465 28.832 152.783 28.832C154.175 28.832 155.049 29.7109 155.039 30.7559C155.049 31.5615 154.551 32.1377 153.789 32.3281V32.377C154.756 32.5137 155.317 33.1631 155.312 34.0566C155.317 35.2334 154.229 36.0977 152.764 36.0977ZM158.115 32.2891C157.148 32.2988 156.621 31.5811 156.631 30.5312C156.621 29.4961 157.173 28.7783 158.115 28.7832C159.087 28.7783 159.595 29.4961 159.6 30.5312C159.595 31.5859 159.067 32.2988 158.115 32.2891ZM157.432 36L162.285 28.9297H163.174L158.32 36H157.432ZM157.432 30.5312C157.437 31.1807 157.661 31.6006 158.115 31.6055C158.574 31.6006 158.789 31.1807 158.789 30.5312C158.789 29.8965 158.589 29.4619 158.115 29.4668C157.661 29.4766 157.437 29.9014 157.432 30.5312ZM161.094 34.3887C161.089 33.3438 161.636 32.626 162.578 32.6309C163.545 32.626 164.058 33.3438 164.062 34.3887C164.058 35.4336 163.53 36.1465 162.578 36.1465C161.616 36.1465 161.089 35.4287 161.094 34.3887ZM161.895 34.3887C161.899 35.0283 162.124 35.4531 162.578 35.4531C163.037 35.4531 163.252 35.0283 163.252 34.3887C163.252 33.7441 163.052 33.3145 162.578 33.3145C162.129 33.3242 161.899 33.749 161.895 34.3887Z" fill="#113287"/>
</g>
<path d="M-2429 -499H884V-501H-2429V-499ZM885 -498V1472H887V-498H885ZM884 1473H-2429V1475H884V1473ZM-2430 1472V-498H-2432V1472H-2430ZM-2429 1473C-2429.55 1473 -2430 1472.55 -2430 1472H-2432C-2432 1473.66 -2430.66 1475 -2429 1475V1473ZM885 1472C885 1472.55 884.552 1473 884 1473V1475C885.657 1475 887 1473.66 887 1472H885ZM884 -499C884.552 -499 885 -498.552 885 -498H887C887 -499.657 885.657 -501 884 -501V-499ZM-2429 -501C-2430.66 -501 -2432 -499.657 -2432 -498H-2430C-2430 -498.552 -2429.55 -499 -2429 -499V-501Z" fill="black" fill-opacity="0.1"/>
<defs>
<clipPath id="clip0_1814_2379">
<rect width="744" height="78" fill="white"/>
</clipPath>
</defs>
</svg>
