<svg width="744" height="78" viewBox="0 0 744 78" fill="none" xmlns="http://www.w3.org/2000/svg">
<rect width="744" height="78" fill="#727272"/>
<path d="M-2431 -159C-2431 -160.105 -2430.1 -161 -2429 -161H884C885.104 -161 886 -160.105 886 -159V1811C886 1812.1 885.104 1813 884 1813H-2429C-2430.1 1813 -2431 1812.1 -2431 1811V-159Z" fill="white"/>
<g clip-path="url(#clip0_1814_2379)">
<path d="M2.33981 76.3871C3.8132 76.3871 4.67523 75.1998 4.67963 73.1156C4.67523 71.0444 3.8 69.8439 2.33981 69.8439C0.875237 69.8439 0 71.0444 0 73.1156C0 75.1998 0.86644 76.3871 2.33981 76.3871ZM0.967593 73.1156C0.967593 71.5325 1.48218 70.6662 2.33981 70.6618C3.19305 70.6662 3.71204 71.5325 3.71204 73.1156C3.71204 74.7029 3.19746 75.5516 2.33981 75.5516C1.47778 75.5516 0.9632 74.7029 0.967593 73.1156Z" fill="#113287"/>
<path d="M7.06344 72.8077C7.87269 72.8121 8.52802 72.157 8.52364 71.3479C8.52802 70.5388 7.87269 69.8836 7.06344 69.8792C6.25418 69.8836 5.59885 70.5388 5.60323 71.3479C5.59885 72.157 6.25418 72.8121 7.06344 72.8077ZM6.30695 71.3479C6.31136 70.9301 6.64561 70.5959 7.06344 70.6003C7.48126 70.5959 7.81553 70.9301 7.81112 71.3479C7.81553 71.7611 7.48126 72.0997 7.06344 72.1041C6.64561 72.0997 6.31136 71.7611 6.30695 71.3479Z" fill="#113287"/>
<path d="M12.0069 69.6329H11.1713L9.12177 77.2577H9.95743L12.0069 69.6329Z" fill="#113287"/>
<path d="M15.1121 69.9319H14.1621L12.5787 70.9696V71.8931L14.1004 70.8993H14.1357V76.2991H15.1121V69.9319Z" fill="#113287"/>
<path d="M18.956 76.3871C20.3194 76.3871 21.2914 75.6395 21.2958 74.6018C21.2914 73.7839 20.702 73.1156 19.9587 73.0012V72.966C20.6009 72.8165 21.0451 72.2361 21.0495 71.5413C21.0451 70.5607 20.1567 69.8439 18.956 69.8439C17.7377 69.8439 16.8537 70.5607 16.8537 71.5413C16.8537 72.2361 17.2891 72.8165 17.9445 72.966V73.0012C17.1924 73.1156 16.6074 73.7839 16.6162 74.6018C16.6074 75.6395 17.5706 76.3871 18.956 76.3871ZM17.6014 74.5314C17.5882 73.8762 18.1644 73.3969 18.956 73.3969C19.7389 73.3969 20.3106 73.8762 20.3106 74.5314C20.3106 75.1558 19.7829 75.5868 18.956 75.5868C18.1159 75.5868 17.5882 75.1558 17.6014 74.5314ZM17.7949 71.6292C17.7993 71.0357 18.2567 70.6311 18.956 70.6354C19.6377 70.6311 20.104 71.0357 20.0996 71.6292C20.104 72.2273 19.6202 72.6363 18.956 72.6319C18.2743 72.6363 17.7993 72.2229 17.7949 71.6292Z" fill="#113287"/>
<path d="M24.5153 76.3871C25.9886 76.3871 26.8507 75.1998 26.8551 73.1156C26.8507 71.0444 25.9755 69.8439 24.5153 69.8439C23.0507 69.8439 22.1755 71.0444 22.1755 73.1156C22.1755 75.1998 23.0419 76.3871 24.5153 76.3871ZM23.1431 73.1156C23.1431 71.5325 23.6576 70.6662 24.5153 70.6618C25.3685 70.6662 25.8875 71.5325 25.8875 73.1156C25.8875 74.7029 25.3729 75.5516 24.5153 75.5516C23.6533 75.5516 23.1387 74.7029 23.1431 73.1156Z" fill="#113287"/>
<path d="M29.2389 72.8077C30.0482 72.8121 30.7035 72.157 30.6992 71.3479C30.7035 70.5388 30.0482 69.8836 29.2389 69.8792C28.4297 69.8836 27.7743 70.5388 27.7787 71.3479C27.7743 72.157 28.4297 72.8121 29.2389 72.8077ZM28.4824 71.3479C28.4868 70.9301 28.8211 70.5959 29.2389 70.6003C29.6568 70.5959 29.9911 70.9301 29.9866 71.3479C29.9911 71.7611 29.6568 72.0997 29.2389 72.1041C28.8211 72.0997 28.4868 71.7611 28.4824 71.3479Z" fill="#113287"/>
<path d="M239.605 76.4809C240.924 76.4809 241.905 75.7026 241.901 74.6428C241.905 73.8381 241.399 73.2534 240.529 73.1302V73.0863C241.214 72.9147 241.664 72.3958 241.655 71.6703C241.664 70.7293 240.876 69.9378 239.623 69.9378C238.435 69.9378 237.476 70.6413 237.45 71.6791H238.382C238.404 71.103 238.976 70.7469 239.614 70.7469C240.286 70.7469 240.722 71.1426 240.722 71.7231C240.722 72.3343 240.216 72.7388 239.491 72.7344H238.945V73.5259H239.491C240.401 73.5303 240.924 73.9789 240.924 74.6077C240.924 75.2277 240.365 75.6454 239.596 75.6454C238.883 75.6454 238.33 75.2892 238.295 74.7308H237.309C237.349 75.7729 238.286 76.4809 239.605 76.4809Z" fill="#113287"/>
<path d="M245.181 76.4809C246.656 76.4809 247.517 75.2936 247.521 73.2093C247.517 71.1382 246.642 69.9378 245.181 69.9378C243.717 69.9378 242.841 71.1382 242.841 73.2093C242.841 75.2936 243.708 76.4809 245.181 76.4809ZM243.809 73.2093C243.809 71.6263 244.324 70.7601 245.181 70.7557C246.035 70.7601 246.554 71.6263 246.554 73.2093C246.554 74.7967 246.039 75.6454 245.181 75.6454C244.32 75.6454 243.805 74.7967 243.809 73.2093Z" fill="#113287"/>
<path d="M249.905 72.9015C250.715 72.9059 251.37 72.2507 251.366 71.4416C251.37 70.6325 250.715 69.9773 249.905 69.9729C249.096 69.9773 248.441 70.6325 248.445 71.4416C248.441 72.2507 249.096 72.9059 249.905 72.9015ZM249.149 71.4416C249.154 71.0239 249.488 70.6896 249.905 70.694C250.324 70.6896 250.658 71.0239 250.653 71.4416C250.658 71.855 250.324 72.1936 249.905 72.198C249.488 72.1936 249.154 71.855 249.149 71.4416Z" fill="#113287"/>
<path d="M254.849 69.7267H254.014L251.964 77.3516H252.8L254.849 69.7267Z" fill="#113287"/>
<path d="M257.954 70.0258H257.004L255.421 71.0635V71.9869L256.942 70.9932H256.977V76.393H257.954V70.0258Z" fill="#113287"/>
<path d="M261.736 76.4809C263.065 76.4809 264.006 75.5795 264.006 74.3262C264.006 73.0994 263.122 72.2112 261.921 72.2068C261.438 72.2112 260.988 72.3826 260.725 72.6377H260.663L260.874 70.8524H263.681V70.0258H260.074L259.66 73.57H260.575C260.791 73.1786 261.183 73.0071 261.692 73.0071C262.493 73.0159 263.065 73.5788 263.065 74.3526C263.065 75.109 262.511 75.6674 261.736 75.6719C261.095 75.6674 260.575 75.2716 260.522 74.7308H259.581C259.625 75.7466 260.531 76.4809 261.736 76.4809Z" fill="#113287"/>
<path d="M267.252 76.4809C268.725 76.4809 269.587 75.2936 269.591 73.2093C269.587 71.1382 268.712 69.9378 267.252 69.9378C265.787 69.9378 264.912 71.1382 264.912 73.2093C264.912 75.2936 265.778 76.4809 267.252 76.4809ZM265.879 73.2093C265.879 71.6263 266.394 70.7601 267.252 70.7557C268.105 70.7601 268.624 71.6263 268.624 73.2093C268.624 74.7967 268.109 75.6454 267.252 75.6454C266.39 75.6454 265.875 74.7967 265.879 73.2093Z" fill="#113287"/>
<path d="M271.975 72.9015C272.784 72.9059 273.44 72.2507 273.436 71.4416C273.44 70.6325 272.784 69.9773 271.975 69.9729C271.166 69.9773 270.51 70.6325 270.515 71.4416C270.51 72.2507 271.166 72.9059 271.975 72.9015ZM271.219 71.4416C271.223 71.0239 271.557 70.6896 271.975 70.694C272.393 70.6896 272.727 71.0239 272.723 71.4416C272.727 71.855 272.393 72.1936 271.975 72.198C271.557 72.1936 271.223 71.855 271.219 71.4416Z" fill="#113287"/>
<path d="M480.623 76.3871C481.991 76.3959 482.901 75.4505 482.901 74.2148C482.901 72.9968 481.986 72.1261 480.851 72.1217C480.161 72.1261 479.563 72.4427 479.216 72.9836H479.145C479.145 71.5457 479.717 70.6927 480.702 70.6883C481.345 70.6927 481.753 71.0664 481.881 71.5853H482.84C482.69 70.5739 481.876 69.8439 480.702 69.8439C479.176 69.8439 478.217 71.1104 478.213 73.3266C478.213 75.6791 479.444 76.3783 480.623 76.3871ZM479.26 74.2412C479.268 73.5332 479.863 72.9088 480.64 72.9132C481.406 72.9088 481.96 73.5025 481.96 74.2324C481.96 74.9755 481.384 75.5736 480.614 75.578C479.832 75.5736 479.264 74.9492 479.26 74.2412Z" fill="#113287"/>
<path d="M486.147 76.3871C487.621 76.3871 488.483 75.1998 488.487 73.1156C488.483 71.0444 487.607 69.8439 486.147 69.8439C484.683 69.8439 483.808 71.0444 483.808 73.1156C483.808 75.1998 484.674 76.3871 486.147 76.3871ZM484.775 73.1156C484.775 71.5325 485.289 70.6662 486.147 70.6618C487 70.6662 487.52 71.5325 487.52 73.1156C487.52 74.7029 487.004 75.5516 486.147 75.5516C485.285 75.5516 484.771 74.7029 484.775 73.1156Z" fill="#113287"/>
<path d="M490.871 72.8077C491.68 72.8121 492.336 72.157 492.331 71.3479C492.336 70.5388 491.68 69.8836 490.871 69.8792C490.062 69.8836 489.406 70.5388 489.41 71.3479C489.406 72.157 490.062 72.8121 490.871 72.8077ZM490.114 71.3479C490.119 70.9301 490.453 70.5959 490.871 70.6003C491.289 70.5959 491.623 70.9301 491.618 71.3479C491.623 71.7611 491.289 72.0997 490.871 72.1041C490.453 72.0997 490.119 71.7611 490.114 71.3479Z" fill="#113287"/>
<path d="M495.815 69.6329H494.979L492.929 77.2577H493.765L495.815 69.6329Z" fill="#113287"/>
<path d="M498.919 69.9319H497.969L496.386 70.9696V71.8931L497.907 70.8993H497.943V76.2991H498.919V69.9319Z" fill="#113287"/>
<path d="M500.538 76.2991H504.822V75.4724H501.884V75.4197L503.177 74.1093C504.373 72.9352 504.707 72.368 504.716 71.6557C504.707 70.6223 503.858 69.8439 502.631 69.8439C501.417 69.8439 500.53 70.6135 500.538 71.7787H501.452C501.457 71.1016 501.906 70.653 502.614 70.653C503.283 70.653 503.792 71.0532 503.792 71.682C503.792 72.2405 503.445 72.645 502.745 73.3705L500.538 75.5956V76.2991Z" fill="#113287"/>
<path d="M508.112 76.3871C509.585 76.3871 510.447 75.1998 510.452 73.1156C510.447 71.0444 509.572 69.8439 508.112 69.8439C506.647 69.8439 505.772 71.0444 505.772 73.1156C505.772 75.1998 506.639 76.3871 508.112 76.3871ZM506.74 73.1156C506.74 71.5325 507.254 70.6662 508.112 70.6618C508.965 70.6662 509.484 71.5325 509.484 73.1156C509.484 74.7029 508.97 75.5516 508.112 75.5516C507.249 75.5516 506.735 74.7029 506.74 73.1156Z" fill="#113287"/>
<path d="M512.835 72.8077C513.644 72.8121 514.3 72.157 514.295 71.3479C514.3 70.5388 513.644 69.8836 512.835 69.8792C512.026 69.8836 511.37 70.5388 511.374 71.3479C511.37 72.157 512.026 72.8121 512.835 72.8077ZM512.079 71.3479C512.083 70.9301 512.417 70.5959 512.835 70.6003C513.253 70.5959 513.587 70.9301 513.583 71.3479C513.587 71.7611 513.253 72.0997 512.835 72.1041C512.417 72.0997 512.083 71.7611 512.079 71.3479Z" fill="#113287"/>
<path d="M732.177 69.844C730.792 69.8352 729.89 70.785 729.89 71.9987C729.89 73.2167 730.805 74.0918 731.949 74.0918C732.635 74.0918 733.233 73.7664 733.576 73.2299H733.655C733.646 74.6854 733.07 75.5385 732.089 75.5429C731.448 75.5385 731.033 75.1647 730.902 74.6282H729.943C730.097 75.6616 730.915 76.3872 732.089 76.3872C733.615 76.3872 734.578 75.1207 734.578 72.8869C734.574 70.5564 733.347 69.8529 732.177 69.844ZM730.831 71.9811C730.827 71.2511 731.408 70.6532 732.177 70.6532C732.956 70.6532 733.523 71.2819 733.523 71.9723C733.523 72.6759 732.93 73.3047 732.159 73.3003C731.386 73.3047 730.836 72.7198 730.831 71.9811Z" fill="#113287"/>
<path d="M737.816 76.3872C739.289 76.3872 740.151 75.1999 740.156 73.1156C740.151 71.0445 739.276 69.8441 737.816 69.8441C736.351 69.8441 735.476 71.0445 735.476 73.1156C735.476 75.1999 736.343 76.3872 737.816 76.3872ZM736.444 73.1156C736.444 71.5326 736.958 70.6664 737.816 70.662C738.669 70.6664 739.188 71.5326 739.188 73.1156C739.188 74.703 738.674 75.5517 737.816 75.5517C736.954 75.5517 736.439 74.703 736.444 73.1156Z" fill="#113287"/>
<path d="M742.54 72.8078C743.348 72.8122 744.004 72.157 744 71.3479C744.004 70.5388 743.348 69.8836 742.54 69.8792C741.73 69.8836 741.075 70.5388 741.08 71.3479C741.075 72.157 741.73 72.8122 742.54 72.8078ZM741.783 71.3479C741.787 70.9301 742.121 70.596 742.54 70.6004C742.957 70.596 743.291 70.9301 743.287 71.3479C743.291 71.7612 742.957 72.0998 742.54 72.1042C742.121 72.0998 741.787 71.7612 741.783 71.3479Z" fill="#113287"/>
<path d="M736.965 20.2645H496.767V44.2793H736.965V20.2645Z" fill="#5B6EB4"/>
<path d="M496.767 20.2645H255.569V44.2793H496.767V20.2645Z" fill="#113287"/>
<path d="M255.569 20.2645H15.3715V44.2793H255.569V20.2645Z" fill="#E2E6F6"/>
<path fill-rule="evenodd" clip-rule="evenodd" d="M14.3708 64.2917L14.3707 0.252136H16.3723L16.3724 64.2917H14.3708Z" fill="#113287"/>
<path fill-rule="evenodd" clip-rule="evenodd" d="M735.953 64.2917V0.252136H737.955V64.2917H735.953Z" fill="#113287"/>
<path fill-rule="evenodd" clip-rule="evenodd" d="M255.069 64.0396V0H256.069V64.0396H255.069Z" fill="#979797"/>
<path fill-rule="evenodd" clip-rule="evenodd" d="M496.267 64.0396V0H497.268V64.0396H496.267Z" fill="#979797"/>
<path d="M597.084 32.1133V32.8555H594.438V34.9941H598.002V35.7559H589.994V34.9941H593.52V32.8555H590.99V28.7539H597.006V29.5059H591.918V32.1133H597.084ZM599.965 28.7051V32.0742C601.151 32.0742 602.396 31.9961 603.754 31.7129L603.861 32.4746C602.396 32.7773 601.054 32.8604 599.75 32.8555H599.037V28.7051H599.965ZM599.984 36.6445V33.7832H600.922V35.8926H605.814V36.6445H599.984ZM604.584 34.3984V28.0898H605.512V30.6387H606.781V31.4297H605.512V34.3984H604.584ZM610.492 30.3066C610.482 31.9033 611.449 33.5146 612.807 34.1152L612.25 34.8477C611.244 34.3691 610.448 33.3877 610.038 32.1914C609.633 33.4756 608.827 34.5303 607.777 35.043L607.211 34.2617C608.588 33.6514 609.555 31.9766 609.555 30.3066V28.8125H610.492V30.3066ZM613.598 36.8496V28.0801H614.525V36.8496H613.598ZM621.352 28.9297V36H620.268V30.0039H620.229L618.539 31.1074V30.082L620.297 28.9297H621.352ZM623.393 36L626.547 29.9062V29.8477H622.904V28.9297H627.66V29.8867L624.516 36H623.393ZM628.217 36.0684C627.836 36.0635 627.519 35.7559 627.523 35.375C627.519 34.9941 627.836 34.6816 628.217 34.6816C628.593 34.6816 628.905 34.9941 628.91 35.375C628.905 35.7559 628.593 36.0635 628.217 36.0684ZM630.219 36L633.373 29.9062V29.8477H629.73V28.9297H634.486V29.8867L631.342 36H630.219ZM637.191 32.2891C636.225 32.2988 635.697 31.5811 635.707 30.5312C635.697 29.4961 636.249 28.7783 637.191 28.7832C638.163 28.7783 638.671 29.4961 638.676 30.5312C638.671 31.5859 638.144 32.2988 637.191 32.2891ZM636.508 36L641.361 28.9297H642.25L637.396 36H636.508ZM636.508 30.5312C636.513 31.1807 636.737 31.6006 637.191 31.6055C637.65 31.6006 637.865 31.1807 637.865 30.5312C637.865 29.8965 637.665 29.4619 637.191 29.4668C636.737 29.4766 636.513 29.9014 636.508 30.5312ZM640.17 34.3887C640.165 33.3438 640.712 32.626 641.654 32.6309C642.621 32.626 643.134 33.3438 643.139 34.3887C643.134 35.4336 642.606 36.1465 641.654 36.1465C640.692 36.1465 640.165 35.4287 640.17 34.3887ZM640.971 34.3887C640.976 35.0283 641.2 35.4531 641.654 35.4531C642.113 35.4531 642.328 35.0283 642.328 34.3887C642.328 33.7441 642.128 33.3145 641.654 33.3145C641.205 33.3242 640.976 33.749 640.971 34.3887Z" fill="white"/>
<path d="M351.486 30.3066C351.477 31.8545 352.38 33.4414 353.684 34.0762L353.107 34.8184C352.155 34.3203 351.418 33.3438 351.032 32.1768C350.642 33.417 349.875 34.4668 348.879 34.9844L348.303 34.2324C349.646 33.5879 350.554 31.9082 350.559 30.3066V28.8125H351.486V30.3066ZM354.338 36.8301V28.0801H355.266V31.5664H356.672V32.3574H355.266V36.8301H354.338ZM358.42 28.7051V32.0742C359.606 32.0742 360.852 31.9961 362.209 31.7129L362.316 32.4746C360.852 32.7773 359.509 32.8604 358.205 32.8555H357.492V28.7051H358.42ZM358.439 36.6445V33.7832H359.377V35.8926H364.27V36.6445H358.439ZM363.039 34.3984V28.0898H363.967V30.6387H365.236V31.4297H363.967V34.3984H363.039ZM368.947 30.3066C368.938 31.9033 369.904 33.5146 371.262 34.1152L370.705 34.8477C369.699 34.3691 368.903 33.3877 368.493 32.1914C368.088 33.4756 367.282 34.5303 366.232 35.043L365.666 34.2617C367.043 33.6514 368.01 31.9766 368.01 30.3066V28.8125H368.947V30.3066ZM372.053 36.8496V28.0801H372.98V36.8496H372.053ZM379.807 28.9297V36H378.723V30.0039H378.684L376.994 31.1074V30.082L378.752 28.9297H379.807ZM384.162 36.0977C382.854 36.0879 381.486 35.3115 381.486 32.6992C381.491 30.2383 382.556 28.832 384.25 28.832C385.554 28.832 386.457 29.6426 386.623 30.7656H385.559C385.417 30.1895 384.963 29.7744 384.25 29.7695C383.156 29.7744 382.521 30.7217 382.521 32.3184H382.6C382.985 31.7178 383.649 31.3662 384.416 31.3613C385.676 31.3662 386.691 32.333 386.691 33.6855C386.691 35.0576 385.681 36.1074 384.162 36.0977ZM382.648 33.7148C382.653 34.501 383.283 35.1943 384.152 35.1992C385.007 35.1943 385.646 34.5303 385.646 33.7051C385.646 32.8945 385.031 32.2354 384.182 32.2402C383.317 32.2354 382.658 32.9287 382.648 33.7148ZM388.205 36.0684C387.824 36.0635 387.507 35.7559 387.512 35.375C387.507 34.9941 387.824 34.6816 388.205 34.6816C388.581 34.6816 388.894 34.9941 388.898 35.375C388.894 35.7559 388.581 36.0635 388.205 36.0684ZM392.443 36.0977C391.135 36.0879 389.768 35.3115 389.768 32.6992C389.772 30.2383 390.837 28.832 392.531 28.832C393.835 28.832 394.738 29.6426 394.904 30.7656H393.84C393.698 30.1895 393.244 29.7744 392.531 29.7695C391.438 29.7744 390.803 30.7217 390.803 32.3184H390.881C391.267 31.7178 391.931 31.3662 392.697 31.3613C393.957 31.3662 394.973 32.333 394.973 33.6855C394.973 35.0576 393.962 36.1074 392.443 36.0977ZM390.93 33.7148C390.935 34.501 391.564 35.1943 392.434 35.1992C393.288 35.1943 393.928 34.5303 393.928 33.7051C393.928 32.8945 393.312 32.2354 392.463 32.2402C391.599 32.2354 390.939 32.9287 390.93 33.7148ZM397.736 32.2891C396.77 32.2988 396.242 31.5811 396.252 30.5312C396.242 29.4961 396.794 28.7783 397.736 28.7832C398.708 28.7783 399.216 29.4961 399.221 30.5312C399.216 31.5859 398.688 32.2988 397.736 32.2891ZM397.053 36L401.906 28.9297H402.795L397.941 36H397.053ZM397.053 30.5312C397.058 31.1807 397.282 31.6006 397.736 31.6055C398.195 31.6006 398.41 31.1807 398.41 30.5312C398.41 29.8965 398.21 29.4619 397.736 29.4668C397.282 29.4766 397.058 29.9014 397.053 30.5312ZM400.715 34.3887C400.71 33.3438 401.257 32.626 402.199 32.6309C403.166 32.626 403.679 33.3438 403.684 34.3887C403.679 35.4336 403.151 36.1465 402.199 36.1465C401.237 36.1465 400.71 35.4287 400.715 34.3887ZM401.516 34.3887C401.521 35.0283 401.745 35.4531 402.199 35.4531C402.658 35.4531 402.873 35.0283 402.873 34.3887C402.873 33.7441 402.673 33.3145 402.199 33.3145C401.75 33.3242 401.521 33.749 401.516 34.3887Z" fill="white"/>
<path d="M110.381 29.6523C110.381 30.7754 111.216 31.8545 112.568 32.2793L112.09 33.002C111.084 32.6699 110.322 31.9814 109.927 31.1025C109.531 32.0498 108.755 32.8018 107.715 33.168L107.236 32.4551C108.599 31.9814 109.438 30.8389 109.443 29.6523V29.4082H107.48V28.6562H112.305V29.4082H110.381V29.6523ZM108.467 34.5547V33.8027H114.395V36.8301H113.467V34.5547H108.467ZM113.467 33.3633V28.0801H114.395V33.3633H113.467ZM117.109 28.7051V32.0742C118.296 32.0742 119.541 31.9961 120.898 31.7129L121.006 32.4746C119.541 32.7773 118.198 32.8604 116.895 32.8555H116.182V28.7051H117.109ZM117.129 36.6445V33.7832H118.066V35.8926H122.959V36.6445H117.129ZM121.729 34.3984V28.0898H122.656V30.6387H123.926V31.4297H122.656V34.3984H121.729ZM127.637 30.3066C127.627 31.9033 128.594 33.5146 129.951 34.1152L129.395 34.8477C128.389 34.3691 127.593 33.3877 127.183 32.1914C126.777 33.4756 125.972 34.5303 124.922 35.043L124.355 34.2617C125.732 33.6514 126.699 31.9766 126.699 30.3066V28.8125H127.637V30.3066ZM130.742 36.8496V28.0801H131.67V36.8496H130.742ZM138.369 36.0977C137.061 36.0879 135.693 35.3115 135.693 32.6992C135.698 30.2383 136.763 28.832 138.457 28.832C139.761 28.832 140.664 29.6426 140.83 30.7656H139.766C139.624 30.1895 139.17 29.7744 138.457 29.7695C137.363 29.7744 136.729 30.7217 136.729 32.3184H136.807C137.192 31.7178 137.856 31.3662 138.623 31.3613C139.883 31.3662 140.898 32.333 140.898 33.6855C140.898 35.0576 139.888 36.1074 138.369 36.0977ZM136.855 33.7148C136.86 34.501 137.49 35.1943 138.359 35.1992C139.214 35.1943 139.854 34.5303 139.854 33.7051C139.854 32.8945 139.238 32.2354 138.389 32.2402C137.524 32.2354 136.865 32.9287 136.855 33.7148ZM144.443 36.0977C143.105 36.0977 142.1 35.2822 142.051 34.1543H143.096C143.154 34.7549 143.73 35.1943 144.443 35.1992C145.303 35.1943 145.918 34.5742 145.918 33.7344C145.918 32.875 145.283 32.25 144.395 32.2402C143.828 32.2402 143.394 32.4307 143.154 32.8652H142.139L142.598 28.9297H146.602V29.8477H143.486L143.252 31.8301H143.32C143.613 31.5469 144.111 31.3564 144.648 31.3516C145.981 31.3564 146.963 32.3428 146.963 33.7051C146.963 35.0967 145.918 36.0977 144.443 36.0977ZM148.545 36.0684C148.164 36.0635 147.847 35.7559 147.852 35.375C147.847 34.9941 148.164 34.6816 148.545 34.6816C148.921 34.6816 149.233 34.9941 149.238 35.375C149.233 35.7559 148.921 36.0635 148.545 36.0684ZM152.715 36.0977C151.177 36.0977 150.107 35.2676 150.117 34.1152C150.107 33.207 150.757 32.4648 151.592 32.3379V32.2988C150.864 32.1328 150.381 31.4883 150.381 30.7168C150.381 29.6279 151.362 28.832 152.715 28.832C154.048 28.832 155.034 29.6279 155.039 30.7168C155.034 31.4883 154.541 32.1328 153.828 32.2988V32.3379C154.653 32.4648 155.308 33.207 155.312 34.1152C155.308 35.2676 154.229 36.0977 152.715 36.0977ZM151.211 34.0371C151.196 34.7305 151.782 35.209 152.715 35.209C153.633 35.209 154.219 34.7305 154.219 34.0371C154.219 33.3096 153.584 32.7773 152.715 32.7773C151.836 32.7773 151.196 33.3096 151.211 34.0371ZM151.426 30.8145C151.431 31.4736 151.958 31.9326 152.715 31.9277C153.452 31.9326 153.989 31.4785 153.984 30.8145C153.989 30.1553 153.472 29.7061 152.715 29.7109C151.938 29.7061 151.431 30.1553 151.426 30.8145ZM158.047 32.2891C157.08 32.2988 156.553 31.5811 156.562 30.5312C156.553 29.4961 157.104 28.7783 158.047 28.7832C159.019 28.7783 159.526 29.4961 159.531 30.5312C159.526 31.5859 158.999 32.2988 158.047 32.2891ZM157.363 36L162.217 28.9297H163.105L158.252 36H157.363ZM157.363 30.5312C157.368 31.1807 157.593 31.6006 158.047 31.6055C158.506 31.6006 158.721 31.1807 158.721 30.5312C158.721 29.8965 158.521 29.4619 158.047 29.4668C157.593 29.4766 157.368 29.9014 157.363 30.5312ZM161.025 34.3887C161.021 33.3438 161.567 32.626 162.51 32.6309C163.477 32.626 163.989 33.3438 163.994 34.3887C163.989 35.4336 163.462 36.1465 162.51 36.1465C161.548 36.1465 161.021 35.4287 161.025 34.3887ZM161.826 34.3887C161.831 35.0283 162.056 35.4531 162.51 35.4531C162.969 35.4531 163.184 35.0283 163.184 34.3887C163.184 33.7441 162.983 33.3145 162.51 33.3145C162.061 33.3242 161.831 33.749 161.826 34.3887Z" fill="#113287"/>
</g>
<path d="M-2429 -160H884V-162H-2429V-160ZM885 -159V1811H887V-159H885ZM884 1812H-2429V1814H884V1812ZM-2430 1811V-159H-2432V1811H-2430ZM-2429 1812C-2429.55 1812 -2430 1811.55 -2430 1811H-2432C-2432 1812.66 -2430.66 1814 -2429 1814V1812ZM885 1811C885 1811.55 884.552 1812 884 1812V1814C885.657 1814 887 1812.66 887 1811H885ZM884 -160C884.552 -160 885 -159.552 885 -159H887C887 -160.657 885.657 -162 884 -162V-160ZM-2429 -162C-2430.66 -162 -2432 -160.657 -2432 -159H-2430C-2430 -159.552 -2429.55 -160 -2429 -160V-162Z" fill="black" fill-opacity="0.1"/>
<defs>
<clipPath id="clip0_1814_2379">
<rect width="744" height="78" fill="white"/>
</clipPath>
</defs>
</svg>
