<svg width="744" height="78" viewBox="0 0 744 78" fill="none" xmlns="http://www.w3.org/2000/svg">
<rect width="744" height="78" fill="#727272"/>
<path d="M-2431 -669C-2431 -670.105 -2430.1 -671 -2429 -671H884C885.104 -671 886 -670.105 886 -669V1301C886 1302.1 885.104 1303 884 1303H-2429C-2430.1 1303 -2431 1302.1 -2431 1301V-669Z" fill="white"/>
<g clip-path="url(#clip0_1814_2379)">
<path d="M2.33981 76.3871C3.8132 76.3871 4.67523 75.1999 4.67963 73.1156C4.67523 71.0444 3.8 69.844 2.33981 69.844C0.875237 69.844 0 71.0444 0 73.1156C0 75.1999 0.86644 76.3871 2.33981 76.3871ZM0.967593 73.1156C0.967593 71.5325 1.48218 70.6663 2.33981 70.6619C3.19305 70.6663 3.71204 71.5325 3.71204 73.1156C3.71204 74.703 3.19746 75.5516 2.33981 75.5516C1.47778 75.5516 0.9632 74.703 0.967593 73.1156Z" fill="#113287"/>
<path d="M7.06344 72.8077C7.87269 72.8121 8.52802 72.157 8.52364 71.3479C8.52802 70.5388 7.87269 69.8836 7.06344 69.8792C6.25418 69.8836 5.59885 70.5388 5.60323 71.3479C5.59885 72.157 6.25418 72.8121 7.06344 72.8077ZM6.30695 71.3479C6.31136 70.9301 6.64561 70.5959 7.06344 70.6003C7.48126 70.5959 7.81553 70.9301 7.81112 71.3479C7.81553 71.7611 7.48126 72.0997 7.06344 72.1041C6.64561 72.0997 6.31136 71.7611 6.30695 71.3479Z" fill="#113287"/>
<path d="M12.0069 69.6329H11.1713L9.12177 77.2577H9.95743L12.0069 69.6329Z" fill="#113287"/>
<path d="M15.1121 69.9319H14.1621L12.5787 70.9696V71.8931L14.1004 70.8993H14.1357V76.2991H15.1121V69.9319Z" fill="#113287"/>
<path d="M18.956 76.3871C20.3194 76.3871 21.2914 75.6396 21.2958 74.6018C21.2914 73.7839 20.702 73.1156 19.9587 73.0012V72.966C20.6009 72.8165 21.0451 72.2362 21.0495 71.5413C21.0451 70.5607 20.1567 69.844 18.956 69.844C17.7377 69.844 16.8537 70.5607 16.8537 71.5413C16.8537 72.2362 17.2891 72.8165 17.9445 72.966V73.0012C17.1924 73.1156 16.6074 73.7839 16.6162 74.6018C16.6074 75.6396 17.5706 76.3871 18.956 76.3871ZM17.6014 74.5315C17.5882 73.8763 18.1644 73.397 18.956 73.397C19.7389 73.397 20.3106 73.8763 20.3106 74.5315C20.3106 75.1559 19.7829 75.5868 18.956 75.5868C18.1159 75.5868 17.5882 75.1559 17.6014 74.5315ZM17.7949 71.6293C17.7993 71.0357 18.2567 70.6312 18.956 70.6355C19.6377 70.6312 20.104 71.0357 20.0996 71.6293C20.104 72.2274 19.6202 72.6363 18.956 72.6319C18.2743 72.6363 17.7993 72.223 17.7949 71.6293Z" fill="#113287"/>
<path d="M24.5153 76.3871C25.9886 76.3871 26.8507 75.1999 26.8551 73.1156C26.8507 71.0444 25.9755 69.844 24.5153 69.844C23.0507 69.844 22.1755 71.0444 22.1755 73.1156C22.1755 75.1999 23.0419 76.3871 24.5153 76.3871ZM23.1431 73.1156C23.1431 71.5325 23.6576 70.6663 24.5153 70.6619C25.3685 70.6663 25.8875 71.5325 25.8875 73.1156C25.8875 74.703 25.3729 75.5516 24.5153 75.5516C23.6533 75.5516 23.1387 74.703 23.1431 73.1156Z" fill="#113287"/>
<path d="M29.2389 72.8077C30.0482 72.8121 30.7035 72.157 30.6992 71.3479C30.7035 70.5388 30.0482 69.8836 29.2389 69.8792C28.4297 69.8836 27.7743 70.5388 27.7787 71.3479C27.7743 72.157 28.4297 72.8121 29.2389 72.8077ZM28.4824 71.3479C28.4868 70.9301 28.8211 70.5959 29.2389 70.6003C29.6568 70.5959 29.9911 70.9301 29.9866 71.3479C29.9911 71.7611 29.6568 72.0997 29.2389 72.1041C28.8211 72.0997 28.4868 71.7611 28.4824 71.3479Z" fill="#113287"/>
<path d="M239.605 76.4808C240.924 76.4808 241.905 75.7025 241.901 74.6428C241.905 73.8381 241.399 73.2533 240.529 73.1301V73.0862C241.214 72.9147 241.664 72.3958 241.655 71.6702C241.664 70.7292 240.876 69.9377 239.623 69.9377C238.435 69.9377 237.476 70.6413 237.45 71.679H238.382C238.404 71.103 238.976 70.7468 239.614 70.7468C240.286 70.7468 240.722 71.1426 240.722 71.723C240.722 72.3342 240.216 72.7388 239.491 72.7344H238.945V73.5259H239.491C240.401 73.5303 240.924 73.9788 240.924 74.6076C240.924 75.2276 240.365 75.6454 239.596 75.6454C238.883 75.6454 238.33 75.2892 238.295 74.7307H237.309C237.349 75.7728 238.286 76.4808 239.605 76.4808Z" fill="#113287"/>
<path d="M245.181 76.4808C246.656 76.4808 247.517 75.2936 247.521 73.2093C247.517 71.1382 246.642 69.9377 245.181 69.9377C243.717 69.9377 242.841 71.1382 242.841 73.2093C242.841 75.2936 243.708 76.4808 245.181 76.4808ZM243.809 73.2093C243.809 71.6263 244.324 70.76 245.181 70.7556C246.035 70.76 246.554 71.6263 246.554 73.2093C246.554 74.7966 246.039 75.6454 245.181 75.6454C244.32 75.6454 243.805 74.7966 243.809 73.2093Z" fill="#113287"/>
<path d="M249.905 72.9015C250.715 72.9059 251.37 72.2507 251.366 71.4416C251.37 70.6325 250.715 69.9773 249.905 69.9729C249.096 69.9773 248.441 70.6325 248.445 71.4416C248.441 72.2507 249.096 72.9059 249.905 72.9015ZM249.149 71.4416C249.154 71.0239 249.488 70.6896 249.905 70.694C250.324 70.6896 250.658 71.0239 250.653 71.4416C250.658 71.855 250.324 72.1936 249.905 72.198C249.488 72.1936 249.154 71.855 249.149 71.4416Z" fill="#113287"/>
<path d="M254.849 69.7267H254.014L251.964 77.3516H252.8L254.849 69.7267Z" fill="#113287"/>
<path d="M257.954 70.0258H257.004L255.421 71.0635V71.9869L256.942 70.9932H256.977V76.393H257.954V70.0258Z" fill="#113287"/>
<path d="M261.736 76.4809C263.065 76.4809 264.006 75.5795 264.006 74.3262C264.006 73.0994 263.122 72.2112 261.921 72.2068C261.438 72.2112 260.988 72.3826 260.725 72.6377H260.663L260.874 70.8524H263.681V70.0258H260.074L259.66 73.57H260.575C260.791 73.1786 261.183 73.0071 261.692 73.0071C262.493 73.0159 263.065 73.5788 263.065 74.3526C263.065 75.109 262.511 75.6674 261.736 75.6719C261.095 75.6674 260.575 75.2716 260.522 74.7308H259.581C259.625 75.7466 260.531 76.4809 261.736 76.4809Z" fill="#113287"/>
<path d="M267.252 76.4808C268.725 76.4808 269.587 75.2936 269.591 73.2093C269.587 71.1382 268.712 69.9377 267.252 69.9377C265.787 69.9377 264.912 71.1382 264.912 73.2093C264.912 75.2936 265.778 76.4808 267.252 76.4808ZM265.879 73.2093C265.879 71.6263 266.394 70.76 267.252 70.7556C268.105 70.76 268.624 71.6263 268.624 73.2093C268.624 74.7966 268.109 75.6454 267.252 75.6454C266.39 75.6454 265.875 74.7966 265.879 73.2093Z" fill="#113287"/>
<path d="M271.975 72.9015C272.784 72.9059 273.44 72.2507 273.436 71.4416C273.44 70.6325 272.784 69.9773 271.975 69.9729C271.166 69.9773 270.51 70.6325 270.515 71.4416C270.51 72.2507 271.166 72.9059 271.975 72.9015ZM271.219 71.4416C271.223 71.0239 271.557 70.6896 271.975 70.694C272.393 70.6896 272.727 71.0239 272.723 71.4416C272.727 71.855 272.393 72.1936 271.975 72.198C271.557 72.1936 271.223 71.855 271.219 71.4416Z" fill="#113287"/>
<path d="M480.623 76.3872C481.991 76.3959 482.901 75.4506 482.901 74.2149C482.901 72.9968 481.986 72.1262 480.851 72.1218C480.161 72.1262 479.563 72.4428 479.216 72.9836H479.145C479.145 71.5457 479.717 70.6927 480.702 70.6883C481.345 70.6927 481.753 71.0665 481.881 71.5854H482.84C482.69 70.5739 481.876 69.844 480.702 69.844C479.176 69.844 478.217 71.1105 478.213 73.3266C478.213 75.6792 479.444 76.3783 480.623 76.3872ZM479.26 74.2413C479.268 73.5333 479.863 72.9089 480.64 72.9133C481.406 72.9089 481.96 73.5026 481.96 74.2325C481.96 74.9756 481.384 75.5736 480.614 75.578C479.832 75.5736 479.264 74.9492 479.26 74.2413Z" fill="#113287"/>
<path d="M486.147 76.3871C487.621 76.3871 488.483 75.1999 488.487 73.1156C488.483 71.0444 487.607 69.844 486.147 69.844C484.683 69.844 483.808 71.0444 483.808 73.1156C483.808 75.1999 484.674 76.3871 486.147 76.3871ZM484.775 73.1156C484.775 71.5325 485.289 70.6663 486.147 70.6619C487 70.6663 487.52 71.5325 487.52 73.1156C487.52 74.703 487.004 75.5516 486.147 75.5516C485.285 75.5516 484.771 74.703 484.775 73.1156Z" fill="#113287"/>
<path d="M490.871 72.8077C491.68 72.8121 492.336 72.157 492.331 71.3479C492.336 70.5388 491.68 69.8836 490.871 69.8792C490.062 69.8836 489.406 70.5388 489.41 71.3479C489.406 72.157 490.062 72.8121 490.871 72.8077ZM490.114 71.3479C490.119 70.9301 490.453 70.5959 490.871 70.6003C491.289 70.5959 491.623 70.9301 491.618 71.3479C491.623 71.7611 491.289 72.0997 490.871 72.1041C490.453 72.0997 490.119 71.7611 490.114 71.3479Z" fill="#113287"/>
<path d="M495.815 69.6329H494.979L492.929 77.2577H493.765L495.815 69.6329Z" fill="#113287"/>
<path d="M498.919 69.9319H497.969L496.386 70.9696V71.8931L497.907 70.8993H497.943V76.2991H498.919V69.9319Z" fill="#113287"/>
<path d="M500.538 76.2992H504.822V75.4725H501.884V75.4197L503.177 74.1093C504.373 72.9353 504.707 72.3681 504.716 71.6557C504.707 70.6224 503.858 69.844 502.631 69.844C501.417 69.844 500.53 70.6136 500.538 71.7788H501.452C501.457 71.1017 501.906 70.6531 502.614 70.6531C503.283 70.6531 503.792 71.0532 503.792 71.682C503.792 72.2406 503.445 72.645 502.745 73.3706L500.538 75.5956V76.2992Z" fill="#113287"/>
<path d="M508.112 76.3871C509.585 76.3871 510.447 75.1999 510.452 73.1156C510.447 71.0444 509.572 69.844 508.112 69.844C506.647 69.844 505.772 71.0444 505.772 73.1156C505.772 75.1999 506.639 76.3871 508.112 76.3871ZM506.74 73.1156C506.74 71.5325 507.254 70.6663 508.112 70.6619C508.965 70.6663 509.484 71.5325 509.484 73.1156C509.484 74.703 508.97 75.5516 508.112 75.5516C507.249 75.5516 506.735 74.703 506.74 73.1156Z" fill="#113287"/>
<path d="M512.835 72.8077C513.644 72.8121 514.3 72.157 514.295 71.3479C514.3 70.5388 513.644 69.8836 512.835 69.8792C512.026 69.8836 511.37 70.5388 511.374 71.3479C511.37 72.157 512.026 72.8121 512.835 72.8077ZM512.079 71.3479C512.083 70.9301 512.417 70.5959 512.835 70.6003C513.253 70.5959 513.587 70.9301 513.583 71.3479C513.587 71.7611 513.253 72.0997 512.835 72.1041C512.417 72.0997 512.083 71.7611 512.079 71.3479Z" fill="#113287"/>
<path d="M732.177 69.8439C730.792 69.8352 729.89 70.785 729.89 71.9986C729.89 73.2167 730.805 74.0917 731.949 74.0917C732.635 74.0917 733.233 73.7663 733.576 73.2299H733.655C733.646 74.6854 733.07 75.5384 732.089 75.5428C731.448 75.5384 731.033 75.1647 730.902 74.6281H729.943C730.097 75.6616 730.915 76.3871 732.089 76.3871C733.615 76.3871 734.578 75.1207 734.578 72.8869C734.574 70.5563 733.347 69.8528 732.177 69.8439ZM730.831 71.981C730.827 71.2511 731.408 70.6531 732.177 70.6531C732.956 70.6531 733.523 71.2819 733.523 71.9722C733.523 72.6758 732.93 73.3046 732.159 73.3003C731.386 73.3046 730.836 72.7198 730.831 71.981Z" fill="#113287"/>
<path d="M737.816 76.3871C739.289 76.3871 740.151 75.1998 740.156 73.1155C740.151 71.0444 739.276 69.844 737.816 69.844C736.351 69.844 735.476 71.0444 735.476 73.1155C735.476 75.1998 736.343 76.3871 737.816 76.3871ZM736.444 73.1155C736.444 71.5325 736.958 70.6663 737.816 70.6619C738.669 70.6663 739.188 71.5325 739.188 73.1155C739.188 74.7029 738.674 75.5516 737.816 75.5516C736.954 75.5516 736.439 74.7029 736.444 73.1155Z" fill="#113287"/>
<path d="M742.54 72.8078C743.348 72.8122 744.004 72.157 744 71.3479C744.004 70.5388 743.348 69.8836 742.54 69.8792C741.73 69.8836 741.075 70.5388 741.08 71.3479C741.075 72.157 741.73 72.8122 742.54 72.8078ZM741.783 71.3479C741.787 70.9301 742.121 70.596 742.54 70.6004C742.957 70.596 743.291 70.9301 743.287 71.3479C743.291 71.7612 742.957 72.0998 742.54 72.1042C742.121 72.0998 741.787 71.7612 741.783 71.3479Z" fill="#113287"/>
<path d="M736.965 20.2645H496.767V44.2794H736.965V20.2645Z" fill="#5B6EB4"/>
<path d="M496.767 20.2645H255.569V44.2794H496.767V20.2645Z" fill="#113287"/>
<path d="M255.569 20.2645H15.3715V44.2794H255.569V20.2645Z" fill="#E2E6F6"/>
<path fill-rule="evenodd" clip-rule="evenodd" d="M14.3708 64.2917L14.3707 0.252075H16.3723L16.3724 64.2917H14.3708Z" fill="#113287"/>
<path fill-rule="evenodd" clip-rule="evenodd" d="M735.953 64.2917V0.252075H737.955V64.2917H735.953Z" fill="#113287"/>
<path fill-rule="evenodd" clip-rule="evenodd" d="M255.069 64.0396V0H256.069V64.0396H255.069Z" fill="#979797"/>
<path fill-rule="evenodd" clip-rule="evenodd" d="M496.267 64.0396V0H497.268V64.0396H496.267Z" fill="#979797"/>
<path d="M596.288 32.1133V32.8555H593.642V34.9941H597.206V35.7559H589.198V34.9941H592.724V32.8555H590.194V28.7539H596.21V29.5059H591.122V32.1133H596.288ZM599.169 28.7051V32.0742C600.355 32.0742 601.601 31.9961 602.958 31.7129L603.065 32.4746C601.601 32.7773 600.258 32.8604 598.954 32.8555H598.241V28.7051H599.169ZM599.188 36.6445V33.7832H600.126V35.8926H605.019V36.6445H599.188ZM603.788 34.3984V28.0898H604.716V30.6387H605.985V31.4297H604.716V34.3984H603.788ZM609.696 30.3066C609.687 31.9033 610.653 33.5146 612.011 34.1152L611.454 34.8477C610.448 34.3691 609.652 33.3877 609.242 32.1914C608.837 33.4756 608.031 34.5303 606.981 35.043L606.415 34.2617C607.792 33.6514 608.759 31.9766 608.759 30.3066V28.8125H609.696V30.3066ZM612.802 36.8496V28.0801H613.729V36.8496H612.802ZM620.556 28.9297V36H619.472V30.0039H619.433L617.743 31.1074V30.082L619.501 28.9297H620.556ZM624.823 36.0977C623.285 36.0977 622.216 35.2676 622.226 34.1152C622.216 33.207 622.865 32.4648 623.7 32.3379V32.2988C622.973 32.1328 622.489 31.4883 622.489 30.7168C622.489 29.6279 623.471 28.832 624.823 28.832C626.156 28.832 627.143 29.6279 627.147 30.7168C627.143 31.4883 626.649 32.1328 625.937 32.2988V32.3379C626.762 32.4648 627.416 33.207 627.421 34.1152C627.416 35.2676 626.337 36.0977 624.823 36.0977ZM623.319 34.0371C623.305 34.7305 623.891 35.209 624.823 35.209C625.741 35.209 626.327 34.7305 626.327 34.0371C626.327 33.3096 625.692 32.7773 624.823 32.7773C623.944 32.7773 623.305 33.3096 623.319 34.0371ZM623.534 30.8145C623.539 31.4736 624.066 31.9326 624.823 31.9277C625.561 31.9326 626.098 31.4785 626.093 30.8145C626.098 30.1553 625.58 29.7061 624.823 29.7109C624.047 29.7061 623.539 30.1553 623.534 30.8145ZM629.013 36.0684C628.632 36.0635 628.314 35.7559 628.319 35.375C628.314 34.9941 628.632 34.6816 629.013 34.6816C629.389 34.6816 629.701 34.9941 629.706 35.375C629.701 35.7559 629.389 36.0635 629.013 36.0684ZM631.015 36L634.169 29.9062V29.8477H630.526V28.9297H635.282V29.8867L632.138 36H631.015ZM637.987 32.2891C637.021 32.2988 636.493 31.5811 636.503 30.5312C636.493 29.4961 637.045 28.7783 637.987 28.7832C638.959 28.7783 639.467 29.4961 639.472 30.5312C639.467 31.5859 638.939 32.2988 637.987 32.2891ZM637.304 36L642.157 28.9297H643.046L638.192 36H637.304ZM637.304 30.5312C637.309 31.1807 637.533 31.6006 637.987 31.6055C638.446 31.6006 638.661 31.1807 638.661 30.5312C638.661 29.8965 638.461 29.4619 637.987 29.4668C637.533 29.4766 637.309 29.9014 637.304 30.5312ZM640.966 34.3887C640.961 33.3438 641.508 32.626 642.45 32.6309C643.417 32.626 643.93 33.3438 643.935 34.3887C643.93 35.4336 643.402 36.1465 642.45 36.1465C641.488 36.1465 640.961 35.4287 640.966 34.3887ZM641.767 34.3887C641.771 35.0283 641.996 35.4531 642.45 35.4531C642.909 35.4531 643.124 35.0283 643.124 34.3887C643.124 33.7441 642.924 33.3145 642.45 33.3145C642.001 33.3242 641.771 33.749 641.767 34.3887Z" fill="white"/>
<path d="M351.237 30.3066C351.228 31.8545 352.131 33.4414 353.435 34.0762L352.858 34.8184C351.906 34.3203 351.169 33.3438 350.783 32.1768C350.393 33.417 349.626 34.4668 348.63 34.9844L348.054 34.2324C349.396 33.5879 350.305 31.9082 350.31 30.3066V28.8125H351.237V30.3066ZM354.089 36.8301V28.0801H355.017V31.5664H356.423V32.3574H355.017V36.8301H354.089ZM358.171 28.7051V32.0742C359.357 32.0742 360.603 31.9961 361.96 31.7129L362.067 32.4746C360.603 32.7773 359.26 32.8604 357.956 32.8555H357.243V28.7051H358.171ZM358.19 36.6445V33.7832H359.128V35.8926H364.021V36.6445H358.19ZM362.79 34.3984V28.0898H363.718V30.6387H364.987V31.4297H363.718V34.3984H362.79ZM368.698 30.3066C368.688 31.9033 369.655 33.5146 371.013 34.1152L370.456 34.8477C369.45 34.3691 368.654 33.3877 368.244 32.1914C367.839 33.4756 367.033 34.5303 365.983 35.043L365.417 34.2617C366.794 33.6514 367.761 31.9766 367.761 30.3066V28.8125H368.698V30.3066ZM371.804 36.8496V28.0801H372.731V36.8496H371.804ZM379.558 28.9297V36H378.474V30.0039H378.435L376.745 31.1074V30.082L378.503 28.9297H379.558ZM383.864 36.0977C382.399 36.0977 381.359 35.3115 381.315 34.1543H382.409C382.448 34.7744 383.063 35.1699 383.854 35.1699C384.709 35.1699 385.329 34.7061 385.329 34.0176C385.329 33.3193 384.748 32.8213 383.737 32.8164H383.132V31.9375H383.737C384.543 31.9424 385.104 31.4932 385.104 30.8145C385.104 30.1699 384.621 29.7305 383.874 29.7305C383.166 29.7305 382.531 30.126 382.507 30.7656H381.472C381.501 29.6133 382.565 28.832 383.884 28.832C385.275 28.832 386.149 29.7109 386.14 30.7559C386.149 31.5615 385.651 32.1377 384.89 32.3281V32.377C385.856 32.5137 386.418 33.1631 386.413 34.0566C386.418 35.2334 385.329 36.0977 383.864 36.0977ZM388.073 36.0684C387.692 36.0635 387.375 35.7559 387.38 35.375C387.375 34.9941 387.692 34.6816 388.073 34.6816C388.449 34.6816 388.762 34.9941 388.767 35.375C388.762 35.7559 388.449 36.0635 388.073 36.0684ZM389.86 34.623V33.7539L392.985 28.9297H394.313V33.7148H395.28V34.623H394.313V36H393.298V34.623H389.86ZM390.993 33.7148H393.298V30.209H393.22L390.993 33.6562V33.7148ZM397.985 32.2891C397.019 32.2988 396.491 31.5811 396.501 30.5312C396.491 29.4961 397.043 28.7783 397.985 28.7832C398.957 28.7783 399.465 29.4961 399.47 30.5312C399.465 31.5859 398.938 32.2988 397.985 32.2891ZM397.302 36L402.155 28.9297H403.044L398.19 36H397.302ZM397.302 30.5312C397.307 31.1807 397.531 31.6006 397.985 31.6055C398.444 31.6006 398.659 31.1807 398.659 30.5312C398.659 29.8965 398.459 29.4619 397.985 29.4668C397.531 29.4766 397.307 29.9014 397.302 30.5312ZM400.964 34.3887C400.959 33.3438 401.506 32.626 402.448 32.6309C403.415 32.626 403.928 33.3438 403.933 34.3887C403.928 35.4336 403.4 36.1465 402.448 36.1465C401.486 36.1465 400.959 35.4287 400.964 34.3887ZM401.765 34.3887C401.77 35.0283 401.994 35.4531 402.448 35.4531C402.907 35.4531 403.122 35.0283 403.122 34.3887C403.122 33.7441 402.922 33.3145 402.448 33.3145C401.999 33.3242 401.77 33.749 401.765 34.3887Z" fill="white"/>
<path d="M110.996 29.6523C110.996 30.7754 111.831 31.8545 113.184 32.2793L112.705 33.002C111.699 32.6699 110.938 31.9814 110.542 31.1025C110.146 32.0498 109.37 32.8018 108.33 33.168L107.852 32.4551C109.214 31.9814 110.054 30.8389 110.059 29.6523V29.4082H108.096V28.6562H112.92V29.4082H110.996V29.6523ZM109.082 34.5547V33.8027H115.01V36.8301H114.082V34.5547H109.082ZM114.082 33.3633V28.0801H115.01V33.3633H114.082ZM117.725 28.7051V32.0742C118.911 32.0742 120.156 31.9961 121.514 31.7129L121.621 32.4746C120.156 32.7773 118.813 32.8604 117.51 32.8555H116.797V28.7051H117.725ZM117.744 36.6445V33.7832H118.682V35.8926H123.574V36.6445H117.744ZM122.344 34.3984V28.0898H123.271V30.6387H124.541V31.4297H123.271V34.3984H122.344ZM128.252 30.3066C128.242 31.9033 129.209 33.5146 130.566 34.1152L130.01 34.8477C129.004 34.3691 128.208 33.3877 127.798 32.1914C127.393 33.4756 126.587 34.5303 125.537 35.043L124.971 34.2617C126.348 33.6514 127.314 31.9766 127.314 30.3066V28.8125H128.252V30.3066ZM131.357 36.8496V28.0801H132.285V36.8496H131.357ZM138.984 36.0977C137.676 36.0879 136.309 35.3115 136.309 32.6992C136.313 30.2383 137.378 28.832 139.072 28.832C140.376 28.832 141.279 29.6426 141.445 30.7656H140.381C140.239 30.1895 139.785 29.7744 139.072 29.7695C137.979 29.7744 137.344 30.7217 137.344 32.3184H137.422C137.808 31.7178 138.472 31.3662 139.238 31.3613C140.498 31.3662 141.514 32.333 141.514 33.6855C141.514 35.0576 140.503 36.1074 138.984 36.0977ZM137.471 33.7148C137.476 34.501 138.105 35.1943 138.975 35.1992C139.829 35.1943 140.469 34.5303 140.469 33.7051C140.469 32.8945 139.854 32.2354 139.004 32.2402C138.14 32.2354 137.48 32.9287 137.471 33.7148ZM142.9 36L146.055 29.9062V29.8477H142.412V28.9297H147.168V29.8867L144.023 36H142.9ZM147.725 36.0684C147.344 36.0635 147.026 35.7559 147.031 35.375C147.026 34.9941 147.344 34.6816 147.725 34.6816C148.101 34.6816 148.413 34.9941 148.418 35.375C148.413 35.7559 148.101 36.0635 147.725 36.0684ZM152.012 28.832C153.311 28.8418 154.673 29.623 154.678 32.2109C154.678 34.6914 153.608 36.0977 151.914 36.0977C150.61 36.0977 149.702 35.292 149.531 34.1445H150.596C150.742 34.7402 151.201 35.1553 151.914 35.1602C153.003 35.1553 153.643 34.208 153.652 32.5918H153.564C153.184 33.1875 152.52 33.5488 151.758 33.5488C150.488 33.5488 149.473 32.5771 149.473 31.2246C149.473 29.877 150.474 28.8223 152.012 28.832ZM150.518 31.2051C150.522 32.0254 151.133 32.6748 151.992 32.6699C152.847 32.6748 153.506 31.9766 153.506 31.1953C153.506 30.4287 152.876 29.7305 152.012 29.7305C151.157 29.7305 150.513 30.3945 150.518 31.2051ZM157.432 32.2891C156.465 32.2988 155.938 31.5811 155.947 30.5312C155.938 29.4961 156.489 28.7783 157.432 28.7832C158.403 28.7783 158.911 29.4961 158.916 30.5312C158.911 31.5859 158.384 32.2988 157.432 32.2891ZM156.748 36L161.602 28.9297H162.49L157.637 36H156.748ZM156.748 30.5312C156.753 31.1807 156.978 31.6006 157.432 31.6055C157.891 31.6006 158.105 31.1807 158.105 30.5312C158.105 29.8965 157.905 29.4619 157.432 29.4668C156.978 29.4766 156.753 29.9014 156.748 30.5312ZM160.41 34.3887C160.405 33.3438 160.952 32.626 161.895 32.6309C162.861 32.626 163.374 33.3438 163.379 34.3887C163.374 35.4336 162.847 36.1465 161.895 36.1465C160.933 36.1465 160.405 35.4287 160.41 34.3887ZM161.211 34.3887C161.216 35.0283 161.44 35.4531 161.895 35.4531C162.354 35.4531 162.568 35.0283 162.568 34.3887C162.568 33.7441 162.368 33.3145 161.895 33.3145C161.445 33.3242 161.216 33.749 161.211 34.3887Z" fill="#113287"/>
</g>
<path d="M-2429 -670H884V-672H-2429V-670ZM885 -669V1301H887V-669H885ZM884 1302H-2429V1304H884V1302ZM-2430 1301V-669H-2432V1301H-2430ZM-2429 1302C-2429.55 1302 -2430 1301.55 -2430 1301H-2432C-2432 1302.66 -2430.66 1304 -2429 1304V1302ZM885 1301C885 1301.55 884.552 1302 884 1302V1304C885.657 1304 887 1302.66 887 1301H885ZM884 -670C884.552 -670 885 -669.552 885 -669H887C887 -670.657 885.657 -672 884 -672V-670ZM-2429 -672C-2430.66 -672 -2432 -670.657 -2432 -669H-2430C-2430 -669.552 -2429.55 -670 -2429 -670V-672Z" fill="black" fill-opacity="0.1"/>
<defs>
<clipPath id="clip0_1814_2379">
<rect width="744" height="78" fill="white"/>
</clipPath>
</defs>
</svg>
