<svg width="744" height="78" viewBox="0 0 744 78" fill="none" xmlns="http://www.w3.org/2000/svg">
<rect width="744" height="78" fill="#727272"/>
<path d="M-2431 -328C-2431 -329.105 -2430.1 -330 -2429 -330H884C885.104 -330 886 -329.105 886 -328V1642C886 1643.1 885.104 1644 884 1644H-2429C-2430.1 1644 -2431 1643.1 -2431 1642V-328Z" fill="white"/>
<g clip-path="url(#clip0_1814_2379)">
<path d="M2.33981 76.3871C3.8132 76.3871 4.67523 75.1998 4.67963 73.1156C4.67523 71.0444 3.8 69.8439 2.33981 69.8439C0.875237 69.8439 0 71.0444 0 73.1156C0 75.1998 0.86644 76.3871 2.33981 76.3871ZM0.967593 73.1156C0.967593 71.5325 1.48218 70.6662 2.33981 70.6618C3.19305 70.6662 3.71204 71.5325 3.71204 73.1156C3.71204 74.7029 3.19746 75.5516 2.33981 75.5516C1.47778 75.5516 0.9632 74.7029 0.967593 73.1156Z" fill="#113287"/>
<path d="M7.06344 72.8077C7.87269 72.8121 8.52802 72.157 8.52364 71.3479C8.52802 70.5388 7.87269 69.8836 7.06344 69.8792C6.25418 69.8836 5.59885 70.5388 5.60323 71.3479C5.59885 72.157 6.25418 72.8121 7.06344 72.8077ZM6.30695 71.3479C6.31136 70.9301 6.64561 70.5959 7.06344 70.6003C7.48126 70.5959 7.81553 70.9301 7.81112 71.3479C7.81553 71.7611 7.48126 72.0997 7.06344 72.1041C6.64561 72.0997 6.31136 71.7611 6.30695 71.3479Z" fill="#113287"/>
<path d="M12.0069 69.6329H11.1713L9.12177 77.2577H9.95743L12.0069 69.6329Z" fill="#113287"/>
<path d="M15.1121 69.9319H14.1621L12.5787 70.9696V71.8931L14.1004 70.8993H14.1357V76.2991H15.1121V69.9319Z" fill="#113287"/>
<path d="M18.956 76.3871C20.3194 76.3871 21.2914 75.6395 21.2958 74.6018C21.2914 73.7839 20.702 73.1156 19.9587 73.0012V72.966C20.6009 72.8165 21.0451 72.2361 21.0495 71.5413C21.0451 70.5607 20.1567 69.8439 18.956 69.8439C17.7377 69.8439 16.8537 70.5607 16.8537 71.5413C16.8537 72.2361 17.2891 72.8165 17.9445 72.966V73.0012C17.1924 73.1156 16.6074 73.7839 16.6162 74.6018C16.6074 75.6395 17.5706 76.3871 18.956 76.3871ZM17.6014 74.5314C17.5882 73.8762 18.1644 73.3969 18.956 73.3969C19.7389 73.3969 20.3106 73.8762 20.3106 74.5314C20.3106 75.1558 19.7829 75.5868 18.956 75.5868C18.1159 75.5868 17.5882 75.1558 17.6014 74.5314ZM17.7949 71.6292C17.7993 71.0357 18.2567 70.6311 18.956 70.6354C19.6377 70.6311 20.104 71.0357 20.0996 71.6292C20.104 72.2273 19.6202 72.6363 18.956 72.6319C18.2743 72.6363 17.7993 72.2229 17.7949 71.6292Z" fill="#113287"/>
<path d="M24.5153 76.3871C25.9886 76.3871 26.8507 75.1998 26.8551 73.1156C26.8507 71.0444 25.9755 69.8439 24.5153 69.8439C23.0507 69.8439 22.1755 71.0444 22.1755 73.1156C22.1755 75.1998 23.0419 76.3871 24.5153 76.3871ZM23.1431 73.1156C23.1431 71.5325 23.6576 70.6662 24.5153 70.6618C25.3685 70.6662 25.8875 71.5325 25.8875 73.1156C25.8875 74.7029 25.3729 75.5516 24.5153 75.5516C23.6533 75.5516 23.1387 74.7029 23.1431 73.1156Z" fill="#113287"/>
<path d="M29.2389 72.8077C30.0482 72.8121 30.7035 72.157 30.6992 71.3479C30.7035 70.5388 30.0482 69.8836 29.2389 69.8792C28.4297 69.8836 27.7743 70.5388 27.7787 71.3479C27.7743 72.157 28.4297 72.8121 29.2389 72.8077ZM28.4824 71.3479C28.4868 70.9301 28.8211 70.5959 29.2389 70.6003C29.6568 70.5959 29.9911 70.9301 29.9866 71.3479C29.9911 71.7611 29.6568 72.0997 29.2389 72.1041C28.8211 72.0997 28.4868 71.7611 28.4824 71.3479Z" fill="#113287"/>
<path d="M239.605 76.4809C240.924 76.4809 241.905 75.7026 241.901 74.6428C241.905 73.8381 241.399 73.2534 240.529 73.1302V73.0863C241.214 72.9147 241.664 72.3958 241.655 71.6703C241.664 70.7293 240.876 69.9378 239.623 69.9378C238.435 69.9378 237.476 70.6413 237.45 71.6791H238.382C238.404 71.103 238.976 70.7469 239.614 70.7469C240.286 70.7469 240.722 71.1426 240.722 71.7231C240.722 72.3343 240.216 72.7388 239.491 72.7344H238.945V73.5259H239.491C240.401 73.5303 240.924 73.9789 240.924 74.6077C240.924 75.2277 240.365 75.6454 239.596 75.6454C238.883 75.6454 238.33 75.2892 238.295 74.7308H237.309C237.349 75.7729 238.286 76.4809 239.605 76.4809Z" fill="#113287"/>
<path d="M245.181 76.4809C246.656 76.4809 247.517 75.2936 247.521 73.2093C247.517 71.1382 246.642 69.9378 245.181 69.9378C243.717 69.9378 242.841 71.1382 242.841 73.2093C242.841 75.2936 243.708 76.4809 245.181 76.4809ZM243.809 73.2093C243.809 71.6263 244.324 70.7601 245.181 70.7557C246.035 70.7601 246.554 71.6263 246.554 73.2093C246.554 74.7967 246.039 75.6454 245.181 75.6454C244.32 75.6454 243.805 74.7967 243.809 73.2093Z" fill="#113287"/>
<path d="M249.905 72.9015C250.715 72.9059 251.37 72.2507 251.366 71.4416C251.37 70.6325 250.715 69.9773 249.905 69.9729C249.096 69.9773 248.441 70.6325 248.445 71.4416C248.441 72.2507 249.096 72.9059 249.905 72.9015ZM249.149 71.4416C249.154 71.0239 249.488 70.6896 249.905 70.694C250.324 70.6896 250.658 71.0239 250.653 71.4416C250.658 71.855 250.324 72.1936 249.905 72.198C249.488 72.1936 249.154 71.855 249.149 71.4416Z" fill="#113287"/>
<path d="M254.849 69.7267H254.014L251.964 77.3516H252.8L254.849 69.7267Z" fill="#113287"/>
<path d="M257.954 70.0258H257.004L255.421 71.0635V71.9869L256.942 70.9932H256.977V76.393H257.954V70.0258Z" fill="#113287"/>
<path d="M261.736 76.4809C263.065 76.4809 264.006 75.5795 264.006 74.3262C264.006 73.0994 263.122 72.2112 261.921 72.2068C261.438 72.2112 260.988 72.3826 260.725 72.6377H260.663L260.874 70.8524H263.681V70.0258H260.074L259.66 73.57H260.575C260.791 73.1786 261.183 73.0071 261.692 73.0071C262.493 73.0159 263.065 73.5788 263.065 74.3526C263.065 75.109 262.511 75.6674 261.736 75.6719C261.095 75.6674 260.575 75.2716 260.522 74.7308H259.581C259.625 75.7466 260.531 76.4809 261.736 76.4809Z" fill="#113287"/>
<path d="M267.252 76.4809C268.725 76.4809 269.587 75.2936 269.591 73.2093C269.587 71.1382 268.712 69.9378 267.252 69.9378C265.787 69.9378 264.912 71.1382 264.912 73.2093C264.912 75.2936 265.778 76.4809 267.252 76.4809ZM265.879 73.2093C265.879 71.6263 266.394 70.7601 267.252 70.7557C268.105 70.7601 268.624 71.6263 268.624 73.2093C268.624 74.7967 268.109 75.6454 267.252 75.6454C266.39 75.6454 265.875 74.7967 265.879 73.2093Z" fill="#113287"/>
<path d="M271.975 72.9015C272.784 72.9059 273.44 72.2507 273.436 71.4416C273.44 70.6325 272.784 69.9773 271.975 69.9729C271.166 69.9773 270.51 70.6325 270.515 71.4416C270.51 72.2507 271.166 72.9059 271.975 72.9015ZM271.219 71.4416C271.223 71.0239 271.557 70.6896 271.975 70.694C272.393 70.6896 272.727 71.0239 272.723 71.4416C272.727 71.855 272.393 72.1936 271.975 72.198C271.557 72.1936 271.223 71.855 271.219 71.4416Z" fill="#113287"/>
<path d="M480.623 76.3871C481.991 76.3959 482.901 75.4505 482.901 74.2148C482.901 72.9968 481.986 72.1261 480.851 72.1217C480.161 72.1261 479.563 72.4427 479.216 72.9836H479.145C479.145 71.5457 479.717 70.6927 480.702 70.6883C481.345 70.6927 481.753 71.0664 481.881 71.5853H482.84C482.69 70.5739 481.876 69.8439 480.702 69.8439C479.176 69.8439 478.217 71.1104 478.213 73.3266C478.213 75.6791 479.444 76.3783 480.623 76.3871ZM479.26 74.2412C479.268 73.5332 479.863 72.9088 480.64 72.9132C481.406 72.9088 481.96 73.5025 481.96 74.2324C481.96 74.9755 481.384 75.5736 480.614 75.578C479.832 75.5736 479.264 74.9492 479.26 74.2412Z" fill="#113287"/>
<path d="M486.147 76.3871C487.621 76.3871 488.483 75.1998 488.487 73.1156C488.483 71.0444 487.607 69.8439 486.147 69.8439C484.683 69.8439 483.808 71.0444 483.808 73.1156C483.808 75.1998 484.674 76.3871 486.147 76.3871ZM484.775 73.1156C484.775 71.5325 485.289 70.6662 486.147 70.6618C487 70.6662 487.52 71.5325 487.52 73.1156C487.52 74.7029 487.004 75.5516 486.147 75.5516C485.285 75.5516 484.771 74.7029 484.775 73.1156Z" fill="#113287"/>
<path d="M490.871 72.8077C491.68 72.8121 492.336 72.157 492.331 71.3479C492.336 70.5388 491.68 69.8836 490.871 69.8792C490.062 69.8836 489.406 70.5388 489.41 71.3479C489.406 72.157 490.062 72.8121 490.871 72.8077ZM490.114 71.3479C490.119 70.9301 490.453 70.5959 490.871 70.6003C491.289 70.5959 491.623 70.9301 491.618 71.3479C491.623 71.7611 491.289 72.0997 490.871 72.1041C490.453 72.0997 490.119 71.7611 490.114 71.3479Z" fill="#113287"/>
<path d="M495.815 69.6329H494.979L492.929 77.2577H493.765L495.815 69.6329Z" fill="#113287"/>
<path d="M498.919 69.9319H497.969L496.386 70.9696V71.8931L497.907 70.8993H497.943V76.2991H498.919V69.9319Z" fill="#113287"/>
<path d="M500.538 76.2991H504.822V75.4724H501.884V75.4197L503.177 74.1093C504.373 72.9352 504.707 72.368 504.716 71.6557C504.707 70.6223 503.858 69.8439 502.631 69.8439C501.417 69.8439 500.53 70.6135 500.538 71.7787H501.452C501.457 71.1016 501.906 70.653 502.614 70.653C503.283 70.653 503.792 71.0532 503.792 71.682C503.792 72.2405 503.445 72.645 502.745 73.3705L500.538 75.5956V76.2991Z" fill="#113287"/>
<path d="M508.112 76.3871C509.585 76.3871 510.447 75.1998 510.452 73.1156C510.447 71.0444 509.572 69.8439 508.112 69.8439C506.647 69.8439 505.772 71.0444 505.772 73.1156C505.772 75.1998 506.639 76.3871 508.112 76.3871ZM506.74 73.1156C506.74 71.5325 507.254 70.6662 508.112 70.6618C508.965 70.6662 509.484 71.5325 509.484 73.1156C509.484 74.7029 508.97 75.5516 508.112 75.5516C507.249 75.5516 506.735 74.7029 506.74 73.1156Z" fill="#113287"/>
<path d="M512.835 72.8077C513.644 72.8121 514.3 72.157 514.295 71.3479C514.3 70.5388 513.644 69.8836 512.835 69.8792C512.026 69.8836 511.37 70.5388 511.374 71.3479C511.37 72.157 512.026 72.8121 512.835 72.8077ZM512.079 71.3479C512.083 70.9301 512.417 70.5959 512.835 70.6003C513.253 70.5959 513.587 70.9301 513.583 71.3479C513.587 71.7611 513.253 72.0997 512.835 72.1041C512.417 72.0997 512.083 71.7611 512.079 71.3479Z" fill="#113287"/>
<path d="M732.177 69.844C730.792 69.8352 729.89 70.785 729.89 71.9987C729.89 73.2167 730.805 74.0918 731.949 74.0918C732.635 74.0918 733.233 73.7664 733.576 73.2299H733.655C733.646 74.6854 733.07 75.5385 732.089 75.5429C731.448 75.5385 731.033 75.1647 730.902 74.6282H729.943C730.097 75.6616 730.915 76.3872 732.089 76.3872C733.615 76.3872 734.578 75.1207 734.578 72.8869C734.574 70.5564 733.347 69.8529 732.177 69.844ZM730.831 71.9811C730.827 71.2511 731.408 70.6532 732.177 70.6532C732.956 70.6532 733.523 71.2819 733.523 71.9723C733.523 72.6759 732.93 73.3047 732.159 73.3003C731.386 73.3047 730.836 72.7198 730.831 71.9811Z" fill="#113287"/>
<path d="M737.816 76.3872C739.289 76.3872 740.151 75.1999 740.156 73.1156C740.151 71.0445 739.276 69.8441 737.816 69.8441C736.351 69.8441 735.476 71.0445 735.476 73.1156C735.476 75.1999 736.343 76.3872 737.816 76.3872ZM736.444 73.1156C736.444 71.5326 736.958 70.6664 737.816 70.662C738.669 70.6664 739.188 71.5326 739.188 73.1156C739.188 74.703 738.674 75.5517 737.816 75.5517C736.954 75.5517 736.439 74.703 736.444 73.1156Z" fill="#113287"/>
<path d="M742.54 72.8078C743.348 72.8122 744.004 72.157 744 71.3479C744.004 70.5388 743.348 69.8836 742.54 69.8792C741.73 69.8836 741.075 70.5388 741.08 71.3479C741.075 72.157 741.73 72.8122 742.54 72.8078ZM741.783 71.3479C741.787 70.9301 742.121 70.596 742.54 70.6004C742.957 70.596 743.291 70.9301 743.287 71.3479C743.291 71.7612 742.957 72.0998 742.54 72.1042C742.121 72.0998 741.787 71.7612 741.783 71.3479Z" fill="#113287"/>
<path d="M736.965 20.2645H496.767V44.2793H736.965V20.2645Z" fill="#5B6EB4"/>
<path d="M496.767 20.2645H255.569V44.2793H496.767V20.2645Z" fill="#113287"/>
<path d="M255.569 20.2645H15.3715V44.2793H255.569V20.2645Z" fill="#E2E6F6"/>
<path fill-rule="evenodd" clip-rule="evenodd" d="M14.3708 64.2917L14.3707 0.252136H16.3723L16.3724 64.2917H14.3708Z" fill="#113287"/>
<path fill-rule="evenodd" clip-rule="evenodd" d="M735.953 64.2917V0.252136H737.955V64.2917H735.953Z" fill="#113287"/>
<path fill-rule="evenodd" clip-rule="evenodd" d="M255.069 64.0396V0H256.069V64.0396H255.069Z" fill="#979797"/>
<path fill-rule="evenodd" clip-rule="evenodd" d="M496.267 64.0396V0H497.268V64.0396H496.267Z" fill="#979797"/>
<path d="M595.951 32.1133V32.8555H593.305V34.9941H596.869V35.7559H588.861V34.9941H592.387V32.8555H589.857V28.7539H595.873V29.5059H590.785V32.1133H595.951ZM598.832 28.7051V32.0742C600.019 32.0742 601.264 31.9961 602.621 31.7129L602.729 32.4746C601.264 32.7773 599.921 32.8604 598.617 32.8555H597.904V28.7051H598.832ZM598.852 36.6445V33.7832H599.789V35.8926H604.682V36.6445H598.852ZM603.451 34.3984V28.0898H604.379V30.6387H605.648V31.4297H604.379V34.3984H603.451ZM609.359 30.3066C609.35 31.9033 610.316 33.5146 611.674 34.1152L611.117 34.8477C610.111 34.3691 609.315 33.3877 608.905 32.1914C608.5 33.4756 607.694 34.5303 606.645 35.043L606.078 34.2617C607.455 33.6514 608.422 31.9766 608.422 30.3066V28.8125H609.359V30.3066ZM612.465 36.8496V28.0801H613.393V36.8496H612.465ZM620.219 28.9297V36H619.135V30.0039H619.096L617.406 31.1074V30.082L619.164 28.9297H620.219ZM621.859 34.623V33.7539L624.984 28.9297H626.312V33.7148H627.279V34.623H626.312V36H625.297V34.623H621.859ZM622.992 33.7148H625.297V30.209H625.219L622.992 33.6562V33.7148ZM628.793 36.0684C628.412 36.0635 628.095 35.7559 628.1 35.375C628.095 34.9941 628.412 34.6816 628.793 34.6816C629.169 34.6816 629.481 34.9941 629.486 35.375C629.481 35.7559 629.169 36.0635 628.793 36.0684ZM633.031 36.0977C631.723 36.0879 630.355 35.3115 630.355 32.6992C630.36 30.2383 631.425 28.832 633.119 28.832C634.423 28.832 635.326 29.6426 635.492 30.7656H634.428C634.286 30.1895 633.832 29.7744 633.119 29.7695C632.025 29.7744 631.391 30.7217 631.391 32.3184H631.469C631.854 31.7178 632.519 31.3662 633.285 31.3613C634.545 31.3662 635.561 32.333 635.561 33.6855C635.561 35.0576 634.55 36.1074 633.031 36.0977ZM631.518 33.7148C631.522 34.501 632.152 35.1943 633.021 35.1992C633.876 35.1943 634.516 34.5303 634.516 33.7051C634.516 32.8945 633.9 32.2354 633.051 32.2402C632.187 32.2354 631.527 32.9287 631.518 33.7148ZM638.324 32.2891C637.357 32.2988 636.83 31.5811 636.84 30.5312C636.83 29.4961 637.382 28.7783 638.324 28.7832C639.296 28.7783 639.804 29.4961 639.809 30.5312C639.804 31.5859 639.276 32.2988 638.324 32.2891ZM637.641 36L642.494 28.9297H643.383L638.529 36H637.641ZM637.641 30.5312C637.646 31.1807 637.87 31.6006 638.324 31.6055C638.783 31.6006 638.998 31.1807 638.998 30.5312C638.998 29.8965 638.798 29.4619 638.324 29.4668C637.87 29.4766 637.646 29.9014 637.641 30.5312ZM641.303 34.3887C641.298 33.3438 641.845 32.626 642.787 32.6309C643.754 32.626 644.267 33.3438 644.271 34.3887C644.267 35.4336 643.739 36.1465 642.787 36.1465C641.825 36.1465 641.298 35.4287 641.303 34.3887ZM642.104 34.3887C642.108 35.0283 642.333 35.4531 642.787 35.4531C643.246 35.4531 643.461 35.0283 643.461 34.3887C643.461 33.7441 643.261 33.3145 642.787 33.3145C642.338 33.3242 642.108 33.749 642.104 34.3887Z" fill="white"/>
<path d="M351.418 30.3066C351.408 31.8545 352.312 33.4414 353.615 34.0762L353.039 34.8184C352.087 34.3203 351.35 33.3438 350.964 32.1768C350.573 33.417 349.807 34.4668 348.811 34.9844L348.234 34.2324C349.577 33.5879 350.485 31.9082 350.49 30.3066V28.8125H351.418V30.3066ZM354.27 36.8301V28.0801H355.197V31.5664H356.604V32.3574H355.197V36.8301H354.27ZM358.352 28.7051V32.0742C359.538 32.0742 360.783 31.9961 362.141 31.7129L362.248 32.4746C360.783 32.7773 359.44 32.8604 358.137 32.8555H357.424V28.7051H358.352ZM358.371 36.6445V33.7832H359.309V35.8926H364.201V36.6445H358.371ZM362.971 34.3984V28.0898H363.898V30.6387H365.168V31.4297H363.898V34.3984H362.971ZM368.879 30.3066C368.869 31.9033 369.836 33.5146 371.193 34.1152L370.637 34.8477C369.631 34.3691 368.835 33.3877 368.425 32.1914C368.02 33.4756 367.214 34.5303 366.164 35.043L365.598 34.2617C366.975 33.6514 367.941 31.9766 367.941 30.3066V28.8125H368.879V30.3066ZM371.984 36.8496V28.0801H372.912V36.8496H371.984ZM379.738 28.9297V36H378.654V30.0039H378.615L376.926 31.1074V30.082L378.684 28.9297H379.738ZM384.045 36.0977C382.58 36.0977 381.54 35.3115 381.496 34.1543H382.59C382.629 34.7744 383.244 35.1699 384.035 35.1699C384.89 35.1699 385.51 34.7061 385.51 34.0176C385.51 33.3193 384.929 32.8213 383.918 32.8164H383.312V31.9375H383.918C384.724 31.9424 385.285 31.4932 385.285 30.8145C385.285 30.1699 384.802 29.7305 384.055 29.7305C383.347 29.7305 382.712 30.126 382.688 30.7656H381.652C381.682 29.6133 382.746 28.832 384.064 28.832C385.456 28.832 386.33 29.7109 386.32 30.7559C386.33 31.5615 385.832 32.1377 385.07 32.3281V32.377C386.037 32.5137 386.599 33.1631 386.594 34.0566C386.599 35.2334 385.51 36.0977 384.045 36.0977ZM388.254 36.0684C387.873 36.0635 387.556 35.7559 387.561 35.375C387.556 34.9941 387.873 34.6816 388.254 34.6816C388.63 34.6816 388.942 34.9941 388.947 35.375C388.942 35.7559 388.63 36.0635 388.254 36.0684ZM392.453 36.0977C390.988 36.0977 389.948 35.3115 389.904 34.1543H390.998C391.037 34.7744 391.652 35.1699 392.443 35.1699C393.298 35.1699 393.918 34.7061 393.918 34.0176C393.918 33.3193 393.337 32.8213 392.326 32.8164H391.721V31.9375H392.326C393.132 31.9424 393.693 31.4932 393.693 30.8145C393.693 30.1699 393.21 29.7305 392.463 29.7305C391.755 29.7305 391.12 30.126 391.096 30.7656H390.061C390.09 29.6133 391.154 28.832 392.473 28.832C393.864 28.832 394.738 29.7109 394.729 30.7559C394.738 31.5615 394.24 32.1377 393.479 32.3281V32.377C394.445 32.5137 395.007 33.1631 395.002 34.0566C395.007 35.2334 393.918 36.0977 392.453 36.0977ZM397.805 32.2891C396.838 32.2988 396.311 31.5811 396.32 30.5312C396.311 29.4961 396.862 28.7783 397.805 28.7832C398.776 28.7783 399.284 29.4961 399.289 30.5312C399.284 31.5859 398.757 32.2988 397.805 32.2891ZM397.121 36L401.975 28.9297H402.863L398.01 36H397.121ZM397.121 30.5312C397.126 31.1807 397.351 31.6006 397.805 31.6055C398.264 31.6006 398.479 31.1807 398.479 30.5312C398.479 29.8965 398.278 29.4619 397.805 29.4668C397.351 29.4766 397.126 29.9014 397.121 30.5312ZM400.783 34.3887C400.778 33.3438 401.325 32.626 402.268 32.6309C403.234 32.626 403.747 33.3438 403.752 34.3887C403.747 35.4336 403.22 36.1465 402.268 36.1465C401.306 36.1465 400.778 35.4287 400.783 34.3887ZM401.584 34.3887C401.589 35.0283 401.813 35.4531 402.268 35.4531C402.727 35.4531 402.941 35.0283 402.941 34.3887C402.941 33.7441 402.741 33.3145 402.268 33.3145C401.818 33.3242 401.589 33.749 401.584 34.3887Z" fill="white"/>
<path d="M111.787 29.6523C111.787 30.7754 112.622 31.8545 113.975 32.2793L113.496 33.002C112.49 32.6699 111.729 31.9814 111.333 31.1025C110.938 32.0498 110.161 32.8018 109.121 33.168L108.643 32.4551C110.005 31.9814 110.845 30.8389 110.85 29.6523V29.4082H108.887V28.6562H113.711V29.4082H111.787V29.6523ZM109.873 34.5547V33.8027H115.801V36.8301H114.873V34.5547H109.873ZM114.873 33.3633V28.0801H115.801V33.3633H114.873ZM118.516 28.7051V32.0742C119.702 32.0742 120.947 31.9961 122.305 31.7129L122.412 32.4746C120.947 32.7773 119.604 32.8604 118.301 32.8555H117.588V28.7051H118.516ZM118.535 36.6445V33.7832H119.473V35.8926H124.365V36.6445H118.535ZM123.135 34.3984V28.0898H124.062V30.6387H125.332V31.4297H124.062V34.3984H123.135ZM129.043 30.3066C129.033 31.9033 130 33.5146 131.357 34.1152L130.801 34.8477C129.795 34.3691 128.999 33.3877 128.589 32.1914C128.184 33.4756 127.378 34.5303 126.328 35.043L125.762 34.2617C127.139 33.6514 128.105 31.9766 128.105 30.3066V28.8125H129.043V30.3066ZM132.148 36.8496V28.0801H133.076V36.8496H132.148ZM137.461 36L140.615 29.9062V29.8477H136.973V28.9297H141.729V29.8867L138.584 36H137.461ZM142.812 36V35.2188L145.264 32.748C146.04 31.9424 146.426 31.4932 146.426 30.873C146.426 30.1748 145.859 29.7305 145.117 29.7305C144.331 29.7305 143.833 30.2285 143.828 30.9805H142.812C142.803 29.6865 143.789 28.832 145.137 28.832C146.499 28.832 147.441 29.6963 147.451 30.8438C147.441 31.6348 147.07 32.2646 145.742 33.5684L144.307 35.0234V35.082H147.568V36H142.812ZM149.453 36.0684C149.072 36.0635 148.755 35.7559 148.76 35.375C148.755 34.9941 149.072 34.6816 149.453 34.6816C149.829 34.6816 150.142 34.9941 150.146 35.375C150.142 35.7559 149.829 36.0635 149.453 36.0684ZM153.223 28.9297V36H152.139V30.0039H152.1L150.41 31.1074V30.082L152.168 28.9297H153.223ZM156.641 32.2891C155.674 32.2988 155.146 31.5811 155.156 30.5312C155.146 29.4961 155.698 28.7783 156.641 28.7832C157.612 28.7783 158.12 29.4961 158.125 30.5312C158.12 31.5859 157.593 32.2988 156.641 32.2891ZM155.957 36L160.811 28.9297H161.699L156.846 36H155.957ZM155.957 30.5312C155.962 31.1807 156.187 31.6006 156.641 31.6055C157.1 31.6006 157.314 31.1807 157.314 30.5312C157.314 29.8965 157.114 29.4619 156.641 29.4668C156.187 29.4766 155.962 29.9014 155.957 30.5312ZM159.619 34.3887C159.614 33.3438 160.161 32.626 161.104 32.6309C162.07 32.626 162.583 33.3438 162.588 34.3887C162.583 35.4336 162.056 36.1465 161.104 36.1465C160.142 36.1465 159.614 35.4287 159.619 34.3887ZM160.42 34.3887C160.425 35.0283 160.649 35.4531 161.104 35.4531C161.562 35.4531 161.777 35.0283 161.777 34.3887C161.777 33.7441 161.577 33.3145 161.104 33.3145C160.654 33.3242 160.425 33.749 160.42 34.3887Z" fill="#113287"/>
</g>
<path d="M-2429 -329H884V-331H-2429V-329ZM885 -328V1642H887V-328H885ZM884 1643H-2429V1645H884V1643ZM-2430 1642V-328H-2432V1642H-2430ZM-2429 1643C-2429.55 1643 -2430 1642.55 -2430 1642H-2432C-2432 1643.66 -2430.66 1645 -2429 1645V1643ZM885 1642C885 1642.55 884.552 1643 884 1643V1645C885.657 1645 887 1643.66 887 1642H885ZM884 -329C884.552 -329 885 -328.552 885 -328H887C887 -329.657 885.657 -331 884 -331V-329ZM-2429 -331C-2430.66 -331 -2432 -329.657 -2432 -328H-2430C-2430 -328.552 -2429.55 -329 -2429 -329V-331Z" fill="black" fill-opacity="0.1"/>
<defs>
<clipPath id="clip0_1814_2379">
<rect width="744" height="78" fill="white"/>
</clipPath>
</defs>
</svg>
