<?xml version="1.0" encoding="UTF-8"?>
<svg width="744px" height="78px" viewBox="0 0 744 78" version="1.1" xmlns="http://www.w3.org/2000/svg" xmlns:xlink="http://www.w3.org/1999/xlink">
    <title>astigmatismAxis</title>
    <g id="astigmatismAxis" stroke="none" stroke-width="1" fill="none" fill-rule="evenodd">
        <g id="AGE_70_79" transform="translate(0.000000, 0.000000)">
            <path d="M2.33981271,76.3870766 C3.81319534,76.3870766 4.67523481,75.1998421 4.67962843,73.1155528 C4.67523481,71.0444717 3.80000448,69.8440291 2.33981271,69.8440291 C0.875237338,69.8440291 0,71.0444717 0,73.1155528 C0,75.1998421 0.866440097,76.3870766 2.33981271,76.3870766 Z M0.967593348,73.1155528 C0.967593348,71.5325736 1.48217686,70.6662377 2.33981271,70.661835 C3.19305495,70.6662377 3.71204208,71.5325736 3.71204208,73.1155528 C3.71204208,74.7029348 3.19745857,75.5516598 2.33981271,75.5516598 C1.47778324,75.5516598 0.963199732,74.7029348 0.967593348,73.1155528 Z" id="Shape" fill="#113287" fill-rule="nonzero"></path>
            <path d="M7.06343034,72.8077845 C7.87268638,72.8121651 8.52801573,72.1569598 8.52363417,71.3478593 C8.52801573,70.5387588 7.87268638,69.8835535 7.06343034,69.8791508 C6.25417431,69.8835535 5.59884496,70.5387588 5.60322652,71.3478593 C5.59884496,72.1569598 6.25417431,72.8121651 7.06343034,72.8077845 Z M6.30694774,71.3478593 C6.31135137,70.9301009 6.64560647,70.5958942 7.06343034,70.6002969 C7.48125422,70.5958942 7.81551933,70.9301009 7.8111157,71.3478593 C7.81551933,71.761215 7.48125422,72.0998245 7.06343034,72.1041272 C6.64560647,72.0998245 6.31135137,71.761215 6.30694774,71.3478593 Z" id="Shape" fill="#113287" fill-rule="nonzero"></path>
            <polygon id="Path" fill="#113287" fill-rule="nonzero" points="12.0069189 69.6328985 11.1713312 69.6328985 9.12176439 77.2577151 9.95743216 77.2577151"></polygon>
            <polygon id="Path" fill="#113287" fill-rule="nonzero" points="15.1120745 69.9318834 14.1620927 69.9318834 12.5786895 70.9697254 12.5786895 71.8930966 14.1004419 70.8992818 14.1356709 70.8992818 14.1356709 76.2991221 15.1120745 76.2991221"></polygon>
            <path d="M18.9560382,76.3870766 C20.3194603,76.3870766 21.2914603,75.6395141 21.2958639,74.6017722 C21.2914603,73.7839663 20.7020752,73.1155528 19.9587635,73.0011821 L19.9587635,72.9660603 C20.6008919,72.8165679 21.0451576,72.2361088 21.0495612,71.541279 C21.0451576,70.5607724 20.1567264,69.8440291 18.9560382,69.8440291 C17.7377355,69.8440291 16.8537079,70.5607724 16.8537079,71.541279 C16.8537079,72.2361088 17.2891663,72.8165679 17.9445057,72.9660603 L17.9445057,73.0011821 C17.1923867,73.1155528 16.6074052,73.7839663 16.6162125,74.6017722 C16.6074052,75.6395141 17.5705979,76.3870766 18.9560382,76.3870766 Z M17.6014233,74.5314287 C17.5882124,73.8762234 18.1643866,73.3969269 18.9560382,73.3969269 C19.7388825,73.3969269 20.3106531,73.8762234 20.3106531,74.5314287 C20.3106531,75.155915 19.7829187,75.5867815 18.9560382,75.5867815 C18.1159468,75.5867815 17.5882124,75.155915 17.6014233,74.5314287 Z M17.7948825,71.6292334 C17.7992862,71.0356662 18.2567627,70.631116 18.9560382,70.6355187 C19.6376992,70.631116 20.103983,71.0356662 20.0995794,71.6292334 C20.103983,72.2273033 19.6201848,72.6362563 18.9560382,72.6318536 C18.2742771,72.6362563 17.7992862,72.2229006 17.7948825,71.6292334 Z" id="Shape" fill="#113287" fill-rule="nonzero"></path>
            <path d="M24.5153136,76.3870766 C25.9886262,76.3870766 26.8507357,75.1998421 26.8551393,73.1155528 C26.8507357,71.0444717 25.9755154,69.8440291 24.5153136,69.8440291 C23.0507082,69.8440291 22.1754879,71.0444717 22.1754879,73.1155528 C22.1754879,75.1998421 23.0419009,76.3870766 24.5153136,76.3870766 Z M23.1430842,73.1155528 C23.1430842,71.5325736 23.6576077,70.6662377 24.5153136,70.661835 C25.3685158,70.6662377 25.887543,71.5325736 25.887543,73.1155528 C25.887543,74.7029348 25.3729194,75.5516598 24.5153136,75.5516598 C23.6533041,75.5516598 23.1386806,74.7029348 23.1430842,73.1155528 Z" id="Shape" fill="#113287" fill-rule="nonzero"></path>
            <path d="M29.2389012,72.8077845 C30.0481672,72.8121651 30.7035066,72.1569598 30.699125,71.3478593 C30.7035066,70.5387588 30.0481672,69.8835535 29.2389012,69.8791508 C28.4296352,69.8835535 27.7742958,70.5387588 27.7786774,71.3478593 C27.7742958,72.1569598 28.4296352,72.8121651 29.2389012,72.8077845 Z M28.4823786,71.3478593 C28.4867822,70.9301009 28.8210573,70.5958942 29.2389012,70.6002969 C29.6567451,70.5958942 29.9910202,70.9301009 29.9866166,71.3478593 C29.9910202,71.761215 29.6567451,72.0998245 29.2389012,72.1041272 C28.8210573,72.0998245 28.4867822,71.761215 28.4823786,71.3478593 Z" id="Shape" fill="#113287" fill-rule="nonzero"></path>
            <path d="M239.604837,76.4809346 C240.923922,76.4809346 241.904729,75.7025531 241.90075,74.6428976 C241.904729,73.8381998 241.399313,73.253338 240.528597,73.1301618 L240.528597,73.0862347 C241.214161,72.9147286 241.663531,72.3959076 241.654523,71.6703588 C241.663531,70.7292767 240.875883,69.9377871 239.622851,69.9377871 C238.434874,69.9377871 237.476085,70.6413223 237.450063,71.6790642 L238.38183,71.6790642 C238.403848,71.1031079 238.976319,70.7468876 239.613844,70.7468876 C240.286397,70.7468876 240.721756,71.1426324 240.721756,71.7230914 C240.721756,72.3342695 240.21634,72.7388198 239.490743,72.734417 L238.945294,72.734417 L238.945294,73.5259067 L239.490743,73.5259067 C240.400491,73.5303094 240.923922,73.9788869 240.923922,74.6076758 C240.923922,75.2276593 240.365463,75.6454178 239.595829,75.6454178 C238.883243,75.6454178 238.329787,75.2892975 238.294758,74.730752 L237.308947,74.730752 C237.34898,75.7729967 238.285751,76.4809346 239.604837,76.4809346 Z" id="Path" fill="#113287" fill-rule="nonzero"></path>
            <path d="M245.181426,76.4809346 C246.655639,76.4809346 247.517349,75.2936001 247.521352,73.2093108 C247.517349,71.1382297 246.641628,69.9377871 245.181426,69.9377871 C243.717221,69.9377871 242.8415,71.1382297 242.8415,73.2093108 C242.8415,75.2936001 243.708214,76.4809346 245.181426,76.4809346 Z M243.809274,73.2093108 C243.809274,71.6263316 244.32372,70.7600957 245.181426,70.755693 C246.035129,70.7600957 246.553555,71.6263316 246.553555,73.2093108 C246.553555,74.7967928 246.039132,75.6454178 245.181426,75.6454178 C244.319717,75.6454178 243.805294,74.7967928 243.809274,73.2093108 Z" id="Shape" fill="#113287" fill-rule="nonzero"></path>
            <path d="M249.905314,72.9015425 C250.71498,72.9059231 251.369519,72.2507178 251.365534,71.4416173 C251.369519,70.6325168 250.71498,69.9774116 249.905314,69.9730089 C249.095648,69.9774116 248.441109,70.6325168 248.445094,71.4416173 C248.441109,72.2507178 249.095648,72.9059231 249.905314,72.9015425 Z M249.148691,71.4416173 C249.153695,71.023959 249.487971,70.6897522 249.905314,70.694155 C250.323658,70.6897522 250.657933,71.023959 250.652929,71.4416173 C250.657933,71.854973 250.323658,72.1935825 249.905314,72.1979852 C249.487971,72.1935825 249.153695,71.854973 249.148691,71.4416173 Z" id="Shape" fill="#113287" fill-rule="nonzero"></path>
            <polygon id="Path" fill="#113287" fill-rule="nonzero" points="254.849383 69.7267565 254.013695 69.7267565 251.964008 77.3515732 252.799696 77.3515732"></polygon>
            <polygon id="Path" fill="#113287" fill-rule="nonzero" points="257.953938 70.0257415 257.004157 70.0257415 255.420853 71.0634834 255.420853 71.9869547 256.942105 70.9931399 256.977134 70.9931399 256.977134 76.3929802 257.953938 76.3929802"></polygon>
            <path d="M261.736051,76.4809346 C263.065145,76.4809346 264.005919,75.579477 264.005919,74.3262017 C264.005919,73.0994428 263.122192,72.2111934 261.921203,72.2067907 C261.437805,72.2111934 260.988436,72.3826995 260.725219,72.6376572 L260.663168,72.6376572 L260.874342,70.8524529 L263.680651,70.8524529 L263.680651,70.0257415 L260.073683,70.0257415 L259.660343,73.5699339 L260.575095,73.5699339 C260.791273,73.1785918 261.182595,73.0070857 261.692015,73.0070857 C262.492674,73.0158912 263.065145,73.5787393 263.065145,74.3526181 C263.065145,75.1089859 262.510688,75.6674314 261.736051,75.6718341 C261.094523,75.6674314 260.575095,75.2716866 260.522052,74.730752 L259.581278,74.730752 C259.625314,75.7465803 260.531059,76.4809346 261.736051,76.4809346 Z" id="Path" fill="#113287" fill-rule="nonzero"></path>
            <path d="M267.25159,76.4809346 C268.724803,76.4809346 269.587513,75.2936001 269.591516,73.2093108 C269.587513,71.1382297 268.711792,69.9377871 267.25159,69.9377871 C265.787385,69.9377871 264.911665,71.1382297 264.911665,73.2093108 C264.911665,75.2936001 265.778378,76.4809346 267.25159,76.4809346 Z M265.879438,73.2093108 C265.879438,71.6263316 266.393884,70.7600957 267.25159,70.755693 C268.105293,70.7600957 268.62372,71.6263316 268.62372,73.2093108 C268.62372,74.7967928 268.109296,75.6454178 267.25159,75.6454178 C266.389881,75.6454178 265.875458,74.7967928 265.879438,73.2093108 Z" id="Shape" fill="#113287" fill-rule="nonzero"></path>
            <path d="M271.975478,72.9015425 C272.784144,72.9059231 273.439683,72.2507178 273.435698,71.4416173 C273.439683,70.6325168 272.784144,69.9774116 271.975478,69.9730089 C271.165812,69.9774116 270.510272,70.6325168 270.515248,71.4416173 C270.510272,72.2507178 271.165812,72.9059231 271.975478,72.9015425 Z M271.218855,71.4416173 C271.222859,71.023959 271.557134,70.6897522 271.975478,70.694155 C272.392822,70.6897522 272.727097,71.023959 272.723094,71.4416173 C272.727097,71.854973 272.392822,72.1935825 271.975478,72.1979852 C271.557134,72.1935825 271.222859,71.854973 271.218855,71.4416173 Z" id="Shape" fill="#113287" fill-rule="nonzero"></path>
            <path d="M480.623199,76.3871376 C481.991325,76.395882 482.901074,75.4504972 482.901074,74.2148328 C482.901074,72.9967793 481.986321,72.1261408 480.851387,72.121738 C480.160819,72.1261408 479.563327,72.4427366 479.216041,72.9836712 L479.144983,72.9836712 C479.144983,71.5456817 479.717454,70.692654 480.702264,70.6882513 C481.344793,70.692654 481.753129,71.0663852 481.881235,71.5853062 L482.840024,71.5853062 C482.6899,70.5738806 481.876231,69.8440291 480.702264,69.8440291 C479.176008,69.8440291 478.217219,71.1104124 478.213216,73.3265834 C478.213216,75.6791386 479.444229,76.3782711 480.623199,76.3871376 Z M479.260078,74.2412492 C479.268084,73.5333112 479.862573,72.9088249 480.640213,72.9132033 C481.405844,72.9088249 481.9603,73.5024922 481.9603,74.2324437 C481.9603,74.9756034 481.383825,75.5735733 480.614192,75.5779761 C479.831548,75.5735733 479.264081,74.9491871 479.260078,74.2412492 Z" id="Shape" fill="#113287" fill-rule="nonzero"></path>
            <path d="M486.146745,76.3870766 C487.620959,76.3870766 488.482668,75.1998421 488.486671,73.1155528 C488.482668,71.0444717 487.606947,69.8440291 486.146745,69.8440291 C484.68254,69.8440291 483.80782,71.0444717 483.80782,73.1155528 C483.80782,75.1998421 484.673533,76.3870766 486.146745,76.3870766 Z M484.774593,73.1155528 C484.774593,71.5325736 485.289039,70.6662377 486.146745,70.661835 C487.000448,70.6662377 487.519876,71.5325736 487.519876,73.1155528 C487.519876,74.7029348 487.004451,75.5516598 486.146745,75.5516598 C485.285036,75.5516598 484.770613,74.7029348 484.774593,73.1155528 Z" id="Shape" fill="#113287" fill-rule="nonzero"></path>
            <path d="M490.870633,72.8077845 C491.6803,72.8121651 492.335839,72.1569598 492.330863,71.3478593 C492.335839,70.5387588 491.6803,69.8835535 490.870633,69.8791508 C490.061968,69.8835535 489.406428,70.5387588 489.410413,71.3478593 C489.406428,72.1569598 490.061968,72.8121651 490.870633,72.8077845 Z M490.114011,71.3478593 C490.119015,70.9301009 490.45329,70.5958942 490.870633,70.6002969 C491.288978,70.5958942 491.623253,70.9301009 491.618249,71.3478593 C491.623253,71.761215 491.288978,72.0998245 490.870633,72.1041272 C490.45329,72.0998245 490.119015,71.761215 490.114011,71.3478593 Z" id="Shape" fill="#113287" fill-rule="nonzero"></path>
            <polygon id="Path" fill="#113287" fill-rule="nonzero" points="495.814702 69.6328985 494.979015 69.6328985 492.929328 77.2577151 493.765015 77.2577151"></polygon>
            <polygon id="Path" fill="#113287" fill-rule="nonzero" points="498.919257 69.9318834 497.969476 69.9318834 496.386173 70.9697254 496.386173 71.8930966 497.907425 70.8992818 497.943454 70.8992818 497.943454 76.2991221 498.919257 76.2991221"></polygon>
            <path d="M500.537589,76.2991221 L504.822116,76.2991221 L504.822116,75.4725108 L501.883697,75.4725108 L501.883697,75.4196781 L503.176761,74.1093676 C504.372746,72.9352413 504.707021,72.3679904 504.716028,71.6556497 C504.707021,70.6223105 503.858322,69.8440291 502.631313,69.8440291 C501.417313,69.8440291 500.529583,70.6135051 500.537589,71.7788259 L501.452342,71.7788259 C501.457346,71.101607 501.905715,70.6531296 502.614299,70.6531296 C503.282849,70.6531296 503.792268,71.0532771 503.792268,71.6820661 C503.792268,72.2405115 503.444982,72.6450618 502.745406,73.3706106 L500.537589,75.5955869 L500.537589,76.2991221 Z" id="Path" fill="#113287" fill-rule="nonzero"></path>
            <path d="M508.111823,76.3870766 C509.585036,76.3870766 510.446745,75.1998421 510.451749,73.1155528 C510.446745,71.0444717 509.572025,69.8440291 508.111823,69.8440291 C506.646617,69.8440291 505.771897,71.0444717 505.771897,73.1155528 C505.771897,75.1998421 506.638611,76.3870766 508.111823,76.3870766 Z M506.739694,73.1155528 C506.739694,71.5325736 507.254117,70.6662377 508.111823,70.661835 C508.964525,70.6662377 509.483952,71.5325736 509.483952,73.1155528 C509.483952,74.7029348 508.969529,75.5516598 508.111823,75.5516598 C507.249113,75.5516598 506.73469,74.7029348 506.739694,73.1155528 Z" id="Shape" fill="#113287" fill-rule="nonzero"></path>
            <path d="M512.83471,72.8077845 C513.644376,72.8121651 514.299916,72.1569598 514.29494,71.3478593 C514.299916,70.5387588 513.644376,69.8835535 512.83471,69.8791508 C512.026045,69.8835535 511.370505,70.5387588 511.37449,71.3478593 C511.370505,72.1569598 512.026045,72.8121651 512.83471,72.8077845 Z M512.079088,71.3478593 C512.083092,70.9301009 512.417367,70.5958942 512.83471,70.6002969 C513.253054,70.5958942 513.58733,70.9301009 513.583326,71.3478593 C513.58733,71.761215 513.253054,72.0998245 512.83471,72.1041272 C512.417367,72.0998245 512.083092,71.761215 512.079088,71.3478593 Z" id="Shape" fill="#113287" fill-rule="nonzero"></path>
            <path d="M732.177233,69.8439683 C730.792093,69.8352236 729.890351,70.7850112 729.890351,71.9986619 C729.890351,73.2167154 730.805104,74.0917567 731.949046,74.0917567 C732.63461,74.0917567 733.233102,73.7663554 733.576385,73.2299236 L733.65545,73.2299236 C733.646443,74.6854239 733.069968,75.5384516 732.089161,75.5428543 C731.447633,75.5384516 731.033292,75.1647204 730.902184,74.6282886 L729.943395,74.6282886 C730.096521,75.6616278 730.915195,76.3871766 732.089161,76.3871766 C733.615417,76.3871766 734.578209,75.1207932 734.578209,72.8869114 C734.574206,70.5563697 733.347196,69.8528345 732.177233,69.8439683 Z M730.831105,71.9811511 C730.827122,71.2511995 731.4076,70.6531296 732.177233,70.6531296 C732.955874,70.6531296 733.523341,71.2819185 733.523341,71.9723456 C733.523341,72.6758808 732.929853,73.3046698 732.159219,73.3002918 C731.385582,73.3046698 730.83613,72.719808 730.831105,71.9811511 Z" id="Shape" fill="#113287" fill-rule="nonzero"></path>
            <path d="M737.815874,76.3871766 C739.289087,76.3871766 740.150796,75.1999422 740.1558,73.1155528 C740.150796,71.0444717 739.276076,69.8440291 737.815874,69.8440291 C736.350668,69.8440291 735.475948,71.0444717 735.475948,73.1155528 C735.475948,75.1999422 736.342662,76.3871766 737.815874,76.3871766 Z M736.443745,73.1155528 C736.443745,71.5325736 736.958168,70.6663377 737.815874,70.661935 C738.668576,70.6663377 739.188003,71.5325736 739.188003,73.1155528 C739.188003,74.7030348 738.67358,75.5516598 737.815874,75.5516598 C736.954165,75.5516598 736.438741,74.7030348 736.443745,73.1155528 Z" id="Shape" fill="#113287" fill-rule="nonzero"></path>
            <path d="M742.539762,72.8077845 C743.348427,72.8121651 744.003967,72.1569598 743.999982,71.3478593 C744.003967,70.5388589 743.348427,69.8836536 742.539762,69.8792509 C741.730096,69.8836536 741.074556,70.5388589 741.079532,71.3478593 C741.074556,72.1569598 741.730096,72.8121651 742.539762,72.8077845 Z M741.783139,71.3478593 C741.787142,70.930201 742.121418,70.5959942 742.539762,70.600397 C742.957105,70.5959942 743.291381,70.930201 743.287377,71.3478593 C743.291381,71.761215 742.957105,72.0998245 742.539762,72.1042272 C742.121418,72.0998245 741.787142,71.761215 741.783139,71.3478593 Z" id="Shape" fill="#113287" fill-rule="nonzero"></path>
            <rect id="Rectangle" fill="#5B6EB4" fill-rule="nonzero" x="496.767486" y="20.2644595" width="240.197687" height="24.0148554"></rect>
            <polygon id="Path" fill="#FFFFFF" fill-rule="nonzero" points="596.532595 31.9201696 591.36234 31.9201696 591.36234 29.3110556 596.454531 29.3110556 596.454531 28.5586902 590.433576 28.5586902 590.433576 32.662829 592.964659 32.662829 592.964659 34.8027528 589.436755 34.8027528 589.436755 35.5649242 597.451351 35.5649242 597.451351 34.8027528 593.883415 34.8027528 593.883415 32.662829 596.532595 32.662829"></polygon>
            <path d="M599.415968,28.50986 L598.487204,28.50986 L598.487204,32.662829 L599.200791,32.662829 C600.505865,32.667632 601.848971,32.5845806 603.315177,32.2816932 L603.208089,31.5195218 C601.848971,31.8028971 600.602945,31.8810454 599.415968,31.8810454 L599.415968,28.50986 Z M599.434984,36.4541743 L605.269786,36.4541743 L605.269786,35.7018089 L600.373756,35.7018089 L600.373756,33.5911032 L599.434984,33.5911032 L599.434984,36.4541743 Z M604.038773,34.206684 L604.967537,34.206684 L604.967537,31.2361465 L606.237583,31.2361465 L606.237583,30.4446569 L604.967537,30.4446569 L604.967537,27.8941792 L604.038773,27.8941792 L604.038773,34.206684 Z" id="Shape" fill="#FFFFFF" fill-rule="nonzero"></path>
            <path d="M609.951639,30.1123513 L609.951639,28.6173265 L609.013867,28.6173265 L609.013867,30.1123513 C609.013867,31.7832849 608.046071,33.4592217 606.667937,34.0698994 L607.234403,34.851683 C608.285268,34.3386657 609.091932,33.2833128 609.497265,31.998318 C609.907603,33.1953584 610.704259,34.1773659 611.711087,34.6561621 L612.268546,33.9233087 C610.909428,33.322337 609.941631,31.7100396 609.951639,30.1123513 Z M613.060198,36.6594013 L613.987961,36.6594013 L613.987961,27.8844732 L613.060198,27.8844732 L613.060198,36.6594013 Z" id="Shape" fill="#FFFFFF" fill-rule="nonzero"></path>
            <path d="M620.692479,35.9070039 C622.21273,35.9167419 623.224563,34.8662921 623.224563,33.4933428 C623.224563,32.1400056 622.207726,31.1726072 620.946688,31.1677041 C620.180057,31.1726072 619.515511,31.5244248 619.129193,32.1252965 L619.051128,32.1252965 C619.051128,30.5277082 619.686651,29.5798219 620.780552,29.5749189 C621.494139,29.5798219 621.948513,29.9950788 622.09063,30.5716354 L623.155506,30.5716354 C622.98937,29.4479403 622.085626,28.6368386 620.780552,28.6368386 C619.085156,28.6368386 618.02028,30.044009 618.015276,32.5064323 C618.015276,35.1203492 619.383402,35.8972298 620.692479,35.9070039 Z M619.178233,33.5226609 C619.188241,32.7360743 619.847784,32.0422451 620.712496,32.047121 C621.563196,32.0422451 622.178702,32.7018532 622.178702,33.5129549 C622.178702,34.3386657 621.538175,35.0030767 620.683472,35.0079797 C619.813756,35.0030767 619.183237,34.3093475 619.178233,33.5226609 Z" id="Shape" fill="#FFFFFF" fill-rule="nonzero"></path>
            <path d="M624.211375,34.4314231 L627.652207,34.4314231 L627.652207,35.8092754 L628.668043,35.8092754 L628.668043,34.4314231 L629.63584,34.4314231 L629.63584,33.5226609 L628.668043,33.5226609 L628.668043,28.734599 L627.338949,28.734599 L624.211375,33.5617851 L624.211375,34.4314231 Z M625.345309,33.5226609 L625.345309,33.4640246 L627.573142,30.0146909 L627.652207,30.0146909 L627.652207,33.5226609 L625.345309,33.5226609 Z" id="Shape" fill="#FFFFFF" fill-rule="nonzero"></path>
            <path d="M631.151087,35.8776177 C631.527397,35.8728147 631.839654,35.5649242 631.844658,35.1838885 C631.839654,34.8027528 631.527397,34.4900593 631.151087,34.4900593 C630.769773,34.4900593 630.451511,34.8027528 630.456515,35.1838885 C630.451511,35.5649242 630.769773,35.8728147 631.151087,35.8776177 Z" id="Path" fill="#FFFFFF" fill-rule="nonzero"></path>
            <polygon id="Path" fill="#FFFFFF" fill-rule="nonzero" points="634.923191 28.734599 633.868323 28.734599 632.108875 29.8876123 632.108875 30.913647 633.799266 29.8094639 633.838298 29.8094639 633.838298 35.8092754 634.923191 35.8092754"></polygon>
            <path d="M638.344007,32.0959784 C639.296791,32.1057844 639.825226,31.3924432 639.83023,30.3370903 C639.825226,29.3013496 639.316807,28.5831053 638.344007,28.5879834 C637.401231,28.5831053 636.848776,29.3013496 636.858784,30.3370903 C636.848776,31.3875401 637.37621,32.1057844 638.344007,32.0959784 Z M637.660444,35.8092754 L638.549176,35.8092754 L643.407174,28.734599 L642.517442,28.734599 L637.660444,35.8092754 Z M637.660444,30.3370903 C637.664447,29.7069005 637.889633,29.2817375 638.344007,29.2720315 C638.818397,29.2671285 639.018562,29.7019975 639.018562,30.3370903 C639.018562,30.9868923 638.803385,31.4071523 638.344007,31.4120553 C637.889633,31.4071523 637.664447,30.9868923 637.660444,30.3370903 Z M641.325461,34.196978 C641.320456,35.2376218 641.847891,35.9558661 642.810683,35.9558661 C643.763467,35.9558661 644.291902,35.2425248 644.295905,34.196978 C644.291902,33.1513312 643.778479,32.433187 642.810683,32.437966 C641.867907,32.433187 641.320456,33.1513312 641.325461,34.196978 Z M642.12712,34.196978 C642.131124,33.5568821 642.361313,33.1318191 642.810683,33.1220131 C643.285073,33.1220131 643.485238,33.551979 643.485238,34.196978 C643.485238,34.8369739 643.270061,35.2620369 642.810683,35.2620369 C642.356309,35.2620369 642.131124,34.8369739 642.12712,34.196978 Z" id="Shape" fill="#FFFFFF" fill-rule="nonzero"></path>
            <rect id="Rectangle" fill="#113287" fill-rule="nonzero" x="255.568975" y="20.2644595" width="241.198511" height="24.0148554"></rect>
            <path d="M351.622029,30.1123513 L351.622029,28.6173265 L350.693264,28.6173265 L350.693264,30.1123513 C350.68826,31.7149427 349.779512,33.3956824 348.435406,34.0405813 L349.011881,34.7930468 C350.009702,34.2751264 350.776333,33.2246766 351.167655,31.9836089 C351.553973,33.1513312 352.29158,34.1285357 353.244364,34.6268439 L353.820839,33.8842846 C352.515764,33.2490917 351.612021,31.6612094 351.622029,30.1123513 Z M354.475377,36.6398892 L355.404142,36.6398892 L355.404142,32.1644207 L356.8113,32.1644207 L356.8113,31.3729311 L355.404142,31.3729311 L355.404142,27.8844732 L354.475377,27.8844732 L354.475377,36.6398892 Z" id="Shape" fill="#FFFFFF" fill-rule="nonzero"></path>
            <path d="M358.56074,28.50986 L357.632976,28.50986 L357.632976,32.662829 L358.346563,32.662829 C359.650637,32.667632 360.994743,32.5845806 362.46095,32.2816932 L362.353861,31.5195218 C360.994743,31.8028971 359.748717,31.8810454 358.56074,31.8810454 L358.56074,28.50986 Z M358.580756,36.4541743 L364.415558,36.4541743 L364.415558,35.7018089 L359.519529,35.7018089 L359.519529,33.5911032 L358.580756,33.5911032 L358.580756,36.4541743 Z M363.184545,34.206684 L364.112309,34.206684 L364.112309,31.2361465 L365.383355,31.2361465 L365.383355,30.4446569 L364.112309,30.4446569 L364.112309,27.8941792 L363.184545,27.8941792 L363.184545,34.206684 Z" id="Shape" fill="#FFFFFF" fill-rule="nonzero"></path>
            <path d="M369.097411,30.1123513 L369.097411,28.6173265 L368.158639,28.6173265 L368.158639,30.1123513 C368.158639,31.7832849 367.191843,33.4592217 365.813709,34.0698994 L366.380175,34.851683 C367.43104,34.3386657 368.236703,33.2833128 368.643038,31.998318 C369.053375,33.1953584 369.850031,34.1773659 370.85686,34.6561621 L371.413318,33.9233087 C370.0552,33.322337 369.087403,31.7100396 369.097411,30.1123513 Z M372.204969,36.6594013 L373.133733,36.6594013 L373.133733,27.8844732 L372.204969,27.8844732 L372.204969,36.6594013 Z" id="Shape" fill="#FFFFFF" fill-rule="nonzero"></path>
            <polygon id="Path" fill="#FFFFFF" fill-rule="nonzero" points="379.965356 28.734599 378.910488 28.734599 377.15104 29.8876123 377.15104 30.913647 378.841431 29.8094639 378.880463 29.8094639 378.880463 35.8092754 379.965356 35.8092754"></polygon>
            <path d="M384.197839,28.6367721 C382.658573,28.6271326 381.656748,29.6823853 381.656748,31.0309195 C381.656748,32.3842567 382.672584,33.3565582 383.94363,33.3565582 C384.706258,33.3565582 385.370805,32.9950345 385.751118,32.3989658 L385.83919,32.3989658 C385.830183,34.0161662 385.189656,34.9640525 384.099759,34.9688555 C383.386171,34.9640525 382.926793,34.5486956 382.780673,33.9526269 L381.714796,33.9526269 C381.885937,35.1008372 382.794685,35.9069358 384.099759,35.9069358 C385.795154,35.9069358 386.866035,34.4998654 386.866035,32.01783 C386.861031,29.4283282 385.497909,28.6466446 384.197839,28.6367721 Z M382.70258,31.0114075 C382.697605,30.2003057 383.342135,29.5358947 384.197839,29.5358947 C385.062551,29.5358947 385.69307,30.2345269 385.69307,31.0016014 C385.69307,31.7832849 385.033527,32.4820172 384.177823,32.4771417 C383.318115,32.4820172 382.706612,31.8322152 382.70258,31.0114075 Z" id="Shape" fill="#FFFFFF" fill-rule="nonzero"></path>
            <path d="M388.429322,35.8776177 C388.805632,35.8728147 389.11889,35.5649242 389.123894,35.1838885 C389.11889,34.8027528 388.805632,34.4900593 388.429322,34.4900593 C388.048008,34.4900593 387.730747,34.8027528 387.735751,35.1838885 C387.730747,35.5649242 388.048008,35.8728147 388.429322,35.8776177 Z" id="Path" fill="#FFFFFF" fill-rule="nonzero"></path>
            <path d="M390.374923,35.8092754 L395.13384,35.8092754 L395.13384,34.8907072 L391.870154,34.8907072 L391.870154,34.8320709 L393.306336,33.3760702 C394.63543,32.0715633 395.006735,31.4413734 395.016744,30.6497838 C395.006735,29.5016735 394.063959,28.6368386 392.700838,28.6368386 C391.351727,28.6368386 390.364915,29.4918675 390.374923,30.7866684 L391.390759,30.7866684 C391.395763,30.034203 391.894174,29.5358947 392.680821,29.5358947 C393.423432,29.5358947 393.990899,29.9804697 393.990899,30.6791019 C393.990899,31.2995857 393.604581,31.7491638 392.827942,32.5552625 L390.374923,35.0274918 L390.374923,35.8092754 Z" id="Path" fill="#FFFFFF" fill-rule="nonzero"></path>
            <path d="M397.949157,32.0959784 C398.901941,32.1057844 399.429375,31.3924432 399.434379,30.3370903 C399.429375,29.3013496 398.921958,28.5831053 397.949157,28.5879834 C397.006381,28.5831053 396.453926,29.3013496 396.463935,30.3370903 C396.453926,31.3875401 396.981361,32.1057844 397.949157,32.0959784 Z M397.264594,35.8092754 L398.154326,35.8092754 L403.012324,28.734599 L402.122592,28.734599 L397.264594,35.8092754 Z M397.264594,30.3370903 C397.269598,29.7069005 397.494783,29.2817375 397.949157,29.2720315 C398.423547,29.2671285 398.623712,29.7019975 398.623712,30.3370903 C398.623712,30.9868923 398.408535,31.4071523 397.949157,31.4120553 C397.494783,31.4071523 397.269598,30.9868923 397.264594,30.3370903 Z M400.929587,34.196978 C400.925607,35.2376218 401.453041,35.9558661 402.415833,35.9558661 C403.368617,35.9558661 403.896051,35.2425248 403.901056,34.196978 C403.896051,33.1513312 403.38363,32.433187 402.415833,32.437966 C401.472056,32.433187 400.925607,33.1513312 400.929587,34.196978 Z M401.73127,34.196978 C401.736274,33.5568821 401.966463,33.1318191 402.415833,33.1220131 C402.889223,33.1220131 403.090388,33.551979 403.090388,34.196978 C403.090388,34.8369739 402.875211,35.2620369 402.415833,35.2620369 C401.961459,35.2620369 401.736274,34.8369739 401.73127,34.196978 Z" id="Shape" fill="#FFFFFF" fill-rule="nonzero"></path>
            <rect id="Rectangle" fill="#E2E6F6" fill-rule="nonzero" x="15.371488" y="20.2644595" width="240.197687" height="24.0148554"></rect>
            <path d="M112.110906,29.4576463 L112.110906,29.2133952 L114.036491,29.2133952 L114.036491,28.4609297 L109.208518,28.4609297 L109.208518,29.2133952 L111.173135,29.2133952 L111.173135,29.4576463 C111.168131,30.6449808 110.327439,31.788188 108.964317,32.2621812 L109.442711,32.9755224 C110.483567,32.6089957 111.261207,31.8566303 111.656533,30.908744 C112.052859,31.788188 112.815486,32.4771141 113.821314,32.8093196 L114.300709,32.0862724 C112.946594,31.6612094 112.110906,30.5814415 112.110906,29.4576463 Z M110.19533,34.3630808 L115.199448,34.3630808 L115.199448,36.6398892 L116.128213,36.6398892 L116.128213,33.6106153 L110.19533,33.6106153 L110.19533,34.3630808 Z M115.199448,33.1709433 L116.128213,33.1709433 L116.128213,27.8844732 L115.199448,27.8844732 L115.199448,33.1709433 Z" id="Shape" fill="#113287" fill-rule="nonzero"></path>
            <path d="M118.845449,28.50986 L117.916685,28.50986 L117.916685,32.662829 L118.630272,32.662829 C119.935346,32.667632 121.279452,32.5845806 122.744658,32.2816932 L122.63757,31.5195218 C121.279452,31.8028971 120.032426,31.8810454 118.845449,31.8810454 L118.845449,28.50986 Z M118.864465,36.4541743 L124.700268,36.4541743 L124.700268,35.7018089 L119.803237,35.7018089 L119.803237,33.5911032 L118.864465,33.5911032 L118.864465,36.4541743 Z M123.468254,34.206684 L124.397018,34.206684 L124.397018,31.2361465 L125.667063,31.2361465 L125.667063,30.4446569 L124.397018,30.4446569 L124.397018,27.8941792 L123.468254,27.8941792 L123.468254,34.206684 Z" id="Shape" fill="#113287" fill-rule="nonzero"></path>
            <path d="M129.38112,30.1123513 L129.38112,28.6173265 L128.443348,28.6173265 L128.443348,30.1123513 C128.443348,31.7832849 127.475552,33.4592217 126.097418,34.0698994 L126.663884,34.851683 C127.714749,34.3386657 128.521413,33.2833128 128.926746,31.998318 C129.337084,33.1953584 130.13374,34.1773659 131.140568,34.6561621 L131.698027,33.9233087 C130.338909,33.322337 129.372113,31.7100396 129.38112,30.1123513 Z M132.489679,36.6594013 L133.417442,36.6594013 L133.417442,27.8844732 L132.489679,27.8844732 L132.489679,36.6594013 Z" id="Shape" fill="#113287" fill-rule="nonzero"></path>
            <polygon id="Path" fill="#113287" fill-rule="nonzero" points="140.250066 28.734599 139.194197 28.734599 137.434749 29.8876123 137.434749 30.913647 139.126141 29.8094639 139.165173 29.8094639 139.165173 35.8092754 140.250066 35.8092754"></polygon>
            <path d="M141.891416,34.4314231 L145.332248,34.4314231 L145.332248,35.8092754 L146.348084,35.8092754 L146.348084,34.4314231 L147.315881,34.4314231 L147.315881,33.5226609 L146.348084,33.5226609 L146.348084,28.734599 L145.01899,28.734599 L141.891416,33.5617851 L141.891416,34.4314231 Z M143.02535,33.5226609 L143.02535,33.4640246 L145.254184,30.0146909 L145.332248,30.0146909 L145.332248,33.5226609 L143.02535,33.5226609 Z" id="Shape" fill="#113287" fill-rule="nonzero"></path>
            <path d="M148.831128,35.8776177 C149.207438,35.8728147 149.519695,35.5649242 149.524699,35.1838885 C149.519695,34.8027528 149.207438,34.4900593 148.831128,34.4900593 C148.449814,34.4900593 148.132553,34.8027528 148.137557,35.1838885 C148.132553,35.5649242 148.449814,35.8728147 148.831128,35.8776177 Z" id="Path" fill="#113287" fill-rule="nonzero"></path>
            <polygon id="Path" fill="#113287" fill-rule="nonzero" points="152.603232 28.734599 151.548364 28.734599 149.788916 29.8876123 149.788916 30.913647 151.479307 29.8094639 151.51834 29.8094639 151.51834 35.8092754 152.603232 35.8092754"></polygon>
            <path d="M156.024048,32.0959784 C156.977833,32.1057844 157.505267,31.3924432 157.510271,30.3370903 C157.505267,29.3013496 156.996849,28.5831053 156.024048,28.5879834 C155.081272,28.5831053 154.528817,29.3013496 154.538826,30.3370903 C154.528817,31.3875401 155.057252,32.1057844 156.024048,32.0959784 Z M155.340485,35.8092754 L156.229217,35.8092754 L161.087215,28.734599 L160.197483,28.734599 L155.340485,35.8092754 Z M155.340485,30.3370903 C155.345489,29.7069005 155.569674,29.2817375 156.024048,29.2720315 C156.498438,29.2671285 156.698603,29.7019975 156.698603,30.3370903 C156.698603,30.9868923 156.483426,31.4071523 156.024048,31.4120553 C155.569674,31.4071523 155.345489,30.9868923 155.340485,30.3370903 Z M159.005502,34.196978 C159.000498,35.2376218 159.527932,35.9558661 160.490724,35.9558661 C161.443508,35.9558661 161.971943,35.2425248 161.976947,34.196978 C161.971943,33.1513312 161.458521,32.433187 160.490724,32.437966 C159.547948,32.433187 159.000498,33.1513312 159.005502,34.196978 Z M159.807161,34.196978 C159.812166,33.5568821 160.041354,33.1318191 160.490724,33.1220131 C160.965114,33.1220131 161.165279,33.551979 161.165279,34.196978 C161.165279,34.8369739 160.950102,35.2620369 160.490724,35.2620369 C160.03635,35.2620369 159.812166,34.8369739 159.807161,34.196978 Z" id="Shape" fill="#113287" fill-rule="nonzero"></path>
            <polygon id="Path" fill="#113287" points="14.3707644 64.2916944 14.3706643 0.252108953 16.3723117 0.252108953 16.3724118 64.2916944"></polygon>
            <polygon id="Path" fill="#113287" points="735.953341 64.2916944 735.953341 0.252108953 737.954989 0.252108953 737.954989 64.2916944"></polygon>
            <polygon id="Path" fill="#979797" points="255.068563 64.0396385 255.068563 0 256.069387 0 256.069387 64.0396385"></polygon>
            <polygon id="Path" fill="#979797" points="496.267075 64.0396385 496.267075 0 497.267898 0 497.267898 64.0396385"></polygon>
        </g>
    </g>
</svg>