<?xml version="1.0" encoding="UTF-8"?>
<svg width="744px" height="78px" viewBox="0 0 744 78" version="1.1" xmlns="http://www.w3.org/2000/svg" xmlns:xlink="http://www.w3.org/1999/xlink">
    <title>astigmatismAxis</title>
    <g id="astigmatismAxis" stroke="none" stroke-width="1" fill="none" fill-rule="evenodd">
        <g id="AGE_40_49" transform="translate(0.000000, 0.000000)">
            <path d="M2.33981271,76.3870767 C3.81319534,76.3870767 4.67523481,75.1998424 4.67962843,73.1155534 C4.67523481,71.0444725 3.80000448,69.84393 2.33981271,69.84393 C0.875237338,69.84393 0,71.0444725 0,73.1155534 C0,75.1998424 0.866440097,76.3870767 2.33981271,76.3870767 Z M0.967593348,73.1155534 C0.967593348,71.5324743 1.48217686,70.6662385 2.33981271,70.6618358 C3.19305495,70.6662385 3.71204208,71.5324743 3.71204208,73.1155534 C3.71204208,74.7029351 3.19745857,75.5515599 2.33981271,75.5515599 C1.47778324,75.5515599 0.963199732,74.7029351 0.967593348,73.1155534 Z" id="Shape" fill="#113287" fill-rule="nonzero"></path>
            <path d="M7.06343034,72.8077851 C7.87268638,72.8121657 8.52801573,72.1569605 8.52363417,71.3478601 C8.52801573,70.5387597 7.87268638,69.8835545 7.06343034,69.8791518 C6.25417431,69.8835545 5.59884496,70.5387597 5.60322652,71.3478601 C5.59884496,72.1569605 6.25417431,72.8121657 7.06343034,72.8077851 Z M6.30694774,71.3478601 C6.31135137,70.9301017 6.64560647,70.595895 7.06343034,70.6002978 C7.48125422,70.595895 7.81551933,70.9301017 7.8111157,71.3478601 C7.81551933,71.7612158 7.48125422,72.0997251 7.06343034,72.1041278 C6.64560647,72.0997251 6.31135137,71.7612158 6.30694774,71.3478601 Z" id="Shape" fill="#113287" fill-rule="nonzero"></path>
            <polygon id="Path" fill="#113287" fill-rule="nonzero" points="12.0069189 69.6328995 11.1713312 69.6328995 9.12176439 77.2577151 9.95743216 77.2577151"></polygon>
            <polygon id="Path" fill="#113287" fill-rule="nonzero" points="15.1120745 69.9318844 14.1620927 69.9318844 12.5786895 70.9696262 12.5786895 71.8930973 14.1004419 70.8992827 14.1356709 70.8992827 14.1356709 76.2991223 15.1120745 76.2991223"></polygon>
            <path d="M18.9560382,76.3870767 C20.3194603,76.3870767 21.2914603,75.6395143 21.2958639,74.6017725 C21.2914603,73.7838667 20.7020752,73.1155534 19.9587635,73.0011826 L19.9587635,72.9660609 C20.6008919,72.8165684 21.0451576,72.2361095 21.0495612,71.5412797 C21.0451576,70.5607733 20.1567264,69.84393 18.9560382,69.84393 C17.7377355,69.84393 16.8537079,70.5607733 16.8537079,71.5412797 C16.8537079,72.2361095 17.2891663,72.8165684 17.9445057,72.9660609 L17.9445057,73.0011826 C17.1923867,73.1155534 16.6074052,73.7838667 16.6162125,74.6017725 C16.6074052,75.6395143 17.5705979,76.3870767 18.9560382,76.3870767 Z M17.6014233,74.531429 C17.5882124,73.8762238 18.1643866,73.3969274 18.9560382,73.3969274 C19.7388825,73.3969274 20.3106531,73.8762238 20.3106531,74.531429 C20.3106531,75.1558152 19.7829187,75.5867817 18.9560382,75.5867817 C18.1159468,75.5867817 17.5882124,75.1558152 17.6014233,74.531429 Z M17.7948825,71.6292341 C17.7992862,71.035667 18.2567627,70.6311168 18.9560382,70.6355195 C19.6376992,70.6311168 20.103983,71.035667 20.0995794,71.6292341 C20.103983,72.227304 19.6201848,72.6362569 18.9560382,72.6318542 C18.2742771,72.6362569 17.7992862,72.2229013 17.7948825,71.6292341 Z" id="Shape" fill="#113287" fill-rule="nonzero"></path>
            <path d="M24.5153136,76.3870767 C25.9886262,76.3870767 26.8507357,75.1998424 26.8551393,73.1155534 C26.8507357,71.0444725 25.9755154,69.84393 24.5153136,69.84393 C23.0507082,69.84393 22.1754879,71.0444725 22.1754879,73.1155534 C22.1754879,75.1998424 23.0419009,76.3870767 24.5153136,76.3870767 Z M23.1430842,73.1155534 C23.1430842,71.5324743 23.6576077,70.6662385 24.5153136,70.6618358 C25.3685158,70.6662385 25.887543,71.5324743 25.887543,73.1155534 C25.887543,74.7029351 25.3729194,75.5515599 24.5153136,75.5515599 C23.6533041,75.5515599 23.1386806,74.7029351 23.1430842,73.1155534 Z" id="Shape" fill="#113287" fill-rule="nonzero"></path>
            <path d="M29.2389012,72.8077851 C30.0481672,72.8121657 30.7035066,72.1569605 30.699125,71.3478601 C30.7035066,70.5387597 30.0481672,69.8835545 29.2389012,69.8791518 C28.4296352,69.8835545 27.7742958,70.5387597 27.7786774,71.3478601 C27.7742958,72.1569605 28.4296352,72.8121657 29.2389012,72.8077851 Z M28.4823786,71.3478601 C28.4867822,70.9301017 28.8210573,70.595895 29.2389012,70.6002978 C29.6567451,70.595895 29.9910202,70.9301017 29.9866166,71.3478601 C29.9910202,71.7612158 29.6567451,72.0997251 29.2389012,72.1041278 C28.8210573,72.0997251 28.4867822,71.7612158 28.4823786,71.3478601 Z" id="Shape" fill="#113287" fill-rule="nonzero"></path>
            <path d="M239.604837,76.4809347 C240.923922,76.4809347 241.904729,75.7025533 241.90075,74.6427979 C241.904729,73.8381002 241.399313,73.2533386 240.528597,73.1301624 L240.528597,73.0862352 C241.214161,72.9147292 241.663531,72.3958082 241.654523,71.6702595 C241.663531,70.7292775 240.875883,69.937788 239.622851,69.937788 C238.434874,69.937788 237.476085,70.6413231 237.450063,71.6790649 L238.38183,71.6790649 C238.403848,71.1030087 238.976319,70.7468884 239.613844,70.7468884 C240.286397,70.7468884 240.721756,71.1426332 240.721756,71.7230922 C240.721756,72.3342702 240.21634,72.7388204 239.490743,72.7344176 L238.945294,72.7344176 L238.945294,73.5259071 L239.490743,73.5259071 C240.400491,73.5303099 240.923922,73.9788873 240.923922,74.6076762 C240.923922,75.2276596 240.365463,75.645418 239.595829,75.645418 C238.883243,75.645418 238.329787,75.2891977 238.294758,74.7307523 L237.308947,74.7307523 C237.34898,75.7728968 238.285751,76.4809347 239.604837,76.4809347 Z" id="Path" fill="#113287" fill-rule="nonzero"></path>
            <path d="M245.181426,76.4809347 C246.655639,76.4809347 247.517349,75.2936004 247.521352,73.2093113 C247.517349,71.1382305 246.641628,69.937788 245.181426,69.937788 C243.717221,69.937788 242.8415,71.1382305 242.8415,73.2093113 C242.8415,75.2936004 243.708214,76.4809347 245.181426,76.4809347 Z M243.809274,73.2093113 C243.809274,71.6263323 244.32372,70.7600966 245.181426,70.7556939 C246.035129,70.7600966 246.553555,71.6263323 246.553555,73.2093113 C246.553555,74.7967931 246.039132,75.645418 245.181426,75.645418 C244.319717,75.645418 243.805294,74.7967931 243.809274,73.2093113 Z" id="Shape" fill="#113287" fill-rule="nonzero"></path>
            <path d="M249.905314,72.901543 C250.71498,72.9059237 251.369519,72.2507185 251.365534,71.4416181 C251.369519,70.6325177 250.71498,69.9773125 249.905314,69.9730098 C249.095648,69.9773125 248.441109,70.6325177 248.445094,71.4416181 C248.441109,72.2507185 249.095648,72.9059237 249.905314,72.901543 Z M249.148691,71.4416181 C249.153695,71.0238597 249.487971,70.6897531 249.905314,70.6941558 C250.323658,70.6897531 250.657933,71.0238597 250.652929,71.4416181 C250.657933,71.8549737 250.323658,72.1935832 249.905314,72.1979859 C249.487971,72.1935832 249.153695,71.8549737 249.148691,71.4416181 Z" id="Shape" fill="#113287" fill-rule="nonzero"></path>
            <polygon id="Path" fill="#113287" fill-rule="nonzero" points="254.849383 69.7267575 254.013695 69.7267575 251.964008 77.3515732 252.799696 77.3515732"></polygon>
            <polygon id="Path" fill="#113287" fill-rule="nonzero" points="257.953938 70.0257424 257.004157 70.0257424 255.420853 71.0634842 255.420853 71.9868553 256.942105 70.9931407 256.977134 70.9931407 256.977134 76.3929803 257.953938 76.3929803"></polygon>
            <path d="M261.736051,76.4809347 C263.065145,76.4809347 264.005919,75.5794772 264.005919,74.3262021 C264.005919,73.0994434 263.122192,72.211194 261.921203,72.2067913 C261.437805,72.211194 260.988436,72.3827001 260.725219,72.6376578 L260.663168,72.6376578 L260.874342,70.8524537 L263.680651,70.8524537 L263.680651,70.0257424 L260.073683,70.0257424 L259.660343,73.5699344 L260.575095,73.5699344 C260.791273,73.1785923 261.182595,73.0070863 261.692015,73.0070863 C262.492674,73.0158917 263.065145,73.5787398 263.065145,74.3526184 C263.065145,75.1089862 262.510688,75.6674316 261.736051,75.6718343 C261.094523,75.6674316 260.575095,75.2716869 260.522052,74.7307523 L259.581278,74.7307523 C259.625314,75.7465806 260.531059,76.4809347 261.736051,76.4809347 Z" id="Path" fill="#113287" fill-rule="nonzero"></path>
            <path d="M267.25159,76.4809347 C268.724803,76.4809347 269.587513,75.2936004 269.591516,73.2093113 C269.587513,71.1382305 268.711792,69.937788 267.25159,69.937788 C265.787385,69.937788 264.911665,71.1382305 264.911665,73.2093113 C264.911665,75.2936004 265.778378,76.4809347 267.25159,76.4809347 Z M265.879438,73.2093113 C265.879438,71.6263323 266.393884,70.7600966 267.25159,70.7556939 C268.105293,70.7600966 268.62372,71.6263323 268.62372,73.2093113 C268.62372,74.7967931 268.109296,75.645418 267.25159,75.645418 C266.389881,75.645418 265.875458,74.7967931 265.879438,73.2093113 Z" id="Shape" fill="#113287" fill-rule="nonzero"></path>
            <path d="M271.975478,72.901543 C272.784144,72.9059237 273.439683,72.2507185 273.435698,71.4416181 C273.439683,70.6325177 272.784144,69.9773125 271.975478,69.9730098 C271.165812,69.9773125 270.510272,70.6325177 270.515248,71.4416181 C270.510272,72.2507185 271.165812,72.9059237 271.975478,72.901543 Z M271.218855,71.4416181 C271.222859,71.0238597 271.557134,70.6897531 271.975478,70.6941558 C272.392822,70.6897531 272.727097,71.0238597 272.723094,71.4416181 C272.727097,71.8549737 272.392822,72.1935832 271.975478,72.1979859 C271.557134,72.1935832 271.222859,71.8549737 271.218855,71.4416181 Z" id="Shape" fill="#113287" fill-rule="nonzero"></path>
            <path d="M480.623199,76.3871377 C481.991325,76.3958821 482.901074,75.4504974 482.901074,74.2148332 C482.901074,72.9967799 481.986321,72.1261414 480.851387,72.1217387 C480.160819,72.1261414 479.563327,72.4427372 479.216041,72.9835717 L479.144983,72.9835717 C479.144983,71.5456825 479.717454,70.6926549 480.702264,70.6882522 C481.344793,70.6926549 481.753129,71.066386 481.881235,71.585307 L482.840024,71.585307 C482.6899,70.5738814 481.876231,69.84393 480.702264,69.84393 C479.176008,69.84393 478.217219,71.1104133 478.213216,73.3265839 C478.213216,75.6791388 479.444229,76.3782712 480.623199,76.3871377 Z M479.260078,74.2412496 C479.268084,73.5333117 479.862573,72.9088255 480.640213,72.9132039 C481.405844,72.9088255 481.9603,73.5024927 481.9603,74.2324441 C481.9603,74.9756037 481.383825,75.5735736 480.614192,75.5779763 C479.831548,75.5735736 479.264081,74.9491874 479.260078,74.2412496 Z" id="Shape" fill="#113287" fill-rule="nonzero"></path>
            <path d="M486.146745,76.3870767 C487.620959,76.3870767 488.482668,75.1998424 488.486671,73.1155534 C488.482668,71.0444725 487.606947,69.84393 486.146745,69.84393 C484.68254,69.84393 483.80782,71.0444725 483.80782,73.1155534 C483.80782,75.1998424 484.673533,76.3870767 486.146745,76.3870767 Z M484.774593,73.1155534 C484.774593,71.5324743 485.289039,70.6662385 486.146745,70.6618358 C487.000448,70.6662385 487.519876,71.5324743 487.519876,73.1155534 C487.519876,74.7029351 487.004451,75.5515599 486.146745,75.5515599 C485.285036,75.5515599 484.770613,74.7029351 484.774593,73.1155534 Z" id="Shape" fill="#113287" fill-rule="nonzero"></path>
            <path d="M490.870633,72.8077851 C491.6803,72.8121657 492.335839,72.1569605 492.330863,71.3478601 C492.335839,70.5387597 491.6803,69.8835545 490.870633,69.8791518 C490.061968,69.8835545 489.406428,70.5387597 489.410413,71.3478601 C489.406428,72.1569605 490.061968,72.8121657 490.870633,72.8077851 Z M490.114011,71.3478601 C490.119015,70.9301017 490.45329,70.595895 490.870633,70.6002978 C491.288978,70.595895 491.623253,70.9301017 491.618249,71.3478601 C491.623253,71.7612158 491.288978,72.0997251 490.870633,72.1041278 C490.45329,72.0997251 490.119015,71.7612158 490.114011,71.3478601 Z" id="Shape" fill="#113287" fill-rule="nonzero"></path>
            <polygon id="Path" fill="#113287" fill-rule="nonzero" points="495.814702 69.6328995 494.979015 69.6328995 492.929328 77.2577151 493.765015 77.2577151"></polygon>
            <polygon id="Path" fill="#113287" fill-rule="nonzero" points="498.919257 69.9318844 497.969476 69.9318844 496.386173 70.9696262 496.386173 71.8930973 497.907425 70.8992827 497.943454 70.8992827 497.943454 76.2991223 498.919257 76.2991223"></polygon>
            <path d="M500.537589,76.2991223 L504.822116,76.2991223 L504.822116,75.472411 L501.883697,75.472411 L501.883697,75.4196784 L503.176761,74.1092679 C504.372746,72.9352418 504.707021,72.367991 504.716028,71.6556505 C504.707021,70.6223114 503.858322,69.84393 502.631313,69.84393 C501.417313,69.84393 500.529583,70.6135059 500.537589,71.7787266 L501.452342,71.7787266 C501.457346,71.1016078 501.905715,70.6530304 502.614299,70.6530304 C503.282849,70.6530304 503.792268,71.0531779 503.792268,71.6820668 C503.792268,72.2405122 503.444982,72.6450624 502.745406,73.3706111 L500.537589,75.5955872 L500.537589,76.2991223 Z" id="Path" fill="#113287" fill-rule="nonzero"></path>
            <path d="M508.111823,76.3870767 C509.585036,76.3870767 510.446745,75.1998424 510.451749,73.1155534 C510.446745,71.0444725 509.572025,69.84393 508.111823,69.84393 C506.646617,69.84393 505.771897,71.0444725 505.771897,73.1155534 C505.771897,75.1998424 506.638611,76.3870767 508.111823,76.3870767 Z M506.739694,73.1155534 C506.739694,71.5324743 507.254117,70.6662385 508.111823,70.6618358 C508.964525,70.6662385 509.483952,71.5324743 509.483952,73.1155534 C509.483952,74.7029351 508.969529,75.5515599 508.111823,75.5515599 C507.249113,75.5515599 506.73469,74.7029351 506.739694,73.1155534 Z" id="Shape" fill="#113287" fill-rule="nonzero"></path>
            <path d="M512.83471,72.8077851 C513.644376,72.8121657 514.299916,72.1569605 514.29494,71.3478601 C514.299916,70.5387597 513.644376,69.8835545 512.83471,69.8791518 C512.026045,69.8835545 511.370505,70.5387597 511.37449,71.3478601 C511.370505,72.1569605 512.026045,72.8121657 512.83471,72.8077851 Z M512.079088,71.3478601 C512.083092,70.9301017 512.417367,70.595895 512.83471,70.6002978 C513.253054,70.595895 513.58733,70.9301017 513.583326,71.3478601 C513.58733,71.7612158 513.253054,72.0997251 512.83471,72.1041278 C512.417367,72.0997251 512.083092,71.7612158 512.079088,71.3478601 Z" id="Shape" fill="#113287" fill-rule="nonzero"></path>
            <path d="M732.177233,69.8439693 C730.792093,69.8352246 729.890351,70.785012 729.890351,71.9986626 C729.890351,73.2167159 730.805104,74.0917571 731.949046,74.0917571 C732.63461,74.0917571 733.233102,73.7663559 733.576385,73.2299241 L733.65545,73.2299241 C733.646443,74.6854243 733.069968,75.5384518 732.089161,75.5428546 C731.447633,75.5384518 731.033292,75.1647207 730.902184,74.6282889 L729.943395,74.6282889 C730.096521,75.661628 730.915195,76.3871767 732.089161,76.3871767 C733.615417,76.3871767 734.578209,75.1206935 734.578209,72.886912 C734.574206,70.5563706 733.347196,69.8528355 732.177233,69.8439693 Z M730.831105,71.9811518 C730.827122,71.2512003 731.4076,70.6531304 732.177233,70.6531304 C732.955874,70.6531304 733.523341,71.2819193 733.523341,71.9723463 C733.523341,72.6758814 732.929853,73.3046703 732.159219,73.3002923 C731.385582,73.3046703 730.83613,72.7198086 730.831105,71.9811518 Z" id="Shape" fill="#113287" fill-rule="nonzero"></path>
            <path d="M737.815874,76.3871767 C739.289087,76.3871767 740.150796,75.1998424 740.1558,73.1155534 C740.150796,71.0444725 739.276076,69.84403 737.815874,69.84403 C736.350668,69.84403 735.475948,71.0444725 735.475948,73.1155534 C735.475948,75.1998424 736.342662,76.3871767 737.815874,76.3871767 Z M736.443745,73.1155534 C736.443745,71.5325743 736.958168,70.6663386 737.815874,70.6619359 C738.668576,70.6663386 739.188003,71.5325743 739.188003,73.1155534 C739.188003,74.7030352 738.67358,75.55166 737.815874,75.55166 C736.954165,75.55166 736.438741,74.7030352 736.443745,73.1155534 Z" id="Shape" fill="#113287" fill-rule="nonzero"></path>
            <path d="M742.539762,72.8077851 C743.348427,72.8121657 744.003967,72.1569605 743.999982,71.3478601 C744.003967,70.5387597 743.348427,69.8836545 742.539762,69.8792518 C741.730096,69.8836545 741.074556,70.5387597 741.079532,71.3478601 C741.074556,72.1569605 741.730096,72.8121657 742.539762,72.8077851 Z M741.783139,71.3478601 C741.787142,70.9302018 742.121418,70.5959951 742.539762,70.6003978 C742.957105,70.5959951 743.291381,70.9302018 743.287377,71.3478601 C743.291381,71.7612158 742.957105,72.0998252 742.539762,72.1042279 C742.121418,72.0998252 741.787142,71.7612158 741.783139,71.3478601 Z" id="Shape" fill="#113287" fill-rule="nonzero"></path>
            <rect id="Rectangle" fill="#5B6EB4" fill-rule="nonzero" x="496.767486" y="20.2644668" width="240.197687" height="24.0148523"></rect>
            <polygon id="Path" fill="#FFFFFF" fill-rule="nonzero" points="595.300581 31.9201755 590.130326 31.9201755 590.130326 29.3110618 595.222517 29.3110618 595.222517 28.5586965 589.202562 28.5586965 589.202562 32.6627347 591.733645 32.6627347 591.733645 34.8027583 588.205742 34.8027583 588.205742 35.5649296 596.219337 35.5649296 596.219337 34.8027583 592.652402 34.8027583 592.652402 32.6627347 595.300581 32.6627347"></polygon>
            <path d="M598.183954,28.5098663 L597.256191,28.5098663 L597.256191,32.6627347 L597.968777,32.6627347 C599.273851,32.6676378 600.617957,32.5845864 602.084164,32.2816991 L601.976075,31.5195277 C600.617957,31.802903 599.371932,31.8810513 598.183954,31.8810513 L598.183954,28.5098663 Z M598.203971,36.4541796 L604.038773,36.4541796 L604.038773,35.7018143 L599.141743,35.7018143 L599.141743,33.5911089 L598.203971,33.5911089 L598.203971,36.4541796 Z M602.806759,34.2066896 L603.735523,34.2066896 L603.735523,31.2361524 L605.006569,31.2361524 L605.006569,30.4445629 L603.735523,30.4445629 L603.735523,27.8941856 L602.806759,27.8941856 L602.806759,34.2066896 Z" id="Shape" fill="#FFFFFF" fill-rule="nonzero"></path>
            <path d="M608.720626,30.1123574 L608.720626,28.6173328 L607.781853,28.6173328 L607.781853,30.1123574 C607.781853,31.7832908 606.814057,33.4591273 605.435923,34.069905 L606.00339,34.8515885 C607.054255,34.3385712 607.859918,33.2833185 608.266252,31.9983238 C608.67659,33.1953641 609.473246,34.1773715 610.479073,34.6561676 L611.036532,33.9233144 C609.678414,33.3223427 608.710618,31.7100455 608.720626,30.1123574 Z M611.828184,36.6594065 L612.756948,36.6594065 L612.756948,27.8844796 L611.828184,27.8844796 L611.828184,36.6594065 Z" id="Shape" fill="#FFFFFF" fill-rule="nonzero"></path>
            <path d="M616.74423,34.4314286 L620.185062,34.4314286 L620.185062,35.8092808 L621.200898,35.8092808 L621.200898,34.4314286 L622.168694,34.4314286 L622.168694,33.5226666 L621.200898,33.5226666 L621.200898,28.7346053 L619.871804,28.7346053 L616.74423,33.5617908 L616.74423,34.4314286 Z M617.878163,33.5226666 L617.878163,33.4640303 L620.106997,30.014697 L620.185062,30.014697 L620.185062,33.5226666 L617.878163,33.5226666 Z" id="Shape" fill="#FFFFFF" fill-rule="nonzero"></path>
            <path d="M623.097459,34.4314286 L626.53729,34.4314286 L626.53729,35.8092808 L627.554126,35.8092808 L627.554126,34.4314286 L628.521923,34.4314286 L628.521923,33.5226666 L627.554126,33.5226666 L627.554126,28.7346053 L626.225033,28.7346053 L623.097459,33.5617908 L623.097459,34.4314286 Z M624.231392,33.5226666 L624.231392,33.4640303 L626.459225,30.014697 L626.53729,30.014697 L626.53729,33.5226666 L624.231392,33.5226666 Z" id="Shape" fill="#FFFFFF" fill-rule="nonzero"></path>
            <path d="M630.036169,35.877623 C630.412479,35.8728201 630.725737,35.5649296 630.730741,35.183894 C630.725737,34.8027583 630.412479,34.4900649 630.036169,34.4900649 C629.655856,34.4900649 629.337594,34.8027583 629.342598,35.183894 C629.337594,35.5649296 629.655856,35.8728201 630.036169,35.877623 Z" id="Path" fill="#FFFFFF" fill-rule="nonzero"></path>
            <path d="M634.278661,35.9070093 C635.797911,35.9167472 636.809744,34.8662976 636.809744,33.4933484 C636.809744,32.1400115 635.792907,31.1726131 634.53287,31.1677101 C633.765238,31.1726131 633.100691,31.5243307 632.714373,32.1253024 L632.636309,32.1253024 C632.636309,30.5277143 633.271832,29.5798281 634.366733,29.574925 C635.07932,29.5798281 635.534695,29.9950849 635.675811,30.5716415 L636.741688,30.5716415 C636.575551,29.4479465 635.670807,28.6368449 634.366733,28.6368449 C632.670337,28.6368449 631.605461,30.0440152 631.600457,32.5064381 C631.600457,35.1203547 632.968583,35.8972352 634.278661,35.9070093 Z M632.763414,33.5226666 C632.773422,32.7360801 633.432965,32.042251 634.297677,32.0471269 C635.148377,32.042251 635.763883,32.7018589 635.763883,33.5129606 C635.763883,34.3385712 635.123356,35.0030822 634.268653,35.0079852 C633.398937,35.0030822 632.768418,34.3093531 632.763414,33.5226666 Z" id="Shape" fill="#FFFFFF" fill-rule="nonzero"></path>
            <path d="M639.576021,32.0959842 C640.528805,32.1057903 641.056239,31.3924491 641.061243,30.3370964 C641.056239,29.3013558 640.547821,28.5831116 639.576021,28.5879897 C638.632244,28.5831116 638.08079,29.3013558 638.089798,30.3370964 C638.08079,31.3875461 638.608224,32.1057903 639.576021,32.0959842 Z M638.891457,35.8092808 L639.78119,35.8092808 L644.638187,28.7346053 L643.749456,28.7346053 L638.891457,35.8092808 Z M638.891457,30.3370964 C638.896461,29.7068066 639.121647,29.2817437 639.576021,29.2720377 C640.04941,29.2671347 640.250576,29.7020036 640.250576,30.3370964 C640.250576,30.9868983 640.035399,31.4071582 639.576021,31.4119612 C639.121647,31.4071582 638.896461,30.9868983 638.891457,30.3370964 Z M642.556474,34.1968836 C642.55147,35.2376272 643.079904,35.9558714 644.042697,35.9558714 C644.995481,35.9558714 645.522915,35.2425302 645.527919,34.1968836 C645.522915,33.1513369 645.009493,32.4331928 644.042697,32.4379718 C643.09892,32.4331928 642.55147,33.1513369 642.556474,34.1968836 Z M643.358133,34.1968836 C643.363138,33.5568877 643.592326,33.1318249 644.042697,33.1220188 C644.516086,33.1220188 644.716251,33.5519847 644.716251,34.1968836 C644.716251,34.8369794 644.502075,35.2620423 644.042697,35.2620423 C643.587322,35.2620423 643.363138,34.8369794 643.358133,34.1968836 Z" id="Shape" fill="#FFFFFF" fill-rule="nonzero"></path>
            <rect id="Rectangle" fill="#113287" fill-rule="nonzero" x="255.568975" y="20.2644668" width="241.198511" height="24.0148523"></rect>
            <path d="M351.612021,30.1123574 L351.612021,28.6173328 L350.683256,28.6173328 L350.683256,30.1123574 C350.678252,31.7149486 349.769504,33.395688 348.426399,34.0405869 L349.002873,34.7930523 C349.999694,34.2751319 350.766325,33.2246823 351.157647,31.9836147 C351.543965,33.1513369 352.281572,34.1285413 353.234356,34.6268495 L353.81083,33.8841902 C352.506757,33.2490974 351.602012,31.6612153 351.612021,30.1123574 Z M354.46637,36.6398945 L355.394133,36.6398945 L355.394133,32.1644265 L356.802292,32.1644265 L356.802292,31.372937 L355.394133,31.372937 L355.394133,27.8844796 L354.46637,27.8844796 L354.46637,36.6398945 Z" id="Shape" fill="#FFFFFF" fill-rule="nonzero"></path>
            <path d="M358.551732,28.5098663 L357.622968,28.5098663 L357.622968,32.6627347 L358.336555,32.6627347 C359.641629,32.6676378 360.984735,32.5845864 362.450941,32.2816991 L362.343853,31.5195277 C360.984735,31.802903 359.738709,31.8810513 358.551732,31.8810513 L358.551732,28.5098663 Z M358.570748,36.4541796 L364.40555,36.4541796 L364.40555,35.7018143 L359.50952,35.7018143 L359.50952,33.5911089 L358.570748,33.5911089 L358.570748,36.4541796 Z M363.174537,34.2066896 L364.103301,34.2066896 L364.103301,31.2361524 L365.373346,31.2361524 L365.373346,30.4445629 L364.103301,30.4445629 L364.103301,27.8941856 L363.174537,27.8941856 L363.174537,34.2066896 Z" id="Shape" fill="#FFFFFF" fill-rule="nonzero"></path>
            <path d="M369.087403,30.1123574 L369.087403,28.6173328 L368.149631,28.6173328 L368.149631,30.1123574 C368.149631,31.7832908 367.181835,33.4591273 365.803701,34.069905 L366.370167,34.8515885 C367.421032,34.3385712 368.227696,33.2833185 368.633029,31.9983238 C369.043367,33.1953641 369.840023,34.1773715 370.846851,34.6561676 L371.40431,33.9233144 C370.045192,33.3223427 369.077395,31.7100455 369.087403,30.1123574 Z M372.195962,36.6594065 L373.123725,36.6594065 L373.123725,27.8844796 L372.195962,27.8844796 L372.195962,36.6594065 Z" id="Shape" fill="#FFFFFF" fill-rule="nonzero"></path>
            <polygon id="Path" fill="#FFFFFF" fill-rule="nonzero" points="379.955348 28.7346053 378.90048 28.7346053 377.141032 29.8876184 377.141032 30.913653 378.831423 29.8094701 378.870455 29.8094701 378.870455 35.8092808 379.955348 35.8092808"></polygon>
            <path d="M381.753828,35.8092808 L386.513745,35.8092808 L386.513745,34.8907127 L383.249059,34.8907127 L383.249059,34.8320764 L384.686241,33.3760759 C386.015335,32.0715691 386.386641,31.4412793 386.396649,30.6497898 C386.386641,29.5016797 385.443865,28.6368449 384.080743,28.6368449 C382.731633,28.6368449 381.744821,29.4918737 381.753828,30.7865744 L382.770665,30.7865744 C382.775669,30.0342091 383.274079,29.5358008 384.060727,29.5358008 C384.803338,29.5358008 385.370805,29.9804759 385.370805,30.6791079 C385.370805,31.2995917 384.984487,31.7491697 384.206847,32.5552683 L381.753828,35.0274973 L381.753828,35.8092808 Z" id="Path" fill="#FFFFFF" fill-rule="nonzero"></path>
            <path d="M388.400298,35.877623 C388.776608,35.8728201 389.088865,35.5649296 389.093869,35.183894 C389.088865,34.8027583 388.776608,34.4900649 388.400298,34.4900649 C388.018984,34.4900649 387.701723,34.8027583 387.706727,35.183894 C387.701723,35.5649296 388.018984,35.8728201 388.400298,35.877623 Z" id="Path" fill="#FFFFFF" fill-rule="nonzero"></path>
            <path d="M392.602757,35.9069412 C394.068964,35.9069412 395.158861,35.0422064 395.15389,33.8646781 C395.158861,32.9706252 394.596398,32.3207232 393.629602,32.1839386 L393.629602,32.1351084 C394.391229,31.9445906 394.889639,31.368034 394.880632,30.5618354 C394.889639,29.5162888 394.014919,28.6368449 392.622773,28.6368449 C391.302687,28.6368449 390.23781,29.4186284 390.208787,30.5716415 L391.244639,30.5716415 C391.268659,29.9316457 391.904182,29.5358008 392.612765,29.5358008 C393.36038,29.5358008 393.843778,29.9755728 393.843778,30.6204717 C393.843778,31.2995917 393.282316,31.7491697 392.475652,31.7442667 L391.870154,31.7442667 L391.870154,32.6237106 L392.475652,32.6237106 C393.487485,32.6286136 394.068964,33.1269218 394.068964,33.825654 C394.068964,34.51448 393.448453,34.9786671 392.592749,34.9786671 C391.801097,34.9786671 391.18559,34.5829223 391.146558,33.9624386 L390.051657,33.9624386 C390.095693,35.1203547 391.13655,35.9069412 392.602757,35.9069412 Z" id="Path" fill="#FFFFFF" fill-rule="nonzero"></path>
            <path d="M397.959165,32.0959842 C398.911949,32.1057903 399.439384,31.3924491 399.444388,30.3370964 C399.439384,29.3013558 398.930965,28.5831116 397.959165,28.5879897 C397.015389,28.5831116 396.463935,29.3013558 396.472942,30.3370964 C396.463935,31.3875461 396.991369,32.1057903 397.959165,32.0959842 Z M397.274602,35.8092808 L398.164334,35.8092808 L403.021332,28.7346053 L402.1326,28.7346053 L397.274602,35.8092808 Z M397.274602,30.3370964 C397.279606,29.7068066 397.504791,29.2817437 397.959165,29.2720377 C398.432555,29.2671347 398.63372,29.7020036 398.63372,30.3370964 C398.63372,30.9868983 398.418543,31.4071582 397.959165,31.4119612 C397.504791,31.4071582 397.279606,30.9868983 397.274602,30.3370964 Z M400.939618,34.1968836 C400.934614,35.2376272 401.463049,35.9558714 402.425841,35.9558714 C403.378626,35.9558714 403.90606,35.2425302 403.911064,34.1968836 C403.90606,33.1513369 403.392637,32.4331928 402.425841,32.4379718 C401.482065,32.4331928 400.934614,33.1513369 400.939618,34.1968836 Z M401.741278,34.1968836 C401.746282,33.5568877 401.975471,33.1318249 402.425841,33.1220188 C402.899231,33.1220188 403.099396,33.5519847 403.099396,34.1968836 C403.099396,34.8369794 402.88522,35.2620423 402.425841,35.2620423 C401.970467,35.2620423 401.746282,34.8369794 401.741278,34.1968836 Z" id="Shape" fill="#FFFFFF" fill-rule="nonzero"></path>
            <rect id="Rectangle" fill="#E2E6F6" fill-rule="nonzero" x="15.371488" y="20.2644668" width="240.197687" height="24.0148523"></rect>
            <path d="M110.62068,29.4576525 L110.62068,29.2134014 L112.546265,29.2134014 L112.546265,28.4609361 L107.718291,28.4609361 L107.718291,29.2134014 L109.682908,29.2134014 L109.682908,29.4576525 C109.677904,30.6448868 108.837212,31.7881939 107.47409,32.262187 L107.952484,32.9754281 C108.993341,32.6090015 109.770981,31.8566362 110.166306,30.90875 C110.562632,31.7881939 111.324259,32.4771199 112.331088,32.8093254 L112.810482,32.0862782 C111.456368,31.6612153 110.62068,30.5814475 110.62068,29.4576525 Z M108.705103,34.3630863 L113.709222,34.3630863 L113.709222,36.6398945 L114.637986,36.6398945 L114.637986,33.610621 L108.705103,33.610621 L108.705103,34.3630863 Z M113.709222,33.170949 L114.637986,33.170949 L114.637986,27.8844796 L113.709222,27.8844796 L113.709222,33.170949 Z" id="Shape" fill="#113287" fill-rule="nonzero"></path>
            <path d="M117.355223,28.5098663 L116.426458,28.5098663 L116.426458,32.6627347 L117.140046,32.6627347 C118.44512,32.6676378 119.788225,32.5845864 121.254432,32.2816991 L121.147344,31.5195277 C119.788225,31.802903 118.5422,31.8810513 117.355223,31.8810513 L117.355223,28.5098663 Z M117.374238,36.4541796 L123.20904,36.4541796 L123.20904,35.7018143 L118.313011,35.7018143 L118.313011,33.5911089 L117.374238,33.5911089 L117.374238,36.4541796 Z M121.978027,34.2066896 L122.906792,34.2066896 L122.906792,31.2361524 L124.176837,31.2361524 L124.176837,30.4445629 L122.906792,30.4445629 L122.906792,27.8941856 L121.978027,27.8941856 L121.978027,34.2066896 Z" id="Shape" fill="#113287" fill-rule="nonzero"></path>
            <path d="M127.890894,30.1123574 L127.890894,28.6173328 L126.953122,28.6173328 L126.953122,30.1123574 C126.953122,31.7832908 125.985325,33.4591273 124.607191,34.069905 L125.173657,34.8515885 C126.224522,34.3385712 127.031186,33.2833185 127.43652,31.9983238 C127.846857,33.1953641 128.643513,34.1773715 129.650342,34.6561676 L130.2068,33.9233144 C128.848682,33.3223427 127.880885,31.7100455 127.890894,30.1123574 Z M130.998451,36.6594065 L131.927216,36.6594065 L131.927216,27.8844796 L130.998451,27.8844796 L130.998451,36.6594065 Z" id="Shape" fill="#113287" fill-rule="nonzero"></path>
            <path d="M136.071627,35.8092808 L140.831544,35.8092808 L140.831544,34.8907127 L137.566857,34.8907127 L137.566857,34.8320764 L139.00404,33.3760759 C140.333134,32.0715691 140.70444,31.4412793 140.714448,30.6497898 C140.70444,29.5016797 139.760663,28.6368449 138.397541,28.6368449 C137.048431,28.6368449 136.061618,29.4918737 136.071627,30.7865744 L137.087463,30.7865744 C137.092467,30.0342091 137.590877,29.5358008 138.378525,29.5358008 C139.121136,29.5358008 139.687603,29.9804759 139.687603,30.6791079 C139.687603,31.2995917 139.301285,31.7491697 138.524646,32.5552683 L136.071627,35.0274973 L136.071627,35.8092808 Z" id="Path" fill="#113287" fill-rule="nonzero"></path>
            <path d="M144.427504,35.9069412 C145.903719,35.9069412 146.949579,34.9054218 146.949579,33.5129606 C146.949579,32.1497175 145.967771,31.1628071 144.633673,31.1579041 C144.09523,31.1628071 143.59682,31.353425 143.303579,31.6368002 L143.235523,31.6368002 L143.469715,29.6530734 L146.588282,29.6530734 L146.588282,28.7346053 L142.580984,28.7346053 L142.121606,32.6725408 L143.137442,32.6725408 C143.37764,32.2376718 143.811997,32.047154 144.379464,32.047154 C145.268196,32.0569601 145.903719,32.6823469 145.903719,33.5422787 C145.903719,34.3825984 145.288212,35.0030822 144.427504,35.0079852 C143.714917,35.0030822 143.137442,34.5634102 143.079394,33.9624386 L142.033533,33.9624386 C142.082574,35.0910366 143.089402,35.9069412 144.427504,35.9069412 Z" id="Path" fill="#113287" fill-rule="nonzero"></path>
            <path d="M148.532883,35.877623 C148.909192,35.8728201 149.221449,35.5649296 149.226453,35.183894 C149.221449,34.8027583 148.909192,34.4900649 148.532883,34.4900649 C148.151569,34.4900649 147.834308,34.8027583 147.839312,35.183894 C147.834308,35.5649296 148.151569,35.8728201 148.532883,35.877623 Z" id="Path" fill="#113287" fill-rule="nonzero"></path>
            <polygon id="Path" fill="#113287" fill-rule="nonzero" points="150.536532 35.8092808 151.660457 35.8092808 154.808047 29.6921976 154.808047 28.7346053 150.04813 28.7346053 150.04813 29.6530734 153.693129 29.6530734 153.693129 29.7117096"></polygon>
            <path d="M157.515275,32.0959842 C158.468059,32.1057903 158.995493,31.3924491 159.000498,30.3370964 C158.995493,29.3013558 158.487075,28.5831116 157.515275,28.5879897 C156.571498,28.5831116 156.019044,29.3013558 156.029052,30.3370964 C156.019044,31.3875461 156.547479,32.1057903 157.515275,32.0959842 Z M156.830712,35.8092808 L157.720444,35.8092808 L162.577441,28.7346053 L161.68871,28.7346053 L156.830712,35.8092808 Z M156.830712,30.3370964 C156.835716,29.7068066 157.060901,29.2817437 157.515275,29.2720377 C157.988665,29.2671347 158.18883,29.7020036 158.18883,30.3370964 C158.18883,30.9868983 157.974653,31.4071582 157.515275,31.4119612 C157.060901,31.4071582 156.835716,30.9868983 156.830712,30.3370964 Z M160.495728,34.1968836 C160.490724,35.2376272 161.019159,35.9558714 161.981951,35.9558714 C162.934736,35.9558714 163.46217,35.2425302 163.467174,34.1968836 C163.46217,33.1513369 162.948747,32.4331928 161.981951,32.4379718 C161.038175,32.4331928 160.490724,33.1513369 160.495728,34.1968836 Z M161.297388,34.1968836 C161.302392,33.5568877 161.531581,33.1318249 161.981951,33.1220188 C162.455341,33.1220188 162.655506,33.5519847 162.655506,34.1968836 C162.655506,34.8369794 162.440329,35.2620423 161.981951,35.2620423 C161.526577,35.2620423 161.302392,34.8369794 161.297388,34.1968836 Z" id="Shape" fill="#113287" fill-rule="nonzero"></path>
            <polygon id="Path" fill="#113287" points="14.3707644 64.2916961 14.3706643 0.252109921 16.3723117 0.252109921 16.3724118 64.2916961"></polygon>
            <polygon id="Path" fill="#113287" points="735.953341 64.2916961 735.953341 0.252109921 737.954989 0.252109921 737.954989 64.2916961"></polygon>
            <polygon id="Path" fill="#979797" points="255.068563 64.0396402 255.068563 0 256.069387 0 256.069387 64.0396402"></polygon>
            <polygon id="Path" fill="#979797" points="496.267075 64.0396402 496.267075 0 497.267898 0 497.267898 64.0396402"></polygon>
        </g>
    </g>
</svg>