<?xml version="1.0" encoding="UTF-8"?>
<svg width="744px" height="78px" viewBox="0 0 744 78" version="1.1" xmlns="http://www.w3.org/2000/svg" xmlns:xlink="http://www.w3.org/1999/xlink">
    <title>astigmatismAxis</title>
    <g id="astigmatismAxis" stroke="none" stroke-width="1" fill="none" fill-rule="evenodd">
        <g id="AGE_50_59" transform="translate(0.000000, 0.000000)">
            <path d="M2.33981271,76.3870766 C3.81319534,76.3870766 4.67523481,75.1998423 4.67962843,73.1155531 C4.67523481,71.0444721 3.80000448,69.8440297 2.33981271,69.8440297 C0.875237338,69.8440297 0,71.0444721 0,73.1155531 C0,75.1998423 0.866440097,76.3870766 2.33981271,76.3870766 Z M0.967593348,73.1155531 C0.967593348,71.532574 1.48217686,70.6662382 2.33981271,70.6618355 C3.19305495,70.6662382 3.71204208,71.532574 3.71204208,73.1155531 C3.71204208,74.702935 3.19745857,75.5516599 2.33981271,75.5516599 C1.47778324,75.5516599 0.963199732,74.702935 0.967593348,73.1155531 Z" id="Shape" fill="#113287" fill-rule="nonzero"></path>
            <path d="M7.06343034,72.8077848 C7.87268638,72.8121655 8.52801573,72.1569602 8.52363417,71.3478598 C8.52801573,70.5387594 7.87268638,69.8835541 7.06343034,69.8791514 C6.25417431,69.8835541 5.59884496,70.5387594 5.60322652,71.3478598 C5.59884496,72.1569602 6.25417431,72.8121655 7.06343034,72.8077848 Z M6.30694774,71.3478598 C6.31135137,70.9301014 6.64560647,70.5958947 7.06343034,70.6002974 C7.48125422,70.5958947 7.81551933,70.9301014 7.8111157,71.3478598 C7.81551933,71.7612155 7.48125422,72.0997248 7.06343034,72.1041276 C6.64560647,72.0997248 6.31135137,71.7612155 6.30694774,71.3478598 Z" id="Shape" fill="#113287" fill-rule="nonzero"></path>
            <polygon id="Path" fill="#113287" fill-rule="nonzero" points="12.0069189 69.6328991 11.1713312 69.6328991 9.12176439 77.2577151 9.95743216 77.2577151"></polygon>
            <polygon id="Path" fill="#113287" fill-rule="nonzero" points="15.1120745 69.931884 14.1620927 69.931884 12.5786895 70.9697259 12.5786895 71.893097 14.1004419 70.8992823 14.1356709 70.8992823 14.1356709 76.2991222 15.1120745 76.2991222"></polygon>
            <path d="M18.9560382,76.3870766 C20.3194603,76.3870766 21.2914603,75.6395143 21.2958639,74.6017724 C21.2914603,73.7839666 20.7020752,73.1155531 19.9587635,73.0011824 L19.9587635,72.9660607 C20.6008919,72.8165682 21.0451576,72.2361092 21.0495612,71.5412794 C21.0451576,70.560773 20.1567264,69.8440297 18.9560382,69.8440297 C17.7377355,69.8440297 16.8537079,70.560773 16.8537079,71.5412794 C16.8537079,72.2361092 17.2891663,72.8165682 17.9445057,72.9660607 L17.9445057,73.0011824 C17.1923867,73.1155531 16.6074052,73.7839666 16.6162125,74.6017724 C16.6074052,75.6395143 17.5705979,76.3870766 18.9560382,76.3870766 Z M17.6014233,74.5314289 C17.5882124,73.8762236 18.1643866,73.3969272 18.9560382,73.3969272 C19.7388825,73.3969272 20.3106531,73.8762236 20.3106531,74.5314289 C20.3106531,75.1558151 19.7829187,75.5867816 18.9560382,75.5867816 C18.1159468,75.5867816 17.5882124,75.1558151 17.6014233,74.5314289 Z M17.7948825,71.6292338 C17.7992862,71.0356667 18.2567627,70.6311165 18.9560382,70.6355192 C19.6376992,70.6311165 20.103983,71.0356667 20.0995794,71.6292338 C20.103983,72.2273037 19.6201848,72.6362567 18.9560382,72.631854 C18.2742771,72.6362567 17.7992862,72.222901 17.7948825,71.6292338 Z" id="Shape" fill="#113287" fill-rule="nonzero"></path>
            <path d="M24.5153136,76.3870766 C25.9886262,76.3870766 26.8507357,75.1998423 26.8551393,73.1155531 C26.8507357,71.0444721 25.9755154,69.8440297 24.5153136,69.8440297 C23.0507082,69.8440297 22.1754879,71.0444721 22.1754879,73.1155531 C22.1754879,75.1998423 23.0419009,76.3870766 24.5153136,76.3870766 Z M23.1430842,73.1155531 C23.1430842,71.532574 23.6576077,70.6662382 24.5153136,70.6618355 C25.3685158,70.6662382 25.887543,71.532574 25.887543,73.1155531 C25.887543,74.702935 25.3729194,75.5516599 24.5153136,75.5516599 C23.6533041,75.5516599 23.1386806,74.702935 23.1430842,73.1155531 Z" id="Shape" fill="#113287" fill-rule="nonzero"></path>
            <path d="M29.2389012,72.8077848 C30.0481672,72.8121655 30.7035066,72.1569602 30.699125,71.3478598 C30.7035066,70.5387594 30.0481672,69.8835541 29.2389012,69.8791514 C28.4296352,69.8835541 27.7742958,70.5387594 27.7786774,71.3478598 C27.7742958,72.1569602 28.4296352,72.8121655 29.2389012,72.8077848 Z M28.4823786,71.3478598 C28.4867822,70.9301014 28.8210573,70.5958947 29.2389012,70.6002974 C29.6567451,70.5958947 29.9910202,70.9301014 29.9866166,71.3478598 C29.9910202,71.7612155 29.6567451,72.0997248 29.2389012,72.1041276 C28.8210573,72.0997248 28.4867822,71.7612155 28.4823786,71.3478598 Z" id="Shape" fill="#113287" fill-rule="nonzero"></path>
            <path d="M239.604837,76.4809347 C240.923922,76.4809347 241.904729,75.7025532 241.90075,74.6427978 C241.904729,73.8382001 241.399313,73.2533384 240.528597,73.1301622 L240.528597,73.086235 C241.214161,72.9147289 241.663531,72.395808 241.654523,71.6702592 C241.663531,70.7292772 240.875883,69.9377876 239.622851,69.9377876 C238.434874,69.9377876 237.476085,70.6413228 237.450063,71.6790646 L238.38183,71.6790646 C238.403848,71.1031084 238.976319,70.7468881 239.613844,70.7468881 C240.286397,70.7468881 240.721756,71.1426329 240.721756,71.7230919 C240.721756,72.3342699 240.21634,72.7388201 239.490743,72.7344174 L238.945294,72.7344174 L238.945294,73.525907 L239.490743,73.525907 C240.400491,73.5303097 240.923922,73.9788871 240.923922,74.607676 C240.923922,75.2276595 240.365463,75.6454179 239.595829,75.6454179 C238.883243,75.6454179 238.329787,75.2891976 238.294758,74.7307522 L237.308947,74.7307522 C237.34898,75.7728968 238.285751,76.4809347 239.604837,76.4809347 Z" id="Path" fill="#113287" fill-rule="nonzero"></path>
            <path d="M245.181426,76.4809347 C246.655639,76.4809347 247.517349,75.2936003 247.521352,73.2093111 C247.517349,71.1382301 246.641628,69.9377876 245.181426,69.9377876 C243.717221,69.9377876 242.8415,71.1382301 242.8415,73.2093111 C242.8415,75.2936003 243.708214,76.4809347 245.181426,76.4809347 Z M243.809274,73.2093111 C243.809274,71.626332 244.32372,70.7600963 245.181426,70.7556935 C246.035129,70.7600963 246.553555,71.626332 246.553555,73.2093111 C246.553555,74.796793 246.039132,75.6454179 245.181426,75.6454179 C244.319717,75.6454179 243.805294,74.796793 243.809274,73.2093111 Z" id="Shape" fill="#113287" fill-rule="nonzero"></path>
            <path d="M249.905314,72.9015428 C250.71498,72.9059235 251.369519,72.2507182 251.365534,71.4416178 C251.369519,70.6325173 250.71498,69.9774122 249.905314,69.9730094 C249.095648,69.9774122 248.441109,70.6325173 248.445094,71.4416178 C248.441109,72.2507182 249.095648,72.9059235 249.905314,72.9015428 Z M249.148691,71.4416178 C249.153695,71.0238594 249.487971,70.6897527 249.905314,70.6941555 C250.323658,70.6897527 250.657933,71.0238594 250.652929,71.4416178 C250.657933,71.8549735 250.323658,72.1935829 249.905314,72.1979856 C249.487971,72.1935829 249.153695,71.8549735 249.148691,71.4416178 Z" id="Shape" fill="#113287" fill-rule="nonzero"></path>
            <polygon id="Path" fill="#113287" fill-rule="nonzero" points="254.849383 69.7267571 254.013695 69.7267571 251.964008 77.3515732 252.799696 77.3515732"></polygon>
            <polygon id="Path" fill="#113287" fill-rule="nonzero" points="257.953938 70.025742 257.004157 70.025742 255.420853 71.0634839 255.420853 71.9869551 256.942105 70.9931404 256.977134 70.9931404 256.977134 76.3929803 257.953938 76.3929803"></polygon>
            <path d="M261.736051,76.4809347 C263.065145,76.4809347 264.005919,75.5794771 264.005919,74.3262019 C264.005919,73.0994432 263.122192,72.2111938 261.921203,72.2067911 C261.437805,72.2111938 260.988436,72.3826999 260.725219,72.6376576 L260.663168,72.6376576 L260.874342,70.8524534 L263.680651,70.8524534 L263.680651,70.025742 L260.073683,70.025742 L259.660343,73.5699342 L260.575095,73.5699342 C260.791273,73.1785921 261.182595,73.0070861 261.692015,73.0070861 C262.492674,73.0158915 263.065145,73.5787396 263.065145,74.3526183 C263.065145,75.1089861 262.510688,75.6674315 261.736051,75.6718342 C261.094523,75.6674315 260.575095,75.2716867 260.522052,74.7307522 L259.581278,74.7307522 C259.625314,75.7465805 260.531059,76.4809347 261.736051,76.4809347 Z" id="Path" fill="#113287" fill-rule="nonzero"></path>
            <path d="M267.25159,76.4809347 C268.724803,76.4809347 269.587513,75.2936003 269.591516,73.2093111 C269.587513,71.1382301 268.711792,69.9377876 267.25159,69.9377876 C265.787385,69.9377876 264.911665,71.1382301 264.911665,73.2093111 C264.911665,75.2936003 265.778378,76.4809347 267.25159,76.4809347 Z M265.879438,73.2093111 C265.879438,71.626332 266.393884,70.7600963 267.25159,70.7556935 C268.105293,70.7600963 268.62372,71.626332 268.62372,73.2093111 C268.62372,74.796793 268.109296,75.6454179 267.25159,75.6454179 C266.389881,75.6454179 265.875458,74.796793 265.879438,73.2093111 Z" id="Shape" fill="#113287" fill-rule="nonzero"></path>
            <path d="M271.975478,72.9015428 C272.784144,72.9059235 273.439683,72.2507182 273.435698,71.4416178 C273.439683,70.6325173 272.784144,69.9774122 271.975478,69.9730094 C271.165812,69.9774122 270.510272,70.6325173 270.515248,71.4416178 C270.510272,72.2507182 271.165812,72.9059235 271.975478,72.9015428 Z M271.218855,71.4416178 C271.222859,71.0238594 271.557134,70.6897527 271.975478,70.6941555 C272.392822,70.6897527 272.727097,71.0238594 272.723094,71.4416178 C272.727097,71.8549735 272.392822,72.1935829 271.975478,72.1979856 C271.557134,72.1935829 271.222859,71.8549735 271.218855,71.4416178 Z" id="Shape" fill="#113287" fill-rule="nonzero"></path>
            <path d="M480.623199,76.3871376 C481.991325,76.3958821 482.901074,75.4504973 482.901074,74.2148331 C482.901074,72.9967797 481.986321,72.1261412 480.851387,72.1217385 C480.160819,72.1261412 479.563327,72.442737 479.216041,72.9835715 L479.144983,72.9835715 C479.144983,71.5456822 479.717454,70.6926545 480.702264,70.6882518 C481.344793,70.6926545 481.753129,71.0663857 481.881235,71.5853067 L482.840024,71.5853067 C482.6899,70.5738811 481.876231,69.8440297 480.702264,69.8440297 C479.176008,69.8440297 478.217219,71.1104129 478.213216,73.3265837 C478.213216,75.6791388 479.444229,76.3782712 480.623199,76.3871376 Z M479.260078,74.2412494 C479.268084,73.5333115 479.862573,72.9088253 480.640213,72.9132037 C481.405844,72.9088253 481.9603,73.5024925 481.9603,74.232444 C481.9603,74.9756036 481.383825,75.5735735 480.614192,75.5779762 C479.831548,75.5735735 479.264081,74.9491873 479.260078,74.2412494 Z" id="Shape" fill="#113287" fill-rule="nonzero"></path>
            <path d="M486.146745,76.3870766 C487.620959,76.3870766 488.482668,75.1998423 488.486671,73.1155531 C488.482668,71.0444721 487.606947,69.8440297 486.146745,69.8440297 C484.68254,69.8440297 483.80782,71.0444721 483.80782,73.1155531 C483.80782,75.1998423 484.673533,76.3870766 486.146745,76.3870766 Z M484.774593,73.1155531 C484.774593,71.532574 485.289039,70.6662382 486.146745,70.6618355 C487.000448,70.6662382 487.519876,71.532574 487.519876,73.1155531 C487.519876,74.702935 487.004451,75.5516599 486.146745,75.5516599 C485.285036,75.5516599 484.770613,74.702935 484.774593,73.1155531 Z" id="Shape" fill="#113287" fill-rule="nonzero"></path>
            <path d="M490.870633,72.8077848 C491.6803,72.8121655 492.335839,72.1569602 492.330863,71.3478598 C492.335839,70.5387594 491.6803,69.8835541 490.870633,69.8791514 C490.061968,69.8835541 489.406428,70.5387594 489.410413,71.3478598 C489.406428,72.1569602 490.061968,72.8121655 490.870633,72.8077848 Z M490.114011,71.3478598 C490.119015,70.9301014 490.45329,70.5958947 490.870633,70.6002974 C491.288978,70.5958947 491.623253,70.9301014 491.618249,71.3478598 C491.623253,71.7612155 491.288978,72.0997248 490.870633,72.1041276 C490.45329,72.0997248 490.119015,71.7612155 490.114011,71.3478598 Z" id="Shape" fill="#113287" fill-rule="nonzero"></path>
            <polygon id="Path" fill="#113287" fill-rule="nonzero" points="495.814702 69.6328991 494.979015 69.6328991 492.929328 77.2577151 493.765015 77.2577151"></polygon>
            <polygon id="Path" fill="#113287" fill-rule="nonzero" points="498.919257 69.931884 497.969476 69.931884 496.386173 70.9697259 496.386173 71.893097 497.907425 70.8992823 497.943454 70.8992823 497.943454 76.2991222 498.919257 76.2991222"></polygon>
            <path d="M500.537589,76.2991222 L504.822116,76.2991222 L504.822116,75.472511 L501.883697,75.472511 L501.883697,75.4196783 L503.176761,74.1092678 C504.372746,72.9352416 504.707021,72.3679908 504.716028,71.6556502 C504.707021,70.622311 503.858322,69.8440297 502.631313,69.8440297 C501.417313,69.8440297 500.529583,70.6135056 500.537589,71.7787263 L501.452342,71.7787263 C501.457346,71.1016075 501.905715,70.65303 502.614299,70.65303 C503.282849,70.65303 503.792268,71.0531775 503.792268,71.6820665 C503.792268,72.2405119 503.444982,72.6450621 502.745406,73.3706109 L500.537589,75.5955871 L500.537589,76.2991222 Z" id="Path" fill="#113287" fill-rule="nonzero"></path>
            <path d="M508.111823,76.3870766 C509.585036,76.3870766 510.446745,75.1998423 510.451749,73.1155531 C510.446745,71.0444721 509.572025,69.8440297 508.111823,69.8440297 C506.646617,69.8440297 505.771897,71.0444721 505.771897,73.1155531 C505.771897,75.1998423 506.638611,76.3870766 508.111823,76.3870766 Z M506.739694,73.1155531 C506.739694,71.532574 507.254117,70.6662382 508.111823,70.6618355 C508.964525,70.6662382 509.483952,71.532574 509.483952,73.1155531 C509.483952,74.702935 508.969529,75.5516599 508.111823,75.5516599 C507.249113,75.5516599 506.73469,74.702935 506.739694,73.1155531 Z" id="Shape" fill="#113287" fill-rule="nonzero"></path>
            <path d="M512.83471,72.8077848 C513.644376,72.8121655 514.299916,72.1569602 514.29494,71.3478598 C514.299916,70.5387594 513.644376,69.8835541 512.83471,69.8791514 C512.026045,69.8835541 511.370505,70.5387594 511.37449,71.3478598 C511.370505,72.1569602 512.026045,72.8121655 512.83471,72.8077848 Z M512.079088,71.3478598 C512.083092,70.9301014 512.417367,70.5958947 512.83471,70.6002974 C513.253054,70.5958947 513.58733,70.9301014 513.583326,71.3478598 C513.58733,71.7612155 513.253054,72.0997248 512.83471,72.1041276 C512.417367,72.0997248 512.083092,71.7612155 512.079088,71.3478598 Z" id="Shape" fill="#113287" fill-rule="nonzero"></path>
            <path d="M732.177233,69.8439689 C730.792093,69.8352242 729.890351,70.7850117 729.890351,71.9986623 C729.890351,73.2167157 730.805104,74.0917569 731.949046,74.0917569 C732.63461,74.0917569 733.233102,73.7663557 733.576385,73.2299239 L733.65545,73.2299239 C733.646443,74.6854241 733.069968,75.5384517 732.089161,75.5428545 C731.447633,75.5384517 731.033292,75.1647206 730.902184,74.6282888 L729.943395,74.6282888 C730.096521,75.6616279 730.915195,76.3871767 732.089161,76.3871767 C733.615417,76.3871767 734.578209,75.1206934 734.578209,72.8869117 C734.574206,70.5563702 733.347196,69.8528351 732.177233,69.8439689 Z M730.831105,71.9811515 C730.827122,71.2512 731.4076,70.6531301 732.177233,70.6531301 C732.955874,70.6531301 733.523341,71.281919 733.523341,71.972346 C733.523341,72.6758812 732.929853,73.3046701 732.159219,73.3002921 C731.385582,73.3046701 730.83613,72.7198084 730.831105,71.9811515 Z" id="Shape" fill="#113287" fill-rule="nonzero"></path>
            <path d="M737.815874,76.3871767 C739.289087,76.3871767 740.150796,75.1999424 740.1558,73.1155531 C740.150796,71.0444721 739.276076,69.8440297 737.815874,69.8440297 C736.350668,69.8440297 735.475948,71.0444721 735.475948,73.1155531 C735.475948,75.1999424 736.342662,76.3871767 737.815874,76.3871767 Z M736.443745,73.1155531 C736.443745,71.532574 736.958168,70.6663383 737.815874,70.6619355 C738.668576,70.6663383 739.188003,71.532574 739.188003,73.1155531 C739.188003,74.703035 738.67358,75.5516599 737.815874,75.5516599 C736.954165,75.5516599 736.438741,74.703035 736.443745,73.1155531 Z" id="Shape" fill="#113287" fill-rule="nonzero"></path>
            <path d="M742.539762,72.8077848 C743.348427,72.8121655 744.003967,72.1569602 743.999982,71.3478598 C744.003967,70.5387594 743.348427,69.8836542 742.539762,69.8792514 C741.730096,69.8836542 741.074556,70.5387594 741.079532,71.3478598 C741.074556,72.1569602 741.730096,72.8121655 742.539762,72.8077848 Z M741.783139,71.3478598 C741.787142,70.9302015 742.121418,70.5959948 742.539762,70.6003975 C742.957105,70.5959948 743.291381,70.9302015 743.287377,71.3478598 C743.291381,71.7612155 742.957105,72.0998249 742.539762,72.1042276 C742.121418,72.0998249 741.787142,71.7612155 741.783139,71.3478598 Z" id="Shape" fill="#113287" fill-rule="nonzero"></path>
            <rect id="Rectangle" fill="#5B6EB4" fill-rule="nonzero" x="496.767486" y="20.2644639" width="240.197687" height="24.0148536"></rect>
            <polygon id="Path" fill="#FFFFFF" fill-rule="nonzero" points="595.256545 31.9201731 590.08629 31.9201731 590.08629 29.3110594 595.178481 29.3110594 595.178481 28.558694 589.158526 28.558694 589.158526 32.6627324 591.689609 32.6627324 591.689609 34.8027561 588.161706 34.8027561 588.161706 35.5649275 596.175301 35.5649275 596.175301 34.8027561 592.608365 34.8027561 592.608365 32.6627324 595.256545 32.6627324"></polygon>
            <path d="M598.139918,28.5098638 L597.212154,28.5098638 L597.212154,32.6627324 L597.924741,32.6627324 C599.229815,32.6676355 600.573921,32.5845841 602.040128,32.2816967 L601.932039,31.5195253 C600.573921,31.8029006 599.327896,31.8810489 598.139918,31.8810489 L598.139918,28.5098638 Z M598.159934,36.4541775 L603.994737,36.4541775 L603.994737,35.7018121 L599.097706,35.7018121 L599.097706,33.5911066 L598.159934,33.5911066 L598.159934,36.4541775 Z M602.762723,34.2066874 L603.691487,34.2066874 L603.691487,31.2361501 L604.962533,31.2361501 L604.962533,30.4446605 L603.691487,30.4446605 L603.691487,27.894183 L602.762723,27.894183 L602.762723,34.2066874 Z" id="Shape" fill="#FFFFFF" fill-rule="nonzero"></path>
            <path d="M608.67659,30.112355 L608.67659,28.6173303 L607.737817,28.6173303 L607.737817,30.112355 C607.737817,31.7832885 606.770021,33.459125 605.391886,34.0699028 L605.959354,34.8515863 C607.010218,34.338669 607.815881,33.2833163 608.222216,31.9983215 C608.632554,33.1953619 609.429209,34.1773693 610.435037,34.6561654 L610.992496,33.9233121 C609.634378,33.3223404 608.666582,31.7100432 608.67659,30.112355 Z M611.784147,36.6594044 L612.712912,36.6594044 L612.712912,27.884477 L611.784147,27.884477 L611.784147,36.6594044 Z" id="Shape" fill="#FFFFFF" fill-rule="nonzero"></path>
            <path d="M619.41743,35.9070071 C620.937681,35.9167451 621.948513,34.8662954 621.948513,33.4933462 C621.948513,32.1400091 620.932677,31.1726108 619.671639,31.1677077 C618.904007,31.1726108 618.23946,31.5244284 617.854143,32.1253 L617.775078,32.1253 C617.775078,30.5277119 618.410601,29.5798256 619.505502,29.5749226 C620.21909,29.5798256 620.673464,29.9950824 620.815581,30.571639 L621.880457,30.571639 C621.71432,29.447944 620.810576,28.6368423 619.505502,28.6368423 C617.810107,28.6368423 616.74423,30.0440127 616.739226,32.5064358 C616.739226,35.1203525 618.107352,35.897233 619.41743,35.9070071 Z M617.902183,33.5226643 C617.912191,32.7360778 618.571734,32.0422486 619.437446,32.0471245 C620.287146,32.0422486 620.902652,32.7018566 620.902652,33.5129583 C620.902652,34.338669 620.263126,35.00308 619.407422,35.007983 C618.537706,35.00308 617.907187,34.3093509 617.902183,33.5226643 Z" id="Shape" fill="#FFFFFF" fill-rule="nonzero"></path>
            <path d="M625.555482,35.906939 C627.192829,35.906939 628.150617,34.5878231 628.155622,32.2718907 C628.150617,29.9706673 627.177817,28.6368423 625.555482,28.6368423 C623.928142,28.6368423 622.955342,29.9706673 622.955342,32.2718907 C622.955342,34.5878231 623.918134,35.906939 625.555482,35.906939 Z M624.030205,32.2718907 C624.030205,30.5130028 624.602697,29.5505075 625.555482,29.5456044 C626.503262,29.5505075 627.079736,30.5130028 627.079736,32.2718907 C627.079736,34.0356816 626.508266,34.9786649 625.555482,34.9786649 C624.597693,34.9786649 624.026223,34.0356816 624.030205,32.2718907 Z" id="Shape" fill="#FFFFFF" fill-rule="nonzero"></path>
            <path d="M629.699892,35.8776209 C630.075201,35.8728179 630.388459,35.5649275 630.393463,35.1838918 C630.388459,34.8027561 630.075201,34.4900627 629.699892,34.4900627 C629.318579,34.4900627 629.000317,34.8027561 629.005321,35.1838918 C629.000317,35.5649275 629.318579,35.8728179 629.699892,35.8776209 Z" id="Path" fill="#FFFFFF" fill-rule="nonzero"></path>
            <path d="M631.488364,34.4314264 L634.928195,34.4314264 L634.928195,35.8092786 L635.945032,35.8092786 L635.945032,34.4314264 L636.912829,34.4314264 L636.912829,33.5226643 L635.945032,33.5226643 L635.945032,28.7346028 L634.615938,28.7346028 L631.488364,33.5617885 L631.488364,34.4314264 Z M632.621297,33.5226643 L632.621297,33.464028 L634.850131,30.0146946 L634.928195,30.0146946 L634.928195,33.5226643 L632.621297,33.5226643 Z" id="Shape" fill="#FFFFFF" fill-rule="nonzero"></path>
            <path d="M639.620057,32.0959819 C640.572841,32.1057879 641.100275,31.3924467 641.105279,30.337094 C641.100275,29.3013534 640.591857,28.5831091 639.620057,28.5879872 C638.67628,28.5831091 638.123826,29.3013534 638.133834,30.337094 C638.123826,31.3875437 638.65226,32.1057879 639.620057,32.0959819 Z M638.935494,35.8092786 L639.825226,35.8092786 L644.682223,28.7346028 L643.793492,28.7346028 L638.935494,35.8092786 Z M638.935494,30.337094 C638.940498,29.7068041 639.165683,29.2817412 639.620057,29.2720352 C640.093447,29.2671322 640.293611,29.7020012 640.293611,30.337094 C640.293611,30.9868959 640.079435,31.4071558 639.620057,31.4119588 C639.165683,31.4071558 638.940498,30.9868959 638.935494,30.337094 Z M642.60051,34.1969814 C642.595506,35.237625 643.123941,35.9558693 644.086733,35.9558693 C645.039517,35.9558693 645.566951,35.2425281 645.571955,34.1969814 C645.566951,33.1513346 645.053529,32.4331904 644.086733,32.4379695 C643.142956,32.4331904 642.595506,33.1513346 642.60051,34.1969814 Z M643.40217,34.1969814 C643.407174,33.5568855 643.636362,33.1318226 644.086733,33.1220165 C644.560123,33.1220165 644.760287,33.5519824 644.760287,34.1969814 C644.760287,34.8369772 644.546111,35.2620401 644.086733,35.2620401 C643.631358,35.2620401 643.407174,34.8369772 643.40217,34.1969814 Z" id="Shape" fill="#FFFFFF" fill-rule="nonzero"></path>
            <rect id="Rectangle" fill="#113287" fill-rule="nonzero" x="255.568975" y="20.2644639" width="241.198511" height="24.0148536"></rect>
            <path d="M351.553973,30.112355 L351.553973,28.6173303 L350.625208,28.6173303 L350.625208,30.112355 C350.620204,31.7149462 349.711456,33.3956858 348.36735,34.0405846 L348.943825,34.7930501 C349.940645,34.2751297 350.708277,33.22468 351.098598,31.9836124 C351.484916,33.1513346 352.222523,34.128539 353.176308,34.6268473 L353.752783,33.884288 C352.447708,33.2490951 351.543965,31.661213 351.553973,30.112355 Z M354.407321,36.6398924 L355.336086,36.6398924 L355.336086,32.1644242 L356.743244,32.1644242 L356.743244,31.3729347 L355.336086,31.3729347 L355.336086,27.884477 L354.407321,27.884477 L354.407321,36.6398924 Z" id="Shape" fill="#FFFFFF" fill-rule="nonzero"></path>
            <path d="M358.492684,28.5098638 L357.563919,28.5098638 L357.563919,32.6627324 L358.277506,32.6627324 C359.582581,32.6676355 360.926687,32.5845841 362.392894,32.2816967 L362.284805,31.5195253 C360.926687,31.8029006 359.680661,31.8810489 358.492684,31.8810489 L358.492684,28.5098638 Z M358.5127,36.4541775 L364.347502,36.4541775 L364.347502,35.7018121 L359.450472,35.7018121 L359.450472,33.5911066 L358.5127,33.5911066 L358.5127,36.4541775 Z M363.115488,34.2066874 L364.044253,34.2066874 L364.044253,31.2361501 L365.315299,31.2361501 L365.315299,30.4446605 L364.044253,30.4446605 L364.044253,27.894183 L363.115488,27.894183 L363.115488,34.2066874 Z" id="Shape" fill="#FFFFFF" fill-rule="nonzero"></path>
            <path d="M369.028355,30.112355 L369.028355,28.6173303 L368.090583,28.6173303 L368.090583,30.112355 C368.090583,31.7832885 367.122786,33.459125 365.744652,34.0699028 L366.312119,34.8515863 C367.361983,34.338669 368.168647,33.2833163 368.573981,31.9983215 C368.985319,33.1953619 369.780974,34.1773693 370.787803,34.6561654 L371.345261,33.9233121 C369.986143,33.3223404 369.019347,31.7100432 369.028355,30.112355 Z M372.136913,36.6594044 L373.065677,36.6594044 L373.065677,27.884477 L372.136913,27.884477 L372.136913,36.6594044 Z" id="Shape" fill="#FFFFFF" fill-rule="nonzero"></path>
            <polygon id="Path" fill="#FFFFFF" fill-rule="nonzero" points="379.8973 28.7346028 378.841431 28.7346028 377.081983 29.887616 377.081983 30.9136506 378.773375 29.8094676 378.812407 29.8094676 378.812407 35.8092786 379.8973 35.8092786"></polygon>
            <path d="M381.538651,34.4314264 L384.979483,34.4314264 L384.979483,35.8092786 L385.99632,35.8092786 L385.99632,34.4314264 L386.963115,34.4314264 L386.963115,33.5226643 L385.99632,33.5226643 L385.99632,28.7346028 L384.666225,28.7346028 L381.538651,33.5617885 L381.538651,34.4314264 Z M382.672584,33.5226643 L382.672584,33.464028 L384.901418,30.0146946 L384.979483,30.0146946 L384.979483,33.5226643 L382.672584,33.5226643 Z" id="Shape" fill="#FFFFFF" fill-rule="nonzero"></path>
            <path d="M388.478362,35.8776209 C388.854672,35.8728179 389.16793,35.5649275 389.171933,35.1838918 C389.16793,34.8027561 388.854672,34.4900627 388.478362,34.4900627 C388.097049,34.4900627 387.779787,34.8027561 387.784792,35.1838918 C387.779787,35.5649275 388.097049,35.8728179 388.478362,35.8776209 Z" id="Path" fill="#FFFFFF" fill-rule="nonzero"></path>
            <path d="M392.719853,35.9070071 C394.240104,35.9167451 395.251937,34.8662954 395.251937,33.4933462 C395.251937,32.1400091 394.2351,31.1726108 392.974062,31.1677077 C392.207431,31.1726108 391.542885,31.5244284 391.156567,32.1253 L391.078502,32.1253 C391.078502,30.5277119 391.713025,29.5798256 392.807926,29.5749226 C393.521513,29.5798256 393.975887,29.9950824 394.118004,30.571639 L395.18288,30.571639 C395.016744,29.447944 394.113,28.6368423 392.807926,28.6368423 C391.11253,28.6368423 390.046653,30.0440127 390.04265,32.5064358 C390.04265,35.1203525 391.410776,35.897233 392.719853,35.9070071 Z M391.205607,33.5226643 C391.214614,32.7360778 391.875158,32.0422486 392.73987,32.0471245 C393.589569,32.0422486 394.206076,32.7018566 394.206076,33.5129583 C394.206076,34.338669 393.565549,35.00308 392.710846,35.007983 C391.840129,35.00308 391.210611,34.3093509 391.205607,33.5226643 Z" id="Shape" fill="#FFFFFF" fill-rule="nonzero"></path>
            <path d="M398.017213,32.0959819 C398.969997,32.1057879 399.498432,31.3924467 399.503436,30.337094 C399.498432,29.3013534 398.990014,28.5831091 398.017213,28.5879872 C397.074437,28.5831091 396.521982,29.3013534 396.531991,30.337094 C396.521982,31.3875437 397.050417,32.1057879 398.017213,32.0959819 Z M397.33365,35.8092786 L398.222382,35.8092786 L403.08038,28.7346028 L402.190648,28.7346028 L397.33365,35.8092786 Z M397.33365,30.337094 C397.338655,29.7068041 397.562839,29.2817412 398.017213,29.2720352 C398.491603,29.2671322 398.691768,29.7020012 398.691768,30.337094 C398.691768,30.9868959 398.476591,31.4071558 398.017213,31.4119588 C397.562839,31.4071558 397.338655,30.9868959 397.33365,30.337094 Z M400.998667,34.1969814 C400.993663,35.237625 401.521097,35.9558693 402.483889,35.9558693 C403.436673,35.9558693 403.965108,35.2425281 403.970112,34.1969814 C403.965108,33.1513346 403.451686,32.4331904 402.483889,32.4379695 C401.541113,32.4331904 400.993663,33.1513346 400.998667,34.1969814 Z M401.800327,34.1969814 C401.80433,33.5568855 402.034519,33.1318226 402.483889,33.1220165 C402.95828,33.1220165 403.158444,33.5519824 403.158444,34.1969814 C403.158444,34.8369772 402.943267,35.2620401 402.483889,35.2620401 C402.029515,35.2620401 401.80433,34.8369772 401.800327,34.1969814 Z" id="Shape" fill="#FFFFFF" fill-rule="nonzero"></path>
            <rect id="Rectangle" fill="#E2E6F6" fill-rule="nonzero" x="15.371488" y="20.2644639" width="240.197687" height="24.0148536"></rect>
            <path d="M110.981977,29.45765 L110.981977,29.213399 L112.907562,29.213399 L112.907562,28.4609335 L108.079589,28.4609335 L108.079589,29.213399 L110.044206,29.213399 L110.044206,29.45765 C110.039201,30.6448844 109.19851,31.7881915 107.835388,32.2621847 L108.313781,32.9754258 C109.355639,32.6089992 110.132278,31.8566338 110.527603,30.9087476 C110.92393,31.7881915 111.686557,32.4771176 112.692385,32.8093231 L113.17178,32.0862759 C111.817665,31.661213 110.981977,30.5814451 110.981977,29.45765 Z M109.066401,34.3630841 L114.070519,34.3630841 L114.070519,36.6398924 L114.999284,36.6398924 L114.999284,33.6106187 L109.066401,33.6106187 L109.066401,34.3630841 Z M114.070519,33.1709468 L114.999284,33.1709468 L114.999284,27.884477 L114.070519,27.884477 L114.070519,33.1709468 Z" id="Shape" fill="#113287" fill-rule="nonzero"></path>
            <path d="M117.71652,28.5098638 L116.787756,28.5098638 L116.787756,32.6627324 L117.501343,32.6627324 C118.806417,32.6676355 120.150523,32.5845841 121.615729,32.2816967 L121.508641,31.5195253 C120.150523,31.8029006 118.904498,31.8810489 117.71652,31.8810489 L117.71652,28.5098638 Z M117.736536,36.4541775 L123.571339,36.4541775 L123.571339,35.7018121 L118.674308,35.7018121 L118.674308,33.5911066 L117.736536,33.5911066 L117.736536,36.4541775 Z M122.339325,34.2066874 L123.268089,34.2066874 L123.268089,31.2361501 L124.538134,31.2361501 L124.538134,30.4446605 L123.268089,30.4446605 L123.268089,27.894183 L122.339325,27.894183 L122.339325,34.2066874 Z" id="Shape" fill="#113287" fill-rule="nonzero"></path>
            <path d="M128.252191,30.112355 L128.252191,28.6173303 L127.314419,28.6173303 L127.314419,30.112355 C127.314419,31.7832885 126.346623,33.459125 124.968489,34.0699028 L125.534955,34.8515863 C126.58582,34.338669 127.392484,33.2833163 127.797817,31.9983215 C128.208155,33.1953619 129.004811,34.1773693 130.011639,34.6561654 L130.569098,33.9233121 C129.209979,33.3223404 128.243184,31.7100432 128.252191,30.112355 Z M131.360749,36.6594044 L132.289514,36.6594044 L132.289514,27.884477 L131.360749,27.884477 L131.360749,36.6594044 Z" id="Shape" fill="#113287" fill-rule="nonzero"></path>
            <polygon id="Path" fill="#113287" fill-rule="nonzero" points="139.121136 28.7346028 138.065267 28.7346028 136.305819 29.887616 136.305819 30.9136506 137.997211 29.8094676 138.036244 29.8094676 138.036244 35.8092786 139.121136 35.8092786"></polygon>
            <path d="M143.430683,35.906939 C144.89689,35.906939 145.986787,35.0422042 145.981816,33.8646758 C145.986787,32.9706229 145.425325,32.3208209 144.457528,32.1839363 L144.457528,32.1351061 C145.219155,31.9445882 145.718566,31.3680316 145.708558,30.561833 C145.718566,29.5162863 144.842846,28.6368423 143.4507,28.6368423 C142.131614,28.6368423 141.065737,29.4186259 141.036713,30.571639 L142.072566,30.571639 C142.096585,29.9316432 142.732108,29.5357984 143.440692,29.5357984 C144.188307,29.5357984 144.672705,29.9755704 144.672705,30.6204693 C144.672705,31.2995893 144.110243,31.7491674 143.303579,31.7442643 L142.69808,31.7442643 L142.69808,32.6237083 L143.303579,32.6237083 C144.315411,32.6286113 144.89689,33.1269195 144.89689,33.8256517 C144.89689,34.5144778 144.276379,34.9786649 143.421676,34.9786649 C142.630024,34.9786649 142.013517,34.5829201 141.974485,33.9624363 L140.880585,33.9624363 C140.92362,35.1203525 141.965477,35.906939 143.430683,35.906939 Z" id="Path" fill="#113287" fill-rule="nonzero"></path>
            <path d="M147.64315,35.8776209 C148.01946,35.8728179 148.332718,35.5649275 148.337722,35.1838918 C148.332718,34.8027561 148.01946,34.4900627 147.64315,34.4900627 C147.261836,34.4900627 146.944575,34.8027561 146.949579,35.1838918 C146.944575,35.5649275 147.261836,35.8728179 147.64315,35.8776209 Z" id="Path" fill="#113287" fill-rule="nonzero"></path>
            <path d="M151.816585,35.906939 C153.331832,35.906939 154.411721,35.0764253 154.416725,33.9233121 C154.411721,33.01455 153.757182,32.2718907 152.931503,32.1449121 L152.931503,32.1057879 C153.644089,31.9396852 154.138496,31.2947863 154.142499,30.5228088 C154.138496,29.4332349 153.150683,28.6368423 151.816585,28.6368423 C150.463471,28.6368423 149.480663,29.4332349 149.480663,30.5228088 C149.480663,31.2947863 149.965061,31.9396852 150.69266,32.1057879 L150.69266,32.1449121 C149.856972,32.2718907 149.207438,33.01455 149.217446,33.9233121 C149.207438,35.0764253 150.277318,35.906939 151.816585,35.906939 Z M150.311346,33.8451638 C150.297335,33.1171135 150.936861,32.5845841 151.816585,32.5845841 C152.686301,32.5845841 153.321824,33.1171135 153.321824,33.8451638 C153.321824,34.5388929 152.735341,35.0177891 151.816585,35.0177891 C150.883817,35.0177891 150.297335,34.5388929 150.311346,33.8451638 Z M150.526523,30.6204693 C150.531527,29.9609613 151.039946,29.5113833 151.816585,29.5162863 C152.574209,29.5113833 153.092635,29.9609613 153.087631,30.6204693 C153.092635,31.2849803 152.555193,31.7393613 151.816585,31.7344583 C151.058962,31.7393613 150.531527,31.2800772 150.526523,30.6204693 Z" id="Shape" fill="#113287" fill-rule="nonzero"></path>
            <path d="M157.152977,32.0959819 C158.105761,32.1057879 158.634196,31.3924467 158.6392,30.337094 C158.634196,29.3013534 158.125778,28.5831091 157.152977,28.5879872 C156.210201,28.5831091 155.657746,29.3013534 155.667755,30.337094 C155.657746,31.3875437 156.18518,32.1057879 157.152977,32.0959819 Z M156.469414,35.8092786 L157.358146,35.8092786 L162.216144,28.7346028 L161.326412,28.7346028 L156.469414,35.8092786 Z M156.469414,30.337094 C156.474419,29.7068041 156.698603,29.2817412 157.152977,29.2720352 C157.627367,29.2671322 157.827532,29.7020012 157.827532,30.337094 C157.827532,30.9868959 157.612355,31.4071558 157.152977,31.4119588 C156.698603,31.4071558 156.474419,30.9868959 156.469414,30.337094 Z M160.134431,34.1969814 C160.129427,35.237625 160.656861,35.9558693 161.619653,35.9558693 C162.572437,35.9558693 163.100872,35.2425281 163.105876,34.1969814 C163.100872,33.1513346 162.58745,32.4331904 161.619653,32.4379695 C160.676877,32.4331904 160.129427,33.1513346 160.134431,34.1969814 Z M160.936091,34.1969814 C160.940094,33.5568855 161.170283,33.1318226 161.619653,33.1220165 C162.094044,33.1220165 162.294208,33.5519824 162.294208,34.1969814 C162.294208,34.8369772 162.079031,35.2620401 161.619653,35.2620401 C161.165279,35.2620401 160.940094,34.8369772 160.936091,34.1969814 Z" id="Shape" fill="#113287" fill-rule="nonzero"></path>
            <polygon id="Path" fill="#113287" points="14.3707644 64.2916954 14.3706643 0.252108933 16.3723117 0.252108933 16.3724118 64.2916954"></polygon>
            <polygon id="Path" fill="#113287" points="735.953341 64.2916954 735.953341 0.252108933 737.954989 0.252108933 737.954989 64.2916954"></polygon>
            <polygon id="Path" fill="#979797" points="255.068563 64.0396395 255.068563 0 256.069387 0 256.069387 64.0396395"></polygon>
            <polygon id="Path" fill="#979797" points="496.267075 64.0396395 496.267075 0 497.267898 0 497.267898 64.0396395"></polygon>
        </g>
    </g>
</svg>