<svg width="744" height="78" viewBox="0 0 744 78" fill="none" xmlns="http://www.w3.org/2000/svg">
<rect width="744" height="78" fill="#727272"/>
<path d="M-2431 -1697C-2431 -1698.1 -2430.1 -1699 -2429 -1699H884C885.104 -1699 886 -1698.1 886 -1697V273C886 274.105 885.104 275 884 275H-2429C-2430.1 275 -2431 274.105 -2431 273V-1697Z" fill="white"/>
<g clip-path="url(#clip0_1814_2379)">
<path d="M2.33981 76.3871C3.8132 76.3871 4.67523 75.1999 4.67963 73.1156C4.67523 71.0444 3.8 69.844 2.33981 69.844C0.875237 69.844 0 71.0444 0 73.1156C0 75.1999 0.86644 76.3871 2.33981 76.3871ZM0.967593 73.1156C0.967593 71.5325 1.48218 70.6663 2.33981 70.6619C3.19305 70.6663 3.71204 71.5325 3.71204 73.1156C3.71204 74.703 3.19746 75.5516 2.33981 75.5516C1.47778 75.5516 0.9632 74.703 0.967593 73.1156Z" fill="#113287"/>
<path d="M7.06344 72.8077C7.87269 72.8121 8.52802 72.157 8.52364 71.3479C8.52802 70.5388 7.87269 69.8836 7.06344 69.8792C6.25418 69.8836 5.59885 70.5388 5.60323 71.3479C5.59885 72.157 6.25418 72.8121 7.06344 72.8077ZM6.30695 71.3479C6.31136 70.9301 6.64561 70.5959 7.06344 70.6003C7.48126 70.5959 7.81553 70.9301 7.81112 71.3479C7.81553 71.7611 7.48126 72.0997 7.06344 72.1041C6.64561 72.0997 6.31136 71.7611 6.30695 71.3479Z" fill="#113287"/>
<path d="M12.0069 69.6328H11.1713L9.12177 77.2576H9.95743L12.0069 69.6328Z" fill="#113287"/>
<path d="M15.1121 69.9319H14.1621L12.5787 70.9696V71.8931L14.1004 70.8993H14.1357V76.2991H15.1121V69.9319Z" fill="#113287"/>
<path d="M18.956 76.3871C20.3194 76.3871 21.2914 75.6396 21.2958 74.6018C21.2914 73.7839 20.702 73.1156 19.9587 73.0012V72.966C20.6009 72.8165 21.0451 72.2362 21.0495 71.5413C21.0451 70.5607 20.1567 69.844 18.956 69.844C17.7377 69.844 16.8537 70.5607 16.8537 71.5413C16.8537 72.2362 17.2891 72.8165 17.9445 72.966V73.0012C17.1924 73.1156 16.6074 73.7839 16.6162 74.6018C16.6074 75.6396 17.5706 76.3871 18.956 76.3871ZM17.6014 74.5315C17.5882 73.8763 18.1644 73.397 18.956 73.397C19.7389 73.397 20.3106 73.8763 20.3106 74.5315C20.3106 75.1559 19.7829 75.5868 18.956 75.5868C18.1159 75.5868 17.5882 75.1559 17.6014 74.5315ZM17.7949 71.6293C17.7993 71.0357 18.2567 70.6312 18.956 70.6355C19.6377 70.6312 20.104 71.0357 20.0996 71.6293C20.104 72.2274 19.6202 72.6363 18.956 72.6319C18.2743 72.6363 17.7993 72.223 17.7949 71.6293Z" fill="#113287"/>
<path d="M24.5153 76.3871C25.9886 76.3871 26.8507 75.1999 26.8551 73.1156C26.8507 71.0444 25.9755 69.844 24.5153 69.844C23.0507 69.844 22.1755 71.0444 22.1755 73.1156C22.1755 75.1999 23.0419 76.3871 24.5153 76.3871ZM23.1431 73.1156C23.1431 71.5325 23.6576 70.6663 24.5153 70.6619C25.3685 70.6663 25.8875 71.5325 25.8875 73.1156C25.8875 74.703 25.3729 75.5516 24.5153 75.5516C23.6533 75.5516 23.1387 74.703 23.1431 73.1156Z" fill="#113287"/>
<path d="M29.2389 72.8077C30.0482 72.8121 30.7035 72.157 30.6992 71.3479C30.7035 70.5388 30.0482 69.8836 29.2389 69.8792C28.4297 69.8836 27.7743 70.5388 27.7787 71.3479C27.7743 72.157 28.4297 72.8121 29.2389 72.8077ZM28.4824 71.3479C28.4868 70.9301 28.8211 70.5959 29.2389 70.6003C29.6568 70.5959 29.9911 70.9301 29.9866 71.3479C29.9911 71.7611 29.6568 72.0997 29.2389 72.1041C28.8211 72.0997 28.4868 71.7611 28.4824 71.3479Z" fill="#113287"/>
<path d="M239.605 76.4808C240.924 76.4808 241.905 75.7025 241.901 74.6428C241.905 73.8381 241.399 73.2533 240.529 73.1301V73.0862C241.214 72.9147 241.664 72.3958 241.655 71.6702C241.664 70.7292 240.876 69.9377 239.623 69.9377C238.435 69.9377 237.476 70.6413 237.45 71.679H238.382C238.404 71.103 238.976 70.7468 239.614 70.7468C240.286 70.7468 240.722 71.1426 240.722 71.723C240.722 72.3342 240.216 72.7388 239.491 72.7344H238.945V73.5259H239.491C240.401 73.5303 240.924 73.9788 240.924 74.6076C240.924 75.2276 240.365 75.6454 239.596 75.6454C238.883 75.6454 238.33 75.2892 238.295 74.7307H237.309C237.349 75.7728 238.286 76.4808 239.605 76.4808Z" fill="#113287"/>
<path d="M245.181 76.4808C246.656 76.4808 247.517 75.2936 247.521 73.2093C247.517 71.1382 246.642 69.9377 245.181 69.9377C243.717 69.9377 242.841 71.1382 242.841 73.2093C242.841 75.2936 243.708 76.4808 245.181 76.4808ZM243.809 73.2093C243.809 71.6263 244.324 70.76 245.181 70.7556C246.035 70.76 246.554 71.6263 246.554 73.2093C246.554 74.7966 246.039 75.6454 245.181 75.6454C244.32 75.6454 243.805 74.7966 243.809 73.2093Z" fill="#113287"/>
<path d="M249.905 72.9015C250.715 72.9059 251.37 72.2507 251.366 71.4416C251.37 70.6325 250.715 69.9773 249.905 69.9729C249.096 69.9773 248.441 70.6325 248.445 71.4416C248.441 72.2507 249.096 72.9059 249.905 72.9015ZM249.149 71.4416C249.154 71.0239 249.488 70.6896 249.905 70.694C250.324 70.6896 250.658 71.0239 250.653 71.4416C250.658 71.855 250.324 72.1936 249.905 72.198C249.488 72.1936 249.154 71.855 249.149 71.4416Z" fill="#113287"/>
<path d="M254.849 69.7266H254.014L251.964 77.3515H252.8L254.849 69.7266Z" fill="#113287"/>
<path d="M257.954 70.0256H257.004L255.421 71.0634V71.9867L256.942 70.993H256.977V76.3929H257.954V70.0256Z" fill="#113287"/>
<path d="M261.736 76.4807C263.065 76.4807 264.006 75.5794 264.006 74.3261C264.006 73.0992 263.122 72.2111 261.921 72.2067C261.438 72.2111 260.988 72.3825 260.725 72.6376H260.663L260.874 70.8522H263.681V70.0256H260.074L259.66 73.5698H260.575C260.791 73.1785 261.183 73.007 261.692 73.007C262.493 73.0158 263.065 73.5786 263.065 74.3525C263.065 75.1089 262.511 75.6673 261.736 75.6717C261.095 75.6673 260.575 75.2715 260.522 74.7306H259.581C259.625 75.7465 260.531 76.4807 261.736 76.4807Z" fill="#113287"/>
<path d="M267.252 76.4808C268.725 76.4808 269.587 75.2936 269.591 73.2093C269.587 71.1382 268.712 69.9377 267.252 69.9377C265.787 69.9377 264.912 71.1382 264.912 73.2093C264.912 75.2936 265.778 76.4808 267.252 76.4808ZM265.879 73.2093C265.879 71.6263 266.394 70.76 267.252 70.7556C268.105 70.76 268.624 71.6263 268.624 73.2093C268.624 74.7966 268.109 75.6454 267.252 75.6454C266.39 75.6454 265.875 74.7966 265.879 73.2093Z" fill="#113287"/>
<path d="M271.975 72.9015C272.784 72.9059 273.44 72.2507 273.436 71.4416C273.44 70.6325 272.784 69.9773 271.975 69.9729C271.166 69.9773 270.51 70.6325 270.515 71.4416C270.51 72.2507 271.166 72.9059 271.975 72.9015ZM271.219 71.4416C271.223 71.0239 271.557 70.6896 271.975 70.694C272.393 70.6896 272.727 71.0239 272.723 71.4416C272.727 71.855 272.393 72.1936 271.975 72.198C271.557 72.1936 271.223 71.855 271.219 71.4416Z" fill="#113287"/>
<path d="M480.623 76.3872C481.991 76.3959 482.901 75.4506 482.901 74.2149C482.901 72.9968 481.986 72.1262 480.851 72.1218C480.161 72.1262 479.563 72.4428 479.216 72.9836H479.145C479.145 71.5457 479.717 70.6927 480.702 70.6883C481.345 70.6927 481.753 71.0665 481.881 71.5854H482.84C482.69 70.5739 481.876 69.844 480.702 69.844C479.176 69.844 478.217 71.1105 478.213 73.3266C478.213 75.6792 479.444 76.3783 480.623 76.3872ZM479.26 74.2413C479.268 73.5333 479.863 72.9089 480.64 72.9133C481.406 72.9089 481.96 73.5026 481.96 74.2325C481.96 74.9756 481.384 75.5736 480.614 75.578C479.832 75.5736 479.264 74.9492 479.26 74.2413Z" fill="#113287"/>
<path d="M486.147 76.3871C487.621 76.3871 488.483 75.1999 488.487 73.1156C488.483 71.0444 487.607 69.844 486.147 69.844C484.683 69.844 483.808 71.0444 483.808 73.1156C483.808 75.1999 484.674 76.3871 486.147 76.3871ZM484.775 73.1156C484.775 71.5325 485.289 70.6663 486.147 70.6619C487 70.6663 487.52 71.5325 487.52 73.1156C487.52 74.703 487.004 75.5516 486.147 75.5516C485.285 75.5516 484.771 74.703 484.775 73.1156Z" fill="#113287"/>
<path d="M490.871 72.8077C491.68 72.8121 492.336 72.157 492.331 71.3479C492.336 70.5388 491.68 69.8836 490.871 69.8792C490.062 69.8836 489.406 70.5388 489.41 71.3479C489.406 72.157 490.062 72.8121 490.871 72.8077ZM490.114 71.3479C490.119 70.9301 490.453 70.5959 490.871 70.6003C491.289 70.5959 491.623 70.9301 491.618 71.3479C491.623 71.7611 491.289 72.0997 490.871 72.1041C490.453 72.0997 490.119 71.7611 490.114 71.3479Z" fill="#113287"/>
<path d="M495.815 69.6328H494.979L492.929 77.2576H493.765L495.815 69.6328Z" fill="#113287"/>
<path d="M498.919 69.9319H497.969L496.386 70.9696V71.8931L497.907 70.8993H497.943V76.2991H498.919V69.9319Z" fill="#113287"/>
<path d="M500.538 76.2992H504.822V75.4725H501.884V75.4197L503.177 74.1093C504.373 72.9353 504.707 72.3681 504.716 71.6557C504.707 70.6224 503.858 69.844 502.631 69.844C501.417 69.844 500.53 70.6136 500.538 71.7788H501.452C501.457 71.1017 501.906 70.6531 502.614 70.6531C503.283 70.6531 503.792 71.0532 503.792 71.682C503.792 72.2406 503.445 72.645 502.745 73.3706L500.538 75.5956V76.2992Z" fill="#113287"/>
<path d="M508.112 76.3871C509.585 76.3871 510.447 75.1999 510.452 73.1156C510.447 71.0444 509.572 69.844 508.112 69.844C506.647 69.844 505.772 71.0444 505.772 73.1156C505.772 75.1999 506.639 76.3871 508.112 76.3871ZM506.74 73.1156C506.74 71.5325 507.254 70.6663 508.112 70.6619C508.965 70.6663 509.484 71.5325 509.484 73.1156C509.484 74.703 508.97 75.5516 508.112 75.5516C507.249 75.5516 506.735 74.703 506.74 73.1156Z" fill="#113287"/>
<path d="M512.835 72.8077C513.644 72.8121 514.3 72.157 514.295 71.3479C514.3 70.5388 513.644 69.8836 512.835 69.8792C512.026 69.8836 511.37 70.5388 511.374 71.3479C511.37 72.157 512.026 72.8121 512.835 72.8077ZM512.079 71.3479C512.083 70.9301 512.417 70.5959 512.835 70.6003C513.253 70.5959 513.587 70.9301 513.583 71.3479C513.587 71.7611 513.253 72.0997 512.835 72.1041C512.417 72.0997 512.083 71.7611 512.079 71.3479Z" fill="#113287"/>
<path d="M732.177 69.8441C730.792 69.8353 729.89 70.7851 729.89 71.9987C729.89 73.2168 730.805 74.0918 731.949 74.0918C732.635 74.0918 733.233 73.7664 733.576 73.23H733.655C733.646 74.6855 733.07 75.5385 732.089 75.5429C731.448 75.5385 731.033 75.1648 730.902 74.6283H729.943C730.097 75.6617 730.915 76.3873 732.089 76.3873C733.615 76.3873 734.578 75.1208 734.578 72.887C734.574 70.5565 733.347 69.8529 732.177 69.8441ZM730.831 71.9811C730.827 71.2512 731.408 70.6532 732.177 70.6532C732.956 70.6532 733.523 71.282 733.523 71.9723C733.523 72.676 732.93 73.3048 732.159 73.3004C731.386 73.3048 730.836 72.7199 730.831 71.9811Z" fill="#113287"/>
<path d="M737.816 76.3871C739.289 76.3871 740.151 75.1998 740.156 73.1155C740.151 71.0444 739.276 69.844 737.816 69.844C736.351 69.844 735.476 71.0444 735.476 73.1155C735.476 75.1998 736.343 76.3871 737.816 76.3871ZM736.444 73.1155C736.444 71.5325 736.958 70.6663 737.816 70.6619C738.669 70.6663 739.188 71.5325 739.188 73.1155C739.188 74.7029 738.674 75.5516 737.816 75.5516C736.954 75.5516 736.439 74.7029 736.444 73.1155Z" fill="#113287"/>
<path d="M742.54 72.8078C743.348 72.8122 744.004 72.157 744 71.3479C744.004 70.5388 743.348 69.8836 742.54 69.8792C741.73 69.8836 741.075 70.5388 741.08 71.3479C741.075 72.157 741.73 72.8122 742.54 72.8078ZM741.783 71.3479C741.787 70.9301 742.121 70.596 742.54 70.6004C742.957 70.596 743.291 70.9301 743.287 71.3479C743.291 71.7612 742.957 72.0998 742.54 72.1042C742.121 72.0998 741.787 71.7612 741.783 71.3479Z" fill="#113287"/>
<path d="M736.965 20.2644H496.767V44.2793H736.965V20.2644Z" fill="#5B6EB4"/>
<path d="M496.767 20.2644H255.569V44.2793H496.767V20.2644Z" fill="#113287"/>
<path d="M255.569 20.2644H15.3715V44.2793H255.569V20.2644Z" fill="#E2E6F6"/>
<path fill-rule="evenodd" clip-rule="evenodd" d="M14.3708 64.2918L14.3707 0.252197H16.3723L16.3724 64.2918H14.3708Z" fill="#113287"/>
<path fill-rule="evenodd" clip-rule="evenodd" d="M735.953 64.2918V0.252197H737.955V64.2918H735.953Z" fill="#113287"/>
<path fill-rule="evenodd" clip-rule="evenodd" d="M255.069 64.0396V0H256.069V64.0396H255.069Z" fill="#979797"/>
<path fill-rule="evenodd" clip-rule="evenodd" d="M496.267 64.0396V0H497.268V64.0396H496.267Z" fill="#979797"/>
<path d="M595.048 32.1133V32.8555H592.401V34.9941H595.966V35.7559H587.958V34.9941H591.483V32.8555H588.954V28.7539H594.97V29.5059H589.882V32.1133H595.048ZM597.929 28.7051V32.0742C599.115 32.0742 600.36 31.9961 601.718 31.7129L601.825 32.4746C600.36 32.7773 599.018 32.8604 597.714 32.8555H597.001V28.7051H597.929ZM597.948 36.6445V33.7832H598.886V35.8926H603.778V36.6445H597.948ZM602.548 34.3984V28.0898H603.476V30.6387H604.745V31.4297H603.476V34.3984H602.548ZM608.456 30.3066C608.446 31.9033 609.413 33.5146 610.771 34.1152L610.214 34.8477C609.208 34.3691 608.412 33.3877 608.002 32.1914C607.597 33.4756 606.791 34.5303 605.741 35.043L605.175 34.2617C606.552 33.6514 607.519 31.9766 607.519 30.3066V28.8125H608.456V30.3066ZM611.562 36.8496V28.0801H612.489V36.8496H611.562ZM619.188 36.0977C617.88 36.0879 616.513 35.3115 616.513 32.6992C616.518 30.2383 617.582 28.832 619.276 28.832C620.58 28.832 621.483 29.6426 621.649 30.7656H620.585C620.443 30.1895 619.989 29.7744 619.276 29.7695C618.183 29.7744 617.548 30.7217 617.548 32.3184H617.626C618.012 31.7178 618.676 31.3662 619.442 31.3613C620.702 31.3662 621.718 32.333 621.718 33.6855C621.718 35.0576 620.707 36.1074 619.188 36.0977ZM617.675 33.7148C617.68 34.501 618.31 35.1943 619.179 35.1992C620.033 35.1943 620.673 34.5303 620.673 33.7051C620.673 32.8945 620.058 32.2354 619.208 32.2402C618.344 32.2354 617.685 32.9287 617.675 33.7148ZM625.331 36.0977C623.793 36.0977 622.724 35.2676 622.733 34.1152C622.724 33.207 623.373 32.4648 624.208 32.3379V32.2988C623.48 32.1328 622.997 31.4883 622.997 30.7168C622.997 29.6279 623.979 28.832 625.331 28.832C626.664 28.832 627.65 29.6279 627.655 30.7168C627.65 31.4883 627.157 32.1328 626.444 32.2988V32.3379C627.27 32.4648 627.924 33.207 627.929 34.1152C627.924 35.2676 626.845 36.0977 625.331 36.0977ZM623.827 34.0371C623.812 34.7305 624.398 35.209 625.331 35.209C626.249 35.209 626.835 34.7305 626.835 34.0371C626.835 33.3096 626.2 32.7773 625.331 32.7773C624.452 32.7773 623.812 33.3096 623.827 34.0371ZM624.042 30.8145C624.047 31.4736 624.574 31.9326 625.331 31.9277C626.068 31.9326 626.605 31.4785 626.601 30.8145C626.605 30.1553 626.088 29.7061 625.331 29.7109C624.555 29.7061 624.047 30.1553 624.042 30.8145ZM629.521 36.0684C629.14 36.0635 628.822 35.7559 628.827 35.375C628.822 34.9941 629.14 34.6816 629.521 34.6816C629.896 34.6816 630.209 34.9941 630.214 35.375C630.209 35.7559 629.896 36.0635 629.521 36.0684ZM633.808 28.832C635.106 28.8418 636.469 29.623 636.474 32.2109C636.474 34.6914 635.404 36.0977 633.71 36.0977C632.406 36.0977 631.498 35.292 631.327 34.1445H632.392C632.538 34.7402 632.997 35.1553 633.71 35.1602C634.799 35.1553 635.438 34.208 635.448 32.5918H635.36C634.979 33.1875 634.315 33.5488 633.554 33.5488C632.284 33.5488 631.269 32.5771 631.269 31.2246C631.269 29.877 632.27 28.8223 633.808 28.832ZM632.313 31.2051C632.318 32.0254 632.929 32.6748 633.788 32.6699C634.643 32.6748 635.302 31.9766 635.302 31.1953C635.302 30.4287 634.672 29.7305 633.808 29.7305C632.953 29.7305 632.309 30.3945 632.313 31.2051ZM639.228 32.2891C638.261 32.2988 637.733 31.5811 637.743 30.5312C637.733 29.4961 638.285 28.7783 639.228 28.7832C640.199 28.7783 640.707 29.4961 640.712 30.5312C640.707 31.5859 640.18 32.2988 639.228 32.2891ZM638.544 36L643.397 28.9297H644.286L639.433 36H638.544ZM638.544 30.5312C638.549 31.1807 638.773 31.6006 639.228 31.6055C639.687 31.6006 639.901 31.1807 639.901 30.5312C639.901 29.8965 639.701 29.4619 639.228 29.4668C638.773 29.4766 638.549 29.9014 638.544 30.5312ZM642.206 34.3887C642.201 33.3438 642.748 32.626 643.69 32.6309C644.657 32.626 645.17 33.3438 645.175 34.3887C645.17 35.4336 644.643 36.1465 643.69 36.1465C642.729 36.1465 642.201 35.4287 642.206 34.3887ZM643.007 34.3887C643.012 35.0283 643.236 35.4531 643.69 35.4531C644.149 35.4531 644.364 35.0283 644.364 34.3887C644.364 33.7441 644.164 33.3145 643.69 33.3145C643.241 33.3242 643.012 33.749 643.007 34.3887Z" fill="white"/>
<path d="M351.677 30.3066C351.667 31.8545 352.57 33.4414 353.874 34.0762L353.298 34.8184C352.346 34.3203 351.608 33.3438 351.223 32.1768C350.832 33.417 350.065 34.4668 349.069 34.9844L348.493 34.2324C349.836 33.5879 350.744 31.9082 350.749 30.3066V28.8125H351.677V30.3066ZM354.528 36.8301V28.0801H355.456V31.5664H356.862V32.3574H355.456V36.8301H354.528ZM358.61 28.7051V32.0742C359.797 32.0742 361.042 31.9961 362.399 31.7129L362.507 32.4746C361.042 32.7773 359.699 32.8604 358.396 32.8555H357.683V28.7051H358.61ZM358.63 36.6445V33.7832H359.567V35.8926H364.46V36.6445H358.63ZM363.229 34.3984V28.0898H364.157V30.6387H365.427V31.4297H364.157V34.3984H363.229ZM369.138 30.3066C369.128 31.9033 370.095 33.5146 371.452 34.1152L370.896 34.8477C369.89 34.3691 369.094 33.3877 368.684 32.1914C368.278 33.4756 367.473 34.5303 366.423 35.043L365.856 34.2617C367.233 33.6514 368.2 31.9766 368.2 30.3066V28.8125H369.138V30.3066ZM372.243 36.8496V28.0801H373.171V36.8496H372.243ZM377.312 36V35.2188L379.763 32.748C380.539 31.9424 380.925 31.4932 380.925 30.873C380.925 30.1748 380.358 29.7305 379.616 29.7305C378.83 29.7305 378.332 30.2285 378.327 30.9805H377.312C377.302 29.6865 378.288 28.832 379.636 28.832C380.998 28.832 381.94 29.6963 381.95 30.8438C381.94 31.6348 381.569 32.2646 380.241 33.5684L378.806 35.0234V35.082H382.067V36H377.312ZM385.944 28.9297V36H384.86V30.0039H384.821L383.132 31.1074V30.082L384.89 28.9297H385.944ZM388.034 36.0684C387.653 36.0635 387.336 35.7559 387.341 35.375C387.336 34.9941 387.653 34.6816 388.034 34.6816C388.41 34.6816 388.723 34.9941 388.728 35.375C388.723 35.7559 388.41 36.0635 388.034 36.0684ZM389.978 36V35.2188L392.429 32.748C393.205 31.9424 393.591 31.4932 393.591 30.873C393.591 30.1748 393.024 29.7305 392.282 29.7305C391.496 29.7305 390.998 30.2285 390.993 30.9805H389.978C389.968 29.6865 390.954 28.832 392.302 28.832C393.664 28.832 394.606 29.6963 394.616 30.8438C394.606 31.6348 394.235 32.2646 392.907 33.5684L391.472 35.0234V35.082H394.733V36H389.978ZM397.546 32.2891C396.579 32.2988 396.052 31.5811 396.062 30.5312C396.052 29.4961 396.604 28.7783 397.546 28.7832C398.518 28.7783 399.025 29.4961 399.03 30.5312C399.025 31.5859 398.498 32.2988 397.546 32.2891ZM396.862 36L401.716 28.9297H402.604L397.751 36H396.862ZM396.862 30.5312C396.867 31.1807 397.092 31.6006 397.546 31.6055C398.005 31.6006 398.22 31.1807 398.22 30.5312C398.22 29.8965 398.02 29.4619 397.546 29.4668C397.092 29.4766 396.867 29.9014 396.862 30.5312ZM400.524 34.3887C400.52 33.3438 401.066 32.626 402.009 32.6309C402.976 32.626 403.488 33.3438 403.493 34.3887C403.488 35.4336 402.961 36.1465 402.009 36.1465C401.047 36.1465 400.52 35.4287 400.524 34.3887ZM401.325 34.3887C401.33 35.0283 401.555 35.4531 402.009 35.4531C402.468 35.4531 402.683 35.0283 402.683 34.3887C402.683 33.7441 402.482 33.3145 402.009 33.3145C401.56 33.3242 401.33 33.749 401.325 34.3887Z" fill="white"/>
<path d="M115.361 29.6523C115.361 30.7754 116.196 31.8545 117.549 32.2793L117.07 33.002C116.064 32.6699 115.303 31.9814 114.907 31.1025C114.512 32.0498 113.735 32.8018 112.695 33.168L112.217 32.4551C113.579 31.9814 114.419 30.8389 114.424 29.6523V29.4082H112.461V28.6562H117.285V29.4082H115.361V29.6523ZM113.447 34.5547V33.8027H119.375V36.8301H118.447V34.5547H113.447ZM118.447 33.3633V28.0801H119.375V33.3633H118.447ZM122.09 28.7051V32.0742C123.276 32.0742 124.521 31.9961 125.879 31.7129L125.986 32.4746C124.521 32.7773 123.179 32.8604 121.875 32.8555H121.162V28.7051H122.09ZM122.109 36.6445V33.7832H123.047V35.8926H127.939V36.6445H122.109ZM126.709 34.3984V28.0898H127.637V30.6387H128.906V31.4297H127.637V34.3984H126.709ZM132.617 30.3066C132.607 31.9033 133.574 33.5146 134.932 34.1152L134.375 34.8477C133.369 34.3691 132.573 33.3877 132.163 32.1914C131.758 33.4756 130.952 34.5303 129.902 35.043L129.336 34.2617C130.713 33.6514 131.68 31.9766 131.68 30.3066V28.8125H132.617V30.3066ZM135.723 36.8496V28.0801H136.65V36.8496H135.723ZM143.477 28.9297V36H142.393V30.0039H142.354L140.664 31.1074V30.082L142.422 28.9297H143.477ZM147.734 36.0977C146.099 36.0977 145.137 34.7793 145.137 32.4648C145.137 30.165 146.108 28.832 147.734 28.832C149.355 28.832 150.327 30.165 150.332 32.4648C150.327 34.7793 149.37 36.0977 147.734 36.0977ZM146.211 32.4648C146.206 34.2275 146.777 35.1699 147.734 35.1699C148.687 35.1699 149.258 34.2275 149.258 32.4648C149.258 30.707 148.682 29.7451 147.734 29.7402C146.782 29.7451 146.211 30.707 146.211 32.4648ZM153.066 32.2891C152.1 32.2988 151.572 31.5811 151.582 30.5312C151.572 29.4961 152.124 28.7783 153.066 28.7832C154.038 28.7783 154.546 29.4961 154.551 30.5312C154.546 31.5859 154.019 32.2988 153.066 32.2891ZM152.383 36L157.236 28.9297H158.125L153.271 36H152.383ZM152.383 30.5312C152.388 31.1807 152.612 31.6006 153.066 31.6055C153.525 31.6006 153.74 31.1807 153.74 30.5312C153.74 29.8965 153.54 29.4619 153.066 29.4668C152.612 29.4766 152.388 29.9014 152.383 30.5312ZM156.045 34.3887C156.04 33.3438 156.587 32.626 157.529 32.6309C158.496 32.626 159.009 33.3438 159.014 34.3887C159.009 35.4336 158.481 36.1465 157.529 36.1465C156.567 36.1465 156.04 35.4287 156.045 34.3887ZM156.846 34.3887C156.851 35.0283 157.075 35.4531 157.529 35.4531C157.988 35.4531 158.203 35.0283 158.203 34.3887C158.203 33.7441 158.003 33.3145 157.529 33.3145C157.08 33.3242 156.851 33.749 156.846 34.3887Z" fill="#113287"/>
</g>
<path d="M-2429 -1698H884V-1700H-2429V-1698ZM885 -1697V273H887V-1697H885ZM884 274H-2429V276H884V274ZM-2430 273V-1697H-2432V273H-2430ZM-2429 274C-2429.55 274 -2430 273.552 -2430 273H-2432C-2432 274.657 -2430.66 276 -2429 276V274ZM885 273C885 273.552 884.552 274 884 274V276C885.657 276 887 274.657 887 273H885ZM884 -1698C884.552 -1698 885 -1697.55 885 -1697H887C887 -1698.66 885.657 -1700 884 -1700V-1698ZM-2429 -1700C-2430.66 -1700 -2432 -1698.66 -2432 -1697H-2430C-2430 -1697.55 -2429.55 -1698 -2429 -1698V-1700Z" fill="black" fill-opacity="0.1"/>
<defs>
<clipPath id="clip0_1814_2379">
<rect width="744" height="78" fill="white"/>
</clipPath>
</defs>
</svg>
