<?xml version="1.0" encoding="UTF-8"?>
<svg width="744px" height="78px" viewBox="0 0 744 78" version="1.1" xmlns="http://www.w3.org/2000/svg" xmlns:xlink="http://www.w3.org/1999/xlink">
    <title>astigmatismAxis</title>
    <g id="astigmatismAxis" stroke="none" stroke-width="1" fill="none" fill-rule="evenodd">
        <g id="AGE_19_29" transform="translate(0.000000, 0.000000)">
            <path d="M2.33981271,76.3870768 C3.81319534,76.3870768 4.67523481,75.1998426 4.67962843,73.1155537 C4.67523481,71.0443729 3.80000448,69.8439306 2.33981271,69.8439306 C0.875237338,69.8439306 0,71.0443729 0,73.1155537 C0,75.1998426 0.866440097,76.3870768 2.33981271,76.3870768 Z M0.967593348,73.1155537 C0.967593348,71.5324747 1.48217686,70.6662391 2.33981271,70.6618363 C3.19305495,70.6662391 3.71204208,71.5324747 3.71204208,73.1155537 C3.71204208,74.7029353 3.19745857,75.5515601 2.33981271,75.5515601 C1.47778324,75.5515601 0.963199732,74.7029353 0.967593348,73.1155537 Z" id="Shape" fill="#113287" fill-rule="nonzero"></path>
            <path d="M7.06343034,72.8077844 C7.87268638,72.812066 8.52801573,72.1569609 8.52363417,71.3478606 C8.52801573,70.5387602 7.87268638,69.8835551 7.06343034,69.8791523 C6.25417431,69.8835551 5.59884496,70.5387602 5.60322652,71.3478606 C5.59884496,72.1569609 6.25417431,72.812066 7.06343034,72.8077844 Z M6.30694774,71.3478606 C6.31135137,70.9301022 6.64560647,70.5958956 7.06343034,70.6002983 C7.48125422,70.5958956 7.81551933,70.9301022 7.8111157,71.3478606 C7.81551933,71.7612162 7.48125422,72.0997255 7.06343034,72.1041282 C6.64560647,72.0997255 6.31135137,71.7612162 6.30694774,71.3478606 Z" id="Shape" fill="#113287" fill-rule="nonzero"></path>
            <polygon id="Path" fill="#113287" fill-rule="nonzero" points="12.0069189 69.6329001 11.1713312 69.6329001 9.12176439 77.2577151 9.95743216 77.2577151"></polygon>
            <polygon id="Path" fill="#113287" fill-rule="nonzero" points="15.1120745 69.931885 14.1620927 69.931885 12.5786895 70.9696267 12.5786895 71.8930977 14.1004419 70.8992832 14.1356709 70.8992832 14.1356709 76.2991224 15.1120745 76.2991224"></polygon>
            <path d="M18.9560382,76.3870768 C20.3194603,76.3870768 21.2914603,75.6395145 21.2958639,74.6017727 C21.2914603,73.783867 20.7020752,73.1155537 19.9587635,73.001183 L19.9587635,72.9660612 C20.6008919,72.8164687 21.0451576,72.2361099 21.0495612,71.5412802 C21.0451576,70.5606738 20.1567264,69.8439306 18.9560382,69.8439306 C17.7377355,69.8439306 16.8537079,70.5606738 16.8537079,71.5412802 C16.8537079,72.2361099 17.2891663,72.8164687 17.9445057,72.9660612 L17.9445057,73.001183 C17.1923867,73.1155537 16.6074052,73.783867 16.6162125,74.6017727 C16.6074052,75.6395145 17.5705979,76.3870768 18.9560382,76.3870768 Z M17.6014233,74.5314292 C17.5882124,73.8762241 18.1643866,73.3969277 18.9560382,73.3969277 C19.7388825,73.3969277 20.3106531,73.8762241 20.3106531,74.5314292 C20.3106531,75.1558154 19.7829187,75.5867819 18.9560382,75.5867819 C18.1159468,75.5867819 17.5882124,75.1558154 17.6014233,74.5314292 Z M17.7948825,71.6292346 C17.7992862,71.0356675 18.2567627,70.6311173 18.9560382,70.6355201 C19.6376992,70.6311173 20.103983,71.0356675 20.0995794,71.6292346 C20.103983,72.2273044 19.6201848,72.6362573 18.9560382,72.6318546 C18.2742771,72.6362573 17.7992862,72.2229017 17.7948825,71.6292346 Z" id="Shape" fill="#113287" fill-rule="nonzero"></path>
            <path d="M24.5153136,76.3870768 C25.9886262,76.3870768 26.8507357,75.1998426 26.8551393,73.1155537 C26.8507357,71.0443729 25.9755154,69.8439306 24.5153136,69.8439306 C23.0507082,69.8439306 22.1754879,71.0443729 22.1754879,73.1155537 C22.1754879,75.1998426 23.0419009,76.3870768 24.5153136,76.3870768 Z M23.1430842,73.1155537 C23.1430842,71.5324747 23.6576077,70.6662391 24.5153136,70.6618363 C25.3685158,70.6662391 25.887543,71.5324747 25.887543,73.1155537 C25.887543,74.7029353 25.3729194,75.5515601 24.5153136,75.5515601 C23.6533041,75.5515601 23.1386806,74.7029353 23.1430842,73.1155537 Z" id="Shape" fill="#113287" fill-rule="nonzero"></path>
            <path d="M29.2389012,72.8077844 C30.0481672,72.812066 30.7035066,72.1569609 30.699125,71.3478606 C30.7035066,70.5387602 30.0481672,69.8835551 29.2389012,69.8791523 C28.4296352,69.8835551 27.7742958,70.5387602 27.7786774,71.3478606 C27.7742958,72.1569609 28.4296352,72.812066 29.2389012,72.8077844 Z M28.4823786,71.3478606 C28.4867822,70.9301022 28.8210573,70.5958956 29.2389012,70.6002983 C29.6567451,70.5958956 29.9910202,70.9301022 29.9866166,71.3478606 C29.9910202,71.7612162 29.6567451,72.0997255 29.2389012,72.1041282 C28.8210573,72.0997255 28.4867822,71.7612162 28.4823786,71.3478606 Z" id="Shape" fill="#113287" fill-rule="nonzero"></path>
            <path d="M239.604837,76.4809348 C240.923922,76.4809348 241.904729,75.7025535 241.90075,74.6427981 C241.904729,73.8381005 241.399313,73.2533389 240.528597,73.1301627 L240.528597,73.0862356 C241.214161,72.9147295 241.663531,72.3958086 241.654523,71.6702599 C241.663531,70.729278 240.875883,69.9377886 239.622851,69.9377886 C238.434874,69.9377886 237.476085,70.6413237 237.450063,71.6790654 L238.38183,71.6790654 C238.403848,71.1030092 238.976319,70.7468889 239.613844,70.7468889 C240.286397,70.7468889 240.721756,71.1426337 240.721756,71.7230926 C240.721756,72.3342706 240.21634,72.7388207 239.490743,72.734418 L238.945294,72.734418 L238.945294,73.5259074 L239.490743,73.5259074 C240.400491,73.5303102 240.923922,73.9788876 240.923922,74.6076764 C240.923922,75.2276598 240.365463,75.6454181 239.595829,75.6454181 C238.883243,75.6454181 238.329787,75.2891978 238.294758,74.7307525 L237.308947,74.7307525 C237.34898,75.772897 238.285751,76.4809348 239.604837,76.4809348 Z" id="Path" fill="#113287" fill-rule="nonzero"></path>
            <path d="M245.181426,76.4809348 C246.655639,76.4809348 247.517349,75.2936006 247.521352,73.2093117 C247.517349,71.1382309 246.641628,69.9377886 245.181426,69.9377886 C243.717221,69.9377886 242.8415,71.1382309 242.8415,73.2093117 C242.8415,75.2936006 243.708214,76.4809348 245.181426,76.4809348 Z M243.809274,73.2093117 C243.809274,71.6263328 244.32372,70.7600971 245.181426,70.7556944 C246.035129,70.7600971 246.553555,71.6263328 246.553555,73.2093117 C246.553555,74.7966933 246.039132,75.6454181 245.181426,75.6454181 C244.319717,75.6454181 243.805294,74.7966933 243.809274,73.2093117 Z" id="Shape" fill="#113287" fill-rule="nonzero"></path>
            <path d="M249.905314,72.9015434 C250.71498,72.9059241 251.369519,72.2507189 251.365534,71.4416185 C251.369519,70.6325182 250.71498,69.977313 249.905314,69.9729103 C249.095648,69.977313 248.441109,70.6325182 248.445094,71.4416185 C248.441109,72.2507189 249.095648,72.9059241 249.905314,72.9015434 Z M249.148691,71.4416185 C249.153695,71.0238602 249.487971,70.6897536 249.905314,70.6941563 C250.323658,70.6897536 250.657933,71.0238602 250.652929,71.4416185 C250.657933,71.8549742 250.323658,72.1935836 249.905314,72.1979863 C249.487971,72.1935836 249.153695,71.8549742 249.148691,71.4416185 Z" id="Shape" fill="#113287" fill-rule="nonzero"></path>
            <polygon id="Path" fill="#113287" fill-rule="nonzero" points="254.849383 69.7267581 254.013695 69.7267581 251.964008 77.3515732 252.799696 77.3515732"></polygon>
            <polygon id="Path" fill="#113287" fill-rule="nonzero" points="257.953938 70.025743 257.004157 70.025743 255.420853 71.0634847 255.420853 71.9868557 256.942105 70.9931412 256.977134 70.9931412 256.977134 76.3929804 257.953938 76.3929804"></polygon>
            <path d="M261.736051,76.4809348 C263.065145,76.4809348 264.005919,75.5794773 264.005919,74.3262023 C264.005919,73.0994437 263.122192,72.2111944 261.921203,72.2067917 C261.437805,72.2111944 260.988436,72.3827005 260.725219,72.6376582 L260.663168,72.6376582 L260.874342,70.8524542 L263.680651,70.8524542 L263.680651,70.025743 L260.073683,70.025743 L259.660343,73.5699347 L260.575095,73.5699347 C260.791273,73.1785927 261.182595,73.0070866 261.692015,73.0070866 C262.492674,73.0158921 263.065145,73.5787401 263.065145,74.3526187 C263.065145,75.1089864 262.510688,75.6674317 261.736051,75.6718345 C261.094523,75.6674317 260.575095,75.271687 260.522052,74.7307525 L259.581278,74.7307525 C259.625314,75.7465807 260.531059,76.4809348 261.736051,76.4809348 Z" id="Path" fill="#113287" fill-rule="nonzero"></path>
            <path d="M267.25159,76.4809348 C268.724803,76.4809348 269.587513,75.2936006 269.591516,73.2093117 C269.587513,71.1382309 268.711792,69.9377886 267.25159,69.9377886 C265.787385,69.9377886 264.911665,71.1382309 264.911665,73.2093117 C264.911665,75.2936006 265.778378,76.4809348 267.25159,76.4809348 Z M265.879438,73.2093117 C265.879438,71.6263328 266.393884,70.7600971 267.25159,70.7556944 C268.105293,70.7600971 268.62372,71.6263328 268.62372,73.2093117 C268.62372,74.7966933 268.109296,75.6454181 267.25159,75.6454181 C266.389881,75.6454181 265.875458,74.7966933 265.879438,73.2093117 Z" id="Shape" fill="#113287" fill-rule="nonzero"></path>
            <path d="M271.975478,72.9015434 C272.784144,72.9059241 273.439683,72.2507189 273.435698,71.4416185 C273.439683,70.6325182 272.784144,69.977313 271.975478,69.9729103 C271.165812,69.977313 270.510272,70.6325182 270.515248,71.4416185 C270.510272,72.2507189 271.165812,72.9059241 271.975478,72.9015434 Z M271.218855,71.4416185 C271.222859,71.0238602 271.557134,70.6897536 271.975478,70.6941563 C272.392822,70.6897536 272.727097,71.0238602 272.723094,71.4416185 C272.727097,71.8549742 272.392822,72.1935836 271.975478,72.1979863 C271.557134,72.1935836 271.222859,71.8549742 271.218855,71.4416185 Z" id="Shape" fill="#113287" fill-rule="nonzero"></path>
            <path d="M480.623199,76.3871378 C481.991325,76.3958822 482.901074,75.4504976 482.901074,74.2148335 C482.901074,72.9967802 481.986321,72.1261418 480.851387,72.1217391 C480.160819,72.1261418 479.563327,72.4427376 479.216041,72.9835721 L479.144983,72.9835721 C479.144983,71.5456829 479.717454,70.6926554 480.702264,70.6882527 C481.344793,70.6926554 481.753129,71.0663865 481.881235,71.5853074 L482.840024,71.5853074 C482.6899,70.573882 481.876231,69.8439306 480.702264,69.8439306 C479.176008,69.8439306 478.217219,71.1104137 478.213216,73.3265842 C478.213216,75.679139 479.444229,76.3782713 480.623199,76.3871378 Z M479.260078,74.2412498 C479.268084,73.533312 479.862573,72.9088259 480.640213,72.9132042 C481.405844,72.9088259 481.9603,73.502493 481.9603,74.2324444 C481.9603,74.9756039 481.383825,75.5735737 480.614192,75.5779764 C479.831548,75.5735737 479.264081,74.9491876 479.260078,74.2412498 Z" id="Shape" fill="#113287" fill-rule="nonzero"></path>
            <path d="M486.146745,76.3870768 C487.620959,76.3870768 488.482668,75.1998426 488.486671,73.1155537 C488.482668,71.0443729 487.606947,69.8439306 486.146745,69.8439306 C484.68254,69.8439306 483.80782,71.0443729 483.80782,73.1155537 C483.80782,75.1998426 484.673533,76.3870768 486.146745,76.3870768 Z M484.774593,73.1155537 C484.774593,71.5324747 485.289039,70.6662391 486.146745,70.6618363 C487.000448,70.6662391 487.519876,71.5324747 487.519876,73.1155537 C487.519876,74.7029353 487.004451,75.5515601 486.146745,75.5515601 C485.285036,75.5515601 484.770613,74.7029353 484.774593,73.1155537 Z" id="Shape" fill="#113287" fill-rule="nonzero"></path>
            <path d="M490.870633,72.8077844 C491.6803,72.812066 492.335839,72.1569609 492.330863,71.3478606 C492.335839,70.5387602 491.6803,69.8835551 490.870633,69.8791523 C490.061968,69.8835551 489.406428,70.5387602 489.410413,71.3478606 C489.406428,72.1569609 490.061968,72.812066 490.870633,72.8077844 Z M490.114011,71.3478606 C490.119015,70.9301022 490.45329,70.5958956 490.870633,70.6002983 C491.288978,70.5958956 491.623253,70.9301022 491.618249,71.3478606 C491.623253,71.7612162 491.288978,72.0997255 490.870633,72.1041282 C490.45329,72.0997255 490.119015,71.7612162 490.114011,71.3478606 Z" id="Shape" fill="#113287" fill-rule="nonzero"></path>
            <polygon id="Path" fill="#113287" fill-rule="nonzero" points="495.814702 69.6329001 494.979015 69.6329001 492.929328 77.2577151 493.765015 77.2577151"></polygon>
            <polygon id="Path" fill="#113287" fill-rule="nonzero" points="498.919257 69.931885 497.969476 69.931885 496.386173 70.9696267 496.386173 71.8930977 497.907425 70.8992832 497.943454 70.8992832 497.943454 76.2991224 498.919257 76.2991224"></polygon>
            <path d="M500.537589,76.2991224 L504.822116,76.2991224 L504.822116,75.4724111 L501.883697,75.4724111 L501.883697,75.4196785 L503.176761,74.1092682 C504.372746,72.9352422 504.707021,72.3679914 504.716028,71.6556509 C504.707021,70.6223119 503.858322,69.8439306 502.631313,69.8439306 C501.417313,69.8439306 500.529583,70.6135065 500.537589,71.778727 L501.452342,71.778727 C501.457346,71.1016083 501.905715,70.6530309 502.614299,70.6530309 C503.282849,70.6530309 503.792268,71.0531783 503.792268,71.6820672 C503.792268,72.2405126 503.444982,72.6450627 502.745406,73.3706114 L500.537589,75.5955873 L500.537589,76.2991224 Z" id="Path" fill="#113287" fill-rule="nonzero"></path>
            <path d="M508.111823,76.3870768 C509.585036,76.3870768 510.446745,75.1998426 510.451749,73.1155537 C510.446745,71.0443729 509.572025,69.8439306 508.111823,69.8439306 C506.646617,69.8439306 505.771897,71.0443729 505.771897,73.1155537 C505.771897,75.1998426 506.638611,76.3870768 508.111823,76.3870768 Z M506.739694,73.1155537 C506.739694,71.5324747 507.254117,70.6662391 508.111823,70.6618363 C508.964525,70.6662391 509.483952,71.5324747 509.483952,73.1155537 C509.483952,74.7029353 508.969529,75.5515601 508.111823,75.5515601 C507.249113,75.5515601 506.73469,74.7029353 506.739694,73.1155537 Z" id="Shape" fill="#113287" fill-rule="nonzero"></path>
            <path d="M512.83471,72.8077844 C513.644376,72.812066 514.299916,72.1569609 514.29494,71.3478606 C514.299916,70.5387602 513.644376,69.8835551 512.83471,69.8791523 C512.026045,69.8835551 511.370505,70.5387602 511.37449,71.3478606 C511.370505,72.1569609 512.026045,72.812066 512.83471,72.8077844 Z M512.079088,71.3478606 C512.083092,70.9301022 512.417367,70.5958956 512.83471,70.6002983 C513.253054,70.5958956 513.58733,70.9301022 513.583326,71.3478606 C513.58733,71.7612162 513.253054,72.0997255 512.83471,72.1041282 C512.417367,72.0997255 512.083092,71.7612162 512.079088,71.3478606 Z" id="Shape" fill="#113287" fill-rule="nonzero"></path>
            <path d="M732.177233,69.8439699 C730.792093,69.8352252 729.890351,70.7850125 729.890351,71.998663 C729.890351,73.2167162 730.805104,74.0917574 731.949046,74.0917574 C732.63461,74.0917574 733.233102,73.7663561 733.576385,73.2299244 L733.65545,73.2299244 C733.646443,74.6854245 733.069968,75.538452 732.089161,75.5428547 C731.447633,75.538452 731.033292,75.1647209 730.902184,74.6282891 L729.943395,74.6282891 C730.096521,75.6616281 730.915195,76.3871768 732.089161,76.3871768 C733.615417,76.3871768 734.578209,75.1206936 734.578209,72.8869123 C734.574206,70.5563711 733.347196,69.8528361 732.177233,69.8439699 Z M730.831105,71.9810521 C730.827122,71.2512008 731.4076,70.653131 732.177233,70.653131 C732.955874,70.653131 733.523341,71.2819198 733.523341,71.9723467 C733.523341,72.6758818 732.929853,73.3046706 732.159219,73.3002926 C731.385582,73.3046706 730.83613,72.719809 730.831105,71.9810521 Z" id="Shape" fill="#113287" fill-rule="nonzero"></path>
            <path d="M737.815874,76.3871768 C739.289087,76.3871768 740.150796,75.1998426 740.1558,73.1155537 C740.150796,71.044473 739.276076,69.8440306 737.815874,69.8440306 C736.350668,69.8440306 735.475948,71.044473 735.475948,73.1155537 C735.475948,75.1998426 736.342662,76.3871768 737.815874,76.3871768 Z M736.443745,73.1155537 C736.443745,71.5325748 736.958168,70.6663391 737.815874,70.6619364 C738.668576,70.6663391 739.188003,71.5325748 739.188003,73.1155537 C739.188003,74.7030354 738.67358,75.5516601 737.815874,75.5516601 C736.954165,75.5516601 736.438741,74.7030354 736.443745,73.1155537 Z" id="Shape" fill="#113287" fill-rule="nonzero"></path>
            <path d="M742.539762,72.8077854 C743.348427,72.8121661 744.003967,72.1569609 743.999982,71.3478606 C744.003967,70.5387602 743.348427,69.8836551 742.539762,69.8792524 C741.730096,69.8836551 741.074556,70.5387602 741.079532,71.3478606 C741.074556,72.1569609 741.730096,72.8121661 742.539762,72.8077854 Z M741.783139,71.3478606 C741.787142,70.9302023 742.121418,70.5959956 742.539762,70.6003984 C742.957105,70.5959956 743.291381,70.9302023 743.287377,71.3478606 C743.291381,71.7612162 742.957105,72.0998256 742.539762,72.1042283 C742.121418,72.0998256 741.787142,71.7612162 741.783139,71.3478606 Z" id="Shape" fill="#113287" fill-rule="nonzero"></path>
            <rect id="Rectangle" fill="#5B6EB4" fill-rule="nonzero" x="496.767486" y="20.2644713" width="240.197687" height="24.0148505"></rect>
            <polygon id="Path" fill="#FFFFFF" fill-rule="nonzero" points="596.649691 31.920179 591.479436 31.920179 591.479436 29.3110656 596.571627 29.3110656 596.571627 28.5587003 590.550672 28.5587003 590.550672 32.6627382 593.082756 32.6627382 593.082756 34.8027616 589.553851 34.8027616 589.553851 35.5649329 597.568448 35.5649329 597.568448 34.8027616 594.001512 34.8027616 594.001512 32.6627382 596.649691 32.6627382"></polygon>
            <path d="M599.533065,28.5097701 L598.6043,28.5097701 L598.6043,32.6627382 L599.317887,32.6627382 C600.622962,32.6676412 601.967068,32.5845899 603.432274,32.2817026 L603.325186,31.5195313 C601.967068,31.8029065 600.720041,31.8810548 599.533065,31.8810548 L599.533065,28.5097701 Z M599.55208,36.4541828 L605.387883,36.4541828 L605.387883,35.7017175 L600.490853,35.7017175 L600.490853,33.5911123 L599.55208,33.5911123 L599.55208,36.4541828 Z M604.155869,34.206693 L605.084634,34.206693 L605.084634,31.236156 L606.354679,31.236156 L606.354679,30.4445665 L605.084634,30.4445665 L605.084634,27.8941894 L604.155869,27.8941894 L604.155869,34.206693 Z" id="Shape" fill="#FFFFFF" fill-rule="nonzero"></path>
            <path d="M610.068736,30.1123611 L610.068736,28.6173366 L609.130964,28.6173366 L609.130964,30.1123611 C609.130964,31.7832944 608.163167,33.4591307 606.785033,34.0699084 L607.351499,34.8515918 C608.402364,34.3385745 609.209028,33.283322 609.614362,31.9983273 C610.024699,33.1953676 610.821355,34.1773748 611.828184,34.6561709 L612.385642,33.9233177 C611.026524,33.3223461 610.058727,31.7100491 610.068736,30.1123611 Z M613.177294,36.6594097 L614.105058,36.6594097 L614.105058,27.8843833 L613.177294,27.8843833 L613.177294,36.6594097 Z" id="Shape" fill="#FFFFFF" fill-rule="nonzero"></path>
            <polygon id="Path" fill="#FFFFFF" fill-rule="nonzero" points="620.937681 28.7346091 619.881812 28.7346091 618.122364 29.8876221 618.122364 30.9136566 619.813756 29.8094738 619.852788 29.8094738 619.852788 35.809284 620.937681 35.809284"></polygon>
            <path d="M625.14014,35.9069444 C626.615354,35.9069444 627.661215,34.905325 627.661215,33.5128639 C627.661215,32.149721 626.679407,31.1628107 625.345309,31.1579076 C624.807866,31.1628107 624.309456,31.3533285 624.016215,31.6367037 L623.947158,31.6367037 L624.182351,29.6530771 L627.299917,29.6530771 L627.299917,28.7346091 L623.292619,28.7346091 L622.833241,32.6725443 L623.850078,32.6725443 C624.089275,32.2376754 624.524633,32.0471575 625.091099,32.0471575 C625.980832,32.0569636 626.615354,32.6823503 626.615354,33.542182 C626.615354,34.3826017 625.999847,35.0030854 625.14014,35.0079885 C624.426552,35.0030854 623.850078,34.5634136 623.791029,33.9624419 L622.745169,33.9624419 C622.794209,35.0910398 623.801038,35.9069444 625.14014,35.9069444 Z" id="Path" fill="#FFFFFF" fill-rule="nonzero"></path>
            <path d="M629.244518,35.8776262 C629.620827,35.8727232 629.934085,35.5649329 629.939089,35.1838973 C629.934085,34.8027616 629.620827,34.4900682 629.244518,34.4900682 C628.864205,34.4900682 628.545943,34.8027616 628.550947,35.1838973 C628.545943,35.5649329 628.864205,35.8727232 629.244518,35.8776262 Z" id="Path" fill="#FFFFFF" fill-rule="nonzero"></path>
            <polygon id="Path" fill="#FFFFFF" fill-rule="nonzero" points="631.248167 35.809284 632.372092 35.809284 635.519682 29.6922013 635.519682 28.7346091 630.759765 28.7346091 630.759765 29.6530771 634.405765 29.6530771 634.405765 29.7117133"></polygon>
            <path d="M638.22691,32.0959877 C639.179695,32.1057938 639.708129,31.3924527 639.712133,30.3371001 C639.708129,29.3013596 639.199711,28.5831154 638.22691,28.5879935 C637.284134,28.5831154 636.73168,29.3013596 636.741688,30.3371001 C636.73168,31.3875496 637.259114,32.1057938 638.22691,32.0959877 Z M637.542347,35.809284 L638.432079,35.809284 L643.290077,28.7346091 L642.400345,28.7346091 L637.542347,35.809284 Z M637.542347,30.3371001 C637.547351,29.7068103 637.772536,29.2817474 638.22691,29.2720414 C638.701301,29.2671384 638.901466,29.7020073 638.901466,30.3371001 C638.901466,30.9869019 638.686288,31.4071618 638.22691,31.4119647 C637.772536,31.4071618 637.547351,30.9869019 637.542347,30.3371001 Z M641.208364,34.1968869 C641.20336,35.2376305 641.730794,35.9558746 642.693587,35.9558746 C643.646371,35.9558746 644.173805,35.2425335 644.178809,34.1968869 C644.173805,33.1513403 643.661383,32.4330962 642.693587,32.4379743 C641.750811,32.4330962 641.20336,33.1513403 641.208364,34.1968869 Z M642.009023,34.1968869 C642.014027,33.5568911 642.244217,33.1318283 642.693587,33.1220222 C643.167977,33.1220222 643.368142,33.5519881 643.368142,34.1968869 C643.368142,34.8369827 643.152965,35.2620456 642.693587,35.2620456 C642.239213,35.2620456 642.014027,34.8369827 642.009023,34.1968869 Z" id="Shape" fill="#FFFFFF" fill-rule="nonzero"></path>
            <rect id="Rectangle" fill="#113287" fill-rule="nonzero" x="255.568975" y="20.2644713" width="241.198511" height="24.0148505"></rect>
            <path d="M352.564805,30.1123611 L352.564805,28.6173366 L351.637041,28.6173366 L351.637041,30.1123611 C351.632037,31.7149521 350.722288,33.3956915 349.379183,34.0405902 L349.955657,34.7929555 C350.952478,34.2751353 351.72011,33.2246857 352.110431,31.9836182 C352.496749,33.1513403 353.234356,34.1285446 354.18714,34.6268528 L354.764615,33.8841935 C353.459541,33.2491008 352.555797,31.6612189 352.564805,30.1123611 Z M355.419154,36.6397976 L356.347918,36.6397976 L356.347918,32.1644301 L357.755077,32.1644301 L357.755077,31.3729406 L356.347918,31.3729406 L356.347918,27.8843833 L355.419154,27.8843833 L355.419154,36.6397976 Z" id="Shape" fill="#FFFFFF" fill-rule="nonzero"></path>
            <path d="M359.504516,28.5097701 L358.575752,28.5097701 L358.575752,32.6627382 L359.289339,32.6627382 C360.594413,32.6676412 361.937519,32.5845899 363.403725,32.2817026 L363.296637,31.5195313 C361.937519,31.8029065 360.691493,31.8810548 359.504516,31.8810548 L359.504516,28.5097701 Z M359.523532,36.4541828 L365.358334,36.4541828 L365.358334,35.7017175 L360.462305,35.7017175 L360.462305,33.5911123 L359.523532,33.5911123 L359.523532,36.4541828 Z M364.127321,34.206693 L365.056085,34.206693 L365.056085,31.236156 L366.326131,31.236156 L366.326131,30.4445665 L365.056085,30.4445665 L365.056085,27.8941894 L364.127321,27.8941894 L364.127321,34.206693 Z" id="Shape" fill="#FFFFFF" fill-rule="nonzero"></path>
            <path d="M370.040187,30.1123611 L370.040187,28.6173366 L369.102416,28.6173366 L369.102416,30.1123611 C369.102416,31.7832944 368.134619,33.4591307 366.756485,34.0699084 L367.322951,34.8515918 C368.373816,34.3385745 369.18048,33.283322 369.585813,31.9983273 C369.996151,33.1953676 370.792807,34.1773748 371.799635,34.6561709 L372.357094,33.9233177 C370.997976,33.3223461 370.030179,31.7100491 370.040187,30.1123611 Z M373.148746,36.6594097 L374.076509,36.6594097 L374.076509,27.8843833 L373.148746,27.8843833 L373.148746,36.6594097 Z" id="Shape" fill="#FFFFFF" fill-rule="nonzero"></path>
            <polygon id="Path" fill="#FFFFFF" fill-rule="nonzero" points="380.909133 28.7346091 379.853264 28.7346091 378.093816 29.8876221 378.093816 30.9136566 379.785208 29.8094738 379.82424 29.8094738 379.82424 35.809284 380.909133 35.809284"></polygon>
            <polygon id="Path" fill="#FFFFFF" fill-rule="nonzero" points="385.394825 28.7346091 384.338956 28.7346091 382.580508 29.8876221 382.580508 30.9136566 384.2709 29.8094738 384.309932 29.8094738 384.309932 35.809284 385.394825 35.809284"></polygon>
            <path d="M387.486546,35.8776262 C387.862856,35.8727232 388.175113,35.5649329 388.180117,35.1838973 C388.175113,34.8027616 387.862856,34.4900682 387.486546,34.4900682 C387.105232,34.4900682 386.787971,34.8027616 386.791974,35.1838973 C386.787971,35.5649329 387.105232,35.8727232 387.486546,35.8776262 Z" id="Path" fill="#FFFFFF" fill-rule="nonzero"></path>
            <path d="M389.431147,35.809284 L394.191064,35.809284 L394.191064,34.890716 L390.926377,34.890716 L390.926377,34.8320797 L392.36356,33.3760793 C393.692654,32.0715726 394.063959,31.4412829 394.073968,30.6497934 C394.063959,29.5016834 393.121184,28.6368486 391.757061,28.6368486 C390.408951,28.6368486 389.421138,29.4918774 389.431147,30.786578 L390.447983,30.786578 C390.452988,30.0342128 390.951398,29.5358045 391.738045,29.5358045 C392.480656,29.5358045 393.047123,29.9804795 393.047123,30.6791116 C393.047123,31.2995953 392.661805,31.7491733 391.884165,32.5552717 L389.431147,35.0275005 L389.431147,35.809284 Z" id="Path" fill="#FFFFFF" fill-rule="nonzero"></path>
            <path d="M397.006381,32.0959877 C397.959165,32.1057938 398.486599,31.3924527 398.491603,30.3371001 C398.486599,29.3013596 397.978181,28.5831154 397.006381,28.5879935 C396.062604,28.5831154 395.51015,29.3013596 395.520158,30.3371001 C395.51015,31.3875496 396.038585,32.1057938 397.006381,32.0959877 Z M396.321818,35.809284 L397.21155,35.809284 L402.068547,28.7346091 L401.178815,28.7346091 L396.321818,35.809284 Z M396.321818,30.3371001 C396.326822,29.7068103 396.551006,29.2817474 397.006381,29.2720414 C397.479771,29.2671384 397.679935,29.7020073 397.679935,30.3371001 C397.679935,30.9869019 397.465759,31.4071618 397.006381,31.4119647 C396.551006,31.4071618 396.326822,30.9869019 396.321818,30.3371001 Z M399.986834,34.1968869 C399.98183,35.2376305 400.510265,35.9558746 401.472056,35.9558746 C402.425841,35.9558746 402.953276,35.2425335 402.95828,34.1968869 C402.953276,33.1513403 402.439853,32.4330962 401.472056,32.4379743 C400.529281,32.4330962 399.98183,33.1513403 399.986834,34.1968869 Z M400.788494,34.1968869 C400.793498,33.5568911 401.022687,33.1318283 401.472056,33.1220222 C401.946447,33.1220222 402.146612,33.5519881 402.146612,34.1968869 C402.146612,34.8369827 401.931435,35.2620456 401.472056,35.2620456 C401.017682,35.2620456 400.793498,34.8369827 400.788494,34.1968869 Z" id="Shape" fill="#FFFFFF" fill-rule="nonzero"></path>
            <rect id="Rectangle" fill="#E2E6F6" fill-rule="nonzero" x="15.371488" y="20.2644713" width="240.197687" height="24.0148505"></rect>
            <path d="M110.14729,29.4576562 L110.14729,29.2134052 L112.071874,29.2134052 L112.071874,28.4609399 L107.243901,28.4609399 L107.243901,29.2134052 L109.208518,29.2134052 L109.208518,29.4576562 C109.203514,30.6448904 108.362822,31.7881974 106.9997,32.2620904 L107.478094,32.9754316 C108.519951,32.609005 109.29659,31.8566397 109.691916,30.9087536 C110.088242,31.7881974 110.850869,32.4771234 111.857698,32.8093289 L112.336092,32.0862817 C110.981977,31.6612189 110.14729,30.5814512 110.14729,29.4576562 Z M108.230713,34.3630897 L113.234832,34.3630897 L113.234832,36.6397976 L114.163596,36.6397976 L114.163596,33.6106244 L108.230713,33.6106244 L108.230713,34.3630897 Z M113.234832,33.1709525 L114.163596,33.1709525 L114.163596,27.8843833 L113.234832,27.8843833 L113.234832,33.1709525 Z" id="Shape" fill="#113287" fill-rule="nonzero"></path>
            <path d="M116.880832,28.5097701 L115.952068,28.5097701 L115.952068,32.6627382 L116.665655,32.6627382 C117.970729,32.6676412 119.314835,32.5845899 120.781042,32.2817026 L120.672953,31.5195313 C119.314835,31.8029065 118.06881,31.8810548 116.880832,31.8810548 L116.880832,28.5097701 Z M116.900849,36.4541828 L122.735651,36.4541828 L122.735651,35.7017175 L117.838621,35.7017175 L117.838621,33.5911123 L116.900849,33.5911123 L116.900849,36.4541828 Z M121.503637,34.206693 L122.432401,34.206693 L122.432401,31.236156 L123.702447,31.236156 L123.702447,30.4445665 L122.432401,30.4445665 L122.432401,27.8941894 L121.503637,27.8941894 L121.503637,34.206693 Z" id="Shape" fill="#113287" fill-rule="nonzero"></path>
            <path d="M127.416503,30.1123611 L127.416503,28.6173366 L126.478731,28.6173366 L126.478731,30.1123611 C126.478731,31.7832944 125.510935,33.4591307 124.132801,34.0699084 L124.700268,34.8515918 C125.750132,34.3385745 126.556796,33.283322 126.962129,31.9983273 C127.372467,33.1953676 128.169123,34.1773748 129.175951,34.6561709 L129.73341,33.9233177 C128.374292,33.3223461 127.407496,31.7100491 127.416503,30.1123611 Z M130.525062,36.6594097 L131.453826,36.6594097 L131.453826,27.8843833 L130.525062,27.8843833 L130.525062,36.6594097 Z" id="Shape" fill="#113287" fill-rule="nonzero"></path>
            <path d="M138.002216,35.9069444 C139.47743,35.9069444 140.52329,34.905325 140.52329,33.5128639 C140.52329,32.149721 139.541482,31.1628107 138.207384,31.1579076 C137.669942,31.1628107 137.170531,31.3533285 136.878291,31.6367037 L136.809234,31.6367037 L137.044427,29.6530771 L140.161993,29.6530771 L140.161993,28.7346091 L136.154695,28.7346091 L135.695317,32.6725443 L136.711153,32.6725443 C136.951351,32.2376754 137.385708,32.0471575 137.953175,32.0471575 C138.841907,32.0569636 139.47743,32.6823503 139.47743,33.542182 C139.47743,34.3826017 138.861923,35.0030854 138.002216,35.0079885 C137.288628,35.0030854 136.711153,34.5634136 136.653105,33.9624419 L135.607244,33.9624419 C135.656285,35.0910398 136.663113,35.9069444 138.002216,35.9069444 Z" id="Path" fill="#113287" fill-rule="nonzero"></path>
            <path d="M144.227339,35.9070125 C145.74759,35.9167504 146.759423,34.8663009 146.759423,33.4933518 C146.759423,32.140015 145.742586,31.1726167 144.481548,31.1677137 C143.714917,31.1726167 143.049369,31.5243342 142.664052,32.1253059 L142.585988,32.1253059 C142.585988,30.5276179 143.22051,29.5798318 144.315411,29.5749287 C145.028999,29.5798318 145.483373,29.9950886 145.62549,30.5716451 L146.690366,30.5716451 C146.524229,29.4478502 145.620486,28.6368486 144.315411,28.6368486 C142.620016,28.6368486 141.554139,30.0440188 141.549135,32.5064416 C141.549135,35.120358 142.918262,35.8972384 144.227339,35.9070125 Z M142.713093,33.52267 C142.7221,32.7360836 143.382644,32.0422545 144.247355,32.0471304 C145.097055,32.0422545 145.713562,32.7018624 145.713562,33.5128639 C145.713562,34.3385745 145.073035,35.0030854 144.217331,35.0079885 C143.347615,35.0030854 142.717096,34.3092564 142.713093,33.52267 Z" id="Shape" fill="#113287" fill-rule="nonzero"></path>
            <path d="M148.273669,35.8776262 C148.649979,35.8727232 148.963237,35.5649329 148.968241,35.1838973 C148.963237,34.8027616 148.649979,34.4900682 148.273669,34.4900682 C147.892355,34.4900682 147.575094,34.8027616 147.580098,35.1838973 C147.575094,35.5649329 147.892355,35.8727232 148.273669,35.8776262 Z" id="Path" fill="#113287" fill-rule="nonzero"></path>
            <path d="M152.5642,28.6367809 C151.024934,28.6270426 150.023109,29.6823952 150.023109,31.0309291 C150.023109,32.384266 151.039946,33.3565673 152.309991,33.3565673 C153.072619,33.3565673 153.737166,32.9950437 154.11848,32.3989751 L154.206552,32.3989751 C154.196544,34.0161752 153.557017,34.9639613 152.46712,34.9688643 C151.753533,34.9639613 151.294155,34.5487045 151.147034,33.9526359 L150.082158,33.9526359 C150.253298,35.1008459 151.162046,35.9069444 152.46712,35.9069444 C154.162516,35.9069444 155.232396,34.4998743 155.232396,32.0178394 C155.227392,29.4283381 153.86427,28.6466547 152.5642,28.6367809 Z M151.068941,31.011317 C151.063966,30.2003155 151.709497,29.5358045 152.5642,29.5358045 C153.429913,29.5358045 154.059431,30.2345366 154.059431,31.001611 C154.059431,31.7832944 153.399888,32.4820265 152.545185,32.477151 C151.684476,32.4820265 151.073974,31.8322246 151.068941,31.011317 Z" id="Shape" fill="#113287" fill-rule="nonzero"></path>
            <path d="M157.988665,32.0959877 C158.941449,32.1057938 159.469884,31.3924527 159.474888,30.3371001 C159.469884,29.3013596 158.961465,28.5831154 157.988665,28.5879935 C157.045889,28.5831154 156.493434,29.3013596 156.503442,30.3371001 C156.493434,31.3875496 157.020868,32.1057938 157.988665,32.0959877 Z M157.305102,35.809284 L158.193834,35.809284 L163.051832,28.7346091 L162.1621,28.7346091 L157.305102,35.809284 Z M157.305102,30.3371001 C157.310106,29.7068103 157.534291,29.2817474 157.988665,29.2720414 C158.463055,29.2671384 158.66322,29.7020073 158.66322,30.3371001 C158.66322,30.9869019 158.448043,31.4071618 157.988665,31.4119647 C157.534291,31.4071618 157.310106,30.9869019 157.305102,30.3371001 Z M160.970119,34.1968869 C160.965114,35.2376305 161.492549,35.9558746 162.455341,35.9558746 C163.408125,35.9558746 163.93656,35.2425335 163.941564,34.1968869 C163.93656,33.1513403 163.423137,32.4330962 162.455341,32.4379743 C161.512565,32.4330962 160.965114,33.1513403 160.970119,34.1968869 Z M161.771778,34.1968869 C161.775782,33.5568911 162.005971,33.1318283 162.455341,33.1220222 C162.929731,33.1220222 163.129896,33.5519881 163.129896,34.1968869 C163.129896,34.8369827 162.914719,35.2620456 162.455341,35.2620456 C162.000967,35.2620456 161.775782,34.8369827 161.771778,34.1968869 Z" id="Shape" fill="#113287" fill-rule="nonzero"></path>
            <polygon id="Path" fill="#113287" points="14.3707644 64.2916971 14.3706643 0.252108901 16.3723117 0.252108901 16.3724118 64.2916971"></polygon>
            <polygon id="Path" fill="#113287" points="735.953341 64.2916971 735.953341 0.252108901 737.954989 0.252108901 737.954989 64.2916971"></polygon>
            <polygon id="Path" fill="#979797" points="255.068563 64.0396413 255.068563 0 256.069387 0 256.069387 64.0396413"></polygon>
            <polygon id="Path" fill="#979797" points="496.267075 64.0396413 496.267075 0 497.267898 0 497.267898 64.0396413"></polygon>
        </g>
    </g>
</svg>