<svg width="744" height="78" viewBox="0 0 744 78" fill="none" xmlns="http://www.w3.org/2000/svg">
<rect width="744" height="78" fill="#727272"/>
<path d="M-2431 -1182C-2431 -1183.1 -2430.1 -1184 -2429 -1184H884C885.104 -1184 886 -1183.1 886 -1182V788C886 789.105 885.104 790 884 790H-2429C-2430.1 790 -2431 789.105 -2431 788V-1182Z" fill="white"/>
<g clip-path="url(#clip0_1814_2379)">
<path d="M2.33981 76.3871C3.8132 76.3871 4.67523 75.1999 4.67963 73.1156C4.67523 71.0444 3.8 69.844 2.33981 69.844C0.875237 69.844 0 71.0444 0 73.1156C0 75.1999 0.86644 76.3871 2.33981 76.3871ZM0.967593 73.1156C0.967593 71.5325 1.48218 70.6663 2.33981 70.6619C3.19305 70.6663 3.71204 71.5325 3.71204 73.1156C3.71204 74.703 3.19746 75.5516 2.33981 75.5516C1.47778 75.5516 0.9632 74.703 0.967593 73.1156Z" fill="#113287"/>
<path d="M7.06344 72.8077C7.87269 72.8121 8.52802 72.157 8.52364 71.3479C8.52802 70.5388 7.87269 69.8836 7.06344 69.8792C6.25418 69.8836 5.59885 70.5388 5.60323 71.3479C5.59885 72.157 6.25418 72.8121 7.06344 72.8077ZM6.30695 71.3479C6.31136 70.9301 6.64561 70.5959 7.06344 70.6003C7.48126 70.5959 7.81553 70.9301 7.81112 71.3479C7.81553 71.7611 7.48126 72.0997 7.06344 72.1041C6.64561 72.0997 6.31136 71.7611 6.30695 71.3479Z" fill="#113287"/>
<path d="M12.0069 69.6329H11.1713L9.12177 77.2577H9.95743L12.0069 69.6329Z" fill="#113287"/>
<path d="M15.1121 69.9319H14.1621L12.5787 70.9696V71.8931L14.1004 70.8993H14.1357V76.2991H15.1121V69.9319Z" fill="#113287"/>
<path d="M18.956 76.3871C20.3194 76.3871 21.2914 75.6396 21.2958 74.6018C21.2914 73.7839 20.702 73.1156 19.9587 73.0012V72.966C20.6009 72.8165 21.0451 72.2362 21.0495 71.5413C21.0451 70.5607 20.1567 69.844 18.956 69.844C17.7377 69.844 16.8537 70.5607 16.8537 71.5413C16.8537 72.2362 17.2891 72.8165 17.9445 72.966V73.0012C17.1924 73.1156 16.6074 73.7839 16.6162 74.6018C16.6074 75.6396 17.5706 76.3871 18.956 76.3871ZM17.6014 74.5315C17.5882 73.8763 18.1644 73.397 18.956 73.397C19.7389 73.397 20.3106 73.8763 20.3106 74.5315C20.3106 75.1559 19.7829 75.5868 18.956 75.5868C18.1159 75.5868 17.5882 75.1559 17.6014 74.5315ZM17.7949 71.6293C17.7993 71.0357 18.2567 70.6312 18.956 70.6355C19.6377 70.6312 20.104 71.0357 20.0996 71.6293C20.104 72.2274 19.6202 72.6363 18.956 72.6319C18.2743 72.6363 17.7993 72.223 17.7949 71.6293Z" fill="#113287"/>
<path d="M24.5153 76.3871C25.9886 76.3871 26.8507 75.1999 26.8551 73.1156C26.8507 71.0444 25.9755 69.844 24.5153 69.844C23.0507 69.844 22.1755 71.0444 22.1755 73.1156C22.1755 75.1999 23.0419 76.3871 24.5153 76.3871ZM23.1431 73.1156C23.1431 71.5325 23.6576 70.6663 24.5153 70.6619C25.3685 70.6663 25.8875 71.5325 25.8875 73.1156C25.8875 74.703 25.3729 75.5516 24.5153 75.5516C23.6533 75.5516 23.1387 74.703 23.1431 73.1156Z" fill="#113287"/>
<path d="M29.2389 72.8077C30.0482 72.8121 30.7035 72.157 30.6992 71.3479C30.7035 70.5388 30.0482 69.8836 29.2389 69.8792C28.4297 69.8836 27.7743 70.5388 27.7787 71.3479C27.7743 72.157 28.4297 72.8121 29.2389 72.8077ZM28.4824 71.3479C28.4868 70.9301 28.8211 70.5959 29.2389 70.6003C29.6568 70.5959 29.9911 70.9301 29.9866 71.3479C29.9911 71.7611 29.6568 72.0997 29.2389 72.1041C28.8211 72.0997 28.4868 71.7611 28.4824 71.3479Z" fill="#113287"/>
<path d="M239.605 76.4808C240.924 76.4808 241.905 75.7025 241.901 74.6428C241.905 73.8381 241.399 73.2533 240.529 73.1301V73.0862C241.214 72.9147 241.664 72.3958 241.655 71.6702C241.664 70.7292 240.876 69.9377 239.623 69.9377C238.435 69.9377 237.476 70.6413 237.45 71.679H238.382C238.404 71.103 238.976 70.7468 239.614 70.7468C240.286 70.7468 240.722 71.1426 240.722 71.723C240.722 72.3342 240.216 72.7388 239.491 72.7344H238.945V73.5259H239.491C240.401 73.5303 240.924 73.9788 240.924 74.6076C240.924 75.2276 240.365 75.6454 239.596 75.6454C238.883 75.6454 238.33 75.2892 238.295 74.7307H237.309C237.349 75.7728 238.286 76.4808 239.605 76.4808Z" fill="#113287"/>
<path d="M245.181 76.4808C246.656 76.4808 247.517 75.2936 247.521 73.2093C247.517 71.1382 246.642 69.9377 245.181 69.9377C243.717 69.9377 242.841 71.1382 242.841 73.2093C242.841 75.2936 243.708 76.4808 245.181 76.4808ZM243.809 73.2093C243.809 71.6263 244.324 70.76 245.181 70.7556C246.035 70.76 246.554 71.6263 246.554 73.2093C246.554 74.7966 246.039 75.6454 245.181 75.6454C244.32 75.6454 243.805 74.7966 243.809 73.2093Z" fill="#113287"/>
<path d="M249.905 72.9015C250.715 72.9059 251.37 72.2507 251.366 71.4416C251.37 70.6325 250.715 69.9773 249.905 69.9729C249.096 69.9773 248.441 70.6325 248.445 71.4416C248.441 72.2507 249.096 72.9059 249.905 72.9015ZM249.149 71.4416C249.154 71.0239 249.488 70.6896 249.905 70.694C250.324 70.6896 250.658 71.0239 250.653 71.4416C250.658 71.855 250.324 72.1936 249.905 72.198C249.488 72.1936 249.154 71.855 249.149 71.4416Z" fill="#113287"/>
<path d="M254.849 69.7267H254.014L251.964 77.3516H252.8L254.849 69.7267Z" fill="#113287"/>
<path d="M257.954 70.0258H257.004L255.421 71.0635V71.9869L256.942 70.9932H256.977V76.393H257.954V70.0258Z" fill="#113287"/>
<path d="M261.736 76.4809C263.065 76.4809 264.006 75.5795 264.006 74.3262C264.006 73.0994 263.122 72.2112 261.921 72.2068C261.438 72.2112 260.988 72.3826 260.725 72.6377H260.663L260.874 70.8524H263.681V70.0258H260.074L259.66 73.57H260.575C260.791 73.1786 261.183 73.0071 261.692 73.0071C262.493 73.0159 263.065 73.5788 263.065 74.3526C263.065 75.109 262.511 75.6674 261.736 75.6719C261.095 75.6674 260.575 75.2716 260.522 74.7308H259.581C259.625 75.7466 260.531 76.4809 261.736 76.4809Z" fill="#113287"/>
<path d="M267.252 76.4808C268.725 76.4808 269.587 75.2936 269.591 73.2093C269.587 71.1382 268.712 69.9377 267.252 69.9377C265.787 69.9377 264.912 71.1382 264.912 73.2093C264.912 75.2936 265.778 76.4808 267.252 76.4808ZM265.879 73.2093C265.879 71.6263 266.394 70.76 267.252 70.7556C268.105 70.76 268.624 71.6263 268.624 73.2093C268.624 74.7966 268.109 75.6454 267.252 75.6454C266.39 75.6454 265.875 74.7966 265.879 73.2093Z" fill="#113287"/>
<path d="M271.975 72.9015C272.784 72.9059 273.44 72.2507 273.436 71.4416C273.44 70.6325 272.784 69.9773 271.975 69.9729C271.166 69.9773 270.51 70.6325 270.515 71.4416C270.51 72.2507 271.166 72.9059 271.975 72.9015ZM271.219 71.4416C271.223 71.0239 271.557 70.6896 271.975 70.694C272.393 70.6896 272.727 71.0239 272.723 71.4416C272.727 71.855 272.393 72.1936 271.975 72.198C271.557 72.1936 271.223 71.855 271.219 71.4416Z" fill="#113287"/>
<path d="M480.623 76.3872C481.991 76.3959 482.901 75.4506 482.901 74.2149C482.901 72.9968 481.986 72.1262 480.851 72.1218C480.161 72.1262 479.563 72.4428 479.216 72.9836H479.145C479.145 71.5457 479.717 70.6927 480.702 70.6883C481.345 70.6927 481.753 71.0665 481.881 71.5854H482.84C482.69 70.5739 481.876 69.844 480.702 69.844C479.176 69.844 478.217 71.1105 478.213 73.3266C478.213 75.6792 479.444 76.3783 480.623 76.3872ZM479.26 74.2413C479.268 73.5333 479.863 72.9089 480.64 72.9133C481.406 72.9089 481.96 73.5026 481.96 74.2325C481.96 74.9756 481.384 75.5736 480.614 75.578C479.832 75.5736 479.264 74.9492 479.26 74.2413Z" fill="#113287"/>
<path d="M486.147 76.3871C487.621 76.3871 488.483 75.1999 488.487 73.1156C488.483 71.0444 487.607 69.844 486.147 69.844C484.683 69.844 483.808 71.0444 483.808 73.1156C483.808 75.1999 484.674 76.3871 486.147 76.3871ZM484.775 73.1156C484.775 71.5325 485.289 70.6663 486.147 70.6619C487 70.6663 487.52 71.5325 487.52 73.1156C487.52 74.703 487.004 75.5516 486.147 75.5516C485.285 75.5516 484.771 74.703 484.775 73.1156Z" fill="#113287"/>
<path d="M490.871 72.8077C491.68 72.8121 492.336 72.157 492.331 71.3479C492.336 70.5388 491.68 69.8836 490.871 69.8792C490.062 69.8836 489.406 70.5388 489.41 71.3479C489.406 72.157 490.062 72.8121 490.871 72.8077ZM490.114 71.3479C490.119 70.9301 490.453 70.5959 490.871 70.6003C491.289 70.5959 491.623 70.9301 491.618 71.3479C491.623 71.7611 491.289 72.0997 490.871 72.1041C490.453 72.0997 490.119 71.7611 490.114 71.3479Z" fill="#113287"/>
<path d="M495.815 69.6329H494.979L492.929 77.2577H493.765L495.815 69.6329Z" fill="#113287"/>
<path d="M498.919 69.9319H497.969L496.386 70.9696V71.8931L497.907 70.8993H497.943V76.2991H498.919V69.9319Z" fill="#113287"/>
<path d="M500.538 76.2992H504.822V75.4725H501.884V75.4197L503.177 74.1093C504.373 72.9353 504.707 72.3681 504.716 71.6557C504.707 70.6224 503.858 69.844 502.631 69.844C501.417 69.844 500.53 70.6136 500.538 71.7788H501.452C501.457 71.1017 501.906 70.6531 502.614 70.6531C503.283 70.6531 503.792 71.0532 503.792 71.682C503.792 72.2406 503.445 72.645 502.745 73.3706L500.538 75.5956V76.2992Z" fill="#113287"/>
<path d="M508.112 76.3871C509.585 76.3871 510.447 75.1999 510.452 73.1156C510.447 71.0444 509.572 69.844 508.112 69.844C506.647 69.844 505.772 71.0444 505.772 73.1156C505.772 75.1999 506.639 76.3871 508.112 76.3871ZM506.74 73.1156C506.74 71.5325 507.254 70.6663 508.112 70.6619C508.965 70.6663 509.484 71.5325 509.484 73.1156C509.484 74.703 508.97 75.5516 508.112 75.5516C507.249 75.5516 506.735 74.703 506.74 73.1156Z" fill="#113287"/>
<path d="M512.835 72.8077C513.644 72.8121 514.3 72.157 514.295 71.3479C514.3 70.5388 513.644 69.8836 512.835 69.8792C512.026 69.8836 511.37 70.5388 511.374 71.3479C511.37 72.157 512.026 72.8121 512.835 72.8077ZM512.079 71.3479C512.083 70.9301 512.417 70.5959 512.835 70.6003C513.253 70.5959 513.587 70.9301 513.583 71.3479C513.587 71.7611 513.253 72.0997 512.835 72.1041C512.417 72.0997 512.083 71.7611 512.079 71.3479Z" fill="#113287"/>
<path d="M732.177 69.8439C730.792 69.8352 729.89 70.785 729.89 71.9986C729.89 73.2167 730.805 74.0917 731.949 74.0917C732.635 74.0917 733.233 73.7663 733.576 73.2299H733.655C733.646 74.6854 733.07 75.5384 732.089 75.5428C731.448 75.5384 731.033 75.1647 730.902 74.6281H729.943C730.097 75.6616 730.915 76.3871 732.089 76.3871C733.615 76.3871 734.578 75.1207 734.578 72.8869C734.574 70.5563 733.347 69.8528 732.177 69.8439ZM730.831 71.981C730.827 71.2511 731.408 70.6531 732.177 70.6531C732.956 70.6531 733.523 71.2819 733.523 71.9722C733.523 72.6758 732.93 73.3046 732.159 73.3003C731.386 73.3046 730.836 72.7198 730.831 71.981Z" fill="#113287"/>
<path d="M737.816 76.3871C739.289 76.3871 740.151 75.1998 740.156 73.1155C740.151 71.0444 739.276 69.844 737.816 69.844C736.351 69.844 735.476 71.0444 735.476 73.1155C735.476 75.1998 736.343 76.3871 737.816 76.3871ZM736.444 73.1155C736.444 71.5325 736.958 70.6663 737.816 70.6619C738.669 70.6663 739.188 71.5325 739.188 73.1155C739.188 74.7029 738.674 75.5516 737.816 75.5516C736.954 75.5516 736.439 74.7029 736.444 73.1155Z" fill="#113287"/>
<path d="M742.54 72.8078C743.348 72.8122 744.004 72.157 744 71.3479C744.004 70.5388 743.348 69.8836 742.54 69.8792C741.73 69.8836 741.075 70.5388 741.08 71.3479C741.075 72.157 741.73 72.8122 742.54 72.8078ZM741.783 71.3479C741.787 70.9301 742.121 70.596 742.54 70.6004C742.957 70.596 743.291 70.9301 743.287 71.3479C743.291 71.7612 742.957 72.0998 742.54 72.1042C742.121 72.0998 741.787 71.7612 741.783 71.3479Z" fill="#113287"/>
<path d="M736.965 20.2645H496.767V44.2794H736.965V20.2645Z" fill="#5B6EB4"/>
<path d="M496.767 20.2645H255.569V44.2794H496.767V20.2645Z" fill="#113287"/>
<path d="M255.569 20.2645H15.3715V44.2794H255.569V20.2645Z" fill="#E2E6F6"/>
<path fill-rule="evenodd" clip-rule="evenodd" d="M14.3708 64.2917L14.3707 0.252075H16.3723L16.3724 64.2917H14.3708Z" fill="#113287"/>
<path fill-rule="evenodd" clip-rule="evenodd" d="M735.953 64.2917V0.252075H737.955V64.2917H735.953Z" fill="#113287"/>
<path fill-rule="evenodd" clip-rule="evenodd" d="M255.069 64.0396V0H256.069V64.0396H255.069Z" fill="#979797"/>
<path fill-rule="evenodd" clip-rule="evenodd" d="M496.267 64.0396V0H497.268V64.0396H496.267Z" fill="#979797"/>
<path d="M595.165 32.1133V32.8555H592.519V34.9941H596.083V35.7559H588.075V34.9941H591.601V32.8555H589.071V28.7539H595.087V29.5059H589.999V32.1133H595.165ZM598.046 28.7051V32.0742C599.232 32.0742 600.478 31.9961 601.835 31.7129L601.942 32.4746C600.478 32.7773 599.135 32.8604 597.831 32.8555H597.118V28.7051H598.046ZM598.065 36.6445V33.7832H599.003V35.8926H603.896V36.6445H598.065ZM602.665 34.3984V28.0898H603.593V30.6387H604.862V31.4297H603.593V34.3984H602.665ZM608.573 30.3066C608.563 31.9033 609.53 33.5146 610.888 34.1152L610.331 34.8477C609.325 34.3691 608.529 33.3877 608.119 32.1914C607.714 33.4756 606.908 34.5303 605.858 35.043L605.292 34.2617C606.669 33.6514 607.636 31.9766 607.636 30.3066V28.8125H608.573V30.3066ZM611.679 36.8496V28.0801H612.606V36.8496H611.679ZM619.306 36.0977C617.997 36.0879 616.63 35.3115 616.63 32.6992C616.635 30.2383 617.699 28.832 619.394 28.832C620.697 28.832 621.601 29.6426 621.767 30.7656H620.702C620.561 30.1895 620.106 29.7744 619.394 29.7695C618.3 29.7744 617.665 30.7217 617.665 32.3184H617.743C618.129 31.7178 618.793 31.3662 619.56 31.3613C620.819 31.3662 621.835 32.333 621.835 33.6855C621.835 35.0576 620.824 36.1074 619.306 36.0977ZM617.792 33.7148C617.797 34.501 618.427 35.1943 619.296 35.1992C620.15 35.1943 620.79 34.5303 620.79 33.7051C620.79 32.8945 620.175 32.2354 619.325 32.2402C618.461 32.2354 617.802 32.9287 617.792 33.7148ZM625.448 36.0977C623.91 36.0977 622.841 35.2676 622.851 34.1152C622.841 33.207 623.49 32.4648 624.325 32.3379V32.2988C623.598 32.1328 623.114 31.4883 623.114 30.7168C623.114 29.6279 624.096 28.832 625.448 28.832C626.781 28.832 627.768 29.6279 627.772 30.7168C627.768 31.4883 627.274 32.1328 626.562 32.2988V32.3379C627.387 32.4648 628.041 33.207 628.046 34.1152C628.041 35.2676 626.962 36.0977 625.448 36.0977ZM623.944 34.0371C623.93 34.7305 624.516 35.209 625.448 35.209C626.366 35.209 626.952 34.7305 626.952 34.0371C626.952 33.3096 626.317 32.7773 625.448 32.7773C624.569 32.7773 623.93 33.3096 623.944 34.0371ZM624.159 30.8145C624.164 31.4736 624.691 31.9326 625.448 31.9277C626.186 31.9326 626.723 31.4785 626.718 30.8145C626.723 30.1553 626.205 29.7061 625.448 29.7109C624.672 29.7061 624.164 30.1553 624.159 30.8145ZM629.638 36.0684C629.257 36.0635 628.939 35.7559 628.944 35.375C628.939 34.9941 629.257 34.6816 629.638 34.6816C630.014 34.6816 630.326 34.9941 630.331 35.375C630.326 35.7559 630.014 36.0635 629.638 36.0684ZM633.778 36.0977C632.143 36.0977 631.181 34.7793 631.181 32.4648C631.181 30.165 632.152 28.832 633.778 28.832C635.399 28.832 636.371 30.165 636.376 32.4648C636.371 34.7793 635.414 36.0977 633.778 36.0977ZM632.255 32.4648C632.25 34.2275 632.821 35.1699 633.778 35.1699C634.73 35.1699 635.302 34.2275 635.302 32.4648C635.302 30.707 634.726 29.7451 633.778 29.7402C632.826 29.7451 632.255 30.707 632.255 32.4648ZM639.11 32.2891C638.144 32.2988 637.616 31.5811 637.626 30.5312C637.616 29.4961 638.168 28.7783 639.11 28.7832C640.082 28.7783 640.59 29.4961 640.595 30.5312C640.59 31.5859 640.062 32.2988 639.11 32.2891ZM638.427 36L643.28 28.9297H644.169L639.315 36H638.427ZM638.427 30.5312C638.432 31.1807 638.656 31.6006 639.11 31.6055C639.569 31.6006 639.784 31.1807 639.784 30.5312C639.784 29.8965 639.584 29.4619 639.11 29.4668C638.656 29.4766 638.432 29.9014 638.427 30.5312ZM642.089 34.3887C642.084 33.3438 642.631 32.626 643.573 32.6309C644.54 32.626 645.053 33.3438 645.058 34.3887C645.053 35.4336 644.525 36.1465 643.573 36.1465C642.611 36.1465 642.084 35.4287 642.089 34.3887ZM642.89 34.3887C642.895 35.0283 643.119 35.4531 643.573 35.4531C644.032 35.4531 644.247 35.0283 644.247 34.3887C644.247 33.7441 644.047 33.3145 643.573 33.3145C643.124 33.3242 642.895 33.749 642.89 34.3887Z" fill="white"/>
<path d="M351.296 30.3066C351.286 31.8545 352.189 33.4414 353.493 34.0762L352.917 34.8184C351.965 34.3203 351.228 33.3438 350.842 32.1768C350.451 33.417 349.685 34.4668 348.688 34.9844L348.112 34.2324C349.455 33.5879 350.363 31.9082 350.368 30.3066V28.8125H351.296V30.3066ZM354.147 36.8301V28.0801H355.075V31.5664H356.481V32.3574H355.075V36.8301H354.147ZM358.229 28.7051V32.0742C359.416 32.0742 360.661 31.9961 362.019 31.7129L362.126 32.4746C360.661 32.7773 359.318 32.8604 358.015 32.8555H357.302V28.7051H358.229ZM358.249 36.6445V33.7832H359.187V35.8926H364.079V36.6445H358.249ZM362.849 34.3984V28.0898H363.776V30.6387H365.046V31.4297H363.776V34.3984H362.849ZM368.757 30.3066C368.747 31.9033 369.714 33.5146 371.071 34.1152L370.515 34.8477C369.509 34.3691 368.713 33.3877 368.303 32.1914C367.897 33.4756 367.092 34.5303 366.042 35.043L365.476 34.2617C366.853 33.6514 367.819 31.9766 367.819 30.3066V28.8125H368.757V30.3066ZM371.862 36.8496V28.0801H372.79V36.8496H371.862ZM379.616 28.9297V36H378.532V30.0039H378.493L376.804 31.1074V30.082L378.562 28.9297H379.616ZM383.972 36.0977C382.663 36.0879 381.296 35.3115 381.296 32.6992C381.301 30.2383 382.365 28.832 384.06 28.832C385.363 28.832 386.267 29.6426 386.433 30.7656H385.368C385.227 30.1895 384.772 29.7744 384.06 29.7695C382.966 29.7744 382.331 30.7217 382.331 32.3184H382.409C382.795 31.7178 383.459 31.3662 384.226 31.3613C385.485 31.3662 386.501 32.333 386.501 33.6855C386.501 35.0576 385.49 36.1074 383.972 36.0977ZM382.458 33.7148C382.463 34.501 383.093 35.1943 383.962 35.1992C384.816 35.1943 385.456 34.5303 385.456 33.7051C385.456 32.8945 384.841 32.2354 383.991 32.2402C383.127 32.2354 382.468 32.9287 382.458 33.7148ZM388.015 36.0684C387.634 36.0635 387.316 35.7559 387.321 35.375C387.316 34.9941 387.634 34.6816 388.015 34.6816C388.391 34.6816 388.703 34.9941 388.708 35.375C388.703 35.7559 388.391 36.0635 388.015 36.0684ZM389.802 34.623V33.7539L392.927 28.9297H394.255V33.7148H395.222V34.623H394.255V36H393.239V34.623H389.802ZM390.935 33.7148H393.239V30.209H393.161L390.935 33.6562V33.7148ZM397.927 32.2891C396.96 32.2988 396.433 31.5811 396.442 30.5312C396.433 29.4961 396.984 28.7783 397.927 28.7832C398.898 28.7783 399.406 29.4961 399.411 30.5312C399.406 31.5859 398.879 32.2988 397.927 32.2891ZM397.243 36L402.097 28.9297H402.985L398.132 36H397.243ZM397.243 30.5312C397.248 31.1807 397.473 31.6006 397.927 31.6055C398.386 31.6006 398.601 31.1807 398.601 30.5312C398.601 29.8965 398.4 29.4619 397.927 29.4668C397.473 29.4766 397.248 29.9014 397.243 30.5312ZM400.905 34.3887C400.9 33.3438 401.447 32.626 402.39 32.6309C403.356 32.626 403.869 33.3438 403.874 34.3887C403.869 35.4336 403.342 36.1465 402.39 36.1465C401.428 36.1465 400.9 35.4287 400.905 34.3887ZM401.706 34.3887C401.711 35.0283 401.936 35.4531 402.39 35.4531C402.849 35.4531 403.063 35.0283 403.063 34.3887C403.063 33.7441 402.863 33.3145 402.39 33.3145C401.94 33.3242 401.711 33.749 401.706 34.3887Z" fill="white"/>
<path d="M111.25 29.6523C111.25 30.7754 112.085 31.8545 113.438 32.2793L112.959 33.002C111.953 32.6699 111.191 31.9814 110.796 31.1025C110.4 32.0498 109.624 32.8018 108.584 33.168L108.105 32.4551C109.468 31.9814 110.308 30.8389 110.312 29.6523V29.4082H108.35V28.6562H113.174V29.4082H111.25V29.6523ZM109.336 34.5547V33.8027H115.264V36.8301H114.336V34.5547H109.336ZM114.336 33.3633V28.0801H115.264V33.3633H114.336ZM117.979 28.7051V32.0742C119.165 32.0742 120.41 31.9961 121.768 31.7129L121.875 32.4746C120.41 32.7773 119.067 32.8604 117.764 32.8555H117.051V28.7051H117.979ZM117.998 36.6445V33.7832H118.936V35.8926H123.828V36.6445H117.998ZM122.598 34.3984V28.0898H123.525V30.6387H124.795V31.4297H123.525V34.3984H122.598ZM128.506 30.3066C128.496 31.9033 129.463 33.5146 130.82 34.1152L130.264 34.8477C129.258 34.3691 128.462 33.3877 128.052 32.1914C127.646 33.4756 126.841 34.5303 125.791 35.043L125.225 34.2617C126.602 33.6514 127.568 31.9766 127.568 30.3066V28.8125H128.506V30.3066ZM131.611 36.8496V28.0801H132.539V36.8496H131.611ZM139.365 28.9297V36H138.281V30.0039H138.242L136.553 31.1074V30.082L138.311 28.9297H139.365ZM143.564 36.0977C142.227 36.0977 141.221 35.2822 141.172 34.1543H142.217C142.275 34.7549 142.852 35.1943 143.564 35.1992C144.424 35.1943 145.039 34.5742 145.039 33.7344C145.039 32.875 144.404 32.25 143.516 32.2402C142.949 32.2402 142.515 32.4307 142.275 32.8652H141.26L141.719 28.9297H145.723V29.8477H142.607L142.373 31.8301H142.441C142.734 31.5469 143.232 31.3564 143.77 31.3516C145.103 31.3564 146.084 32.3428 146.084 33.7051C146.084 35.0967 145.039 36.0977 143.564 36.0977ZM147.666 36.0684C147.285 36.0635 146.968 35.7559 146.973 35.375C146.968 34.9941 147.285 34.6816 147.666 34.6816C148.042 34.6816 148.354 34.9941 148.359 35.375C148.354 35.7559 148.042 36.0635 147.666 36.0684ZM151.895 36.0977C150.557 36.0977 149.551 35.2822 149.502 34.1543H150.547C150.605 34.7549 151.182 35.1943 151.895 35.1992C152.754 35.1943 153.369 34.5742 153.369 33.7344C153.369 32.875 152.734 32.25 151.846 32.2402C151.279 32.2402 150.845 32.4307 150.605 32.8652H149.59L150.049 28.9297H154.053V29.8477H150.938L150.703 31.8301H150.771C151.064 31.5469 151.562 31.3564 152.1 31.3516C153.433 31.3564 154.414 32.3428 154.414 33.7051C154.414 35.0967 153.369 36.0977 151.895 36.0977ZM157.178 32.2891C156.211 32.2988 155.684 31.5811 155.693 30.5312C155.684 29.4961 156.235 28.7783 157.178 28.7832C158.149 28.7783 158.657 29.4961 158.662 30.5312C158.657 31.5859 158.13 32.2988 157.178 32.2891ZM156.494 36L161.348 28.9297H162.236L157.383 36H156.494ZM156.494 30.5312C156.499 31.1807 156.724 31.6006 157.178 31.6055C157.637 31.6006 157.852 31.1807 157.852 30.5312C157.852 29.8965 157.651 29.4619 157.178 29.4668C156.724 29.4766 156.499 29.9014 156.494 30.5312ZM160.156 34.3887C160.151 33.3438 160.698 32.626 161.641 32.6309C162.607 32.626 163.12 33.3438 163.125 34.3887C163.12 35.4336 162.593 36.1465 161.641 36.1465C160.679 36.1465 160.151 35.4287 160.156 34.3887ZM160.957 34.3887C160.962 35.0283 161.187 35.4531 161.641 35.4531C162.1 35.4531 162.314 35.0283 162.314 34.3887C162.314 33.7441 162.114 33.3145 161.641 33.3145C161.191 33.3242 160.962 33.749 160.957 34.3887Z" fill="#113287"/>
</g>
<path d="M-2429 -1183H884V-1185H-2429V-1183ZM885 -1182V788H887V-1182H885ZM884 789H-2429V791H884V789ZM-2430 788V-1182H-2432V788H-2430ZM-2429 789C-2429.55 789 -2430 788.552 -2430 788H-2432C-2432 789.657 -2430.66 791 -2429 791V789ZM885 788C885 788.552 884.552 789 884 789V791C885.657 791 887 789.657 887 788H885ZM884 -1183C884.552 -1183 885 -1182.55 885 -1182H887C887 -1183.66 885.657 -1185 884 -1185V-1183ZM-2429 -1185C-2430.66 -1185 -2432 -1183.66 -2432 -1182H-2430C-2430 -1182.55 -2429.55 -1183 -2429 -1183V-1185Z" fill="black" fill-opacity="0.1"/>
<defs>
<clipPath id="clip0_1814_2379">
<rect width="744" height="78" fill="white"/>
</clipPath>
</defs>
</svg>
