<?xml version="1.0" encoding="UTF-8"?>
<svg width="744px" height="78px" viewBox="0 0 744 78" version="1.1" xmlns="http://www.w3.org/2000/svg" xmlns:xlink="http://www.w3.org/1999/xlink">
    <title>astigmatismAxis</title>
    <g id="astigmatismAxis" stroke="none" stroke-width="1" fill="none" fill-rule="evenodd">
        <g id="AGE_80_89" transform="translate(0.000000, 0.000000)">
            <path d="M2.33981271,76.3870765 C3.81319534,76.3870765 4.67523481,75.1998421 4.67962843,73.1155526 C4.67523481,71.0444714 3.80000448,69.8440288 2.33981271,69.8440288 C0.875237338,69.8440288 0,71.0444714 0,73.1155526 C0,75.1998421 0.866440097,76.3870765 2.33981271,76.3870765 Z M0.967593348,73.1155526 C0.967593348,71.5325734 1.48217686,70.6662374 2.33981271,70.6618347 C3.19305495,70.6662374 3.71204208,71.5325734 3.71204208,73.1155526 C3.71204208,74.7029347 3.19745857,75.5516597 2.33981271,75.5516597 C1.47778324,75.5516597 0.963199732,74.7029347 0.967593348,73.1155526 Z" id="Shape" fill="#113287" fill-rule="nonzero"></path>
            <path d="M7.06343034,72.8077843 C7.87268638,72.812165 8.52801573,72.1569596 8.52363417,71.3478591 C8.52801573,70.5387586 7.87268638,69.8835532 7.06343034,69.8791505 C6.25417431,69.8835532 5.59884496,70.5387586 5.60322652,71.3478591 C5.59884496,72.1569596 6.25417431,72.812165 7.06343034,72.8077843 Z M6.30694774,71.3478591 C6.31135137,70.9301007 6.64560647,70.5958939 7.06343034,70.6002966 C7.48125422,70.5958939 7.81551933,70.9301007 7.8111157,71.3478591 C7.81551933,71.7612148 7.48125422,72.0998243 7.06343034,72.1041269 C6.64560647,72.0998243 6.31135137,71.7612148 6.30694774,71.3478591 Z" id="Shape" fill="#113287" fill-rule="nonzero"></path>
            <polygon id="Path" fill="#113287" fill-rule="nonzero" points="12.0069189 69.6328982 11.1713312 69.6328982 9.12176439 77.2577151 9.95743216 77.2577151"></polygon>
            <polygon id="Path" fill="#113287" fill-rule="nonzero" points="15.1120745 69.9319832 14.1620927 69.9319832 12.5786895 70.9697252 12.5786895 71.8930964 14.1004419 70.8992816 14.1356709 70.8992816 14.1356709 76.2991221 15.1120745 76.2991221"></polygon>
            <path d="M18.9560382,76.3870765 C20.3194603,76.3870765 21.2914603,75.6396141 21.2958639,74.6017721 C21.2914603,73.7839662 20.7020752,73.1155526 19.9587635,73.0011819 L19.9587635,72.9660602 C20.6008919,72.8165677 21.0451576,72.2361086 21.0495612,71.5412788 C21.0451576,70.5607722 20.1567264,69.8440288 18.9560382,69.8440288 C17.7377355,69.8440288 16.8537079,70.5607722 16.8537079,71.5412788 C16.8537079,72.2361086 17.2891663,72.8165677 17.9445057,72.9660602 L17.9445057,73.0011819 C17.1923867,73.1155526 16.6074052,73.7839662 16.6162125,74.6017721 C16.6074052,75.6396141 17.5705979,76.3870765 18.9560382,76.3870765 Z M17.6014233,74.5314286 C17.5882124,73.8762232 18.1643866,73.3969267 18.9560382,73.3969267 C19.7388825,73.3969267 20.3106531,73.8762232 20.3106531,74.5314286 C20.3106531,75.1559149 19.7829187,75.5867814 18.9560382,75.5867814 C18.1159468,75.5867814 17.5882124,75.1559149 17.6014233,74.5314286 Z M17.7948825,71.6292332 C17.7992862,71.035666 18.2567627,70.6311157 18.9560382,70.6355184 C19.6376992,70.6311157 20.103983,71.035666 20.0995794,71.6292332 C20.103983,72.2273031 19.6201848,72.6362561 18.9560382,72.6318534 C18.2742771,72.6362561 17.7992862,72.2229004 17.7948825,71.6292332 Z" id="Shape" fill="#113287" fill-rule="nonzero"></path>
            <path d="M24.5153136,76.3870765 C25.9886262,76.3870765 26.8507357,75.1998421 26.8551393,73.1155526 C26.8507357,71.0444714 25.9755154,69.8440288 24.5153136,69.8440288 C23.0507082,69.8440288 22.1754879,71.0444714 22.1754879,73.1155526 C22.1754879,75.1998421 23.0419009,76.3870765 24.5153136,76.3870765 Z M23.1430842,73.1155526 C23.1430842,71.5325734 23.6576077,70.6662374 24.5153136,70.6618347 C25.3685158,70.6662374 25.887543,71.5325734 25.887543,73.1155526 C25.887543,74.7029347 25.3729194,75.5516597 24.5153136,75.5516597 C23.6533041,75.5516597 23.1386806,74.7029347 23.1430842,73.1155526 Z" id="Shape" fill="#113287" fill-rule="nonzero"></path>
            <path d="M29.2389012,72.8077843 C30.0481672,72.812165 30.7035066,72.1569596 30.699125,71.3478591 C30.7035066,70.5387586 30.0481672,69.8835532 29.2389012,69.8791505 C28.4296352,69.8835532 27.7742958,70.5387586 27.7786774,71.3478591 C27.7742958,72.1569596 28.4296352,72.812165 29.2389012,72.8077843 Z M28.4823786,71.3478591 C28.4867822,70.9301007 28.8210573,70.5958939 29.2389012,70.6002966 C29.6567451,70.5958939 29.9910202,70.9301007 29.9866166,71.3478591 C29.9910202,71.7612148 29.6567451,72.0998243 29.2389012,72.1041269 C28.8210573,72.0998243 28.4867822,71.7612148 28.4823786,71.3478591 Z" id="Shape" fill="#113287" fill-rule="nonzero"></path>
            <path d="M239.604837,76.4809346 C240.923922,76.4809346 241.904729,75.7025531 241.90075,74.6428975 C241.904729,73.8381997 241.399313,73.2533379 240.528597,73.1301617 L240.528597,73.0862345 C241.214161,72.9147284 241.663531,72.3959075 241.654523,71.6703586 C241.663531,70.7292764 240.875883,69.9377868 239.622851,69.9377868 C238.434874,69.9377868 237.476085,70.641322 237.450063,71.679064 L238.38183,71.679064 C238.403848,71.1031077 238.976319,70.7468873 239.613844,70.7468873 C240.286397,70.7468873 240.721756,71.1426321 240.721756,71.7230912 C240.721756,72.3342693 240.21634,72.7388196 239.490743,72.7344169 L238.945294,72.7344169 L238.945294,73.5259065 L239.490743,73.5259065 C240.400491,73.5303092 240.923922,73.9788867 240.923922,74.6076757 C240.923922,75.2276593 240.365463,75.6454177 239.595829,75.6454177 C238.883243,75.6454177 238.329787,75.2892974 238.294758,74.7307519 L237.308947,74.7307519 C237.34898,75.7729966 238.285751,76.4809346 239.604837,76.4809346 Z" id="Path" fill="#113287" fill-rule="nonzero"></path>
            <path d="M245.181426,76.4809346 C246.655639,76.4809346 247.517349,75.2936001 247.521352,73.2093106 C247.517349,71.1382294 246.641628,69.9377868 245.181426,69.9377868 C243.717221,69.9377868 242.8415,71.1382294 242.8415,73.2093106 C242.8415,75.2936001 243.708214,76.4809346 245.181426,76.4809346 Z M243.809274,73.2093106 C243.809274,71.6263314 244.32372,70.7600955 245.181426,70.7556928 C246.035129,70.7600955 246.553555,71.6263314 246.553555,73.2093106 C246.553555,74.7967927 246.039132,75.6454177 245.181426,75.6454177 C244.319717,75.6454177 243.805294,74.7967927 243.809274,73.2093106 Z" id="Shape" fill="#113287" fill-rule="nonzero"></path>
            <path d="M249.905314,72.9015423 C250.71498,72.905923 251.369519,72.2507176 251.365534,71.4416171 C251.369519,70.6325166 250.71498,69.9774113 249.905314,69.9730086 C249.095648,69.9774113 248.441109,70.6325166 248.445094,71.4416171 C248.441109,72.2507176 249.095648,72.905923 249.905314,72.9015423 Z M249.148691,71.4416171 C249.153695,71.0239587 249.487971,70.689752 249.905314,70.6941547 C250.323658,70.689752 250.657933,71.0239587 250.652929,71.4416171 C250.657933,71.8549728 250.323658,72.1935823 249.905314,72.197985 C249.487971,72.1935823 249.153695,71.8549728 249.148691,71.4416171 Z" id="Shape" fill="#113287" fill-rule="nonzero"></path>
            <polygon id="Path" fill="#113287" fill-rule="nonzero" points="254.849383 69.7267562 254.013695 69.7267562 251.964008 77.3515732 252.799696 77.3515732"></polygon>
            <polygon id="Path" fill="#113287" fill-rule="nonzero" points="257.953938 70.0257412 257.004157 70.0257412 255.420853 71.0634832 255.420853 71.9869545 256.942105 70.9931397 256.977134 70.9931397 256.977134 76.3929802 257.953938 76.3929802"></polygon>
            <path d="M261.736051,76.4809346 C263.065145,76.4809346 264.005919,75.5794769 264.005919,74.3263017 C264.005919,73.0994427 263.122192,72.2111932 261.921203,72.2067905 C261.437805,72.2111932 260.988436,72.3826993 260.725219,72.6377571 L260.663168,72.6377571 L260.874342,70.8524526 L263.680651,70.8524526 L263.680651,70.0257412 L260.073683,70.0257412 L259.660343,73.5699337 L260.575095,73.5699337 C260.791273,73.1785916 261.182595,73.0070855 261.692015,73.0070855 C262.492674,73.015891 263.065145,73.5787392 263.065145,74.3526179 C263.065145,75.1089859 262.510688,75.6674313 261.736051,75.671834 C261.094523,75.6674313 260.575095,75.2716865 260.522052,74.7307519 L259.581278,74.7307519 C259.625314,75.7465803 260.531059,76.4809346 261.736051,76.4809346 Z" id="Path" fill="#113287" fill-rule="nonzero"></path>
            <path d="M267.25159,76.4809346 C268.724803,76.4809346 269.587513,75.2936001 269.591516,73.2093106 C269.587513,71.1382294 268.711792,69.9377868 267.25159,69.9377868 C265.787385,69.9377868 264.911665,71.1382294 264.911665,73.2093106 C264.911665,75.2936001 265.778378,76.4809346 267.25159,76.4809346 Z M265.879438,73.2093106 C265.879438,71.6263314 266.393884,70.7600955 267.25159,70.7556928 C268.105293,70.7600955 268.62372,71.6263314 268.62372,73.2093106 C268.62372,74.7967927 268.109296,75.6454177 267.25159,75.6454177 C266.389881,75.6454177 265.875458,74.7967927 265.879438,73.2093106 Z" id="Shape" fill="#113287" fill-rule="nonzero"></path>
            <path d="M271.975478,72.9015423 C272.784144,72.905923 273.439683,72.2507176 273.435698,71.4416171 C273.439683,70.6325166 272.784144,69.9774113 271.975478,69.9730086 C271.165812,69.9774113 270.510272,70.6325166 270.515248,71.4416171 C270.510272,72.2507176 271.165812,72.905923 271.975478,72.9015423 Z M271.218855,71.4416171 C271.222859,71.0239587 271.557134,70.689752 271.975478,70.6941547 C272.392822,70.689752 272.727097,71.0239587 272.723094,71.4416171 C272.727097,71.8549728 272.392822,72.1935823 271.975478,72.197985 C271.557134,72.1935823 271.222859,71.8549728 271.218855,71.4416171 Z" id="Shape" fill="#113287" fill-rule="nonzero"></path>
            <path d="M480.623199,76.3871375 C481.991325,76.395882 482.901074,75.4504971 482.901074,74.2148327 C482.901074,72.9967792 481.986321,72.1261406 480.851387,72.1217378 C480.160819,72.1261406 479.563327,72.4427364 479.216041,72.9836711 L479.144983,72.9836711 C479.144983,71.5456815 479.717454,70.6926538 480.702264,70.688251 C481.344793,70.6926538 481.753129,71.066385 481.881235,71.585306 L482.840024,71.585306 C482.6899,70.5739803 481.876231,69.8440288 480.702264,69.8440288 C479.176008,69.8440288 478.217219,71.1104122 478.213216,73.3265832 C478.213216,75.6791386 479.444229,76.3782711 480.623199,76.3871375 Z M479.260078,74.241249 C479.268084,73.5333111 479.862573,72.9088248 480.640213,72.9132032 C481.405844,72.9088248 481.9603,73.502492 481.9603,74.2324436 C481.9603,74.9756033 481.383825,75.5735733 480.614192,75.577976 C479.831548,75.5735733 479.264081,74.949187 479.260078,74.241249 Z" id="Shape" fill="#113287" fill-rule="nonzero"></path>
            <path d="M486.146745,76.3870765 C487.620959,76.3870765 488.482668,75.1998421 488.486671,73.1155526 C488.482668,71.0444714 487.606947,69.8440288 486.146745,69.8440288 C484.68254,69.8440288 483.80782,71.0444714 483.80782,73.1155526 C483.80782,75.1998421 484.673533,76.3870765 486.146745,76.3870765 Z M484.774593,73.1155526 C484.774593,71.5325734 485.289039,70.6662374 486.146745,70.6618347 C487.000448,70.6662374 487.519876,71.5325734 487.519876,73.1155526 C487.519876,74.7029347 487.004451,75.5516597 486.146745,75.5516597 C485.285036,75.5516597 484.770613,74.7029347 484.774593,73.1155526 Z" id="Shape" fill="#113287" fill-rule="nonzero"></path>
            <path d="M490.870633,72.8077843 C491.6803,72.812165 492.335839,72.1569596 492.330863,71.3478591 C492.335839,70.5387586 491.6803,69.8835532 490.870633,69.8791505 C490.061968,69.8835532 489.406428,70.5387586 489.410413,71.3478591 C489.406428,72.1569596 490.061968,72.812165 490.870633,72.8077843 Z M490.114011,71.3478591 C490.119015,70.9301007 490.45329,70.5958939 490.870633,70.6002966 C491.288978,70.5958939 491.623253,70.9301007 491.618249,71.3478591 C491.623253,71.7612148 491.288978,72.0998243 490.870633,72.1041269 C490.45329,72.0998243 490.119015,71.7612148 490.114011,71.3478591 Z" id="Shape" fill="#113287" fill-rule="nonzero"></path>
            <polygon id="Path" fill="#113287" fill-rule="nonzero" points="495.814702 69.6328982 494.979015 69.6328982 492.929328 77.2577151 493.765015 77.2577151"></polygon>
            <polygon id="Path" fill="#113287" fill-rule="nonzero" points="498.919257 69.9319832 497.969476 69.9319832 496.386173 70.9697252 496.386173 71.8930964 497.907425 70.8992816 497.943454 70.8992816 497.943454 76.2991221 498.919257 76.2991221"></polygon>
            <path d="M500.537589,76.2991221 L504.822116,76.2991221 L504.822116,75.4725107 L501.883697,75.4725107 L501.883697,75.4196781 L503.176761,74.1093675 C504.372746,72.9352411 504.707021,72.3679902 504.716028,71.6556495 C504.707021,70.6223102 503.858322,69.8440288 502.631313,69.8440288 C501.417313,69.8440288 500.529583,70.6135048 500.537589,71.7788257 L501.452342,71.7788257 C501.457346,71.1016068 501.905715,70.6531293 502.614299,70.6531293 C503.282849,70.6531293 503.792268,71.0532769 503.792268,71.6820658 C503.792268,72.2405113 503.444982,72.6450616 502.745406,73.3706104 L500.537589,75.5955869 L500.537589,76.2991221 Z" id="Path" fill="#113287" fill-rule="nonzero"></path>
            <path d="M508.111823,76.3870765 C509.585036,76.3870765 510.446745,75.1998421 510.451749,73.1155526 C510.446745,71.0444714 509.572025,69.8440288 508.111823,69.8440288 C506.646617,69.8440288 505.771897,71.0444714 505.771897,73.1155526 C505.771897,75.1998421 506.638611,76.3870765 508.111823,76.3870765 Z M506.739694,73.1155526 C506.739694,71.5325734 507.254117,70.6662374 508.111823,70.6618347 C508.964525,70.6662374 509.483952,71.5325734 509.483952,73.1155526 C509.483952,74.7029347 508.969529,75.5516597 508.111823,75.5516597 C507.249113,75.5516597 506.73469,74.7029347 506.739694,73.1155526 Z" id="Shape" fill="#113287" fill-rule="nonzero"></path>
            <path d="M512.83471,72.8077843 C513.644376,72.812165 514.299916,72.1569596 514.29494,71.3478591 C514.299916,70.5387586 513.644376,69.8835532 512.83471,69.8791505 C512.026045,69.8835532 511.370505,70.5387586 511.37449,71.3478591 C511.370505,72.1569596 512.026045,72.812165 512.83471,72.8077843 Z M512.079088,71.3478591 C512.083092,70.9301007 512.417367,70.5958939 512.83471,70.6002966 C513.253054,70.5958939 513.58733,70.9301007 513.583326,71.3478591 C513.58733,71.7612148 513.253054,72.0998243 512.83471,72.1041269 C512.417367,72.0998243 512.083092,71.7612148 512.079088,71.3478591 Z" id="Shape" fill="#113287" fill-rule="nonzero"></path>
            <path d="M732.177233,69.8439681 C730.792093,69.8352233 729.890351,70.785111 729.890351,71.9986617 C729.890351,73.2167152 730.805104,74.0917566 731.949046,74.0917566 C732.63461,74.0917566 733.233102,73.7663553 733.576385,73.2299234 L733.65545,73.2299234 C733.646443,74.6854238 733.069968,75.5384515 732.089161,75.5428543 C731.447633,75.5384515 731.033292,75.1647203 730.902184,74.6282885 L729.943395,74.6282885 C730.096521,75.6616277 730.915195,76.3871766 732.089161,76.3871766 C733.615417,76.3871766 734.578209,75.1207932 734.578209,72.8869112 C734.574206,70.5563695 733.347196,69.8528342 732.177233,69.8439681 Z M730.831105,71.9811509 C730.827122,71.2511993 731.4076,70.6531293 732.177233,70.6531293 C732.955874,70.6531293 733.523341,71.2819183 733.523341,71.9723454 C733.523341,72.6758807 732.929853,73.3046696 732.159219,73.3002916 C731.385582,73.3046696 730.83613,72.7198078 730.831105,71.9811509 Z" id="Shape" fill="#113287" fill-rule="nonzero"></path>
            <path d="M737.815874,76.3871766 C739.289087,76.3871766 740.150796,75.1999421 740.1558,73.1156527 C740.150796,71.0444714 739.276076,69.8440288 737.815874,69.8440288 C736.350668,69.8440288 735.475948,71.0444714 735.475948,73.1156527 C735.475948,75.1999421 736.342662,76.3871766 737.815874,76.3871766 Z M736.443745,73.1156527 C736.443745,71.5325734 736.958168,70.6663375 737.815874,70.6619348 C738.668576,70.6663375 739.188003,71.5325734 739.188003,73.1156527 C739.188003,74.7030347 738.67358,75.5516597 737.815874,75.5516597 C736.954165,75.5516597 736.438741,74.7030347 736.443745,73.1156527 Z" id="Shape" fill="#113287" fill-rule="nonzero"></path>
            <path d="M742.539762,72.8077843 C743.348427,72.812165 744.003967,72.1569596 743.999982,71.3479592 C744.003967,70.5388586 743.348427,69.8836533 742.539762,69.8792506 C741.730096,69.8836533 741.074556,70.5388586 741.079532,71.3479592 C741.074556,72.1569596 741.730096,72.812165 742.539762,72.8077843 Z M741.783139,71.3479592 C741.787142,70.9302007 742.121418,70.595994 742.539762,70.6003967 C742.957105,70.595994 743.291381,70.9302007 743.287377,71.3479592 C743.291381,71.7612148 742.957105,72.0998243 742.539762,72.104227 C742.121418,72.0998243 741.787142,71.7612148 741.783139,71.3479592 Z" id="Shape" fill="#113287" fill-rule="nonzero"></path>
            <rect id="Rectangle" fill="#5B6EB4" fill-rule="nonzero" x="496.767486" y="20.2644572" width="240.197687" height="24.0148564"></rect>
            <polygon id="Path" fill="#FFFFFF" fill-rule="nonzero" points="596.244358 31.9201678 591.074103 31.9201678 591.074103 29.3110538 596.166294 29.3110538 596.166294 28.5586883 590.145338 28.5586883 590.145338 32.6628273 592.676421 32.6628273 592.676421 34.8027511 589.148518 34.8027511 589.148518 35.5649226 597.163114 35.5649226 597.163114 34.8027511 593.595178 34.8027511 593.595178 32.6628273 596.244358 32.6628273"></polygon>
            <path d="M599.127731,28.5098581 L598.198967,28.5098581 L598.198967,32.6628273 L598.912554,32.6628273 C600.217628,32.6676303 601.560733,32.5845789 603.02694,32.2816915 L602.919852,31.51952 C601.560733,31.8028953 600.314708,31.8810436 599.127731,31.8810436 L599.127731,28.5098581 Z M599.146747,36.4541727 L604.981549,36.4541727 L604.981549,35.7018073 L600.085519,35.7018073 L600.085519,33.5911015 L599.146747,33.5911015 L599.146747,36.4541727 Z M603.750536,34.2066824 L604.6793,34.2066824 L604.6793,31.2361447 L605.949345,31.2361447 L605.949345,30.444655 L604.6793,30.444655 L604.6793,27.8941772 L603.750536,27.8941772 L603.750536,34.2066824 Z" id="Shape" fill="#FFFFFF" fill-rule="nonzero"></path>
            <path d="M609.663402,30.1123495 L609.663402,28.6173246 L608.724629,28.6173246 L608.724629,30.1123495 C608.724629,31.7833832 607.757834,33.45922 606.379699,34.0698977 L606.946166,34.8516814 C607.997031,34.338664 608.803694,33.2833111 609.209028,31.9983162 C609.619366,33.1953567 610.416021,34.1773642 611.42285,34.6561604 L611.979308,33.9233071 C610.62119,33.3223353 609.653394,31.7100379 609.663402,30.1123495 Z M612.77096,36.6593997 L613.699724,36.6593997 L613.699724,27.8844712 L612.77096,27.8844712 L612.77096,36.6593997 Z" id="Shape" fill="#FFFFFF" fill-rule="nonzero"></path>
            <path d="M620.404242,35.9070023 C621.924493,35.9167403 622.936326,34.8662904 622.936326,33.4933411 C622.936326,32.1400038 621.919489,31.1726054 620.658451,31.1677023 C619.89182,31.1726054 619.227273,31.524423 618.840955,32.1252947 L618.762891,32.1252947 C618.762891,30.5277064 619.398414,29.57982 620.492314,29.574917 C621.205902,29.57982 621.660276,29.9950769 621.802393,30.5716336 L622.867269,30.5716336 C622.701132,29.4479384 621.797389,28.6368367 620.492314,28.6368367 C618.796919,28.6368367 617.732043,30.0440072 617.727039,32.5064305 C617.727039,35.1203476 619.095165,35.8972282 620.404242,35.9070023 Z M618.889996,33.5226592 C618.899003,32.7360726 619.559547,32.0422434 620.424258,32.0471192 C621.274959,32.0422434 621.890465,32.7018514 621.890465,33.5129532 C621.890465,34.338664 621.249938,35.003075 620.395235,35.0079781 C619.525519,35.003075 618.895,34.3093459 618.889996,33.5226592 Z" id="Shape" fill="#FFFFFF" fill-rule="nonzero"></path>
            <polygon id="Path" fill="#FFFFFF" fill-rule="nonzero" points="624.323468 35.8092738 625.447393 35.8092738 628.594983 29.6921895 628.594983 28.7345972 623.835066 28.7345972 623.835066 29.6530653 627.481066 29.6530653 627.481066 29.7117016"></polygon>
            <path d="M629.152442,35.8776161 C629.528752,35.8728131 629.841009,35.5649226 629.846013,35.1838869 C629.841009,34.8027511 629.528752,34.4900577 629.152442,34.4900577 C628.771128,34.4900577 628.452866,34.8027511 628.45787,35.1838869 C628.452866,35.5649226 628.771128,35.8728131 629.152442,35.8776161 Z" id="Path" fill="#FFFFFF" fill-rule="nonzero"></path>
            <path d="M633.295852,35.9069342 C634.9332,35.9069342 635.890988,34.5878181 635.895992,32.2718854 C635.890988,29.9706618 634.918187,28.6368367 633.295852,28.6368367 C631.668513,28.6368367 630.696713,29.9706618 630.696713,32.2718854 C630.696713,34.5878181 631.659505,35.9069342 633.295852,35.9069342 Z M631.771598,32.2718854 C631.771598,30.5129973 632.343068,29.5505019 633.295852,29.5455989 C634.244633,29.5505019 634.821107,30.5129973 634.821107,32.2718854 C634.821107,34.0356766 634.248636,34.9786599 633.295852,34.9786599 C632.338064,34.9786599 631.766593,34.0356766 631.771598,32.2718854 Z" id="Shape" fill="#FFFFFF" fill-rule="nonzero"></path>
            <path d="M638.632244,32.0960767 C639.585028,32.1057827 640.113463,31.3924414 640.118467,30.3370885 C640.113463,29.3013478 639.605045,28.5831034 638.632244,28.5879815 C637.689468,28.5831034 637.137013,29.3013478 637.147022,30.3370885 C637.137013,31.3875383 637.664447,32.1057827 638.632244,32.0960767 Z M637.948681,35.8092738 L638.837413,35.8092738 L643.695411,28.7345972 L642.805679,28.7345972 L637.948681,35.8092738 Z M637.948681,30.3370885 C637.953686,29.7068986 638.17787,29.2818357 638.632244,29.2720296 C639.106634,29.2671266 639.306799,29.7019956 639.306799,30.3370885 C639.306799,30.9869906 639.091622,31.4071505 638.632244,31.4120535 C638.17787,31.4071505 637.953686,30.9869906 637.948681,30.3370885 Z M641.613698,34.1969764 C641.608694,35.2376201 642.136128,35.9558645 643.09892,35.9558645 C644.051704,35.9558645 644.580139,35.2425232 644.585143,34.1969764 C644.580139,33.1513295 644.066717,32.4331852 643.09892,32.4379642 C642.156144,32.4331852 641.608694,33.1513295 641.613698,34.1969764 Z M642.415358,34.1969764 C642.419361,33.5568804 642.64955,33.1318174 643.09892,33.1220113 C643.573311,33.1220113 643.773475,33.5519773 643.773475,34.1969764 C643.773475,34.8369723 643.558298,35.2620352 643.09892,35.2620352 C642.644546,35.2620352 642.419361,34.8369723 642.415358,34.1969764 Z" id="Shape" fill="#FFFFFF" fill-rule="nonzero"></path>
            <rect id="Rectangle" fill="#113287" fill-rule="nonzero" x="255.568975" y="20.2644572" width="241.198511" height="24.0148564"></rect>
            <path d="M350.908442,30.1123495 L350.908442,28.6173246 L349.979677,28.6173246 L349.979677,30.1123495 C349.974673,31.7149409 349.065925,33.3956806 347.721819,34.0405796 L348.299294,34.7930451 C349.296115,34.2751247 350.062746,33.2246749 350.454068,31.9836071 C350.840386,33.1513295 351.577993,34.128534 352.530777,34.6268423 L353.107251,33.8842829 C351.803178,33.24909 350.898433,31.6612076 350.908442,30.1123495 Z M353.762791,36.6398876 L354.690554,36.6398876 L354.690554,32.164419 L356.098713,32.164419 L356.098713,31.3729293 L354.690554,31.3729293 L354.690554,27.8844712 L353.762791,27.8844712 L353.762791,36.6398876 Z" id="Shape" fill="#FFFFFF" fill-rule="nonzero"></path>
            <path d="M357.848153,28.5098581 L356.919389,28.5098581 L356.919389,32.6628273 L357.632976,32.6628273 C358.937049,32.6676303 360.281156,32.5845789 361.747362,32.2816915 L361.640274,31.51952 C360.281156,31.8028953 359.03513,31.8810436 357.848153,31.8810436 L357.848153,28.5098581 Z M357.867169,36.4541727 L363.701971,36.4541727 L363.701971,35.7018073 L358.805941,35.7018073 L358.805941,33.5911015 L357.867169,33.5911015 L357.867169,36.4541727 Z M362.470958,34.2066824 L363.398721,34.2066824 L363.398721,31.2361447 L364.669767,31.2361447 L364.669767,30.444655 L363.398721,30.444655 L363.398721,27.8941772 L362.470958,27.8941772 L362.470958,34.2066824 Z" id="Shape" fill="#FFFFFF" fill-rule="nonzero"></path>
            <path d="M368.383824,30.1123495 L368.383824,28.6173246 L367.445052,28.6173246 L367.445052,30.1123495 C367.445052,31.7833832 366.478256,33.45922 365.100122,34.0698977 L365.666588,34.8516814 C366.717453,34.338664 367.524117,33.2833111 367.92945,31.9983162 C368.339788,33.1953567 369.136444,34.1773642 370.143272,34.6561604 L370.69973,33.9233071 C369.341612,33.3223353 368.373816,31.7100379 368.383824,30.1123495 Z M371.491382,36.6593997 L372.420146,36.6593997 L372.420146,27.8844712 L371.491382,27.8844712 L371.491382,36.6593997 Z" id="Shape" fill="#FFFFFF" fill-rule="nonzero"></path>
            <path d="M376.564557,35.8092738 L381.324475,35.8092738 L381.324475,34.8907055 L378.059788,34.8907055 L378.059788,34.8320692 L379.49597,33.3760685 C380.826064,32.0715615 381.19737,31.4413717 381.206377,30.6497819 C381.19737,29.5016717 380.253593,28.6368367 378.890471,28.6368367 C377.541361,28.6368367 376.554549,29.4918656 376.564557,30.7866666 L377.580393,30.7866666 C377.585397,30.0342011 378.083807,29.5358929 378.870455,29.5358929 C379.614067,29.5358929 380.180533,29.9804679 380.180533,30.6791001 C380.180533,31.299684 379.794215,31.7491621 379.017576,32.5552607 L376.564557,35.0274901 L376.564557,35.8092738 Z" id="Path" fill="#FFFFFF" fill-rule="nonzero"></path>
            <path d="M384.979483,35.9069342 C386.61683,35.9069342 387.574619,34.5878181 387.579623,32.2718854 C387.574619,29.9706618 386.601818,28.6368367 384.979483,28.6368367 C383.352143,28.6368367 382.379343,29.9706618 382.379343,32.2718854 C382.379343,34.5878181 383.342135,35.9069342 384.979483,35.9069342 Z M383.455228,32.2718854 C383.455228,30.5129973 384.026699,29.5505019 384.979483,29.5455989 C385.927263,29.5505019 386.503737,30.5129973 386.503737,32.2718854 C386.503737,34.0356766 385.932267,34.9786599 384.979483,34.9786599 C384.021694,34.9786599 383.450224,34.0356766 383.455228,32.2718854 Z" id="Shape" fill="#FFFFFF" fill-rule="nonzero"></path>
            <path d="M389.123894,35.8776161 C389.500203,35.8728131 389.81246,35.5649226 389.817464,35.1838869 C389.81246,34.8027511 389.500203,34.4900577 389.123894,34.4900577 C388.74258,34.4900577 388.424318,34.8027511 388.429322,35.1838869 C388.424318,35.5649226 388.74258,35.8728131 389.123894,35.8776161 Z" id="Path" fill="#FFFFFF" fill-rule="nonzero"></path>
            <path d="M393.365384,35.9070023 C394.884635,35.9167403 395.896468,34.8662904 395.896468,33.4933411 C395.896468,32.1400038 394.880632,31.1726054 393.619594,31.1677023 C392.851962,31.1726054 392.187415,31.524423 391.801097,32.1252947 L391.723033,32.1252947 C391.723033,30.5277064 392.358556,29.57982 393.453457,29.574917 C394.167044,29.57982 394.621418,29.9950769 394.762534,30.5716336 L395.828412,30.5716336 C395.662275,29.4479384 394.75753,28.6368367 393.453457,28.6368367 C391.757061,28.6368367 390.692184,30.0440072 390.68718,32.5064305 C390.68718,35.1203476 392.055306,35.8972282 393.365384,35.9070023 Z M391.850137,33.5226592 C391.860146,32.7360726 392.519688,32.0422434 393.3844,32.0471192 C394.2351,32.0422434 394.850607,32.7018514 394.850607,33.5129532 C394.850607,34.338664 394.211081,35.003075 393.355376,35.0079781 C392.48566,35.003075 391.855142,34.3093459 391.850137,33.5226592 Z" id="Shape" fill="#FFFFFF" fill-rule="nonzero"></path>
            <path d="M398.662744,32.0960767 C399.615528,32.1057827 400.142963,31.3924414 400.147967,30.3370885 C400.142963,29.3013478 399.635545,28.5831034 398.662744,28.5879815 C397.718968,28.5831034 397.167514,29.3013478 397.176521,30.3370885 C397.167514,31.3875383 397.694948,32.1057827 398.662744,32.0960767 Z M397.978181,35.8092738 L398.867913,35.8092738 L403.724911,28.7345972 L402.836179,28.7345972 L397.978181,35.8092738 Z M397.978181,30.3370885 C397.983185,29.7068986 398.20837,29.2818357 398.662744,29.2720296 C399.136134,29.2671266 399.337299,29.7019956 399.337299,30.3370885 C399.337299,30.9869906 399.122122,31.4071505 398.662744,31.4120535 C398.20837,31.4071505 397.983185,30.9869906 397.978181,30.3370885 Z M401.643197,34.1969764 C401.638193,35.2376201 402.166628,35.9558645 403.12942,35.9558645 C404.082205,35.9558645 404.609639,35.2425232 404.614643,34.1969764 C404.609639,33.1513295 404.097217,32.4331852 403.12942,32.4379642 C402.185644,32.4331852 401.638193,33.1513295 401.643197,34.1969764 Z M402.444857,34.1969764 C402.449861,33.5568804 402.680051,33.1318174 403.12942,33.1220113 C403.60281,33.1220113 403.803976,33.5519773 403.803976,34.1969764 C403.803976,34.8369723 403.588799,35.2620352 403.12942,35.2620352 C402.675047,35.2620352 402.449861,34.8369723 402.444857,34.1969764 Z" id="Shape" fill="#FFFFFF" fill-rule="nonzero"></path>
            <rect id="Rectangle" fill="#E2E6F6" fill-rule="nonzero" x="15.371488" y="20.2644572" width="240.197687" height="24.0148564"></rect>
            <path d="M113.519065,29.4576445 L113.519065,29.2133934 L115.443649,29.2133934 L115.443649,28.4609279 L110.615676,28.4609279 L110.615676,29.2133934 L112.580293,29.2133934 L112.580293,29.4576445 C112.575289,30.644979 111.734597,31.7881862 110.371475,32.2621794 L110.850869,32.9755207 C111.891726,32.608994 112.668365,31.8566285 113.064691,30.9087421 C113.460017,31.7881862 114.222644,32.4771124 115.229473,32.8093179 L115.707867,32.0862706 C114.354753,31.6612076 113.519065,30.5814397 113.519065,29.4576445 Z M111.603489,34.3630791 L116.607607,34.3630791 L116.607607,36.6398876 L117.535371,36.6398876 L117.535371,33.6106136 L111.603489,33.6106136 L111.603489,34.3630791 Z M116.607607,33.1709416 L117.535371,33.1709416 L117.535371,27.8844712 L116.607607,27.8844712 L116.607607,33.1709416 Z" id="Shape" fill="#113287" fill-rule="nonzero"></path>
            <path d="M120.252607,28.5098581 L119.323843,28.5098581 L119.323843,32.6628273 L120.03743,32.6628273 C121.342504,32.6676303 122.686611,32.5845789 124.152817,32.2816915 L124.044728,31.51952 C122.686611,31.8028953 121.440585,31.8810436 120.252607,31.8810436 L120.252607,28.5098581 Z M120.272624,36.4541727 L126.107426,36.4541727 L126.107426,35.7018073 L121.210396,35.7018073 L121.210396,33.5911015 L120.272624,33.5911015 L120.272624,36.4541727 Z M124.875412,34.2066824 L125.804176,34.2066824 L125.804176,31.2361447 L127.075222,31.2361447 L127.075222,30.444655 L125.804176,30.444655 L125.804176,27.8941772 L124.875412,27.8941772 L124.875412,34.2066824 Z" id="Shape" fill="#113287" fill-rule="nonzero"></path>
            <path d="M130.789279,30.1123495 L130.789279,28.6173246 L129.850507,28.6173246 L129.850507,30.1123495 C129.850507,31.7833832 128.88271,33.45922 127.504576,34.0698977 L128.072043,34.8516814 C129.121907,34.338664 129.928571,33.2833111 130.333904,31.9983162 C130.745243,33.1953567 131.540898,34.1773642 132.547726,34.6561604 L133.105185,33.9233071 C131.747067,33.3223353 130.779271,31.7100379 130.789279,30.1123495 Z M133.896837,36.6593997 L134.825601,36.6593997 L134.825601,27.8844712 L133.896837,27.8844712 L133.896837,36.6593997 Z" id="Shape" fill="#113287" fill-rule="nonzero"></path>
            <path d="M141.403014,28.6367703 C139.863748,28.6271307 138.861923,29.6823835 138.861923,31.0309177 C138.861923,32.3842549 139.87876,33.3565564 141.148805,33.3565564 C141.911433,33.3565564 142.57598,32.9950328 142.957294,32.398964 L143.045366,32.398964 C143.035358,34.0161645 142.394831,34.9640509 141.304934,34.9688539 C140.591346,34.9640509 140.131968,34.5486939 139.985848,33.9526252 L138.920972,33.9526252 C139.091112,35.1008355 140.00086,35.9069342 141.304934,35.9069342 C143.00133,35.9069342 144.07121,34.4998637 144.07121,32.0178283 C144.066206,29.4283263 142.703084,28.6466427 141.403014,28.6367703 Z M139.907755,31.0114057 C139.90278,30.2003039 140.54731,29.5358929 141.403014,29.5358929 C142.267726,29.5358929 142.898245,30.2345251 142.898245,31.0015996 C142.898245,31.7833832 142.238702,32.4820154 141.382998,32.47714 C140.52329,32.4820154 139.912788,31.8322134 139.907755,31.0114057 Z" id="Shape" fill="#113287" fill-rule="nonzero"></path>
            <path d="M145.635498,35.8776161 C146.010807,35.8728131 146.324065,35.5649226 146.329069,35.1838869 C146.324065,34.8027511 146.010807,34.4900577 145.635498,34.4900577 C145.254184,34.4900577 144.935922,34.8027511 144.940926,35.1838869 C144.935922,35.5649226 145.254184,35.8728131 145.635498,35.8776161 Z" id="Path" fill="#113287" fill-rule="nonzero"></path>
            <polygon id="Path" fill="#113287" fill-rule="nonzero" points="147.638146 35.8092738 148.762071 35.8092738 151.909662 29.6921895 151.909662 28.7345972 147.149744 28.7345972 147.149744 29.6530653 150.795745 29.6530653 150.795745 29.7117016"></polygon>
            <path d="M154.61689,32.0960767 C155.569674,32.1057827 156.098109,31.3924414 156.102112,30.3370885 C156.098109,29.3013478 155.58969,28.5831034 154.61689,28.5879815 C153.674114,28.5831034 153.121659,29.3013478 153.131667,30.3370885 C153.121659,31.3875383 153.649093,32.1057827 154.61689,32.0960767 Z M153.933327,35.8092738 L154.822059,35.8092738 L159.680057,28.7345972 L158.790325,28.7345972 L153.933327,35.8092738 Z M153.933327,30.3370885 C153.93733,29.7068986 154.162516,29.2818357 154.61689,29.2720296 C155.09128,29.2671266 155.291445,29.7019956 155.291445,30.3370885 C155.291445,30.9869906 155.076268,31.4071505 154.61689,31.4120535 C154.162516,31.4071505 153.93733,30.9869906 153.933327,30.3370885 Z M157.598344,34.1969764 C157.593339,35.2376201 158.120774,35.9558645 159.083566,35.9558645 C160.03635,35.9558645 160.563784,35.2425232 160.568788,34.1969764 C160.563784,33.1513295 160.051362,32.4331852 159.083566,32.4379642 C158.14079,32.4331852 157.593339,33.1513295 157.598344,34.1969764 Z M158.399003,34.1969764 C158.404007,33.5568804 158.634196,33.1318174 159.083566,33.1220113 C159.557956,33.1220113 159.758121,33.5519773 159.758121,34.1969764 C159.758121,34.8369723 159.542944,35.2620352 159.083566,35.2620352 C158.629192,35.2620352 158.404007,34.8369723 158.399003,34.1969764 Z" id="Shape" fill="#113287" fill-rule="nonzero"></path>
            <polygon id="Path" fill="#113287" points="14.3707644 64.2916939 14.3706643 0.252108963 16.3723117 0.252108963 16.3724118 64.2916939"></polygon>
            <polygon id="Path" fill="#113287" points="735.953341 64.2916939 735.953341 0.252108963 737.954989 0.252108963 737.954989 64.2916939"></polygon>
            <polygon id="Path" fill="#979797" points="255.068563 64.039638 255.068563 0 256.069387 0 256.069387 64.039638"></polygon>
            <polygon id="Path" fill="#979797" points="496.267075 64.039638 496.267075 0 497.267898 0 497.267898 64.039638"></polygon>
        </g>
    </g>
</svg>