<svg width="744" height="78" viewBox="0 0 744 78" fill="none" xmlns="http://www.w3.org/2000/svg">
<rect width="744" height="78" fill="#727272"/>
<path d="M-2431 -840C-2431 -841.105 -2430.1 -842 -2429 -842H884C885.104 -842 886 -841.105 886 -840V1130C886 1131.1 885.104 1132 884 1132H-2429C-2430.1 1132 -2431 1131.1 -2431 1130V-840Z" fill="white"/>
<g clip-path="url(#clip0_1814_2379)">
<path d="M2.33981 76.3871C3.8132 76.3871 4.67523 75.1999 4.67963 73.1156C4.67523 71.0444 3.8 69.844 2.33981 69.844C0.875237 69.844 0 71.0444 0 73.1156C0 75.1999 0.86644 76.3871 2.33981 76.3871ZM0.967593 73.1156C0.967593 71.5325 1.48218 70.6663 2.33981 70.6619C3.19305 70.6663 3.71204 71.5325 3.71204 73.1156C3.71204 74.703 3.19746 75.5516 2.33981 75.5516C1.47778 75.5516 0.9632 74.703 0.967593 73.1156Z" fill="#113287"/>
<path d="M7.06344 72.8077C7.87269 72.8121 8.52802 72.157 8.52364 71.3479C8.52802 70.5388 7.87269 69.8836 7.06344 69.8792C6.25418 69.8836 5.59885 70.5388 5.60323 71.3479C5.59885 72.157 6.25418 72.8121 7.06344 72.8077ZM6.30695 71.3479C6.31136 70.9301 6.64561 70.5959 7.06344 70.6003C7.48126 70.5959 7.81553 70.9301 7.81112 71.3479C7.81553 71.7611 7.48126 72.0997 7.06344 72.1041C6.64561 72.0997 6.31136 71.7611 6.30695 71.3479Z" fill="#113287"/>
<path d="M12.0069 69.6329H11.1713L9.12177 77.2577H9.95743L12.0069 69.6329Z" fill="#113287"/>
<path d="M15.1121 69.9319H14.1621L12.5787 70.9696V71.8931L14.1004 70.8993H14.1357V76.2991H15.1121V69.9319Z" fill="#113287"/>
<path d="M18.956 76.3871C20.3194 76.3871 21.2914 75.6396 21.2958 74.6018C21.2914 73.7839 20.702 73.1156 19.9587 73.0012V72.966C20.6009 72.8165 21.0451 72.2362 21.0495 71.5413C21.0451 70.5607 20.1567 69.844 18.956 69.844C17.7377 69.844 16.8537 70.5607 16.8537 71.5413C16.8537 72.2362 17.2891 72.8165 17.9445 72.966V73.0012C17.1924 73.1156 16.6074 73.7839 16.6162 74.6018C16.6074 75.6396 17.5706 76.3871 18.956 76.3871ZM17.6014 74.5315C17.5882 73.8763 18.1644 73.397 18.956 73.397C19.7389 73.397 20.3106 73.8763 20.3106 74.5315C20.3106 75.1559 19.7829 75.5868 18.956 75.5868C18.1159 75.5868 17.5882 75.1559 17.6014 74.5315ZM17.7949 71.6293C17.7993 71.0357 18.2567 70.6312 18.956 70.6355C19.6377 70.6312 20.104 71.0357 20.0996 71.6293C20.104 72.2274 19.6202 72.6363 18.956 72.6319C18.2743 72.6363 17.7993 72.223 17.7949 71.6293Z" fill="#113287"/>
<path d="M24.5153 76.3871C25.9886 76.3871 26.8507 75.1999 26.8551 73.1156C26.8507 71.0444 25.9755 69.844 24.5153 69.844C23.0507 69.844 22.1755 71.0444 22.1755 73.1156C22.1755 75.1999 23.0419 76.3871 24.5153 76.3871ZM23.1431 73.1156C23.1431 71.5325 23.6576 70.6663 24.5153 70.6619C25.3685 70.6663 25.8875 71.5325 25.8875 73.1156C25.8875 74.703 25.3729 75.5516 24.5153 75.5516C23.6533 75.5516 23.1387 74.703 23.1431 73.1156Z" fill="#113287"/>
<path d="M29.2389 72.8077C30.0482 72.8121 30.7035 72.157 30.6992 71.3479C30.7035 70.5388 30.0482 69.8836 29.2389 69.8792C28.4297 69.8836 27.7743 70.5388 27.7787 71.3479C27.7743 72.157 28.4297 72.8121 29.2389 72.8077ZM28.4824 71.3479C28.4868 70.9301 28.8211 70.5959 29.2389 70.6003C29.6568 70.5959 29.9911 70.9301 29.9866 71.3479C29.9911 71.7611 29.6568 72.0997 29.2389 72.1041C28.8211 72.0997 28.4868 71.7611 28.4824 71.3479Z" fill="#113287"/>
<path d="M239.605 76.4808C240.924 76.4808 241.905 75.7025 241.901 74.6428C241.905 73.8381 241.399 73.2533 240.529 73.1301V73.0862C241.214 72.9147 241.664 72.3958 241.655 71.6702C241.664 70.7292 240.876 69.9377 239.623 69.9377C238.435 69.9377 237.476 70.6413 237.45 71.679H238.382C238.404 71.103 238.976 70.7468 239.614 70.7468C240.286 70.7468 240.722 71.1426 240.722 71.723C240.722 72.3342 240.216 72.7388 239.491 72.7344H238.945V73.5259H239.491C240.401 73.5303 240.924 73.9788 240.924 74.6076C240.924 75.2276 240.365 75.6454 239.596 75.6454C238.883 75.6454 238.33 75.2892 238.295 74.7307H237.309C237.349 75.7728 238.286 76.4808 239.605 76.4808Z" fill="#113287"/>
<path d="M245.181 76.4808C246.656 76.4808 247.517 75.2936 247.521 73.2093C247.517 71.1382 246.642 69.9377 245.181 69.9377C243.717 69.9377 242.841 71.1382 242.841 73.2093C242.841 75.2936 243.708 76.4808 245.181 76.4808ZM243.809 73.2093C243.809 71.6263 244.324 70.76 245.181 70.7556C246.035 70.76 246.554 71.6263 246.554 73.2093C246.554 74.7966 246.039 75.6454 245.181 75.6454C244.32 75.6454 243.805 74.7966 243.809 73.2093Z" fill="#113287"/>
<path d="M249.905 72.9015C250.715 72.9059 251.37 72.2507 251.366 71.4416C251.37 70.6325 250.715 69.9773 249.905 69.9729C249.096 69.9773 248.441 70.6325 248.445 71.4416C248.441 72.2507 249.096 72.9059 249.905 72.9015ZM249.149 71.4416C249.154 71.0239 249.488 70.6896 249.905 70.694C250.324 70.6896 250.658 71.0239 250.653 71.4416C250.658 71.855 250.324 72.1936 249.905 72.198C249.488 72.1936 249.154 71.855 249.149 71.4416Z" fill="#113287"/>
<path d="M254.849 69.7267H254.014L251.964 77.3516H252.8L254.849 69.7267Z" fill="#113287"/>
<path d="M257.954 70.0258H257.004L255.421 71.0635V71.9869L256.942 70.9932H256.977V76.393H257.954V70.0258Z" fill="#113287"/>
<path d="M261.736 76.4809C263.065 76.4809 264.006 75.5795 264.006 74.3262C264.006 73.0994 263.122 72.2112 261.921 72.2068C261.438 72.2112 260.988 72.3826 260.725 72.6377H260.663L260.874 70.8524H263.681V70.0258H260.074L259.66 73.57H260.575C260.791 73.1786 261.183 73.0071 261.692 73.0071C262.493 73.0159 263.065 73.5788 263.065 74.3526C263.065 75.109 262.511 75.6674 261.736 75.6719C261.095 75.6674 260.575 75.2716 260.522 74.7308H259.581C259.625 75.7466 260.531 76.4809 261.736 76.4809Z" fill="#113287"/>
<path d="M267.252 76.4808C268.725 76.4808 269.587 75.2936 269.591 73.2093C269.587 71.1382 268.712 69.9377 267.252 69.9377C265.787 69.9377 264.912 71.1382 264.912 73.2093C264.912 75.2936 265.778 76.4808 267.252 76.4808ZM265.879 73.2093C265.879 71.6263 266.394 70.76 267.252 70.7556C268.105 70.76 268.624 71.6263 268.624 73.2093C268.624 74.7966 268.109 75.6454 267.252 75.6454C266.39 75.6454 265.875 74.7966 265.879 73.2093Z" fill="#113287"/>
<path d="M271.975 72.9015C272.784 72.9059 273.44 72.2507 273.436 71.4416C273.44 70.6325 272.784 69.9773 271.975 69.9729C271.166 69.9773 270.51 70.6325 270.515 71.4416C270.51 72.2507 271.166 72.9059 271.975 72.9015ZM271.219 71.4416C271.223 71.0239 271.557 70.6896 271.975 70.694C272.393 70.6896 272.727 71.0239 272.723 71.4416C272.727 71.855 272.393 72.1936 271.975 72.198C271.557 72.1936 271.223 71.855 271.219 71.4416Z" fill="#113287"/>
<path d="M480.623 76.3872C481.991 76.3959 482.901 75.4506 482.901 74.2149C482.901 72.9968 481.986 72.1262 480.851 72.1218C480.161 72.1262 479.563 72.4428 479.216 72.9836H479.145C479.145 71.5457 479.717 70.6927 480.702 70.6883C481.345 70.6927 481.753 71.0665 481.881 71.5854H482.84C482.69 70.5739 481.876 69.844 480.702 69.844C479.176 69.844 478.217 71.1105 478.213 73.3266C478.213 75.6792 479.444 76.3783 480.623 76.3872ZM479.26 74.2413C479.268 73.5333 479.863 72.9089 480.64 72.9133C481.406 72.9089 481.96 73.5026 481.96 74.2325C481.96 74.9756 481.384 75.5736 480.614 75.578C479.832 75.5736 479.264 74.9492 479.26 74.2413Z" fill="#113287"/>
<path d="M486.147 76.3871C487.621 76.3871 488.483 75.1999 488.487 73.1156C488.483 71.0444 487.607 69.844 486.147 69.844C484.683 69.844 483.808 71.0444 483.808 73.1156C483.808 75.1999 484.674 76.3871 486.147 76.3871ZM484.775 73.1156C484.775 71.5325 485.289 70.6663 486.147 70.6619C487 70.6663 487.52 71.5325 487.52 73.1156C487.52 74.703 487.004 75.5516 486.147 75.5516C485.285 75.5516 484.771 74.703 484.775 73.1156Z" fill="#113287"/>
<path d="M490.871 72.8077C491.68 72.8121 492.336 72.157 492.331 71.3479C492.336 70.5388 491.68 69.8836 490.871 69.8792C490.062 69.8836 489.406 70.5388 489.41 71.3479C489.406 72.157 490.062 72.8121 490.871 72.8077ZM490.114 71.3479C490.119 70.9301 490.453 70.5959 490.871 70.6003C491.289 70.5959 491.623 70.9301 491.618 71.3479C491.623 71.7611 491.289 72.0997 490.871 72.1041C490.453 72.0997 490.119 71.7611 490.114 71.3479Z" fill="#113287"/>
<path d="M495.815 69.6329H494.979L492.929 77.2577H493.765L495.815 69.6329Z" fill="#113287"/>
<path d="M498.919 69.9319H497.969L496.386 70.9696V71.8931L497.907 70.8993H497.943V76.2991H498.919V69.9319Z" fill="#113287"/>
<path d="M500.538 76.2992H504.822V75.4725H501.884V75.4197L503.177 74.1093C504.373 72.9353 504.707 72.3681 504.716 71.6557C504.707 70.6224 503.858 69.844 502.631 69.844C501.417 69.844 500.53 70.6136 500.538 71.7788H501.452C501.457 71.1017 501.906 70.6531 502.614 70.6531C503.283 70.6531 503.792 71.0532 503.792 71.682C503.792 72.2406 503.445 72.645 502.745 73.3706L500.538 75.5956V76.2992Z" fill="#113287"/>
<path d="M508.112 76.3871C509.585 76.3871 510.447 75.1999 510.452 73.1156C510.447 71.0444 509.572 69.844 508.112 69.844C506.647 69.844 505.772 71.0444 505.772 73.1156C505.772 75.1999 506.639 76.3871 508.112 76.3871ZM506.74 73.1156C506.74 71.5325 507.254 70.6663 508.112 70.6619C508.965 70.6663 509.484 71.5325 509.484 73.1156C509.484 74.703 508.97 75.5516 508.112 75.5516C507.249 75.5516 506.735 74.703 506.74 73.1156Z" fill="#113287"/>
<path d="M512.835 72.8077C513.644 72.8121 514.3 72.157 514.295 71.3479C514.3 70.5388 513.644 69.8836 512.835 69.8792C512.026 69.8836 511.37 70.5388 511.374 71.3479C511.37 72.157 512.026 72.8121 512.835 72.8077ZM512.079 71.3479C512.083 70.9301 512.417 70.5959 512.835 70.6003C513.253 70.5959 513.587 70.9301 513.583 71.3479C513.587 71.7611 513.253 72.0997 512.835 72.1041C512.417 72.0997 512.083 71.7611 512.079 71.3479Z" fill="#113287"/>
<path d="M732.177 69.8439C730.792 69.8352 729.89 70.785 729.89 71.9986C729.89 73.2167 730.805 74.0917 731.949 74.0917C732.635 74.0917 733.233 73.7663 733.576 73.2299H733.655C733.646 74.6854 733.07 75.5384 732.089 75.5428C731.448 75.5384 731.033 75.1647 730.902 74.6281H729.943C730.097 75.6616 730.915 76.3871 732.089 76.3871C733.615 76.3871 734.578 75.1207 734.578 72.8869C734.574 70.5563 733.347 69.8528 732.177 69.8439ZM730.831 71.981C730.827 71.2511 731.408 70.6531 732.177 70.6531C732.956 70.6531 733.523 71.2819 733.523 71.9722C733.523 72.6758 732.93 73.3046 732.159 73.3003C731.386 73.3046 730.836 72.7198 730.831 71.981Z" fill="#113287"/>
<path d="M737.816 76.3871C739.289 76.3871 740.151 75.1998 740.156 73.1155C740.151 71.0444 739.276 69.844 737.816 69.844C736.351 69.844 735.476 71.0444 735.476 73.1155C735.476 75.1998 736.343 76.3871 737.816 76.3871ZM736.444 73.1155C736.444 71.5325 736.958 70.6663 737.816 70.6619C738.669 70.6663 739.188 71.5325 739.188 73.1155C739.188 74.7029 738.674 75.5516 737.816 75.5516C736.954 75.5516 736.439 74.7029 736.444 73.1155Z" fill="#113287"/>
<path d="M742.54 72.8078C743.348 72.8122 744.004 72.157 744 71.3479C744.004 70.5388 743.348 69.8836 742.54 69.8792C741.73 69.8836 741.075 70.5388 741.08 71.3479C741.075 72.157 741.73 72.8122 742.54 72.8078ZM741.783 71.3479C741.787 70.9301 742.121 70.596 742.54 70.6004C742.957 70.596 743.291 70.9301 743.287 71.3479C743.291 71.7612 742.957 72.0998 742.54 72.1042C742.121 72.0998 741.787 71.7612 741.783 71.3479Z" fill="#113287"/>
<path d="M736.965 20.2645H496.767V44.2794H736.965V20.2645Z" fill="#5B6EB4"/>
<path d="M496.767 20.2645H255.569V44.2794H496.767V20.2645Z" fill="#113287"/>
<path d="M255.569 20.2645H15.3715V44.2794H255.569V20.2645Z" fill="#E2E6F6"/>
<path fill-rule="evenodd" clip-rule="evenodd" d="M14.3708 64.2917L14.3707 0.252075H16.3723L16.3724 64.2917H14.3708Z" fill="#113287"/>
<path fill-rule="evenodd" clip-rule="evenodd" d="M735.953 64.2917V0.252075H737.955V64.2917H735.953Z" fill="#113287"/>
<path fill-rule="evenodd" clip-rule="evenodd" d="M255.069 64.0396V0H256.069V64.0396H255.069Z" fill="#979797"/>
<path fill-rule="evenodd" clip-rule="evenodd" d="M496.267 64.0396V0H497.268V64.0396H496.267Z" fill="#979797"/>
<path d="M595.956 32.1133V32.8555H593.31V34.9941H596.874V35.7559H588.866V34.9941H592.392V32.8555H589.862V28.7539H595.878V29.5059H590.79V32.1133H595.956ZM598.837 28.7051V32.0742C600.023 32.0742 601.269 31.9961 602.626 31.7129L602.733 32.4746C601.269 32.7773 599.926 32.8604 598.622 32.8555H597.909V28.7051H598.837ZM598.856 36.6445V33.7832H599.794V35.8926H604.687V36.6445H598.856ZM603.456 34.3984V28.0898H604.384V30.6387H605.653V31.4297H604.384V34.3984H603.456ZM609.364 30.3066C609.354 31.9033 610.321 33.5146 611.679 34.1152L611.122 34.8477C610.116 34.3691 609.32 33.3877 608.91 32.1914C608.505 33.4756 607.699 34.5303 606.649 35.043L606.083 34.2617C607.46 33.6514 608.427 31.9766 608.427 30.3066V28.8125H609.364V30.3066ZM612.47 36.8496V28.0801H613.397V36.8496H612.47ZM620.048 36.0977C618.583 36.0977 617.543 35.3115 617.499 34.1543H618.593C618.632 34.7744 619.247 35.1699 620.038 35.1699C620.893 35.1699 621.513 34.7061 621.513 34.0176C621.513 33.3193 620.932 32.8213 619.921 32.8164H619.315V31.9375H619.921C620.727 31.9424 621.288 31.4932 621.288 30.8145C621.288 30.1699 620.805 29.7305 620.058 29.7305C619.35 29.7305 618.715 30.126 618.69 30.7656H617.655C617.685 29.6133 618.749 28.832 620.067 28.832C621.459 28.832 622.333 29.7109 622.323 30.7559C622.333 31.5615 621.835 32.1377 621.073 32.3281V32.377C622.04 32.5137 622.602 33.1631 622.597 34.0566C622.602 35.2334 621.513 36.0977 620.048 36.0977ZM624.022 36L627.177 29.9062V29.8477H623.534V28.9297H628.29V29.8867L625.146 36H624.022ZM628.847 36.0684C628.466 36.0635 628.148 35.7559 628.153 35.375C628.148 34.9941 628.466 34.6816 628.847 34.6816C629.223 34.6816 629.535 34.9941 629.54 35.375C629.535 35.7559 629.223 36.0635 628.847 36.0684ZM632.987 36.0977C631.352 36.0977 630.39 34.7793 630.39 32.4648C630.39 30.165 631.361 28.832 632.987 28.832C634.608 28.832 635.58 30.165 635.585 32.4648C635.58 34.7793 634.623 36.0977 632.987 36.0977ZM631.464 32.4648C631.459 34.2275 632.03 35.1699 632.987 35.1699C633.939 35.1699 634.511 34.2275 634.511 32.4648C634.511 30.707 633.935 29.7451 632.987 29.7402C632.035 29.7451 631.464 30.707 631.464 32.4648ZM638.319 32.2891C637.353 32.2988 636.825 31.5811 636.835 30.5312C636.825 29.4961 637.377 28.7783 638.319 28.7832C639.291 28.7783 639.799 29.4961 639.804 30.5312C639.799 31.5859 639.271 32.2988 638.319 32.2891ZM637.636 36L642.489 28.9297H643.378L638.524 36H637.636ZM637.636 30.5312C637.641 31.1807 637.865 31.6006 638.319 31.6055C638.778 31.6006 638.993 31.1807 638.993 30.5312C638.993 29.8965 638.793 29.4619 638.319 29.4668C637.865 29.4766 637.641 29.9014 637.636 30.5312ZM641.298 34.3887C641.293 33.3438 641.84 32.626 642.782 32.6309C643.749 32.626 644.262 33.3438 644.267 34.3887C644.262 35.4336 643.734 36.1465 642.782 36.1465C641.82 36.1465 641.293 35.4287 641.298 34.3887ZM642.099 34.3887C642.104 35.0283 642.328 35.4531 642.782 35.4531C643.241 35.4531 643.456 35.0283 643.456 34.3887C643.456 33.7441 643.256 33.3145 642.782 33.3145C642.333 33.3242 642.104 33.749 642.099 34.3887Z" fill="white"/>
<path d="M351.545 30.3066C351.535 31.8545 352.438 33.4414 353.742 34.0762L353.166 34.8184C352.214 34.3203 351.477 33.3438 351.091 32.1768C350.7 33.417 349.934 34.4668 348.938 34.9844L348.361 34.2324C349.704 33.5879 350.612 31.9082 350.617 30.3066V28.8125H351.545V30.3066ZM354.396 36.8301V28.0801H355.324V31.5664H356.73V32.3574H355.324V36.8301H354.396ZM358.479 28.7051V32.0742C359.665 32.0742 360.91 31.9961 362.268 31.7129L362.375 32.4746C360.91 32.7773 359.567 32.8604 358.264 32.8555H357.551V28.7051H358.479ZM358.498 36.6445V33.7832H359.436V35.8926H364.328V36.6445H358.498ZM363.098 34.3984V28.0898H364.025V30.6387H365.295V31.4297H364.025V34.3984H363.098ZM369.006 30.3066C368.996 31.9033 369.963 33.5146 371.32 34.1152L370.764 34.8477C369.758 34.3691 368.962 33.3877 368.552 32.1914C368.146 33.4756 367.341 34.5303 366.291 35.043L365.725 34.2617C367.102 33.6514 368.068 31.9766 368.068 30.3066V28.8125H369.006V30.3066ZM372.111 36.8496V28.0801H373.039V36.8496H372.111ZM379.865 28.9297V36H378.781V30.0039H378.742L377.053 31.1074V30.082L378.811 28.9297H379.865ZM384.064 36.0977C382.727 36.0977 381.721 35.2822 381.672 34.1543H382.717C382.775 34.7549 383.352 35.1943 384.064 35.1992C384.924 35.1943 385.539 34.5742 385.539 33.7344C385.539 32.875 384.904 32.25 384.016 32.2402C383.449 32.2402 383.015 32.4307 382.775 32.8652H381.76L382.219 28.9297H386.223V29.8477H383.107L382.873 31.8301H382.941C383.234 31.5469 383.732 31.3564 384.27 31.3516C385.603 31.3564 386.584 32.3428 386.584 33.7051C386.584 35.0967 385.539 36.0977 384.064 36.0977ZM388.166 36.0684C387.785 36.0635 387.468 35.7559 387.473 35.375C387.468 34.9941 387.785 34.6816 388.166 34.6816C388.542 34.6816 388.854 34.9941 388.859 35.375C388.854 35.7559 388.542 36.0635 388.166 36.0684ZM390.109 36V35.2188L392.561 32.748C393.337 31.9424 393.723 31.4932 393.723 30.873C393.723 30.1748 393.156 29.7305 392.414 29.7305C391.628 29.7305 391.13 30.2285 391.125 30.9805H390.109C390.1 29.6865 391.086 28.832 392.434 28.832C393.796 28.832 394.738 29.6963 394.748 30.8438C394.738 31.6348 394.367 32.2646 393.039 33.5684L391.604 35.0234V35.082H394.865V36H390.109ZM397.678 32.2891C396.711 32.2988 396.184 31.5811 396.193 30.5312C396.184 29.4961 396.735 28.7783 397.678 28.7832C398.649 28.7783 399.157 29.4961 399.162 30.5312C399.157 31.5859 398.63 32.2988 397.678 32.2891ZM396.994 36L401.848 28.9297H402.736L397.883 36H396.994ZM396.994 30.5312C396.999 31.1807 397.224 31.6006 397.678 31.6055C398.137 31.6006 398.352 31.1807 398.352 30.5312C398.352 29.8965 398.151 29.4619 397.678 29.4668C397.224 29.4766 396.999 29.9014 396.994 30.5312ZM400.656 34.3887C400.651 33.3438 401.198 32.626 402.141 32.6309C403.107 32.626 403.62 33.3438 403.625 34.3887C403.62 35.4336 403.093 36.1465 402.141 36.1465C401.179 36.1465 400.651 35.4287 400.656 34.3887ZM401.457 34.3887C401.462 35.0283 401.687 35.4531 402.141 35.4531C402.6 35.4531 402.814 35.0283 402.814 34.3887C402.814 33.7441 402.614 33.3145 402.141 33.3145C401.691 33.3242 401.462 33.749 401.457 34.3887Z" fill="white"/>
<path d="M111.04 29.6523C111.04 30.7754 111.875 31.8545 113.228 32.2793L112.749 33.002C111.743 32.6699 110.981 31.9814 110.586 31.1025C110.19 32.0498 109.414 32.8018 108.374 33.168L107.896 32.4551C109.258 31.9814 110.098 30.8389 110.103 29.6523V29.4082H108.14V28.6562H112.964V29.4082H111.04V29.6523ZM109.126 34.5547V33.8027H115.054V36.8301H114.126V34.5547H109.126ZM114.126 33.3633V28.0801H115.054V33.3633H114.126ZM117.769 28.7051V32.0742C118.955 32.0742 120.2 31.9961 121.558 31.7129L121.665 32.4746C120.2 32.7773 118.857 32.8604 117.554 32.8555H116.841V28.7051H117.769ZM117.788 36.6445V33.7832H118.726V35.8926H123.618V36.6445H117.788ZM122.388 34.3984V28.0898H123.315V30.6387H124.585V31.4297H123.315V34.3984H122.388ZM128.296 30.3066C128.286 31.9033 129.253 33.5146 130.61 34.1152L130.054 34.8477C129.048 34.3691 128.252 33.3877 127.842 32.1914C127.437 33.4756 126.631 34.5303 125.581 35.043L125.015 34.2617C126.392 33.6514 127.358 31.9766 127.358 30.3066V28.8125H128.296V30.3066ZM131.401 36.8496V28.0801H132.329V36.8496H131.401ZM136.313 34.623V33.7539L139.438 28.9297H140.767V33.7148H141.733V34.623H140.767V36H139.751V34.623H136.313ZM137.446 33.7148H139.751V30.209H139.673L137.446 33.6562V33.7148ZM143.062 36L146.216 29.9062V29.8477H142.573V28.9297H147.329V29.8867L144.185 36H143.062ZM147.886 36.0684C147.505 36.0635 147.188 35.7559 147.192 35.375C147.188 34.9941 147.505 34.6816 147.886 34.6816C148.262 34.6816 148.574 34.9941 148.579 35.375C148.574 35.7559 148.262 36.0635 147.886 36.0684ZM152.056 36.0977C150.518 36.0977 149.448 35.2676 149.458 34.1152C149.448 33.207 150.098 32.4648 150.933 32.3379V32.2988C150.205 32.1328 149.722 31.4883 149.722 30.7168C149.722 29.6279 150.703 28.832 152.056 28.832C153.389 28.832 154.375 29.6279 154.38 30.7168C154.375 31.4883 153.882 32.1328 153.169 32.2988V32.3379C153.994 32.4648 154.648 33.207 154.653 34.1152C154.648 35.2676 153.569 36.0977 152.056 36.0977ZM150.552 34.0371C150.537 34.7305 151.123 35.209 152.056 35.209C152.974 35.209 153.56 34.7305 153.56 34.0371C153.56 33.3096 152.925 32.7773 152.056 32.7773C151.177 32.7773 150.537 33.3096 150.552 34.0371ZM150.767 30.8145C150.771 31.4736 151.299 31.9326 152.056 31.9277C152.793 31.9326 153.33 31.4785 153.325 30.8145C153.33 30.1553 152.812 29.7061 152.056 29.7109C151.279 29.7061 150.771 30.1553 150.767 30.8145ZM157.388 32.2891C156.421 32.2988 155.894 31.5811 155.903 30.5312C155.894 29.4961 156.445 28.7783 157.388 28.7832C158.359 28.7783 158.867 29.4961 158.872 30.5312C158.867 31.5859 158.34 32.2988 157.388 32.2891ZM156.704 36L161.558 28.9297H162.446L157.593 36H156.704ZM156.704 30.5312C156.709 31.1807 156.934 31.6006 157.388 31.6055C157.847 31.6006 158.062 31.1807 158.062 30.5312C158.062 29.8965 157.861 29.4619 157.388 29.4668C156.934 29.4766 156.709 29.9014 156.704 30.5312ZM160.366 34.3887C160.361 33.3438 160.908 32.626 161.851 32.6309C162.817 32.626 163.33 33.3438 163.335 34.3887C163.33 35.4336 162.803 36.1465 161.851 36.1465C160.889 36.1465 160.361 35.4287 160.366 34.3887ZM161.167 34.3887C161.172 35.0283 161.396 35.4531 161.851 35.4531C162.31 35.4531 162.524 35.0283 162.524 34.3887C162.524 33.7441 162.324 33.3145 161.851 33.3145C161.401 33.3242 161.172 33.749 161.167 34.3887Z" fill="#113287"/>
</g>
<path d="M-2429 -841H884V-843H-2429V-841ZM885 -840V1130H887V-840H885ZM884 1131H-2429V1133H884V1131ZM-2430 1130V-840H-2432V1130H-2430ZM-2429 1131C-2429.55 1131 -2430 1130.55 -2430 1130H-2432C-2432 1131.66 -2430.66 1133 -2429 1133V1131ZM885 1130C885 1130.55 884.552 1131 884 1131V1133C885.657 1133 887 1131.66 887 1130H885ZM884 -841C884.552 -841 885 -840.552 885 -840H887C887 -841.657 885.657 -843 884 -843V-841ZM-2429 -843C-2430.66 -843 -2432 -841.657 -2432 -840H-2430C-2430 -840.552 -2429.55 -841 -2429 -841V-843Z" fill="black" fill-opacity="0.1"/>
<defs>
<clipPath id="clip0_1814_2379">
<rect width="744" height="78" fill="white"/>
</clipPath>
</defs>
</svg>
