<?xml version="1.0" encoding="UTF-8"?>
<svg width="744px" height="78px" viewBox="0 0 744 78" version="1.1" xmlns="http://www.w3.org/2000/svg" xmlns:xlink="http://www.w3.org/1999/xlink">
    <title>astigmatismAxis</title>
    <g id="astigmatismAxis" stroke="none" stroke-width="1" fill="none" fill-rule="evenodd">
        <g id="AGE_00_06" transform="translate(0.000000, 0.000000)">
            <path d="M2.33981271,76.3870769 C3.81319534,76.3870769 4.67523481,75.1998428 4.67962843,73.1155542 C4.67523481,71.0443736 3.80000448,69.8439314 2.33981271,69.8439314 C0.875237338,69.8439314 0,71.0443736 0,73.1155542 C0,75.1998428 0.866440097,76.3870769 2.33981271,76.3870769 Z M0.967593348,73.1155542 C0.967593348,71.5324754 1.48217686,70.6662398 2.33981271,70.6618371 C3.19305495,70.6662398 3.71204208,71.5324754 3.71204208,73.1155542 C3.71204208,74.7029356 3.19745857,75.5515603 2.33981271,75.5515603 C1.47778324,75.5515603 0.963199732,74.7029356 0.967593348,73.1155542 Z" id="Shape" fill="#113287" fill-rule="nonzero"></path>
            <path d="M7.06343034,72.8076859 C7.87268638,72.8120665 8.52801573,72.1569615 8.52363417,71.3478613 C8.52801573,70.538761 7.87268638,69.8835559 7.06343034,69.8791532 C6.25417431,69.8835559 5.59884496,70.538761 5.60322652,71.3478613 C5.59884496,72.1569615 6.25417431,72.8120665 7.06343034,72.8076859 Z M6.30694774,71.3478613 C6.31135137,70.930103 6.64560647,70.5958964 7.06343034,70.6002991 C7.48125422,70.5958964 7.81551933,70.930103 7.8111157,71.3478613 C7.81551933,71.7611168 7.48125422,72.0997261 7.06343034,72.1041288 C6.64560647,72.0997261 6.31135137,71.7611168 6.30694774,71.3478613 Z" id="Shape" fill="#113287" fill-rule="nonzero"></path>
            <polygon id="Path" fill="#113287" fill-rule="nonzero" points="12.0069189 69.632901 11.1713312 69.632901 9.12176439 77.2577152 9.95743216 77.2577152"></polygon>
            <polygon id="Path" fill="#113287" fill-rule="nonzero" points="15.1120745 69.9318858 14.1620927 69.9318858 12.5786895 70.9696274 12.5786895 71.8930984 14.1004419 70.8992839 14.1356709 70.8992839 14.1356709 76.2991225 15.1120745 76.2991225"></polygon>
            <path d="M18.9560382,76.3870769 C20.3194603,76.3870769 21.2914603,75.6395147 21.2958639,74.6017731 C21.2914603,73.7838674 20.7020752,73.1155542 19.9587635,73.0011835 L19.9587635,72.9659617 C20.6008919,72.8164693 21.0451576,72.2361104 21.0495612,71.5412809 C21.0451576,70.5606746 20.1567264,69.8439314 18.9560382,69.8439314 C17.7377355,69.8439314 16.8537079,70.5606746 16.8537079,71.5412809 C16.8537079,72.2361104 17.2891663,72.8164693 17.9445057,72.9659617 L17.9445057,73.0011835 C17.1923867,73.1155542 16.6074052,73.7838674 16.6162125,74.6017731 C16.6074052,75.6395147 17.5705979,76.3870769 18.9560382,76.3870769 Z M17.6014233,74.5314296 C17.5882124,73.8762245 18.1643866,73.3969281 18.9560382,73.3969281 C19.7388825,73.3969281 20.3106531,73.8762245 20.3106531,74.5314296 C20.3106531,75.1558156 19.7829187,75.5867821 18.9560382,75.5867821 C18.1159468,75.5867821 17.5882124,75.1558156 17.6014233,74.5314296 Z M17.7948825,71.6292352 C17.7992862,71.0356683 18.2567627,70.6311181 18.9560382,70.6354208 C19.6376992,70.6311181 20.103983,71.0356683 20.0995794,71.6292352 C20.103983,72.227305 19.6201848,72.6362578 18.9560382,72.6318551 C18.2742771,72.6362578 17.7992862,72.2229023 17.7948825,71.6292352 Z" id="Shape" fill="#113287" fill-rule="nonzero"></path>
            <path d="M24.5153136,76.3870769 C25.9886262,76.3870769 26.8507357,75.1998428 26.8551393,73.1155542 C26.8507357,71.0443736 25.9755154,69.8439314 24.5153136,69.8439314 C23.0507082,69.8439314 22.1754879,71.0443736 22.1754879,73.1155542 C22.1754879,75.1998428 23.0419009,76.3870769 24.5153136,76.3870769 Z M23.1430842,73.1155542 C23.1430842,71.5324754 23.6576077,70.6662398 24.5153136,70.6618371 C25.3685158,70.6662398 25.887543,71.5324754 25.887543,73.1155542 C25.887543,74.7029356 25.3729194,75.5515603 24.5153136,75.5515603 C23.6533041,75.5515603 23.1386806,74.7029356 23.1430842,73.1155542 Z" id="Shape" fill="#113287" fill-rule="nonzero"></path>
            <path d="M29.2389012,72.8076859 C30.0481672,72.8120665 30.7035066,72.1569615 30.699125,71.3478613 C30.7035066,70.538761 30.0481672,69.8835559 29.2389012,69.8791532 C28.4296352,69.8835559 27.7742958,70.538761 27.7786774,71.3478613 C27.7742958,72.1569615 28.4296352,72.8120665 29.2389012,72.8076859 Z M28.4823786,71.3478613 C28.4867822,70.930103 28.8210573,70.5958964 29.2389012,70.6002991 C29.6567451,70.5958964 29.9910202,70.930103 29.9866166,71.3478613 C29.9910202,71.7611168 29.6567451,72.0997261 29.2389012,72.1041288 C28.8210573,72.0997261 28.4867822,71.7611168 28.4823786,71.3478613 Z" id="Shape" fill="#113287" fill-rule="nonzero"></path>
            <path d="M239.604837,76.4808348 C240.923922,76.4808348 241.904729,75.7025536 241.90075,74.6427984 C241.904729,73.8381009 241.399313,73.2533394 240.528597,73.1301632 L240.528597,73.0862361 C241.214161,72.91473 241.663531,72.3958092 241.654523,71.6702606 C241.663531,70.7292788 240.875883,69.9377895 239.622851,69.9377895 C238.434874,69.9377895 237.476085,70.6413244 237.450063,71.679066 L238.38183,71.679066 C238.403848,71.1030099 238.976319,70.7468897 239.613844,70.7468897 C240.286397,70.7468897 240.721756,71.1426344 240.721756,71.7230933 C240.721756,72.3342711 240.21634,72.7388213 239.490743,72.7344185 L238.945294,72.7344185 L238.945294,73.5259079 L239.490743,73.5259079 C240.400491,73.5303106 240.923922,73.978888 240.923922,74.6076767 C240.923922,75.22766 240.365463,75.6454183 239.595829,75.6454183 C238.883243,75.6454183 238.329787,75.2891981 238.294758,74.7307528 L237.308947,74.7307528 C237.34898,75.7728971 238.285751,76.4808348 239.604837,76.4808348 Z" id="Path" fill="#113287" fill-rule="nonzero"></path>
            <path d="M245.181426,76.4808348 C246.655639,76.4808348 247.517349,75.2936008 247.521352,73.2093122 C247.517349,71.1382317 246.641628,69.9377895 245.181426,69.9377895 C243.717221,69.9377895 242.8415,71.1382317 242.8415,73.2093122 C242.8415,75.2936008 243.708214,76.4808348 245.181426,76.4808348 Z M243.809274,73.2093122 C243.809274,71.6263334 244.32372,70.7600979 245.181426,70.7556952 C246.035129,70.7600979 246.553555,71.6263334 246.553555,73.2093122 C246.553555,74.7966936 246.039132,75.6454183 245.181426,75.6454183 C244.319717,75.6454183 243.805294,74.7966936 243.809274,73.2093122 Z" id="Shape" fill="#113287" fill-rule="nonzero"></path>
            <path d="M249.905314,72.9015439 C250.71498,72.9059246 251.369519,72.2507195 251.365534,71.4416192 C251.369519,70.632519 250.71498,69.9773139 249.905314,69.9729112 C249.095648,69.9773139 248.441109,70.632519 248.445094,71.4416192 C248.441109,72.2507195 249.095648,72.9059246 249.905314,72.9015439 Z M249.148691,71.4416192 C249.153695,71.023861 249.487971,70.6896543 249.905314,70.694057 C250.323658,70.6896543 250.657933,71.023861 250.652929,71.4416192 C250.657933,71.8549748 250.323658,72.1935842 249.905314,72.1979869 C249.487971,72.1935842 249.153695,71.8549748 249.148691,71.4416192 Z" id="Shape" fill="#113287" fill-rule="nonzero"></path>
            <polygon id="Path" fill="#113287" fill-rule="nonzero" points="254.849383 69.7266589 254.013695 69.7266589 251.964008 77.3515732 252.799696 77.3515732"></polygon>
            <polygon id="Path" fill="#113287" fill-rule="nonzero" points="257.953938 70.0257438 257.004157 70.0257438 255.420853 71.0634854 255.420853 71.9868563 256.942105 70.993142 256.977134 70.993142 256.977134 76.3929805 257.953938 76.3929805"></polygon>
            <path d="M261.736051,76.4808348 C263.065145,76.4808348 264.005919,75.5794776 264.005919,74.3262027 C264.005919,73.0993442 263.122192,72.211195 261.921203,72.2067923 C261.437805,72.211195 260.988436,72.382601 260.725219,72.6376587 L260.663168,72.6376587 L260.874342,70.8523549 L263.680651,70.8523549 L263.680651,70.0257438 L260.073683,70.0257438 L259.660343,73.5699351 L260.575095,73.5699351 C260.791273,73.1785932 261.182595,73.0070871 261.692015,73.0070871 C262.492674,73.0158926 263.065145,73.5787406 263.065145,74.352619 C263.065145,75.1089867 262.510688,75.6674319 261.736051,75.6718347 C261.094523,75.6674319 260.575095,75.2715872 260.522052,74.7307528 L259.581278,74.7307528 C259.625314,75.7465809 260.531059,76.4808348 261.736051,76.4808348 Z" id="Path" fill="#113287" fill-rule="nonzero"></path>
            <path d="M267.25159,76.4808348 C268.724803,76.4808348 269.587513,75.2936008 269.591516,73.2093122 C269.587513,71.1382317 268.711792,69.9377895 267.25159,69.9377895 C265.787385,69.9377895 264.911665,71.1382317 264.911665,73.2093122 C264.911665,75.2936008 265.778378,76.4808348 267.25159,76.4808348 Z M265.879438,73.2093122 C265.879438,71.6263334 266.393884,70.7600979 267.25159,70.7556952 C268.105293,70.7600979 268.62372,71.6263334 268.62372,73.2093122 C268.62372,74.7966936 268.109296,75.6454183 267.25159,75.6454183 C266.389881,75.6454183 265.875458,74.7966936 265.879438,73.2093122 Z" id="Shape" fill="#113287" fill-rule="nonzero"></path>
            <path d="M271.975478,72.9015439 C272.784144,72.9059246 273.439683,72.2507195 273.435698,71.4416192 C273.439683,70.632519 272.784144,69.9773139 271.975478,69.9729112 C271.165812,69.9773139 270.510272,70.632519 270.515248,71.4416192 C270.510272,72.2507195 271.165812,72.9059246 271.975478,72.9015439 Z M271.218855,71.4416192 C271.222859,71.023861 271.557134,70.6896543 271.975478,70.694057 C272.392822,70.6896543 272.727097,71.023861 272.723094,71.4416192 C272.727097,71.8549748 272.392822,72.1935842 271.975478,72.1979869 C271.557134,72.1935842 271.222859,71.8549748 271.218855,71.4416192 Z" id="Shape" fill="#113287" fill-rule="nonzero"></path>
            <path d="M480.623199,76.3871379 C481.991325,76.3958823 482.901074,75.4504978 482.901074,74.2148338 C482.901074,72.9967807 481.986321,72.1261425 480.851387,72.1217397 C480.160819,72.1261425 479.563327,72.4427382 479.216041,72.9835726 L479.144983,72.9835726 C479.144983,71.5456836 479.717454,70.6926562 480.702264,70.6882535 C481.344793,70.6926562 481.753129,71.0663872 481.881235,71.5853081 L482.840024,71.5853081 C482.6899,70.5738827 481.876231,69.8439314 480.702264,69.8439314 C479.176008,69.8439314 478.217219,71.1104145 478.213216,73.3265847 C478.213216,75.6791392 479.444229,76.3782714 480.623199,76.3871379 Z M479.260078,74.2412502 C479.268084,73.5332124 479.862573,72.9088264 480.640213,72.9132048 C481.405844,72.9088264 481.9603,73.5024934 481.9603,74.2324447 C481.9603,74.9755041 481.383825,75.5735739 480.614192,75.5779766 C479.831548,75.5735739 479.264081,74.9491879 479.260078,74.2412502 Z" id="Shape" fill="#113287" fill-rule="nonzero"></path>
            <path d="M486.146745,76.3870769 C487.620959,76.3870769 488.482668,75.1998428 488.486671,73.1155542 C488.482668,71.0443736 487.606947,69.8439314 486.146745,69.8439314 C484.68254,69.8439314 483.80782,71.0443736 483.80782,73.1155542 C483.80782,75.1998428 484.673533,76.3870769 486.146745,76.3870769 Z M484.774593,73.1155542 C484.774593,71.5324754 485.289039,70.6662398 486.146745,70.6618371 C487.000448,70.6662398 487.519876,71.5324754 487.519876,73.1155542 C487.519876,74.7029356 487.004451,75.5515603 486.146745,75.5515603 C485.285036,75.5515603 484.770613,74.7029356 484.774593,73.1155542 Z" id="Shape" fill="#113287" fill-rule="nonzero"></path>
            <path d="M490.870633,72.8076859 C491.6803,72.8120665 492.335839,72.1569615 492.330863,71.3478613 C492.335839,70.538761 491.6803,69.8835559 490.870633,69.8791532 C490.061968,69.8835559 489.406428,70.538761 489.410413,71.3478613 C489.406428,72.1569615 490.061968,72.8120665 490.870633,72.8076859 Z M490.114011,71.3478613 C490.119015,70.930103 490.45329,70.5958964 490.870633,70.6002991 C491.288978,70.5958964 491.623253,70.930103 491.618249,71.3478613 C491.623253,71.7611168 491.288978,72.0997261 490.870633,72.1041288 C490.45329,72.0997261 490.119015,71.7611168 490.114011,71.3478613 Z" id="Shape" fill="#113287" fill-rule="nonzero"></path>
            <polygon id="Path" fill="#113287" fill-rule="nonzero" points="495.814702 69.632901 494.979015 69.632901 492.929328 77.2577152 493.765015 77.2577152"></polygon>
            <polygon id="Path" fill="#113287" fill-rule="nonzero" points="498.919257 69.9318858 497.969476 69.9318858 496.386173 70.9696274 496.386173 71.8930984 497.907425 70.8992839 497.943454 70.8992839 497.943454 76.2991225 498.919257 76.2991225"></polygon>
            <path d="M500.537589,76.2991225 L504.822116,76.2991225 L504.822116,75.4724114 L501.883697,75.4724114 L501.883697,75.4196788 L503.176761,74.1092686 C504.372746,72.9352427 504.707021,72.367992 504.716028,71.6556516 C504.707021,70.6223127 503.858322,69.8439314 502.631313,69.8439314 C501.417313,69.8439314 500.529583,70.6135072 500.537589,71.7787277 L501.452342,71.7787277 C501.457346,71.101609 501.905715,70.6530317 502.614299,70.6530317 C503.282849,70.6530317 503.792268,71.0531791 503.792268,71.6819678 C503.792268,72.2405132 503.444982,72.6449632 502.745406,73.3705118 L500.537589,75.5955875 L500.537589,76.2991225 Z" id="Path" fill="#113287" fill-rule="nonzero"></path>
            <path d="M508.111823,76.3870769 C509.585036,76.3870769 510.446745,75.1998428 510.451749,73.1155542 C510.446745,71.0443736 509.572025,69.8439314 508.111823,69.8439314 C506.646617,69.8439314 505.771897,71.0443736 505.771897,73.1155542 C505.771897,75.1998428 506.638611,76.3870769 508.111823,76.3870769 Z M506.739694,73.1155542 C506.739694,71.5324754 507.254117,70.6662398 508.111823,70.6618371 C508.964525,70.6662398 509.483952,71.5324754 509.483952,73.1155542 C509.483952,74.7029356 508.969529,75.5515603 508.111823,75.5515603 C507.249113,75.5515603 506.73469,74.7029356 506.739694,73.1155542 Z" id="Shape" fill="#113287" fill-rule="nonzero"></path>
            <path d="M512.83471,72.8076859 C513.644376,72.8120665 514.299916,72.1569615 514.29494,71.3478613 C514.299916,70.538761 513.644376,69.8835559 512.83471,69.8791532 C512.026045,69.8835559 511.370505,70.538761 511.37449,71.3478613 C511.370505,72.1569615 512.026045,72.8120665 512.83471,72.8076859 Z M512.079088,71.3478613 C512.083092,70.930103 512.417367,70.5958964 512.83471,70.6002991 C513.253054,70.5958964 513.58733,70.930103 513.583326,71.3478613 C513.58733,71.7611168 513.253054,72.0997261 512.83471,72.1041288 C512.417367,72.0997261 512.083092,71.7611168 512.079088,71.3478613 Z" id="Shape" fill="#113287" fill-rule="nonzero"></path>
            <path d="M732.177233,69.8439708 C730.792093,69.8352261 729.890351,70.7850133 729.890351,71.9986636 C729.890351,73.2167167 730.805104,74.0917577 731.949046,74.0917577 C732.63461,74.0917577 733.233102,73.7663566 733.576385,73.2299249 L733.65545,73.2299249 C733.646443,74.6854248 733.069968,75.5384522 732.089161,75.5428549 C731.447633,75.5384522 731.033292,75.1647211 730.902184,74.6281894 L729.943395,74.6281894 C730.096521,75.6616283 730.915195,76.3871769 732.089161,76.3871769 C733.615417,76.3871769 734.578209,75.1206939 734.578209,72.8869128 C734.574206,70.5563719 733.347196,69.8528369 732.177233,69.8439708 Z M730.831105,71.9810528 C730.827122,71.2511014 731.4076,70.6531317 732.177233,70.6531317 C732.955874,70.6531317 733.523341,71.2819205 733.523341,71.9722473 C733.523341,72.6758823 732.929853,73.3046711 732.159219,73.3002931 C731.385582,73.3046711 730.83613,72.7198095 730.831105,71.9810528 Z" id="Shape" fill="#113287" fill-rule="nonzero"></path>
            <path d="M737.815874,76.3871769 C739.289087,76.3871769 740.150796,75.1998428 740.1558,73.1155542 C740.150796,71.0444737 739.276076,69.8440315 737.815874,69.8440315 C736.350668,69.8440315 735.475948,71.0444737 735.475948,73.1155542 C735.475948,75.1998428 736.342662,76.3871769 737.815874,76.3871769 Z M736.443745,73.1155542 C736.443745,71.5325755 736.958168,70.6663399 737.815874,70.6619372 C738.668576,70.6663399 739.188003,71.5325755 739.188003,73.1155542 C739.188003,74.7029356 738.67358,75.5516604 737.815874,75.5516604 C736.954165,75.5516604 736.438741,74.7029356 736.443745,73.1155542 Z" id="Shape" fill="#113287" fill-rule="nonzero"></path>
            <path d="M742.539762,72.8077859 C743.348427,72.8121666 744.003967,72.1569615 743.999982,71.3478613 C744.003967,70.538761 743.348427,69.8835559 742.539762,69.8791532 C741.730096,69.8835559 741.074556,70.538761 741.079532,71.3478613 C741.074556,72.1569615 741.730096,72.8121666 742.539762,72.8077859 Z M741.783139,71.3478613 C741.787142,70.930103 742.121418,70.5959964 742.539762,70.6003991 C742.957105,70.5959964 743.291381,70.930103 743.287377,71.3478613 C743.291381,71.7612168 742.957105,72.0998262 742.539762,72.1042289 C742.121418,72.0998262 741.787142,71.7612168 741.783139,71.3478613 Z" id="Shape" fill="#113287" fill-rule="nonzero"></path>
            <rect id="Rectangle" fill="#5B6EB4" fill-rule="nonzero" x="496.767486" y="20.2644779" width="240.197687" height="24.0148477"></rect>
            <polygon id="Path" fill="#FFFFFF" fill-rule="nonzero" points="596.244358 31.9200842 591.074103 31.9200842 591.074103 29.3110712 596.166294 29.3110712 596.166294 28.558706 590.145338 28.558706 590.145338 32.6627434 592.676421 32.6627434 592.676421 34.8027665 589.148518 34.8027665 589.148518 35.5649377 597.163114 35.5649377 597.163114 34.8027665 593.595178 34.8027665 593.595178 32.6627434 596.244358 32.6627434"></polygon>
            <path d="M599.127731,28.5097758 L598.198967,28.5097758 L598.198967,32.6627434 L598.912554,32.6627434 C600.217628,32.6676464 601.560733,32.5845951 603.02694,32.2817078 L602.919852,31.5195366 C601.560733,31.8029118 600.314708,31.8810601 599.127731,31.8810601 L599.127731,28.5097758 Z M599.146747,36.4541875 L604.981549,36.4541875 L604.981549,35.7017223 L600.085519,35.7017223 L600.085519,33.5911174 L599.146747,33.5911174 L599.146747,36.4541875 Z M603.750536,34.206698 L604.6793,34.206698 L604.6793,31.2360613 L605.949345,31.2360613 L605.949345,30.444572 L604.6793,30.444572 L604.6793,27.8941952 L603.750536,27.8941952 L603.750536,34.206698 Z" id="Shape" fill="#FFFFFF" fill-rule="nonzero"></path>
            <path d="M609.663402,30.1123666 L609.663402,28.6173423 L608.724629,28.6173423 L608.724629,30.1123666 C608.724629,31.7832997 607.757834,33.4591358 606.379699,34.0699134 L606.946166,34.8515967 C607.997031,34.3385795 608.803694,33.283227 609.209028,31.9983326 C609.619366,33.1953727 610.416021,34.1773799 611.42285,34.6561759 L611.979308,33.9233228 C610.62119,33.3223512 609.653394,31.7100544 609.663402,30.1123666 Z M612.77096,36.6594144 L613.699724,36.6594144 L613.699724,27.8843891 L612.77096,27.8843891 L612.77096,36.6594144 Z" id="Shape" fill="#FFFFFF" fill-rule="nonzero"></path>
            <polygon id="Path" fill="#FFFFFF" fill-rule="nonzero" points="620.531347 28.7345147 619.476478 28.7345147 617.71703 29.8876276 617.71703 30.913662 619.407422 29.8094793 619.446454 29.8094793 619.446454 35.8092888 620.531347 35.8092888"></polygon>
            <path d="M622.173698,34.4314369 L625.613529,34.4314369 L625.613529,35.8092888 L626.630366,35.8092888 L626.630366,34.4314369 L627.598163,34.4314369 L627.598163,33.5226751 L626.630366,33.5226751 L626.630366,28.7345147 L625.301272,28.7345147 L622.173698,33.5617993 L622.173698,34.4314369 Z M623.307632,33.5226751 L623.307632,33.4640388 L625.535465,30.0146061 L625.613529,30.0146061 L625.613529,33.5226751 L623.307632,33.5226751 Z" id="Shape" fill="#FFFFFF" fill-rule="nonzero"></path>
            <path d="M629.11341,35.8776311 C629.489719,35.872728 629.801976,35.5649377 629.806981,35.1839022 C629.801976,34.8027665 629.489719,34.4900732 629.11341,34.4900732 C628.732096,34.4900732 628.413834,34.8027665 628.418838,35.1839022 C628.413834,35.5649377 628.732096,35.872728 629.11341,35.8776311 Z" id="Path" fill="#FFFFFF" fill-rule="nonzero"></path>
            <path d="M631.05801,35.8092888 L635.817928,35.8092888 L635.817928,34.8907209 L632.553241,34.8907209 L632.553241,34.8320846 L633.990424,33.3760844 C635.319518,32.0715779 635.690823,31.4412882 635.700831,30.6497989 C635.690823,29.501589 634.747046,28.6368543 633.383924,28.6368543 C632.035815,28.6368543 631.048002,29.491883 631.05801,30.7865834 L632.074847,30.7865834 C632.07885,30.0342183 632.577261,29.5358101 633.364909,29.5358101 C634.10752,29.5358101 634.673986,29.980485 634.673986,30.679117 C634.673986,31.2996006 634.287668,31.7490785 633.511029,32.555277 L631.05801,35.0275055 L631.05801,35.8092888 Z" id="Path" fill="#FFFFFF" fill-rule="nonzero"></path>
            <path d="M638.632244,32.095993 C639.585028,32.1057991 640.113463,31.392458 640.118467,30.3371055 C640.113463,29.3013652 639.605045,28.5831211 638.632244,28.5879992 C637.689468,28.5831211 637.137013,29.3013652 637.147022,30.3371055 C637.137013,31.387555 637.664447,32.1057991 638.632244,32.095993 Z M637.948681,35.8092888 L638.837413,35.8092888 L643.695411,28.7345147 L642.805679,28.7345147 L637.948681,35.8092888 Z M637.948681,30.3371055 C637.953686,29.7068158 638.17787,29.281753 638.632244,29.272047 C639.106634,29.267144 639.306799,29.7019128 639.306799,30.3371055 C639.306799,30.9869073 639.091622,31.4070671 638.632244,31.4119701 C638.17787,31.4070671 637.953686,30.9869073 637.948681,30.3371055 Z M641.613698,34.1968919 C641.608694,35.2376354 642.136128,35.9557794 643.09892,35.9557794 C644.051704,35.9557794 644.580139,35.2425384 644.585143,34.1968919 C644.580139,33.1513455 644.066717,32.4331014 643.09892,32.4379795 C642.156144,32.4331014 641.608694,33.1513455 641.613698,34.1968919 Z M642.415358,34.1968919 C642.419361,33.5568962 642.64955,33.1318334 643.09892,33.1220274 C643.573311,33.1220274 643.773475,33.5519932 643.773475,34.1968919 C643.773475,34.8369877 643.558298,35.2620505 643.09892,35.2620505 C642.644546,35.2620505 642.419361,34.8369877 642.415358,34.1968919 Z" id="Shape" fill="#FFFFFF" fill-rule="nonzero"></path>
            <rect id="Rectangle" fill="#113287" fill-rule="nonzero" x="255.568975" y="20.2644779" width="241.198511" height="24.0148477"></rect>
            <path d="M351.572989,30.1123666 L351.572989,28.6173423 L350.644224,28.6173423 L350.644224,30.1123666 C350.63922,31.7149574 349.730472,33.3956966 348.386366,34.0405953 L348.963841,34.7929605 C349.960662,34.2751403 350.727292,33.2246908 351.118615,31.9836235 C351.504933,33.1513455 352.24254,34.1285497 353.195324,34.6268578 L353.771798,33.8841986 C352.467725,33.2491059 351.56298,31.6612242 351.572989,30.1123666 Z M354.427338,36.6398023 L355.355101,36.6398023 L355.355101,32.1644353 L356.76326,32.1644353 L356.76326,31.372946 L355.355101,31.372946 L355.355101,27.8843891 L354.427338,27.8843891 L354.427338,36.6398023 Z" id="Shape" fill="#FFFFFF" fill-rule="nonzero"></path>
            <path d="M358.5127,28.5097758 L357.583936,28.5097758 L357.583936,32.6627434 L358.297523,32.6627434 C359.602597,32.6676464 360.945702,32.5845951 362.411909,32.2817078 L362.304821,31.5195366 C360.945702,31.8029118 359.699677,31.8810601 358.5127,31.8810601 L358.5127,28.5097758 Z M358.531716,36.4541875 L364.366518,36.4541875 L364.366518,35.7017223 L359.470488,35.7017223 L359.470488,33.5911174 L358.531716,33.5911174 L358.531716,36.4541875 Z M363.135505,34.206698 L364.064269,34.206698 L364.064269,31.2360613 L365.334314,31.2360613 L365.334314,30.444572 L364.064269,30.444572 L364.064269,27.8941952 L363.135505,27.8941952 L363.135505,34.206698 Z" id="Shape" fill="#FFFFFF" fill-rule="nonzero"></path>
            <path d="M369.048371,30.1123666 L369.048371,28.6173423 L368.109598,28.6173423 L368.109598,30.1123666 C368.109598,31.7832997 367.142803,33.4591358 365.764669,34.0699134 L366.331135,34.8515967 C367.382,34.3385795 368.188664,33.283227 368.593997,31.9983326 C369.004335,33.1953727 369.800991,34.1773799 370.807819,34.6561759 L371.364277,33.9233228 C370.006159,33.3223512 369.038363,31.7100544 369.048371,30.1123666 Z M372.155929,36.6594144 L373.084693,36.6594144 L373.084693,27.8843891 L372.155929,27.8843891 L372.155929,36.6594144 Z" id="Shape" fill="#FFFFFF" fill-rule="nonzero"></path>
            <polygon id="Path" fill="#FFFFFF" fill-rule="nonzero" points="379.916316 28.7345147 378.861447 28.7345147 377.101999 29.8876276 377.101999 30.913662 378.792391 29.8094793 378.831423 29.8094793 378.831423 35.8092888 379.916316 35.8092888"></polygon>
            <path d="M384.226863,35.9069492 C385.69307,35.9069492 386.782967,35.0422146 386.777996,33.8646865 C386.782967,32.9705337 386.220504,32.320732 385.252708,32.1839474 L385.252708,32.1351172 C386.015335,31.9445994 386.513745,31.3680429 386.503737,30.5618445 C386.513745,29.5162981 385.639026,28.6368543 384.24688,28.6368543 C382.926793,28.6368543 381.861917,29.4185376 381.831892,30.5716505 L382.868746,30.5716505 C382.892765,29.9315548 383.528288,29.5358101 384.236872,29.5358101 C384.984487,29.5358101 385.467885,29.975582 385.467885,30.6204807 C385.467885,31.2996006 384.906423,31.7490785 384.099759,31.7442755 L383.49426,31.7442755 L383.49426,32.6237193 L384.099759,32.6237193 C385.111591,32.6285222 385.69307,33.1269304 385.69307,33.8255623 C385.69307,34.5144883 385.072559,34.9786753 384.216855,34.9786753 C383.425204,34.9786753 382.809697,34.5829306 382.770665,33.962447 L381.675764,33.962447 C381.7198,35.1203629 382.760657,35.9069492 384.226863,35.9069492 Z" id="Path" fill="#FFFFFF" fill-rule="nonzero"></path>
            <path d="M388.43933,35.8776311 C388.81564,35.872728 389.127897,35.5649377 389.132901,35.1839022 C389.127897,34.8027665 388.81564,34.4900732 388.43933,34.4900732 C388.058016,34.4900732 387.740755,34.8027665 387.745759,35.1839022 C387.740755,35.5649377 388.058016,35.872728 388.43933,35.8776311 Z" id="Path" fill="#FFFFFF" fill-rule="nonzero"></path>
            <path d="M392.641789,35.9069492 C394.107996,35.9069492 395.197893,35.0422146 395.192922,33.8646865 C395.197893,32.9705337 394.63543,32.320732 393.668634,32.1839474 L393.668634,32.1351172 C394.430261,31.9445994 394.928671,31.3680429 394.919664,30.5618445 C394.928671,29.5162981 394.053951,28.6368543 392.661805,28.6368543 C391.341719,28.6368543 390.276843,29.4185376 390.247819,30.5716505 L391.283671,30.5716505 C391.307691,29.9315548 391.943214,29.5358101 392.651797,29.5358101 C393.399412,29.5358101 393.88281,29.975582 393.88281,30.6204807 C393.88281,31.2996006 393.321348,31.7490785 392.514684,31.7442755 L391.909186,31.7442755 L391.909186,32.6237193 L392.514684,32.6237193 C393.526517,32.6285222 394.107996,33.1269304 394.107996,33.8255623 C394.107996,34.5144883 393.487485,34.9786753 392.631781,34.9786753 C391.840129,34.9786753 391.224623,34.5829306 391.18559,33.962447 L390.090689,33.962447 C390.134726,35.1203629 391.175582,35.9069492 392.641789,35.9069492 Z" id="Path" fill="#FFFFFF" fill-rule="nonzero"></path>
            <path d="M397.998197,32.095993 C398.950982,32.1057991 399.478416,31.392458 399.48342,30.3371055 C399.478416,29.3013652 398.969997,28.5831211 397.998197,28.5879992 C397.054421,28.5831211 396.502967,29.3013652 396.511974,30.3371055 C396.502967,31.387555 397.030401,32.1057991 397.998197,32.095993 Z M397.313634,35.8092888 L398.203366,35.8092888 L403.060364,28.7345147 L402.171632,28.7345147 L397.313634,35.8092888 Z M397.313634,30.3371055 C397.318638,29.7068158 397.543823,29.281753 397.998197,29.272047 C398.471587,29.267144 398.672753,29.7019128 398.672753,30.3371055 C398.672753,30.9869073 398.457575,31.4070671 397.998197,31.4119701 C397.543823,31.4070671 397.318638,30.9869073 397.313634,30.3371055 Z M400.97865,34.1968919 C400.973646,35.2376354 401.502081,35.9557794 402.464874,35.9557794 C403.417658,35.9557794 403.945092,35.2425384 403.950096,34.1968919 C403.945092,33.1513455 403.431669,32.4331014 402.464874,32.4379795 C401.521097,32.4331014 400.973646,33.1513455 400.97865,34.1968919 Z M401.78031,34.1968919 C401.785314,33.5568962 402.014503,33.1318334 402.464874,33.1220274 C402.938263,33.1220274 403.138428,33.5519932 403.138428,34.1968919 C403.138428,34.8369877 402.924252,35.2620505 402.464874,35.2620505 C402.0105,35.2620505 401.785314,34.8369877 401.78031,34.1968919 Z" id="Shape" fill="#FFFFFF" fill-rule="nonzero"></path>
            <rect id="Rectangle" fill="#E2E6F6" fill-rule="nonzero" x="15.371488" y="20.2644779" width="240.197687" height="24.0148477"></rect>
            <path d="M110.230359,29.4576618 L110.230359,29.2134108 L112.154943,29.2134108 L112.154943,28.4609456 L107.326969,28.4609456 L107.326969,29.2134108 L109.291586,29.2134108 L109.291586,29.4576618 C109.286582,30.6448958 108.44589,31.7882027 107.082768,32.2620957 L107.562163,32.9754367 C108.603019,32.6090102 109.379659,31.856645 109.774984,30.908759 C110.17131,31.7882027 110.933938,32.4771286 111.940766,32.809334 L112.41916,32.086287 C111.065046,31.6612242 110.230359,30.5814566 110.230359,29.4576618 Z M108.313781,34.3629946 L113.3179,34.3629946 L113.3179,36.6398023 L114.246664,36.6398023 L114.246664,33.6106295 L108.313781,33.6106295 L108.313781,34.3629946 Z M113.3179,33.1708576 L114.246664,33.1708576 L114.246664,27.8843891 L113.3179,27.8843891 L113.3179,33.1708576 Z" id="Shape" fill="#113287" fill-rule="nonzero"></path>
            <path d="M116.963901,28.5097758 L116.035136,28.5097758 L116.035136,32.6627434 L116.748724,32.6627434 C118.053798,32.6676464 119.397904,32.5845951 120.864111,32.2817078 L120.756022,31.5195366 C119.397904,31.8029118 118.151878,31.8810601 116.963901,31.8810601 L116.963901,28.5097758 Z M116.983917,36.4541875 L122.818719,36.4541875 L122.818719,35.7017223 L117.921689,35.7017223 L117.921689,33.5911174 L116.983917,33.5911174 L116.983917,36.4541875 Z M121.586705,34.206698 L122.51547,34.206698 L122.51547,31.2360613 L123.785515,31.2360613 L123.785515,30.444572 L122.51547,30.444572 L122.51547,27.8941952 L121.586705,27.8941952 L121.586705,34.206698 Z" id="Shape" fill="#113287" fill-rule="nonzero"></path>
            <path d="M127.499572,30.1123666 L127.499572,28.6173423 L126.5618,28.6173423 L126.5618,30.1123666 C126.5618,31.7832997 125.594003,33.4591358 124.215869,34.0699134 L124.783336,34.8515967 C125.8332,34.3385795 126.639864,33.283227 127.045198,31.9983326 C127.455535,33.1953727 128.252191,34.1773799 129.25902,34.6561759 L129.816479,33.9233228 C128.45736,33.3223512 127.490564,31.7100544 127.499572,30.1123666 Z M130.60813,36.6594144 L131.536894,36.6594144 L131.536894,27.8843891 L130.60813,27.8843891 L130.60813,36.6594144 Z" id="Shape" fill="#113287" fill-rule="nonzero"></path>
            <path d="M138.085284,35.9069492 C139.560498,35.9069492 140.606359,34.9053299 140.606359,33.512869 C140.606359,32.1497262 139.624551,31.162816 138.290453,31.157913 C137.75301,31.162816 137.253599,31.3533338 136.961359,31.636709 L136.892302,31.636709 L137.127496,29.6530826 L140.245061,29.6530826 L140.245061,28.7345147 L136.237763,28.7345147 L135.778385,32.6725495 L136.794221,32.6725495 C137.034419,32.2376806 137.468777,32.0471628 138.036244,32.0471628 C138.924975,32.0569689 139.560498,32.6823555 139.560498,33.5421871 C139.560498,34.3826067 138.944991,35.0030904 138.085284,35.0079934 C137.371697,35.0030904 136.794221,34.5633185 136.736174,33.962447 L135.690313,33.962447 C135.739353,35.0910448 136.746182,35.9069492 138.085284,35.9069492 Z" id="Path" fill="#113287" fill-rule="nonzero"></path>
            <path d="M141.7503,35.8092888 L146.510218,35.8092888 L146.510218,34.8907209 L143.245531,34.8907209 L143.245531,34.8320846 L144.681713,33.3760844 C146.010807,32.0715779 146.383113,31.4412882 146.392121,30.6497989 C146.383113,29.501589 145.439336,28.6368543 144.076215,28.6368543 C142.727104,28.6368543 141.740292,29.491883 141.7503,30.7865834 L142.766136,30.7865834 C142.77114,30.0342183 143.269551,29.5358101 144.056198,29.5358101 C144.79981,29.5358101 145.366276,29.980485 145.366276,30.679117 C145.366276,31.2996006 144.979958,31.7490785 144.203319,32.555277 L141.7503,35.0275055 L141.7503,35.8092888 Z" id="Path" fill="#113287" fill-rule="nonzero"></path>
            <path d="M148.39577,35.8776311 C148.772079,35.872728 149.085337,35.5649377 149.090341,35.1839022 C149.085337,34.8027665 148.772079,34.4900732 148.39577,34.4900732 C148.014456,34.4900732 147.697195,34.8027665 147.702199,35.1839022 C147.697195,35.5649377 148.014456,35.872728 148.39577,35.8776311 Z" id="Path" fill="#113287" fill-rule="nonzero"></path>
            <path d="M152.569204,35.9069492 C154.084452,35.9069492 155.16434,35.0763357 155.169344,33.9233228 C155.16434,33.0145609 154.509802,32.2719018 153.683121,32.1449233 L153.683121,32.1057991 C154.396709,31.9396964 154.891115,31.2946976 154.895119,30.5228204 C154.891115,29.4332467 153.903302,28.6368543 152.569204,28.6368543 C151.216091,28.6368543 150.233282,29.4332467 150.233282,30.5228204 C150.233282,31.2946976 150.717681,31.9396964 151.445279,32.1057991 L151.445279,32.1449233 C150.609592,32.2719018 149.960057,33.0145609 149.970065,33.9233228 C149.960057,35.0763357 151.029938,35.9069492 152.569204,35.9069492 Z M151.063966,33.8451745 C151.049954,33.1171243 151.68948,32.5845951 152.569204,32.5845951 C153.43892,32.5845951 154.074443,33.1171243 154.074443,33.8451745 C154.074443,34.5389034 153.487961,35.0176994 152.569204,35.0176994 C151.636437,35.0176994 151.049954,34.5389034 151.063966,33.8451745 Z M151.279143,30.6204807 C151.284147,29.9608729 151.792565,29.511395 152.569204,29.5162981 C153.326828,29.511395 153.845255,29.9608729 153.840251,30.6204807 C153.845255,31.2849916 153.307812,31.7393725 152.569204,31.7344695 C151.811581,31.7393725 151.284147,31.2800886 151.279143,30.6204807 Z" id="Shape" fill="#113287" fill-rule="nonzero"></path>
            <path d="M157.905596,32.095993 C158.858381,32.1057991 159.386816,31.392458 159.39182,30.3371055 C159.386816,29.3013652 158.878397,28.5831211 157.905596,28.5879992 C156.962821,28.5831211 156.410366,29.3013652 156.420374,30.3371055 C156.410366,31.387555 156.9378,32.1057991 157.905596,32.095993 Z M157.222034,35.8092888 L158.110765,35.8092888 L162.968764,28.7345147 L162.079031,28.7345147 L157.222034,35.8092888 Z M157.222034,30.3371055 C157.227038,29.7068158 157.451222,29.281753 157.905596,29.272047 C158.379987,29.267144 158.580152,29.7019128 158.580152,30.3371055 C158.580152,30.9869073 158.364975,31.4070671 157.905596,31.4119701 C157.451222,31.4070671 157.227038,30.9869073 157.222034,30.3371055 Z M160.88705,34.1968919 C160.882046,35.2376354 161.40948,35.9557794 162.372273,35.9557794 C163.325057,35.9557794 163.853492,35.2425384 163.858496,34.1968919 C163.853492,33.1513455 163.340069,32.4331014 162.372273,32.4379795 C161.429497,32.4331014 160.882046,33.1513455 160.88705,34.1968919 Z M161.68871,34.1968919 C161.692713,33.5568962 161.922903,33.1318334 162.372273,33.1220274 C162.846663,33.1220274 163.046828,33.5519932 163.046828,34.1968919 C163.046828,34.8369877 162.831651,35.2620505 162.372273,35.2620505 C161.917899,35.2620505 161.692713,34.8369877 161.68871,34.1968919 Z" id="Shape" fill="#113287" fill-rule="nonzero"></path>
            <polygon id="Path" fill="#113287" points="14.3707644 64.2916987 14.3706643 0.252108871 16.3723117 0.252108871 16.3724118 64.2916987"></polygon>
            <polygon id="Path" fill="#113287" points="735.953341 64.2916987 735.953341 0.252108871 737.954989 0.252108871 737.954989 64.2916987"></polygon>
            <polygon id="Path" fill="#979797" points="255.068563 64.0396428 255.068563 0 256.069387 0 256.069387 64.0396428"></polygon>
            <polygon id="Path" fill="#979797" points="496.267075 64.0396428 496.267075 0 497.267898 0 497.267898 64.0396428"></polygon>
        </g>
    </g>
</svg>