<?xml version="1.0" encoding="UTF-8"?>
<svg width="744px" height="78px" viewBox="0 0 744 78" version="1.1" xmlns="http://www.w3.org/2000/svg" xmlns:xlink="http://www.w3.org/1999/xlink">
    <title>astigmatismAxis</title>
    <g id="astigmatismAxis" stroke="none" stroke-width="1" fill="none" fill-rule="evenodd">
        <g id="AGE_60_69" transform="translate(0.000000, 0.000000)">
            <path d="M2.33981271,76.3870766 C3.81319534,76.3870766 4.67523481,75.1998422 4.67962843,73.115553 C4.67523481,71.0444719 3.80000448,69.8440294 2.33981271,69.8440294 C0.875237338,69.8440294 0,71.0444719 0,73.115553 C0,75.1998422 0.866440097,76.3870766 2.33981271,76.3870766 Z M0.967593348,73.115553 C0.967593348,71.5325738 1.48217686,70.6662379 2.33981271,70.6618352 C3.19305495,70.6662379 3.71204208,71.5325738 3.71204208,73.115553 C3.71204208,74.7029349 3.19745857,75.5516598 2.33981271,75.5516598 C1.47778324,75.5516598 0.963199732,74.7029349 0.967593348,73.115553 Z" id="Shape" fill="#113287" fill-rule="nonzero"></path>
            <path d="M7.06343034,72.8077847 C7.87268638,72.8121653 8.52801573,72.15696 8.52363417,71.3478596 C8.52801573,70.5387591 7.87268638,69.8835538 7.06343034,69.8791511 C6.25417431,69.8835538 5.59884496,70.5387591 5.60322652,71.3478596 C5.59884496,72.15696 6.25417431,72.8121653 7.06343034,72.8077847 Z M6.30694774,71.3478596 C6.31135137,70.9301012 6.64560647,70.5958944 7.06343034,70.6002972 C7.48125422,70.5958944 7.81551933,70.9301012 7.8111157,71.3478596 C7.81551933,71.7612152 7.48125422,72.0997246 7.06343034,72.1041274 C6.64560647,72.0997246 6.31135137,71.7612152 6.30694774,71.3478596 Z" id="Shape" fill="#113287" fill-rule="nonzero"></path>
            <polygon id="Path" fill="#113287" fill-rule="nonzero" points="12.0069189 69.6328988 11.1713312 69.6328988 9.12176439 77.2577151 9.95743216 77.2577151"></polygon>
            <polygon id="Path" fill="#113287" fill-rule="nonzero" points="15.1120745 69.9318837 14.1620927 69.9318837 12.5786895 70.9697257 12.5786895 71.8930968 14.1004419 70.8992821 14.1356709 70.8992821 14.1356709 76.2991222 15.1120745 76.2991222"></polygon>
            <path d="M18.9560382,76.3870766 C20.3194603,76.3870766 21.2914603,75.6395142 21.2958639,74.6017723 C21.2914603,73.7839664 20.7020752,73.115553 19.9587635,73.0011822 L19.9587635,72.9660605 C20.6008919,72.816568 21.0451576,72.236109 21.0495612,71.5412792 C21.0451576,70.5607727 20.1567264,69.8440294 18.9560382,69.8440294 C17.7377355,69.8440294 16.8537079,70.5607727 16.8537079,71.5412792 C16.8537079,72.236109 17.2891663,72.816568 17.9445057,72.9660605 L17.9445057,73.0011822 C17.1923867,73.115553 16.6074052,73.7839664 16.6162125,74.6017723 C16.6074052,75.6395142 17.5705979,76.3870766 18.9560382,76.3870766 Z M17.6014233,74.5314288 C17.5882124,73.8762235 18.1643866,73.396927 18.9560382,73.396927 C19.7388825,73.396927 20.3106531,73.8762235 20.3106531,74.5314288 C20.3106531,75.155815 19.7829187,75.5867816 18.9560382,75.5867816 C18.1159468,75.5867816 17.5882124,75.155815 17.6014233,74.5314288 Z M17.7948825,71.6292336 C17.7992862,71.0356665 18.2567627,70.6311162 18.9560382,70.6355189 C19.6376992,70.6311162 20.103983,71.0356665 20.0995794,71.6292336 C20.103983,72.2273035 19.6201848,72.6362565 18.9560382,72.6318538 C18.2742771,72.6362565 17.7992862,72.2229008 17.7948825,71.6292336 Z" id="Shape" fill="#113287" fill-rule="nonzero"></path>
            <path d="M24.5153136,76.3870766 C25.9886262,76.3870766 26.8507357,75.1998422 26.8551393,73.115553 C26.8507357,71.0444719 25.9755154,69.8440294 24.5153136,69.8440294 C23.0507082,69.8440294 22.1754879,71.0444719 22.1754879,73.115553 C22.1754879,75.1998422 23.0419009,76.3870766 24.5153136,76.3870766 Z M23.1430842,73.115553 C23.1430842,71.5325738 23.6576077,70.6662379 24.5153136,70.6618352 C25.3685158,70.6662379 25.887543,71.5325738 25.887543,73.115553 C25.887543,74.7029349 25.3729194,75.5516598 24.5153136,75.5516598 C23.6533041,75.5516598 23.1386806,74.7029349 23.1430842,73.115553 Z" id="Shape" fill="#113287" fill-rule="nonzero"></path>
            <path d="M29.2389012,72.8077847 C30.0481672,72.8121653 30.7035066,72.15696 30.699125,71.3478596 C30.7035066,70.5387591 30.0481672,69.8835538 29.2389012,69.8791511 C28.4296352,69.8835538 27.7742958,70.5387591 27.7786774,71.3478596 C27.7742958,72.15696 28.4296352,72.8121653 29.2389012,72.8077847 Z M28.4823786,71.3478596 C28.4867822,70.9301012 28.8210573,70.5958944 29.2389012,70.6002972 C29.6567451,70.5958944 29.9910202,70.9301012 29.9866166,71.3478596 C29.9910202,71.7612152 29.6567451,72.0997246 29.2389012,72.1041274 C28.8210573,72.0997246 28.4867822,71.7612152 28.4823786,71.3478596 Z" id="Shape" fill="#113287" fill-rule="nonzero"></path>
            <path d="M239.604837,76.4809346 C240.923922,76.4809346 241.904729,75.7025532 241.90075,74.6428977 C241.904729,73.8382 241.399313,73.2533382 240.528597,73.130162 L240.528597,73.0862348 C241.214161,72.9147288 241.663531,72.3958078 241.654523,71.670259 C241.663531,70.7292769 240.875883,69.9377874 239.622851,69.9377874 C238.434874,69.9377874 237.476085,70.6413225 237.450063,71.6790644 L238.38183,71.6790644 C238.403848,71.1031082 238.976319,70.7468878 239.613844,70.7468878 C240.286397,70.7468878 240.721756,71.1426326 240.721756,71.7230917 C240.721756,72.3342697 240.21634,72.7388199 239.490743,72.7344172 L238.945294,72.7344172 L238.945294,73.5259068 L239.490743,73.5259068 C240.400491,73.5303095 240.923922,73.978887 240.923922,74.6076759 C240.923922,75.2276594 240.365463,75.6454178 239.595829,75.6454178 C238.883243,75.6454178 238.329787,75.2891975 238.294758,74.7307521 L237.308947,74.7307521 C237.34898,75.7728967 238.285751,76.4809346 239.604837,76.4809346 Z" id="Path" fill="#113287" fill-rule="nonzero"></path>
            <path d="M245.181426,76.4809346 C246.655639,76.4809346 247.517349,75.2936002 247.521352,73.209311 C247.517349,71.1382299 246.641628,69.9377874 245.181426,69.9377874 C243.717221,69.9377874 242.8415,71.1382299 242.8415,73.209311 C242.8415,75.2936002 243.708214,76.4809346 245.181426,76.4809346 Z M243.809274,73.209311 C243.809274,71.6263318 244.32372,70.760096 245.181426,70.7556933 C246.035129,70.760096 246.553555,71.6263318 246.553555,73.209311 C246.553555,74.7967929 246.039132,75.6454178 245.181426,75.6454178 C244.319717,75.6454178 243.805294,74.7967929 243.809274,73.209311 Z" id="Shape" fill="#113287" fill-rule="nonzero"></path>
            <path d="M249.905314,72.9015426 C250.71498,72.9059233 251.369519,72.250718 251.365534,71.4416176 C251.369519,70.6325171 250.71498,69.9774119 249.905314,69.9730091 C249.095648,69.9774119 248.441109,70.6325171 248.445094,71.4416176 C248.441109,72.250718 249.095648,72.9059233 249.905314,72.9015426 Z M249.148691,71.4416176 C249.153695,71.0239592 249.487971,70.6897525 249.905314,70.6941552 C250.323658,70.6897525 250.657933,71.0239592 250.652929,71.4416176 C250.657933,71.8549732 250.323658,72.1935827 249.905314,72.1979854 C249.487971,72.1935827 249.153695,71.8549732 249.148691,71.4416176 Z" id="Shape" fill="#113287" fill-rule="nonzero"></path>
            <polygon id="Path" fill="#113287" fill-rule="nonzero" points="254.849383 69.7267568 254.013695 69.7267568 251.964008 77.3515732 252.799696 77.3515732"></polygon>
            <polygon id="Path" fill="#113287" fill-rule="nonzero" points="257.953938 70.0257418 257.004157 70.0257418 255.420853 71.0634837 255.420853 71.9869549 256.942105 70.9931401 256.977134 70.9931401 256.977134 76.3929802 257.953938 76.3929802"></polygon>
            <path d="M261.736051,76.4809346 C263.065145,76.4809346 264.005919,75.579477 264.005919,74.3262018 C264.005919,73.099443 263.122192,72.2111936 261.921203,72.2067909 C261.437805,72.2111936 260.988436,72.3826997 260.725219,72.6376574 L260.663168,72.6376574 L260.874342,70.8524531 L263.680651,70.8524531 L263.680651,70.0257418 L260.073683,70.0257418 L259.660343,73.569934 L260.575095,73.569934 C260.791273,73.178592 261.182595,73.0070859 261.692015,73.0070859 C262.492674,73.0158913 263.065145,73.5787395 263.065145,74.3526182 C263.065145,75.108986 262.510688,75.6674315 261.736051,75.6718342 C261.094523,75.6674315 260.575095,75.2716867 260.522052,74.7307521 L259.581278,74.7307521 C259.625314,75.7465804 260.531059,76.4809346 261.736051,76.4809346 Z" id="Path" fill="#113287" fill-rule="nonzero"></path>
            <path d="M267.25159,76.4809346 C268.724803,76.4809346 269.587513,75.2936002 269.591516,73.209311 C269.587513,71.1382299 268.711792,69.9377874 267.25159,69.9377874 C265.787385,69.9377874 264.911665,71.1382299 264.911665,73.209311 C264.911665,75.2936002 265.778378,76.4809346 267.25159,76.4809346 Z M265.879438,73.209311 C265.879438,71.6263318 266.393884,70.760096 267.25159,70.7556933 C268.105293,70.760096 268.62372,71.6263318 268.62372,73.209311 C268.62372,74.7967929 268.109296,75.6454178 267.25159,75.6454178 C266.389881,75.6454178 265.875458,74.7967929 265.879438,73.209311 Z" id="Shape" fill="#113287" fill-rule="nonzero"></path>
            <path d="M271.975478,72.9015426 C272.784144,72.9059233 273.439683,72.250718 273.435698,71.4416176 C273.439683,70.6325171 272.784144,69.9774119 271.975478,69.9730091 C271.165812,69.9774119 270.510272,70.6325171 270.515248,71.4416176 C270.510272,72.250718 271.165812,72.9059233 271.975478,72.9015426 Z M271.218855,71.4416176 C271.222859,71.0239592 271.557134,70.6897525 271.975478,70.6941552 C272.392822,70.6897525 272.727097,71.0239592 272.723094,71.4416176 C272.727097,71.8549732 272.392822,72.1935827 271.975478,72.1979854 C271.557134,72.1935827 271.222859,71.8549732 271.218855,71.4416176 Z" id="Shape" fill="#113287" fill-rule="nonzero"></path>
            <path d="M480.623199,76.3871376 C481.991325,76.395882 482.901074,75.4504973 482.901074,74.2148329 C482.901074,72.9967795 481.986321,72.126141 480.851387,72.1217382 C480.160819,72.126141 479.563327,72.4427368 479.216041,72.9835713 L479.144983,72.9835713 C479.144983,71.5456819 479.717454,70.6926543 480.702264,70.6882516 C481.344793,70.6926543 481.753129,71.0663855 481.881235,71.5853064 L482.840024,71.5853064 C482.6899,70.5738808 481.876231,69.8440294 480.702264,69.8440294 C479.176008,69.8440294 478.217219,71.1104127 478.213216,73.3265835 C478.213216,75.6791387 479.444229,76.3782711 480.623199,76.3871376 Z M479.260078,74.2412493 C479.268084,73.5333114 479.862573,72.9088251 480.640213,72.9132035 C481.405844,72.9088251 481.9603,73.5024923 481.9603,74.2324438 C481.9603,74.9756035 481.383825,75.5735734 480.614192,75.5779761 C479.831548,75.5735734 479.264081,74.9491872 479.260078,74.2412493 Z" id="Shape" fill="#113287" fill-rule="nonzero"></path>
            <path d="M486.146745,76.3870766 C487.620959,76.3870766 488.482668,75.1998422 488.486671,73.115553 C488.482668,71.0444719 487.606947,69.8440294 486.146745,69.8440294 C484.68254,69.8440294 483.80782,71.0444719 483.80782,73.115553 C483.80782,75.1998422 484.673533,76.3870766 486.146745,76.3870766 Z M484.774593,73.115553 C484.774593,71.5325738 485.289039,70.6662379 486.146745,70.6618352 C487.000448,70.6662379 487.519876,71.5325738 487.519876,73.115553 C487.519876,74.7029349 487.004451,75.5516598 486.146745,75.5516598 C485.285036,75.5516598 484.770613,74.7029349 484.774593,73.115553 Z" id="Shape" fill="#113287" fill-rule="nonzero"></path>
            <path d="M490.870633,72.8077847 C491.6803,72.8121653 492.335839,72.15696 492.330863,71.3478596 C492.335839,70.5387591 491.6803,69.8835538 490.870633,69.8791511 C490.061968,69.8835538 489.406428,70.5387591 489.410413,71.3478596 C489.406428,72.15696 490.061968,72.8121653 490.870633,72.8077847 Z M490.114011,71.3478596 C490.119015,70.9301012 490.45329,70.5958944 490.870633,70.6002972 C491.288978,70.5958944 491.623253,70.9301012 491.618249,71.3478596 C491.623253,71.7612152 491.288978,72.0997246 490.870633,72.1041274 C490.45329,72.0997246 490.119015,71.7612152 490.114011,71.3478596 Z" id="Shape" fill="#113287" fill-rule="nonzero"></path>
            <polygon id="Path" fill="#113287" fill-rule="nonzero" points="495.814702 69.6328988 494.979015 69.6328988 492.929328 77.2577151 493.765015 77.2577151"></polygon>
            <polygon id="Path" fill="#113287" fill-rule="nonzero" points="498.919257 69.9318837 497.969476 69.9318837 496.386173 70.9697257 496.386173 71.8930968 497.907425 70.8992821 497.943454 70.8992821 497.943454 76.2991222 498.919257 76.2991222"></polygon>
            <path d="M500.537589,76.2991222 L504.822116,76.2991222 L504.822116,75.4725109 L501.883697,75.4725109 L501.883697,75.4196782 L503.176761,74.1092676 C504.372746,72.9352414 504.707021,72.3679906 504.716028,71.6556499 C504.707021,70.6223108 503.858322,69.8440294 502.631313,69.8440294 C501.417313,69.8440294 500.529583,70.6135053 500.537589,71.7787261 L501.452342,71.7787261 C501.457346,71.1016072 501.905715,70.6530298 502.614299,70.6530298 C503.282849,70.6530298 503.792268,71.0531773 503.792268,71.6820663 C503.792268,72.2405117 503.444982,72.645062 502.745406,73.3706107 L500.537589,75.595587 L500.537589,76.2991222 Z" id="Path" fill="#113287" fill-rule="nonzero"></path>
            <path d="M508.111823,76.3870766 C509.585036,76.3870766 510.446745,75.1998422 510.451749,73.115553 C510.446745,71.0444719 509.572025,69.8440294 508.111823,69.8440294 C506.646617,69.8440294 505.771897,71.0444719 505.771897,73.115553 C505.771897,75.1998422 506.638611,76.3870766 508.111823,76.3870766 Z M506.739694,73.115553 C506.739694,71.5325738 507.254117,70.6662379 508.111823,70.6618352 C508.964525,70.6662379 509.483952,71.5325738 509.483952,73.115553 C509.483952,74.7029349 508.969529,75.5516598 508.111823,75.5516598 C507.249113,75.5516598 506.73469,74.7029349 506.739694,73.115553 Z" id="Shape" fill="#113287" fill-rule="nonzero"></path>
            <path d="M512.83471,72.8077847 C513.644376,72.8121653 514.299916,72.15696 514.29494,71.3478596 C514.299916,70.5387591 513.644376,69.8835538 512.83471,69.8791511 C512.026045,69.8835538 511.370505,70.5387591 511.37449,71.3478596 C511.370505,72.15696 512.026045,72.8121653 512.83471,72.8077847 Z M512.079088,71.3478596 C512.083092,70.9301012 512.417367,70.5958944 512.83471,70.6002972 C513.253054,70.5958944 513.58733,70.9301012 513.583326,71.3478596 C513.58733,71.7612152 513.253054,72.0997246 512.83471,72.1041274 C512.417367,72.0997246 512.083092,71.7612152 512.079088,71.3478596 Z" id="Shape" fill="#113287" fill-rule="nonzero"></path>
            <path d="M732.177233,69.8439686 C730.792093,69.8352239 729.890351,70.7850114 729.890351,71.9986621 C729.890351,73.2167156 730.805104,74.0917568 731.949046,74.0917568 C732.63461,74.0917568 733.233102,73.7663555 733.576385,73.2299237 L733.65545,73.2299237 C733.646443,74.685424 733.069968,75.5384517 732.089161,75.5428544 C731.447633,75.5384517 731.033292,75.1647205 730.902184,74.6282887 L729.943395,74.6282887 C730.096521,75.6616279 730.915195,76.3871767 732.089161,76.3871767 C733.615417,76.3871767 734.578209,75.1207933 734.578209,72.8869115 C734.574206,70.55637 733.347196,69.8528348 732.177233,69.8439686 Z M730.831105,71.9811513 C730.827122,71.2511998 731.4076,70.6531298 732.177233,70.6531298 C732.955874,70.6531298 733.523341,71.2819188 733.523341,71.9723458 C733.523341,72.675881 732.929853,73.30467 732.159219,73.3002919 C731.385582,73.30467 730.83613,72.7198082 730.831105,71.9811513 Z" id="Shape" fill="#113287" fill-rule="nonzero"></path>
            <path d="M737.815874,76.3871767 C739.289087,76.3871767 740.150796,75.1999423 740.1558,73.115553 C740.150796,71.0444719 739.276076,69.8440294 737.815874,69.8440294 C736.350668,69.8440294 735.475948,71.0444719 735.475948,73.115553 C735.475948,75.1999423 736.342662,76.3871767 737.815874,76.3871767 Z M736.443745,73.115553 C736.443745,71.5325738 736.958168,70.666338 737.815874,70.6619353 C738.668576,70.666338 739.188003,71.5325738 739.188003,73.115553 C739.188003,74.7030349 738.67358,75.5516598 737.815874,75.5516598 C736.954165,75.5516598 736.438741,74.7030349 736.443745,73.115553 Z" id="Shape" fill="#113287" fill-rule="nonzero"></path>
            <path d="M742.539762,72.8077847 C743.348427,72.8121653 744.003967,72.15696 743.999982,71.3478596 C744.003967,70.5388592 743.348427,69.8836539 742.539762,69.8792511 C741.730096,69.8836539 741.074556,70.5388592 741.079532,71.3478596 C741.074556,72.15696 741.730096,72.8121653 742.539762,72.8077847 Z M741.783139,71.3478596 C741.787142,70.9302012 742.121418,70.5959945 742.539762,70.6003972 C742.957105,70.5959945 743.291381,70.9302012 743.287377,71.3478596 C743.291381,71.7612152 742.957105,72.0998247 742.539762,72.1042274 C742.121418,72.0998247 741.787142,71.7612152 741.783139,71.3478596 Z" id="Shape" fill="#113287" fill-rule="nonzero"></path>
            <rect id="Rectangle" fill="#5B6EB4" fill-rule="nonzero" x="496.767486" y="20.2644617" width="240.197687" height="24.0148545"></rect>
            <polygon id="Path" fill="#FFFFFF" fill-rule="nonzero" points="595.45771 31.9201714 590.287455 31.9201714 590.287455 29.3110575 595.379646 29.3110575 595.379646 28.5586921 589.358691 28.5586921 589.358691 32.6628308 591.889774 32.6628308 591.889774 34.8027544 588.36187 34.8027544 588.36187 35.5649259 596.376467 35.5649259 596.376467 34.8027544 592.80853 34.8027544 592.80853 32.6628308 595.45771 32.6628308"></polygon>
            <path d="M598.341084,28.5098619 L597.412319,28.5098619 L597.412319,32.6628308 L598.125906,32.6628308 C599.42998,32.6676337 600.774086,32.5845824 602.240293,32.281695 L602.133205,31.5195236 C600.774086,31.8028988 599.52806,31.8810472 598.341084,31.8810472 L598.341084,28.5098619 Z M598.360099,36.4541759 L604.194901,36.4541759 L604.194901,35.7018105 L599.298872,35.7018105 L599.298872,33.5911049 L598.360099,33.5911049 L598.360099,36.4541759 Z M602.963888,34.2066857 L603.891652,34.2066857 L603.891652,31.2361483 L605.162698,31.2361483 L605.162698,30.4446587 L603.891652,30.4446587 L603.891652,27.8941811 L602.963888,27.8941811 L602.963888,34.2066857 Z" id="Shape" fill="#FFFFFF" fill-rule="nonzero"></path>
            <path d="M608.876755,30.1123531 L608.876755,28.6173284 L607.937982,28.6173284 L607.937982,30.1123531 C607.937982,31.7832867 606.971186,33.4591233 605.593052,34.0699011 L606.159518,34.8516847 C607.210383,34.3386673 608.016046,33.2833146 608.422381,31.9983197 C608.832718,33.1953601 609.629374,34.1773676 610.636203,34.6561637 L611.192661,33.9233104 C609.834543,33.3223387 608.866746,31.7100414 608.876755,30.1123531 Z M611.984312,36.6594028 L612.913077,36.6594028 L612.913077,27.8844751 L611.984312,27.8844751 L611.984312,36.6594028 Z" id="Shape" fill="#FFFFFF" fill-rule="nonzero"></path>
            <path d="M619.617595,35.9070055 C621.137846,35.9167435 622.149678,34.8662937 622.149678,33.4933445 C622.149678,32.1400074 621.132842,31.172609 619.871804,31.1677059 C619.105173,31.172609 618.440626,31.5244266 618.054308,32.1252983 L617.976244,32.1252983 C617.976244,30.5277101 618.610766,29.5798237 619.705667,29.5749207 C620.419254,29.5798237 620.873628,29.9950806 621.015745,30.5716372 L622.080622,30.5716372 C621.914485,29.4479422 621.010741,28.6368405 619.705667,28.6368405 C618.010272,28.6368405 616.944394,30.0440109 616.93939,32.506434 C616.93939,35.1203509 618.308517,35.8972314 619.617595,35.9070055 Z M618.103348,33.5226626 C618.112356,32.7360761 618.772899,32.0422469 619.637611,32.0471228 C620.48731,32.0422469 621.103818,32.7018549 621.103818,33.5129566 C621.103818,34.3386673 620.463291,35.0030783 619.608587,35.0079814 C618.737871,35.0030783 618.107352,34.3093492 618.103348,33.5226626 Z" id="Shape" fill="#FFFFFF" fill-rule="nonzero"></path>
            <path d="M625.853727,35.9070055 C627.372977,35.9167435 628.38481,34.8662937 628.38481,33.4933445 C628.38481,32.1400074 627.367973,31.172609 626.107936,31.1677059 C625.340304,31.172609 624.675758,31.5244266 624.28944,32.1252983 L624.211375,32.1252983 C624.211375,30.5277101 624.846898,29.5798237 625.941799,29.5749207 C626.655387,29.5798237 627.109761,29.9950806 627.250877,30.5716372 L628.316754,30.5716372 C628.150617,29.4479422 627.245873,28.6368405 625.941799,28.6368405 C624.245403,28.6368405 623.180527,30.0440109 623.175523,32.506434 C623.175523,35.1203509 624.543649,35.8972314 625.853727,35.9070055 Z M624.33848,33.5226626 C624.348488,32.7360761 625.008031,32.0422469 625.872743,32.0471228 C626.723443,32.0422469 627.338949,32.7018549 627.338949,33.5129566 C627.338949,34.3386673 626.698422,35.0030783 625.843719,35.0079814 C624.974003,35.0030783 624.343484,34.3093492 624.33848,33.5226626 Z" id="Shape" fill="#FFFFFF" fill-rule="nonzero"></path>
            <path d="M629.900057,35.8776193 C630.276367,35.8728163 630.588624,35.5649259 630.593628,35.1838902 C630.588624,34.8027544 630.276367,34.490061 629.900057,34.490061 C629.518743,34.490061 629.200481,34.8027544 629.205486,35.1838902 C629.200481,35.5649259 629.518743,35.8728163 629.900057,35.8776193 Z" id="Path" fill="#FFFFFF" fill-rule="nonzero"></path>
            <path d="M634.13154,35.9069374 C635.607755,35.9069374 636.653616,34.9054179 636.653616,33.5129566 C636.653616,32.1498134 635.670807,31.1628029 634.336709,31.1578999 C633.799266,31.1628029 633.300856,31.3534208 633.007615,31.6367961 L632.939559,31.6367961 L633.173752,29.653069 L636.291317,29.653069 L636.291317,28.7346009 L632.28502,28.7346009 L631.825642,32.6725368 L632.841478,32.6725368 C633.080675,32.2376678 633.516033,32.0471499 634.082499,32.0471499 C634.972232,32.056956 635.607755,32.6823428 635.607755,33.5422747 C635.607755,34.3825945 634.992248,35.0030783 634.13154,35.0079814 C633.417953,35.0030783 632.841478,34.5634064 632.78343,33.9624346 L631.73757,33.9624346 C631.785609,35.0910327 632.792438,35.9069374 634.13154,35.9069374 Z" id="Path" fill="#FFFFFF" fill-rule="nonzero"></path>
            <path d="M639.418891,32.0959801 C640.372676,32.1057862 640.90011,31.3924449 640.905115,30.3370922 C640.90011,29.3013515 640.391692,28.5831072 639.418891,28.5879853 C638.476115,28.5831072 637.923661,29.3013515 637.933669,30.3370922 C637.923661,31.3875419 638.452096,32.1057862 639.418891,32.0959801 Z M638.735329,35.809277 L639.625061,35.809277 L644.482058,28.7346009 L643.592326,28.7346009 L638.735329,35.809277 Z M638.735329,30.3370922 C638.740333,29.7068023 638.964517,29.2817394 639.418891,29.2720334 C639.893282,29.2671303 640.093447,29.7019993 640.093447,30.3370922 C640.093447,30.9868941 639.878269,31.407154 639.418891,31.4120571 C638.964517,31.407154 638.740333,30.9868941 638.735329,30.3370922 Z M642.400345,34.1969797 C642.395341,35.2376234 642.922775,35.9558677 643.885568,35.9558677 C644.838352,35.9558677 645.366787,35.2425264 645.371791,34.1969797 C645.366787,33.1513329 644.853364,32.4331887 643.885568,32.4379677 C642.942792,32.4331887 642.395341,33.1513329 642.400345,34.1969797 Z M643.202005,34.1969797 C643.207009,33.5568838 643.436198,33.1318208 643.885568,33.1220148 C644.359958,33.1220148 644.560123,33.5519807 644.560123,34.1969797 C644.560123,34.8369756 644.344946,35.2620385 643.885568,35.2620385 C643.431194,35.2620385 643.207009,34.8369756 643.202005,34.1969797 Z" id="Shape" fill="#FFFFFF" fill-rule="nonzero"></path>
            <rect id="Rectangle" fill="#113287" fill-rule="nonzero" x="255.568975" y="20.2644617" width="241.198511" height="24.0148545"></rect>
            <path d="M351.4659,30.1123531 L351.4659,28.6173284 L350.537136,28.6173284 L350.537136,30.1123531 C350.532132,31.7149444 349.623384,33.3956841 348.279278,34.040583 L348.855752,34.7930484 C349.852573,34.275128 350.620204,33.2246783 351.011526,31.9836106 C351.396844,33.1513329 352.135451,34.1285374 353.088236,34.6268456 L353.66471,33.8842863 C352.359636,33.2490934 351.455892,31.6612112 351.4659,30.1123531 Z M354.319249,36.6398908 L355.248013,36.6398908 L355.248013,32.1644225 L356.655171,32.1644225 L356.655171,31.3729329 L355.248013,31.3729329 L355.248013,27.8844751 L354.319249,27.8844751 L354.319249,36.6398908 Z" id="Shape" fill="#FFFFFF" fill-rule="nonzero"></path>
            <path d="M358.404611,28.5098619 L357.475847,28.5098619 L357.475847,32.6628308 L358.189434,32.6628308 C359.494508,32.6676337 360.838614,32.5845824 362.304821,32.281695 L362.196732,31.5195236 C360.838614,31.8028988 359.592589,31.8810472 358.404611,31.8810472 L358.404611,28.5098619 Z M358.424628,36.4541759 L364.25943,36.4541759 L364.25943,35.7018105 L359.362399,35.7018105 L359.362399,33.5911049 L358.424628,33.5911049 L358.424628,36.4541759 Z M363.027416,34.2066857 L363.95618,34.2066857 L363.95618,31.2361483 L365.227226,31.2361483 L365.227226,30.4446587 L363.95618,30.4446587 L363.95618,27.8941811 L363.027416,27.8941811 L363.027416,34.2066857 Z" id="Shape" fill="#FFFFFF" fill-rule="nonzero"></path>
            <path d="M368.941283,30.1123531 L368.941283,28.6173284 L368.00251,28.6173284 L368.00251,30.1123531 C368.00251,31.7832867 367.034714,33.4591233 365.65658,34.0699011 L366.224047,34.8516847 C367.274912,34.3386673 368.080575,33.2833146 368.485908,31.9983197 C368.897247,33.1953601 369.693902,34.1773676 370.69973,34.6561637 L371.257189,33.9233104 C369.899071,33.3223387 368.931275,31.7100414 368.941283,30.1123531 Z M372.048841,36.6594028 L372.977605,36.6594028 L372.977605,27.8844751 L372.048841,27.8844751 L372.048841,36.6594028 Z" id="Shape" fill="#FFFFFF" fill-rule="nonzero"></path>
            <polygon id="Path" fill="#FFFFFF" fill-rule="nonzero" points="379.809228 28.7346009 378.753359 28.7346009 376.99391 29.8876141 376.99391 30.9136488 378.685302 29.8094658 378.724335 29.8094658 378.724335 35.809277 379.809228 35.809277"></polygon>
            <path d="M381.451579,34.4314247 L384.89141,34.4314247 L384.89141,35.809277 L385.908247,35.809277 L385.908247,34.4314247 L386.875043,34.4314247 L386.875043,33.5226626 L385.908247,33.5226626 L385.908247,28.7346009 L384.579153,28.7346009 L381.451579,33.5617868 L381.451579,34.4314247 Z M382.584512,33.5226626 L382.584512,33.4640263 L384.813346,30.0146927 L384.89141,30.0146927 L384.89141,33.5226626 L382.584512,33.5226626 Z" id="Shape" fill="#FFFFFF" fill-rule="nonzero"></path>
            <path d="M388.39029,35.8776193 C388.7666,35.8728163 389.079857,35.5649259 389.084862,35.1838902 C389.079857,34.8027544 388.7666,34.490061 388.39029,34.490061 C388.008976,34.490061 387.691715,34.8027544 387.696719,35.1838902 C387.691715,35.5649259 388.008976,35.8728163 388.39029,35.8776193 Z" id="Path" fill="#FFFFFF" fill-rule="nonzero"></path>
            <path d="M392.680821,28.6367727 C391.141554,28.6270344 390.13973,29.6823872 390.13973,31.0309213 C390.13973,32.3842584 391.156567,33.3565599 392.426612,33.3565599 C393.18924,33.3565599 393.853786,32.9950362 394.2351,32.3989675 L394.323173,32.3989675 C394.313165,34.0161679 393.672637,34.9640542 392.583741,34.9688572 C391.870154,34.9640542 391.410776,34.5486973 391.263655,33.9526286 L390.198778,33.9526286 C390.369919,35.1008388 391.278667,35.9069374 392.583741,35.9069374 C394.279137,35.9069374 395.349017,34.4998671 395.349017,32.0178318 C395.344013,29.42833 393.980891,28.6466465 392.680821,28.6367727 Z M391.185562,31.0114093 C391.180586,30.2003075 391.826118,29.5358966 392.680821,29.5358966 C393.546534,29.5358966 394.176052,30.2345287 394.176052,31.0016032 C394.176052,31.7832867 393.516509,32.4820189 392.661805,32.4771434 C391.801097,32.4820189 391.190595,31.832217 391.185562,31.0114093 Z" id="Shape" fill="#FFFFFF" fill-rule="nonzero"></path>
            <path d="M398.105286,32.0959801 C399.05807,32.1057862 399.586505,31.3924449 399.591509,30.3370922 C399.586505,29.3013515 399.078086,28.5831072 398.105286,28.5879853 C397.16251,28.5831072 396.610055,29.3013515 396.620063,30.3370922 C396.610055,31.3875419 397.137489,32.1057862 398.105286,32.0959801 Z M397.421723,35.809277 L398.310454,35.809277 L403.168453,28.7346009 L402.27872,28.7346009 L397.421723,35.809277 Z M397.421723,30.3370922 C397.425726,29.7068023 397.650912,29.2817394 398.105286,29.2720334 C398.579676,29.2671303 398.779841,29.7019993 398.779841,30.3370922 C398.779841,30.9868941 398.564664,31.407154 398.105286,31.4120571 C397.650912,31.407154 397.425726,30.9868941 397.421723,30.3370922 Z M401.086739,34.1969797 C401.081735,35.2376234 401.609169,35.9558677 402.571962,35.9558677 C403.524746,35.9558677 404.053181,35.2425264 404.057184,34.1969797 C404.053181,33.1513329 403.539758,32.4331887 402.571962,32.4379677 C401.629186,32.4331887 401.081735,33.1513329 401.086739,34.1969797 Z M401.887398,34.1969797 C401.892402,33.5568838 402.122592,33.1318208 402.571962,33.1220148 C403.046352,33.1220148 403.246517,33.5519807 403.246517,34.1969797 C403.246517,34.8369756 403.03134,35.2620385 402.571962,35.2620385 C402.117588,35.2620385 401.892402,34.8369756 401.887398,34.1969797 Z" id="Shape" fill="#FFFFFF" fill-rule="nonzero"></path>
            <rect id="Rectangle" fill="#E2E6F6" fill-rule="nonzero" x="15.371488" y="20.2644617" width="240.197687" height="24.0148545"></rect>
            <path d="M112.179963,29.4576482 L112.179963,29.2133971 L114.105548,29.2133971 L114.105548,28.4609316 L109.276574,28.4609316 L109.276574,29.2133971 L111.241191,29.2133971 L111.241191,29.4576482 C111.236187,30.6448825 110.396495,31.7881897 109.032373,32.2621829 L109.511767,32.9755242 C110.552624,32.6089975 111.329263,31.8566321 111.725589,30.9087458 C112.120915,31.7881897 112.883542,32.4771159 113.890371,32.8093214 L114.368765,32.0862741 C113.015651,31.6612112 112.179963,30.5814433 112.179963,29.4576482 Z M110.264387,34.3630824 L115.268505,34.3630824 L115.268505,36.6398908 L116.196269,36.6398908 L116.196269,33.610617 L110.264387,33.610617 L110.264387,34.3630824 Z M115.268505,33.170945 L116.196269,33.170945 L116.196269,27.8844751 L115.268505,27.8844751 L115.268505,33.170945 Z" id="Shape" fill="#113287" fill-rule="nonzero"></path>
            <path d="M118.913505,28.5098619 L117.985742,28.5098619 L117.985742,32.6628308 L118.698328,32.6628308 C120.003402,32.6676337 121.347508,32.5845824 122.813715,32.281695 L122.705626,31.5195236 C121.347508,31.8028988 120.101483,31.8810472 118.913505,31.8810472 L118.913505,28.5098619 Z M118.933522,36.4541759 L124.768324,36.4541759 L124.768324,35.7018105 L119.871293,35.7018105 L119.871293,33.5911049 L118.933522,33.5911049 L118.933522,36.4541759 Z M123.53631,34.2066857 L124.465074,34.2066857 L124.465074,31.2361483 L125.73612,31.2361483 L125.73612,30.4446587 L124.465074,30.4446587 L124.465074,27.8941811 L123.53631,27.8941811 L123.53631,34.2066857 Z" id="Shape" fill="#113287" fill-rule="nonzero"></path>
            <path d="M129.450177,30.1123531 L129.450177,28.6173284 L128.511404,28.6173284 L128.511404,30.1123531 C128.511404,31.7832867 127.543608,33.4591233 126.165474,34.0699011 L126.732941,34.8516847 C127.783806,34.3386673 128.589469,33.2833146 128.995803,31.9983197 C129.406141,33.1953601 130.202796,34.1773676 131.208624,34.6561637 L131.766083,33.9233104 C130.407965,33.3223387 129.440169,31.7100414 129.450177,30.1123531 Z M132.557735,36.6594028 L133.486499,36.6594028 L133.486499,27.8844751 L132.557735,27.8844751 L132.557735,36.6594028 Z" id="Shape" fill="#113287" fill-rule="nonzero"></path>
            <polygon id="Path" fill="#113287" fill-rule="nonzero" points="140.318122 28.7346009 139.262253 28.7346009 137.502805 29.8876141 137.502805 30.9136488 139.194197 29.8094658 139.233229 29.8094658 139.233229 35.809277 140.318122 35.809277"></polygon>
            <path d="M142.116602,35.809277 L146.876519,35.809277 L146.876519,34.8907088 L143.611832,34.8907088 L143.611832,34.8320725 L145.049015,33.3760719 C146.378109,32.071565 146.749415,31.4412752 146.759423,30.6497856 C146.749415,29.5016754 145.805638,28.6368405 144.442516,28.6368405 C143.093406,28.6368405 142.106594,29.4918693 142.116602,30.7866702 L143.133439,30.7866702 C143.137442,30.0342048 143.635852,29.5358966 144.4235,29.5358966 C145.166112,29.5358966 145.732578,29.9804716 145.732578,30.6791037 C145.732578,31.2995875 145.34626,31.7491656 144.569621,32.5552642 L142.116602,35.0274934 L142.116602,35.809277 Z" id="Path" fill="#113287" fill-rule="nonzero"></path>
            <path d="M148.762071,35.8776193 C149.138381,35.8728163 149.451639,35.5649259 149.456643,35.1838902 C149.451639,34.8027544 149.138381,34.490061 148.762071,34.490061 C148.381758,34.490061 148.063496,34.8027544 148.0685,35.1838902 C148.063496,35.5649259 148.381758,35.8728163 148.762071,35.8776193 Z" id="Path" fill="#113287" fill-rule="nonzero"></path>
            <polygon id="Path" fill="#113287" fill-rule="nonzero" points="152.535176 28.7346009 151.479307 28.7346009 149.72086 29.8876141 149.72086 30.9136488 151.411251 29.8094658 151.450284 29.8094658 151.450284 35.809277 152.535176 35.809277"></polygon>
            <path d="M155.955992,32.0959801 C156.908776,32.1057862 157.43621,31.3924449 157.441214,30.3370922 C157.43621,29.3013515 156.928793,28.5831072 155.955992,28.5879853 C155.013216,28.5831072 154.460761,29.3013515 154.470769,30.3370922 C154.460761,31.3875419 154.988195,32.1057862 155.955992,32.0959801 Z M155.271428,35.809277 L156.161161,35.809277 L161.019159,28.7346009 L160.129427,28.7346009 L155.271428,35.809277 Z M155.271428,30.3370922 C155.276433,29.7068023 155.501618,29.2817394 155.955992,29.2720334 C156.430382,29.2671303 156.630547,29.7019993 156.630547,30.3370922 C156.630547,30.9868941 156.41537,31.407154 155.955992,31.4120571 C155.501618,31.407154 155.276433,30.9868941 155.271428,30.3370922 Z M158.937446,34.1969797 C158.932442,35.2376234 159.459876,35.9558677 160.422668,35.9558677 C161.375452,35.9558677 161.902886,35.2425264 161.90789,34.1969797 C161.902886,33.1513329 161.390465,32.4331887 160.422668,32.4379677 C159.479892,32.4331887 158.932442,33.1513329 158.937446,34.1969797 Z M159.738105,34.1969797 C159.743109,33.5568838 159.973298,33.1318208 160.422668,33.1220148 C160.897058,33.1220148 161.097223,33.5519807 161.097223,34.1969797 C161.097223,34.8369756 160.882046,35.2620385 160.422668,35.2620385 C159.968294,35.2620385 159.743109,34.8369756 159.738105,34.1969797 Z" id="Shape" fill="#113287" fill-rule="nonzero"></path>
            <polygon id="Path" fill="#113287" points="14.3707644 64.2916949 14.3706643 0.252112946 16.3723117 0.252112946 16.3724118 64.2916949"></polygon>
            <polygon id="Path" fill="#113287" points="735.953341 64.2916949 735.953341 0.252112946 737.954989 0.252112946 737.954989 64.2916949"></polygon>
            <polygon id="Path" fill="#979797" points="255.068563 64.039639 255.068563 0 256.069387 0 256.069387 64.039639"></polygon>
            <polygon id="Path" fill="#979797" points="496.267075 64.039639 496.267075 0 497.267898 0 497.267898 64.039639"></polygon>
        </g>
    </g>
</svg>