<svg width="372" height="95" viewBox="0 0 372 95" fill="none" xmlns="http://www.w3.org/2000/svg">
<path d="M288.818 6.00781H285.982V4.35156H285.24V6.00781H282.412V6.61719H288.818V6.00781ZM282.709 4.03125L283.014 4.61719C284.123 4.39844 285.158 3.73047 285.607 2.79688C286.064 3.71875 287.107 4.375 288.24 4.58594L288.537 4C287.205 3.79297 285.99 2.83984 285.99 1.76562V1.70312H288.264V1.09375H282.943V1.70312H285.217V1.76562C285.217 2.83984 284.01 3.8125 282.709 4.03125Z" fill="#113287"/>
<path d="M291.811 1.54688V1.42969H293.318V0.828125H289.545V1.42969H291.068V1.53906C291.068 2.39453 290.385 3.25781 289.326 3.60938L289.693 4.19531C290.514 3.92578 291.131 3.33594 291.447 2.625C291.752 3.26953 292.342 3.78516 293.139 4.03125L293.49 3.44531C292.451 3.13281 291.811 2.33984 291.811 1.54688ZM290.576 5.00781H294.42V5.60156H290.592V7.41406H295.404V6.82812H291.334V6.16406H295.154V4.41406H290.576V5.00781ZM293.115 2.61719H294.42V4.09375H295.154V0.492188H294.42V2.01562H293.115V2.61719Z" fill="#113287"/>
<path d="M298.678 2.55469V1.8125H300.201V1.19531H296.365V1.8125H297.943V2.55469C297.939 3.73828 297.17 5.05859 296.107 5.57031L296.545 6.15625C297.342 5.75781 297.998 4.89453 298.318 3.89844C298.635 4.8125 299.26 5.60156 300.045 5.97656L300.467 5.39844C299.404 4.89453 298.674 3.66016 298.678 2.55469ZM300.951 7.49219H301.693V3.89062H302.818V3.26562H301.693V0.492188H300.951V7.49219Z" fill="#113287"/>
<path d="M308.748 0.820312H303.959V1.42188H308.014C308.014 1.92578 308.002 2.55469 307.834 3.40625H303.154V4.01562H309.561V3.40625H308.584C308.752 2.5 308.752 1.83203 308.748 1.30469V0.820312ZM303.834 5.57031H308.045V7.50781H308.787V4.98438H303.834V5.57031Z" fill="#113287"/>
<path d="M312.264 6.82812H316.068V6.09375H313.459V6.04688L314.607 4.88281C315.67 3.83984 315.967 3.33594 315.975 2.70312C315.967 1.78516 315.213 1.09375 314.123 1.09375C313.045 1.09375 312.256 1.77734 312.264 2.8125H313.076C313.08 2.21094 313.479 1.8125 314.107 1.8125C314.701 1.8125 315.154 2.16797 315.154 2.72656C315.154 3.22266 314.846 3.58203 314.225 4.22656L312.264 6.20312V6.82812Z" fill="#113287"/>
<path d="M317.576 6.88281C317.877 6.87891 318.127 6.63281 318.131 6.32812C318.127 6.02344 317.877 5.77344 317.576 5.77344C317.271 5.77344 317.018 6.02344 317.021 6.32812C317.018 6.63281 317.271 6.87891 317.576 6.88281Z" fill="#113287"/>
<path d="M320.959 6.90625C322.139 6.90625 322.975 6.10547 322.975 4.99219C322.975 3.90234 322.189 3.11328 321.123 3.10938C320.693 3.11328 320.295 3.26562 320.061 3.49219H320.006L320.193 1.90625H322.686V1.17188H319.482L319.115 4.32031H319.928C320.119 3.97266 320.467 3.82031 320.92 3.82031C321.631 3.82812 322.139 4.32812 322.139 5.01562C322.139 5.6875 321.646 6.18359 320.959 6.1875C320.389 6.18359 319.928 5.83203 319.881 5.35156H319.045C319.084 6.25391 319.889 6.90625 320.959 6.90625Z" fill="#113287"/>
<path d="M325.857 6.90625C327.166 6.90625 327.932 5.85156 327.936 4C327.932 2.16016 327.154 1.09375 325.857 1.09375C324.557 1.09375 323.779 2.16016 323.779 4C323.779 5.85156 324.549 6.90625 325.857 6.90625ZM324.639 4C324.639 2.59375 325.096 1.82422 325.857 1.82031C326.615 1.82422 327.076 2.59375 327.076 4C327.076 5.41016 326.619 6.16406 325.857 6.16406C325.092 6.16406 324.635 5.41016 324.639 4Z" fill="#113287"/>
<path d="M330.74 6.82812C332.463 6.82812 333.455 5.75781 333.459 3.99219C333.455 2.23047 332.463 1.17188 330.795 1.17188H328.904V6.82812H330.74ZM329.764 6.07812V1.92188H330.74C331.975 1.92188 332.607 2.66016 332.607 3.99219C332.607 5.32812 331.975 6.07422 330.693 6.07812H329.764Z" fill="#113287"/>
<path fill-rule="evenodd" clip-rule="evenodd" d="M6.03027 80.1152L6.03027 40.1152L7.53027 40.1152L7.53027 80.1152L6.03027 80.1152Z" fill="#113287"/>
<path fill-rule="evenodd" clip-rule="evenodd" d="M77.3154 80.1152L77.3154 40.1152L78.3154 40.1152L78.3154 80.1152L77.3154 80.1152Z" fill="#979797"/>
<path fill-rule="evenodd" clip-rule="evenodd" d="M148.601 80.1152L148.601 40.1152L149.601 40.1152L149.601 80.1152L148.601 80.1152Z" fill="#979797"/>
<path fill-rule="evenodd" clip-rule="evenodd" d="M219.886 80.1152L219.886 40.1152L220.886 40.1152L220.886 80.1152L219.886 80.1152Z" fill="#979797"/>
<path fill-rule="evenodd" clip-rule="evenodd" d="M291.171 80.1152L291.171 40.1152L292.171 40.1152L292.171 80.1152L291.171 80.1152Z" fill="#979797"/>
<path fill-rule="evenodd" clip-rule="evenodd" d="M362.457 80.1152L362.457 40.1152L363.457 40.1152L363.457 80.1152L362.457 80.1152Z" fill="#979797"/>
<path fill-rule="evenodd" clip-rule="evenodd" d="M363.45 37.4957L363.45 36.2066L362.45 36.2066L362.45 37.4957C361.217 37.7297 360.284 38.8137 360.284 40.1155C360.284 41.5883 361.478 42.7822 362.95 42.7822C364.423 42.7822 365.617 41.5883 365.617 40.1155C365.617 38.8137 364.684 37.7297 363.45 37.4957ZM363.45 5.21677L363.45 6.49856L362.45 6.49856L362.45 6.21677L362.23 6.21677L362.23 5.21677L363.45 5.21677ZM362.45 9.62572L362.45 8.06214L363.45 8.06214L363.45 9.62572L362.45 9.62572ZM362.45 12.7529L362.45 11.1893L363.45 11.1893L363.45 12.7529L362.45 12.7529ZM362.45 15.88L362.45 14.3165L363.45 14.3165L363.45 15.88L362.45 15.88ZM362.45 19.0072L362.45 17.4436L363.45 17.4436L363.45 19.0072L362.45 19.0072ZM362.45 22.1344L362.45 20.5708L363.45 20.5708L363.45 22.1344L362.45 22.1344ZM362.45 25.2615L362.45 23.6979L363.45 23.6979L363.45 25.2615L362.45 25.2615ZM362.45 28.3887L362.45 26.8251L363.45 26.8251L363.45 28.3887L362.45 28.3887ZM362.45 31.5159L362.45 29.9523L363.45 29.9523L363.45 31.5159L362.45 31.5159ZM362.45 34.643L362.45 33.0794L363.45 33.0794L363.45 34.643L362.45 34.643ZM360.789 6.21677L359.348 6.21677L359.348 5.21677L360.789 5.21677L360.789 6.21677ZM357.907 6.21677L356.466 6.21677L356.466 5.21677L357.907 5.21677L357.907 6.21677ZM355.025 6.21677L353.585 6.21677L353.585 5.21677L355.025 5.21677L355.025 6.21677ZM353.541 8.60352L348.541 5.71677L353.541 2.83002L353.541 8.60352Z" fill="#113287"/>
<path d="M71.8879 93.4004C73.1965 93.4004 73.9622 92.3457 73.9661 90.4941C73.9622 88.6543 73.1848 87.5879 71.8879 87.5879C70.5872 87.5879 69.8098 88.6543 69.8098 90.4941C69.8098 92.3457 70.5793 93.4004 71.8879 93.4004ZM70.6692 90.4941C70.6692 89.0879 71.1262 88.3184 71.8879 88.3145C72.6458 88.3184 73.1067 89.0879 73.1067 90.4941C73.1067 91.9043 72.6497 92.6582 71.8879 92.6582C71.1223 92.6582 70.6653 91.9043 70.6692 90.4941Z" fill="#113287"/>
<path d="M75.2004 93.377C75.5012 93.373 75.7512 93.127 75.7551 92.8223C75.7512 92.5176 75.5012 92.2676 75.2004 92.2676C74.8958 92.2676 74.6418 92.5176 74.6458 92.8223C74.6418 93.127 74.8958 93.373 75.2004 93.377Z" fill="#113287"/>
<path d="M78.5833 93.4004C79.7629 93.4004 80.5989 92.5996 80.5989 91.4863C80.5989 90.3965 79.8137 89.6074 78.7473 89.6035C78.3176 89.6074 77.9192 89.7598 77.6848 89.9863H77.6301L77.8176 88.4004H80.3098V87.666H77.1067L76.7395 90.8145H77.552C77.7434 90.4668 78.0911 90.3145 78.5442 90.3145C79.2551 90.3223 79.7629 90.8223 79.7629 91.5098C79.7629 92.1816 79.2708 92.6777 78.5833 92.6816C78.0129 92.6777 77.552 92.3262 77.5051 91.8457H76.6692C76.7083 92.748 77.5129 93.4004 78.5833 93.4004Z" fill="#113287"/>
<path d="M83.427 93.3223C85.1497 93.3223 86.1418 92.252 86.1458 90.4863C86.1418 88.7246 85.1497 87.666 83.4817 87.666H81.5911V93.3223H83.427ZM82.4504 92.5723V88.416H83.427C84.6614 88.416 85.2942 89.1543 85.2942 90.4863C85.2942 91.8223 84.6614 92.5684 83.3801 92.5723H82.4504Z" fill="#113287"/>
<path d="M3.52563 87.4785H0.181885V90.5879H3.52563V87.4785ZM0.82251 92.6426C0.82251 93.5098 1.7522 94.0137 3.21313 94.0176C4.66235 94.0137 5.57642 93.5098 5.58032 92.6426C5.57642 91.791 4.66235 91.2754 3.21313 91.2754C1.7522 91.2754 0.82251 91.791 0.82251 92.6426ZM1.03345 89.8848V88.166H2.67407V89.8848H1.03345ZM1.6897 92.6426C1.6897 92.209 2.24438 91.9707 3.21313 91.9707C4.17798 91.9707 4.72095 92.209 4.72095 92.6426C4.72095 93.0957 4.17798 93.3223 3.21313 93.3223C2.24438 93.3223 1.6897 93.0957 1.6897 92.6426ZM4.64282 91.0723H5.51001V89.3145H6.49438V88.6113H5.51001V86.9551H4.64282V91.0723Z" fill="#113287"/>
<path d="M10.4397 87.4707H7.09595V90.6973H10.4397V87.4707ZM7.72095 92.166H11.5569V94.0254H12.4241V91.4707H7.72095V92.166ZM7.94751 90.0098V88.1582H9.58813V90.0098H7.94751ZM11.5569 91.1426H12.4241V89.4082H13.4084V88.6973H12.4241V86.9551H11.5569V91.1426Z" fill="#113287"/>
<path d="M144.012 87.666H143.168L141.762 88.5879V89.4082L143.114 88.5254H143.145V93.3223H144.012V87.666Z" fill="#113287"/>
<path d="M145.684 93.377C145.985 93.373 146.235 93.127 146.239 92.8223C146.235 92.5176 145.985 92.2676 145.684 92.2676C145.379 92.2676 145.125 92.5176 145.129 92.8223C145.125 93.127 145.379 93.373 145.684 93.377Z" fill="#113287"/>
<path d="M148.996 93.4004C150.305 93.4004 151.071 92.3457 151.074 90.4941C151.071 88.6543 150.293 87.5879 148.996 87.5879C147.696 87.5879 146.918 88.6543 146.918 90.4941C146.918 92.3457 147.688 93.4004 148.996 93.4004ZM147.778 90.4941C147.778 89.0879 148.235 88.3184 148.996 88.3145C149.754 88.3184 150.215 89.0879 150.215 90.4941C150.215 91.9043 149.758 92.6582 148.996 92.6582C148.231 92.6582 147.774 91.9043 147.778 90.4941Z" fill="#113287"/>
<path d="M153.879 93.3223C155.602 93.3223 156.594 92.252 156.598 90.4863C156.594 88.7246 155.602 87.666 153.934 87.666H152.043V93.3223H153.879ZM152.903 92.5723V88.416H153.879C155.114 88.416 155.746 89.1543 155.746 90.4863C155.746 91.8223 155.114 92.5684 153.832 92.5723H152.903Z" fill="#113287"/>
<path d="M215.417 87.666H214.573L213.167 88.5879V89.4082L214.519 88.5254H214.55V93.3223H215.417V87.666Z" fill="#113287"/>
<path d="M217.089 93.377C217.39 93.373 217.64 93.127 217.644 92.8223C217.64 92.5176 217.39 92.2676 217.089 92.2676C216.784 92.2676 216.531 92.5176 216.534 92.8223C216.531 93.127 216.784 93.373 217.089 93.377Z" fill="#113287"/>
<path d="M220.472 93.4004C221.652 93.4004 222.488 92.5996 222.488 91.4863C222.488 90.3965 221.702 89.6074 220.636 89.6035C220.206 89.6074 219.808 89.7598 219.573 89.9863H219.519L219.706 88.4004H222.198V87.666H218.995L218.628 90.8145H219.441C219.632 90.4668 219.98 90.3145 220.433 90.3145C221.144 90.3223 221.652 90.8223 221.652 91.5098C221.652 92.1816 221.159 92.6777 220.472 92.6816C219.902 92.6777 219.441 92.3262 219.394 91.8457H218.558C218.597 92.748 219.402 93.4004 220.472 93.4004Z" fill="#113287"/>
<path d="M225.316 93.3223C227.038 93.3223 228.031 92.252 228.034 90.4863C228.031 88.7246 227.038 87.666 225.37 87.666H223.48V93.3223H225.316ZM224.339 92.5723V88.416H225.316C226.55 88.416 227.183 89.1543 227.183 90.4863C227.183 91.8223 226.55 92.5684 225.269 92.5723H224.339Z" fill="#113287"/>
<path d="M283.916 93.3223H287.721V92.5879H285.112V92.541L286.26 91.377C287.323 90.334 287.619 89.8301 287.627 89.1973C287.619 88.2793 286.866 87.5879 285.776 87.5879C284.698 87.5879 283.909 88.2715 283.916 89.3066H284.729C284.733 88.7051 285.131 88.3066 285.76 88.3066C286.354 88.3066 286.807 88.6621 286.807 89.2207C286.807 89.7168 286.498 90.0762 285.877 90.7207L283.916 92.6973V93.3223Z" fill="#113287"/>
<path d="M289.229 93.377C289.53 93.373 289.78 93.127 289.784 92.8223C289.78 92.5176 289.53 92.2676 289.229 92.2676C288.924 92.2676 288.67 92.5176 288.674 92.8223C288.67 93.127 288.924 93.373 289.229 93.377Z" fill="#113287"/>
<path d="M292.541 93.4004C293.85 93.4004 294.616 92.3457 294.619 90.4941C294.616 88.6543 293.838 87.5879 292.541 87.5879C291.241 87.5879 290.463 88.6543 290.463 90.4941C290.463 92.3457 291.233 93.4004 292.541 93.4004ZM291.323 90.4941C291.323 89.0879 291.78 88.3184 292.541 88.3145C293.299 88.3184 293.76 89.0879 293.76 90.4941C293.76 91.9043 293.303 92.6582 292.541 92.6582C291.776 92.6582 291.319 91.9043 291.323 90.4941Z" fill="#113287"/>
<path d="M297.424 93.3223C299.147 93.3223 300.139 92.252 300.143 90.4863C300.139 88.7246 299.147 87.666 297.479 87.666H295.588V93.3223H297.424ZM296.448 92.5723V88.416H297.424C298.659 88.416 299.291 89.1543 299.291 90.4863C299.291 91.8223 298.659 92.5684 297.377 92.5723H296.448Z" fill="#113287"/>
<path d="M354.957 93.3223H358.762V92.5879H356.153V92.541L357.301 91.377C358.364 90.334 358.66 89.8301 358.668 89.1973C358.66 88.2793 357.907 87.5879 356.817 87.5879C355.739 87.5879 354.95 88.2715 354.957 89.3066H355.77C355.774 88.7051 356.172 88.3066 356.801 88.3066C357.395 88.3066 357.848 88.6621 357.848 89.2207C357.848 89.7168 357.539 90.0762 356.918 90.7207L354.957 92.6973V93.3223Z" fill="#113287"/>
<path d="M360.27 93.377C360.571 93.373 360.821 93.127 360.825 92.8223C360.821 92.5176 360.571 92.2676 360.27 92.2676C359.965 92.2676 359.711 92.5176 359.715 92.8223C359.711 93.127 359.965 93.373 360.27 93.377Z" fill="#113287"/>
<path d="M363.653 93.4004C364.832 93.4004 365.668 92.5996 365.668 91.4863C365.668 90.3965 364.883 89.6074 363.817 89.6035C363.387 89.6074 362.989 89.7598 362.754 89.9863H362.7L362.887 88.4004H365.379V87.666H362.176L361.809 90.8145H362.621C362.813 90.4668 363.16 90.3145 363.614 90.3145C364.325 90.3223 364.832 90.8223 364.832 91.5098C364.832 92.1816 364.34 92.6777 363.653 92.6816C363.082 92.6777 362.621 92.3262 362.575 91.8457H361.739C361.778 92.748 362.582 93.4004 363.653 93.4004Z" fill="#113287"/>
<path d="M368.496 93.3223C370.219 93.3223 371.211 92.252 371.215 90.4863C371.211 88.7246 370.219 87.666 368.551 87.666H366.66V93.3223H368.496ZM367.52 92.5723V88.416H368.496C369.731 88.416 370.364 89.1543 370.364 90.4863C370.364 91.8223 369.731 92.5684 368.45 92.5723H367.52Z" fill="#113287"/>
</svg>
