<svg width="355" height="217" viewBox="0 0 355 217" fill="none" xmlns="http://www.w3.org/2000/svg">
<path fill-rule="evenodd" clip-rule="evenodd" d="M39.6037 55.0352H39.3545V54.5352H39.6037V55.0352ZM42.0955 55.0352H41.5971V54.5352H42.0955V55.0352ZM44.5873 55.0352H44.0889V54.5352H44.5873V55.0352ZM47.0791 55.0352H46.5807V54.5352H47.0791V55.0352ZM49.5709 55.0352H49.0725V54.5352H49.5709V55.0352ZM52.0627 55.0352H51.5643V54.5352H52.0627V55.0352ZM54.5545 55.0352H54.0561V54.5352H54.5545V55.0352ZM57.0463 55.0352H56.5479V54.5352H57.0463V55.0352ZM59.538 55.0352H59.0397V54.5352H59.538V55.0352ZM62.0298 55.0352H61.5315V54.5352H62.0298V55.0352ZM64.5216 55.0352H64.0233V54.5352H64.5216V55.0352ZM67.0134 55.0352H66.5151V54.5352H67.0134V55.0352ZM69.5052 55.0352H69.0069V54.5352H69.5052V55.0352ZM71.997 55.0352H71.4987V54.5352H71.997V55.0352ZM74.4888 55.0352H73.9905V54.5352H74.4888V55.0352ZM76.9806 55.0352H76.4823V54.5352H76.9806V55.0352ZM79.4724 55.0352H78.9741V54.5352H79.4724V55.0352ZM81.9642 55.0352H81.4659V54.5352H81.9642V55.0352ZM84.456 55.0352H83.9577V54.5352H84.456V55.0352ZM86.9478 55.0352H86.4495V54.5352H86.9478V55.0352ZM89.4396 55.0352H88.9413V54.5352H89.4396V55.0352ZM91.9314 55.0352H91.4331V54.5352H91.9314V55.0352ZM94.4232 55.0352H93.9249V54.5352H94.4232V55.0352ZM96.915 55.0352H96.4167V54.5352H96.915V55.0352ZM99.4068 55.0352H98.9085V54.5352H99.4068V55.0352ZM101.899 55.0352H101.4V54.5352H101.899V55.0352ZM104.39 55.0352H103.892V54.5352H104.39V55.0352ZM106.882 55.0352H106.384V54.5352H106.882V55.0352ZM109.374 55.0352H108.876V54.5352H109.374V55.0352ZM111.866 55.0352H111.367V54.5352H111.866V55.0352ZM114.358 55.0352H113.859V54.5352H114.358V55.0352ZM116.849 55.0352H116.351V54.5352H116.849V55.0352ZM119.341 55.0352H118.843V54.5352H119.341V55.0352ZM121.833 55.0352H121.335V54.5352H121.833V55.0352ZM124.325 55.0352H123.826V54.5352H124.325V55.0352ZM126.817 55.0352H126.318V54.5352H126.817V55.0352ZM129.308 55.0352H128.81V54.5352H129.308V55.0352ZM131.8 55.0352H131.302V54.5352H131.8V55.0352ZM134.292 55.0352H133.794V54.5352H134.292V55.0352ZM136.784 55.0352H136.285V54.5352H136.784V55.0352ZM139.276 55.0352H138.777V54.5352H139.276V55.0352ZM141.767 55.0352H141.269V54.5352H141.767V55.0352ZM144.259 55.0352H143.761V54.5352H144.259V55.0352ZM146.751 55.0352H146.253V54.5352H146.751V55.0352ZM149.243 55.0352H148.744V54.5352H149.243V55.0352ZM151.735 55.0352H151.236V54.5352H151.735V55.0352ZM154.226 55.0352H153.728V54.5352H154.226V55.0352ZM156.718 55.0352H156.22V54.5352H156.718V55.0352ZM159.21 55.0352H158.712V54.5352H159.21V55.0352ZM161.702 55.0352H161.203V54.5352H161.702V55.0352ZM164.194 55.0352H163.695V54.5352H164.194V55.0352ZM166.685 55.0352H166.187V54.5352H166.685V55.0352ZM169.177 55.0352H168.679V54.5352H169.177V55.0352ZM171.669 55.0352H171.171V54.5352H171.669V55.0352ZM174.161 55.0352H173.662V54.5352H174.161V55.0352ZM176.653 55.0352H176.154V54.5352H176.653V55.0352ZM179.144 55.0352H178.646V54.5352H179.144V55.0352ZM181.636 55.0352H181.138V54.5352H181.636V55.0352ZM184.128 55.0352H183.63V54.5352H184.128V55.0352ZM186.62 55.0352H186.121V54.5352H186.62V55.0352ZM189.111 55.0352H188.613V54.5352H189.111V55.0352ZM191.603 55.0352H191.105V54.5352H191.603V55.0352ZM194.095 55.0352H193.597V54.5352H194.095V55.0352ZM196.587 55.0352H196.089V54.5352H196.587V55.0352ZM199.079 55.0352H198.58V54.5352H199.079V55.0352ZM201.57 55.0352H201.072V54.5352H201.57V55.0352ZM204.062 55.0352H203.564V54.5352H204.062V55.0352ZM206.554 55.0352H206.056V54.5352H206.554V55.0352ZM209.046 55.0352H208.547V54.5352H209.046V55.0352ZM211.538 55.0352H211.039V54.5352H211.538V55.0352ZM214.029 55.0352H213.531V54.5352H214.029V55.0352ZM216.521 55.0352H216.023V54.5352H216.521V55.0352ZM219.013 55.0352H218.515V54.5352H219.013V55.0352ZM221.505 55.0352H221.006V54.5352H221.505V55.0352ZM223.997 55.0352H223.498V54.5352H223.997V55.0352ZM226.488 55.0352H225.99V54.5352H226.488V55.0352ZM228.98 55.0352H228.482V54.5352H228.98V55.0352ZM231.472 55.0352H230.974V54.5352H231.472V55.0352ZM233.964 55.0352H233.465V54.5352H233.964V55.0352ZM236.456 55.0352H235.957V54.5352H236.456V55.0352ZM238.947 55.0352H238.449V54.5352H238.947V55.0352ZM241.439 55.0352H240.941V54.5352H241.439V55.0352ZM243.931 55.0352H243.433V54.5352H243.931V55.0352ZM246.423 55.0352H245.924V54.5352H246.423V55.0352ZM248.914 55.0352H248.416V54.5352H248.914V55.0352ZM251.406 55.0352H250.908V54.5352H251.406V55.0352ZM253.898 55.0352H253.4V54.5352H253.898V55.0352ZM256.39 55.0352H255.891V54.5352H256.39V55.0352ZM258.882 55.0352H258.383V54.5352H258.882V55.0352ZM261.373 55.0352H260.875V54.5352H261.373V55.0352ZM263.865 55.0352H263.367V54.5352H263.865V55.0352ZM266.357 55.0352H265.859V54.5352H266.357V55.0352ZM268.849 55.0352H268.35V54.5352H268.849V55.0352ZM271.341 55.0352H270.842V54.5352H271.341V55.0352ZM273.832 55.0352H273.334V54.5352H273.832V55.0352ZM276.324 55.0352H275.826V54.5352H276.324V55.0352ZM278.816 55.0352H278.318V54.5352H278.816V55.0352ZM281.308 55.0352H280.809V54.5352H281.308V55.0352ZM283.8 55.0352H283.301V54.5352H283.8V55.0352ZM286.291 55.0352H285.793V54.5352H286.291V55.0352ZM288.783 55.0352H288.285V54.5352H288.783V55.0352ZM291.275 55.0352H290.777V54.5352H291.275V55.0352ZM293.767 55.0352H293.268V54.5352H293.767V55.0352ZM296.258 55.0352H295.76V54.5352H296.258V55.0352ZM298.75 55.0352H298.252V54.5352H298.75V55.0352ZM301.242 55.0352H300.744V54.5352H301.242V55.0352ZM303.734 55.0352H303.236V54.5352H303.734V55.0352ZM306.226 55.0352H305.727V54.5352H306.226V55.0352ZM308.717 55.0352H308.219V54.5352H308.717V55.0352ZM311.209 55.0352H310.711V54.5352H311.209V55.0352ZM313.701 55.0352H313.203V54.5352H313.701V55.0352ZM316.193 55.0352H315.694V54.5352H316.193V55.0352ZM318.685 55.0352H318.186V54.5352H318.685V55.0352ZM321.176 55.0352H320.678V54.5352H321.176V55.0352ZM323.668 55.0352H323.17V54.5352H323.668V55.0352ZM326.16 55.0352H325.662V54.5352H326.16V55.0352ZM328.652 55.0352H328.153V54.5352H328.652V55.0352ZM331.144 55.0352H330.645V54.5352H331.144V55.0352ZM333.635 55.0352H333.137V54.5352H333.635V55.0352ZM336.127 55.0352H335.629V54.5352H336.127V55.0352ZM338.619 55.0352H338.121V54.5352H338.619V55.0352ZM341.111 55.0352H340.612V54.5352H341.111V55.0352ZM343.603 55.0352H343.104V54.5352H343.603V55.0352ZM346.094 55.0352H345.596V54.5352H346.094V55.0352ZM348.586 55.0352H348.088V54.5352H348.586V55.0352ZM350.829 55.0352H350.58V54.5352H350.829V55.0352Z" fill="#5B6EB4"/>
<path fill-rule="evenodd" clip-rule="evenodd" d="M39.6037 30.0352H39.3545V29.5352H39.6037V30.0352ZM42.0955 30.0352H41.5971V29.5352H42.0955V30.0352ZM44.5873 30.0352H44.0889V29.5352H44.5873V30.0352ZM47.0791 30.0352H46.5807V29.5352H47.0791V30.0352ZM49.5709 30.0352H49.0725V29.5352H49.5709V30.0352ZM52.0627 30.0352H51.5643V29.5352H52.0627V30.0352ZM54.5545 30.0352H54.0561V29.5352H54.5545V30.0352ZM57.0463 30.0352H56.5479V29.5352H57.0463V30.0352ZM59.538 30.0352H59.0397V29.5352H59.538V30.0352ZM62.0298 30.0352H61.5315V29.5352H62.0298V30.0352ZM64.5216 30.0352H64.0233V29.5352H64.5216V30.0352ZM67.0134 30.0352H66.5151V29.5352H67.0134V30.0352ZM69.5052 30.0352H69.0069V29.5352H69.5052V30.0352ZM71.997 30.0352H71.4987V29.5352H71.997V30.0352ZM74.4888 30.0352H73.9905V29.5352H74.4888V30.0352ZM76.9806 30.0352H76.4823V29.5352H76.9806V30.0352ZM79.4724 30.0352H78.9741V29.5352H79.4724V30.0352ZM81.9642 30.0352H81.4659V29.5352H81.9642V30.0352ZM84.456 30.0352H83.9577V29.5352H84.456V30.0352ZM86.9478 30.0352H86.4495V29.5352H86.9478V30.0352ZM89.4396 30.0352H88.9413V29.5352H89.4396V30.0352ZM91.9314 30.0352H91.4331V29.5352H91.9314V30.0352ZM94.4232 30.0352H93.9249V29.5352H94.4232V30.0352ZM96.915 30.0352H96.4167V29.5352H96.915V30.0352ZM99.4068 30.0352H98.9085V29.5352H99.4068V30.0352ZM101.899 30.0352H101.4V29.5352H101.899V30.0352ZM104.39 30.0352H103.892V29.5352H104.39V30.0352ZM106.882 30.0352H106.384V29.5352H106.882V30.0352ZM109.374 30.0352H108.876V29.5352H109.374V30.0352ZM111.866 30.0352H111.367V29.5352H111.866V30.0352ZM114.358 30.0352H113.859V29.5352H114.358V30.0352ZM116.849 30.0352H116.351V29.5352H116.849V30.0352ZM119.341 30.0352H118.843V29.5352H119.341V30.0352ZM121.833 30.0352H121.335V29.5352H121.833V30.0352ZM124.325 30.0352H123.826V29.5352H124.325V30.0352ZM126.817 30.0352H126.318V29.5352H126.817V30.0352ZM129.308 30.0352H128.81V29.5352H129.308V30.0352ZM131.8 30.0352H131.302V29.5352H131.8V30.0352ZM134.292 30.0352H133.794V29.5352H134.292V30.0352ZM136.784 30.0352H136.285V29.5352H136.784V30.0352ZM139.276 30.0352H138.777V29.5352H139.276V30.0352ZM141.767 30.0352H141.269V29.5352H141.767V30.0352ZM144.259 30.0352H143.761V29.5352H144.259V30.0352ZM146.751 30.0352H146.253V29.5352H146.751V30.0352ZM149.243 30.0352H148.744V29.5352H149.243V30.0352ZM151.735 30.0352H151.236V29.5352H151.735V30.0352ZM154.226 30.0352H153.728V29.5352H154.226V30.0352ZM156.718 30.0352H156.22V29.5352H156.718V30.0352ZM159.21 30.0352H158.712V29.5352H159.21V30.0352ZM161.702 30.0352H161.203V29.5352H161.702V30.0352ZM164.194 30.0352H163.695V29.5352H164.194V30.0352ZM166.685 30.0352H166.187V29.5352H166.685V30.0352ZM169.177 30.0352H168.679V29.5352H169.177V30.0352ZM171.669 30.0352H171.171V29.5352H171.669V30.0352ZM174.161 30.0352H173.662V29.5352H174.161V30.0352ZM176.653 30.0352H176.154V29.5352H176.653V30.0352ZM179.144 30.0352H178.646V29.5352H179.144V30.0352ZM181.636 30.0352H181.138V29.5352H181.636V30.0352ZM184.128 30.0352H183.63V29.5352H184.128V30.0352ZM186.62 30.0352H186.121V29.5352H186.62V30.0352ZM189.111 30.0352H188.613V29.5352H189.111V30.0352ZM191.603 30.0352H191.105V29.5352H191.603V30.0352ZM194.095 30.0352H193.597V29.5352H194.095V30.0352ZM196.587 30.0352H196.089V29.5352H196.587V30.0352ZM199.079 30.0352H198.58V29.5352H199.079V30.0352ZM201.57 30.0352H201.072V29.5352H201.57V30.0352ZM204.062 30.0352H203.564V29.5352H204.062V30.0352ZM206.554 30.0352H206.056V29.5352H206.554V30.0352ZM209.046 30.0352H208.547V29.5352H209.046V30.0352ZM211.538 30.0352H211.039V29.5352H211.538V30.0352ZM214.029 30.0352H213.531V29.5352H214.029V30.0352ZM216.521 30.0352H216.023V29.5352H216.521V30.0352ZM219.013 30.0352H218.515V29.5352H219.013V30.0352ZM221.505 30.0352H221.006V29.5352H221.505V30.0352ZM223.997 30.0352H223.498V29.5352H223.997V30.0352ZM226.488 30.0352H225.99V29.5352H226.488V30.0352ZM228.98 30.0352H228.482V29.5352H228.98V30.0352ZM231.472 30.0352H230.974V29.5352H231.472V30.0352ZM233.964 30.0352H233.465V29.5352H233.964V30.0352ZM236.456 30.0352H235.957V29.5352H236.456V30.0352ZM238.947 30.0352H238.449V29.5352H238.947V30.0352ZM241.439 30.0352H240.941V29.5352H241.439V30.0352ZM243.931 30.0352H243.433V29.5352H243.931V30.0352ZM246.423 30.0352H245.924V29.5352H246.423V30.0352ZM248.914 30.0352H248.416V29.5352H248.914V30.0352ZM251.406 30.0352H250.908V29.5352H251.406V30.0352ZM253.898 30.0352H253.4V29.5352H253.898V30.0352ZM256.39 30.0352H255.891V29.5352H256.39V30.0352ZM258.882 30.0352H258.383V29.5352H258.882V30.0352ZM261.373 30.0352H260.875V29.5352H261.373V30.0352ZM263.865 30.0352H263.367V29.5352H263.865V30.0352ZM266.357 30.0352H265.859V29.5352H266.357V30.0352ZM268.849 30.0352H268.35V29.5352H268.849V30.0352ZM271.341 30.0352H270.842V29.5352H271.341V30.0352ZM273.832 30.0352H273.334V29.5352H273.832V30.0352ZM276.324 30.0352H275.826V29.5352H276.324V30.0352ZM278.816 30.0352H278.318V29.5352H278.816V30.0352ZM281.308 30.0352H280.809V29.5352H281.308V30.0352ZM283.8 30.0352H283.301V29.5352H283.8V30.0352ZM286.291 30.0352H285.793V29.5352H286.291V30.0352ZM288.783 30.0352H288.285V29.5352H288.783V30.0352ZM291.275 30.0352H290.777V29.5352H291.275V30.0352ZM293.767 30.0352H293.268V29.5352H293.767V30.0352ZM296.258 30.0352H295.76V29.5352H296.258V30.0352ZM298.75 30.0352H298.252V29.5352H298.75V30.0352ZM301.242 30.0352H300.744V29.5352H301.242V30.0352ZM303.734 30.0352H303.236V29.5352H303.734V30.0352ZM306.226 30.0352H305.727V29.5352H306.226V30.0352ZM308.717 30.0352H308.219V29.5352H308.717V30.0352ZM311.209 30.0352H310.711V29.5352H311.209V30.0352ZM313.701 30.0352H313.203V29.5352H313.701V30.0352ZM316.193 30.0352H315.694V29.5352H316.193V30.0352ZM318.685 30.0352H318.186V29.5352H318.685V30.0352ZM321.176 30.0352H320.678V29.5352H321.176V30.0352ZM323.668 30.0352H323.17V29.5352H323.668V30.0352ZM326.16 30.0352H325.662V29.5352H326.16V30.0352ZM328.652 30.0352H328.153V29.5352H328.652V30.0352ZM331.144 30.0352H330.645V29.5352H331.144V30.0352ZM333.635 30.0352H333.137V29.5352H333.635V30.0352ZM336.127 30.0352H335.629V29.5352H336.127V30.0352ZM338.619 30.0352H338.121V29.5352H338.619V30.0352ZM341.111 30.0352H340.612V29.5352H341.111V30.0352ZM343.603 30.0352H343.104V29.5352H343.603V30.0352ZM346.094 30.0352H345.596V29.5352H346.094V30.0352ZM348.586 30.0352H348.088V29.5352H348.586V30.0352ZM350.829 30.0352H350.58V29.5352H350.829V30.0352Z" fill="#5B6EB4"/>
<path fill-rule="evenodd" clip-rule="evenodd" d="M39.6037 5.17578H39.3545V4.67578H39.6037V5.17578ZM42.0955 5.17578H41.5971V4.67578H42.0955V5.17578ZM44.5873 5.17578H44.0889V4.67578H44.5873V5.17578ZM47.0791 5.17578H46.5807V4.67578H47.0791V5.17578ZM49.5709 5.17578H49.0725V4.67578H49.5709V5.17578ZM52.0627 5.17578H51.5643V4.67578H52.0627V5.17578ZM54.5545 5.17578H54.0561V4.67578H54.5545V5.17578ZM57.0463 5.17578H56.5479V4.67578H57.0463V5.17578ZM59.538 5.17578H59.0397V4.67578H59.538V5.17578ZM62.0298 5.17578H61.5315V4.67578H62.0298V5.17578ZM64.5216 5.17578H64.0233V4.67578H64.5216V5.17578ZM67.0134 5.17578H66.5151V4.67578H67.0134V5.17578ZM69.5052 5.17578H69.0069V4.67578H69.5052V5.17578ZM71.997 5.17578H71.4987V4.67578H71.997V5.17578ZM74.4888 5.17578H73.9905V4.67578H74.4888V5.17578ZM76.9806 5.17578H76.4823V4.67578H76.9806V5.17578ZM79.4724 5.17578H78.9741V4.67578H79.4724V5.17578ZM81.9642 5.17578H81.4659V4.67578H81.9642V5.17578ZM84.456 5.17578H83.9577V4.67578H84.456V5.17578ZM86.9478 5.17578H86.4495V4.67578H86.9478V5.17578ZM89.4396 5.17578H88.9413V4.67578H89.4396V5.17578ZM91.9314 5.17578H91.4331V4.67578H91.9314V5.17578ZM94.4232 5.17578H93.9249V4.67578H94.4232V5.17578ZM96.915 5.17578H96.4167V4.67578H96.915V5.17578ZM99.4068 5.17578H98.9085V4.67578H99.4068V5.17578ZM101.899 5.17578H101.4V4.67578H101.899V5.17578ZM104.39 5.17578H103.892V4.67578H104.39V5.17578ZM106.882 5.17578H106.384V4.67578H106.882V5.17578ZM109.374 5.17578H108.876V4.67578H109.374V5.17578ZM111.866 5.17578H111.367V4.67578H111.866V5.17578ZM114.358 5.17578H113.859V4.67578H114.358V5.17578ZM116.849 5.17578H116.351V4.67578H116.849V5.17578ZM119.341 5.17578H118.843V4.67578H119.341V5.17578ZM121.833 5.17578H121.335V4.67578H121.833V5.17578ZM124.325 5.17578H123.826V4.67578H124.325V5.17578ZM126.817 5.17578H126.318V4.67578H126.817V5.17578ZM129.308 5.17578H128.81V4.67578H129.308V5.17578ZM131.8 5.17578H131.302V4.67578H131.8V5.17578ZM134.292 5.17578H133.794V4.67578H134.292V5.17578ZM136.784 5.17578H136.285V4.67578H136.784V5.17578ZM139.276 5.17578H138.777V4.67578H139.276V5.17578ZM141.767 5.17578H141.269V4.67578H141.767V5.17578ZM144.259 5.17578H143.761V4.67578H144.259V5.17578ZM146.751 5.17578H146.253V4.67578H146.751V5.17578ZM149.243 5.17578H148.744V4.67578H149.243V5.17578ZM151.735 5.17578H151.236V4.67578H151.735V5.17578ZM154.226 5.17578H153.728V4.67578H154.226V5.17578ZM156.718 5.17578H156.22V4.67578H156.718V5.17578ZM159.21 5.17578H158.712V4.67578H159.21V5.17578ZM161.702 5.17578H161.203V4.67578H161.702V5.17578ZM164.194 5.17578H163.695V4.67578H164.194V5.17578ZM166.685 5.17578H166.187V4.67578H166.685V5.17578ZM169.177 5.17578H168.679V4.67578H169.177V5.17578ZM171.669 5.17578H171.171V4.67578H171.669V5.17578ZM174.161 5.17578H173.662V4.67578H174.161V5.17578ZM176.653 5.17578H176.154V4.67578H176.653V5.17578ZM179.144 5.17578H178.646V4.67578H179.144V5.17578ZM181.636 5.17578H181.138V4.67578H181.636V5.17578ZM184.128 5.17578H183.63V4.67578H184.128V5.17578ZM186.62 5.17578H186.121V4.67578H186.62V5.17578ZM189.111 5.17578H188.613V4.67578H189.111V5.17578ZM191.603 5.17578H191.105V4.67578H191.603V5.17578ZM194.095 5.17578H193.597V4.67578H194.095V5.17578ZM196.587 5.17578H196.089V4.67578H196.587V5.17578ZM199.079 5.17578H198.58V4.67578H199.079V5.17578ZM201.57 5.17578H201.072V4.67578H201.57V5.17578ZM204.062 5.17578H203.564V4.67578H204.062V5.17578ZM206.554 5.17578H206.056V4.67578H206.554V5.17578ZM209.046 5.17578H208.547V4.67578H209.046V5.17578ZM211.538 5.17578H211.039V4.67578H211.538V5.17578ZM214.029 5.17578H213.531V4.67578H214.029V5.17578ZM216.521 5.17578H216.023V4.67578H216.521V5.17578ZM219.013 5.17578H218.515V4.67578H219.013V5.17578ZM221.505 5.17578H221.006V4.67578H221.505V5.17578ZM223.997 5.17578H223.498V4.67578H223.997V5.17578ZM226.488 5.17578H225.99V4.67578H226.488V5.17578ZM228.98 5.17578H228.482V4.67578H228.98V5.17578ZM231.472 5.17578H230.974V4.67578H231.472V5.17578ZM233.964 5.17578H233.465V4.67578H233.964V5.17578ZM236.456 5.17578H235.957V4.67578H236.456V5.17578ZM238.947 5.17578H238.449V4.67578H238.947V5.17578ZM241.439 5.17578H240.941V4.67578H241.439V5.17578ZM243.931 5.17578H243.433V4.67578H243.931V5.17578ZM246.423 5.17578H245.924V4.67578H246.423V5.17578ZM248.914 5.17578H248.416V4.67578H248.914V5.17578ZM251.406 5.17578H250.908V4.67578H251.406V5.17578ZM253.898 5.17578H253.4V4.67578H253.898V5.17578ZM256.39 5.17578H255.891V4.67578H256.39V5.17578ZM258.882 5.17578H258.383V4.67578H258.882V5.17578ZM261.373 5.17578H260.875V4.67578H261.373V5.17578ZM263.865 5.17578H263.367V4.67578H263.865V5.17578ZM266.357 5.17578H265.859V4.67578H266.357V5.17578ZM268.849 5.17578H268.35V4.67578H268.849V5.17578ZM271.341 5.17578H270.842V4.67578H271.341V5.17578ZM273.832 5.17578H273.334V4.67578H273.832V5.17578ZM276.324 5.17578H275.826V4.67578H276.324V5.17578ZM278.816 5.17578H278.318V4.67578H278.816V5.17578ZM281.308 5.17578H280.809V4.67578H281.308V5.17578ZM283.8 5.17578H283.301V4.67578H283.8V5.17578ZM286.291 5.17578H285.793V4.67578H286.291V5.17578ZM288.783 5.17578H288.285V4.67578H288.783V5.17578ZM291.275 5.17578H290.777V4.67578H291.275V5.17578ZM293.767 5.17578H293.268V4.67578H293.767V5.17578ZM296.258 5.17578H295.76V4.67578H296.258V5.17578ZM298.75 5.17578H298.252V4.67578H298.75V5.17578ZM301.242 5.17578H300.744V4.67578H301.242V5.17578ZM303.734 5.17578H303.236V4.67578H303.734V5.17578ZM306.226 5.17578H305.727V4.67578H306.226V5.17578ZM308.717 5.17578H308.219V4.67578H308.717V5.17578ZM311.209 5.17578H310.711V4.67578H311.209V5.17578ZM313.701 5.17578H313.203V4.67578H313.701V5.17578ZM316.193 5.17578H315.694V4.67578H316.193V5.17578ZM318.685 5.17578H318.186V4.67578H318.685V5.17578ZM321.176 5.17578H320.678V4.67578H321.176V5.17578ZM323.668 5.17578H323.17V4.67578H323.668V5.17578ZM326.16 5.17578H325.662V4.67578H326.16V5.17578ZM328.652 5.17578H328.153V4.67578H328.652V5.17578ZM331.144 5.17578H330.645V4.67578H331.144V5.17578ZM333.635 5.17578H333.137V4.67578H333.635V5.17578ZM336.127 5.17578H335.629V4.67578H336.127V5.17578ZM338.619 5.17578H338.121V4.67578H338.619V5.17578ZM341.111 5.17578H340.612V4.67578H341.111V5.17578ZM343.603 5.17578H343.104V4.67578H343.603V5.17578ZM346.094 5.17578H345.596V4.67578H346.094V5.17578ZM348.586 5.17578H348.088V4.67578H348.586V5.17578ZM350.829 5.17578H350.58V4.67578H350.829V5.17578Z" fill="#5B6EB4"/>
<path fill-rule="evenodd" clip-rule="evenodd" d="M39.6037 80.0352H39.3545V79.5352H39.6037V80.0352ZM42.0955 80.0352H41.5971V79.5352H42.0955V80.0352ZM44.5873 80.0352H44.0889V79.5352H44.5873V80.0352ZM47.0791 80.0352H46.5807V79.5352H47.0791V80.0352ZM49.5709 80.0352H49.0725V79.5352H49.5709V80.0352ZM52.0627 80.0352H51.5643V79.5352H52.0627V80.0352ZM54.5545 80.0352H54.0561V79.5352H54.5545V80.0352ZM57.0463 80.0352H56.5479V79.5352H57.0463V80.0352ZM59.538 80.0352H59.0397V79.5352H59.538V80.0352ZM62.0298 80.0352H61.5315V79.5352H62.0298V80.0352ZM64.5216 80.0352H64.0233V79.5352H64.5216V80.0352ZM67.0134 80.0352H66.5151V79.5352H67.0134V80.0352ZM69.5052 80.0352H69.0069V79.5352H69.5052V80.0352ZM71.997 80.0352H71.4987V79.5352H71.997V80.0352ZM74.4888 80.0352H73.9905V79.5352H74.4888V80.0352ZM76.9806 80.0352H76.4823V79.5352H76.9806V80.0352ZM79.4724 80.0352H78.9741V79.5352H79.4724V80.0352ZM81.9642 80.0352H81.4659V79.5352H81.9642V80.0352ZM84.456 80.0352H83.9577V79.5352H84.456V80.0352ZM86.9478 80.0352H86.4495V79.5352H86.9478V80.0352ZM89.4396 80.0352H88.9413V79.5352H89.4396V80.0352ZM91.9314 80.0352H91.4331V79.5352H91.9314V80.0352ZM94.4232 80.0352H93.9249V79.5352H94.4232V80.0352ZM96.915 80.0352H96.4167V79.5352H96.915V80.0352ZM99.4068 80.0352H98.9085V79.5352H99.4068V80.0352ZM101.899 80.0352H101.4V79.5352H101.899V80.0352ZM104.39 80.0352H103.892V79.5352H104.39V80.0352ZM106.882 80.0352H106.384V79.5352H106.882V80.0352ZM109.374 80.0352H108.876V79.5352H109.374V80.0352ZM111.866 80.0352H111.367V79.5352H111.866V80.0352ZM114.358 80.0352H113.859V79.5352H114.358V80.0352ZM116.849 80.0352H116.351V79.5352H116.849V80.0352ZM119.341 80.0352H118.843V79.5352H119.341V80.0352ZM121.833 80.0352H121.335V79.5352H121.833V80.0352ZM124.325 80.0352H123.826V79.5352H124.325V80.0352ZM126.817 80.0352H126.318V79.5352H126.817V80.0352ZM129.308 80.0352H128.81V79.5352H129.308V80.0352ZM131.8 80.0352H131.302V79.5352H131.8V80.0352ZM134.292 80.0352H133.794V79.5352H134.292V80.0352ZM136.784 80.0352H136.285V79.5352H136.784V80.0352ZM139.276 80.0352H138.777V79.5352H139.276V80.0352ZM141.767 80.0352H141.269V79.5352H141.767V80.0352ZM144.259 80.0352H143.761V79.5352H144.259V80.0352ZM146.751 80.0352H146.253V79.5352H146.751V80.0352ZM149.243 80.0352H148.744V79.5352H149.243V80.0352ZM151.735 80.0352H151.236V79.5352H151.735V80.0352ZM154.226 80.0352H153.728V79.5352H154.226V80.0352ZM156.718 80.0352H156.22V79.5352H156.718V80.0352ZM159.21 80.0352H158.712V79.5352H159.21V80.0352ZM161.702 80.0352H161.203V79.5352H161.702V80.0352ZM164.194 80.0352H163.695V79.5352H164.194V80.0352ZM166.685 80.0352H166.187V79.5352H166.685V80.0352ZM169.177 80.0352H168.679V79.5352H169.177V80.0352ZM171.669 80.0352H171.171V79.5352H171.669V80.0352ZM174.161 80.0352H173.662V79.5352H174.161V80.0352ZM176.653 80.0352H176.154V79.5352H176.653V80.0352ZM179.144 80.0352H178.646V79.5352H179.144V80.0352ZM181.636 80.0352H181.138V79.5352H181.636V80.0352ZM184.128 80.0352H183.63V79.5352H184.128V80.0352ZM186.62 80.0352H186.121V79.5352H186.62V80.0352ZM189.111 80.0352H188.613V79.5352H189.111V80.0352ZM191.603 80.0352H191.105V79.5352H191.603V80.0352ZM194.095 80.0352H193.597V79.5352H194.095V80.0352ZM196.587 80.0352H196.089V79.5352H196.587V80.0352ZM199.079 80.0352H198.58V79.5352H199.079V80.0352ZM201.57 80.0352H201.072V79.5352H201.57V80.0352ZM204.062 80.0352H203.564V79.5352H204.062V80.0352ZM206.554 80.0352H206.056V79.5352H206.554V80.0352ZM209.046 80.0352H208.547V79.5352H209.046V80.0352ZM211.538 80.0352H211.039V79.5352H211.538V80.0352ZM214.029 80.0352H213.531V79.5352H214.029V80.0352ZM216.521 80.0352H216.023V79.5352H216.521V80.0352ZM219.013 80.0352H218.515V79.5352H219.013V80.0352ZM221.505 80.0352H221.006V79.5352H221.505V80.0352ZM223.997 80.0352H223.498V79.5352H223.997V80.0352ZM226.488 80.0352H225.99V79.5352H226.488V80.0352ZM228.98 80.0352H228.482V79.5352H228.98V80.0352ZM231.472 80.0352H230.974V79.5352H231.472V80.0352ZM233.964 80.0352H233.465V79.5352H233.964V80.0352ZM236.456 80.0352H235.957V79.5352H236.456V80.0352ZM238.947 80.0352H238.449V79.5352H238.947V80.0352ZM241.439 80.0352H240.941V79.5352H241.439V80.0352ZM243.931 80.0352H243.433V79.5352H243.931V80.0352ZM246.423 80.0352H245.924V79.5352H246.423V80.0352ZM248.914 80.0352H248.416V79.5352H248.914V80.0352ZM251.406 80.0352H250.908V79.5352H251.406V80.0352ZM253.898 80.0352H253.4V79.5352H253.898V80.0352ZM256.39 80.0352H255.891V79.5352H256.39V80.0352ZM258.882 80.0352H258.383V79.5352H258.882V80.0352ZM261.373 80.0352H260.875V79.5352H261.373V80.0352ZM263.865 80.0352H263.367V79.5352H263.865V80.0352ZM266.357 80.0352H265.859V79.5352H266.357V80.0352ZM268.849 80.0352H268.35V79.5352H268.849V80.0352ZM271.341 80.0352H270.842V79.5352H271.341V80.0352ZM273.832 80.0352H273.334V79.5352H273.832V80.0352ZM276.324 80.0352H275.826V79.5352H276.324V80.0352ZM278.816 80.0352H278.318V79.5352H278.816V80.0352ZM281.308 80.0352H280.809V79.5352H281.308V80.0352ZM283.8 80.0352H283.301V79.5352H283.8V80.0352ZM286.291 80.0352H285.793V79.5352H286.291V80.0352ZM288.783 80.0352H288.285V79.5352H288.783V80.0352ZM291.275 80.0352H290.777V79.5352H291.275V80.0352ZM293.767 80.0352H293.268V79.5352H293.767V80.0352ZM296.258 80.0352H295.76V79.5352H296.258V80.0352ZM298.75 80.0352H298.252V79.5352H298.75V80.0352ZM301.242 80.0352H300.744V79.5352H301.242V80.0352ZM303.734 80.0352H303.236V79.5352H303.734V80.0352ZM306.226 80.0352H305.727V79.5352H306.226V80.0352ZM308.717 80.0352H308.219V79.5352H308.717V80.0352ZM311.209 80.0352H310.711V79.5352H311.209V80.0352ZM313.701 80.0352H313.203V79.5352H313.701V80.0352ZM316.193 80.0352H315.694V79.5352H316.193V80.0352ZM318.685 80.0352H318.186V79.5352H318.685V80.0352ZM321.176 80.0352H320.678V79.5352H321.176V80.0352ZM323.668 80.0352H323.17V79.5352H323.668V80.0352ZM326.16 80.0352H325.662V79.5352H326.16V80.0352ZM328.652 80.0352H328.153V79.5352H328.652V80.0352ZM331.144 80.0352H330.645V79.5352H331.144V80.0352ZM333.635 80.0352H333.137V79.5352H333.635V80.0352ZM336.127 80.0352H335.629V79.5352H336.127V80.0352ZM338.619 80.0352H338.121V79.5352H338.619V80.0352ZM341.111 80.0352H340.612V79.5352H341.111V80.0352ZM343.603 80.0352H343.104V79.5352H343.603V80.0352ZM346.094 80.0352H345.596V79.5352H346.094V80.0352ZM348.586 80.0352H348.088V79.5352H348.586V80.0352ZM350.829 80.0352H350.58V79.5352H350.829V80.0352Z" fill="#5B6EB4"/>
<path fill-rule="evenodd" clip-rule="evenodd" d="M39.6037 105.035H39.3545V104.535H39.6037V105.035ZM42.0955 105.035H41.5971V104.535H42.0955V105.035ZM44.5873 105.035H44.0889V104.535H44.5873V105.035ZM47.0791 105.035H46.5807V104.535H47.0791V105.035ZM49.5709 105.035H49.0725V104.535H49.5709V105.035ZM52.0627 105.035H51.5643V104.535H52.0627V105.035ZM54.5545 105.035H54.0561V104.535H54.5545V105.035ZM57.0463 105.035H56.5479V104.535H57.0463V105.035ZM59.538 105.035H59.0397V104.535H59.538V105.035ZM62.0298 105.035H61.5315V104.535H62.0298V105.035ZM64.5216 105.035H64.0233V104.535H64.5216V105.035ZM67.0134 105.035H66.5151V104.535H67.0134V105.035ZM69.5052 105.035H69.0069V104.535H69.5052V105.035ZM71.997 105.035H71.4987V104.535H71.997V105.035ZM74.4888 105.035H73.9905V104.535H74.4888V105.035ZM76.9806 105.035H76.4823V104.535H76.9806V105.035ZM79.4724 105.035H78.9741V104.535H79.4724V105.035ZM81.9642 105.035H81.4659V104.535H81.9642V105.035ZM84.456 105.035H83.9577V104.535H84.456V105.035ZM86.9478 105.035H86.4495V104.535H86.9478V105.035ZM89.4396 105.035H88.9413V104.535H89.4396V105.035ZM91.9314 105.035H91.4331V104.535H91.9314V105.035ZM94.4232 105.035H93.9249V104.535H94.4232V105.035ZM96.915 105.035H96.4167V104.535H96.915V105.035ZM99.4068 105.035H98.9085V104.535H99.4068V105.035ZM101.899 105.035H101.4V104.535H101.899V105.035ZM104.39 105.035H103.892V104.535H104.39V105.035ZM106.882 105.035H106.384V104.535H106.882V105.035ZM109.374 105.035H108.876V104.535H109.374V105.035ZM111.866 105.035H111.367V104.535H111.866V105.035ZM114.358 105.035H113.859V104.535H114.358V105.035ZM116.849 105.035H116.351V104.535H116.849V105.035ZM119.341 105.035H118.843V104.535H119.341V105.035ZM121.833 105.035H121.335V104.535H121.833V105.035ZM124.325 105.035H123.826V104.535H124.325V105.035ZM126.817 105.035H126.318V104.535H126.817V105.035ZM129.308 105.035H128.81V104.535H129.308V105.035ZM131.8 105.035H131.302V104.535H131.8V105.035ZM134.292 105.035H133.794V104.535H134.292V105.035ZM136.784 105.035H136.285V104.535H136.784V105.035ZM139.276 105.035H138.777V104.535H139.276V105.035ZM141.767 105.035H141.269V104.535H141.767V105.035ZM144.259 105.035H143.761V104.535H144.259V105.035ZM146.751 105.035H146.253V104.535H146.751V105.035ZM149.243 105.035H148.744V104.535H149.243V105.035ZM151.735 105.035H151.236V104.535H151.735V105.035ZM154.226 105.035H153.728V104.535H154.226V105.035ZM156.718 105.035H156.22V104.535H156.718V105.035ZM159.21 105.035H158.712V104.535H159.21V105.035ZM161.702 105.035H161.203V104.535H161.702V105.035ZM164.194 105.035H163.695V104.535H164.194V105.035ZM166.685 105.035H166.187V104.535H166.685V105.035ZM169.177 105.035H168.679V104.535H169.177V105.035ZM171.669 105.035H171.171V104.535H171.669V105.035ZM174.161 105.035H173.662V104.535H174.161V105.035ZM176.653 105.035H176.154V104.535H176.653V105.035ZM179.144 105.035H178.646V104.535H179.144V105.035ZM181.636 105.035H181.138V104.535H181.636V105.035ZM184.128 105.035H183.63V104.535H184.128V105.035ZM186.62 105.035H186.121V104.535H186.62V105.035ZM189.111 105.035H188.613V104.535H189.111V105.035ZM191.603 105.035H191.105V104.535H191.603V105.035ZM194.095 105.035H193.597V104.535H194.095V105.035ZM196.587 105.035H196.089V104.535H196.587V105.035ZM199.079 105.035H198.58V104.535H199.079V105.035ZM201.57 105.035H201.072V104.535H201.57V105.035ZM204.062 105.035H203.564V104.535H204.062V105.035ZM206.554 105.035H206.056V104.535H206.554V105.035ZM209.046 105.035H208.547V104.535H209.046V105.035ZM211.538 105.035H211.039V104.535H211.538V105.035ZM214.029 105.035H213.531V104.535H214.029V105.035ZM216.521 105.035H216.023V104.535H216.521V105.035ZM219.013 105.035H218.515V104.535H219.013V105.035ZM221.505 105.035H221.006V104.535H221.505V105.035ZM223.997 105.035H223.498V104.535H223.997V105.035ZM226.488 105.035H225.99V104.535H226.488V105.035ZM228.98 105.035H228.482V104.535H228.98V105.035ZM231.472 105.035H230.974V104.535H231.472V105.035ZM233.964 105.035H233.465V104.535H233.964V105.035ZM236.456 105.035H235.957V104.535H236.456V105.035ZM238.947 105.035H238.449V104.535H238.947V105.035ZM241.439 105.035H240.941V104.535H241.439V105.035ZM243.931 105.035H243.433V104.535H243.931V105.035ZM246.423 105.035H245.924V104.535H246.423V105.035ZM248.914 105.035H248.416V104.535H248.914V105.035ZM251.406 105.035H250.908V104.535H251.406V105.035ZM253.898 105.035H253.4V104.535H253.898V105.035ZM256.39 105.035H255.891V104.535H256.39V105.035ZM258.882 105.035H258.383V104.535H258.882V105.035ZM261.373 105.035H260.875V104.535H261.373V105.035ZM263.865 105.035H263.367V104.535H263.865V105.035ZM266.357 105.035H265.859V104.535H266.357V105.035ZM268.849 105.035H268.35V104.535H268.849V105.035ZM271.341 105.035H270.842V104.535H271.341V105.035ZM273.832 105.035H273.334V104.535H273.832V105.035ZM276.324 105.035H275.826V104.535H276.324V105.035ZM278.816 105.035H278.318V104.535H278.816V105.035ZM281.308 105.035H280.809V104.535H281.308V105.035ZM283.8 105.035H283.301V104.535H283.8V105.035ZM286.291 105.035H285.793V104.535H286.291V105.035ZM288.783 105.035H288.285V104.535H288.783V105.035ZM291.275 105.035H290.777V104.535H291.275V105.035ZM293.767 105.035H293.268V104.535H293.767V105.035ZM296.258 105.035H295.76V104.535H296.258V105.035ZM298.75 105.035H298.252V104.535H298.75V105.035ZM301.242 105.035H300.744V104.535H301.242V105.035ZM303.734 105.035H303.236V104.535H303.734V105.035ZM306.226 105.035H305.727V104.535H306.226V105.035ZM308.717 105.035H308.219V104.535H308.717V105.035ZM311.209 105.035H310.711V104.535H311.209V105.035ZM313.701 105.035H313.203V104.535H313.701V105.035ZM316.193 105.035H315.694V104.535H316.193V105.035ZM318.685 105.035H318.186V104.535H318.685V105.035ZM321.176 105.035H320.678V104.535H321.176V105.035ZM323.668 105.035H323.17V104.535H323.668V105.035ZM326.16 105.035H325.662V104.535H326.16V105.035ZM328.652 105.035H328.153V104.535H328.652V105.035ZM331.144 105.035H330.645V104.535H331.144V105.035ZM333.635 105.035H333.137V104.535H333.635V105.035ZM336.127 105.035H335.629V104.535H336.127V105.035ZM338.619 105.035H338.121V104.535H338.619V105.035ZM341.111 105.035H340.612V104.535H341.111V105.035ZM343.603 105.035H343.104V104.535H343.603V105.035ZM346.094 105.035H345.596V104.535H346.094V105.035ZM348.586 105.035H348.088V104.535H348.586V105.035ZM350.829 105.035H350.58V104.535H350.829V105.035Z" fill="#5B6EB4"/>
<path fill-rule="evenodd" clip-rule="evenodd" d="M39.6037 130.035H39.3545V129.535H39.6037V130.035ZM42.0955 130.035H41.5971V129.535H42.0955V130.035ZM44.5873 130.035H44.0889V129.535H44.5873V130.035ZM47.0791 130.035H46.5807V129.535H47.0791V130.035ZM49.5709 130.035H49.0725V129.535H49.5709V130.035ZM52.0627 130.035H51.5643V129.535H52.0627V130.035ZM54.5545 130.035H54.0561V129.535H54.5545V130.035ZM57.0463 130.035H56.5479V129.535H57.0463V130.035ZM59.538 130.035H59.0397V129.535H59.538V130.035ZM62.0298 130.035H61.5315V129.535H62.0298V130.035ZM64.5216 130.035H64.0233V129.535H64.5216V130.035ZM67.0134 130.035H66.5151V129.535H67.0134V130.035ZM69.5052 130.035H69.0069V129.535H69.5052V130.035ZM71.997 130.035H71.4987V129.535H71.997V130.035ZM74.4888 130.035H73.9905V129.535H74.4888V130.035ZM76.9806 130.035H76.4823V129.535H76.9806V130.035ZM79.4724 130.035H78.9741V129.535H79.4724V130.035ZM81.9642 130.035H81.4659V129.535H81.9642V130.035ZM84.456 130.035H83.9577V129.535H84.456V130.035ZM86.9478 130.035H86.4495V129.535H86.9478V130.035ZM89.4396 130.035H88.9413V129.535H89.4396V130.035ZM91.9314 130.035H91.4331V129.535H91.9314V130.035ZM94.4232 130.035H93.9249V129.535H94.4232V130.035ZM96.915 130.035H96.4167V129.535H96.915V130.035ZM99.4068 130.035H98.9085V129.535H99.4068V130.035ZM101.899 130.035H101.4V129.535H101.899V130.035ZM104.39 130.035H103.892V129.535H104.39V130.035ZM106.882 130.035H106.384V129.535H106.882V130.035ZM109.374 130.035H108.876V129.535H109.374V130.035ZM111.866 130.035H111.367V129.535H111.866V130.035ZM114.358 130.035H113.859V129.535H114.358V130.035ZM116.849 130.035H116.351V129.535H116.849V130.035ZM119.341 130.035H118.843V129.535H119.341V130.035ZM121.833 130.035H121.335V129.535H121.833V130.035ZM124.325 130.035H123.826V129.535H124.325V130.035ZM126.817 130.035H126.318V129.535H126.817V130.035ZM129.308 130.035H128.81V129.535H129.308V130.035ZM131.8 130.035H131.302V129.535H131.8V130.035ZM134.292 130.035H133.794V129.535H134.292V130.035ZM136.784 130.035H136.285V129.535H136.784V130.035ZM139.276 130.035H138.777V129.535H139.276V130.035ZM141.767 130.035H141.269V129.535H141.767V130.035ZM144.259 130.035H143.761V129.535H144.259V130.035ZM146.751 130.035H146.253V129.535H146.751V130.035ZM149.243 130.035H148.744V129.535H149.243V130.035ZM151.735 130.035H151.236V129.535H151.735V130.035ZM154.226 130.035H153.728V129.535H154.226V130.035ZM156.718 130.035H156.22V129.535H156.718V130.035ZM159.21 130.035H158.712V129.535H159.21V130.035ZM161.702 130.035H161.203V129.535H161.702V130.035ZM164.194 130.035H163.695V129.535H164.194V130.035ZM166.685 130.035H166.187V129.535H166.685V130.035ZM169.177 130.035H168.679V129.535H169.177V130.035ZM171.669 130.035H171.171V129.535H171.669V130.035ZM174.161 130.035H173.662V129.535H174.161V130.035ZM176.653 130.035H176.154V129.535H176.653V130.035ZM179.144 130.035H178.646V129.535H179.144V130.035ZM181.636 130.035H181.138V129.535H181.636V130.035ZM184.128 130.035H183.63V129.535H184.128V130.035ZM186.62 130.035H186.121V129.535H186.62V130.035ZM189.111 130.035H188.613V129.535H189.111V130.035ZM191.603 130.035H191.105V129.535H191.603V130.035ZM194.095 130.035H193.597V129.535H194.095V130.035ZM196.587 130.035H196.089V129.535H196.587V130.035ZM199.079 130.035H198.58V129.535H199.079V130.035ZM201.57 130.035H201.072V129.535H201.57V130.035ZM204.062 130.035H203.564V129.535H204.062V130.035ZM206.554 130.035H206.056V129.535H206.554V130.035ZM209.046 130.035H208.547V129.535H209.046V130.035ZM211.538 130.035H211.039V129.535H211.538V130.035ZM214.029 130.035H213.531V129.535H214.029V130.035ZM216.521 130.035H216.023V129.535H216.521V130.035ZM219.013 130.035H218.515V129.535H219.013V130.035ZM221.505 130.035H221.006V129.535H221.505V130.035ZM223.997 130.035H223.498V129.535H223.997V130.035ZM226.488 130.035H225.99V129.535H226.488V130.035ZM228.98 130.035H228.482V129.535H228.98V130.035ZM231.472 130.035H230.974V129.535H231.472V130.035ZM233.964 130.035H233.465V129.535H233.964V130.035ZM236.456 130.035H235.957V129.535H236.456V130.035ZM238.947 130.035H238.449V129.535H238.947V130.035ZM241.439 130.035H240.941V129.535H241.439V130.035ZM243.931 130.035H243.433V129.535H243.931V130.035ZM246.423 130.035H245.924V129.535H246.423V130.035ZM248.914 130.035H248.416V129.535H248.914V130.035ZM251.406 130.035H250.908V129.535H251.406V130.035ZM253.898 130.035H253.4V129.535H253.898V130.035ZM256.39 130.035H255.891V129.535H256.39V130.035ZM258.882 130.035H258.383V129.535H258.882V130.035ZM261.373 130.035H260.875V129.535H261.373V130.035ZM263.865 130.035H263.367V129.535H263.865V130.035ZM266.357 130.035H265.859V129.535H266.357V130.035ZM268.849 130.035H268.35V129.535H268.849V130.035ZM271.341 130.035H270.842V129.535H271.341V130.035ZM273.832 130.035H273.334V129.535H273.832V130.035ZM276.324 130.035H275.826V129.535H276.324V130.035ZM278.816 130.035H278.318V129.535H278.816V130.035ZM281.308 130.035H280.809V129.535H281.308V130.035ZM283.8 130.035H283.301V129.535H283.8V130.035ZM286.291 130.035H285.793V129.535H286.291V130.035ZM288.783 130.035H288.285V129.535H288.783V130.035ZM291.275 130.035H290.777V129.535H291.275V130.035ZM293.767 130.035H293.268V129.535H293.767V130.035ZM296.258 130.035H295.76V129.535H296.258V130.035ZM298.75 130.035H298.252V129.535H298.75V130.035ZM301.242 130.035H300.744V129.535H301.242V130.035ZM303.734 130.035H303.236V129.535H303.734V130.035ZM306.226 130.035H305.727V129.535H306.226V130.035ZM308.717 130.035H308.219V129.535H308.717V130.035ZM311.209 130.035H310.711V129.535H311.209V130.035ZM313.701 130.035H313.203V129.535H313.701V130.035ZM316.193 130.035H315.694V129.535H316.193V130.035ZM318.685 130.035H318.186V129.535H318.685V130.035ZM321.176 130.035H320.678V129.535H321.176V130.035ZM323.668 130.035H323.17V129.535H323.668V130.035ZM326.16 130.035H325.662V129.535H326.16V130.035ZM328.652 130.035H328.153V129.535H328.652V130.035ZM331.144 130.035H330.645V129.535H331.144V130.035ZM333.635 130.035H333.137V129.535H333.635V130.035ZM336.127 130.035H335.629V129.535H336.127V130.035ZM338.619 130.035H338.121V129.535H338.619V130.035ZM341.111 130.035H340.612V129.535H341.111V130.035ZM343.603 130.035H343.104V129.535H343.603V130.035ZM346.094 130.035H345.596V129.535H346.094V130.035ZM348.586 130.035H348.088V129.535H348.586V130.035ZM350.829 130.035H350.58V129.535H350.829V130.035Z" fill="#5B6EB4"/>
<path fill-rule="evenodd" clip-rule="evenodd" d="M39.6037 155.035H39.3545V154.535H39.6037V155.035ZM42.0955 155.035H41.5971V154.535H42.0955V155.035ZM44.5873 155.035H44.0889V154.535H44.5873V155.035ZM47.0791 155.035H46.5807V154.535H47.0791V155.035ZM49.5709 155.035H49.0725V154.535H49.5709V155.035ZM52.0627 155.035H51.5643V154.535H52.0627V155.035ZM54.5545 155.035H54.0561V154.535H54.5545V155.035ZM57.0463 155.035H56.5479V154.535H57.0463V155.035ZM59.538 155.035H59.0397V154.535H59.538V155.035ZM62.0298 155.035H61.5315V154.535H62.0298V155.035ZM64.5216 155.035H64.0233V154.535H64.5216V155.035ZM67.0134 155.035H66.5151V154.535H67.0134V155.035ZM69.5052 155.035H69.0069V154.535H69.5052V155.035ZM71.997 155.035H71.4987V154.535H71.997V155.035ZM74.4888 155.035H73.9905V154.535H74.4888V155.035ZM76.9806 155.035H76.4823V154.535H76.9806V155.035ZM79.4724 155.035H78.9741V154.535H79.4724V155.035ZM81.9642 155.035H81.4659V154.535H81.9642V155.035ZM84.456 155.035H83.9577V154.535H84.456V155.035ZM86.9478 155.035H86.4495V154.535H86.9478V155.035ZM89.4396 155.035H88.9413V154.535H89.4396V155.035ZM91.9314 155.035H91.4331V154.535H91.9314V155.035ZM94.4232 155.035H93.9249V154.535H94.4232V155.035ZM96.915 155.035H96.4167V154.535H96.915V155.035ZM99.4068 155.035H98.9085V154.535H99.4068V155.035ZM101.899 155.035H101.4V154.535H101.899V155.035ZM104.39 155.035H103.892V154.535H104.39V155.035ZM106.882 155.035H106.384V154.535H106.882V155.035ZM109.374 155.035H108.876V154.535H109.374V155.035ZM111.866 155.035H111.367V154.535H111.866V155.035ZM114.358 155.035H113.859V154.535H114.358V155.035ZM116.849 155.035H116.351V154.535H116.849V155.035ZM119.341 155.035H118.843V154.535H119.341V155.035ZM121.833 155.035H121.335V154.535H121.833V155.035ZM124.325 155.035H123.826V154.535H124.325V155.035ZM126.817 155.035H126.318V154.535H126.817V155.035ZM129.308 155.035H128.81V154.535H129.308V155.035ZM131.8 155.035H131.302V154.535H131.8V155.035ZM134.292 155.035H133.794V154.535H134.292V155.035ZM136.784 155.035H136.285V154.535H136.784V155.035ZM139.276 155.035H138.777V154.535H139.276V155.035ZM141.767 155.035H141.269V154.535H141.767V155.035ZM144.259 155.035H143.761V154.535H144.259V155.035ZM146.751 155.035H146.253V154.535H146.751V155.035ZM149.243 155.035H148.744V154.535H149.243V155.035ZM151.735 155.035H151.236V154.535H151.735V155.035ZM154.226 155.035H153.728V154.535H154.226V155.035ZM156.718 155.035H156.22V154.535H156.718V155.035ZM159.21 155.035H158.712V154.535H159.21V155.035ZM161.702 155.035H161.203V154.535H161.702V155.035ZM164.194 155.035H163.695V154.535H164.194V155.035ZM166.685 155.035H166.187V154.535H166.685V155.035ZM169.177 155.035H168.679V154.535H169.177V155.035ZM171.669 155.035H171.171V154.535H171.669V155.035ZM174.161 155.035H173.662V154.535H174.161V155.035ZM176.653 155.035H176.154V154.535H176.653V155.035ZM179.144 155.035H178.646V154.535H179.144V155.035ZM181.636 155.035H181.138V154.535H181.636V155.035ZM184.128 155.035H183.63V154.535H184.128V155.035ZM186.62 155.035H186.121V154.535H186.62V155.035ZM189.111 155.035H188.613V154.535H189.111V155.035ZM191.603 155.035H191.105V154.535H191.603V155.035ZM194.095 155.035H193.597V154.535H194.095V155.035ZM196.587 155.035H196.089V154.535H196.587V155.035ZM199.079 155.035H198.58V154.535H199.079V155.035ZM201.57 155.035H201.072V154.535H201.57V155.035ZM204.062 155.035H203.564V154.535H204.062V155.035ZM206.554 155.035H206.056V154.535H206.554V155.035ZM209.046 155.035H208.547V154.535H209.046V155.035ZM211.538 155.035H211.039V154.535H211.538V155.035ZM214.029 155.035H213.531V154.535H214.029V155.035ZM216.521 155.035H216.023V154.535H216.521V155.035ZM219.013 155.035H218.515V154.535H219.013V155.035ZM221.505 155.035H221.006V154.535H221.505V155.035ZM223.997 155.035H223.498V154.535H223.997V155.035ZM226.488 155.035H225.99V154.535H226.488V155.035ZM228.98 155.035H228.482V154.535H228.98V155.035ZM231.472 155.035H230.974V154.535H231.472V155.035ZM233.964 155.035H233.465V154.535H233.964V155.035ZM236.456 155.035H235.957V154.535H236.456V155.035ZM238.947 155.035H238.449V154.535H238.947V155.035ZM241.439 155.035H240.941V154.535H241.439V155.035ZM243.931 155.035H243.433V154.535H243.931V155.035ZM246.423 155.035H245.924V154.535H246.423V155.035ZM248.914 155.035H248.416V154.535H248.914V155.035ZM251.406 155.035H250.908V154.535H251.406V155.035ZM253.898 155.035H253.4V154.535H253.898V155.035ZM256.39 155.035H255.891V154.535H256.39V155.035ZM258.882 155.035H258.383V154.535H258.882V155.035ZM261.373 155.035H260.875V154.535H261.373V155.035ZM263.865 155.035H263.367V154.535H263.865V155.035ZM266.357 155.035H265.859V154.535H266.357V155.035ZM268.849 155.035H268.35V154.535H268.849V155.035ZM271.341 155.035H270.842V154.535H271.341V155.035ZM273.832 155.035H273.334V154.535H273.832V155.035ZM276.324 155.035H275.826V154.535H276.324V155.035ZM278.816 155.035H278.318V154.535H278.816V155.035ZM281.308 155.035H280.809V154.535H281.308V155.035ZM283.8 155.035H283.301V154.535H283.8V155.035ZM286.291 155.035H285.793V154.535H286.291V155.035ZM288.783 155.035H288.285V154.535H288.783V155.035ZM291.275 155.035H290.777V154.535H291.275V155.035ZM293.767 155.035H293.268V154.535H293.767V155.035ZM296.258 155.035H295.76V154.535H296.258V155.035ZM298.75 155.035H298.252V154.535H298.75V155.035ZM301.242 155.035H300.744V154.535H301.242V155.035ZM303.734 155.035H303.236V154.535H303.734V155.035ZM306.226 155.035H305.727V154.535H306.226V155.035ZM308.717 155.035H308.219V154.535H308.717V155.035ZM311.209 155.035H310.711V154.535H311.209V155.035ZM313.701 155.035H313.203V154.535H313.701V155.035ZM316.193 155.035H315.694V154.535H316.193V155.035ZM318.685 155.035H318.186V154.535H318.685V155.035ZM321.176 155.035H320.678V154.535H321.176V155.035ZM323.668 155.035H323.17V154.535H323.668V155.035ZM326.16 155.035H325.662V154.535H326.16V155.035ZM328.652 155.035H328.153V154.535H328.652V155.035ZM331.144 155.035H330.645V154.535H331.144V155.035ZM333.635 155.035H333.137V154.535H333.635V155.035ZM336.127 155.035H335.629V154.535H336.127V155.035ZM338.619 155.035H338.121V154.535H338.619V155.035ZM341.111 155.035H340.612V154.535H341.111V155.035ZM343.603 155.035H343.104V154.535H343.603V155.035ZM346.094 155.035H345.596V154.535H346.094V155.035ZM348.586 155.035H348.088V154.535H348.586V155.035ZM350.829 155.035H350.58V154.535H350.829V155.035Z" fill="#5B6EB4"/>
<path fill-rule="evenodd" clip-rule="evenodd" d="M247.303 179.4L247.303 5L247.803 5L247.803 179.4L247.303 179.4Z" fill="#E2E6F6"/>
<path fill-rule="evenodd" clip-rule="evenodd" d="M281.961 179.4L281.961 5L282.461 5L282.461 179.4L281.961 179.4Z" fill="#E2E6F6"/>
<path fill-rule="evenodd" clip-rule="evenodd" d="M350.829 179.4L350.829 5L351.329 5L351.329 179.4L350.829 179.4Z" fill="#E2E6F6"/>
<path fill-rule="evenodd" clip-rule="evenodd" d="M316.618 179.4L316.618 5L317.118 5L317.118 179.4L316.618 179.4Z" fill="#E2E6F6"/>
<path fill-rule="evenodd" clip-rule="evenodd" d="M212.645 179.4L212.645 5L213.145 5L213.145 179.4L212.645 179.4Z" fill="#E2E6F6"/>
<path fill-rule="evenodd" clip-rule="evenodd" d="M177.986 179.4L177.986 5L178.486 5L178.486 179.4L177.986 179.4Z" fill="#E2E6F6"/>
<path fill-rule="evenodd" clip-rule="evenodd" d="M143.329 179.4L143.329 5L143.829 5L143.829 179.4L143.329 179.4Z" fill="#E2E6F6"/>
<path fill-rule="evenodd" clip-rule="evenodd" d="M108.671 179.4L108.671 5L109.171 5L109.171 179.4L108.671 179.4Z" fill="#E2E6F6"/>
<path fill-rule="evenodd" clip-rule="evenodd" d="M74.0127 179.4L74.0127 5L74.5127 5L74.5127 179.4L74.0127 179.4Z" fill="#E2E6F6"/>
<path d="M12.23 -4.42075e-08C12.7823 -1.97924e-08 13.23 0.447715 13.23 1L13.23 191.034C13.23 191.586 12.7823 192.034 12.23 192.034L0.999972 192.034C0.447687 192.034 -2.7354e-05 191.586 -2.73301e-05 191.034L-1.91167e-05 1C-1.90928e-05 0.447717 0.447696 -5.65073e-07 0.999981 -5.40658e-07L12.23 -4.42075e-08Z" fill="#F3F6FF"/>
<path d="M8.11182 81.785H7.4624V87.9032H8.11182V84.7655H9.06201V84.2255H8.11182V81.785ZM3.34717 86.2694L3.70947 86.7753C5.72607 85.7806 6.50537 84.1981 6.51221 82.4276H3.65479V82.9676H5.84912C5.71582 84.3964 4.88184 85.5038 3.34717 86.2694Z" fill="#113287"/>
<path d="M8.41943 92.785H7.77002V96.0731H8.41943V92.785ZM3.46338 94.4872C3.4668 95.3246 4.15723 95.909 5.09717 95.9022C6.03369 95.909 6.72412 95.3246 6.72412 94.4872C6.72412 93.6464 6.03369 93.0619 5.09717 93.0653C4.15723 93.0619 3.4668 93.6464 3.46338 94.4872ZM4.09912 94.4872C4.0957 93.9642 4.51611 93.6088 5.09717 93.6122C5.67139 93.6088 6.08838 93.9642 6.08838 94.4872C6.08838 95.017 5.67139 95.369 5.09717 95.369C4.51611 95.369 4.0957 95.017 4.09912 94.4872ZM4.41357 98.8348H8.41943V96.3671H7.77686V97.0575H5.04932V96.3671H4.41357V98.8348ZM5.04932 98.3016V97.5702H7.77686V98.3016H5.04932Z" fill="#113287"/>
<path d="M8.30322 106.608H4.68701V104.783H8.24854V104.257H4.0376V107.128H5.80811V108.625H3.34033V109.158H8.9458V108.625H6.45068V107.128H8.30322V106.608Z" fill="#113287"/>
<path d="M23.6084 29.8506C24.5256 29.8506 25.2112 29.292 25.208 28.5366C25.2112 27.9526 24.8494 27.5242 24.2495 27.4321V27.4004C24.7319 27.2639 25.0366 26.8831 25.0303 26.3594C25.0366 25.7024 24.5034 25.1279 23.6274 25.1279C22.8118 25.1279 22.1326 25.6167 22.104 26.3467H22.6562C22.6816 25.896 23.1292 25.6262 23.6211 25.623C24.1448 25.6262 24.4812 25.9309 24.478 26.3911C24.4812 26.864 24.0908 27.1782 23.5322 27.1782H23.1577V27.6797H23.5322C24.2463 27.6829 24.6462 28.0352 24.6494 28.5366C24.6462 29.0159 24.2083 29.3428 23.6021 29.3428C23.053 29.3428 22.6182 29.0698 22.5864 28.6318H22.0088C22.0374 29.3618 22.6943 29.8506 23.6084 29.8506Z" fill="#113287"/>
<path d="M26.2808 29.8252C26.5061 29.822 26.6902 29.6379 26.687 29.4126C26.6902 29.1904 26.5061 29.0063 26.2808 29.0063C26.0586 29.0063 25.8682 29.1904 25.8745 29.4126C25.8682 29.6379 26.0586 29.822 26.2808 29.8252Z" fill="#113287"/>
<path d="M28.877 29.8506C29.8958 29.8506 30.4829 28.9937 30.4829 27.4893C30.4829 25.9976 29.8862 25.1279 28.877 25.1279C27.8645 25.1279 27.2678 25.9976 27.271 27.4893C27.2678 28.9937 27.8582 29.8506 28.877 29.8506ZM27.8232 27.4893C27.8264 26.2991 28.2168 25.6262 28.877 25.623C29.5371 25.6262 29.9275 26.2991 29.9243 27.4893C29.9275 28.6794 29.5403 29.3428 28.877 29.3428C28.2104 29.3428 27.8264 28.6794 27.8232 27.4893Z" fill="#113287"/>
<path d="M23.6084 5.06348C24.5256 5.06348 25.2112 4.50488 25.208 3.74951C25.2112 3.16553 24.8494 2.73706 24.2495 2.64502V2.61328C24.7319 2.47681 25.0366 2.09595 25.0303 1.57227C25.0366 0.915283 24.5034 0.34082 23.6274 0.34082C22.8118 0.34082 22.1326 0.82959 22.104 1.55957H22.6562C22.6816 1.10889 23.1292 0.839111 23.6211 0.835938C24.1448 0.839111 24.4812 1.1438 24.478 1.604C24.4812 2.0769 24.0908 2.39111 23.5322 2.39111H23.1577V2.89258H23.5322C24.2463 2.89575 24.6462 3.24805 24.6494 3.74951C24.6462 4.22876 24.2083 4.55566 23.6021 4.55566C23.053 4.55566 22.6182 4.28271 22.5864 3.84473H22.0088C22.0374 4.57471 22.6943 5.06348 23.6084 5.06348Z" fill="#113287"/>
<path d="M26.2808 5.03809C26.5061 5.03491 26.6902 4.85083 26.687 4.62549C26.6902 4.40332 26.5061 4.21924 26.2808 4.21924C26.0586 4.21924 25.8682 4.40332 25.8745 4.62549C25.8682 4.85083 26.0586 5.03491 26.2808 5.03809Z" fill="#113287"/>
<path d="M28.9468 5.06348C29.864 5.06348 30.5305 4.42236 30.5337 3.53369C30.5305 2.63867 29.8862 1.99121 29.0103 1.99121C28.6865 1.99121 28.3787 2.09912 28.1724 2.25781H28.1279L28.2993 0.912109H30.3115V0.404297H27.8232L27.4995 2.91797H28.0518C28.22 2.61963 28.5215 2.49902 28.9087 2.50537C29.5276 2.50854 29.9751 2.94971 29.9751 3.54639C29.9751 4.12402 29.5435 4.55884 28.9468 4.56201C28.4485 4.55884 28.0486 4.25415 28.0073 3.84473H27.4551C27.49 4.55249 28.1184 5.06348 28.9468 5.06348Z" fill="#113287"/>
<path d="M22.0215 54.707H25.0049V54.1992H22.8149V54.1611L23.8687 53.0757C24.6812 52.2378 24.9192 51.8379 24.9224 51.3237C24.9192 50.6096 24.3289 50.0479 23.4941 50.0479C22.6626 50.0479 22.0342 50.5938 22.0405 51.4062H22.5801C22.5833 50.8921 22.926 50.5461 23.4751 50.543C23.9924 50.5461 24.386 50.8508 24.3892 51.3237C24.386 51.749 24.1257 52.0601 23.583 52.6377L22.0151 54.2881L22.0215 54.707Z" fill="#113287"/>
<path d="M26.23 54.7451C26.4553 54.7419 26.6394 54.5579 26.6362 54.3325C26.6394 54.1104 26.4553 53.9263 26.23 53.9263C26.0078 53.9263 25.8174 54.1104 25.8237 54.3325C25.8174 54.5579 26.0078 54.7419 26.23 54.7451Z" fill="#113287"/>
<path d="M28.896 54.7705C29.8132 54.7705 30.4797 54.1294 30.4829 53.2407C30.4797 52.3457 29.8354 51.6982 28.9595 51.6982C28.6357 51.6982 28.3279 51.8062 28.1216 51.9648H28.0771L28.2485 50.6191H30.2607V50.1113H27.7725L27.4487 52.625H28.001C28.1692 52.3267 28.4707 52.2061 28.8579 52.2124C29.4768 52.2156 29.9243 52.6567 29.9243 53.2534C29.9243 53.8311 29.4927 54.2659 28.896 54.269C28.3977 54.2659 27.9978 53.9612 27.9565 53.5518H27.4043C27.4392 54.2595 28.0676 54.7705 28.896 54.7705Z" fill="#113287"/>
<path d="M22.0215 79.7656H25.0049V79.2578H22.8149V79.2197L23.8687 78.1343C24.6812 77.2964 24.9192 76.8965 24.9224 76.3823C24.9192 75.6682 24.3289 75.1064 23.4941 75.1064C22.6626 75.1064 22.0342 75.6523 22.0405 76.4648H22.5801C22.5833 75.9507 22.926 75.6047 23.4751 75.6016C23.9924 75.6047 24.386 75.9094 24.3892 76.3823C24.386 76.8076 24.1257 77.1187 23.583 77.6963L22.0151 79.3467L22.0215 79.7656Z" fill="#113287"/>
<path d="M26.23 79.8037C26.4553 79.8005 26.6394 79.6165 26.6362 79.3911C26.6394 79.1689 26.4553 78.9849 26.23 78.9849C26.0078 78.9849 25.8174 79.1689 25.8237 79.3911C25.8174 79.6165 26.0078 79.8005 26.23 79.8037Z" fill="#113287"/>
<path d="M28.8262 79.8291C29.845 79.8291 30.4321 78.9722 30.4321 77.4678C30.4321 75.9761 29.8354 75.1064 28.8262 75.1064C27.8137 75.1064 27.217 75.9761 27.2202 77.4678C27.217 78.9722 27.8074 79.8291 28.8262 79.8291ZM27.7725 77.4678C27.7756 76.2776 28.166 75.6047 28.8262 75.6016C29.4863 75.6047 29.8767 76.2776 29.8735 77.4678C29.8767 78.658 29.4895 79.3213 28.8262 79.3213C28.1597 79.3213 27.7756 78.658 27.7725 77.4678Z" fill="#113287"/>
<path d="M23.6465 100.194H23.0688L21.9263 100.956V101.534L23.0435 100.791H23.0688V104.79H23.6465V100.194Z" fill="#113287"/>
<path d="M24.9922 104.828C25.2175 104.825 25.4016 104.641 25.3984 104.416C25.4016 104.193 25.2175 104.009 24.9922 104.009C24.77 104.009 24.5796 104.193 24.5859 104.416C24.5796 104.641 24.77 104.825 24.9922 104.828Z" fill="#113287"/>
<path d="M27.6582 104.854C28.5754 104.854 29.2419 104.212 29.2451 103.324C29.2419 102.429 28.5977 101.781 27.7217 101.781C27.3979 101.781 27.0901 101.889 26.8838 102.048H26.8394L27.0107 100.702H29.0229V100.194H26.5347L26.2109 102.708H26.7632C26.9314 102.41 27.2329 102.289 27.6201 102.295C28.239 102.299 28.6865 102.74 28.6865 103.336C28.6865 103.914 28.2549 104.349 27.6582 104.352C27.1599 104.349 26.76 104.044 26.7188 103.635H26.1665C26.2014 104.343 26.8298 104.854 27.6582 104.854Z" fill="#113287"/>
<path d="M23.6465 125.155H23.0688L21.9263 125.917V126.495L23.0435 125.752H23.0688V129.751H23.6465V125.155Z" fill="#113287"/>
<path d="M24.9922 129.789C25.2175 129.786 25.4016 129.602 25.3984 129.376C25.4016 129.154 25.2175 128.97 24.9922 128.97C24.77 128.97 24.5796 129.154 24.5859 129.376C24.5796 129.602 24.77 129.786 24.9922 129.789Z" fill="#113287"/>
<path d="M27.5884 129.814C28.6072 129.814 29.1943 128.958 29.1943 127.453C29.1943 125.961 28.5977 125.092 27.5884 125.092C26.5759 125.092 25.9792 125.961 25.9824 127.453C25.9792 128.958 26.5696 129.814 27.5884 129.814ZM26.5347 127.453C26.5378 126.263 26.9282 125.59 27.5884 125.587C28.2485 125.59 28.6389 126.263 28.6357 127.453C28.6389 128.643 28.2517 129.307 27.5884 129.307C26.9219 129.307 26.5378 128.643 26.5347 127.453Z" fill="#113287"/>
<path d="M23.5259 154.891C24.5447 154.891 25.1318 154.034 25.1318 152.529C25.1318 151.038 24.5352 150.168 23.5259 150.168C22.5134 150.168 21.9168 151.038 21.9199 152.529C21.9168 154.034 22.5071 154.891 23.5259 154.891ZM22.4722 152.529C22.4754 151.339 22.8657 150.666 23.5259 150.663C24.186 150.666 24.5764 151.339 24.5733 152.529C24.5764 153.719 24.1892 154.383 23.5259 154.383C22.8594 154.383 22.4754 153.719 22.4722 152.529Z" fill="#113287"/>
<path d="M26.1221 154.865C26.3474 154.862 26.5315 154.678 26.5283 154.453C26.5315 154.23 26.3474 154.046 26.1221 154.046C25.8999 154.046 25.7095 154.23 25.7158 154.453C25.7095 154.678 25.8999 154.862 26.1221 154.865Z" fill="#113287"/>
<path d="M28.7881 154.891C29.7053 154.891 30.3718 154.25 30.375 153.361C30.3718 152.466 29.7276 151.818 28.8516 151.818C28.5278 151.818 28.22 151.926 28.0137 152.085H27.9693L28.1406 150.739H30.1528V150.231H27.6646L27.3408 152.745H27.8931C28.0613 152.447 28.3628 152.326 28.75 152.333C29.3689 152.336 29.8164 152.777 29.8164 153.374C29.8164 153.951 29.3848 154.386 28.7881 154.389C28.2898 154.386 27.8899 154.081 27.8486 153.672H27.2964C27.3313 154.38 27.9597 154.891 28.7881 154.891Z" fill="#113287"/>
<path d="M23.5259 179.464C24.5447 179.464 25.1318 178.607 25.1318 177.103C25.1318 175.611 24.5352 174.741 23.5259 174.741C22.5134 174.741 21.9168 175.611 21.9199 177.103C21.9168 178.607 22.5071 179.464 23.5259 179.464ZM22.4722 177.103C22.4754 175.912 22.8657 175.24 23.5259 175.236C24.186 175.24 24.5764 175.912 24.5733 177.103C24.5764 178.293 24.1892 178.956 23.5259 178.956C22.8594 178.956 22.4754 178.293 22.4722 177.103Z" fill="#113287"/>
<path d="M26.1221 179.438C26.3474 179.435 26.5315 179.251 26.5283 179.026C26.5315 178.804 26.3474 178.62 26.1221 178.62C25.8999 178.62 25.7095 178.804 25.7158 179.026C25.7095 179.251 25.8999 179.435 26.1221 179.438Z" fill="#113287"/>
<path d="M28.7183 179.464C29.7371 179.464 30.3242 178.607 30.3242 177.103C30.3242 175.611 29.7276 174.741 28.7183 174.741C27.7058 174.741 27.1091 175.611 27.1123 177.103C27.1091 178.607 27.6995 179.464 28.7183 179.464ZM27.6646 177.103C27.6677 175.912 28.0581 175.24 28.7183 175.236C29.3784 175.24 29.7688 175.912 29.7656 177.103C29.7688 178.293 29.3816 178.956 28.7183 178.956C28.0518 178.956 27.6677 178.293 27.6646 177.103Z" fill="#113287"/>
<path d="M37.5645 192.098C38.4817 192.098 39.1672 191.539 39.1641 190.784C39.1672 190.2 38.8054 189.771 38.2056 189.679V189.647C38.688 189.511 38.9927 189.13 38.9863 188.606C38.9927 187.949 38.4595 187.375 37.5835 187.375C36.7678 187.375 36.0886 187.864 36.0601 188.594H36.6123C36.6377 188.143 37.0852 187.873 37.5771 187.87C38.1008 187.873 38.4373 188.178 38.4341 188.638C38.4373 189.111 38.0469 189.425 37.4883 189.425H37.1138V189.927H37.4883C38.2024 189.93 38.6023 190.282 38.6055 190.784C38.6023 191.263 38.1643 191.59 37.5581 191.59C37.009 191.59 36.5742 191.317 36.5425 190.879H35.9648C35.9934 191.609 36.6504 192.098 37.5645 192.098Z" fill="#113287"/>
<path d="M41.4873 192.098C42.4045 192.098 43.071 191.457 43.0742 190.568C43.071 189.673 42.4268 189.025 41.5508 189.025C41.2271 189.025 40.9192 189.133 40.7129 189.292H40.6685L40.8398 187.946H42.8521V187.438H40.3638L40.04 189.952H40.5923C40.7605 189.654 41.062 189.533 41.4492 189.54C42.0681 189.543 42.5156 189.984 42.5156 190.581C42.5156 191.158 42.084 191.593 41.4873 191.596C40.989 191.593 40.5891 191.288 40.5479 190.879H39.9956C40.0305 191.587 40.6589 192.098 41.4873 192.098Z" fill="#113287"/>
<path d="M70.5215 191.095H72.7495V192.034H73.2954V191.095H73.9365V190.593H73.2954V187.438H72.5908L70.5215 190.625V191.095ZM71.1372 190.593V190.555L72.6924 188.162H72.7495V190.593H71.1372Z" fill="#113287"/>
<path d="M76.1963 192.098C77.2151 192.098 77.8022 191.241 77.8022 189.736C77.8022 188.245 77.2056 187.375 76.1963 187.375C75.1838 187.375 74.5872 188.245 74.5903 189.736C74.5872 191.241 75.1775 192.098 76.1963 192.098ZM75.1426 189.736C75.1458 188.546 75.5361 187.873 76.1963 187.87C76.8564 187.873 77.2468 188.546 77.2437 189.736C77.2468 190.927 76.8596 191.59 76.1963 191.59C75.5298 191.59 75.1458 190.927 75.1426 189.736Z" fill="#113287"/>
<path d="M105.179 191.095H107.407V192.034H107.953V191.095H108.594V190.593H107.953V187.438H107.248L105.179 190.625V191.095ZM105.794 190.593V190.555L107.35 188.162H107.407V190.593H105.794Z" fill="#113287"/>
<path d="M110.847 192.098C111.764 192.098 112.431 191.457 112.434 190.568C112.431 189.673 111.787 189.025 110.911 189.025C110.587 189.025 110.279 189.133 110.073 189.292H110.028L110.2 187.946H112.212V187.438H109.724L109.4 189.952H109.952C110.12 189.654 110.422 189.533 110.809 189.54C111.428 189.543 111.875 189.984 111.875 190.581C111.875 191.158 111.444 191.593 110.847 191.596C110.349 191.593 109.949 191.288 109.908 190.879H109.355C109.39 191.587 110.019 192.098 110.847 192.098Z" fill="#113287"/>
<path d="M141.45 192.098C142.367 192.098 143.034 191.457 143.037 190.568C143.034 189.673 142.39 189.025 141.514 189.025C141.19 189.025 140.882 189.133 140.676 189.292H140.631L140.803 187.946H142.815V187.438H140.327L140.003 189.952H140.555C140.723 189.654 141.025 189.533 141.412 189.54C142.031 189.543 142.479 189.984 142.479 190.581C142.479 191.158 142.047 191.593 141.45 191.596C140.952 191.593 140.552 191.288 140.511 190.879H139.958C139.993 191.587 140.622 192.098 141.45 192.098Z" fill="#113287"/>
<path d="M145.335 192.098C146.354 192.098 146.941 191.241 146.941 189.736C146.941 188.245 146.344 187.375 145.335 187.375C144.323 187.375 143.726 188.245 143.729 189.736C143.726 191.241 144.316 192.098 145.335 192.098ZM144.281 189.736C144.284 188.546 144.675 187.873 145.335 187.87C145.995 187.873 146.385 188.546 146.382 189.736C146.385 190.927 145.998 191.59 145.335 191.59C144.668 191.59 144.284 190.927 144.281 189.736Z" fill="#113287"/>
<path d="M176.107 192.098C177.025 192.098 177.691 191.457 177.694 190.568C177.691 189.673 177.047 189.025 176.171 189.025C175.847 189.025 175.539 189.133 175.333 189.292H175.289L175.46 187.946H177.472V187.438H174.984L174.66 189.952H175.212C175.381 189.654 175.682 189.533 176.069 189.54C176.688 189.543 177.136 189.984 177.136 190.581C177.136 191.158 176.704 191.593 176.107 191.596C175.609 191.593 175.209 191.288 175.168 190.879H174.616C174.651 191.587 175.279 192.098 176.107 192.098Z" fill="#113287"/>
<path d="M179.986 192.098C180.903 192.098 181.57 191.457 181.573 190.568C181.57 189.673 180.925 189.025 180.049 189.025C179.726 189.025 179.418 189.133 179.211 189.292H179.167L179.338 187.946H181.351V187.438H178.862L178.539 189.952H179.091C179.259 189.654 179.561 189.533 179.948 189.54C180.567 189.543 181.014 189.984 181.014 190.581C181.014 191.158 180.583 191.593 179.986 191.596C179.488 191.593 179.088 191.288 179.046 190.879H178.494C178.529 191.587 179.157 192.098 179.986 192.098Z" fill="#113287"/>
<path d="M210.867 192.098C211.835 192.107 212.467 191.415 212.467 190.549C212.467 189.66 211.784 189.025 210.969 189.025C210.474 189.025 210.052 189.251 209.788 189.635H209.731C209.728 188.527 210.182 187.883 210.937 187.883C211.448 187.883 211.759 188.188 211.864 188.594H212.429C212.311 187.873 211.746 187.375 210.937 187.375C209.858 187.375 209.191 188.286 209.191 189.914C209.191 191.615 210.071 192.088 210.867 192.098ZM209.807 190.562C209.813 190.019 210.277 189.53 210.88 189.527C211.48 189.53 211.911 189.99 211.915 190.555C211.911 191.126 211.461 191.593 210.867 191.596C210.251 191.593 209.81 191.101 209.807 190.562Z" fill="#113287"/>
<path d="M214.758 192.098C215.777 192.098 216.364 191.241 216.364 189.736C216.364 188.245 215.768 187.375 214.758 187.375C213.746 187.375 213.149 188.245 213.152 189.736C213.149 191.241 213.74 192.098 214.758 192.098ZM213.705 189.736C213.708 188.546 214.098 187.873 214.758 187.87C215.418 187.873 215.809 188.546 215.806 189.736C215.809 190.927 215.422 191.59 214.758 191.59C214.092 191.59 213.708 190.927 213.705 189.736Z" fill="#113287"/>
<path d="M245.524 192.098C246.492 192.107 247.124 191.415 247.124 190.549C247.124 189.66 246.442 189.025 245.626 189.025C245.131 189.025 244.709 189.251 244.445 189.635H244.388C244.385 188.527 244.839 187.883 245.594 187.883C246.105 187.883 246.416 188.188 246.521 188.594H247.086C246.969 187.873 246.404 187.375 245.594 187.375C244.515 187.375 243.849 188.286 243.849 189.914C243.849 191.615 244.728 192.088 245.524 192.098ZM244.464 190.562C244.471 190.019 244.934 189.53 245.537 189.527C246.137 189.53 246.569 189.99 246.572 190.555C246.569 191.126 246.118 191.593 245.524 191.596C244.909 191.593 244.468 191.101 244.464 190.562Z" fill="#113287"/>
<path d="M249.409 192.098C250.326 192.098 250.993 191.457 250.996 190.568C250.993 189.673 250.349 189.025 249.473 189.025C249.149 189.025 248.841 189.133 248.635 189.292H248.59L248.762 187.946H250.774V187.438H248.286L247.962 189.952H248.514C248.682 189.654 248.984 189.533 249.371 189.54C249.99 189.543 250.438 189.984 250.438 190.581C250.438 191.158 250.006 191.593 249.409 191.596C248.911 191.593 248.511 191.288 248.47 190.879H247.917C247.952 191.587 248.581 192.098 249.409 192.098Z" fill="#113287"/>
<path d="M278.73 192.034H279.327L281.428 187.972V187.438H278.406V187.946H280.837V187.978L278.73 192.034Z" fill="#113287"/>
<path d="M283.573 192.098C284.592 192.098 285.179 191.241 285.179 189.736C285.179 188.245 284.583 187.375 283.573 187.375C282.561 187.375 281.964 188.245 281.967 189.736C281.964 191.241 282.554 192.098 283.573 192.098ZM282.52 189.736C282.523 188.546 282.913 187.873 283.573 187.87C284.233 187.873 284.624 188.546 284.621 189.736C284.624 190.927 284.237 191.59 283.573 191.59C282.907 191.59 282.523 190.927 282.52 189.736Z" fill="#113287"/>
<path d="M313.387 192.034H313.984L316.085 187.972V187.438H313.063V187.946H315.495V187.978L313.387 192.034Z" fill="#113287"/>
<path d="M318.262 192.098C319.179 192.098 319.846 191.457 319.849 190.568C319.846 189.673 319.202 189.025 318.326 189.025C318.002 189.025 317.694 189.133 317.488 189.292H317.443L317.615 187.946H319.627V187.438H317.139L316.815 189.952H317.367C317.535 189.654 317.837 189.533 318.224 189.54C318.843 189.543 319.291 189.984 319.291 190.581C319.291 191.158 318.859 191.593 318.262 191.596C317.764 191.593 317.364 191.288 317.323 190.879H316.771C316.805 191.587 317.434 192.098 318.262 192.098Z" fill="#113287"/>
<path d="M348.797 192.098C349.755 192.098 350.428 191.561 350.435 190.815C350.428 190.222 350.016 189.73 349.495 189.647V189.622C349.946 189.517 350.251 189.095 350.257 188.594C350.251 187.892 349.635 187.375 348.797 187.375C347.956 187.375 347.34 187.892 347.343 188.594C347.34 189.095 347.642 189.517 348.099 189.622V189.647C347.575 189.73 347.162 190.222 347.166 190.815C347.162 191.561 347.829 192.098 348.797 192.098ZM347.737 190.784C347.727 190.276 348.181 189.901 348.797 189.901C349.416 189.901 349.863 190.276 349.863 190.784C349.863 191.266 349.454 191.593 348.797 191.596C348.137 191.593 347.727 191.266 347.737 190.784ZM347.896 188.638C347.899 188.178 348.251 187.867 348.797 187.87C349.333 187.867 349.698 188.178 349.698 188.638C349.698 189.102 349.321 189.416 348.797 189.419C348.27 189.416 347.899 189.102 347.896 188.638Z" fill="#113287"/>
<path d="M352.707 192.098C353.726 192.098 354.313 191.241 354.313 189.736C354.313 188.245 353.716 187.375 352.707 187.375C351.695 187.375 351.098 188.245 351.101 189.736C351.098 191.241 351.688 192.098 352.707 192.098ZM351.653 189.736C351.657 188.546 352.047 187.873 352.707 187.87C353.367 187.873 353.758 188.546 353.754 189.736C353.758 190.927 353.37 191.59 352.707 191.59C352.041 191.59 351.657 190.927 351.653 189.736Z" fill="#113287"/>
<path d="M0 203.777C0 203.225 0.447715 202.777 1 202.777H351.013C351.565 202.777 352.013 203.225 352.013 203.777V215.007C352.013 215.56 351.565 216.007 351.013 216.007H1C0.447719 216.007 0 215.56 0 215.007V203.777Z" fill="#F3F6FF"/>
<path d="M173.449 206.478H172.8V207.4H171.272C170.985 207.059 170.544 206.85 170.038 206.847C169.115 206.854 168.428 207.5 168.432 208.405C168.428 209.304 169.115 209.95 170.038 209.95C170.547 209.95 170.992 209.742 171.279 209.396H172.8V210.989H173.449V206.478ZM169.054 208.405C169.05 207.828 169.464 207.431 170.038 207.428C170.588 207.431 171.009 207.828 171.009 208.405C171.009 208.983 170.588 209.379 170.038 209.376C169.464 209.379 169.05 208.983 169.054 208.405ZM169.471 212.466H173.613V211.939H170.12V210.518H169.471V212.466ZM171.559 207.927H172.8V208.87H171.563C171.607 208.727 171.631 208.569 171.631 208.405C171.631 208.234 171.607 208.077 171.559 207.927Z" fill="#113287"/>
<path d="M180.73 206.812H178.057V207.339H180.087V208.084H178.063V209.943H178.508C179.728 209.95 180.357 209.923 181.105 209.793L181.044 209.267C180.354 209.39 179.772 209.414 178.706 209.417V208.583H180.73V206.812ZM178.795 211.488C178.792 212.213 179.578 212.626 180.873 212.623C182.158 212.626 182.941 212.213 182.944 211.488C182.941 210.767 182.158 210.343 180.873 210.347C179.578 210.343 178.792 210.767 178.795 211.488ZM179.451 211.488C179.444 211.075 179.967 210.849 180.873 210.853C181.765 210.849 182.302 211.075 182.302 211.488C182.302 211.898 181.765 212.121 180.873 212.117C179.967 212.121 179.444 211.898 179.451 211.488ZM181.126 209.171H182.268V210.237H182.917V206.478H182.268V207.387H181.126V207.92H182.268V208.638H181.126V209.171Z" fill="#113287"/>
<path fill-rule="evenodd" clip-rule="evenodd" d="M351.574 5.79088L282.501 30.1501L262.74 43.6033L234.073 54.9539L234.063 54.958L200.147 67.8012L172.945 79.7104L151.416 91.8837L123.366 118.495L102.134 131.113L39.7849 155.8L39.2327 154.406L101.47 129.762L122.456 117.292L150.517 90.6686L172.273 78.367L199.58 66.4119L233.521 53.5593L233.531 53.5552L262.034 42.2699L281.818 28.8004L351.075 4.37627L351.574 5.79088Z" fill="#5B6EB4"/>
<path fill-rule="evenodd" clip-rule="evenodd" d="M39.1923 4.64645C39.3876 4.45118 39.7042 4.45118 39.8994 4.64645L43.0814 7.82843C43.2767 8.02369 43.2767 8.34027 43.0814 8.53553C42.8861 8.7308 42.5696 8.7308 42.3743 8.53553L40.0459 6.20711V178.901H350.806L348.477 176.572C348.282 176.377 348.282 176.06 348.477 175.865C348.672 175.67 348.989 175.67 349.184 175.865L352.366 179.047C352.562 179.242 352.562 179.559 352.366 179.754L349.184 182.936C348.989 183.132 348.672 183.132 348.477 182.936C348.282 182.741 348.282 182.424 348.477 182.229L350.806 179.901H39.0459V6.20711L36.7174 8.53553C36.5222 8.7308 36.2056 8.7308 36.0103 8.53553C35.8151 8.34027 35.8151 8.02369 36.0103 7.82843L39.1923 4.64645Z" fill="#5B6EB4"/>
</svg>
