<svg width="357" height="30" viewBox="0 0 357 30" fill="none" xmlns="http://www.w3.org/2000/svg">
<rect width="357" height="30" rx="4" fill="#F3F6FF"/>
<path d="M50.7305 9.69727H49.4297V11.2324H46.8984C46.3945 10.6699 45.6445 10.3359 44.8008 10.3301C43.2012 10.3359 42 11.4668 42 13.0488C42 14.6133 43.2012 15.75 44.8008 15.7559C45.6504 15.75 46.4004 15.4102 46.9043 14.8418H49.4297V17.4668H50.7305V9.69727ZM43.2422 13.0488C43.2422 12.0996 43.8926 11.4902 44.8008 11.4902C45.668 11.4902 46.3301 12.0996 46.3359 13.0488C46.3301 13.9922 45.668 14.5957 44.8008 14.5957C43.8926 14.5957 43.2422 13.9922 43.2422 13.0488ZM43.7812 20.0684H51V19.0137H45.082V16.6699H43.7812V20.0684ZM47.4727 12.2871H49.4297V13.7871H47.4785C47.543 13.5527 47.5781 13.3066 47.5781 13.0488C47.5781 12.7793 47.5371 12.5273 47.4727 12.2871Z" fill="#113287"/>
<path d="M56.813 10.2598H52.1606V11.3145H55.5122V12.4395H52.1841V15.7441H52.9575C55.0376 15.75 56.1333 15.709 57.3989 15.4863L57.27 14.4316C56.145 14.6309 55.1782 14.6777 53.4731 14.6895V13.4355H56.813V10.2598ZM53.438 18.334C53.4263 19.5996 54.8032 20.3203 57.0591 20.3145C59.3032 20.3203 60.6684 19.5996 60.6684 18.334C60.6684 17.0801 59.3032 16.3418 57.0591 16.3418C54.8032 16.3418 53.4263 17.0801 53.438 18.334ZM54.7505 18.334C54.7446 17.6836 55.5649 17.3438 57.0591 17.3496C58.5356 17.3438 59.3794 17.6836 59.3794 18.334C59.3794 18.9844 58.5356 19.3125 57.0591 19.3184C55.5649 19.3125 54.7446 18.9844 54.7505 18.334ZM57.4692 14.4199H59.3208V16.166H60.6216V9.69727H59.3208V11.1973H57.4692V12.252H59.3208V13.3652H57.4692V14.4199Z" fill="#113287"/>
<path d="M70.5127 9.68555H69.2119V11.0918H67.0791V10.1543H65.79V11.4902H63.4228V10.1543H62.122V14.8184H67.0791V14.0098H69.2119V15.1582H70.5127V9.68555ZM63.4228 13.7871V12.4863H65.79V13.7871H63.4228ZM63.5283 16.6113H69.2119V17.3496H63.54V20.1504H70.8525V19.1191H64.8408V18.3105H70.5127V15.5918H63.5283V16.6113ZM67.0791 13.0137V12.0762H69.2119V13.0137H67.0791Z" fill="#113287"/>
<path d="M79.8183 10.4238H74.1816V11.4785H75.1073V14.625C74.6855 14.6309 74.2812 14.6309 73.912 14.6309L74.0527 15.709C75.7402 15.7031 78.078 15.668 80.0995 15.334L80.0468 14.4668H81.4706V16.1777H82.7714V9.68555H81.4706V11.4668H80.0175V12.5098H81.4706V13.4238H80.0175V14.373C79.6542 14.4199 79.2675 14.4551 78.8808 14.4844V11.4785H79.8183V10.4238ZM75.5878 18.3223C75.5761 19.541 76.9413 20.2676 79.1855 20.2676C81.4472 20.2676 82.8007 19.541 82.8066 18.3223C82.8007 17.0742 81.4472 16.3652 79.1855 16.3652C76.9413 16.3652 75.5761 17.0742 75.5878 18.3223ZM76.373 14.6074V11.4785H77.6269V14.5605C77.205 14.5781 76.7831 14.5957 76.373 14.6074ZM76.8769 18.3223C76.871 17.6953 77.703 17.3613 79.1855 17.3613C80.6738 17.3613 81.5058 17.6953 81.5058 18.3223C81.5058 18.9375 80.6738 19.2598 79.1855 19.2598C77.703 19.2598 76.871 18.9375 76.8769 18.3223Z" fill="#113287"/>
<path d="M92.2875 10.2246H84.975V11.2441H90.9867C90.9867 12.0586 90.975 12.9551 90.7523 14.1387H83.7914V15.1934H87.0023V17.584H88.2797V15.1934H89.6859V17.584H90.9516V15.1934H93.4711V14.1387H92.0707C92.2934 12.8965 92.2934 11.9355 92.2875 11.0918V10.2246ZM84.8812 20.0684H92.5687V19.0137H86.182V16.6699H84.8812V20.0684Z" fill="#113287"/>
<path d="M104.347 9.68555H103.046V20.2559H104.347V14.9121H105.917V13.8223H104.347V9.68555ZM95.9916 17.3613L96.7298 18.3691C100.251 16.6348 101.54 13.8984 101.546 10.7871H96.5658V11.8652H100.222C99.9642 14.2793 98.5697 16.0723 95.9916 17.3613Z" fill="#113287"/>
<path d="M114.765 9.68555H113.453V15.3691H114.765V9.68555ZM106.129 12.6387C106.129 14.0859 107.348 15.1055 108.988 15.0996C110.623 15.1055 111.842 14.0859 111.836 12.6387C111.842 11.168 110.623 10.1484 108.988 10.1543C107.348 10.1484 106.129 11.168 106.129 12.6387ZM107.406 12.6387C107.4 11.7891 108.062 11.2383 108.988 11.2441C109.896 11.2383 110.558 11.7891 110.558 12.6387C110.558 13.4883 109.896 14.0273 108.988 14.0332C108.062 14.0273 107.4 13.4883 107.406 12.6387ZM107.758 20.1504H114.765V15.8613H113.465V16.9512H109.047V15.8613H107.758V20.1504ZM109.047 19.0957V17.9707H113.465V19.0957H109.047Z" fill="#113287"/>
<path d="M124.434 14.502H118.305V11.5137H124.352V10.4707H117.004V15.5332H120.004V17.959H115.832V19.0254H125.512V17.959H121.293V15.5332H124.434V14.502Z" fill="#113287"/>
<path d="M283.53 14.6787H278V15.0957H280.495V15.6631H278.663V16.0664H282.293V16.5928H278.677V17.9805H283.004V17.5703H279.21V16.9756H282.819V15.6631H281.021V15.0957H283.53V14.6787ZM278.294 13.9883L278.451 14.3984C279.47 14.313 280.386 13.9985 280.762 13.4209C281.134 13.9985 282.05 14.313 283.065 14.3984L283.229 13.9883C282.108 13.9165 281.158 13.5371 281.062 12.9287H282.97V12.5049H281.021V11.9375H280.495V12.5049H278.567V12.9287H280.458C280.358 13.5371 279.408 13.9165 278.294 13.9883Z" fill="#113287"/>
<path d="M289.081 11.9717H288.541V14.4189H287.208V14.8633H288.541V18.0625H289.081V11.9717ZM284.057 16.4561L284.364 16.873C285.058 16.5381 285.622 15.8306 285.885 14.9829C286.155 15.7827 286.726 16.4492 287.42 16.7637L287.728 16.3467C286.829 15.9434 286.142 14.9556 286.142 13.9541V13.4688H287.522V13.0312H286.148V12.0879H285.615V13.0312H284.221V13.4688H285.615V13.9541C285.615 15 284.949 16.0391 284.057 16.4561Z" fill="#113287"/>
<path d="M290.735 17.5361C290.978 17.5327 291.176 17.3345 291.173 17.0918C291.176 16.8525 290.978 16.6543 290.735 16.6543C290.496 16.6543 290.291 16.8525 290.298 17.0918C290.291 17.3345 290.496 17.5327 290.735 17.5361Z" fill="#113287"/>
<path d="M293.914 17.4951H296.949V16.9482H294.529V15.2871H296.758V14.7471H294.529V13.0928H296.915V12.5459H293.914V17.4951Z" fill="#113287"/>
<path d="M299.875 14.7471H300.449C300.374 14.1455 299.892 13.7354 299.123 13.7354C298.306 13.7354 297.749 14.1934 297.749 14.8291C297.749 15.3247 298.094 15.6768 298.74 15.8271L299.301 15.957C299.721 16.0562 299.909 16.2271 299.909 16.4902C299.909 16.8389 299.578 17.061 299.048 17.0576C298.58 17.061 298.316 16.8867 298.248 16.5244H297.633C297.732 17.2012 298.228 17.5737 299.062 17.5703C299.991 17.5737 300.514 17.0986 300.518 16.4561C300.514 15.9399 300.189 15.6084 299.526 15.4512L298.973 15.3145C298.539 15.2085 298.34 15.041 298.337 14.7949C298.34 14.4839 298.665 14.2378 299.123 14.2344C299.557 14.2378 299.793 14.4395 299.875 14.7471Z" fill="#113287"/>
<path d="M303.348 14.7471H303.922C303.847 14.1455 303.365 13.7354 302.596 13.7354C301.779 13.7354 301.222 14.1934 301.222 14.8291C301.222 15.3247 301.567 15.6768 302.213 15.8271L302.773 15.957C303.194 16.0562 303.382 16.2271 303.382 16.4902C303.382 16.8389 303.05 17.061 302.521 17.0576C302.052 17.061 301.789 16.8867 301.721 16.5244H301.105C301.205 17.2012 301.7 17.5737 302.534 17.5703C303.464 17.5737 303.987 17.0986 303.99 16.4561C303.987 15.9399 303.662 15.6084 302.999 15.4512L302.445 15.3145C302.011 15.2085 301.813 15.041 301.81 14.7949C301.813 14.4839 302.138 14.2378 302.596 14.2344C303.03 14.2378 303.266 14.4395 303.348 14.7471Z" fill="#113287"/>
<path d="M304.756 17.4951H305.344V13.7832H304.756V17.4951ZM304.64 12.7783C304.636 12.9937 304.824 13.168 305.05 13.168C305.275 13.168 305.463 12.9937 305.467 12.7783C305.463 12.5596 305.275 12.3853 305.05 12.3887C304.824 12.3853 304.636 12.5596 304.64 12.7783Z" fill="#113287"/>
<path d="M306.868 12.5459H306.28V17.4951H306.868V12.5459Z" fill="#113287"/>
<path d="M309.322 17.5703C310.331 17.5737 311.007 16.8081 311.004 15.6562C311.007 14.4976 310.331 13.7354 309.322 13.7354C308.311 13.7354 307.627 14.4976 307.627 15.6562C307.627 16.8081 308.311 17.5737 309.322 17.5703ZM308.215 15.6562C308.218 14.918 308.567 14.2549 309.322 14.2549C310.071 14.2549 310.416 14.918 310.416 15.6562C310.416 16.3979 310.071 17.0508 309.322 17.0508C308.567 17.0508 308.218 16.3979 308.215 15.6562Z" fill="#113287"/>
<path d="M311.776 17.4951H312.364V15.1572C312.364 14.6582 312.761 14.2891 313.294 14.2891C313.448 14.2891 313.605 14.3198 313.649 14.3301V13.7354C313.581 13.7285 313.431 13.7251 313.342 13.7217C312.904 13.7251 312.518 13.9746 312.385 14.3506H312.344V13.7832H311.776V17.4951Z" fill="#113287"/>
</svg>
